<svg xmlns="http://www.w3.org/2000/svg" viewBox="0 0 183.61 48.99"><title>applestore</title><g id="Calque_2" data-name="Calque 2"><g id="BODY"><g id="_1" data-name="1"><g id="icon"><path id="Fill-2" d="M29.1,22.78a9.76,9.76,0,0,1,4.63-8.17,10,10,0,0,0-7.85-4.25c-3.3-.35-6.51,2-8.18,2s-4.31-1.94-7.1-1.89A10.43,10.43,0,0,0,1.8,15.82C-2,22.41.84,32.09,4.48,37.41c1.83,2.6,3.95,5.52,6.75,5.42s3.75-1.74,7-1.74,4.22,1.74,7.07,1.68,4.77-2.62,6.54-5.25a21.34,21.34,0,0,0,3-6.08,9.44,9.44,0,0,1-5.75-8.65"/><path id="Fill-3" d="M23.73,6.87A9.6,9.6,0,0,0,25.92,0a9.73,9.73,0,0,0-6.31,3.27,9.2,9.2,0,0,0-2.25,6.61,8.06,8.06,0,0,0,6.37-3"/></g><path id="Fill-4" d="M68.61,42.45H64.8l-2.09-6.57H55.45l-2,6.57H49.76l7.19-22.35H61.4l7.22,22.35Zm-6.52-9.32L60.2,27.31c-.2-.61-.57-2-1.12-4.21H59c-.23,1-.57,2.36-1.06,4.21l-1.86,5.82Z"/><path id="Fill-5" d="M87.09,34.21a9.07,9.07,0,0,1-2.24,6.49,6.52,6.52,0,0,1-5,2.12,5,5,0,0,1-4.6-2.28V49H71.7V31.63c0-1.72,0-3.48-.14-5.3h3.15l.2,2.56H75a6.35,6.35,0,0,1,10.18-.64,8.76,8.76,0,0,1,1.94,5.95Zm-3.65.12a6.58,6.58,0,0,0-1.06-3.87,3.67,3.67,0,0,0-3.12-1.59,3.8,3.8,0,0,0-2.41.88A4.05,4.05,0,0,0,75.45,32a4.9,4.9,0,0,0-.17,1.09v2.69a4.33,4.33,0,0,0,1.07,3A3.57,3.57,0,0,0,79.16,40a3.69,3.69,0,0,0,3.15-1.56,6.83,6.83,0,0,0,1.13-4.12Z"/><path id="Fill-6" d="M105.6,34.21a9.07,9.07,0,0,1-2.24,6.49,6.52,6.52,0,0,1-5,2.12,5,5,0,0,1-4.6-2.28V49H90.22V31.63c0-1.72,0-3.48-.14-5.3h3.15l.2,2.56h.06a6.35,6.35,0,0,1,10.18-.64,8.76,8.76,0,0,1,1.94,5.95Zm-3.65.12a6.58,6.58,0,0,0-1.06-3.87,3.67,3.67,0,0,0-3.12-1.59,3.8,3.8,0,0,0-2.41.88A4.13,4.13,0,0,0,94,32a4.9,4.9,0,0,0-.17,1.09v2.69a4.33,4.33,0,0,0,1.07,3A3.57,3.57,0,0,0,97.68,40a3.67,3.67,0,0,0,3.15-1.56A6.73,6.73,0,0,0,102,34.33Z"/><path id="Fill-7" d="M126.33,36.19a6,6,0,0,1-2,4.64,8.8,8.8,0,0,1-6.08,2,10.64,10.64,0,0,1-5.78-1.39l.83-3a10,10,0,0,0,5.17,1.39,4.87,4.87,0,0,0,3.15-.91,3,3,0,0,0,1.13-2.44,3.15,3.15,0,0,0-.92-2.28,8.64,8.64,0,0,0-3.09-1.72c-3.95-1.47-5.9-3.6-5.9-6.4a5.68,5.68,0,0,1,2.07-4.51,8.22,8.22,0,0,1,5.49-1.75,10.8,10.8,0,0,1,5.07,1.06l-.91,2.9a8.93,8.93,0,0,0-4.3-1,4.46,4.46,0,0,0-3,.92,2.68,2.68,0,0,0-.89,2,2.72,2.72,0,0,0,1,2.18,11.54,11.54,0,0,0,3.25,1.72A10.91,10.91,0,0,1,125,32.3a5.66,5.66,0,0,1,1.38,3.89"/><path id="Fill-8" d="M138.19,29h-3.95v7.82c0,2,.7,3,2.09,3a6.64,6.64,0,0,0,1.59-.17l.11,2.72a8.3,8.3,0,0,1-2.78.39,4.28,4.28,0,0,1-3.31-1.3c-.8-.86-1.2-2.31-1.2-4.34V29h-2.35V26.34h2.35v-3l3.51-1.06v4h3.95V29"/><path id="Fill-9" d="M156,34.27a8.85,8.85,0,0,1-2.12,6.1,7.58,7.58,0,0,1-5.9,2.45,7.26,7.26,0,0,1-5.66-2.35,8.52,8.52,0,0,1-2.1-5.93,8.79,8.79,0,0,1,2.16-6.13A7.55,7.55,0,0,1,148.19,26a7.36,7.36,0,0,1,5.7,2.36A8.41,8.41,0,0,1,156,34.27Zm-3.71.08a7.22,7.22,0,0,0-1-3.8,3.71,3.71,0,0,0-6.51,0,7.25,7.25,0,0,0-1,3.87,7.18,7.18,0,0,0,1,3.8,3.67,3.67,0,0,0,6.48,0A7.33,7.33,0,0,0,152.25,34.34Z"/><path id="Fill-10" d="M167.6,29.49a6.63,6.63,0,0,0-1.13-.09,3.38,3.38,0,0,0-2.92,1.42,5.4,5.4,0,0,0-.89,3.18v8.46h-3.59v-11c0-1.86,0-3.56-.11-5.07h3.12l.14,3.09h.11a5.49,5.49,0,0,1,1.79-2.56A4.36,4.36,0,0,1,166.7,26a7.54,7.54,0,0,1,.89.06l0,3.42"/><path id="Fill-11" d="M183.61,33.63a8.18,8.18,0,0,1-.14,1.62H172.73a4.67,4.67,0,0,0,1.56,3.65A5.36,5.36,0,0,0,177.8,40a12.05,12.05,0,0,0,4.34-.76l.56,2.48a13.44,13.44,0,0,1-5.4,1,7.83,7.83,0,0,1-5.89-2.21,8.15,8.15,0,0,1-2.13-5.92,9.24,9.24,0,0,1,2-6.07A6.85,6.85,0,0,1,176.91,26a6,6,0,0,1,5.26,2.59,8.75,8.75,0,0,1,1.44,5.08Zm-3.42-.92a4.82,4.82,0,0,0-.7-2.75,3.12,3.12,0,0,0-2.84-1.5,3.4,3.4,0,0,0-2.84,1.45,5.38,5.38,0,0,0-1.06,2.78l7.44,0Z"/><g id="Available-on-the"><path id="Fill-12" d="M60.37,12.12H58.49l-1-3.22H53.89l-1,3.22H51.09l3.53-11H56.8ZM57.15,7.53l-.92-2.87c-.09-.29-.27-1-.56-2.07h0c-.12.47-.27,1.15-.53,2.07L54.2,7.53Z"/><path id="Fill-13" d="M69.2,4.19l-3,7.93H64.5l-2.9-7.93h1.89l1.35,4.19c.23.7.42,1.36.57,2h0c.14-.57.33-1.24.57-2l1.33-4.19H69.2"/><path id="Fill-14" d="M75.59,12.12l-.14-.91h0a2.72,2.72,0,0,1-2.31,1.09A2.3,2.3,0,0,1,70.67,10c0-2,1.69-3,4.63-3V6.85c0-1-.56-1.56-1.65-1.56a3.7,3.7,0,0,0-2.07.59l-.36-1.15a5.09,5.09,0,0,1,2.72-.68c2.07,0,3.12,1.09,3.12,3.28v2.92a10.55,10.55,0,0,0,.12,1.89l-1.59,0Zm-.24-3.95c-2,0-2.94.47-2.94,1.6A1.12,1.12,0,0,0,73.62,11,1.68,1.68,0,0,0,75.35,9.4Z"/><path id="Fill-15" d="M81,2.89a1,1,0,0,1-1-1.06,1.07,1.07,0,0,1,2.15,0A1,1,0,0,1,81,2.89Zm-.85,1.3h1.75V12.1H80.13Z"/><path id="Fill-16" d="M85,.56h1.75V12.1H85Z"/><path id="Fill-17" d="M94.24,12.12l-.14-.91h0a2.72,2.72,0,0,1-2.31,1.09A2.3,2.3,0,0,1,89.33,10C89.33,8,91,7,94,7V6.85c0-1-.56-1.56-1.65-1.56a3.7,3.7,0,0,0-2.07.59l-.36-1.16A5.09,5.09,0,0,1,92.59,4c2.07,0,3.12,1.09,3.12,3.28v2.92a12.51,12.51,0,0,0,.11,1.89H94.24v0ZM94,8.17c-2,0-2.94.47-2.94,1.6A1.12,1.12,0,0,0,92.28,11,1.68,1.68,0,0,0,94,9.4Z"/><path id="Fill-18" d="M102.85,12.3a2.7,2.7,0,0,1-2.5-1.41h0l-.11,1.23h-1.5c0-.64.06-1.35.06-2.13V.56h1.77v4.8h0A2.72,2.72,0,0,1,103.11,4c1.91,0,3.24,1.63,3.24,4S104.86,12.3,102.85,12.3Zm-.36-6.88a2,2,0,0,0-1.94,2.1V8.91a1.93,1.93,0,0,0,1.91,2c1.32,0,2.1-1.07,2.1-2.78S103.74,5.42,102.49,5.42Z"/><path id="Fill-19" d="M108.95.56h1.75V12.1h-1.75Z"/><path id="Fill-20" d="M120.28,8.58H115a2.27,2.27,0,0,0,2.5,2.35,6,6,0,0,0,2.13-.38l.27,1.23a6.42,6.42,0,0,1-2.65.48,3.68,3.68,0,0,1-3.95-4c0-2.42,1.5-4.25,3.75-4.25,2,0,3.3,1.5,3.3,3.77a3.07,3.07,0,0,1-.08.8Zm-1.6-1.26c0-1.23-.62-2.09-1.74-2.09A2.09,2.09,0,0,0,115,7.32Z"/><path id="Fill-21" d="M130.95,12.3a3.77,3.77,0,0,1-3.81-4.07A3.86,3.86,0,0,1,131.08,4a3.74,3.74,0,0,1,3.81,4.05A3.88,3.88,0,0,1,130.95,12.3Zm.08-7c-1.27,0-2.09,1.2-2.09,2.84S129.77,11,131,11s2.07-1.27,2.07-2.86-.82-2.8-2.06-2.8Z"/><path id="Fill-22" d="M144.35,12.12h-1.75V7.56c0-1.41-.54-2.1-1.6-2.1a1.82,1.82,0,0,0-1.75,1.94V12.1h-1.75V6.46c0-.7,0-1.45-.06-2.27H139L139,5.42h0A2.85,2.85,0,0,1,141.6,4c1.66,0,2.75,1.27,2.75,3.34v4.75"/><path id="Fill-23" d="M155.86,5.52h-1.94V9.36c0,1,.35,1.47,1,1.47a3.85,3.85,0,0,0,.79-.08l0,1.33a3.81,3.81,0,0,1-1.36.2c-1.39,0-2.21-.77-2.21-2.77v-4h-1.15V4.21h1.15V2.75l1.72-.53v2h1.94V5.52"/><path id="Fill-24" d="M165.18,12.12h-1.75V7.59c0-1.42-.54-2.13-1.6-2.13a1.72,1.72,0,0,0-1.75,1.88V12.1h-1.75V.56h1.75V5.31h0A2.66,2.66,0,0,1,162.47,4c1.68,0,2.71,1.3,2.71,3.37v4.72"/><path id="Fill-25" d="M174.17,8.58h-5.28a2.27,2.27,0,0,0,2.5,2.35,6,6,0,0,0,2.13-.38l.27,1.23a6.42,6.42,0,0,1-2.65.48,3.68,3.68,0,0,1-3.95-4c0-2.42,1.5-4.25,3.75-4.25,2,0,3.3,1.5,3.3,3.77A3.07,3.07,0,0,1,174.17,8.58Zm-1.6-1.26c0-1.23-.62-2.09-1.74-2.09a2.08,2.08,0,0,0-1.92,2.09Z"/></g></g></g></g></svg>