<svg xmlns="http://www.w3.org/2000/svg" viewBox="0 0 21.67 23.81"><title>building_trait</title><g id="Calque_2" data-name="Calque 2"><g id="BODY"><g id="_1" data-name="1"><path d="M21.27,23H20.6V2a.4.4,0,0,0-.4-.4H12.71a.4.4,0,0,0-.4.4V3.75h-.8V2a.4.4,0,0,0-.4-.4H9.36V.4a.4.4,0,1,0-.8,0v1.2H6.82a.4.4,0,0,0-.4.4V3.75H5.22a.4.4,0,0,0-.4.4V7.49H1.47a.4.4,0,0,0-.4.4V23H.4a.4.4,0,0,0,0,.8H21.27a.4.4,0,1,0,0-.8Zm-14-20.6H10.7V3.75H7.22ZM5.89,23H5.62v-.67a.4.4,0,1,0-.8,0V23H4.55V21.67H5.89Zm2.68-10.3V23H6.69V21.27a.4.4,0,0,0-.4-.4H4.15a.4.4,0,0,0-.4.4V23H1.87V8.29H8.56v4.41ZM9,7.49H5.62V4.55h6.69v7.76H9.36V11h1.2a.4.4,0,1,0,0-.8H9.36V8.83h1.2a.4.4,0,1,0,0-.8H9.36V7.89A.4.4,0,0,0,9,7.49ZM16.05,23H9.36v-9.9h6.69Zm3.75,0H16.86V12.17a.4.4,0,0,0-.8,0v.13h-.8v-.13a.4.4,0,0,0-.8,0v.13H13.11V2.41H19.8V23Z"/><path d="M11.1,22.21a.4.4,0,0,0,.4-.4V14.31a.4.4,0,0,0-.8,0v7.49A.4.4,0,0,0,11.1,22.21Z"/><path d="M12.71,22.21a.4.4,0,0,0,.4-.4V14.31a.4.4,0,0,0-.8,0v7.49A.4.4,0,0,0,12.71,22.21Z"/><path d="M14.31,22.21a.4.4,0,0,0,.4-.4V14.31a.4.4,0,0,0-.8,0v7.49A.4.4,0,0,0,14.31,22.21Z"/><path d="M14.85,5.08a.4.4,0,0,0,.4-.4V4.15a.4.4,0,0,0-.8,0v.54A.4.4,0,0,0,14.85,5.08Z"/><path d="M16.45,5.08a.4.4,0,0,0,.4-.4V4.15a.4.4,0,1,0-.8,0v.54A.4.4,0,0,0,16.45,5.08Z"/><path d="M18.06,5.08a.4.4,0,0,0,.4-.4V4.15a.4.4,0,0,0-.8,0v.54A.4.4,0,0,0,18.06,5.08Z"/><path d="M14.85,7.76a.4.4,0,0,0,.4-.4V6.82a.4.4,0,0,0-.8,0v.54A.4.4,0,0,0,14.85,7.76Z"/><path d="M16.45,7.76a.4.4,0,0,0,.4-.4V6.82a.4.4,0,1,0-.8,0v.54A.4.4,0,0,0,16.45,7.76Z"/><path d="M18.06,7.76a.4.4,0,0,0,.4-.4V6.82a.4.4,0,0,0-.8,0v.54A.4.4,0,0,0,18.06,7.76Z"/><path d="M14.85,10.43a.4.4,0,0,0,.4-.4V9.5a.4.4,0,0,0-.8,0V10A.4.4,0,0,0,14.85,10.43Z"/><path d="M16.45,10.43a.4.4,0,0,0,.4-.4V9.5a.4.4,0,1,0-.8,0V10A.4.4,0,0,0,16.45,10.43Z"/><path d="M18.06,10.43a.4.4,0,0,0,.4-.4V9.5a.4.4,0,0,0-.8,0V10A.4.4,0,0,0,18.06,10.43Z"/><path d="M3.61,11.5a.4.4,0,0,0,.4-.4v-.54a.4.4,0,1,0-.8,0v.54A.4.4,0,0,0,3.61,11.5Z"/><path d="M5.22,11.5a.4.4,0,0,0,.4-.4v-.54a.4.4,0,1,0-.8,0v.54A.4.4,0,0,0,5.22,11.5Z"/><path d="M6.82,11.5a.4.4,0,0,0,.4-.4v-.54a.4.4,0,1,0-.8,0v.54A.4.4,0,0,0,6.82,11.5Z"/><path d="M3.61,14.18a.4.4,0,0,0,.4-.4v-.54a.4.4,0,1,0-.8,0v.54A.4.4,0,0,0,3.61,14.18Z"/><path d="M5.22,14.18a.4.4,0,0,0,.4-.4v-.54a.4.4,0,1,0-.8,0v.54A.4.4,0,0,0,5.22,14.18Z"/><path d="M6.82,14.18a.4.4,0,0,0,.4-.4v-.54a.4.4,0,1,0-.8,0v.54A.4.4,0,0,0,6.82,14.18Z"/><path d="M3.61,16.86a.4.4,0,0,0,.4-.4v-.54a.4.4,0,1,0-.8,0v.54A.4.4,0,0,0,3.61,16.86Z"/><path d="M5.22,16.86a.4.4,0,0,0,.4-.4v-.54a.4.4,0,1,0-.8,0v.54A.4.4,0,0,0,5.22,16.86Z"/><path d="M6.82,16.86a.4.4,0,0,0,.4-.4v-.54a.4.4,0,1,0-.8,0v.54A.4.4,0,0,0,6.82,16.86Z"/><path d="M3.61,19.53a.4.4,0,0,0,.4-.4V18.6a.4.4,0,1,0-.8,0v.54A.4.4,0,0,0,3.61,19.53Z"/><path d="M5.22,19.53a.4.4,0,0,0,.4-.4V18.6a.4.4,0,1,0-.8,0v.54A.4.4,0,0,0,5.22,19.53Z"/><path d="M6.82,19.53a.4.4,0,0,0,.4-.4V18.6a.4.4,0,1,0-.8,0v.54A.4.4,0,0,0,6.82,19.53Z"/><path d="M18.06,13.11a.4.4,0,0,0,.4-.4v-.54a.4.4,0,0,0-.8,0v.54A.4.4,0,0,0,18.06,13.11Z"/><path d="M18.06,15.79a.4.4,0,0,0,.4-.4v-.54a.4.4,0,0,0-.8,0v.54A.4.4,0,0,0,18.06,15.79Z"/><path d="M18.06,18.46a.4.4,0,0,0,.4-.4v-.54a.4.4,0,0,0-.8,0v.54A.4.4,0,0,0,18.06,18.46Z"/><path d="M18.06,21.14a.4.4,0,0,0,.4-.4V20.2a.4.4,0,0,0-.8,0v.54A.4.4,0,0,0,18.06,21.14Z"/><path d="M11,6.29a.4.4,0,0,0-.4-.4H7.36a.4.4,0,1,0,0,.8h3.21A.4.4,0,0,0,11,6.29Z"/></g></g></g></svg>