<?xml version="1.0" encoding="utf-8"?>
<!-- Generator: Adobe Illustrator 24.0.1, SVG Export Plug-In . SVG Version: 6.00 Build 0)  -->
<svg version="1.1" id="Calque_1" xmlns="http://www.w3.org/2000/svg" xmlns:xlink="http://www.w3.org/1999/xlink" x="0px" y="0px"
	 viewBox="0 0 651.1 520.3" style="enable-background:new 0 0 651.1 520.3;" xml:space="preserve">
<style type="text/css">
	.st0{opacity:0.5;fill:#FF85A1;enable-background:new    ;}
	.st1{fill:#3F3D56;}
	.st2{fill:#FFFFFF;}
	.st3{fill:#FF2F63;}
	.st4{fill:#3C3C3C;}
</style>
<path class="st0" d="M642.3,278.2c-1.6,42.7-22,79.6-46.2,108.6c-19.4,23.2-41.7,42.4-66.1,57.2c-4.7,2.9-9.4,5.6-14.3,8.1
	c-12.3,6.5-25.1,11.9-38.1,16.3c-7.8,2.6-15.8,4.9-23.8,6.7c-27.9,6.5-56.9,8.1-85.7,4.8c-8.4-0.9-16.7-2.4-25-4.1
	c-13.9-3-27.7-7.3-41.2-12.7c-3.1-1.2-5.9-2.5-8.9-3.8l-1.3-0.5c-2.3-1.1-4.7-2.2-7-3.2c-4-1.9-8-3.2-11.9-4.3
	c-0.3-0.1-0.5-0.1-0.8-0.2c-0.7-0.1-1.5-0.3-2.2-0.4c-1.6-0.3-3.1-0.4-4.6-0.5c-7.2-0.3-14.1,1.5-20.7,4.5c-1.2,0.4-2.2,1-3.2,1.6
	l0,0c-1.5,0.8-3,1.7-4.5,2.6l-0.5,0.4c-4.7,3-9.1,6.4-13.3,10.3c-6.6,5.8-12.7,12.3-19,18.5l0,0c-2.6,2.6-5.4,5.2-8.2,7.6l-0.6,0.5
	c-4,3.5-8.1,6.6-12.4,9.5c-9.9,6.2-20.9,9.7-32.3,10.3l-0.4,0.1h-0.7h-1c-1.7,0-3.4,0.1-5.1,0l-1-0.1c-1.6-0.1-3.2-0.2-4.9-0.4
	l-1.1-0.1c-1.7-0.2-3.4-0.5-5.1-0.9c-0.6-0.1-1.2-0.2-1.8-0.4c-1.8-0.4-3.6-0.8-5.3-1.4c-1.9-0.5-3.8-1.1-5.6-1.8
	c-0.9-0.3-1.7-0.7-2.6-1c-4.9-1.9-9.7-4.4-14.3-7.2c-0.3-0.2-0.5-0.3-0.7-0.4c-1.3-0.8-2.5-1.6-3.7-2.5c-0.4-0.3-0.9-0.6-1.3-1
	c-1.4-1-2.9-2.2-4.3-3.3c-0.2-0.2-0.4-0.4-0.5-0.5c-5.8-4.8-11.1-10.3-15.9-16.6c-0.2-0.2-0.3-0.4-0.4-0.5c-1.4-2-2.9-4-4.3-6.1
	c-0.5-0.9-1.2-1.8-1.7-2.7c-0.2-0.3-0.4-0.6-0.4-0.8c-7.9-13.3-13.4-28.3-18.5-43.2c-0.6-1.7-1.2-3.5-1.8-5.3
	c-8.2-24.4-16.4-49.2-21.7-74.4c-0.1-0.2-0.1-0.3-0.1-0.5c-1.8-8.5-3.2-17.1-4.2-25.7c-1.2-9-1.7-18.1-1.8-27.2
	c-0.1-22.2,3.5-44,8.5-64.9c6.1-25.3,14.6-49.6,25.7-71.6c1.6-3.2,3.2-6.3,5-9.3l0.8-1.4c0.3-0.5,0.5-1,0.8-1.5l0,0
	c0.6-1,1.2-2,1.7-3l0.6-1.1l1.3-2.1l0.4-0.6l0.7-1.1l0.6-1.1c0.8-1.3,1.6-2.5,2.4-3.7c3.5-5.3,7.3-10.3,11.2-15.1
	c1.2-1.4,2.3-2.8,3.6-4.2c5.5-6.2,11.2-12,17.4-17.1c2.3-1.9,4.6-3.8,7-5.5c2.8-2.1,5.7-4,8.5-5.8c4.6-2.9,9.4-5.5,14.3-7.7
	c34.4-16,74.3-16.9,110.9-1.3c14.6,6.2,28.8,14.9,43.8,18c12.8,2.8,26.3,0.4,35.8-10.1c7.8-8.7,13.2-13.8,23.9-17.6
	c22.4-7.9,45.9-11.4,69.8-10.7c0.9,0,1.9,0,2.9,0.1c62.4,2.8,125.9,34.2,172.3,89.7c1.3,1.5,2.4,3,3.6,4.5
	C622.2,183.6,644.1,230.6,642.3,278.2z"/>
<g>
	<path class="st1" d="M450.8,148.6C434.8,70,366.4,10.8,283.2,10.8c-66.1,0-123.2,37.6-151.7,92.3c-68.3,6.9-122,65-122,135.6
		c0.1,75.2,61.7,136.8,136.9,136.8h296.4c62.8,0,114-51.3,114-114C557,201.7,510.4,152.1,450.8,148.6z"/>
	<g id="Symbole_24_1_1_" transform="translate(-577 -446.516)">
		<path id="Tracé_3456_1_" class="st2" d="M803.3,667.2c0.5-0.3,1.4-0.2,1.4-0.2h3.5c2.9,0,5.8-0.5,8.5-1.6
			c2.5-0.9,4.7-2.6,6.3-4.7c1.6-2.1,2.4-4.7,2.4-7.8s-0.8-5.7-2.2-7.8c-1.5-2.1-3.6-3.8-6-4.7c-2.7-1.1-5.6-1.6-8.5-1.6h-12.3
			c0,0-1.5,0-2.2,0.6s-0.8,1.7-0.8,1.7v38c0,0.3,0.1,0.6,0.2,0.9c0.2,0.2,0.5,0.2,0.9,0.2h7.3c0.3,0,0.6-0.1,0.9-0.2
			c0.3-0.3,0.2-0.9,0.2-0.9v-10.9C802.9,667.7,803,667.4,803.3,667.2z M808.4,646.4c2.2,0,4,0.5,5.2,1.7s1.9,2.8,1.9,5
			c-0.1,1.9-0.7,3.4-2,4.6c-1.2,1.1-2.9,1.7-5,1.7h-4.7c-0.2,0-0.5-0.1-0.7-0.2c-0.2-0.2-0.2-0.5-0.2-0.7v-11.3
			c0-0.2,0.1-0.4,0.2-0.5c0.2-0.1,0.5-0.2,0.8-0.2L808.4,646.4L808.4,646.4z"/>
		<path id="Tracé_3455_1_" class="st2" d="M834.7,646.2c1.4,0,2.8-0.5,3.7-1.6c1-0.9,1.6-2.3,1.6-3.7s-0.5-2.8-1.6-3.7
			c-1-1-2.3-1.6-3.7-1.6s-2.7,0.5-3.7,1.6c-1,1-1.6,2.3-1.6,3.7s0.5,2.7,1.6,3.7C832,645.7,833.3,646.2,834.7,646.2z M839.2,679.4
			c0.2-0.3,0.3-0.6,0.3-1v-25.7c0,0,0.1-1.2-0.5-1.8c-0.5-0.6-1.7-0.7-1.7-0.7h-4.4c0,0-1.5,0.1-2.2,0.9s-0.7,2.3-0.7,2.3v24.3
			c0,0-0.1,1.1,0.4,1.6s1.5,0.4,1.5,0.4h6.2C838.5,679.8,838.9,679.7,839.2,679.4z M878.8,679.3c0.7-0.5,0.9-1.6,0.9-1.6l8.6-26.2
			c0,0,0.2-0.6,0-0.9c-0.2-0.3-0.9-0.3-0.9-0.3h-7c-0.4,0-0.8,0.2-1.2,0.3c-0.3,0.2-0.5,0.5-0.5,0.9l-3.3,14.6
			c0,0.2-0.2,0.5-0.5,0.5l0,0c-0.2,0-0.5-0.2-0.5-0.5l0,0l-3.6-14.3c-0.1-0.4-0.2-0.8-0.5-1.1c-0.4-0.2-0.9-0.4-1.2-0.3h-6.6
			c-0.5,0-0.9,0.2-1.2,0.3c-0.3,0.2-0.5,0.5-0.5,0.9l-2.8,13.5c0,0-0.1,0.4-0.9,0.6c-0.8,0.2-1.1-0.6-1.1-0.6l-2.9-13.3
			c0,0-0.1-1.2-0.8-1.8c-0.7-0.5-1.9-0.2-1.9-0.2l-4.3,1.2c0,0-1.4,0.3-1.9,1.2s0,2.2,0,2.2l7.4,23.2c0,0,0.2,1.2,0.9,1.8
			c0.8,0.5,2.1,0.5,2.1,0.5h4.2c0,0,1.1,0,1.7-0.5c0.6-0.5,0.8-1.6,0.8-1.6l3.5-12.3c0.1-0.4,0.4-0.7,0.9-0.7s0.8,0.3,0.9,0.7
			l3.5,12.1c0,0,0.2,1.2,0.9,1.8c0.8,0.6,2.2,0.5,2.2,0.5h3.9C877.1,679.8,878.1,679.8,878.8,679.3L878.8,679.3z M897.2,646.2
			c1.4,0,2.8-0.5,3.7-1.6c1-0.9,1.6-2.3,1.6-3.7s-0.5-2.8-1.6-3.7c-1-1-2.3-1.6-3.7-1.6s-2.7,0.5-3.7,1.6c-1,1-1.6,2.3-1.6,3.7
			s0.5,2.7,1.6,3.7C894.4,645.7,895.8,646.2,897.2,646.2z M901.5,679.3c0.6-0.5,0.5-1.6,0.5-1.6v-25.4c0,0,0-0.9-0.5-1.4
			c-0.4-0.3-0.8-0.5-1.2-0.5h-5.7c0,0-1.1,0.1-1.6,0.6s-0.5,1.6-0.5,1.6v24.9c0,0-0.1,1.4,0.4,2s1.6,0.5,1.6,0.5h5.2
			C899.6,679.8,900.9,679.8,901.5,679.3z M936.4,650.8c0.2,0.4,0.2,2.1,0.2,2.1l-0.1,28.1c0.1,2.4-0.6,4.8-2,6.8s-3.3,3.6-5.6,4.5
			c-2.4,1-5.2,1.6-8.4,1.6c-1.6,0-3.8-0.3-6.4-0.9c-1.7-0.4-3.4-0.9-5-1.7c-0.5-0.2-0.8-0.6-0.9-1.1s0-0.9,0.2-1.3l1.2-2.9
			c0.2-0.5,0.6-0.9,1.1-1.1c0.8-0.3,1.2-0.3,2,0c2.3,0.9,4.7,1.4,7.2,1.5c2.1,0,3.7-0.5,5-1.4c1.2-0.9,1.9-2.3,1.9-3.8
			c0,0,0.2-1.6-1.1-1.6c-1.3-0.1-2,1.2-4.3,1.2c-4.6,0-8.2-1.3-10.9-4s-4.1-6.5-4.1-11.4s1.4-8.8,4.1-11.6c2.8-2.8,6.5-4.2,11.2-4.2
			c1.5,0,2.9,0.3,4.2,0.9c1.4,0.5,2.6,2.3,4,2.3s-0.1-2.2,1.6-2.2c1,0,2.2,0,3.4,0C935.7,650.4,936.1,650.4,936.4,650.8z
			 M922.6,672.9c1.3,0,2.4-0.2,3.6-1.6c1.1-1.3,0.9-3.6,0.9-3.6v-5c0,0,0.3-2.7-0.9-4.1c-1.2-1.4-2.2-1.5-3.8-1.5
			c-1.7,0-3.3,0.8-4.3,2.2c-1.1,1.5-1.6,3.4-1.6,5.8s0.5,4.3,1.6,5.7C919.1,672.2,920.6,672.9,922.6,672.9z M974.1,665.1
			c0,3.2-0.7,5.9-2.1,8.2c-1.4,2.3-3.4,4.2-5.8,5.3c-2.5,1.2-5.3,1.9-8.5,1.9s-6-0.6-8.5-1.8c-2.4-1.2-4.3-3-5.7-5.3s-2-5.1-2-8.5
			c0-3.2,0.7-5.9,2.1-8.3c1.4-2.3,3.4-4.2,5.8-5.4c2.5-1.2,5.3-1.9,8.5-1.9s6,0.6,8.5,1.9c2.4,1.2,4.4,3.1,5.7,5.4
			C973.4,659,974.1,661.8,974.1,665.1z M957.7,672.7c1.9,0,3.5-0.7,4.7-2.1c1.2-1.4,1.8-3.2,1.8-5.5s-0.5-4.1-1.7-5.6
			c-1.1-1.4-2.8-2.2-4.6-2.2c-2,0-3.6,0.7-4.7,2.1c-1.2,1.4-1.8,3.3-1.8,5.6s0.5,4.2,1.7,5.6C954.2,672,955.8,672.7,957.7,672.7z"/>
		<path id="Tracé_3467_1_" class="st3" d="M740.3,669v-19.5c0-6,5-11,11-11h25.9l3.2,1.5l1.5,3.2V669c0,6-5,11-11,11l0,0h-19.6
			C745.3,680.1,740.3,675.2,740.3,669L740.3,669z"/>
		<path id="Tracé_3469_1_" class="st3" d="M774.2,635.7c4.1,0,7.6,3.3,7.6,7.4c0,4.1-3.5,7.4-7.6,7.4s-18.6-12-18.2-12
			c0.3,0-8.4,0,2.8,0C769.9,638.6,769.4,635.8,774.2,635.7z"/>
		<circle id="Ellipse_69_1_" class="st2" cx="774.4" cy="643" r="2.6"/>
		<circle id="Ellipse_67_1_" class="st2" cx="761.1" cy="659.4" r="12.3"/>
		<circle id="Ellipse_68_1_" class="st4" cx="761.1" cy="659.4" r="8.7"/>
	</g>
</g>
</svg>
