<svg xmlns="http://www.w3.org/2000/svg" viewBox="0 0 338.08 222.19"><defs><style>.cls-1{opacity:0.44;}.cls-2{fill:#fff;}</style></defs><title>cloud_1</title><g id="Calque_2" data-name="Calque 2"><g id="BODY"><g id="_1" data-name="1"><g class="cls-1"><path class="cls-2" d="M298.8,125.9a88.38,88.38,0,0,0-22.53,0,4.73,4.73,0,0,1-.73.06,4.81,4.81,0,0,1-.72-9.57,91.9,91.9,0,0,1,19.64-.6C291.23,78.51,260.29,49,223,49c-22.6,0-45.31,11.45-59.1,29.49a43.2,43.2,0,0,1,15.4,33.06,4.81,4.81,0,0,1-9.62,0,33.62,33.62,0,0,0-18.82-30.17c-.33-.16-.67-.33-1-.49a32.77,32.77,0,0,0-4-1.54l-.51-.13a33.83,33.83,0,0,0-3.8-.85l-1.12-.17a34.36,34.36,0,0,0-4.41-.32,33.72,33.72,0,0,0-33.68,33.68c0,.39,0,.78.06,1.17l.06,1,0,.77c0,.63-.07,1.25-.07,1.86v3l-2.73,1.3C81.68,129.28,68.66,150,68.66,170a52.24,52.24,0,0,0,52.18,52.18h68.1V169.27a19.24,19.24,0,1,1,38.49,0v52.92h11.32c.28,0,.56,0,.84,0l1-.05,1.3.05c.27,0,.55,0,.83,0h47.16a48.3,48.3,0,0,0,48.25-48.25C338.08,150.8,321.19,130.16,298.8,125.9Z"/><rect class="cls-2" x="174.7" y="144.21" width="64.88" height="77.94"/></g><g class="cls-1"><path class="cls-2" d="M0,47.48A18.35,18.35,0,0,0,18.33,65.81H36.25l.32,0,.5,0,.36,0,.32,0H42V45.7a7.31,7.31,0,0,1,14.62,0V65.81H82.54A19.85,19.85,0,0,0,102.36,46,21.73,21.73,0,0,0,90.61,27.24l-1-.5V25.59c0-.23,0-.47,0-.71l0-.29,0-.38c0-.15,0-.3,0-.45A12.81,12.81,0,0,0,76.77,11a13.06,13.06,0,0,0-1.67.12l-.43.07a12.85,12.85,0,0,0-1.44.32l-.19,0a12.45,12.45,0,0,0-1.53.59l-.38.18A12.77,12.77,0,0,0,64,23.76a1.83,1.83,0,0,1-3.66,0A16.41,16.41,0,0,1,66.17,11.2,29,29,0,0,0,43.72,0C29.56,0,17.8,11.21,16.57,25.38a34.92,34.92,0,0,1,7.46.23,1.83,1.83,0,0,1-.27,3.64l-.28,0a33.58,33.58,0,0,0-8.56,0A18.74,18.74,0,0,0,0,47.48Z"/><rect class="cls-2" x="37.42" y="36.18" width="24.65" height="29.61" transform="translate(99.5 101.97) rotate(-180)"/></g></g></g></g></svg>