<?xml version="1.0" encoding="utf-8"?>
<!-- Generator: Adobe Illustrator 24.0.1, SVG Export Plug-In . SVG Version: 6.00 Build 0)  -->
<svg version="1.1" id="Calque_1" xmlns="http://www.w3.org/2000/svg" xmlns:xlink="http://www.w3.org/1999/xlink" x="0px" y="0px"
	 viewBox="0 0 781 484" style="enable-background:new 0 0 781 484;" xml:space="preserve">
<style type="text/css">
	.st0{opacity:0.5;fill:#FF85A1;}
	.st1{fill:#3F3D56;}
	.st2{fill:#FFFFFF;}
	.st3{fill:#FF2F63;}
	.st4{fill:#3C3C3C;}
</style>
<g>
	<path class="st0" d="M769.9,238.5c-1.8,42.8-24.5,79.7-51.4,108.7c-21.6,23.2-46.4,42.5-73.6,57.3c-5.2,2.9-10.5,5.6-15.9,8.1
		c-13.7,6.5-27.9,11.9-42.4,16.3c-8.7,2.6-17.6,4.9-26.5,6.7c-31.1,6.5-63.3,8.1-95.4,4.8c-9.3-0.9-18.6-2.4-27.8-4.1
		c-15.5-3-30.8-7.3-45.9-12.7c-3.4-1.2-6.6-2.5-9.9-3.8l-1.4-0.5c-2.6-1.1-5.2-2.2-7.8-3.2c-4.4-1.9-8.9-3.2-13.3-4.3
		c-0.3-0.1-0.6-0.1-0.9-0.2c-0.8-0.1-1.7-0.3-2.5-0.4c-1.8-0.3-3.5-0.4-5.1-0.5c-8-0.3-15.7,1.5-23,4.5c-1.3,0.4-2.4,1-3.6,1.6l0,0
		c-1.7,0.8-3.3,1.7-5,2.6l-0.6,0.4c-5.2,3-10.1,6.4-14.8,10.3c-7.3,5.8-14.1,12.3-21.1,18.5l0,0c-2.9,2.6-6,5.2-9.1,7.6l-0.7,0.5
		c-4.4,3.5-9,6.6-13.8,9.5c-11,6.2-23.3,9.7-35.9,10.3l-0.4,0.1l-0.8,0l-1.1,0c-1.9,0-3.8,0.1-5.7,0l-1.1-0.1
		c-1.8-0.1-3.6-0.2-5.5-0.4l-1.2-0.1c-1.9-0.2-3.8-0.5-5.7-0.9c-0.7-0.1-1.3-0.2-2-0.4c-2-0.4-4-0.8-5.9-1.4
		c-2.1-0.5-4.2-1.1-6.2-1.8c-1-0.3-1.9-0.7-2.9-1c-5.4-1.9-10.8-4.4-15.9-7.2c-0.3-0.2-0.6-0.3-0.8-0.4c-1.4-0.8-2.8-1.6-4.1-2.5
		c-0.5-0.3-1-0.6-1.5-1c-1.6-1-3.2-2.2-4.8-3.3c-0.2-0.2-0.4-0.4-0.6-0.5c-6.5-4.8-12.4-10.3-17.7-16.6c-0.2-0.2-0.3-0.4-0.5-0.5
		c-1.6-2-3.2-4-4.8-6.1c-0.6-0.9-1.3-1.8-1.9-2.7c-0.2-0.3-0.4-0.6-0.5-0.8c-8.8-13.3-14.9-28.3-20.6-43.3c-0.7-1.7-1.3-3.5-2-5.3
		c-9.1-24.4-18.2-49.3-24.1-74.5c-0.1-0.2-0.1-0.3-0.1-0.5c-2-8.5-3.6-17.1-4.7-25.7c-1.3-9-1.9-18.1-2-27.2
		c-0.1-22.2,3.9-44.1,9.5-65c6.8-25.3,16.2-49.7,28.6-71.7c1.8-3.2,3.6-6.3,5.6-9.3l0.9-1.4c0.3-0.5,0.6-1,0.9-1.5l0,0
		c0.7-1,1.3-2,1.9-3l0.7-1.1l1.4-2.1l0.4-0.6l0.8-1.1l0.7-1.1c0.9-1.3,1.8-2.5,2.7-3.7c3.9-5.3,8.1-10.3,12.5-15.1
		c1.3-1.4,2.6-2.8,4-4.2c6.1-6.2,12.5-12,19.4-17.1c2.6-1.9,5.1-3.8,7.8-5.5c3.1-2.1,6.3-4,9.5-5.8c5.1-2.9,10.5-5.5,15.9-7.7
		c38.3-16,82.7-16.9,123.4-1.3c16.2,6.2,32,14.9,48.7,18C387,54.9,402,52.5,412.5,42c8.7-8.7,14.7-13.8,26.6-17.6
		c24.9-7.9,51.1-11.4,77.7-10.7c1,0,2.1,0,3.2,0.1c69.5,2.8,140.1,34.2,191.8,89.8c1.4,1.5,2.7,3,4,4.5
		C747.5,143.8,771.9,190.8,769.9,238.5z"/>
	<g>
		<path class="st1" d="M447.5,144.1C431.5,65.5,363.1,6.3,279.9,6.3c-66.1,0-123.2,37.6-151.7,92.3c-68.3,6.9-122,65-122,135.6
			C6.3,309.4,67.9,371,143.1,371h296.4c62.8,0,114-51.3,114-114C553.7,197.2,507.1,147.6,447.5,144.1z"/>
		<g id="Symbole_24_1_1_" transform="translate(-577 -446.516)">
			<path id="Tracé_3456_1_" class="st2" d="M800,662.7c0.5-0.3,1.4-0.2,1.4-0.2h3.5c2.9,0,5.8-0.5,8.5-1.6c2.5-0.9,4.7-2.6,6.3-4.7
				c1.6-2.1,2.4-4.7,2.4-7.8c0-3.1-0.8-5.7-2.2-7.8c-1.5-2.1-3.6-3.8-6-4.7c-2.7-1.1-5.6-1.6-8.5-1.6h-12.3c0,0-1.5,0-2.2,0.6
				s-0.8,1.7-0.8,1.7v38c0,0.3,0.1,0.6,0.2,0.9c0.2,0.2,0.5,0.2,0.9,0.2h7.3c0.3,0,0.6-0.1,0.9-0.2c0.3-0.3,0.2-0.9,0.2-0.9v-10.9
				C799.6,663.2,799.7,662.9,800,662.7z M805.1,641.9c2.2,0,4,0.5,5.2,1.7c1.2,1.2,1.9,2.8,1.9,5c-0.1,1.9-0.7,3.4-2,4.6
				c-1.2,1.1-2.9,1.7-5,1.7h-4.7c-0.2,0-0.5-0.1-0.7-0.2c-0.2-0.2-0.2-0.5-0.2-0.7v-11.3c0-0.2,0.1-0.4,0.2-0.5
				c0.2-0.1,0.5-0.2,0.8-0.2L805.1,641.9L805.1,641.9z"/>
			<path id="Tracé_3455_1_" class="st2" d="M831.4,641.7c1.4,0,2.8-0.5,3.7-1.6c1-0.9,1.6-2.3,1.6-3.7s-0.5-2.8-1.6-3.7
				c-1-1-2.3-1.6-3.7-1.6s-2.7,0.5-3.7,1.6c-1,1-1.6,2.3-1.6,3.7s0.5,2.7,1.6,3.7C828.7,641.2,830,641.7,831.4,641.7z M835.9,674.9
				c0.2-0.3,0.3-0.6,0.3-1v-25.7c0,0,0.1-1.2-0.5-1.8c-0.5-0.6-1.7-0.7-1.7-0.7h-4.4c0,0-1.5,0.1-2.2,0.9s-0.7,2.3-0.7,2.3v24.3
				c0,0-0.1,1.1,0.4,1.6c0.5,0.5,1.5,0.4,1.5,0.4h6.2C835.2,675.3,835.6,675.2,835.9,674.9z M875.5,674.8c0.7-0.5,0.9-1.6,0.9-1.6
				L885,647c0,0,0.2-0.6,0-0.9c-0.2-0.3-0.9-0.3-0.9-0.3h-7c-0.4,0-0.8,0.2-1.2,0.3c-0.3,0.2-0.5,0.5-0.5,0.9l-3.3,14.6
				c0,0.2-0.2,0.5-0.5,0.5l0,0c-0.2,0-0.5-0.2-0.5-0.5l0,0l-3.6-14.3c-0.1-0.4-0.2-0.8-0.5-1.1c-0.4-0.2-0.9-0.4-1.2-0.3h-6.6
				c-0.5,0-0.9,0.2-1.2,0.3c-0.3,0.2-0.5,0.5-0.5,0.9l-2.8,13.5c0,0-0.1,0.4-0.9,0.6c-0.8,0.2-1.1-0.6-1.1-0.6l-2.9-13.3
				c0,0-0.1-1.2-0.8-1.8c-0.7-0.5-1.9-0.2-1.9-0.2l-4.3,1.2c0,0-1.4,0.3-1.9,1.2c-0.5,0.9,0,2.2,0,2.2l7.4,23.2c0,0,0.2,1.2,0.9,1.8
				c0.8,0.5,2.1,0.5,2.1,0.5h4.2c0,0,1.1,0,1.7-0.5c0.6-0.5,0.8-1.6,0.8-1.6l3.5-12.3c0.1-0.4,0.4-0.7,0.9-0.7
				c0.5,0,0.8,0.3,0.9,0.7l3.5,12.1c0,0,0.2,1.2,0.9,1.8c0.8,0.6,2.2,0.5,2.2,0.5h3.9C873.8,675.3,874.8,675.3,875.5,674.8
				L875.5,674.8z M893.9,641.7c1.4,0,2.8-0.5,3.7-1.6c1-0.9,1.6-2.3,1.6-3.7s-0.5-2.8-1.6-3.7c-1-1-2.3-1.6-3.7-1.6
				s-2.7,0.5-3.7,1.6c-1,1-1.6,2.3-1.6,3.7s0.5,2.7,1.6,3.7C891.1,641.2,892.5,641.7,893.9,641.7z M898.2,674.8
				c0.6-0.5,0.5-1.6,0.5-1.6v-25.4c0,0,0-0.9-0.5-1.4c-0.4-0.3-0.8-0.5-1.2-0.5h-5.7c0,0-1.1,0.1-1.6,0.6c-0.5,0.5-0.5,1.6-0.5,1.6
				v24.9c0,0-0.1,1.4,0.4,2c0.5,0.6,1.6,0.5,1.6,0.5h5.2C896.3,675.3,897.6,675.3,898.2,674.8z M933.1,646.3
				c0.2,0.4,0.2,2.1,0.2,2.1l-0.1,28.1c0.1,2.4-0.6,4.8-2,6.8c-1.4,2-3.3,3.6-5.6,4.5c-2.4,1-5.2,1.6-8.4,1.6
				c-1.6,0-3.8-0.3-6.4-0.9c-1.7-0.4-3.4-0.9-5-1.7c-0.5-0.2-0.8-0.6-0.9-1.1s0-0.9,0.2-1.3l1.2-2.9c0.2-0.5,0.6-0.9,1.1-1.1
				c0.8-0.3,1.2-0.3,2,0c2.3,0.9,4.7,1.4,7.2,1.5c2.1,0,3.7-0.5,5-1.4c1.2-0.9,1.9-2.3,1.9-3.8c0,0,0.2-1.6-1.1-1.6
				c-1.3-0.1-2,1.2-4.3,1.2c-4.6,0-8.2-1.3-10.9-4c-2.7-2.7-4.1-6.5-4.1-11.4s1.4-8.8,4.1-11.6c2.8-2.8,6.5-4.2,11.2-4.2
				c1.5,0,2.9,0.3,4.2,0.9c1.4,0.5,2.6,2.3,4,2.3c1.4,0-0.1-2.2,1.6-2.2c1,0,2.2,0,3.4,0C932.4,645.9,932.8,645.9,933.1,646.3z
				 M919.3,668.4c1.3,0,2.4-0.2,3.6-1.6c1.1-1.3,0.9-3.6,0.9-3.6v-5c0,0,0.3-2.7-0.9-4.1c-1.2-1.4-2.2-1.5-3.8-1.5
				c-1.7,0-3.3,0.8-4.3,2.2c-1.1,1.5-1.6,3.4-1.6,5.8s0.5,4.3,1.6,5.7C915.8,667.7,917.3,668.4,919.3,668.4z M970.8,660.6
				c0,3.2-0.7,5.9-2.1,8.2c-1.4,2.3-3.4,4.2-5.8,5.3c-2.5,1.2-5.3,1.9-8.5,1.9s-6-0.6-8.5-1.8c-2.4-1.2-4.3-3-5.7-5.3
				c-1.4-2.3-2-5.1-2-8.5c0-3.2,0.7-5.9,2.1-8.3c1.4-2.3,3.4-4.2,5.8-5.4c2.5-1.2,5.3-1.9,8.5-1.9s6,0.6,8.5,1.9
				c2.4,1.2,4.4,3.1,5.7,5.4C970.1,654.5,970.8,657.3,970.8,660.6z M954.4,668.2c1.9,0,3.5-0.7,4.7-2.1c1.2-1.4,1.8-3.2,1.8-5.5
				s-0.5-4.1-1.7-5.6c-1.1-1.4-2.8-2.2-4.6-2.2c-2,0-3.6,0.7-4.7,2.1c-1.2,1.4-1.8,3.3-1.8,5.6s0.5,4.2,1.7,5.6
				C950.9,667.5,952.5,668.2,954.4,668.2z"/>
			<path id="Tracé_3467_1_" class="st3" d="M737,664.5v-19.5c0-6,5-11,11-11h25.9l3.2,1.5l1.5,3.2v25.8c0,6-5,11-11,11l0,0H748
				C742,675.6,737,670.7,737,664.5L737,664.5z"/>
			<path id="Tracé_3469_1_" class="st3" d="M770.9,631.2c4.1,0,7.6,3.3,7.6,7.4c0,4.1-3.5,7.4-7.6,7.4c-4.1,0-18.6-12-18.2-12
				c0.3,0-8.4,0,2.8,0C766.6,634.1,766.1,631.3,770.9,631.2z"/>
			<circle id="Ellipse_69_1_" class="st2" cx="771.1" cy="638.5" r="2.6"/>
			<circle id="Ellipse_67_1_" class="st2" cx="757.8" cy="654.9" r="12.3"/>
			<circle id="Ellipse_68_1_" class="st4" cx="757.8" cy="654.9" r="8.7"/>
		</g>
	</g>
</g>
</svg>
