<svg xmlns="http://www.w3.org/2000/svg" viewBox="0 0 25.32 23.54"><title>house1_trait</title><g id="Calque_2" data-name="Calque 2"><g id="BODY"><g id="_1" data-name="1"><circle cx="23.74" cy="18.13" r="0.29"/><circle cx="19.96" cy="18.13" r="0.29"/><circle cx="16.18" cy="18.13" r="0.29"/><path d="M21.79,13.57h0v-3a.37.37,0,0,0-.37-.37h-6a.37.37,0,0,0-.37.37v3h0a.37.37,0,0,0-.37.37v1.51a.37.37,0,0,0,.37.37h6.86a.37.37,0,0,0,.37-.37V13.94A.37.37,0,0,0,21.79,13.57ZM15.72,10.9H21v2.67H15.72Zm5.7,4.18H15.3v-.76h6.12v.76Z"/><path d="M9.4,12h0v-3A.37.37,0,0,0,9,8.57H5.93a.37.37,0,0,0-.37.37v3h0a.37.37,0,0,0-.37.37v1.51a.37.37,0,0,0,.37.37H9.4a.37.37,0,0,0,.37-.37V12.35A.37.37,0,0,0,9.4,12ZM6.3,9.31H8.61V12H6.3ZM9,13.49H5.88v-.76H9v.76Z"/><path d="M25.12,17l-1-.52V9.16h.66a.37.37,0,0,0,.34-.53l-2-4.33a.37.37,0,0,0-.34-.21H19.81V2.28H20a.37.37,0,0,0,.37-.37V.37A.37.37,0,0,0,20,0h-3.6A.37.37,0,0,0,16,.37V1.91a.37.37,0,0,0,.37.37h.14v1.8H9.05L8.27,3.4a1.24,1.24,0,0,0-1.63,0l-.78.68H3.08a.37.37,0,0,0-.34.21l-2,4.26-.61.53a.37.37,0,0,0,0,.52l1.14,1.3a.37.37,0,0,0,.25.13V23.17a.37.37,0,0,0,.37.37H24.95a.37.37,0,0,0,.37-.37V17.3A.37.37,0,0,0,25.12,17ZM16.72.74h2.86v.8H16.72Zm2.35,1.54V5H17.24V2.28ZM3.31,4.82H5L2.13,7.34ZM9,22.8H5.88V16.21H9Zm3.65,0H9.77v-7a.37.37,0,0,0-.37-.37H5.51a.37.37,0,0,0-.37.37v7H2.23V10.54L7.46,6l5.23,4.57ZM7.7,5.2a.37.37,0,0,0-.49,0L1.54,10.15.89,9.4,7.13,4a.5.5,0,0,1,.65,0l3,2.58a.37.37,0,0,0,.52,0,.37.37,0,0,0,0-.52L9.9,4.82h6.6v.59a.37.37,0,0,0,.37.37h2.58a.37.37,0,0,0,.37-.37V4.82H22.5l1.69,3.59H14L12.34,7a.37.37,0,0,0-.49.56L14,9.4l-.65.75Zm6.9,17.6H13.43v-.44H14.6Zm0-1.19H13.43v-.75H14.6Zm0-1.49H13.43v-1H14.6Zm0-1.71H13.43v-.75H14.6ZM17,22.8H15.34V17.52l.84-.43.84.43Zm1.37,0h-.63v-.44h.63Zm0-1.19h-.63v-.75h.63Zm0-1.49h-.63v-1h.63Zm0-1.71h-.63v-.75h.63Zm2.41,4.39H19.12V17.52l.84-.43.84.43V22.8Zm1.37,0h-.63v-.44h.63Zm0-1.19h-.63v-.75h.63Zm0-1.49h-.63v-1h.63Zm0-1.71h-.63v-.75h.63Zm-.91-1.49-1.13-.58a.37.37,0,0,0-.34,0l-1.13.58H17.47l-1.13-.58a.37.37,0,0,0-.34,0l-1.13.58H13.43V11l.08,0a.39.39,0,0,0,.17-.11l1.14-1.3a.38.38,0,0,0,0-.45h8.52v7.29h0l-.93.48Zm3.32,5.87H22.9V17.52l.84-.43.84.43Z"/></g></g></g></svg>