<?xml version="1.0" encoding="utf-8"?>
<!-- Generator: Adobe Illustrator 24.0.1, SVG Export Plug-In . SVG Version: 6.00 Build 0)  -->
<svg version="1.1" id="Calque_1" xmlns="http://www.w3.org/2000/svg" xmlns:xlink="http://www.w3.org/1999/xlink" x="0px" y="0px"
	 viewBox="0 0 1366 143" style="enable-background:new 0 0 1366 143;" xml:space="preserve">
<style type="text/css">
	.st0{clip-path:url(#SVGID_2_);fill:#F2F2F2;}
</style>
<g>
	<g>
		<defs>
			<rect id="SVGID_1_" x="-10.3" y="-0.2" width="1377.3" height="143.2"/>
		</defs>
		<clipPath id="SVGID_2_">
			<use xlink:href="#SVGID_1_"  style="overflow:visible;"/>
		</clipPath>
		<path class="st0" d="M-24.5-328.7c1.9-2.6,3.7-5.2,5.6-7.8c2.9-4,5.8-7.9,8.6-11.7c1.2-1.7,2.5-3.4,3.7-5c14-18.5,27-34.8,38-48.2
			c20.3-24.8,60-40.4,103.2-40.7l245.4-1.7h2.6l21-0.1l18-0.1l55.1-0.4h2.2l28.1-0.2h0.8l173-1.4l154.5-1.1l18-0.1l111.6-0.8h0.2
			l72.4-0.5h0.8l228.9-1.6l68.5-0.5c5.9,0,11.6,0.1,17.5,0.6l0,0c2,0.1,3.9,0.3,5.9,0.5c32,3.2,61.2,13.4,83,28.9
			c29.4,21.1,50.9,45.6,65.3,72.3c2.1,3.8,4,7.7,5.9,11.7c49.9,109.5-10.9,250.7-120.3,345.2c-4.6,4-9.2,7.8-14,11.6l-0.1,0.1
			c-33.6,26.8-71.3,49.2-111.5,65.2c-71.2,28.3-150.1,36.3-227.7,12.5c-65.7-20-127-29.5-186.4-32c-6-0.3-12-0.4-18-0.6
			c-136.2-2.8-263.9,29.1-413.9,49.7c-6,0.8-11.9,1.6-18,2.4c-107,13.8-225.7,21.1-366.8,5.8c-14.7-1.6-29.1-3.8-43.3-6.7
			c-6.3-1.3-12.2-2.7-18-4.2c-67.4-17.8-104.1-50.7-119.7-91.9c-1.5-3.8-2.7-7.7-3.8-11.7C-175.8-90.4-94.7-231.1-24.5-328.7z"/>
	</g>
</g>
</svg>
