<?xml version="1.0" encoding="utf-8"?>
<!-- Generator: Adobe Illustrator 24.0.1, SVG Export Plug-In . SVG Version: 6.00 Build 0)  -->
<svg version="1.1" id="Calque_1" xmlns="http://www.w3.org/2000/svg" xmlns:xlink="http://www.w3.org/1999/xlink" x="0px" y="0px"
	 viewBox="0 0 1366 84" style="enable-background:new 0 0 1366 84;" xml:space="preserve">
<style type="text/css">
	.st0{clip-path:url(#SVGID_2_);}
	.st1{fill:#F2F2F2;}
</style>
<g>
	<g>
		<defs>
			<rect id="SVGID_1_" x="2.8" y="-0.3" width="1361.1" height="84.7"/>
		</defs>
		<clipPath id="SVGID_2_">
			<use xlink:href="#SVGID_1_"  style="overflow:visible;"/>
		</clipPath>
		<g class="st0">
			<path class="st1" d="M310,52c32.1,6.7,58.5,14.9,101.4,18.8c62.2,5.6,137.8,0,189-8.8s87.1-20.3,135.4-29.7
				c138.8-26.8,374.6-30.9,547.8-12.8c24.7,2.6,48.8,5.6,66.2,9.9c22.7,5.5,32.5,12.5,39.8,19.4c16.3,15.3,23.2,31,20.4,46.6
				c-1.9,10.6-12.6,22.7-59.2,28.5c-14.7,1.8-31.7,2.9-48.6,3.8c-250.4,13.9-516,12.9-776.5,10.8c-194.2-1.6-390.7-3.8-576.2-14.9
				c-8.5-0.5-17.6-1.1-23-2.5c-6.2-1.5-6.4-3.6-5.6-5.6c2.7-6.3,12.9-12.4,20.7-18.6c16-12.9,21.2-26.1,15.3-39.3
				C-48.3,45.9-83,36.1-11.3,32.8C101.3,27.7,232.5,35.9,310,52z"/>
		</g>
	</g>
</g>
</svg>
