<?xml version="1.0" encoding="utf-8"?>
<!-- Generator: Adobe Illustrator 24.0.1, SVG Export Plug-In . SVG Version: 6.00 Build 0)  -->
<svg version="1.1" id="Calque_1" xmlns="http://www.w3.org/2000/svg" xmlns:xlink="http://www.w3.org/1999/xlink" x="0px" y="0px"
	 viewBox="0 0 1366 84" style="enable-background:new 0 0 1366 84;" xml:space="preserve">
<style type="text/css">
	.st0{clip-path:url(#SVGID_2_);}
	.st1{fill:#F2F2F2;}
</style>
<g>
	<g>
		<g>
			<defs>
				<rect id="SVGID_1_" x="-8.4" y="-0.3" width="1378.9" height="84.7"/>
			</defs>
			<clipPath id="SVGID_2_">
				<use xlink:href="#SVGID_1_"  style="overflow:visible;"/>
			</clipPath>
			<g class="st0">
				<path class="st1" d="M302.8,52c32.5,6.7,59.3,14.9,102.7,18.8c63,5.6,139.6,0,191.5-8.8c51.9-8.8,88.2-20.3,137.2-29.7
					c140.6-26.8,379.5-30.9,555-12.8c25,2.6,49.4,5.6,67.1,9.9c23,5.5,32.9,12.5,40.3,19.4c16.5,15.3,23.5,31,20.7,46.6
					c-1.9,10.6-12.8,22.7-60,28.5c-14.9,1.8-32.1,2.9-49.2,3.8c-253.7,13.9-522.7,12.9-786.7,10.8c-196.7-1.6-395.8-3.8-583.7-14.9
					c-8.6-0.5-17.8-1.1-23.3-2.5c-6.3-1.5-6.5-3.6-5.7-5.6c2.7-6.3,13.1-12.4,21-18.6C-54.2,84-48.9,70.8-54.9,57.6
					c-5.3-11.7-40.4-21.5,32.2-24.8C91.4,27.7,224.3,35.9,302.8,52z"/>
			</g>
		</g>
	</g>
</g>
</svg>
