<?xml version="1.0" encoding="utf-8"?>
<!-- Generator: Adobe Illustrator 24.0.1, SVG Export Plug-In . SVG Version: 6.00 Build 0)  -->
<svg version="1.1" id="Calque_1" xmlns="http://www.w3.org/2000/svg" xmlns:xlink="http://www.w3.org/1999/xlink" x="0px" y="0px"
	 viewBox="0 0 1366 143" style="enable-background:new 0 0 1366 143;" xml:space="preserve">
<style type="text/css">
	.st0{clip-path:url(#SVGID_2_);fill:#F2F2F2;}
</style>
<g>
	<defs>
		<rect id="SVGID_1_" x="2.8" y="-0.2" width="1361.1" height="143.2"/>
	</defs>
	<clipPath id="SVGID_2_">
		<use xlink:href="#SVGID_1_"  style="overflow:visible;"/>
	</clipPath>
	<path class="st0" d="M-11.3-328.7c1.9-2.6,3.7-5.2,5.5-7.8c2.9-4,5.7-7.9,8.5-11.7c1.2-1.7,2.5-3.4,3.7-5
		C20.2-371.7,33.1-388,44-401.4c20.1-24.8,59.3-40.4,102-40.7l242.5-1.7h2.6l20.8-0.1l17.8-0.1l54.5-0.4h2.2l27.8-0.2h0.8L686-446
		l152.7-1.1l17.8-0.1l110.3-0.8h0.2l71.5-0.5h0.8l226.2-1.6l67.7-0.5c5.8,0,11.5,0.1,17.3,0.6l0,0c2,0.1,3.9,0.3,5.8,0.5
		c31.6,3.2,60.5,13.4,82,28.9c29.1,21.1,50.3,45.6,64.5,72.3c2.1,3.8,4,7.7,5.8,11.7c49.3,109.5-10.8,250.7-118.9,345.2
		c-4.5,4-9.1,7.8-13.8,11.6l-0.1,0.1c-33.2,26.8-70.5,49.2-110.2,65.2c-70.4,28.3-148.3,36.3-225,12.5C975.7,78,915.1,68.5,856.4,66
		c-5.9-0.3-11.9-0.4-17.8-0.6C704,62.6,577.8,94.5,429.6,115.1c-5.9,0.8-11.8,1.6-17.8,2.4c-105.7,13.8-223,21.1-362.5,5.8
		c-14.5-1.6-28.8-3.8-42.8-6.7c-6.2-1.3-12.1-2.7-17.8-4.2c-66.6-17.8-102.9-50.7-118.3-91.9c-1.5-3.8-2.7-7.7-3.8-11.7
		C-160.8-90.4-80.6-231.1-11.3-328.7z"/>
</g>
</svg>
