<?xml version="1.0" encoding="utf-8"?>
<!-- Generator: Adobe Illustrator 24.0.1, SVG Export Plug-In . SVG Version: 6.00 Build 0)  -->
<svg version="1.1" id="Calque_1" xmlns="http://www.w3.org/2000/svg" xmlns:xlink="http://www.w3.org/1999/xlink" x="0px" y="0px"
	 viewBox="0 0 636 531" style="enable-background:new 0 0 636 531;" xml:space="preserve">
<style type="text/css">
	.st0{opacity:0.5;fill:#FFA75A;}
	.st1{fill:#3F3D56;}
	.st2{opacity:0.1;enable-background:new    ;}
	.st3{fill:#2F2E41;}
	.st4{opacity:0.4;fill:#FF7700;enable-background:new    ;}
	.st5{opacity:0.8;fill:#FF7700;enable-background:new    ;}
	.st6{fill:#FF7700;}
	.st7{fill:#FFFFFF;}
	.st8{fill:#3C3C3C;}
</style>
<path class="st0" d="M605.6,447.1c-22,33.8-57.7,52.6-93.1,62.9c-28.4,8.1-57.4,11.6-86.2,10.4c-5.5-0.2-11.1-0.6-16.5-1.2
	c-14-1.4-27.9-4-41.7-7.5c-8.2-2.2-16.3-4.6-24.4-7.5c-27.9-9.9-54.3-24.3-78.4-42.7c-7-5.3-13.7-11-20.2-16.9
	c-10.9-10-21.1-20.9-30.5-32.6c-2.1-2.6-4.1-5.2-6.2-7.9l-0.8-1.1c-1.6-2.1-3.1-4.3-4.7-6.4c-2.6-3.6-5.5-7-8.6-10.1
	c-0.2-0.2-0.4-0.4-0.6-0.6c-0.6-0.6-1.2-1.1-1.8-1.6c-1.3-1-2.5-2-3.9-2.9c-6.2-4.1-13.2-6.5-20.6-7.6c-1.2-0.2-2.5-0.4-3.7-0.5l0,0
	c-1.7-0.2-3.5-0.3-5.2-0.3l-0.7,0c-5.6-0.1-11.2,0.3-16.7,1.1c-8.6,1.2-17.1,3.1-25.7,4.7l0,0c-3.7,0.7-7.3,1.3-10.9,1.8l-0.8,0.1
	c-5.2,0.7-10.4,1-15.5,0.9c-11.8-0.4-23.2-3.5-33.5-9.2l-0.4-0.2l-0.7-0.4l-0.9-0.5c-1.5-0.9-3-1.8-4.5-2.8l-0.9-0.6
	c-1.5-0.9-2.8-2-4.1-3l-0.9-0.7c-1.4-1.1-2.8-2.2-4.1-3.4c-0.5-0.4-0.9-0.9-1.4-1.3c-1.4-1.3-2.8-2.6-4.1-4c-1.4-1.5-2.8-3-4.1-4.5
	c-0.6-0.7-1.2-1.4-1.8-2.2c-3.4-4.2-6.5-8.8-9.2-13.7c-0.1-0.2-0.3-0.5-0.5-0.8c-0.7-1.3-1.4-2.7-2.1-4c-0.3-0.5-0.5-1-0.8-1.5
	c-0.8-1.7-1.5-3.3-2.2-5c-0.1-0.2-0.2-0.5-0.3-0.7c-2.8-7-4.9-14.4-6.2-22.1c0-0.2-0.1-0.5-0.1-0.7c-0.4-2.4-0.6-4.9-0.8-7.4
	c-0.1-1.1-0.2-2.1-0.2-3.1c0-0.3-0.1-0.6-0.1-0.9c-0.6-15,1.7-30.2,4.3-45.2c0.3-1.7,0.6-3.5,0.9-5.2c4.4-24.2,9.1-48.8,16.5-72.1
	c0-0.2,0.1-0.3,0.1-0.5c2.5-7.9,5.3-15.6,8.5-23.1c3.3-7.9,7.2-15.6,11.5-22.9C56.9,102,70.5,86.3,85,72
	c17.5-17.1,36.7-32.4,57.2-44.1c2.9-1.7,5.9-3.3,8.9-4.9l1.4-0.7c0.5-0.3,1-0.5,1.4-0.7l0,0c1-0.5,2-1,3-1.5l1.1-0.6l2.1-1l0.7-0.3
	l1.1-0.5l1.1-0.5c1.3-0.6,2.6-1.1,4-1.7c5.6-2.4,11.4-4.4,17.2-6.1c1.7-0.5,3.4-1,5.2-1.4c7.8-2.1,15.8-3.5,23.7-4.4
	c2.9-0.3,5.9-0.5,8.8-0.6c3.4-0.1,6.9-0.1,10.4-0.1c5.5,0.2,11,0.7,16.4,1.5c38.2,5.7,74.1,26.8,99,59.2
	c9.9,12.9,18.3,27.7,30.1,38.3c10.4,9.3,23.4,14.7,36.9,11.3c11.1-2.9,18.3-4,29.7-1.2c23.6,5.8,46.3,15.7,67,29.3
	c0.9,0.6,1.7,1.1,2.5,1.7c54,36.1,95.3,96.2,109.8,166.4c0.4,1.9,0.7,3.7,1.1,5.6C633.2,359.6,630,409.6,605.6,447.1z"/>
<g>
	<g>
		<ellipse class="st1" cx="346.5" cy="447.6" rx="247.5" ry="33.6"/>
		<ellipse class="st2" cx="346.5" cy="447.6" rx="207.8" ry="28.3"/>
		<rect x="227.4" y="96.3" class="st3" width="275.3" height="320.3"/>
		<rect x="199.6" y="64.5" class="st1" width="330.8" height="113.8"/>
		<rect x="199.6" y="199.5" class="st1" width="330.8" height="113.8"/>
		<rect x="199.6" y="334.5" class="st1" width="330.8" height="113.8"/>
		<rect x="443.1" y="84.4" class="st4" width="21.2" height="21.2"/>
		<rect x="473.6" y="84.4" class="st5" width="21.2" height="21.2"/>
		<rect x="504" y="84.4" class="st6" width="21.2" height="21.2"/>
		<rect x="443.1" y="218" class="st4" width="21.2" height="21.2"/>
		<rect x="473.6" y="218" class="st5" width="21.2" height="21.2"/>
		<rect x="504" y="218" class="st6" width="21.2" height="21.2"/>
		<rect x="443.1" y="351.7" class="st4" width="21.2" height="21.2"/>
		<rect x="473.6" y="351.7" class="st5" width="21.2" height="21.2"/>
		<rect x="504" y="351.7" class="st6" width="21.2" height="21.2"/>
	</g>
	<g id="Symbole_23_1_1_" transform="translate(-577 -446.516)">
		<path id="Tracé_3456_2_" class="st7" d="M855.5,589.3c0.4-0.3,1.3-0.2,1.3-0.2h3.2c2.7,0.1,5.5-0.5,8-1.5
			c2.4-0.9,4.4-2.4,5.9-4.4c1.5-2,2.2-4.4,2.2-7.4c0-3-0.7-5.4-2.1-7.4c-1.4-2-3.4-3.5-5.7-4.4c-2.5-1-5.2-1.5-8-1.5h-11.5
			c0,0-1.4,0-2.1,0.5c-0.7,0.6-0.7,1.6-0.7,1.6v35.9c0,0.3,0.1,0.6,0.2,0.8c0.3,0.2,0.5,0.3,0.8,0.3h6.8c0.3,0,0.6-0.1,0.8-0.3
			c0.3-0.3,0.2-0.8,0.2-0.8v-10.3C855.1,589.8,855.3,589.5,855.5,589.3z M860.3,569.8c2.1,0,3.8,0.5,4.9,1.6
			c1.2,1.1,1.7,2.6,1.7,4.7c-0.1,1.8-0.6,3.2-1.9,4.3c-1.2,1.1-2.7,1.6-4.7,1.6h-4.4c-0.3,0-0.5-0.1-0.7-0.2
			c-0.2-0.2-0.2-0.4-0.2-0.7v-10.7c0-0.2,0.1-0.4,0.2-0.5c0.2-0.1,0.5-0.2,0.7-0.1H860.3L860.3,569.8z"/>
		<path id="Tracé_3455_2_" class="st7" d="M885,569.6c1.3,0,2.6-0.5,3.5-1.5c1-0.9,1.5-2.2,1.5-3.5s-0.5-2.6-1.5-3.5
			c-0.9-1-2.2-1.5-3.5-1.5s-2.5,0.5-3.5,1.5c-1,0.9-1.5,2.2-1.5,3.5s0.5,2.5,1.5,3.5C882.5,569.1,883.8,569.6,885,569.6z
			 M889.3,600.9c0.2-0.3,0.3-0.6,0.3-1v-24.2c0,0,0.1-1.1-0.5-1.6c-0.5-0.6-1.6-0.6-1.6-0.6h-4.1c0,0-1.4,0.1-2.1,0.8
			c-0.7,0.7-0.7,2.2-0.7,2.2v22.9c0,0-0.1,1.1,0.4,1.5c0.5,0.5,1.4,0.4,1.4,0.4h5.9C888.6,601.2,889,601.1,889.3,600.9z
			 M926.6,600.7c0.6-0.5,0.8-1.5,0.8-1.5l8-24.6c0,0,0.2-0.5,0-0.8c-0.2-0.3-0.8-0.3-0.8-0.3h-6.6c-0.4,0-0.7,0.1-1.1,0.3
			c-0.3,0.2-0.4,0.5-0.5,0.8l-3.1,13.7c0,0.2-0.2,0.4-0.4,0.4l0,0c-0.2,0-0.4-0.2-0.4-0.4l0,0l-3.4-13.4c-0.1-0.4-0.3-0.7-0.5-1.1
			c-0.4-0.2-0.8-0.3-1.2-0.3h-6.2c-0.4,0-0.8,0.1-1.2,0.3c-0.3,0.2-0.4,0.5-0.5,0.9l-2.6,12.7c0,0-0.1,0.4-0.8,0.6
			c-0.7,0.3-1-0.6-1-0.6l-2.8-12.5c0,0-0.1-1.2-0.7-1.6c-0.6-0.5-1.8-0.2-1.8-0.2l-4.1,1.2c0,0-1.3,0.3-1.7,1.1c-0.4,0.8,0,2,0,2
			l7,21.8c0,0,0.2,1.1,0.9,1.7c0.7,0.5,2,0.5,2,0.5h3.9c0,0,1.1,0,1.6-0.5s0.7-1.5,0.7-1.5l3.3-11.6c0.1-0.4,0.4-0.7,0.8-0.7
			c0.4,0,0.7,0.3,0.8,0.7l3.3,11.4c0,0,0.2,1.2,0.9,1.7c0.7,0.5,2.1,0.5,2.1,0.5h3.6C924.9,601.2,926,601.2,926.6,600.7L926.6,600.7
			z M943.8,569.6c1.3,0,2.6-0.5,3.5-1.5c1-0.9,1.5-2.2,1.5-3.5s-0.5-2.6-1.5-3.5c-0.9-1-2.2-1.5-3.5-1.5c-1.3,0-2.5,0.5-3.5,1.5
			c-1,0.9-1.5,2.2-1.5,3.5s0.5,2.5,1.5,3.5C941.3,569.1,942.6,569.6,943.8,569.6z M947.9,600.7c0.5-0.5,0.5-1.5,0.5-1.5v-24
			c0,0-0.1-0.9-0.4-1.3c-0.3-0.3-0.7-0.5-1.2-0.5h-5.3c0,0-1,0.1-1.5,0.6s-0.5,1.5-0.5,1.5v23.4c0,0-0.1,1.3,0.4,1.9
			s1.5,0.5,1.5,0.5h4.9C946.2,601.2,947.3,601.2,947.9,600.7z M980.7,573.9c0.3,0.4,0.3,2,0.3,2l-0.1,26.4c0.1,2.3-0.6,4.5-1.9,6.4
			c-1.3,1.9-3.1,3.3-5.3,4.2c-2.3,1-4.9,1.5-7.9,1.5c-1.5,0-3.5-0.3-6.1-0.8c-1.6-0.4-3.2-0.9-4.7-1.6c-0.4-0.2-0.7-0.6-0.8-1.1
			c-0.1-0.4,0-0.8,0.2-1.2l1.2-2.7c0.2-0.5,0.6-0.8,1.1-1.1c0.7-0.3,1.2-0.3,1.9,0c2.2,0.9,4.4,1.3,6.8,1.4c2,0,3.5-0.4,4.7-1.3
			c1.2-0.8,1.9-2.2,1.8-3.6c0,0,0.2-1.4-1.1-1.5s-1.9,1.1-4.1,1.1c-4.3,0-7.8-1.3-10.3-3.8s-3.9-6.1-3.9-10.7
			c0-4.6,1.3-8.2,3.9-10.8c2.6-2.6,6.1-3.9,10.6-3.9c1.4,0,2.7,0.3,4,0.8c1.3,0.5,2.4,2.2,3.7,2.2c1.3,0.1-0.1-2.1,1.5-2.1
			c1,0,2.1,0,3.2,0C980.1,573.5,980.5,573.5,980.7,573.9z M967.7,594.7c1.3,0,2.3-0.3,3.3-1.5c1.1-1.2,0.8-3.4,0.8-3.4V585
			c0,0,0.3-2.5-0.8-3.9c-1.1-1.3-2-1.4-3.5-1.4c-1.6-0.1-3.1,0.7-4.1,2.1c-1.1,1.4-1.5,3.2-1.5,5.4c0,2.3,0.5,4.1,1.5,5.4
			C964.5,594,965.9,594.7,967.7,594.7z M1016.2,587.3c0,3-0.6,5.6-2,7.7c-1.3,2.2-3.2,3.9-5.4,5c-2.3,1.2-5,1.7-8,1.7
			c-3,0-5.7-0.6-8-1.7c-2.2-1.1-4.1-2.8-5.3-5c-1.3-2.2-1.9-4.9-1.9-7.9c0-3,0.6-5.6,2-7.8c1.3-2.2,3.2-4,5.4-5.1
			c2.3-1.2,5-1.8,7.9-1.8c3,0,5.7,0.6,8,1.7c2.3,1.1,4.1,2.9,5.4,5.1C1015.5,581.6,1016.2,584.3,1016.2,587.3z M1000.8,594.5
			c1.9,0,3.3-0.6,4.4-2c1.1-1.3,1.6-3,1.6-5.2c0-2.2-0.5-3.9-1.6-5.3c-1-1.3-2.6-2.1-4.3-2.1c-1.9,0-3.4,0.6-4.5,2
			c-1.1,1.3-1.6,3.1-1.6,5.2s0.5,3.9,1.6,5.2C997.5,593.8,999,594.5,1000.8,594.5z"/>
		<path id="Tracé_3467_2_" class="st6" d="M796.2,591.1v-18.3c0-5.7,4.7-10.4,10.4-10.4h24.3l3,1.4l1.4,3v24.3
			c0,5.7-4.7,10.4-10.4,10.4l0,0h-18.3C800.8,601.4,796.2,596.8,796.2,591.1L796.2,591.1z"/>
		<path id="Tracé_3469_2_" class="st6" d="M828.1,559.7c3.9,0,7.1,3.1,7.1,7s-3.3,7-7.1,7s-17.5-11.3-17.2-11.3c0.3,0-7.8,0,2.6,0
			C824.1,562.4,823.6,559.8,828.1,559.7z"/>
		
			<ellipse id="Ellipse_69_2_" transform="matrix(3.327773e-02 -0.9994 0.9994 3.327773e-02 234.5023 1375.5173)" class="st7" cx="828.3" cy="566.5" rx="2.4" ry="2.4"/>
		<circle id="Ellipse_67_2_" class="st7" cx="815.8" cy="581.9" r="11.6"/>
		<circle id="Ellipse_68_2_" class="st8" cx="815.8" cy="581.9" r="8.2"/>
	</g>
</g>
</svg>
