<svg xmlns="http://www.w3.org/2000/svg" viewBox="0 0 389.76 327.2"><defs><style>.cls-1,.cls-2{fill:#f70;}.cls-1{opacity:0.07;}.cls-2{opacity:0.05;}</style></defs><title>texture_org_1</title><g id="Calque_2" data-name="Calque 2"><g id="BODY"><g id="_1" data-name="1"><polygon class="cls-1" points="294.91 324.71 293.48 327.2 240.31 327.2 238.91 324.71 252.58 299.71 281.24 299.71 294.91 324.71"/><polygon class="cls-1" points="250.74 246.43 237.03 271.32 208.45 271.32 194.74 246.43 208.41 221.43 237.07 221.43 250.74 246.43"/><polygon class="cls-1" points="250 299.64 236.29 324.92 207.71 324.54 194 299.64 207.66 274.64 236.36 274.5 250 299.64"/><polygon class="cls-1" points="116.08 272.38 102.25 296.7 73.35 296.92 60.07 272.38 73.74 247.38 102.41 247.38 116.08 272.38"/><polygon class="cls-1" points="116.08 166.03 102.37 190.93 73.78 190.93 60.07 166.03 73.74 141.03 102.41 141.03 116.08 166.03"/><polygon class="cls-2" points="205.43 219.78 191.72 245.06 163.14 244.68 149.43 219.78 163.1 194.78 191.79 194.65 205.43 219.78"/><polygon class="cls-1" points="205.28 324.73 203.86 327.19 150.66 327.19 149.28 324.73 162.95 299.73 191.61 299.73 205.28 324.73"/><polygon class="cls-1" points="205.28 272.2 191.57 297.1 162.99 297.1 149.28 272.2 162.94 247.2 191.61 247.2 205.28 272.2"/><polygon class="cls-1" points="159.94 298.4 146.24 323.67 117.65 323.3 103.94 298.4 117.61 273.4 146.3 273.26 159.94 298.4"/><polygon class="cls-1" points="389.75 10.34 376.06 35.61 347.46 35.24 333.75 10.34 339.4 0 384.14 0 389.75 10.34"/><polygon class="cls-1" points="389.76 62.75 376.05 87.65 347.47 87.65 333.76 62.75 347.43 37.75 376.09 37.75 389.76 62.75"/><polygon class="cls-1" points="345.55 88.95 331.84 114.22 303.26 113.85 289.55 88.95 303.22 63.95 331.91 63.81 345.55 88.95"/><polygon class="cls-1" points="160.36 246.13 146.54 270.46 117.63 270.68 104.36 246.13 118.03 221.13 146.69 221.13 160.36 246.13"/><polygon class="cls-1" points="160.36 193.61 146.65 218.51 118.07 218.51 104.36 193.61 118.03 168.61 146.69 168.61 160.36 193.61"/><polygon class="cls-1" points="207 26.39 193.29 51.66 164.71 51.28 151 26.39 163.77 3.02 194.33 3.02 207 26.39"/><polygon class="cls-1" points="160.53 0.11 148.37 22.19 119.79 22.19 107.63 0.11 160.53 0.11"/><polygon class="cls-1" points="33.49 219.81 19.78 245.09 0 244.83 0 194.77 19.85 194.67 33.49 219.81"/></g></g></g></svg>