<svg xmlns="http://www.w3.org/2000/svg" viewBox="0 0 389.77 327.09"><defs><style>.cls-1{fill:#fff;opacity:0.09;}</style></defs><title>texture_com</title><g id="Calque_2" data-name="Calque 2"><g id="BODY"><g id="_1" data-name="1"><polygon class="cls-1" points="350.17 111.5 375.07 125.21 375.07 153.79 350.17 167.5 325.17 153.83 325.17 125.17 350.17 111.5"/><polygon class="cls-1" points="389.77 163.55 389.77 206.01 377.37 212.83 352.37 199.17 352.23 170.47 377.37 156.83 389.77 163.55"/><polygon class="cls-1" points="325.11 156.42 349.44 170.24 349.65 199.15 325.11 212.42 300.11 198.75 300.11 170.08 325.11 156.42"/><polygon class="cls-1" points="272.58 156.42 297.48 170.13 297.48 198.71 272.58 212.42 247.58 198.75 247.58 170.08 272.58 156.42"/><polygon class="cls-1" points="297.78 201.75 323.06 215.46 322.68 244.04 297.78 257.75 272.78 244.08 272.64 215.39 297.78 201.75"/><polygon class="cls-1" points="389.77 208.82 389.77 250.68 377.7 244.08 377.7 215.42 389.77 208.82"/><polygon class="cls-1" points="350.19 201.75 375.09 215.46 375.09 244.04 350.19 257.75 325.19 244.08 325.19 215.42 350.19 201.75"/><polygon class="cls-1" points="389.77 254.34 389.77 295.72 376.39 303.08 351.39 289.42 351.25 260.72 376.39 247.08 389.77 254.34"/><polygon class="cls-1" points="66.78 0 66.54 17.71 41.64 31.42 16.64 17.75 16.55 0 66.78 0"/><polygon class="cls-1" points="118.95 0 118.95 17.71 94.05 31.42 69.05 17.75 69.05 0 118.95 0"/><polygon class="cls-1" points="150.06 20.75 175.33 34.46 174.96 63.04 150.06 76.75 125.06 63.08 124.92 34.39 150.06 20.75"/><polygon class="cls-1" points="324.13 246.67 348.46 260.49 348.68 289.4 324.13 302.67 299.13 289 299.13 260.33 324.13 246.67"/><polygon class="cls-1" points="271.61 246.67 296.5 260.38 296.5 288.96 271.61 302.67 246.6 289 246.6 260.33 271.61 246.67"/><polygon class="cls-1" points="40.66 170 40.29 198.58 15.39 212.29 0 203.88 0 164.64 15.39 156.29 40.66 170"/><polygon class="cls-1" points="14.11 214.92 14.11 243.5 0 251.27 0 207.15 14.11 214.92"/><polygon class="cls-1" points="323.08 305.71 322.8 327.09 272.77 327.09 272.67 305.64 297.8 292 323.08 305.71"/></g></g></g></svg>