<?xml version="1.0" encoding="utf-8"?>
<!-- Generator: Adobe Illustrator 25.4.1, SVG Export Plug-In . SVG Version: 6.00 Build 0)  -->
<svg version="1.1" id="Layer_1" xmlns="http://www.w3.org/2000/svg" xmlns:xlink="http://www.w3.org/1999/xlink" x="0px" y="0px"
	 viewBox="0 0 568.7 360.1" style="enable-background:new 0 0 568.7 360.1;" xml:space="preserve">
<style type="text/css">
	.st0{fill:#403E56;}
	.st1{fill:#FFFFFF;}
	.st2{fill:#F2F2F2;}
	.st3{fill:#F1F1F1;}
	.st4{fill:#CBCACA;}
	.st5{fill:#E7E6E6;}
	.st6{fill:#F6B6B9;}
	.st7{fill:#302F42;}
	.st8{fill:#EC6586;}
	.st9{fill:#F7BEBE;}
</style>
<g>
	<rect x="9.7" y="10.2" class="st0" width="485.5" height="261.1"/>
	<rect x="97.5" y="47.1" class="st1" width="4.3" height="6.8"/>
	<rect x="112" y="45.3" class="st1" width="4.3" height="6.8"/>
	<rect x="119.7" y="45.3" class="st1" width="4.3" height="6.8"/>
	<rect x="119.7" y="65.9" class="st1" width="4.3" height="6.8"/>
	<rect x="128.3" y="55.6" class="st1" width="4.3" height="6.8"/>
	<rect x="128.3" y="66.7" class="st1" width="4.3" height="6.8"/>
	<rect x="119.7" y="88.2" class="st1" width="4.3" height="6.8"/>
	<rect x="128.3" y="99.3" class="st1" width="4.3" height="6.8"/>
	<rect x="119.7" y="141.2" class="st1" width="4.3" height="6.8"/>
	<rect x="112" y="99.3" class="st1" width="4.3" height="6.8"/>
	<rect x="97.5" y="58.2" class="st1" width="4.3" height="6.8"/>
	<rect x="97.5" y="165.2" class="st1" width="4.3" height="6.8"/>
	<rect x="97.5" y="187.5" class="st1" width="4.3" height="6.8"/>
	<rect x="97.5" y="198.6" class="st1" width="4.3" height="6.8"/>
	<rect x="95.8" y="70.2" class="st1" width="6" height="0.9"/>
	<rect x="118.9" y="80.4" class="st1" width="6" height="0.9"/>
	<rect x="95.8" y="125" class="st1" width="6" height="0.9"/>
	<rect x="95.8" y="134.4" class="st1" width="6" height="0.9"/>
	<rect x="118.9" y="189.2" class="st1" width="6" height="0.9"/>
	<rect x="112" y="209.7" class="st1" width="6" height="0.9"/>
	<polygon class="st1" points="97.5,77.9 97.5,79.6 99.2,79.6 99.2,83 97.5,83 97.5,84.7 101.7,84.7 101.7,77.9 	"/>
	<polygon class="st1" points="112,65.9 112,67.6 113.7,67.6 113.7,71 112,71 112,72.7 116.3,72.7 116.3,65.9 	"/>
	<polygon class="st1" points="128.3,77 128.3,78.7 130,78.7 130,82.2 128.3,82.2 128.3,83.9 132.6,83.9 132.6,77 	"/>
	<polygon class="st1" points="128.3,110.4 128.3,112.1 130,112.1 130,115.6 128.3,115.6 128.3,117.3 132.6,117.3 132.6,110.4 	"/>
	<polygon class="st1" points="128.3,121.5 128.3,123.3 130,123.3 130,126.7 128.3,126.7 128.3,128.4 132.6,128.4 132.6,121.5 	"/>
	<polygon class="st1" points="128.3,87.3 128.3,89 130,89 130,92.4 128.3,92.4 128.3,94.1 132.6,94.1 132.6,87.3 	"/>
	<polygon class="st1" points="119.7,55.6 119.7,57.3 121.4,57.3 121.4,60.8 119.7,60.8 119.7,62.5 124,62.5 124,55.6 	"/>
	<rect x="119.7" y="110.4" class="st1" width="4.3" height="6.8"/>
	<rect x="119.7" y="131" class="st1" width="4.3" height="6.8"/>
	<polygon class="st1" points="119.7,120.7 119.7,122.4 121.4,122.4 121.4,125.8 119.7,125.8 119.7,127.5 124,127.5 124,120.7 	"/>
	<polygon class="st1" points="112,77 112,78.7 113.7,78.7 113.7,82.2 112,82.2 112,83.9 116.3,83.9 116.3,77 	"/>
	<polygon class="st1" points="112,88.2 112,89.9 113.7,89.9 113.7,93.3 112,93.3 112,95 116.3,95 116.3,88.2 	"/>
	<rect x="112" y="121.5" class="st1" width="4.3" height="6.8"/>
	<polygon class="st1" points="112,110.4 112,112.1 113.7,112.1 113.7,115.6 112,115.6 112,117.3 116.3,117.3 116.3,110.4 	"/>
	<rect x="112" y="143.8" class="st1" width="4.3" height="6.8"/>
	<polygon class="st1" points="112,132.7 112,134.4 113.7,134.4 113.7,137.8 112,137.8 112,139.5 116.3,139.5 116.3,132.7 	"/>
	<rect x="112" y="166.1" class="st1" width="4.3" height="6.8"/>
	<rect x="119.7" y="164.4" class="st1" width="4.3" height="6.8"/>
	<polygon class="st1" points="112,154.9 112,156.6 113.7,156.6 113.7,160.1 112,160.1 112,161.8 116.3,161.8 116.3,154.9 	"/>
	<polygon class="st1" points="128.3,154.9 128.3,156.6 130,156.6 130,160.1 128.3,160.1 128.3,161.8 132.6,161.8 132.6,154.9 	"/>
	<rect x="172" y="55.6" class="st1" width="4.3" height="6.8"/>
	<rect x="172" y="66.7" class="st1" width="4.3" height="6.8"/>
	<rect x="172" y="99.3" class="st1" width="4.3" height="6.8"/>
	<polygon class="st1" points="172,77 172,78.7 173.7,78.7 173.7,82.2 172,82.2 172,83.9 176.2,83.9 176.2,77 	"/>
	<polygon class="st1" points="172,110.4 172,112.1 173.7,112.1 173.7,115.6 172,115.6 172,117.3 176.2,117.3 176.2,110.4 	"/>
	<polygon class="st1" points="172,121.5 172,123.3 173.7,123.3 173.7,126.7 172,126.7 172,128.4 176.2,128.4 176.2,121.5 	"/>
	<polygon class="st1" points="172,87.3 172,89 173.7,89 173.7,92.4 172,92.4 172,94.1 176.2,94.1 176.2,87.3 	"/>
	<polygon class="st1" points="172,154.9 172,156.6 173.7,156.6 173.7,160.1 172,160.1 172,161.8 176.2,161.8 176.2,154.9 	"/>
	<rect x="112" y="188.3" class="st1" width="4.3" height="6.8"/>
	<rect x="119.7" y="175.5" class="st1" width="4.3" height="6.8"/>
	<rect x="112" y="217.4" class="st1" width="4.3" height="6.8"/>
	<rect x="119.7" y="196.9" class="st1" width="4.3" height="6.8"/>
	<polygon class="st1" points="112,177.2 112,178.9 113.7,178.9 113.7,182.3 112,182.3 112,184 116.3,184 116.3,177.2 	"/>
	<polygon class="st1" points="112,229.4 112,231.1 113.7,231.1 113.7,234.6 112,234.6 112,236.3 116.3,236.3 116.3,229.4 	"/>
	<rect x="159.1" y="45.3" class="st1" width="4.3" height="6.8"/>
	<rect x="159.1" y="99.3" class="st1" width="4.3" height="6.8"/>
	<rect x="159.1" y="209.7" class="st1" width="6" height="0.9"/>
	<polygon class="st1" points="159.1,65.9 159.1,67.6 160.8,67.6 160.8,71 159.1,71 159.1,72.7 163.4,72.7 163.4,65.9 	"/>
	<polygon class="st1" points="159.1,77 159.1,78.7 160.8,78.7 160.8,82.2 159.1,82.2 159.1,83.9 163.4,83.9 163.4,77 	"/>
	<polygon class="st1" points="159.1,88.2 159.1,89.9 160.8,89.9 160.8,93.3 159.1,93.3 159.1,95 163.4,95 163.4,88.2 	"/>
	<rect x="159.1" y="121.5" class="st1" width="4.3" height="6.8"/>
	<polygon class="st1" points="159.1,110.4 159.1,112.1 160.8,112.1 160.8,115.6 159.1,115.6 159.1,117.3 163.4,117.3 163.4,110.4 	
		"/>
	<rect x="159.1" y="143.8" class="st1" width="4.3" height="6.8"/>
	<polygon class="st1" points="159.1,132.7 159.1,134.4 160.8,134.4 160.8,137.8 159.1,137.8 159.1,139.5 163.4,139.5 163.4,132.7 	
		"/>
	<rect x="159.1" y="166.1" class="st1" width="4.3" height="6.8"/>
	<polygon class="st1" points="159.1,154.9 159.1,156.6 160.8,156.6 160.8,160.1 159.1,160.1 159.1,161.8 163.4,161.8 163.4,154.9 	
		"/>
	<rect x="159.1" y="188.3" class="st1" width="4.3" height="6.8"/>
	<rect x="159.1" y="217.4" class="st1" width="4.3" height="6.8"/>
	<polygon class="st1" points="159.1,177.2 159.1,178.9 160.8,178.9 160.8,182.3 159.1,182.3 159.1,184 163.4,184 163.4,177.2 	"/>
	<polygon class="st1" points="159.1,229.4 159.1,231.1 160.8,231.1 160.8,234.6 159.1,234.6 159.1,236.3 163.4,236.3 163.4,229.4 	
		"/>
	<rect x="179.7" y="45.3" class="st1" width="4.3" height="6.8"/>
	<rect x="179.7" y="99.3" class="st1" width="4.3" height="6.8"/>
	<rect x="179.7" y="209.7" class="st1" width="6" height="0.9"/>
	<polygon class="st1" points="179.7,65.9 179.7,67.6 181.4,67.6 181.4,71 179.7,71 179.7,72.7 183.9,72.7 183.9,65.9 	"/>
	<polygon class="st1" points="179.7,77 179.7,78.7 181.4,78.7 181.4,82.2 179.7,82.2 179.7,83.9 183.9,83.9 183.9,77 	"/>
	<polygon class="st1" points="179.7,88.2 179.7,89.9 181.4,89.9 181.4,93.3 179.7,93.3 179.7,95 183.9,95 183.9,88.2 	"/>
	<rect x="179.7" y="121.5" class="st1" width="4.3" height="6.8"/>
	<polygon class="st1" points="179.7,110.4 179.7,112.1 181.4,112.1 181.4,115.6 179.7,115.6 179.7,117.3 183.9,117.3 183.9,110.4 	
		"/>
	<rect x="179.7" y="143.8" class="st1" width="4.3" height="6.8"/>
	<polygon class="st1" points="179.7,132.7 179.7,134.4 181.4,134.4 181.4,137.8 179.7,137.8 179.7,139.5 183.9,139.5 183.9,132.7 	
		"/>
	<rect x="179.7" y="166.1" class="st1" width="4.3" height="6.8"/>
	<polygon class="st1" points="179.7,154.9 179.7,156.6 181.4,156.6 181.4,160.1 179.7,160.1 179.7,161.8 183.9,161.8 183.9,154.9 	
		"/>
	<rect x="179.7" y="188.3" class="st1" width="4.3" height="6.8"/>
	<rect x="179.7" y="217.4" class="st1" width="4.3" height="6.8"/>
	<polygon class="st1" points="179.7,177.2 179.7,178.9 181.4,178.9 181.4,182.3 179.7,182.3 179.7,184 183.9,184 183.9,177.2 	"/>
	<polygon class="st1" points="179.7,229.4 179.7,231.1 181.4,231.1 181.4,234.6 179.7,234.6 179.7,236.3 183.9,236.3 183.9,229.4 	
		"/>
	<polygon class="st1" points="119.7,217.4 119.7,219.1 121.4,219.1 121.4,222.6 119.7,222.6 119.7,224.3 124,224.3 124,217.4 	"/>
	<polygon class="st1" points="119.7,228.6 119.7,230.3 121.4,230.3 121.4,233.7 119.7,233.7 119.7,235.4 124,235.4 124,228.6 	"/>
	<polygon class="st1" points="97.5,99.3 97.5,101 99.2,101 99.2,104.4 97.5,104.4 97.5,106.1 101.7,106.1 101.7,99.3 	"/>
	<polygon class="st1" points="97.5,142.9 97.5,144.7 99.2,144.7 99.2,148.1 97.5,148.1 97.5,149.8 101.7,149.8 101.7,142.9 	"/>
	<polygon class="st1" points="97.5,154.1 97.5,155.8 99.2,155.8 99.2,159.2 97.5,159.2 97.5,160.9 101.7,160.9 101.7,154.1 	"/>
	<polygon class="st1" points="97.5,176.3 97.5,178.1 99.2,178.1 99.2,181.5 97.5,181.5 97.5,183.2 101.7,183.2 101.7,176.3 	"/>
	<polygon class="st1" points="97.5,208 97.5,209.7 99.2,209.7 99.2,213.2 97.5,213.2 97.5,214.9 101.7,214.9 101.7,208 	"/>
	<polygon class="st1" points="97.5,217.4 97.5,219.1 99.2,219.1 99.2,222.6 97.5,222.6 97.5,224.3 101.7,224.3 101.7,217.4 	"/>
	<rect x="142" y="47.1" class="st1" width="4.3" height="6.8"/>
	<rect x="142" y="58.2" class="st1" width="4.3" height="6.8"/>
	<rect x="140.3" y="70.2" class="st1" width="6" height="0.9"/>
	<rect x="140.3" y="125" class="st1" width="6" height="0.9"/>
	<rect x="140.3" y="134.4" class="st1" width="6" height="0.9"/>
	<polygon class="st1" points="142,77.9 142,79.6 143.7,79.6 143.7,83 142,83 142,84.7 146.3,84.7 146.3,77.9 	"/>
	<polygon class="st1" points="142,99.3 142,101 143.7,101 143.7,104.4 142,104.4 142,106.1 146.3,106.1 146.3,99.3 	"/>
	<polygon class="st1" points="142,142.9 142,144.7 143.7,144.7 143.7,148.1 142,148.1 142,149.8 146.3,149.8 146.3,142.9 	"/>
	<rect x="190.8" y="121.5" class="st1" width="4.3" height="6.8"/>
	<rect x="190.8" y="132.7" class="st1" width="4.3" height="6.8"/>
	<rect x="189.1" y="144.7" class="st1" width="6" height="0.9"/>
	<rect x="189.1" y="199.5" class="st1" width="6" height="0.9"/>
	<rect x="189.1" y="208.9" class="st1" width="6" height="0.9"/>
	<polygon class="st1" points="190.8,152.4 190.8,154.1 192.5,154.1 192.5,157.5 190.8,157.5 190.8,159.2 195.1,159.2 195.1,152.4 	
		"/>
	<polygon class="st1" points="190.8,173.8 190.8,175.5 192.5,175.5 192.5,178.9 190.8,178.9 190.8,180.6 195.1,180.6 195.1,173.8 	
		"/>
	<polygon class="st1" points="190.8,217.4 190.8,219.1 192.5,219.1 192.5,222.6 190.8,222.6 190.8,224.3 195.1,224.3 195.1,217.4 	
		"/>
	<rect x="204.5" y="47.1" class="st1" width="4.3" height="6.8"/>
	<rect x="219" y="45.3" class="st1" width="4.3" height="6.8"/>
	<rect x="226.8" y="45.3" class="st1" width="4.3" height="6.8"/>
	<rect x="226.8" y="65.9" class="st1" width="4.3" height="6.8"/>
	<rect x="235.3" y="55.6" class="st1" width="4.3" height="6.8"/>
	<rect x="235.3" y="66.7" class="st1" width="4.3" height="6.8"/>
	<rect x="226.8" y="88.2" class="st1" width="4.3" height="6.8"/>
	<rect x="235.3" y="99.3" class="st1" width="4.3" height="6.8"/>
	<rect x="226.8" y="141.2" class="st1" width="4.3" height="6.8"/>
	<rect x="219" y="99.3" class="st1" width="4.3" height="6.8"/>
	<rect x="204.5" y="58.2" class="st1" width="4.3" height="6.8"/>
	<rect x="204.5" y="165.2" class="st1" width="4.3" height="6.8"/>
	<rect x="204.5" y="187.5" class="st1" width="4.3" height="6.8"/>
	<rect x="204.5" y="198.6" class="st1" width="4.3" height="6.8"/>
	<rect x="202.8" y="70.2" class="st1" width="6" height="0.9"/>
	<rect x="225.9" y="80.4" class="st1" width="6" height="0.9"/>
	<rect x="202.8" y="125" class="st1" width="6" height="0.9"/>
	<rect x="202.8" y="134.4" class="st1" width="6" height="0.9"/>
	<rect x="225.9" y="189.2" class="st1" width="6" height="0.9"/>
	<rect x="219" y="209.7" class="st1" width="6" height="0.9"/>
	<polygon class="st1" points="204.5,77.9 204.5,79.6 206.2,79.6 206.2,83 204.5,83 204.5,84.7 208.8,84.7 208.8,77.9 	"/>
	<polygon class="st1" points="219,65.9 219,67.6 220.8,67.6 220.8,71 219,71 219,72.7 223.3,72.7 223.3,65.9 	"/>
	<polygon class="st1" points="235.3,77 235.3,78.7 237,78.7 237,82.2 235.3,82.2 235.3,83.9 239.6,83.9 239.6,77 	"/>
	<polygon class="st1" points="235.3,110.4 235.3,112.1 237,112.1 237,115.6 235.3,115.6 235.3,117.3 239.6,117.3 239.6,110.4 	"/>
	<polygon class="st1" points="235.3,121.5 235.3,123.3 237,123.3 237,126.7 235.3,126.7 235.3,128.4 239.6,128.4 239.6,121.5 	"/>
	<polygon class="st1" points="235.3,87.3 235.3,89 237,89 237,92.4 235.3,92.4 235.3,94.1 239.6,94.1 239.6,87.3 	"/>
	<polygon class="st1" points="226.8,55.6 226.8,57.3 228.5,57.3 228.5,60.8 226.8,60.8 226.8,62.5 231,62.5 231,55.6 	"/>
	<rect x="226.8" y="110.4" class="st1" width="4.3" height="6.8"/>
	<rect x="226.8" y="131" class="st1" width="4.3" height="6.8"/>
	<polygon class="st1" points="226.8,120.7 226.8,122.4 228.5,122.4 228.5,125.8 226.8,125.8 226.8,127.5 231,127.5 231,120.7 	"/>
	<polygon class="st1" points="219,77 219,78.7 220.8,78.7 220.8,82.2 219,82.2 219,83.9 223.3,83.9 223.3,77 	"/>
	<polygon class="st1" points="219,88.2 219,89.9 220.8,89.9 220.8,93.3 219,93.3 219,95 223.3,95 223.3,88.2 	"/>
	<rect x="219" y="121.5" class="st1" width="4.3" height="6.8"/>
	<polygon class="st1" points="219,110.4 219,112.1 220.8,112.1 220.8,115.6 219,115.6 219,117.3 223.3,117.3 223.3,110.4 	"/>
	<rect x="219" y="143.8" class="st1" width="4.3" height="6.8"/>
	<polygon class="st1" points="219,132.7 219,134.4 220.8,134.4 220.8,137.8 219,137.8 219,139.5 223.3,139.5 223.3,132.7 	"/>
	<rect x="219" y="166.1" class="st1" width="4.3" height="6.8"/>
	<rect x="226.8" y="164.4" class="st1" width="4.3" height="6.8"/>
	<polygon class="st1" points="219,154.9 219,156.6 220.8,156.6 220.8,160.1 219,160.1 219,161.8 223.3,161.8 223.3,154.9 	"/>
	<polygon class="st1" points="235.3,154.9 235.3,156.6 237,156.6 237,160.1 235.3,160.1 235.3,161.8 239.6,161.8 239.6,154.9 	"/>
	<rect x="279" y="55.6" class="st1" width="4.3" height="6.8"/>
	<rect x="279" y="66.7" class="st1" width="4.3" height="6.8"/>
	<rect x="279" y="99.3" class="st1" width="4.3" height="6.8"/>
	<polygon class="st1" points="279,77 279,78.7 280.7,78.7 280.7,82.2 279,82.2 279,83.9 283.3,83.9 283.3,77 	"/>
	<polygon class="st1" points="279,110.4 279,112.1 280.7,112.1 280.7,115.6 279,115.6 279,117.3 283.3,117.3 283.3,110.4 	"/>
	<polygon class="st1" points="279,121.5 279,123.3 280.7,123.3 280.7,126.7 279,126.7 279,128.4 283.3,128.4 283.3,121.5 	"/>
	<polygon class="st1" points="279,87.3 279,89 280.7,89 280.7,92.4 279,92.4 279,94.1 283.3,94.1 283.3,87.3 	"/>
	<polygon class="st1" points="279,154.9 279,156.6 280.7,156.6 280.7,160.1 279,160.1 279,161.8 283.3,161.8 283.3,154.9 	"/>
	<rect x="219" y="188.3" class="st1" width="4.3" height="6.8"/>
	<rect x="226.8" y="175.5" class="st1" width="4.3" height="6.8"/>
	<rect x="219" y="217.4" class="st1" width="4.3" height="6.8"/>
	<rect x="226.8" y="196.9" class="st1" width="4.3" height="6.8"/>
	<polygon class="st1" points="219,177.2 219,178.9 220.8,178.9 220.8,182.3 219,182.3 219,184 223.3,184 223.3,177.2 	"/>
	<polygon class="st1" points="219,229.4 219,231.1 220.8,231.1 220.8,234.6 219,234.6 219,236.3 223.3,236.3 223.3,229.4 	"/>
	<rect x="266.1" y="45.3" class="st1" width="4.3" height="6.8"/>
	<rect x="266.1" y="99.3" class="st1" width="4.3" height="6.8"/>
	<rect x="266.1" y="209.7" class="st1" width="6" height="0.9"/>
	<polygon class="st1" points="266.1,65.9 266.1,67.6 267.8,67.6 267.8,71 266.1,71 266.1,72.7 270.4,72.7 270.4,65.9 	"/>
	<polygon class="st1" points="266.1,77 266.1,78.7 267.8,78.7 267.8,82.2 266.1,82.2 266.1,83.9 270.4,83.9 270.4,77 	"/>
	<polygon class="st1" points="266.1,88.2 266.1,89.9 267.8,89.9 267.8,93.3 266.1,93.3 266.1,95 270.4,95 270.4,88.2 	"/>
	<rect x="266.1" y="121.5" class="st1" width="4.3" height="6.8"/>
	<polygon class="st1" points="266.1,110.4 266.1,112.1 267.8,112.1 267.8,115.6 266.1,115.6 266.1,117.3 270.4,117.3 270.4,110.4 	
		"/>
	<rect x="266.1" y="143.8" class="st1" width="4.3" height="6.8"/>
	<polygon class="st1" points="266.1,132.7 266.1,134.4 267.8,134.4 267.8,137.8 266.1,137.8 266.1,139.5 270.4,139.5 270.4,132.7 	
		"/>
	<rect x="266.1" y="166.1" class="st1" width="4.3" height="6.8"/>
	<polygon class="st1" points="266.1,154.9 266.1,156.6 267.8,156.6 267.8,160.1 266.1,160.1 266.1,161.8 270.4,161.8 270.4,154.9 	
		"/>
	<rect x="266.1" y="188.3" class="st1" width="4.3" height="6.8"/>
	<rect x="266.1" y="217.4" class="st1" width="4.3" height="6.8"/>
	<polygon class="st1" points="266.1,177.2 266.1,178.9 267.8,178.9 267.8,182.3 266.1,182.3 266.1,184 270.4,184 270.4,177.2 	"/>
	<polygon class="st1" points="266.1,229.4 266.1,231.1 267.8,231.1 267.8,234.6 266.1,234.6 266.1,236.3 270.4,236.3 270.4,229.4 	
		"/>
	<rect x="286.7" y="45.3" class="st1" width="4.3" height="6.8"/>
	<rect x="286.7" y="99.3" class="st1" width="4.3" height="6.8"/>
	<rect x="286.7" y="209.7" class="st1" width="6" height="0.9"/>
	<polygon class="st1" points="286.7,65.9 286.7,67.6 288.4,67.6 288.4,71 286.7,71 286.7,72.7 291,72.7 291,65.9 	"/>
	<polygon class="st1" points="286.7,77 286.7,78.7 288.4,78.7 288.4,82.2 286.7,82.2 286.7,83.9 291,83.9 291,77 	"/>
	<polygon class="st1" points="286.7,88.2 286.7,89.9 288.4,89.9 288.4,93.3 286.7,93.3 286.7,95 291,95 291,88.2 	"/>
	<rect x="286.7" y="121.5" class="st1" width="4.3" height="6.8"/>
	<polygon class="st1" points="286.7,110.4 286.7,112.1 288.4,112.1 288.4,115.6 286.7,115.6 286.7,117.3 291,117.3 291,110.4 	"/>
	<rect x="286.7" y="143.8" class="st1" width="4.3" height="6.8"/>
	<polygon class="st1" points="286.7,132.7 286.7,134.4 288.4,134.4 288.4,137.8 286.7,137.8 286.7,139.5 291,139.5 291,132.7 	"/>
	<rect x="286.7" y="166.1" class="st1" width="4.3" height="6.8"/>
	<polygon class="st1" points="286.7,154.9 286.7,156.6 288.4,156.6 288.4,160.1 286.7,160.1 286.7,161.8 291,161.8 291,154.9 	"/>
	<rect x="286.7" y="188.3" class="st1" width="4.3" height="6.8"/>
	<rect x="286.7" y="217.4" class="st1" width="4.3" height="6.8"/>
	<polygon class="st1" points="286.7,177.2 286.7,178.9 288.4,178.9 288.4,182.3 286.7,182.3 286.7,184 291,184 291,177.2 	"/>
	<polygon class="st1" points="286.7,229.4 286.7,231.1 288.4,231.1 288.4,234.6 286.7,234.6 286.7,236.3 291,236.3 291,229.4 	"/>
	<polygon class="st1" points="226.8,217.4 226.8,219.1 228.5,219.1 228.5,222.6 226.8,222.6 226.8,224.3 231,224.3 231,217.4 	"/>
	<polygon class="st1" points="226.8,228.6 226.8,230.3 228.5,230.3 228.5,233.7 226.8,233.7 226.8,235.4 231,235.4 231,228.6 	"/>
	<polygon class="st1" points="204.5,99.3 204.5,101 206.2,101 206.2,104.4 204.5,104.4 204.5,106.1 208.8,106.1 208.8,99.3 	"/>
	<polygon class="st1" points="204.5,142.9 204.5,144.7 206.2,144.7 206.2,148.1 204.5,148.1 204.5,149.8 208.8,149.8 208.8,142.9 	
		"/>
	<polygon class="st1" points="204.5,154.1 204.5,155.8 206.2,155.8 206.2,159.2 204.5,159.2 204.5,160.9 208.8,160.9 208.8,154.1 	
		"/>
	<polygon class="st1" points="204.5,176.3 204.5,178.1 206.2,178.1 206.2,181.5 204.5,181.5 204.5,183.2 208.8,183.2 208.8,176.3 	
		"/>
	<polygon class="st1" points="204.5,208 204.5,209.7 206.2,209.7 206.2,213.2 204.5,213.2 204.5,214.9 208.8,214.9 208.8,208 	"/>
	<polygon class="st1" points="204.5,217.4 204.5,219.1 206.2,219.1 206.2,222.6 204.5,222.6 204.5,224.3 208.8,224.3 208.8,217.4 	
		"/>
	<rect x="249" y="47.1" class="st1" width="4.3" height="6.8"/>
	<rect x="249" y="58.2" class="st1" width="4.3" height="6.8"/>
	<rect x="247.3" y="70.2" class="st1" width="6" height="0.9"/>
	<rect x="247.3" y="125" class="st1" width="6" height="0.9"/>
	<rect x="247.3" y="134.4" class="st1" width="6" height="0.9"/>
	<polygon class="st1" points="249,77.9 249,79.6 250.7,79.6 250.7,83 249,83 249,84.7 253.3,84.7 253.3,77.9 	"/>
	<polygon class="st1" points="249,99.3 249,101 250.7,101 250.7,104.4 249,104.4 249,106.1 253.3,106.1 253.3,99.3 	"/>
	<polygon class="st1" points="249,142.9 249,144.7 250.7,144.7 250.7,148.1 249,148.1 249,149.8 253.3,149.8 253.3,142.9 	"/>
	<rect x="297.8" y="121.5" class="st1" width="4.3" height="6.8"/>
	<rect x="297.8" y="132.7" class="st1" width="4.3" height="6.8"/>
	<rect x="296.1" y="144.7" class="st1" width="6" height="0.9"/>
	<rect x="296.1" y="199.5" class="st1" width="6" height="0.9"/>
	<rect x="296.1" y="208.9" class="st1" width="6" height="0.9"/>
	<polygon class="st1" points="297.8,152.4 297.8,154.1 299.5,154.1 299.5,157.5 297.8,157.5 297.8,159.2 302.1,159.2 302.1,152.4 	
		"/>
	<polygon class="st1" points="297.8,173.8 297.8,175.5 299.5,175.5 299.5,178.9 297.8,178.9 297.8,180.6 302.1,180.6 302.1,173.8 	
		"/>
	<polygon class="st1" points="297.8,217.4 297.8,219.1 299.5,219.1 299.5,222.6 297.8,222.6 297.8,224.3 302.1,224.3 302.1,217.4 	
		"/>
	<rect x="311.5" y="47.1" class="st1" width="4.3" height="6.8"/>
	<rect x="326.1" y="45.3" class="st1" width="4.3" height="6.8"/>
	<rect x="333.8" y="45.3" class="st1" width="4.3" height="6.8"/>
	<rect x="333.8" y="65.9" class="st1" width="4.3" height="6.8"/>
	<rect x="342.3" y="55.6" class="st1" width="4.3" height="6.8"/>
	<rect x="342.3" y="66.7" class="st1" width="4.3" height="6.8"/>
	<rect x="333.8" y="88.2" class="st1" width="4.3" height="6.8"/>
	<rect x="342.3" y="99.3" class="st1" width="4.3" height="6.8"/>
	<rect x="333.8" y="141.2" class="st1" width="4.3" height="6.8"/>
	<rect x="326.1" y="99.3" class="st1" width="4.3" height="6.8"/>
	<rect x="311.5" y="58.2" class="st1" width="4.3" height="6.8"/>
	<rect x="311.5" y="165.2" class="st1" width="4.3" height="6.8"/>
	<rect x="311.5" y="187.5" class="st1" width="4.3" height="6.8"/>
	<rect x="311.5" y="198.6" class="st1" width="4.3" height="6.8"/>
	<rect x="309.8" y="70.2" class="st1" width="6" height="0.9"/>
	<rect x="332.9" y="80.4" class="st1" width="6" height="0.9"/>
	<rect x="309.8" y="125" class="st1" width="6" height="0.9"/>
	<rect x="309.8" y="134.4" class="st1" width="6" height="0.9"/>
	<rect x="332.9" y="189.2" class="st1" width="6" height="0.9"/>
	<rect x="326.1" y="209.7" class="st1" width="6" height="0.9"/>
	<polygon class="st1" points="311.5,77.9 311.5,79.6 313.2,79.6 313.2,83 311.5,83 311.5,84.7 315.8,84.7 315.8,77.9 	"/>
	<polygon class="st1" points="326.1,65.9 326.1,67.6 327.8,67.6 327.8,71 326.1,71 326.1,72.7 330.3,72.7 330.3,65.9 	"/>
	<polygon class="st1" points="342.3,77 342.3,78.7 344,78.7 344,82.2 342.3,82.2 342.3,83.9 346.6,83.9 346.6,77 	"/>
	<polygon class="st1" points="342.3,110.4 342.3,112.1 344,112.1 344,115.6 342.3,115.6 342.3,117.3 346.6,117.3 346.6,110.4 	"/>
	<polygon class="st1" points="342.3,121.5 342.3,123.3 344,123.3 344,126.7 342.3,126.7 342.3,128.4 346.6,128.4 346.6,121.5 	"/>
	<polygon class="st1" points="342.3,87.3 342.3,89 344,89 344,92.4 342.3,92.4 342.3,94.1 346.6,94.1 346.6,87.3 	"/>
	<polygon class="st1" points="333.8,55.6 333.8,57.3 335.5,57.3 335.5,60.8 333.8,60.8 333.8,62.5 338.1,62.5 338.1,55.6 	"/>
	<rect x="333.8" y="110.4" class="st1" width="4.3" height="6.8"/>
	<rect x="333.8" y="131" class="st1" width="4.3" height="6.8"/>
	<polygon class="st1" points="333.8,120.7 333.8,122.4 335.5,122.4 335.5,125.8 333.8,125.8 333.8,127.5 338.1,127.5 338.1,120.7 	
		"/>
	<polygon class="st1" points="326.1,77 326.1,78.7 327.8,78.7 327.8,82.2 326.1,82.2 326.1,83.9 330.3,83.9 330.3,77 	"/>
	<polygon class="st1" points="326.1,88.2 326.1,89.9 327.8,89.9 327.8,93.3 326.1,93.3 326.1,95 330.3,95 330.3,88.2 	"/>
	<rect x="326.1" y="121.5" class="st1" width="4.3" height="6.8"/>
	<polygon class="st1" points="326.1,110.4 326.1,112.1 327.8,112.1 327.8,115.6 326.1,115.6 326.1,117.3 330.3,117.3 330.3,110.4 	
		"/>
	<rect x="326.1" y="143.8" class="st1" width="4.3" height="6.8"/>
	<polygon class="st1" points="326.1,132.7 326.1,134.4 327.8,134.4 327.8,137.8 326.1,137.8 326.1,139.5 330.3,139.5 330.3,132.7 	
		"/>
	<rect x="326.1" y="166.1" class="st1" width="4.3" height="6.8"/>
	<rect x="333.8" y="164.4" class="st1" width="4.3" height="6.8"/>
	<polygon class="st1" points="326.1,154.9 326.1,156.6 327.8,156.6 327.8,160.1 326.1,160.1 326.1,161.8 330.3,161.8 330.3,154.9 	
		"/>
	<polygon class="st1" points="342.3,154.9 342.3,156.6 344,156.6 344,160.1 342.3,160.1 342.3,161.8 346.6,161.8 346.6,154.9 	"/>
	<rect x="386" y="55.6" class="st1" width="4.3" height="6.8"/>
	<rect x="386" y="66.7" class="st1" width="4.3" height="6.8"/>
	<rect x="386" y="99.3" class="st1" width="4.3" height="6.8"/>
	<polygon class="st1" points="386,77 386,78.7 387.7,78.7 387.7,82.2 386,82.2 386,83.9 390.3,83.9 390.3,77 	"/>
	<polygon class="st1" points="386,110.4 386,112.1 387.7,112.1 387.7,115.6 386,115.6 386,117.3 390.3,117.3 390.3,110.4 	"/>
	<polygon class="st1" points="386,121.5 386,123.3 387.7,123.3 387.7,126.7 386,126.7 386,128.4 390.3,128.4 390.3,121.5 	"/>
	<polygon class="st1" points="386,87.3 386,89 387.7,89 387.7,92.4 386,92.4 386,94.1 390.3,94.1 390.3,87.3 	"/>
	<polygon class="st1" points="386,154.9 386,156.6 387.7,156.6 387.7,160.1 386,160.1 386,161.8 390.3,161.8 390.3,154.9 	"/>
	<rect x="326.1" y="188.3" class="st1" width="4.3" height="6.8"/>
	<rect x="333.8" y="175.5" class="st1" width="4.3" height="6.8"/>
	<rect x="326.1" y="217.4" class="st1" width="4.3" height="6.8"/>
	<rect x="333.8" y="196.9" class="st1" width="4.3" height="6.8"/>
	<polygon class="st1" points="326.1,177.2 326.1,178.9 327.8,178.9 327.8,182.3 326.1,182.3 326.1,184 330.3,184 330.3,177.2 	"/>
	<polygon class="st1" points="326.1,229.4 326.1,231.1 327.8,231.1 327.8,234.6 326.1,234.6 326.1,236.3 330.3,236.3 330.3,229.4 	
		"/>
	<rect x="373.2" y="45.3" class="st1" width="4.3" height="6.8"/>
	<rect x="373.2" y="99.3" class="st1" width="4.3" height="6.8"/>
	<rect x="373.2" y="209.7" class="st1" width="6" height="0.9"/>
	<polygon class="st1" points="373.2,65.9 373.2,67.6 374.9,67.6 374.9,71 373.2,71 373.2,72.7 377.4,72.7 377.4,65.9 	"/>
	<polygon class="st1" points="373.2,77 373.2,78.7 374.9,78.7 374.9,82.2 373.2,82.2 373.2,83.9 377.4,83.9 377.4,77 	"/>
	<polygon class="st1" points="373.2,88.2 373.2,89.9 374.9,89.9 374.9,93.3 373.2,93.3 373.2,95 377.4,95 377.4,88.2 	"/>
	<rect x="373.2" y="121.5" class="st1" width="4.3" height="6.8"/>
	<polygon class="st1" points="373.2,110.4 373.2,112.1 374.9,112.1 374.9,115.6 373.2,115.6 373.2,117.3 377.4,117.3 377.4,110.4 	
		"/>
	<rect x="373.2" y="143.8" class="st1" width="4.3" height="6.8"/>
	<polygon class="st1" points="373.2,132.7 373.2,134.4 374.9,134.4 374.9,137.8 373.2,137.8 373.2,139.5 377.4,139.5 377.4,132.7 	
		"/>
	<rect x="373.2" y="166.1" class="st1" width="4.3" height="6.8"/>
	<polygon class="st1" points="373.2,154.9 373.2,156.6 374.9,156.6 374.9,160.1 373.2,160.1 373.2,161.8 377.4,161.8 377.4,154.9 	
		"/>
	<rect x="373.2" y="188.3" class="st1" width="4.3" height="6.8"/>
	<rect x="373.2" y="217.4" class="st1" width="4.3" height="6.8"/>
	<polygon class="st1" points="373.2,177.2 373.2,178.9 374.9,178.9 374.9,182.3 373.2,182.3 373.2,184 377.4,184 377.4,177.2 	"/>
	<polygon class="st1" points="373.2,229.4 373.2,231.1 374.9,231.1 374.9,234.6 373.2,234.6 373.2,236.3 377.4,236.3 377.4,229.4 	
		"/>
	<rect x="393.7" y="45.3" class="st1" width="4.3" height="6.8"/>
	<rect x="393.7" y="99.3" class="st1" width="4.3" height="6.8"/>
	<rect x="393.7" y="209.7" class="st1" width="6" height="0.9"/>
	<polygon class="st1" points="393.7,65.9 393.7,67.6 395.4,67.6 395.4,71 393.7,71 393.7,72.7 398,72.7 398,65.9 	"/>
	<polygon class="st1" points="393.7,77 393.7,78.7 395.4,78.7 395.4,82.2 393.7,82.2 393.7,83.9 398,83.9 398,77 	"/>
	<polygon class="st1" points="393.7,88.2 393.7,89.9 395.4,89.9 395.4,93.3 393.7,93.3 393.7,95 398,95 398,88.2 	"/>
	<rect x="393.7" y="121.5" class="st1" width="4.3" height="6.8"/>
	<polygon class="st1" points="393.7,110.4 393.7,112.1 395.4,112.1 395.4,115.6 393.7,115.6 393.7,117.3 398,117.3 398,110.4 	"/>
	<rect x="393.7" y="143.8" class="st1" width="4.3" height="6.8"/>
	<polygon class="st1" points="393.7,132.7 393.7,134.4 395.4,134.4 395.4,137.8 393.7,137.8 393.7,139.5 398,139.5 398,132.7 	"/>
	<rect x="393.7" y="166.1" class="st1" width="4.3" height="6.8"/>
	<polygon class="st1" points="393.7,154.9 393.7,156.6 395.4,156.6 395.4,160.1 393.7,160.1 393.7,161.8 398,161.8 398,154.9 	"/>
	<rect x="393.7" y="188.3" class="st1" width="4.3" height="6.8"/>
	<rect x="393.7" y="217.4" class="st1" width="4.3" height="6.8"/>
	<polygon class="st1" points="393.7,177.2 393.7,178.9 395.4,178.9 395.4,182.3 393.7,182.3 393.7,184 398,184 398,177.2 	"/>
	<polygon class="st1" points="393.7,229.4 393.7,231.1 395.4,231.1 395.4,234.6 393.7,234.6 393.7,236.3 398,236.3 398,229.4 	"/>
	<polygon class="st1" points="333.8,217.4 333.8,219.1 335.5,219.1 335.5,222.6 333.8,222.6 333.8,224.3 338.1,224.3 338.1,217.4 	
		"/>
	<polygon class="st1" points="333.8,228.6 333.8,230.3 335.5,230.3 335.5,233.7 333.8,233.7 333.8,235.4 338.1,235.4 338.1,228.6 	
		"/>
	<polygon class="st1" points="311.5,99.3 311.5,101 313.2,101 313.2,104.4 311.5,104.4 311.5,106.1 315.8,106.1 315.8,99.3 	"/>
	<polygon class="st1" points="311.5,142.9 311.5,144.7 313.2,144.7 313.2,148.1 311.5,148.1 311.5,149.8 315.8,149.8 315.8,142.9 	
		"/>
	<polygon class="st1" points="311.5,154.1 311.5,155.8 313.2,155.8 313.2,159.2 311.5,159.2 311.5,160.9 315.8,160.9 315.8,154.1 	
		"/>
	<polygon class="st1" points="311.5,176.3 311.5,178.1 313.2,178.1 313.2,181.5 311.5,181.5 311.5,183.2 315.8,183.2 315.8,176.3 	
		"/>
	<polygon class="st1" points="311.5,208 311.5,209.7 313.2,209.7 313.2,213.2 311.5,213.2 311.5,214.9 315.8,214.9 315.8,208 	"/>
	<polygon class="st1" points="311.5,217.4 311.5,219.1 313.2,219.1 313.2,222.6 311.5,222.6 311.5,224.3 315.8,224.3 315.8,217.4 	
		"/>
	<rect x="356" y="47.1" class="st1" width="4.3" height="6.8"/>
	<rect x="356" y="58.2" class="st1" width="4.3" height="6.8"/>
	<rect x="354.3" y="70.2" class="st1" width="6" height="0.9"/>
	<rect x="354.3" y="125" class="st1" width="6" height="0.9"/>
	<rect x="354.3" y="134.4" class="st1" width="6" height="0.9"/>
	<polygon class="st1" points="356,77.9 356,79.6 357.7,79.6 357.7,83 356,83 356,84.7 360.3,84.7 360.3,77.9 	"/>
	<polygon class="st1" points="356,99.3 356,101 357.7,101 357.7,104.4 356,104.4 356,106.1 360.3,106.1 360.3,99.3 	"/>
	<polygon class="st1" points="356,142.9 356,144.7 357.7,144.7 357.7,148.1 356,148.1 356,149.8 360.3,149.8 360.3,142.9 	"/>
	<rect x="404.8" y="121.5" class="st1" width="4.3" height="6.8"/>
	<rect x="404.8" y="132.7" class="st1" width="4.3" height="6.8"/>
	<rect x="403.1" y="144.7" class="st1" width="6" height="0.9"/>
	<rect x="403.1" y="199.5" class="st1" width="6" height="0.9"/>
	<rect x="403.1" y="208.9" class="st1" width="6" height="0.9"/>
	<polygon class="st1" points="404.8,152.4 404.8,154.1 406.5,154.1 406.5,157.5 404.8,157.5 404.8,159.2 409.1,159.2 409.1,152.4 	
		"/>
	<polygon class="st1" points="404.8,173.8 404.8,175.5 406.5,175.5 406.5,178.9 404.8,178.9 404.8,180.6 409.1,180.6 409.1,173.8 	
		"/>
	<polygon class="st1" points="404.8,217.4 404.8,219.1 406.5,219.1 406.5,222.6 404.8,222.6 404.8,224.3 409.1,224.3 409.1,217.4 	
		"/>
	<circle class="st2" cx="276" cy="136.1" r="1.7"/>
	<rect x="275.5" y="136.1" class="st0" width="1.1" height="26.1"/>
	<path class="st3" d="M146.4,312.4c-10.8,8.1-13.9,22.3-13.9,22.3s14.5,1.1,25.3-7s13.9-22.3,13.9-22.3S157.2,304.4,146.4,312.4z"/>
	<path class="st3" d="M150.9,316.2c-5.2,12.5-18.2,18.9-18.2,18.9s-4.6-13.8,0.6-26.2s18.2-18.9,18.2-18.9S156.1,303.8,150.9,316.2z
		"/>
	<path class="st4" d="M462.4,280.2L462.4,280.2c-1.2-7.7-1.5-15.6-0.9-23.4l0.9-12.9l0,0C457.4,253.8,458.5,266.9,462.4,280.2z"/>
	<path class="st4" d="M466.3,282.4L466.3,282.4c-0.6-4.6-0.7-9.3-0.4-13.9l0.4-7.7l0,0C463.9,266.6,464.4,274.4,466.3,282.4z"/>
	<path class="st2" d="M483.6,291.9v4.3c0,0.7-0.6,1.3-1.3,1.3h-2.2c-0.2,0-0.4,0.2-0.4,0.4c0,0,0,0,0,0v35.5c0,0.7-0.6,1.3-1.3,1.3
		H452c-0.7,0-1.3-0.6-1.3-1.3v-35.5c0-0.2-0.2-0.4-0.4-0.4h-2.6c-0.7,0-1.3-0.6-1.3-1.3v-4.3c0-0.7,0.6-1.3,1.3-1.3c0,0,0,0,0,0
		h34.6C483,290.6,483.6,291.2,483.6,291.9z"/>
	<rect x="450.7" y="298.4" class="st5" width="29" height="1.3"/>
	<path class="st5" d="M479.7,317.5c-9.7,4-19.5,4.1-29.4,0v-9.1c9.5-3.2,19.9-3.2,29.4,0V317.5z"/>
	<circle id="fff0188c-9915-4c0d-8339-9317a77083e8" class="st6" cx="317.2" cy="138.5" r="39.2"/>
	<path id="ac220ed6-7c3f-4d1e-8d82-3295770c496a" class="st7" d="M353.8,104.7c-5.9-9.5-15-16.5-25.8-19.7l-4.8,3.5v-4.6
		c-2.6-0.4-5.2-0.5-7.8-0.5l-4.2,3.8v-3.4c-12.4,1.5-23.6,8.2-30.9,18.4c-9,13-10.5,31.1-1.7,44.2c2.4-7.5,5.4-14.5,7.8-22
		c1.9,0.3,3.9,0.3,5.8,0l3-6.9l0.8,6.6c9.2-0.8,22.8-2.6,31.5-4.2l-0.8-5.1l5.1,4.2c2.7-0.6,4.3-1.2,4.1-1.6
		c6.5,10.4,14.4,17.1,20.9,27.5C359.3,130.3,362.1,118.1,353.8,104.7z"/>
	<path class="st8" d="M401.5,239.3c-1.3-8.1-2.7-16.4-6.5-23.7c-2.5-4.8-6.4-9.3-11.7-10.3c-1-0.1-2.1-0.3-3-0.7
		c-1.6-0.7-22.4-12.7-25.7-14.7c-2.8-1.8-7.3-5.1-9.6-5.1c-2.3-0.1-11,2-45.2-0.7c0,0-9.4,3.7-16.6,8.2
		c-0.1-0.1-35.4,18.9-36.8,18.8c-2.5-0.1-4.8,1.5-6.3,3.5c-1.4,2-2.1,4.5-2.8,7c7.7,17.2,14.8,34.4,22.5,51.6
		c0.4,0.6,0.6,1.4,0.6,2.1c-0.2,0.8-0.5,1.5-1,2.1c-3.8,6.1-3.7,13.7-3.3,20.9c0.4,7.1,0.9,14.7-2.3,21.1c-0.9,1.8-2,3.4-2.8,5.1
		c-1.9,4-2.6,16.7-1.5,21l141.5,4.1C388,341.2,401.5,239.3,401.5,239.3z"/>
	<path id="bb46eb08-8e3e-4ac5-913b-26d221d967b9" class="st9" d="M225,274c-0.3,2-0.3,4.1-0.1,6.2l2,29.1c0.2,2.7,0.4,5.5,0.6,8.2
		c0.5,5.3,1.2,10.6,2.1,15.9c0,1.6,1.3,2.8,2.9,2.7c8.9,1.9,18.2,1.8,27.3,1.3c13.9-0.8,49.5-2.2,51.7-5.1s0.9-7.4-1.9-9.7
		c-2.8-2.3-49.8-7.9-49.8-7.9c0.5-3.6,1.8-7.1,3.2-10.5c2.4-6.1,4.6-12.4,4.6-19c0-6.6-2.4-13.5-7.8-17.2
		c-4.4-3.1-10.1-3.7-15.5-3.5c-3.9,0.1-10.7-0.8-14.3,0.7C227.2,266.5,225.5,271.2,225,274z"/>
	<path id="efe93a1e-ccdd-49fd-af5f-e26394aa0937" class="st8" d="M236.8,222.2c-0.7,0.7-1.2,1.6-1.6,2.5c-5.7,12.9-9.1,26.6-10,40.7
		c0,0.7-0.1,1.4-0.5,2c-0.3,0.4-0.7,0.8-1,1.1c-1.4,1.6-1.2,4.1,0.5,5.5h0c0.1,0.1,0.1,0.1,0.2,0.2c1.2-2.2,4-2.9,6.4-3.1
		c11.9-0.9,23.5,4.6,35.4,4.2c-0.8-2.9-2-5.7-2.7-8.6c-3-13,4.5-27.2-0.1-39.8c-0.9-2.5-2.5-5-4.9-6.1c-1-0.4-2.1-0.7-3.1-0.8
		c-3-0.5-9-2.9-11.9-1.9c-1.1,0.3-1.5,1.4-2.4,2C239.7,220.7,237.9,221,236.8,222.2z"/>
	<path id="a38c3c09-000b-42b7-8619-0229d8aff5e9" class="st9" d="M401.6,265.3c-3.6-1.5-10.3-0.6-14.3-0.7
		c-5.4-0.1-11.1,0.4-15.5,3.5c-5.4,3.8-7.8,10.7-7.8,17.2c0,6.6,2.2,12.9,4.6,19c1.3,3.5,2.7,6.9,3.2,10.5c0,0-47,5.6-49.8,7.9
		c-2.8,2.3-4.1,6.9-1.9,9.7s70,5.7,78.9,3.8c1.6,0,2.9-1.2,2.9-2.7c0.9-5.3,1.6-10.5,2.1-15.9c0.3-2.7,0.4-5.5,0.6-8.2l2-29.1
		c0.2-2,0.2-4.1-0.1-6.2C406.1,271.2,404.4,266.5,401.6,265.3z"/>
	<path id="bd3879bf-5d05-49be-b690-c4d97e29a2ab" class="st8" d="M390.5,219.8c-0.9-0.6-1.3-1.6-2.4-2c-2.9-0.9-8.9,1.4-11.9,1.9
		c-1.1,0.1-2.1,0.4-3.1,0.8c-2.4,1.1-4,3.6-4.9,6.1c-4.6,12.6,2.9,26.8-0.1,39.8c-0.7,2.9-1.9,5.7-2.7,8.6
		c11.9,0.4,23.5-5.1,35.4-4.2c2.5,0.2,5.3,0.9,6.4,3.1c0.1,0,0.1-0.1,0.2-0.2c1.6-1.4,1.9-3.8,0.5-5.5l0,0c-0.4-0.3-0.7-0.7-1-1.1
		c-0.3-0.6-0.5-1.3-0.5-2c-0.9-14-4.2-27.8-10-40.7c-0.3-0.9-0.9-1.8-1.6-2.5C393.7,221,391.9,220.7,390.5,219.8z"/>
	<circle class="st9" cx="305.6" cy="326.9" r="10.6"/>
	<circle class="st9" cx="329" cy="326.9" r="10.6"/>
	<path class="st0" d="M394.3,350.7H249c-3.5,0-6.4-2.9-6.4-6.4v-88.2c0-3.5,2.9-6.4,6.4-6.4h145.4c3.5,0,6.4,2.9,6.4,6.4v88.2
		C400.7,347.9,397.9,350.7,394.3,350.7z"/>
	<circle id="bf1cdf42-3b4f-4239-91c9-f6802a29e918" class="st1" cx="321.3" cy="300.2" r="4.2"/>
	<polygon class="st3" points="559.5,333 72.1,333 72.1,347.9 100.9,347.9 100.9,351.4 530.7,351.4 530.7,347.9 559.5,347.9 	"/>
	<path class="st8" d="M281.2,153.1L281.2,153.1c-6.3,0-11.4-5.5-11.4-12.3l0,0v-6.2c0-6.8,5.1-12.3,11.4-12.3l0,0V153.1z"/>
	<path class="st8" d="M354,122.3L354,122.3c6.3,0,11.4,5.5,11.4,12.3v6.2c0,6.8-5.1,12.3-11.4,12.3l0,0V122.3z"/>
	<path class="st8" d="M359.9,135.6h-1.8c0-24.8-18.7-45-41.6-45c-23,0-41.6,20.2-41.6,45h-1.8c0-25.9,19.5-47,43.4-47
		C340.4,88.6,359.9,109.7,359.9,135.6z"/>
</g>
</svg>
