<svg width="476" height="258" viewBox="0 0 476 258" fill="none" xmlns="http://www.w3.org/2000/svg">
<path d="M463.615 254H74.932C23.7793 155.178 138.533 148.617 173.41 127C208.287 105.383 189.462 53.9466 250.91 48C343.91 39 291.792 160.353 399.91 148C486.405 138.118 484.41 221.5 463.615 254Z" fill="#E0EDFC"/>
<g clip-path="url(#clip0_440_1431)">
<path d="M216.602 43.0862L214.658 53.2819L224.351 56.0115L223.146 45.1264L216.602 43.0862Z" fill="#A0616A"/>
<path d="M159.41 254.139C159.41 254.459 159.668 254.717 159.989 254.717H413.832C414.153 254.717 414.41 254.459 414.41 254.139C414.41 253.819 414.153 253.561 413.832 253.561H159.989C159.668 253.561 159.41 253.819 159.41 254.139Z" fill="#3F3D56"/>
<path d="M332.451 115.702H232.492C221.157 115.702 211.968 124.882 211.968 136.205V233.032C211.968 244.356 221.157 253.535 232.492 253.535H332.451C343.787 253.535 352.976 244.356 352.976 233.032V136.205C352.976 124.881 343.787 115.702 332.451 115.702Z" fill="white"/>
<path d="M332.451 254.021H232.492C220.907 254.021 211.481 244.605 211.481 233.032V136.205C211.481 124.632 220.907 115.217 232.492 115.217H332.451C344.036 115.217 353.462 124.632 353.462 136.205V233.032C353.462 244.605 344.036 254.021 332.451 254.021ZM232.492 116.188C221.443 116.188 212.453 125.167 212.453 136.205V233.032C212.453 244.07 221.443 253.05 232.492 253.05H332.451C343.501 253.05 352.49 244.07 352.49 233.032V136.205C352.49 125.167 343.501 116.188 332.451 116.188L232.492 116.188Z" fill="#3F3D56"/>
<path d="M339.692 157.68H299.513C297.809 157.68 296.423 156.295 296.423 154.593C296.423 152.89 297.809 151.505 299.513 151.505H339.692C341.396 151.505 342.782 152.89 342.782 154.593C342.782 156.295 341.396 157.68 339.692 157.68Z" fill="#65A8F8"/>
<path d="M301.999 181.959H262.944C261.959 181.959 261.158 181.159 261.158 180.175C261.158 179.192 261.959 178.392 262.944 178.392H301.999C302.984 178.392 303.785 179.192 303.785 180.175C303.785 181.159 302.984 181.959 301.999 181.959Z" fill="#65A8F8"/>
<path d="M246.799 122.333H224.501C224.418 122.333 224.351 122.4 224.351 122.484V125.077C224.351 125.16 224.418 125.227 224.501 125.227H246.799C246.882 125.227 246.95 125.16 246.95 125.077V122.484C246.95 122.4 246.882 122.333 246.799 122.333Z" fill="#65A8F8"/>
<path d="M321.904 125.227C323.184 125.227 324.222 124.191 324.222 122.912C324.222 121.633 323.184 120.596 321.904 120.596C320.624 120.596 319.586 121.633 319.586 122.912C319.586 124.191 320.624 125.227 321.904 125.227Z" fill="#3F3D56"/>
<path d="M328.278 125.227C329.558 125.227 330.596 124.191 330.596 122.912C330.596 121.633 329.558 120.596 328.278 120.596C326.998 120.596 325.96 121.633 325.96 122.912C325.96 124.191 326.998 125.227 328.278 125.227Z" fill="#3F3D56"/>
<path d="M334.652 125.227C335.932 125.227 336.97 124.191 336.97 122.912C336.97 121.633 335.932 120.596 334.652 120.596C333.372 120.596 332.334 121.633 332.334 122.912C332.334 124.191 333.372 125.227 334.652 125.227Z" fill="#3F3D56"/>
<path d="M232.249 191.508C232.249 191.828 232.507 192.086 232.827 192.086H332.116C332.437 192.086 332.695 191.828 332.695 191.508C332.695 191.188 332.437 190.93 332.116 190.93H232.827C232.507 190.93 232.249 191.188 232.249 191.508Z" fill="#3F3D56"/>
<path d="M262.53 48.9965C264.644 47.2518 267.259 46.927 268.37 48.271C269.481 49.615 268.669 52.1184 266.554 53.8635C265.719 54.5722 264.726 55.0708 263.658 55.3175L254.608 62.5972L251.279 58.2821L260.554 51.5638C260.998 50.5626 261.676 49.6823 262.53 48.9965Z" fill="#A0616A"/>
<path d="M210.225 65.4216C210.22 65.0997 210.223 62.2915 212.305 60.5165C214.695 58.4776 218.069 59.3029 219.252 59.5923C221.985 60.261 222.209 61.4322 224.776 62.6357C229.578 64.8872 223.561 63.7348 226.419 63.0128C227.408 62.7629 241.637 61.7771 245.179 59.5994C252.068 55.364 256.761 52.7957 256.761 52.7957L259.83 58.9259C259.83 58.9259 255.393 65.0888 249.148 69.6544C242.743 74.3376 239.54 76.6793 234.673 77.584C234.254 77.6619 223.945 79.4201 215.643 73.2237C213.749 71.8103 210.279 69.2206 210.225 65.4216Z" fill="#E6E6E6"/>
<path d="M219.743 49.8308C225.646 49.8308 230.431 45.0502 230.431 39.1531C230.431 33.2559 225.646 28.4753 219.743 28.4753C213.839 28.4753 209.054 33.2559 209.054 39.1531C209.054 45.0502 213.839 49.8308 219.743 49.8308Z" fill="#A0616A"/>
<path d="M303.453 110.89L292.445 99.6338L286.763 105.555L294.964 116.348L303.099 117.277L303.453 110.89Z" fill="#A0616A"/>
<path d="M240.597 89.782C241.241 89.8354 243.287 90.2449 245.243 89.17C246.577 88.4365 247.262 87.3458 247.493 86.9989C250.361 82.6957 261.37 75.9853 271.25 75.5724C273.488 75.4789 274.96 75.7378 276.299 76.4349C278.197 77.4232 278.955 78.839 281.363 82.1556C282.681 83.9698 284.139 85.6789 285.472 87.4815C293.279 98.0347 296.238 98.8632 295.936 102.246C295.6 106 291.547 109.562 288.854 109.151C287.751 108.982 287.323 108.216 285.85 106.665C281.528 102.117 279.741 102.957 276.664 99.4733C273.072 95.4061 273.542 92.0338 271.668 91.9035C269.93 91.7827 269.192 94.6596 265.482 98.4814C263.784 100.23 262.575 101.032 258.892 103.585C244.549 113.525 244.32 114.223 241.426 115.016C240.159 115.363 231.171 117.824 227.969 113.907C222.958 107.777 234.796 89.3005 240.597 89.782Z" fill="#2F2E41"/>
<path d="M300.088 113.434C300.898 113.071 301.845 112.646 302.149 111.669C302.355 111.009 302.236 110.194 301.81 109.631C301.319 108.981 300.592 108.896 300.621 108.781C300.666 108.606 302.386 108.674 304.274 109.341C304.631 109.467 306.245 110.056 308.299 111.658C309.944 112.941 309.723 113.198 310.754 113.938C313.922 116.209 316.892 114.419 318.606 116.549C319.267 117.371 319.549 118.538 319.271 119.482C318.712 121.377 315.994 122.029 314.508 122.366C310.93 123.177 308.222 122.515 305.394 122.039C295.778 120.42 290.375 121.894 289.651 119.669C289.514 119.248 289.737 119.283 290.478 116.192C291.21 113.141 291.186 112.304 291.809 112.059C292.748 111.692 293.378 113.364 295.741 113.937C297.835 114.444 299.564 113.669 300.088 113.434Z" fill="#2F2E41"/>
<path d="M283.884 147.714L281.103 132.225L273.072 133.937L273.792 147.468L280.001 152.8L283.884 147.714Z" fill="#A0616A"/>
<path d="M243.738 94.9883C244.241 95.3937 245.704 96.8803 247.926 97.088C249.443 97.2297 250.622 96.7111 251.009 96.5538C255.801 94.602 268.682 95.2249 277.09 100.425C278.994 101.603 280.067 102.644 280.782 103.971C281.797 105.854 281.629 107.45 281.757 111.546C281.828 113.786 282.073 116.018 282.163 118.258C282.69 131.369 284.674 133.714 282.521 136.344C280.134 139.262 274.778 139.936 272.781 138.085C271.962 137.326 272.04 136.453 271.692 134.343C270.673 128.155 268.721 127.848 268.134 123.239C267.448 117.859 269.733 115.332 268.255 114.173C266.885 113.098 264.657 115.065 259.439 116.146C257.051 116.64 255.6 116.626 251.117 116.672C233.662 116.851 233.08 117.301 230.239 116.333C228.996 115.91 220.175 112.904 219.728 107.867C219.028 99.9835 239.208 91.3355 243.738 94.9883Z" fill="#2F2E41"/>
<path d="M279.669 147.931C280.543 148.084 281.565 148.264 282.366 147.627C282.908 147.196 283.268 146.455 283.232 145.75C283.19 144.937 282.636 144.458 282.725 144.38C282.861 144.26 284.246 145.281 285.433 146.893C285.657 147.197 286.662 148.59 287.461 151.067C288.101 153.052 287.773 153.14 288.211 154.331C289.555 157.987 293.019 158.172 293.24 160.896C293.325 161.947 292.903 163.071 292.142 163.696C290.614 164.95 287.998 163.965 286.58 163.41C283.163 162.074 281.295 160.008 279.222 158.027C272.175 151.293 266.875 149.482 267.528 147.235C267.652 146.81 267.815 146.964 270.166 144.823C272.487 142.709 272.938 142.002 273.591 142.149C274.574 142.371 274.155 144.109 275.789 145.908C277.237 147.503 279.103 147.831 279.669 147.931Z" fill="#2F2E41"/>
<path d="M221.2 41.1944C221.617 39.7074 221.094 39.1655 221.627 38.4981C221.627 38.498 221.841 38.2295 223.758 37.5047C223.192 34.2273 223.615 33.6731 223.615 33.6731C224.103 33.0344 225.081 32.8799 225.746 32.9635C227.154 33.1402 227.403 34.4111 228.303 34.3826C229.547 34.3432 231.04 31.8556 230.576 29.6995C230.199 27.9408 228.57 26.6347 228.161 26.8613C227.757 27.086 226.299 26.0951 225.746 26.2936C225.369 26.4292 223.592 26.2488 223.189 26.4356C222.749 26.6395 221.489 27.909 221.369 27.749C220.532 26.6375 220.55 26.2494 220.064 26.0098C219.203 25.5853 218.268 26.3699 216.655 27.1451C213.335 28.7401 212.363 27.7887 210.83 29.1319C210.056 29.8104 209.64 31.1072 208.841 33.6731C207.724 37.2614 207.165 39.0556 207.705 40.7686C208.255 42.5157 209.066 42.1354 210.262 44.6003C211.593 47.344 211.135 48.9388 212.393 49.5672C213.365 50.0528 214.928 49.7437 215.518 48.8576C216.528 47.3405 213.917 45.2882 214.808 42.8973C215.354 41.4297 217.041 40.3169 218.075 40.6267C219.245 40.9771 219.331 43.0716 220.064 43.0392C220.692 43.0115 221.128 41.4535 221.2 41.1944Z" fill="#2F2E41"/>
<path d="M213.102 51.412C215.29 48.962 224.199 51.4978 225.035 55.3855C225.379 56.9846 224.11 57.6598 224.467 59.501C224.99 62.194 227.952 62.0104 230.15 64.7517C233.27 68.6436 230.055 72.448 233.559 78.9429C234.308 80.3308 234.939 81.5005 236.258 82.6326C239.286 85.2304 242.104 84.3395 243.645 86.748C244.798 88.5492 244.325 90.7692 244.214 91.2892C243.759 93.4216 242.525 93.9412 241.656 95.6885C240.211 98.5956 241.848 100.73 241.941 104.203C242.057 108.549 239.745 114.573 235.122 116.55C229.928 118.77 223.663 115.092 220.632 111.441C218.823 109.262 218.298 107.252 217.506 104.771C213.97 93.683 211.971 94.6858 209.267 85.8966C206.175 75.8488 205.567 64.0774 209.267 60.3524C209.757 59.8587 211.107 58.7175 211.966 56.6627C213.122 53.8977 212.123 52.5087 213.102 51.412Z" fill="#E6E6E6"/>
<path d="M245.423 108.444C247.119 110.596 247.381 113.215 246.01 114.293C244.639 115.371 242.153 114.499 240.456 112.346C239.767 111.495 239.292 110.492 239.07 109.42L232 100.209L235.653 97.4253L242.901 106.409C243.892 106.876 244.757 107.574 245.423 108.444Z" fill="#A0616A"/>
<path d="M219.53 60.7489C219.844 60.6787 222.597 60.1087 224.761 61.7818C227.247 63.7037 227.126 67.1711 227.084 68.3872C226.987 71.1965 225.884 71.6547 225.229 74.4104C224.002 79.566 226.338 84.3573 227.629 87.0043C228.075 87.9206 229.511 90.7243 232.368 93.7437C237.924 99.6162 242.881 102.706 242.881 102.706L237.555 107.435C237.555 107.435 229.072 104.852 223.324 99.6772C217.427 94.3687 208.359 75.5865 206.48 71.0112C206.318 70.6172 208.611 77.0229 212.989 67.6391C213.988 65.4987 215.818 61.5769 219.53 60.7489Z" fill="#E6E6E6"/>
<path d="M292.553 204.734C289.167 205.252 286.691 207.417 287.022 209.569C287.352 211.721 290.364 213.045 293.751 212.526C295.106 212.338 296.397 211.827 297.514 211.038L311.83 208.661L310.874 203.008L296.591 205.027C295.288 204.609 293.903 204.508 292.553 204.734Z" fill="#FFB6B6"/>
<path d="M354.241 187.114L348.691 198.88L320.786 208.264L297.631 209.498L297.051 203.942L322.146 198.701L347.896 186.545L354.241 187.114Z" fill="#E6E6E6"/>
<path d="M302.775 231.791L297.791 244.383L291.342 239.991L295.153 226.813L302.775 231.791Z" fill="#FFB6B6"/>
<path d="M281.961 227.106L268.77 239.698L274.046 245.262L287.531 234.72L281.961 227.106Z" fill="#FFB6B6"/>
<path d="M356.713 186.108L356.566 185.083L353.195 178.494L342.056 181.423L344.108 190.501L356.713 186.108Z" fill="#FFB6B6"/>
<path d="M352.023 230.034L352.366 234.432C352.366 234.432 353.782 252.876 342.349 254.34C330.917 255.804 325.933 257.268 319.191 245.848L308.638 227.106L302.473 234.433L294.273 227.984C294.273 227.984 300.136 205.143 304.827 204.264C305.413 204.154 305.999 204.099 306.576 204.087C310.459 204.007 314.12 205.904 316.443 209.013L329.744 226.813L334.581 224.617L352.023 230.034Z" fill="#2F2E41"/>
<path d="M288.703 243.798L291.341 238.819L298.963 244.09C298.963 244.09 300.722 250.533 298.084 251.411C295.445 252.29 288.117 251.119 288.117 251.119C288.117 251.119 274.632 254.047 274.339 251.411C274.046 248.776 280.495 248.19 280.495 248.19L288.703 243.798Z" fill="#2F2E41"/>
<path d="M317.432 240.284L297.058 227.46L286.652 236.77L279.616 228.57C279.616 228.57 292.515 209.535 296.326 208.657C300.136 207.778 306.293 207.193 306.293 207.193L325.054 224.47L317.432 240.284Z" fill="#2F2E41"/>
<path d="M268.476 238.527L275.219 245.848L274.329 246.607C274.329 246.607 272.58 254.218 268.476 251.643C264.372 249.069 264.079 248.483 264.079 248.483C264.079 248.483 252.353 251.119 251.181 246.433C250.008 241.748 253.233 242.626 253.233 242.626L256.161 244.383L268.476 238.527Z" fill="#2F2E41"/>
<path d="M345.574 184.644C350.755 184.644 354.955 180.448 354.955 175.273C354.955 170.098 350.755 165.902 345.574 165.902C340.393 165.902 336.193 170.098 336.193 175.273C336.193 180.448 340.393 184.644 345.574 184.644Z" fill="#FFB6B6"/>
<path d="M343.375 188.597L356.86 184.498C356.86 184.498 362.137 196.797 361.257 202.361C360.378 207.925 352.366 234.433 352.366 234.433L334.581 224.617C334.581 224.617 334.288 218.76 333.408 216.124C332.529 213.489 329.744 205.436 335.9 198.7C342.056 191.965 343.375 188.597 343.375 188.597Z" fill="#E6E6E6"/>
<path d="M313.696 250.088C311.501 252.715 311.079 255.975 312.752 257.37C314.426 258.765 317.561 257.766 319.756 255.139C320.647 254.101 321.276 252.865 321.592 251.535L330.749 240.289L326.288 236.683L316.918 247.639C315.663 248.186 314.558 249.026 313.696 250.088Z" fill="#FFB6B6"/>
<path d="M353.718 194.505L356.905 207.117L341.305 232.062L325.38 248.051L320.219 243.773L336.279 223.81L348.453 198.089L353.718 194.505Z" fill="#E6E6E6"/>
<path d="M336.926 173.662C339.332 173.657 339.468 173.673 339.857 173.662C342.841 173.584 343.621 172.411 345.134 172.491C347.833 172.634 344.27 186.154 342.789 192.404C341.335 198.534 346.247 204.027 346.6 204.411C351.585 209.826 360.341 210.817 361.843 208.51C363.059 206.644 358.749 203.805 359.791 199.725C360.81 195.737 365.512 196.162 366.827 192.404C368.203 188.469 363.577 186.485 360.671 176.884C359.001 171.37 359.297 170.342 357.739 166.927C353.576 157.798 333.169 161.685 335.46 170.148C335.903 171.785 334.724 173.668 336.926 173.662Z" fill="#2F2E41"/>
<path d="M366.88 62.418H268.291C265.503 62.418 263.234 60.1519 263.234 57.3669V5.05103C263.234 2.26605 265.503 0 268.291 0H366.88C369.668 0 371.936 2.26604 371.936 5.05103V57.3669C371.936 60.1519 369.668 62.418 366.88 62.418Z" fill="white"/>
<path d="M366.88 62.418H268.291C265.503 62.418 263.234 60.1519 263.234 57.3669V5.05103C263.234 2.26605 265.503 0 268.291 0H366.88C369.668 0 371.936 2.26604 371.936 5.05103V57.3669C371.936 60.1519 369.668 62.418 366.88 62.418ZM268.291 0.843486C265.968 0.843486 264.079 2.73103 264.079 5.05103V57.3669C264.079 59.6869 265.968 61.5745 268.291 61.5745H366.88C369.202 61.5745 371.092 59.6869 371.092 57.3669V5.05103C371.092 2.73103 369.202 0.843486 366.88 0.843486H268.291Z" fill="#3F3D56"/>
<path d="M359.27 6.32611C359.97 6.32611 360.537 5.75965 360.537 5.06088C360.537 4.36212 359.97 3.79565 359.27 3.79565C358.571 3.79565 358.004 4.36212 358.004 5.06088C358.004 5.75965 358.571 6.32611 359.27 6.32611Z" fill="#3F3D56"/>
<path d="M362.648 6.32611C363.348 6.32611 363.915 5.75965 363.915 5.06088C363.915 4.36212 363.348 3.79565 362.648 3.79565C361.949 3.79565 361.382 4.36212 361.382 5.06088C361.382 5.75965 361.949 6.32611 362.648 6.32611Z" fill="#3F3D56"/>
<path d="M366.025 6.32611C366.725 6.32611 367.292 5.75965 367.292 5.06088C367.292 4.36212 366.725 3.79565 366.025 3.79565C365.326 3.79565 364.759 4.36212 364.759 5.06088C364.759 5.75965 365.326 6.32611 366.025 6.32611Z" fill="#3F3D56"/>
<path d="M270.412 25.5154C270.062 25.5154 269.778 25.7992 269.778 26.148C269.778 26.3181 269.844 26.4754 269.963 26.5916C270.084 26.7147 270.242 26.7806 270.412 26.7806H365.182C365.531 26.7806 365.815 26.4968 365.815 26.148C365.815 25.9779 365.749 25.8206 365.63 25.7044C365.509 25.5813 365.352 25.5154 365.182 25.5154H270.412Z" fill="#E6E6E6"/>
<path d="M353.361 25.3047V26.9917H270.412C270.18 26.9917 269.968 26.8989 269.816 26.7428C269.66 26.591 269.567 26.3801 269.567 26.1482C269.567 25.6842 269.947 25.3047 270.412 25.3047H353.361Z" fill="#65A8F8"/>
<path d="M364.126 22.1415H355.682C354.751 22.1415 353.993 21.3849 353.993 20.4546C353.993 19.5242 354.751 18.7676 355.682 18.7676H364.126C365.057 18.7676 365.814 19.5242 365.814 20.4546C365.814 21.3849 365.057 22.1415 364.126 22.1415Z" fill="#E6E6E6"/>
<path d="M308.82 13.2848H271.045C270.114 13.2848 269.356 12.5282 269.356 11.5979C269.356 10.6675 270.114 9.91089 271.045 9.91089H308.82C309.752 9.91089 310.509 10.6675 310.509 11.5979C310.509 12.5282 309.752 13.2848 308.82 13.2848Z" fill="#E6E6E6"/>
<path d="M270.412 44.4939C270.062 44.4939 269.778 44.7777 269.778 45.1265C269.778 45.2966 269.844 45.4539 269.963 45.5701C270.084 45.6932 270.242 45.7591 270.412 45.7591H365.182C365.531 45.7591 365.815 45.4754 365.815 45.1265C365.815 44.9564 365.749 44.7991 365.63 44.6829C365.509 44.5598 365.352 44.4939 365.182 44.4939H270.412Z" fill="#E6E6E6"/>
<path d="M320.852 44.283V45.9699H270.412C270.18 45.9699 269.968 45.8771 269.816 45.7211C269.66 45.5693 269.567 45.3584 269.567 45.1264C269.567 44.6625 269.947 44.283 270.412 44.283H320.852Z" fill="#65A8F8"/>
<path d="M364.126 41.12H355.682C354.751 41.12 353.993 40.3635 353.993 39.4331C353.993 38.5027 354.751 37.7461 355.682 37.7461H364.126C365.057 37.7461 365.814 38.5027 365.814 39.4331C365.814 40.3635 365.057 41.12 364.126 41.12Z" fill="#E6E6E6"/>
</g>
<defs>
<clipPath id="clip0_440_1431">
<rect width="255" height="258" fill="white" transform="translate(159.41)"/>
</clipPath>
</defs>
</svg>
