<svg width="591" height="344" viewBox="0 0 591 344" fill="none" xmlns="http://www.w3.org/2000/svg">
<g clip-path="url(#clip0_436_1499)">
<path d="M527.419 21.3895H64.5814C64.4238 21.3895 64.2727 21.3268 64.1613 21.2154C64.0499 21.104 63.9873 20.9528 63.9873 20.7952C63.9873 20.6376 64.0499 20.4864 64.1613 20.375C64.2727 20.2635 64.4238 20.2009 64.5814 20.2009H527.419C527.577 20.2009 527.728 20.2635 527.839 20.375C527.951 20.4864 528.013 20.6376 528.013 20.7952C528.013 20.9528 527.951 21.104 527.839 21.2154C527.728 21.3268 527.577 21.3895 527.419 21.3895Z" fill="#CACACA"/>
<path d="M77.6594 13.0715C81.1895 13.0715 84.0512 10.1453 84.0512 6.53574C84.0512 2.92615 81.1895 0 77.6594 0C74.1293 0 71.2676 2.92615 71.2676 6.53574C71.2676 10.1453 74.1293 13.0715 77.6594 13.0715Z" fill="#3F3D56"/>
<path d="M99.7394 13.0715C103.27 13.0715 106.131 10.1453 106.131 6.53574C106.131 2.92615 103.27 0 99.7394 0C96.2094 0 93.3477 2.92615 93.3477 6.53574C93.3477 10.1453 96.2094 13.0715 99.7394 13.0715Z" fill="#3F3D56"/>
<path d="M121.82 13.0715C125.35 13.0715 128.211 10.1453 128.211 6.53574C128.211 2.92615 125.35 0 121.82 0C118.289 0 115.428 2.92615 115.428 6.53574C115.428 10.1453 118.289 13.0715 121.82 13.0715Z" fill="#3F3D56"/>
<path d="M514.188 3.99717H498.502C498.187 3.99717 497.884 3.87195 497.662 3.64906C497.439 3.42617 497.313 3.12387 497.313 2.80865C497.313 2.49343 497.439 2.19112 497.662 1.96823C497.884 1.74534 498.187 1.62012 498.502 1.62012H514.188C514.503 1.62012 514.805 1.74534 515.028 1.96823C515.251 2.19112 515.376 2.49343 515.376 2.80865C515.376 3.12387 515.251 3.42617 515.028 3.64906C514.805 3.87195 514.503 3.99717 514.188 3.99717Z" fill="#3F3D56"/>
<path d="M514.188 8.45385H498.502C498.187 8.45385 497.884 8.32862 497.662 8.10573C497.439 7.88283 497.313 7.58053 497.313 7.26531C497.313 6.9501 497.439 6.64779 497.662 6.42489C497.884 6.202 498.187 6.07678 498.502 6.07678H514.188C514.503 6.07678 514.805 6.202 515.028 6.42489C515.251 6.64779 515.376 6.9501 515.376 7.26531C515.376 7.58053 515.251 7.88283 515.028 8.10573C514.805 8.32862 514.503 8.45385 514.188 8.45385Z" fill="#3F3D56"/>
<path d="M514.188 12.91H498.502C498.187 12.91 497.884 12.7848 497.662 12.5619C497.439 12.339 497.313 12.0367 497.313 11.7215C497.313 11.4063 497.439 11.104 497.662 10.8811C497.884 10.6582 498.187 10.533 498.502 10.533H514.188C514.503 10.533 514.805 10.6582 515.028 10.8811C515.251 11.104 515.376 11.4063 515.376 11.7215C515.376 12.0367 515.251 12.339 515.028 12.5619C514.805 12.7848 514.503 12.91 514.188 12.91Z" fill="#3F3D56"/>
<path d="M314.557 115.92C315.94 116.719 317.091 117.865 317.895 119.246C318.699 120.627 319.129 122.193 319.142 123.791C319.155 125.389 318.751 126.962 317.969 128.356C317.187 129.749 316.055 130.914 314.684 131.736C313.314 132.557 311.753 133.006 310.156 133.038C308.559 133.071 306.981 132.685 305.578 131.92C304.176 131.155 302.998 130.037 302.16 128.676C301.322 127.316 300.854 125.76 300.802 124.163L300.798 123.865L300.802 123.568C300.854 121.984 301.315 120.439 302.14 119.086C302.966 117.733 304.128 116.617 305.513 115.846C306.899 115.076 308.46 114.678 310.045 114.691C311.629 114.704 313.184 115.127 314.557 115.92ZM312.905 125.96C312.819 125.876 312.718 125.809 312.606 125.764C312.494 125.719 312.375 125.697 312.254 125.698C312.134 125.699 312.015 125.724 311.904 125.771C311.793 125.818 311.693 125.887 311.609 125.973C311.395 126.191 311.14 126.364 310.859 126.483C310.578 126.601 310.275 126.662 309.97 126.662C309.665 126.662 309.363 126.601 309.082 126.483C308.8 126.364 308.545 126.191 308.332 125.973C308.162 125.799 307.929 125.7 307.686 125.698C307.443 125.696 307.209 125.79 307.035 125.96C306.861 126.13 306.763 126.363 306.76 126.606C306.758 126.849 306.852 127.084 307.022 127.257C307.407 127.65 307.865 127.961 308.372 128.174C308.878 128.387 309.421 128.496 309.97 128.496C310.519 128.496 311.063 128.387 311.569 128.174C312.075 127.961 312.534 127.65 312.918 127.257C313.003 127.171 313.069 127.07 313.114 126.958C313.159 126.846 313.182 126.727 313.18 126.606C313.179 126.486 313.154 126.367 313.107 126.256C313.06 126.145 312.991 126.045 312.905 125.96ZM307.228 121.11L307.112 121.117C306.879 121.143 306.664 121.258 306.513 121.437C306.362 121.617 306.286 121.848 306.299 122.082C306.313 122.316 306.416 122.536 306.587 122.697C306.758 122.858 306.985 122.946 307.219 122.945L307.335 122.939C307.569 122.913 307.783 122.798 307.934 122.618C308.085 122.439 308.162 122.208 308.148 121.974C308.134 121.739 308.031 121.519 307.86 121.359C307.689 121.198 307.463 121.109 307.228 121.11ZM312.731 121.11L312.615 121.117C312.382 121.143 312.168 121.258 312.017 121.437C311.865 121.617 311.789 121.848 311.803 122.082C311.816 122.316 311.919 122.536 312.091 122.697C312.262 122.858 312.488 122.946 312.722 122.945L312.839 122.939C313.072 122.913 313.286 122.798 313.437 122.618C313.588 122.439 313.665 122.208 313.651 121.974C313.637 121.739 313.534 121.519 313.363 121.359C313.192 121.198 312.966 121.109 312.731 121.11Z" fill="#FF7700"/>
<path d="M412.039 297.657L411.882 297.648H404.158C403.924 297.65 403.697 297.565 403.521 297.41C403.345 297.255 403.232 297.042 403.203 296.809L403.195 296.696V287.584C403.196 287.416 403.242 287.251 403.327 287.106C403.412 286.962 403.533 286.841 403.678 286.758C404.089 286.525 404.435 286.195 404.686 285.795C404.938 285.396 405.086 284.941 405.118 284.47L405.126 284.278V283.32C405.128 282.942 405.204 282.567 405.351 282.219C405.498 281.87 405.712 281.554 405.98 281.288C406.249 281.022 406.568 280.811 406.918 280.668C407.268 280.525 407.643 280.453 408.022 280.455C408.757 280.452 409.465 280.729 410.003 281.23C410.54 281.732 410.866 282.42 410.913 283.154L410.917 283.319V287.142H412.849C413.555 287.139 414.238 287.396 414.768 287.863C415.299 288.33 415.639 288.975 415.726 289.676L415.741 289.841L415.744 290.008L415.726 290.195L414.754 295.003C414.391 296.544 413.32 297.657 412.073 297.657L412.039 297.657ZM400.475 297.648C399.991 297.652 399.523 297.472 399.166 297.145C398.809 296.818 398.589 296.367 398.55 295.885L398.543 295.742V289.053C398.546 288.568 398.731 288.102 399.062 287.749C399.394 287.395 399.847 287.179 400.331 287.145L400.475 287.142H401.442C401.677 287.141 401.905 287.226 402.081 287.382C402.257 287.538 402.37 287.753 402.398 287.986L402.407 288.097V296.694C402.406 296.929 402.317 297.156 402.16 297.331C402.003 297.506 401.787 297.617 401.553 297.643L401.442 297.647L400.475 297.648Z" fill="#FF7700"/>
<path d="M375.939 293.708C349.757 293.708 321.305 289.816 293.045 282.333C258.097 273.079 226.054 259.11 200.379 241.937L201.139 240.8C226.692 257.889 258.591 271.794 293.395 281.01C324.846 289.339 356.533 293.198 385.019 292.179L385.068 293.547C382.06 293.655 379.016 293.709 375.939 293.708Z" fill="#090814"/>
<path d="M372.018 115.959C363.515 113.19 354.77 110.612 346.022 108.296C295.691 94.9673 246.214 90.2353 202.939 94.6135L202.802 93.2519C246.238 88.8597 295.883 93.6004 346.373 106.973C355.142 109.296 363.915 111.881 372.442 114.659L372.018 115.959Z" fill="#090814"/>
<path d="M141.382 222.436C120.404 201.779 111.543 180.229 116.432 161.755C122.705 138.049 150.581 121.657 192.908 116.785L193.064 118.145C151.325 122.949 123.878 138.972 117.758 162.106C113 180.084 121.731 201.163 142.344 221.461L141.382 222.436Z" fill="#090814"/>
<path d="M425.891 285.218L425.452 283.922C448.868 276.002 463.514 263.246 467.807 247.029C473.263 226.413 461.409 202.49 434.429 179.667C407.312 156.728 368.208 137.693 324.318 126.072L324.667 124.748C368.746 136.421 408.041 155.554 435.31 178.622C462.716 201.806 474.726 226.224 469.127 247.379C464.714 264.061 449.763 277.145 425.891 285.218Z" fill="#090814"/>
<path d="M193.038 289.057C141.592 266.234 101.948 236.624 81.4111 205.681L82.5512 204.926C102.946 235.656 142.381 265.089 193.592 287.808L193.038 289.057Z" fill="#090814"/>
<path d="M397.397 229.551C400.42 229.551 402.87 227.1 402.87 224.076C402.87 221.053 400.42 218.602 397.397 218.602C394.374 218.602 391.924 221.053 391.924 224.076C391.924 227.1 394.374 229.551 397.397 229.551Z" fill="#E6E6E6"/>
<path d="M295.561 77.708C298.584 77.708 301.034 75.257 301.034 72.2336C301.034 69.2101 298.584 66.7592 295.561 66.7592C292.538 66.7592 290.088 69.2101 290.088 72.2336C290.088 75.257 292.538 77.708 295.561 77.708Z" fill="#E6E6E6"/>
<path d="M180.876 282.222C180.876 283.616 180.922 285.01 181.02 286.391C181.123 288.043 181.301 289.683 181.542 291.311C182.351 296.795 183.898 302.144 186.14 307.213L186.484 307.968L186.658 308.346C186.716 308.472 186.778 308.599 186.836 308.719C186.916 308.885 186.991 309.046 187.068 309.207C187.166 309.407 187.263 309.608 187.366 309.809C187.378 309.831 187.389 309.86 187.406 309.889C187.492 310.063 187.572 310.227 187.664 310.399C187.681 310.437 187.7 310.473 187.722 310.509C187.82 310.704 187.922 310.904 188.026 311.099C188.142 311.306 188.249 311.518 188.364 311.724C188.639 312.235 188.925 312.739 189.218 313.244C189.304 313.393 189.392 313.542 189.482 313.691C189.562 313.829 189.642 313.967 189.728 314.104C189.786 314.196 189.844 314.294 189.902 314.385C189.994 314.541 190.086 314.689 190.183 314.844C190.395 315.182 190.613 315.521 190.826 315.859H190.831C190.929 316.014 191.032 316.169 191.135 316.318V316.324C191.439 316.783 191.754 317.241 192.07 317.694C192.071 317.694 192.073 317.695 192.074 317.696C192.075 317.697 192.075 317.699 192.075 317.7C192.327 318.067 192.591 318.423 192.849 318.778V318.784C193.024 319.008 193.187 319.237 193.36 319.461C193.498 319.644 193.641 319.834 193.784 320.017C193.812 320.057 193.847 320.092 193.876 320.133V320.139C193.916 320.191 193.956 320.237 193.996 320.289C194.604 321.069 195.231 321.831 195.876 322.577L195.98 322.697C196.014 322.737 196.054 322.777 196.089 322.823C196.147 322.886 196.198 322.949 196.255 323.012C196.312 323.076 196.364 323.138 196.421 323.202C199.788 326.996 203.606 330.364 207.79 333.232C208.346 333.616 208.914 333.987 209.481 334.35C209.625 334.442 209.768 334.534 209.911 334.619C209.951 334.648 209.997 334.678 210.037 334.705C210.117 334.751 210.192 334.797 210.269 334.849C210.346 334.901 210.418 334.941 210.499 334.987C210.802 335.176 211.112 335.36 211.421 335.543C211.496 335.589 211.577 335.635 211.654 335.681C211.731 335.727 211.809 335.767 211.886 335.813C211.886 335.818 211.886 335.818 211.892 335.818H211.898V335.824H211.903C212.288 336.048 212.677 336.266 213.073 336.478C213.285 336.594 213.503 336.71 213.721 336.822C214.214 337.091 214.713 337.349 215.212 337.596C215.39 337.682 215.573 337.77 215.751 337.86C215.9 337.928 216.049 338.003 216.198 338.072C216.244 338.094 216.284 338.112 216.324 338.135C216.45 338.193 216.57 338.251 216.697 338.309C216.835 338.373 216.972 338.435 217.104 338.499C217.259 338.567 217.407 338.636 217.562 338.699C218.136 338.957 218.715 339.204 219.294 339.439C221.369 340.29 223.489 341.025 225.646 341.641C225.743 341.669 225.847 341.699 225.95 341.727C226.873 341.985 227.802 342.22 228.737 342.432C230.371 342.81 232.02 343.12 233.685 343.362H233.696L234.293 343.447C234.31 343.447 234.327 343.453 234.351 343.453C234.351 343.459 234.351 343.459 234.357 343.453L235.016 343.539C235.031 343.544 235.046 343.546 235.062 343.545C235.268 343.574 235.48 343.597 235.687 343.619L236.357 343.688L236.873 343.74C236.888 343.745 236.903 343.747 236.919 343.745C237.074 343.757 237.228 343.774 237.384 343.786H237.407L237.808 343.82C239.407 343.946 241.013 344.003 242.641 344.003C244.401 344.003 246.15 343.935 247.875 343.786H247.893L248.999 343.682C249.097 343.671 249.189 343.665 249.286 343.654C249.304 343.654 249.326 343.648 249.344 343.648C249.373 343.642 249.402 343.642 249.436 343.636C249.451 343.637 249.467 343.635 249.482 343.63C249.608 343.619 249.734 343.602 249.866 343.59L250.295 343.539C250.439 343.521 250.582 343.499 250.725 343.481C250.759 343.475 250.789 343.475 250.823 343.469C250.926 343.457 251.029 343.441 251.132 343.423L251.282 343.406C251.385 343.388 251.482 343.377 251.585 343.36H251.591C254.737 342.907 257.842 342.208 260.879 341.269C261.039 341.217 261.2 341.171 261.36 341.119C261.366 341.119 261.372 341.113 261.377 341.113C261.423 341.096 261.475 341.085 261.521 341.068C261.951 340.93 262.375 340.786 262.799 340.638C263.383 340.442 263.96 340.231 264.541 340.013C264.696 339.949 264.85 339.892 265.005 339.829C265.321 339.709 265.63 339.583 265.94 339.456C266.467 339.244 266.994 339.02 267.517 338.791C268.004 338.573 268.485 338.355 268.968 338.126C268.98 338.12 268.997 338.12 269.009 338.108C269.118 338.057 269.226 338.005 269.33 337.953H269.336C271.976 336.686 274.522 335.231 276.955 333.601C277.735 333.079 278.503 332.54 279.259 331.983C279.867 331.53 280.463 331.071 281.06 330.601C284.001 328.261 286.724 325.658 289.195 322.825V322.82C289.373 322.624 289.539 322.424 289.711 322.223C289.739 322.195 289.762 322.165 289.785 322.143C289.894 322.011 289.997 321.885 290.106 321.759V321.753C290.25 321.587 290.393 321.415 290.53 321.242C290.564 321.202 290.593 321.168 290.622 321.133V321.127C290.738 320.99 290.845 320.852 290.96 320.709C291.018 320.64 291.069 320.571 291.126 320.502V320.497C291.464 320.072 291.791 319.648 292.118 319.212C292.204 319.096 292.292 318.98 292.382 318.857C292.795 318.3 293.195 317.733 293.585 317.165V317.159C293.735 316.947 293.876 316.729 294.027 316.517L294.457 315.863C294.6 315.634 294.747 315.41 294.892 315.181L294.91 315.146C295.053 314.929 295.197 314.699 295.334 314.476C295.443 314.292 295.551 314.114 295.661 313.936C295.729 313.816 295.804 313.695 295.872 313.569C295.899 313.531 295.924 313.49 295.947 313.449L296.428 312.606C296.618 312.279 296.801 311.947 296.985 311.614C297.053 311.476 297.128 311.339 297.202 311.201C297.231 311.155 297.254 311.109 297.277 311.063C297.363 310.903 297.451 310.736 297.529 310.57C297.607 310.404 297.703 310.243 297.787 310.077C297.87 309.911 297.953 309.75 298.033 309.584C298.096 309.458 298.153 309.332 298.216 309.206C298.221 309.195 298.227 309.186 298.234 309.177C298.262 309.114 298.292 309.057 298.314 308.999C298.321 308.991 298.327 308.981 298.331 308.971C298.395 308.845 298.452 308.713 298.515 308.587C298.595 308.421 298.67 308.249 298.747 308.082C298.799 307.966 298.856 307.85 298.908 307.727C298.982 307.56 299.063 307.394 299.131 307.222C299.211 307.047 299.286 306.878 299.361 306.699C299.382 306.656 299.402 306.612 299.419 306.567C299.459 306.487 299.487 306.407 299.522 306.326C299.614 306.114 299.705 305.896 299.791 305.684C299.895 305.442 299.992 305.196 300.082 304.955C300.174 304.731 300.26 304.502 300.345 304.272L300.38 304.192C301.715 300.673 302.729 297.04 303.407 293.337V293.331C303.789 291.217 304.063 289.084 304.227 286.941C304.232 286.821 304.244 286.709 304.249 286.593C304.353 285.14 304.399 283.688 304.399 282.223C304.399 281.575 304.387 280.933 304.37 280.29C303.97 266.858 299.181 253.927 290.737 243.475C290.553 243.245 290.37 243.016 290.181 242.786C289.991 242.557 289.797 242.333 289.607 242.109C283.323 234.748 275.396 228.966 266.468 225.23C257.539 221.495 247.858 219.91 238.205 220.603C228.551 221.297 219.196 224.25 210.893 229.224C202.59 234.197 195.571 241.053 190.403 249.238C190.122 249.685 189.841 250.138 189.572 250.591C189.302 251.044 189.033 251.508 188.769 251.973C183.578 261.208 180.859 271.627 180.876 282.222Z" fill="#F2F2F2"/>
<path d="M218.337 248.325C218.292 248.317 218.247 248.31 218.202 248.302C218.392 248.184 218.57 248.05 218.736 247.9L218.337 248.325Z" fill="white"/>
<path d="M235.494 301.798H248.714L249.537 316.98L233.903 315.765L235.494 301.798Z" fill="#FFB9B9"/>
<path d="M209.97 334.788C210.563 335.112 211.163 335.423 211.763 335.717C211.977 335.821 212.198 335.924 212.411 336.035C212.591 336.118 212.77 336.209 212.949 336.29C213.007 336.318 213.052 336.338 213.101 336.366C213.252 336.435 213.397 336.505 213.549 336.573C213.714 336.649 213.88 336.725 214.039 336.801C214.225 336.883 214.404 336.966 214.59 337.042C215.28 337.353 215.976 337.65 216.673 337.932C219.17 338.956 221.722 339.841 224.317 340.582C224.433 340.616 224.558 340.651 224.682 340.685C225.793 340.995 226.91 341.278 228.035 341.534C230.001 341.989 231.985 342.362 233.988 342.652H234.002L234.719 342.755C234.74 342.755 234.76 342.762 234.788 342.762C234.788 342.769 234.788 342.769 234.795 342.762L235.589 342.865C235.607 342.871 235.627 342.873 235.647 342.872C235.895 342.907 236.15 342.935 236.399 342.962L237.206 343.045L237.827 343.107C237.845 343.113 237.863 343.116 237.882 343.114C238.068 343.128 238.254 343.148 238.441 343.162H238.469L238.951 343.204C240.876 343.355 242.807 343.424 244.766 343.424C246.884 343.424 248.988 343.341 251.064 343.162H251.085L252.416 343.038C252.532 343.024 252.644 343.017 252.761 343.004C252.782 343.004 252.809 342.997 252.83 342.997C252.864 342.99 252.899 342.99 252.94 342.983C252.959 342.984 252.978 342.981 252.996 342.976C253.147 342.962 253.299 342.942 253.46 342.928L253.978 342.865C254.152 342.845 254.323 342.817 254.495 342.796C254.536 342.789 254.571 342.789 254.611 342.782C254.735 342.768 254.86 342.748 254.983 342.724L255.163 342.703C255.287 342.682 255.405 342.669 255.529 342.645H255.536C259.321 342.1 263.057 341.258 266.711 340.127C266.904 340.065 267.097 340.011 267.291 339.948C266.401 335.793 264.567 331.898 261.932 328.565C259.297 325.232 255.931 322.55 252.095 320.725C253.044 319.821 253.7 318.652 253.978 317.371C254.157 316.546 254.171 315.693 254.02 314.861C253.869 314.03 253.554 313.237 253.095 312.528C252.2 311.153 250.796 310.19 249.191 309.85L238.97 307.711C237.324 307.391 235.618 307.732 234.223 308.663C232.828 309.593 231.857 311.036 231.52 312.679C231.415 313.183 231.369 313.697 231.382 314.211C221.531 320.774 214.446 327.571 209.97 334.788Z" fill="#FF7700"/>
<path d="M238.628 306.465C249.567 306.465 258.435 297.595 258.435 286.653C258.435 275.71 249.567 266.84 238.628 266.84C227.688 266.84 218.82 275.71 218.82 286.653C218.82 297.595 227.688 306.465 238.628 306.465Z" fill="#FFB9B9"/>
<path d="M226.282 303.733C224.169 302.29 222.013 299.517 220.573 297.438C218.665 294.706 217.352 291.603 216.719 288.331C216.086 285.058 216.148 281.69 216.9 278.443C217.14 277.144 217.73 275.936 218.605 274.949C219.538 274.025 221.062 273.587 222.201 274.24C221.89 273.408 221.753 272.521 221.799 271.634C221.844 270.746 222.071 269.878 222.465 269.081C223.265 267.492 224.425 266.11 225.852 265.046C228.581 262.944 231.828 261.621 235.248 261.216C238.669 260.811 242.135 261.339 245.279 262.746C246.516 263.319 244.484 258.891 245.779 259.319C247.066 259.817 248.496 259.792 249.764 259.248C250.984 258.635 255.019 262.279 254.552 260.998C255.476 261.417 256.279 262.064 256.886 262.878C257.493 263.692 257.884 264.646 258.024 265.652C258.163 266.657 258.045 267.682 257.682 268.63C257.318 269.578 256.721 270.419 255.945 271.074C254.923 271.937 253.647 272.434 252.528 273.165C250.567 274.545 249.179 276.596 248.626 278.93C248.073 281.263 248.393 283.719 249.526 285.832C248.349 285.075 247.057 284.514 245.7 284.169C245.019 284.003 244.309 284.002 243.628 284.166C242.947 284.33 242.314 284.654 241.784 285.111C241.34 285.619 241.006 286.212 240.8 286.854C240.594 287.495 240.521 288.172 240.586 288.843C240.63 290.187 240.95 291.512 240.986 292.857C241.092 296.802 243.204 304.304 240.146 306.402C237.73 308.059 229.165 305.704 226.282 303.733Z" fill="#2F2E41"/>
<path d="M524.607 146.887C524.607 148.281 524.561 149.676 524.464 151.056C524.36 152.708 524.183 154.348 523.941 155.977C523.132 161.46 521.585 166.809 519.343 171.878L518.999 172.633L518.825 173.012C518.767 173.138 518.705 173.264 518.648 173.385C518.567 173.551 518.493 173.712 518.415 173.873C518.318 174.074 518.22 174.274 518.117 174.475C518.106 174.498 518.095 174.527 518.077 174.555C517.991 174.729 517.911 174.893 517.819 175.066C517.802 175.103 517.783 175.14 517.761 175.175C517.664 175.37 517.56 175.571 517.458 175.766C517.341 175.972 517.234 176.185 517.12 176.391C516.844 176.901 516.558 177.406 516.265 177.91C516.179 178.06 516.091 178.208 516.002 178.358C515.921 178.495 515.841 178.633 515.755 178.771C515.697 178.862 515.639 178.96 515.581 179.052C515.489 179.207 515.398 179.356 515.3 179.511C515.088 179.849 514.87 180.188 514.658 180.526H514.652C514.554 180.681 514.451 180.835 514.348 180.985V180.99C514.045 181.449 513.729 181.908 513.414 182.361C513.412 182.361 513.411 182.361 513.41 182.362C513.409 182.363 513.408 182.365 513.408 182.367C513.156 182.734 512.892 183.089 512.634 183.445V183.45C512.46 183.674 512.296 183.904 512.123 184.127C511.986 184.311 511.842 184.5 511.699 184.684C511.67 184.724 511.636 184.758 511.607 184.8V184.806C511.567 184.857 511.527 184.903 511.487 184.955C510.879 185.735 510.252 186.498 509.606 187.243L509.503 187.363C509.469 187.404 509.429 187.444 509.394 187.489C509.336 187.553 509.285 187.616 509.228 187.679C509.171 187.742 509.119 187.805 509.062 187.868C505.694 191.662 501.877 195.03 497.693 197.898C497.137 198.282 496.569 198.653 496.002 199.016C495.858 199.108 495.715 199.2 495.572 199.286C495.532 199.314 495.486 199.344 495.446 199.372C495.366 199.418 495.291 199.464 495.214 199.515C495.136 199.567 495.064 199.607 494.984 199.653C494.68 199.842 494.371 200.026 494.061 200.21C493.987 200.255 493.906 200.301 493.829 200.347C493.752 200.393 493.674 200.433 493.597 200.479C493.597 200.485 493.597 200.485 493.591 200.485H493.585V200.491H493.579C493.195 200.714 492.805 200.932 492.41 201.144C492.198 201.26 491.98 201.377 491.761 201.488C491.268 201.758 490.77 202.016 490.271 202.262C490.093 202.348 489.909 202.437 489.732 202.526C489.583 202.595 489.434 202.67 489.285 202.738C489.239 202.761 489.199 202.778 489.159 202.802C489.033 202.86 488.912 202.918 488.786 202.976C488.648 203.039 488.51 203.102 488.379 203.165C488.224 203.234 488.075 203.303 487.92 203.366C487.347 203.624 486.768 203.87 486.189 204.105C484.114 204.956 481.993 205.691 479.837 206.307C479.739 206.336 479.636 206.365 479.533 206.393C478.61 206.651 477.681 206.886 476.746 207.098C475.112 207.477 473.462 207.787 471.798 208.028H471.786L471.19 208.114C471.173 208.114 471.156 208.12 471.132 208.12C471.132 208.125 471.132 208.125 471.126 208.12L470.467 208.206C470.452 208.21 470.437 208.212 470.421 208.211C470.215 208.24 470.002 208.263 469.796 208.286L469.125 208.354L468.61 208.406C468.595 208.411 468.579 208.413 468.564 208.412C468.409 208.423 468.254 208.44 468.099 208.452H468.077L467.675 208.486C466.076 208.612 464.471 208.67 462.842 208.67C461.082 208.67 459.333 208.601 457.608 208.452H457.59L456.484 208.349C456.387 208.337 456.295 208.331 456.197 208.32C456.18 208.32 456.157 208.314 456.139 208.314C456.111 208.308 456.081 208.308 456.047 208.303C456.032 208.303 456.016 208.301 456.002 208.297C455.875 208.285 455.749 208.268 455.618 208.257L455.188 208.205C455.044 208.188 454.901 208.165 454.758 208.147C454.724 208.141 454.695 208.141 454.661 208.135C454.557 208.124 454.454 208.107 454.351 208.089L454.202 208.072C454.098 208.055 454.001 208.044 453.898 208.026H453.892C450.746 207.574 447.641 206.874 444.605 205.935C444.444 205.883 444.284 205.837 444.123 205.786C444.118 205.786 444.112 205.78 444.106 205.78C444.06 205.762 444.008 205.751 443.962 205.734C443.533 205.596 443.108 205.453 442.685 205.304C442.1 205.109 441.523 204.897 440.943 204.679C440.787 204.616 440.633 204.559 440.478 204.495C440.163 204.375 439.853 204.249 439.543 204.122C439.016 203.91 438.489 203.687 437.967 203.457C437.48 203.24 436.998 203.022 436.515 202.792C436.503 202.786 436.486 202.786 436.475 202.775C436.366 202.723 436.257 202.671 436.154 202.62H436.148C433.508 201.352 430.961 199.898 428.528 198.267C427.749 197.745 426.98 197.206 426.223 196.65C425.616 196.197 425.019 195.738 424.423 195.268C421.481 192.927 418.759 190.325 416.288 187.492V187.486C416.11 187.291 415.944 187.09 415.772 186.889C415.744 186.861 415.72 186.831 415.698 186.809C415.589 186.677 415.486 186.551 415.377 186.425V186.419C415.233 186.253 415.09 186.081 414.952 185.909C414.918 185.869 414.889 185.834 414.86 185.8V185.794C414.744 185.656 414.637 185.518 414.522 185.375C414.464 185.306 414.413 185.237 414.356 185.169V185.163C414.018 184.739 413.691 184.314 413.364 183.879C413.278 183.762 413.19 183.646 413.101 183.523C412.688 182.967 412.288 182.399 411.897 181.831V181.826C411.747 181.614 411.606 181.396 411.455 181.183L411.026 180.53C410.882 180.3 410.735 180.077 410.59 179.847L410.573 179.813C410.429 179.595 410.286 179.366 410.148 179.142C410.039 178.958 409.93 178.781 409.821 178.603C409.753 178.483 409.678 178.362 409.609 178.236C409.582 178.197 409.557 178.157 409.535 178.115L409.053 177.273C408.864 176.946 408.68 176.613 408.497 176.28C408.428 176.143 408.353 176.005 408.279 175.867C408.251 175.821 408.227 175.776 408.205 175.73C408.119 175.569 408.031 175.403 407.953 175.236C407.875 175.07 407.779 174.909 407.695 174.743C407.611 174.577 407.529 174.416 407.449 174.25C407.385 174.124 407.328 173.998 407.265 173.871C407.261 173.861 407.255 173.852 407.248 173.843C407.219 173.78 407.19 173.723 407.168 173.665C407.161 173.656 407.155 173.647 407.15 173.637C407.087 173.511 407.03 173.379 406.967 173.253C406.886 173.087 406.812 172.915 406.734 172.748C406.683 172.632 406.625 172.516 406.574 172.392C406.5 172.226 406.419 172.06 406.35 171.888C406.27 171.713 406.195 171.544 406.121 171.365C406.099 171.322 406.08 171.278 406.063 171.233C406.023 171.153 405.994 171.073 405.96 170.992C405.868 170.78 405.776 170.562 405.69 170.349C405.587 170.108 405.49 169.862 405.4 169.621C405.308 169.397 405.222 169.168 405.136 168.938L405.102 168.858C403.766 165.339 402.753 161.706 402.075 158.003V157.997C401.692 155.882 401.419 153.75 401.255 151.607C401.249 151.487 401.237 151.375 401.232 151.259C401.129 149.806 401.083 148.354 401.083 146.889C401.083 146.241 401.095 145.599 401.111 144.956C401.512 131.524 406.3 118.593 414.745 108.141C414.928 107.912 415.112 107.682 415.301 107.453C415.49 107.223 415.685 107 415.874 106.776C422.159 99.414 430.085 93.6322 439.014 89.8966C447.942 86.161 457.624 84.5762 467.277 85.2698C476.93 85.9634 486.286 88.9162 494.589 93.8899C502.892 98.8637 509.911 105.719 515.079 113.904C515.36 114.351 515.641 114.805 515.91 115.258C516.18 115.711 516.449 116.175 516.713 116.64C521.906 125.874 524.627 136.294 524.611 146.89L524.607 146.887Z" fill="#F2F2F2"/>
<path d="M487.146 112.99C487.192 112.982 487.237 112.975 487.282 112.967C487.092 112.85 486.913 112.715 486.748 112.565L487.146 112.99Z" fill="white"/>
<path d="M452.54 172.036L468.2 170.315L471.927 184.037L457.096 187.519L452.54 172.036Z" fill="#ED9DA0"/>
<path d="M456.449 176.214C466.694 176.214 475 167.721 475 157.245C475 146.768 466.694 138.275 456.449 138.275C446.203 138.275 437.897 146.768 437.897 157.245C437.897 167.721 446.203 176.214 456.449 176.214Z" fill="#ED9DA0"/>
<path d="M496.037 200.84C495.5 201.134 494.956 201.416 494.411 201.684C494.218 201.777 494.017 201.872 493.824 201.971C493.661 202.046 493.499 202.128 493.337 202.204C493.287 202.229 493.243 202.247 493.199 202.272C493.061 202.335 492.93 202.397 492.792 202.46C492.643 202.529 492.493 202.598 492.349 202.666C492.18 202.741 492.018 202.816 491.849 202.885C491.224 203.166 490.593 203.435 489.962 203.691C487.7 204.618 485.389 205.419 483.039 206.091C482.932 206.122 482.82 206.153 482.708 206.184C481.701 206.465 480.689 206.722 479.671 206.953C477.89 207.365 476.092 207.703 474.279 207.965H474.266L473.617 208.059C473.598 208.059 473.579 208.065 473.554 208.065C473.554 208.072 473.554 208.072 473.547 208.065L472.829 208.159C472.813 208.164 472.796 208.166 472.779 208.165C472.554 208.196 472.323 208.223 472.098 208.246L471.367 208.321L470.804 208.379C470.788 208.385 470.771 208.387 470.755 208.386C470.586 208.398 470.417 208.417 470.249 208.429H470.224L469.786 208.467C468.044 208.605 466.294 208.667 464.519 208.667C462.602 208.667 460.695 208.592 458.814 208.429H458.799L457.593 208.317C457.487 208.304 457.387 208.298 457.281 208.285C457.262 208.285 457.237 208.279 457.218 208.279C457.187 208.273 457.156 208.273 457.118 208.266C457.102 208.267 457.085 208.265 457.068 208.26C456.931 208.248 456.794 208.228 456.65 208.216L456.181 208.158C456.025 208.14 455.869 208.115 455.712 208.095C455.675 208.089 455.644 208.089 455.606 208.083C455.493 208.07 455.381 208.052 455.269 208.033L455.106 208.015C454.993 207.996 454.887 207.983 454.775 207.965H454.769C451.34 207.471 447.956 206.708 444.647 205.683C444.472 205.625 444.298 205.577 444.124 205.521C444.931 201.757 446.591 198.23 448.978 195.211C451.365 192.192 454.413 189.762 457.888 188.109C457.028 187.29 456.434 186.232 456.182 185.071C456.02 184.323 456.007 183.551 456.144 182.798C456.282 182.045 456.566 181.326 456.982 180.684C457.793 179.439 459.065 178.566 460.518 178.259L469.775 176.322C471.266 176.031 472.811 176.34 474.075 177.183C475.339 178.026 476.219 179.333 476.524 180.821C476.618 181.277 476.66 181.743 476.649 182.209C485.565 188.147 491.982 194.303 496.037 200.84Z" fill="#FF7700"/>
<path d="M506.09 149.017C502.936 145.339 501.437 140.459 498.916 136.282C496.395 132.106 492.009 128.367 487.374 129.339C484.18 130.01 481.711 132.829 480.463 135.973C479.216 139.116 478.98 142.583 478.761 145.979C478.838 139 474.241 132.233 467.908 130.004C461.575 127.776 453.997 130.262 450.021 135.872C448.284 134.262 446.018 133.345 443.651 133.295C441.283 133.246 438.98 134.066 437.178 135.602C433.618 138.784 432.831 144.838 435.448 148.899C438.066 152.959 443.735 154.47 447.895 152.219L449.365 153.572C448.537 156.468 450.143 159.888 452.841 160.979C455.029 161.863 458.118 161.716 458.939 164.013C459.511 165.618 458.442 167.331 457.304 168.564C456.166 169.797 454.816 171.071 454.679 172.778C454.473 175.353 457.133 177.156 459.552 177.7C465.383 179.009 471.853 176.308 475.214 171.161C475.279 171.062 475.349 170.962 475.425 170.863C477.311 168.451 478.685 165.68 479.464 162.718C480.243 159.757 480.41 156.668 479.955 153.64C479.766 152.451 479.955 151.566 480.777 151.284C484.32 150.064 494.25 152.62 497.258 154.932C500.265 157.244 502.67 160.299 505.562 162.759C508.455 165.218 512.146 167.115 515.823 166.445C518.766 165.909 521.271 163.773 522.955 161.192C524.64 158.611 525.61 155.608 526.478 152.62C519.964 156.382 511.054 154.807 506.09 149.017Z" fill="#2F2E41"/>
<path d="M124.693 108.466C124.693 109.86 124.738 111.254 124.836 112.635C124.939 114.286 125.117 115.926 125.359 117.555C126.168 123.039 127.715 128.388 129.957 133.457L130.3 134.212L130.475 134.591C130.533 134.717 130.595 134.843 130.652 134.964C130.732 135.13 130.807 135.291 130.885 135.451C130.982 135.652 131.08 135.852 131.183 136.053C131.194 136.076 131.205 136.105 131.223 136.133C131.309 136.308 131.389 136.472 131.48 136.644C131.498 136.682 131.517 136.718 131.539 136.753C131.636 136.949 131.739 137.149 131.842 137.344C131.958 137.55 132.066 137.763 132.18 137.969C132.456 138.48 132.742 138.984 133.035 139.489C133.121 139.638 133.209 139.787 133.298 139.936C133.378 140.074 133.458 140.211 133.544 140.349C133.603 140.441 133.661 140.538 133.719 140.63C133.81 140.785 133.902 140.934 134 141.089C134.212 141.427 134.43 141.766 134.642 142.104H134.648C134.745 142.259 134.848 142.414 134.952 142.563V142.569C135.255 143.028 135.571 143.486 135.886 143.939C135.887 143.939 135.889 143.939 135.89 143.939C135.891 143.94 135.891 143.942 135.89 143.943C136.142 144.31 136.406 144.666 136.664 145.021V145.027C136.838 145.251 137.002 145.48 137.175 145.704C137.312 145.887 137.456 146.077 137.599 146.26C137.627 146.3 137.662 146.335 137.69 146.377V146.382C137.731 146.434 137.771 146.48 137.811 146.532C138.419 147.312 139.045 148.074 139.691 148.82L139.795 148.94C139.829 148.98 139.869 149.02 139.904 149.066C139.962 149.129 140.013 149.192 140.07 149.256C140.127 149.319 140.179 149.382 140.236 149.445C143.603 153.239 147.421 156.607 151.605 159.475C152.161 159.859 152.729 160.23 153.296 160.593C153.439 160.685 153.583 160.777 153.726 160.863C153.766 160.891 153.812 160.921 153.852 160.949C153.932 160.994 154.007 161.04 154.084 161.092C154.161 161.144 154.233 161.184 154.313 161.23C154.617 161.419 154.927 161.603 155.236 161.786C155.311 161.832 155.391 161.878 155.469 161.924C155.546 161.97 155.624 162.01 155.701 162.056C155.701 162.062 155.701 162.062 155.707 162.062H155.712V162.067H155.718C156.102 162.291 156.492 162.509 156.888 162.721C157.1 162.837 157.318 162.953 157.536 163.065C158.029 163.334 158.528 163.592 159.027 163.839C159.205 163.925 159.388 164.013 159.566 164.103C159.715 164.171 159.864 164.246 160.013 164.315C160.059 164.338 160.099 164.355 160.139 164.378C160.265 164.436 160.385 164.494 160.512 164.552C160.649 164.616 160.787 164.679 160.918 164.742C161.073 164.81 161.222 164.88 161.377 164.943C161.95 165.201 162.529 165.448 163.108 165.682C165.183 166.533 167.304 167.268 169.461 167.885C169.558 167.913 169.661 167.943 169.764 167.97C170.687 168.228 171.617 168.463 172.552 168.676C174.186 169.054 175.835 169.364 177.499 169.605H177.511L178.108 169.691C178.125 169.691 178.142 169.697 178.166 169.697C178.166 169.703 178.166 169.703 178.171 169.697L178.831 169.783C178.845 169.787 178.861 169.789 178.876 169.789C179.083 169.817 179.295 169.84 179.501 169.863L180.172 169.932L180.688 169.983C180.703 169.988 180.718 169.99 180.734 169.989C180.889 170.001 181.043 170.018 181.198 170.029H181.221L181.622 170.063C183.222 170.19 184.827 170.247 186.455 170.247C188.216 170.247 189.964 170.179 191.69 170.029H191.707L192.813 169.926C192.911 169.914 193.003 169.908 193.1 169.897C193.118 169.897 193.14 169.892 193.158 169.892C193.187 169.886 193.216 169.886 193.25 169.88C193.266 169.88 193.281 169.879 193.296 169.874C193.422 169.862 193.548 169.846 193.68 169.834L194.11 169.782C194.253 169.765 194.397 169.742 194.539 169.724C194.574 169.718 194.603 169.718 194.637 169.713C194.74 169.701 194.843 169.684 194.947 169.667L195.096 169.649C195.199 169.632 195.296 169.621 195.399 169.603H195.405C198.551 169.151 201.657 168.452 204.693 167.512C204.853 167.46 205.014 167.415 205.174 167.363C205.18 167.363 205.186 167.357 205.192 167.357C205.237 167.34 205.289 167.329 205.335 167.311C205.765 167.174 206.189 167.03 206.613 166.881C207.198 166.686 207.774 166.475 208.355 166.256C208.51 166.193 208.665 166.136 208.82 166.073C209.135 165.952 209.444 165.826 209.754 165.7C210.281 165.488 210.809 165.264 211.331 165.035C211.818 164.817 212.299 164.599 212.783 164.369C212.794 164.364 212.811 164.364 212.823 164.352C212.932 164.3 213.041 164.249 213.144 164.197H213.15C215.79 162.93 218.336 161.475 220.769 159.844C221.549 159.323 222.317 158.784 223.074 158.227C223.681 157.774 224.278 157.315 224.874 156.845C227.815 154.505 230.538 151.902 233.009 149.069V149.063C233.187 148.868 233.353 148.668 233.525 148.467C233.553 148.438 233.577 148.409 233.599 148.386C233.708 148.255 233.811 148.129 233.92 148.003V147.997C234.064 147.831 234.207 147.659 234.344 147.486C234.379 147.446 234.408 147.412 234.436 147.377V147.371C234.552 147.233 234.66 147.096 234.774 146.952C234.832 146.884 234.883 146.815 234.94 146.746V146.74C235.278 146.316 235.605 145.892 235.932 145.456C236.018 145.34 236.106 145.223 236.196 145.1C236.609 144.544 237.009 143.976 237.4 143.409V143.403C237.549 143.191 237.69 142.973 237.841 142.76L238.271 142.107C238.414 141.877 238.561 141.654 238.706 141.424L238.724 141.39C238.867 141.172 239.011 140.943 239.148 140.719C239.257 140.536 239.366 140.358 239.475 140.18C239.543 140.06 239.618 139.939 239.687 139.813C239.714 139.774 239.738 139.734 239.761 139.693L240.242 138.85C240.432 138.523 240.615 138.19 240.799 137.858C240.867 137.72 240.942 137.582 241.017 137.445C241.045 137.399 241.068 137.353 241.091 137.307C241.177 137.147 241.265 136.98 241.343 136.814C241.421 136.648 241.517 136.487 241.601 136.321C241.685 136.154 241.767 135.994 241.847 135.827C241.91 135.701 241.967 135.575 242.031 135.449C242.035 135.438 242.041 135.429 242.048 135.42C242.077 135.357 242.106 135.3 242.128 135.242C242.135 135.234 242.141 135.224 242.146 135.214C242.209 135.088 242.266 134.956 242.329 134.83C242.409 134.664 242.484 134.492 242.561 134.325C242.613 134.209 242.671 134.093 242.722 133.97C242.796 133.804 242.877 133.637 242.945 133.465C243.025 133.291 243.1 133.121 243.175 132.942C243.196 132.899 243.216 132.855 243.233 132.81C243.273 132.73 243.301 132.65 243.336 132.569C243.428 132.357 243.52 132.139 243.606 131.927C243.709 131.686 243.807 131.439 243.896 131.198C243.988 130.975 244.074 130.745 244.16 130.516L244.194 130.435C245.53 126.916 246.543 123.283 247.221 119.58V119.574C247.603 117.46 247.877 115.327 248.041 113.184C248.047 113.064 248.058 112.952 248.064 112.836C248.167 111.384 248.213 109.931 248.213 108.466C248.213 107.818 248.202 107.176 248.185 106.534C247.785 93.1013 242.996 80.1701 234.552 69.7182C234.368 69.4888 234.185 69.2593 233.995 69.0299C233.806 68.8004 233.611 68.5768 233.422 68.3531C227.137 60.9912 219.211 55.2095 210.283 51.4739C201.354 47.7383 191.673 46.1534 182.019 46.8471C172.366 47.5407 163.011 50.4934 154.708 55.4672C146.404 60.4409 139.386 67.2966 134.218 75.4814C133.936 75.9287 133.656 76.3818 133.386 76.8349C133.117 77.288 132.848 77.7521 132.584 78.2169C127.391 87.4514 124.67 97.871 124.686 108.466L124.693 108.466Z" fill="#F2F2F2"/>
<path d="M162.154 74.5682C162.109 74.5601 162.063 74.5537 162.019 74.5455C162.208 74.428 162.387 74.2934 162.552 74.1436L162.154 74.5682Z" fill="white"/>
<path d="M183.203 125.013H197.605L196.992 143.672L180.69 142.395L183.203 125.013Z" fill="#9E616A"/>
<path d="M157.542 162.556C158.104 162.866 158.672 163.163 159.241 163.447C159.443 163.546 159.652 163.645 159.855 163.751C160.025 163.83 160.195 163.916 160.365 163.995C160.417 164.021 160.463 164.041 160.508 164.068C160.653 164.134 160.79 164.199 160.933 164.266C161.09 164.338 161.247 164.411 161.398 164.483C161.572 164.562 161.746 164.642 161.92 164.716C162.574 165.013 163.234 165.297 163.895 165.567C166.259 166.546 168.676 167.392 171.135 168.101C171.245 168.134 171.363 168.167 171.483 168.199C172.535 168.497 173.593 168.768 174.659 169.013C176.521 169.448 178.401 169.805 180.298 170.082H180.31L180.99 170.18C181.01 170.18 181.029 170.187 181.056 170.187C181.056 170.193 181.056 170.193 181.062 170.187L181.813 170.286C181.83 170.29 181.848 170.293 181.866 170.292C182.101 170.325 182.343 170.35 182.578 170.378L183.342 170.457L183.93 170.515C183.947 170.521 183.965 170.523 183.983 170.521C184.157 170.535 184.336 170.554 184.512 170.568H184.538L184.995 170.607C186.818 170.753 188.648 170.818 190.504 170.818C192.51 170.818 194.503 170.739 196.469 170.567H196.489L197.75 170.451C197.861 170.438 197.965 170.431 198.077 170.418C198.097 170.418 198.123 170.412 198.143 170.412C198.175 170.405 198.208 170.405 198.247 170.398C198.265 170.399 198.282 170.397 198.299 170.392C198.443 170.378 198.59 170.359 198.737 170.346L199.227 170.288C199.391 170.268 199.554 170.241 199.718 170.222C199.757 170.215 199.79 170.215 199.829 170.208C199.945 170.195 200.061 170.175 200.182 170.155L200.352 170.136C200.468 170.116 200.581 170.103 200.7 170.083H200.707C204.292 169.56 207.83 168.753 211.288 167.67C211.471 167.612 211.654 167.558 211.837 167.495C211.003 163.534 209.271 159.817 206.776 156.629C204.28 153.442 201.087 150.87 197.442 149.111C198.342 148.243 198.963 147.127 199.226 145.904C199.568 144.31 199.268 142.645 198.389 141.272C197.972 140.622 197.43 140.062 196.796 139.623C196.161 139.183 195.446 138.874 194.691 138.712L185.008 136.666C183.442 136.364 181.821 136.694 180.499 137.585C179.176 138.475 178.26 139.853 177.951 141.418C177.852 141.899 177.808 142.391 177.82 142.883C168.493 149.152 161.783 155.654 157.542 162.556Z" fill="#FF7700"/>
<path d="M187.505 135.623C198.927 135.623 208.186 126.362 208.186 114.937C208.186 103.513 198.927 94.2511 187.505 94.2511C176.083 94.2511 166.824 103.513 166.824 114.937C166.824 126.362 176.083 135.623 187.505 135.623Z" fill="#9E616A"/>
<path d="M184.566 134.518C179.389 135.916 173.681 134.057 169.641 130.529C165.601 127.001 163.073 122.004 161.617 116.841C160.55 113.06 160.045 108.863 161.728 105.313C163.411 101.763 167.942 99.3682 171.436 101.161C169.28 98.6485 170.356 94.4927 172.875 92.3439C175.393 90.1952 178.85 89.5783 182.143 89.2414C186.922 88.7522 191.858 88.6976 196.406 90.2463C200.954 91.795 205.086 95.1805 206.511 99.7731C207.965 100.45 209.602 100.626 211.166 100.273C212.73 99.9194 214.133 99.0573 215.155 97.8213C215.419 99.2409 215.207 100.708 214.553 101.995C213.899 103.283 212.839 104.318 211.537 104.942L218.506 102.682C219.704 105.22 217.605 108.359 214.92 109.172C212.234 109.985 209.336 109.097 206.789 107.923C204.242 106.749 201.772 105.265 199.004 104.807C196.236 104.349 192.985 105.239 191.705 107.736C191.034 109.043 190.999 110.575 190.61 111.992C190.221 113.409 189.235 114.878 187.77 114.995C186.845 115.068 185.938 114.575 185.015 114.676C184.449 114.787 183.928 115.062 183.515 115.465C183.103 115.869 182.817 116.384 182.692 116.948C182.463 118.078 182.46 119.243 182.684 120.375L184.454 133.91L184.566 134.518Z" fill="#2F2E41"/>
<path d="M70.1035 185.597C70.915 185.459 71.7472 185.504 72.5388 185.73C73.3303 185.957 74.061 186.358 74.677 186.904L74.7106 186.934L74.742 186.907C75.3296 186.39 76.0207 186.005 76.769 185.777C77.5173 185.549 78.3056 185.483 79.0814 185.584L79.3067 185.617C80.2844 185.785 81.1983 186.215 81.9516 186.861C82.7048 187.507 83.2694 188.345 83.5855 189.286C83.9016 190.226 83.9575 191.235 83.7473 192.205C83.537 193.175 83.0684 194.07 82.3911 194.795L82.2262 194.965L82.182 195.002L75.3489 201.772C75.1912 201.928 74.9823 202.022 74.761 202.035C74.5396 202.049 74.3208 201.982 74.145 201.847L74.059 201.772L67.1916 194.965C66.4637 194.257 65.946 193.361 65.6959 192.376C65.4457 191.392 65.4729 190.357 65.7744 189.387C66.0759 188.418 66.6399 187.55 67.404 186.881C68.1681 186.212 69.1024 185.767 70.1035 185.597Z" fill="#FF7700"/>
<path d="M381.805 126.89C381.103 126.89 380.427 126.622 379.916 126.14C379.406 125.658 379.098 124.998 379.058 124.297L379.051 124.134V115.455L387.715 121.232L387.82 121.29C387.945 121.353 388.084 121.386 388.224 121.386C388.365 121.386 388.503 121.353 388.628 121.29L388.733 121.232L397.397 115.455V124.134C397.398 124.836 397.13 125.512 396.648 126.023C396.166 126.534 395.507 126.841 394.805 126.881L394.643 126.89H381.805ZM379.46 113.521C379.689 113.146 380.005 112.833 380.381 112.606C380.757 112.38 381.182 112.246 381.621 112.218L381.805 112.21H394.642C395.112 112.21 395.575 112.331 395.985 112.56C396.396 112.79 396.74 113.12 396.987 113.521L388.221 119.363L379.46 113.521Z" fill="#FF7700"/>
<path d="M161.828 222.436C162.801 222.436 163.735 222.823 164.423 223.511C165.111 224.199 165.497 225.133 165.497 226.106V233.446C165.497 234.42 165.111 235.353 164.423 236.042C163.735 236.73 162.801 237.117 161.828 237.117H157.495L153.127 239.738C152.995 239.817 152.846 239.862 152.693 239.868C152.539 239.875 152.387 239.843 152.249 239.775C152.111 239.707 151.993 239.606 151.905 239.48C151.816 239.354 151.761 239.209 151.743 239.056L151.738 238.952V237.117H150.821C149.879 237.117 148.974 236.755 148.292 236.106C147.61 235.457 147.203 234.571 147.156 233.631L147.151 233.446V226.106C147.151 225.133 147.538 224.199 148.226 223.511C148.914 222.823 149.847 222.436 150.821 222.436H161.828ZM158.159 230.694H152.655C152.412 230.694 152.179 230.79 152.007 230.962C151.835 231.134 151.738 231.368 151.738 231.611C151.738 231.854 151.835 232.088 152.007 232.26C152.179 232.432 152.412 232.529 152.655 232.529H158.159C158.402 232.529 158.636 232.432 158.808 232.26C158.98 232.088 159.076 231.854 159.076 231.611C159.076 231.368 158.98 231.134 158.808 230.962C158.636 230.79 158.402 230.694 158.159 230.694ZM159.994 227.025H152.655C152.412 227.025 152.179 227.122 152.007 227.294C151.835 227.466 151.738 227.699 151.738 227.943C151.738 228.186 151.835 228.419 152.007 228.592C152.179 228.764 152.412 228.86 152.655 228.86H159.994C160.237 228.86 160.47 228.764 160.642 228.592C160.814 228.419 160.911 228.186 160.911 227.943C160.911 227.699 160.814 227.466 160.642 227.294C160.47 227.122 160.237 227.025 159.994 227.025Z" fill="#FF7700"/>
<path d="M152.624 193.778C155.647 193.778 158.097 191.327 158.097 188.304C158.097 185.28 155.647 182.829 152.624 182.829C149.602 182.829 147.151 185.28 147.151 188.304C147.151 191.327 149.602 193.778 152.624 193.778Z" fill="#E6E6E6"/>
</g>
<defs>
<clipPath id="clip0_436_1499">
<rect width="591" height="344" fill="white"/>
</clipPath>
</defs>
</svg>
