<svg width="250" height="191" viewBox="0 0 250 191" fill="none" xmlns="http://www.w3.org/2000/svg">
<path d="M47.7687 57.0539C91.2852 33.549 137.801 76.7212 189.819 71.9244C253.342 53.6966 256.843 151.072 216.828 179.853C176.814 208.634 154.807 174.096 124.796 161.145C94.7857 148.193 59.273 179.853 22.7591 161.145C-23.9568 137.21 9.75591 77.5861 47.7687 57.0539Z" fill="#FCEAD2"/>
<path d="M63.1903 134.834L63 135.318L168.685 176.135L168.876 175.651L63.1903 134.834Z" fill="#CACACA"/>
<path d="M138.708 0.0796984L79.9634 15.4268C79.7284 15.4927 79.5115 15.6102 79.3286 15.7705C79.1244 15.9476 78.9503 16.1561 78.8127 16.3879C78.6617 16.6389 78.5451 16.9088 78.4662 17.1905C78.3825 17.4855 78.3397 17.7904 78.3389 18.0968V104.461C78.339 104.762 78.3819 105.062 78.4662 105.352C78.5436 105.622 78.6604 105.879 78.8127 106.116C78.9495 106.331 79.1242 106.52 79.3286 106.674C79.5145 106.814 79.7325 106.907 79.9634 106.944L138.708 115.516C139.049 115.568 139.397 115.541 139.726 115.438C140.039 115.339 140.324 115.17 140.561 114.945C140.807 114.709 141 114.425 141.128 114.111C141.268 113.765 141.339 113.394 141.337 113.021V2.27264C141.341 1.90667 141.27 1.54374 141.128 1.20581C141.003 0.909278 140.809 0.646215 140.561 0.437986C140.321 0.238212 140.034 0.101438 139.726 0.040184C139.388 -0.0244792 139.04 -0.0109554 138.708 0.0796984Z" fill="#F2F2F2"/>
<path d="M81.4114 17.8502C81.2456 17.8985 81.0927 17.9829 80.9639 18.0972C80.8207 18.2222 80.6986 18.3692 80.6022 18.5324C80.4966 18.71 80.4156 18.901 80.3615 19.1C80.3044 19.3079 80.2765 19.5226 80.2785 19.738V102.596C80.2761 102.808 80.3041 103.02 80.3615 103.224C80.4146 103.414 80.4955 103.596 80.6018 103.763C80.6974 103.915 80.8199 104.049 80.9633 104.158C81.0942 104.258 81.2479 104.325 81.4108 104.353L136.437 111.7C136.672 111.728 136.909 111.702 137.132 111.624C137.346 111.548 137.539 111.425 137.698 111.264C137.864 111.096 137.992 110.896 138.076 110.676C138.168 110.434 138.213 110.177 138.208 109.918V5.73349C138.214 5.47951 138.169 5.22686 138.076 4.99016C137.994 4.78233 137.865 4.59606 137.698 4.44584C137.537 4.30254 137.342 4.20132 137.132 4.15134C136.903 4.09906 136.665 4.10068 136.437 4.15608L81.4114 17.8502Z" fill="white"/>
<path d="M83.7391 21.1629C83.6257 21.1919 83.5215 21.2485 83.4359 21.3275C83.3369 21.4179 83.2536 21.5238 83.1894 21.641C83.1161 21.7726 83.0603 21.9131 83.0233 22.0589C82.9824 22.2152 82.9615 22.3758 82.961 22.5372V34.0777C82.9601 34.2307 82.9806 34.3831 83.022 34.5305C83.0565 34.6561 83.1127 34.7748 83.1881 34.8814C83.2515 34.9718 83.3365 35.0453 83.4355 35.0954C83.5294 35.1411 83.6356 35.1559 83.7386 35.1378L132.921 26.744C133.084 26.7145 133.237 26.6491 133.37 26.5527C133.514 26.4492 133.639 26.322 133.739 26.1765C133.847 26.0206 133.931 25.8495 133.988 25.669C134.048 25.4799 134.079 25.2828 134.079 25.0845V10.9535C134.081 10.767 134.05 10.5818 133.988 10.4058C133.935 10.2543 133.85 10.1155 133.739 9.99858C133.637 9.88986 133.507 9.81034 133.363 9.76834C133.219 9.72634 133.067 9.72341 132.921 9.75985L83.7391 21.1629Z" fill="#F2F2F2"/>
<path d="M83.7394 40.7555C83.6275 40.7757 83.5223 40.8223 83.4325 40.8914C83.3338 40.9664 83.2494 41.0582 83.1833 41.1626C83.1101 41.2766 83.0541 41.4007 83.0171 41.5308C82.9781 41.6696 82.9592 41.8132 82.9611 41.9574V66.6237C82.9592 66.7646 82.9787 66.9051 83.0188 67.0404C83.0547 67.1619 83.1108 67.2766 83.1849 67.3798C83.2508 67.4724 83.3357 67.5501 83.4341 67.6078C83.5271 67.6619 83.633 67.6904 83.7408 67.6901L132.923 66.3006C133.082 66.293 133.237 66.2509 133.377 66.1771C133.519 66.1025 133.644 66.0014 133.747 65.8793C133.854 65.7521 133.938 65.6069 133.994 65.4506C134.054 65.2856 134.083 65.1114 134.081 64.9361V34.733C134.084 34.5623 134.055 34.3926 133.994 34.2327C133.94 34.0886 133.856 33.9573 133.747 33.8472C133.643 33.7424 133.517 33.6626 133.377 33.6139C133.231 33.5638 133.075 33.5486 132.921 33.5696L83.7394 40.7555Z" fill="#F2F2F2"/>
<path d="M88.0479 21.8311L126.813 13.1217V16.0646L88.0479 24.3546V21.8311Z" fill="white"/>
<path d="M88.1162 27.1349L126.905 19.3056V20.6727L88.1162 28.3066V27.1349Z" fill="white"/>
<path d="M88.1162 29.2082L126.905 21.7243V23.0914L88.1162 30.3802V29.2082Z" fill="white"/>
<path d="M88.1162 31.2816L126.905 24.143V25.5101L88.1162 32.4536V31.2816Z" fill="white"/>
<path d="M109.622 67.0075L129.293 66.4555C129.362 66.4535 129.429 66.4402 129.493 66.416C129.558 66.3915 129.619 66.3573 129.673 66.3146C129.729 66.2701 129.779 66.2179 129.82 66.1596C129.864 66.0979 129.899 66.0306 129.924 65.9596C129.976 65.8158 129.989 65.661 129.963 65.5105C129.95 65.4379 129.928 65.3673 129.896 65.3006C129.865 65.2349 129.825 65.174 129.776 65.1199L116.808 50.8732C116.752 50.8101 116.682 50.7608 116.603 50.7292C116.529 50.7002 116.449 50.6889 116.37 50.6962C116.288 50.7041 116.208 50.7296 116.137 50.7709C116.058 50.8171 115.988 50.8781 115.933 50.9506L112.916 54.8142C112.802 54.9622 112.66 55.0865 112.498 55.1799C112.353 55.2629 112.192 55.3129 112.025 55.3262C111.864 55.3383 111.702 55.3121 111.553 55.2498C111.394 55.1819 111.252 55.0785 111.14 54.9477L102.248 44.8229C102.199 44.7653 102.136 44.7204 102.065 44.692C101.999 44.6663 101.928 44.6573 101.857 44.6658C101.783 44.6753 101.712 44.7012 101.65 44.7416C101.578 44.7876 101.516 44.8467 101.467 44.9157L85.8464 66.4749C85.8114 66.5237 85.7827 66.5767 85.7612 66.6327C85.7389 66.6906 85.7232 66.7508 85.7143 66.8122C85.7052 66.8747 85.7028 66.9381 85.7073 67.0011C85.7117 67.0639 85.7233 67.1261 85.7419 67.1863C85.7594 67.2435 85.7842 67.2983 85.8157 67.3493C85.844 67.3953 85.8789 67.4369 85.9195 67.4728C85.9569 67.5058 85.9998 67.5321 86.0464 67.5504C86.0916 67.5679 86.1399 67.5762 86.1884 67.5749L109.646 66.9075L109.622 67.0075Z" fill="white"/>
<path d="M89.6121 43.345C89.8661 43.311 90.1246 43.3466 90.3597 43.4479C90.599 43.5533 90.81 43.7131 90.9754 43.9143C91.1604 44.1398 91.3013 44.3977 91.3907 44.6745C91.4941 44.9903 91.5458 45.3204 91.5437 45.6524C91.5438 45.9963 91.4923 46.3383 91.3907 46.6672C91.2975 46.9734 91.1574 47.2637 90.9754 47.5278C90.8106 47.7688 90.6022 47.9775 90.3607 48.1434C90.1384 48.2963 89.8818 48.3932 89.6131 48.4257C89.3591 48.4545 89.102 48.4139 88.8695 48.3084C88.6339 48.1986 88.4272 48.0361 88.2656 47.8338C88.0847 47.6087 87.9469 47.3526 87.8593 47.0782C87.7591 46.7667 87.7091 46.4415 87.711 46.1146C87.7109 45.7761 87.7608 45.4394 87.8593 45.1153C87.9503 44.8122 88.0869 44.5245 88.2646 44.2619C88.4263 44.0206 88.6309 43.8105 88.8685 43.6418C89.0887 43.4851 89.3437 43.3833 89.6121 43.345Z" fill="white"/>
<path d="M83.7394 73.4836C83.6307 73.4868 83.5248 73.5184 83.4325 73.5752C83.3343 73.6361 83.2498 73.7163 83.1841 73.8108C83.1102 73.9159 83.0541 74.0323 83.018 74.1553C82.9782 74.2914 82.959 74.4325 82.9611 74.5741V99.2404C82.9596 99.3841 82.9791 99.5273 83.0188 99.6656C83.0556 99.7941 83.1116 99.9165 83.1849 100.029C83.251 100.131 83.3355 100.22 83.4341 100.292C83.5244 100.358 83.6297 100.402 83.7408 100.418L132.921 106.072C133.075 106.087 133.231 106.067 133.376 106.013C133.516 105.96 133.642 105.876 133.746 105.768C133.854 105.655 133.938 105.521 133.993 105.375C134.053 105.214 134.082 105.043 134.079 104.872V74.67C134.082 74.4954 134.052 74.3217 133.993 74.1574C133.937 74.0033 133.853 73.8607 133.746 73.7365C133.643 73.6176 133.517 73.5203 133.376 73.4503C133.235 73.3806 133.079 73.3432 132.921 73.3408L83.7394 73.4836Z" fill="#F2F2F2"/>
<path d="M109.622 103.443L129.292 105.708C129.359 105.715 129.427 105.712 129.493 105.697C129.556 105.682 129.617 105.656 129.672 105.621C129.728 105.584 129.778 105.539 129.819 105.487C129.863 105.431 129.898 105.368 129.923 105.301C129.95 105.232 129.966 105.158 129.972 105.084C129.979 105.008 129.975 104.932 129.962 104.858C129.949 104.782 129.927 104.708 129.895 104.638C129.864 104.567 129.823 104.501 129.775 104.44L116.808 88.3372C116.752 88.2666 116.682 88.2078 116.603 88.1646C116.531 88.1257 116.451 88.103 116.37 88.0983C116.29 88.0939 116.21 88.108 116.137 88.1395C116.058 88.1738 115.988 88.2251 115.932 88.2897L112.916 91.7205C112.802 91.8527 112.659 91.9574 112.498 92.0265C112.349 92.0895 112.187 92.1165 112.025 92.1051C111.859 92.0926 111.697 92.0434 111.553 91.9611C111.392 91.8691 111.252 91.7464 111.14 91.5999L102.248 80.2007C102.199 80.1363 102.136 80.0828 102.065 80.0437C102.001 80.0092 101.93 79.9901 101.857 79.988C101.785 79.9864 101.714 80.0021 101.65 80.0338C101.578 80.0691 101.516 80.1196 101.466 80.1816L85.8464 99.5057C85.8111 99.5499 85.7824 99.599 85.7613 99.6514C85.7387 99.7069 85.723 99.7648 85.7144 99.824C85.7052 99.8862 85.7028 99.9492 85.7073 100.012C85.7118 100.077 85.7233 100.141 85.7418 100.203C85.7595 100.263 85.7843 100.322 85.8155 100.377C85.844 100.427 85.8789 100.474 85.9193 100.515C85.9564 100.553 85.9992 100.586 86.0462 100.611C86.0903 100.634 86.1385 100.65 86.1882 100.656L109.646 103.347L109.622 103.443Z" fill="white"/>
<path d="M89.6121 76.9142C89.8753 76.9189 90.1328 76.9909 90.3596 77.1233C90.6006 77.2651 90.8098 77.4541 90.9743 77.6789C91.1576 77.9276 91.2979 78.2046 91.3896 78.4988C91.4919 78.8224 91.5435 79.1595 91.5427 79.4986C91.5439 79.8354 91.4923 80.1704 91.3896 80.4915C91.2986 80.7802 91.1581 81.0511 90.9743 81.2925C90.8097 81.5097 90.6001 81.6896 90.3596 81.8199C90.1304 81.9426 89.8725 82.003 89.6121 81.9951C89.3489 81.9847 89.0929 81.9076 88.8684 81.7712C88.6313 81.6261 88.4259 81.4354 88.2646 81.2102C88.0857 80.9625 87.9488 80.6876 87.8592 80.3962C87.7601 80.0773 87.7101 79.7453 87.711 79.4115C87.7098 79.0799 87.7598 78.75 87.8592 78.4334C87.9481 78.1475 88.0851 77.8785 88.2646 77.638C88.4259 77.4201 88.6316 77.2383 88.8684 77.1043C89.0952 76.9775 89.3517 76.9119 89.6121 76.9142Z" fill="white"/>
<path d="M97.6113 32.3956C97.4262 32.4297 97.2513 32.5052 97.0998 32.6162C96.9372 32.7353 96.7967 32.8816 96.6845 33.0483C96.5626 33.2275 96.4683 33.4237 96.4046 33.6303C96.3365 33.8475 96.3015 34.0736 96.3008 34.301V127.617C96.3027 128.069 96.4356 128.512 96.6837 128.891C96.7961 129.064 96.9364 129.218 97.099 129.347C97.2492 129.466 97.4238 129.551 97.6107 129.597L167.375 145.554C167.654 145.621 167.945 145.629 168.227 145.577C168.482 145.53 168.721 145.424 168.927 145.269C169.13 145.113 169.293 144.911 169.401 144.681C169.519 144.426 169.578 144.148 169.576 143.868V22.1913C169.578 21.9076 169.518 21.6268 169.401 21.3681C169.292 21.1302 169.13 20.92 168.927 20.7532C168.723 20.5867 168.484 20.4676 168.227 20.4048C167.948 20.3374 167.658 20.3289 167.375 20.3796L97.6113 32.3956Z" fill="#E6E6E6"/>
<path d="M99.2222 34.7628C99.0334 34.7994 98.8553 34.8779 98.7014 34.9923C98.5364 35.1143 98.3942 35.2638 98.2809 35.4341C98.1585 35.6164 98.0644 35.8159 98.0016 36.0258C97.9349 36.2464 97.9021 36.4758 97.9044 36.7061V126.054C97.9012 126.513 98.0319 126.962 98.2809 127.349C98.3944 127.526 98.5364 127.684 98.7014 127.816C98.8541 127.939 99.0317 128.027 99.2222 128.076L164.505 142.503C164.782 142.563 165.069 142.563 165.346 142.503C165.597 142.45 165.832 142.337 166.03 142.176C166.229 142.014 166.386 141.808 166.488 141.574C166.6 141.316 166.655 141.037 166.648 140.755V26.1013C166.654 25.8172 166.599 25.5349 166.488 25.273C166.385 25.0325 166.229 24.818 166.032 24.6454C165.834 24.4728 165.599 24.3464 165.346 24.2757C165.072 24.2005 164.786 24.1836 164.505 24.2264L99.2222 34.7628Z" fill="white"/>
<path d="M107.557 46.9314C107.469 46.9417 107.385 46.9719 107.31 47.0197C107.232 47.0699 107.164 47.134 107.109 47.2086C107.05 47.2884 107.004 47.3771 106.974 47.4712C106.941 47.5709 106.924 47.6751 106.924 47.7799V51.357C106.923 51.4587 106.94 51.5597 106.974 51.6558C107.004 51.742 107.049 51.8218 107.109 51.8911C107.164 51.9551 107.233 52.0063 107.31 52.0407C107.388 52.0744 107.472 52.0881 107.557 52.0806L151.529 48.2362C151.648 48.225 151.764 48.19 151.87 48.1333C151.975 48.0767 152.07 48.0017 152.149 47.9118C152.229 47.8206 152.293 47.7161 152.337 47.6031C152.383 47.4874 152.407 47.3644 152.407 47.2401V43.0156C152.408 42.8956 152.384 42.7766 152.338 42.6657C152.295 42.563 152.23 42.4702 152.149 42.3935C152.07 42.3184 151.974 42.2614 151.87 42.2263C151.76 42.1896 151.644 42.1772 151.529 42.1899L107.557 46.9314Z" fill="#FF7700"/>
<path d="M107.32 58.815C107.298 58.8164 107.277 58.8229 107.258 58.8342C107.238 58.8458 107.221 58.861 107.207 58.879C107.193 58.8984 107.181 58.92 107.174 58.943C107.165 58.9677 107.161 58.9936 107.161 59.0196V60.4173C107.161 60.4429 107.165 60.4683 107.174 60.4924C107.181 60.5143 107.193 60.5347 107.207 60.5525C107.221 60.569 107.238 60.5823 107.258 60.5916C107.277 60.6008 107.299 60.605 107.32 60.6038L152.078 58.1995C152.108 58.1978 152.137 58.1901 152.164 58.1768C152.19 58.1636 152.214 58.1456 152.233 58.1238C152.275 58.0781 152.298 58.019 152.298 57.9577V56.3099C152.298 56.2795 152.292 56.2495 152.281 56.2214C152.27 56.1951 152.254 56.1713 152.233 56.1512C152.213 56.1311 152.189 56.1156 152.162 56.1056C152.135 56.0956 152.107 56.0913 152.078 56.0932L107.32 58.815Z" fill="#CCCCCC"/>
<path d="M107.32 63.3612C107.298 63.3622 107.277 63.3684 107.258 63.3793C107.238 63.3906 107.221 63.4056 107.207 63.4234C107.193 63.4425 107.181 63.4639 107.174 63.4867C107.165 63.5114 107.161 63.5372 107.161 63.5631V64.9609C107.161 64.9865 107.165 65.0121 107.174 65.0364C107.181 65.0588 107.192 65.0797 107.207 65.0981C107.221 65.1148 107.238 65.1284 107.258 65.138C107.277 65.1475 107.298 65.1521 107.32 65.1512L152.078 63.553C152.108 63.5521 152.137 63.5451 152.164 63.5324C152.19 63.5197 152.214 63.5021 152.233 63.4806C152.275 63.4356 152.298 63.3768 152.298 63.3159V61.6671C152.298 61.6367 152.292 61.6066 152.281 61.5784C152.27 61.5519 152.254 61.5278 152.233 61.5074C152.214 61.4874 152.19 61.4717 152.164 61.4611C152.137 61.4503 152.107 61.4454 152.078 61.4467L107.32 63.3612Z" fill="#CCCCCC"/>
<path d="M107.319 67.9076C107.298 67.9082 107.276 67.9139 107.257 67.9245C107.238 67.9355 107.221 67.9501 107.207 67.9675C107.193 67.9864 107.181 68.0076 107.174 68.0303C107.165 68.0548 107.161 68.0805 107.161 68.1064V69.5042C107.161 69.5299 107.165 69.5555 107.174 69.5799C107.181 69.6023 107.193 69.6232 107.207 69.6417C107.221 69.6587 107.238 69.6727 107.258 69.6828C107.277 69.6927 107.298 69.6976 107.32 69.6972L152.077 68.9066C152.107 68.9057 152.136 68.8987 152.163 68.886C152.189 68.8738 152.213 68.8567 152.233 68.8356C152.253 68.814 152.269 68.789 152.28 68.7617C152.291 68.7331 152.297 68.7027 152.297 68.672V67.0246C152.297 66.994 152.291 66.9638 152.28 66.9355C152.269 66.9087 152.253 66.8844 152.233 66.8636C152.213 66.8429 152.189 66.8264 152.163 66.8151C152.136 66.804 152.107 66.7988 152.077 66.7998L107.319 67.9076Z" fill="#CCCCCC"/>
<path d="M107.24 76.9879C107.219 76.9876 107.197 76.9926 107.178 77.0025C107.159 77.0126 107.141 77.0266 107.128 77.0436C107.113 77.0621 107.102 77.083 107.094 77.1054C107.086 77.1297 107.082 77.1552 107.082 77.1809V78.5783C107.082 78.6041 107.086 78.6299 107.094 78.6544C107.102 78.6767 107.114 78.6976 107.128 78.7161C107.142 78.7336 107.159 78.7482 107.179 78.7589C107.198 78.7694 107.219 78.775 107.241 78.7754L151.969 79.5969C151.998 79.5975 152.027 79.5919 152.054 79.5805C152.08 79.5693 152.104 79.5529 152.124 79.5325C152.144 79.5116 152.16 79.4871 152.171 79.4603C152.182 79.432 152.188 79.4017 152.188 79.3712V77.7242C152.188 77.6935 152.182 77.663 152.171 77.6345C152.16 77.6072 152.144 77.5822 152.124 77.5608C152.104 77.5398 152.08 77.5228 152.054 77.5108C152.027 77.4986 151.998 77.4921 151.969 77.4917L107.24 76.9879Z" fill="#CCCCCC"/>
<path d="M107.24 81.5328C107.219 81.5321 107.197 81.5368 107.178 81.5464C107.158 81.5565 107.141 81.5705 107.128 81.5876C107.113 81.606 107.101 81.6269 107.094 81.6493C107.086 81.6731 107.082 81.698 107.082 81.723V83.1203C107.082 83.1463 107.086 83.1721 107.094 83.1967C107.102 83.2195 107.114 83.2409 107.128 83.2599C107.142 83.2776 107.159 83.2924 107.179 83.3035C107.198 83.3143 107.219 83.3204 107.241 83.3212L151.968 84.9493C151.998 84.9503 152.027 84.9452 152.054 84.9342C152.08 84.9235 152.104 84.9076 152.124 84.8875C152.144 84.867 152.16 84.8427 152.171 84.8161C152.182 84.7879 152.188 84.7577 152.188 84.7272V83.0798C152.188 83.049 152.182 83.0185 152.171 82.9899C152.16 82.9624 152.144 82.9371 152.124 82.9154C152.104 82.894 152.08 82.8766 152.054 82.8641C152.027 82.8515 151.998 82.8445 151.968 82.8436L107.24 81.5328Z" fill="#CCCCCC"/>
<path d="M107.24 86.0774C107.219 86.0766 107.198 86.0811 107.179 86.0906C107.159 86.0998 107.142 86.1131 107.128 86.1295C107.113 86.1474 107.102 86.1678 107.094 86.1898C107.086 86.2139 107.082 86.2393 107.082 86.2649V87.6622C107.082 87.6882 107.086 87.7141 107.094 87.7388C107.102 87.7618 107.114 87.7833 107.128 87.8026C107.142 87.8205 107.159 87.8356 107.179 87.847C107.198 87.8581 107.219 87.8646 107.241 87.8658L151.968 90.3003C151.997 90.3019 152.026 90.2975 152.052 90.2874C152.079 90.2772 152.103 90.2616 152.124 90.2414C152.144 90.2212 152.16 90.1972 152.171 90.1708C152.182 90.1427 152.188 90.1127 152.188 90.0823V88.435C152.188 88.3741 152.165 88.3155 152.124 88.2703C152.104 88.2487 152.08 88.2309 152.054 88.2179C152.027 88.2047 151.998 88.1971 151.968 88.1956L107.24 86.0774Z" fill="#CCCCCC"/>
<path d="M107.24 90.6448C107.219 90.6433 107.197 90.6472 107.178 90.6561C107.159 90.6653 107.142 90.6785 107.128 90.6948C107.113 90.7125 107.102 90.7327 107.094 90.7545C107.086 90.7787 107.082 90.804 107.082 90.8296V92.2269C107.082 92.253 107.086 92.2789 107.094 92.3037C107.102 92.3269 107.114 92.3486 107.128 92.3681C107.142 92.3863 107.159 92.4017 107.179 92.4136C107.197 92.4253 107.219 92.4323 107.241 92.4342L151.968 95.6785C151.997 95.6807 152.026 95.6766 152.053 95.6666C152.079 95.6569 152.103 95.6418 152.123 95.6224C152.143 95.6025 152.159 95.5789 152.17 95.5528C152.181 95.5248 152.187 95.4948 152.187 95.4645V93.8169C152.187 93.7859 152.181 93.7552 152.17 93.7264C152.159 93.6984 152.143 93.6726 152.123 93.6502C152.103 93.6281 152.079 93.6099 152.053 93.5963C152.026 93.5827 151.997 93.5747 151.968 93.5726L107.24 90.6448Z" fill="#CCCCCC"/>
<path d="M107.24 95.1896C107.219 95.1876 107.198 95.1912 107.178 95.1998C107.159 95.2088 107.142 95.2219 107.128 95.2381C107.114 95.2554 107.102 95.2752 107.094 95.2966C107.086 95.3206 107.082 95.3458 107.082 95.3713V96.7686C107.082 96.7948 107.086 96.8207 107.094 96.8456C107.102 96.8689 107.114 96.8909 107.128 96.9106C107.142 96.929 107.159 96.9447 107.179 96.9569C107.197 96.9685 107.219 96.9756 107.241 96.9775L151.968 101.03C151.997 101.032 152.026 101.029 152.053 101.019C152.079 101.01 152.103 100.995 152.123 100.976C152.143 100.957 152.159 100.933 152.17 100.908C152.181 100.88 152.187 100.85 152.187 100.82V99.1721C152.187 99.141 152.181 99.1101 152.17 99.0811C152.159 99.0529 152.143 99.0269 152.123 99.0042C152.103 98.9817 152.079 98.963 152.053 98.949C152.027 98.9349 151.998 98.9263 151.968 98.9237L107.24 95.1896Z" fill="#CCCCCC"/>
<path d="M107.24 99.7343C107.219 99.732 107.198 99.7351 107.178 99.7434C107.159 99.7518 107.142 99.7643 107.128 99.78C107.113 99.7972 107.102 99.8171 107.094 99.8387C107.086 99.8627 107.082 99.8879 107.082 99.9134V101.311C107.082 101.337 107.086 101.363 107.094 101.388C107.102 101.411 107.114 101.434 107.128 101.454C107.142 101.472 107.159 101.488 107.179 101.501C107.197 101.513 107.219 101.52 107.241 101.523L151.968 106.381C151.996 106.384 152.026 106.381 152.053 106.372C152.079 106.363 152.103 106.349 152.123 106.331C152.143 106.312 152.159 106.289 152.17 106.263C152.181 106.235 152.187 106.205 152.187 106.175V104.527C152.187 104.496 152.181 104.465 152.17 104.436C152.159 104.408 152.143 104.381 152.123 104.358C152.103 104.336 152.079 104.316 152.053 104.302C152.027 104.287 151.998 104.278 151.968 104.275L107.24 99.7343Z" fill="#CCCCCC"/>
<path d="M107.24 104.302C107.219 104.299 107.198 104.302 107.178 104.31C107.159 104.318 107.142 104.33 107.128 104.345C107.113 104.362 107.102 104.382 107.094 104.404C107.086 104.427 107.082 104.453 107.082 104.478V105.875C107.082 105.901 107.086 105.928 107.094 105.953C107.102 105.976 107.114 105.999 107.128 106.019C107.142 106.038 107.159 106.054 107.179 106.067C107.197 106.079 107.219 106.087 107.241 106.09L151.968 111.759C151.996 111.763 152.025 111.76 152.053 111.752C152.079 111.743 152.103 111.729 152.123 111.711C152.143 111.692 152.159 111.669 152.17 111.644C152.182 111.616 152.187 111.586 152.187 111.556V109.909C152.187 109.878 152.181 109.847 152.17 109.818C152.159 109.789 152.143 109.763 152.123 109.739C152.103 109.716 152.079 109.697 152.053 109.682C152.027 109.667 151.998 109.657 151.968 109.653L107.24 104.302Z" fill="#CCCCCC"/>
<path d="M107.24 108.847C107.219 108.844 107.198 108.846 107.178 108.854C107.159 108.861 107.142 108.873 107.128 108.888C107.113 108.905 107.102 108.925 107.094 108.946C107.086 108.969 107.082 108.995 107.082 109.02V110.417C107.082 110.443 107.086 110.47 107.094 110.495C107.102 110.519 107.114 110.541 107.128 110.562C107.142 110.581 107.159 110.597 107.179 110.611C107.197 110.623 107.219 110.632 107.241 110.635L151.968 117.11C151.996 117.115 152.025 117.113 152.053 117.105C152.079 117.097 152.103 117.084 152.123 117.065C152.143 117.047 152.159 117.024 152.17 116.999C152.182 116.972 152.187 116.942 152.187 116.912V115.265C152.187 115.233 152.181 115.202 152.17 115.173C152.159 115.144 152.143 115.117 152.123 115.093C152.103 115.07 152.079 115.05 152.053 115.034C152.027 115.019 151.998 115.009 151.968 115.005L107.24 108.847Z" fill="#CCCCCC"/>
<path d="M107.24 113.391C107.219 113.388 107.198 113.39 107.178 113.397C107.159 113.404 107.142 113.416 107.128 113.431C107.113 113.448 107.102 113.467 107.094 113.488C107.086 113.511 107.082 113.536 107.082 113.562V114.959C107.082 114.985 107.086 115.012 107.094 115.037C107.102 115.061 107.114 115.084 107.128 115.104C107.142 115.124 107.159 115.141 107.179 115.154C107.197 115.167 107.218 115.176 107.241 115.18L151.968 122.462C151.996 122.466 152.025 122.465 152.053 122.458C152.079 122.45 152.103 122.437 152.123 122.42C152.143 122.402 152.159 122.379 152.17 122.354C152.182 122.327 152.187 122.297 152.187 122.268V120.62C152.187 120.588 152.181 120.557 152.17 120.528C152.159 120.498 152.143 120.471 152.123 120.447C152.103 120.423 152.08 120.403 152.053 120.387C152.027 120.371 151.998 120.36 151.968 120.356L107.24 113.391Z" fill="#CCCCCC"/>
<path d="M165.445 120.137C167.9 120.515 170.263 121.343 172.413 122.578C176.932 125.173 180.464 129.171 182.461 133.954C183.46 136.336 183.983 138.887 183.999 141.467C184.026 143.848 183.5 146.203 182.461 148.35C181.512 150.284 180.096 151.957 178.339 153.22C176.581 154.468 174.551 155.287 172.413 155.611C170.087 155.956 167.714 155.816 165.445 155.199C163.058 154.564 160.801 153.518 158.777 152.11C156.787 150.731 155.021 149.059 153.541 147.152C152.088 145.292 150.932 143.222 150.112 141.015C149.305 138.857 148.886 136.576 148.874 134.275C148.854 132.136 149.276 130.015 150.112 128.042C150.887 126.217 152.07 124.591 153.571 123.284C155.072 121.977 156.852 121.024 158.777 120.496C160.949 119.908 163.222 119.785 165.445 120.137Z" fill="#FF7700"/>
<path d="M163.786 144.689L158.688 136.924L161.632 135.189L164.071 138.856L172.608 131.579L175.57 134.86L163.786 144.689Z" fill="white"/>
<path d="M126.562 135.641L125.64 122.986L127.295 111.127L122.595 110.812L121.667 123.912L124.289 136.231C124.066 136.537 123.943 136.904 123.938 137.281C123.933 137.659 124.046 138.029 124.262 138.34C124.477 138.652 124.784 138.89 125.141 139.022C125.498 139.154 125.888 139.173 126.256 139.078C126.625 138.982 126.955 138.776 127.2 138.487C127.446 138.199 127.596 137.842 127.629 137.466C127.663 137.09 127.578 136.712 127.387 136.386C127.196 136.059 126.908 135.799 126.562 135.641Z" fill="#9F616A"/>
<path d="M121.995 112.517L123.099 107.783C123.31 106.876 123.863 106.084 124.645 105.569C125.427 105.053 126.378 104.854 127.303 105.011C128.228 105.168 129.058 105.67 129.622 106.413C130.186 107.157 130.442 108.087 130.337 109.011L129.729 114.36L121.995 112.517Z" fill="#CBCBCB"/>
<path d="M130.697 176.871L132.913 176.871L133.966 168.401L130.696 168.401L130.697 176.871Z" fill="#9F616A"/>
<path d="M130.131 176.154L134.495 176.154C135.232 176.154 135.94 176.445 136.461 176.961C136.983 177.478 137.276 178.179 137.276 178.91V179L130.131 179L130.131 176.154Z" fill="#2F2E41"/>
<path d="M141.736 176.799L143.866 176.195L142.526 167.764L139.382 168.657L141.736 176.799Z" fill="#9F616A"/>
<path d="M140.993 176.264L145.188 175.073C145.897 174.872 146.658 174.958 147.303 175.313C147.948 175.667 148.425 176.261 148.628 176.964L148.653 177.05L141.784 179L140.993 176.264Z" fill="#2F2E41"/>
<path d="M129.499 173.797L130.53 148.139L127.853 136.527C124.25 130.541 128.137 120.994 128.176 120.898L128.191 120.863L128.228 120.858L137.652 119.593L137.784 119.894C141.47 128.245 142.493 137.513 140.716 146.456L139.735 151.427L144.582 170.822L139.995 173.095L136.475 164.05L134.096 173.304L129.499 173.797Z" fill="#2F2E41"/>
<path d="M126.935 123.278L123.861 114.351C121.95 111.016 123.162 108.055 124.515 106.158C125.977 104.11 126.065 102.961 126.084 102.949L126.1 102.938L130.139 102.817L133.877 106.581C134.112 106.49 136.098 111.341 135.93 111.585L138.54 119.949L126.935 123.278Z" fill="#CBCBCB"/>
<path d="M151.827 124.822L141.7 117.059L133.891 107.925L130.519 111.185L139.746 120.61L150.755 126.893C150.836 127.262 151.03 127.597 151.31 127.853C151.591 128.108 151.944 128.272 152.322 128.321C152.7 128.37 153.084 128.302 153.421 128.126C153.758 127.951 154.033 127.676 154.207 127.34C154.381 127.004 154.446 126.623 154.393 126.249C154.34 125.875 154.172 125.527 153.911 125.251C153.651 124.975 153.311 124.786 152.938 124.709C152.565 124.633 152.177 124.672 151.827 124.822Z" fill="#9F616A"/>
<path d="M129.56 114.488L126.739 110.515C126.198 109.754 125.972 108.817 126.106 107.896C126.24 106.975 126.725 106.14 127.46 105.562C128.195 104.983 129.126 104.706 130.062 104.785C130.997 104.865 131.866 105.297 132.491 105.991L136.106 110.008L129.56 114.488Z" fill="#CBCBCB"/>
<path d="M127.644 101.723C130.293 101.723 132.44 99.5944 132.44 96.9693C132.44 94.3441 130.293 92.216 127.644 92.216C124.995 92.216 122.848 94.3441 122.848 96.9693C122.848 99.5944 124.995 101.723 127.644 101.723Z" fill="#9F616A"/>
<path d="M132.521 94.5579H124.905V91.2679C126.577 90.6098 128.213 90.0501 129.201 91.2679C130.082 91.2679 130.926 91.6145 131.549 92.2315C132.171 92.8485 132.521 93.6853 132.521 94.5579Z" fill="#2F2E41"/>
<path d="M125.955 90.479C118.978 90.2902 120.299 101.683 120.299 101.683C120.299 101.683 121.615 101.855 122.216 101.957L122.942 101.552L123.722 102.059C124.081 102.061 124.457 102.054 124.848 102.047L125.205 101.317L126.003 102.034C127.456 102.036 131.398 102.076 131.398 102.076C131.398 102.076 133.774 90.6906 125.955 90.479Z" fill="#2F2E41"/>
<path d="M97.8404 109.998C97.868 109.776 97.8459 109.55 97.7757 109.336C97.7056 109.123 97.5891 108.927 97.4344 108.763C97.2797 108.599 97.0907 108.471 96.8805 108.387C96.6704 108.303 96.4443 108.266 96.2181 108.279L94.685 105.116L92.5186 105.571L94.7468 110.007C94.7928 110.382 94.976 110.727 95.2618 110.977C95.5475 111.228 95.916 111.365 96.2973 111.364C96.6786 111.363 97.0463 111.224 97.3307 110.972C97.6151 110.72 97.7965 110.374 97.8404 109.998Z" fill="#FFB7B7"/>
<path d="M64.5586 146.717L66.3617 147.631L70.7792 141.174L68.1179 139.824L64.5586 146.717Z" fill="#FFB7B7"/>
<path d="M64.3999 145.9L67.9509 147.701C68.551 148.005 69.0047 148.534 69.2119 149.169C69.4191 149.805 69.363 150.497 69.0558 151.091L69.0182 151.164L63.2041 148.216L64.3999 145.9Z" fill="#2F2E41"/>
<path d="M85.3843 149.218H87.4097L88.3733 141.476L85.3838 141.476L85.3843 149.218Z" fill="#FFB7B7"/>
<path d="M84.8682 148.563L88.8572 148.563C89.5314 148.563 90.1781 148.828 90.6549 149.301C91.1316 149.773 91.3994 150.414 91.3995 151.082V151.164L84.8683 151.164L84.8682 148.563Z" fill="#2F2E41"/>
<path d="M75.9094 86.063C75.9094 86.063 74.553 85.0331 74.553 87.5487L74.3389 95.8617L76.7304 103.715L78.1225 101.168L77.5514 95.6495L75.9094 86.063Z" fill="#FF7700"/>
<path d="M90.4193 108.801C90.4193 108.801 91.9922 116.392 89.9998 122.622L88.8988 146.575L84.8618 146.263L83.4462 128.493L82.083 119.66L79.2518 127.714L69.9193 144.756L65.6201 141.431C65.6201 141.431 70.3843 128.548 73.904 125.843L75.6692 105.919L90.4193 108.801Z" fill="#2F2E41"/>
<path d="M85.6334 75.9136C88.1756 75.9136 90.2365 73.8712 90.2365 71.3517C90.2365 68.8323 88.1756 66.7899 85.6334 66.7899C83.0912 66.7899 81.0303 68.8323 81.0303 71.3517C81.0303 73.8712 83.0912 75.9136 85.6334 75.9136Z" fill="#FFB8B8"/>
<path d="M85.3085 72.3193C85.8603 72.3905 86.2765 71.831 86.4696 71.3138C86.6626 70.7966 86.8097 70.1944 87.2895 69.915C87.9449 69.5333 88.7835 69.9924 89.5331 69.8665C90.3795 69.7243 90.9299 68.8352 90.973 67.9855C91.0162 67.1357 90.6749 66.3185 90.3401 65.535L90.2232 66.5087C90.2389 66.1787 90.1688 65.8502 90.0197 65.5547C89.8707 65.2592 89.6476 65.0066 89.3718 64.8209L89.5225 66.2496C89.4904 66.0525 89.4194 65.8636 89.3135 65.6938C89.2076 65.5239 89.0689 65.3765 88.9053 65.2599C88.7418 65.1433 88.5566 65.0599 88.3604 65.0144C88.1642 64.969 87.9609 64.9623 87.7622 64.9949L87.7859 65.8462C86.8121 65.6974 85.8253 65.6495 84.8415 65.7034C83.851 65.7601 82.9032 66.1221 82.1304 66.7386C81.0187 67.6959 80.6127 69.2722 80.749 70.7254C80.8853 72.1787 81.4906 73.5439 82.1215 74.8627C82.2803 75.1945 82.4998 75.5689 82.8679 75.6112C83.0348 75.6135 83.1977 75.5608 83.331 75.4612C83.4642 75.3617 83.5603 75.221 83.604 75.0614C83.6832 74.7394 83.6802 74.4029 83.5951 74.0824C83.4648 73.5999 83.4232 73.0981 83.4723 72.601C83.5597 72.1102 83.9161 71.6251 84.4153 71.565C84.9146 71.5048 85.4255 72.0704 85.1854 72.5084L85.3085 72.3193Z" fill="#2F2E41"/>
<path d="M81.2281 77.5731L82.1918 76.2471C82.1918 76.2471 83.269 76.6099 86.154 78.033L86.3578 79.2754L91.3654 109.799L82.2632 109.41L79.7845 109.358L77.9731 109.32L75.5526 109.269L75.5169 100.496L76.3022 93.7746L75.0886 87.4426C75.0886 87.4426 73.5614 81.628 79.4433 78.4928L81.2281 77.5731Z" fill="#FF7700"/>
<path d="M93.8428 108.374L94.1733 109.521L96.4862 108.028L95.6134 107.038L93.8428 108.374Z" fill="#CBCBCB"/>
<path d="M82.9502 81.2624C82.9502 81.2624 86.5357 76.726 88.7028 81.782L89.3861 87.0804C89.3861 87.0804 92.0114 93.6664 92.0903 96.3311C92.0903 96.3311 93.8702 99.8088 93.8539 101.635L96.4869 107.543L93.7863 109.204L86.3123 97.8474L82.9502 81.2624Z" fill="#FF7700"/>
</svg>
