<svg width="250" height="191" viewBox="0 0 250 191" fill="none" xmlns="http://www.w3.org/2000/svg">
<path d="M23.0121 56.1479C4.48114 65.4135 -20.9879 110.648 30.0121 163.648C84.0117 223.648 233.013 174.148 236.513 107.148C240.013 40.1479 174.513 28.6479 160.013 39.6479C145.513 50.6479 156.013 91.6479 132.013 95.6479C108.013 99.6479 56.0117 39.6479 23.0121 56.1479Z" fill="#FCEAD2"/>
<path d="M188.373 167.402C188.373 167.549 188.08 167.667 187.715 167.667H47.658C47.293 167.667 47 167.549 47 167.402C47 167.256 47.293 167.138 47.658 167.138H187.715C188.08 167.138 188.373 167.256 188.373 167.402Z" fill="#D6D6E3"/>
<path d="M109.111 103.611L102.532 108.873L100.544 109.018L99.8133 109.071L87.5484 109.97L74.8311 109.04L72.9387 108.902L70.5267 108.726L65.4834 103.902C65.4834 103.902 69.0533 100.077 72.1801 97.4965C73.4125 96.4767 74.5767 95.6523 75.4254 95.3278L75.5701 95.2775C76.1038 95.0693 81.3314 94.5244 81.7121 94.0955C84.1812 91.5497 81.7121 85.4802 81.7121 85.4802C81.7121 85.4802 92.6037 79.8536 91.2879 87.2344C89.9722 94.6153 93.6455 93.5229 93.7975 93.5927L98.2316 93.7251L99.0406 94.0962L101.104 95.0414L105.759 97.1771C109.413 98.859 109.111 103.611 109.111 103.611Z" fill="#ED9DA0"/>
<path d="M85.293 89.3276C90.7047 89.3276 95.0918 84.9405 95.0918 79.5287C95.0918 74.117 90.7047 69.7299 85.293 69.7299C79.8812 69.7299 75.4941 74.117 75.4941 79.5287C75.4941 84.9405 79.8812 89.3276 85.293 89.3276Z" fill="#ED9DA0"/>
<path d="M89.9546 66.8333C92.113 67.5918 93.3477 68.0261 94.4788 69.1158C96.3896 70.9567 96.7056 73.417 96.9981 75.7031C97.2278 77.4914 97.5238 79.8032 96.4753 82.4454C96.118 83.3468 95.4554 86.3391 92.1375 86.846C91.4859 86.9456 95.1486 82.8387 95.0058 78.1951C94.9174 75.3109 90.5086 72.1951 87.8909 71.635C87.2619 71.5065 86.6125 71.5154 85.9873 71.6611C85.362 71.8067 84.7755 72.0857 84.268 72.4789C82.0678 74.2852 82.1614 81.7546 79.8413 83.3158C78.887 83.958 79.5232 79.4377 78.8506 80.1701C77.5241 81.6164 78.3749 83.8297 78.6134 84.6747C79.7445 88.676 80.9286 85.7174 82.0319 89.1339C83.2243 92.8227 73.5679 95.9105 73.2119 96.7344C72.5934 98.1673 71.7474 103.93 69.3202 105.109C66.2393 106.606 72.698 105.088 71.2658 106.759C70.4652 107.693 70.8984 108.683 69.452 111.59C68.98 112.539 68.7425 113.013 68.5348 112.996C67.5452 112.917 65.9447 105.001 68.5348 97.6288C69.6215 94.535 70.6861 91.5045 73.5389 89.1337C75.048 87.8805 76.3135 87.4297 76.6735 85.9662C77.1881 83.875 75.0513 82.9832 74.6234 79.6848C74.3306 77.4288 74.1249 74.2025 74.9221 72.1344C75.6743 70.1814 76.3273 68.4864 78.0362 66.9494C78.4464 66.5806 81.7602 64.0711 85.2736 64.0004C86.891 63.9679 88.0795 66.1731 89.9546 66.8321V66.8333Z" fill="#090814"/>
<path d="M157.447 166.684L131.024 166.555L128.398 160.397L137.682 159.723L136.064 152.972L154.426 150.592L136.843 144.48L138.396 144.111L166.669 148.723L165.112 159.259L162.886 165.05L157.447 166.684Z" fill="#FF7700"/>
<path d="M172.522 161.777C172.522 161.777 170.772 163.913 172.161 167.142L158.189 173.202L156.848 173.483L156.23 170.781L156.643 167.372V165.508L172.522 161.777Z" fill="#D5D6DB"/>
<path d="M128.398 160.397L147.738 156.871L173.363 160.954L157.447 166.684L128.398 160.397Z" fill="#FF7700"/>
<path d="M128.399 160.396C128.399 160.396 126.59 163.823 128.674 166.988L157.353 173.202C157.353 173.202 155.573 170.473 157.445 166.684L128.399 160.396Z" fill="#FF7700"/>
<path opacity="0.1" d="M128.399 160.396C128.399 160.396 126.59 163.823 128.674 166.988L157.353 173.202C157.353 173.202 155.573 170.473 157.445 166.684L128.399 160.396Z" fill="black"/>
<path d="M157.352 173.202L173.363 166.37C173.363 166.37 174.258 166.563 173.679 167.219C173.1 167.874 157.661 173.858 157.661 173.858L128.674 166.988L157.352 173.202Z" fill="#FF7700"/>
<path opacity="0.1" d="M157.352 173.202L173.363 166.37C173.363 166.37 174.258 166.563 173.679 167.219C173.1 167.874 157.661 173.858 157.661 173.858L128.674 166.988L157.352 173.202Z" fill="black"/>
<path opacity="0.1" d="M163.515 167.342L156.59 169.653L156.614 169.726L163.539 167.416L163.515 167.342Z" fill="black"/>
<path opacity="0.1" d="M164.901 167.113L156.587 170.274L156.614 170.346L164.929 167.185L164.901 167.113Z" fill="black"/>
<path opacity="0.1" d="M166.175 167.101L156.633 171.007L156.662 171.079L166.204 167.173L166.175 167.101Z" fill="black"/>
<path opacity="0.1" d="M167.561 166.767L156.745 171.653L156.777 171.723L167.593 166.838L167.561 166.767Z" fill="black"/>
<path opacity="0.1" d="M168.72 166.762L156.83 171.967L156.861 172.038L168.751 166.833L168.72 166.762Z" fill="black"/>
<path opacity="0.1" d="M171.27 166.336L157.01 172.495L157.04 172.566L171.301 166.407L171.27 166.336Z" fill="black"/>
<path d="M173.363 160.954C173.363 160.954 174.065 161.236 173.653 161.675C173.241 162.113 157.444 166.684 157.444 166.684L173.363 160.954Z" fill="#FF7700"/>
<path d="M180.186 154.352C180.186 154.352 178.437 156.488 179.826 159.717L165.854 165.777L164.513 166.06L163.896 163.358L164.315 159.95V158.083L180.186 154.352Z" fill="#D5D6DB"/>
<path d="M136.064 152.971L155.403 149.447L181.028 153.529L165.112 159.259L136.064 152.971Z" fill="#090814"/>
<path d="M136.061 152.971C136.061 152.971 134.251 156.398 136.335 159.563L165.014 165.778C165.014 165.778 163.234 163.046 165.109 159.259L136.061 152.971Z" fill="#3A3768"/>
<path d="M136.061 152.971C136.061 152.971 134.251 156.398 136.335 159.563L165.014 165.778C165.014 165.778 163.234 163.046 165.109 159.259L156.04 157.295L136.061 152.971Z" fill="#090814"/>
<path d="M165.017 165.777L181.029 158.946C181.029 158.946 181.923 159.139 181.344 159.794C180.765 160.449 165.326 166.433 165.326 166.433L136.339 159.563L165.017 165.777Z" fill="#3A3768"/>
<path d="M165.017 165.777L181.029 158.946C181.029 158.946 181.923 159.139 181.344 159.794C180.765 160.449 165.326 166.433 165.326 166.433L136.339 159.563L165.017 165.777Z" fill="#090814"/>
<path opacity="0.1" d="M163.705 159.949C163.705 159.949 162.161 161.802 163.705 164.581V159.949Z" fill="black"/>
<path opacity="0.1" d="M171.181 159.919L164.256 162.229L164.28 162.302L171.206 159.992L171.181 159.919Z" fill="black"/>
<path opacity="0.1" d="M172.568 159.688L164.254 162.85L164.281 162.922L172.596 159.761L172.568 159.688Z" fill="black"/>
<path opacity="0.1" d="M173.841 159.676L164.299 163.582L164.328 163.653L173.87 159.747L173.841 159.676Z" fill="black"/>
<path opacity="0.1" d="M175.227 159.342L164.411 164.228L164.443 164.298L175.259 159.412L175.227 159.342Z" fill="black"/>
<path opacity="0.1" d="M176.385 159.336L164.495 164.541L164.526 164.612L176.416 159.407L176.385 159.336Z" fill="black"/>
<path opacity="0.1" d="M178.936 158.91L164.676 165.069L164.706 165.14L178.967 158.981L178.936 158.91Z" fill="black"/>
<path d="M181.029 153.529C181.029 153.529 181.731 153.812 181.319 154.249C180.908 154.687 165.113 159.258 165.113 159.258L181.029 153.529Z" fill="#3A3768"/>
<path d="M180.912 145.859C180.912 145.859 179.163 149.693 180.552 152.922L166.579 157.284L165.242 157.567L164.624 154.865L165.037 151.455V149.589L180.912 145.859Z" fill="#D5D6DB"/>
<path d="M136.791 144.478L156.13 140.953L181.756 145.035L165.839 150.765L136.791 144.478Z" fill="#FF7700"/>
<path d="M136.792 144.478C136.792 144.478 134.98 147.904 137.064 151.069L165.743 157.284C165.743 157.284 163.962 154.552 165.837 150.765L136.792 144.478Z" fill="#FF7700"/>
<path opacity="0.1" d="M136.792 144.478C136.792 144.478 134.98 147.904 137.064 151.069L165.743 157.284C165.743 157.284 163.962 154.552 165.837 150.765L136.792 144.478Z" fill="black"/>
<path d="M165.746 157.284L181.756 152.15C181.756 152.15 182.652 152.343 182.073 152.998C181.494 153.654 166.054 157.939 166.054 157.939L137.067 151.069L165.746 157.284Z" fill="#FF7700"/>
<path opacity="0.1" d="M165.746 157.284L181.756 152.15C181.756 152.15 182.652 152.343 182.073 152.998C181.494 153.654 166.054 157.939 166.054 157.939L137.067 151.069L165.746 157.284Z" fill="black"/>
<path opacity="0.1" d="M171.909 151.424L164.983 153.735L165.008 153.808L171.933 151.498L171.909 151.424Z" fill="black"/>
<path opacity="0.1" d="M173.297 151.195L164.982 154.356L165.01 154.429L173.324 151.267L173.297 151.195Z" fill="black"/>
<path opacity="0.1" d="M174.568 151.183L165.026 155.088L165.056 155.16L174.598 151.254L174.568 151.183Z" fill="black"/>
<path opacity="0.1" d="M175.955 150.848L165.14 155.734L165.171 155.804L175.987 150.918L175.955 150.848Z" fill="black"/>
<path opacity="0.1" d="M177.115 150.843L165.225 156.048L165.256 156.119L177.146 150.913L177.115 150.843Z" fill="black"/>
<path opacity="0.1" d="M179.665 150.417L165.405 156.576L165.436 156.647L179.696 150.488L179.665 150.417Z" fill="black"/>
<path d="M181.757 145.035C181.757 145.035 182.459 145.318 182.047 145.756C181.634 146.194 165.841 150.765 165.841 150.765L181.757 145.035Z" fill="#FF7700"/>
<path opacity="0.1" d="M173.832 142.991C173.832 142.991 171.079 143.408 170.564 143.974L173.832 142.991Z" fill="black"/>
<path opacity="0.1" d="M167.212 145.703C167.491 145.493 167.787 145.309 168.098 145.152C168.55 144.908 168.988 144.641 169.411 144.35" fill="black"/>
<path d="M100.347 130.051C100.347 130.051 103.702 138.822 105.609 137.945C107.517 137.068 107 133.34 107.363 132.318C107.727 131.296 108.131 123.547 108.131 123.547C108.131 123.547 108.315 118.065 108.679 116.955C109.017 115.936 109.291 110.794 109.337 109.984V109.877L108.975 103.518L106.927 103.007L102.178 104.762L101.52 108.519L101.263 109.985L101.154 110.61L100.347 130.051Z" fill="#ED9DA0"/>
<path d="M74.1101 130.435C74.1101 130.435 70.7551 139.206 68.8475 138.329C66.9399 137.452 67.4573 133.724 67.0933 132.702C66.7292 131.68 66.3257 123.931 66.3257 123.931C66.3257 123.931 66.1416 118.449 65.7779 117.339C65.4402 116.319 65.1661 111.177 65.1201 110.368V110.261L65.4842 103.902L67.5323 103.391L72.2818 105.145L72.9396 108.901L73.1962 110.368L73.3058 110.993L74.1101 130.435Z" fill="#ED9DA0"/>
<path d="M72.7944 139.171C72.7944 139.171 70.2354 141.984 71.1849 142.495C72.1345 143.006 78.2763 152.582 78.2763 152.582C78.2763 152.582 98.4496 155.066 102.255 151.338C106.06 147.61 105.983 140.951 105.983 140.951C105.983 140.951 102.925 141.609 102.593 141.252C102.26 140.894 100.428 139.171 100.428 139.171C100.428 139.171 74.5484 137.601 72.7944 139.171Z" fill="#090814"/>
<path opacity="0.1" d="M109.126 110.588H65.1191V110.48L65.4832 104.121C65.4832 104.121 69.0531 100.297 72.1799 97.7163L99.8088 96.6206L101.094 95.2655L105.749 97.4007C109.404 99.0796 109.11 103.832 109.11 103.832C109.11 103.832 109.61 109.338 109.126 110.588Z" fill="black"/>
<path d="M109.126 110.369H65.1191V110.261L65.4832 103.902C65.4832 103.902 69.0531 100.078 72.1799 97.497L99.8088 96.4013L101.094 95.0461L105.749 97.1814C109.404 98.8603 109.11 103.613 109.11 103.613C109.11 103.613 109.61 109.119 109.126 110.369Z" fill="#D6D6E3"/>
<path d="M99.0308 94.0902L99.7655 105.293L100.553 109.021L101.153 111.871C101.153 111.871 102.688 133.799 102.249 134.895C101.81 135.992 102.469 136.869 102.561 137.452C102.653 138.035 102.469 139.5 102.541 140.158C102.613 140.816 102.541 141.107 100.862 140.873C99.183 140.638 96.8403 140.23 96.8403 140.23C96.8403 140.23 90.9199 140.669 88.8739 139.939C86.8279 139.209 82.9535 139.206 82.9535 139.206C82.9535 139.206 77.1054 139.353 75.2065 139.134C73.3076 138.915 72.2813 141.474 71.0403 140.742C69.7993 140.009 72.5006 132.922 73.3779 130.874C74.2552 128.826 72.2092 123.638 72.2092 123.638L74.8405 109.04L75.426 105.731V95.3287L75.5707 95.2783C76.1044 95.0701 76.6463 95.2315 77.0263 94.8026L77.6188 104.777L98.2307 105.51V93.7279" fill="#D6D6E3"/>
<path d="M96.7773 167.58L105.476 167.859L104.228 161.408L97.5645 162.042L96.7773 167.58Z" fill="#ED9DA0"/>
<path d="M123.73 152.29C123.144 153.02 120.879 154.336 120.66 154.775C120.441 155.213 117.737 156.529 116.347 156.748C114.956 156.967 110.573 157.919 109.768 158.43C109.192 158.798 104.563 159.965 101.521 160.612C100.698 160.807 99.864 160.957 99.0239 161.062C97.7082 161.134 83.3105 156.237 83.3105 156.237L86.0866 153.386L86.2402 153.333C87.0252 153.068 90.652 151.842 92.6649 151.259C94.9323 150.601 97.5636 147.897 97.5636 147.897C97.5636 147.897 101.436 146.582 101.949 146.435C102.462 146.288 100.633 141.319 100.633 141.319C100.633 141.319 109.038 140.153 112.327 139.163C115.617 138.173 123.219 138.54 124.607 142.415C125.995 146.289 124.324 151.56 123.73 152.29Z" fill="#090814"/>
<path d="M85.4292 164.642C85.4292 164.642 83.7503 166.396 82.0677 166.251C80.3851 166.107 74.5048 166.69 74.5048 166.69C73.439 167.115 72.441 167.693 71.5423 168.407C70.1674 169.49 66.8652 168.955 66.8652 168.955C66.8652 168.955 67.5955 161.939 67.3717 161.061C67.148 160.183 68.8168 158.677 68.8168 158.677L70.7904 158.175L75.7898 156.895L82.9536 159.379L85.4292 164.642Z" fill="#090814"/>
<path opacity="0.1" d="M101.52 160.612C100.697 160.806 99.863 160.957 99.023 161.061C97.7072 161.133 83.3096 156.236 83.3096 156.236L86.0856 153.386L86.2392 153.333C86.6778 153.642 87.0373 153.907 87.2939 154.109C88.5022 155.061 89.6686 153.817 90.1072 153.817C90.5459 153.817 94.3453 156.96 94.3453 156.96C94.3453 156.96 97.8537 157.765 98.4392 158.495C99.0247 159.225 101.071 159.081 101.435 159.591C101.544 159.75 101.557 160.138 101.52 160.612Z" fill="black"/>
<path d="M74.5051 141.618C74.5051 141.618 70.9573 141.822 68.9114 140.96C66.8654 140.098 60.0679 138.11 58.0944 139.506C56.1209 140.903 51.3692 142.138 53.5619 147.694C55.7545 153.251 56.7783 153.395 56.7783 153.395C57.4568 153.904 58.049 154.519 58.5325 155.216C59.1903 156.24 65.3301 158.577 66.865 158.577C68.3999 158.577 71.1037 158.577 74.9037 161.209C78.7037 163.84 82.1403 164.133 82.1403 164.133C82.1403 164.133 86.965 166.107 88.4672 166.545C89.9693 166.983 96.8326 168.882 98.442 168.299C100.051 167.716 101.073 164.058 101.073 164.058C101.073 164.058 101.804 160.769 101.437 160.258C101.071 159.748 99.0254 159.892 98.442 159.162C97.8586 158.433 94.3481 157.628 94.3481 157.628C94.3481 157.628 90.5568 154.483 90.1183 154.483C89.6799 154.483 88.5133 155.724 87.305 154.775C84.8982 152.992 82.3696 151.38 79.7377 149.95C76.9611 148.488 74.5051 141.618 74.5051 141.618Z" fill="#090814"/>
<path opacity="0.1" d="M67.3721 143.738C68.0038 143.609 68.6568 143.628 69.2801 143.792C69.9035 143.957 70.4804 144.263 70.966 144.688C72.7202 146.15 78.6231 149.086 78.6231 149.086" fill="black"/>
<path opacity="0.1" d="M111.231 143.646C111.231 143.646 103.41 144.83 101.949 146.438L111.231 143.646Z" fill="black"/>
<path d="M120.221 167.859H119.877C118.64 167.815 114.45 167.683 113.643 167.859C112.694 168.078 100.12 167.859 100.12 167.859L102.578 167.348C102.578 167.348 101.666 164.151 102.245 163.885C102.245 163.885 98.9558 161.719 101.436 160.256C103.916 158.794 106.589 159.41 106.589 159.41L112.814 157.3L114.009 156.894C114.009 156.894 121.025 157.26 122.925 162.084C124.825 166.908 120.221 167.859 120.221 167.859Z" fill="#090814"/>
<path d="M66.8281 104.012L70.7092 100.503C70.7092 100.503 85.7581 99.5168 86.3809 104.633C86.3809 104.633 91.716 98.5674 102.936 99.9182L107.683 103.699L94.562 109.457L81.8111 113.879L72.4194 109.676L66.8281 104.012Z" fill="#F2F2F2"/>
<path d="M65.1113 104.012L66.8291 124.551L85.0291 125.466L84.2389 105.014L84.2235 104.67L65.1113 104.012Z" fill="#FF7700"/>
<path d="M108.517 103.573L89.7422 106.389V127.02L108.089 124.369L108.517 103.573Z" fill="#FF7700"/>
<path opacity="0.3" d="M104.09 108.608L93.9482 109.735L94.1697 113.191L104.083 112.108L104.09 108.608Z" fill="white"/>
<path d="M67.8146 135.55L68.8474 138.329C68.8474 138.329 70.3823 139.644 72.0621 138.986C73.7419 138.328 75.2066 138.002 75.9367 137.361C76.6667 136.721 77.6909 133.504 77.6909 133.504C77.6909 133.504 78.7148 129.996 79.7367 129.119C80.7585 128.242 83.4644 116.157 79.7367 117.339C76.009 118.521 73.1583 129.485 73.1583 129.485C73.1583 129.485 72.5006 130.288 71.551 130.362C70.6014 130.437 68.7004 130.215 68.3346 131.02C67.9687 131.825 66.7182 133.943 67.8146 135.55Z" fill="#ED9DA0"/>
<path d="M89.7423 106.387C88.7811 106.603 87.7825 106.592 86.8264 106.354C85.8704 106.115 84.9834 105.657 84.2363 105.014L85.0279 125.464C85.0279 125.464 86.8917 127.481 89.7423 127.021V106.387Z" fill="#FF7700"/>
<path opacity="0.1" d="M89.7423 106.387C88.7811 106.603 87.7825 106.592 86.8264 106.354C85.8704 106.115 84.9834 105.657 84.2363 105.014L85.0279 125.464C85.0279 125.464 86.8917 127.481 89.7423 127.021V106.387Z" fill="black"/>
<path opacity="0.1" d="M90.1807 104.082C90.1807 104.082 97.8181 101.747 99.8091 102.076L90.1807 104.082Z" fill="black"/>
<path opacity="0.1" d="M81.6385 103.063C81.6385 103.063 74.2358 101.309 72.999 101.806L81.6385 103.063Z" fill="black"/>
<path opacity="0.1" d="M94.9961 104.374C94.9961 104.374 100.104 102.5 101.949 103.391L94.9961 104.374Z" fill="black"/>
<path opacity="0.1" d="M92.4238 151.349C93.2152 150.755 94.0576 150.232 94.9411 149.786C96.2567 149.152 98.6688 147.508 98.6688 147.508" fill="black"/>
<path opacity="0.1" d="M72.9984 128.972C72.9984 128.972 69.7946 131.593 68.8322 131.823C67.8697 132.053 67.2754 134.097 67.2754 134.097" fill="black"/>
<path d="M106.634 135.16L105.612 137.945C105.612 137.945 104.077 139.261 102.396 138.603C100.714 137.945 99.2535 137.618 98.5211 136.978C97.7887 136.338 96.7669 133.121 96.7669 133.121C96.7669 133.121 95.7451 129.612 94.7211 128.735C93.6971 127.858 90.9934 115.774 94.7211 116.956C98.4488 118.138 101.299 129.102 101.299 129.102C101.299 129.102 101.957 129.904 102.907 129.979C103.856 130.053 105.757 129.832 106.123 130.636C106.489 131.441 107.73 133.56 106.634 135.16Z" fill="#ED9DA0"/>
<path opacity="0.1" d="M102.129 129.213C102.129 129.213 104.951 131.51 105.802 131.713C106.652 131.915 107.174 133.706 107.174 133.706" fill="black"/>
</svg>
