<svg width="602" height="314" viewBox="0 0 602 314" fill="none" xmlns="http://www.w3.org/2000/svg">
<ellipse cx="301" cy="258.5" rx="301" ry="55.5" fill="#F2F2F2"/>
<g clip-path="url(#clip0_440_1432)">
<path d="M395.801 93.9207H385.803C385.482 93.9217 385.173 93.8023 384.935 93.5857C384.697 93.3692 384.549 93.0712 384.519 92.7503L382.518 72.1392H399.086L397.085 92.75C397.055 93.071 396.906 93.369 396.669 93.5856C396.431 93.8022 396.122 93.9217 395.801 93.9207Z" fill="#E6E6E6"/>
<path d="M399.059 74.7321H382.543C382.201 74.7317 381.873 74.595 381.631 74.352C381.389 74.1089 381.253 73.7794 381.253 73.4356V70.324C381.253 69.9802 381.389 69.6507 381.631 69.4076C381.873 69.1646 382.201 69.0279 382.543 69.0275H399.059C399.401 69.0279 399.729 69.1646 399.971 69.4076C400.213 69.6507 400.349 69.9802 400.349 70.324V73.4356C400.349 73.7794 400.213 74.1089 399.971 74.3519C399.729 74.595 399.401 74.7317 399.059 74.7321Z" fill="#CCCCCC"/>
<path d="M278.828 71.7791H239.221V59.6974C251.736 50.9455 262.826 51.7062 277.413 60.4081L278.828 71.7791Z" fill="#FF7700"/>
<path d="M230.05 286.375L221.378 286.375L220.082 252.768L230.051 252.768L230.05 286.375Z" fill="#FFB8B8"/>
<path d="M232.261 294.821L204.302 294.82V294.464C204.302 293.028 204.583 291.606 205.13 290.28C205.677 288.953 206.479 287.748 207.489 286.732C208.5 285.717 209.699 284.911 211.02 284.362C212.34 283.812 213.755 283.53 215.184 283.53L232.261 283.53L232.261 294.821Z" fill="#2F2E41"/>
<path d="M278.888 286.375L287.559 286.375L288.856 252.768L278.887 252.768L278.888 286.375Z" fill="#FFB8B8"/>
<path d="M276.677 283.53L293.753 283.53C295.182 283.53 296.598 283.812 297.918 284.362C299.239 284.911 300.438 285.717 301.449 286.732C302.459 287.748 303.261 288.953 303.808 290.28C304.355 291.606 304.636 293.028 304.636 294.464V294.82L276.677 294.821L276.677 283.53Z" fill="#2F2E41"/>
<path d="M279.117 282.068C278.393 282.065 277.692 281.817 277.127 281.362C276.563 280.907 276.169 280.273 276.009 279.564L254.517 185.371C254.47 185.132 254.34 184.917 254.151 184.764C253.962 184.611 253.725 184.531 253.482 184.537H253.477C253.233 184.532 252.995 184.615 252.806 184.769C252.617 184.924 252.489 185.141 252.444 185.381L232.708 278.94C232.554 279.655 232.161 280.297 231.595 280.758C231.029 281.219 230.323 281.472 229.594 281.474H220.193C219.759 281.474 219.33 281.385 218.931 281.212C218.533 281.04 218.174 280.787 217.877 280.47C217.579 280.153 217.349 279.778 217.201 279.368C217.053 278.958 216.99 278.523 217.015 278.087L224.018 159.506L226.836 158.668L226.889 158.669L282.238 159.155L294.027 277.607C294.068 278.029 294.025 278.455 293.9 278.861C293.776 279.267 293.572 279.643 293.301 279.969C293.03 280.295 292.697 280.563 292.322 280.758C291.946 280.953 291.536 281.07 291.115 281.104L279.372 282.057C279.286 282.064 279.201 282.068 279.117 282.068Z" fill="#2F2E41"/>
<path d="M256.259 50.1259C265.853 50.1259 273.63 42.3109 273.63 32.6707C273.63 23.0305 265.853 15.2156 256.259 15.2156C246.665 15.2156 238.888 23.0305 238.888 32.6707C238.888 42.3109 246.665 50.1259 256.259 50.1259Z" fill="#FFB8B8"/>
<path d="M245.618 172.507C242.57 172.545 239.535 172.116 236.616 171.234C234.02 170.448 231.612 169.135 229.54 167.379C227.467 165.622 225.774 163.457 224.566 161.018C224.183 160.284 224.098 159.43 224.329 158.634C226.245 152.064 235.503 117.911 229.596 90.7618C228.762 86.9902 228.693 83.0885 229.392 79.2895C230.091 75.4904 231.545 71.8718 233.666 68.6494C235.738 65.4523 238.429 62.7073 241.58 60.578C244.73 58.4488 248.275 56.9789 252.003 56.2562L252.004 56.2554C252.983 56.0632 253.969 55.9056 254.931 55.7863C259.052 55.2766 263.234 55.6884 267.179 56.9924C271.123 58.2963 274.731 60.4601 277.746 63.329C280.851 66.2541 283.273 69.8327 284.84 73.8086C286.407 77.7844 287.08 82.0592 286.81 86.327L282.27 159.53C282.239 160.079 282.066 160.61 281.769 161.072C281.472 161.533 281.06 161.909 280.574 162.162C275.346 164.915 259.639 172.507 245.618 172.507Z" fill="#3F3D56"/>
<path d="M275.884 19.8222C274.079 15.2653 270.774 11.4682 266.519 9.06462C262.265 6.66104 257.319 5.7964 252.506 6.61504L257.983 11.0624C251.178 11.2926 244.015 10.803 239.156 15.5961C240.703 15.5529 242.731 18.8775 244.277 18.8344C241.385 18.8919 238.763 20.9336 237.486 23.5414C236.303 26.2205 236.026 29.2154 236.698 32.0675C237.269 34.9168 241.626 41.5919 242.799 44.2487C242.597 37.3052 256.201 20.7433 262.844 22.4717C259.469 23.73 256.54 25.9644 254.427 28.8929C258.947 26.6011 264.058 25.7608 269.069 26.4858C270.213 26.7494 271.393 26.8158 272.559 26.6821C273.274 26.5401 273.94 26.2163 274.495 25.7416C275.05 25.267 275.474 24.6573 275.727 23.9709C275.981 23.2845 276.055 22.5443 275.942 21.821C275.83 21.0977 275.535 20.4154 275.085 19.8393L275.884 19.8222Z" fill="#2F2E41"/>
<path d="M244.421 168.112C243.982 168.111 243.548 168.019 243.146 167.841L210.187 153.386C209.487 153.084 208.919 152.539 208.587 151.85C208.255 151.161 208.182 150.374 208.381 149.636L230.201 66.8131C230.606 65.272 231.314 63.8277 232.282 62.5647C233.25 61.3017 234.459 60.2454 235.838 59.4577C237.217 58.6699 238.739 58.1665 240.314 57.9769C241.889 57.7873 243.486 57.9154 245.011 58.3536L253.736 60.8555L247.594 165.099C247.562 165.613 247.408 166.113 247.144 166.554C246.88 166.996 246.513 167.367 246.076 167.636C245.579 167.946 245.006 168.11 244.421 168.112Z" fill="#FF7700"/>
<path d="M305.422 149.635L303.971 144.141L301.871 136.153L300.86 132.322L298.759 124.356L283.602 66.8114C283.198 65.2697 282.491 63.8246 281.524 62.561C280.556 61.2973 279.347 60.2407 277.967 59.4529C276.588 58.6651 275.066 58.1622 273.49 57.9735C271.914 57.7849 270.317 57.9143 268.792 58.3543L260.071 60.8559L264.393 134.177L264.838 141.831L265.121 146.657V146.664L265.574 154.275L266.211 165.099C266.262 165.912 266.619 166.674 267.208 167.234C267.797 167.793 268.576 168.107 269.386 168.112C269.824 168.11 270.257 168.018 270.659 167.842L303.618 153.387C304.318 153.085 304.887 152.539 305.218 151.85C305.55 151.16 305.622 150.373 305.422 149.635Z" fill="#FF7700"/>
<path d="M300.859 132.322L264.839 141.831L264.393 134.177L298.76 124.355L300.859 132.322Z" fill="#CCCCCC"/>
<path d="M303.971 144.141L265.573 154.275L265.121 146.664V146.657L301.871 136.153L303.971 144.141Z" fill="#CCCCCC"/>
<path d="M248.967 135.826L248.521 143.338L213.193 132.763L215.265 124.903L248.967 135.826Z" fill="#CCCCCC"/>
<path d="M248.231 148.284L212.182 136.594L210.109 144.475L247.793 155.754L248.231 148.284Z" fill="#CCCCCC"/>
<path d="M212.81 156.14C213.885 155.858 214.885 155.343 215.741 154.631C216.596 153.919 217.285 153.027 217.76 152.018C218.235 151.009 218.484 149.907 218.49 148.791C218.495 147.675 218.257 146.571 217.792 145.558L234.74 92.0959L222.722 89.5669L207.184 141.982C205.541 142.88 204.283 144.352 203.648 146.119C203.013 147.887 203.046 149.827 203.739 151.572C204.433 153.317 205.739 154.746 207.411 155.588C209.083 156.43 211.004 156.627 212.81 156.14Z" fill="#FFB8B8"/>
<path d="M235.21 65.8135C238.661 66.1672 240.602 70.0659 239.744 74.9203L235.627 98.2154C235.318 99.9616 233.888 101.344 232.699 101.046L218.773 97.5477C217.701 97.2785 217.306 95.7487 217.914 94.2179L226.274 73.1437C228.09 68.567 231.865 65.4706 235.21 65.8135Z" fill="#3F3D56"/>
<path d="M256.195 4.00907e-10C262.074 0.000633636 267.723 2.30054 271.944 6.41272C276.165 10.5249 278.627 16.1264 278.81 22.0312H283.071C283.447 22.0312 283.806 22.181 284.072 22.4475C284.337 22.7141 284.486 23.0756 284.486 23.4526V29.1381C284.486 29.515 284.337 29.8765 284.072 30.1431C283.806 30.4096 283.447 30.5594 283.071 30.5594H234.977C234.602 30.5594 234.242 30.4096 233.977 30.1431C233.712 29.8765 233.563 29.515 233.563 29.1381V22.7419C233.562 19.7553 234.148 16.7981 235.285 14.0389C236.423 11.2797 238.09 8.77268 240.191 6.6609C242.293 4.54912 244.788 2.87396 247.534 1.73108C250.28 0.5882 253.223 -1.77321e-05 256.195 4.00907e-10Z" fill="#FF7700"/>
<path d="M258.899 140.577H248.902C248.581 140.578 248.271 140.458 248.034 140.242C247.796 140.025 247.648 139.727 247.617 139.406L245.616 118.795H262.185L260.184 139.406C260.154 139.727 260.005 140.025 259.768 140.242C259.53 140.458 259.22 140.578 258.899 140.577Z" fill="#E6E6E6"/>
<path d="M262.159 121.388H245.643C245.301 121.388 244.973 121.251 244.731 121.008C244.489 120.765 244.353 120.435 244.353 120.092V116.98C244.353 116.636 244.489 116.307 244.731 116.064C244.973 115.821 245.301 115.684 245.643 115.684H262.159C262.501 115.684 262.829 115.821 263.07 116.064C263.312 116.307 263.448 116.636 263.449 116.98V120.092C263.448 120.435 263.312 120.765 263.07 121.008C262.829 121.251 262.501 121.388 262.159 121.388Z" fill="#CCCCCC"/>
<path d="M254.115 129.523C254.504 129.568 254.889 129.644 255.266 129.75L281.892 106.806L280.335 98.3881L292.672 94.3673L296.869 109.001C297.208 110.183 297.156 111.444 296.721 112.594C296.286 113.745 295.492 114.722 294.457 115.38L260.736 136.821C260.76 138.336 260.325 139.822 259.487 141.082C258.65 142.342 257.451 143.316 256.05 143.875C254.648 144.433 253.111 144.549 251.642 144.208C250.173 143.867 248.842 143.085 247.826 141.966C246.811 140.846 246.158 139.442 245.956 137.941C245.754 136.44 246.011 134.912 246.694 133.562C247.376 132.211 248.452 131.101 249.778 130.38C251.104 129.658 252.617 129.36 254.115 129.523Z" fill="#FFB8B8"/>
<path d="M281.961 67.7377C285.647 66.7009 289.33 69.52 290.564 74.3228L296.487 97.3704C296.931 99.0981 296.068 100.934 294.722 101.129L278.945 103.409C277.731 103.585 276.661 102.333 276.617 100.686L276.004 78.0058C275.871 73.0804 278.387 68.7429 281.961 67.7377Z" fill="#3F3D56"/>
<path d="M494.024 214.961C486.76 205.252 481.018 194.483 476.996 183.028C476.763 182.343 476.78 181.597 477.043 180.923C477.306 180.249 477.799 179.691 478.433 179.347L503.291 165.964C503.693 165.746 504.139 165.623 504.596 165.604C505.052 165.586 505.507 165.672 505.926 165.857C506.352 166.043 506.73 166.324 507.032 166.679C507.334 167.034 507.551 167.454 507.666 167.906C510.56 178.944 515.998 189.143 523.542 197.677C523.852 198.025 524.08 198.439 524.207 198.888C524.334 199.337 524.358 199.809 524.276 200.269C524.197 200.721 524.017 201.15 523.748 201.521C523.48 201.893 523.131 202.198 522.727 202.414L497.87 215.797C497.234 216.138 496.499 216.241 495.795 216.088C495.09 215.934 494.463 215.535 494.024 214.961Z" fill="#CCCCCC"/>
<path d="M495.721 213.68C495.854 213.848 496.042 213.963 496.252 214.007C496.461 214.05 496.679 214.019 496.868 213.918L521.725 200.534C521.846 200.471 521.951 200.381 522.031 200.27C522.111 200.16 522.164 200.032 522.187 199.897C522.213 199.755 522.206 199.608 522.166 199.469C522.126 199.33 522.054 199.202 521.957 199.095C514.191 190.31 508.593 179.81 505.614 168.447C505.58 168.307 505.513 168.176 505.42 168.066C505.327 167.955 505.21 167.868 505.078 167.811C504.954 167.755 504.818 167.729 504.682 167.735C504.545 167.74 504.412 167.778 504.293 167.844L479.436 181.227C479.248 181.329 479.101 181.494 479.021 181.694C478.941 181.893 478.933 182.114 478.998 182.319C482.947 193.569 488.587 204.145 495.721 213.68Z" fill="white"/>
<path d="M504.922 185.064L491.384 191.069C490.869 191.296 490.285 191.309 489.761 191.105C489.236 190.901 488.814 190.496 488.586 189.979L488.251 189.217C488.025 188.7 488.012 188.113 488.215 187.586C488.418 187.059 488.821 186.634 489.336 186.405L502.874 180.4C503.389 180.173 503.972 180.16 504.497 180.364C505.022 180.568 505.444 180.973 505.672 181.49L506.007 182.252C506.233 182.77 506.246 183.356 506.043 183.883C505.84 184.41 505.437 184.835 504.922 185.064Z" fill="#CCCCCC"/>
<path d="M509.874 194.302L496.335 200.307C495.82 200.535 495.237 200.548 494.712 200.344C494.187 200.14 493.765 199.735 493.537 199.218L493.202 198.456C492.976 197.938 492.963 197.352 493.166 196.825C493.369 196.298 493.772 195.873 494.287 195.644L507.825 189.639C508.34 189.412 508.924 189.398 509.448 189.603C509.973 189.807 510.395 190.212 510.623 190.729L510.958 191.491C511.184 192.008 511.198 192.595 510.994 193.122C510.791 193.649 510.388 194.074 509.874 194.302Z" fill="#CCCCCC"/>
<path d="M478.121 186.604C477.187 186 476.396 185.198 475.804 184.254C475.211 183.31 474.832 182.246 474.693 181.139C474.554 180.032 474.659 178.907 474.999 177.845C475.339 176.782 475.907 175.807 476.663 174.989L470.953 93.575L487.399 95.1776L487.851 174.907C489.135 176.274 489.875 178.066 489.931 179.944C489.987 181.822 489.356 183.656 488.157 185.098C486.957 186.54 485.273 187.49 483.424 187.767C481.574 188.045 479.687 187.631 478.121 186.604Z" fill="#A0616A"/>
<path d="M474.677 120.931C474.291 120.653 473.973 120.291 473.746 119.873C473.518 119.455 473.387 118.991 473.362 118.515L472.157 96.5714C472.038 94.3974 472.724 92.256 474.083 90.5601C475.442 88.8643 477.377 87.734 479.516 87.3874C481.656 87.0407 483.847 87.5021 485.667 88.6826C487.488 89.8631 488.809 91.6792 489.376 93.7806L494.67 113.399C494.89 114.218 494.778 115.09 494.358 115.826C493.938 116.562 493.245 117.1 492.431 117.323L477.373 121.425C476.915 121.551 476.436 121.571 475.969 121.486C475.502 121.401 475.061 121.211 474.677 120.931Z" fill="#3F3D56"/>
<path d="M446.647 286.696H437.975L433.851 253.089H446.648L446.647 286.696Z" fill="#A0616A"/>
<path d="M431.782 284.206H448.505V294.786H421.253C421.253 293.396 421.525 292.021 422.054 290.737C422.584 289.453 423.359 288.287 424.337 287.305C425.315 286.322 426.475 285.543 427.753 285.011C429.03 284.48 430.399 284.206 431.782 284.206Z" fill="#2F2E41"/>
<path d="M479.181 286.696H470.51L466.385 253.089H479.182L479.181 286.696Z" fill="#A0616A"/>
<path d="M464.316 284.206H481.039V294.786H453.787C453.787 293.396 454.059 292.021 454.589 290.737C455.118 289.453 455.893 288.287 456.871 287.305C457.849 286.322 459.009 285.543 460.287 285.011C461.564 284.48 462.933 284.206 464.316 284.206Z" fill="#2F2E41"/>
<path d="M446.236 269.765L436.691 269.308C435.878 269.269 435.11 268.919 434.546 268.329C433.982 267.739 433.665 266.954 433.659 266.136C431.143 227.106 427.658 185.255 432.993 169.088C432.99 168.627 433.086 168.171 433.274 167.751C433.463 167.331 433.739 166.957 434.085 166.654C434.431 166.351 434.837 166.127 435.277 165.997C435.717 165.867 436.179 165.834 436.633 165.9L474.821 171.47C475.576 171.576 476.267 171.952 476.768 172.529C477.268 173.107 477.545 173.846 477.547 174.611C482.422 193.755 482.643 228.468 482.458 264.537C482.461 264.959 482.382 265.378 482.223 265.768C482.064 266.159 481.831 266.515 481.535 266.814C481.239 267.114 480.887 267.351 480.499 267.514C480.111 267.676 479.696 267.759 479.276 267.76H468.985C468.226 267.763 467.491 267.492 466.913 266.996C466.336 266.5 465.956 265.812 465.841 265.058L459.492 224.501C459.399 223.908 459.096 223.368 458.638 222.982C458.18 222.596 457.598 222.389 457 222.401C456.403 222.412 455.829 222.64 455.386 223.043C454.942 223.445 454.659 223.996 454.588 224.592L449.548 266.951C449.453 267.727 449.08 268.441 448.498 268.96C447.916 269.479 447.165 269.767 446.387 269.769C446.337 269.769 446.287 269.768 446.236 269.765Z" fill="#2F2E41"/>
<path d="M452.956 174.616C444.54 169.917 437.964 168.682 434.793 168.364C434.372 168.324 433.963 168.197 433.592 167.993C433.221 167.788 432.895 167.51 432.634 167.176C432.367 166.838 432.171 166.45 432.058 166.035C431.945 165.619 431.916 165.185 431.975 164.758L441.126 96.4965C441.652 92.503 443.187 88.7114 445.585 85.4824C447.982 82.2534 451.161 79.6946 454.821 78.0493C458.363 76.413 462.263 75.7148 466.15 76.0209C470.037 76.327 473.781 77.6274 477.026 79.7982C477.339 80.0078 477.647 80.2218 477.949 80.4402C481.686 83.1917 484.529 86.9933 486.12 91.3658C487.71 95.7384 487.977 100.486 486.886 105.011C481.275 128.076 479.348 165.89 479.018 173.236C478.993 173.862 478.783 174.466 478.415 174.973C478.048 175.479 477.54 175.865 476.955 176.082C473.502 177.343 469.859 177.994 466.186 178.009C461.559 178.037 457.003 176.868 452.956 174.616Z" fill="#3F3D56"/>
<path d="M460.611 68.7806C470.204 68.7806 477.982 60.9657 477.982 51.3255C477.982 41.6853 470.204 33.8704 460.611 33.8704C451.017 33.8704 443.239 41.6853 443.239 51.3255C443.239 60.9657 451.017 68.7806 460.611 68.7806Z" fill="#A0616A"/>
<path d="M472.903 65.1352C469.662 68.6039 463.643 66.7418 463.221 62.0031C463.188 61.6352 463.19 61.2649 463.228 60.8975C463.446 58.7984 464.653 56.8927 464.364 54.6764C464.299 54.1248 464.094 53.5991 463.77 53.1492C461.188 49.6744 455.126 54.7034 452.688 51.5578C451.194 49.629 452.951 46.5921 451.804 44.4364C450.29 41.5911 445.807 42.9947 442.995 41.4364C439.867 39.7027 440.055 34.8802 442.114 31.9469C444.625 28.3696 449.028 26.4608 453.376 26.1857C457.724 25.9106 462.042 27.0916 466.101 28.6812C470.713 30.4873 475.287 32.9833 478.125 37.0584C481.577 42.0141 481.909 48.6766 480.183 54.4714C479.133 57.9964 475.549 62.3026 472.903 65.1352Z" fill="#2F2E41"/>
<path d="M486.66 82.1053C486.355 80.6697 483.746 78.7083 480.011 77.1092C474.009 74.6663 467.517 73.6826 461.064 74.2384C454.612 74.7941 448.381 76.8735 442.88 80.3073C442.496 80.328 442.129 80.4749 441.837 80.7253C441.544 80.9757 441.342 81.3157 441.26 81.6931L428.699 137.517L427.065 144.788L425.983 149.599L424.349 156.848L423.479 160.721C423.423 160.969 423.421 161.226 423.472 161.474C423.523 161.723 423.627 161.957 423.775 162.163C423.924 162.368 424.114 162.539 424.334 162.664C424.554 162.789 424.798 162.866 425.049 162.889L479.29 167.594C479.339 167.594 479.396 167.601 479.445 167.601C479.893 167.598 480.323 167.425 480.648 167.116C480.974 166.808 481.171 166.386 481.199 165.938L481.716 158.042L482.268 149.599L482.508 145.939L483.053 137.517L486.667 82.1977V82.148L486.66 82.1053Z" fill="#FF7700"/>
<path d="M397.66 85.6192C397.747 86.0027 397.804 86.3924 397.829 86.7849L428.212 104.397L435.597 100.125L443.47 110.481L427.671 121.796L393.009 94.319C391.596 94.8446 390.056 94.9254 388.596 94.5504C387.135 94.1755 385.823 93.3627 384.833 92.2201C383.844 91.0775 383.224 89.6593 383.056 88.154C382.888 86.6488 383.18 85.1279 383.894 83.7935C384.607 82.4592 385.708 81.3746 387.049 80.6842C388.391 79.9938 389.91 79.7301 391.404 79.9283C392.899 80.1265 394.298 80.7771 395.415 81.7937C396.533 82.8103 397.316 84.1446 397.66 85.6192Z" fill="#A0616A"/>
<path d="M429.297 102.899C429.247 102.425 429.303 101.946 429.461 101.497C429.619 101.047 429.876 100.639 430.212 100.303L445.675 84.7614C447.207 83.2217 449.253 82.3065 451.416 82.1923C453.58 82.0781 455.71 82.7729 457.394 84.1428C459.078 85.5127 460.198 87.4607 460.537 89.6111C460.877 91.7615 460.412 93.9621 459.232 95.7885L448.22 112.839C447.76 113.55 447.038 114.048 446.213 114.225C445.387 114.402 444.526 114.242 443.818 113.781L430.73 105.247C430.332 104.988 429.996 104.643 429.748 104.237C429.5 103.83 429.346 103.373 429.297 102.899Z" fill="#3F3D56"/>
<path d="M483.052 137.517L482.507 145.939L427.064 144.788L428.698 137.517H483.052Z" fill="#CCCCCC"/>
<path d="M482.268 149.599L481.715 158.042L424.349 156.848L425.983 149.599H482.268Z" fill="#CCCCCC"/>
<path d="M460.95 17.4117C455.071 17.4124 449.423 19.7123 445.202 23.8245C440.98 27.9366 438.518 33.5382 438.335 39.443H434.074C433.699 39.443 433.339 39.5927 433.074 39.8593C432.808 40.1258 432.659 40.4874 432.659 40.8643V46.5498C432.659 46.9268 432.808 47.2883 433.074 47.5548C433.339 47.8214 433.699 47.9712 434.074 47.9712H482.168C482.543 47.9712 482.903 47.8214 483.168 47.5548C483.434 47.2883 483.583 46.9268 483.583 46.5498V40.1536C483.583 37.1671 482.997 34.2098 481.86 31.4506C480.723 28.6915 479.055 26.1844 476.954 24.0726C474.852 21.9609 472.357 20.2857 469.611 19.1428C466.865 17.9999 463.922 17.4117 460.95 17.4117Z" fill="#FF7700"/>
<path d="M107.466 243.805C102.99 245.386 98.1839 245.782 93.5112 244.955C88.8384 244.128 84.4563 242.105 80.7872 239.082C71.4427 231.201 68.5129 218.218 66.1291 206.195L59.0781 170.636L73.84 180.849C84.4559 188.194 95.3109 195.775 102.661 206.414C110.012 217.052 113.22 231.575 107.314 243.087" fill="#E6E6E6"/>
<path d="M106.205 286.857C107.699 275.921 109.235 264.845 108.187 253.792C107.256 243.976 104.276 234.389 98.2083 226.527C94.9876 222.363 91.0687 218.794 86.6276 215.983C85.4695 215.248 84.4036 217.092 85.5567 217.824C93.241 222.704 99.1846 229.909 102.53 238.402C106.226 247.847 106.819 258.143 106.182 268.175C105.797 274.243 104.981 280.27 104.159 286.29C104.094 286.562 104.134 286.849 104.272 287.092C104.409 287.336 104.634 287.518 104.9 287.601C105.171 287.675 105.46 287.638 105.704 287.498C105.949 287.359 106.128 287.128 106.205 286.857Z" fill="#F2F2F2"/>
<path d="M91.8134 267.506C89.8936 270.438 87.2548 272.823 84.1511 274.433C81.0473 276.043 77.5834 276.822 74.0929 276.696C65.1225 276.268 57.644 269.977 50.912 264.005L31 246.339L44.1784 245.705C53.6556 245.249 63.3773 244.824 72.4039 247.761C81.4306 250.698 89.7555 257.765 91.406 267.154" fill="#E6E6E6"/>
<path d="M110.427 293.143C103.235 280.357 94.8939 266.147 79.9893 261.605C75.8451 260.347 71.4996 259.896 67.1869 260.277C65.8277 260.395 66.1671 262.5 67.5239 262.382C74.7529 261.779 81.968 263.697 87.9545 267.814C93.7151 271.754 98.2004 277.231 101.997 283.04C104.322 286.598 106.405 290.307 108.488 294.011C109.154 295.195 111.1 294.341 110.427 293.143Z" fill="#F2F2F2"/>
<path d="M556.293 296H52.7161C52.5285 296 52.3486 295.925 52.216 295.792C52.0833 295.659 52.0088 295.478 52.0088 295.289C52.0088 295.101 52.0833 294.92 52.216 294.787C52.3486 294.653 52.5285 294.579 52.7161 294.579H556.293C556.481 294.579 556.66 294.653 556.793 294.787C556.926 294.92 557 295.101 557 295.289C557 295.478 556.926 295.659 556.793 295.792C556.66 295.925 556.481 296 556.293 296Z" fill="#CCCCCC"/>
</g>
<defs>
<clipPath id="clip0_440_1432">
<rect width="526" height="296" fill="white" transform="translate(31)"/>
</clipPath>
</defs>
</svg>
