<svg width="250" height="192" viewBox="0 0 250 192" fill="none" xmlns="http://www.w3.org/2000/svg">
<path d="M7.12109 173.821C-6.81304 154.661 -8.3793 107.32 79.6207 90.82C132.621 90.82 115.278 77.1522 153.621 46.3201C202.121 7.3204 245.121 67.8205 245.121 131.32C245.121 194.844 208.121 192.32 140.121 182.82C72.1208 173.32 35.1213 212.321 7.12109 173.821Z" fill="#FCEAD2"/>
<g clip-path="url(#clip0_440_1435)">
<path d="M195.533 57.8206H48.7094C48.0173 57.8273 47.3561 58.1082 46.8709 58.6018C46.3857 59.0953 46.116 59.7611 46.1212 60.4531V160.194C46.1172 160.885 46.3873 161.549 46.8724 162.042C47.3576 162.534 48.0181 162.814 48.7094 162.821H195.533C196.224 162.814 196.885 162.534 197.37 162.042C197.855 161.549 198.125 160.885 198.121 160.194V60.4531C198.126 59.7612 197.857 59.0954 197.371 58.6019C196.886 58.1084 196.225 57.8274 195.533 57.8206H195.533Z" fill="#090814"/>
<path d="M191.289 58.4221H48.9599C48.2939 58.4233 47.6556 58.6887 47.1851 59.16C46.7146 59.6312 46.4503 60.2699 46.4502 60.9358V156.18C46.4512 156.845 46.7159 157.483 47.1863 157.953C47.6568 158.423 48.2946 158.688 48.9599 158.689H191.289C191.954 158.688 192.592 158.423 193.062 157.953C193.533 157.483 193.797 156.845 193.798 156.18V60.936C193.798 60.2703 193.534 59.6318 193.064 59.1606C192.594 58.6893 191.956 58.4238 191.29 58.4222L191.289 58.4221Z" fill="white"/>
<path d="M72.358 81.6146C75.0655 81.6146 77.7121 82.4174 79.9633 83.9214C82.2145 85.4254 83.969 87.5631 85.0051 90.0642C86.0412 92.5653 86.3123 95.3174 85.7841 97.9725C85.2559 100.628 83.9522 103.066 82.0377 104.981C80.1232 106.895 77.6841 108.199 75.0287 108.727C72.3732 109.255 69.6208 108.984 67.1195 107.948C64.6181 106.912 62.4802 105.157 60.976 102.907C59.4718 100.656 58.6689 98.0093 58.6689 95.3022C58.6689 91.672 60.1112 88.1905 62.6784 85.6236C65.2456 83.0567 68.7275 81.6146 72.358 81.6146Z" fill="#FF7700"/>
<path d="M60.19 117.925H81.4841C81.8875 117.925 82.2744 118.085 82.5596 118.37C82.8449 118.655 83.0051 119.042 83.0051 119.445C83.0051 119.849 82.8449 120.236 82.5596 120.521C82.2744 120.806 81.8875 120.966 81.4841 120.966H60.19C59.7866 120.966 59.3997 120.806 59.1144 120.521C58.8292 120.236 58.6689 119.849 58.6689 119.445C58.6689 119.042 58.8292 118.655 59.1144 118.37C59.3997 118.085 59.7866 117.925 60.19 117.925Z" fill="#D6D6E3"/>
<path d="M60.19 122.487H69.316C69.7194 122.487 70.1063 122.647 70.3915 122.933C70.6768 123.218 70.837 123.605 70.837 124.008C70.837 124.411 70.6768 124.798 70.3915 125.083C70.1063 125.369 69.7194 125.529 69.316 125.529H60.19C59.7866 125.529 59.3997 125.369 59.1144 125.083C58.8292 124.798 58.6689 124.411 58.6689 124.008C58.6689 123.605 58.8292 123.218 59.1144 122.933C59.3997 122.647 59.7866 122.487 60.19 122.487Z" fill="#D6D6E3"/>
<path d="M59.0492 131.422H85.6669C85.7677 131.422 85.8645 131.462 85.9358 131.533C86.0071 131.605 86.0471 131.701 86.0471 131.802V135.224C86.0471 135.325 86.0071 135.422 85.9358 135.493C85.8645 135.564 85.7677 135.604 85.6669 135.604H59.0492C58.9483 135.604 58.8516 135.564 58.7803 135.493C58.709 135.422 58.6689 135.325 58.6689 135.224V131.802C58.6689 131.701 58.709 131.605 58.7803 131.533C58.8516 131.462 58.9483 131.422 59.0492 131.422Z" fill="#D6D6E3"/>
<path d="M98.2153 83.7514C97.5864 83.7514 97.0746 84.0685 97.0746 84.4584V93.4143C97.0746 93.8042 97.5864 94.1213 98.2153 94.1213H133.199C133.828 94.1213 134.339 93.8042 134.339 93.4143V84.4584C134.339 84.0685 133.828 83.7514 133.199 83.7514H98.2153ZM98.2153 83.5157H133.199C134.039 83.5157 134.72 83.9377 134.72 84.4584V93.4143C134.72 93.9349 134.039 94.357 133.199 94.357H98.2153C97.3754 94.357 96.6943 93.9349 96.6943 93.4143V84.4584C96.6943 83.9377 97.3754 83.5157 98.2153 83.5157Z" fill="#D6D6E3"/>
<path d="M144.987 83.7514C144.358 83.7514 143.846 84.0685 143.846 84.4584V93.4143C143.846 93.8042 144.358 94.1213 144.987 94.1213H179.97C180.599 94.1213 181.111 93.8042 181.111 93.4143V84.4584C181.111 84.0685 180.599 83.7514 179.97 83.7514H144.987ZM144.987 83.5157H179.97C180.81 83.5157 181.491 83.9377 181.491 84.4584V93.4143C181.491 93.9349 180.81 94.357 179.97 94.357H144.987C144.147 94.357 143.466 93.9349 143.466 93.4143V84.4584C143.466 83.9377 144.147 83.5157 144.987 83.5157Z" fill="#D6D6E3"/>
<path d="M97.2795 101.55H101.486C101.641 101.551 101.79 101.613 101.899 101.722C102.009 101.832 102.071 101.98 102.072 102.135V106.343C102.071 106.498 102.009 106.646 101.899 106.755C101.79 106.865 101.641 106.926 101.486 106.927H97.2786C97.1237 106.927 96.9752 106.865 96.8657 106.756C96.7561 106.646 96.6945 106.498 96.6943 106.343V102.136C96.6946 101.98 96.7563 101.832 96.866 101.722C96.9757 101.612 97.1244 101.55 97.2795 101.55ZM101.486 106.737C101.591 106.737 101.692 106.696 101.766 106.622C101.84 106.548 101.882 106.447 101.883 106.342V102.135C101.882 102.03 101.84 101.929 101.766 101.855C101.691 101.781 101.591 101.739 101.486 101.738H97.2803C97.1751 101.739 97.0743 101.78 96.9999 101.855C96.9256 101.929 96.8837 102.03 96.8835 102.135V106.342C96.8836 106.447 96.9253 106.548 96.9994 106.622C97.0735 106.696 97.174 106.737 97.2788 106.737L101.486 106.737Z" fill="#D6D6E3"/>
<path d="M101.485 108.814H97.2792C97.2146 108.814 97.1507 108.826 97.0911 108.851C97.0315 108.876 96.9774 108.912 96.9318 108.958C96.8862 109.004 96.85 109.058 96.8253 109.117C96.8007 109.177 96.788 109.241 96.7881 109.305V113.512C96.7882 113.576 96.801 113.64 96.8258 113.7C96.8505 113.759 96.8867 113.813 96.9323 113.858C96.9779 113.904 97.0321 113.94 97.0916 113.964C97.1511 113.989 97.2148 114.001 97.2792 114.001H101.485C101.615 114.001 101.739 113.95 101.831 113.858C101.924 113.766 101.976 113.642 101.976 113.512V109.305C101.976 109.175 101.924 109.051 101.832 108.959C101.74 108.866 101.615 108.815 101.485 108.814L101.485 108.814Z" fill="#D6D6E3"/>
<path d="M101.485 115.983H97.2792C97.1489 115.983 97.0241 116.035 96.932 116.127C96.8399 116.219 96.7881 116.344 96.7881 116.475V120.68C96.7879 120.745 96.8005 120.808 96.8252 120.868C96.8498 120.928 96.8859 120.982 96.9316 121.028C96.9772 121.073 97.0314 121.109 97.0911 121.134C97.1507 121.159 97.2146 121.171 97.2792 121.171H101.485C101.615 121.171 101.74 121.119 101.832 121.027C101.924 120.935 101.976 120.81 101.976 120.68V116.475C101.976 116.344 101.924 116.22 101.832 116.128C101.74 116.036 101.615 115.984 101.485 115.983Z" fill="#D6D6E3"/>
<path d="M101.969 123.557C101.948 123.444 101.888 123.341 101.8 123.268C101.712 123.194 101.6 123.153 101.485 123.153H97.2792C97.1489 123.153 97.0241 123.204 96.932 123.297C96.8399 123.389 96.7881 123.514 96.7881 123.644V127.849C96.7879 127.914 96.8005 127.978 96.8252 128.037C96.8498 128.097 96.8859 128.151 96.9316 128.197C96.9772 128.242 97.0314 128.279 97.0911 128.303C97.1507 128.328 97.2146 128.34 97.2792 128.34H101.485C101.615 128.34 101.74 128.288 101.832 128.196C101.924 128.104 101.976 127.979 101.976 127.849V123.645C101.977 123.615 101.974 123.586 101.969 123.558L101.969 123.557Z" fill="#D6D6E3"/>
<path d="M101.676 130.36C101.616 130.335 101.551 130.322 101.486 130.322H97.2792C97.2146 130.322 97.1507 130.334 97.0911 130.359C97.0314 130.384 96.9772 130.42 96.9316 130.466C96.886 130.511 96.8498 130.565 96.8252 130.625C96.8005 130.685 96.7879 130.749 96.7881 130.813V135.019C96.7878 135.083 96.8002 135.147 96.8248 135.207C96.8494 135.267 96.8855 135.321 96.9312 135.367C96.9769 135.413 97.0311 135.449 97.0909 135.473C97.1506 135.498 97.2146 135.51 97.2792 135.51H101.485C101.615 135.51 101.74 135.458 101.832 135.366C101.924 135.274 101.976 135.149 101.976 135.019V130.814C101.976 130.717 101.947 130.622 101.894 130.542C101.841 130.461 101.765 130.398 101.676 130.36V130.36Z" fill="#D6D6E3"/>
<path d="M110.32 101.644H106.114C105.984 101.644 105.859 101.696 105.767 101.788C105.675 101.88 105.623 102.005 105.623 102.135V106.343C105.623 106.407 105.636 106.471 105.661 106.53C105.686 106.59 105.722 106.644 105.767 106.689C105.813 106.734 105.867 106.77 105.927 106.795C105.986 106.819 106.05 106.832 106.114 106.831H110.32C110.45 106.832 110.575 106.78 110.667 106.689C110.759 106.597 110.811 106.473 110.811 106.343V102.135C110.811 102.005 110.759 101.881 110.667 101.789C110.575 101.696 110.45 101.645 110.32 101.644Z" fill="#D6D6E3"/>
<path d="M110.32 108.814H106.114C106.05 108.814 105.986 108.826 105.926 108.851C105.867 108.876 105.812 108.912 105.767 108.958C105.721 109.003 105.685 109.058 105.66 109.117C105.636 109.177 105.623 109.241 105.623 109.305V113.512C105.623 113.576 105.636 113.64 105.661 113.7C105.686 113.759 105.722 113.813 105.767 113.858C105.813 113.904 105.867 113.94 105.927 113.964C105.986 113.989 106.05 114.001 106.114 114.001H110.32C110.45 114.001 110.575 113.95 110.667 113.858C110.759 113.766 110.811 113.642 110.811 113.512V109.305C110.811 109.175 110.759 109.051 110.667 108.959C110.575 108.866 110.45 108.815 110.32 108.814V108.814Z" fill="#FF7700"/>
<path d="M110.32 115.983H106.114C105.984 115.983 105.859 116.035 105.767 116.127C105.675 116.219 105.623 116.344 105.623 116.475V120.68C105.623 120.745 105.635 120.809 105.66 120.868C105.685 120.928 105.721 120.982 105.767 121.028C105.812 121.073 105.866 121.11 105.926 121.134C105.986 121.159 106.05 121.171 106.114 121.171H110.32C110.45 121.171 110.575 121.119 110.667 121.027C110.76 120.935 110.811 120.81 110.811 120.68V116.475C110.811 116.344 110.759 116.22 110.667 116.128C110.575 116.036 110.45 115.984 110.32 115.983Z" fill="#FF7700"/>
<path d="M110.32 123.153H106.114C106.011 123.153 105.911 123.185 105.827 123.245C105.744 123.306 105.682 123.391 105.649 123.489C105.632 123.539 105.623 123.591 105.623 123.644V127.849C105.623 127.914 105.636 127.978 105.66 128.037C105.685 128.097 105.721 128.151 105.767 128.197C105.812 128.243 105.866 128.279 105.926 128.303C105.986 128.328 106.05 128.341 106.114 128.34H110.32C110.45 128.34 110.575 128.289 110.667 128.197C110.76 128.104 110.811 127.98 110.811 127.849V123.645C110.811 123.514 110.759 123.389 110.667 123.297C110.575 123.205 110.45 123.153 110.32 123.153Z" fill="#FF7700"/>
<path d="M110.32 130.322H106.114C106.05 130.322 105.986 130.335 105.926 130.359C105.866 130.384 105.812 130.42 105.767 130.466C105.721 130.512 105.685 130.566 105.66 130.625C105.635 130.685 105.623 130.749 105.623 130.814V135.019C105.623 135.084 105.636 135.148 105.66 135.207C105.685 135.267 105.721 135.321 105.767 135.367C105.812 135.412 105.866 135.449 105.926 135.473C105.986 135.498 106.05 135.51 106.114 135.51H110.32C110.45 135.51 110.575 135.458 110.667 135.366C110.76 135.274 110.811 135.149 110.811 135.019V130.814C110.811 130.683 110.76 130.558 110.667 130.466C110.575 130.374 110.45 130.322 110.32 130.322Z" fill="#D6D6E3"/>
<path d="M119.155 101.644H114.949C114.819 101.644 114.694 101.696 114.602 101.788C114.51 101.88 114.458 102.005 114.458 102.135V106.343C114.458 106.407 114.471 106.471 114.496 106.53C114.52 106.59 114.557 106.644 114.602 106.689C114.648 106.734 114.702 106.77 114.762 106.795C114.821 106.819 114.885 106.832 114.949 106.831H119.155C119.285 106.832 119.41 106.78 119.502 106.689C119.594 106.597 119.646 106.473 119.646 106.343V102.135C119.646 102.005 119.594 101.881 119.502 101.789C119.41 101.696 119.285 101.645 119.155 101.644H119.155Z" fill="#FF7700"/>
<path d="M119.155 108.814H114.949C114.885 108.814 114.821 108.826 114.761 108.851C114.701 108.876 114.647 108.912 114.602 108.958C114.556 109.004 114.52 109.058 114.495 109.117C114.471 109.177 114.458 109.241 114.458 109.305V113.512C114.458 113.576 114.471 113.64 114.496 113.7C114.52 113.759 114.557 113.813 114.602 113.858C114.648 113.904 114.702 113.94 114.761 113.964C114.821 113.989 114.885 114.001 114.949 114.001H119.155C119.285 114.001 119.409 113.95 119.502 113.858C119.594 113.766 119.646 113.642 119.646 113.512V109.305C119.646 109.175 119.594 109.051 119.502 108.959C119.41 108.866 119.285 108.815 119.155 108.814L119.155 108.814Z" fill="#FF7700"/>
<path d="M119.155 115.983H114.949C114.819 115.983 114.694 116.035 114.602 116.127C114.51 116.219 114.458 116.344 114.458 116.475V120.68C114.458 120.745 114.47 120.809 114.495 120.868C114.52 120.928 114.556 120.982 114.602 121.028C114.647 121.073 114.701 121.11 114.761 121.134C114.821 121.159 114.885 121.171 114.949 121.171H119.155C119.285 121.171 119.41 121.119 119.502 121.027C119.595 120.935 119.646 120.81 119.646 120.68V116.475C119.646 116.344 119.594 116.22 119.502 116.128C119.41 116.036 119.286 115.984 119.155 115.983H119.155Z" fill="#D6D6E3"/>
<path d="M119.155 123.153H114.949C114.819 123.153 114.694 123.205 114.602 123.297C114.51 123.389 114.458 123.514 114.458 123.644V127.849C114.458 127.914 114.47 127.978 114.495 128.037C114.52 128.097 114.556 128.151 114.602 128.197C114.647 128.243 114.701 128.279 114.761 128.303C114.821 128.328 114.885 128.341 114.949 128.34H119.155C119.285 128.34 119.41 128.289 119.502 128.197C119.595 128.104 119.646 127.98 119.646 127.849V123.645C119.646 123.514 119.594 123.389 119.502 123.297C119.41 123.205 119.286 123.153 119.155 123.153H119.155Z" fill="#FF7700"/>
<path d="M119.155 130.322H114.949C114.885 130.322 114.821 130.335 114.761 130.359C114.701 130.384 114.647 130.42 114.601 130.466C114.556 130.512 114.52 130.566 114.495 130.625C114.47 130.685 114.458 130.749 114.458 130.814V135.019C114.458 135.084 114.47 135.148 114.495 135.207C114.52 135.267 114.556 135.321 114.602 135.367C114.647 135.412 114.701 135.449 114.761 135.473C114.821 135.498 114.885 135.51 114.949 135.51H119.155C119.285 135.51 119.41 135.458 119.502 135.366C119.594 135.274 119.646 135.149 119.646 135.019V130.814C119.646 130.683 119.595 130.558 119.502 130.466C119.41 130.374 119.285 130.322 119.155 130.322Z" fill="#FF7700"/>
<path d="M127.99 101.644H123.784C123.654 101.644 123.529 101.696 123.437 101.788C123.345 101.88 123.293 102.005 123.293 102.135V106.343C123.293 106.407 123.306 106.471 123.331 106.53C123.355 106.59 123.392 106.643 123.437 106.689C123.483 106.734 123.537 106.77 123.597 106.795C123.656 106.819 123.72 106.832 123.784 106.831H127.99C128.12 106.832 128.245 106.78 128.337 106.689C128.429 106.597 128.481 106.473 128.481 106.343V102.135C128.481 102.005 128.429 101.881 128.337 101.789C128.245 101.696 128.12 101.645 127.99 101.644Z" fill="#FF7700"/>
<path d="M123.784 108.719H127.99C128.145 108.72 128.293 108.782 128.403 108.892C128.513 109.002 128.575 109.15 128.576 109.305V113.513C128.575 113.668 128.513 113.816 128.403 113.925C128.293 114.035 128.145 114.096 127.99 114.097H123.783C123.628 114.097 123.479 114.035 123.37 113.926C123.26 113.816 123.198 113.668 123.198 113.513V109.305C123.198 109.15 123.26 109.001 123.37 108.891C123.48 108.781 123.629 108.72 123.784 108.719ZM127.99 113.907C128.095 113.907 128.195 113.865 128.27 113.791C128.344 113.717 128.386 113.617 128.387 113.512V109.305C128.386 109.2 128.344 109.099 128.27 109.025C128.195 108.95 128.095 108.909 127.989 108.908H123.784C123.679 108.908 123.578 108.95 123.504 109.024C123.429 109.099 123.387 109.2 123.387 109.305V113.513C123.387 113.618 123.429 113.718 123.503 113.792C123.577 113.866 123.678 113.908 123.783 113.908L127.99 113.907Z" fill="#D6D6E3"/>
<path d="M123.785 115.889H127.991C128.146 115.89 128.294 115.952 128.404 116.061C128.513 116.171 128.575 116.319 128.576 116.474V120.68C128.576 120.835 128.514 120.984 128.405 121.094C128.295 121.204 128.146 121.265 127.991 121.266H123.784C123.707 121.266 123.631 121.251 123.56 121.221C123.489 121.192 123.425 121.149 123.37 121.094C123.261 120.984 123.199 120.835 123.199 120.68V116.475C123.199 116.319 123.261 116.171 123.371 116.061C123.481 115.951 123.63 115.889 123.785 115.889L123.785 115.889ZM127.991 121.076C128.096 121.076 128.197 121.034 128.271 120.96C128.345 120.886 128.387 120.785 128.387 120.68V116.475C128.387 116.369 128.345 116.269 128.27 116.195C128.196 116.12 128.095 116.078 127.99 116.078H123.785C123.679 116.078 123.579 116.12 123.504 116.194C123.43 116.269 123.388 116.37 123.388 116.475V120.68C123.388 120.785 123.43 120.886 123.504 120.961C123.54 120.998 123.584 121.027 123.632 121.047C123.68 121.067 123.731 121.077 123.783 121.077L127.991 121.076Z" fill="#D6D6E3"/>
<path d="M127.99 123.153H123.784C123.654 123.153 123.529 123.205 123.437 123.297C123.345 123.389 123.293 123.514 123.293 123.644V127.849C123.293 127.914 123.305 127.978 123.33 128.037C123.355 128.097 123.391 128.151 123.437 128.197C123.482 128.243 123.536 128.279 123.596 128.303C123.656 128.328 123.72 128.341 123.784 128.34H127.99C128.12 128.34 128.245 128.289 128.337 128.197C128.43 128.104 128.481 127.98 128.481 127.849V123.645C128.481 123.514 128.429 123.389 128.337 123.297C128.245 123.205 128.12 123.153 127.99 123.153Z" fill="#D6D6E3"/>
<path d="M127.99 130.322H123.784C123.72 130.322 123.656 130.335 123.596 130.359C123.536 130.384 123.482 130.42 123.436 130.466C123.391 130.512 123.355 130.566 123.33 130.625C123.305 130.685 123.293 130.749 123.293 130.814V135.019C123.293 135.084 123.305 135.148 123.33 135.207C123.355 135.267 123.391 135.321 123.437 135.367C123.482 135.412 123.536 135.449 123.596 135.473C123.656 135.498 123.72 135.51 123.784 135.51H127.99C128.12 135.51 128.245 135.458 128.337 135.366C128.43 135.274 128.481 135.149 128.481 135.019V130.814C128.481 130.683 128.429 130.558 128.337 130.466C128.245 130.374 128.12 130.322 127.99 130.322Z" fill="#FF7700"/>
<path d="M132.617 101.55H136.825C136.98 101.551 137.128 101.613 137.238 101.722C137.348 101.832 137.41 101.98 137.411 102.135V106.343C137.41 106.498 137.348 106.646 137.238 106.755C137.128 106.865 136.98 106.926 136.825 106.927H132.617C132.462 106.926 132.314 106.865 132.204 106.755C132.095 106.646 132.033 106.498 132.033 106.343V102.136C132.033 101.981 132.095 101.832 132.204 101.722C132.314 101.613 132.462 101.551 132.617 101.55ZM136.825 106.737C136.93 106.737 137.03 106.696 137.105 106.622C137.179 106.547 137.221 106.447 137.222 106.342V102.135C137.221 102.03 137.179 101.929 137.104 101.855C137.03 101.781 136.929 101.739 136.824 101.738H132.617C132.512 101.739 132.412 101.781 132.338 101.855C132.264 101.93 132.222 102.03 132.222 102.135V106.342C132.222 106.447 132.264 106.547 132.338 106.621C132.412 106.695 132.512 106.737 132.617 106.737L136.825 106.737Z" fill="#D6D6E3"/>
<path d="M132.617 108.719H136.825C136.98 108.72 137.128 108.782 137.238 108.892C137.348 109.002 137.41 109.15 137.411 109.305V113.513C137.41 113.668 137.348 113.816 137.238 113.925C137.128 114.035 136.98 114.096 136.825 114.097H132.617C132.462 114.096 132.314 114.035 132.204 113.925C132.095 113.816 132.033 113.668 132.033 113.513V109.305C132.033 109.15 132.095 109.002 132.204 108.892C132.314 108.782 132.462 108.72 132.617 108.719ZM132.617 113.907H136.825C136.93 113.907 137.03 113.865 137.104 113.791C137.179 113.717 137.221 113.617 137.221 113.512V109.305C137.221 109.2 137.179 109.099 137.104 109.025C137.03 108.95 136.929 108.909 136.824 108.908H132.617C132.512 108.909 132.412 108.951 132.338 109.025C132.264 109.099 132.222 109.2 132.222 109.305V113.513C132.222 113.618 132.264 113.718 132.338 113.792C132.412 113.866 132.512 113.908 132.617 113.908L132.617 113.907Z" fill="#D6D6E3"/>
<path d="M132.617 115.889H136.825C136.98 115.89 137.128 115.952 137.238 116.061C137.348 116.171 137.41 116.319 137.411 116.474V120.68C137.41 120.835 137.349 120.984 137.239 121.094C137.129 121.204 136.98 121.265 136.825 121.266H132.617C132.54 121.265 132.464 121.25 132.393 121.221C132.322 121.191 132.258 121.148 132.204 121.094C132.149 121.039 132.106 120.975 132.077 120.904C132.048 120.833 132.033 120.756 132.033 120.68V116.475C132.033 116.32 132.095 116.171 132.204 116.061C132.314 115.952 132.462 115.89 132.617 115.889ZM132.617 121.076H136.824C136.93 121.076 137.03 121.034 137.105 120.96C137.179 120.886 137.221 120.785 137.221 120.68V116.475C137.221 116.369 137.178 116.269 137.104 116.195C137.03 116.12 136.929 116.078 136.824 116.078H132.617C132.512 116.078 132.412 116.12 132.338 116.195C132.264 116.269 132.222 116.37 132.222 116.475V120.68C132.222 120.732 132.232 120.783 132.252 120.831C132.271 120.88 132.3 120.923 132.337 120.96C132.374 120.997 132.417 121.026 132.465 121.046C132.513 121.066 132.565 121.077 132.617 121.077L132.617 121.076Z" fill="#D6D6E3"/>
<path d="M136.825 123.153H132.618C132.488 123.153 132.363 123.205 132.272 123.297C132.18 123.389 132.129 123.514 132.129 123.644V127.849C132.129 127.914 132.141 127.977 132.166 128.037C132.19 128.096 132.226 128.151 132.271 128.196C132.317 128.242 132.371 128.278 132.43 128.303C132.49 128.328 132.553 128.34 132.618 128.34H136.825C136.956 128.34 137.081 128.289 137.173 128.197C137.265 128.104 137.317 127.98 137.317 127.849V123.645C137.316 123.514 137.264 123.39 137.172 123.298C137.08 123.206 136.956 123.154 136.825 123.153V123.153Z" fill="#FF7700"/>
<path d="M136.825 130.322H132.618C132.553 130.322 132.49 130.335 132.43 130.36C132.371 130.385 132.317 130.421 132.272 130.467C132.226 130.512 132.19 130.566 132.166 130.626C132.141 130.685 132.129 130.749 132.129 130.814V135.019C132.129 135.083 132.141 135.147 132.166 135.207C132.19 135.266 132.226 135.32 132.271 135.366C132.317 135.412 132.371 135.448 132.43 135.473C132.49 135.497 132.553 135.51 132.618 135.51H136.825C136.956 135.51 137.081 135.458 137.173 135.366C137.265 135.274 137.317 135.149 137.317 135.019V130.814C137.317 130.683 137.265 130.558 137.173 130.466C137.081 130.374 136.956 130.322 136.825 130.322Z" fill="#D6D6E3"/>
<path d="M141.452 101.55H145.66C145.815 101.551 145.964 101.613 146.073 101.722C146.183 101.832 146.245 101.98 146.246 102.135V106.343C146.245 106.498 146.183 106.646 146.074 106.755C145.964 106.865 145.815 106.926 145.66 106.927H141.452C141.297 106.927 141.149 106.865 141.039 106.755C140.93 106.646 140.868 106.498 140.868 106.343V102.136C140.868 101.981 140.93 101.832 141.039 101.722C141.148 101.613 141.297 101.551 141.452 101.55ZM145.66 106.737C145.765 106.737 145.866 106.696 145.94 106.622C146.015 106.547 146.057 106.447 146.057 106.342V102.135C146.056 102.03 146.014 101.929 145.94 101.855C145.866 101.781 145.765 101.739 145.66 101.738H141.452C141.347 101.739 141.247 101.781 141.173 101.855C141.099 101.93 141.057 102.03 141.057 102.135V106.342C141.057 106.447 141.099 106.547 141.173 106.621C141.247 106.695 141.347 106.737 141.452 106.737L145.66 106.737Z" fill="#D6D6E3"/>
<path d="M141.452 108.719H145.66C145.815 108.72 145.964 108.782 146.073 108.892C146.183 109.002 146.245 109.15 146.246 109.305V113.513C146.245 113.668 146.183 113.816 146.074 113.925C145.964 114.035 145.815 114.096 145.66 114.097H141.452C141.297 114.096 141.149 114.035 141.039 113.925C140.93 113.816 140.868 113.668 140.868 113.513V109.305C140.868 109.15 140.93 109.002 141.039 108.892C141.148 108.782 141.297 108.72 141.452 108.719ZM141.452 113.907H145.66C145.765 113.907 145.866 113.865 145.94 113.791C146.015 113.717 146.057 113.617 146.057 113.512V109.305C146.056 109.2 146.014 109.099 145.94 109.025C145.866 108.95 145.765 108.909 145.66 108.908H141.452C141.347 108.909 141.247 108.951 141.173 109.025C141.099 109.099 141.057 109.2 141.057 109.305V113.513C141.057 113.618 141.099 113.718 141.173 113.792C141.247 113.866 141.347 113.908 141.452 113.908L141.452 113.907Z" fill="#D6D6E3"/>
<path d="M145.659 115.983H141.452C141.322 115.984 141.197 116.036 141.106 116.128C141.014 116.22 140.963 116.345 140.963 116.475V120.68C140.963 120.744 140.975 120.808 141 120.868C141.024 120.927 141.06 120.981 141.105 121.027C141.151 121.073 141.205 121.109 141.264 121.134C141.324 121.158 141.387 121.171 141.452 121.171H145.659C145.79 121.171 145.915 121.119 146.007 121.027C146.099 120.935 146.151 120.81 146.151 120.68V116.475C146.15 116.344 146.098 116.22 146.006 116.128C145.914 116.036 145.79 115.984 145.659 115.983Z" fill="#FF7700"/>
<path d="M145.659 123.153H141.452C141.322 123.153 141.198 123.205 141.106 123.297C141.014 123.39 140.963 123.514 140.963 123.644V127.849C140.963 127.914 140.975 127.977 141 128.037C141.024 128.096 141.06 128.151 141.105 128.196C141.151 128.242 141.205 128.278 141.264 128.303C141.324 128.328 141.387 128.34 141.452 128.34H145.659C145.79 128.34 145.915 128.289 146.007 128.197C146.099 128.104 146.151 127.98 146.151 127.849V123.645C146.15 123.514 146.098 123.39 146.006 123.298C145.914 123.206 145.79 123.154 145.659 123.153V123.153Z" fill="#D6D6E3"/>
<path d="M141.452 130.228H145.66C145.816 130.228 145.964 130.29 146.074 130.4C146.184 130.509 146.246 130.658 146.246 130.814V135.019C146.246 135.174 146.184 135.323 146.074 135.433C145.964 135.543 145.816 135.604 145.66 135.605H141.452C141.375 135.605 141.299 135.589 141.228 135.56C141.157 135.53 141.093 135.487 141.038 135.433C140.984 135.378 140.941 135.314 140.912 135.243C140.883 135.171 140.868 135.095 140.868 135.018V130.814C140.868 130.737 140.883 130.661 140.912 130.59C140.941 130.519 140.984 130.454 141.039 130.4C141.093 130.345 141.157 130.302 141.228 130.273C141.299 130.243 141.375 130.228 141.452 130.228ZM145.66 135.415C145.766 135.415 145.866 135.373 145.941 135.299C146.015 135.225 146.057 135.124 146.057 135.018V130.813C146.057 130.708 146.015 130.607 145.941 130.533C145.866 130.459 145.765 130.417 145.66 130.417H141.453C141.401 130.417 141.349 130.427 141.301 130.447C141.253 130.467 141.21 130.496 141.173 130.533C141.136 130.57 141.107 130.614 141.087 130.662C141.067 130.71 141.057 130.761 141.058 130.813V135.019C141.057 135.071 141.067 135.122 141.087 135.17C141.107 135.218 141.136 135.262 141.173 135.299C141.209 135.336 141.253 135.365 141.301 135.385C141.349 135.405 141.4 135.415 141.452 135.415H145.66Z" fill="#D6D6E3"/>
<path d="M154.495 101.644H150.287C150.157 101.645 150.032 101.697 149.941 101.789C149.849 101.881 149.798 102.006 149.798 102.135V106.343C149.798 106.407 149.811 106.47 149.835 106.53C149.86 106.589 149.896 106.643 149.941 106.688C149.986 106.734 150.04 106.77 150.1 106.794C150.159 106.819 150.222 106.831 150.287 106.831H154.495C154.624 106.832 154.749 106.78 154.841 106.689C154.933 106.597 154.985 106.473 154.986 106.343V102.135C154.985 102.005 154.934 101.881 154.842 101.789C154.75 101.697 154.625 101.645 154.495 101.644Z" fill="#FF7700"/>
<path d="M154.495 108.814H150.287C150.157 108.814 150.032 108.866 149.941 108.958C149.849 109.05 149.798 109.175 149.798 109.305V113.512C149.798 113.576 149.811 113.64 149.835 113.699C149.86 113.758 149.896 113.812 149.941 113.858C149.986 113.903 150.04 113.939 150.1 113.964C150.159 113.988 150.222 114.001 150.287 114.001H154.495C154.624 114.001 154.749 113.95 154.841 113.858C154.933 113.766 154.985 113.642 154.986 113.512V109.305C154.986 109.175 154.934 109.05 154.842 108.958C154.75 108.866 154.625 108.814 154.494 108.814H154.495Z" fill="#FF7700"/>
<path d="M154.495 115.983H150.287C150.157 115.984 150.032 116.036 149.941 116.128C149.849 116.22 149.798 116.345 149.798 116.475V120.68C149.798 120.744 149.81 120.808 149.835 120.868C149.859 120.927 149.895 120.981 149.94 121.027C149.986 121.073 150.04 121.109 150.099 121.134C150.159 121.158 150.222 121.171 150.287 121.171H154.494C154.625 121.171 154.75 121.119 154.842 121.027C154.934 120.935 154.986 120.81 154.986 120.68V116.475C154.985 116.344 154.934 116.22 154.842 116.128C154.75 116.036 154.625 115.984 154.495 115.983Z" fill="#D6D6E3"/>
<path d="M150.287 123.058H154.495C154.65 123.059 154.799 123.121 154.908 123.231C155.018 123.34 155.08 123.489 155.081 123.644V127.849C155.081 128.005 155.019 128.153 154.909 128.263C154.799 128.373 154.65 128.435 154.495 128.435H150.287C150.21 128.435 150.134 128.42 150.063 128.39C149.992 128.361 149.928 128.318 149.874 128.263C149.819 128.209 149.776 128.144 149.747 128.073C149.718 128.002 149.703 127.926 149.703 127.849V123.644C149.703 123.489 149.765 123.341 149.874 123.231C149.983 123.121 150.131 123.059 150.286 123.058H150.287ZM154.495 128.246C154.6 128.246 154.701 128.204 154.775 128.129C154.85 128.055 154.892 127.954 154.892 127.849V123.644C154.891 123.539 154.849 123.438 154.775 123.364C154.7 123.29 154.6 123.248 154.495 123.247H150.287C150.182 123.248 150.082 123.29 150.008 123.364C149.934 123.438 149.892 123.539 149.892 123.644V127.849C149.892 127.901 149.902 127.953 149.921 128.001C149.941 128.049 149.97 128.093 150.007 128.13C150.044 128.166 150.087 128.196 150.135 128.216C150.183 128.236 150.235 128.246 150.287 128.246L154.495 128.246Z" fill="#D6D6E3"/>
<path d="M154.495 130.322H150.287C150.222 130.322 150.159 130.335 150.099 130.36C150.04 130.385 149.986 130.421 149.94 130.467C149.895 130.512 149.859 130.566 149.835 130.626C149.81 130.685 149.798 130.749 149.798 130.814V135.019C149.798 135.083 149.81 135.147 149.835 135.207C149.859 135.266 149.895 135.32 149.94 135.366C149.986 135.412 150.04 135.448 150.099 135.473C150.159 135.497 150.222 135.51 150.287 135.51H154.494C154.625 135.51 154.75 135.458 154.842 135.366C154.934 135.274 154.986 135.149 154.986 135.019V130.814C154.986 130.683 154.934 130.559 154.842 130.466C154.75 130.374 154.625 130.323 154.495 130.322Z" fill="#FF7700"/>
<path d="M163.329 101.644H159.122C158.992 101.645 158.867 101.697 158.776 101.789C158.684 101.881 158.633 102.006 158.633 102.135V106.343C158.633 106.472 158.684 106.597 158.776 106.688C158.868 106.78 158.992 106.831 159.122 106.831H163.33C163.459 106.832 163.584 106.78 163.676 106.689C163.768 106.597 163.82 106.473 163.821 106.343V102.135C163.82 102.005 163.769 101.881 163.676 101.788C163.584 101.696 163.46 101.645 163.329 101.644Z" fill="#FF7700"/>
<path d="M163.329 108.814H159.122C158.992 108.814 158.867 108.866 158.776 108.958C158.684 109.05 158.633 109.175 158.633 109.305V113.512C158.633 113.642 158.684 113.766 158.776 113.858C158.868 113.949 158.992 114.001 159.122 114.001H163.33C163.459 114.001 163.584 113.95 163.676 113.858C163.768 113.766 163.82 113.642 163.821 113.512V109.305C163.821 109.175 163.769 109.05 163.677 108.958C163.585 108.866 163.46 108.814 163.329 108.814Z" fill="#FF7700"/>
<path d="M163.329 115.983H159.122C158.992 115.984 158.867 116.036 158.776 116.128C158.684 116.22 158.633 116.345 158.633 116.475V120.68C158.633 120.744 158.645 120.808 158.67 120.868C158.694 120.927 158.73 120.981 158.775 121.027C158.821 121.073 158.875 121.109 158.934 121.134C158.994 121.158 159.057 121.171 159.122 121.171H163.329C163.46 121.171 163.585 121.119 163.677 121.027C163.769 120.935 163.821 120.81 163.821 120.68V116.475C163.82 116.344 163.768 116.22 163.676 116.128C163.584 116.036 163.46 115.984 163.329 115.983Z" fill="#D6D6E3"/>
<path d="M163.329 123.153H159.122C158.992 123.153 158.867 123.205 158.776 123.297C158.684 123.389 158.633 123.514 158.633 123.644V127.849C158.633 127.914 158.645 127.977 158.67 128.037C158.694 128.096 158.73 128.151 158.775 128.196C158.821 128.242 158.875 128.278 158.934 128.303C158.994 128.328 159.057 128.34 159.122 128.34H163.329C163.46 128.34 163.585 128.289 163.677 128.197C163.769 128.104 163.821 127.98 163.821 127.849V123.645C163.82 123.514 163.768 123.39 163.676 123.298C163.584 123.206 163.46 123.154 163.329 123.153V123.153Z" fill="#FF7700"/>
<path d="M163.329 130.322H159.122C159.057 130.322 158.994 130.335 158.934 130.36C158.875 130.385 158.821 130.421 158.775 130.467C158.73 130.512 158.694 130.566 158.67 130.626C158.645 130.685 158.633 130.749 158.633 130.814V135.019C158.633 135.083 158.645 135.147 158.67 135.207C158.694 135.266 158.73 135.32 158.775 135.366C158.821 135.412 158.875 135.448 158.934 135.473C158.994 135.497 159.057 135.51 159.122 135.51H163.329C163.46 135.51 163.585 135.458 163.677 135.366C163.769 135.274 163.821 135.149 163.821 135.019V130.814C163.821 130.683 163.769 130.558 163.677 130.466C163.585 130.374 163.46 130.322 163.329 130.322Z" fill="#FF7700"/>
<path d="M172.164 101.644H167.957C167.827 101.645 167.702 101.697 167.611 101.789C167.519 101.881 167.468 102.006 167.468 102.135V106.343C167.468 106.472 167.519 106.597 167.611 106.688C167.703 106.78 167.827 106.831 167.957 106.831H172.164C172.294 106.832 172.419 106.78 172.511 106.689C172.603 106.597 172.655 106.473 172.656 106.343V102.135C172.655 102.005 172.603 101.881 172.511 101.789C172.419 101.696 172.294 101.645 172.164 101.644Z" fill="#D6D6E3"/>
<path d="M172.164 108.814H167.957C167.827 108.814 167.702 108.866 167.611 108.958C167.519 109.05 167.468 109.175 167.468 109.305V113.512C167.468 113.642 167.519 113.766 167.611 113.858C167.703 113.949 167.827 114.001 167.957 114.001H172.164C172.294 114.001 172.419 113.949 172.511 113.858C172.603 113.766 172.655 113.642 172.656 113.512V109.305C172.655 109.175 172.604 109.05 172.511 108.958C172.419 108.866 172.294 108.814 172.164 108.814H172.164Z" fill="#FF7700"/>
<path d="M172.164 115.983H167.957C167.827 115.984 167.702 116.036 167.611 116.128C167.519 116.22 167.468 116.345 167.468 116.475V120.68C167.468 120.744 167.48 120.808 167.505 120.868C167.529 120.927 167.565 120.981 167.61 121.027C167.656 121.073 167.71 121.109 167.769 121.134C167.829 121.158 167.892 121.171 167.957 121.171H172.164C172.295 121.171 172.419 121.119 172.512 121.027C172.604 120.935 172.656 120.81 172.656 120.68V116.475C172.655 116.344 172.603 116.22 172.511 116.128C172.419 116.036 172.294 115.984 172.164 115.983Z" fill="#FF7700"/>
<path d="M172.164 123.153H167.957C167.827 123.153 167.702 123.205 167.611 123.297C167.519 123.389 167.468 123.514 167.468 123.644V127.849C167.468 127.914 167.48 127.977 167.505 128.037C167.529 128.096 167.565 128.151 167.61 128.196C167.656 128.242 167.71 128.278 167.769 128.303C167.829 128.328 167.892 128.34 167.957 128.34H172.164C172.295 128.34 172.419 128.289 172.512 128.197C172.604 128.104 172.656 127.98 172.656 127.849V123.645C172.655 123.514 172.603 123.39 172.511 123.298C172.419 123.206 172.295 123.154 172.164 123.153L172.164 123.153Z" fill="#FF7700"/>
<path d="M172.164 130.322H167.957C167.892 130.322 167.829 130.335 167.769 130.36C167.71 130.385 167.656 130.421 167.61 130.467C167.565 130.512 167.529 130.566 167.505 130.626C167.48 130.685 167.468 130.749 167.468 130.814V135.019C167.468 135.083 167.48 135.147 167.505 135.207C167.529 135.266 167.565 135.32 167.61 135.366C167.656 135.412 167.71 135.448 167.769 135.473C167.829 135.497 167.892 135.51 167.957 135.51H172.164C172.295 135.51 172.419 135.458 172.512 135.366C172.604 135.274 172.656 135.149 172.656 135.019V130.814C172.656 130.683 172.604 130.558 172.512 130.466C172.419 130.374 172.295 130.322 172.164 130.322Z" fill="#D6D6E3"/>
<path d="M180.999 101.644H176.792C176.662 101.645 176.537 101.697 176.446 101.789C176.354 101.881 176.303 102.006 176.303 102.135V106.343C176.303 106.472 176.354 106.597 176.446 106.688C176.538 106.78 176.662 106.831 176.792 106.831H180.999C181.129 106.832 181.254 106.78 181.346 106.689C181.438 106.597 181.49 106.473 181.491 106.343V102.135C181.49 102.005 181.438 101.881 181.346 101.789C181.254 101.696 181.129 101.645 180.999 101.644Z" fill="#D6D6E3"/>
<path d="M180.999 108.814H176.792C176.662 108.814 176.537 108.866 176.446 108.958C176.354 109.05 176.303 109.175 176.303 109.305V113.512C176.303 113.642 176.354 113.766 176.446 113.858C176.538 113.949 176.662 114.001 176.792 114.001H180.999C181.129 114.001 181.254 113.95 181.346 113.858C181.438 113.766 181.49 113.642 181.491 113.512V109.305C181.49 109.175 181.438 109.05 181.346 108.958C181.254 108.866 181.13 108.814 180.999 108.814Z" fill="#D6D6E3"/>
<path d="M180.999 115.983H176.792C176.662 115.984 176.537 116.036 176.446 116.128C176.354 116.22 176.303 116.345 176.303 116.475V120.68C176.303 120.744 176.315 120.808 176.339 120.868C176.364 120.927 176.4 120.981 176.445 121.027C176.491 121.073 176.545 121.109 176.604 121.134C176.663 121.158 176.727 121.171 176.792 121.171H180.999C181.13 121.171 181.254 121.119 181.347 121.027C181.439 120.935 181.49 120.81 181.491 120.68V116.475C181.49 116.344 181.438 116.22 181.346 116.128C181.254 116.036 181.129 115.984 180.999 115.983Z" fill="#FF7700"/>
<path d="M180.999 123.153H176.792C176.662 123.153 176.537 123.205 176.446 123.297C176.354 123.39 176.303 123.514 176.303 123.644V127.849C176.303 127.914 176.315 127.977 176.339 128.037C176.364 128.096 176.4 128.151 176.445 128.196C176.491 128.242 176.545 128.278 176.604 128.303C176.663 128.328 176.727 128.34 176.792 128.34H180.999C181.13 128.34 181.254 128.289 181.347 128.197C181.439 128.104 181.49 127.98 181.491 127.849V123.645C181.49 123.514 181.438 123.39 181.346 123.298C181.254 123.206 181.129 123.154 180.999 123.153V123.153Z" fill="#D6D6E3"/>
<path d="M180.999 130.322H176.792C176.727 130.322 176.663 130.335 176.604 130.36C176.545 130.385 176.491 130.421 176.445 130.467C176.4 130.512 176.364 130.566 176.339 130.626C176.315 130.685 176.303 130.749 176.303 130.814V135.019C176.303 135.083 176.315 135.147 176.34 135.207C176.364 135.266 176.4 135.32 176.445 135.366C176.491 135.412 176.545 135.448 176.604 135.473C176.663 135.497 176.727 135.51 176.792 135.51H180.999C181.13 135.51 181.254 135.458 181.347 135.366C181.439 135.274 181.49 135.149 181.491 135.019V130.814C181.49 130.683 181.439 130.558 181.347 130.466C181.254 130.374 181.13 130.322 180.999 130.322Z" fill="#D6D6E3"/>
</g>
<defs>
<clipPath id="clip0_440_1435">
<rect width="152" height="105" fill="white" transform="translate(46.1211 57.8206)"/>
</clipPath>
</defs>
</svg>
