<svg width="13" height="13" viewBox="0 0 13 13" fill="none" xmlns="http://www.w3.org/2000/svg">
<path fill-rule="evenodd" clip-rule="evenodd" d="M6.69738 12.9887C7.50529 12.9378 7.96549 12.0079 7.50529 11.3733C7.07747 10.7834 6.87039 10.3781 7.21675 9.78679C7.42614 9.42931 7.98885 9.39962 8.69811 9.36221C9.94348 9.29651 11.6406 9.20699 12.6701 7.27717C14.0859 4.62304 10.7658 -0.482446 6.1203 0.036785C2.8597 0.401249 0.147538 2.48871 0.0032684 6.52717C-0.115754 9.87333 3.03279 13.2195 6.69738 12.9887ZM3.72531 5.31535C3.72531 5.98445 3.18275 6.52689 2.51345 6.52689C1.84414 6.52689 1.30158 5.98445 1.30158 5.31535C1.30158 4.64625 1.84414 4.10381 2.51345 4.10381C3.18275 4.10381 3.72531 4.64625 3.72531 5.31535ZM4.76405 3.64227C5.43336 3.64227 5.97592 3.09983 5.97592 2.43073C5.97592 1.76164 5.43336 1.2192 4.76405 1.2192C4.09475 1.2192 3.55219 1.76164 3.55219 2.43073C3.55219 3.09983 4.09475 3.64227 4.76405 3.64227ZM9.61152 2.54612C9.61152 3.21521 9.06895 3.75766 8.39965 3.75766C7.73035 3.75766 7.18779 3.21521 7.18779 2.54612C7.18779 1.87702 7.73035 1.33458 8.39965 1.33458C9.06895 1.33458 9.61152 1.87702 9.61152 2.54612ZM10.5925 6.52689C11.2619 6.52689 11.8044 5.98445 11.8044 5.31535C11.8044 4.64625 11.2619 4.10381 10.5925 4.10381C9.92324 4.10381 9.38068 4.64625 9.38068 5.31535C9.38068 5.98445 9.92324 6.52689 10.5925 6.52689Z" fill="#FF3363"/>
</svg>
