<svg width="13" height="13" viewBox="0 0 13 13" fill="none" xmlns="http://www.w3.org/2000/svg">
<path d="M6.5 9.48003C7.89108 9.48003 9.01878 8.33643 9.01878 6.92572C9.01878 5.51501 7.89108 4.3714 6.5 4.3714C5.10893 4.3714 3.98124 5.51501 3.98124 6.92572C3.98124 8.33643 5.10893 9.48003 6.5 9.48003Z" fill="#FF3363"/>
<path fill-rule="evenodd" clip-rule="evenodd" d="M9.0785 0.301671C9.4453 0.144675 9.75487 0.012171 10.2986 0C11.4864 0 12.4898 0.976033 12.5 2.18051C12.5 2.25133 12.4965 2.32141 12.4898 2.39057V9.78116C12.4898 11.5567 11.0666 13 9.3157 13H3.67406C1.92321 13 0.5 11.5567 0.5 9.78116V4.07028C0.5 2.29473 1.92321 0.851438 3.67406 0.851438H5.0256C5.04687 0.851438 4.93018 0.850891 4.77759 0.850161C4.26896 0.847757 3.36138 0.843446 5.83447 0.851438C7.79402 0.851438 8.50598 0.546716 9.0785 0.301671ZM9.59215 2.13898C9.59215 2.56469 9.93004 2.90736 10.3498 2.90736C10.7594 2.90736 11.1075 2.56469 11.1075 2.13898C11.1075 1.71326 10.7696 1.37061 10.3498 1.37061C9.93004 1.37061 9.59215 1.71326 9.59215 2.13898ZM6.5 10.5288C4.53413 10.5288 2.9471 8.91932 2.9471 6.92572C2.9471 4.93212 4.53413 3.32268 6.5 3.32268C8.46587 3.32268 10.0529 4.93212 10.0529 6.92572C10.0529 8.90894 8.46587 10.5288 6.5 10.5288Z" fill="#FF3363"/>
</svg>
