<svg width="12" height="13" viewBox="0 0 12 13" fill="none" xmlns="http://www.w3.org/2000/svg">
<path d="M6 9.48003C7.39108 9.48003 8.51878 8.33643 8.51878 6.92572C8.51878 5.51501 7.39108 4.3714 6 4.3714C4.60893 4.3714 3.48124 5.51501 3.48124 6.92572C3.48124 8.33643 4.60893 9.48003 6 9.48003Z" fill="#FF3363"/>
<path fill-rule="evenodd" clip-rule="evenodd" d="M8.5785 0.301671C8.9453 0.144675 9.25487 0.012171 9.79864 0C10.9864 0 11.9898 0.976033 12 2.18051C12 2.25133 11.9965 2.32141 11.9898 2.39057V9.78116C11.9898 11.5567 10.5666 13 8.8157 13H3.17406C1.42321 13 0 11.5567 0 9.78116V4.07028C0 2.29473 1.42321 0.851438 3.17406 0.851438H4.5256C4.54687 0.851438 4.43018 0.850891 4.27759 0.850161C3.76896 0.847757 2.86138 0.843446 5.33447 0.851438C7.29402 0.851438 8.00598 0.546716 8.5785 0.301671ZM9.09215 2.13898C9.09215 2.56469 9.43004 2.90736 9.84983 2.90736C10.2594 2.90736 10.6075 2.56469 10.6075 2.13898C10.6075 1.71326 10.2696 1.37061 9.84983 1.37061C9.43004 1.37061 9.09215 1.71326 9.09215 2.13898ZM6 10.5288C4.03413 10.5288 2.4471 8.91932 2.4471 6.92572C2.4471 4.93212 4.03413 3.32268 6 3.32268C7.96587 3.32268 9.5529 4.93212 9.5529 6.92572C9.5529 8.90894 7.96587 10.5288 6 10.5288Z" fill="#FF3363"/>
</svg>
