<?xml version="1.0"?>
<svg xmlns="http://www.w3.org/2000/svg" xmlns:xlink="http://www.w3.org/1999/xlink" version="1.1" id="Layer_1" x="0px" y="0px" viewBox="0 0 512 512" style="enable-background:new 0 0 512 512;" xml:space="preserve" width="512px" height="512px" class=""><g><g>
	<g>
		<path d="M428.13,69.696V17.718H0V446.37c0,26.419,21.493,47.912,47.912,47.912h416.176c26.419,0,47.912-21.493,47.912-47.912    V69.696H428.13z M47.912,463.865c-9.647,0.001-17.495-7.847-17.495-17.494V48.135h367.295v36.768v15.209V446.37    c0,6.174,1.186,12.072,3.322,17.495H47.912z M481.583,446.371c0,9.647-7.848,17.495-17.495,17.495h-18.463    c-9.647,0-17.495-7.848-17.495-17.495V100.113h53.453V446.371z" data-original="#000000" class="active-path" data-old_color="#000000" fill="#FFB370"/>
	</g>
</g><g>
	<g>
		<path d="M45.628,63.347V245.86h170.91V63.347H45.628z M186.121,215.443H76.045V93.764h110.076V215.443z" data-original="#000000" class="active-path" data-old_color="#000000" fill="#FFB370"/>
	</g>
</g><g>
	<g>
		<path d="M45.628,266.142v182.512h116.887V266.142H45.628z M132.098,418.238H76.045V296.559h56.053V418.238z" data-original="#000000" class="active-path" data-old_color="#000000" fill="#FFB370"/>
	</g>
</g><g>
	<g>
		<rect x="231.749" y="63.35" width="150.758" height="30.417" data-original="#000000" class="active-path" data-old_color="#000000" fill="#FFB370"/>
	</g>
</g><g>
	<g>
		<rect x="231.749" y="114.045" width="150.758" height="30.417" data-original="#000000" class="active-path" data-old_color="#000000" fill="#FFB370"/>
	</g>
</g><g>
	<g>
		<rect x="231.749" y="164.741" width="150.758" height="30.417" data-original="#000000" class="active-path" data-old_color="#000000" fill="#FFB370"/>
	</g>
</g><g>
	<g>
		<rect x="231.749" y="215.446" width="150.758" height="30.417" data-original="#000000" class="active-path" data-old_color="#000000" fill="#FFB370"/>
	</g>
</g><g>
	<g>
		<rect x="177.728" y="266.142" width="92.245" height="30.417" data-original="#000000" class="active-path" data-old_color="#000000" fill="#FFB370"/>
	</g>
</g><g>
	<g>
		<rect x="290.251" y="266.142" width="92.245" height="30.417" data-original="#000000" class="active-path" data-old_color="#000000" fill="#FFB370"/>
	</g>
</g><g>
	<g>
		<rect x="177.728" y="316.837" width="92.245" height="30.417" data-original="#000000" class="active-path" data-old_color="#000000" fill="#FFB370"/>
	</g>
</g><g>
	<g>
		<rect x="177.728" y="367.543" width="92.245" height="30.417" data-original="#000000" class="active-path" data-old_color="#000000" fill="#FFB370"/>
	</g>
</g><g>
	<g>
		<rect x="177.728" y="418.238" width="92.245" height="30.417" data-original="#000000" class="active-path" data-old_color="#000000" fill="#FFB370"/>
	</g>
</g><g>
	<g>
		<rect x="290.251" y="316.837" width="92.245" height="30.417" data-original="#000000" class="active-path" data-old_color="#000000" fill="#FFB370"/>
	</g>
</g><g>
	<g>
		<rect x="290.251" y="367.543" width="92.245" height="30.417" data-original="#000000" class="active-path" data-old_color="#000000" fill="#FFB370"/>
	</g>
</g><g>
	<g>
		<rect x="290.251" y="418.238" width="92.245" height="30.417" data-original="#000000" class="active-path" data-old_color="#000000" fill="#FFB370"/>
	</g>
</g></g> </svg>
