<svg xmlns="http://www.w3.org/2000/svg" viewBox="0 0 116.44 58.71"><defs><style>.cls-1{fill:#ffc800;}.cls-2{fill:#b40000;}</style></defs><title>img_article4</title><g id="Calque_2" data-name="Calque 2"><g id="BODY"><g id="_1" data-name="1"><g id="Home"><g id="Desktop"><g id="Header"><g id="logo-blanc"><g id="Ebene_1" data-name="Ebene 1"><g id="Group"><g id="Shape"><path class="cls-1" d="M41.71,33.8l.06-.26c-.51-.06-1.22-.71-1.93-.13-.45.26-.51.64-.84,1.16.26,1,.77,1.16,1.48,1.48.19-.39,1-.26,1.35-.52l-.26-.13.71-.84c-.26-.19-.39-.58-.58-.77Z"/><path class="cls-1" d="M47.82,1.09,47.89,1l.51.19c0-.19.26-.19.39-.26L48.53,1,48.4.84,48.27,1,48,.64l1-.39c-.51.19-1.09.13-1.54.58l-.06.32.45.06c-.06-.06-.06-.06-.06-.13Z"/><path class="cls-1" d="M54.32,7.79h0c.13-.07.06-.07,0,0Z"/><path class="cls-1" d="M51.94,5.34c1-.32,1.48-1.09,2.12-1.67l-.58-.06.26-.39c-.45-.06-.71.32-1.09.13l.26-.45c-.32.19-.84.77-.32.77-.45.52-.71-.19-.71-.26-.39.26-.45.71-.84,1-.06.52.19,1.09.9,1Z"/><path class="cls-1" d="M41.78,35.47l.13.07-.13-.07Z"/><path class="cls-1" d="M45,6.5l.71-.71h-.13l.06-.58h-.13l.13-.39c-.19.19-.58.26-.51,0-.58.45-1.29.64-1.22,1.61.26.45.77.26,1.09.06Z"/><path class="cls-1" d="M59.85,5.79c-.9.32-1.35.84-2.12.77-.84.32-.64.45-.39,1-.32-.32-1.8.45-1-.19A5.22,5.22,0,0,0,57,6.82c-.77.32-2.44,1.61-3.28,1.67-.19,0,.45-.52.64-.71a104.6,104.6,0,0,0-12.8,6.12,16,16,0,0,1,1.35,6.82,14.87,14.87,0,0,1-.19,2.38c.26-.19.51-.32.64-.45,3.86-2.9-.39-1.29,5.85-4.31,1.74-1.09,1.29-2.45,3.34-3a19.38,19.38,0,0,0,6.3-3.86,41.51,41.51,0,0,1-4.31,1.87c-1.67.52-1.61.39,1.29-1.35.58-.32,1-.26,1.29-.71s1.93-.39,3.28-1c-1.41.13-1.93-1.55-.06-1.48,2.7-1.29-.64-1.48,3.79-2.83-.19,0-1.8.32-2,.32-.58.26-.19-.06-.9.26.45.13-1.09.45-2.12.77.51-.52,3.22-2.51,4-1.93.13,0,.71-1,1-.06,2.64-1.16.58-.9,3.86-2.19-1.87.52-6.17,2-8.1,2.64Zm-10.74,4.7c.84-.52,2.25-1.29,2.7-1-.26.39-2.19,1.29-2.7,1Z"/><path class="cls-1" d="M75.8,0,75.6.32c.06.06.19.06.19.19s.26-.13.39-.19C75.93.26,75.8.13,75.8,0Z"/><path class="cls-1" d="M70.2,4.64c.39-.52-.58-.39-.9-.06s-.84,1-1.35.52c-.84-.71-1.74,1.93-1.48,2.06s2.7-1.35,3.15-1.55c1-.77,1.74-2.51,3.15-2.45-1.74-.39-1.22.71-2.57,1.48Z"/><path class="cls-1" d="M14.57,44.68A27,27,0,0,0,24.8,40.82c-.45,0-1.22.13-1.16-.71-.19,1.35-1.41.19-1.54.13.06.19.32.39-.32.45-.9-.32.84-1.09,1-1.22-1.61,1-.26-2,.32-2.64,7-6.57.77,1.48,4.82-2.58,1.09-1.09,1.61-2.51,2.57-3.73h.71c.19-.64,3-1.55,2.83-2.45a3.13,3.13,0,0,1,.45-.19c.32-3-1.22-5-4.05-5-6.43,0-14.6,9.46-16.91,20.86v.06h0V44c.45.39.39.77.9.84l.39.19a1.4,1.4,0,0,0-.26-.32Z"/><path class="cls-1" d="M76.18.32h0Z"/></g><path id="Shape-2" data-name="Shape" class="cls-2" d="M30.13,7.53C20,7.53,11.8,14,6.85,20.73a14.51,14.51,0,0,0,.58-2.38c.26-1.87.77-5.54.77-5.54L1.84,15.06S.36,25.94,0,28.71c-.32,2.58,1.61,5.09,3.79,5.09C7,22.73,18.24,13.33,27.56,13.33c4.12,0,7.07,1.61,7.91,4.06-12,0-26,12.17-28.43,30.19L5.37,58.71l6.37-2.25,1.61-10.62c1.54-12.36,10.35-23,17.17-23,2.89,0,4.44,2.12,4,5.21-1,7.34-9.9,15.06-19.94,16.61a3.56,3.56,0,0,0,2.77.84c10.87,0,25.6-12,25.6-24.79-.06-8.11-4.44-13.2-12.8-13.2Z"/></g><path id="Shape-3" data-name="Shape" class="cls-2" d="M86.92,36.82H89.5l1.87-10.75H88.79L86.92,36.82ZM102.42,27a5.19,5.19,0,0,0-3.67-1.29,6.26,6.26,0,0,0-4.57,1.87,6.57,6.57,0,0,0-1.87,4.7,4.66,4.66,0,0,0,1.35,3.54,5.24,5.24,0,0,0,3.73,1.29A6.36,6.36,0,0,0,102,35.28a6.76,6.76,0,0,0,1.87-4.83A4.75,4.75,0,0,0,102.42,27Zm-2.32,7a3.69,3.69,0,0,1-2.83,1.42,2.2,2.2,0,0,1-1.74-.77,2.9,2.9,0,0,1-.71-2A5.58,5.58,0,0,1,96,29.1a3.29,3.29,0,0,1,2.77-1.48,2.24,2.24,0,0,1,1.8.77,3.07,3.07,0,0,1,.71,2.06A5.45,5.45,0,0,1,100.11,34Zm13.63-8.18a9.57,9.57,0,0,0-5.08,2h-.06l.39-1.67h-2.57l-1.87,10.75h2.51l1.22-6.76s2.64-2.06,4.24-2.06a1.32,1.32,0,0,1,1.35,1.48c0,.77-1,7.34-1,7.34h2.51s1-7,1-7.73c0-2.45-1-3.35-2.7-3.35Zm-57.5,7.4c0,2.32,1.35,3.93,3.54,3.93,1.93,0,4.18-2,4.18-2H64l-.32,1.67h2.57l1.87-10.75A15.81,15.81,0,0,0,65,25.75c-4.82.06-8.75,3.15-8.75,7.47Zm9.07-5.54-.9,5S62,35.15,60.55,35.15c-1.22,0-1.87-.84-1.87-2.32,0-3.09,3-5.34,6.62-5.15ZM51.42,25.94H47.18L45.25,36.82h2.57l.39-2.58h2.06a5.11,5.11,0,0,0,5.21-4.7c.13-2.19-1.16-3.61-4.05-3.61Zm-1.09,6.63H48.59l.9-5h1.22A2.05,2.05,0,0,1,53,29.74a2.64,2.64,0,0,1-2.7,2.83Zm23.92-5a8.45,8.45,0,0,1,2.44.32L77.28,26a16.68,16.68,0,0,0-3.15-.32c-2.89,0-4.76,1.29-4.76,3.15,0,2.9,4.63,3.61,4.63,5.21,0,.64-.58,1-1.8,1a6.86,6.86,0,0,1-3-.71l-.64,1.87a6.87,6.87,0,0,0,3.67.84c2.83,0,4.5-1.42,4.5-3.22,0-2.7-4.63-3.61-4.63-5.09,0-.77.64-1.16,2.19-1.16Zm9,0a8.45,8.45,0,0,1,2.44.32L86.28,26a16.68,16.68,0,0,0-3.15-.32c-2.89,0-4.76,1.29-4.76,3.15,0,2.9,4.63,3.61,4.63,5.21,0,.64-.58,1-1.8,1a6.86,6.86,0,0,1-3-.71l-.64,1.87a6.87,6.87,0,0,0,3.67.84c2.83,0,4.5-1.42,4.5-3.22,0-2.7-4.63-3.61-4.63-5.09-.06-.77.64-1.16,2.19-1.16Z"/><path id="Shape-4" data-name="Shape" class="cls-2" d="M76.31,13.58H73.48l-4.89,4.7.84-4.76H66.92L65.06,24.27h2.51l1-5.47,4.18,5.47h3.22L71,18.61l5.27-5ZM60,24.33h2.57l1.87-10.75H61.84L60,24.33Zm-4.24-4-5-6.76H49.36L47.5,24.33h2.19l1.22-6.76,4.82,6.76h1.48l1.87-10.75H56.89l-1.16,6.76Zm42.45-7.08a9.77,9.77,0,0,0-5.08,2H93l.39-1.67H90.85L88.92,24.33h2.51l1.22-6.76s2.64-2.06,4.24-2.06A1.32,1.32,0,0,1,98.24,17c0,.77-1,7.34-1,7.34h2.51s1-7,1-7.73c.06-2.38-.9-3.35-2.64-3.35ZM86.47,14.55a5.19,5.19,0,0,0-3.67-1.29,6.26,6.26,0,0,0-4.57,1.87,6.57,6.57,0,0,0-1.87,4.7,4.66,4.66,0,0,0,1.35,3.54,5.24,5.24,0,0,0,3.73,1.29A6.36,6.36,0,0,0,86,22.79,6.76,6.76,0,0,0,87.89,18a4.75,4.75,0,0,0-1.41-3.41Zm-2.32,6.89a3.69,3.69,0,0,1-2.83,1.42,2.2,2.2,0,0,1-1.74-.77,2.9,2.9,0,0,1-.71-2A5.58,5.58,0,0,1,80,16.55a3.29,3.29,0,0,1,2.77-1.48,2.24,2.24,0,0,1,1.8.77,3.07,3.07,0,0,1,.71,2.06,5.22,5.22,0,0,1-1.16,3.54Z"/></g></g></g></g></g></g></g></g></svg>