<?xml version="1.0" encoding="utf-8"?>
<!-- Generator: Adobe Illustrator 24.0.2, SVG Export Plug-In . SVG Version: 6.00 Build 0)  -->
<svg version="1.1" id="cbb92aef-a4c8-4910-9d60-405154a20c92"
	 xmlns="http://www.w3.org/2000/svg" xmlns:xlink="http://www.w3.org/1999/xlink" x="0px" y="0px" viewBox="0 0 1116.2 857.1"
	 style="enable-background:new 0 0 1116.2 857.1;" xml:space="preserve">
<style type="text/css">
	.st0{fill:#E0DAF4;enable-background:new    ;}
	.st1{fill:none;stroke:#535461;stroke-width:2;stroke-miterlimit:10;}
	.st2{fill:#A992F6;}
	.st3{opacity:0.25;enable-background:new    ;}
	.st4{opacity:0.1;fill:#CBBEFA;enable-background:new    ;}
	.st5{opacity:0.1;enable-background:new    ;}
	.st6{fill:#FFD037;}
	.st7{fill:#A8A8A8;}
	.st8{opacity:0.2;enable-background:new    ;}
	.st9{fill:url(#SVGID_1_);}
	.st10{fill:#FFFFFF;}
	.st11{fill:#5A5773;}
	.st12{fill:#7F6DB8;}
	.st13{opacity:0.2;fill:#5A5773;enable-background:new    ;}
	.st14{fill:url(#SVGID_2_);}
	.st15{fill:#EFB7B9;}
	.st16{fill:#FF6484;}
	.st17{fill:#444053;}
	.st18{fill:#A1616A;}
	.st19{fill:#925978;}
	.st20{opacity:0.1;}
	.st21{opacity:0.1;fill:#00B0FF;enable-background:new    ;}
</style>
<title>add to cart</title>
<path class="st0" d="M1082.8,582.3c-1,0.7-1.9,1.4-2.9,2.1c-3.6,2.5-7.3,4.8-11.2,6.8c-20.4,10.7-45.5,16-70,19.6
	c-54.9,8-110.9,9.6-166.7,11.1c-150.7,4.1-301.8,8.3-452.2-1.3c-59.4-3.8-120.1-10.1-174-29.4c-7.7-2.8-15.3-5.8-22.7-9.1
	c-15-6.7-29.4-15-41.4-24.8c-11.3-9.2-20.4-19.7-25.8-31.7c-11.4-25-5.4-53.1,7.6-77.6c5.4-9.9,11.5-19.4,18.2-28.5
	c10-13.8,21.1-27.2,31.2-41c35.9-49,59.3-111,26.2-161.2c-9.5-14.4-23.3-27.1-31.1-42.2c-9.9-19.3-9.1-40.7-6-61.5
	c0.4-2.6,0.8-5.3,1.3-7.8c5.4-30.8,15.5-64.1,46.7-83.3c32.4-20,78.4-19,118.7-11.9C391.4,21.8,449,45.1,507.4,66.1
	s119.3,40.2,183.4,42.2C747.4,110.1,813.4,96.5,851,61c36.5-34.4,105-37,154.5-16.2c33.9,14.3,59.2,40,69.9,68.9
	c2.2,5.8,3.7,11.8,4.6,17.9c0.9,5.6,1.1,11.3,0.8,16.9c-0.1,2.8-0.4,5.6-0.8,8.3c-8.3,57.1-67.7,102.1-103.8,153
	c-17.7,24.9-30.1,54.8-18,81.6c18.5,40.9,82.9,55.4,121.8,85.9c7.3,5.5,13.8,12.1,19.1,19.6C1117.9,524.1,1110.9,560.7,1082.8,582.3
	z"/>
<g id="d00831fc-a64a-413c-b5dd-d7bd6eafa01d">
	<path class="st1" d="M259.8,326.9c0,0-45.5-80.7-114.2-104c-28.8-9.8-53.9-28.1-71.1-53.2c-8.1-11.9-15.2-24.5-21-37.7"/>
	<path class="st2" d="M10.3,117.1c7.8,7.6,44.2,15.5,44.2,15.5s-8.9-36.2-16.8-43.8c-7.9-7.5-20.4-7.2-27.9,0.8
		C2.6,97.3,2.7,109.5,10.3,117.1L10.3,117.1z"/>
	<path class="st2" d="M30.9,182.5c10.7,2.1,45.5-11.1,45.5-11.1s-27.2-25.5-37.9-27.6c-10.7-1.9-21,5.3-22.9,16
		C13.9,170.2,20.6,180.2,30.9,182.5L30.9,182.5z"/>
	<path class="st2" d="M106,253.3c10.3-3.6,33.7-32.5,33.7-32.5s-36.3-8.3-46.6-4.7c-10.4,3.2-16.2,14.3-13,24.7
		c3.2,10.4,14.3,16.2,24.7,13C105.1,253.6,105.5,253.5,106,253.3L106,253.3z"/>
	<path class="st2" d="M174.8,294.1c10.8-1.8,38.7-26.4,38.7-26.4s-34.4-14.3-45.1-12.6c-10.8,1.8-18,11.9-16.3,22.7
		C153.9,288.6,164,295.9,174.8,294.1L174.8,294.1z"/>
	<path class="st2" d="M106.8,143.2c0,10.9-19.7,42.5-19.7,42.5s-19.7-31.6-19.8-42.5c-0.2-10.9,8.4-19.9,19.3-20.2
		c10.9-0.2,19.9,8.4,20.2,19.3C106.8,142.6,106.8,142.9,106.8,143.2L106.8,143.2z"/>
	<path class="st2" d="M186.7,191.9c-3.3,10.4-31.5,34.7-31.5,34.7s-9.4-36.1-6.2-46.5c3.7-10.2,15-15.6,25.3-11.8
		C183.9,171.7,189.3,182,186.7,191.9L186.7,191.9z"/>
	<path class="st2" d="M257.9,249.9c-1.4,10.8-25.2,39.5-25.2,39.5s-15.3-33.9-13.9-44.7c1.6-10.8,11.7-18.2,22.4-16.6
		C251.8,229.7,259.2,239.3,257.9,249.9L257.9,249.9z"/>
	<g>
		<path class="st3" d="M11.3,117.1c7.8,7.6,44.2,15.5,44.2,15.5s-8.9-36.2-16.8-43.8c-7.9-7.5-20.4-7.2-27.9,0.8
			C3.6,97.3,3.7,109.5,11.3,117.1L11.3,117.1z"/>
		<path class="st3" d="M31.9,182.5c10.7,2.1,45.5-11.1,45.5-11.1s-27.2-25.5-37.9-27.6c-10.7-1.9-21,5.3-22.9,16
			C14.9,170.2,21.6,180.2,31.9,182.5L31.9,182.5z"/>
		<path class="st3" d="M107,253.3c10.3-3.6,33.7-32.5,33.7-32.5s-36.3-8.3-46.6-4.7c-10.4,3.2-16.2,14.3-13,24.7
			c3.2,10.4,14.3,16.2,24.7,13C106.1,253.6,106.5,253.5,107,253.3L107,253.3z"/>
		<path class="st3" d="M175.8,294.1c10.8-1.8,38.7-26.4,38.7-26.4s-34.4-14.3-45.1-12.6c-10.8,1.8-18,11.9-16.3,22.7
			C154.9,288.6,165,295.9,175.8,294.1L175.8,294.1z"/>
		<path class="st3" d="M107.8,143.2c0,10.9-19.7,42.5-19.7,42.5s-19.7-31.6-19.8-42.5c-0.2-10.9,8.4-19.9,19.3-20.2
			c10.9-0.2,19.9,8.4,20.2,19.3C107.8,142.6,107.8,142.9,107.8,143.2L107.8,143.2z"/>
		<path class="st3" d="M187.7,191.9c-3.3,10.4-31.5,34.7-31.5,34.7s-9.4-36.1-6.2-46.5c3.7-10.2,15-15.6,25.3-11.8
			C184.9,171.7,190.3,182,187.7,191.9L187.7,191.9z"/>
		<path class="st3" d="M258.9,249.9c-1.4,10.8-25.2,39.5-25.2,39.5s-15.3-33.9-13.9-44.7c1.6-10.8,11.7-18.2,22.4-16.6
			C252.8,229.7,260.2,239.3,258.9,249.9L258.9,249.9z"/>
	</g>
	<path class="st1" d="M257.2,325.3c0,0-8.9-92.3-62.3-141.3c-22.4-20.6-37.9-47.5-43.5-77.5c-2.6-14.2-3.9-28.6-3.9-43"/>
	<path class="st2" d="M114.2,32.4c4.1,10.1,34.2,32,34.2,32s6.5-36.7,2.4-46.8s-15.6-15-25.7-10.9S110.1,22.2,114.2,32.4L114.2,32.4
		z"/>
	<path class="st2" d="M106.4,100.5c8.9,6.3,46.1,8.3,46.1,8.3s-14.4-34.3-23.3-40.6S108,64,101.7,72.9
		C95.4,81.9,97.5,94.2,106.4,100.5z"/>
	<path class="st2" d="M146.4,195.7c10.9,0.9,44-16.1,44-16.1s-29.8-22.3-40.7-23.2c-10.8-1.2-20.6,6.7-21.7,17.5
		c-1.2,10.8,6.7,20.6,17.5,21.7C145.8,195.6,146.1,195.7,146.4,195.7L146.4,195.7z"/>
	<path class="st2" d="M192.7,260.9c10.6,2.7,46.1-8.4,46.1-8.4s-25.6-27-36.2-29.8c-10.6-2.6-21.3,3.9-23.8,14.5
		C176.3,247.6,182.5,258,192.7,260.9L192.7,260.9z"/>
	<path class="st2" d="M191.8,95.3c-4.4,10-35.2,30.9-35.2,30.9s-5.2-36.9-0.8-46.8c4.2-10,15.8-14.7,25.9-10.5
		c10,4.2,14.7,15.8,10.5,25.9C192,94.9,191.9,95.1,191.8,95.3z"/>
	<path class="st2" d="M245.1,172.2c-7.2,8.2-42.9,18.9-42.9,18.9s6-36.8,13.2-44.9c7.2-8.2,19.7-9,27.8-1.8
		C251.5,151.6,252.3,164.1,245.1,172.2z"/>
	<path class="st2" d="M286.7,254.1c-5.7,9.3-39.1,25.9-39.1,25.9s-0.3-37.3,5.4-46.5c5.7-9.3,17.9-12.2,27.2-6.5
		C289.5,232.7,292.4,244.8,286.7,254.1L286.7,254.1z"/>
</g>
<ellipse class="st4" cx="408.5" cy="834.2" rx="110.4" ry="14.4"/>
<ellipse class="st4" cx="185.4" cy="833.1" rx="33.5" ry="5.7"/>
<path class="st2" d="M192.7,769.2c0,0,5.4,7.1-2.5,17.8c-8,10.7-14.5,19.8-11.9,26.5c0,0,12-20,21.8-20.2S203.5,781.2,192.7,769.2z"
	/>
<path class="st5" d="M192.7,769.2c0.5,0.7,0.8,1.4,1.1,2.2c9.5,11.2,14.6,21.6,5.4,21.9c-8.5,0.2-18.8,15.5-21.2,19.3
	c0.1,0.3,0.2,0.6,0.3,0.9c0,0,12-20,21.8-20.2S203.5,781.2,192.7,769.2z"/>
<path class="st6" d="M202.8,778.2c0,2.5-0.3,4.5-0.6,4.5s-0.6-2-0.6-4.5c0-2.6,0.4-1.3,0.7-1.3S202.8,775.7,202.8,778.2z"/>
<path class="st6" d="M206.3,781.2c-2.2,1.2-4.1,1.9-4.3,1.6c-0.2-0.3,1.5-1.5,3.7-2.7s1.3-0.3,1.5,0
	C207.4,780.4,208.5,780,206.3,781.2z"/>
<path class="st2" d="M164,769.2c0,0-5.4,7.1,2.5,17.8s14.5,19.8,11.9,26.5c0,0-12-20-21.8-20.2S153.3,781.2,164,769.2z"/>
<path class="st5" d="M164,769.2c-0.5,0.7-0.8,1.4-1.1,2.2c-9.5,11.2-14.6,21.6-5.4,21.9c8.5,0.2,18.8,15.5,21.2,19.3
	c-0.1,0.3-0.2,0.6-0.3,0.9c0,0-12-20-21.8-20.2S153.3,781.2,164,769.2z"/>
<path class="st6" d="M153.9,778.2c0,2.5,0.3,4.5,0.6,4.5s0.6-2,0.6-4.5c0-2.6-0.4-1.3-0.7-1.3S153.9,775.7,153.9,778.2z"/>
<path class="st6" d="M150.4,781.2c2.2,1.2,4.1,1.9,4.3,1.6s-1.5-1.5-3.7-2.7s-1.3-0.3-1.5,0C149.4,780.4,148.2,780,150.4,781.2z"/>
<path class="st7" d="M155.6,812.6c0,0,15.2-0.5,19.8-3.7c4.6-3.3,23.4-7.2,24.5-1.9s22.9,26,5.7,26.2s-39.9-2.7-44.5-5.5
	C156.6,824.8,155.6,812.6,155.6,812.6z"/>
<path class="st8" d="M205.9,831.3c-17.2,0.1-39.9-2.7-44.5-5.5c-3.5-2.1-4.9-9.7-5.3-13.2h-0.5c0,0,1,12.3,5.5,15.1
	s27.3,5.6,44.5,5.5c5,0,6.7-1.8,6.6-4.4C211.5,830.3,209.6,831.2,205.9,831.3z"/>
<path class="st2" d="M663.5,812c0,0-41.9-2.5-36.9,26.8c0,0-1,5.2,3.7,7.5c0,0,0.1-2.2,4.3-1.4c1.5,0.3,3,0.3,4.5,0.2
	c2.1-0.1,4-0.9,5.6-2.3l0,0c0,0,11.8-4.9,16.3-24.1c0,0,3.4-4.2,3.3-5.3l-7.1,3c0,0,2.4,5.1,0.5,9.3c0,0-0.2-9.1-1.6-8.9
	c-0.3,0-3.7,1.8-3.7,1.8s4.2,8.9,1,15.3c0,0,1.2-10.9-2.3-14.7l-5,2.9c0,0,4.9,9.2,1.6,16.7c0,0,0.8-11.5-2.6-16l-4.5,3.5
	c0,0,4.6,9,1.8,15.2c0,0-0.4-13.4-2.8-14.4c0,0-4,3.5-4.5,5c0,0,3.1,6.6,1.2,10c0,0-1.2-8.9-2.2-8.9c0,0-4,5.9-4.3,9.9
	c0,0,0.2-6,3.4-10.5c-2.3,0.4-4.4,1.5-6,3.1c0,0,0.6-4.2,6.9-4.5c0,0,3.2-4.5,4.1-4.7c0,0-6.3-0.5-10.2,1.2c0,0,3.4-4,11.3-2.1
	l4.4-3.6c0,0-8.3-1.1-11.9,0.1c0,0,4.1-3.5,13.1-1l4.9-2.9c0,0-7.1-1.5-11.4-1c0,0,4.5-2.4,12.8,0.2l3.5-1.6c0,0-5.2-1-6.7-1.2
	s-1.6-0.6-1.6-0.6c3.3-0.6,6.7-0.2,9.8,1.1C656.2,815.2,663.7,812.5,663.5,812z"/>
<ellipse class="st4" cx="634.7" cy="848.9" rx="29.6" ry="5"/>
<path class="st2" d="M590.2,813.6c0,0-23.6-1.4-20.8,15.1c-0.3,1.7,0.6,3.4,2.1,4.2c0,0,0-1.2,2.4-0.8c0.8,0.1,1.7,0.2,2.6,0.1
	c1.2-0.1,2.3-0.5,3.1-1.3l0,0c0,0,6.6-2.7,9.2-13.6c0,0,1.9-2.4,1.8-3l-4,1.7c0,0,1.4,2.9,0.3,5.3c0,0-0.1-5.2-0.9-5
	c-0.2,0-2.1,1-2.1,1s2.3,5,0.6,8.6c0,0,0.7-6.2-1.3-8.3l-2.8,1.6c0,0,2.7,5.2,0.9,9.4c0,0,0.5-6.5-1.5-9l-2.5,2c0,0,2.6,5.1,1,8.6
	c0,0-0.2-7.5-1.6-8.1c-1,0.8-1.8,1.7-2.6,2.8c0,0,1.8,3.7,0.7,5.7c0,0-0.7-5-1.2-5c0,0-2.2,3.3-2.4,5.6c0.1-2.1,0.8-4.2,1.9-5.9
	c-1.3,0.2-2.5,0.9-3.4,1.8c0,0,0.3-2.4,4-2.6c0,0,1.8-2.5,2.3-2.7c0,0-3.6-0.3-5.7,0.7c0,0,1.9-2.2,6.4-1.2l2.5-2
	c0,0-4.7-0.6-6.7,0.1c0,0,2.3-2,7.4-0.5l2.7-1.6c-2.1-0.5-4.2-0.7-6.4-0.6c0,0,2.5-1.4,7.2,0.1l2-0.9c0,0-3-0.6-3.8-0.7
	c-0.8-0.1-0.9-0.3-0.9-0.3c1.9-0.3,3.8-0.1,5.5,0.6C586.2,815.3,590.2,813.8,590.2,813.6z"/>
<ellipse class="st4" cx="573.9" cy="834.4" rx="16.7" ry="2.8"/>
<path class="st2" d="M635.1,778.5c0,0-28.5-1.7-25.1,18.2c-0.4,2.1,0.7,4.1,2.5,5.1c0,0,0-1.5,2.9-1c1,0.2,2.1,0.2,3.1,0.1
	c1.4-0.1,2.7-0.6,3.8-1.6l0,0c0,0,8-3.3,11.1-16.4c0,0,2.3-2.9,2.2-3.6l-4.8,2c0,0,1.6,3.5,0.4,6.4c0,0-0.2-6.2-1.1-6.1
	c-0.2,0-2.5,1.2-2.5,1.2s2.8,6,0.7,10.4c0,0,0.8-7.4-1.6-10l-3.4,2c0,0,3.3,6.2,1.1,11.3c0,0,0.6-7.8-1.8-10.9l-3.1,2.4
	c0,0,3.1,6.1,1.2,10.4c0,0-0.2-9.1-1.9-9.8c0,0-2.7,2.4-3.1,3.3c0,0,2.1,4.5,0.8,6.8c0,0-0.8-6-1.5-6.1c0,0-2.7,4-3,6.8
	c0.1-2.5,0.9-5,2.3-7.1c-1.5,0.3-3,1-4.1,2.1c0,0,0.4-2.8,4.8-3.1c0,0,2.2-3,2.8-3.2c0,0-4.3-0.4-6.9,0.8c0,0,2.3-2.7,7.7-1.5l3-2.5
	c0,0-5.7-0.8-8.1,0.1c0,0,2.8-2.4,8.9-0.6l3.3-2c0,0-4.8-1-7.7-0.7c0,0,3-1.6,8.7,0.1l2.4-1c0,0-3.6-0.7-4.6-0.8s-1.1-0.4-1.1-0.4
	c2.2-0.4,4.6-0.1,6.7,0.7C630.2,780.6,635.2,778.8,635.1,778.5z"/>
<ellipse class="st4" cx="615.5" cy="803.6" rx="20.2" ry="3.4"/>
<g id="_x31_cf578eb-5ffb-4cd7-95b8-45aaaddab7e0">
	
		<linearGradient id="SVGID_1_" gradientUnits="userSpaceOnUse" x1="652.7001" y1="598.6602" x2="652.7001" y2="107.3601" gradientTransform="matrix(1 0 0 1 -41.9 -7.4601)">
		<stop  offset="0" style="stop-color:#808080;stop-opacity:0.25"/>
		<stop  offset="0.54" style="stop-color:#808080;stop-opacity:0.12"/>
		<stop  offset="1" style="stop-color:#808080;stop-opacity:0.1"/>
	</linearGradient>
	<path class="st9" d="M1081.8,584.2V99.9h-942v456.5c12,10,26.5,18.5,41.6,25.4c7.4,3.4,15,6.6,22.8,9.4h866.4L1081.8,584.2z"/>
	<path class="st10" d="M1080,584.4V113.7H141.8v443.7c12,9.8,26.4,18,41.4,24.8c7.4,3.3,15,6.3,22.7,9.1h862.8L1080,584.4z"/>
	<rect x="141.8" y="101.2" class="st11" width="938.1" height="24.9"/>
</g>
<g id="_x36_703b009-63cb-4af0-a0d7-9948e224c180">
	<circle class="st10" cx="160.6" cy="113.7" r="6.4"/>
	<circle class="st10" cx="177.9" cy="113.7" r="6.4"/>
	<circle class="st10" cx="195.2" cy="113.7" r="6.4"/>
</g>
<rect x="424.1" y="171.9" class="st12" width="155" height="97.4"/>
<rect x="209.6" y="171.9" class="st13" width="155" height="97.4"/>
<rect x="638.7" y="171.9" class="st13" width="155" height="97.4"/>
<rect x="209.6" y="311.1" class="st13" width="155" height="97.4"/>
<rect x="424.1" y="311.1" class="st13" width="155" height="97.4"/>
<rect x="638.7" y="311.1" class="st13" width="155" height="97.4"/>
<rect x="209.6" y="450.3" class="st13" width="155" height="97.4"/>
<rect x="424.1" y="450.3" class="st13" width="155" height="97.4"/>
<rect x="638.7" y="450.3" class="st13" width="155" height="97.4"/>
<rect x="851.5" y="170.9" class="st13" width="155" height="97.4"/>
<rect x="851.5" y="310.1" class="st13" width="155" height="97.4"/>
<rect x="851.5" y="449.3" class="st13" width="155" height="97.4"/>
<g id="_x32_796dd85-6618-42ad-b8a0-d6b4cc80ab2d">
	
		<linearGradient id="SVGID_2_" gradientUnits="userSpaceOnUse" x1="475.5938" y1="844.86" x2="475.5938" y2="212.5988" gradientTransform="matrix(1 0 0 1 -41.9 -7.4601)">
		<stop  offset="0" style="stop-color:#808080;stop-opacity:0.25"/>
		<stop  offset="0.54" style="stop-color:#808080;stop-opacity:0.12"/>
		<stop  offset="1" style="stop-color:#808080;stop-opacity:0.1"/>
	</linearGradient>
	<path class="st14" d="M508.8,424.8c0,0-27.8-50.9-23.1-59.2c4.7-8.3,8.1-20.3,8.1-20.3s10.3-7,10.3-9.9s8.1-9.5,12.4-12.4
		c4.3-2.9,2.1-16.5,0-18.2s-5.5-7.4-5.5-7.4s3-8.3,0-10.8s0.4-5,0-7.4c-0.4-2.5,0-11.6,0-11.6c-3.5-4.8-7.3-7.1-11-7.9l-0.3-1.3
		l-1.8-7.7c0,0,8.9-17.1-5.5-26c-1-0.6-2.1-1.2-3.2-1.7c0,0,0-0.4-0.1-1.1c-0.2-2.6-0.8-8.9-2.1-13.1c-0.8-2.4-1.7-4-3-3.6
		c-0.3,0.1-0.6,0.2-0.8,0.5c-0.6,0.5-1.1,1.1-1.5,1.8l0,0c0,0,0,0.1-0.1,0.1l0,0c-1.6,2.9-2.8,6.1-3.4,9.5c-0.4,2-0.8,3.9-1,5.9l0,0
		c-0.6,1.2-1.2,2.4-1.7,3.7c-1.8,4.5-3.8,12.4-0.1,18.2c3.2,5,7.4,11.8,10.5,16.7l0.1,0.2l0.2,0.3l-0.3,0.2v0.8l0.3,4.2l2.4,36
		c-0.7-0.2-1.5-0.4-2.2-0.5c-1.1-0.2-2.1-0.2-3.2-0.2c-2.1-8.2-7.8-15.8-8.9-24.4c-0.1-0.9-0.2-1.7-0.2-2.6
		c0.1-5.4,1.4-10.8,1.3-16.2c0-1,0-2-0.1-3l0,0c0-0.3,0-0.5-0.1-0.8c-1.1-8-6.1-14.9-13.2-18.4c-2.5-1.2-5.2-2.1-7.6-3.4
		c-5.6-3.1-9.2-8.8-14.2-12.6c-3.8-2.9-9.4-4.4-13.6-3c-2.2,0.3-4.4,0.8-6.6,1.4l0,0c-5.3,1.4-10.4,3.5-15.2,6.3
		c-0.6,0.4-1.3,0.8-1.9,1.2c-1.3,0.9-2.4,2.1-3.1,3.6c-0.4,1.2-0.6,2.5-0.5,3.9c0,0.9,0,1.9,0.1,2.8c-0.3,15.8-17.3,28.1-18.8,43.6
		c0,0.4-0.1,0.7-0.1,1.1c0,0.1,0,0.2,0,0.3c0,0.4,0,0.9,0,1.4l0,0c0,0.2,0,0.4,0,0.6s0,0.4,0,0.6c0.2,6.8,3.8,13.1,4.4,19.9
		c0.1,0.6,0.1,1.2,0.1,1.8c-0.1,3.1-0.7,6.2-1.8,9.1c-2.1,0.6-4.2,1.4-6.1,2.5c-5.2,3.3-14.6,9.1-18,20.1c-0.9,2.9-1.3,5.8-1.3,8.8
		c-0.1,10.6-1,21.1-2.9,31.5c-0.4,2.6-1,5.2-1.8,7.8c-0.1,0.2-0.1,0.5-0.1,0.8l-2.1,26.7l-0.4,4.7l-0.5,6.7c0,0,0.1,0.4,0.4,1.1
		c0.3,1,0.6,2,0.8,3.1c0.6,2.3,0.7,4.6,0.3,6.9c-0.2,1-0.7,1.9-1.4,2.5c-0.1,0.1-0.1,0.1-0.2,0.2c-0.6,0.8-1.1,3.3-1.6,6.8
		c-0.2,1.4-0.3,3-0.5,4.6c-1,10.5-1.6,26.3-2,39.4c-0.4,12.9-0.5,23-0.5,23c1.7,1.1,3.5,2,5.3,2.6c-0.1,0.3-0.3,0.7-0.4,1.1
		c-1.7,4.4-2.8,8.9-3.2,13.6c-0.8,9.7,1.9,20.5,15.5,26.1c0.9,0.4,1.8,0.7,2.7,0.9c3,0.8,5.2,0.6,6.8-0.4c0,0.6,0.1,1.1,0.1,1.7
		c0.1,2.4,0.3,4.6,0.3,6.5c0.4,11.6,3.3,31.8,3.3,31.8s1,8.3,0.1,10.8s0,12.4,0,12.4s3,5,0,7.4c-3,2.5-3.9,14.9-3,16.5
		c0,0.1,0,0.1,0,0.2c0.7,4.1-3,65.2-3,65.2s-3.5,9.3-6.3,19.1c-2.7,9.4-4.8,19.2-2.2,21.1c1.2,0.9,4.1,1.6,7.8,2.1
		c0,0.4-0.1,0.8-0.1,1.2c-0.4,4.4-0.9,9.1-1.7,10.3c-1.2,1.7-2.4,14.7-3,21.8l-0.1,0.8c-1.3,3-2.3,6.1-3.2,9.2
		c0,0-9.5,23.8-6.3,29.9c0.3,0.6,0.7,1,1.2,1.5l0,0c0.1,0.1,0.2,0.2,0.3,0.3c4.6,3.7,16,4.4,20.2,4.6l-0.2,5.9v0.2h5.4v-0.1
		c0-0.7,0.1-4.1,0.3-8.7c0-0.8,0.1-1.7,0.1-2.5c0-0.7,0.1-1.4,0.1-2.1c1.6-4.2,2.4-8.7,2.3-13.2c0-5.2,0.7-10.3,2.1-15.3
		c0.7-2.6,1.6-5.1,2.7-7.5c0,0,1.7-8.9-0.7-15.2c-0.4-1.3-1.1-2.4-2-3.4c0-0.2,0-0.4,0-0.6s0-0.5,0-0.7s0-0.4,0-0.6
		c-0.1-4.3,0.4-8.5,1.3-12.7c0-0.1,0-0.1,0-0.2c0.1-0.3,0.2-0.7,0.3-1l0.1-0.2l1.8,0.1c5.4,0.1,9.3,0.1,9.3,0.1s4.3-21.9,3.9-31.4
		c0-0.4,0-0.9,0-1.3c-0.1-9.4,2.6-22.3,2.6-22.3l3.5-33.5c0,0-1.7-5.8,0-9.9c1.1-2.6,3.2-7.3,4.8-10.6c0.7-1.5,1.3-2.7,1.5-3.2
		l0.1-0.3c-0.5-0.2-1.1-0.4-1.5-0.8l0,0c-1.4-0.9-2.6-2.8,1.5-5.4c6.4-4.1,4.3-14.5,4.3-14.5s-1.9-3.7,0.3-7c2.2-3.3,0-15.7,0-15.7
		c1.8-3.3,3.3-6.7,4.4-10.3c1.6-5,5.6-29.2,7.5-40.8c0.6-3.8,1-6.3,1-6.3l0.1,0.6l0.1,0.7l0,0l0.5,5.5l0.1,0.7l1,10.4
		c0,0,2,27.4,0.7,38.2c0,0.1,0,0.1,0,0.2c-0.1,1.1-0.3,2.2-0.7,3.3c-2.3,5.1-1.9,25.6-1.7,30.1c0,0.4,0,0.7,0,0.9s-1.6,4-1.2,7l0,0
		c0.1,0.7,0.4,1.5,0.8,2.1c0.6,1,0.9,2.1,0.8,3.2v0.1c0,0.5-0.1,1-0.1,1.4c-0.3,1.9-0.8,3.8-1.5,5.6c0,0-2.3,6-1.4,9.2l0,0
		c0.1,0.4,0.3,0.8,0.6,1.1c0.2,0.4,0.3,0.8,0.3,1.2v0.1c0.8,6.7-1.3,36.1-2.5,52.2c-0.5,6.4-0.9,10.6-0.9,10.6l-3.4,35.2l0.3,0.2
		c0.4,0.3,1.1,0.8,2.1,1.3c0,0,0,0,0,0.1l-0.1,1.1c-0.5,3.4-1.1,7.3-1.9,10.3c-0.1,0.2-0.1,0.4-0.2,0.7c-1.3,0.2-2.5,0.7-3.6,1.5
		c-7.2,12.8-4,23,0,25.9c1.1,0.8,1.9,3.2,2.4,6l1,12.8c0,0.5,0,1,0,1.5c0,0.4,0.1,0.8,0.2,1.2l0.3,3.9l0.4,5.4h3.3v-6.5h0.2
		c5.2,0.2,13.6,0.4,17.2,0.1h0.1c0.4,0,0.7-0.1,1-0.1c0.2,0,0.4-0.1,0.6-0.2c1.9-0.9,6.7-14.6,2.4-17.7c-4.3-3.1-5.3-11.9-5.3-11.9
		c-0.4-1.1-0.8-2.2-1.1-3.3c0-0.2,0-0.4,0-0.7c-0.1-4.2-0.1-8.9,0.5-11.3c0.7-2.7,1-8.5,1.1-13.6c0-0.4,0-0.8,0-1.1v-0.1
		c0.8-0.2,1.5-0.4,2.2-0.7l0.2-0.1c1.3-0.6,2.6-1.3,3.7-2.2l12.1-53.7l1.3-6.2l7.3-35.5c0,0-2.6-12.4,0-14.5c0.9-0.8,1.2-4,1.1-7.7
		c-0.1-6.5-1.1-14.7-1.1-14.7s3.4-5.4,5.1-8.7s0-12,0-12L481,589c0,0,3.9-23.6,13.3-43.4c6.9-14.6,2.5-54-2-75
		c-0.1-0.5-0.2-1.1-0.4-1.6v-0.1c2.1-1,4.7-2.3,7.5-3.6l1-0.5c3.5-1.7,7.2-3.4,10.6-4.8l0.2-0.1c2.4-1,4.9-2,7.4-2.8
		c0.7-0.2,1.5-0.4,2.3-0.5C526.8,456.3,508.8,424.8,508.8,424.8z M374.8,492.1h1.8c-0.2,0.4-0.4,0.8-0.6,1.2
		c-0.1,0.2-0.2,0.5-0.3,0.7c-0.7,1.4-1.3,2.7-1.8,4.1c0.2-1.5,0.4-3.1,0.7-4.8C374.7,493,374.8,492.5,374.8,492.1z M370,517.9
		L370,517.9l-0.1-0.6c-0.1-0.3-0.2-0.6-0.3-1c0.6-0.2,1.2-0.4,1.9-0.6h0.1c0,0.1,0,0.2,0,0.3c0,0.5-0.1,0.9-0.2,1.4l0,0
		c0,0.1,0,0.1,0,0.2c0,0.4-0.1,0.7-0.1,1.1c-0.1,0.7-0.2,1.4-0.3,2.1c-0.2-0.6-0.4-1.2-0.6-1.8C370.3,518.6,370.1,518.3,370,517.9
		L370,517.9z"/>
	<path class="st15" d="M498.6,266.1l-10.7,3.8l-3.9-6.4c-3-5-7.1-11.7-10.1-16.6c-5.4-8.7,1.7-21.8,1.7-21.8s1.3-13.2,5.8-17.3
		s5.8,17.3,5.8,17.3c18.1,8.2,8.4,27.6,8.4,27.6l1.8,7.7L498.6,266.1z"/>
	<path class="st5" d="M498.6,266.1l-10.7,3.8l-3.9-6.4v-0.6c0,0,6.1-4.2,13.3-2.6L498.6,266.1z"/>
	<path class="st16" d="M481.3,309.5l5.4-4.5l-2.7-40.8c0,0,13.9-9.5,24.1,5.4c0,0-0.4,9.1,0,11.5c0.4,2.5-2.9,5,0,7.4
		c2.9,2.5,0,10.7,0,10.7s3.3,5.8,5.3,7.4c2.1,1.6,4.1,15.3,0,18.1c-4.1,2.9-11.9,9.5-11.9,12.4s-9.9,9.9-9.9,9.9l-8.7-11.5
		L481.3,309.5z"/>
	<path class="st15" d="M365.4,557.3c-20-8.5-15.5-29.2-11.8-39.6c0.8-2.1,1.6-4.2,2.6-6.2l11.2-6.8c0,0,2.3,5.8,4.7,13.7
		C377.9,536.5,384.4,565.3,365.4,557.3z"/>
	<path class="st15" d="M392.9,746.2c-1.4,2.6-2.4,5.4-3,8.3c-1,4.7-1.4,9.4-1.3,14.2c0.1,3.3,0.4,5.5,0.4,5.5l-22.3,15.3
		c0,0,0.1-1.8,0.3-4.4c0.6-7,1.8-20,2.9-21.7c0.8-1.2,1.3-5.9,1.7-10.2c0.3-4.4,0.5-8.2,0.5-8.2S398.9,734.9,392.9,746.2z"/>
	<path class="st15" d="M445.5,757.2c0,0,0,4.3-0.2,9.2c-0.2,5-0.5,10.8-1.1,13.5c-0.6,2.5-0.6,7.1-0.5,11.3c0.1,5,0.5,9.4,0.5,9.4
		s-22.7-21.5-20.4-23.2c0.6-0.5,1.2-2.3,1.8-4.7c0.7-3,1.3-6.9,1.8-10.3c0.6-4,0.9-7.2,0.9-7.2L445.5,757.2z"/>
	<path class="st5" d="M392.9,746.2c-1.4,2.6-2.4,5.4-3,8.3c-6.1-0.2-12.2-0.6-18.2-1.4c0.3-4.3,0.5-8.2,0.5-8.2
		S398.9,734.9,392.9,746.2z"/>
	<path class="st5" d="M445.5,757.2c0,0,0,4.3-0.2,9.2c-7.1,1.8-14.4-1.8-17.9-4c0.6-4,0.9-7.2,0.9-7.2L445.5,757.2z"/>
	<path class="st17" d="M492,546.5c-9.1,19.8-12.8,43.3-12.8,43.3l-3.3,19.8c0,0,1.7,8.7,0,12s-5,8.7-5,8.7s2.5,20.2,0,22.3
		s0,14.4,0,14.4l-8.2,41.6l-11.5,53.6c-11.1,9.1-25.9-2.5-25.9-2.5l3.3-35c0,0,5-61.4,2.9-63.9s0.8-10.3,0.8-10.3s2.9-7.4,0.8-10.3
		c-2.1-2.9,0.4-9.1,0.4-9.1s-0.8-25.2,1.7-30.9c2.5-5.8,0-41.5,0-41.5l-1-11.1l-0.6-6.2v-0.6c0,0-0.4,2.5-1,6.3
		c-1.8,11.6-5.7,35.7-7.2,40.7c-1,3.6-2.5,7-4.2,10.3c0,0,2.1,12.4,0,15.7s-0.3,7-0.3,7s2.1,10.3-4.1,14.4c-6.2,4.1,0,6.2,0,6.2
		s-4.5,9.9-6.2,14c-1.6,4.1,0,9.9,0,9.9l-3.3,33.4c0,0-2.9,14-2.5,23.5s-3.7,31.3-3.7,31.3s-31.7,0-36.6-3.7s8.2-39.9,8.2-39.9
		s3.7-63.5,2.9-65.1s0-14,2.9-16.5s0-7.4,0-7.4s-0.8-9.9,0-12.4s-0.1-10.7-0.1-10.7s-2.8-20.2-3.2-31.7c-0.4-11.5-2.5-37.5-2.5-37.5
		s2.2-16.1,2.5-23.7c0.1-2.8,1.4-6.3,3-9.6c1.8-3.7,3.8-7.3,6.1-10.8c0,0,97.7-28.9,101.8-26c1.1,0.8,2.7,5.9,4.2,13.4
		C494.4,492.7,498.7,532,492,546.5z"/>
	<circle class="st18" cx="431.8" cy="266.1" r="28.4"/>
	<path class="st5" d="M490.1,471.8c-3.3,1.7-5.5,2.8-5.5,2.8s-46.2,21.9-59.3,20.6c-10.2-1-36.1-0.4-47.4-0.1
		c1.8-3.7,3.8-7.3,6.1-10.8c0,0,97.7-28.9,101.8-26C486.9,459.1,488.5,464.2,490.1,471.8z"/>
	<path class="st16" d="M412,311.6c0,0-26.3,4.2-32.6,8.2s-18.5,12-18.5,28.9s-2.9,34.2-4.5,39.2c-1.7,4.9,26,44.9,26,44.9l-9.9,60.6
		c0,0,39.6-1.2,52.8,0c13.2,1.2,59.3-20.6,59.3-20.6s27.2-14.4,33-14.9S506,426.1,506,426.1s-26.8-50.7-22.3-58.9
		c4.5-8.2,7.9-20.2,7.9-20.2l-5-42c0,0-7.4-2.5-13.6,2.1c-6.2,4.5-27.2,2.1-27.2,2.1L412,311.6z"/>
	<path class="st5" d="M367.3,384.9l-10.3,2.9l-2.9,38.8c0,0,3.7,10.3,0,13.6c-3.7,3.3-4.5,73.8-4.5,73.8s12,8.7,26,2.1
		c0,0-2.1-7.8,4.1-36.3c6.2-28.4,6.2-42.9,6.2-42.9s0-35.5,2.9-41.2c2.9-5.8,0-20.2,0-20.2s-5.8-7.8-5.4-10.7
		C383.8,361.9,367.3,384.9,367.3,384.9z"/>
	<path class="st5" d="M372.2,518.3c-6.1,2-12.7,1.8-18.6-0.7c0.8-2.1,1.6-4.2,2.6-6.2l11.2-6.8C367.5,504.7,369.8,510.5,372.2,518.3
		z"/>
	<path class="st16" d="M366.7,384.9l-10.3,2.9l-2.9,38.8c0,0,3.7,10.3,0,13.6c-3.7,3.3-4.5,73.8-4.5,73.8s12,8.6,26,2
		c0,0-2.1-7.8,4.1-36.3c6.2-28.4,6.2-42.9,6.2-42.9s0-35.5,2.9-41.2c2.9-5.8,0-20.2,0-20.2s-5.8-7.8-5.4-10.7
		C383.2,361.9,366.7,384.9,366.7,384.9z"/>
	<path class="st5" d="M472.2,391.1c0,0-5.4,46.2-21,54.8C451.2,445.9,486.2,436.1,472.2,391.1z"/>
	<path class="st5" d="M393.5,395.2c0,0,19.4,9.5,14.9,16.1C403.8,417.9,393.5,395.2,393.5,395.2z"/>
	<path class="st5" d="M393.5,414.2c0,0,12.4,12.8,9.9,17.3C400.9,436.1,393.5,414.2,393.5,414.2z"/>
	<path class="st5" d="M493.2,308.3c0,0,4.9,8.2,5.3,13.6S493.2,308.3,493.2,308.3z"/>
	<path class="st5" d="M493.2,297.1c0,0,2.4-2.1,8.7,0C508.1,299.2,493.2,297.1,493.2,297.1z"/>
	<path class="st5" d="M469.4,538.1c-10.2,1.4-20.6,0.1-30.2-3.9l-5.2,13.3l-0.6-6.2c0.9-5.2,2.5-10.7,5.8-12.1
		C439.3,529.3,450.7,538.4,469.4,538.1z"/>
	<path class="st5" d="M384.9,555.4c0,0,25.4,5.3,32.5,4.3L384.9,555.4z"/>
	<path class="st5" d="M387.5,562c0,0,10.8-0.5,16.2,1.7L387.5,562z"/>
	<path class="st5" d="M388.7,566.5c4.9,1,10,1.7,15,2L388.7,566.5z"/>
	<path class="st5" d="M388.1,623.3c0.5-0.3,21.6-5.3,24.3-1.7L388.1,623.3z"/>
	<path class="st5" d="M388.1,629.8c0,0,18.4-2.2,18.9,0C407.4,631.9,388.1,629.8,388.1,629.8z"/>
	<path class="st5" d="M388.1,635.6c0,0,19.6-4.1,22-3.1S388.1,635.6,388.1,635.6z"/>
	<path class="st5" d="M389,774.2l-22.3,15.3c0,0,0.1-1.8,0.3-4.4c5-12.2,11.4-18.6,11.4-18.6c5-1.3,8.2-0.1,10.2,2.3
		C388.8,772,389,774.2,389,774.2z"/>
	<path class="st17" d="M391.2,787.9c-3.1,7.2-4.7,14.9-4.6,22.8c0.1,6.4-1.5,12.8-4.7,18.3c-0.5,0.8-1,1.5-1.6,2.2
		c0,0-15.5-0.1-20.9-4.6c-0.6-0.5-1.1-1.1-1.5-1.8c-3.1-6.2,6-29.8,6-29.8c4.8-18.2,14.5-28,14.5-28
		C395.8,762.6,391.2,787.9,391.2,787.9z"/>
	<path class="st5" d="M381.9,829c-0.5,0.8-1,1.5-1.6,2.2c0,0-15.5-0.1-20.9-4.6c2.7-8.8,11.2-35.5,15.1-30.9
		C378.3,799.9,380.9,820.4,381.9,829z"/>
	<path class="st17" d="M379.7,797.3l-1.1,39.9h5.2c0,0,0.8-35,3.2-39.9C389.3,792.4,379.7,797.3,379.7,797.3z"/>
	<path class="st5" d="M444.2,800.6c0,0-22.7-21.5-20.4-23.2c0.6-0.5,1.2-2.3,1.8-4.7c4.4-0.8,11.9,1.1,18.1,18.5
		C443.9,796.1,444.2,800.6,444.2,800.6z"/>
	<path class="st17" d="M447.6,824.6c-0.2,0.1-0.4,0.1-0.5,0.2c-2.7,0.5-12.5,0.2-18,0c-2.1-0.1-3.8-1.8-3.8-3.9c0-1.5,0-3.3-0.1-5.2
		c-0.3-6.1-1-13.4-3.2-15c-3.9-3-6.9-13.1,0-25.8c0,0,13.3-10.1,22.9,20.4c0,0,0.9,8.7,5.1,11.8S449.5,823.7,447.6,824.6z"/>
	<path class="st5" d="M447.1,824.7c-2.7,0.5-12.5,0.2-18,0c-2.1-0.1-3.8-1.8-3.8-3.9c0-1.5,0-3.3-0.1-5.2c1.7-7.4,4.1-15,7.2-16.7
		C432.3,798.9,441.7,797.8,447.1,824.7z"/>
	<polygon class="st17" points="423.7,798 426.2,831.2 429.3,831.2 429.3,795.1 	"/>
	<path class="st5" d="M431.4,220.8c-9,0.7-17.7,3.5-25.4,8.1c-2,1.2-4,2.7-4.8,4.8c-0.7,1.9-0.4,4-0.4,5.9c0.3,17.1-18.7,30-18.1,47
		c0.2,6.8,3.6,13.1,4.3,19.8c1,11.2-5.6,21.6-12,30.9c6.6,0.4,13-1.7,18.1-6c6.7,22.4,7.6,46.2,2.5,69.1h9.1c0.9-0.1,1.8,0,2.7,0.3
		c0.8,0.4,1.5,0.9,2.1,1.6c8.5,8.5,14.2,21,11,32.6l19.4-7.3c4.6-1.7,9.4-3.5,13.4-6.4s7.4-7,8.3-11.9c0.5-3,0.4-6.5,2.8-8.2
		c1.2-0.6,2.5-1.1,3.8-1.4c5.3-1.9,7.7-8,8.8-13.6c1.3-6.8,1.7-13.8,1.2-20.7c-0.9-11.6-4.3-23.3-1.5-34.7
		c1.6-6.3,5.1-12.3,5.4-18.8c0.5-10.8-8-20.1-9.2-30.9c-0.9-7.5,1.8-15.1,0.9-22.5c-1-7.8-5.7-14.7-12.7-18.4c-2.4-1.2-5-2-7.3-3.4
		c-5.4-3.1-8.8-8.7-13.7-12.6c-4.9-3.9-13-5.3-16.7-0.3L431.4,220.8z"/>
	<path class="st19" d="M431.4,219.6c-9,0.7-17.7,3.5-25.4,8.1c-2,1.2-4,2.7-4.8,4.8c-0.7,1.9-0.4,4-0.4,5.9
		c0.3,17.1-18.7,30-18.1,47c0.2,6.8,3.6,13.1,4.3,19.8c1,11.2-5.6,21.6-12,30.9c6.6,0.4,13-1.8,18.1-6c6.7,22.4,7.6,46.2,2.5,69h9.1
		c0.9-0.1,1.8,0.1,2.7,0.3c0.8,0.4,1.5,0.9,2.1,1.6c8.5,8.5,14.2,21,11,32.6l19.4-7.3c4.6-1.7,9.4-3.5,13.4-6.4s7.4-7,8.3-11.9
		c0.5-3,0.4-6.5,2.8-8.2c1.2-0.6,2.5-1.1,3.8-1.4c5.3-1.9,7.7-8,8.8-13.6c1.3-6.8,1.8-13.8,1.3-20.7c-0.9-11.6-4.3-23.3-1.5-34.7
		c1.6-6.3,5.1-12.3,5.4-18.8c0.5-10.8-8-20.1-9.2-30.9c-0.9-7.5,1.8-15.1,0.9-22.5c-1-7.8-5.8-14.7-12.7-18.4c-2.4-1.2-5-2-7.3-3.4
		c-5.4-3.1-8.8-8.7-13.7-12.6s-13-5.3-16.7-0.3L431.4,219.6z"/>
	<g class="st20">
		<path d="M400.8,234.3c0,0.4-0.1,0.8-0.1,1.1C400.8,235.1,400.8,234.7,400.8,234.3z"/>
		<path d="M472.8,274c0.4-5.2,1.5-10.5,1.1-15.7C473.6,263.5,472.4,268.7,472.8,274z"/>
		<path d="M387,300.1c-0.6-6.1-3.4-11.9-4.1-18c-0.1,1.1-0.2,2.3-0.1,3.4c0.2,6.7,3.6,12.9,4.2,19.6
			C387.1,303.4,387.1,301.7,387,300.1z"/>
		<path d="M476.8,324.4c-0.9,4-1.3,8.2-1,12.3c0.1-2.4,0.4-4.8,1-7.1c1.6-6.3,5.1-12.3,5.4-18.8c0-1.2,0-2.3-0.2-3.5
			C481.3,313.2,478.2,318.7,476.8,324.4z"/>
		<path d="M393.1,325c-4.1,3.5-9.2,5.5-14.6,5.9c-1.1,1.8-2.3,3.5-3.5,5.2c6.6,0.4,13-1.8,18.1-6c3.6,12,5.6,24.5,5.8,37.1
			C399.1,352.9,397.2,338.7,393.1,325z"/>
		<path d="M477,379.7c-1.1,5.5-3.4,11.7-8.8,13.6c-1.3,0.3-2.6,0.8-3.8,1.4c-2.4,1.7-2.3,5.3-2.8,8.2c-0.9,4.9-4.2,9.1-8.3,11.9
			c-4,2.8-8.8,4.7-13.4,6.4l-18.5,6.9c-0.1,1.9-0.4,3.7-0.9,5.5l19.4-7.3c4.6-1.7,9.4-3.5,13.4-6.4s7.4-7,8.3-11.9
			c0.5-3,0.4-6.5,2.8-8.2c1.2-0.6,2.5-1.1,3.8-1.4c5.3-1.9,7.7-8,8.8-13.6c1.1-5.8,1.6-11.7,1.4-17.5
			C478.2,371.5,477.8,375.6,477,379.7z"/>
		<path d="M409.5,395.9c-0.6-0.7-1.3-1.2-2.1-1.6c-0.9-0.3-1.8-0.4-2.7-0.3h-8.1c-0.3,1.7-0.7,3.4-1,5.2h9.1
			c0.9-0.1,1.8,0.1,2.7,0.3c0.8,0.4,1.5,0.9,2.1,1.6c6.2,6.2,11,14.6,11.8,23.2C422.3,414,417,403.4,409.5,395.9z"/>
	</g>
	<path class="st5" d="M364.3,429.7c0,0,7.4-3.1,9,0C374.9,432.7,364.3,429.7,364.3,429.7z"/>
	<path class="st5" d="M366.9,435c0,0,7.4-3.1,9,0C377.5,438,366.9,435,366.9,435z"/>
</g>
<g id="_x35_f43f84a-a268-4bb5-a31a-6b0c09aee323">
	<path class="st21" d="M823.4,35.2c0,0-37.7-2.3-33.2,24.1c0,0-0.9,4.7,3.3,6.8c0,0,0.1-2,3.9-1.3c1.4,0.2,2.7,0.3,4.1,0.2
		c1.8-0.1,3.6-0.9,5-2.1l0,0c0,0,10.6-4.4,14.7-21.7c0,0,3-3.8,3-4.8l-6.4,2.7c0,0,2.2,4.6,0.5,8.4c0,0-0.2-8.2-1.4-8
		c-0.2,0-3.3,1.6-3.3,1.6s3.7,8,0.9,13.8c0,0,1.1-9.8-2.1-13.2l-4.5,2.7c0,0,4.4,8.2,1.4,15c0,0,0.8-10.3-2.3-14.3l-4.1,3.2
		c0,0,4.1,8.1,1.6,13.7c0,0-0.3-12-2.5-12.9c0,0-3.5,3.1-4.1,4.4c0,0,2.8,5.9,1.1,9c0,0-1.1-8-2-8c0,0-3.5,5.3-3.9,8.9
		c0.2-3.4,1.2-6.6,3-9.5c-2,0.4-3.9,1.4-5.4,2.8c0,0,0.5-3.8,6.3-4.1c0,0,2.9-4,3.7-4.3c0,0-5.7-0.5-9.2,1.1c0,0,3-3.5,10.2-2l4-3.3
		c0,0-7.5-1-10.7,0.1c0,0,3.7-3.1,11.8-0.9l4.4-2.6c0,0-6.4-1.4-10.2-0.9c0,0,4-2.2,11.5,0.2l3.1-1.4c0,0-4.7-0.9-6.1-1.1
		c-1.4-0.1-1.4-0.5-1.4-0.5c3-0.5,6-0.2,8.8,1C816.9,38,823.6,35.6,823.4,35.2z"/>
	<path class="st21" d="M769.7,13.8c0,0-31.7,20.5-12.5,39.1c0,0,2,4.3,6.7,3.5c0,0-1.1-1.6,2.3-3.3c1.2-0.6,2.4-1.4,3.4-2.3
		c1.4-1.2,2.4-2.8,2.8-4.6l0,0c0,0,5.9-9.8-1-26.2c0,0,0.2-4.9-0.5-5.6l-3.5,5.9c0,0,4.5,2.4,5.3,6.5c0,0-5-6.5-5.9-5.6
		c-0.2,0.2-1.7,3.2-1.7,3.2s7.8,4.2,8.9,10.6c0,0-5-8.6-9.5-9.4l-2.1,4.8c0,0,8.4,4.1,10,11.2c0,0-5.5-8.8-10.4-10.2l-1.4,5
		c0,0,8.1,4.1,9.4,10.1c0,0-7.4-9.5-9.7-8.9c0,0-1,4.6-0.7,5.9c0,0,5.8,3.1,6.2,6.6c0,0-5.6-5.8-6.3-5.3c0,0,0.3,6.4,2.1,9.5
		c-1.9-2.8-2.9-6.1-3.1-9.4c-1.4,1.5-2.4,3.4-2.7,5.5c0,0-1.8-3.3,2.6-7c0,0,0-5,0.4-5.6c0,0-4.9,3-6.8,6.3c0,0,0.4-4.7,7.1-7.6
		l1.3-5c0,0-6.7,3.6-8.5,6.4c0,0,1.1-4.7,9-7.7l2-4.7c0,0-5.9,2.7-8.8,5.3c0,0,2-4.1,9.4-6.7l1.7-3c0,0-4.3,2-5.5,2.7
		s-1.5,0.4-1.5,0.4c2.1-2.2,4.8-3.7,7.7-4.4C766.2,19.9,770.1,14,769.7,13.8z"/>
	<path class="st21" d="M721.5,37.7c0,0-18.9,32.7,6.6,40.5c0,0,3.8,2.9,7.6,0c0,0-1.7-0.9,0.6-4c0.8-1.1,1.5-2.3,2-3.6
		c0.7-1.7,0.9-3.6,0.4-5.4l0,0c0,0,0.8-11.4-12.8-22.9c0,0-2-4.4-3-4.7l-0.4,6.9c0,0,5.1,0.1,7.7,3.4c0,0-7.4-3.5-7.8-2.3
		c-0.1,0.2-0.1,3.7-0.1,3.7s8.9,0.3,12.9,5.4c0,0-8.3-5.4-12.7-4.1l0.3,5.2c0,0,9.3-0.2,14,5.5c0,0-8.9-5.3-13.9-4.3l1,5
		c0,0,9.1,0,13,4.7c0,0-10.9-5.1-12.7-3.6c0,0,1.2,4.6,2.1,5.6c0,0,6.5,0.1,8.5,3.1c0,0-7.6-2.6-8.1-1.9c0,0,3.2,5.5,6.2,7.5
		c-2.9-1.7-5.4-4-7.1-6.9c-0.6,2-0.5,4.1,0.1,6.1c0,0-3.1-2.2-0.8-7.4c0,0-2.3-4.4-2.1-5.2c0,0-3,4.9-3.2,8.7c0,0-1.8-4.3,2.9-10
		l-1.1-5c0,0-4.3,6.2-4.7,9.6c0,0-1.1-4.7,4.5-10.9l-0.4-5.1c0,0-4.1,5.1-5.4,8.7c0,0-0.1-4.6,5.3-10.2l0.1-3.4c0,0-3,3.8-3.7,5
		s-1.1,1-1.1,1c0.9-2.9,2.6-5.5,4.8-7.4C721.2,44.8,721.9,37.7,721.5,37.7z"/>
</g>
</svg>
