<svg xmlns="http://www.w3.org/2000/svg" viewBox="0 0 196.26 190.91"><defs><style>.cls-1{opacity:0.44;}.cls-2{fill:#fff;}</style></defs><title>puzzle2</title><g id="Calque_2" data-name="Calque 2"><g id="BODY"><g id="_1" data-name="1"><g class="cls-1"><path class="cls-2" d="M159.18,47.81,137.28,41l2-6.53A25.48,25.48,0,0,0,122.47,2.64l-4.87-1.5A25.48,25.48,0,0,0,85.73,18l-2,6.53L61.81,17.74A25.48,25.48,0,0,0,29.94,34.57L23.81,54.42,38.7,59A25.48,25.48,0,0,1,55.53,90.88L54,95.75a25.48,25.48,0,0,1-31.87,16.83L7.27,108,1.14,127.83A25.48,25.48,0,0,0,18,159.69l21.91,6.77,4.35-14.09a25.48,25.48,0,0,1,31.86-16.83L81,137a25.48,25.48,0,0,1,16.83,31.87L93.44,183l21.91,6.77a25.48,25.48,0,0,0,31.86-16.83l6.13-19.85,8.41,2.6a25.48,25.48,0,0,0,31.87-16.83l1.5-4.87a25.48,25.48,0,0,0-16.83-31.86l-8.41-2.6L176,79.68A25.48,25.48,0,0,0,159.18,47.81Z"/></g></g></g></g></svg>