<?xml version="1.0" encoding="utf-8"?>
<!-- Generator: Adobe Illustrator 24.0.1, SVG Export Plug-In . SVG Version: 6.00 Build 0)  -->
<svg version="1.1" id="Calque_1" xmlns="http://www.w3.org/2000/svg" xmlns:xlink="http://www.w3.org/1999/xlink" x="0px" y="0px"
	 viewBox="0 0 644.1 481.5" style="enable-background:new 0 0 644.1 481.5;" xml:space="preserve">
<style type="text/css">
	.st0{opacity:0.1;fill:#FF7700;enable-background:new    ;}
	.st1{fill:#3F3D56;}
	.st2{fill:#FF7700;}
	.st3{fill:none;stroke:#3F3D56;stroke-miterlimit:10;}
	.st4{fill:#FFB6B6;}
	.st5{fill:#F0F0F0;}
	.st6{fill:#2F2E41;}
	.st7{fill:#338AC5;}
	.st8{fill:#EAECF0;}
	.st9{fill:#3A3768;}
	.st10{opacity:0.1;enable-background:new    ;}
	.st11{fill:#EFC6CD;}
	.st12{fill:#D48A9B;}
	.st13{fill:#DFE6F5;}
	.st14{opacity:0.15;enable-background:new    ;}
	.st15{fill:#4C4C56;}
	.st16{fill:#D1D9EC;}
	.st17{fill:url(#SVGID_1_);}
	.st18{fill:url(#SVGID_2_);}
	.st19{fill:#D38884;}
	.st20{fill:#A36468;}
	.st21{fill:#444053;}
	.st22{fill:#67647E;}
	.st23{opacity:0.1;}
	.st24{fill:#D3DAE1;}
	.st25{fill:#FFFFFF;}
	.st26{fill:#D5E1F4;}
	.st27{fill:url(#SVGID_3_);}
	.st28{fill:#EFB7B9;}
	.st29{opacity:5.000000e-02;enable-background:new    ;}
	.st30{fill:#7E72C0;}
	.st31{fill:#FFB8B8;}
	.st32{opacity:0.2;enable-background:new    ;}
	.st33{fill:#A0616A;}
	.st34{fill:#D0CDE1;}
	.st35{fill:#57B894;}
</style>
<g>
	<path class="st0" d="M640.1,447.4c0,2.6-2.4,5.2-6.9,7.6c-23,12.4-100.8,21.5-193.4,21.5c-3.6,0-7.3,0-10.8,0
		c-105.5-0.8-189.4-13.5-189.4-29c0-16,89.6-29,200.2-29c30.3,0,59,1,84.7,2.7c6.5,0.4,12.7,0.9,18.8,1.5c2.5,0.2,5,0.4,7.5,0.7
		c11.6,1.1,22.3,2.4,32,3.8c4.7,0.7,9.2,1.4,13.4,2.2c11,2,20.2,4.2,27.3,6.5C634.1,439.4,640.1,443.3,640.1,447.4z"/>
	<path class="st0" d="M407.3,300.4c0,10.6-89.6,19.1-200.2,19.1c-18.3,0-36-0.2-52.8-0.7c-64.9-1.7-116.6-6.4-137.5-12.5
		c-6.5-1.9-9.9-3.9-9.9-6c0-2.4,4.6-4.7,12.9-6.8c4.9-1.2,11-2.4,18.3-3.5c0.1,0,0.1,0,0.2,0c16.7-2.5,39.3-4.6,65.9-6.1
		c30.1-1.7,65.2-2.7,102.8-2.7C317.7,281.3,407.3,289.9,407.3,300.4z"/>
	<path class="st1" d="M398.2,206.5l-14.6-4.1c0,0-5.7-1.1-2.2-12.3c3.5-11.2,10.4-8.1,10.4-8.1l13,3.8l5.1,1.6l-7.2,10.1l-0.6,6.7
		L398.2,206.5z"/>
	<polygon class="st1" points="426.5,176.9 431.1,195.3 407.6,218 405.6,218.6 400.2,217 395.6,198.7 400.2,193.8 395.5,192.6 
		405.6,182.7 410.9,183.9 415.1,179.6 412.3,178.5 412,177.4 415.5,174.7 	"/>
	<polygon class="st2" points="404.5,202.8 407.5,214.9 421.5,201.7 418,189.4 	"/>
	<polygon class="st3" points="426.5,176.9 427.1,179.5 403.8,202.3 401.7,202.8 396.5,201.3 396.2,201.3 395.6,198.7 400.2,193.8 
		395.5,192.6 405.6,182.7 410.9,183.9 415.1,179.6 412.3,178.5 412,177.4 415.5,174.7 	"/>
	
		<ellipse transform="matrix(0.9701 -0.2429 0.2429 0.9701 -30.4729 106.2558)" class="st2" cx="415.7" cy="176.7" rx="1.9" ry="1.3"/>
	
		<ellipse transform="matrix(0.9701 -0.2429 0.2429 0.9701 -35.6801 103.2368)" class="st2" cx="400.9" cy="196.3" rx="1.9" ry="1.3"/>
	<path class="st4" d="M388.5,229.3l3.2-10.8c0,0-8.3-19.8,1.3-21.7c9.6-1.9,10.2,18.5,10.2,18.5l-3.8,12.1L388.5,229.3z"/>
	<circle class="st4" cx="447.7" cy="182.9" r="25.3"/>
	<path class="st4" d="M439.5,200.8c0,0-1.5,18.6-5.2,20.1c-3.7,1.5,40.2,11.9,40.2,11.9l-11.2-12.7c0,0-2.2-19.4,3-23.8L439.5,200.8
		z"/>
	<path class="st5" d="M403.8,223.6l-10.2-1.3c0,0-12.1,6.4-12.1,14.7c0,8.3-7,21.7-7,21.7s-5.1,17.9,6.4,19.1
		c11.5,1.3,21.7-19.1,21.7-19.1L403.8,223.6z"/>
	<path class="st6" d="M398.1,325c0,0-22.3-21-28.7-19.8c-6.4,1.3-19.1,3.2-19.1,12.8s21,31.9,21,31.9s15.9,35.1,31.2,36.3
		c10.1,0.9,20.1,2.4,30,4.5c0,0-7,25.5-3.2,32.5c3.8,7,18.5,15.3,19.8,14.7c1.3-0.6,19.1-17.2,26.8-40.8
		c7.7-23.6,12.8-41.4,5.7-42.7C474.6,353,398.1,325,398.1,325z"/>
	<path class="st6" d="M352.2,316c0,0-4.5-0.6-3.8,10.2c0.6,10.8,2.6,49.7,5.7,57.4c3.2,7.7,3.8,16.6,2.6,19.8
		c-1.3,3.2-3.8,8.3,0.6,8.9c4.5,0.6,23-1.9,24.9-2.6s3.8-11.5,2.6-11.5c-1.3,0-4.5-0.6-3.2-5.1c1.3-4.5,1.9-4.5,0-5.7
		c-1.9-1.3-7-3.2-5.7-4.5c1.3-1.3,2.6-31.2,2.6-31.2L352.2,316z"/>
	<path class="st6" d="M358.6,410.4c0,0-10.8-3.2-12.1,3.8c0,0-1.9,10.8,6.4,14.7c5.3,2.5,10.5,5.5,15.3,8.9c0,0,13.4,5.1,14-1.3
		c0.6-6.4-2.6-29.3-2.6-29.3L358.6,410.4z"/>
	<path class="st6" d="M430.6,418.1l20.4-16.6c0,0-3.8,20.4,1.3,24.2l2.3,6.8l-6.5,5.3C448.1,437.9,428.1,434.6,430.6,418.1z"/>
	<path class="st6" d="M459.3,390c0,0-13.4,3.8-11.5,17.2c1.9,13.4,4.4,27.9,4.4,27.9s0.7,35.8,10.3,38.4s12.1-2.6,12.1-2.6
		s10.9-28,7.7-36.3c-3.9-10.1-9.5-21.5-7.7-24.9C476.4,406.4,473.3,388.1,459.3,390z"/>
	<path class="st5" d="M467,214c0,0-5.1,0.6-13.4,1.9c-8.3,1.3-14-5.1-18.5-3.8c-4.5,1.3-41.4,10.2-41.4,10.2l5.7,44
		c0,0-7,51-5.7,59.9c1.3,8.9-15.3,7.7-5.7,18.5c9.6,10.8,26.1,20.4,59.9,17.2s38.3-2.6,38.3-7.7c0-5.1-7.7-48.5-5.1-52.3
		c2.6-3.8,7.7-8.3,5.1-12.8s-5.1-7-1.3-10.8s5.7-7.7,5.7-9.6s8.9-33.2,8.9-33.2s-3.8-15.3-8.3-15.9c-4.5-0.6-8.3-3.8-11.5-3.8
		c-3.2,0-5.1,0.6-7,0L467,214z"/>
	<path class="st6" d="M411.3,178.4c2.9-0.4,6-2.1,7.6-3.2c1.9,1.8,13.2,12.1,32.8,15.1c0,0,0-0.4,0.2-1l6.7,1.1l12.4-1.2
		c-0.1,0.2-0.1,0.3-0.1,0.3s1.8-0.5,2.4-4.5c0.1-0.8,0.3-1.5,0.4-2.3c1-4.6,3.4-21-10.3-31.9c-10-8-21.5-5.5-28.8-2.4
		c-6,2.5-10.7,7.3-13.1,13.3c-0.6,1.5-1,3.1-1.2,4.7l-0.3,0.8c-2.2,0.3-6.7-1.6-9-0.7c-3.3,1.2-4.9,6.1-5.2,7.6
		C405.5,175.5,407,178.9,411.3,178.4z M453.6,183c1.8-4.5,5.1-9.5,11.2-9.3c6.3,0.3,7.5,5.3,7.2,9.6l-15.8,0.6L453.6,183z"/>
	<ellipse transform="matrix(0.1682 -0.9857 0.9857 0.1682 232.2709 567.3586)" class="st6" cx="452.3" cy="146" rx="1.1" ry="2.8"/>
	<circle class="st2" cx="243.5" cy="19.9" r="16.6"/>
	<path class="st6" d="M216.1,125.2c-0.1-0.2-5.6-22.7-6.6-46.3c-0.6-13.9,0.6-25.5,3.3-34.5c3.5-11.3,9.7-18.5,18.3-21.4l0.4,1.2
		c-18.7,6.1-21.6,33.1-20.8,54.6c0.9,23.5,6.5,45.8,6.5,46L216.1,125.2z"/>
	<path class="st1" d="M286.5,250.6c-8.8,11.6,1.3,34.1,1.3,34.1s24.4,3.8,33.2-7.8c8.8-11.6-1.3-34.1-1.3-34.1
		S295.3,239.1,286.5,250.6z"/>
	<path class="st1" d="M118.8,269.5c7.3,8.5,25.9,4.5,25.9,4.5s6.8-17.8-0.5-26.3c-7.3-8.5-25.9-4.5-25.9-4.5S111.6,261,118.8,269.5z
		"/>
	<path class="st6" d="M318.4,300.3c-71.3-38.8-127.5-36.7-162.1-28.2c-37.4,9.3-58.3,27.9-58.5,28.1l-0.9-0.9
		c0.2-0.2,21.3-19,59-28.4c22.2-5.5,45.6-6.7,69.8-3.5c30.2,3.9,61.5,14.6,93.2,31.8L318.4,300.3z"/>
	<rect x="207.4" y="186.3" class="st6" width="1.3" height="80.1"/>
	<circle class="st1" cx="208.4" cy="209.2" r="45.9"/>
	<circle class="st1" cx="208.4" cy="132.1" r="34.4"/>
	<circle class="st1" cx="208.4" cy="74.7" r="26.8"/>
</g>
<g>
	<circle class="st2" cx="1265.6" cy="-180.2" r="66.9"/>
</g>
<rect x="1171.6" y="-204.2" style="fill:none;" width="188" height="95.9"/>
<text transform="matrix(1 0 0 1 1241.6813 -191.5837)"><tspan x="0" y="0" class="st25" style="font-family:'OpenSans-Bold'; font-size:16.6168px;">Batch</tspan><tspan x="-26.6" y="19.9" class="st25" style="font-family:'OpenSans-Bold'; font-size:16.6168px;">Downloader</tspan></text>
<g>
	<circle class="st7" cx="1477.2" cy="-87" r="66.9"/>
</g>
<rect x="1385.5" y="-107.7" style="fill:none;" width="188" height="95.9"/>
<text transform="matrix(1 0 0 1 1434.8776 -95.1179)"><tspan x="0" y="0" class="st25" style="font-family:'OpenSans-Bold'; font-size:16.6168px;">Share with</tspan><tspan x="16.1" y="19.9" class="st25" style="font-family:'OpenSans-Bold'; font-size:16.6168px;">Clients</tspan></text>
<g>
	<path class="st0" d="M865.9-219.5c-3.5,6.7-8.4,12.7-14.4,17.3c-0.9,0.7-1.7,1.3-2.6,2c-1.2,0.8-2.4,1.7-3.7,2.5
		c-9.7,6.2-21.1,10.4-32.2,13.5c-3,0.8-6.1,1.6-9.1,2.4c-2.6,0.6-5.1,1.2-7.7,1.7c-1,0.2-2,0.4-2.9,0.6c-1,0.2-2.1,0.4-3.1,0.6
		l-1.5,0.3c-28.7,5.3-57.9,6.3-87.2,5l-1.4-0.1l-2.2-0.1c-6-0.3-11.9-0.7-17.9-1.2l-2.3-0.2l-1-0.1c-3.3-0.3-6.7-0.6-10-0.9
		c-4.4-0.4-8.8-0.9-13.2-1.4l-0.6-0.1l-0.5-0.1l0,0c-15.8-1.8-31.6-3.9-47.4-6.1l-2.2-0.3l-4-0.6l-3.4-0.5l0,0l-1-0.1
		c-5.3-0.7-10.7-1.5-16-2.2l-0.9-0.1c-10-1.4-20.1-2.7-30.2-3.9l-1.3-0.2l0,0c-4.1-0.5-8.2-1-12.4-1.4l-3.1-0.3l-4.2-0.4
		c-11.6-1.1-23.1-2.1-34.7-2.6c-5.5-0.3-11.1-0.5-16.7-0.6c-4.6-0.1-9.2-0.2-13.8-0.2c-6.2,0-12.5,0-18.8,0.1l0,0h-1.4
		c-8.8,0.1-17.7,0.4-26.5,0.7l-1.6,0.1h-0.5c-18.8,0.7-37.6,1.5-56.4,2.2l-4.6,0.2h-0.7c-6.5,0.2-13,0.4-19.6,0.5h-1.7h-0.1h-2.1
		l-2.9,0c-3,0-6,0-9.1,0.1h-3.7c-11.1,0-22.1-0.3-33-0.8l-1.2-0.1c-21.3-1.1-42.3-3.5-62.9-7.8c-2.1-0.4-4.3-0.9-6.4-1.4
		c-14.3-3.2-28.3-7.5-41.9-12.7c-6.4-2.5-12.9-5.4-17.8-10.3c-12.4-12.5-7.7-37.1,8.4-44.3c12.6-5.6,27.4-1,41-3.6
		c0.8-0.2,1.7-0.4,2.5-0.6c1.7-0.6,3.4-1.2,5-2.1c0.6-0.3,1.1-0.6,1.7-0.9c1.3-0.7,2.5-1.4,3.7-2.3c2-1.3,3.9-2.7,5.6-4.3
		c0.8-0.7,1.6-1.4,2.3-2.1c2.6-2.4,4.9-5.2,6.9-8.2c0.7-1.1,1.3-2.3,1.9-3.5c0.3-0.6,0.6-1.3,0.8-2c0.3-0.9,0.6-1.9,0.7-2.9
		c0.8-4.7-0.5-9.2-4.9-13c-0.4-0.3-0.8-0.7-1.3-0.9c-0.9-0.6-1.8-1.1-2.7-1.6c-0.4-0.2-0.8-0.4-1.2-0.5c-5.7-2.4-13.1-3.3-19.4-5
		l0,0c-1.9-0.5-3.8-1.1-5.5-1.9c-1.1-0.5-2.3-1.1-3.4-1.7l0,0l-0.3-0.2l0,0c-9.5-4.9-17.8-11.7-24.5-20.1c-1.7-2.1-3.2-4.3-4.6-6.6
		c-0.4-0.7-0.8-1.4-1.2-2.1c-11-19.9-12.2-45.4-0.7-64.9c1.4-2.4,2.9-4.6,4.6-6.8c0.6-0.7,1.1-1.4,1.7-2.1
		c10.9-12.9,26.6-21.6,42.4-28.1c21.3-8.7,43.5-14.1,66.2-17.8c4.6-0.7,9.2-1.4,13.8-2c19.3-2.5,38.7-3.8,58.1-4.8
		c18.1-0.9,36.3-1.5,54.5-1.8c6.2-0.1,12.4-0.1,18.6-0.1c14,0,27.9,0.3,41.9,0.8c4.6,0.2,9.2,0.4,13.8,0.6
		c11.8,0.6,23.6,1.4,35.3,2.5c5.6,0.5,11.3,1.1,16.9,1.7c42.8,4.7,85,12.6,125.7,25c4.6,1.4,9.2,2.9,13.8,4.4
		c17.1,5.6,34,12.1,50.4,19.5c1.6,0.7,3.1,1.4,4.7,2.1c10.3,4.7,20.4,9.8,30.4,15.3c13.2,7.1,25.9,15.1,38,23.8
		c4.7,3.5,9.3,7.1,13.8,10.9c7.9,6.7,15.3,13.9,22,21.7c0.6,0.7,1.2,1.4,1.8,2.1c3.1,3.7,6,7.5,8.7,11.4
		c13.4,19.3,22.4,41.4,29.1,63.9C871.3-259.9,875.2-237.8,865.9-219.5z"/>
	<path class="st0" d="M857.5-286.8h-53.6V-355h23.8c-0.6-0.7-1.2-1.4-1.8-2.1h-22v-21.7c-4.5-3.8-9.1-7.4-13.8-10.9v32.6H666.5
		v-71.7h55.1c-1.6-0.7-3.1-1.4-4.7-2.1h-50.4v-19.5c-4.6-1.5-9.2-3-13.8-4.4v23.8H476.4l-0.4-0.4l51-48.4
		c-5.6-0.6-11.3-1.2-16.9-1.7l-35.3,33.5v-36c-4.6-0.2-9.2-0.5-13.8-0.6v39L419-485.4c-6.2,0-12.4,0-18.6,0.1l56.8,53.9l-0.4,0.4
		h-169v-47.7c-4.6,0.6-9.2,1.2-13.8,2v45.8H165.4c-0.6,0.7-1.2,1.4-1.7,2.1H274v71.7H159.7c0.4,0.7,0.8,1.4,1.2,2.1H274v68.2h-55.6
		c-0.8,0.7-1.5,1.4-2.3,2.1h58v69.8c4.6,0.7,9.2,1.3,13.8,2.1v-71.8h173.1v87.4c4.6,0,9.2,0.1,13.8,0.2v-87.6h178v107l0.6,0.1
		c4.4,0.5,8.8,1,13.2,1.4v-108.5h123.5v105.8c1.1-0.2,2.1-0.4,3.1-0.6c1-0.2,2-0.4,2.9-0.6c2.6-0.5,5.2-1.1,7.7-1.7v-102.8h54
		C857.7-285.4,857.6-286.1,857.5-286.8z M460.9-286.8H287.8V-355h173.1V-286.8z M460.9-357.1H287.8v-71.7h170.7l2.4,1.9L460.9-357.1
		z M652.7-286.8h-178V-355h178V-286.8z M652.7-357.1h-178v-71.7h178V-357.1z M790.1-286.8H666.5V-355h123.5V-286.8z"/>
	<path class="st8" d="M327.6-190.5c0,0.1-0.1,0.1-0.1,0.2l0,0C327.5-190.4,327.6-190.5,327.6-190.5L327.6-190.5z"/>
	<path class="st8" d="M330.9-193.5h-1.7h-0.1H327l-2.9,0l-0.3-3.3l-0.3-3.1l-1.4-14.3l0-0.4v-0.2l-0.4-4l5.9-2.2l0.7,5.8l0.1,0.4
		v0.1l1.4,11.9l0.4,3.6l0.3,2.1l0.2,1.8v0.1L330.9-193.5z"/>
	<polygon class="st9" points="351.9,-190.5 352,-190.3 351.5,-190.3 351.4,-190.5 	"/>
	<path class="st9" d="M405.5-190.3L405.5-190.3L405.5-190.3z"/>
	<path class="st9" d="M442.8-273.2c0,0.1,0,0.2,0,0.2v0.1c0,0-5.5,15-7.3,27.7c-0.1,0.8-0.2,1.7-0.3,2.5c-0.1,0.9-0.2,1.8-0.2,2.6
		c-0.1,1-0.1,1.9,0,2.8c0,0.2,0,0.4,0,0.6c0,0.4,0,0.9,0.1,1.3s0.1,0.9,0.1,1.4c0,0.5,0.1,0.9,0.1,1.3c1.3,13.8,6.5,34,6.5,34
		s0.2,0.5,0.4,1.5h-1.4c-8.8,0.1-17.7,0.4-26.5,0.7l-1.6,0.1h-0.5c-18.8,0.7-37.6,1.5-56.4,2.2l-4.6,0.2h-0.7
		c-6.5,0.2-13,0.4-19.6,0.5h-1.7c0.4-0.6,1-1.2,1.5-1.7c0.5-0.4,1-0.8,1.5-1.2c3-1.9,6.2-3.3,9.6-4.1c0.7-0.2,1.5-0.3,2.2-0.3
		l4.4,0.1h0.7l6.7,0.1l57.8,1.1h0.1l0.4-0.1c0.7-0.2,1.3-0.4,2-0.7c2.2-0.9,3.8-2.9,4.1-5.3c0-0.2,0.1-0.4,0.1-0.6
		c0-0.3,0-0.6,0-0.9c0-0.2,0-0.4-0.1-0.7c-0.1-0.2-0.1-0.5-0.1-0.7c-1.4-7.8-3.8-31.8-3.8-31.8v0.1c0,0,0-1,0.1-2.7
		c0-0.1,0-0.3,0-0.4v-0.4c0-0.4,0-0.8,0.1-1.3c0-0.3,0-0.5,0.1-0.8c0-0.4,0.1-0.9,0.1-1.3c0,0,0-0.1,0-0.1c0-0.3,0.1-0.6,0.1-0.9
		c0-0.4,0-0.1,0-0.1c0.9-9.3,3.9-23.9,13.2-29.3c4.4-2.6,7.2-3.1,9.1-2.6c2.8,0.7,3.5,3.6,3.6,5.5c0,0.1,0,0.2,0,0.4
		C442.7-273.9,442.8-273.6,442.8-273.2z"/>
	<path class="st10" d="M327.6-190.5c0,0.1-0.1,0.1-0.1,0.2l0,0C327.5-190.4,327.6-190.5,327.6-190.5L327.6-190.5z"/>
	<polygon class="st10" points="351.9,-190.5 352,-190.3 351.5,-190.3 351.4,-190.5 	"/>
	<path class="st10" d="M405.5-190.3L405.5-190.3L405.5-190.3z"/>
	<path class="st10" d="M442.8-273.2c0,0.1,0,0.2,0,0.2s-4.5,12.3-6.7,24.1l0,0c-0.2,0.8-0.3,1.6-0.4,2.4c-0.1,0.4-0.1,0.8-0.2,1.2
		c-0.1,0.8-0.2,1.7-0.3,2.5c-0.1,0.9-0.2,1.8-0.2,2.6c-0.1,1-0.1,1.9,0,2.8c0,0.2,0,0.4,0,0.6c0,0.4,0,0.9,0.1,1.3s0.1,0.9,0.1,1.4
		c0,0.5,0.1,0.9,0.1,1.3c0,0.4,0.1,0.9,0.1,1.3c0.2,1.8,0.5,3.6,0.7,5.5c2,12.8,5.6,27.1,5.6,27.1s0.2,0.6,0.4,1.5l0,0h-1.4
		c-8.8,0.1-17.7,0.4-26.5,0.7l-1.6,0.1h-0.5c-18.8,0.7-37.6,1.5-56.4,2.2l-4.6,0.2h-0.7c-6.5,0.2-13,0.4-19.6,0.5h-1.7h-0.1
		c0.5-0.6,1-1.2,1.6-1.8c0.5-0.4,1-0.9,1.5-1.2c3-1.9,6.2-3.2,9.6-4.1c0.7-0.2,1.5-0.3,2.2-0.3l4.4,0.1h0.7l6.8,0.1l57.8,1.1h0.1
		c0,0,0.2,0,0.5-0.1c0.7-0.2,1.3-0.4,2-0.7c2.2-0.9,3.7-2.9,4.1-5.2c0-0.2,0.1-0.4,0.1-0.6c0-0.3,0-0.6,0-0.9c0-0.2,0-0.4-0.1-0.7
		c-0.1-0.2-0.1-0.5-0.1-0.8c-1.4-7.8-3.8-31.8-3.8-31.8s0-1,0.1-2.7c0-0.1,0-0.3,0-0.4v-0.4c0-0.4,0-0.8,0.1-1.3
		c0-0.3,0-0.5,0.1-0.8c0-0.4,0.1-0.9,0.1-1.3c0,0,0-0.1,0-0.1c0-0.3,0.1-0.6,0.1-0.9c0-0.4,0-0.1,0-0.1c0.1-1.2,0.3-2.4,0.5-3.7
		c1.3-9.1,4.6-20.9,12.7-25.7c4.2-2.5,7.1-3,9-2.6c2.9,0.7,3.6,3.7,3.8,5.6c0,0.1,0,0.2,0,0.4C442.7-274,442.8-273.6,442.8-273.2z"
		/>
	<path class="st9" d="M327.6-190.5c0,0.1-0.1,0.1-0.1,0.2l0,0C327.5-190.4,327.6-190.5,327.6-190.5L327.6-190.5z"/>
	<polygon class="st9" points="351.9,-190.5 352,-190.3 351.5,-190.3 351.4,-190.5 	"/>
	<path class="st9" d="M405.5-190.3L405.5-190.3L405.5-190.3z"/>
	<path class="st9" d="M441.2-273.7c0,0-8.2,22.4-7.8,35.8s6.8,38.5,6.8,38.5s0.3,0.9,0.6,2.3c-8.8,0.1-17.7,0.4-26.5,0.7l-1.6,0.1
		h-0.5c-18.8,0.7-37.6,1.5-56.4,2.2l-4.6,0.2h-0.7c-6.5,0.2-13,0.4-19.6,0.5h-1.7h-0.1H327c0.9-1.4,2-2.7,3.4-3.6l0.2-0.1
		c3-1.8,6.2-3.2,9.6-4c0.7-0.2,1.5-0.3,2.2-0.3l5.8,0.1h0.7l7,0.1l56.3,1.1c0.8-0.2,1.6-0.4,2.3-0.8c0.2-0.1,0.5-0.2,0.7-0.4l0,0
		c0.7-0.4,1.3-0.9,1.9-1.5c1.2-1.3,2-3.4,1.4-6.3c-1.4-7.8-3.8-31.8-3.8-31.8s-0.4-29.2,13.6-37.3c5.6-3.3,8.8-3.2,10.6-1.9
		c0.1,0,0.1,0.1,0.2,0.1C441.6-278.1,441.2-273.7,441.2-273.7z"/>
	<path class="st8" d="M215.9-218.8l-0.2,2.3l-1.4,14.4c-2.1-0.4-4.3-0.9-6.4-1.4l1.6-13.1l0.5-4.4L215.9-218.8z"/>
	<polygon class="st11" points="175.7,-223.5 209.9,-296.2 347.5,-285.5 360.2,-223.5 	"/>
	<polygon class="st12" points="175.7,-217.1 175.7,-223.5 360.2,-223.5 360.2,-214.2 	"/>
	<path class="st13" d="M227.7-234.1l82.5,1.7c0.6,0,1.2-0.5,1.2-1.1c0-0.1,0-0.3-0.1-0.4l-12.9-34.7l-55.6-1.1L226.5-236
		c-0.3,0.7,0,1.5,0.7,1.8C227.4-234.1,227.5-234.1,227.7-234.1z"/>
	<path class="st14" d="M227.7-234.1l82.5,1.7c0.6,0,1.2-0.5,1.2-1.1c0-0.1,0-0.3-0.1-0.4l-12.9-34.7l-55.6-1.1L226.5-236
		c-0.3,0.7,0,1.5,0.7,1.8C227.4-234.1,227.5-234.1,227.7-234.1z"/>
	<path class="st13" d="M227.1-235.5l83.4,1.8l-11.3-34.3c-0.4-1.1-1.4-1.9-2.6-1.9l-53.6-1L227.1-235.5z"/>
	<path class="st15" d="M234-243.3l10-22c0.4-0.9,1.4-1.6,2.4-1.6h24.8c1.5,0,2.7,1.2,2.7,2.7v23.8c0,1.5-1.2,2.7-2.7,2.7
		c0,0-0.1,0-0.1,0l-34.8-1.8c-1.5-0.1-2.6-1.3-2.5-2.8C233.7-242.7,233.8-243,234-243.3z"/>
	<path class="st16" d="M282.9-246.1l0.4-12.5c0-1,0.9-1.9,1.9-1.9h7.3c0.9,0,1.7,0.7,1.9,1.6l2.2,12.5c0.2,1-0.5,2-1.6,2.2
		c-0.1,0-0.2,0-0.3,0l-9.9,0.1C283.8-244.1,282.9-245,282.9-246.1C282.9-246.1,282.9-246.1,282.9-246.1z"/>
	<path class="st15" d="M185.7-327.7l27.7-2.3c0.8-0.1,1.6,0.3,2,1.1l26.2,59.2l-14.6,32.8c0.5-1,0.8,7-2.5,0l-41.6-86.8
		C182.3-324.8,184.4-327.6,185.7-327.7z"/>
	<path class="st14" d="M185.7-327.7l27.7-2.3c0.8-0.1,1.6,0.3,2,1.1l26.2,59.2l-14.6,32.8c0.5-1,0.8,7-2.5,0l-41.6-86.8
		C182.3-324.8,184.4-327.6,185.7-327.7z"/>
	<path class="st15" d="M185.7-327.7l29.1-3.7c0.8-0.1,1.6,0.3,2,1.1l26.2,59.2l-15.8,35.5L184.2-325c-0.5-0.9-0.1-2.1,0.9-2.5
		C185.3-327.6,185.5-327.7,185.7-327.7z"/>
	<path class="st2" d="M193-323.6l21-3.3c0.9-0.1,1.7,0.3,2,1.2l22,53.9c0.2,0.4,0.2,0.9,0,1.4l-10.1,21.1c-0.4,0.9-1.4,1.2-2.3,0.8
		c-0.4-0.2-0.7-0.5-0.8-0.8l-33.3-71.5c-0.4-0.9-0.1-2.1,0.9-2.5C192.6-323.5,192.8-323.5,193-323.6z"/>
	
		<linearGradient id="SVGID_1_" gradientUnits="userSpaceOnUse" x1="423.5025" y1="358.563" x2="423.5025" y2="358.563" gradientTransform="matrix(1 0 0 -1 -17.96 168.2253)">
		<stop  offset="0" style="stop-color:#808080;stop-opacity:0.25"/>
		<stop  offset="0.54" style="stop-color:#808080;stop-opacity:0.12"/>
		<stop  offset="1" style="stop-color:#808080;stop-opacity:0.1"/>
	</linearGradient>
	<path class="st17" d="M405.5-190.3L405.5-190.3L405.5-190.3z"/>
	
		<linearGradient id="SVGID_2_" gradientUnits="userSpaceOnUse" x1="265.0708" y1="450.1813" x2="435.2474" y2="450.1813" gradientTransform="matrix(1 0 0 -1 -17.96 168.2253)">
		<stop  offset="0" style="stop-color:#808080;stop-opacity:0.25"/>
		<stop  offset="0.54" style="stop-color:#808080;stop-opacity:0.12"/>
		<stop  offset="1" style="stop-color:#808080;stop-opacity:0.1"/>
	</linearGradient>
	<path class="st18" d="M417.3-202.2c0,0-0.4,0.7-1.1,1.9l-0.1,0.1c-0.6,1-1.3,2.3-2,3.8l-1.6,0.1h-0.5c-18.8,0.7-37.6,1.5-56.4,2.2
		l-4.6,0.2h-0.7c-6.5,0.2-13,0.4-19.6,0.5h-1.7h-0.1H327l-2.9,0c-3,0-6,0-9.1,0.1h-3.6c-11.1,0-22.1-0.3-33-0.8l-1.2-0.1
		c2.2-4.7,6-12.4,9.1-14.8c2.4-1.9,19.8-4,35.7-5.5l1.7-0.2h0l4.5-0.4c6.1-0.6,11.6-1,15.6-1.3l0.4,0l-2.1-6.9l-3-10l0.8-8.4
		l0.1-0.7H340c-0.8,0.1-1.7,0-2.5-0.3l-29.8-1h-0.5l0,0l-11.4-0.4l0,0c-6.1-0.2-10.5-0.4-10.7-0.4c-0.2,0-0.4-0.1-0.5-0.1
		c-0.3-0.1-0.5-0.3-0.7-0.4c-0.3-0.2-0.5-0.5-0.6-0.8H283h-0.3l-1.6,0.1l-0.8,0.1c0-0.1-0.1-0.2-0.1-0.3c-0.1-0.2-0.2-0.5-0.2-0.7
		h-0.4l-5.6-0.1h-0.1c0,0-14.6,1.1-22.2-1.7l0,0c-2.8-1-4.6-2.6-4.5-4.9c0-0.5,0.1-1,0.3-1.5c-2.4-4.6,9.5-12.9,18.6-10.6
		c2.5,0.7,5.1,0.8,7.6,0.3c1.4-0.3,2.6-0.9,3.8-1.7c0.1-0.1,0.2-0.2,0.3-0.2c-0.2-0.1-0.3-0.2-0.5-0.3c-0.6-0.3-1.3-0.6-2-0.7
		l2.5-0.7h0c0,0,8.8-0.8,14.5-1.1h0c1.7-0.1,3.1-0.1,4-0.1c3.8,0.1,11.1-2.6,11.4-3.4c0.3-0.8,3.7,0,3.7,0l2.9-1.1
		c2.9-1.1,4.6-2.7,4.6-3.8c0-1.1,2.6-2.4,2.6-2.4c1.2-2,3.5-4.1,5.9-6c2.1-1.6,4.3-3.1,5.9-4.1c0.6-4.1,1.5-8.1,2.5-12.1
		c1.1-3.7,4.6-6.5,5.8-7.3l0.5-0.3c-0.3-1.6-0.8-3.1-1.4-4.6c0-0.1-0.1-0.3-0.2-0.4c-0.1-0.3-0.3-0.6-0.4-0.9l-0.2-0.4
		c-0.3,0.1-0.6,0.1-1,0.2c-1,0.2-2.1,0.2-3.1,0.2c-9.7,0-18.2-6.4-20.8-15.7c0,0,0,0,0,0c-0.5-1.8-0.8-3.7-0.8-5.6
		c0-1.8,0.2-3.7,0.7-5.4l0,0c0.1-0.4,0.2-0.7,0.3-1.1c0,0,0-0.1,0-0.1c0.1-0.2,0.1-0.3,0.2-0.5c-0.9,0.1-1.9,0.2-2.8,0.2h-0.6
		c-1.8,0.1-3.6-0.2-5.3-0.9l0,0c-0.4-0.2-0.8-0.4-1.2-0.6c0,0,0,0-0.1,0c-0.5-0.3-0.9-0.6-1.3-1c1.4-1.1,2.3-2.7,2.6-4.4
		c0.2-1.4-0.1-2.9,0.8-4c0.4-0.5,0.9-0.9,1.5-1.3c3.3-2.3,6-5.4,9-8.1c3-2.7,6.7-5,10.7-5.1c5.4-0.2,10.2,3.6,15.6,4.3
		c1.7,0.2,3.4,0.1,5,0.6c1.8,0.6,3.5,1.4,5.1,2.6c1.4,0.8,2.6,1.8,3.6,3.1c0.7,1.1,1.2,2.3,1.5,3.5c0.7,2.6,1.1,5.3,1.3,8
		c0.1,2.8,0,5.7,0.3,8.5c0.2,2.5,1,4.8,2.4,6.9h0.1c0.2,0.3,0.5,0.7,0.8,1c-0.5,0.2-1.1,0.3-1.6,0.5c-0.9,0.2-1.8,0.4-2.8,0.5
		c-0.4,0.1-0.9,0.1-1.3,0.1c-0.3,0-0.6,0-0.9-0.1l0.6,0.4l1.5,1l0,0l0.6,0.4l1.2,0.8c0.3-0.8,0.6-1,1-0.9c0.9-0.8,2.1,0.9,2.1,0.9
		c0.7,1.4,2.8,2.9,4.5,3.9c1,0.6,2.1,1.2,3.2,1.7c23.4,14,22,34.9,23.3,36.5c1.4,1.7,1.5,7.7,1.5,7.7s3.5,20.4,5,22.1
		c1.6,1.8,0.1,2.4,1.5,4.3c1.4,2,1,7.2,1,7.2s0.9,12.4,4.3,15.1c3,2.4,7,22.7,7.8,26.9L417.3-202.2z"/>
	<path class="st19" d="M279.9-267.6c0,0-3.3,5.1-12.5,2.8c-9.2-2.4-21.4,6.6-17.9,11s25.9-1.3,25.9-1.3l8.6-1.7l-0.6-7.2
		L279.9-267.6z"/>
	<path class="st10" d="M279.9-267.6c0,0-3.3,5.1-12.5,2.8c-9.2-2.4-21.4,6.6-17.9,11s25.9-1.3,25.9-1.3l8.6-1.7l-0.6-7.2
		L279.9-267.6z"/>
	<path class="st20" d="M282.9-267.9l-4-0.2l-2.5,0.7c0,0,7.8,1.1,5.6,11.7l8.4-0.5L282.9-267.9z"/>
	<path class="st10" d="M282.9-267.9l-4-0.2l-2.5,0.7c0,0,7.8,1.1,5.6,11.7l8.4-0.5L282.9-267.9z"/>
	<path class="st21" d="M335.8-291.5c0,0-11,6.3-14,11.5c0,0-2.6,1.3-2.6,2.4c0,1.1-1.6,2.7-4.5,3.8l-2.9,1.1c0,0-3.3-0.8-3.6,0
		c-0.3,0.8-7.5,3.5-11.2,3.4c-3.7-0.1-18.1,1.3-18.1,1.3c5.4,2.5,8.5,8.4,7.3,14.2l34.1-1.4l12.9-2.9l7.6-7.6L335.8-291.5z"/>
	<path class="st10" d="M335.8-291.5c0,0-11,6.3-14,11.5c0,0-2.6,1.3-2.6,2.4c0,1.1-1.6,2.7-4.5,3.8l-2.9,1.1c0,0-3.3-0.8-3.6,0
		c-0.3,0.8-7.5,3.5-11.2,3.4c-3.7-0.1-18.1,1.3-18.1,1.3c5.4,2.5,8.5,8.4,7.3,14.2l34.1-1.4l12.9-2.9l7.6-7.6L335.8-291.5z"/>
	<path class="st19" d="M285.5-246.1l-4.8-0.1l-5.6-0.1c0,0-26.7,2.1-26.1-6.5c0.5-8.5,21-11.5,23.9-9.1c2.2,1.9,7.2,3.3,9.5,4
		c0.7,0.2,1.2,0.3,1.2,0.3L285.5-246.1z"/>
	<path class="st10" d="M285.5-246.1l-4.8-0.1c-1.9-6.6,0.3-10.3,1.6-11.7c0.7,0.2,1.2,0.3,1.2,0.3L285.5-246.1z"/>
	<path class="st20" d="M288.7-245.7l-5,0.4l-2.4,0.2c-3.3-9.6,2-13.4,2-13.4h1.6l2.6,0.3L288.7-245.7z"/>
	<path class="st19" d="M349.5-309.7l-5.9,11.3c0,0-0.9-11.4-3.6-16.8c-0.7-1.4-1.5-2.4-2.4-2.7c-2.5-0.8,11.9-16.6,11.9-16.6
		c0.5,0.1,3.2,1.9,6.6,4.2c3.7,2.5,8.2,5.6,11.2,7.5C373.1-319.1,349.5-309.7,349.5-309.7z"/>
	<path class="st21" d="M341.9-309.5c0,0-4.8,3.1-6.1,7.6c-1.3,4.5-2.6,12.6-2.6,12.6s2.2,19.4,3.3,20.3s5.4,20.3,5.4,20.3l4.1-2.8
		l-5.4-24.4C340.6-275.9,344.2-307.2,341.9-309.5z"/>
	<path class="st10" d="M341.9-309.5c0,0-4.8,3.1-6.1,7.6c-1.3,4.5-2.6,12.6-2.6,12.6s2.2,19.4,3.3,20.3s5.4,20.3,5.4,20.3l4.1-2.8
		l-5.4-24.4C340.6-275.9,344.2-307.2,341.9-309.5z"/>
	<polygon class="st20" points="362.7,-266.3 338.8,-266.3 342.7,-304 362.7,-304 	"/>
	<path class="st22" d="M307.3-190.5h0.3l-0.5,0.2L307.3-190.5z"/>
	<path class="st22" d="M352.3-207.7l-4.7,1.8l-0.6,0.2l-16.8,6.5l-6.4,2.5l-8.7,3.4h-3.6c-11.1,0-22.1-0.3-33-0.8
		c2.1-4.6,5.8-12.1,8.9-14.5c2.4-1.9,19.2-3.9,34.8-5.4c1.9-0.2,3.9-0.4,5.7-0.5l0.4,0c6.2-0.6,11.8-1,15.7-1.3l0.6-0.1l4.9-0.4
		l0.5-0.5l0.6,2.7l0.5,2.1L352.3-207.7z"/>
	<path class="st10" d="M307.3-190.5h0.3l-0.5,0.2L307.3-190.5z"/>
	<path class="st10" d="M352.3-207.7l-4.7,1.8l-0.6,0.2l-16.8,6.5l-6.4,2.5l-8.7,3.4h-3.6c-11.1,0-22.1-0.3-33-0.8
		c2.1-4.6,5.8-12.1,8.9-14.5c2.4-1.9,19.2-3.9,34.8-5.4c1.9-0.2,3.9-0.4,5.7-0.5l0.4,0c6.2-0.6,11.8-1,15.7-1.3l0.6-0.1l4.9-0.4
		l0.5-0.5l0.6,2.7l0.5,2.1L352.3-207.7z"/>
	<path class="st22" d="M307.3-190.5h0.3l-0.5,0.2L307.3-190.5z"/>
	<path class="st22" d="M327.6-190.5c0,0.1-0.1,0.1-0.1,0.2l0,0C327.5-190.4,327.6-190.5,327.6-190.5L327.6-190.5z"/>
	<polygon class="st22" points="352,-190.3 351.5,-190.3 351.4,-190.5 351.9,-190.5 	"/>
	<path class="st22" d="M356.3-214.3l-0.4,12.9v0.7v0.1l-0.2,6.4l-4.6,0.2h-0.7c-6.5,0.2-13,0.4-19.6,0.5h-1.7h-0.1H327l-2.9,0
		c-3,0-6,0-9.1,0.1h-3.6c3.3-2,7.5-4.2,12-6.5c2-1,4.2-2,6.3-3c5.6-2.6,11.4-5.1,16-7.1l0.6-0.3c1.8-0.8,3.4-1.4,4.8-2
		C354.2-213.5,356.1-214.3,356.3-214.3L356.3-214.3z"/>
	<path class="st10" d="M314.4-267.3c1.2,2.4,2.4,4.9,4.3,6.9c0.3,0.3,0.8,0.6,1.1,0.2c0.1-0.1,0.1-0.3,0.1-0.5
		c-0.1-1.2-0.5-2.3-1.1-3.2c-0.6-1-1.4-1.8-1.9-2.8c-0.6-1-1.2-2.9-2.5-3.2C312.8-270.3,314-268.1,314.4-267.3z"/>
	<path class="st10" d="M356.1-330.3c-0.1,0.3-0.2,0.6-0.3,0.9c-2.4,7.2-8.4,12.6-15.8,14.1c-0.7-1.4-1.5-2.4-2.4-2.7
		c-2.5-0.8,11.9-16.6,11.9-16.6C350-334.4,352.8-332.6,356.1-330.3z"/>
	<path class="st19" d="M356.9-336.4c0,11.7-9.5,21.1-21.1,21.1s-21.1-9.5-21.1-21.1c0-11.7,9.5-21.1,21.1-21.1
		C347.4-357.5,356.9-348.1,356.9-336.4C356.9-336.4,356.9-336.4,356.9-336.4z"/>
	<path class="st22" d="M343.9-305c0,0-4.4,5.3-3.7,8.8h5.3l3.9-4.4L343.9-305z"/>
	<path class="st10" d="M359.5-327.5l-16.8,23c0,0,4.3,6.2,6.4,6.5c2.1,0.3,13.8-27.2,13.8-27.2L359.5-327.5z"/>
	<path class="st20" d="M359.7-327.9l-16.8,23.1c0,0,4.3,6.1,6.4,6.5s13.8-27.2,13.8-27.2L359.7-327.9z"/>
	<path class="st22" d="M340.8-298.4c0,0-0.8,12.9-1.6,15.5c-0.8,2.6,0,26.1,0,26.1l7.7-3.2l-1.3-36.2L340.8-298.4z"/>
	<polygon class="st10" points="351.9,-190.5 352,-190.3 351.5,-190.3 351.4,-190.5 	"/>
	<path class="st10" d="M405.5-190.3L405.5-190.3L405.5-190.3z"/>
	<path class="st10" d="M414.9-201.7c0,0-0.1,0.2-0.4,0.6s-0.5,0.9-0.8,1.5c0,0,0,0,0,0.1c-0.5,0.9-1,1.9-1.6,3.1
		c-18.8,0.7-37.6,1.5-56.4,2.2l-4.6,0.2h-0.7l-2-6.7v-0.1l-0.2-0.7l-1.3-4.2l-1.3-4.2l-1.3-4.5l-0.5-1.6l-0.1-0.4l-2-7l-2.8-9.5
		l0.9-9l0,0l0.1-0.7l0.8-8.1l0.1-2.4l0,0l0.1-1.3v-0.4l0,0l0.1-2.9l0.4-8.7l0.2-4.4l0,0l0-0.7l0,0l0.4-8.9l1.2-3.6l0.6-1.8l1.4-4.2
		l0.3-1l0,0c0.4-1.6,1.3-4.7,2.2-7.7l0,0l0.1-0.3l0,0l0.1-0.2l0.6-2.1l0.7-2.7c0.3-1,0.5-1.8,0.5-2.1c0.1-0.4,1.3-2.4,2.8-5l0,0
		c3.1-5.2,7.9-12.8,8.4-15.4c0,0,0,0,0-0.1c0-0.2,0.1-0.3,0.1-0.5c0.3-0.8,0.6-1,1-0.9c0.2,0,0.3,0.1,0.5,0.2c0.4,0.3,0.7,0.6,1,0.9
		c0.7,1.4,2.7,2.8,4.4,3.9l0.3,0.2l0.2,0.1c1.4,0.8,2.6,1.3,2.6,1.3c23,13.8,21.5,34.6,22.9,36.2c1.3,1.6,1.4,7.6,1.4,7.6
		s3.4,20.2,4.9,22s0.1,2.4,1.4,4.3c1.3,2,1,7.1,1,7.1s0.9,12.3,4.2,15C410.4-226.4,414.9-201.7,414.9-201.7z"/>
	<path class="st21" d="M415.5-201.9l-0.3,0.5l0,0c-0.2,0.4-0.6,1-1,1.8l0,0.1c-0.5,0.9-1,2-1.6,3.1h-0.5
		c-18.8,0.7-37.6,1.5-56.4,2.2l-4.6,0.2l-2-6.7v-0.1l-0.2-0.7l-1.3-4.4l-1.3-4.3l-1.3-4.3l-0.5-1.7l0,0l-2.1-7.3l-2.8-9.7l0.8-7.8
		l0.1-1l0.9-8.9l0,0l0.3-7l0.4-8.4l0.1-2.2l0.1-2.5l0.1-1.1l0.4-8.4l1.2-3.6l0.5-1.6l1.2-3.7l0.3-0.8c0,0,1.2-4.1,2.3-8.2
		c0-0.2,0.1-0.3,0.1-0.5c0.1-0.4,0.2-0.7,0.3-1l0,0c0.1-0.4,0.2-0.7,0.3-1c0.3-1.1,0.6-2.2,0.8-3.1c0.3-1.1,0.5-2,0.6-2.3
		c0.1-0.4,1.3-2.5,2.9-5.1c3-4.9,7.3-11.9,8.2-14.8c0-0.2,0.1-0.3,0.1-0.5l0,0c0.1-0.5,0.2-0.9,0.5-1.3c0.8-0.8,2.1,0.9,2.1,0.9
		c0.7,1.4,2.7,2.8,4.4,3.9c1,0.6,2.1,1.2,3.1,1.7c23,13.8,21.5,34.6,22.9,36.2s1.4,7.6,1.4,7.6s3.4,20.2,4.9,22s0.1,2.4,1.4,4.3
		c1.3,1.9,1,7.2,1,7.2s0.9,12.3,4.2,15C411-226.5,415.5-201.9,415.5-201.9z"/>
	<path class="st10" d="M368.7-322.7c-2.3,3.3-5.9,9-6.9,13.2c0,0-3.6,3.7-4.9,3.5c-1.3-0.2,1.3,2.8,1.3,2.8L344-283.7l2-6
		c0,0,4.2-14.8,4.4-16.1s10.4-16.6,11.2-20.4c0.6-3.1,2.6-0.3,2.6-0.3C365-325.1,367-323.7,368.7-322.7z"/>
	<path class="st21" d="M368.7-323.1c-2.3,3.3-5.9,9-6.9,13.1c0,0-3.6,3.7-4.9,3.5c-1.3-0.2,1.3,2.8,1.3,2.8L344-284.1l2-6
		c0,0,4.2-14.8,4.4-16.1c0.2-1.3,10.4-16.6,11.2-20.4c0.6-3.1,2.6-0.3,2.6-0.3C365-325.5,367-324.1,368.7-323.1z"/>
	<path class="st10" d="M387.6-282.6c0.1,4.5-6.5,10.6-6.8,11c-0.3,0.4-20.4,16.9-20.4,16.9L346-243.6c-1.6,1.3-3.6,2.2-5.6,2.6
		l1-9.9l1-20.1c2.3-2.5,4.4-5.1,4.5-6c0.1-1.7,3.8-3.6,3.8-3.6s2.6-2.2,2.2-3.4c-0.4-1.2,1.4-7.1,1.4-7.1
		c0.9-16.7,18.1-18.4,18.1-18.4s8.3,3.3,14.1,6.8C392.3-299.2,387.5-287.1,387.6-282.6z"/>
	<path class="st10" d="M288.7-245.7l-5,0.4c-2.1-3.6,0.8-13.3,0.8-13.3h0.4l2.6,0.3L288.7-245.7z"/>
	<path class="st21" d="M372.3-310.4c0,0-17.2,1.6-18.1,18.4c0,0-1.7,5.8-1.3,7.1c0.4,1.2-2.2,3.4-2.2,3.4s-3.7,1.8-3.8,3.6
		c-0.1,1.7-9.4,11.3-9.4,11.3s-3.9,4.4-12.9,4.9s-13.2,3.2-13.2,3.2s-4.4-3.1-7.6-2.2c-3.2,0.9-18.8,2.2-18.8,2.2s-4.1,13.7,1,14.6
		c0.6,0.1,51.4,1.8,51.4,1.8s3.5,1.6,8.7-2.4c5.2-4,14.4-11.1,14.4-11.1s20.1-16.6,20.4-16.9s6.9-6.5,6.8-11
		c-0.1-4.5,4.6-16.6-1.3-20.1C380.5-307.2,372.3-310.4,372.3-310.4z"/>
	<path class="st10" d="M356.9-336.4c0,2.2-0.3,4.4-1,6.5c-0.3-0.3-0.5-0.7-0.8-1.1c-1-1.5-2-3-2.9-4.5c-0.8-1.4-1.8-2.6-3-3.5
		c-1.3-0.9-3-1.3-4.4-0.5c-1.2,0.7-1.8,2.1-1.9,3.5c0,1.4,0,2.8,0.1,4.2c0.1,0.5-0.1,1.1-0.4,1.5c-0.4,0.4-1,0.6-1.6,0.6l-1.9,0.3
		c-0.7,0.2-1.5-0.1-1.7-0.8c0,0,0,0,0,0c-1.6-2.8-2.6-6.3-5.6-7.7c-1.8-0.8-4.2-0.8-5.4-2.4c-0.8-1.1-0.7-2.6-0.5-3.9
		c0.3-1.5,0.6-3,1.1-4.5c0.3-1,1.1-3.1-0.6-3.3c-1.1-0.1-2.7,1-3.2,1.9c-0.6,0.8-0.7,2-1.1,2.9c-0.8,1.7-2.2,2.9-3.9,3.6
		c-0.9,0.4-1.7,0.6-2.7,0.7c3.6-11.1,15.5-17.2,26.6-13.6C351-353.7,356.9-345.6,356.9-336.4L356.9-336.4z"/>
	<path class="st21" d="M323.3-350.7c-0.6,0.9-0.7,2-1.1,2.9c-0.8,1.7-2.2,2.9-3.9,3.6c-1.7,0.6-3.5,1-5.3,0.9
		c-2.9,0.1-6.2-0.4-8.1-2.6c1.4-1.1,2.3-2.7,2.5-4.4c0.2-1.3-0.1-2.8,0.7-3.9c0.4-0.5,0.9-0.9,1.4-1.2c3.3-2.3,5.9-5.4,8.8-8
		s6.5-5,10.5-5.1c5.3-0.2,10,3.6,15.3,4.3c1.6,0.2,3.3,0.1,4.9,0.6c1.8,0.6,3.5,1.4,5,2.5c1.4,0.8,2.6,1.8,3.5,3
		c0.7,1.1,1.2,2.2,1.4,3.5c0.7,2.6,1.1,5.3,1.3,8c0.1,2.8,0,5.6,0.3,8.4c0.3,2.8,1.2,5.6,3.1,7.7c-1.4,0.4-2.8,0.8-4.3,1
		c-0.9,0.2-1.9,0.1-2.7-0.2c-0.7-0.4-1.3-1.1-1.7-1.8l-2.9-4.5c-0.8-1.4-1.8-2.6-3-3.5c-1.3-0.9-3-1.3-4.4-0.5
		c-1.2,0.7-1.8,2.1-1.9,3.5c0,1.4,0,2.8,0.1,4.2c0.1,0.5-0.1,1.1-0.4,1.5c-0.4,0.4-1,0.6-1.6,0.6l-1.9,0.3c-0.7,0.2-1.5-0.1-1.7-0.8
		c0,0,0,0,0,0c-1.6-2.8-2.6-6.3-5.6-7.7c-1.8-0.8-4.2-0.8-5.4-2.4c-0.8-1.1-0.7-2.6-0.5-3.9c0.3-1.5,0.6-3,1.1-4.5
		c0.3-1,1.1-3.1-0.6-3.3C325.4-352.8,323.9-351.6,323.3-350.7z"/>
	<path class="st10" d="M371.1-301.1c1.6-0.2,3.3-0.4,4.7,0.2c-3.9-1.6-10.2-1-13.7,1.2C362.4-298.9,369.8-300.9,371.1-301.1z"/>
	<path class="st10" d="M372.9-295.9c3.9,0.3,7.8,0.8,11.5-0.5c-3.1-1.1-6.4-0.4-9.7-0.7c-2.6-0.3-5.2-1.1-7.7-0.5
		c-1,0.3-4.9,2-4.6,3.3C365.7-295.7,369.3-296.3,372.9-295.9z"/>
	<path class="st10" d="M362.7-287.5c0.8-0.1,1.6,0,2.4,0.3c2.9,0.7,5.9,1,8.8,1c2.3,0,4.7-0.3,6.4-1.9L362.7-287.5z"/>
	<path class="st10" d="M350.3-267.9c2.7,1.2,5.7,1.8,8.6,1.6c2.9-0.2,5.9-0.8,8.7-1.7c1.3-0.4,2.6-0.8,3.4-1.9L350.3-267.9z"/>
	<path class="st10" d="M378-265.1c5.9,3.4,12.4,5.4,19.1,5.9c-3.4-1.4-6.8-2.7-10.3-3.9c-3.5-1.2-7.1-2.2-10.8-2.9
		C376.8-265.8,377.4-265.5,378-265.1z"/>
	<path class="st10" d="M387.5-268.7c1.2,0.2,2.4,0.3,3.6,0.2c0.6,0,1.4-0.1,1.7-0.6c-2.7,0.1-5.3-0.6-8-1.2
		c-0.7-0.2-2.1-0.6-2.7-0.1C383.3-269.6,386-269,387.5-268.7z"/>
	<path class="st10" d="M403.7-212.6c1.4,2.4,2.8,4.9,4.8,6.9c1.1,1.1,2.3,2.1,3.6,3.1c-2.3-5.9-4.7-11.9-8.4-17.1
		c-0.9-1.3-2.3-3.2-4.1-3.4c-0.5,1.4,0.7,4,1.3,5.4C401.8-216,402.7-214.3,403.7-212.6z"/>
	<path class="st10" d="M335.1-257c-0.1,1-0.2,2.1,0.4,2.9c0.3,0.4,0.7,0.7,1.2,0.8c-0.3-0.1-0.6-3-0.7-3.4c-0.1-0.8,0-2.4-0.6-3
		C335.3-258.8,335.2-257.9,335.1-257z"/>
	<path class="st10" d="M338.4-258.2c0.4,1.8,1.6,3.3,3.1,4.2c-1.1-1.4-1.5-3.1-2.4-4.6c-0.3-0.5-0.7-1.2-1.3-1.3
		C338-259.3,338.2-258.7,338.4-258.2z"/>
	<path class="st10" d="M335.6-276.2c-1.9,1.1-4.1,1.4-6.2,0.8c-0.5-0.1-1.6-0.6-1.3-1.3c0.3-0.7,1.5-0.2,2.1-0.2l2.7,0.3
		C333.4-276.5,335.2-276,335.6-276.2z"/>
	<path class="st10" d="M326.4-271.8c1.3-0.2,2.4,0.7,3.6,1.2c1.3,0.4,2.7,0.6,4.1,0.6c0.7,0,1.5-0.1,1.9-0.6
		C332.8-271.4,329.8-272.2,326.4-271.8z"/>
	<polygon class="st20" points="341.9,-309.5 342.1,-309.5 343.6,-304 341.9,-302.1 	"/>
	<g class="st23">
		<path d="M307.9-353.3c-0.2,0.9-0.3,1.8-0.3,2.7c0.1-0.3,0.1-0.6,0.2-0.9C307.9-352.1,307.8-352.7,307.9-353.3z"/>
		<path d="M326.6-352.6c0.6,0,1.1,0.6,1,1.2c0,0,0,0.1,0,0.1c0.3-1,0.5-2.3-0.8-2.5c-1.1-0.1-2.7,1-3.2,1.9c-0.6,0.9-0.7,2-1.1,2.9
			c-0.8,1.7-2.1,2.9-3.9,3.6c-1.7,0.6-3.5,1-5.3,0.9c-2.7,0.1-5.6-0.3-7.5-2c-0.2,0.2-0.5,0.5-0.7,0.7c1.9,2.2,5.1,2.7,8.1,2.6
			c1.8,0,3.6-0.3,5.3-0.9c1.7-0.6,3.1-1.9,3.9-3.6c0.4-1,0.5-2,1.1-2.9C323.9-351.6,325.5-352.8,326.6-352.6z"/>
		<path d="M359.7-330.7c-0.9,0.2-1.9,0.1-2.7-0.2c-0.7-0.4-1.3-1.1-1.7-1.8c-1-1.5-2-3-2.9-4.5c-0.8-1.4-1.8-2.6-3-3.5
			c-1.3-0.9-3-1.3-4.4-0.5c-1.2,0.7-1.8,2.1-1.9,3.5c0,0.1,0,0.1,0,0.2c0.2-1,0.8-1.9,1.7-2.5c1.3-0.8,3.1-0.4,4.4,0.5
			c1.2,1,2.2,2.2,3,3.5c1,1.5,2,3,2.9,4.5c0.4,0.7,1,1.3,1.7,1.8c0.9,0.4,1.8,0.4,2.7,0.2c1.5-0.2,2.9-0.5,4.3-1
			c-0.3-0.3-0.5-0.6-0.8-0.9C362-331.1,360.9-330.9,359.7-330.7z"/>
		<path d="M342.9-332.1c-0.4,0.4-1,0.6-1.6,0.6l-1.9,0.3c-0.7,0.2-1.5-0.1-1.7-0.8c0,0,0,0,0,0c-1.6-2.8-2.6-6.3-5.6-7.7
			c-1.8-0.8-4.2-0.8-5.3-2.4c-0.6-1-0.8-2.2-0.6-3.3c0,0.2-0.1,0.4-0.1,0.6c-0.2,1.3-0.3,2.8,0.5,3.9c1.2,1.6,3.5,1.6,5.3,2.4
			c2.9,1.4,4,4.9,5.6,7.7c0.1,0.4,0.4,0.7,0.7,0.9c0.3,0.1,0.7,0.1,1,0l1.9-0.3c0.6,0,1.2-0.2,1.6-0.6c0.3-0.4,0.4-1,0.4-1.5l0,0
			C343-332.2,342.9-332.1,342.9-332.1z"/>
	</g>
	<path class="st8" d="M602.5-184.1l-4-0.6v-59.4l0.8,0.3l2.5,0.8v2v1.5v2.3l0,2.6l0.1,5.3v0.5v0.7v1.5v0.9v2.2v1.4l0.3,26.7v0.7
		l0.1,9.4v0.1L602.5-184.1z"/>
	<path class="st24" d="M604.8-183.8l-2.2-0.3v-1.1v-0.1l-0.1-9.4v-0.7l-0.3-26.7v-1.4v-2.2v-0.9v-1.5v-0.7v-0.5l-0.1-5.3l0-2.6v-2.3
		v-1.5v-2h2.4v2.2v1.5v1.7v2.3l0.1,5.7v1.3v1.3v0.9v1.1v1.5l0,0l0.2,28.1v0.7l0.1,9.3v0.2L604.8-183.8z"/>
	<path class="st24" d="M604.8-180.5"/>
	<path class="st8" d="M848.9-251.4v51.2c-1.2,0.8-2.4,1.7-3.7,2.5l-0.1-42.7v-4.5L848.9-251.4z"/>
	<path class="st24" d="M851.5-252.2v50c-0.9,0.7-1.7,1.3-2.6,2v-51.3L851.5-252.2z"/>
	<path class="st8" d="M793.2-179.5c-1.5,0.3-3.1,0.6-4.6,0.9l-0.1-46.4v-2l4.5-1.9v4.3L793.2-179.5z"/>
	<path class="st24" d="M796.2-230.4v50.2c-1,0.2-2,0.4-2.9,0.6l-0.2-45.1v-4.3l0.3-0.1l0,0L796.2-230.4z"/>
	<path class="st8" d="M530.2-193.4l-4.2-0.4l-0.5-52.3v-1.5v-1h4.1v1.3v1.5L530.2-193.4z"/>
	<path class="st24" d="M533.3-193.1l-3.1-0.3l-0.6-52.4v-1.5v-1.3h3.2v1.6v1.5L533.3-193.1z"/>
	<polygon class="st10" points="793.3,-229 796.1,-230.4 796.1,-224.1 793.4,-223.1 	"/>
	<polygon class="st10" points="851.5,-252.2 851.5,-242.5 848.9,-241.6 845.1,-240.4 845.1,-244.9 848.9,-251.4 	"/>
	<polygon class="st12" points="851.5,-270.8 851.5,-244 793.4,-224.6 793,-253.3 	"/>
	<polygon class="st11" points="524.8,-272.7 601.1,-287.2 851.5,-270.8 793,-253.3 	"/>
	<polygon class="st10" points="532.8,-248.6 532.8,-245.5 529.6,-245.8 525.5,-246.2 525.5,-248.6 	"/>
	<polygon class="st10" points="604.3,-239.4 601.9,-239.6 598.5,-239.9 598.5,-244.1 601.9,-243.1 604.3,-243.1 	"/>
	<polygon class="st12" points="524.8,-272.7 524.8,-247.7 793.4,-224.6 793,-253.3 	"/>
	<polygon class="st12" points="737.7,-243 702.6,-243 702.6,-255.7 737.7,-253.2 	"/>
	<polygon class="st10" points="737.7,-243 702.6,-243 702.6,-255.7 737.7,-253.2 	"/>
	<polygon class="st10" points="655.5,-258.5 655.5,-238.4 790.2,-228.2 790.2,-249.6 737.7,-252.6 732.4,-247.9 711,-249.4 
		703.4,-255 	"/>
	<polygon class="st25" points="654.8,-259.3 654.8,-239.1 789.4,-228.9 789.4,-250.3 736.9,-253.3 731.7,-248.6 710.3,-250.1 
		702.6,-255.7 	"/>
	<polygon class="st12" points="571.7,-264.7 603.5,-262.4 603.2,-252.3 582.4,-252.3 568.5,-257.8 	"/>
	<polygon class="st10" points="571.7,-264.7 603.5,-262.4 603.2,-252.3 582.4,-252.3 568.5,-257.8 	"/>
	<polygon class="st10" points="529.2,-267.5 529.2,-249.4 651.4,-239.7 651.4,-258.9 604.3,-261.7 599.3,-258 580.3,-259.1 
		572.4,-263.9 	"/>
	<polygon class="st25" points="528.5,-268.2 528.5,-250.1 650.7,-240.4 650.7,-259.6 603.5,-262.4 598.5,-258.7 579.5,-259.8 
		571.7,-264.7 	"/>
	<polygon class="st10" points="790.2,-268.1 807.3,-267 779,-258.5 764.5,-259.6 	"/>
	<polygon class="st25" points="790.2,-268.9 807.3,-267.8 779,-259.3 764.5,-260.3 	"/>
	<path class="st24" d="M788.2-266.9c0.7-0.3,1.4,0.3,2.1,0.4c0.4,0.1,0.8,0,1.3,0.1c0.8,0.1,1.7,0.7,2.5,0.4L788.2-266.9z"/>
	<path class="st24" d="M787.3-266.4c0.7-0.3,1.4,0.3,2.1,0.4c0.4,0.1,0.8,0,1.3,0.1c0.8,0.1,1.7,0.7,2.5,0.4L787.3-266.4z"/>
	<path class="st24" d="M785.2-265.4c0.7-0.3,1.4,0.3,2.1,0.4c0.4,0.1,0.8,0,1.3,0.1c0.8,0.1,1.7,0.7,2.5,0.4L785.2-265.4z"/>
	<polygon class="st10" points="674.6,-277.5 712.8,-275 704.7,-263.3 662.7,-267.8 	"/>
	<polygon class="st9" points="673.9,-278.3 712.1,-275.8 703.9,-264.1 662,-268.6 	"/>
	<polygon class="st26" points="675.6,-277.4 708.9,-275.4 701.8,-265.9 665.2,-269.5 	"/>
	<path class="st9" d="M604.8-180.5"/>
	<path class="st10" d="M604.8-180.5"/>
	<path class="st9" d="M604.5-180.5"/>
	<path class="st9" d="M653.2-181.9c0,0.2,0,0.4,0,0.5s0,0.3-0.1,0.5c-0.1,1.1-0.4,2.2-0.9,3.2l0,0c-15.8-1.8-31.6-3.9-47.4-6.1
		l-2.2-0.3l-4-0.6l-3.4-0.5l0,0c-3.7-0.1-7.4-0.4-11.1-1c-2.3-0.3-4.6-0.8-6.8-1.4c-10-1.4-20.1-2.7-30.2-3.9l-1.3-0.2
		c0.2-1.1,0.4-1.7,0.4-1.7s2.2-8.5,4-18l0,0c0.4-2.1,0.8-4.2,1.1-6.2c0.3-1.7,0.5-3.3,0.7-4.9c0.1-0.9,0.2-1.7,0.3-2.6
		c0-0.4,0.1-0.8,0.1-1.3c0-0.4,0.1-0.9,0.1-1.3c0-0.4,0-0.8,0.1-1.2v-0.6c0-0.8,0-1.7,0-2.6c-0.3-4.5-1-9-2.1-13.4
		c-0.2-0.8-0.4-1.5-0.5-2.2c-0.1-0.2-0.1-0.5-0.2-0.7c-2-7.8-4.4-14.3-4.4-14.3c0,0,0-0.1,0-0.1c0,0,0-0.1,0-0.1c0-0.1,0-0.1,0-0.2
		c0-0.2,0-0.5,0-0.9c0-0.1,0-0.2,0-0.2c0-0.7,0.2-1.3,0.3-1.9c0.1-0.2,0.1-0.4,0.2-0.7c0.5-1.3,1.5-2.3,2.8-2.6l0,0
		c1.8-0.5,4.5,0,8.5,2.4c0.7,0.4,1.3,0.8,1.9,1.3c0.3,0.2,0.6,0.5,0.9,0.8c4.6,4.3,7.1,11.5,8.4,18c0.1,0.2,0.1,0.5,0.1,0.7
		c0.2,0.8,0.3,1.6,0.4,2.4c0.2,1.4,0.4,2.7,0.5,3.9c0,0.3,0.1,0.6,0.1,1c0,0.3,0.1,0.6,0.1,0.9c0.1,1,0.1,1.9,0.2,2.6
		c0.1,2,0.1,3.3,0.1,3.3v0.1c0,0,0,0.1,0,0.3c0,0,0,0,0,0.1c0,0.1,0,0.2,0,0.3c0,0.1,0,0.2,0,0.3c0,0.3-0.1,0.6-0.1,0.9
		c-0.1,0.5-0.1,1.2-0.2,1.9l0,0c-0.1,0.5-0.1,1.1-0.2,1.7c-0.1,1.3-0.3,2.7-0.5,4.2c0,0.3-0.1,0.6-0.1,0.9c-0.1,1.3-0.3,2.7-0.5,4.1
		l0,0c-0.2,1.6-0.4,3.1-0.5,4.7c0,0.3-0.1,0.7-0.1,1c-0.5,3.8-0.9,7.2-1.3,9.3c-0.1,0.3-0.1,0.6-0.1,1c0,0.1,0,0.2,0,0.3
		c0,0.3,0,0.6,0,0.9c0.3,5.4,6.1,6.3,6.1,6.3l26.3-0.5l3.9-0.1l2.3,0l20.5-0.4l0,0l1.9,0l10.2-0.2c0.7,0,1.4,0.1,2.1,0.2
		c3.1,0.8,6.2,2.2,8.9,3.9c0.9,0.6,1.6,1.2,2.3,2c0,0,0.1,0.1,0.1,0.1c1.4,1.7,2.2,3.7,2.5,5.9c0,0.1,0,0.3,0,0.4
		C653.2-182.6,653.2-182.3,653.2-181.9z"/>
	<path class="st10" d="M604.5-180.5"/>
	<path class="st10" d="M653.2-181.9c0,0.2,0,0.4,0,0.5s0,0.3-0.1,0.5c-0.1,1.1-0.5,2.2-0.9,3.2c-15.8-1.8-31.6-3.9-47.4-6.1
		l-2.2-0.3l-4-0.6l-3.4-0.5l0,0c-3.7-0.1-7.4-0.4-11.1-1c-2.3-0.3-4.6-0.8-6.8-1.4c-10-1.4-20.1-2.7-30.2-3.9l-1.3-0.2l0,0
		c0.2-1.1,0.5-1.8,0.5-1.8s1.8-6.9,3.4-15.3l0,0c0.1-0.6,0.2-1.2,0.3-1.7l0.2-0.9l0,0c0.4-2.1,0.8-4.2,1.1-6.2
		c0.3-1.7,0.5-3.3,0.7-4.9c0.1-0.9,0.2-1.7,0.3-2.6c0-0.4,0.1-0.8,0.1-1.3s0.1-0.9,0.1-1.3s0-0.8,0.1-1.2v-0.6c0-0.8,0-1.7,0-2.6
		c-0.3-4.5-1-9-2.1-13.4c-0.2-0.8-0.4-1.5-0.5-2.2c-0.1-0.2-0.1-0.5-0.2-0.7c-2-7.9-4.4-14.3-4.4-14.3c0,0,0,0,0,0c0,0,0-0.1,0-0.1
		c0-0.1,0-0.1,0-0.2c0-0.2,0-0.5,0-0.9c0-0.1,0-0.2,0-0.2c0-0.7,0.1-1.3,0.3-1.9c0.1-0.2,0.1-0.4,0.2-0.7c0.5-1.4,1.6-2.4,3-2.7
		c1.8-0.4,4.4,0.1,8.4,2.4c0.7,0.4,1.3,0.9,2,1.4l0,0c0.3,0.2,0.6,0.5,0.9,0.8c4.6,4.3,7.1,11.5,8.4,18c0.1,0.2,0.1,0.5,0.1,0.7
		c0.2,0.8,0.3,1.6,0.4,2.4c0.2,1.4,0.4,2.7,0.5,3.9c0,0.3,0.1,0.7,0.1,1c0,0.3,0.1,0.6,0.1,0.9c0.1,1,0.1,1.9,0.2,2.6
		c0.1,2,0.1,3.3,0.1,3.3v0.2c0,0,0,0.1,0,0.1c0,0,0,0,0,0.1c0,0.1,0,0.2,0,0.3c0,0.1,0,0.2,0,0.3c0,0.3-0.1,0.6-0.1,0.9
		c-0.1,0.5-0.1,1.2-0.2,1.9l0,0c-0.1,0.5-0.1,1.1-0.2,1.7c-0.1,1.3-0.3,2.7-0.5,4.2c0,0.3-0.1,0.6-0.1,0.9c-0.1,1.3-0.3,2.7-0.5,4.1
		l0,0c-0.2,1.6-0.4,3.1-0.6,4.7c0,0.3-0.1,0.7-0.1,1c-0.5,3.8-0.9,7.1-1.3,9.2c-0.1,0.3-0.1,0.7-0.1,1c0,0.1,0,0.2,0,0.3
		c0,0.3,0,0.6,0,0.9c0.4,5.3,6.1,6.2,6.1,6.2l26.3-0.5l3.9-0.1l2.3,0l20.5-0.4l1.9,0l10.2-0.2c0.7,0,1.4,0.1,2.1,0.2
		c3.2,0.8,6.2,2.1,9,3.9c0.9,0.6,1.7,1.3,2.3,2c0,0,0.1,0.1,0.1,0.1c1.4,1.7,2.2,3.7,2.4,5.9c0,0.1,0,0.3,0,0.4
		C653.2-182.6,653.2-182.3,653.2-181.9z"/>
	<path class="st9" d="M604.5-180.5"/>
	<path class="st9" d="M653.3-177.6l-1-0.1l0,0c-15.8-1.8-31.6-3.9-47.4-6.1l-2.2-0.3l-4-0.6l-3.4-0.5l0,0c-3.7-0.1-7.4-0.4-11.1-1
		c-2.3-0.3-4.6-0.8-6.8-1.4c-10-1.4-20.1-2.7-30.2-3.9c0.2-0.9,0.4-1.8,0.6-2.6c0,0,6-23.5,6.3-35.9c0.1-4.5-0.8-10-2-15.2l0,0
		c-0.2-0.8-0.4-1.5-0.5-2.3l-0.2-0.7c-2.1-8.3-4.7-15.2-4.7-15.2c-0.1-0.9,0-1.7,0.1-2.6c0-0.2,0.1-0.5,0.2-0.7
		c0.2-1.1,0.8-2,1.6-2.7l0,0c0,0,0.1-0.1,0.1-0.1c1.7-1.3,4.6-1.3,9.9,1.7c1.1,0.6,2.1,1.4,2.9,2.3c0.3,0.2,0.5,0.5,0.7,0.7
		c4.2,4.6,6.5,11.6,7.7,17.9l0.1,0.7c0.1,0.8,0.3,1.6,0.4,2.3c0,0,0,0,0,0.1l0,0c0.1,1,0.3,1.9,0.4,2.8l0,0c0.3,2.7,0.4,5.3,0.5,8
		c0,0-0.2,2.5-0.6,6c-0.1,1.4-0.3,3-0.5,4.6c0,0.1,0,0.2,0,0.3l-0.1,0.9c-0.3,2.9-0.7,6-1,8.8c0,0.4-0.1,0.7-0.1,1
		c-0.4,3.2-0.8,6.1-1.1,7.9c-1.3,7.3,6,8.4,6,8.4l24.8-0.5l3.9-0.1l2.3-0.1h1h0.3l19.7-0.4h1.9l11.3-0.2c0.7,0,1.4,0.1,2.1,0.3
		c3.2,0.8,6.2,2.1,9,3.9c0.8,0.5,1.5,1.1,2.1,1.8c0,0,0.1,0.1,0.1,0.1C655.1-186.6,655.6-181.6,653.3-177.6z"/>
	<polygon class="st15" points="742,-291 749.6,-274.6 748.4,-274.6 739.4,-290.8 	"/>
	<polygon class="st10" points="742,-291 749.6,-274.6 748.4,-274.6 739.4,-290.8 	"/>
	<polygon class="st15" points="742,-274.6 749.6,-274.6 749.6,-272.9 742,-272.7 	"/>
	<polygon class="st10" points="742,-274.6 749.6,-274.6 749.6,-272.9 742,-272.7 	"/>
	<path class="st15" d="M682.3-351.5v57.4c0,2.4,1.9,4.3,4.3,4.3h95.7c2.3,0,4.2-1.9,4.2-4.2c0,0,0-0.1,0-0.1l-1.1-57.5
		c0-2.3-1.9-4.2-4.2-4.2h-94.6C684.2-355.8,682.3-353.9,682.3-351.5z"/>
	<path class="st10" d="M682.3-351.5v57.4c0,2.4,1.9,4.3,4.3,4.3h95.7c2.3,0,4.2-1.9,4.2-4.2c0,0,0-0.1,0-0.1l-1.1-57.5
		c0-2.3-1.9-4.2-4.2-4.2h-94.6C684.2-355.8,682.3-353.9,682.3-351.5z"/>
	<path class="st15" d="M678.8-351.5v57.4c0,2.4,1.9,4.3,4.3,4.3h95.7c2.3,0,4.2-1.9,4.2-4.2c0,0,0-0.1,0-0.1l-1.1-57.5
		c0-2.3-1.9-4.2-4.2-4.2h-94.6C680.8-355.8,678.9-353.9,678.8-351.5C678.8-351.5,678.8-351.5,678.8-351.5z"/>
	<path class="st2" d="M682.6-347.9v50.5c0,2.4,1.9,4.3,4.3,4.3h88.6c2.3,0,4.2-1.9,4.2-4.2l0,0v-50.6c0-2.3-1.9-4.2-4.2-4.2h-88.6
		C684.5-352.2,682.6-350.3,682.6-347.9z"/>
	<polygon class="st15" points="720.9,-290.8 729.3,-274.6 748.4,-274.6 738.9,-293.1 	"/>
	<polygon class="st15" points="714.2,-274.6 712.8,-272.9 742,-272.9 742,-274.6 	"/>
	
		<linearGradient id="SVGID_3_" gradientUnits="userSpaceOnUse" x1="-1345.2626" y1="341.8366" x2="-1345.2626" y2="544.2624" gradientTransform="matrix(1 0 0 -1 1979.37 168.2253)">
		<stop  offset="0" style="stop-color:#808080;stop-opacity:0.25"/>
		<stop  offset="0.54" style="stop-color:#808080;stop-opacity:0.12"/>
		<stop  offset="1" style="stop-color:#808080;stop-opacity:0.1"/>
	</linearGradient>
	<path class="st27" d="M591.4-334.1c-2.1-5.9-2.1-12.4-4.6-18.1c-0.4-0.8-0.8-1.7-1.1-2.5c-0.2-0.5-0.3-1.1-0.3-1.6l-0.2,0l-0.2,0
		l-0.2,0.1l0,0l-0.1,0.1c0,0.2,0.1,0.4,0.1,0.6c0.3,0.9,0.7,1.7,1.1,2.5c2.6,5.7,2.6,12.3,4.7,18.2c0.1,0.3,0.2,0.5,0.4,0.7
		c0.1,0.1,0.2,0.2,0.3,0.2C591.4-334,591.4-334,591.4-334.1z M591.4-334.1c-2.1-5.9-2.1-12.4-4.6-18.1c-0.4-0.8-0.8-1.7-1.1-2.5
		c-0.2-0.5-0.3-1.1-0.3-1.6l-0.2,0l-0.2,0l-0.2,0.1l0,0l-0.1,0.1c0,0.2,0.1,0.4,0.1,0.6c0.3,0.9,0.7,1.7,1.1,2.5
		c2.6,5.7,2.6,12.3,4.7,18.2c0.1,0.3,0.2,0.5,0.4,0.7c0.1,0.1,0.2,0.2,0.3,0.2C591.4-334,591.4-334,591.4-334.1z M591.4-334.1
		c-2.1-5.9-2.1-12.4-4.6-18.1c-0.4-0.8-0.8-1.7-1.1-2.5c-0.2-0.5-0.3-1.1-0.3-1.6l-0.2,0l-0.2,0l-0.2,0.1l0,0l-0.1,0.1
		c0,0.2,0.1,0.4,0.1,0.6c0.3,0.9,0.7,1.7,1.1,2.5c2.6,5.7,2.6,12.3,4.7,18.2c0.1,0.3,0.2,0.5,0.4,0.7c0.1,0.1,0.2,0.2,0.3,0.2
		C591.4-334,591.4-334,591.4-334.1z M591.4-334.1c-2.1-5.9-2.1-12.4-4.6-18.1c-0.4-0.8-0.8-1.7-1.1-2.5c-0.2-0.5-0.3-1.1-0.3-1.6
		l-0.2,0l-0.2,0l-0.2,0.1l0,0l-0.1,0.1c0,0.2,0.1,0.4,0.1,0.6c0.3,0.9,0.7,1.7,1.1,2.5c2.6,5.7,2.6,12.3,4.7,18.2
		c0.1,0.3,0.2,0.5,0.4,0.7c0.1,0.1,0.2,0.2,0.3,0.2C591.4-334,591.4-334,591.4-334.1z M591.4-334.1c-2.1-5.9-2.1-12.4-4.6-18.1
		c-0.4-0.8-0.8-1.7-1.1-2.5c-0.2-0.5-0.3-1.1-0.3-1.6l-0.2,0l-0.2,0l-0.2,0.1l0,0l-0.1,0.1c0,0.2,0.1,0.4,0.1,0.6
		c0.3,0.9,0.7,1.7,1.1,2.5c2.6,5.7,2.6,12.3,4.7,18.2c0.1,0.3,0.2,0.5,0.4,0.7c0.1,0.1,0.2,0.2,0.3,0.2
		C591.4-334,591.4-334,591.4-334.1z M591.4-334.1c-2.1-5.9-2.1-12.4-4.6-18.1c-0.4-0.8-0.8-1.7-1.1-2.5c-0.2-0.5-0.3-1.1-0.3-1.6
		l-0.2,0l-0.2,0l-0.2,0.1l0,0l-0.1,0.1c0,0.2,0.1,0.4,0.1,0.6c0.3,0.9,0.7,1.7,1.1,2.5c2.6,5.7,2.6,12.3,4.7,18.2
		c0.1,0.3,0.2,0.5,0.4,0.7c0.1,0.1,0.2,0.2,0.3,0.2C591.4-334,591.4-334,591.4-334.1z M591.4-334.1c-2.1-5.9-2.1-12.4-4.6-18.1
		c-0.4-0.8-0.8-1.7-1.1-2.5c-0.2-0.5-0.3-1.1-0.3-1.6l-0.2,0l-0.2,0l-0.2,0.1l0,0l-0.1,0.1c0,0.2,0.1,0.4,0.1,0.6
		c0.3,0.9,0.7,1.7,1.1,2.5c2.6,5.7,2.6,12.3,4.7,18.2c0.1,0.3,0.2,0.5,0.4,0.7c0.1,0.1,0.2,0.2,0.3,0.2
		C591.4-334,591.4-334,591.4-334.1z M700.4-275.6L700.4-275.6l-0.5-0.1l0.6-0.1l0,0c0.1,0,0.1,0,0.2,0l0,0c0.7-0.2,1.4-0.3,2.1-0.5
		l0,0l0.7-0.2l0,0l0.1,0c5.8-1.7-1-3.3-9.6-4.5h0c-9.4-1.3-20.8-2.1-20.8-2.1l-3.6,0.5h0c-4.4,0.6-11.3,1.5-12.4,1.9
		c-1.3,0.4-12.7,1-16.7,1.2c-0.1-0.3-0.3-0.5-0.6-0.6l-11.7-0.5v1.6l0,0l-0.1,0c-0.1-2.2-0.6-4.3-1.6-6.3l-0.1-0.2
		c-3-5.7-3.6-7.2-3.6-7.2l0,0c0-0.1-0.1-0.2-0.1-0.3c-1-3.5-4.8-9.7-11.1-18.5l-0.2-0.3l-0.8-3.9l-0.1-0.7h-4
		c0.6-3.4,1.5-6.7,2.8-9.9c0.1-0.2,0.2-0.4,0.3-0.6l0.1-0.1c0.1-0.2,0.2-0.4,0.3-0.6c0.2,0,0.5,0,0.7,0l0,0
		c9.8-0.4,17.7-8,18.3-17.8c0,0,0,0,0-0.1c0-0.4,0-0.8,0-1.2c0-3.3-0.9-6.6-2.5-9.4c-0.1-0.1-0.1-0.2-0.2-0.3l-0.1-0.2l-0.2-0.4
		c1.4-0.3,3.1,0.3,4.4-0.5c0.5-0.3,0.8-0.8,1.1-1.3c0.3-0.6,0.5-1.2,0.6-1.9l0,0l0,0l0,0c0,0,0-0.1,0-0.1c0,0,0,0,0,0
		c0.1-0.4,0.1-0.9,0.1-1.3c0-0.9-0.1-1.8-0.4-2.6c-0.7-1.9-2.2-3.3-4-4.1c-1-0.3-1.9-0.6-2.9-0.8c-4-1.1-7.4-3.7-11.3-5.2
		c-2.7-1-5.6-1.5-8.5-1.3c-1.7,0.1-3.5,0.5-5,1.3c-1.2,0.7-2.3,1.5-3.4,2.4c-2.8,2.2-6,4.1-8.4,6.7c-0.4,0.5-0.8,1-1.2,1.5
		c-0.2,0.3-0.4,0.6-0.6,0.9c-0.4-0.5-0.9-0.7-1.5-0.6l0,0c-0.1,0-0.2,0-0.3,0c-0.3,0-0.5,0-0.8,0.1c-0.6,0.1-5.3,1.3-5.3,2
		c-1.9,0.8-3.7,1.9-5.4,3.3c-3.8,3.4-4.6,8.9-5.1,13.9c-0.6,5.8-0.8,11.7-0.6,17.6c0.1,2.1,0.3,4.3,0.2,6.4c-0.2,2.5-0.5,5-1.1,7.5
		c-0.5,2.6-1.1,5.1-1.8,7.6c-0.3,1.3-0.8,2.7-2,3l0.5,0.1c-0.1,0.1-0.3,0.2-0.5,0.2c0.5,0.1,1.1,0.1,1.6,0.2h0.4
		c0.3,0,0.6,0,0.9-0.1c0.4-0.1,0.8-0.3,1.1-0.5c0.1-0.1,0.1-0.3,0.1-0.4c0.4-0.3,0.6-0.7,0.8-1.2c0,0.7,0,1.4-0.1,2.1
		c0,0.1,0,0.2-0.1,0.3c-0.3,1.5-1.1,2.9-2.2,4.1l0.6-0.5c-0.2,0.3-0.4,0.5-0.6,0.8c0.9-0.7,1.8-1.4,2.7-2.1l0,0
		c0.1,0,0.1-0.1,0.2-0.1l0,0l1.5-1.2c0,0.2,0,0.3,0,0.6s0,0.4,0,0.6l0,0c0,0.1,0,0.2,0,0.3c-0.1,4.3-0.3,15,0.7,17.5
		c0.1,0.2,0.1,0.3,0.2,0.4c1.1,2.9,1.6,4.1,1.5,5.6c-0.1,1,0.7,4,1.1,6.4c0.2,0.9,0.3,1.9,0.2,2.9c-0.1,0.6,0,1.2,0.1,1.7
		c0.1,0.3,0.1,0.6,0.2,0.9c0,0.1,0.1,0.2,0.1,0.3c0.6,2.3,1.4,5.1,0.5,6.2c-0.3,0.4-0.5,0.8-0.6,1.3c-0.7,1.9-0.8,4.5-1.6,5.5
		c-0.9,1.2-0.6,3.4-0.6,3.6c0,0,0,0,0,0c0,0,0,0.2-0.1,0.6c-0.1,0.5-0.3,1.3-0.5,2.2v0.1c-0.3,1.3-0.6,2.5-1.1,3.7l0,0
		c-0.3,0.9-0.6,1.5-1,1.6c-1.3,0.5-1.9,6.3-1.9,6.3s-2.9,4.7-2.3,5.8c0.1,0.3,0.3,0.5,0.4,0.8l-0.3,0.4c-1.5,2.5-3.8,6.9-1.6,9.4
		c0.8,0.8,1.6,1.4,2.6,2c-0.1,0.3-0.2,0.5-0.4,0.8c-2.4,5.6-6,18.5,8,23.9c1.4,0.5,2.8,1,4.3,1.4c2.2,0.6,4.5,1.1,6.8,1.4
		c3.3,0.5,6.7,0.8,10,0.9c1.5,0.1,3,0.1,4.4,0.1c1.4,0,2.7,0,4-0.1c0.8,0,1.5-0.1,2.2-0.1c4.3-0.2,8.6-0.7,12.9-1.4l20.1-3.6
		c0,0,8.4,0.3,11.5,2.1l0.1,0.1c0,0,0.5-0.3,1.4-0.9l0,0c0.4-0.3,0.8-0.6,1.3-0.9c3.2-2.3,8.5-6.9,12-13.3l0.1-0.1l0.7-0.1h0.2
		l0.5-0.1l1-0.1h0.1h0.1c2.5-0.4,4.9-0.8,4.9-0.8s0.1,2.8,0.2,6.1c0,1,0.1,2,0.1,3c0.1,3.4,0.2,6.6,0.2,6.7s2.6,6.9,5.5,13.8
		l2.3,0.2c6,0.5,11.9,0.9,17.9,1.2l2.2,0.1l1.4,0.1c-1-6.1-1.8-11.9-1.8-11.9l-3.7-17.4c0,0-0.4-3.6-3.2-19.6
		c-2.3-12.9-15.6-11.8-20.5-10.9c-0.5,0.1-0.9,0.2-1.3,0.3v-1c0,0-9.6,0.8-18.2,1.2l-2.1,0.1c-2,0.1-3.9,0.1-5.6,0.1
		c-1.5,0-2.9,0-4.4-0.2c-6.7-0.8-14.3,1.5-14.3,1.5s-9.7,1.6-11,1c-0.4-0.1-0.7-0.2-1.1-0.2c-0.2,0-0.4,0-0.6,0
		c0.5-0.2,0.7-0.6,0.6-1.1c-0.4-1.6-0.5-3.8,0.5-5.4c0.5-0.7,1.3-1.7,2-2.7l1.7-2.3v-0.2l0-0.7l0.4-6.1l1-5.6l0.1-0.4l0.1-0.5
		l0.1-0.4l0.2,0.1l0,0c2.8,1,5.9,1.6,8.2,0.9h0c0.2-0.1,0.3-0.1,0.5-0.2h0.1v0.4l0,0.7l10.5-0.6h0.2c0,0,0.4-2,0.8-4.8
		c0-0.2,0.1-0.5,0.1-0.7c0-0.2,0.1-0.6,0.1-0.9c0-0.1,0-0.3,0.1-0.4h0.4h0.2c4.9-0.2,11.6-0.6,14.4-1.6l0,0c0.3-0.1,0.7-0.3,0.9-0.5
		c1.2-1,5.4-2.5,9.5-3.7l0,0l1.7-0.5c1.2-0.4,2.4-0.7,3.4-1c2.4-0.6,4.1-1.1,4.1-1.1s16.3,1.5,28.5-2l0,0l0.2-0.1
		C708.7-273.3,705.8-274.6,700.4-275.6z M584.6-357.2c0,0.2,0,0.4,0.1,0.6l0,0l0,0l0,0l0,0c0,0.1,0,0.2,0,0.2c0,0.1,0,0.2,0.1,0.2
		c0,0.2,0.1,0.4,0.1,0.6c0.3,0.9,0.7,1.7,1.1,2.5c2.6,5.7,2.6,12.3,4.7,18.2c0.1,0.3,0.2,0.5,0.4,0.7c0.1,0.1,0.2,0.2,0.3,0.2
		l0.2,0.1l0,0h0.2l-0.1,0.1c0,0,0,0.1-0.1,0.1l0,0.1c-0.8,1.4-1.7,2.8-2.6,4c-0.8,0.1-1.5,0.5-2.2,0.9l-0.4,0.2l-0.2,0.1
		c-0.2-1.1-0.5-2.1-0.8-3.2c-1.5-5.7-2.3-11.5-2.4-17.4c0-0.1,0-0.3,0-0.4c0-0.3,0-0.5,0-0.8c0-1.5,0-3,0.1-4.5c0-0.7,0.2-1.4,0.5-2
		l0,0C583.9-357,584.3-357.2,584.6-357.2L584.6-357.2z M591.4-334.1c-2.1-5.9-2.1-12.4-4.6-18.1c-0.4-0.8-0.8-1.7-1.1-2.5
		c-0.2-0.5-0.3-1.1-0.3-1.6l-0.2,0l-0.2,0l-0.2,0.1l0,0l-0.1,0.1c0,0.2,0.1,0.4,0.1,0.6c0.3,0.9,0.7,1.7,1.1,2.5
		c2.6,5.7,2.6,12.3,4.7,18.2c0.1,0.3,0.2,0.5,0.4,0.7c0.1,0.1,0.2,0.2,0.3,0.2C591.4-334,591.4-334,591.4-334.1L591.4-334.1z
		 M591.4-334.1c-2.1-5.9-2.1-12.4-4.6-18.1c-0.4-0.8-0.8-1.7-1.1-2.5c-0.2-0.5-0.3-1.1-0.3-1.6l-0.2,0l-0.2,0l-0.2,0.1l0,0l-0.1,0.1
		c0,0.2,0.1,0.4,0.1,0.6c0.3,0.9,0.7,1.7,1.1,2.5c2.6,5.7,2.6,12.3,4.7,18.2c0.1,0.3,0.2,0.5,0.4,0.7c0.1,0.1,0.2,0.2,0.3,0.2
		C591.4-334,591.4-334,591.4-334.1L591.4-334.1z M591.4-334.1c-2.1-5.9-2.1-12.4-4.6-18.1c-0.4-0.8-0.8-1.7-1.1-2.5
		c-0.2-0.5-0.3-1.1-0.3-1.6l-0.2,0l-0.2,0l-0.2,0.1l0,0l-0.1,0.1c0,0.2,0.1,0.4,0.1,0.6c0.3,0.9,0.7,1.7,1.1,2.5
		c2.6,5.7,2.6,12.3,4.7,18.2c0.1,0.3,0.2,0.5,0.4,0.7c0.1,0.1,0.2,0.2,0.3,0.2C591.4-334,591.4-334,591.4-334.1L591.4-334.1z
		 M591.4-334.1c-2.1-5.9-2.1-12.4-4.6-18.1c-0.4-0.8-0.8-1.7-1.1-2.5c-0.2-0.5-0.3-1.1-0.3-1.6l-0.2,0l-0.2,0l-0.2,0.1l0,0l-0.1,0.1
		c0,0.2,0.1,0.4,0.1,0.6c0.3,0.9,0.7,1.7,1.1,2.5c2.6,5.7,2.6,12.3,4.7,18.2c0.1,0.3,0.2,0.5,0.4,0.7c0.1,0.1,0.2,0.2,0.3,0.2
		C591.4-334,591.4-334,591.4-334.1L591.4-334.1z M591.4-334.1c-2.1-5.9-2.1-12.4-4.6-18.1c-0.4-0.8-0.8-1.7-1.1-2.5
		c-0.2-0.5-0.3-1.1-0.3-1.6l-0.2,0l-0.2,0l-0.2,0.1l0,0l-0.1,0.1c0,0.2,0.1,0.4,0.1,0.6c0.3,0.9,0.7,1.7,1.1,2.5
		c2.6,5.7,2.6,12.3,4.7,18.2c0.1,0.3,0.2,0.5,0.4,0.7c0.1,0.1,0.2,0.2,0.3,0.2C591.4-334,591.4-334,591.4-334.1L591.4-334.1z
		 M591.4-334.1c-2.1-5.9-2.1-12.4-4.6-18.1c-0.4-0.8-0.8-1.7-1.1-2.5c-0.2-0.5-0.3-1.1-0.3-1.6l-0.2,0l-0.2,0l-0.2,0.1l0,0l-0.1,0.1
		c0,0.2,0.1,0.4,0.1,0.6c0.3,0.9,0.7,1.7,1.1,2.5c2.6,5.7,2.6,12.3,4.7,18.2c0.1,0.3,0.2,0.5,0.4,0.7c0.1,0.1,0.2,0.2,0.3,0.2
		C591.4-334,591.4-334,591.4-334.1L591.4-334.1z"/>
	<path class="st28" d="M612.3-330.8c-1,1.1-1.8,2.4-2.4,3.7c-0.1,0.2-0.2,0.4-0.3,0.6c-2.8,6.3-3.7,15.2-3.7,15.2s-1.7-0.8-4.2-2
		c-4.5-2.2-11.5-6-14.4-9c-1.3-1.3-1.7-2.5-0.7-3.4c0.2-0.2,0.5-0.4,0.7-0.6c0.8-0.8,1.5-1.7,2.2-2.6c0.9-1.3,1.8-2.7,2.6-4.1
		c0.5-0.8,1-1.7,1.4-2.5l0.2-0.3c1.9-3.6,3.3-6.6,3.3-6.6s0.6,0.2,1.6,0.6C603.4-340.1,616.3-335,612.3-330.8z"/>
	<path class="st28" d="M698.2-185.4c0,0,0.8,5.7,1.7,11.7l-2.2-0.1c-6-0.3-11.9-0.7-17.9-1.2c-3.4-7.8-6.9-17.2-6.9-17.3
		c0-0.1-0.1-3.2-0.2-6.6c0-1.2-0.1-2.4-0.1-3.6l0,0c-0.1-1.8-0.1-3.4-0.2-4.4c0-0.7,0-1.1,0-1.1s-3.2,0.6-6.1,1l-1.3,0.2
		c-0.7,0.1-1.3,0.1-1.8,0.2c-0.5,0.1-0.9,0.1-1.4,0c-1-0.4,1.1-10,1.1-10l5.1-12.4l1.4-3.5l0.6-0.2c0.3-0.1,0.7-0.2,1.2-0.3
		c4.9-0.9,17.9-2,20.2,10.8c2.7,15.9,3.1,19.5,3.1,19.5L698.2-185.4z"/>
	<path class="st28" d="M703.2-159.9h-1.5l0,0H703.2L703.2-159.9z"/>
	<path class="st29" d="M698.2-185.4c0,0,0.8,5.7,1.7,11.7l-2.2-0.1c-6-0.3-11.9-0.7-17.9-1.2c-3.4-7.8-6.9-17.2-6.9-17.3
		c0-0.1-0.1-3.2-0.2-6.6c0-1.2-0.1-2.4-0.1-3.6l0,0c-0.1-1.8-0.1-3.4-0.2-4.4c0-0.7,0-1.1,0-1.1s-3.2,0.6-6.1,1l-1.3,0.2
		c-0.7,0.1-1.3,0.1-1.8,0.2c-0.5,0.1-0.9,0.1-1.4,0c-1-0.4,1.1-10,1.1-10l5.1-12.4l1.4-3.5l0.6-0.2c0.3-0.1,0.7-0.2,1.2-0.3
		c4.9-0.9,17.9-2,20.2,10.8c2.7,15.9,3.1,19.5,3.1,19.5L698.2-185.4z"/>
	<path class="st29" d="M703.2-159.9h-1.5l0,0H703.2L703.2-159.9z"/>
	<path class="st28" d="M697.7-173.8c-6-0.3-11.9-0.7-17.9-1.2l-2.3-0.2l-1-0.1c-2.8-6.8-5.3-13.4-5.3-13.5c0-0.1-0.1-3.2-0.2-6.6
		c-0.1-4.3-0.3-9-0.3-9l-0.4,0.1l-0.2,0h-0.1h-0.2l-1,0.2l-0.6,0.1c-1,0.2-2.2,0.3-3.4,0.5l-0.3,0l-0.7,0.1l-0.6,0.1l0,0
		c-0.5,0.1-0.9,0.1-1.4,0.2l-0.5,0c-0.5,0.1-0.9,0.1-1.4,0c-1-0.4,1.1-10,1.1-10l6.5-15.8l0.2-0.1c0.3-0.1,1.1-0.3,2.1-0.4
		c0.4-0.1,0.8-0.1,1.2-0.2c5.7-0.7,16.5-0.5,18.5,11.1c2.7,15.9,3.1,19.5,3.1,19.5l3.7,17.3C696.6-181.9,697-178.3,697.7-173.8z"/>
	<path class="st10" d="M671-195.5c-0.1-4.3-0.3-9.1-0.3-9.1s-6.3,1.1-9.2,1.3l0.6-2c0,0,10.7-3,11-1.3
		C673.3-205.3,671.9-199.1,671-195.5z"/>
	<path class="st10" d="M671.3-233v4.5c0,0-0.5,8.2-4.7,20.6c-0.1,0.3-0.2,0.5-0.3,0.8c-0.4,1.2-1,2.4-1.6,3.5
		c-1.2,0.2-2.3,0.3-3.2,0.4c-0.5,0.1-0.9,0.1-1.4,0c-1-0.4,1.1-10,1.1-10l6.6-15.8l0.2-0.1l1.4-3.5
		C669.4-232.6,670.1-232.8,671.3-233z"/>
	<path class="st21" d="M670.1-233.8v5.3c0,0-0.5,8.2-4.7,20.6c-0.1,0.3-0.2,0.6-0.3,1c-0.1,0.3-0.3,0.7-0.4,1.1
		c-0.3,0.8-0.7,1.6-1.1,2.4l0,0c-3.3,6.2-8.3,10.7-11.5,13.1c-0.5,0.4-0.9,0.7-1.3,0.9h0c-0.6,0.4-1.1,0.7-1.4,0.9
		c-0.3,0.2-0.3,0.2-0.3,0.2c-3-1.8-11.4-2.1-11.4-2.1l-19.7,3.6c-4.3,0.7-8.7,1.2-13,1.5l-2.2,0.1c-1.3,0.1-2.6,0.1-4,0.1
		c-1.1,0-2.2,0-3.4,0l0,0c-3.7-0.1-7.4-0.4-11.1-1c-2-0.3-4-0.8-6-1.3c-1.4-0.4-2.8-0.8-4.1-1.4c-13.8-5.4-10.2-18.3-7.9-23.8
		c0.1-0.3,0.2-0.6,0.4-0.8c0.5-1.1,0.9-1.8,0.9-1.8l0.9-2.2l0,0l1.5-3.6l0.3-0.8l0.1-0.2l1.1-2.7l15.7-2l11.5-1.5l3.5-0.5l2.4-0.3
		l4.5-0.6l1.7-0.2c1.1-0.2,2.1-0.2,3.2-0.3c0.6,0,1.2,0.1,1.7,0.3c1.3,0.6,10.8-1,10.8-1s7.5-2.3,14-1.5c3.2,0.2,6.5,0.2,9.7,0.1
		l0,0l0.8,0l1,0h0.2C660.6-233,670.1-233.8,670.1-233.8z"/>
	<path class="st10" d="M613.6-218c0,0-7.5,17.1-7.8,17.4c-0.3,0.3-0.3,5.6,0,5.3c0.3-0.3,10.7-23.5,10.7-23.5L613.6-218z"/>
	<path class="st10" d="M650.1-232.5c0,0-3.8,2.5-5,4.4c-1.1,2-11.6,21.7-14.2,24.6c-2.1,2.6-4.1,5.3-5.8,8.2
		c-0.3,0.5-0.3,3.8,1.5,0.7c1.8-3.1,1.4-3.7,5-7.5s7.5-12.6,9.1-14.4c1.5-1.8,3.7-7,6.3-10.1l5.1-6L650.1-232.5z"/>
	<path class="st10" d="M651-198.7c0,0-2.7-1.8-5.2,1.3C643.3-194.2,651-198.7,651-198.7z"/>
	<path class="st10" d="M654.3-197.7c0,0-2.2,3.9-3.3,4.2C649.9-193.2,654.3-197.7,654.3-197.7z"/>
	<path class="st10" d="M651-196.8c0,0-1.8,3-3.3,2.7L651-196.8z"/>
	<path class="st28" d="M638.7-279.1c0,0,16.1-0.7,17.7-1.2c1.6-0.5,15.8-2.4,15.8-2.4s42,3,30,6.6s-28.2,2.1-28.2,2.1
		s-15.8,4.1-18.3,6.3c-2.4,2.2-20.4,2.2-20.4,2.2L638.7-279.1z"/>
	<path class="st29" d="M638.7-279.1c0,0,16.1-0.7,17.7-1.2c1.6-0.5,15.8-2.4,15.8-2.4s42,3,30,6.6s-28.2,2.1-28.2,2.1
		s-15.8,4.1-18.3,6.3c-2.4,2.2-20.4,2.2-20.4,2.2L638.7-279.1z"/>
	<path class="st20" d="M581.3-315.9c0,0-14.8,5-7.6,17.8s16.4,18.8,16.4,18.8l23.8,16.5c0,0,10,5.7,14.5,3.4l7.5-0.6l1.3-19.6
		c0,0-6.3,4.9-13.1-1.9c-6.8-6.8-15.2-11.3-15.9-15C607.3-300.2,589.9-319,581.3-315.9z"/>
	<path class="st22" d="M627.9-274.4c0,0,7.7,2.7,7.4,2.9c-0.3,0.2-7.4,2.8-7.4,2.8l0.5,10.4l10.4-0.6c0,0,3.8-19,0.5-20.9l-11.5-0.5
		L627.9-274.4z"/>
	<path class="st10" d="M627.9-274.4c0,0,7.7,2.7,7.4,2.9c-0.3,0.2-7.4,2.8-7.4,2.8l0.5,10.4l10.4-0.6c0,0,3.8-19,0.5-20.9l-11.5-0.5
		L627.9-274.4z"/>
	<path class="st10" d="M612.3-330.8c-1,1.1-1.8,2.4-2.4,3.7c-0.1,0.2-0.2,0.4-0.3,0.6c-5.6,0-9.6-4.4-13.1-8.3
		c-0.6-0.7-2.2,0.4-2.7-0.4c-0.1-0.1-0.1-0.2-0.2-0.3l0.2-0.3c1.9-3.6,3.3-6.6,3.3-6.6s0.6,0.2,1.6,0.6
		C603.4-340.1,616.3-335,612.3-330.8z"/>
	<path class="st28" d="M628.6-345.9c0,10.4-8.4,18.8-18.7,18.9h-0.2c-5.4,0-10.6-2.3-14.2-6.4c-0.6-0.7-1.2-1.5-1.7-2.3
		c-5.6-8.8-3.1-20.5,5.7-26.1s20.5-3.1,26.1,5.7C627.6-353.1,628.6-349.6,628.6-345.9z"/>
	<path class="st10" d="M609.4-228.8c0,0-1.4,1.8-3,3.4c-1.2,1.3-2.5,2.4-3.3,2.7c-1.9,0.7-10.5,7.2-10.5,7.2s-6.9,4.6-8.6,6
		c-1.8,1.4-8.1,0.5-8.1,0.5s-6.1-1.3-9.9-3.8c0.4-0.9,0.8-1.8,1.3-2.6l4-9.6l15.7-2L609.4-228.8z"/>
	<path class="st22" d="M609.1-230c0,0-1.4,1.8-3,3.4c-1.2,1.3-2.5,2.4-3.3,2.7c-1.9,0.7-10.5,7.2-10.5,7.2s-6.9,4.6-8.6,6
		c-1.8,1.4-8.1,0.5-8.1,0.5s-8.7-1.9-11.7-5.3c-2.1-2.4,0.1-6.9,1.6-9.3c0.6-1,1.2-1.7,1.2-1.7L609.1-230z"/>
	<path class="st22" d="M620.4-289.1c-5.2-0.5-22.2-21.3-22.2-21.3l0.4-0.5l3.6-5h8.4l0.9,4.6c6.4,8.9,10.1,15.1,11.1,18.7
		C623.3-290,622.6-288.9,620.4-289.1z"/>
	<path class="st10" d="M620.4-289.1c-5.2-0.5-22.2-21.3-22.2-21.3l0.4-0.5c3.1,2.8,5.9,5.8,8.6,9c12.5,14.7,15,10.6,15.4,9.3
		C623.3-290,622.6-288.9,620.4-289.1z"/>
	<path class="st10" d="M609.1-230c0,0-1.4,1.8-3,3.4c-0.8,0.3-1.7,0.5-2.6,0.6c-2-0.1-6.5,3-6.5,3s-8.1-0.5-9.6,0.4
		c-1.5,0.8-7.4,1-7.4,1c-10.7,3.1-13.7-1.6-14.5-3.1c0.6-1,1.2-1.7,1.2-1.7L609.1-230z"/>
	<path class="st20" d="M627.8-275.4c0,0.3-0.1,0.6-0.1,0.9c0,0.3-0.1,0.6-0.1,0.8c-0.2,1.5-0.7,3.1-1.4,4.4
		c-1.4,2.3-5.6,11.2-5.6,11.2l-0.3,1.6l-0.1,0.9l-0.2,0.8l-1,6l-0.5,6.9c0,0-2.5,3.5-3.6,5c-1.1,1.5-0.9,3.7-0.5,5.3
		s-3.5,1.8-3.5,1.8s-5.5,2.7-7.5,2.6s-6.6,3-6.6,3s-8.1-0.5-9.6,0.4c-1.5,0.8-7.4,1-7.4,1c-11.5,3.3-14.1-2.3-14.6-3.4
		s2.3-5.8,2.3-5.8s0.6-5.9,1.8-6.3c1.2-0.5,2.7-8.2,2.7-8.2s-0.5-2.4,0.5-3.7s0.9-5,2.2-6.7c1.3-1.8-1.4-7.6-0.9-9.1
		s-1.4-7.7-1.3-9.3s-0.4-2.9-1.6-6.1c-1-2.7-0.7-14.9-0.6-18.3c0-0.6,0-0.9,0-0.9s1.1-3.4,3.9-10.3c2.1-5.2,6.9-7.2,9.1-7.8
		c0.4-0.1,0.8-0.2,1.1-0.3c0.6,0.1,1.1,0.2,1.6,0.4c2.2,0.7,6.7,2.9,13,8.8c2.8,2.6,5.4,5.4,7.9,8.4c14.3,16.8,15.5,9,15.5,9
		s0.6,1.4,3.6,7.1C627.8-282.1,628-278.5,627.8-275.4z"/>
	<path class="st10" d="M604.3-316.8l-14.3-11.4c0,0-5.2,0.6-7.3,9.3l14.8,12.9L604.3-316.8z"/>
	<path class="st22" d="M604.3-316.8l-2.5,3.5l-2.5,3.6l-1.9,2.8l-11.8-9.9l-2-1.8l-1.1-1c1.1-4.7,3.2-7,4.8-8.2
		c0.7-0.6,1.6-0.9,2.5-1.1L604.3-316.8z"/>
	<path class="st28" d="M702.8-271.5c-12,3.6-28.2,2.1-28.2,2.1s-15.8,4.1-18.3,6.3c-1.6,1.4-9.6,1.9-15.1,2.1
		c-3,0.1-5.3,0.1-5.3,0.1l3.3-13.5l1.9-0.1c4.3-0.2,14.6-0.7,15.8-1.1c1.6-0.5,15.8-2.4,15.8-2.4S714.7-275.1,702.8-271.5z"/>
	<path class="st10" d="M627.6-273.7c-0.2,1.5-0.7,3.1-1.4,4.4c-1.4,2.3-5.6,11.2-5.6,11.2l-0.6,3.4c-1.9-0.7-3.8-1.6-5.6-2.6
		l-23.8-16.5c0,0-9.2-6-16.4-18.8s7.6-17.8,7.6-17.8c8.6-3.1,26,15.7,26.7,19.3c0.7,3.7,9.1,8.2,15.9,15
		C625.4-275.1,626.4-274.3,627.6-273.7z"/>
	<path class="st10" d="M627.8-275.4c-0.1,0.6-0.1,1.2-0.2,1.7c-0.2,1.5-0.7,3.1-1.4,4.4c-1.4,2.3-5.6,11.2-5.6,11.2l-0.3,1.6
		c-2.1-0.7-4-1.6-6-2.7l-23.8-16.5c0,0-9.2-6-16.4-18.8s7.6-17.8,7.6-17.8c8.6-3.1,26,15.7,26.7,19.3c0.7,3.7,9.1,8.2,15.9,15
		C625.5-276.9,626.6-276,627.8-275.4z"/>
	<path class="st20" d="M637.6-275l-1.2,19.6l-7.5,0.6c-0.2,0.1-0.3,0.2-0.5,0.2c-4.8,1.7-14-3.6-14-3.6l-23.8-16.5
		c0,0-9.2-6-16.4-18.8s7.6-17.8,7.6-17.8c8.6-3.1,26,15.7,26.7,19.3s9.1,8.2,15.9,15c1,1,2.2,1.9,3.4,2.5
		C631-272.8,634.7-273.1,637.6-275z"/>
	<path class="st10" d="M637.6-275l-1.2,19.6l-7.5,0.6c-0.2,0.1-0.3,0.2-0.5,0.2l-0.5-9.5c0,0,7.1-2.7,7.4-2.8
		c0.3-0.2-7.4-2.9-7.4-2.9v-4.5C631-272.8,634.8-273,637.6-275z"/>
	<path class="st10" d="M641.3-261.1c-3,0.1-5.3,0.1-5.3,0.1l3.4-13.5l1.9-0.1C642.5-272.5,642-266.2,641.3-261.1z"/>
	<path class="st22" d="M628.5-269.9c0,0,7.7,2.7,7.4,2.9s-7.4,2.8-7.4,2.8l0.5,10.4l10.4-0.6c0,0,3.8-19,0.5-20.9l-11.5-0.5V-269.9z
		"/>
	<path class="st10" d="M582.9-257.4c0,0-2.6,2.4-4.7,3.1L582.9-257.4z"/>
	<path class="st10" d="M576.8-250.1c0,0,6.3-0.2,7.1-1.5S576.8-250.1,576.8-250.1z"/>
	<path class="st10" d="M573.6-241.1c0.4,0,8-1.1,8.3-2.1L573.6-241.1z"/>
	<path class="st10" d="M571.3-235.3c2.7-0.1,7.4-3,7.4-3L571.3-235.3z"/>
	<path class="st10" d="M589-233.8c0,0,16.5,0,17.3-3C607.1-239.9,589-233.8,589-233.8z"/>
	<path class="st10" d="M601.4-276.3c0.3,0,13,0,14.2-1.8C616.9-279.8,601.4-276.3,601.4-276.3z"/>
	<path class="st10" d="M587.4-326.2c0.1,0.6,0.2,1.3,0.2,1.9c0,0.7-0.1,1.4-0.2,2.1c-0.3,1.3-0.6,2.6-1.2,3.8l-0.1,0.3
		c-0.2,0.4-0.4,0.9-0.6,1.3c-0.9,1.9-2,3.7-3.3,5.4c-2.9,3.8-6.2,7.2-9.9,10.3c-0.6,0.5-1.3,1.1-1.9,1.6c0-0.6,0-0.9,0-0.9
		s1.1-3.4,3.9-10.3c2.1-5.2,6.9-7.2,9.1-7.8l-1.1-1c1.1-4.7,3.2-7,4.8-8.2C587.2-327.2,587.4-326.7,587.4-326.2z"/>
	<path class="st10" d="M625.9-355.7c-0.2,0-0.4,0.1-0.6,0.2c-1.2,0.7-1.5,2.2-2.5,3.2c-1.1,1.2-2.9,1.3-4.5,1.5s-3.4,0.6-4.2,2
		c-0.6,1-0.6,2.3-0.8,3.5c0,0.2-0.1,0.4-0.2,0.6c-0.2,0.2-0.5,0.3-0.8,0.3c-3.1,0.2-5.4-0.9-8.4-1.6c-1.4-0.4-3-0.3-4,0.6
		c-1,0.9-1.2,2.3-1.2,3.6v0.1c0.1,1.2,0.2,2.5,0.1,3.8c-0.3,2-1.5,3.7-3.3,4.6c-0.7,0.4-1.5,0.6-2.4,0.7c-0.3,0-0.6,0-0.9-0.1
		c0.6-1,1.1-1.9,1.6-2.8c-5.7-8.8-3.2-20.5,5.6-26.1c8.8-5.7,20.5-3.2,26.1,5.6C625.6-356.1,625.8-355.9,625.9-355.7L625.9-355.7z"
		/>
	<path class="st21" d="M631.1-358.1c-0.2,0.5-0.6,1-1,1.3c-1.4,0.9-3.5-0.1-5,0.7c-1.2,0.7-1.5,2.2-2.5,3.2
		c-1.1,1.2-2.9,1.3-4.5,1.5c-1.6,0.2-3.4,0.6-4.2,2c-0.6,1-0.6,2.3-0.8,3.5c0,0.2-0.1,0.4-0.2,0.6c-0.2,0.2-0.5,0.3-0.8,0.3
		c-3.1,0.2-5.4-0.9-8.4-1.6c-1.4-0.4-3-0.3-4,0.6s-1.2,2.3-1.2,3.6c0.1,1.3,0.2,2.6,0.1,3.9c-0.4,2.8-2.8,5-5.6,5.3
		c-0.4,0.1-0.8,0-1.2-0.3c-0.2-0.2-0.3-0.4-0.4-0.7c-2.1-5.9-2.1-12.4-4.6-18.1c-0.4-0.8-0.8-1.7-1.1-2.5c-0.1-0.2-0.1-0.4-0.1-0.5
		c-0.1-0.4-0.1-0.7-0.2-1.1c-0.3,0-0.5,0.1-0.7,0.3c-0.1,0.1-0.1,0.1-0.2,0.2c-0.4,0.6-0.5,1.3-0.5,2c-0.5,7.8,0.3,15.7,2.3,23.3
		c0.6,1.9,1,3.9,1.1,5.9c-0.1,2.1-0.6,4.3-1.5,6.2c-3.9,9.1-11.8,15.7-19.7,21.7c1.6-1.7,2.5-4.1,2.3-6.5c-0.3,0.9-1,1.6-2,1.8
		c-0.9,0.2-1.9,0.1-2.8,0c1.2-0.4,1.7-1.8,2-3c0.6-2.5,1.2-5,1.7-7.6c0.6-2.4,0.9-4.9,1.1-7.4c0.1-2.1-0.1-4.2-0.2-6.4
		c-0.2-5.8,0-11.7,0.6-17.5c0.5-5,1.3-10.4,5-13.9c1.6-1.3,3.4-2.5,5.3-3.3c0-0.6,4.6-1.9,5.2-2c0.3,0,0.5-0.1,0.8-0.1
		c0.7-0.1,1.3,0.2,1.6,0.9c0.2-0.4,0.5-0.8,0.7-1.2c0.4-0.5,0.8-1,1.2-1.5c2.4-2.6,5.5-4.5,8.3-6.7c1-0.9,2.1-1.7,3.3-2.4
		c1.5-0.8,3.2-1.2,4.9-1.3c2.8-0.2,5.7,0.3,8.3,1.3c3.8,1.5,7.1,4.1,11.1,5.2c1,0.2,1.9,0.5,2.9,0.8c3.6,1.4,5.3,5.5,3.9,9.1
		C631.3-358.6,631.2-358.4,631.1-358.1L631.1-358.1z"/>
	<g class="st23">
		<path d="M567.5-302c0.5-1.2,0.7-2.4,0.6-3.7c-0.3,0.9-1,1.6-2,1.8c-0.2,0.1-0.5,0.1-0.7,0.1c-0.3,1-0.8,2-1.8,2.3
			c0.9,0.2,1.9,0.2,2.8,0.1C566.8-301.5,567.2-301.7,567.5-302z"/>
		<path d="M631.5-363.1c0,1-0.3,2-0.8,2.8c-0.2,0.5-0.6,0.9-1.1,1.3c-1.4,0.9-3.5-0.1-5,0.7c-1.2,0.7-1.5,2.2-2.5,3.2
			c-1.1,1.2-2.9,1.3-4.5,1.5s-3.4,0.6-4.2,2c-0.6,1-0.6,2.3-0.8,3.5c0,0.5-0.4,0.9-0.9,0.8c0,0-0.1,0-0.1,0
			c-3.1,0.2-5.4-0.9-8.4-1.6c-1.4-0.4-3-0.3-4,0.6c-1,0.9-1.2,2.3-1.2,3.6c0.1,1.3,0.2,2.6,0.1,3.9c-0.4,2.9-2.8,5-5.6,5.3
			c-0.4,0.1-0.8,0-1.2-0.3c-0.2-0.2-0.3-0.4-0.4-0.7c-2.1-5.9-2.1-12.4-4.6-18.1c-0.4-0.8-0.8-1.7-1.1-2.5c-0.2-0.5-0.3-1.1-0.3-1.6
			c-0.4,0-0.7,0.2-0.9,0.5c-0.4,0.6-0.5,1.3-0.5,2c-0.3,5-0.1,10.1,0.6,15.1c-0.5-4.2-0.6-8.4-0.3-12.6c0-0.7,0.2-1.4,0.5-2
			c0.2-0.3,0.6-0.5,0.9-0.5c0,0.6,0.1,1.1,0.3,1.6c0.3,0.9,0.7,1.7,1.1,2.5c2.5,5.7,2.5,12.2,4.6,18.1c0.1,0.3,0.2,0.5,0.4,0.7
			c0.3,0.3,0.7,0.4,1.2,0.3c2.9-0.3,5.2-2.4,5.6-5.3c0.1-1.3,0-2.6-0.1-3.9c0-1.3,0.2-2.7,1.2-3.6c1.1-1,2.7-1,4-0.6
			c2.9,0.8,5.2,1.8,8.4,1.6c0.3,0,0.5-0.1,0.8-0.3c0.1-0.2,0.2-0.4,0.2-0.6c0.2-1.2,0.2-2.5,0.8-3.5c0.9-1.4,2.6-1.8,4.2-2
			s3.4-0.4,4.5-1.5c0.9-1,1.3-2.5,2.5-3.2c1.5-0.8,3.5,0.2,5-0.7c0.5-0.3,0.8-0.8,1-1.3C631.9-359.5,632-361.4,631.5-363.1z"/>
		<path d="M587-327.1c-0.1,2.1-0.6,4.3-1.5,6.2c-3.5,8.1-10.2,14.3-17.2,19.8c-0.3,1.6-1.1,3.2-2.2,4.4c7.9-6,15.8-12.6,19.7-21.7
			c0.9-1.9,1.4-4.1,1.5-6.2c0-0.9-0.1-1.8-0.3-2.7C587-327.3,587-327.2,587-327.1z"/>
	</g>
	<path class="st10" d="M587.8-363.2c-0.6,2.6-1.3,6-1.9,7.7c-0.1-0.4-0.1-0.7-0.2-1.1c-0.3,0-0.5,0.1-0.7,0.3c0-1.8,0.2-4.5,0.4-6.6
		c0.7-0.1,1.3,0.2,1.6,0.9C587.2-362.4,587.5-362.8,587.8-363.2z"/>
	<path class="st22" d="M587.5-363.2c-0.6,2.6-1.3,6-1.9,7.7c-0.1-0.4-0.1-0.7-0.2-1.1c-0.3,0-0.5,0.1-0.7,0.3c0-1.8,0.2-4.5,0.4-6.6
		c0.7-0.1,1.3,0.2,1.6,0.9C587-362.4,587.2-362.8,587.5-363.2z"/>
	<circle class="st30" cx="313.6" cy="-606.4" r="66.1"/>
	<g>
		<path class="st25" d="M287.9-614l-2.6-8.6h-0.1c0.1,1.7,0.1,2.9,0.1,3.5v5.1h-2.1v-11h3.2l2.6,8.4h0l2.8-8.4h3.2v11h-2.2v-5.2
			c0-0.2,0-0.5,0-0.8c0-0.3,0-1.2,0.1-2.5h-0.1L290-614H287.9z"/>
		<path class="st25" d="M303.5-614l-0.3-1.1H303c-0.2,0.4-0.6,0.7-1,0.9c-0.4,0.2-1,0.3-1.5,0.3c-1,0-1.7-0.3-2.2-0.8
			c-0.5-0.5-0.7-1.3-0.7-2.3v-5.5h2.3v4.9c0,0.6,0.1,1.1,0.3,1.4s0.6,0.5,1,0.5c0.6,0,1.1-0.2,1.4-0.6c0.3-0.4,0.4-1.1,0.4-2.1v-3.9
			h2.3v8.4H303.5z"/>
		<path class="st25" d="M309.9-614h-2.3v-11.7h2.3V-614z"/>
		<path class="st25" d="M315.8-615.6c0.4,0,0.9-0.1,1.4-0.3v1.7c-0.6,0.3-1.3,0.4-2.1,0.4c-0.9,0-1.6-0.2-2-0.7
			c-0.4-0.5-0.6-1.2-0.6-2.1v-4h-1.1v-1l1.3-0.8l0.7-1.8h1.5v1.8h2.3v1.7h-2.3v4c0,0.3,0.1,0.6,0.3,0.7
			C315.3-615.7,315.5-615.6,315.8-615.6z"/>
		<path class="st25" d="M318.9-624.5c0-0.7,0.4-1.1,1.2-1.1c0.8,0,1.2,0.4,1.2,1.1c0,0.4-0.1,0.6-0.3,0.8c-0.2,0.2-0.5,0.3-0.9,0.3
			C319.3-623.4,318.9-623.7,318.9-624.5z M321.3-614H319v-8.4h2.3V-614z"/>
		<path class="st25" d="M328.3-613.8c-1,0-1.8-0.4-2.3-1.1h-0.1c0.1,0.7,0.1,1.1,0.1,1.2v3.4h-2.3v-12.1h1.9l0.3,1.1h0.1
			c0.5-0.8,1.3-1.2,2.4-1.2c1,0,1.8,0.4,2.3,1.1s0.8,1.8,0.8,3.2c0,0.9-0.1,1.7-0.4,2.3c-0.3,0.7-0.6,1.2-1.1,1.5
			C329.5-614,328.9-613.8,328.3-613.8z M327.6-620.7c-0.6,0-1,0.2-1.2,0.5c-0.3,0.3-0.4,0.9-0.4,1.7v0.2c0,0.9,0.1,1.5,0.4,1.9
			c0.3,0.4,0.7,0.6,1.3,0.6c1,0,1.5-0.8,1.5-2.5c0-0.8-0.1-1.4-0.4-1.9C328.5-620.5,328.1-620.7,327.6-620.7z"/>
		<path class="st25" d="M335.7-614h-2.3v-11.7h2.3V-614z"/>
		<path class="st25" d="M341.8-613.8c-1.3,0-2.4-0.4-3.2-1.1c-0.8-0.7-1.1-1.8-1.1-3.2c0-1.4,0.4-2.5,1.1-3.3
			c0.7-0.8,1.7-1.2,2.9-1.2c1.2,0,2.1,0.3,2.8,1c0.7,0.7,1,1.6,1,2.8v1.1h-5.4c0,0.6,0.2,1.2,0.6,1.5c0.4,0.4,0.9,0.5,1.5,0.5
			c0.5,0,1-0.1,1.4-0.2c0.4-0.1,0.9-0.3,1.4-0.5v1.8c-0.4,0.2-0.8,0.3-1.3,0.4C343-613.8,342.5-613.8,341.8-613.8z M341.5-620.9
			c-0.5,0-0.9,0.2-1.1,0.5c-0.3,0.3-0.4,0.7-0.5,1.3h3.2c0-0.6-0.2-1-0.4-1.3C342.4-620.7,342-620.9,341.5-620.9z"/>
		<path class="st25" d="M263.9-595.5l-0.8-2.6h-4l-0.8,2.6h-2.5l3.9-11h2.8l3.9,11H263.9z M262.6-600.1c-0.7-2.4-1.1-3.7-1.2-4
			c-0.1-0.3-0.2-0.6-0.2-0.7c-0.2,0.6-0.6,2.2-1.4,4.7H262.6z"/>
		<path class="st25" d="M270.3-595.4c-1,0-1.8-0.4-2.3-1.1c-0.6-0.8-0.8-1.8-0.8-3.2c0-1.4,0.3-2.4,0.9-3.2c0.6-0.8,1.4-1.2,2.4-1.2
			c1.1,0,1.9,0.4,2.4,1.2h0.1c-0.1-0.6-0.2-1.2-0.2-1.7v-2.7h2.3v11.7h-1.8l-0.4-1.1h-0.1C272.1-595.8,271.3-595.4,270.3-595.4z
			 M271.1-597.2c0.6,0,1-0.2,1.3-0.5c0.3-0.3,0.4-0.9,0.4-1.7v-0.2c0-0.9-0.1-1.5-0.4-1.9c-0.3-0.4-0.7-0.6-1.4-0.6
			c-0.5,0-0.9,0.2-1.2,0.6c-0.3,0.4-0.4,1.1-0.4,1.9c0,0.8,0.1,1.4,0.4,1.9C270.1-597.4,270.6-597.2,271.1-597.2z"/>
		<path class="st25" d="M284.8-595.5h-2.3v-4.9c0-0.6-0.1-1.1-0.3-1.4c-0.2-0.3-0.5-0.5-1-0.5c-0.6,0-1,0.2-1.3,0.6
			s-0.4,1.1-0.4,2.1v3.9h-2.3v-8.4h1.7l0.3,1.1h0.1c0.2-0.4,0.5-0.7,1-0.9c0.4-0.2,0.9-0.3,1.5-0.3c1.3,0,2.1,0.4,2.5,1.2h0.2
			c0.2-0.4,0.6-0.7,1-0.9c0.4-0.2,0.9-0.3,1.5-0.3c0.9,0,1.7,0.2,2.2,0.7c0.5,0.5,0.7,1.3,0.7,2.3v5.5h-2.3v-4.9
			c0-0.6-0.1-1.1-0.3-1.4c-0.2-0.3-0.5-0.5-1-0.5c-0.6,0-1,0.2-1.3,0.6c-0.3,0.4-0.4,1-0.4,1.9V-595.5z"/>
		<path class="st25" d="M292.3-606.1c0-0.7,0.4-1.1,1.2-1.1c0.8,0,1.2,0.4,1.2,1.1c0,0.4-0.1,0.6-0.3,0.8c-0.2,0.2-0.5,0.3-0.9,0.3
			C292.7-605,292.3-605.3,292.3-606.1z M294.7-595.5h-2.3v-8.4h2.3V-595.5z"/>
		<path class="st25" d="M304.8-595.5h-2.3v-4.9c0-0.6-0.1-1.1-0.3-1.4c-0.2-0.3-0.6-0.5-1-0.5c-0.6,0-1.1,0.2-1.4,0.6
			c-0.3,0.4-0.4,1.1-0.4,2.1v3.9h-2.3v-8.4h1.7l0.3,1.1h0.1c0.3-0.4,0.6-0.7,1.1-0.9c0.4-0.2,1-0.3,1.5-0.3c1,0,1.7,0.3,2.2,0.8
			c0.5,0.5,0.8,1.3,0.8,2.3V-595.5z"/>
		<path class="st25" d="M307.1-606.1c0-0.7,0.4-1.1,1.2-1.1c0.8,0,1.2,0.4,1.2,1.1c0,0.4-0.1,0.6-0.3,0.8c-0.2,0.2-0.5,0.3-0.9,0.3
			C307.5-605,307.1-605.3,307.1-606.1z M309.5-595.5h-2.3v-8.4h2.3V-595.5z"/>
		<path class="st25" d="M317.7-598c0,0.9-0.3,1.5-0.9,2c-0.6,0.4-1.5,0.7-2.7,0.7c-0.6,0-1.1,0-1.6-0.1c-0.4-0.1-0.8-0.2-1.2-0.4
			v-1.9c0.4,0.2,0.9,0.4,1.4,0.5c0.5,0.1,1,0.2,1.4,0.2c0.8,0,1.2-0.2,1.2-0.7c0-0.2-0.1-0.3-0.2-0.4c-0.1-0.1-0.3-0.2-0.6-0.4
			c-0.3-0.1-0.6-0.3-1.1-0.5c-0.6-0.3-1.1-0.5-1.4-0.7c-0.3-0.2-0.5-0.5-0.7-0.8c-0.1-0.3-0.2-0.7-0.2-1.1c0-0.7,0.3-1.3,0.9-1.7
			c0.6-0.4,1.4-0.6,2.5-0.6c1,0,2,0.2,2.9,0.7l-0.7,1.6c-0.4-0.2-0.8-0.3-1.2-0.4c-0.4-0.1-0.7-0.2-1.1-0.2c-0.7,0-1,0.2-1,0.5
			c0,0.2,0.1,0.4,0.3,0.5c0.2,0.1,0.7,0.4,1.4,0.7c0.7,0.3,1.1,0.5,1.4,0.7c0.3,0.2,0.5,0.5,0.7,0.8
			C317.6-598.8,317.7-598.4,317.7-598z"/>
		<path class="st25" d="M323-597.2c0.4,0,0.9-0.1,1.4-0.3v1.7c-0.6,0.3-1.3,0.4-2.1,0.4c-0.9,0-1.6-0.2-2-0.7
			c-0.4-0.5-0.6-1.2-0.6-2.1v-4h-1.1v-1l1.3-0.8l0.7-1.8h1.5v1.8h2.3v1.7H322v4c0,0.3,0.1,0.6,0.3,0.7
			C322.5-597.3,322.7-597.2,323-597.2z"/>
		<path class="st25" d="M330.8-604.1c0.3,0,0.6,0,0.8,0.1l-0.2,2.1c-0.2,0-0.4-0.1-0.7-0.1c-0.7,0-1.3,0.2-1.7,0.6
			c-0.4,0.4-0.6,0.9-0.6,1.6v4.3h-2.3v-8.4h1.7l0.3,1.4h0.1c0.3-0.5,0.6-0.8,1.1-1.1C329.8-603.9,330.3-604.1,330.8-604.1z"/>
		<path class="st25" d="M338.4-595.5l-0.4-1.1h-0.1c-0.4,0.5-0.8,0.8-1.2,1c-0.4,0.2-0.9,0.3-1.6,0.3c-0.8,0-1.4-0.2-1.9-0.7
			c-0.5-0.5-0.7-1.1-0.7-2c0-0.9,0.3-1.5,0.9-2c0.6-0.4,1.6-0.7,2.8-0.7l1.5,0v-0.4c0-0.8-0.4-1.3-1.3-1.3c-0.7,0-1.5,0.2-2.4,0.6
			l-0.8-1.5c1-0.5,2-0.8,3.2-0.8c1.1,0,2,0.2,2.6,0.7c0.6,0.5,0.9,1.2,0.9,2.2v5.6H338.4z M337.8-599.4l-0.9,0
			c-0.7,0-1.2,0.1-1.5,0.4c-0.3,0.2-0.5,0.6-0.5,1c0,0.6,0.4,1,1.1,1c0.5,0,1-0.2,1.3-0.5c0.3-0.3,0.5-0.7,0.5-1.2V-599.4z"/>
		<path class="st25" d="M345.9-597.2c0.4,0,0.9-0.1,1.4-0.3v1.7c-0.6,0.3-1.3,0.4-2.1,0.4c-0.9,0-1.6-0.2-2-0.7
			c-0.4-0.5-0.6-1.2-0.6-2.1v-4h-1.1v-1l1.3-0.8l0.7-1.8h1.5v1.8h2.3v1.7h-2.3v4c0,0.3,0.1,0.6,0.3,0.7
			C345.4-597.3,345.6-597.2,345.9-597.2z"/>
		<path class="st25" d="M356.7-599.7c0,1.4-0.4,2.4-1.1,3.2c-0.7,0.8-1.7,1.2-3,1.2c-0.8,0-1.5-0.2-2.1-0.5
			c-0.6-0.4-1.1-0.9-1.4-1.5c-0.3-0.7-0.5-1.4-0.5-2.3c0-1.4,0.4-2.4,1.1-3.2c0.7-0.8,1.7-1.1,3-1.1c0.8,0,1.5,0.2,2.1,0.5
			c0.6,0.3,1.1,0.9,1.4,1.5S356.7-600.6,356.7-599.7z M350.9-599.7c0,0.8,0.1,1.5,0.4,1.9c0.3,0.4,0.7,0.6,1.3,0.6
			c0.6,0,1-0.2,1.3-0.6c0.3-0.4,0.4-1.1,0.4-1.9c0-0.8-0.1-1.5-0.4-1.9c-0.3-0.4-0.7-0.6-1.3-0.6c-0.6,0-1,0.2-1.3,0.6
			C351-601.2,350.9-600.6,350.9-599.7z"/>
		<path class="st25" d="M363.2-604.1c0.3,0,0.6,0,0.8,0.1l-0.2,2.1c-0.2,0-0.4-0.1-0.7-0.1c-0.7,0-1.3,0.2-1.7,0.6
			c-0.4,0.4-0.6,0.9-0.6,1.6v4.3h-2.3v-8.4h1.7l0.3,1.4h0.1c0.3-0.5,0.6-0.8,1.1-1.1C362.2-603.9,362.7-604.1,363.2-604.1z"/>
		<path class="st25" d="M371.4-598c0,0.9-0.3,1.5-0.9,2c-0.6,0.4-1.5,0.7-2.7,0.7c-0.6,0-1.1,0-1.6-0.1c-0.4-0.1-0.8-0.2-1.2-0.4
			v-1.9c0.4,0.2,0.9,0.4,1.4,0.5c0.5,0.1,1,0.2,1.4,0.2c0.8,0,1.2-0.2,1.2-0.7c0-0.2-0.1-0.3-0.2-0.4c-0.1-0.1-0.3-0.2-0.6-0.4
			c-0.3-0.1-0.6-0.3-1.1-0.5c-0.6-0.3-1.1-0.5-1.4-0.7c-0.3-0.2-0.5-0.5-0.7-0.8c-0.1-0.3-0.2-0.7-0.2-1.1c0-0.7,0.3-1.3,0.9-1.7
			c0.6-0.4,1.4-0.6,2.5-0.6c1,0,2,0.2,2.9,0.7l-0.7,1.6c-0.4-0.2-0.8-0.3-1.2-0.4c-0.4-0.1-0.7-0.2-1.1-0.2c-0.7,0-1,0.2-1,0.5
			c0,0.2,0.1,0.4,0.3,0.5c0.2,0.1,0.7,0.4,1.4,0.7c0.7,0.3,1.1,0.5,1.4,0.7c0.3,0.2,0.5,0.5,0.7,0.8S371.4-598.4,371.4-598z"/>
	</g>
	<circle class="st2" cx="804.7" cy="-513.4" r="66.1"/>
	<g>
		<path class="st25" d="M783.6-533.6h3.4c1.6,0,2.7,0.2,3.4,0.7c0.7,0.4,1.1,1.1,1.1,2.1c0,0.7-0.2,1.2-0.5,1.6
			c-0.3,0.4-0.7,0.7-1.2,0.8v0.1c0.7,0.2,1.2,0.4,1.5,0.9c0.3,0.4,0.5,1,0.5,1.7c0,1-0.4,1.8-1.1,2.3c-0.7,0.6-1.7,0.8-2.9,0.8h-4.1
			V-533.6z M785.9-529.3h1.3c0.6,0,1.1-0.1,1.4-0.3c0.3-0.2,0.4-0.5,0.4-1c0-0.4-0.2-0.7-0.5-0.9c-0.3-0.2-0.8-0.3-1.5-0.3h-1.2
			V-529.3z M785.9-527.5v2.9h1.5c0.6,0,1.1-0.1,1.4-0.4c0.3-0.2,0.5-0.6,0.5-1.1c0-0.9-0.6-1.4-1.9-1.4H785.9z"/>
		<path class="st25" d="M799-522.7l-0.4-1.1h-0.1c-0.4,0.5-0.8,0.8-1.2,1c-0.4,0.2-0.9,0.3-1.6,0.3c-0.8,0-1.4-0.2-1.9-0.7
			c-0.5-0.5-0.7-1.1-0.7-2c0-0.9,0.3-1.5,0.9-2c0.6-0.4,1.6-0.7,2.8-0.7l1.5,0v-0.4c0-0.8-0.4-1.3-1.3-1.3c-0.7,0-1.5,0.2-2.4,0.6
			l-0.8-1.5c1-0.5,2-0.8,3.2-0.8c1.1,0,2,0.2,2.6,0.7s0.9,1.2,0.9,2.2v5.6H799z M798.3-526.6l-0.9,0c-0.7,0-1.2,0.1-1.5,0.4
			c-0.3,0.2-0.5,0.6-0.5,1c0,0.6,0.4,1,1.1,1c0.5,0,1-0.2,1.3-0.5c0.3-0.3,0.5-0.7,0.5-1.2V-526.6z"/>
		<path class="st25" d="M806.5-524.4c0.4,0,0.9-0.1,1.4-0.3v1.7c-0.6,0.3-1.3,0.4-2.1,0.4c-0.9,0-1.6-0.2-2-0.7
			c-0.4-0.5-0.6-1.2-0.6-2.1v-4h-1.1v-1l1.3-0.8l0.7-1.8h1.5v1.8h2.3v1.7h-2.3v4c0,0.3,0.1,0.6,0.3,0.7
			C805.9-524.4,806.2-524.4,806.5-524.4z"/>
		<path class="st25" d="M813-522.5c-2.6,0-3.9-1.4-3.9-4.3c0-1.4,0.4-2.5,1.1-3.3c0.7-0.8,1.7-1.1,3.1-1.1c1,0,1.8,0.2,2.6,0.6
			l-0.7,1.8c-0.4-0.1-0.7-0.3-1-0.4c-0.3-0.1-0.6-0.1-0.9-0.1c-1.2,0-1.8,0.8-1.8,2.5c0,1.6,0.6,2.5,1.8,2.5c0.4,0,0.8-0.1,1.2-0.2
			c0.4-0.1,0.7-0.3,1.1-0.6v2c-0.4,0.2-0.7,0.4-1.1,0.5C814.1-522.6,813.6-522.5,813-522.5z"/>
		<path class="st25" d="M825.2-522.7H823v-4.9c0-1.2-0.4-1.8-1.3-1.8c-0.6,0-1.1,0.2-1.4,0.7c-0.3,0.4-0.4,1.1-0.4,2.1v3.9h-2.3
			v-11.7h2.3v2.4c0,0.2,0,0.6-0.1,1.3l-0.1,0.7h0.1c0.5-0.8,1.3-1.2,2.4-1.2c1,0,1.7,0.3,2.2,0.8c0.5,0.5,0.8,1.3,0.8,2.3V-522.7z"
			/>
		<path class="st25" d="M759.4-504.3l-2.6-8.6h-0.1c0.1,1.7,0.1,2.9,0.1,3.5v5.1h-2.1v-11h3.2l2.6,8.4h0l2.8-8.4h3.2v11h-2.2v-5.2
			c0-0.2,0-0.5,0-0.8c0-0.3,0-1.2,0.1-2.5h-0.1l-2.8,8.6H759.4z"/>
		<path class="st25" d="M774.4-504.3l-0.4-1.1h-0.1c-0.4,0.5-0.8,0.8-1.2,1c-0.4,0.2-0.9,0.3-1.6,0.3c-0.8,0-1.4-0.2-1.9-0.7
			c-0.5-0.5-0.7-1.1-0.7-2c0-0.9,0.3-1.5,0.9-2c0.6-0.4,1.6-0.7,2.8-0.7l1.5,0v-0.4c0-0.8-0.4-1.3-1.3-1.3c-0.7,0-1.5,0.2-2.4,0.6
			l-0.8-1.5c1-0.5,2-0.8,3.2-0.8c1.1,0,2,0.2,2.6,0.7c0.6,0.5,0.9,1.2,0.9,2.2v5.6H774.4z M773.7-508.1l-0.9,0
			c-0.7,0-1.2,0.1-1.5,0.4c-0.3,0.2-0.5,0.6-0.5,1c0,0.6,0.4,1,1.1,1c0.5,0,1-0.2,1.3-0.5c0.3-0.3,0.5-0.7,0.5-1.2V-508.1z"/>
		<path class="st25" d="M786.1-504.3h-2.3v-4.9c0-0.6-0.1-1.1-0.3-1.4c-0.2-0.3-0.6-0.5-1-0.5c-0.6,0-1.1,0.2-1.4,0.6
			c-0.3,0.4-0.4,1.1-0.4,2.1v3.9h-2.3v-8.4h1.7l0.3,1.1h0.1c0.3-0.4,0.6-0.7,1.1-0.9c0.4-0.2,1-0.3,1.5-0.3c1,0,1.7,0.3,2.2,0.8
			c0.5,0.5,0.8,1.3,0.8,2.3V-504.3z"/>
		<path class="st25" d="M793.8-504.3l-0.4-1.1h-0.1c-0.4,0.5-0.8,0.8-1.2,1c-0.4,0.2-0.9,0.3-1.6,0.3c-0.8,0-1.4-0.2-1.9-0.7
			c-0.5-0.5-0.7-1.1-0.7-2c0-0.9,0.3-1.5,0.9-2c0.6-0.4,1.6-0.7,2.8-0.7l1.5,0v-0.4c0-0.8-0.4-1.3-1.3-1.3c-0.7,0-1.5,0.2-2.4,0.6
			l-0.8-1.5c1-0.5,2-0.8,3.2-0.8c1.1,0,2,0.2,2.6,0.7c0.6,0.5,0.9,1.2,0.9,2.2v5.6H793.8z M793.1-508.1l-0.9,0
			c-0.7,0-1.2,0.1-1.5,0.4c-0.3,0.2-0.5,0.6-0.5,1c0,0.6,0.4,1,1.1,1c0.5,0,1-0.2,1.3-0.5c0.3-0.3,0.5-0.7,0.5-1.2V-508.1z"/>
		<path class="st25" d="M805-512.6v1.2l-1.3,0.3c0.2,0.4,0.4,0.8,0.4,1.3c0,0.9-0.3,1.6-0.9,2.1c-0.6,0.5-1.5,0.8-2.6,0.8l-0.4,0
			l-0.3,0c-0.2,0.2-0.4,0.4-0.4,0.6c0,0.3,0.4,0.5,1.3,0.5h1.4c0.9,0,1.6,0.2,2.1,0.6c0.5,0.4,0.7,1,0.7,1.7c0,1-0.4,1.7-1.2,2.3
			c-0.8,0.5-2,0.8-3.5,0.8c-1.2,0-2.1-0.2-2.7-0.6c-0.6-0.4-0.9-1-0.9-1.7c0-0.5,0.2-0.9,0.5-1.3c0.3-0.3,0.8-0.6,1.4-0.7
			c-0.2-0.1-0.4-0.3-0.6-0.5s-0.3-0.5-0.3-0.7c0-0.3,0.1-0.6,0.3-0.8c0.2-0.2,0.5-0.4,0.8-0.6c-0.4-0.2-0.8-0.5-1-0.9
			c-0.3-0.4-0.4-0.9-0.4-1.5c0-0.9,0.3-1.6,0.9-2.1c0.6-0.5,1.4-0.7,2.5-0.7c0.2,0,0.5,0,0.8,0.1c0.3,0,0.5,0.1,0.6,0.1H805z
			 M798.5-503.1c0,0.3,0.2,0.6,0.5,0.7c0.3,0.2,0.7,0.3,1.3,0.3c0.8,0,1.5-0.1,1.9-0.3c0.5-0.2,0.7-0.5,0.7-0.9
			c0-0.3-0.1-0.5-0.4-0.7c-0.3-0.1-0.7-0.2-1.3-0.2H800c-0.4,0-0.8,0.1-1.1,0.3C798.7-503.7,798.5-503.4,798.5-503.1z M799.4-509.9
			c0,0.5,0.1,0.8,0.3,1.1c0.2,0.3,0.5,0.4,0.9,0.4c0.4,0,0.7-0.1,0.9-0.4s0.3-0.6,0.3-1.1c0-1-0.4-1.5-1.2-1.5
			C799.8-511.4,799.4-510.9,799.4-509.9z"/>
		<path class="st25" d="M810.2-504.1c-1.3,0-2.4-0.4-3.2-1.1c-0.8-0.7-1.1-1.8-1.1-3.2c0-1.4,0.4-2.5,1.1-3.3
			c0.7-0.8,1.7-1.2,2.9-1.2c1.2,0,2.1,0.3,2.8,1c0.7,0.7,1,1.6,1,2.8v1.1h-5.4c0,0.6,0.2,1.2,0.6,1.5c0.4,0.4,0.9,0.5,1.5,0.5
			c0.5,0,1-0.1,1.4-0.2c0.4-0.1,0.9-0.3,1.4-0.5v1.8c-0.4,0.2-0.8,0.3-1.3,0.4C811.4-504.2,810.8-504.1,810.2-504.1z M809.9-511.2
			c-0.5,0-0.9,0.2-1.1,0.5c-0.3,0.3-0.4,0.7-0.5,1.3h3.2c0-0.6-0.2-1-0.4-1.3C810.7-511,810.3-511.2,809.9-511.2z"/>
		<path class="st25" d="M823-504.3h-2.3v-4.9c0-0.6-0.1-1.1-0.3-1.4c-0.2-0.3-0.5-0.5-1-0.5c-0.6,0-1,0.2-1.3,0.6
			c-0.3,0.4-0.4,1.1-0.4,2.1v3.9h-2.3v-8.4h1.7l0.3,1.1h0.1c0.2-0.4,0.5-0.7,1-0.9c0.4-0.2,0.9-0.3,1.5-0.3c1.3,0,2.1,0.4,2.5,1.2
			h0.2c0.2-0.4,0.6-0.7,1-0.9c0.4-0.2,0.9-0.3,1.5-0.3c0.9,0,1.7,0.2,2.2,0.7c0.5,0.5,0.7,1.3,0.7,2.3v5.5h-2.3v-4.9
			c0-0.6-0.1-1.1-0.3-1.4c-0.2-0.3-0.5-0.5-1-0.5c-0.6,0-1,0.2-1.3,0.6c-0.3,0.4-0.4,1-0.4,1.9V-504.3z"/>
		<path class="st25" d="M834.3-504.1c-1.3,0-2.4-0.4-3.2-1.1c-0.8-0.7-1.1-1.8-1.1-3.2c0-1.4,0.4-2.5,1.1-3.3
			c0.7-0.8,1.7-1.2,2.9-1.2c1.2,0,2.1,0.3,2.8,1s1,1.6,1,2.8v1.1h-5.4c0,0.6,0.2,1.2,0.6,1.5c0.4,0.4,0.9,0.5,1.5,0.5
			c0.5,0,1-0.1,1.4-0.2c0.4-0.1,0.9-0.3,1.4-0.5v1.8c-0.4,0.2-0.8,0.3-1.3,0.4C835.5-504.2,835-504.1,834.3-504.1z M834-511.2
			c-0.5,0-0.9,0.2-1.1,0.5c-0.3,0.3-0.4,0.7-0.5,1.3h3.2c0-0.6-0.2-1-0.4-1.3C834.9-511,834.5-511.2,834-511.2z"/>
		<path class="st25" d="M847.3-504.3H845v-4.9c0-0.6-0.1-1.1-0.3-1.4c-0.2-0.3-0.6-0.5-1-0.5c-0.6,0-1.1,0.2-1.4,0.6
			c-0.3,0.4-0.4,1.1-0.4,2.1v3.9h-2.3v-8.4h1.7l0.3,1.1h0.1c0.3-0.4,0.6-0.7,1.1-0.9c0.4-0.2,1-0.3,1.5-0.3c1,0,1.7,0.3,2.2,0.8
			c0.5,0.5,0.8,1.3,0.8,2.3V-504.3z"/>
		<path class="st25" d="M853.2-505.9c0.4,0,0.9-0.1,1.4-0.3v1.7c-0.6,0.3-1.3,0.4-2.1,0.4c-0.9,0-1.6-0.2-2-0.7
			c-0.4-0.5-0.6-1.2-0.6-2.1v-4h-1.1v-1l1.3-0.8l0.7-1.8h1.5v1.8h2.3v1.7h-2.3v4c0,0.3,0.1,0.6,0.3,0.7
			C852.7-506,852.9-505.9,853.2-505.9z"/>
	</g>
	<circle class="st7" cx="579.2" cy="-598.2" r="66.1"/>
	<g>
		<path class="st25" d="M543.8-601.7v-11h2.3v9h4.4v1.9H543.8z"/>
		<path class="st25" d="M552.2-612.2c0-0.7,0.4-1.1,1.2-1.1c0.8,0,1.2,0.4,1.2,1.1c0,0.4-0.1,0.6-0.3,0.8c-0.2,0.2-0.5,0.3-0.9,0.3
			C552.6-611.1,552.2-611.5,552.2-612.2z M554.6-601.7h-2.3v-8.4h2.3V-601.7z"/>
		<path class="st25" d="M564.3-610.1v1.2l-1.3,0.3c0.2,0.4,0.4,0.8,0.4,1.3c0,0.9-0.3,1.6-0.9,2.1c-0.6,0.5-1.5,0.8-2.6,0.8l-0.4,0
			l-0.3,0c-0.2,0.2-0.4,0.4-0.4,0.6c0,0.3,0.4,0.5,1.3,0.5h1.4c0.9,0,1.6,0.2,2.1,0.6c0.5,0.4,0.7,1,0.7,1.7c0,1-0.4,1.7-1.2,2.3
			c-0.8,0.5-2,0.8-3.5,0.8c-1.2,0-2.1-0.2-2.7-0.6c-0.6-0.4-0.9-1-0.9-1.7c0-0.5,0.2-0.9,0.5-1.3c0.3-0.3,0.8-0.6,1.4-0.7
			c-0.2-0.1-0.4-0.3-0.6-0.5c-0.2-0.2-0.3-0.5-0.3-0.7c0-0.3,0.1-0.6,0.3-0.8c0.2-0.2,0.5-0.4,0.8-0.6c-0.4-0.2-0.8-0.5-1-0.9
			c-0.3-0.4-0.4-0.9-0.4-1.5c0-0.9,0.3-1.6,0.9-2.1c0.6-0.5,1.4-0.7,2.5-0.7c0.2,0,0.5,0,0.8,0.1c0.3,0,0.5,0.1,0.6,0.1H564.3z
			 M557.8-600.5c0,0.3,0.2,0.6,0.5,0.7c0.3,0.2,0.7,0.3,1.3,0.3c0.8,0,1.5-0.1,1.9-0.3c0.5-0.2,0.7-0.5,0.7-0.9
			c0-0.3-0.1-0.5-0.4-0.7c-0.3-0.1-0.7-0.2-1.3-0.2h-1.2c-0.4,0-0.8,0.1-1.1,0.3C558-601.1,557.8-600.8,557.8-600.5z M558.7-607.3
			c0,0.5,0.1,0.8,0.3,1.1c0.2,0.3,0.5,0.4,0.9,0.4c0.4,0,0.7-0.1,0.9-0.4s0.3-0.6,0.3-1.1c0-1-0.4-1.5-1.2-1.5
			C559.1-608.8,558.7-608.3,558.7-607.3z"/>
		<path class="st25" d="M573.4-601.7h-2.3v-4.9c0-1.2-0.4-1.8-1.3-1.8c-0.6,0-1.1,0.2-1.4,0.7s-0.4,1.1-0.4,2.1v3.9h-2.3v-11.7h2.3
			v2.4c0,0.2,0,0.6-0.1,1.3l-0.1,0.7h0.1c0.5-0.8,1.3-1.2,2.4-1.2c1,0,1.7,0.3,2.2,0.8c0.5,0.5,0.8,1.3,0.8,2.3V-601.7z"/>
		<path class="st25" d="M579.3-603.4c0.4,0,0.9-0.1,1.4-0.3v1.7c-0.6,0.3-1.3,0.4-2.1,0.4c-0.9,0-1.6-0.2-2-0.7
			c-0.4-0.5-0.6-1.2-0.6-2.1v-4h-1.1v-1l1.3-0.8l0.7-1.8h1.5v1.8h2.3v1.7h-2.3v4c0,0.3,0.1,0.6,0.3,0.7
			C578.8-603.4,579-603.4,579.3-603.4z"/>
		<path class="st25" d="M590.2-601.7h-2.3v-4.9c0-0.6-0.1-1.1-0.3-1.4c-0.2-0.3-0.6-0.5-1-0.5c-0.6,0-1.1,0.2-1.4,0.6
			c-0.3,0.4-0.4,1.1-0.4,2.1v3.9h-2.3v-8.4h1.7l0.3,1.1h0.1c0.3-0.4,0.6-0.7,1.1-0.9c0.4-0.2,1-0.3,1.5-0.3c1,0,1.7,0.3,2.2,0.8
			c0.5,0.5,0.8,1.3,0.8,2.3V-601.7z"/>
		<path class="st25" d="M592.4-612.2c0-0.7,0.4-1.1,1.2-1.1c0.8,0,1.2,0.4,1.2,1.1c0,0.4-0.1,0.6-0.3,0.8c-0.2,0.2-0.5,0.3-0.9,0.3
			C592.8-611.1,592.4-611.5,592.4-612.2z M594.8-601.7h-2.3v-8.4h2.3V-601.7z"/>
		<path class="st25" d="M604.9-601.7h-2.3v-4.9c0-0.6-0.1-1.1-0.3-1.4c-0.2-0.3-0.6-0.5-1-0.5c-0.6,0-1.1,0.2-1.4,0.6
			c-0.3,0.4-0.4,1.1-0.4,2.1v3.9h-2.3v-8.4h1.7l0.3,1.1h0.1c0.3-0.4,0.6-0.7,1.1-0.9c0.4-0.2,1-0.3,1.5-0.3c1,0,1.7,0.3,2.2,0.8
			c0.5,0.5,0.8,1.3,0.8,2.3V-601.7z"/>
		<path class="st25" d="M614.6-610.1v1.2l-1.3,0.3c0.2,0.4,0.4,0.8,0.4,1.3c0,0.9-0.3,1.6-0.9,2.1c-0.6,0.5-1.5,0.8-2.6,0.8l-0.4,0
			l-0.3,0c-0.2,0.2-0.4,0.4-0.4,0.6c0,0.3,0.4,0.5,1.3,0.5h1.4c0.9,0,1.6,0.2,2.1,0.6c0.5,0.4,0.7,1,0.7,1.7c0,1-0.4,1.7-1.2,2.3
			c-0.8,0.5-2,0.8-3.5,0.8c-1.2,0-2.1-0.2-2.7-0.6c-0.6-0.4-0.9-1-0.9-1.7c0-0.5,0.2-0.9,0.5-1.3c0.3-0.3,0.8-0.6,1.4-0.7
			c-0.2-0.1-0.4-0.3-0.6-0.5c-0.2-0.2-0.3-0.5-0.3-0.7c0-0.3,0.1-0.6,0.3-0.8c0.2-0.2,0.5-0.4,0.8-0.6c-0.4-0.2-0.8-0.5-1-0.9
			c-0.3-0.4-0.4-0.9-0.4-1.5c0-0.9,0.3-1.6,0.9-2.1c0.6-0.5,1.4-0.7,2.5-0.7c0.2,0,0.5,0,0.8,0.1c0.3,0,0.5,0.1,0.6,0.1H614.6z
			 M608.1-600.5c0,0.3,0.2,0.6,0.5,0.7c0.3,0.2,0.7,0.3,1.3,0.3c0.8,0,1.5-0.1,1.9-0.3c0.5-0.2,0.7-0.5,0.7-0.9
			c0-0.3-0.1-0.5-0.4-0.7c-0.3-0.1-0.7-0.2-1.3-0.2h-1.2c-0.4,0-0.8,0.1-1.1,0.3C608.3-601.1,608.1-600.8,608.1-600.5z M608.9-607.3
			c0,0.5,0.1,0.8,0.3,1.1c0.2,0.3,0.5,0.4,0.9,0.4c0.4,0,0.7-0.1,0.9-0.4c0.2-0.3,0.3-0.6,0.3-1.1c0-1-0.4-1.5-1.2-1.5
			C609.4-608.8,608.9-608.3,608.9-607.3z"/>
		<path class="st25" d="M566.3-583.3H564v-11h6.3v1.9h-4v2.8h3.7v1.9h-3.7V-583.3z"/>
		<path class="st25" d="M577.6-583.3l-0.4-1.1h-0.1c-0.4,0.5-0.8,0.8-1.2,1c-0.4,0.2-0.9,0.3-1.6,0.3c-0.8,0-1.4-0.2-1.9-0.7
			c-0.5-0.5-0.7-1.1-0.7-2c0-0.9,0.3-1.5,0.9-2c0.6-0.4,1.6-0.7,2.8-0.7l1.5,0v-0.4c0-0.8-0.4-1.3-1.3-1.3c-0.7,0-1.5,0.2-2.4,0.6
			l-0.8-1.5c1-0.5,2-0.8,3.2-0.8c1.1,0,2,0.2,2.6,0.7c0.6,0.5,0.9,1.2,0.9,2.2v5.6H577.6z M576.9-587.2l-0.9,0
			c-0.7,0-1.2,0.1-1.5,0.4c-0.3,0.2-0.5,0.6-0.5,1c0,0.6,0.4,1,1.1,1c0.5,0,1-0.2,1.3-0.5c0.3-0.3,0.5-0.7,0.5-1.2V-587.2z"/>
		<path class="st25" d="M587.4-585.8c0,0.9-0.3,1.5-0.9,2c-0.6,0.4-1.5,0.7-2.7,0.7c-0.6,0-1.1,0-1.6-0.1c-0.4-0.1-0.8-0.2-1.2-0.4
			v-1.9c0.4,0.2,0.9,0.4,1.4,0.5c0.5,0.1,1,0.2,1.4,0.2c0.8,0,1.2-0.2,1.2-0.7c0-0.2-0.1-0.3-0.2-0.4c-0.1-0.1-0.3-0.2-0.6-0.4
			c-0.3-0.1-0.6-0.3-1.1-0.5c-0.6-0.3-1.1-0.5-1.4-0.7c-0.3-0.2-0.5-0.5-0.7-0.8c-0.1-0.3-0.2-0.7-0.2-1.1c0-0.7,0.3-1.3,0.9-1.7
			c0.6-0.4,1.4-0.6,2.5-0.6c1,0,2,0.2,2.9,0.7l-0.7,1.6c-0.4-0.2-0.8-0.3-1.2-0.4c-0.4-0.1-0.7-0.2-1.1-0.2c-0.7,0-1,0.2-1,0.5
			c0,0.2,0.1,0.4,0.3,0.5c0.2,0.1,0.7,0.4,1.4,0.7c0.7,0.3,1.1,0.5,1.4,0.7c0.3,0.2,0.5,0.5,0.7,0.8
			C587.3-586.5,587.4-586.2,587.4-585.8z"/>
		<path class="st25" d="M592.7-584.9c0.4,0,0.9-0.1,1.4-0.3v1.7c-0.6,0.3-1.3,0.4-2.1,0.4c-0.9,0-1.6-0.2-2-0.7
			c-0.4-0.5-0.6-1.2-0.6-2.1v-4h-1.1v-1l1.3-0.8l0.7-1.8h1.5v1.8h2.3v1.7h-2.3v4c0,0.3,0.1,0.6,0.3,0.7
			C592.1-585,592.4-584.9,592.7-584.9z"/>
	</g>
</g>
<g>
	<polygon class="st0" points="-307.8,223 -317.3,266 -325.1,300.8 -331.3,328.7 -339,363.5 -364.4,477.4 -678.3,332.4 -701.4,321.7 
		-730.6,308.2 -753.7,297.6 -781.4,284.7 -765.7,261.8 -752.6,242.8 -736,218.7 -722.9,199.7 -575.7,-14.6 -419.7,123.7 
		-391.9,148.4 -369.8,168 -342,192.6 	"/>
	<path class="st6" d="M-764.1,349.4c-21-11.7-34.1-27.7-38.8-47.5c-3.6-14.7-2.5-31.3,3-49.2c4.1-13.2,10.3-25.7,18.3-37
		c42.5-60.2,46.3-99.4,42.1-121.7c-4.7-24.4-19.9-34.6-20-34.7l0.7-1c0.2,0.1,15.8,10.5,20.5,35.4c2.8,14.4,1.5,30.8-3.9,48.7
		c-6.6,22.4-19.5,47.2-38.4,73.9c-7.9,11.2-14.1,23.6-18.2,36.7c-9.1,29.4-10.4,69.8,35.2,95.3L-764.1,349.4z"/>
	<path class="st6" d="M-754,349.4c21-11.7,34.1-27.7,38.8-47.5c3.6-14.7,2.5-31.3-3-49.2c-4.1-13.2-10.3-25.7-18.3-37
		c-42.5-60.2-46.3-99.4-42.1-121.7c4.7-24.4,19.9-34.6,20-34.7l-0.7-1c-0.2,0.1-15.8,10.5-20.5,35.4c-2.8,14.4-1.5,30.8,3.9,48.7
		c6.6,22.4,19.5,47.2,38.4,73.9c7.9,11.2,14.1,23.6,18.2,36.7c9.1,29.4,10.4,69.8-35.2,95.3L-754,349.4z"/>
	<path class="st6" d="M-296.5,298.9c-21-11.7-34.1-27.7-38.8-47.5c-3.6-14.7-2.5-31.3,3-49.2c4.1-13.2,10.3-25.7,18.3-37
		c42.5-60.2,46.3-99.4,42.1-121.7c-4.7-24.4-19.9-34.6-20-34.7l0.7-1c0.2,0.1,15.8,10.5,20.5,35.4c2.8,14.4,1.5,30.8-3.9,48.7
		c-6.6,22.4-19.5,47.2-38.4,73.9c-7.9,11.2-14.1,23.6-18.2,36.7c-9.1,29.4-10.4,69.8,35.2,95.3L-296.5,298.9z"/>
	<path class="st6" d="M-286.4,298.9c21-11.7,34.1-27.7,38.8-47.5c3.6-14.7,2.5-31.3-3-49.2c-4.1-13.2-10.3-25.7-18.3-37
		C-311.4,105-315.2,65.8-311,43.5c4.7-24.4,19.9-34.6,20-34.7l-0.7-1c-0.2,0.1-15.8,10.5-20.5,35.4c-2.8,14.4-1.5,30.8,3.9,48.7
		c6.6,22.4,19.5,47.2,38.4,73.9c7.9,11.2,14.1,23.6,18.2,36.7c9.1,29.4,10.4,69.8-35.2,95.3L-286.4,298.9z"/>
	<path class="st6" d="M-605.5,166c-15.8-26.6-47-27.9-47-27.9s-30.4-3.9-49.9,36.7c-18.2,37.8-43.3,74.4-4,83.2l7.1-22.1l4.4,23.7
		c5.6,0.4,11.2,0.5,16.8,0.3c42-1.4,82,0.4,80.7-14.7C-599.2,225.2-590.3,191.6-605.5,166z"/>
	<path class="st31" d="M-670.3,221.7c5.4,12,8.9,26.4,10.9,42.3l43.6-2.7c-10-14.2-13.4-30.5-9.5-49.1L-670.3,221.7z"/>
	<path class="st32" d="M-670.3,221.7c5.4,12,8.9,26.4,10.9,42.3l43.6-2.7c-10-14.2-13.4-30.5-9.5-49.1L-670.3,221.7z"/>
	<path class="st31" d="M-872.7,450.6c0,0-22.6,12.1-11.1,22.4c11.5,10.3,26.6-13.7,26.6-13.7L-872.7,450.6z"/>
	<polygon class="st6" points="-596.6,415.4 -597,431.9 -597.7,467.6 -597.7,467.6 -598,477.9 -742.4,477.9 -736.5,445.3 
		-736.5,445.3 -731.2,416.1 -728.9,403.1 -728.9,403.1 -610.3,386.7 	"/>
	<path class="st1" d="M-596.6,415.4l-0.4,16.5c-42-1.1-107-11.2-134.2-15.7l2.3-13.1l118.6-16.4L-596.6,415.4z"/>
	<circle class="st31" cx="-649.1" cy="199.2" r="34.1"/>
	<path class="st2" d="M-583.7,433.8c0,0,4.1,36.8-20.5,34.1l-4.1-36.8l-21.8-21.8l-61.4-1.4l-45,42.3c0,0-1.4-43.6,4.1-47.7
		s17.7-13.6,17.7-13.6v-6.8l-36.8-75c0,0,21.8-45,39.5-46.4l23.2-1.4c0,0,8.2-4.1,8.2-5.5s-1.4-12.3,5.5-9.5c0,0,0.6-14,7.8-9.7
		c0,0,22.6,17.7,45.6,0.8c0,0,10.7-2,9.3,3.5c-1.4,5.5,0,9.5,2.7,9.5s15,4.1,15,6.8c0,0.6,0.9,6.2,2.3,14.7v0
		c5.1,31,16.8,99.8,16.8,99.8S-563.2,387.4-583.7,433.8z"/>
	<path class="st2" d="M-741.8,300.1l-9.5,6.8l-87.3,111.8l-46.4,36.8c0,0,25.9-4.1,20.5,17.7l159.5-91.4L-741.8,300.1z"/>
	<path class="st1" d="M-592.3,269.9L-592.3,269.9c-1.8,10.7-60.9,8.5-69.1,8.5c-8.2,0-15-1.4-23.2-6.8c-8.2-5.5-4.1-12.3-4.1-12.3
		s7-5.3,7-6.7s-1.4-12.3,5.5-9.5c0,0,0.6-14,7.8-9.7c0,0,23.8,18.9,46.8,2c0,0,10.7-2,9.3,3.5c-1.4,5.5,0,9.5,2.7,9.5s15,4.1,15,6.8
		C-594.6,255.7-593.7,261.4-592.3,269.9z"/>
	<path class="st31" d="M-599.4,219c0,0-10.9-23.2-21.8-12.3s12.3,27.3,12.3,27.3L-599.4,219z"/>
	<path class="st2" d="M-599.4,213.6c0,0-16.8,21.3-22.1,22.9c0,0,15.2,60.3,34.3,76.6l10.9,55.9c0,0,46.4-19.1,35.5-50.4
		c-0.1-0.3-0.2-0.6-0.3-0.9c-9.1-26.1-21.7-50.9-37.4-73.7L-599.4,213.6z"/>
	<polygon class="st32" points="-608.4,276.7 -574.8,369 -587.1,313.1 	"/>
	<polygon class="st6" points="-612.5,163.4 -643.3,147.2 -685.9,153.9 -694.7,192.8 -672.8,191.9 -666.7,177.6 -666.7,191.7 
		-656.5,191.3 -650.7,168.5 -647,192.8 -611,192 	"/>
	<path class="st33" d="M-321.3,373.2l17.5,62.4c0,0-3.6,55.3,13.2,44.5c17.2-11.1,10.8-57.7,10.8-57.7l-10.1-56L-321.3,373.2z"/>
	<path class="st34" d="M-311.9,198.2l14.4,14.4v68.8c0,0,8.5,12.7,6.8,16.1s-3.4,3.4-1.7,5.9c1.7,2.5,3.4,4.2,1.7,5.9
		c-1.7,1.7-1.7,5.9,0,7.6s5.1,4.2,2.5,6.8c-2.5,2.5-5.9,0.8-2.5,10.2c3.4,9.3,9.3,11.9,7.6,15.3c-1.7,3.4-1.7,11.9-1.7,11.9
		l-36.5,5.1l-7.6-96L-311.9,198.2z"/>
	<polygon class="st1" points="-283,360.5 -325.5,362.2 -323.8,380 -286.4,373.2 	"/>
	<polygon class="st33" points="-399.9,109.4 -405,160.4 -353.1,168 -349.3,138.7 -345.5,109.4 	"/>
	<polygon class="st10" points="-399.9,109.1 -405,160.1 -353.1,167.8 -349.3,138.5 -345.5,109.1 	"/>
	<path class="st33" d="M-512.4,352l28.9,62c0,0,5.1,28.9,12.7,29.7c7.6,0.8,15.3-29.7,15.3-29.7l-10.2-16.1l-11.9-45.9L-512.4,352z"
		/>
	<path class="st6" d="M-314.7,478.5H-478c1.3-20.5,2.1-33.1,2.1-33.1l2.2-3.4l10.5-16.5l7.5-11.8l2.6-4.1l1-1.5l10.3-1.9l106.1-19.4
		c1.8,7.9,4.2,15.5,7.4,22.9c0.7,1.6,1.5,3.3,2.3,4.9c2.7,5.2,5.9,10.1,9.8,13.8c0.9,0.8,1.5,3,1.9,6.4
		C-313.2,443.2-313.5,458.6-314.7,478.5z"/>
	<circle class="st33" cx="-371.4" cy="85.2" r="40.8"/>
	<path class="st34" d="M-462.3,168.5l-5.9-3.4c0,0-26.3,17.8-34.8,57.8s-14.4,50.1-14.4,50.1s-8.5,1.7-2.5,7.6
		c5.9,5.9,5.9,5.1,0.8,8.5c-5.1,3.4-8.5-3.4-5.1,3.4c3.4,6.8,7.6,5.1,4.2,9.3s-9.3,4.2-5.9,7.6c3.4,3.4-3.4,11,0.8,14.4
		s5.9,4.2,5.9,10.2c0,3.5,0.5,6.9,1.7,10.2h44.2c0,0-8.5-16.1-5.9-19.5c2.5-3.4,3.4-6.8,1.7-8.5c-1.7-1.7-6.8,1.7-1.7-2.5
		c5.1-4.2,6.8-1.7,5.1-6.8c-1.7-5.1-5.1-2.5-1.7-5.1c3.4-2.5,5.9-1.7,4.2-4.2c-1.7-2.5-5.1-2.5-1.7-4.2s5.9,0,5.1-4.2
		c-0.8-4.2-1.7-2.5,0-4.2s19.5-59.5,19.5-61.2S-462.3,168.5-462.3,168.5z"/>
	<polygon class="st1" points="-470.8,340.9 -524.3,344.3 -510.7,357.1 -473.4,357.9 	"/>
	<path class="st1" d="M-455.5,404.7l-11,20.4c0,0,33.1,4.2,45,8.5c11.9,4.2,42.5,10.2,42.5,10.2l7.6-29.7L-455.5,404.7z"/>
	<polygon class="st1" points="-358.7,414 -349.3,442 -311.9,434.4 -316.2,408.1 	"/>
	<path class="st34" d="M-343.4,139.6c0,0-2.5-1.7-8.5,1.7c-5.9,3.4-25.5,5.1-34.8-5.1c-9.3-10.2-16.1-18.7-18.7-17
		c-2.5,1.7-4.2,21.2-4.2,21.2l-8.5,6.8l-50.1,17.8l4.2,114.7l7.6,26.3c0,0-5.9,20.4,1.7,32.3c7.6,11.9-4.2,16.1-4.2,16.1
		s-2.5,3.4-0.8,11.9c1.7,8.5-1.7,39.9-1.7,39.9s72.2,32.3,147.8,4.2l-8.5-32.3l-4.2-72.2c0,0,4.2-11.9,3.4-17
		c-0.8-5.1,25.5-76.5,25.5-76.5s-4.2-35.7-26.3-43.3c-22.1-7.6-25.5-15.3-25.5-15.3S-339.1,143-343.4,139.6z"/>
	<path class="st6" d="M-412.5,90.4c0,0-4.2-6.4-2.6-13.2c1-3.9,1.4-7.9,1.1-11.9c0,0,3.4-11.1,6.8-17.3c3.4-6.2,1.8-8.8,12.5-10.8
		c10.8-2,6.4-16,34.7-0.8c2,2.7,5.4,4,8.6,3.3c5.9-1.1,8,7,8,7s3.9-2.3,5.4,1c1.5,3.3,11.9-2,11.9,20s-11.9,41.6-11.9,41.6
		s0.9-37-18.5-40.7S-396.6,54-401.6,68C-406.7,82-412.5,90.4-412.5,90.4z"/>
	<ellipse class="st33" cx="-337.4" cy="94.1" rx="3.8" ry="5.1"/>
</g>
<g>
	<circle class="st35" cx="-190.5" cy="-442.9" r="62.4"/>
</g>
<rect x="-278.3" y="-451.5" style="fill:none;" width="175.5" height="89.6"/>
<text transform="matrix(1 0 0 1 -222.5959 -439.7169)" class="st25" style="font-family:'OpenSans-Bold'; font-size:15.5134px;">Fansites</text>
<g>
	<circle class="st30" cx="-378.6" cy="-456" r="62.4"/>
</g>
<rect x="-466.3" y="-464.6" style="fill:none;" width="175.5" height="89.6"/>
<text transform="matrix(1 0 0 1 -421.137 -452.8453)" class="st25" style="font-family:'OpenSans-Bold'; font-size:15.5134px;">Collections</text>
<g>
	<g>
		<circle class="st7" cx="-654" cy="-184.2" r="62.4"/>
	</g>
</g>
<rect x="-741.8" y="-191.6" style="fill:none;" width="175.5" height="89.6"/>
<text transform="matrix(1 0 0 1 -692.0891 -179.8175)" class="st25" style="font-family:'OpenSans-Bold'; font-size:15.5134px;">Amateurs</text>
<g>
	<circle class="st2" cx="-568.4" cy="-389.7" r="62.4"/>
</g>
<rect x="-656.1" y="-398.3" style="fill:none;" width="175.5" height="89.6"/>
<text transform="matrix(1 0 0 1 -600.4973 -386.5148)" class="st25" style="font-family:'OpenSans-Bold'; font-size:15.5134px;">Families</text>
</svg>
