<svg xmlns="http://www.w3.org/2000/svg" viewBox="0 0 32.44 31.95"><defs><style>.cls-1{fill:#fff;}</style></defs><title>GNU1</title><g id="Calque_2" data-name="Calque 2"><g id="BODY"><g id="_1" data-name="1"><path class="cls-1" d="M14.34,5.26a.14.14,0,0,1,.13.11,1.74,1.74,0,0,1,0,.42s.32.34.11,1.29a2.75,2.75,0,0,0,2,.14A3.07,3.07,0,0,0,18.25,6l-.31.21,0,0L18.12,6v0L17.64,6l.12-.12H17.7L16.89,6a.48.48,0,0,1-.21,0l-1.59-.67c-.18-.07-.37-.13-.56-.19l0,0A3,3,0,0,1,14.34,5.26Zm2.52.93c.33.15.62,0,1-.09a1,1,0,0,1-.78.4Zm-2.92,4.69.08-.09s0-.2,0-.28h0a1,1,0,0,1,0,.15A.71.71,0,0,1,13.94,10.88Zm-.16-.81c0,.06.1.09.16.17a1.38,1.38,0,0,1,0-.5c.17-.78.35-1.56.53-2.34A20.53,20.53,0,0,0,13.78,10.07ZM13,3.17l.06.16A.45.45,0,0,0,13,3.17Zm-.06-.43c.05.07.08.11.07.08Zm-.82,4.33s0,.05,0,0ZM1.19,29.48a5.88,5.88,0,0,0-1.1.13v.07l.72,0c.31,0,.61,0,.92,0s.67.08,1,.07c.69,0,1.39-.1,2.08-.15.09,0,.21-.08.24.09,0,0,.09,0,.14.05l.8,0,1.09,0,.9,0a.37.37,0,0,1,.17,0l-.85.1-1.9.31a1,1,0,0,0-.25.09s-.08.07-.11.11.08.1.12.1c.38.07.76.13,1.14.18s.8.06,1.2.12.49.16.75.21a4.13,4.13,0,0,0,.75.07l3.31,0h1.22a3,3,0,0,0,.36,0,.81.81,0,0,1,.67.16l-.64.08-.09,0-.17.12a.59.59,0,0,0,.16.11,3.86,3.86,0,0,0,.56.11,15,15,0,0,0,1.77.13,6.12,6.12,0,0,0,1.48-.25c.57-.16.65-.68.2-1.08-.18-.16-.37-.3-.59-.47l.63-.08A20.91,20.91,0,0,1,20.36,30l1.41-.08v-.06a1.15,1.15,0,0,0-.23-.08l-3.18-.39.07-.17-2-.21a1,1,0,0,1,.2-.15l.62-.22c.28-.1.35-.26.18-.51a1.35,1.35,0,0,0-.32-.32,3.34,3.34,0,0,0-1.18-.62v-.05a6.34,6.34,0,0,1,.81,0c.64.05,1.28.13,1.93.21a1.58,1.58,0,0,1,.38.16,11.15,11.15,0,0,1,1.22.49,1.19,1.19,0,0,0,.58.1c.65,0,1.3,0,2-.07l.34,0c.19,0,.38,0,.43.08l.2-.14c.21.34.37.62.56.88a11.16,11.16,0,0,0,1,1.16c.54.52,1.12,1,1.69,1.48a1.46,1.46,0,0,0,.36.2.31.31,0,0,0,.45-.19.9.9,0,0,0,0-.65l-.05-.19c.47-.22.5-.58.2-1.05a11.76,11.76,0,0,1-.78-1.47c-.13-.28-.07-.37.23-.45s.5-.08.75-.13c.07,0,.17,0,.19-.09a.27.27,0,0,0-.06-.22c-.18-.21-.37-.42-.55-.62a2.46,2.46,0,0,0-.19-.16h.17a9.53,9.53,0,0,0,1.36.1,4,4,0,0,1,1,.17,1.2,1.2,0,0,0,.3,0v0l0,0a16.08,16.08,0,0,0,2-4.38l-.12,0c0-.06,0-.14-.09-.16l-2.8-1.34c-.17-.08-.35-.12-.52-.19s-.05-.05-.08-.09-.22-.2-.42-.22l.22.22a.2.2,0,0,1,0,.28c-.25.5-.48,1-.72,1.51a13.33,13.33,0,0,1-.63,1.31,3.87,3.87,0,0,0-.48,1.11,1.64,1.64,0,0,0,0,.27c0,.11-.06.14-.15.1l-1.55-.68a.52.52,0,0,1-.1-.08l0-.07,1.66.61s0-.14-.08-.15l-1.51-.57H25l0-.21.12,0-.1-.24.21.05,0,0-.13-.12a15.79,15.79,0,0,1,1.85-4.26l.59.33v0l-.13-.12,0,0,3,1.25c0-.11,0-.25,0-.38s.07-.21.07-.32a.3.3,0,0,0-.07-.22,1.62,1.62,0,0,0-.42-.25l.23.22c-.31-.14-.59-.27-.87-.38l-2.22-.88c-.59-.24-1.16-.5-1.75-.74a5.85,5.85,0,0,1-1.09-.53,3.07,3.07,0,0,0-.44-.2l0,0,.71.4-.23.5c-.23.5-.45,1-.68,1.5-.15.32-.33.64-.49,1s-.27.56-.4.84a17.67,17.67,0,0,0-1,2.7l0,.08L21,23.9l0,0s.09.12.14.14c.76.36,1.52.74,2.29,1.08s1.32.57,2,.84c.5.2,1,.39,1.5.58a1.22,1.22,0,0,0,.3.07.33.33,0,0,0,.15-.05.69.69,0,0,1,.16-.07c-.07.15,0,.22.11.28l.57.43a4.68,4.68,0,0,0-.58.08,3.36,3.36,0,0,0-.5.21.27.27,0,0,0-.13.35,5.39,5.39,0,0,0,.64,1.45A4.51,4.51,0,0,1,28,30c.07.16-.07.29-.25.27a1,1,0,0,0-.21,0,.8.8,0,0,1,.26.72l-.2-.63h0c0,.22.08.44.1.66a.31.31,0,0,1-.12.25.36.36,0,0,1-.29-.07c-.61-.44-1.23-.87-1.81-1.35a4.2,4.2,0,0,1-1-1.24l.4.51,0,0L24,28l0,0a1.55,1.55,0,0,0,.23,0,8.29,8.29,0,0,1,1.37.19,1.54,1.54,0,0,0,.53-.06.3.3,0,0,0,.24-.31s0,0,.08-.1l-1.65-.54,0,0,1.29.44v0l-.21,0c-.59-.07-1.18-.16-1.77-.19-1.05-.06-2.11-.09-3.16-.13a2.25,2.25,0,0,0-.4,0s-.06.09-.05.13,0,.18-.08.2a.23.23,0,0,1-.19-.08c-.07-.11-.23-.16-.23-.33s-.08,0-.1,0,0-.07,0-.08c-.4-.15-.79-.3-1.17-.46s-.67-.31-1-.47h0L17.29,26V26l1.95.17v0l-.8-.08-1.11-.09a1.7,1.7,0,0,0-.23,0,.66.66,0,0,1-.17,0l-.05.35L17,26l2.28,1-.13.28c0-.07,0-.18-.08-.22s-.18,0-.31,0l.08.12a18,18,0,0,0-3.41-.1s0,0,0-.07l1.72-.12a6.5,6.5,0,0,0-1.77.07c-.12,0-.24,0-.35.07s-.07.07-.09.12a.48.48,0,0,1,.47,0c.3.14.63.22.94.35a3.53,3.53,0,0,1,.65.39,6,6,0,0,0-1.9-.64c.34.11.68.2,1,.33a7.69,7.69,0,0,1,.93.46.42.42,0,0,1,.2.29c0,.14-.14.23-.29.28l-1.07.35a.45.45,0,0,1-.21,0,14.47,14.47,0,0,0-2.93-.22L10,28.77c-.27,0-.55.07-.87.11,0-.21.07-.41.1-.61.06-.4.12-.8.17-1.2,0-.19,0-.38.05-.61l.09.38a7.29,7.29,0,0,0-.21-2.44l1.32.38s0,0,0,0c0,.29,0,.29.25.38s.35.07.41.27c.13-.08.13.21.29.1s.17.13.3.18l-.11-.17c.24,0,.35.31.62.21L12,25.33c.24,0,.43.23.68.07l-.26-.15,1.32-.3c.11,0,.21-.08.31-.1a.23.23,0,0,1,.19.07,4.76,4.76,0,0,1,.24.46,9.85,9.85,0,0,1-1,.28,8.79,8.79,0,0,1-1,.07,2.5,2.5,0,0,0,1,0,4.46,4.46,0,0,0,.76-.2c.25-.09.25-.12.16-.37L14.44,25a5.12,5.12,0,0,1,.58.28,11.81,11.81,0,0,0,1.3.67c.1.05.18,0,.2-.12a1.93,1.93,0,0,1,.36-.91l-.08.31h0l.2-.38c.14.13.24,0,.34-.07a5.07,5.07,0,0,0,.45-.52,1.27,1.27,0,0,1,.54-.42,5.85,5.85,0,0,0,.58-.33.16.16,0,0,0,0-.15c-.08-.2-.18-.4-.26-.58a10,10,0,0,0,.72-1.06,6.61,6.61,0,0,0,.69-1.59c.12-.57.32-1.13.45-1.7a6.1,6.1,0,0,0,.12-1,.41.41,0,0,0-.14-.3c-.37-.28-.76-.53-1.15-.79a1.25,1.25,0,0,1-.24-.15.61.61,0,0,1-.16-.29c0-.26,0-.54-.06-.8a.41.41,0,0,0-.09-.21c-.15-.18-.31-.35-.46-.53S18.14,14,18,13.9L18,14l-.17-.1-.48-.37-.07.08a.55.55,0,0,1,.15.07l1.17,1.09a.54.54,0,0,1,.12.18.13.13,0,0,1,0,.12.68.68,0,0,1-.86,0c-.45-.44-.9-.89-1.36-1.33a3.56,3.56,0,0,0-1.64-.89.25.25,0,0,1-.07,0,2.75,2.75,0,0,1,2.3.62l0-.07-.93-.61h.68a.57.57,0,0,1,.46.27c.2.27.43.51.64.77l-.7-1c-.41-.06-.43-.47-.63-.72A10.59,10.59,0,0,0,15,10.34c-.09-.07-.14-.13-.09-.26a.23.23,0,0,0,0-.2c-.19-.23-.4-.46-.59-.69l0,0,.06.11.11.12c.49.6.45.45.27,1.24a5.08,5.08,0,0,1-.23.66c-.08.21-.17.42-.27.64a4.35,4.35,0,0,0-.39-.27c-.23-.12-.29-.09-.33.17a1.21,1.21,0,0,0,.09.74.23.23,0,0,1-.09.35.85.85,0,0,1-.24.13c0-.08,0-.18,0-.24a.85.85,0,0,1,.07-.83c0-.07,0-.18,0-.28a1.73,1.73,0,0,0-.05-.19,1.22,1.22,0,0,0,.44-.31,1,1,0,0,1-.32.16c-.18,0-.8,0-1,0s-.8-.59-.7-.86.25-.63.53-.68.43.09.43.17.24-.4,0-1.35a.39.39,0,0,1,.12.15,1.51,1.51,0,0,0-.51-.91c.12.07.44.22.57.08S11.44,7,11.47,6.9s.51.05.64.16c-.09-.12-.33-.49-.56-.53l.26,0s-2.22-.89-2-1.57a.2.2,0,0,1,.09-.23s-.16,0-.2.06.06-.19.1-.23-.16,0-.16,0l.14-.16L9.5,4.28l.32-.05-.15-.09s1.19,0,1.14-1.85a.79.79,0,0,1,.7.28l-.39-.15a2.62,2.62,0,0,1,.63.47l-.69-.17s1.5.49,1.85,1.35a2.18,2.18,0,0,0-.35-1.35,1.65,1.65,0,0,1,.42.45,2.45,2.45,0,0,0-.3-.62l.24.19-.41-.57a23.44,23.44,0,0,1,2.23,2.29,2.88,2.88,0,0,0,2-.35.77.77,0,0,0,.38-.72A2.69,2.69,0,0,0,16.72,2a4.47,4.47,0,0,0-1-1.34,1.33,1.33,0,0,0-.39-.24,2.28,2.28,0,0,1,.33,2.3,2.73,2.73,0,0,1-1-.4,4,4,0,0,0-2-.86,2,2,0,0,0-.84.06.29.29,0,0,1-.19,0c-.33-.16-.65-.33-1-.49A1.12,1.12,0,0,0,10.23,1l.2.12v0l-.24-.05v0l.21.1c-.26,0-.44.14-.7.05a1.59,1.59,0,0,0-1.34.16c-.44.25-.86.54-1.29.81a3.64,3.64,0,0,1-.43.22A.64.64,0,0,1,6,2.15c-.07-.15-.12-.31-.2-.46A1.1,1.1,0,0,1,5.72.87c.06-.23.14-.44.21-.67,0-.05,0-.11,0-.2A3.22,3.22,0,0,0,4.81,1.29a2.38,2.38,0,0,0,.44,2.62.9.9,0,0,0,.48.22,2.58,2.58,0,0,0,1.17,0c.49-.1,1-.14,1.49-.2l0,.07c-.23.11-.46.24-.7.33-.51.19-1,.36-1.54.55a.94.94,0,0,1-.61,0,1.66,1.66,0,0,1-.87-.47l-.06,0,.28.48L4.1,4.66l0,0a2.46,2.46,0,0,0,.58.63l-.51-.21,0,.06a5,5,0,0,0,1.36.88A4.5,4.5,0,0,0,7,6.58l-.7.74,0,0,.25-.19,0,0-.15.26.12,0c0,.22-.11.39-.37.38A.24.24,0,0,0,6,8a4.84,4.84,0,0,1-1.4,1.8.4.4,0,0,0-.14.54.73.73,0,0,1,0,.48c0,.1,0,.22,0,.32a1.57,1.57,0,0,1-.13.38,10.17,10.17,0,0,0-.6,1c-.34.79-.63,1.6-.94,2.4-.08.21-.14.43-.2.65a.11.11,0,0,0,0,.11.64.64,0,0,0,.07-.12,17.32,17.32,0,0,1,1.13-3c.14-.29.3-.57.46-.85a1,1,0,0,1,.25-.22l1.24-1a.89.89,0,0,0,.1-.13l-1.3.42c.06-.07.08-.13.13-.16l.5-.28c.14-.08.28-.16.42-.23a.56.56,0,0,1,.27,0,3.57,3.57,0,0,1,1.07.28,5.62,5.62,0,0,1,1.35.85,1.08,1.08,0,0,1,.12.15h0a1.61,1.61,0,0,1,.63,1c0,.19.06.39.08.58L9,12.9l-.32-.65H8.65l-.08.51h0c0-.25,0-.5,0-.75s-.1-.29-.26-.43a2,2,0,0,1,0,1.06,3.64,3.64,0,0,1-.15.4c-.06.13-.14.23-.3.15a.23.23,0,0,0-.17,0l.7.31a1.77,1.77,0,0,0-1.27.71l.12,0a.19.19,0,0,1,.13,0l-.52.67c-.39.52-.8,1-1.17,1.57s-.32.46-.9.49a2.6,2.6,0,0,1-1.58-.6c-.16-.11-.21-.38-.33-.64l0,.32c-.18,0-.14-.37-.41-.28l.08-.34h0L2.28,16c.3.13.38.42.5.7a2.4,2.4,0,0,0,.46.63.38.38,0,0,1,.09.38A1.75,1.75,0,0,0,3.38,19a.22.22,0,0,1,0,.18c-.17.31-.34.63-.53.93a.46.46,0,0,0,0,.64,4.46,4.46,0,0,1,.37.52.15.15,0,0,1,0,.11,2.06,2.06,0,0,1-.11.38.4.4,0,0,0,0,.42,4.65,4.65,0,0,0,1.32,1.38l1.57,1.07.2.12a1.4,1.4,0,0,0,1.35.07l.74-.22c.09.34.19.67.27,1a5.94,5.94,0,0,1,.1,2.44,1.09,1.09,0,0,1-.65.75c-.08,0-.25,0-.38-.08l-1.64-.63c-.17-.06-.34-.1-.52-.15l-.63-.17a1.86,1.86,0,0,0-.34-.05,5.78,5.78,0,0,0-.86,0c-.35,0-.69.12-1,.18,0,.05,0,.1,0,.12a.53.53,0,0,1-.6.23c-.13,0-.28,0-.41-.08a3.08,3.08,0,0,1-.33-.14L1,28l.45.41c-.7,0-1-.45-1.26-1l-.06,0,.12.28,0,0a2,2,0,0,1-.16-.25c0-.09-.06-.19-.1-.28a2.45,2.45,0,0,0,.8,1.72l0,0L.4,28.66l0,0L.56,29,.3,29l0,0c.14.09.28.2.42.28S1,29.4,1.19,29.48Zm2.54-7.57c-.36-.55-.31-.66,0-1.21ZM5,5.09l0,.05-.23-.06,0,0,.2.16c-.21,0-.29,0-.66-.48l.41.14ZM5.44,5l-.15.18L5,4.88l0,0ZM27.73,29.27a2.67,2.67,0,0,1-.63-1.53A4.59,4.59,0,0,0,27.73,29.27Zm-8.3-2.11.43.05s0,.06,0,.09a2.89,2.89,0,0,1-.34,0S19.48,27.25,19.43,27.16ZM15.64,31.3c.09-.06.23-.09.26-.17s.22-.12.34-.14l1-.14a.2.2,0,0,0,.18-.28l.23.13a.82.82,0,0,0-.09-.11,4.82,4.82,0,0,0-1.25-.76c-.23-.1-.47-.17-.7-.27a.54.54,0,0,1-.19-.23s0-.09.08-.14h0c0,.19.11.25.24.31a6.28,6.28,0,0,1,1.3.64l.65.53s.1.08,0,.1l.09.11c.22.28.21.44-.06.66a.51.51,0,0,1-.22.1,2.94,2.94,0,0,1-1.28-.1l.05-.24H16.2l0-.08a.4.4,0,0,0-.15.15c-.06.1-.06.1-.16,0l.13-.21,0-.05-.34.2Zm1.66-.8-.51-.12-.53-.07C16.82,30.16,17,30.2,17.3,30.51Zm-3.83-.09c0-.06.07-.14.13-.2a.27.27,0,0,1,.13,0,1.94,1.94,0,0,1,2.1,1c-.27,0-.55,0-.82,0a.69.69,0,0,1-.27-.12c-.13-.07-.25-.17-.38-.23a1.36,1.36,0,0,0-.71-.21A.24.24,0,0,1,13.47,30.42Zm-9-11.14L4.08,20.5l-.05,0A1.89,1.89,0,0,1,4.43,19.28Zm3.8-5.36-.36.19C7.93,13.89,8.07,13.89,8.23,13.92Zm.78,0-.17.28,0-.17-.24.37s0,.09-.08.09c-.31.05-.46.3-.63.52l0,.05.48-.39a.2.2,0,0,1-.05.14,5.14,5.14,0,0,0-1,1.45A1.75,1.75,0,0,1,7,16.6a3,3,0,0,1,.24-1.47,5.79,5.79,0,0,0-.43.64l-.41.72a2.37,2.37,0,0,1,.44-1.16,2.85,2.85,0,0,1,.53-.65A7.69,7.69,0,0,1,8.45,14,1.86,1.86,0,0,1,9,13.86ZM9.2,6.84a2.18,2.18,0,0,0-.47.62c0,.06-.1.09-.15.14l-.06-.05.65-.84c-.16.08-.22.25-.42.24s-.16.15-.25.25A1.71,1.71,0,0,1,9,5.91l.14.39s.08,0,.1,0A.44.44,0,0,1,9.2,6.84Zm-.09.7L9,8.22C8.86,8,8.89,7.83,9.11,7.54Zm.46-1.2h0a.87.87,0,0,1,0-.6Zm0,1.07a2.41,2.41,0,0,0-.09.29c0,.16,0,.33,0,.49s0,.36,0,.54h0a2.63,2.63,0,0,1,0-2c0,.21.07.1.11.1A.64.64,0,0,1,9.59,7.4Zm.32-.88H9.85L9.71,6.1l.1,0ZM10,9a1.83,1.83,0,0,1-.15-1.3l.1.19.1-.06A2.49,2.49,0,0,1,10,9Zm.72,3.93c-.1-.1-.19-.18-.26-.26a10,10,0,0,0-2.73-2.07c-.49-.28-1-.5-1.54-.73a1.14,1.14,0,0,0-.47-.1c-.35,0-.7,0-1.06.07l.11-.1c.28-.29.59-.56.84-.88A4.8,4.8,0,0,0,6,8c.07-.12.13-.22.28-.19L6.78,8a9.89,9.89,0,0,1,2,.84,1.25,1.25,0,0,1,.7.66,1.33,1.33,0,0,0,.21.29l.05,0V9.49l0,0,.34.51.05-.19.34.33a.38.38,0,0,0-.16.36,1.89,1.89,0,0,0,.25,1.1c.2.3.08.62.18.92C10.83,12.61,10.72,12.77,10.67,12.92Zm-1.24-.45.07.84C9.36,13.21,9.36,13.21,9.43,12.47Zm.33.42-.23-.65A.71.71,0,0,1,9.77,12.88Zm2,.51a1.41,1.41,0,0,1,.72,0,6.91,6.91,0,0,0-.84,1.82v-.31l-.12.1c-.1.11-.2.23-.3.33a1.48,1.48,0,0,1-.81.47.73.73,0,0,1-.48,0,.75.75,0,0,0-.78-.13l-.09,0a.27.27,0,0,1-.34-.12A.47.47,0,0,1,8.61,15c.21-.4.42-.79.65-1.17a.39.39,0,0,1,.25-.13L11,13.51c.18,0,.36-.09.55-.13S11.66,13.41,11.72,13.39Zm.29-.15h-.14l.17-.49.13.2,0-.55h.07c0,.16,0,.32.06.48C12.37,13.24,12.38,13.24,12,13.24Zm.58,0c-.16,0-.22-.2-.2-.48Zm.12,0h0l-.15-.63h.05ZM16,21.78l1,.79,0,.06-1.53-1,.18-.06,0-.24a4.25,4.25,0,0,1,1.31.76L16,21.74Zm.68-.28L16,21.32l0-.06.66.16Zm-2.06-4.37a1.53,1.53,0,0,1-.8.56c0-.34,0-.34-.28-.56C13.89,17.1,14.24,17.36,14.59,17.14Zm-.53-.39-.08,0,.06-.45C14.07,16.44,14.22,16.61,14.07,16.75Zm-.74.34V17l.6-.12v0Zm1,2c-.14-.19-.29-.37-.44-.57a5.7,5.7,0,0,1,1.5,1.12l-.4.23c-.12-.09-.23-.16-.32-.24s-.18-.16-.17-.22S14.44,19.24,14.37,19.14Zm1,2.36-.81.31a12.29,12.29,0,0,1-.12-1.36,1.74,1.74,0,0,0-.6-1.18c-.25-.29-.47-.6-.71-.9a.85.85,0,0,1-.07-.19l.14.07,1.13.95a.18.18,0,0,1,0,.07l.1.29h-.12c.11.12.18.26.27.28a.39.39,0,0,1,.32.29c.16.42.31.84.46,1.26C15.4,21.42,15.38,21.49,15.36,21.5Zm-2.1-3.57-.05-.06.24-.22.06.07Zm-.5-.66a.6.6,0,0,1,.89.17A.69.69,0,0,1,12.77,17.27Zm1-3.14.54.25L13.93,14,14,14l.22.06.47.15.44.29-.83.66.27-.59-.1-.07a1.43,1.43,0,0,1-.09.17l-1,1.32a.22.22,0,0,1-.25.12.18.18,0,0,1-.17-.19,1.24,1.24,0,0,1,0-.36c.08-.39.17-.77.28-1.15S13.39,14,13.78,14.13Zm.81-1.81.3-1.89a6.16,6.16,0,0,1,1.86,2l-1.27-.06.36-.49,0-.06A4.25,4.25,0,0,0,14.59,12.31ZM16,15.69c0-.2,0-.41,0-.63a.93.93,0,0,0-.59-.86.6.6,0,0,1-.23-.2c-.16-.22-.31-.44-.46-.67l-.13-.22c.39,0,.72.1.88.44a.51.51,0,0,1-.12.55c.48-.25.76,0,1,.41l0-.19A1.17,1.17,0,0,1,16,15.69Zm1.39-.53,0,0-.21-.46,0,0ZM17.95,21l.28.82L16.43,21l.81-.1a1.28,1.28,0,0,0-.83-.21h-.87a1.6,1.6,0,0,1,.27-.16c.16-.06.16-.13.07-.25s-.1-.16-.08-.2a.19.19,0,0,0-.07-.25,7.17,7.17,0,0,0-1.43-1.17l-.17-.12c.19-.12.36-.23.52-.34s.35-.2.45-.45A2,2,0,0,1,14,18l1.55-1.35.64,1.62.05,0-.11-.38.21.3,0,0A21.89,21.89,0,0,1,15,15.26l-.21.18a.42.42,0,0,1,.07-.48c.13-.17.27-.33.42-.51l-.63-.28A1,1,0,0,0,14.4,14c-.34-.08-.31-.37-.37-.62l.16.36a1.74,1.74,0,0,0-.25-.73,2.41,2.41,0,0,1-.39-.91,1.75,1.75,0,0,1,0-.43,1.18,1.18,0,0,1,.7.75c.06.22.08.46.31.59,0,0,0,0,0,0l-.38.1.05,0h.07a.25.25,0,0,1,.35.13c.09.17.21.32.32.48a1.62,1.62,0,0,1,.37,1.06l-.29.08v0l.4,0-.12.25a.41.41,0,0,1,.08.1c.26.59.5,1.19.78,1.77a2.91,2.91,0,0,0,.62,1.07l-.06.07h0c-.21.33-.38.36-.65.11,0,.17.07.28.22.28a.56.56,0,0,0,.48-.26c.11-.14,0-.22,0-.36-.27-.47-.5-1-.74-1.45a.21.21,0,0,1,.06-.29c.24-.21.48-.43.74-.63a.33.33,0,0,1,.26,0,3.62,3.62,0,0,1,1.17.37,3.11,3.11,0,0,0,.65.26A1.71,1.71,0,0,1,20,17.56a2.81,2.81,0,0,1-.13,1.68c-.06.13-.08.29-.15.42-.23.5-.47,1-.72,1.48-.13.25-.15.22-.39.1S18.2,21.08,18,21Zm-.89.91a2.76,2.76,0,0,1,1,.86C17.69,22.6,17.25,22.44,17.06,21.94ZM15.73,23a4.39,4.39,0,0,1,1.64.21c.27.09.36.29.49.52Zm0,2.23a1.88,1.88,0,0,1,.05-.44c0-.08.15-.13.23-.19l0,0-.05.09c.05,0,.09,0,.12,0l.39-.21a2,2,0,0,1-.1,1.29ZM15,24.64c0-.34.06-.71.08-1.07a1.16,1.16,0,0,0,0-.24,2,2,0,0,1,.7,1.76ZM15,23l.44.18C15.23,23.14,15,23.25,15,23Zm-.62,1.9c.13-.32.26-.61.37-.92a4.05,4.05,0,0,0,.11-.58,2.13,2.13,0,0,1,.07,1.2C14.79,25,14.86,25.06,14.35,24.87Zm-2.6-.36,2.53-1.66c-.06.25,0,.53-.23.71a2.85,2.85,0,0,0-.29.26,2.68,2.68,0,0,1-1.28.66,4.13,4.13,0,0,1-.72.07Zm-1-.4.71-.3C11.21,24.2,11,24.27,10.71,24.11Zm-3-3.33a2.18,2.18,0,0,1-.08-2.72.61.61,0,0,0,0-.61c0,.3-.19.47-.34.69-.3.44-.58.89-.87,1.34a.28.28,0,0,0,0,.17c0,.41.09.83.14,1.24l0,0-.88-1.76a8.85,8.85,0,0,0,0,1.91l-.14-.19A1.45,1.45,0,0,0,6,22.25L6,21.51H6l.68.85-.06.06L6.07,22l0,0a1.85,1.85,0,0,0,.44,1.11A4.79,4.79,0,0,1,5.81,23c-.84-.15-1-.29-1.22-1.06a4.26,4.26,0,0,1-.12-1.57A3.39,3.39,0,0,1,4.9,19c.12-.19.25-.37.38-.54a5.79,5.79,0,0,1,1.6-1.61c.24-.14.48-.28.72-.4.44-.21.9-.41,1.34-.62l0,.05c-.2.14-.4.28-.59.43s-.36.32-.53.49h0l1.66-1.14.36.29c.75.62,1.53,1.2,2.25,1.86a15,15,0,0,1,1.26,1.47,2.72,2.72,0,0,1,.32.44c.21.4.43.8.61,1.22a.89.89,0,0,1,0,.6,4.75,4.75,0,0,1-.49.79l-.08.11,0,0,.64-.48a.76.76,0,0,1-.41.63,10.08,10.08,0,0,0-1.68,1.13,1.73,1.73,0,0,1-.75.44,11.84,11.84,0,0,0,1.24-1.49c-.22,0-.37.06-.53.07l-2.33,0a.54.54,0,0,1-.31-.11A11,11,0,0,1,7.72,20.78ZM3.86,29.34H4l.1-.25a.07.07,0,0,1,.05,0c.11,0,.14-.08.2-.15s.33-.39.5-.58a.13.13,0,0,1,.1,0,4.29,4.29,0,0,1,.64.05A5.91,5.91,0,0,1,7.17,29l-2,.43H5.08l-.77-.09H4l0,.08Z"/><path class="cls-1" d="M21.54,26.69l1.33.13c.25,0,.51,0,.77,0s.35.07.53.09l-.53-.2-1-.41a.92.92,0,0,0-.25,0L21,26.17v0l.5.08v0l-1.16-.05v0l.85.06h-.51v0c.25,0,.5,0,.74,0a6.11,6.11,0,0,0,1.17.12,2.24,2.24,0,0,1,.9.22l-1.95-.13Z"/><path class="cls-1" d="M6.48,14l1.2-.59a1,1,0,0,0-.69,0c-.29.1-.39.37-.54.6Z"/><path class="cls-1" d="M5.63,15.75l1.2-1.1A1.55,1.55,0,0,0,5.63,15.75Z"/><path class="cls-1" d="M26.91,24a1.57,1.57,0,0,1-.41-.17,3.38,3.38,0,0,0-1-.36h-.05l-.12,0s0,.1.07.11l1.29.41.16,0Z"/><path class="cls-1" d="M22.68,26.94c-1.08-.09-2.16-.19-3.24-.21v.1Z"/><path class="cls-1" d="M26.79,24.52l-1.64-.58a5.73,5.73,0,0,0,1.53.68s.08,0,.12,0Z"/><path class="cls-1" d="M26.82,24.38a3.51,3.51,0,0,0-1.58-.65A4.5,4.5,0,0,0,26.82,24.38Z"/><path class="cls-1" d="M20.93,23.85a22,22,0,0,1,1-3.54A13.81,13.81,0,0,0,20.93,23.85Z"/><path class="cls-1" d="M23.51,16.91l1.56.55,1,.39a.3.3,0,0,0,.18,0c-.17-.08-.33-.16-.5-.23l-2.06-.73a.73.73,0,0,0-.21,0Z"/><path class="cls-1" d="M23.51,16.91l-.77,1.52a5.31,5.31,0,0,0-.3.72L23.57,17l-.07-.11Z"/><path class="cls-1" d="M30.8,21.09l1.56,1,0-.06a9.83,9.83,0,0,0-1.57-1Z"/><path class="cls-1" d="M17.77,26.22l.35.05,1.86.15h.29v0l-.63,0L18,26.2l-.18,0Z"/><path class="cls-1" d="M20.53,26.59a7.87,7.87,0,0,0-2,0Z"/><path class="cls-1" d="M5.92,14.43l.54-.68A.71.71,0,0,0,5.92,14.43Z"/><path class="cls-1" d="M22.31,27.14l-2-.13v0l2,.13Z"/><path class="cls-1" d="M25.32,27.41l-1.74-.19v0l1.74.19Z"/><path class="cls-1" d="M23.27,27l1.05.11V27l-1.06-.1Z"/><path class="cls-1" d="M8.37,11.33h0l-.29-.16,0,.05.47.39,0,0Z"/><path class="cls-1" d="M3,15.69l.17.56A.51.51,0,0,0,3,15.69Z"/><path class="cls-1" d="M17.41,26.61l-.53-.23C16.86,26.47,17.05,26.57,17.41,26.61Z"/><path class="cls-1" d="M27.82,18.51l-.63-.26,0,0,.63.27Z"/><path class="cls-1" d="M12,5.17l-.06-.09L12,5l.11-.18c-.18-.13-.61,0-.93.34l-.06.06ZM11.7,5h0s-.38.21-.33.07.48-.26.51-.27C11.49,5,11.7,5,11.7,5Z"/><path class="cls-1" d="M13.81,5h.48a.79.79,0,0,0-.31-.2.27.27,0,0,0-.25,0l.08.12,0,0ZM14,5s0,0-.14-.13a.86.86,0,0,1,.3.11A.3.3,0,0,1,14,5Z"/><path class="cls-1" d="M7.31,17.6a1.89,1.89,0,0,0-.89,1.31A2.25,2.25,0,0,0,7.31,17.6Z"/><path class="cls-1" d="M7.9,17a1,1,0,0,0,0,.77A1.92,1.92,0,0,0,7.9,17Z"/><path class="cls-1" d="M8.14,17.42l.12-.5-.08,0-.12.5Z"/><path class="cls-1" d="M17.72,20.75a2.35,2.35,0,0,0-1.18-.21A1.91,1.91,0,0,0,17.72,20.75Z"/><path class="cls-1" d="M13.81,12.49l.3.11v-.25l-.28,0Z"/><path class="cls-1" d="M16.76,18.18c-.13-.15-.25,0-.36,0s-.1.1-.15.16l0,0,.48-.23Z"/><path class="cls-1" d="M14.56,5a.88.88,0,0,0,.22-.46.22.22,0,0,0,0-.09h0C14.84,4.68,14.65,4.82,14.56,5Z"/><path class="cls-1" d="M14.55,7.13l-.06.26h0c0-.11.06-.21.08-.31Z"/><path class="cls-1" d="M12.18,7.94l0,0Z"/><path class="cls-1" d="M12.11,7.07s0,.05,0,0Z"/><path class="cls-1" d="M10.69,5.09s.32.75.92.49.45-.47.6-.6S12.15,5,12,5L11.7,5h0s-.38.21-.33.07l-.19,0c-.09,0-.14,0-.09,0s.83-.74,1.45-.62c0,0-.74-.38-1.6.59C10.93,5.09,10.72,5.12,10.69,5.09Z"/><path class="cls-1" d="M13.82,5,13.7,4.9l.1.12h0l.55.67a.45.45,0,0,0-.12-.48c-.2-.16.23-.05.14-.28a1.61,1.61,0,0,0-.75-.58s0,.19.35.46l.17.13,0,0A.3.3,0,0,1,14,5h0Z"/><path class="cls-1" d="M13.95,5,14,5c.07,0,.17.06.15,0h0l0,0A.3.3,0,0,1,14,5h0Z"/></g></g></g></svg>