<svg xmlns="http://www.w3.org/2000/svg" viewBox="0 0 227.79 224.31"><defs><style>.cls-1{opacity:0.38;}.cls-2{fill:#111;}</style></defs><title>GNU2</title><g id="Calque_2" data-name="Calque 2"><g id="BODY"><g id="_1" data-name="1"><g class="cls-1"><path class="cls-2" d="M100.67,36.92a1,1,0,0,1,.91.75,12.19,12.19,0,0,1,0,2.95s2.23,2.35.8,9a19.3,19.3,0,0,0,14.16,1,21.57,21.57,0,0,0,11.58-8.55L126,43.55l-.16-.16,1.46-1.55-.05-.3-3.32.65.82-.86a1.22,1.22,0,0,0-.39-.1c-1.91.19-3.81.42-5.72.57a3.38,3.38,0,0,1-1.45-.33c-3.72-1.55-7.43-3.14-11.16-4.67-1.27-.52-2.6-.91-3.91-1.36a3.2,3.2,0,0,1,.15-.33A21.33,21.33,0,0,1,100.67,36.92Zm17.69,6.53c2.29,1.07,4.37-.13,6.72-.66-1.6,1.79-3.22,2.93-5.49,2.84Zm-20.5,33c.19-.21.38-.41.58-.61s.24-1.42,0-2l0-.08a6.9,6.9,0,0,1-.05,1.07A5,5,0,0,1,97.86,76.4Zm-1.12-5.67c.19.39.72.62,1.12,1.18a9.66,9.66,0,0,1,.22-3.54c1.21-5.48,2.46-11,3.7-16.43C99.3,60.3,96.37,70,96.74,70.73Zm-5.6-48.47c.22.6.36,1,.39,1.13A3.14,3.14,0,0,0,91.15,22.26Zm-.41-3c.36.49.59.76.5.57A2.22,2.22,0,0,0,90.73,19.22ZM85,49.61c.19.28.25.37.19.22A.64.64,0,0,0,85,49.61ZM8.37,207c-2.75.24-5.31.19-7.75.89,0,.15,0,.31,0,.46,1.69.08,3.38.22,5.07.24,2.14,0,4.29-.14,6.44-.06,2.34.08,4.67.58,7,.48,4.87-.2,9.73-.67,14.6-1,.65,0,1.49-.59,1.71.66,0,.18.66.34,1,.36,1.88.1,3.76.15,5.64.22l7.66.33,6.3.25a2.61,2.61,0,0,1,1.2.29c-2,.24-4,.43-5.93.74-4.44.69-8.88,1.42-13.31,2.17a6.7,6.7,0,0,0-1.79.6c-.31.15-.53.51-.79.78.29.25.55.68.87.74,2.65.46,5.31.92,8,1.24s5.63.42,8.4.85c1.78.28,3.47,1.13,5.25,1.47a29,29,0,0,0,5.26.48c7.74.1,15.47.11,23.21.16,2.86,0,5.71.1,8.57.1a20.78,20.78,0,0,0,2.51-.22,5.68,5.68,0,0,1,4.73,1.14l-4.47.54a1.84,1.84,0,0,0-.62.13c-.41.24-.78.54-1.18.81a4.11,4.11,0,0,0,1.15.79,27.07,27.07,0,0,0,4,.79,105.65,105.65,0,0,0,12.46.91,43,43,0,0,0,10.38-1.78c4-1.12,4.56-4.75,1.39-7.55-1.25-1.11-2.63-2.08-4.17-3.3,1.6-.21,3-.37,4.43-.59,5.78-.94,11.6-.31,17.4-.56,3.31-.14,6.61-.39,9.91-.59,0-.15,0-.3.08-.45a8.08,8.08,0,0,0-1.62-.59c-7.38-.94-14.77-1.84-22.3-2.77l.48-1.16-14.13-1.5a7.2,7.2,0,0,1,1.37-1c1.44-.56,2.92-1,4.38-1.55,2-.72,2.43-1.81,1.24-3.56a9.5,9.5,0,0,0-2.26-2.25,23.49,23.49,0,0,0-8.32-4.33l.05-.36a44.54,44.54,0,0,1,5.66-.24c4.52.36,9,.89,13.52,1.47a11.13,11.13,0,0,1,2.67,1.11c2.83,1.18,5.83,1.93,8.55,3.47a8.34,8.34,0,0,0,4.08.67c4.58-.08,9.15-.32,13.73-.51.79,0,1.59-.13,2.38-.2,1.32-.11,2.64-.23,3,.57l1.4-1c1.5,2.35,2.57,4.38,4,6.15a78.36,78.36,0,0,0,7.09,8.17c3.8,3.63,7.88,7,11.89,10.37a10.25,10.25,0,0,0,2.51,1.43,2.17,2.17,0,0,0,3.15-1.33,6.29,6.29,0,0,0,.18-4.55c-.14-.43-.25-.88-.37-1.3,3.31-1.52,3.54-4.09,1.38-7.39A82.57,82.57,0,0,1,191.2,197c-.91-2-.51-2.6,1.6-3.18,1.72-.47,3.54-.59,5.3-.92.49-.1,1.22-.31,1.32-.64a1.92,1.92,0,0,0-.39-1.55c-1.24-1.5-2.57-2.92-3.89-4.35a17.27,17.27,0,0,0-1.36-1.14,9.48,9.48,0,0,1,1.23-.1c3.18.25,6.38.88,9.53.68,2.51-.17,4.62.78,6.92,1.17a8.39,8.39,0,0,0,2.14-.17l-.07.27.29.13a112.94,112.94,0,0,0,14-30.73l-.86.31c-.22-.41-.33-1-.66-1.15q-9.81-4.76-19.68-9.42c-1.17-.55-2.46-.86-3.68-1.32-.23-.08-.37-.38-.58-.6-1.24.3-1.55-1.42-2.93-1.56.59.59,1,1.08,1.53,1.53a1.39,1.39,0,0,1,.29,2c-1.74,3.5-3.37,7.05-5.05,10.58a93.62,93.62,0,0,1-4.44,9.16,27.18,27.18,0,0,0-3.4,7.76,11.49,11.49,0,0,0-.27,1.87c-.06.74-.43,1-1.09.72q-5.43-2.35-10.85-4.77a3.64,3.64,0,0,1-.71-.56c.08-.15.15-.31.22-.46l11.66,4.25c-.17-.34-.27-1-.57-1.07-3.51-1.39-7.06-2.7-10.61-4a4.15,4.15,0,0,0-.86-.1c0-.46-.08-.94-.14-1.5l.86.15c-.22-.51-.42-1-.72-1.67l1.45.36.18-.22-.9-.81c2.67-10.61,7.28-20.41,13-29.9l4.15,2.32.1-.15-.92-.88.14-.3,21,8.8c0-.77,0-1.73.18-2.67.1-.76.46-1.5.51-2.26a2.14,2.14,0,0,0-.5-1.56,11.34,11.34,0,0,0-3-1.74l1.65,1.55c-2.2-1-4.14-1.89-6.12-2.69-5.19-2.08-10.41-4.07-15.58-6.17-4.12-1.67-8.17-3.53-12.32-5.16a41.09,41.09,0,0,1-7.65-3.72,21.53,21.53,0,0,0-3.12-1.43l-.15.32,5,2.84-1.61,3.54c-1.59,3.52-3.13,7.06-4.78,10.55-1.07,2.27-2.31,4.47-3.43,6.71-1,2-1.9,3.93-2.84,5.9a124.09,124.09,0,0,0-6.86,18.95c0,.12-.1.23-.24.57l-4.92-1.5-.22.28c.33.34.6.82,1,1,5.34,2.56,10.67,5.16,16.07,7.6,4.59,2.06,9.26,4,13.92,5.87,3.5,1.43,7,2.77,10.56,4.11a8.54,8.54,0,0,0,2.08.46,2.3,2.3,0,0,0,1.06-.36,4.84,4.84,0,0,1,1.14-.52c-.5,1.07.18,1.52.76,2,1.23,1,2.48,1.9,4,3a32.86,32.86,0,0,0-4.07.53,23.62,23.62,0,0,0-3.52,1.45,1.87,1.87,0,0,0-.95,2.46,37.85,37.85,0,0,0,4.5,10.22,31.69,31.69,0,0,1,2.4,5c.46,1.14-.5,2.07-1.74,1.9a7.25,7.25,0,0,0-1.49.15c1.92,1.52,1.82,3.44,1.84,5.06l-1.38-4.41-.14.09c.24,1.55.58,3.08.67,4.63a2.19,2.19,0,0,1-.82,1.78,2.55,2.55,0,0,1-2-.49c-4.29-3.09-8.67-6.08-12.72-9.45a29.48,29.48,0,0,1-7.14-8.68l2.84,3.56.14-.11-5.76-8.56.16-.31a10.91,10.91,0,0,0,1.64.16c3.3-.15,6.43.94,9.65,1.33a10.84,10.84,0,0,0,3.74-.39,2.09,2.09,0,0,0,1.71-2.2c0-.17.25-.34.56-.72l-11.59-3.77-.11.32,9.08,3.11,0,.28c-.49,0-1-.07-1.48-.12-4.14-.46-8.27-1.1-12.41-1.35-7.38-.43-14.79-.62-22.18-.89a15.8,15.8,0,0,0-2.82.17c-.18,0-.44.66-.36.94.19.68.13,1.27-.57,1.4a1.61,1.61,0,0,1-1.33-.54c-.51-.77-1.6-1.15-1.61-2.29,0-.11-.56-.16-.72-.34s0-.46,0-.57c-2.79-1.09-5.54-2.09-8.24-3.24-2.38-1-4.69-2.18-7-3.28v0l-3.37-1.45.09-.36,13.67,1.18,0-.34c-1.88-.2-3.75-.42-5.63-.59-2.6-.24-5.19-.45-7.79-.62a11.93,11.93,0,0,0-1.6.32A4.65,4.65,0,0,1,119,182c-.1.72-.21,1.46-.36,2.45l1-1.65,16,6.92-.89,2c-.15-.48-.16-1.3-.55-1.56s-1.26-.16-2.17-.22l.59.82c-8-.53-15.93-1.73-24-.73,0-.15,0-.3,0-.46l12.07-.86a45.63,45.63,0,0,0-12.41.51c-.83.15-1.67.26-2.47.49-.3.09-.5.48-.6.86a3.38,3.38,0,0,1,3.33-.22c2.12,1,4.45,1.52,6.61,2.43a24.8,24.8,0,0,1,4.59,2.72c-4.29-2-8.59-4-13.37-4.48,2.37.75,4.79,1.38,7.08,2.3a54,54,0,0,1,6.5,3.25,2.92,2.92,0,0,1,1.41,2c0,1-1,1.61-2,1.93-2.52.79-5,1.67-7.53,2.48a3.13,3.13,0,0,1-1.47.11,101.62,101.62,0,0,0-20.56-1.56c-6.64.18-13.29.28-19.92.51-1.92.07-3.83.48-6.08.77.25-1.49.5-2.87.7-4.26.4-2.81.81-5.63,1.17-8.45.17-1.34.24-2.7.37-4.29l.66,2.64c.06-5.66.42-11.4-1.47-17.14l9.26,2.67s.09.08.08.15c-.18,2-.18,2,1.77,2.68,1.12.39,2.43.49,2.9,1.88.91-.57.89,1.46,2,.73.22-.14,1.21.94,2.08,1.26l-.8-1.2c1.71-.25,2.43,2.17,4.36,1.48l-2.51-3.06c1.7,0,3,1.61,4.76.53l-1.85-1.07c3-.68,6.17-1.36,9.3-2.09.75-.17,1.46-.58,2.2-.68a1.61,1.61,0,0,1,1.31.53,33.45,33.45,0,0,1,1.7,3.2,69.16,69.16,0,0,1-6.95,1.94,61.75,61.75,0,0,1-6.77.51,17.56,17.56,0,0,0,7.2-.05,31.32,31.32,0,0,0,5.33-1.39c1.76-.6,1.79-.85,1.11-2.59-.11-.27-.21-.54-.39-1a35.93,35.93,0,0,1,4.11,2,82.92,82.92,0,0,0,9.15,4.73c.74.36,1.25,0,1.4-.87a13.52,13.52,0,0,1,2.52-6.4c-.22.94-.38,1.56-.53,2.18l.11.07,1.39-2.66c1,.94,1.71.22,2.37-.53a35.59,35.59,0,0,0,3.13-3.63,8.9,8.9,0,0,1,3.81-3,41.07,41.07,0,0,0,4-2.31,1.15,1.15,0,0,0,.19-1.07c-.58-1.42-1.26-2.8-1.86-4.08a69.88,69.88,0,0,0,5-7.44c1.84-3.6,4-7.09,4.84-11.18s2.26-7.91,3.17-11.92a42.86,42.86,0,0,0,.82-7.26,2.87,2.87,0,0,0-1-2.13c-2.63-2-5.37-3.74-8.08-5.58a8.76,8.76,0,0,1-1.71-1,4.29,4.29,0,0,1-1.13-2.06c-.26-1.86-.25-3.76-.43-5.63a2.9,2.9,0,0,0-.64-1.47c-1-1.27-2.19-2.44-3.22-3.71-.81-1-1.53-2.06-2.28-3.08,0,.16-.11.3-.16.45a10.38,10.38,0,0,1-1.19-.67c-1.15-.85-2.27-1.73-3.41-2.6l-.53.58a3.89,3.89,0,0,1,1,.49q4.14,3.79,8.22,7.64a3.79,3.79,0,0,1,.83,1.24.93.93,0,0,1-.17.84,4.74,4.74,0,0,1-6-.08c-3.18-3.12-6.33-6.27-9.57-9.33a25,25,0,0,0-11.48-6.28,1.75,1.75,0,0,1-.51-.3c6.18-1.71,11.22,1.12,16.17,4.33.06-.17.12-.34.19-.51l-6.51-4.25c1.47,0,3.12,0,4.78,0a4,4,0,0,1,3.21,1.91c1.41,1.87,3,3.61,4.5,5.41L121,89.38c-2.89-.39-3-3.33-4.41-5a74.37,74.37,0,0,0-11.54-11.76c-.6-.48-1-.92-.66-1.8a1.64,1.64,0,0,0-.21-1.4c-1.34-1.65-2.78-3.23-4.18-4.83l-.3.21a7,7,0,0,0,.42.75c.22.3.51.56.74.86,3.45,4.19,3.17,3.16,1.87,8.7a35.69,35.69,0,0,1-1.61,4.64c-.57,1.49-1.22,2.95-1.87,4.5a30.58,30.58,0,0,0-2.76-1.9c-1.59-.86-2-.61-2.34,1.16a8.46,8.46,0,0,0,.65,5.19,1.64,1.64,0,0,1-.62,2.43,6,6,0,0,1-1.69.94c0-.56.21-1.23,0-1.65-1.18-2.1-.35-3.92.51-5.83.23-.52-.06-1.29-.16-1.94a12.12,12.12,0,0,0-.37-1.36A8.59,8.59,0,0,0,95.54,79a7.14,7.14,0,0,1-2.26,1.13c-1.29.3-5.59-.23-6.72,0S81,76,81.65,74.13s1.74-4.46,3.7-4.76,3,.6,3,1.21,1.66-2.79-.08-9.5a2.75,2.75,0,0,1,.83,1.05c.22.58-.75-4.61-3.57-6.36.88.46,3.12,1.52,4,.56,1.13-1.21-9.28-6.87-9.06-7.85s3.6.38,4.49,1.13c-.6-.87-2.34-3.41-4-3.7l1.81-.22S67.24,39.41,69,34.65a1.44,1.44,0,0,1,.6-1.58s-1.13.07-1.43.45.45-1.36.68-1.59-1.13.08-1.13.08l1-1.13-2-.83L69,29.68l-1.05-.6s8.37-.16,8-13a5.55,5.55,0,0,1,4.91,2l-2.7-1c.2.11,3.42,1.92,4.44,3.31l-4.83-1.21s10.57,3.47,13,9.5c0,0,.46-5.87-2.48-9.5a11.56,11.56,0,0,1,2.92,3.13A17.18,17.18,0,0,0,89,17.9a17.61,17.61,0,0,1,1.69,1.3c-.93-1.24-2.75-3.85-2.87-4,.34.13,13.61,12.75,15.65,16.06,4.93,1,9.44-.15,13.75-2.43,2.05-1.09,2.58-3,2.68-5,.17-3.38-1-6.43-2.51-9.4A31.35,31.35,0,0,0,110.69,5,9.34,9.34,0,0,0,108,3.34c2.92,5.11,5.31,10.18,2.34,16.14-2.59-.68-5.06-1.18-7.18-2.81A28.09,28.09,0,0,0,89,10.61a13.73,13.73,0,0,0-5.91.41,2,2,0,0,1-1.36-.27c-2.3-1.12-4.55-2.34-6.88-3.41a7.83,7.83,0,0,0-3.08-.57l1.4.82-.07.14-1.66-.36-.05.15,1.5.71c-1.8.17-3.07,1-4.88.36a11.17,11.17,0,0,0-9.41,1.15c-3.09,1.77-6,3.79-9.07,5.66a25.56,25.56,0,0,1-3,1.53c-1.18.52-3.91-.68-4.41-1.86s-.88-2.2-1.43-3.23a7.74,7.74,0,0,1-.56-5.75c.4-1.58,1-3.12,1.49-4.67.12-.38.16-.79.3-1.43a22.63,22.63,0,0,0-8.14,9.07C30.5,16,32.73,21.93,36.91,27.48c.65.87,2.16,1.23,3.34,1.55a18.12,18.12,0,0,0,8.2-.08c3.45-.67,7-1,10.46-1.41,0,.16.08.33.11.49-1.64.77-3.22,1.65-4.91,2.28-3.58,1.34-7.22,2.51-10.81,3.83a6.62,6.62,0,0,1-4.3.14c-2.27-.65-4.48-1.38-6.1-3.28l-.39.31,2,3.41-5.68-2-.27.27a17.29,17.29,0,0,0,4,4.43L29,35.93l-.23.42c2.64,2.86,6.24,4.34,9.58,6.16a31.57,31.57,0,0,0,10.75,3.7l-4.88,5.2.27.29,1.76-1.36.11.11-1.08,1.83.85-.25c-.3,1.52-.75,2.76-2.63,2.67a1.71,1.71,0,0,0-1.68,1.21A34,34,0,0,1,32,68.54c-1.39,1.13-1.71,2.11-1,3.8a5.16,5.16,0,0,1,.24,3.4c-.18.74-.16,1.52-.35,2.25a11,11,0,0,1-.93,2.65c-1.36,2.37-3.13,4.54-4.2,7-2.37,5.55-4.43,11.22-6.57,16.87-.57,1.49-1,3-1.43,4.56a.81.81,0,0,0,.21.78,4.49,4.49,0,0,0,.46-.88,121.58,121.58,0,0,1,7.91-20.83c1-2,2.09-4,3.26-6a7.16,7.16,0,0,1,1.75-1.55l8.74-7a6.26,6.26,0,0,0,.72-.92l-9.11,3c.39-.51.57-.93.89-1.12,1.15-.69,2.35-1.29,3.53-1.93,1-.53,1.94-1.14,3-1.58A3.94,3.94,0,0,1,41,70.7a25.09,25.09,0,0,1,7.52,1.94A39.43,39.43,0,0,1,58,78.58a7.56,7.56,0,0,1,.86,1h0c2.14,1.79,3.94,3.82,4.44,6.68.24,1.35.39,2.71.59,4.06l-.49.18L61.15,86l-.39,0c-.19,1.21-.38,2.41-.57,3.61h-.3c0-1.76-.07-3.51,0-5.26.07-1.34-.69-2-1.82-3A13.84,13.84,0,0,1,58,88.86a25.52,25.52,0,0,1-1.06,2.84c-.39.92-.95,1.59-2.14,1.07a1.6,1.6,0,0,0-1.2.17l4.92,2.19c-3.56.66-6.7,1.73-8.89,5,.39-.06.6-.08.81-.13a1.35,1.35,0,0,1,.93,0c-1.21,1.56-2.44,3.12-3.64,4.7-2.76,3.66-5.6,7.26-8.22,11-2.34,3.35-2.24,3.25-6.3,3.46-4.38.22-7.78-2-11.11-4.19-1.13-.75-1.45-2.7-2.34-4.47,0,.93.08,1.57.12,2.28-1.24-.23-1-2.62-2.89-2,.2-.87.37-1.63.54-2.39l-.27-.09L16,112.42c2.13.92,2.66,2.93,3.48,4.9a16.85,16.85,0,0,0,3.26,4.4,2.65,2.65,0,0,1,.65,2.69c-.53,3.07-1.56,6.28.36,9.33a1.54,1.54,0,0,1-.1,1.26c-1.21,2.21-2.41,4.43-3.76,6.56-1,1.64-1.06,3,.29,4.48a31.33,31.33,0,0,1,2.63,3.66,1.07,1.07,0,0,1,.07.78,14.46,14.46,0,0,1-.77,2.66,2.83,2.83,0,0,0,.34,2.93,32.67,32.67,0,0,0,9.24,9.71l11,7.55c.45.31,1,.51,1.41.83,3.05,2.23,6.25,1.55,9.49.53,1.63-.52,3.28-1,5.22-1.53.63,2.38,1.3,4.74,1.88,7.12a41.73,41.73,0,0,1,.7,17.14c-.48,2.81-2.52,4.05-4.58,5.25-.59.34-1.79-.22-2.64-.53-3.86-1.44-7.69-3-11.55-4.39-1.18-.43-2.41-.7-3.63-1-1.47-.41-2.94-.84-4.43-1.2a13.07,13.07,0,0,0-2.36-.36,40.62,40.62,0,0,0-6-.18c-2.43.23-4.82.85-7.11,1.29,0,.38,0,.69-.08.85-1.1,1.32-2.36,2.17-4.23,1.59-.93-.29-1.94-.3-2.89-.57a21.6,21.6,0,0,1-2.28-1c-.64-.27-1.29-.51-2.28-.89l3.15,2.86c-4.9,0-7-3.16-8.81-6.86l-.39.34.81,2-.25.16a14,14,0,0,1-1.11-1.77c-.28-.63-.4-1.33-.71-2,.71,4.53,1.63,9,5.59,12.06l-.29.27-2.46-2-.22.11L3.94,204l-1.84-.65-.18.31c1,.65,1.94,1.38,3,1.93S7.06,206.45,8.37,207Zm17.81-53.14c-2.54-3.83-2.17-4.67,0-8.49Zm9-118.07-.18.36-1.62-.43-.15.17L34.64,37c-1.5.26-2-.14-4.62-3.37,1.06.37,2,.63,2.86,1S34.41,35.37,35.19,35.76Zm3-.63-1,1.27-2.35-2.15L35,34Zm156.48,170.4c-1.84-1.17-5-8.87-4.43-10.74C190.61,198.83,193,201.89,194.71,205.52Zm-58.27-14.8,3,.37c0,.22,0,.44,0,.66a20.27,20.27,0,0,1-2.41.18C136.91,191.92,136.76,191.35,136.44,190.72ZM109.81,219.8c.63-.39,1.65-.66,1.82-1.21.47-1.47,1.57-.86,2.42-1,2.31-.36,4.63-.6,6.93-1a1.41,1.41,0,0,0,1.28-2l1.6.94a5.77,5.77,0,0,0-.6-.76,33.81,33.81,0,0,0-8.78-5.35c-1.62-.69-3.33-1.17-4.92-1.91a3.77,3.77,0,0,1-1.36-1.63c-.1-.17.34-.65.54-1l.32,0c-.16,1.35.79,1.76,1.71,2.19,3.05,1.45,6.39,2.33,9.1,4.48q2.3,1.83,4.56,3.7c.22.18.72.58-.1.68.21.25.43.51.64.77,1.54,1.94,1.46,3.12-.41,4.67a3.59,3.59,0,0,1-1.54.72c-3,.63-6,0-9-.72.13-.63.24-1.15.36-1.7l-.65.07.15-.56a2.82,2.82,0,0,0-1,1c-.45.69-.43.69-1.12.17.3-.49.59-1,.89-1.46l-.28-.37-2.36,1.4Zm11.68-5.59c-1.17-.28-2.37-.62-3.6-.84s-2.47-.33-3.71-.48C118.08,211.78,119.45,212.08,121.49,214.21Zm-26.88-.62c-.07-.42.51-1,.91-1.41a1.92,1.92,0,0,1,.94-.33c5.88-1.35,10.9,1.2,14.76,6.82-1.92,0-3.84.07-5.75,0a4.88,4.88,0,0,1-1.93-.85c-.91-.51-1.72-1.2-2.66-1.64-1.58-.74-3.11-1.64-5-1.46A1.7,1.7,0,0,1,94.61,213.59ZM31.12,135.4q-1.25,4.27-2.49,8.54l-.37-.11A13.24,13.24,0,0,1,31.12,135.4ZM57.77,97.76l-2.5,1.3C55.66,97.56,56.64,97.53,57.77,97.76Zm5.49-.08-1.23,2-.34-1.2c-.66,1-1.18,1.82-1.71,2.61-.16.24-.33.6-.53.63-2.21.36-3.21,2.09-4.39,3.62l.3.36,3.4-2.77a1.42,1.42,0,0,1-.37,1,36.1,36.1,0,0,0-6.9,10.18,12.3,12.3,0,0,1-2.29,2.48c-.79-3.95.81-7,1.67-10.33a40.66,40.66,0,0,0-3,4.52c-.94,1.59-1.84,3.19-2.88,5a16.61,16.61,0,0,1,3.11-8.16,20,20,0,0,1,3.69-4.56,54,54,0,0,1,7.58-5c1.09-.61,2.55-.56,3.85-.81ZM64.57,48a15.34,15.34,0,0,0-3.3,4.38c-.21.4-.67.66-1,1L59.85,53l4.56-5.92c-1.15.54-1.57,1.75-2.94,1.7-.54,0-1.11,1.07-1.78,1.77.19-3.39.74-6.6,3.51-9.07l1,2.76c.09,0,.54.05.69.28A3.11,3.11,0,0,1,64.57,48ZM64,52.94c-.21,1.81-.38,3.28-.56,4.75C62.24,56.3,62.43,55,64,52.94Zm3.23-8.45-.31,0c-.25-1.4-.78-2.78,0-4.23ZM67.36,52a16.93,16.93,0,0,0-.63,2c-.18,1.15-.25,2.31-.31,3.47s-.07,2.51-.1,3.77l-.33,0c-1.34-4.55-2-9.09.35-14-.18,1.46.51.71.79.74A4.47,4.47,0,0,1,67.36,52Zm2.22-6.17-.4.1-1-3.08.67-.2C69.1,43.69,69.33,44.74,69.57,45.81Zm.31,17.29c-1.36-1.7-1.9-7.26-1-9.1l.71,1.36.68-.45C71.34,57.78,70.09,60.4,69.89,63.1Zm5,27.62c-.72-.71-1.32-1.24-1.83-1.83-5.37-6.2-12.15-10.57-19.17-14.56-3.46-2-7.17-3.5-10.82-5.11a8,8,0,0,0-3.28-.71c-2.46,0-4.93.3-7.47.48.25-.23.54-.46.8-.72,2-2,4.11-4,5.9-6.17a33.72,33.72,0,0,0,3.38-5.57c.46-.87.92-1.53,2-1.31s2.16.59,3.25.87a69.45,69.45,0,0,1,14,5.9c2.08,1.07,4,2.21,4.91,4.6a9.36,9.36,0,0,0,1.48,2.07l.37-.17-.09-1.87.3-.15,2.4,3.6c.16-.54.25-.86.38-1.3l2.4,2.3a2.64,2.64,0,0,0-1.14,2.56,13.3,13.3,0,0,0,1.79,7.76c1.38,2.08.55,4.38,1.3,6.49C76,88.57,75.27,89.64,74.92,90.72Zm-8.69-3.18c.15,2,.31,3.92.46,5.87C65.69,92.79,65.69,92.79,66.23,87.53Zm2.34,2.92L67,85.87A5,5,0,0,1,68.57,90.46ZM82.28,94a9.91,9.91,0,0,1,5.07-.1c-3.24,3.8-3.93,8.53-5.87,12.76v-2.17a10,10,0,0,0-.82.69c-.72.77-1.38,1.59-2.13,2.31-1.62,1.56-3.4,3-5.7,3.27-1.1.15-2.57.26-3.34-.32a5.26,5.26,0,0,0-5.45-.9c-.19.08-.42.07-.61.16a1.88,1.88,0,0,1-2.41-.83,3.3,3.3,0,0,1-.57-3.55c1.45-2.78,3-5.54,4.58-8.22a2.71,2.71,0,0,1,1.79-.89c3.41-.5,6.82-.86,10.23-1.36,1.29-.19,2.55-.63,3.84-.89C81.33,93.88,81.87,94.16,82.28,94Zm2-1.07c-.31,0-.63,0-1-.05l1.19-3.42.9,1.44c.06-1.26.11-2.55.18-3.85l.5,0c.13,1.13.21,2.26.4,3.38C86.89,93,86.91,92.94,84.31,92.94Zm4,.26c-1.09-.35-1.53-1.39-1.41-3.36Zm.82-.06-.31.07-1.09-4.4.36-.06Q88.66,91,89.18,93.14Zm23,59.78,6.94,5.52-.34.45L108,151.83l1.3-.43c-.08-.55-.15-1-.25-1.71,3.63,1.11,6.41,3.24,9.23,5.36l-6-2.38C112.26,152.74,112.23,152.83,112.2,152.93Zm4.75-2-4.56-1.29c0-.15.08-.3.11-.45l4.6,1.13C117,150.56,117,150.76,116.94,151Zm-14.47-30.65c-1.62,1.64-3.05,3.45-5.61,3.92.19-2.4.19-2.4-2-4C97.56,120.09,100,121.88,102.47,120.32Zm-3.71-2.72-.55-.12.42-3.16C98.79,115.43,99.86,116.62,98.76,117.6ZM93.54,120c0-.18-.05-.35-.08-.53l4.23-.83c0,.1,0,.21.06.31Zm7.35,14.39c-1-1.33-2-2.61-3.11-4a40,40,0,0,1,10.56,7.9l-2.78,1.62c-.86-.63-1.61-1.1-2.26-1.69-.49-.44-1.3-1.15-1.2-1.52C102.47,135.44,101.4,135.1,100.89,134.41Zm7,16.56c-1.94.79-3.9,1.5-5.72,2.19a86.31,86.31,0,0,1-.86-9.51c.05-3.65-2.14-5.85-4.22-8.28-1.74-2-3.33-4.21-5-6.35a6,6,0,0,1-.48-1.32,6.87,6.87,0,0,1,1,.5q4,3.31,7.9,6.66a1.27,1.27,0,0,1,.33.51c.25.7.48,1.41.69,2l-.83-.08c.78.85,1.27,1.85,1.9,1.94a2.74,2.74,0,0,1,2.26,2.07c1.13,2.93,2.18,5.89,3.22,8.86C108.15,150.39,108,150.9,107.85,151ZM93.13,125.91l-.37-.42,1.67-1.54.43.48Zm-3.49-4.66a4.19,4.19,0,0,1,6.22,1.21C93.07,123.5,91.23,123.16,89.64,121.25Zm7.12-22c1.17.52,2.32,1.08,3.77,1.76l-2.68-2.54.23-.36c.51.14,1,.25,1.53.41,1.1.35,2.2.72,3.29,1.09l3.12,2-5.84,4.61,1.89-4.11-.68-.53a10,10,0,0,1-.65,1.21c-2.32,3.09-4.67,6.16-7,9.27a1.57,1.57,0,0,1-1.74.82,1.27,1.27,0,0,1-1.18-1.35,8.68,8.68,0,0,1-.08-2.49c.57-2.7,1.17-5.42,1.94-8.07S94,98,96.75,99.2Zm5.69-12.74,2.11-13.25c5.2,3.77,9.78,8.14,13,14l-8.91-.41,2.51-3.47-.25-.42C107.74,83.25,105.16,85.32,102.44,86.46Zm10,23.71c0-1.37,0-2.89,0-4.41a6.54,6.54,0,0,0-4.15-6,4.2,4.2,0,0,1-1.64-1.38c-1.13-1.52-2.15-3.11-3.21-4.68-.29-.43-.54-.88-.92-1.52,2.72.17,5.05.67,6.17,3.08a3.61,3.61,0,0,1-.85,3.83c3.37-1.77,5.32.08,7.05,2.86.09-.63.14-1,.19-1.36C116.74,103.2,115,108.95,112.4,110.17Zm9.76-3.71-.28.12-1.46-3.26.32-.17ZM126,147.69c.62,1.82,1.24,3.64,2,5.72l-12.64-5.91,5.7-.69c-2-1.44-3.89-1.49-5.83-1.5h-6.11a11.23,11.23,0,0,1,1.89-1.13c1.1-.39,1.11-.91.5-1.76-.3-.42-.72-1.1-.57-1.42a1.37,1.37,0,0,0-.48-1.77c-3.15-3-6.18-6.08-10-8.18a14.27,14.27,0,0,1-1.2-.81c1.33-.87,2.51-1.59,3.63-2.4s2.45-1.38,3.15-3.14a14.2,14.2,0,0,1-7.76,1.85l10.86-9.5,4.48,11.36.36-.13-.77-2.67,1.45,2.14.26-.17a153.72,153.72,0,0,1-9.59-20.46l-1.46,1.29a3,3,0,0,1,.51-3.38c.92-1.18,1.91-2.3,3-3.55l-4.41-2a7.05,7.05,0,0,0-1.78-1c-2.4-.58-2.16-2.63-2.57-4.33l1.1,2.54c-.39-1.81-.69-3.77-1.77-5.11-1.57-2-2.09-4.18-2.73-6.42a12.32,12.32,0,0,1,0-3c2.47,1.3,4.26,2.72,4.91,5.28.39,1.52.53,3.22,2.16,4.12,0,0,0,.14,0,.19l-2.7.69a3.39,3.39,0,0,0,.37.3,2.1,2.1,0,0,0,.48-.1,1.73,1.73,0,0,1,2.48.9c.64,1.17,1.5,2.23,2.26,3.34,1.54,2.25,2.82,4.58,2.59,7.41l-2,.56c0,.07,0,.13.07.19l2.82-.25-.82,1.72a2.89,2.89,0,0,1,.56.74c1.82,4.15,3.5,8.37,5.46,12.45,1.25,2.6,2,5.51,4.38,7.5l-.45.49h0c-1.49,2.29-2.67,2.52-4.59.75,0,1.2.49,1.93,1.56,2a3.92,3.92,0,0,0,3.39-1.85c.77-1,.26-1.57-.3-2.53-1.91-3.31-3.51-6.79-5.23-10.19a1.51,1.51,0,0,1,.39-2c1.71-1.49,3.39-3,5.17-4.43a2.34,2.34,0,0,1,1.85-.3c2.75.81,5.7.86,8.2,2.62,1.3.92,3,1.25,4.53,1.86a12,12,0,0,1,7.9,9.7c.63,4,.83,8-.95,11.77-.44.95-.59,2-1,3-1.65,3.5-3.28,7-5.08,10.43-.91,1.73-1,1.57-2.74.72-1.41-.69-2.93-1.17-4.4-1.75Zm-6.26,6.36a19.4,19.4,0,0,1,7.26,6.07C124.22,158.66,121.11,157.57,119.77,154.05Zm-9.3,7.76A30.85,30.85,0,0,1,122,163.29c1.87.6,2.54,2,3.46,3.66Zm.33,15.67a13.17,13.17,0,0,1,.36-3.1c.19-.56,1.05-.9,1.61-1.34l.2.27-.37.66c.37,0,.66.08.86,0,.92-.46,1.81-1,2.71-1.46.77,2.07.62,4.07-.71,9ZM105.25,173c.18-2.37.4-5,.56-7.53a8.16,8.16,0,0,0-.26-1.67c3.2,3.06,6,7.81,4.9,12.38Zm-.18-11.74,3.06,1.28C107,162.51,105.47,163.22,105.07,161.3Zm-4.35,13.35c.9-2.22,1.85-4.32,2.59-6.49a28.45,28.45,0,0,0,.77-4.07,14.93,14.93,0,0,1,.47,8.4C103.87,175.31,104.31,175.93,100.73,174.65Zm-18.26-2.49,17.76-11.62c-.39,1.77,0,3.71-1.61,5a20,20,0,0,0-2.07,1.84c-2.46,2.56-5.69,3.7-9,4.62a29,29,0,0,1-5,.52Zm-7.23-2.83,5-2.1C78.68,169.93,77.29,170.45,75.23,169.32Zm-21.05-23.4c-4.57-5.89-4.93-13.25-.57-19.1,1.07-1.43.66-2.77.21-4.26.08,2.08-1.35,3.32-2.37,4.81-2.11,3.09-4.1,6.26-6.1,9.42a2,2,0,0,0-.19,1.19c.31,2.9.66,5.8,1,8.69l-.22.13-6.15-12.37a62.14,62.14,0,0,0,.33,13.4l-1-1.33c-1.08,2.73.34,7.85,2.68,9.68.12-1.76.24-3.48.36-5.19l.3,0,4.8,5.95-.4.42-4.26-3.12-.3.13c.42,2.77.88,5.53,3.08,7.79a33.63,33.63,0,0,1-4.57-.43c-5.9-1-7.21-2.06-8.56-7.47a29.93,29.93,0,0,1-.88-11c.45-3.49,1.06-7,3-10.07.84-1.31,1.73-2.59,2.69-3.82,3.27-4.23,6.45-8.54,11.21-11.3,1.67-1,3.34-2,5.08-2.81,3.12-1.51,6.28-2.9,9.43-4.35.06.11.12.24.18.36-1.38,1-2.8,2-4.12,3s-2.51,2.28-3.75,3.43l.1.05,11.68-8,2.49,2c5.29,4.33,10.77,8.45,15.78,13.07,3.31,3.06,6,6.84,8.86,10.33a19.12,19.12,0,0,1,2.25,3.11c1.51,2.81,3,5.63,4.26,8.57a6.23,6.23,0,0,1,.29,4.23c-.79,2-2.26,3.71-3.45,5.54-.17.26-.36.49-.54.75l.21.22,4.49-3.36a5.33,5.33,0,0,1-2.86,4.4,70.77,70.77,0,0,0-11.81,7.92c-1.62,1.25-3.07,2.73-5.25,3.11,2.9-3.36,6.15-6.37,8.68-10.44-1.52.2-2.63.45-3.75.48-5.46.12-10.93.21-16.39.22a3.78,3.78,0,0,1-2.16-.77A76.89,76.89,0,0,1,54.18,145.92ZM27.07,206l1,0c.24-.58.48-1.17.74-1.73a.5.5,0,0,1,.36-.27c.75,0,1-.53,1.41-1,1.11-1.4,2.32-2.72,3.53-4a.93.93,0,0,1,.69-.2,30.14,30.14,0,0,1,4.5.36,41.48,41.48,0,0,1,11.1,4.58l-14.06,3a1.92,1.92,0,0,1-.62,0c-1.81-.22-3.61-.5-5.42-.66-.74-.06-1.49,0-2.23,0l-.23.54Z"/><path class="cls-2" d="M151.23,187.43c3.12.3,6.23.64,9.36.88,1.79.14,3.6,0,5.38.17,1.23.11,2.44.49,3.71.65-1.24-.46-2.49-.89-3.71-1.4-2.27-.94-4.52-2-6.8-2.86a6.48,6.48,0,0,0-1.75-.17l-10-.93-.06.33,3.53.53,0,.16-8.12-.36v.28l6,.43v.1h-3.56v.19c1.74.08,3.48.09,5.21.26,2.75.27,5.54,1.12,8.22.85,2.46-.25,4.24,1,6.32,1.55l-13.67-.94Z"/><path class="cls-2" d="M45.49,98.35l8.4-4.12c-.53-.55-3.28-.9-4.87-.35-2,.7-2.77,2.6-3.8,4.21Z"/><path class="cls-2" d="M39.52,110.62l8.41-7.7C44.26,103.09,39.79,107.74,39.52,110.62Z"/><path class="cls-2" d="M188.92,168.83a11,11,0,0,1-2.91-1.21c-2-1.61-4.5-1.61-6.71-2.52a.64.64,0,0,0-.36-.09c-.3.09-.58.23-.87.34.16.26.26.7.48.77,3,1,6,1.91,9.05,2.85l1.13.34Z"/><path class="cls-2" d="M159.24,189.18c-7.55-.63-15.16-1.3-22.78-1.49l0,.68Z"/><path class="cls-2" d="M188.14,172.2l-11.53-4c.25.87,9.28,4.62,10.73,4.78.26,0,.55-.18.82-.27Z"/><path class="cls-2" d="M188.3,171.21c-.37-1.2-8.21-4.41-11.11-4.55C177.81,167.72,184.52,170.47,188.3,171.21Z"/><path class="cls-2" d="M147,167.46a154.69,154.69,0,0,1,6.86-24.85A97,97,0,0,0,147,167.46Z"/><path class="cls-2" d="M165.07,118.71c3.65,1.28,7.3,2.55,10.93,3.86,2.45.88,4.87,1.84,7.31,2.76a2.12,2.12,0,0,0,1.24.17c-1.18-.53-2.33-1.15-3.54-1.59q-7.23-2.62-14.49-5.13a5.13,5.13,0,0,0-1.45-.07Z"/><path class="cls-2" d="M165.07,118.71c-1.81,3.55-3.63,7.09-5.42,10.65a37.29,37.29,0,0,0-2.14,5.07l8-14.93-.46-.79Z"/><path class="cls-2" d="M216.23,148.1l10.93,7.35.28-.43c-3.53-2.62-7-5.34-11-7.26Z"/><path class="cls-2" d="M124.8,184.07c.82.12,1.63.29,2.46.36q6.51.55,13,1c.68.05,1.37,0,2.06,0v-.31l-4.39-.33c-4-.29-7.93-.59-11.9-.87a7.85,7.85,0,0,0-1.25.12Z"/><path class="cls-2" d="M144.16,186.67c-4.6-.06-9.2-1.1-13.83,0Z"/><path class="cls-2" d="M41.59,101.35l3.79-4.81C43.24,97,41.27,99.45,41.59,101.35Z"/><path class="cls-2" d="M156.66,190.57l-14-.89,0,.34,13.95.9Z"/><path class="cls-2" d="M177.81,192.44l-12.2-1.36,0,.34,12.2,1.36Z"/><path class="cls-2" d="M163.38,189.61l7.39.78,0-.46-7.44-.71Z"/><path class="cls-2" d="M58.8,79.57l.06.06-2-1.13-.26.36,3.29,2.77.27-.23Z"/><path class="cls-2" d="M21,110.17l1.16,3.9A3.6,3.6,0,0,0,21,110.17Z"/><path class="cls-2" d="M122.21,186.87l-3.7-1.6C118.41,185.89,119.74,186.55,122.21,186.87Z"/><path class="cls-2" d="M195.35,130l-4.44-1.85-.11.26,4.4,1.86Z"/><path class="cls-2" d="M84.26,36.27l-.43-.63L84.2,35,85,33.71c-1.3-.91-4.25,0-6.54,2.41l-.39.42Zm-2.14-.84h0c-.16.09-2.64,1.49-2.32.46s3.39-1.83,3.58-1.88C80.66,35.38,82.12,35.43,82.12,35.43Z"/><path class="cls-2" d="M97,35.26l0,0h3.41a5.53,5.53,0,0,0-2.14-1.41,1.91,1.91,0,0,0-1.74,0c.2.29.39.58.59.86l.11.16ZM98.05,35c.18-.08.34-.3-1-.9a6,6,0,0,1,2.12.79A2.09,2.09,0,0,1,98.05,35Z"/><path class="cls-2" d="M51.33,123.61c-2.83,1.26-6.44,6.62-6.25,9.17C47.23,132,51.45,125.82,51.33,123.61Z"/><path class="cls-2" d="M55.46,119.46c-.75,1.49-.63,4.5.14,5.42C56.16,123.08,55.64,121.45,55.46,119.46Z"/><path class="cls-2" d="M57.13,122.34l.81-3.49-.56-.14-.85,3.48Z"/><path class="cls-2" d="M124.42,145.72c-2.65-1.48-5.38-1.4-8.26-1.45C117.33,145.38,122.83,146.36,124.42,145.72Z"/><path class="cls-2" d="M97,87.68l2.08.76V86.69l-2,.16Z"/><path class="cls-2" d="M117.69,127.67c-.91-1-1.75-.1-2.56.17-.43.14-.7.72-1.05,1.11l.24.33,3.35-1.59Z"/><path class="cls-2" d="M102.22,35.1a6.2,6.2,0,0,0,1.55-3.24,1.51,1.51,0,0,0-.27-.61l-.14,0C104.21,32.89,102.86,33.86,102.22,35.1Z"/><path class="cls-2" d="M102.19,50.1l-.42,1.84,0-.08c.23-.78.42-1.51.57-2.2A3.22,3.22,0,0,0,102.19,50.1Z"/><path class="cls-2" d="M85.52,55.74a1.32,1.32,0,0,0-.24-.13Z"/><path class="cls-2" d="M85,49.61c.19.28.25.37.19.22A.64.64,0,0,0,85,49.61Z"/><path class="cls-2" d="M75,35.71s2.23,5.23,6.49,3.47,3.19-3.33,4.23-4.2c.31-.27-.42-.18-1.55,0l-2.08.42h0c-.16.09-2.64,1.49-2.32.46-.52.1-1,.17-1.35.22-.66.07-1,0-.65-.24.15-.12,5.81-5.23,10.22-4.32,0,0-5.21-2.69-11.25,4.15C76.77,35.71,75.24,35.92,75,35.71Z"/><path class="cls-2" d="M97.06,34.77a5.48,5.48,0,0,1-.83-.39l.74.88,0,0c1.3,1.54,3.79,4.5,3.88,4.67a3.17,3.17,0,0,0-.83-3.35c-1.43-1.13,1.62-.37,1-1.93s-5-4.38-5.28-4.05,0,1.32,2.44,3.24c.36.28.77.57,1.23.89a1,1,0,0,1-.28.16,2.09,2.09,0,0,1-1.1.11h0A4.07,4.07,0,0,1,97.06,34.77Z"/><path class="cls-2" d="M97.94,35.06s.21.11.46.22c.49.21,1.2.45,1,0a0,0,0,0,0,0,0,.81.81,0,0,0-.28-.34,2.09,2.09,0,0,1-1.1.11h0Z"/></g></g></g></g></svg>