<svg id="Calque_1" data-name="Calque 1" xmlns="http://www.w3.org/2000/svg" xmlns:xlink="http://www.w3.org/1999/xlink" viewBox="0 0 1519 211.84"><defs><style>.cls-1{fill:none;}.cls-2{clip-path:url(#clip-path);}.cls-3{fill:#f2f2f2;}.cls-4{clip-path:url(#clip-path-2);}</style><clipPath id="clip-path"><rect class="cls-1" y="456" width="1519" height="269.84"/></clipPath><clipPath id="clip-path-2"><rect class="cls-1" x="0.15" y="0.24" width="1519" height="211.93"/></clipPath></defs><title>grey-wave-top</title><g class="cls-2"><path class="cls-3" d="M-15.72-163q3.11-7.43,6.2-14.65,4.81-11.24,9.51-22c1.39-3.18,2.78-6.31,4.14-9.44C19.47-243.9,33.8-274.68,46-300c22.48-46.74,66.13-76.15,113.86-76.71L430.44-380h2.85l23.2-.28,19.84-.23,60.8-.78h2.46l31-.37h.94l190.94-2.3,170.42-2,19.83-.24,123.12-1.48h.2l79.85-.95h.86l252.49-3,75.54-.92a142.44,142.44,0,0,1,19.25,1.07h0q3.27.42,6.51,1c35.23,6,67.53,25.29,91.53,54.55,32.49,39.85,56.13,86,72,136.28q3.45,10.88,6.43,22c55,206.36-12,472.47-132.67,650.5q-7.59,11.17-15.42,21.79l-.13.16c-37.09,50.54-78.69,92.77-123,122.79-78.52,53.3-165.51,68.31-251.07,23.57-72.39-37.87-140-55.67-205.51-60.51q-9.93-.7-19.83-1c-150.3-5.24-291.16,54.87-456.57,93.67-6.59,1.54-13.19,3.07-19.84,4.51-118,26.07-248.91,39.81-404.58,10.92A309.83,309.83,0,0,1,4.13,676q-10.3-3.69-19.85-7.92c-74.3-33.55-114.82-95.55-132-173.22q-2.44-10.81-4.23-22C-182.52,286-93.11,21-15.72-163Z"/></g><g class="cls-4"><path class="cls-3" d="M343,131c35.87,16.69,65.28,37.28,113.13,47,69.36,14.08,153.78-.09,210.92-22s97.17-50.91,151.16-74.29c154.93-67.12,418.11-77.39,611.41-32.13,27.6,6.47,54.43,14.1,73.93,24.67C1529,88,1539.84,105.51,1548,122.69c18.23,38.37,25.87,77.53,22.77,116.67-2.09,26.62-14.06,56.75-66.08,71.38-16.41,4.61-35.41,7.14-54.26,9.52C1171,355.06,874.54,352.63,583.8,347.4c-216.73-3.91-436-9.44-643-37.29-9.52-1.29-19.6-2.78-25.72-6.16-6.94-3.82-7.13-9.09-6.25-13.91,3-15.85,14.43-31.14,23.06-46.61C-50.27,211.23-44.51,178-51.06,145-56.83,115.84-95.62,91.15-15.55,83,110.12,70.16,256.51,90.79,343,131Z"/></g></svg>