<?xml version="1.0" encoding="utf-8"?>
<!-- Generator: Adobe Illustrator 24.0.1, SVG Export Plug-In . SVG Version: 6.00 Build 0)  -->
<svg version="1.1" id="Calque_1" xmlns="http://www.w3.org/2000/svg" xmlns:xlink="http://www.w3.org/1999/xlink" x="0px" y="0px"
	 viewBox="0 0 1519 154.8" style="enable-background:new 0 0 1519 154.8;" xml:space="preserve">
<style type="text/css">
	.st0{opacity:0.1;fill:#FF7700;enable-background:new    ;}
	.st1{opacity:0.1;fill:#FF2F63;enable-background:new    ;}
	.st2{enable-background:new    ;}
	.st3{fill:none;stroke:#D1CED6;stroke-width:2;stroke-miterlimit:10;}
	.st4{fill:none;stroke:#D1CED6;stroke-width:2;stroke-miterlimit:10;stroke-dasharray:11.7475,11.7475;}
	.st5{fill:none;stroke:#D1CED6;stroke-width:2;stroke-miterlimit:10;enable-background:new    ;}
	.st6{fill:#3F3D56;}
	.st7{opacity:0.1;enable-background:new    ;}
	.st8{fill:#2F2E41;}
	.st9{opacity:0.4;fill:#FF7700;enable-background:new    ;}
	.st10{opacity:0.8;fill:#FF7700;enable-background:new    ;}
	.st11{fill:#FF7700;}
	.st12{fill:#FFFFFF;}
	.st13{fill:#3C3C3C;}
	.st14{fill:#FF2F63;}
	.st15{fill:#F2F2F2;}
	.st16{fill:#FFE9EE;}
	.st17{fill:#FF3363;}
	.st18{fill:#FFEDDE;}
	.st19{clip-path:url(#SVGID_2_);fill:#F2F2F2;}
</style>
<g>
	<defs>
		<rect id="SVGID_1_" width="1519" height="167.2"/>
	</defs>
	<clipPath id="SVGID_2_">
		<use xlink:href="#SVGID_1_"  style="overflow:visible;"/>
	</clipPath>
	<path class="st19" d="M-15.7-383.6c2.1-3.1,4.1-6.1,6.2-9.1c3.2-4.6,6.4-9.2,9.5-13.6c1.4-2,2.8-3.9,4.1-5.9
		c15.3-21.6,29.7-40.6,41.8-56.3c22.5-29,66.1-47.2,113.9-47.5l270.6-2h2.9l23.2-0.2l19.8-0.1l60.8-0.5h2.5l31-0.2h0.9l190.9-1.4
		l170.4-1.2l19.8-0.1l123.1-0.9h0.2l79.9-0.6h0.9l252.5-1.9l75.5-0.6c6.4-0.1,12.9,0.2,19.3,0.7l0,0c2.2,0.2,4.4,0.4,6.5,0.6
		c35.2,3.7,67.5,15.7,91.5,33.8c32.5,24.7,56.1,53.3,72,84.5c2.3,4.5,4.4,9,6.4,13.6c55,127.9-12,292.8-132.7,403.1
		c-5.1,4.6-10.2,9.1-15.4,13.5l-0.1,0.1c-37.1,31.3-78.7,57.5-123,76.1c-78.5,33-165.5,42.3-251.1,14.6
		c-72.4-23.5-140-34.5-205.5-37.5c-6.6-0.3-13.2-0.5-19.8-0.7c-150.3-3.3-291.2,34-456.6,58c-6.6,1-13.2,1.9-19.8,2.8
		c-118,16.2-248.9,24.7-404.6,6.8c-16.2-1.8-32.1-4.4-47.8-7.9c-6.9-1.5-13.5-3.2-19.8-4.9c-74.3-20.8-114.8-59.2-132-107.3
		c-1.6-4.5-3-9-4.2-13.6C-182.5-105.3-93.1-269.6-15.7-383.6z"/>
</g>
</svg>
