<?xml version="1.0" encoding="utf-8"?>
<!-- Generator: Adobe Illustrator 24.0.2, SVG Export Plug-In . SVG Version: 6.00 Build 0)  -->
<svg version="1.1" id="Calque_1" xmlns="http://www.w3.org/2000/svg" xmlns:xlink="http://www.w3.org/1999/xlink" x="0px" y="0px"
	 viewBox="0 0 1519 211.8" style="enable-background:new 0 0 1519 211.8;" xml:space="preserve">
<style type="text/css">
	.st0{clip-path:url(#SVGID_2_);}
	.st1{fill:#F8F9FA;}
</style>
<title>grey-wave-top</title>
<g>
	<defs>
		<rect id="SVGID_1_" x="0.2" y="0.2" width="1519" height="211.9"/>
	</defs>
	<clipPath id="SVGID_2_">
		<use xlink:href="#SVGID_1_"  style="overflow:visible;"/>
	</clipPath>
	<g class="st0">
		<path class="st1" d="M343,131c35.9,16.7,65.3,37.3,113.1,47c69.4,14.1,153.8-0.1,210.9-22s97.2-50.9,151.2-74.3
			c154.9-67.1,418.1-77.4,611.4-32.1c27.6,6.5,54.4,14.1,73.9,24.7c25.5,13.8,36.3,31.3,44.5,48.4c18.2,38.4,25.9,77.5,22.8,116.7
			c-2.1,26.6-14.1,56.7-66.1,71.4c-16.4,4.6-35.4,7.1-54.3,9.5c-279.4,34.8-575.9,32.4-866.6,27.1c-216.7-3.9-436-9.4-643-37.3
			c-9.5-1.3-19.6-2.8-25.7-6.2c-6.9-3.8-7.1-9.1-6.3-13.9c3-15.9,14.4-31.1,23.1-46.6c17.8-32.2,23.6-65.4,17.1-98.4
			c-5.8-29.2-44.6-53.8,35.5-62C110.1,70.2,256.5,90.8,343,131z"/>
	</g>
</g>
</svg>
