<?xml version="1.0" encoding="utf-8"?>
<!-- Generator: Adobe Illustrator 24.0.1, SVG Export Plug-In . SVG Version: 6.00 Build 0)  -->
<svg version="1.1" id="Calque_1" xmlns="http://www.w3.org/2000/svg" xmlns:xlink="http://www.w3.org/1999/xlink" x="0px" y="0px"
	 viewBox="0 0 1009 479" style="enable-background:new 0 0 1009 479;" xml:space="preserve">
<style type="text/css">
	.st0{opacity:0.1;fill:#FF7700;enable-background:new    ;}
	.st1{opacity:0.1;fill:#FF2F63;enable-background:new    ;}
	.st2{fill:none;stroke:#D1CED6;stroke-width:2;stroke-miterlimit:10;}
	.st3{fill:none;stroke:#D1CED6;stroke-width:2;stroke-miterlimit:10;stroke-dasharray:11.75,11.75;}
	.st4{fill:#3F3D56;}
	.st5{opacity:0.1;enable-background:new    ;}
	.st6{fill:#2F2E41;}
	.st7{opacity:0.4;fill:#FF7700;enable-background:new    ;}
	.st8{opacity:0.8;fill:#FF7700;enable-background:new    ;}
	.st9{fill:#FF7700;}
	.st10{fill:#FFFFFF;}
	.st11{fill:#3C3C3C;}
	.st12{fill:#FF2F63;}
	.st13{fill:#F2F2F2;}
	.st14{enable-background:new    ;}
	.st15{font-family:'OpenSans-Bold';}
	.st16{font-size:32px;}
</style>
<title>how-to-use-illustration</title>
<path class="st0" d="M288.8,439.6c-10.4,16-27.3,24.9-44.1,29.7c-13.2,3.8-27,5.5-40.7,4.9c-2.6-0.1-5.2-0.3-7.8-0.5
	c-6.6-0.7-13.2-1.9-19.7-3.5c-3.9-1-7.7-2.2-11.5-3.6c-13.3-4.8-25.8-11.6-37.1-20.2c-3.3-2.5-6.5-5.2-9.6-8
	c-5.2-4.8-10-9.9-14.4-15.4c-1-1.2-1.9-2.5-2.9-3.7l-0.4-0.5c-0.8-1-1.5-2-2.2-3c-1.2-1.7-2.6-3.3-4.1-4.8c-0.1-0.1-0.2-0.2-0.3-0.3
	c-0.3-0.3-0.5-0.5-0.8-0.7c-0.6-0.5-1.2-1-1.8-1.4c-2.9-1.9-6.3-3.1-9.7-3.6c-0.6-0.1-1.2-0.2-1.8-0.2l0,0c-0.8-0.1-1.7-0.1-2.5-0.1
	H77c-2.6,0-5.3,0.1-7.9,0.5c-4,0.6-8.1,1.5-12.2,2.2l0,0c-1.7,0.3-3.4,0.6-5.2,0.8l-0.4,0.1c-2.4,0.3-4.9,0.5-7.3,0.5
	c-5.6-0.2-11-1.7-15.9-4.4l-0.2-0.1l-0.3-0.2l-0.4-0.2c-0.7-0.4-1.4-0.8-2.1-1.3l-0.4-0.3c-0.7-0.5-1.3-0.9-2-1.4l-0.4-0.3
	c-0.7-0.5-1.3-1-1.9-1.6l-0.7-0.6c-0.6-0.6-1.3-1.2-1.9-1.9s-1.3-1.4-1.9-2.1l-0.8-1c-1.6-2-3.1-4.2-4.4-6.5
	c-0.1-0.1-0.1-0.2-0.2-0.4c-0.3-0.6-0.7-1.3-1-1.9l-0.4-0.7c-0.4-0.8-0.7-1.6-1.1-2.4c-0.1-0.1-0.1-0.2-0.1-0.4
	c-1.3-3.4-2.3-6.9-2.9-10.5c0-0.1,0-0.2,0-0.3c-0.2-1.1-0.3-2.3-0.4-3.5c0-0.5-0.1-1-0.1-1.5c0-0.1,0-0.3,0-0.4
	c-0.3-7.1,0.8-14.3,2.1-21.4l0.4-2.5c2.1-11.4,4.3-23.1,7.8-34.1c0-0.1,0.1-0.1,0.1-0.2c1.2-3.7,2.5-7.4,4-10.9
	c1.6-3.7,3.4-7.3,5.4-10.8c5.1-8.3,11.2-16,18.3-22.7c8.1-8.1,17.2-15.1,27-20.9c1.4-0.8,2.8-1.6,4.2-2.3l0.7-0.3
	c0.2-0.1,0.5-0.2,0.7-0.3l0,0l1.4-0.7l0.5-0.3l1-0.5l0.3-0.1l0.5-0.2l0.5-0.2c0.6-0.3,1.2-0.5,1.9-0.8c2.7-1.1,5.4-2.1,8.1-2.9
	c0.8-0.2,1.6-0.5,2.4-0.7c3.7-1,7.4-1.7,11.2-2.1c1.4-0.1,2.8-0.3,4.2-0.3c1.6-0.1,3.3-0.1,4.9,0c2.6,0.1,5.2,0.3,7.8,0.7
	c18.6,2.9,35.4,13,46.8,28c4.7,6.1,8.7,13.1,14.3,18.1c4.9,4.4,11.1,7,17.4,5.3c5.3-1.4,8.6-1.9,14-0.6c11.3,2.8,22,7.5,31.8,13.9
	l1.2,0.8c25.6,17.1,45.1,45.5,51.9,78.7c0.2,0.9,0.3,1.8,0.5,2.7C301.9,398.2,300.4,421.8,288.8,439.6z"/>
<path class="st1" d="M1003.7,372.4c-0.8,18.5-10.6,34.5-22.3,47.1c-9.2,9.9-20,18.3-31.9,24.8c-2.3,1.3-4.6,2.4-6.9,3.5
	c-5.9,2.8-12.1,5.2-18.4,7.1c-3.8,1.1-7.6,2.1-11.5,2.9c-13.6,2.8-27.5,3.5-41.3,2.1c-4-0.4-8-1-12-1.8c-6.7-1.3-13.4-3.2-19.9-5.5
	c-1.5-0.5-2.9-1.1-4.3-1.7l-0.6-0.2c-1.1-0.5-2.3-1-3.4-1.4c-1.9-0.8-3.8-1.4-5.8-1.9l-0.4-0.1l-1.1-0.2c-0.8-0.1-1.5-0.2-2.2-0.2
	c-3.4-0.1-6.9,0.6-10,2c-0.5,0.2-1.1,0.4-1.6,0.7l0,0c-0.7,0.3-1.5,0.7-2.2,1.1l-0.3,0.2c-2.3,1.3-4.4,2.8-6.4,4.4
	c-3.1,2.5-6.1,5.3-9.1,8l0,0c-1.3,1.1-2.6,2.3-3.9,3.3l-0.3,0.2c-1.9,1.5-3.9,2.9-6,4.1c-4.8,2.7-10.1,4.2-15.6,4.5h-0.2h-0.8
	c-0.8,0-1.6,0-2.5,0h-0.5c-0.8,0-1.6-0.1-2.4-0.2l-0.5-0.1c-0.8-0.1-1.6-0.2-2.5-0.4l-0.9-0.2c-0.9-0.1-1.7-0.3-2.6-0.6
	c-0.9-0.2-1.8-0.5-2.7-0.8c-0.4-0.1-0.8-0.3-1.2-0.4c-2.4-0.9-4.7-1.9-6.9-3.1l-0.3-0.2c-0.6-0.3-1.2-0.7-1.8-1.1
	c-0.2-0.1-0.4-0.3-0.7-0.4c-0.7-0.5-1.4-0.9-2.1-1.4c-0.1-0.1-0.2-0.2-0.3-0.2c-2.8-2.1-5.4-4.5-7.7-7.2c-0.1-0.1-0.1-0.2-0.2-0.2
	c-0.7-0.9-1.4-1.8-2.1-2.7l-0.8-1.2l-0.2-0.4c-3.8-5.8-6.5-12.3-8.9-18.8c-0.3-0.7-0.6-1.5-0.9-2.3c-4-10.6-7.9-21.3-10.4-32.3
	c0-0.1,0-0.1,0-0.2c-0.9-3.7-1.5-7.4-2-11.1c-0.5-3.9-0.8-7.8-0.8-11.8c0.1-9.5,1.5-19,4.1-28.2c2.8-10.8,7-21.3,12.4-31
	c0.8-1.4,1.6-2.7,2.4-4l0.4-0.6c0.1-0.2,0.3-0.4,0.4-0.6l0,0c0.3-0.5,0.5-0.9,0.8-1.3l0.3-0.5l0.6-0.9l0.2-0.3l0.3-0.5l0.3-0.5
	c0.4-0.6,0.8-1.1,1.2-1.6c1.7-2.3,3.5-4.5,5.4-6.5c0.6-0.6,1.2-1.2,1.7-1.8c2.6-2.7,5.4-5.2,8.4-7.4c1.1-0.8,2.2-1.6,3.4-2.4
	c1.4-0.9,2.7-1.7,4.1-2.5c2.2-1.2,4.5-2.4,6.9-3.3c17.1-7,36.2-7.2,53.5-0.6c7,2.7,13.8,6.4,21.1,7.8c6.3,1.2,12.8,0.1,17.4-4.4
	c3.8-3.8,6.3-6,11.5-7.6c10.9-3.4,22.2-5,33.6-4.6c0.4,0,0.9,0,1.4,0c30.1,1.2,60.7,14.8,83,38.9c0.6,0.6,1.2,1.3,1.7,1.9
	C994,331.4,1004.5,351.8,1003.7,372.4z"/>
<g>
	<path class="st2" d="M498.3,60.4c0,0.4,0,0.6-0.1,0.9c-0.1,1.7-0.2,3.4-0.3,5.1"/>
	<path class="st3" d="M497.2,78.1c-0.5,9.1-0.8,18.1-1,27.1c-0.3,15.3-0.2,30.4,0.4,45.1c1.5,36.3,6.3,69.9,12.2,101.5
		c7.2,37.9,16.4,73.4,27.9,103.5c1.7,4.3,3.4,8.5,5.1,12.7l0.8,1.9c0.3,0.7,0.6,1.4,0.9,1.9c0.6,1.4,1.2,2.6,1.8,3.9l0.7,1.5
		l1.3,2.7l0.4,0.8l0.7,1.4l0.7,1.4c0.8,1.6,1.6,3.2,2.4,4.8c3.3,6.4,7,12.7,11,18.8c1.1,1.7,2.3,3.3,3.5,4.9
		c4.9,6.8,10.4,13.1,16.7,18.8c2.1,1.9,4.3,3.6,6.6,5.3c2.6,1.8,5.2,3.5,8,5.1c4.2,2.3,8.6,4,13.2,5.2c29.2,7.6,61.7-8.4,91.1-45.9"
		/>
	<path class="st2" d="M705,395.7c1.2-1.6,2.4-3.2,3.5-4.9"/>
</g>
<path class="st2" d="M481.6,52.5c0.1,0.3,0,0.6,0.1,0.8c1.5,13.5,2.7,26.9,3.5,40.3c0.8,14.1,1.1,28,0.8,41.7
	c-0.8,33.7-5.2,65.5-11.1,95.6c-7.2,36.1-16.8,70.3-29,99.9c-1.8,4.2-3.6,8.4-5.5,12.5l-0.9,1.9c-0.3,0.6-0.6,1.3-0.9,1.9l0,0
	c-0.6,1.3-1.3,2.6-1.9,3.9l-0.7,1.5l-1.4,2.7l-0.4,0.8l-0.7,1.4l-0.7,1.4c-0.9,1.6-1.7,3.2-2.7,4.8c-3.7,6.6-7.7,12.9-12.1,19.1
	c-1.2,1.8-2.5,3.4-3.8,5.1c-5.5,7.3-11.7,13.9-18.5,20c-2.4,2.1-4.9,4.1-7.4,5.9c-2.9,2.1-6,4.1-9,5.9c-4.8,2.8-9.8,5.1-15,6.9
	c-35.9,12.6-77.1,0.3-114-35.7"/>
<ellipse class="st4" cx="166.3" cy="439.8" rx="117" ry="15.9"/>
<ellipse class="st5" cx="166.3" cy="439.8" rx="98.3" ry="13.4"/>
<rect x="109.9" y="273.6" class="st6" width="130.2" height="151.5"/>
<rect x="96.8" y="258.6" class="st4" width="156.5" height="53.8"/>
<rect x="96.8" y="322.4" class="st4" width="156.5" height="53.8"/>
<rect x="96.8" y="386.3" class="st4" width="156.5" height="53.8"/>
<rect x="212" y="268" class="st7" width="10" height="10"/>
<rect x="226.4" y="268" class="st8" width="10" height="10"/>
<rect x="240.8" y="268" class="st9" width="10" height="10"/>
<rect x="212" y="331.2" class="st7" width="10" height="10"/>
<rect x="226.4" y="331.2" class="st8" width="10" height="10"/>
<rect x="240.8" y="331.2" class="st9" width="10" height="10"/>
<rect x="212" y="394.4" class="st7" width="10" height="10"/>
<rect x="226.4" y="394.4" class="st8" width="10" height="10"/>
<rect x="240.8" y="394.4" class="st9" width="10" height="10"/>
<g id="Symbole_23_1">
	<path id="Tracé_3456" class="st10" d="M134.1,295.6c0.2-0.1,0.4-0.1,0.6-0.1h1.5c1.3,0,2.6-0.2,3.8-0.7c1.1-0.4,2.1-1.1,2.8-2.1
		c0.7-1,1.1-2.2,1.1-3.5c0.1-1.2-0.3-2.5-1-3.5c-0.7-0.9-1.6-1.7-2.7-2.1c-1.2-0.5-2.5-0.7-3.8-0.7H131c-0.3,0-0.7,0.1-1,0.3
		c-0.2,0.2-0.3,0.5-0.3,0.8v17c0,0.1,0,0.3,0.1,0.4c0.1,0.1,0.3,0.1,0.4,0.1h3.2c0.1,0,0.3,0,0.4-0.1c0.1-0.1,0.1-0.4,0.1-0.4V296
		C133.9,295.8,134,295.7,134.1,295.6z M136.4,286.4c0.8-0.1,1.7,0.2,2.3,0.8c0.6,0.6,0.9,1.4,0.8,2.2c0,0.8-0.3,1.5-0.9,2
		c-0.6,0.5-1.4,0.8-2.2,0.8h-2.1c-0.2,0-0.4-0.1-0.4-0.3c0,0,0-0.1,0-0.1v-5c0-0.1,0-0.2,0.1-0.2c0.1-0.1,0.2-0.1,0.4,0L136.4,286.4
		z"/>
	<path id="Tracé_3455" class="st10" d="M148.1,286.3c0.6,0,1.2-0.3,1.7-0.7c0.5-0.4,0.7-1,0.7-1.6c0-0.6-0.3-1.2-0.7-1.7
		c-0.9-0.9-2.4-0.9-3.4,0.1c-0.4,0.4-0.6,1-0.6,1.6c0,0.6,0.3,1.2,0.7,1.6C146.9,286,147.5,286.3,148.1,286.3z M150.1,301.1
		c0.1-0.1,0.2-0.3,0.1-0.5v-11.4c0-0.3-0.1-0.6-0.2-0.8c-0.2-0.2-0.5-0.3-0.8-0.3h-1.9c-0.4,0-0.7,0.1-1,0.4c-0.2,0.3-0.3,0.7-0.3,1
		v10.8c0,0.3,0.1,0.5,0.2,0.7c0.2,0.1,0.4,0.2,0.7,0.2h2.8C149.8,301.3,149.9,301.2,150.1,301.1z M167.7,301
		c0.2-0.2,0.3-0.5,0.4-0.7l3.8-11.6c0.1-0.1,0.1-0.3,0-0.4c-0.1-0.1-0.4-0.1-0.4-0.1h-3.1c-0.2,0-0.4,0.1-0.5,0.1
		c-0.1,0.1-0.2,0.2-0.3,0.4l-1.5,6.5c0,0.1-0.1,0.2-0.2,0.2l0,0c-0.1,0-0.2-0.1-0.2-0.2c0,0,0,0,0,0l0,0l-1.6-6.4
		c0-0.2-0.1-0.4-0.3-0.5c-0.2-0.1-0.4-0.2-0.6-0.1h-3c-0.2,0-0.4,0.1-0.6,0.1c-0.1,0.1-0.2,0.3-0.3,0.4l-1.3,6c0,0,0,0.2-0.4,0.3
		s-0.5-0.3-0.5-0.3l-1.3-5.9c0-0.3-0.1-0.6-0.4-0.8c-0.3-0.1-0.6-0.2-0.9-0.1l-1.9,0.5c-0.3,0.1-0.6,0.3-0.8,0.5
		c-0.1,0.3-0.1,0.7,0,1l3.3,10.3c0,0.3,0.2,0.6,0.4,0.8c0.3,0.2,0.6,0.2,0.9,0.2h1.9c0.3,0,0.5-0.1,0.8-0.2c0.2-0.2,0.3-0.4,0.4-0.7
		l1.6-5.5c0-0.2,0.2-0.3,0.4-0.3c0.2,0,0.4,0.1,0.4,0.3c0,0,0,0,0,0l1.6,5.4c0,0.3,0.2,0.6,0.4,0.8c0.3,0.2,0.7,0.2,1,0.2h1.7
		C167.2,301.3,167.5,301.2,167.7,301L167.7,301z M175.9,286.3c0.6,0,1.2-0.3,1.7-0.7c0.5-0.4,0.7-1,0.7-1.6c0-0.6-0.3-1.2-0.7-1.7
		c-0.9-0.9-2.4-0.9-3.3,0c-0.9,0.9-0.9,2.4,0,3.3C174.7,286,175.3,286.3,175.9,286.3z M177.8,301c0.2-0.2,0.2-0.4,0.2-0.7V289
		c0-0.2-0.1-0.4-0.2-0.6c-0.2-0.1-0.4-0.2-0.6-0.3h-2.5c-0.3,0-0.5,0.1-0.7,0.3c-0.2,0.2-0.2,0.4-0.2,0.7v11.1c0,0.3,0,0.6,0.2,0.9
		c0.2,0.2,0.4,0.3,0.7,0.3h2.3C177.3,301.3,177.6,301.2,177.8,301z M193.3,288.3c0.1,0.3,0.1,0.6,0.1,0.9l-0.1,12.5
		c0,1.1-0.3,2.1-0.9,3c-0.6,0.9-1.5,1.6-2.5,2c-1.2,0.5-2.5,0.7-3.7,0.7c-1,0-1.9-0.2-2.9-0.4c-0.8-0.2-1.5-0.4-2.2-0.8
		c-0.2-0.1-0.3-0.3-0.4-0.5c0-0.2,0-0.4,0.1-0.6l0.6-1.3c0.1-0.2,0.3-0.4,0.5-0.5c0.3-0.1,0.6-0.1,0.9,0c1,0.4,2.1,0.6,3.2,0.6
		c0.8,0,1.6-0.2,2.2-0.6c0.6-0.4,0.9-1,0.9-1.7c0,0,0.1-0.7-0.5-0.7s-0.9,0.5-1.9,0.5c-1.8,0.1-3.6-0.6-4.9-1.8
		c-1.3-1.4-1.9-3.2-1.8-5.1c-0.1-1.9,0.6-3.7,1.9-5.1c1.3-1.3,3.1-2,5-1.9c0.6,0,1.3,0.1,1.9,0.4c0.6,0.3,1.1,1,1.8,1s-0.1-1,0.7-1
		h1.5C193,288.1,193.2,288.2,193.3,288.3L193.3,288.3z M187.2,298.1c0.6,0,1.2-0.2,1.6-0.7c0.3-0.5,0.4-1.1,0.4-1.6v-2.2
		c0.1-0.6-0.1-1.3-0.4-1.8c-0.4-0.5-1-0.8-1.7-0.7c-0.8,0-1.5,0.4-1.9,1c-0.5,0.8-0.8,1.7-0.7,2.6c0,0.9,0.2,1.8,0.7,2.5
		C185.6,297.8,186.4,298.2,187.2,298.1L187.2,298.1z M210.1,294.7c0,1.3-0.3,2.5-0.9,3.6c-0.6,1-1.5,1.8-2.6,2.4
		c-1.2,0.6-2.5,0.8-3.8,0.8c-1.3,0-2.6-0.3-3.8-0.8c-1.1-0.5-1.9-1.3-2.5-2.4c-0.6-1.1-0.9-2.4-0.9-3.8c0-1.3,0.3-2.6,0.9-3.7
		c0.6-1,1.5-1.9,2.6-2.4c2.4-1.1,5.1-1.1,7.5,0c1.1,0.5,2,1.4,2.6,2.4C209.8,292.1,210.1,293.4,210.1,294.7L210.1,294.7z M202.8,298
		c0.8,0,1.6-0.3,2.1-0.9c0.5-0.7,0.8-1.6,0.8-2.5c0-0.9-0.2-1.8-0.8-2.5c-0.5-0.6-1.2-1-2-1c-0.8,0-1.6,0.3-2.1,0.9
		c-1,1.5-1,3.5,0,5C201.3,297.7,202,298.1,202.8,298L202.8,298z"/>
	<path id="Tracé_3467" class="st9" d="M106.1,296.5v-8.7c0-2.7,2.2-4.9,4.9-4.9h11.5l1.4,0.6l0.7,1.4v11.5c0,2.7-2.2,4.9-4.9,4.9
		H111C108.3,301.4,106.1,299.2,106.1,296.5L106.1,296.5z"/>
	<path id="Tracé_3469" class="st9" d="M121.2,281.6c1.8,0,3.3,1.5,3.3,3.3c0,1.8-1.5,3.3-3.3,3.3c0,0,0,0,0,0
		c-1.8,0-8.3-5.4-8.1-5.4h1.3C119.2,282.9,119,281.7,121.2,281.6z"/>
	<circle id="Ellipse_69" class="st10" cx="121.2" cy="284.9" r="1.1"/>
	<circle id="Ellipse_67" class="st10" cx="115.3" cy="292.1" r="5.5"/>
	<circle id="Ellipse_68" class="st11" cx="115.3" cy="292.1" r="3.9"/>
</g>
<path class="st4" d="M875.3,335c-6.9-34-36.5-59.7-72.6-59.7c-27.6,0-53,15.4-65.7,40c-32.5,3.5-56,32.7-52.5,65.2
	c3.2,30.1,28.7,52.9,58.9,52.8h128.4c27.2-0.1,49.3-22.1,49.4-49.4C921.3,358,901.1,336.5,875.3,335z"/>
<g id="Symbole_24_1">
	<path id="Tracé_3456-2" class="st10" d="M778.1,366.2c0.2-0.1,0.4-0.1,0.6-0.1h1.5c1.3,0,2.5-0.2,3.7-0.7c1.1-0.4,2-1.1,2.7-2
		c0.7-1,1-2.2,1-3.4c0.1-2.4-1.3-4.6-3.6-5.4c-1.2-0.5-2.4-0.7-3.7-0.7h-5.3c-0.4,0-0.7,0.1-1,0.3c-0.2,0.2-0.3,0.5-0.3,0.7v16.5
		c-0.1,0.2,0.1,0.4,0.3,0.5c0.1,0,0.1,0,0.2,0h3.2c0.1,0,0.3,0,0.4-0.1c0.1-0.1,0.1-0.3,0.1-0.4v-4.7
		C777.8,366.4,777.9,366.2,778.1,366.2z M780.2,357.2c0.8-0.1,1.6,0.2,2.3,0.7c0.6,0.6,0.9,1.4,0.8,2.1c0,0.8-0.3,1.5-0.9,2
		c-0.6,0.5-1.4,0.8-2.2,0.7h-2c-0.1,0-0.2,0-0.3-0.1c-0.1-0.1-0.1-0.2-0.1-0.3v-4.9c0-0.1,0-0.2,0.1-0.2c0.1,0,0.2-0.1,0.3-0.1
		L780.2,357.2z"/>
	<path id="Tracé_3455-2" class="st10" d="M791.7,357.1c1.3,0,2.3-1,2.3-2.3c0-0.6-0.2-1.2-0.7-1.6c-0.9-0.9-2.3-0.9-3.2,0
		c0,0,0,0,0,0c-0.4,0.4-0.7,1-0.7,1.6C789.4,356.1,790.4,357.1,791.7,357.1L791.7,357.1z M793.7,371.5c0.1-0.1,0.1-0.3,0.1-0.4
		v-11.1c0-0.3,0-0.5-0.2-0.8c-0.2-0.2-0.5-0.3-0.7-0.3h-1.9c-0.4,0-0.7,0.1-1,0.4c-0.2,0.3-0.3,0.6-0.3,1v10.5c0,0.2,0,0.5,0.2,0.7
		c0.2,0.1,0.4,0.2,0.6,0.2h2.7C793.3,371.6,793.5,371.6,793.7,371.5L793.7,371.5z M810.8,371.4c0.2-0.2,0.3-0.4,0.4-0.7l3.7-11.3
		c0,0,0.1-0.3,0-0.4s-0.4-0.1-0.4-0.1h-3c-0.2,0-0.4,0.1-0.5,0.1c-0.1,0.1-0.2,0.2-0.2,0.4l-1.5,6.3c0,0.1-0.1,0.2-0.2,0.2l0,0
		c-0.1,0-0.2-0.1-0.2-0.2c0,0,0,0,0,0l0,0l-1.5-6.2c0-0.2-0.1-0.3-0.2-0.5c-0.2-0.1-0.3-0.1-0.5-0.1h-2.9c-0.2,0-0.4,0.1-0.5,0.1
		c-0.1,0.1-0.2,0.2-0.2,0.4l-1.2,5.8c0,0,0,0.2-0.4,0.3s-0.5-0.3-0.5-0.3l-1.3-5.7c0-0.3-0.1-0.6-0.3-0.8c-0.3-0.1-0.6-0.2-0.8-0.1
		l-1.8,0.5c-0.5,0.1-1,0.5-0.9,1.1c0,0.1,0,0.2,0.1,0.4l3.2,10c0.1,0.3,0.2,0.6,0.4,0.8c0.3,0.2,0.6,0.2,0.9,0.2h1.8
		c0.3,0,0.5-0.1,0.7-0.2c0.2-0.2,0.3-0.4,0.3-0.7l1.5-5.3c0-0.2,0.2-0.3,0.4-0.3c0.2,0,0.3,0.1,0.4,0.3l1.5,5.2
		c0,0.3,0.2,0.6,0.4,0.8c0.3,0.2,0.7,0.3,1,0.2h1.6C810.3,371.6,810.6,371.5,810.8,371.4L810.8,371.4z M818.8,357.1
		c1.3,0,2.3-1,2.3-2.3c0-0.6-0.2-1.2-0.7-1.6c-0.9-0.9-2.3-0.9-3.2,0c-0.4,0.4-0.7,1-0.7,1.6c0,0.6,0.2,1.2,0.7,1.6
		C817.6,356.8,818.1,357.1,818.8,357.1L818.8,357.1z M820.7,371.4c0.2-0.2,0.3-0.4,0.2-0.7v-11c0-0.2-0.1-0.4-0.2-0.6
		c-0.1-0.1-0.3-0.2-0.5-0.2h-2.5c-0.3,0-0.5,0.1-0.7,0.3c-0.1,0.2-0.2,0.4-0.2,0.7v10.8c0,0.3,0,0.6,0.2,0.9
		c0.2,0.2,0.4,0.3,0.7,0.2h2.3C819.8,371.6,820.3,371.6,820.7,371.4L820.7,371.4z M835.8,359.1c0.1,0.3,0.1,0.6,0.1,0.9v12.1
		c0,1.1-0.3,2.1-0.9,3c-0.6,0.9-1.4,1.6-2.4,2c-1.2,0.5-2.4,0.7-3.6,0.7c-0.9,0-1.9-0.2-2.8-0.4c-0.8-0.2-1.5-0.4-2.2-0.7
		c-0.2-0.1-0.3-0.3-0.4-0.5c0-0.2,0-0.4,0.1-0.6l0.5-1.3c0.1-0.2,0.3-0.4,0.5-0.5c0.3-0.1,0.6-0.1,0.9,0c1,0.4,2.1,0.6,3.1,0.6
		c0.8,0,1.5-0.2,2.2-0.6c0.5-0.4,0.8-1,0.8-1.6c0,0,0.1-0.7-0.5-0.7s-0.9,0.5-1.9,0.5c-1.8,0.1-3.5-0.5-4.7-1.8
		c-1.2-1.3-1.9-3.1-1.8-4.9c-0.1-1.8,0.5-3.6,1.8-5c1.3-1.2,3.1-1.9,4.9-1.8c0.6,0,1.2,0.1,1.8,0.4c0.6,0.2,1.1,1,1.7,1
		s0-0.9,0.7-0.9h1.3C835.4,358.9,835.5,358.9,835.8,359.1L835.8,359.1z M829.8,368.6c0.6,0,1.2-0.2,1.5-0.7c0.3-0.5,0.4-1,0.4-1.6
		v-2.2c0.1-0.6-0.1-1.2-0.4-1.8c-0.4-0.5-1-0.7-1.7-0.6c-0.7,0-1.4,0.3-1.9,0.9c-0.5,0.7-0.7,1.6-0.7,2.5c0,0.9,0.2,1.8,0.7,2.5
		C828.3,368.3,829,368.7,829.8,368.6L829.8,368.6z M852.1,365.3c0,1.2-0.3,2.5-0.9,3.6c-0.6,1-1.5,1.8-2.5,2.3
		c-1.1,0.5-2.4,0.8-3.7,0.8c-1.3,0-2.5-0.2-3.7-0.8c-1-0.5-1.9-1.3-2.5-2.3c-0.6-1.1-0.9-2.4-0.9-3.7c0-1.3,0.3-2.5,0.9-3.6
		c0.6-1,1.5-1.8,2.5-2.4c1.1-0.5,2.4-0.8,3.7-0.8c1.3,0,2.5,0.3,3.7,0.8c1,0.5,1.9,1.3,2.5,2.4C851.8,362.8,852,364,852.1,365.3
		L852.1,365.3z M845,368.5c0.8,0,1.5-0.3,2-0.9c0.5-0.7,0.8-1.5,0.8-2.4c0-0.9-0.2-1.7-0.7-2.4c-0.5-0.6-1.2-1-2-0.9
		c-0.8,0-1.5,0.3-2,0.9c-1,1.5-1,3.4,0,4.8C843.4,368.2,844.2,368.5,845,368.5L845,368.5z"/>
	<path id="Tracé_3467-2" class="st12" d="M750.8,367v-8.4c0-2.6,2.1-4.7,4.8-4.8h11.2l1.4,0.6l0.6,1.4V367c0,2.6-2.1,4.8-4.8,4.8
		h-8.5C752.9,371.8,750.8,369.6,750.8,367L750.8,367L750.8,367z"/>
	<path id="Tracé_3469-2" class="st12" d="M765.4,352.5c1.8-0.1,3.3,1.3,3.4,3c0.1,1.8-1.3,3.3-3,3.4c-0.1,0-0.2,0-0.4,0
		c-1.8,0-8.1-5.2-7.9-5.2h1.2C763.6,353.8,763.4,352.6,765.4,352.5z"/>
	<circle id="Ellipse_69-2" class="st10" cx="765.5" cy="355.7" r="1.1"/>
	<circle id="Ellipse_67-2" class="st10" cx="759.8" cy="362.8" r="5.3"/>
	<circle id="Ellipse_68-2" class="st11" cx="759.8" cy="362.8" r="3.8"/>
</g>
<ellipse class="st4" cx="491.1" cy="177.3" rx="107.7" ry="14.7"/>
<path class="st6" d="M469,140.3l-3,19.1c0,0-14.8,7.8-4.4,8.1s59.3,0,59.3,0s9.4,0-5.5-8.3l-3-20.1L469,140.3z"/>
<path class="st5" d="M459.6,167.3c2-1.6,4.2-3.1,6.4-4.3l3-19.1h43.4l3,18.9c2.5,1.3,4.8,2.8,6.9,4.6c1.9-0.5,4-2.1-6.9-8.1l-3-20.1
	l-43.4,1.2l-3,19.1C466,159.4,453.6,166,459.6,167.3z"/>
<path class="st6" d="M399.7,6.8h181.6c3.8,0,6.9,3.1,6.9,6.8c0,0,0,0,0,0V136c0,3.8-3.1,6.9-6.9,6.9H399.6c-3.8,0-6.9-3.1-6.9-6.9
	V13.7C392.8,9.9,395.9,6.8,399.7,6.8z"/>
<rect x="399.4" y="14.1" class="st10" width="182.3" height="102"/>
<circle class="st13" cx="490.5" cy="10.8" r="1.1"/>
<path class="st6" d="M588.2,124.1V136c0,3.8-3.1,6.9-6.9,6.9H399.7c-3.8,0-6.9-3.1-6.9-6.9l0,0v-11.9H588.2z"/>
<polygon class="st6" points="541.5,180 541.5,182.3 417.4,182.3 417.4,180.4 417.5,180 420.6,171.7 539,171.7 "/>
<path class="st6" d="M589.2,177.7c-0.2,1-1.1,2-3,3c-6.9,3.5-21-0.9-21-0.9s-10.8-1.8-10.8-6.7c0.3-0.2,0.6-0.4,1-0.6
	c2.9-1.5,12.6-5.3,29.7,0.1c1.3,0.4,2.4,1.1,3.2,2.1C589.1,175.5,589.4,176.6,589.2,177.7z"/>
<path class="st5" d="M589.2,177.7c-8.5,3.2-16,3.5-23.8-1.9c-2.9-2.2-6.5-3.3-10.1-3.4c2.9-1.5,12.6-5.3,29.7,0.1
	c1.3,0.4,2.4,1.1,3.2,2.1C589,175.5,589.4,176.6,589.2,177.7z"/>
<ellipse class="st13" cx="578.6" cy="174.9" rx="3" ry="0.9"/>
<circle class="st13" cx="490.5" cy="133.6" r="4.4"/>
<polygon class="st5" points="541.5,180 541.5,182.3 417.4,182.3 417.4,180.4 417.5,180 "/>
<g class="st14">
	<path class="st9" d="M410.9,73.2c0-0.9,0.2-1.5,0.7-2c0.5-0.4,1.2-0.7,2-0.7c0.9,0,1.5,0.2,2,0.7c0.5,0.5,0.7,1.1,0.7,2
		c0,0.8-0.2,1.5-0.7,1.9c-0.5,0.5-1.1,0.7-2,0.7c-0.9,0-1.6-0.2-2-0.7C411.2,74.7,410.9,74,410.9,73.2z"/>
	<path class="st9" d="M436.6,66.6c0,2.8-0.8,5.1-2.3,6.7c-1.5,1.6-3.6,2.4-6.3,2.4c-1.7,0-3.2-0.4-4.4-1.1s-2.3-1.8-3-3.2
		s-1-3-1-4.8c0-2.9,0.7-5.1,2.2-6.7c1.5-1.6,3.6-2.4,6.3-2.4c1.7,0,3.2,0.4,4.4,1.1c1.3,0.7,2.3,1.8,3,3.1
		C436.3,63.2,436.6,64.8,436.6,66.6z M424.5,66.6c0,1.7,0.3,3,0.9,3.9c0.6,0.9,1.5,1.3,2.8,1.3c1.3,0,2.2-0.4,2.7-1.3
		c0.6-0.9,0.8-2.2,0.8-3.9c0-1.7-0.3-3-0.8-3.9c-0.6-0.9-1.5-1.3-2.8-1.3c-1.3,0-2.2,0.4-2.8,1.3S424.5,64.9,424.5,66.6z"/>
	<path class="st9" d="M450.3,57.6c0.6,0,1.2,0,1.6,0.1l-0.4,4.5c-0.4-0.1-0.9-0.2-1.4-0.2c-1.5,0-2.7,0.4-3.6,1.2
		c-0.8,0.8-1.3,1.9-1.3,3.3v8.9h-4.8V57.9h3.6l0.7,2.9h0.2c0.5-1,1.3-1.8,2.2-2.4C448.2,57.9,449.2,57.6,450.3,57.6z"/>
	<path class="st9" d="M470.3,57.9v2.4l-2.7,0.7c0.5,0.8,0.8,1.7,0.8,2.6c0,1.9-0.7,3.3-2,4.4c-1.3,1-3.1,1.6-5.4,1.6l-0.9,0
		l-0.7-0.1c-0.5,0.4-0.7,0.8-0.7,1.3c0,0.7,0.9,1,2.6,1h3c1.9,0,3.4,0.4,4.4,1.2c1,0.8,1.5,2,1.5,3.6c0,2-0.9,3.6-2.6,4.8
		s-4.1,1.7-7.3,1.7c-2.4,0-4.3-0.4-5.6-1.3c-1.3-0.8-1.9-2-1.9-3.6c0-1.1,0.3-1.9,1-2.6s1.6-1.2,2.9-1.5c-0.5-0.2-0.9-0.5-1.3-1
		c-0.4-0.5-0.5-1-0.5-1.5c0-0.7,0.2-1.2,0.6-1.7c0.4-0.4,0.9-0.9,1.7-1.3c-0.9-0.4-1.6-1-2.2-1.9c-0.5-0.9-0.8-1.9-0.8-3.1
		c0-1.9,0.6-3.4,1.9-4.4c1.2-1,3-1.6,5.3-1.6c0.5,0,1.1,0,1.7,0.1c0.7,0.1,1.1,0.2,1.3,0.2H470.3z M456.8,77.9
		c0,0.7,0.3,1.2,0.9,1.5c0.6,0.4,1.5,0.6,2.6,0.6c1.7,0,3-0.2,4-0.7s1.5-1.1,1.5-1.9c0-0.7-0.3-1.1-0.9-1.4
		c-0.6-0.3-1.5-0.4-2.7-0.4h-2.5c-0.9,0-1.6,0.2-2.2,0.6C457.1,76.6,456.8,77.2,456.8,77.9z M458.5,63.7c0,0.9,0.2,1.7,0.6,2.3
		c0.4,0.6,1.1,0.8,2,0.8c0.9,0,1.6-0.3,2-0.8c0.4-0.6,0.6-1.3,0.6-2.3c0-2.1-0.9-3.2-2.6-3.2C459.4,60.5,458.5,61.5,458.5,63.7z"/>
</g>
<text transform="matrix(1 0 0 1 467.93 75.4)" class="st10 st15 st16"> </text>
<g class="st14">
	<path class="st6" d="M495.7,52.6l-8.5,22.8h-4.3l8.5-22.8H495.7z"/>
</g>
<g class="st14">
	<path class="st12" d="M499.6,73.2c0-0.9,0.2-1.5,0.7-2c0.5-0.4,1.2-0.7,2-0.7c0.9,0,1.5,0.2,2,0.7c0.5,0.5,0.7,1.1,0.7,2
		c0,0.8-0.2,1.5-0.7,1.9c-0.5,0.5-1.1,0.7-2,0.7c-0.9,0-1.6-0.2-2-0.7C499.8,74.7,499.6,74,499.6,73.2z"/>
	<path class="st12" d="M516.5,75.7c-5.4,0-8.2-3-8.2-9c0-3,0.7-5.2,2.2-6.8c1.5-1.6,3.6-2.4,6.4-2.4c2,0,3.8,0.4,5.4,1.2l-1.4,3.7
		c-0.8-0.3-1.4-0.5-2.1-0.7c-0.6-0.2-1.3-0.3-1.9-0.3c-2.5,0-3.7,1.8-3.7,5.3c0,3.4,1.2,5.1,3.7,5.1c0.9,0,1.8-0.1,2.5-0.4
		c0.8-0.2,1.6-0.6,2.3-1.1v4.1c-0.8,0.5-1.5,0.8-2.3,1C518.7,75.6,517.7,75.7,516.5,75.7z"/>
	<path class="st12" d="M541.7,66.6c0,2.8-0.8,5.1-2.3,6.7c-1.5,1.6-3.6,2.4-6.3,2.4c-1.7,0-3.2-0.4-4.4-1.1s-2.3-1.8-3-3.2
		s-1-3-1-4.8c0-2.9,0.7-5.1,2.2-6.7c1.5-1.6,3.6-2.4,6.3-2.4c1.7,0,3.2,0.4,4.4,1.1c1.3,0.7,2.3,1.8,3,3.1
		C541.4,63.2,541.7,64.8,541.7,66.6z M529.6,66.6c0,1.7,0.3,3,0.9,3.9c0.6,0.9,1.5,1.3,2.8,1.3c1.3,0,2.2-0.4,2.7-1.3
		c0.6-0.9,0.8-2.2,0.8-3.9c0-1.7-0.3-3-0.8-3.9c-0.6-0.9-1.5-1.3-2.8-1.3c-1.3,0-2.2,0.4-2.8,1.3S529.6,64.9,529.6,66.6z"/>
	<path class="st12" d="M561.3,75.4h-4.8V65.2c0-1.3-0.2-2.2-0.6-2.8c-0.4-0.6-1.1-0.9-2-0.9c-1.2,0-2.1,0.4-2.7,1.3
		c-0.6,0.9-0.8,2.4-0.8,4.4v8.2h-4.8V57.9h3.6l0.6,2.2h0.3c0.5-0.8,1.1-1.4,2-1.9c0.9-0.5,1.9-0.7,3-0.7c2.6,0,4.4,0.9,5.3,2.6h0.4
		c0.5-0.8,1.2-1.4,2.1-1.9c0.9-0.4,1.9-0.7,3.1-0.7c2,0,3.5,0.5,4.5,1.5s1.5,2.6,1.5,4.9v11.4h-4.8V65.2c0-1.3-0.2-2.2-0.6-2.8
		c-0.4-0.6-1.1-0.9-2-0.9c-1.2,0-2,0.4-2.6,1.3c-0.6,0.8-0.9,2.2-0.9,4V75.4z"/>
</g>
</svg>
