<svg id="Calque_1" data-name="Calque 1" xmlns="http://www.w3.org/2000/svg" viewBox="0 0 1009 479"><defs><style>.cls-1,.cls-10,.cls-11,.cls-12,.cls-17{fill:#f70;}.cls-1,.cls-2,.cls-8{opacity:0.1;}.cls-1,.cls-10,.cls-11,.cls-2,.cls-3,.cls-6,.cls-8{isolation:isolate;}.cls-15,.cls-2{fill:#ff2f63;}.cls-4,.cls-5,.cls-6{fill:none;stroke:#d1ced6;stroke-miterlimit:10;stroke-width:2px;}.cls-5{stroke-dasharray:11.75 11.75;}.cls-7{fill:#3f3d56;}.cls-9{fill:#2f2e41;}.cls-10{opacity:0.4;}.cls-11{opacity:0.8;}.cls-13{fill:#fff;}.cls-14{fill:#3c3c3c;}.cls-16{fill:#f2f2f2;}.cls-17{font-size:32px;font-family:OpenSans-Bold, Open Sans;font-weight:700;}</style></defs><title>how-to-use-illustration</title><path class="cls-1" d="M288.79,439.57c-10.4,16-27.31,24.88-44.05,29.73A127.89,127.89,0,0,1,204,474.21c-2.62-.11-5.23-.28-7.83-.55a131.06,131.06,0,0,1-19.7-3.55c-3.88-1-7.73-2.2-11.52-3.56a137.42,137.42,0,0,1-37.1-20.18q-4.95-3.76-9.56-8a141.79,141.79,0,0,1-14.43-15.42q-1.45-1.83-2.91-3.74l-.39-.53c-.75-1-1.48-2-2.21-3a38.62,38.62,0,0,0-4.06-4.76c-.1-.08-.19-.19-.29-.28a8,8,0,0,0-.84-.73,17.09,17.09,0,0,0-1.83-1.37,23.74,23.74,0,0,0-9.72-3.59,17.05,17.05,0,0,0-1.75-.21h0c-.81-.08-1.66-.14-2.48-.15H77a49.83,49.83,0,0,0-7.9.5c-4,.58-8.11,1.48-12.16,2.22h0c-1.73.31-3.43.63-5.15.84l-.38.06a46.51,46.51,0,0,1-7.35.45,35.16,35.16,0,0,1-15.86-4.37l-.18-.09-.31-.19-.44-.24c-.72-.42-1.44-.84-2.12-1.32l-.44-.27c-.68-.45-1.34-.93-2-1.43l-.42-.33a23.28,23.28,0,0,1-1.93-1.62l-.66-.6c-.65-.61-1.31-1.24-1.93-1.91s-1.31-1.4-1.92-2.13l-.84-1a47.17,47.17,0,0,1-4.35-6.47,3.48,3.48,0,0,0-.22-.36c-.34-.62-.66-1.26-1-1.9l-.35-.72c-.37-.78-.72-1.56-1.05-2.36a2,2,0,0,1-.14-.35A49.91,49.91,0,0,1,5,370.48c0-.1,0-.23,0-.33-.17-1.14-.3-2.3-.4-3.49,0-.5-.08-1-.1-1.48,0-.13,0-.3,0-.43-.29-7.11.79-14.27,2.05-21.36l.44-2.46c2.1-11.43,4.32-23.06,7.82-34.08,0-.09.06-.15.07-.22,1.18-3.72,2.51-7.35,4-10.92a92.16,92.16,0,0,1,5.43-10.84,111.5,111.5,0,0,1,18.32-22.71,135.59,135.59,0,0,1,27-20.86c1.39-.79,2.81-1.55,4.22-2.31l.66-.33c.22-.13.47-.24.68-.34h0l1.4-.69.53-.26,1-.48.3-.14.53-.23.52-.23c.62-.28,1.23-.53,1.88-.8,2.67-1.12,5.39-2.06,8.13-2.91.81-.24,1.62-.46,2.45-.67a73.56,73.56,0,0,1,11.19-2.06c1.39-.14,2.77-.26,4.17-.3,1.63-.06,3.28-.06,4.92,0a61.3,61.3,0,0,1,7.77.71,73.19,73.19,0,0,1,46.83,28c4.71,6.11,8.66,13.09,14.26,18.13,4.9,4.38,11.09,6.95,17.45,5.33,5.28-1.37,8.64-1.91,14-.58A102.24,102.24,0,0,1,244.27,295l1.19.8c25.55,17.08,45.07,45.48,51.92,78.71.19.88.34,1.75.52,2.66C301.87,398.17,300.37,421.8,288.79,439.57Z"/><path class="cls-2" d="M1003.66,372.41c-.78,18.54-10.61,34.52-22.26,47.09a125.89,125.89,0,0,1-31.89,24.8c-2.26,1.26-4.56,2.41-6.88,3.49a132.23,132.23,0,0,1-18.36,7.07c-3.77,1.13-7.62,2.13-11.49,2.91a135.16,135.16,0,0,1-41.33,2.09c-4-.4-8.05-1-12-1.79a137.4,137.4,0,0,1-19.86-5.48c-1.45-.54-2.87-1.08-4.3-1.66l-.59-.21c-1.12-.46-2.25-1-3.39-1.39a36.36,36.36,0,0,0-5.78-1.87l-.41-.09-1.09-.19c-.76-.12-1.5-.17-2.23-.22a23.65,23.65,0,0,0-10,2,14.62,14.62,0,0,0-1.56.71h0c-.74.33-1.45.74-2.16,1.14l-.25.17a45.8,45.8,0,0,0-6.41,4.44c-3.14,2.53-6.08,5.34-9.14,8h0c-1.27,1.14-2.59,2.26-3.93,3.3l-.3.22a52.29,52.29,0,0,1-6,4.11,35.22,35.22,0,0,1-15.56,4.45l-.19,0h-.82c-.81,0-1.63,0-2.47,0l-.48,0c-.8,0-1.58-.1-2.38-.16l-.5-.06c-.82-.1-1.64-.19-2.46-.37l-.87-.16a21.82,21.82,0,0,1-2.57-.6c-.9-.22-1.81-.48-2.7-.78-.42-.13-.82-.3-1.24-.42a45.7,45.7,0,0,1-6.88-3.14l-.34-.19c-.59-.33-1.2-.69-1.77-1.07-.22-.12-.44-.27-.66-.42-.71-.45-1.39-.94-2.08-1.43a1.57,1.57,0,0,0-.28-.21,46,46,0,0,1-7.67-7.18,1,1,0,0,0-.22-.23c-.72-.87-1.4-1.75-2.1-2.66l-.82-1.17-.22-.35c-3.8-5.76-6.46-12.27-8.91-18.77-.3-.74-.58-1.53-.87-2.28-4-10.56-7.86-21.33-10.44-32.27a.65.65,0,0,1,0-.21,108.13,108.13,0,0,1-2-11.12,90.94,90.94,0,0,1-.85-11.76,108.15,108.15,0,0,1,4.09-28.16,133.45,133.45,0,0,1,12.38-31.05c.77-1.4,1.57-2.72,2.4-4.05l.38-.59c.13-.2.25-.44.39-.64h0c.28-.45.55-.85.84-1.3l.32-.46.6-.9.19-.26.34-.47.32-.46c.39-.56.78-1.08,1.18-1.61a76.09,76.09,0,0,1,5.43-6.53c.57-.62,1.15-1.21,1.73-1.8a74.35,74.35,0,0,1,8.39-7.42c1.12-.81,2.23-1.63,3.37-2.38,1.36-.9,2.74-1.73,4.14-2.53a67.29,67.29,0,0,1,6.89-3.34,72,72,0,0,1,53.45-.56c7,2.7,13.84,6.44,21.08,7.79,6.33,1.18,12.83.13,17.37-4.44,3.77-3.78,6.35-6,11.54-7.63a102.14,102.14,0,0,1,33.64-4.63c.44,0,.93,0,1.38.05,30.08,1.2,60.7,14.83,83,38.9.6.64,1.17,1.29,1.74,1.94C994,331.4,1004.54,351.75,1003.66,372.41Z"/><g class="cls-3"><path class="cls-4" d="M498.26,60.38c-.05.37,0,.62-.06.86q-.18,2.57-.33,5.13"/><path class="cls-5" d="M497.22,78.1q-.68,13.64-1,27.14-.51,23,.43,45.09c1.54,36.26,6.26,69.92,12.2,101.47,7.19,37.87,16.42,73.41,27.89,103.45,1.66,4.3,3.38,8.48,5.09,12.66l.81,1.9c.27.67.58,1.35.86,1.9.58,1.36,1.17,2.59,1.75,3.94l.66,1.5,1.25,2.72.39.83.68,1.37.67,1.37c.79,1.65,1.6,3.17,2.44,4.82a211.89,211.89,0,0,0,11,18.79c1.13,1.71,2.27,3.3,3.47,4.9a117.21,117.21,0,0,0,16.65,18.79,70.49,70.49,0,0,0,6.58,5.26,84.29,84.29,0,0,0,8,5.06,56.78,56.78,0,0,0,13.22,5.21c29.22,7.61,61.73-8.43,91.13-45.94"/><path class="cls-4" d="M705,395.65q1.77-2.37,3.52-4.86"/></g><path class="cls-6" d="M481.58,52.52c.07.32.05.56.09.78,1.54,13.51,2.7,26.9,3.45,40.29q1.23,21.1.77,41.68c-.75,33.7-5.22,65.51-11.14,95.56-7.17,36.08-16.75,70.34-29.05,99.87-1.78,4.23-3.63,8.36-5.48,12.49l-.87,1.88a19.59,19.59,0,0,1-.93,1.89h0c-.62,1.34-1.27,2.57-1.89,3.91l-.71,1.49-1.36,2.71-.43.82-.74,1.37-.73,1.38c-.86,1.64-1.74,3.17-2.66,4.83a222,222,0,0,1-12.08,19.08c-1.24,1.76-2.51,3.4-3.84,5.07a140.69,140.69,0,0,1-18.54,20c-2.42,2.1-4.85,4.1-7.38,5.9-2.94,2.14-6,4.09-9,5.92a83.31,83.31,0,0,1-15,6.91c-35.93,12.58-77.06.27-114-35.67"/><ellipse class="cls-7" cx="166.28" cy="439.8" rx="117.04" ry="15.9"/><ellipse class="cls-8" cx="166.28" cy="439.8" rx="98.27" ry="13.39"/><rect class="cls-9" x="109.95" y="273.62" width="130.19" height="151.47"/><rect class="cls-7" x="96.8" y="258.6" width="156.48" height="53.83"/><rect class="cls-7" x="96.8" y="322.44" width="156.48" height="53.83"/><rect class="cls-7" x="96.8" y="386.28" width="156.48" height="53.83"/><rect class="cls-10" x="211.97" y="267.99" width="10.01" height="10.01"/><rect class="cls-11" x="226.37" y="267.99" width="10.01" height="10.01"/><rect class="cls-12" x="240.76" y="267.99" width="10.01" height="10.01"/><rect class="cls-10" x="211.97" y="331.2" width="10.01" height="10.01"/><rect class="cls-11" x="226.37" y="331.2" width="10.01" height="10.01"/><rect class="cls-12" x="240.76" y="331.2" width="10.01" height="10.01"/><rect class="cls-10" x="211.97" y="394.42" width="10.01" height="10.01"/><rect class="cls-11" x="226.37" y="394.42" width="10.01" height="10.01"/><rect class="cls-12" x="240.76" y="394.42" width="10.01" height="10.01"/><g id="Symbole_23_1" data-name="Symbole 23 1"><path id="Tracé_3456" data-name="Tracé 3456" class="cls-13" d="M134.12,295.61a1.36,1.36,0,0,1,.6-.1h1.52a9.67,9.67,0,0,0,3.8-.7,6.22,6.22,0,0,0,2.8-2.1,5.62,5.62,0,0,0,1.06-3.47,5.83,5.83,0,0,0-1-3.51,6,6,0,0,0-2.67-2.1,10.35,10.35,0,0,0-3.78-.7H131a2.09,2.09,0,0,0-1,.25,1,1,0,0,0-.33.75v17a.69.69,0,0,0,.1.37.73.73,0,0,0,.4.13h3.23a.58.58,0,0,0,.4-.13c.13-.12.1-.4.1-.4V296A.65.65,0,0,1,134.12,295.61Zm2.25-9.23a3.32,3.32,0,0,1,2.32.75,2.88,2.88,0,0,1,.83,2.23,2.65,2.65,0,0,1-.88,2,3.21,3.21,0,0,1-2.2.75h-2.07a.37.37,0,0,1-.43-.43v-5a.26.26,0,0,1,.1-.23.59.59,0,0,1,.35-.05Z"/><path id="Tracé_3455" data-name="Tracé 3455" class="cls-13" d="M148.07,286.28a2.37,2.37,0,0,0,1.68-.7,2.25,2.25,0,0,0,.7-1.65,2.36,2.36,0,0,0-.7-1.67,2.37,2.37,0,0,0-4,1.67,2.3,2.3,0,0,0,.7,1.65A2.13,2.13,0,0,0,148.07,286.28Zm2,14.81a.74.74,0,0,0,.15-.45V289.21a1.2,1.2,0,0,0-.22-.78,1.34,1.34,0,0,0-.78-.3h-1.95a1.7,1.7,0,0,0-1,.38,1.85,1.85,0,0,0-.32,1.05v10.83a1.13,1.13,0,0,0,.2.73,1,1,0,0,0,.67.17h2.78A1.34,1.34,0,0,0,150.07,301.09Zm17.66-.07a1.48,1.48,0,0,0,.4-.73l3.8-11.63a.51.51,0,0,0,0-.4c-.1-.13-.4-.15-.4-.15h-3.1a1,1,0,0,0-.52.15.72.72,0,0,0-.25.37l-1.48,6.48a.22.22,0,0,1-.2.2h0a.19.19,0,0,1-.2-.2h0l-1.6-6.35a1,1,0,0,0-.25-.5,1.19,1.19,0,0,0-.58-.15H160.4a1.08,1.08,0,0,0-.55.15.85.85,0,0,0-.25.42l-1.25,6s0,.17-.37.27-.48-.27-.48-.27l-1.32-5.91a1.24,1.24,0,0,0-.35-.77,1.2,1.2,0,0,0-.85-.1l-1.93.55a1.56,1.56,0,0,0-.83.52,1.45,1.45,0,0,0,0,1l3.31,10.3a1.35,1.35,0,0,0,.42.8,1.78,1.78,0,0,0,.93.23h1.85a1.4,1.4,0,0,0,.77-.23,1.25,1.25,0,0,0,.35-.7l1.55-5.5a.39.39,0,0,1,.38-.33.35.35,0,0,1,.37.33l1.58,5.4a1.31,1.31,0,0,0,.42.8,2,2,0,0,0,1,.23h1.72a1.48,1.48,0,0,0,.85-.25Zm8.15-14.74a2.37,2.37,0,0,0,1.68-.7,2.25,2.25,0,0,0,.7-1.65,2.36,2.36,0,0,0-.7-1.67,2.35,2.35,0,1,0-3.33,3.32A2.13,2.13,0,0,0,175.88,286.28ZM177.81,301a1,1,0,0,0,.23-.7V289a1.32,1.32,0,0,0-.2-.62.91.91,0,0,0-.58-.25h-2.53a1.25,1.25,0,0,0-.72.27,1.05,1.05,0,0,0-.23.7v11.06a1.51,1.51,0,0,0,.18.88,1,1,0,0,0,.7.25H177A1.74,1.74,0,0,0,177.81,301Zm15.51-12.66a3,3,0,0,1,.12.93l-.05,12.48a5.17,5.17,0,0,1-.87,3,5.64,5.64,0,0,1-2.5,2,9.65,9.65,0,0,1-3.73.7,13.07,13.07,0,0,1-2.88-.4,10.55,10.55,0,0,1-2.22-.75.65.65,0,0,1-.38-.5,1.09,1.09,0,0,1,.08-.57l.55-1.3a.94.94,0,0,1,.5-.5,1,1,0,0,1,.9,0,9,9,0,0,0,3.2.65,3.54,3.54,0,0,0,2.23-.63,2,2,0,0,0,.85-1.7s.1-.67-.5-.72-.88.52-1.93.52a6.6,6.6,0,0,1-4.88-1.8,6.86,6.86,0,0,1-1.82-5.08,6.93,6.93,0,0,1,1.85-5.12,6.75,6.75,0,0,1,5-1.86,4.86,4.86,0,0,1,1.88.38c.62.25,1.15,1,1.75,1.05s-.05-1,.7-1h1.5C193,288.13,193.22,288.16,193.32,288.36Zm-6.13,9.8a1.85,1.85,0,0,0,1.58-.7,2.4,2.4,0,0,0,.37-1.62v-2.23a3,3,0,0,0-.37-1.82,1.78,1.78,0,0,0-1.68-.68,2.28,2.28,0,0,0-1.93,1,4.08,4.08,0,0,0-.72,2.57,4.13,4.13,0,0,0,.72,2.55A2.38,2.38,0,0,0,187.19,298.16Zm22.91-3.47a7,7,0,0,1-.92,3.65,6.49,6.49,0,0,1-2.58,2.38,8.31,8.31,0,0,1-3.78.82,8.56,8.56,0,0,1-3.77-.8,5.86,5.86,0,0,1-2.53-2.35,7.44,7.44,0,0,1-.9-3.75,7.11,7.11,0,0,1,.92-3.68,6.16,6.16,0,0,1,2.58-2.4,8.91,8.91,0,0,1,7.53,0,6.11,6.11,0,0,1,2.55,2.41A7.44,7.44,0,0,1,210.1,294.69Zm-7.25,3.37a2.55,2.55,0,0,0,2.07-.92,3.64,3.64,0,0,0,.78-2.45,3.8,3.8,0,0,0-.78-2.5,2.5,2.5,0,0,0-2-1,2.62,2.62,0,0,0-2.12.93,4.32,4.32,0,0,0,0,4.95A2.55,2.55,0,0,0,202.85,298.06Z"/><path id="Tracé_3467" data-name="Tracé 3467" class="cls-12" d="M106.05,296.46v-8.68a4.91,4.91,0,0,1,4.91-4.9h11.5l1.4.65.68,1.43v11.5a4.92,4.92,0,0,1-4.91,4.91H111a4.92,4.92,0,0,1-4.91-4.91Z"/><path id="Tracé_3469" data-name="Tracé 3469" class="cls-12" d="M121.16,281.61a3.31,3.31,0,1,1,0,6.62c-1.83,0-8.28-5.35-8.13-5.35h1.25C119.23,282.88,119,281.66,121.16,281.61Z"/><circle id="Ellipse_69" data-name="Ellipse 69" class="cls-13" cx="121.24" cy="284.86" r="1.15"/><circle id="Ellipse_67" data-name="Ellipse 67" class="cls-13" cx="115.31" cy="292.11" r="5.48"/><circle id="Ellipse_68" data-name="Ellipse 68" class="cls-14" cx="115.31" cy="292.11" r="3.88"/></g><path class="cls-7" d="M875.27,335c-6.94-34-36.54-59.7-72.56-59.7a74,74,0,0,0-65.68,40,59.17,59.17,0,0,0,6.43,118H871.83a49.52,49.52,0,0,0,49.39-49.39A48.84,48.84,0,0,0,875.27,335Z"/><g id="Symbole_24_1" data-name="Symbole 24 1"><path id="Tracé_3456-2" data-name="Tracé 3456" class="cls-13" d="M778.06,366.16a1.14,1.14,0,0,1,.61-.1h1.51a9.86,9.86,0,0,0,3.69-.68,6,6,0,0,0,2.72-2,5.61,5.61,0,0,0,1-3.4,5.55,5.55,0,0,0-3.56-5.43,9.08,9.08,0,0,0-3.66-.68h-5.3a1.89,1.89,0,0,0-1,.27,1,1,0,0,0-.33.74v16.45a.38.38,0,0,0,.47.47h3.15a.64.64,0,0,0,.37-.1.52.52,0,0,0,.1-.4v-4.7A.39.39,0,0,1,778.06,366.16Zm2.18-9a3.09,3.09,0,0,1,2.25.74,2.78,2.78,0,0,1,.81,2.15,2.62,2.62,0,0,1-.87,2,3.22,3.22,0,0,1-2.15.74h-2a.46.46,0,0,1-.3-.11.51.51,0,0,1-.1-.3v-4.9a.31.31,0,0,1,.1-.24,1.09,1.09,0,0,1,.34-.06Z"/><path id="Tracé_3455-2" data-name="Tracé 3455" class="cls-13" d="M791.66,357.09a2.28,2.28,0,0,0,1.61-3.89,2.25,2.25,0,0,0-3.22,0,2.22,2.22,0,0,0-.67,1.61,2.29,2.29,0,0,0,2.28,2.28Zm2,14.37a.66.66,0,0,0,.13-.43V359.91a1.2,1.2,0,0,0-.2-.77,1.22,1.22,0,0,0-.74-.3h-1.91a1.71,1.71,0,0,0-1,.37,1.55,1.55,0,0,0-.3,1v10.55a1.17,1.17,0,0,0,.17.7,1,1,0,0,0,.64.17h2.68A.84.84,0,0,0,793.61,371.46Zm17.16-.07a1.36,1.36,0,0,0,.4-.7l3.69-11.32s.1-.26,0-.4-.4-.13-.4-.13h-3a1.37,1.37,0,0,0-.51.13.65.65,0,0,0-.23.37l-1.45,6.31a.22.22,0,0,1-.2.2h0a.19.19,0,0,1-.2-.2h0l-1.54-6.18a1,1,0,0,0-.24-.47.82.82,0,0,0-.53-.13h-2.86a1.59,1.59,0,0,0-.54.13.65.65,0,0,0-.23.41l-1.21,5.84s0,.17-.37.27-.47-.27-.47-.27l-1.28-5.74a1.19,1.19,0,0,0-.33-.77,1.3,1.3,0,0,0-.84-.1l-1.85.53a1,1,0,0,0-.8,1.45l3.19,10a1.5,1.5,0,0,0,.4.77,1.93,1.93,0,0,0,.91.23h1.81a1.32,1.32,0,0,0,.74-.23,1.24,1.24,0,0,0,.33-.67l1.51-5.34a.37.37,0,0,1,.37-.3.35.35,0,0,1,.37.3l1.51,5.24a1.26,1.26,0,0,0,.41.77,1.67,1.67,0,0,0,1,.23H810a2,2,0,0,0,.81-.27Zm8-14.3a2.28,2.28,0,0,0,1.62-3.89,2.29,2.29,0,0,0-3.9,1.61,2.3,2.3,0,0,0,.67,1.61A2.19,2.19,0,0,0,818.72,357.09Zm1.85,14.3a.9.9,0,0,0,.24-.67v-11a1,1,0,0,0-.21-.6.81.81,0,0,0-.53-.24h-2.45a1.29,1.29,0,0,0-.71.27,1.09,1.09,0,0,0-.23.67v10.78a1.68,1.68,0,0,0,.16.87.87.87,0,0,0,.67.24h2.25C819.76,371.63,820.34,371.63,820.57,371.39Zm15.11-12.32a3.4,3.4,0,0,1,.1.91l0,12.15a5,5,0,0,1-.88,3,5.54,5.54,0,0,1-2.41,2,9.44,9.44,0,0,1-3.63.67,13,13,0,0,1-2.79-.41,10.35,10.35,0,0,1-2.18-.73.69.69,0,0,1-.37-.47,1.11,1.11,0,0,1,.07-.58l.54-1.27a.9.9,0,0,1,.47-.47,1,1,0,0,1,.87,0,9.34,9.34,0,0,0,3.12.64,3.65,3.65,0,0,0,2.18-.61,2,2,0,0,0,.84-1.64s.1-.67-.47-.71-.87.51-1.88.54a6.35,6.35,0,0,1-4.73-1.75,6.65,6.65,0,0,1-1.78-4.93,6.89,6.89,0,0,1,1.78-5,6.6,6.6,0,0,1,4.87-1.81,4.61,4.61,0,0,1,1.81.37c.61.24,1.11,1,1.71,1s0-.94.67-.94H835C835.38,358.87,835.55,358.9,835.68,359.07Zm-6,9.57a1.83,1.83,0,0,0,1.55-.67,2.5,2.5,0,0,0,.37-1.58v-2.18a2.84,2.84,0,0,0-.37-1.78,1.75,1.75,0,0,0-1.65-.64,2.32,2.32,0,0,0-1.88.94,4.16,4.16,0,0,0-.7,2.52,4,4,0,0,0,.7,2.48A2.36,2.36,0,0,0,829.7,368.64Zm22.3-3.39a6.71,6.71,0,0,1-.91,3.56,6,6,0,0,1-2.52,2.32,8.11,8.11,0,0,1-3.66.8,8.46,8.46,0,0,1-3.66-.77,5.75,5.75,0,0,1-2.45-2.28,7,7,0,0,1-.87-3.66,6.93,6.93,0,0,1,.91-3.6,6.31,6.31,0,0,1,2.51-2.35,8.17,8.17,0,0,1,3.66-.8,8.31,8.31,0,0,1,3.7.8,5.86,5.86,0,0,1,2.48,2.35A7.88,7.88,0,0,1,852,365.25Zm-7.09,3.29a2.49,2.49,0,0,0,2-.91,3.56,3.56,0,0,0,.77-2.38,3.68,3.68,0,0,0-.74-2.42,2.43,2.43,0,0,0-2-.94,2.51,2.51,0,0,0-2.05.91,4.24,4.24,0,0,0,0,4.83A2.46,2.46,0,0,0,844.91,368.54Z"/><path id="Tracé_3467-2" data-name="Tracé 3467" class="cls-15" d="M750.76,367v-8.43a4.79,4.79,0,0,1,4.77-4.76h11.22l1.37.63.64,1.38V367a4.79,4.79,0,0,1-4.77,4.77h-8.46a4.77,4.77,0,0,1-4.77-4.77Z"/><path id="Tracé_3469-2" data-name="Tracé 3469" class="cls-15" d="M765.44,352.52a3.23,3.23,0,1,1,0,6.45c-1.78,0-8.06-5.2-7.89-5.2h1.2C763.59,353.77,763.39,352.56,765.44,352.52Z"/><circle id="Ellipse_69-2" data-name="Ellipse 69" class="cls-13" cx="765.54" cy="355.68" r="1.14"/><circle id="Ellipse_67-2" data-name="Ellipse 67" class="cls-13" cx="759.76" cy="362.76" r="5.34"/><circle id="Ellipse_68-2" data-name="Ellipse 68" class="cls-14" cx="759.76" cy="362.76" r="3.76"/></g><ellipse class="cls-7" cx="491.09" cy="177.3" rx="107.75" ry="14.66"/><path class="cls-9" d="M469,140.26l-3,19.15s-14.78,7.84-4.38,8.07,59.28,0,59.28,0,9.44,0-5.52-8.3l-3-20.06Z"/><path class="cls-8" d="M459.56,167.29A42.09,42.09,0,0,1,466,163l3-19.15,43.37,0,3,18.88a39,39,0,0,1,6.93,4.57c1.94-.46,4-2.06-6.93-8.15l-3-20.06L469,140.26l-3,19.15S453.62,166,459.56,167.29Z"/><path class="cls-9" d="M399.67,6.81H581.32a6.85,6.85,0,0,1,6.86,6.85V136a6.86,6.86,0,0,1-6.86,6.86H399.63a6.86,6.86,0,0,1-6.85-6.86V13.66A6.88,6.88,0,0,1,399.67,6.81Z"/><rect class="cls-13" x="399.37" y="14.08" width="182.26" height="101.96"/><circle class="cls-16" cx="490.52" cy="10.84" r="1.14"/><path class="cls-9" d="M588.22,124.11V136a6.86,6.86,0,0,1-6.86,6.86H399.67a6.86,6.86,0,0,1-6.85-6.86h0V124.11Z"/><polygon class="cls-9" points="541.5 179.97 541.5 182.25 417.38 182.25 417.38 180.43 417.53 179.97 420.58 171.67 538.95 171.67 541.5 179.97"/><path class="cls-9" d="M589.24,177.68c-.22,1-1.06,2-3,3-6.93,3.47-21-.91-21-.91s-10.85-1.83-10.85-6.7c.3-.19.61-.38,1-.57,2.89-1.52,12.56-5.33,29.66.15a6.88,6.88,0,0,1,3.23,2.13A3.32,3.32,0,0,1,589.24,177.68Z"/><path class="cls-8" d="M589.24,177.68c-8.49,3.24-16,3.51-23.75-1.9a17.29,17.29,0,0,0-10.13-3.35c2.89-1.52,12.56-5.33,29.66.15a6.9,6.9,0,0,1,3.23,2.14A3.41,3.41,0,0,1,589.24,177.68Z"/><ellipse class="cls-16" cx="578.62" cy="174.87" rx="3.01" ry="0.91"/><circle class="cls-16" cx="490.52" cy="133.6" r="4.38"/><polygon class="cls-8" points="541.5 179.97 541.5 182.25 417.38 182.25 417.38 180.43 417.53 179.97 541.5 179.97"/><text class="cls-17" transform="translate(406.38 75.4)">.org<tspan class="cls-13" x="61.55" y="0"> </tspan><tspan class="cls-9" x="69.86" y="0">/ </tspan><tspan class="cls-15" x="91.39" y="0">.com</tspan></text></svg>