<?xml version="1.0" encoding="utf-8"?>
<!-- Generator: Adobe Illustrator 24.0.1, SVG Export Plug-In . SVG Version: 6.00 Build 0)  -->
<svg version="1.1" id="Calque_1" xmlns="http://www.w3.org/2000/svg" xmlns:xlink="http://www.w3.org/1999/xlink" x="0px" y="0px"
	 viewBox="0 0 339.2 692.1" style="enable-background:new 0 0 339.2 692.1;" xml:space="preserve">
<style type="text/css">
	.st0{fill:none;stroke:#D1CED6;stroke-width:2;stroke-miterlimit:10;}
	.st1{fill:none;stroke:#D1CED6;stroke-width:2;stroke-miterlimit:10;stroke-dasharray:11.75,11.75;}
	.st2{opacity:0.1;fill:#FF7700;enable-background:new    ;}
	.st3{fill:#3F3D56;}
	.st4{opacity:0.1;enable-background:new    ;}
	.st5{fill:#2F2E41;}
	.st6{opacity:0.4;fill:#FF7700;enable-background:new    ;}
	.st7{opacity:0.8;fill:#FF7700;enable-background:new    ;}
	.st8{fill:#FF7700;}
	.st9{fill:#FFFFFF;}
	.st10{fill:#3C3C3C;}
	.st11{opacity:0.1;fill:#FF2F63;enable-background:new    ;}
	.st12{fill:#FF2F63;}
	.st13{fill:#F2F2F2;}
	.st14{enable-background:new    ;}
</style>
<g>
	<path class="st0" d="M214.6,392.1c-0.3-0.6-0.5-1.2-0.8-1.8c-0.1-0.1-0.1-0.2-0.1-0.3"/>
	<path class="st1" d="M184.3,540.2c15.6,9.8,29.5,11.4,39.2,4.8c1.5-1,2.9-2.2,4.1-3.6c0.8-0.9,1.6-1.9,2.2-2.9
		c0.6-0.9,1.2-1.8,1.7-2.8c1.5-2.9,2.7-5.9,3.6-9c0.2-0.7,0.4-1.5,0.6-2.2c0.7-2.7,1.2-5.5,1.5-8.3c0.1-0.7,0.2-1.4,0.3-2.1l0.1-0.6
		l0.1-0.6l0-0.4l0.1-1.2l0-0.6c0-0.6,0.1-1.1,0.1-1.7c0-0.2,0.1-0.5,0.1-0.8l0-0.8c0.1-1.7,0.2-3.5,0.2-5.3
		c0.2-12.4-1.1-26.6-3.4-41.3c-2-12.3-4.7-25.1-8.9-38.5c-1.7-5.4-3.6-10.9-5.7-16.5c-1.3-3.2-2.6-6.5-3.9-9.7"/>
	<path class="st0" d="M180.5,537.7c0.6,0.5,1.3,0.9,1.9,1.3"/>
</g>
<path class="st0" d="M125,329.9c-0.1-0.1-0.1-0.2-0.2-0.2c-3.7-3.7-7.2-7.5-10.6-11.3c-3.6-4.1-7-8.2-10.1-12.4
	c-7.8-10.4-13.9-21-19.3-31.5c-6.4-12.6-11.6-25.2-14.9-37c-0.5-1.7-0.9-3.4-1.3-5.1l-0.2-0.8c-0.1-0.3-0.1-0.5-0.2-0.8l0,0
	c-0.1-0.6-0.2-1.1-0.4-1.6l-0.1-0.6l-0.2-1.1l-0.1-0.3l-0.1-0.6l-0.1-0.6c-0.1-0.7-0.2-1.4-0.3-2.1c-0.4-2.9-0.7-5.7-0.9-8.6
	c0-0.8,0-1.6,0-2.4c-0.1-3.5,0.2-7,0.9-10.4c0.2-1.2,0.5-2.4,0.8-3.5c0.4-1.3,0.8-2.7,1.3-3.9c0.8-2,1.7-3.9,2.9-5.6
	c7.9-12.3,23.2-18.3,42.9-16.2"/>
<g>
	<path class="st2" d="M298.2,215.8c-10.4,16-27.3,24.9-44.1,29.7c-13.2,3.8-27,5.5-40.7,4.9c-2.6-0.1-5.2-0.3-7.8-0.5
		c-6.6-0.7-13.2-1.9-19.7-3.5c-3.9-1-7.7-2.2-11.5-3.6c-13.3-4.8-25.8-11.6-37.1-20.2c-3.3-2.5-6.5-5.2-9.6-8
		c-5.2-4.8-10-9.9-14.4-15.4c-1-1.2-1.9-2.5-2.9-3.7l-0.4-0.5c-0.8-1-1.5-2-2.2-3c-1.2-1.7-2.6-3.3-4.1-4.8
		c-0.1-0.1-0.2-0.2-0.3-0.3c-0.3-0.3-0.5-0.5-0.8-0.7c-0.6-0.5-1.2-1-1.8-1.4c-2.9-1.9-6.3-3.1-9.7-3.6c-0.6-0.1-1.2-0.2-1.8-0.2
		l0,0c-0.8-0.1-1.7-0.1-2.5-0.1h-0.4c-2.6,0-5.3,0.1-7.9,0.5c-4,0.6-8.1,1.5-12.2,2.2l0,0c-1.7,0.3-3.4,0.6-5.2,0.8l-0.4,0.1
		c-2.4,0.3-4.9,0.5-7.3,0.5c-5.6-0.2-11-1.7-15.9-4.4l-0.2-0.1l-0.3-0.2l-0.4-0.2c-0.7-0.4-1.4-0.8-2.1-1.3l-0.4-0.3
		c-0.7-0.5-1.3-0.9-2-1.4l-0.4-0.3c-0.7-0.5-1.3-1-1.9-1.6l-0.7-0.6c-0.6-0.6-1.3-1.2-1.9-1.9s-1.3-1.4-1.9-2.1l-0.8-1
		c-1.6-2-3.1-4.2-4.4-6.5c-0.1-0.1-0.1-0.2-0.2-0.4c-0.3-0.6-0.7-1.3-1-1.9l-0.4-0.7c-0.4-0.8-0.7-1.6-1.1-2.4
		c-0.1-0.1-0.1-0.2-0.1-0.4c-1.3-3.4-2.3-6.9-2.9-10.5c0-0.1,0-0.2,0-0.3c-0.2-1.1-0.3-2.3-0.4-3.5c0-0.5-0.1-1-0.1-1.5
		c0-0.1,0-0.3,0-0.4c-0.3-7.1,0.8-14.3,2.1-21.4l0.4-2.5c2.1-11.4,4.3-23.1,7.8-34.1c0-0.1,0.1-0.1,0.1-0.2c1.2-3.7,2.5-7.4,4-10.9
		c1.6-3.7,3.4-7.3,5.4-10.8c5.1-8.3,11.2-16,18.3-22.7c8.1-8.1,17.2-15.1,27-20.9c1.4-0.8,2.8-1.6,4.2-2.3l0.7-0.3
		c0.2-0.1,0.5-0.2,0.7-0.3l0,0l1.4-0.7l0.5-0.3l1-0.5l0.3-0.1l0.5-0.2l0.5-0.2c0.6-0.3,1.2-0.5,1.9-0.8c2.7-1.1,5.4-2.1,8.1-2.9
		c0.8-0.2,1.6-0.5,2.4-0.7c3.7-1,7.4-1.7,11.2-2.1c1.4-0.1,2.8-0.3,4.2-0.3c1.6-0.1,3.3-0.1,4.9,0c2.6,0.1,5.2,0.3,7.8,0.7
		c18.6,2.9,35.4,13,46.8,28c4.7,6.1,8.7,13.1,14.3,18.1c4.9,4.4,11.1,7,17.4,5.3c5.3-1.4,8.6-1.9,14-0.6c11.3,2.8,22,7.5,31.8,13.9
		l1.2,0.8c25.6,17.1,45.1,45.5,51.9,78.7c0.2,0.9,0.3,1.8,0.5,2.7C311.3,174.4,309.8,198,298.2,215.8z"/>
	<ellipse class="st3" cx="175.7" cy="216" rx="117" ry="15.9"/>
	<ellipse class="st4" cx="175.7" cy="216" rx="98.3" ry="13.4"/>
	<rect x="119.4" y="49.8" class="st5" width="130.2" height="151.5"/>
	<rect x="106.2" y="34.8" class="st3" width="156.5" height="53.8"/>
	<rect x="106.2" y="98.6" class="st3" width="156.5" height="53.8"/>
	<rect x="106.2" y="162.5" class="st3" width="156.5" height="53.8"/>
	<rect x="221.4" y="44.2" class="st6" width="10" height="10"/>
	<rect x="235.8" y="44.2" class="st7" width="10" height="10"/>
	<rect x="250.2" y="44.2" class="st8" width="10" height="10"/>
	<rect x="221.4" y="107.4" class="st6" width="10" height="10"/>
	<rect x="235.8" y="107.4" class="st7" width="10" height="10"/>
	<rect x="250.2" y="107.4" class="st8" width="10" height="10"/>
	<rect x="221.4" y="170.6" class="st6" width="10" height="10"/>
	<rect x="235.8" y="170.6" class="st7" width="10" height="10"/>
	<rect x="250.2" y="170.6" class="st8" width="10" height="10"/>
	<g id="Symbole_23_1">
		<path id="Tracé_3456" class="st9" d="M143.5,71.8c0.2-0.1,0.4-0.1,0.6-0.1h1.5c1.3,0,2.6-0.2,3.8-0.7c1.1-0.4,2.1-1.1,2.8-2.1
			c0.7-1,1.1-2.2,1.1-3.5c0.1-1.2-0.3-2.5-1-3.5c-0.7-0.9-1.6-1.7-2.7-2.1c-1.2-0.5-2.5-0.7-3.8-0.7h-5.5c-0.3,0-0.7,0.1-1,0.3
			c-0.2,0.2-0.3,0.5-0.3,0.8v17c0,0.1,0,0.3,0.1,0.4c0.1,0.1,0.3,0.1,0.4,0.1h3.2c0.1,0,0.3,0,0.4-0.1c0.1-0.1,0.1-0.4,0.1-0.4v-4.9
			C143.3,72,143.4,71.9,143.5,71.8z M145.8,62.6c0.8-0.1,1.7,0.2,2.3,0.8c0.6,0.6,0.9,1.4,0.8,2.2c0,0.8-0.3,1.5-0.9,2
			c-0.6,0.5-1.4,0.8-2.2,0.8h-2.1c-0.2,0-0.4-0.1-0.4-0.3c0,0,0-0.1,0-0.1v-5c0-0.1,0-0.2,0.1-0.2c0.1-0.1,0.2-0.1,0.4,0L145.8,62.6
			z"/>
		<path id="Tracé_3455" class="st9" d="M157.5,62.5c0.6,0,1.2-0.3,1.7-0.7c0.5-0.4,0.7-1,0.7-1.6c0-0.6-0.3-1.2-0.7-1.7
			c-0.9-0.9-2.4-0.9-3.4,0.1c-0.4,0.4-0.6,1-0.6,1.6c0,0.6,0.3,1.2,0.7,1.6C156.3,62.2,156.9,62.5,157.5,62.5z M159.5,77.3
			c0.1-0.1,0.2-0.3,0.1-0.5V65.4c0-0.3-0.1-0.6-0.2-0.8c-0.2-0.2-0.5-0.3-0.8-0.3h-1.9c-0.4,0-0.7,0.1-1,0.4c-0.2,0.3-0.3,0.7-0.3,1
			v10.8c0,0.3,0.1,0.5,0.2,0.7c0.2,0.1,0.4,0.2,0.7,0.2h2.8C159.2,77.5,159.3,77.4,159.5,77.3z M177.1,77.2c0.2-0.2,0.3-0.5,0.4-0.7
			l3.8-11.6c0.1-0.1,0.1-0.3,0-0.4c-0.1-0.1-0.4-0.1-0.4-0.1h-3.1c-0.2,0-0.4,0.1-0.5,0.1c-0.1,0.1-0.2,0.2-0.3,0.4l-1.5,6.5
			c0,0.1-0.1,0.2-0.2,0.2l0,0c-0.1,0-0.2-0.1-0.2-0.2c0,0,0,0,0,0l0,0l-1.6-6.4c0-0.2-0.1-0.4-0.3-0.5c-0.2-0.1-0.4-0.2-0.6-0.1h-3
			c-0.2,0-0.4,0.1-0.6,0.1c-0.1,0.1-0.2,0.3-0.3,0.4l-1.3,6c0,0,0,0.2-0.4,0.3s-0.5-0.3-0.5-0.3l-1.3-5.9c0-0.3-0.1-0.6-0.4-0.8
			c-0.3-0.1-0.6-0.2-0.9-0.1l-1.9,0.5c-0.3,0.1-0.6,0.3-0.8,0.5c-0.1,0.3-0.1,0.7,0,1l3.3,10.3c0,0.3,0.2,0.6,0.4,0.8
			c0.3,0.2,0.6,0.2,0.9,0.2h1.9c0.3,0,0.5-0.1,0.8-0.2c0.2-0.2,0.3-0.4,0.4-0.7l1.6-5.5c0-0.2,0.2-0.3,0.4-0.3
			c0.2,0,0.4,0.1,0.4,0.3c0,0,0,0,0,0l1.6,5.4c0,0.3,0.2,0.6,0.4,0.8c0.3,0.2,0.7,0.2,1,0.2h1.7C176.6,77.5,176.9,77.4,177.1,77.2
			L177.1,77.2z M185.3,62.5c0.6,0,1.2-0.3,1.7-0.7c0.5-0.4,0.7-1,0.7-1.6c0-0.6-0.3-1.2-0.7-1.7c-0.9-0.9-2.4-0.9-3.3,0
			c-0.9,0.9-0.9,2.4,0,3.3C184.1,62.2,184.7,62.5,185.3,62.5z M187.2,77.2c0.2-0.2,0.2-0.4,0.2-0.7V65.2c0-0.2-0.1-0.4-0.2-0.6
			c-0.2-0.1-0.4-0.2-0.6-0.3h-2.5c-0.3,0-0.5,0.1-0.7,0.3c-0.2,0.2-0.2,0.4-0.2,0.7v11.1c0,0.3,0,0.6,0.2,0.9
			c0.2,0.2,0.4,0.3,0.7,0.3h2.3C186.7,77.5,187,77.4,187.2,77.2z M202.7,64.5c0.1,0.3,0.1,0.6,0.1,0.9l-0.1,12.5
			c0,1.1-0.3,2.1-0.9,3c-0.6,0.9-1.5,1.6-2.5,2c-1.2,0.5-2.5,0.7-3.7,0.7c-1,0-1.9-0.2-2.9-0.4c-0.8-0.2-1.5-0.4-2.2-0.8
			c-0.2-0.1-0.3-0.3-0.4-0.5c0-0.2,0-0.4,0.1-0.6l0.6-1.3c0.1-0.2,0.3-0.4,0.5-0.5c0.3-0.1,0.6-0.1,0.9,0c1,0.4,2.1,0.6,3.2,0.6
			c0.8,0,1.6-0.2,2.2-0.6c0.6-0.4,0.9-1,0.9-1.7c0,0,0.1-0.7-0.5-0.7s-0.9,0.5-1.9,0.5c-1.8,0.1-3.6-0.6-4.9-1.8
			c-1.3-1.4-1.9-3.2-1.8-5.1c-0.1-1.9,0.6-3.7,1.9-5.1c1.3-1.3,3.1-2,5-1.9c0.6,0,1.3,0.1,1.9,0.4c0.6,0.3,1.1,1,1.8,1s-0.1-1,0.7-1
			h1.5C202.4,64.3,202.6,64.4,202.7,64.5L202.7,64.5z M196.6,74.3c0.6,0,1.2-0.2,1.6-0.7c0.3-0.5,0.4-1.1,0.4-1.6v-2.2
			c0.1-0.6-0.1-1.3-0.4-1.8c-0.4-0.5-1-0.8-1.7-0.7c-0.8,0-1.5,0.4-1.9,1c-0.5,0.8-0.8,1.7-0.7,2.6c0,0.9,0.2,1.8,0.7,2.5
			C195,74,195.8,74.4,196.6,74.3L196.6,74.3z M219.5,70.9c0,1.3-0.3,2.5-0.9,3.6c-0.6,1-1.5,1.8-2.6,2.4c-1.2,0.6-2.5,0.8-3.8,0.8
			c-1.3,0-2.6-0.3-3.8-0.8c-1.1-0.5-1.9-1.3-2.5-2.4c-0.6-1.1-0.9-2.4-0.9-3.8c0-1.3,0.3-2.6,0.9-3.7c0.6-1,1.5-1.9,2.6-2.4
			c2.4-1.1,5.1-1.1,7.5,0c1.1,0.5,2,1.4,2.6,2.4C219.2,68.3,219.5,69.6,219.5,70.9L219.5,70.9z M212.3,74.2c0.8,0,1.6-0.3,2.1-0.9
			c0.5-0.7,0.8-1.6,0.8-2.5c0-0.9-0.2-1.8-0.8-2.5c-0.5-0.6-1.2-1-2-1c-0.8,0-1.6,0.3-2.1,0.9c-1,1.5-1,3.5,0,5
			C210.7,73.9,211.5,74.3,212.3,74.2L212.3,74.2z"/>
		<path id="Tracé_3467" class="st8" d="M115.5,72.7V64c0-2.7,2.2-4.9,4.9-4.9h11.5l1.4,0.6l0.7,1.4v11.5c0,2.7-2.2,4.9-4.9,4.9
			h-8.6C117.7,77.6,115.5,75.4,115.5,72.7L115.5,72.7z"/>
		<path id="Tracé_3469" class="st8" d="M130.6,57.8c1.8,0,3.3,1.5,3.3,3.3s-1.5,3.3-3.3,3.3c0,0,0,0,0,0c-1.8,0-8.3-5.4-8.1-5.4
			h1.3C128.6,59.1,128.4,57.9,130.6,57.8z"/>
		<circle id="Ellipse_69" class="st9" cx="130.6" cy="61.1" r="1.1"/>
		<circle id="Ellipse_67" class="st9" cx="124.7" cy="68.3" r="5.5"/>
		<circle id="Ellipse_68" class="st10" cx="124.7" cy="68.3" r="3.9"/>
	</g>
</g>
<g>
	<path class="st11" d="M328,587.6c-0.8,18.5-10.6,34.5-22.3,47.1c-9.2,9.9-20,18.3-31.9,24.8c-2.3,1.3-4.6,2.4-6.9,3.5
		c-5.9,2.8-12.1,5.2-18.4,7.1c-3.8,1.1-7.6,2.1-11.5,2.9c-13.6,2.8-27.5,3.5-41.3,2.1c-4-0.4-8-1-12-1.8c-6.7-1.3-13.4-3.2-19.9-5.5
		c-1.5-0.5-2.9-1.1-4.3-1.7L159,666c-1.1-0.5-2.3-1-3.4-1.4c-1.9-0.8-3.8-1.4-5.8-1.9l-0.4-0.1l-1.1-0.2c-0.8-0.1-1.5-0.2-2.2-0.2
		c-3.4-0.1-6.9,0.6-10,2c-0.5,0.2-1.1,0.4-1.6,0.7l0,0c-0.7,0.3-1.5,0.7-2.2,1.1l-0.3,0.2c-2.3,1.3-4.4,2.8-6.4,4.4
		c-3.1,2.5-6.1,5.3-9.1,8l0,0c-1.3,1.1-2.6,2.3-3.9,3.3l-0.3,0.2c-1.9,1.5-3.9,2.9-6,4.1c-4.8,2.7-10.1,4.2-15.6,4.5h-0.2h-0.8
		c-0.8,0-1.6,0-2.5,0h-0.5c-0.8,0-1.6-0.1-2.4-0.2l-0.5-0.1c-0.8-0.1-1.6-0.2-2.5-0.4l-0.9-0.2c-0.9-0.1-1.7-0.3-2.6-0.6
		c-0.9-0.2-1.8-0.5-2.7-0.8c-0.4-0.1-0.8-0.3-1.2-0.4c-2.4-0.9-4.7-1.9-6.9-3.1l-0.3-0.2c-0.6-0.3-1.2-0.7-1.8-1.1
		c-0.2-0.1-0.4-0.3-0.7-0.4c-0.7-0.5-1.4-0.9-2.1-1.4c-0.1-0.1-0.2-0.2-0.3-0.2c-2.8-2.1-5.4-4.5-7.7-7.2c-0.1-0.1-0.1-0.2-0.2-0.2
		c-0.7-0.9-1.4-1.8-2.1-2.7l-0.8-1.2l-0.2-0.4c-3.8-5.8-6.5-12.3-8.9-18.8c-0.3-0.7-0.6-1.5-0.9-2.3c-4-10.6-7.9-21.3-10.4-32.3
		c0-0.1,0-0.1,0-0.2c-0.9-3.7-1.5-7.4-2-11.1c-0.5-3.9-0.8-7.8-0.8-11.8c0.1-9.5,1.5-19,4.1-28.2c2.8-10.8,7-21.3,12.4-31
		c0.8-1.4,1.6-2.7,2.4-4l0.4-0.6c0.1-0.2,0.3-0.4,0.4-0.6l0,0c0.3-0.5,0.5-0.8,0.8-1.3l0.3-0.5l0.6-0.9l0.2-0.3l0.3-0.5l0.3-0.5
		c0.4-0.6,0.8-1.1,1.2-1.6c1.7-2.3,3.5-4.5,5.4-6.5c0.6-0.6,1.2-1.2,1.7-1.8c2.6-2.7,5.4-5.2,8.4-7.4c1.1-0.8,2.2-1.6,3.4-2.4
		c1.4-0.9,2.7-1.7,4.1-2.5c2.2-1.2,4.5-2.4,6.9-3.3c17.1-7,36.2-7.2,53.5-0.6c7,2.7,13.8,6.4,21.1,7.8c6.3,1.2,12.8,0.1,17.4-4.4
		c3.8-3.8,6.3-6,11.5-7.6c10.9-3.4,22.2-5,33.6-4.6c0.4,0,0.9,0,1.4,0c30.1,1.2,60.7,14.8,83,38.9c0.6,0.6,1.2,1.3,1.7,1.9
		C318.3,546.6,328.8,567,328,587.6z"/>
	<path class="st3" d="M199.6,550.2c-6.9-34-36.5-59.7-72.6-59.7c-27.6,0-53,15.4-65.7,40c-32.5,3.5-56,32.7-52.5,65.2
		c3.2,30.1,28.7,52.9,58.9,52.8h128.4c27.2-0.1,49.3-22.1,49.4-49.4C245.6,573.2,225.4,551.8,199.6,550.2z"/>
	<g id="Symbole_24_1">
		<path id="Tracé_3456-2" class="st9" d="M102.4,581.4c0.2-0.1,0.4-0.1,0.6-0.1h1.5c1.3,0,2.5-0.2,3.7-0.7c1.1-0.4,2-1.1,2.7-2
			c0.7-1,1-2.2,1-3.4c0.1-2.4-1.3-4.6-3.6-5.4c-1.2-0.5-2.4-0.7-3.7-0.7h-5.3c-0.4,0-0.7,0.1-1,0.3c-0.2,0.2-0.3,0.5-0.3,0.7v16.5
			c-0.1,0.2,0.1,0.4,0.3,0.5c0.1,0,0.1,0,0.2,0h3.2c0.1,0,0.3,0,0.4-0.1c0.1-0.1,0.1-0.3,0.1-0.4v-4.7
			C102.1,581.7,102.2,581.5,102.4,581.4z M104.5,572.4c0.8-0.1,1.6,0.2,2.3,0.7c0.6,0.6,0.9,1.4,0.8,2.1c0,0.8-0.3,1.5-0.9,2
			c-0.6,0.5-1.4,0.8-2.2,0.7h-2c-0.1,0-0.2,0-0.3-0.1c-0.1-0.1-0.1-0.2-0.1-0.3v-4.9c0-0.1,0-0.2,0.1-0.2c0.1,0,0.2-0.1,0.3-0.1
			L104.5,572.4z"/>
		<path id="Tracé_3455-2" class="st9" d="M116,572.3c1.3,0,2.3-1,2.3-2.3c0-0.6-0.2-1.2-0.7-1.6c-0.9-0.9-2.3-0.9-3.2,0
			c0,0,0,0,0,0c-0.4,0.4-0.7,1-0.7,1.6C113.7,571.3,114.7,572.3,116,572.3L116,572.3z M118,586.7c0.1-0.1,0.1-0.3,0.1-0.4v-11.1
			c0-0.3,0-0.5-0.2-0.8c-0.2-0.2-0.5-0.3-0.7-0.3h-1.9c-0.4,0-0.7,0.1-1,0.4c-0.2,0.3-0.3,0.6-0.3,1V586c0,0.2,0,0.5,0.2,0.7
			c0.2,0.1,0.4,0.2,0.6,0.2h2.7C117.6,586.9,117.8,586.8,118,586.7L118,586.7z M135.1,586.6c0.2-0.2,0.3-0.4,0.4-0.7l3.7-11.3
			c0,0,0.1-0.3,0-0.4c-0.1-0.1-0.4-0.1-0.4-0.1h-3c-0.2,0-0.4,0.1-0.5,0.1c-0.1,0.1-0.2,0.2-0.2,0.4l-1.5,6.3c0,0.1-0.1,0.2-0.2,0.2
			l0,0c-0.1,0-0.2-0.1-0.2-0.2c0,0,0,0,0,0l0,0l-1.5-6.2c0-0.2-0.1-0.3-0.2-0.5c-0.2-0.1-0.3-0.1-0.5-0.1h-2.9
			c-0.2,0-0.4,0.1-0.5,0.1c-0.1,0.1-0.2,0.2-0.2,0.4l-1.2,5.8c0,0,0,0.2-0.4,0.3s-0.5-0.3-0.5-0.3l-1.3-5.7c0-0.3-0.1-0.6-0.3-0.8
			c-0.3-0.1-0.6-0.2-0.8-0.1l-1.8,0.5c-0.5,0.1-1,0.5-0.9,1.1c0,0.1,0,0.2,0.1,0.4l3.2,10c0.1,0.3,0.2,0.6,0.4,0.8
			c0.3,0.2,0.6,0.2,0.9,0.2h1.8c0.3,0,0.5-0.1,0.7-0.2c0.2-0.2,0.3-0.4,0.3-0.7l1.5-5.3c0-0.2,0.2-0.3,0.4-0.3
			c0.2,0,0.3,0.1,0.4,0.3l1.5,5.2c0,0.3,0.2,0.6,0.4,0.8c0.3,0.2,0.7,0.3,1,0.2h1.6C134.6,586.8,134.9,586.7,135.1,586.6
			L135.1,586.6z M143.1,572.3c1.3,0,2.3-1,2.3-2.3c0-0.6-0.2-1.2-0.7-1.6c-0.9-0.9-2.3-0.9-3.2,0c-0.4,0.4-0.7,1-0.7,1.6
			c0,0.6,0.2,1.2,0.7,1.6C141.9,572.1,142.5,572.3,143.1,572.3L143.1,572.3z M145,586.6c0.2-0.2,0.3-0.4,0.2-0.7v-11
			c0-0.2-0.1-0.4-0.2-0.6c-0.1-0.1-0.3-0.2-0.5-0.2H142c-0.3,0-0.5,0.1-0.7,0.3c-0.1,0.2-0.2,0.4-0.2,0.7v10.8c0,0.3,0,0.6,0.2,0.9
			c0.2,0.2,0.4,0.3,0.7,0.2h2.3C144.1,586.9,144.6,586.9,145,586.6L145,586.6z M160.1,574.3c0.1,0.3,0.1,0.6,0.1,0.9v12.2
			c0,1.1-0.3,2.1-0.9,3c-0.6,0.9-1.4,1.6-2.4,2c-1.2,0.5-2.4,0.7-3.6,0.7c-0.9,0-1.9-0.2-2.8-0.4c-0.8-0.2-1.5-0.4-2.2-0.7
			c-0.2-0.1-0.3-0.3-0.4-0.5c0-0.2,0-0.4,0.1-0.6l0.5-1.3c0.1-0.2,0.3-0.4,0.5-0.5c0.3-0.1,0.6-0.1,0.9,0c1,0.4,2.1,0.6,3.1,0.6
			c0.8,0,1.5-0.2,2.2-0.6c0.5-0.4,0.8-1,0.8-1.6c0,0,0.1-0.7-0.5-0.7s-0.9,0.5-1.9,0.5c-1.8,0.1-3.5-0.5-4.7-1.8
			c-1.2-1.3-1.9-3.1-1.8-4.9c-0.1-1.8,0.5-3.6,1.8-5c1.3-1.2,3.1-1.9,4.9-1.8c0.6,0,1.2,0.1,1.8,0.4c0.6,0.2,1.1,1,1.7,1
			s0-0.9,0.7-0.9h1.3C159.7,574.1,159.9,574.1,160.1,574.3L160.1,574.3z M154.1,583.9c0.6,0,1.2-0.2,1.5-0.7c0.3-0.5,0.4-1,0.4-1.6
			v-2.2c0.1-0.6-0.1-1.2-0.4-1.8c-0.4-0.5-1-0.7-1.7-0.6c-0.7,0-1.4,0.3-1.9,0.9c-0.5,0.7-0.7,1.6-0.7,2.5c0,0.9,0.2,1.8,0.7,2.5
			C152.6,583.6,153.3,583.9,154.1,583.9L154.1,583.9z M176.4,580.5c0,1.2-0.3,2.5-0.9,3.6c-0.6,1-1.5,1.8-2.5,2.3
			c-1.1,0.5-2.4,0.8-3.7,0.8c-1.3,0-2.5-0.2-3.7-0.8c-1-0.5-1.9-1.3-2.5-2.3c-0.6-1.1-0.9-2.4-0.9-3.7c0-1.3,0.3-2.5,0.9-3.6
			c0.6-1,1.5-1.8,2.5-2.4c1.1-0.5,2.4-0.8,3.7-0.8c1.3,0,2.5,0.3,3.7,0.8c1,0.5,1.9,1.3,2.5,2.4C176.1,578,176.4,579.2,176.4,580.5
			L176.4,580.5z M169.3,583.8c0.8,0,1.5-0.3,2-0.9c0.5-0.7,0.8-1.5,0.8-2.4c0-0.9-0.2-1.7-0.7-2.4c-0.5-0.6-1.2-1-2-0.9
			c-0.8,0-1.5,0.3-2,0.9c-1,1.5-1,3.4,0,4.8C167.7,583.5,168.5,583.8,169.3,583.8L169.3,583.8z"/>
		<path id="Tracé_3467-2" class="st12" d="M75.1,582.2v-8.4c0-2.6,2.1-4.7,4.8-4.8h11.2l1.4,0.6l0.6,1.4v11.2
			c0,2.6-2.1,4.8-4.8,4.8h-8.5C77.2,587,75.1,584.9,75.1,582.2L75.1,582.2L75.1,582.2z"/>
		<path id="Tracé_3469-2" class="st12" d="M89.7,567.8c1.8-0.1,3.3,1.3,3.4,3c0.1,1.8-1.3,3.3-3,3.4c-0.1,0-0.2,0-0.4,0
			c-1.8,0-8.1-5.2-7.9-5.2h1.2C87.9,569,87.7,567.8,89.7,567.8z"/>
		<circle id="Ellipse_69-2" class="st9" cx="89.8" cy="570.9" r="1.1"/>
		<circle id="Ellipse_67-2" class="st9" cx="84.1" cy="578" r="5.3"/>
		<circle id="Ellipse_68-2" class="st10" cx="84.1" cy="578" r="3.8"/>
	</g>
</g>
<circle class="st13" cx="165.7" cy="271.1" r="1.1"/>
<g>
	<ellipse class="st3" cx="161.6" cy="451.3" rx="107.7" ry="14.7"/>
	<path class="st5" d="M139.5,414.2l-3,19.1c0,0-14.8,7.8-4.4,8.1c10.4,0.2,59.3,0,59.3,0s9.4,0-5.5-8.3l-3-20.1L139.5,414.2z"/>
	<path class="st4" d="M130,441.3c2-1.6,4.2-3.1,6.4-4.3l3-19.1h43.4l3,18.9c2.5,1.3,4.8,2.8,6.9,4.6c1.9-0.5,4-2.1-6.9-8.1l-3-20.1
		l-43.4,1.2l-3,19.1C136.5,433.4,124.1,440,130,441.3z"/>
	<path class="st5" d="M70.2,280.8h181.6c3.8,0,6.9,3.1,6.9,6.8c0,0,0,0,0,0V410c0,3.8-3.1,6.9-6.9,6.9H70.1c-3.8,0-6.9-3.1-6.9-6.9
		V287.6C63.3,283.8,66.4,280.8,70.2,280.8z"/>
	<rect x="69.9" y="288" class="st9" width="182.3" height="102"/>
	<path class="st5" d="M258.7,398.1V410c0,3.8-3.1,6.9-6.9,6.9H70.2c-3.8,0-6.9-3.1-6.9-6.9l0,0v-11.9H258.7z"/>
	<polygon class="st5" points="212,453.9 212,456.2 87.9,456.2 87.9,454.4 88,453.9 91.1,445.6 209.4,445.6 	"/>
	<path class="st5" d="M259.7,451.6c-0.2,1-1.1,2-3,3c-6.9,3.5-21-0.9-21-0.9s-10.8-1.8-10.8-6.7c0.3-0.2,0.6-0.4,1-0.6
		c2.9-1.5,12.6-5.3,29.7,0.1c1.3,0.4,2.4,1.1,3.2,2.1C259.5,449.5,259.9,450.6,259.7,451.6z"/>
	<path class="st4" d="M259.7,451.6c-8.5,3.2-16,3.5-23.8-1.9c-2.9-2.2-6.5-3.3-10.1-3.4c2.9-1.5,12.6-5.3,29.7,0.1
		c1.3,0.4,2.4,1.1,3.2,2.1C259.5,449.5,259.9,450.6,259.7,451.6z"/>
	<ellipse class="st13" cx="249.1" cy="448.8" rx="3" ry="0.9"/>
	<circle class="st13" cx="161" cy="407.6" r="4.4"/>
	<polygon class="st4" points="212,453.9 212,456.2 87.9,456.2 87.9,454.4 88,453.9 	"/>
	<g class="st14">
		<path class="st8" d="M78.7,347.1c0-0.9,0.2-1.5,0.7-2c0.5-0.4,1.2-0.7,2-0.7c0.9,0,1.5,0.2,2,0.7c0.5,0.5,0.7,1.1,0.7,2
			c0,0.8-0.2,1.5-0.7,1.9c-0.5,0.5-1.1,0.7-2,0.7c-0.9,0-1.6-0.2-2-0.7C78.9,348.6,78.7,348,78.7,347.1z"/>
		<path class="st8" d="M104.4,340.6c0,2.8-0.8,5.1-2.3,6.7c-1.5,1.6-3.6,2.4-6.3,2.4c-1.7,0-3.2-0.4-4.4-1.1s-2.3-1.8-3-3.2
			s-1-3-1-4.8c0-2.9,0.7-5.1,2.2-6.7c1.5-1.6,3.6-2.4,6.3-2.4c1.7,0,3.2,0.4,4.4,1.1c1.3,0.7,2.3,1.8,3,3.1
			C104,337.2,104.4,338.8,104.4,340.6z M92.3,340.6c0,1.7,0.3,3,0.9,3.9c0.6,0.9,1.5,1.3,2.8,1.3c1.3,0,2.2-0.4,2.7-1.3
			c0.6-0.9,0.8-2.2,0.8-3.9c0-1.7-0.3-3-0.8-3.9c-0.6-0.9-1.5-1.3-2.8-1.3c-1.3,0-2.2,0.4-2.8,1.3S92.3,338.9,92.3,340.6z"/>
		<path class="st8" d="M118.1,331.6c0.6,0,1.2,0,1.6,0.1l-0.4,4.5c-0.4-0.1-0.9-0.2-1.4-0.2c-1.5,0-2.7,0.4-3.6,1.2
			c-0.8,0.8-1.3,1.9-1.3,3.3v8.9h-4.8v-17.5h3.6l0.7,2.9h0.2c0.5-1,1.3-1.8,2.2-2.4C116,331.9,117,331.6,118.1,331.6z"/>
		<path class="st8" d="M138,331.9v2.4l-2.7,0.7c0.5,0.8,0.8,1.7,0.8,2.6c0,1.9-0.7,3.3-2,4.4c-1.3,1-3.1,1.6-5.4,1.6l-0.9,0
			l-0.7-0.1c-0.5,0.4-0.7,0.8-0.7,1.3c0,0.7,0.9,1,2.6,1h3c1.9,0,3.4,0.4,4.4,1.2c1,0.8,1.5,2,1.5,3.6c0,2-0.9,3.6-2.6,4.8
			s-4.1,1.7-7.3,1.7c-2.4,0-4.3-0.4-5.6-1.3c-1.3-0.8-1.9-2-1.9-3.6c0-1.1,0.3-1.9,1-2.6s1.6-1.2,2.9-1.5c-0.5-0.2-0.9-0.5-1.3-1
			c-0.4-0.5-0.5-1-0.5-1.5c0-0.7,0.2-1.2,0.6-1.7c0.4-0.4,0.9-0.9,1.7-1.3c-0.9-0.4-1.6-1-2.2-1.9c-0.5-0.9-0.8-1.9-0.8-3.1
			c0-1.9,0.6-3.4,1.9-4.4c1.2-1,3-1.6,5.3-1.6c0.5,0,1.1,0,1.7,0.1c0.7,0.1,1.1,0.2,1.3,0.2H138z M124.6,351.8
			c0,0.7,0.3,1.2,0.9,1.5c0.6,0.4,1.5,0.6,2.6,0.6c1.7,0,3-0.2,4-0.7s1.5-1.1,1.5-1.9c0-0.7-0.3-1.1-0.9-1.4
			c-0.6-0.3-1.5-0.4-2.7-0.4h-2.5c-0.9,0-1.6,0.2-2.2,0.6C124.8,350.6,124.6,351.2,124.6,351.8z M126.3,337.6c0,0.9,0.2,1.7,0.6,2.3
			c0.4,0.6,1.1,0.8,2,0.8c0.9,0,1.6-0.3,2-0.8c0.4-0.6,0.6-1.3,0.6-2.3c0-2.1-0.9-3.2-2.6-3.2C127.2,334.5,126.3,335.5,126.3,337.6z
			"/>
	</g>
	<g class="st14">
		<path class="st5" d="M159.8,326.5l-8.5,22.8h-4.3l8.5-22.8H159.8z"/>
	</g>
	<g class="st14">
		<path class="st12" d="M170.1,347.1c0-0.9,0.2-1.5,0.7-2c0.5-0.4,1.2-0.7,2-0.7c0.9,0,1.5,0.2,2,0.7c0.5,0.5,0.7,1.1,0.7,2
			c0,0.8-0.2,1.5-0.7,1.9c-0.5,0.5-1.1,0.7-2,0.7c-0.9,0-1.6-0.2-2-0.7C170.3,348.6,170.1,348,170.1,347.1z"/>
		<path class="st12" d="M187,349.7c-5.4,0-8.2-3-8.2-9c0-3,0.7-5.2,2.2-6.8c1.5-1.6,3.6-2.4,6.4-2.4c2,0,3.8,0.4,5.4,1.2l-1.4,3.7
			c-0.8-0.3-1.4-0.5-2.1-0.7c-0.6-0.2-1.3-0.3-1.9-0.3c-2.5,0-3.7,1.8-3.7,5.3c0,3.4,1.2,5.1,3.7,5.1c0.9,0,1.8-0.1,2.5-0.4
			c0.8-0.2,1.6-0.6,2.3-1.1v4.1c-0.8,0.5-1.5,0.8-2.3,1C189.2,349.6,188.2,349.7,187,349.7z"/>
		<path class="st12" d="M212.2,340.6c0,2.8-0.8,5.1-2.3,6.7c-1.5,1.6-3.6,2.4-6.3,2.4c-1.7,0-3.2-0.4-4.4-1.1s-2.3-1.8-3-3.2
			s-1-3-1-4.8c0-2.9,0.7-5.1,2.2-6.7c1.5-1.6,3.6-2.4,6.3-2.4c1.7,0,3.2,0.4,4.4,1.1c1.3,0.7,2.3,1.8,3,3.1
			C211.9,337.2,212.2,338.8,212.2,340.6z M200.1,340.6c0,1.7,0.3,3,0.9,3.9c0.6,0.9,1.5,1.3,2.8,1.3c1.3,0,2.2-0.4,2.7-1.3
			c0.6-0.9,0.8-2.2,0.8-3.9c0-1.7-0.3-3-0.8-3.9c-0.6-0.9-1.5-1.3-2.8-1.3c-1.3,0-2.2,0.4-2.8,1.3S200.1,338.9,200.1,340.6z"/>
		<path class="st12" d="M231.8,349.4H227v-10.2c0-1.3-0.2-2.2-0.6-2.8c-0.4-0.6-1.1-0.9-2-0.9c-1.2,0-2.1,0.4-2.7,1.3
			c-0.6,0.9-0.8,2.4-0.8,4.4v8.2h-4.8v-17.5h3.6l0.6,2.2h0.3c0.5-0.8,1.1-1.4,2-1.9c0.9-0.5,1.9-0.7,3-0.7c2.6,0,4.4,0.9,5.3,2.6
			h0.4c0.5-0.8,1.2-1.4,2.1-1.9c0.9-0.4,1.9-0.7,3.1-0.7c2,0,3.5,0.5,4.5,1.5s1.5,2.6,1.5,4.9v11.4h-4.8v-10.2
			c0-1.3-0.2-2.2-0.6-2.8c-0.4-0.6-1.1-0.9-2-0.9c-1.2,0-2,0.4-2.6,1.3c-0.6,0.8-0.9,2.2-0.9,4V349.4z"/>
	</g>
</g>
</svg>
