<svg id="Calque_1" data-name="Calque 1" xmlns="http://www.w3.org/2000/svg" viewBox="0 0 96 96"><defs><style>.cls-1{fill:#ffedde;}.cls-2{fill:#f70;}</style></defs><title>icon1-self-hosting</title><g id="Symbole_84_1" data-name="Symbole 84 1"><circle id="Ellipse_462" data-name="Ellipse 462" class="cls-1" cx="47.98" cy="48.64" r="47.5"/></g><path class="cls-2" d="M34,31.79A3.23,3.23,0,1,0,37.23,35,3.23,3.23,0,0,0,34,31.79Zm0,5A1.8,1.8,0,1,1,35.79,35,1.79,1.79,0,0,1,34,36.81Z"/><circle class="cls-2" cx="62.33" cy="33.94" r="0.72"/><circle class="cls-2" cx="59.46" cy="33.94" r="0.72"/><circle class="cls-2" cx="63.76" cy="36.09" r="0.72"/><circle class="cls-2" cx="60.89" cy="36.09" r="0.72"/><circle class="cls-2" cx="56.59" cy="33.94" r="0.72"/><circle class="cls-2" cx="58.02" cy="36.09" r="0.72"/><circle class="cls-2" cx="53.72" cy="33.94" r="0.72"/><circle class="cls-2" cx="55.16" cy="36.09" r="0.72"/><circle class="cls-2" cx="50.85" cy="33.94" r="0.72"/><circle class="cls-2" cx="52.29" cy="36.09" r="0.72"/><path class="cls-2" d="M69.5,39.24V30.79a3.31,3.31,0,0,0-3.31-3.3H29.77a3.3,3.3,0,0,0-3.3,3.3v8.45a3.3,3.3,0,0,0,1.27,2.59,3.27,3.27,0,0,0-1.27,2.59v8.45a3.3,3.3,0,0,0,1.27,2.59A3.26,3.26,0,0,0,26.47,58v8.45a3.31,3.31,0,0,0,3.3,3.31H66.19a3.31,3.31,0,0,0,3.31-3.31V58a3.27,3.27,0,0,0-1.28-2.58,3.28,3.28,0,0,0,1.28-2.59V44.42a3.27,3.27,0,0,0-1.27-2.59A3.3,3.3,0,0,0,69.5,39.24ZM68.07,58v8.45a1.87,1.87,0,0,1-1.88,1.87H29.77a1.86,1.86,0,0,1-1.87-1.87V58a1.87,1.87,0,0,1,1.87-1.87H66.19A1.88,1.88,0,0,1,68.07,58Zm0-13.62v8.45a1.88,1.88,0,0,1-1.88,1.87H29.77a1.87,1.87,0,0,1-1.87-1.87V44.42a1.87,1.87,0,0,1,1.87-1.87H66.19A1.88,1.88,0,0,1,68.07,44.42Zm-38.3-3.31a1.87,1.87,0,0,1-1.87-1.87V30.79a1.87,1.87,0,0,1,1.87-1.87H66.19a1.88,1.88,0,0,1,1.88,1.87v8.45a1.88,1.88,0,0,1-1.88,1.87Z"/><path class="cls-2" d="M34,51.87a3.23,3.23,0,1,0-3.23-3.23A3.23,3.23,0,0,0,34,51.87Zm0-5a1.8,1.8,0,1,1-1.79,1.79A1.79,1.79,0,0,1,34,46.85Z"/><circle class="cls-2" cx="62.33" cy="47.57" r="0.72"/><circle class="cls-2" cx="59.46" cy="47.57" r="0.72"/><circle class="cls-2" cx="63.76" cy="49.72" r="0.72"/><circle class="cls-2" cx="60.89" cy="49.72" r="0.72"/><circle class="cls-2" cx="56.59" cy="47.57" r="0.72"/><circle class="cls-2" cx="58.02" cy="49.72" r="0.72"/><circle class="cls-2" cx="53.72" cy="47.57" r="0.72"/><circle class="cls-2" cx="55.16" cy="49.72" r="0.72"/><circle class="cls-2" cx="50.85" cy="47.57" r="0.72"/><circle class="cls-2" cx="52.29" cy="49.72" r="0.72"/><path class="cls-2" d="M34,65.5a3.23,3.23,0,1,0-3.23-3.23A3.23,3.23,0,0,0,34,65.5Zm0-5a1.79,1.79,0,1,1-1.79,1.79A1.79,1.79,0,0,1,34,60.48Z"/><circle class="cls-2" cx="62.33" cy="61.19" r="0.72"/><circle class="cls-2" cx="59.46" cy="61.19" r="0.72"/><circle class="cls-2" cx="63.76" cy="63.34" r="0.72"/><circle class="cls-2" cx="60.89" cy="63.34" r="0.72"/><circle class="cls-2" cx="56.59" cy="61.19" r="0.72"/><circle class="cls-2" cx="58.02" cy="63.34" r="0.72"/><circle class="cls-2" cx="53.72" cy="61.19" r="0.72"/><circle class="cls-2" cx="55.16" cy="63.34" r="0.72"/><circle class="cls-2" cx="50.85" cy="61.19" r="0.72"/><circle class="cls-2" cx="52.29" cy="63.34" r="0.72"/></svg>