<svg id="Calque_1" data-name="Calque 1" xmlns="http://www.w3.org/2000/svg" viewBox="0 0 96 96"><defs><style>.cls-1{fill:#ffe9ee;}.cls-2{fill:#ff2f63;}</style></defs><title>icon4-one-step</title><circle id="Ellipse_462" data-name="Ellipse 462" class="cls-1" cx="47.67" cy="47.68" r="47.5"/><path class="cls-2" d="M58.78,54.75a1,1,0,1,0-1-1A1,1,0,0,0,58.78,54.75Z"/><path class="cls-2" d="M31.7,54.16a29.53,29.53,0,0,0,2.95,7.6,29.15,29.15,0,0,0,4.91,6.51l0,0v4.23a1,1,0,0,0,1,1H58.78a1,1,0,0,0,1-1V68.18a25,25,0,0,0,4-13.64V46.68a4,4,0,0,0-6.29-3.36,4,4,0,0,0-6.06-2,4,4,0,0,0-3.81-2.7,3.94,3.94,0,0,0-2,.54V29.91a4,4,0,1,0-8.08,0V44.45l-2.76,1.84A7.47,7.47,0,0,0,31.7,54.16ZM35.93,48l1.64-1.09v6.86a1,1,0,0,0,2,0V29.91a2,2,0,0,1,4,0V49.7a1,1,0,0,0,2,0V42.64a2,2,0,1,1,4,0V49.7a1,1,0,1,0,2,0v-5a2,2,0,0,1,4,0v5a1,1,0,0,0,2,0v-3a2,2,0,1,1,4,0v7.86a23,23,0,0,1-3.87,12.78,1,1,0,0,0-.17.56v3.64H41.61V67.88a1,1,0,0,0-.3-.71,27.93,27.93,0,0,1-4.9-6.39,27.22,27.22,0,0,1-2.74-7.08A5.43,5.43,0,0,1,35.93,48Z"/><path class="cls-2" d="M54.86,66.48a1,1,0,0,0,1.4-.28,20.83,20.83,0,0,0,3.25-8.26,1,1,0,1,0-2-.33,18.9,18.9,0,0,1-2.94,7.47A1,1,0,0,0,54.86,66.48Z"/><path class="cls-2" d="M34.54,30.92a1,1,0,0,0,1-1,6.06,6.06,0,0,1,12.12,0,1,1,0,0,0,2,0,8.08,8.08,0,1,0-16.16,0A1,1,0,0,0,34.54,30.92Z"/></svg>