<svg id="Calque_1" data-name="Calque 1" xmlns="http://www.w3.org/2000/svg" viewBox="0 0 96 96"><defs><style>.cls-1{fill:#ffe9ee;}.cls-2{fill:#ff3363;}</style></defs><title>icon5-simple</title><g id="Symbole_82_1" data-name="Symbole 82 1"><circle id="Ellipse_462" data-name="Ellipse 462" class="cls-1" cx="48.13" cy="48.25" r="47.5"/><g id="yoga"><g id="Groupe_810" data-name="Groupe 810"><g id="Groupe_809" data-name="Groupe 809"><path id="Tracé_3189" data-name="Tracé 3189" class="cls-2" d="M70.07,60.92A3.22,3.22,0,0,0,67.78,60H67.7a2.47,2.47,0,0,0-2,1l-4.82-4.83-1-7.36a6.57,6.57,0,0,0-6.51-5.69,1.63,1.63,0,0,0-1.63,1.63v1.68a3.43,3.43,0,0,1-6.85,0V44.76a1.63,1.63,0,0,0-1.63-1.63,6.57,6.57,0,0,0-6.5,5.69l-1,7.36L31,61a2.51,2.51,0,0,0-.26-.31A2.43,2.43,0,0,0,29,60h0a3.32,3.32,0,0,0-.1,6.63,3.73,3.73,0,0,0,3,5.9H64.75a3.74,3.74,0,0,0,3-5.9A3.33,3.33,0,0,0,71,63.28v-.06A3.25,3.25,0,0,0,70.07,60.92ZM55.15,58l.27-2.32.25,1.26a6,6,0,0,0,1.6,3L62.43,65h-5.9l-1.24-4.94A5.94,5.94,0,0,1,55.15,58ZM43.27,44.71a0,0,0,0,1,0,0v1.68a5,5,0,0,0,10,0V44.76a.06.06,0,0,1,.06,0h0a5,5,0,0,1,1.7.3l-1.5,12.75a7.5,7.5,0,0,0,.17,2.71L54.89,65H41.75l1.14-4.56a7.73,7.73,0,0,0,.18-2.71L41.57,45A4.69,4.69,0,0,1,43.27,44.71Zm-2,10.92L41.5,58a5.94,5.94,0,0,1-.14,2.14L40.12,65h-5.9l5.16-5.15a6,6,0,0,0,1.6-3ZM29,65a1.74,1.74,0,0,1-.09-3.47H29a.9.9,0,0,1,.9.89h0a.78.78,0,0,0,1.34.56l5.9-5.9a.78.78,0,0,0,.23-.46l1-7.63a5,5,0,0,1,1.74-3.16l.56,4.7-1.2,6a4.32,4.32,0,0,1-1.17,2.18L32,65ZM45,70.93H31.9a2.16,2.16,0,1,1,0-4.32h5.53V67a2.48,2.48,0,0,0,1.94,2.42L45,70.67Zm0-1.88-5.3-1.18A.87.87,0,0,1,39,67v-.39h6Zm19.74,1.88H46.59V66.61H64.75a2.16,2.16,0,1,1,0,4.32Zm4.69-7.65A1.74,1.74,0,0,1,67.7,65h-3l-6.27-6.26a4.32,4.32,0,0,1-1.17-2.18l-1.2-6,.56-4.7A5,5,0,0,1,58.32,49l1,7.62a.83.83,0,0,0,.22.46l5.9,5.9a.81.81,0,0,0,1.12,0,.79.79,0,0,0,.23-.56.9.9,0,0,1,.9-.9h.08a1.66,1.66,0,0,1,1.66,1.66h0v.06Z"/></g></g><g id="Groupe_812" data-name="Groupe 812"><g id="Groupe_811" data-name="Groupe 811"><path id="Tracé_3190" data-name="Tracé 3190" class="cls-2" d="M51.55,27.85a3.32,3.32,0,0,0-6.45-1.57,3.47,3.47,0,0,0,0,1.57,7.52,7.52,0,0,0-4.3,6.8v.77a.78.78,0,0,0,.78.79c.05,0,.38,0,.9,0v1a5.85,5.85,0,0,0,11.69,0v-1a5.47,5.47,0,0,0,.9.08.79.79,0,0,0,.79-.79v-.84A7.52,7.52,0,0,0,51.55,27.85Zm-3.23-2.52A1.72,1.72,0,0,1,50.06,27a1.27,1.27,0,0,1,0,.28,7.36,7.36,0,0,0-3.43,0,1.06,1.06,0,0,1,0-.25A1.74,1.74,0,0,1,48.32,25.33Zm4.27,11.85a4.27,4.27,0,0,1-8.53,0V36a20.29,20.29,0,0,0,6.59-2,7.54,7.54,0,0,0,1.94,1.62v1.58Zm-1.08-4.66a.8.8,0,0,0-1.06-.24,19.27,19.27,0,0,1-8.08,2.32,6,6,0,0,1,11.9,0,5.59,5.59,0,0,1-2.76-2.08Z"/></g></g></g></g></svg>