<svg id="Calque_1" data-name="Calque 1" xmlns="http://www.w3.org/2000/svg" viewBox="0 0 96 96"><defs><style>.cls-1{fill:#ffe9ee;}.cls-2{fill:#ff3363;}</style></defs><title>icon6-customer-service</title><g id="Symbole_84_1" data-name="Symbole 84 1"><circle id="Ellipse_462" data-name="Ellipse 462" class="cls-1" cx="48.06" cy="47.81" r="47.5"/><g id="support"><g id="Groupe_815" data-name="Groupe 815"><g id="Groupe_814" data-name="Groupe 814"><g id="Groupe_813" data-name="Groupe 813"><path id="Tracé_3191" data-name="Tracé 3191" class="cls-2" d="M65.33,42.92a16.57,16.57,0,0,0-33.14-.29v.29a7,7,0,0,0-6.63,7v.83a7,7,0,0,0,7,7H33l2.94,4.68a11.07,11.07,0,0,0,9.48,5.26H46a3.32,3.32,0,1,0,0-1.66H45.4a9.43,9.43,0,0,1-8.07-4.51l-2.4-3.77h.58a1.65,1.65,0,0,0,1.65-1.66V44.53a1.65,1.65,0,0,0-1.65-1.65H33.85a14.91,14.91,0,0,1,29.82,0H62a1.67,1.67,0,0,0-1.66,1.65v11.6A1.67,1.67,0,0,0,62,57.79h2.9a7,7,0,0,0,7-7h0v-.83A7,7,0,0,0,65.33,42.92ZM49.17,65.25a1.66,1.66,0,1,1-1.66,1.65A1.65,1.65,0,0,1,49.17,65.25ZM35.5,44.54v11.6H32.6a5.38,5.38,0,0,1-5.38-5.37v-.85a5.37,5.37,0,0,1,5.36-5.38H35.5Zm34.8,6.21a5.39,5.39,0,0,1-5.37,5.39H62V44.54h2.9A5.37,5.37,0,0,1,70.3,49.9v.85Z"/><path id="Tracé_3192" data-name="Tracé 3192" class="cls-2" d="M55.63,32.57l-.33-.21L55,32.15a.79.79,0,0,0-1.08.23l0,.06a.82.82,0,0,0,.28,1.12h0a1.85,1.85,0,0,1,.33.21,1.72,1.72,0,0,0,.38.2.74.74,0,0,0,.41.13.77.77,0,0,0,.7-.42A.82.82,0,0,0,55.63,32.57Z"/><path id="Tracé_3193" data-name="Tracé 3193" class="cls-2" d="M48.76,30.45a12,12,0,0,0-9.11,4.19.83.83,0,0,0,.08,1.16.82.82,0,0,0,.54.2.73.73,0,0,0,.62-.29,10.47,10.47,0,0,1,7.87-3.6,11.12,11.12,0,0,1,2.23.25.88.88,0,0,0,1-.62.87.87,0,0,0-.62-1A11.49,11.49,0,0,0,48.76,30.45Z"/></g></g></g></g></g></svg>