<svg id="Calque_1" data-name="Calque 1" xmlns="http://www.w3.org/2000/svg" viewBox="0 0 96 96"><defs><style>.cls-1{fill:#ffedde;}.cls-2{fill:#f70;}</style></defs><title>icon3-autonomy</title><g id="Symbole_84_1" data-name="Symbole 84 1"><circle id="Ellipse_462" data-name="Ellipse 462" class="cls-1" cx="48.14" cy="47.98" r="47.5"/></g><path class="cls-2" d="M50.76,54a1.63,1.63,0,0,0,1,.45,1.26,1.26,0,0,0,1.13-.7h0l2.27-4.56,5.19,2a5,5,0,0,1,2.91,4.55v4.88a.73.73,0,0,0,1.45,0V55.74a6.47,6.47,0,0,0-3.81-5.89h0L52.29,46.5v-2A6.79,6.79,0,0,0,54.85,40a3.2,3.2,0,0,0,1.84-.75A3.08,3.08,0,0,0,57,35V32.28a9,9,0,1,0-17.9,0V35A2.93,2.93,0,0,0,38.36,37a3.05,3.05,0,0,0,1.07,2.32,3.17,3.17,0,0,0,1.83.75A6.69,6.69,0,0,0,44,44.58V46.5l-8.62,3.35h0a6.46,6.46,0,0,0-3.81,5.89v15a1.85,1.85,0,0,0,1.85,1.84h6.88a.72.72,0,0,0,0-1.44H38.69V57a.72.72,0,0,0-1.44,0V71.18H33.37a.4.4,0,0,1-.4-.4v-15a5,5,0,0,1,2.91-4.55l5.18-2,2.28,4.56a1.26,1.26,0,0,0,1.13.7,1.58,1.58,0,0,0,1-.45l1.18-.83,1.45-1,1.45,1m-3.08,18H43.62a.72.72,0,1,0,0,1.44H62.91a1.84,1.84,0,0,0,1.84-1.84V64a.72.72,0,0,0-.72-.72.73.73,0,0,0-.73.72v6.79a.39.39,0,0,1-.39.4H59V57a.72.72,0,1,0-1.44,0V71.18H49.76m4.09-22.52-2.12,4.25L49.18,51.1c.59-.74-.11.12,2.62-3.24Zm-8.43-1.92V45.38a7.16,7.16,0,0,0,2.73.52,6.83,6.83,0,0,0,2.7-.56v1.4l-2.72,3.35ZM56.31,37a1.62,1.62,0,0,1-.56,1.22,1.67,1.67,0,0,1-.84.39V35.34A1.65,1.65,0,0,1,56.31,37ZM41.2,38.57A1.64,1.64,0,0,1,39.81,37a1.72,1.72,0,0,1,1.39-1.58Zm0-4.66a4.66,4.66,0,0,0-.69.15V32.28a7.51,7.51,0,1,1,15,0V34a3.4,3.4,0,0,0-.65-.12c0-.7,0-.56-2.27-3a1.28,1.28,0,0,0-1.64-.2,13.92,13.92,0,0,1-8.42,2.26A1.29,1.29,0,0,0,41.24,33.91Zm1.41,5.23V34.39a15.36,15.36,0,0,0,9-2.43c1,1.12,1.61,1.71,1.8,1.93v5.25a5.41,5.41,0,0,1-10.82,0Zm1.89,13.77-2.13-4.25,2.05-.8,2.63,3.24Z"/></svg>