<svg id="Calque_1" data-name="Calque 1" xmlns="http://www.w3.org/2000/svg" viewBox="0 0 96 96"><defs><style>.cls-1{fill:#ffedde;}.cls-2{fill:#f70;}</style></defs><title>icon2-customizable</title><g id="Symbole_84_1" data-name="Symbole 84 1"><circle id="Ellipse_462" data-name="Ellipse 462" class="cls-1" cx="47.98" cy="47.81" r="47.5"/></g><path class="cls-2" d="M67.5,25.22H61.71a.74.74,0,1,0,0,1.48H67.5a.25.25,0,0,1,.24.25V56.09a.75.75,0,0,0,.75.74.74.74,0,0,0,.74-.74V27A1.73,1.73,0,0,0,67.5,25.22Z"/><path class="cls-2" d="M68.49,58.58a.75.75,0,0,0-.75.74v10a2.78,2.78,0,0,1-5.55,0V52.81a4.27,4.27,0,0,0-8.53,0v5a2.78,2.78,0,1,1-5.55,0V54.13l3.78-3.78a2,2,0,0,0,.53-1.91l9.12-9.12a2,2,0,0,0,0-2.85L51.77,26.7h6.7a.74.74,0,1,0,0-1.48H50.28l-1.77-1.78a2,2,0,0,0-2.84,0l-9.12,9.13a1.94,1.94,0,0,0-1.91.52L30.69,37a2,2,0,0,0,0,2.84l5.23,5.24a41.55,41.55,0,0,1-8,6.06,12.65,12.65,0,0,0-2.49,2,11.24,11.24,0,0,0-2.88,4.59,4,4,0,0,0,.66,4.07,3.31,3.31,0,0,0,2.43.92,8.45,8.45,0,0,0,4.8-1.89.74.74,0,1,0-.89-1.19c-2.12,1.58-4.35,2-5.29,1.11A2.66,2.66,0,0,1,24,58.13a9.63,9.63,0,0,1,2.5-3.94,10.67,10.67,0,0,1,2.2-1.72A43.91,43.91,0,0,0,37,46.17L38.82,48a43.18,43.18,0,0,0-6.3,8.32,10.27,10.27,0,0,1-.81,1.17.76.76,0,0,0,.12,1,.81.81,0,0,0,.47.16.73.73,0,0,0,.58-.29,11,11,0,0,0,.92-1.34,41.49,41.49,0,0,1,6.07-8l5.23,5.23a2,2,0,0,0,1.42.59h.1v3a4.27,4.27,0,1,0,8.53,0v-5a2.78,2.78,0,0,1,5.55,0V69.36a4.27,4.27,0,0,0,8.53,0v-10A.74.74,0,0,0,68.49,58.58ZM46.72,24.5a.51.51,0,0,1,.74,0l13,13a.54.54,0,0,1,0,.75l-8.92,8.91L48.09,43.7l1.51-1.5a.74.74,0,1,0-1.05-1.05L47,42.65l-5.26-5.26,1.5-1.51a.74.74,0,0,0-1.05-1.05l-1.51,1.5-.8-.8,5.93-5.93a.74.74,0,1,0-1.05-1.05l-5.93,5.93L37.8,33.41Zm-.57,28.74L31.74,38.83a.53.53,0,0,1,0-.74l3.95-3.94a.51.51,0,0,1,.74,0l14.41,14.4a.54.54,0,0,1,0,.75l-4,3.94a.51.51,0,0,1-.37.16A.52.52,0,0,1,46.15,53.24Z"/><path class="cls-2" d="M36.93,40.19a.74.74,0,0,0-1,1.05l7.86,7.87a.77.77,0,0,0,1.06,0,.74.74,0,0,0,0-1Z"/><path class="cls-2" d="M64.27,40.93h0a.74.74,0,0,0-.74.74.76.76,0,0,0,.75.75.75.75,0,0,0,.74-.75A.74.74,0,0,0,64.27,40.93Z"/><path class="cls-2" d="M64.88,43a.74.74,0,0,0-.73.75.75.75,0,0,0,.75.74h0a.75.75,0,0,0,0-1.49h0Z"/><path class="cls-2" d="M60.27,45.25A.75.75,0,1,0,61,46a.74.74,0,0,0-.75-.75Z"/></svg>