<?xml version="1.0" encoding="utf-8"?>
<!-- Generator: Adobe Illustrator 24.0.1, SVG Export Plug-In . SVG Version: 6.00 Build 0)  -->
<svg version="1.1" id="Calque_1" xmlns="http://www.w3.org/2000/svg" xmlns:xlink="http://www.w3.org/1999/xlink" x="0px" y="0px"
	 viewBox="0 0 644.1 500.6" style="enable-background:new 0 0 644.1 500.6;" xml:space="preserve">
<style type="text/css">
	.st0{opacity:0.1;fill:#FF7700;enable-background:new    ;}
	.st1{fill:#2F2E41;}
	.st2{fill:#FFB8B8;}
	.st3{opacity:0.2;enable-background:new    ;}
	.st4{fill:#3F3D56;}
	.st5{fill:#FF7700;}
	.st6{fill:#A0616A;}
	.st7{fill:#D0CDE1;}
	.st8{opacity:0.1;enable-background:new    ;}
</style>
<g>
	<polygon class="st0" points="581.8,242.1 572.2,285.1 564.4,320 558.3,347.8 550.5,382.7 525.2,496.6 211.3,351.5 188.2,340.9 
		159,327.4 135.9,316.7 108.1,303.9 123.9,281 137,261.9 153.5,237.8 166.6,218.8 313.8,4.6 469.8,142.9 497.6,167.5 519.7,187.2 
		547.5,211.8 	"/>
	<path class="st1" d="M125.5,368.6c-21-11.7-34.1-27.7-38.8-47.5c-3.6-14.7-2.5-31.3,3-49.2c4.1-13.2,10.3-25.7,18.3-37
		c42.5-60.2,46.3-99.4,42.1-121.7c-4.7-24.4-19.9-34.6-20-34.7l0.7-1c0.2,0.1,15.8,10.5,20.5,35.4c2.8,14.4,1.5,30.8-3.9,48.7
		c-6.6,22.4-19.5,47.2-38.4,73.9c-7.9,11.2-14.1,23.6-18.2,36.7c-9.1,29.4-10.4,69.8,35.2,95.3L125.5,368.6z"/>
	<path class="st1" d="M135.6,368.6c21-11.7,34.1-27.7,38.8-47.5c3.6-14.7,2.5-31.3-3-49.2c-4.1-13.2-10.3-25.7-18.3-37
		c-42.5-60.2-46.3-99.4-42.1-121.7c4.7-24.4,19.9-34.6,20-34.7l-0.7-1c-0.2,0.1-15.8,10.5-20.5,35.4c-2.8,14.4-1.5,30.8,3.9,48.7
		c6.6,22.4,19.5,47.2,38.4,73.9c7.9,11.2,14.1,23.6,18.2,36.7c9.1,29.4,10.4,69.8-35.2,95.3L135.6,368.6z"/>
	<path class="st1" d="M593.1,318c-21-11.7-34.1-27.7-38.8-47.5c-3.6-14.7-2.5-31.3,3-49.2c4.1-13.2,10.3-25.7,18.3-37
		c42.5-60.2,46.3-99.4,42.1-121.7c-4.7-24.4-19.9-34.6-20-34.7l0.7-1c0.2,0.1,15.8,10.5,20.5,35.4c2.8,14.4,1.5,30.8-3.9,48.7
		c-6.6,22.4-19.5,47.2-38.4,73.9c-7.9,11.2-14.1,23.6-18.2,36.7c-9.1,29.4-10.4,69.8,35.2,95.3L593.1,318z"/>
	<path class="st1" d="M603.2,318c21-11.7,34.1-27.7,38.8-47.5c3.6-14.7,2.5-31.3-3-49.2c-4.1-13.2-10.3-25.7-18.3-37
		c-42.5-60.2-46.3-99.4-42.1-121.7c4.7-24.4,19.9-34.6,20-34.7l-0.7-1c-0.2,0.1-15.8,10.5-20.5,35.4c-2.8,14.4-1.5,30.8,3.9,48.7
		c6.6,22.4,19.5,47.2,38.4,73.9c7.9,11.2,14.1,23.6,18.2,36.7c9.1,29.4,10.4,69.8-35.2,95.3L603.2,318z"/>
	<path class="st1" d="M284,185.1c-15.8-26.6-47-27.9-47-27.9s-30.4-3.9-49.9,36.7c-18.2,37.8-43.3,74.4-4,83.2l7.1-22.1l4.4,23.7
		c5.6,0.4,11.2,0.5,16.8,0.3c42-1.4,82,0.4,80.7-14.7C290.4,244.3,299.2,210.8,284,185.1z"/>
	<path class="st2" d="M219.3,240.9c5.4,12,8.9,26.4,10.9,42.3l43.6-2.7c-10-14.2-13.4-30.5-9.5-49.1L219.3,240.9z"/>
	<path class="st3" d="M219.3,240.9c5.4,12,8.9,26.4,10.9,42.3l43.6-2.7c-10-14.2-13.4-30.5-9.5-49.1L219.3,240.9z"/>
	<path class="st2" d="M16.8,469.8c0,0-22.6,12.1-11.1,22.4s26.6-13.7,26.6-13.7L16.8,469.8z"/>
	<polygon class="st1" points="292.9,434.5 292.6,451 291.8,486.7 291.8,486.7 291.6,497.1 147.2,497.1 153,464.5 153.1,464.5 
		158.3,435.3 160.7,422.2 160.7,422.2 279.3,405.9 	"/>
	<path class="st4" d="M292.9,434.5l-0.4,16.5c-42-1.1-107-11.2-134.2-15.7l2.3-13.1l118.6-16.4L292.9,434.5z"/>
	<circle class="st2" cx="240.4" cy="218.4" r="34.1"/>
	<path class="st5" d="M305.9,452.9c0,0,4.1,36.8-20.5,34.1l-4.1-36.8l-21.8-21.8l-61.4-1.4l-45,42.3c0,0-1.4-43.6,4.1-47.7
		s17.7-13.6,17.7-13.6v-6.8l-36.8-75c0,0,21.8-45,39.5-46.4l23.2-1.4c0,0,8.2-4.1,8.2-5.5s-1.4-12.3,5.5-9.5c0,0,0.6-14,7.8-9.7
		c0,0,22.6,17.7,45.6,0.8c0,0,10.7-2,9.3,3.5c-1.4,5.5,0,9.5,2.7,9.5s15,4.1,15,6.8c0,0.6,0.9,6.2,2.3,14.7v0
		c5.1,31,16.8,99.8,16.8,99.8S326.3,406.6,305.9,452.9z"/>
	<path class="st5" d="M147.7,319.3l-9.5,6.8L50.9,437.9L4.5,474.7c0,0,25.9-4.1,20.5,17.7l159.5-91.4L147.7,319.3z"/>
	<path class="st4" d="M297.2,289L297.2,289c-1.8,10.7-60.9,8.5-69.1,8.5s-15-1.4-23.2-6.8c-8.2-5.5-4.1-12.3-4.1-12.3s7-5.3,7-6.7
		c0-1.4-1.4-12.3,5.5-9.5c0,0,0.6-14,7.8-9.7c0,0,23.8,18.9,46.8,2c0,0,10.7-2,9.3,3.5c-1.4,5.5,0,9.5,2.7,9.5c2.7,0,15,4.1,15,6.8
		C295,274.9,295.8,280.5,297.2,289z"/>
	<path class="st2" d="M290.2,238.2c0,0-10.9-23.2-21.8-12.3c-10.9,10.9,12.3,27.3,12.3,27.3L290.2,238.2z"/>
	<path class="st5" d="M290.2,232.7c0,0-16.8,21.3-22.1,22.9c0,0,15.2,60.3,34.3,76.6l10.9,55.9c0,0,46.4-19.1,35.5-50.4
		c-0.1-0.3-0.2-0.6-0.3-0.9c-9.1-26.1-21.7-50.9-37.4-73.7L290.2,232.7z"/>
	<polygon class="st3" points="281.2,295.8 314.7,388.1 302.5,332.2 	"/>
	<polygon class="st1" points="277,182.5 246.2,166.4 203.6,173 194.8,211.9 216.8,211.1 222.9,196.8 222.9,210.8 233,210.4 
		238.9,187.7 242.5,211.9 278.5,211.2 	"/>
	<path class="st6" d="M568.3,392.4l17.5,62.4c0,0-3.6,55.3,13.2,44.5c17.2-11.1,10.8-57.7,10.8-57.7l-10.1-56L568.3,392.4z"/>
	<path class="st7" d="M577.6,217.3l14.4,14.4v68.8c0,0,8.5,12.7,6.8,16.1c-1.7,3.4-3.4,3.4-1.7,5.9c1.7,2.5,3.4,4.2,1.7,5.9
		c-1.7,1.7-1.7,5.9,0,7.6c1.7,1.7,5.1,4.2,2.5,6.8s-5.9,0.8-2.5,10.2s9.3,11.9,7.6,15.3c-1.7,3.4-1.7,11.9-1.7,11.9l-36.5,5.1
		l-7.6-96L577.6,217.3z"/>
	<polygon class="st4" points="606.5,379.6 564,381.3 565.7,399.2 603.1,392.4 	"/>
	<polygon class="st6" points="489.7,128.6 484.6,179.5 536.4,187.2 540.2,157.9 544.1,128.6 	"/>
	<polygon class="st8" points="489.7,128.3 484.6,179.3 536.4,186.9 540.2,157.6 544.1,128.3 	"/>
	<path class="st6" d="M377.1,371.1l28.9,62c0,0,5.1,28.9,12.7,29.7c7.6,0.8,15.3-29.7,15.3-29.7L423.8,417l-11.9-45.9L377.1,371.1z"
		/>
	<path class="st1" d="M574.8,497.7H411.5c1.3-20.5,2.1-33.1,2.1-33.1l2.2-3.4l10.5-16.5l7.5-11.8l2.6-4.1l1-1.5l10.3-1.9L553.8,406
		c1.8,7.9,4.2,15.5,7.4,22.9c0.7,1.6,1.5,3.3,2.3,4.9c2.7,5.2,5.9,10.1,9.8,13.8c0.9,0.8,1.5,3,1.9,6.4
		C576.3,462.3,576,477.8,574.8,497.7z"/>
	<circle class="st6" cx="518.1" cy="104.3" r="40.8"/>
	<path class="st7" d="M427.2,187.6l-5.9-3.4c0,0-26.3,17.8-34.8,57.8S372,292.1,372,292.1s-8.5,1.7-2.5,7.6c5.9,5.9,5.9,5.1,0.8,8.5
		s-8.5-3.4-5.1,3.4c3.4,6.8,7.6,5.1,4.2,9.3c-3.4,4.2-9.3,4.2-5.9,7.6s-3.4,11,0.8,14.4c4.2,3.4,5.9,4.2,5.9,10.2
		c0,3.5,0.5,6.9,1.7,10.2h44.2c0,0-8.5-16.1-5.9-19.5c2.5-3.4,3.4-6.8,1.7-8.5c-1.7-1.7-6.8,1.7-1.7-2.5c5.1-4.2,6.8-1.7,5.1-6.8
		c-1.7-5.1-5.1-2.5-1.7-5.1c3.4-2.5,5.9-1.7,4.2-4.2c-1.7-2.5-5.1-2.5-1.7-4.2s5.9,0,5.1-4.2c-0.8-4.2-1.7-2.5,0-4.2
		s19.5-59.5,19.5-61.2S427.2,187.6,427.2,187.6z"/>
	<polygon class="st4" points="418.7,360.1 365.2,363.5 378.8,376.2 416.2,377.1 	"/>
	<path class="st4" d="M434,423.8l-11,20.4c0,0,33.1,4.2,45,8.5c11.9,4.2,42.5,10.2,42.5,10.2l7.6-29.7L434,423.8z"/>
	<polygon class="st4" points="530.9,433.2 540.2,461.2 577.6,453.5 573.4,427.2 	"/>
	<path class="st7" d="M546.2,158.7c0,0-2.5-1.7-8.5,1.7c-5.9,3.4-25.5,5.1-34.8-5.1c-9.3-10.2-16.1-18.7-18.7-17s-4.2,21.2-4.2,21.2
		l-8.5,6.8l-50.1,17.8l4.2,114.7l7.6,26.3c0,0-5.9,20.4,1.7,32.3c7.6,11.9-4.2,16.1-4.2,16.1s-2.5,3.4-0.8,11.9
		c1.7,8.5-1.7,39.9-1.7,39.9s72.2,32.3,147.8,4.2l-8.5-32.3l-4.2-72.2c0,0,4.2-11.9,3.4-17c-0.8-5.1,25.5-76.5,25.5-76.5
		s-4.2-35.7-26.3-43.3c-22.1-7.6-25.5-15.3-25.5-15.3S550.4,162.1,546.2,158.7z"/>
	<path class="st1" d="M477.1,109.6c0,0-4.2-6.4-2.6-13.2c1-3.9,1.4-7.9,1.1-11.9c0,0,3.4-11.1,6.8-17.3c3.4-6.2,1.8-8.8,12.5-10.8
		c10.8-2,6.4-16,34.7-0.8c2,2.7,5.4,4,8.6,3.3c5.9-1.1,8,7,8,7s3.9-2.3,5.4,1c1.5,3.3,11.9-2,11.9,20s-11.9,41.6-11.9,41.6
		s0.9-37-18.5-40.7s-40.2-14.7-45.3-0.7C482.9,101.2,477.1,109.6,477.1,109.6z"/>
	<ellipse class="st6" cx="552.1" cy="113.3" rx="3.8" ry="5.1"/>
</g>
</svg>
