<svg xmlns="http://www.w3.org/2000/svg" viewBox="0 0 111.07 99.41"><defs><style>.cls-1{fill:#919191;}.cls-2{opacity:0.1;}.cls-2,.cls-8{isolation:isolate;}.cls-3{fill:#f70;}.cls-4{fill:#b7b7b7;}.cls-5{fill:#f5f5f5;}.cls-6{fill:#d9d9d9;}.cls-7{fill:#b2b2b2;}.cls-8{fill:#5b5b5b;}.cls-9{fill:#ffa15a;}.cls-10{fill:#88888f;}.cls-11{fill:#d1e5f5;}.cls-12{fill:#b4d8f1;}</style></defs><title>house1_1</title><g id="Calque_2" data-name="Calque 2"><g id="ELEMENTS"><polygon class="cls-1" points="75.86 27.62 53.37 33.5 45.34 65.28 53.99 94.05 61.88 94.05 66.86 91.48 71.84 94.05 77.48 94.05 82.46 90.64 87.44 94.05 93.08 94.05 98.06 67.24 98.06 34.71 75.86 27.62"/><polygon class="cls-2" points="98.06 39.6 98.06 34.5 75.86 27.41 53.37 33.29 51.77 39.6 98.06 39.6"/><polygon class="cls-3" points="102.03 34.65 93.69 16.97 13.48 16.97 5.15 34.65 102.03 34.65"/><rect class="cls-4" x="50.68" y="70.01" width="48.09" height="6.36"/><rect class="cls-4" x="50.68" y="82.74" width="48.09" height="6.36"/><polygon class="cls-5" points="93.11 94.05 93.11 69.82 98.06 67.24 103.01 69.82 103.01 94.05 93.11 94.05"/><circle class="cls-6" cx="98.29" cy="73.27" r="1.19"/><polygon class="cls-5" points="77.55 94.05 77.55 69.82 82.5 67.24 87.45 69.82 87.45 94.05 77.55 94.05"/><circle class="cls-6" cx="82.68" cy="73.27" r="1.19"/><polygon class="cls-5" points="61.99 94.05 61.99 69.82 66.94 67.24 71.89 69.82 71.89 94.05 61.99 94.05"/><circle class="cls-6" cx="67.08" cy="73.27" r="1.19"/><polygon class="cls-7" points="31.23 17.21 8.25 35.65 8.25 94.05 23.24 94.05 31.23 84.06 39.23 94.05 54.22 94.05 54.22 35.65 31.23 17.21"/><rect class="cls-5" x="23.1" y="63.64" width="16.26" height="30.41"/><rect class="cls-5" x="24.51" y="35.36" width="12.73" height="16.97"/><rect class="cls-8" x="23.1" y="49.5" width="16.26" height="6.36"/><rect class="cls-5" x="63.41" y="41.72" width="24.75" height="16.97"/><rect class="cls-8" x="61.99" y="55.87" width="28.29" height="6.36"/><rect class="cls-9" x="69.77" y="2.83" width="10.61" height="17.68"/><rect class="cls-1" x="67.65" width="14.85" height="6.36"/><polygon class="cls-2" points="8.25 35.63 8.25 47.93 31.23 27.87 54.22 47.93 54.22 35.63 31.23 17.29 8.25 35.63"/><polygon class="cls-2" points="57.52 34.65 65.2 34.65 44.95 16.97 37.27 16.97 57.52 34.65"/><path class="cls-9" d="M55.64,42.49,31.11,21.07,6.58,42.49l-4.7-5.38L28.76,13.64a3.57,3.57,0,0,1,4.7,0L60.33,37.11Z"/><path class="cls-10" d="M108.72,99.41H2.47A2.46,2.46,0,0,1,.12,97.58,2.67,2.67,0,0,1,2.35,94H108.6A2.46,2.46,0,0,1,111,95.84,2.67,2.67,0,0,1,108.72,99.41Z"/><rect class="cls-11" x="63.38" y="41.72" width="25.03" height="14.14"/><polygon class="cls-12" points="63.18 55.87 88.41 55.87 88.41 45.17 63.18 55.87"/><rect class="cls-11" x="24.62" y="35.41" width="12.62" height="14.14"/><polygon class="cls-12" points="24.52 49.56 37.24 49.56 37.24 38.86 24.52 49.56"/></g></g></svg>