<svg xmlns="http://www.w3.org/2000/svg" viewBox="0 0 487.53 112.39"><defs><style>.cls-1{fill:#fff;opacity:0.44;}</style></defs><title>logo_white</title><g id="Calque_2" data-name="Calque 2"><g id="BODY"><g id="_1" data-name="1"><path class="cls-1" d="M398.58,112.39h-82c-3.46,0-5.82-1.65-6.66-4.68a6,6,0,0,1-.19-1.59q0-43.49,0-87A6,6,0,0,1,316,13q36.5,0,73,0c1.31,0,1.91-.36,2.27-1.62C392,9,392.82,6.59,393.61,4.2A5.42,5.42,0,0,1,399.36,0Q427,0,454.63,0a6.17,6.17,0,0,1,6.14,4c1.11,2.54,2.2,5.1,3.22,7.69A1.74,1.74,0,0,0,465.9,13c5-.06,10,0,15,0a6.32,6.32,0,0,1,6.65,6.53c0,.17,0,.33,0,.5q0,42.68,0,85.35c0,2.77-1,5.1-3.61,6.3a8.74,8.74,0,0,1-3.48.7Q439.5,112.42,398.58,112.39ZM359,99.85c20.82.25,37.92-17.14,37.93-37.8A37.89,37.89,0,1,0,359,99.85Zm68.77-81.76H446c2,0,2.47-.45,2.47-2.51,0-2.54,0-5.07,0-7.61,0-1.68-.49-2.24-2.11-2.24q-18.58,0-37.17,0c-1.65,0-2.15.55-2.16,2.2,0,2.54,0,5.07,0,7.61,0,2.13.42,2.56,2.55,2.56Zm48,49.88c-2.46.19-4.37,1.12-5.5,3.12-.68,1.21-1.33,1.34-2.62,1.11-3.21-.58-6.38-.46-9.15,1.65a9.93,9.93,0,0,0-1.84,13.33,1.57,1.57,0,0,1,.24,1.33,7.6,7.6,0,0,0-.19,7.82.94.94,0,0,1-.23,1.36,7.13,7.13,0,0,0,2.49,12.12,18.15,18.15,0,0,0,12.68.08,6.92,6.92,0,0,0,5-7,7.13,7.13,0,0,0-5.18-7,19,19,0,0,0-9.21-.74c-1.82.26-2.35-.06-2.64-1.89a7,7,0,0,1,.2-2.44c.15-.71.58-1,1.38-.67a11,11,0,0,0,5.63.42c8.49-1.48,9.65-10.77,6.06-15.31-1.12-1.42-1-2,.55-2.93.45-.27,1-.33,1.49-.58.31-.17.73-.48.75-.76C475.78,70.07,475.72,69.08,475.72,68ZM419.55,97.6c5.27.3,8.65-3.16,9.76-7.36a20.91,20.91,0,0,0,.06-10.82c-1.44-5.47-4.79-7.83-10.86-7.72-4.26.08-7.74,3.27-8.82,8.1a22.73,22.73,0,0,0-.24,8.53C410.45,94.71,414.59,97.91,419.55,97.6Zm22.13-24.17c.34-1.62-.63-1.51-1.55-1.48a7,7,0,0,1-1.37,0c-1.34-.22-1.59.42-1.58,1.61,0,6.15,0,12.31,0,18.46,0,2.06,0,2.06-2,2.2-.07,0-.14.07-.27.13V97.6c3.24,0,6.39,0,9.53,0a1,1,0,0,0,.72-.6c.52-2.23.08-2.79-2.16-2.8h-.12c-.91.13-1.25-.22-1.24-1.17,0-4.66,0-9.31,0-14a3,3,0,0,1,.71-1.75,5.24,5.24,0,0,1,6.21-1.46c.37.13,1.07.11,1.25-.13a21.87,21.87,0,0,0,1.51-2.5C449,71.15,445.61,71.21,441.67,73.44ZM401.11,98.1a3.22,3.22,0,1,0-3.19-3.2A3.1,3.1,0,0,0,401.11,98.1Z"/><path class="cls-1" d="M264.08,82.46a60.52,60.52,0,0,1-2.54-6.86,14.22,14.22,0,0,1,2.54-12.38,1.29,1.29,0,0,0-.08-2c-3.55-4.07-4.82-8.93-4.62-14.22a19.14,19.14,0,0,1,5.92-13.71,20.54,20.54,0,0,1,14.16-5.57,22.46,22.46,0,0,1,10.32,1.95,4.64,4.64,0,0,0,.68.19c1.4-3.45,3.32-6.51,6.7-8.23a64.88,64.88,0,0,1,6.16-2.4V26.8A9.81,9.81,0,0,0,296.5,30a7.63,7.63,0,0,0-.69.88c-1.08,1.59-1.05,1.79.28,3.13,4.22,4.27,5.48,9.57,5.18,15.34a18.68,18.68,0,0,1-6,13.13,20.44,20.44,0,0,1-13,5.51,24,24,0,0,1-11.12-1.69,1.2,1.2,0,0,0-1.07.37,10.3,10.3,0,0,0,.66,12.08c.57.64,1.14.48,1.8.34a41.68,41.68,0,0,1,19.62.3c4.35,1.15,8.28,3.1,10.84,7,5.34,8.17,1.8,19-7.43,22.77-5.34,2.2-10.94,2.61-16.64,2.33A33.08,33.08,0,0,1,266,108.48c-10.64-5.09-10.65-20-2.35-25.62A2.58,2.58,0,0,0,264.08,82.46Zm16.19-48.69-.07.31c-.5,0-1,0-1.5,0-5.37.21-9.23,3.3-10.46,8.5a22.69,22.69,0,0,0,0,10.74,10.06,10.06,0,0,0,7.84,8,17.85,17.85,0,0,0,8.26,0,9.85,9.85,0,0,0,7.62-7,21.21,21.21,0,0,0,0-12.87,9.25,9.25,0,0,0-5.83-6.38A49.55,49.55,0,0,0,280.27,33.77Zm1.21,71.44c1.86-.14,3.73-.2,5.58-.45a15,15,0,0,0,7.56-2.93c4.27-3.39,4.77-12.92-3-15.63a35.48,35.48,0,0,0-8.14-1.51,24.45,24.45,0,0,0-11.75,1.41,11.11,11.11,0,0,0-4.42,3.06,9.22,9.22,0,0,0,4.12,14.45A28.42,28.42,0,0,0,281.48,105.2Z"/><path class="cls-1" d="M169,72.09c.34-1.44.63-2.88,1-4.31q3.68-13.72,7.39-27.43c1-3.61,2-7.21,2.94-10.82a1.17,1.17,0,0,1,1.36-1.06c2.36.05,4.72,0,7.28,0-.69,2.33-1.31,4.47-1.95,6.6q-6.86,23-13.7,46a1.6,1.6,0,0,1-1.91,1.38c-1.91-.09-3.83-.06-5.74,0a1.12,1.12,0,0,1-1.3-1Q160.7,68.21,156.92,55q-1.74-6.11-3.5-12.22a11.9,11.9,0,0,0-.54-1.21L141.06,82.41c-2.55,0-5,0-7.53,0-.31,0-.77-.55-.89-.93Q129.3,70.73,126,60q-4.56-14.9-9.09-29.8c-.14-.48-.27-1-.45-1.58h8.62L136.7,72.1h.4a9.31,9.31,0,0,0,.35-.92q5.6-20.88,11.17-41.76c.18-.69.46-1,1.17-1,2,0,4.08,0,6.11,0,.77,0,1.06.28,1.26,1q5.46,20.6,11,41.18c.13.5.33,1,.49,1.47Z"/><path class="cls-1" d="M8.42,82.33H0V2.87c.43,0,.87-.08,1.31-.08,8.65,0,17.3-.1,25.95,0,6.64.1,12.59,2.08,17.17,7.2a20.71,20.71,0,0,1,5.22,12.27c.51,5.55-.18,10.91-3.27,15.68-3.45,5.33-8.55,8.27-14.71,9.31a57.34,57.34,0,0,1-8.18.67C19,48,14.51,48,10,48H8.42Zm0-72.08c0,.46,0,.91,0,1.36q0,5.8,0,11.59,0,8.17,0,16.33c0,.68-.1,1.33,1,1.32,6.23-.1,12.47,0,18.68-.29a13.14,13.14,0,0,0,10.89-6.29,16.58,16.58,0,0,0,2.35-7.78c.61-8-3.93-15.23-12.06-16-6.79-.67-13.68-.28-20.52-.36C8.66,10.11,8.63,10.15,8.4,10.25Z"/><path class="cls-1" d="M86.75,76.21h6.46V82.3H72.37V76.2h5.88V28.61h8.51Z"/><path class="cls-1" d="M217.82,76.19V28.6h8.47V76.15h6.4v6.16h-20.8V76.19Z"/><path class="cls-1" d="M82.34,19a5.37,5.37,0,0,1,.3-10.74,5.3,5.3,0,0,1,5.26,5.49A5.49,5.49,0,0,1,82.34,19Z"/><path class="cls-1" d="M227.42,13.67A5.47,5.47,0,0,1,222,19a5.37,5.37,0,0,1,.1-10.75A5.29,5.29,0,0,1,227.42,13.67Z"/><path class="cls-1" d="M76.91,91.27c1-.37,1.39.08,1.59.91.8,3.3,1.64,6.6,2.47,9.89.07.27.18.52.37,1.07a9.15,9.15,0,0,0,.42-1.06c.77-3.31,1.5-6.64,2.3-9.94A4.12,4.12,0,0,1,84.83,91l.51.25c-.29,1.39-.57,2.79-.88,4.17q-.93,4.07-1.91,8.12c-.14.59,0,1.39-1.05,1.37s-.9-.84-1.06-1.42c-.81-3-1.57-6.11-2.36-9.17-.09-.34-.22-.66-.33-1l-.34,0-3,11.51h-1.5L69.8,91.43c1.05-.38,1.07-.38,1.28.52.73,3.15,1.44,6.31,2.17,9.47.11.46.26.91.39,1.36H74Z"/><path class="cls-1" d="M88.54,91.34a1.7,1.7,0,0,1,2.53,1.06c1.48,3.25,3.08,6.45,4.64,9.66.17.35.37.67.56,1l.36-.08v-1.28c0-3.16,0-6.32,0-9.48,0-.36.32-.72.49-1.08.19.33.55.66.55,1,0,4,0,8,0,12,0,.2,0,.4-.05.59a1.5,1.5,0,0,1-2.2-.92c-1.57-3.39-3.25-6.73-4.89-10.09-.17-.35-.38-.69-.58-1l-.32,0c0,.42-.11.83-.11,1.25,0,2.87,0,5.74,0,8.61a3.91,3.91,0,0,1,0,1,9.81,9.81,0,0,1-.53,1.28,4,4,0,0,1-.45-1.22c0-3.41,0-6.82,0-10.23C88.54,92.7,88.54,92,88.54,91.34Z"/><path class="cls-1" d="M238.61,98.59l3.17,6.11-.3.32c-.39-.28-.92-.49-1.14-.87a36.08,36.08,0,0,1-2.19-4.18,1.9,1.9,0,0,0-2.27-1.35,13.26,13.26,0,0,1-1.6,0c0,1.81,0,3.53,0,5.25,0,.85-.27,1.15-1.16.85V91.25a48.44,48.44,0,0,1,5.31,0,3.3,3.3,0,0,1,3,2.84,3.64,3.64,0,0,1-2.1,4.1Zm-4.27-1c.93,0,1.71,0,2.5,0a9.28,9.28,0,0,0,1.24-.09,2.72,2.72,0,0,0,.23-5.27,31.87,31.87,0,0,0-4,0Z"/><path class="cls-1" d="M40.68,91.22a50.86,50.86,0,0,1,5.25,0A3.39,3.39,0,0,1,49,94a3.69,3.69,0,0,1-2.14,4.2l-.72.36,3.16,6.1c-.76.36-1.16.1-1.49-.56-.7-1.41-1.56-2.75-2.16-4.2a1.9,1.9,0,0,0-2.3-1.31,13.67,13.67,0,0,1-1.55,0c0,1.84,0,3.56,0,5.29,0,.91-.36,1.07-1.18.81Zm1.25,6.31c.4,0,.73.09,1.05.08a25.73,25.73,0,0,0,2.61-.09A2.4,2.4,0,0,0,47.83,95a2.48,2.48,0,0,0-2-2.75,33.08,33.08,0,0,0-3.88,0Z"/><path class="cls-1" d="M142.1,97.95c-.27,2.23-.67,4.28-2.53,5.69a5.34,5.34,0,0,1-8.14-1.52,8.13,8.13,0,0,1,.12-8.42,5,5,0,0,1,4.94-2.53,5.12,5.12,0,0,1,4.65,3.22A27.4,27.4,0,0,1,142.1,97.95Zm-1.28.18a22,22,0,0,0-1.16-3.94,3.89,3.89,0,0,0-6.95-.16,7.63,7.63,0,0,0,.13,8.05,3.84,3.84,0,0,0,6.55,0A19.9,19.9,0,0,0,140.83,98.13Z"/><path class="cls-1" d="M154.95,98.06c-.08-2.3.45-4.38,2.42-5.82a5.49,5.49,0,0,1,7.86,1.39,8.7,8.7,0,0,1-.38,9.28,5.61,5.61,0,0,1-6,1.68A6,6,0,0,1,155,99.3C154.92,98.89,154.95,98.47,154.95,98.06Zm10.35,0a21.52,21.52,0,0,0-1.23-4,3.87,3.87,0,0,0-6.82-.14,7.61,7.61,0,0,0,.07,8.15,3.83,3.83,0,0,0,6.55,0A20.16,20.16,0,0,0,165.3,98.09Z"/><path class="cls-1" d="M56.11,98c-.06-2.3.48-4.36,2.47-5.79a5.48,5.48,0,0,1,7.77,1.38A8.66,8.66,0,0,1,66,103a5.63,5.63,0,0,1-5.88,1.64,6,6,0,0,1-4-5.24C56.08,98.91,56.11,98.45,56.11,98Zm10.35.13a22.36,22.36,0,0,0-1.19-4,3.93,3.93,0,0,0-6.91-.21,8.38,8.38,0,0,0,.11,8.19,3.88,3.88,0,0,0,6.51.06A19.94,19.94,0,0,0,66.46,98.13Z"/><path class="cls-1" d="M23.8,98c-.27,2.23-.67,4.28-2.54,5.69a5.34,5.34,0,0,1-8.14-1.53,8.12,8.12,0,0,1,.13-8.42,5,5,0,0,1,4.94-2.52,5.12,5.12,0,0,1,4.65,3.22A27.42,27.42,0,0,1,23.8,98Zm-1.39-.21a18.13,18.13,0,0,0-1-3.53,3.9,3.9,0,0,0-7-.21,7.92,7.92,0,0,0-.46,7,3.88,3.88,0,0,0,3.9,2.88,3.89,3.89,0,0,0,3.93-3A26.5,26.5,0,0,0,22.4,97.74Z"/><path class="cls-1" d="M182.9,98.88c-1,0-1.83,0-2.65,0-.22,0-.42-.27-.63-.42.21-.19.42-.52.63-.53,1.23-.05,2.47,0,3.85,0,0,2.21,0,4.28,0,6.34,0,.19-.2.39-.31.58a3.25,3.25,0,0,1-.44-.59,3.79,3.79,0,0,1-.16-.81,3.25,3.25,0,0,0-.6.29c-3.19,2.57-8.1.86-8.84-3.95A8.1,8.1,0,0,1,175,93.31c2.26-3,6.67-2.82,8.29.39-.38-.1-.88-.08-1.11-.32a3.88,3.88,0,0,0-6.19.59,8.44,8.44,0,0,0,.15,8.3,3.89,3.89,0,0,0,4.48,1.54,3.52,3.52,0,0,0,2.32-3.6C182.9,99.83,182.9,99.47,182.9,98.88Z"/><path class="cls-1" d="M126.6,104.72c-.83.31-1.21.12-1.19-.78,0-1.86,0-3.73,0-5.69h-6.7c0,1.94,0,3.84,0,5.74,0,.84,0,.84-1.13.76V91.32c.88-.42,1.16-.06,1.15.84,0,1.61,0,3.22,0,4.9h6.7c0-1.68,0-3.33,0-5,0-.94,0-.94,1.18-.77Z"/><path class="cls-1" d="M222.88,92.27v5.11c1.6,0,3.13,0,4.65,0,.32,0,.64.3,1,.46-.3.18-.6.49-.91.5-1.53.05-3.06,0-4.76,0,0,1.69,0,3.26,0,4.82,0,.23.58.62.91.63,1.62.07,3.24,0,4.86.05.29,0,.58.28.86.43-.29.19-.58.53-.87.54-2.31,0-4.63,0-7,0V91.14h4.44c.83,0,1.66,0,2.49,0,.24,0,.45.32.68.49-.23.16-.46.47-.69.47-1.66,0-3.32,0-5,0A4.7,4.7,0,0,0,222.88,92.27Z"/><path class="cls-1" d="M28.32,91.3c0,3,0,6.06,0,9.09,0,2.67,1.93,4.12,4.48,3.44a3.31,3.31,0,0,0,2.32-3.44c0-2.62,0-5.23,0-7.85,0-.41,0-.81,0-1.21.86-.34,1.26-.19,1.26.73,0,2.82,0,5.65,0,8.47a4.3,4.3,0,0,1-4.48,4.35,4.28,4.28,0,0,1-4.73-4.07C27,97.87,27,94.92,27,92,27,91,27.56,91.07,28.32,91.3Z"/><path class="cls-1" d="M197.37,105c-.33-.28-.78-.49-1-.84a7.24,7.24,0,0,1-.76-2.1c-.24-1.46-1.07-1.74-2.44-1.7-3.6.1-3.61,0-4.81,3.45-.22.63-.33,1.36-1.44.89l2.13-6.07c.8-2.27,1.59-4.54,2.43-6.79a1.22,1.22,0,0,1,.83-.64,1,1,0,0,1,.76.54c1.51,4.17,3,8.35,4.45,12.54a2,2,0,0,1,.05.47ZM190,99.26h4.7l-2.17-6.4-.38.07Z"/><path class="cls-1" d="M106.87,105c-.28-.24-.81-.48-.81-.73,0-4.31,0-8.63,0-13.19a50,50,0,0,1,5.77.35c2,.34,2.91,2.06,2.64,4.28a3.51,3.51,0,0,1-3.42,3c-1,0-1.91,0-2.87,0-.7,0-1,.24-.94.94s0,1.66,0,2.49,0,1.66,0,2.49Zm.36-12.77c0,1.74,0,3.39,0,5a.75.75,0,0,0,.53.51,21,21,0,0,0,3.7-.18c1.25-.23,1.86-1.41,1.78-2.9a2.46,2.46,0,0,0-2.07-2.44C109.94,92.12,108.65,92.21,107.24,92.21Z"/><path class="cls-1" d="M150.21,104.79h-1.5V92.15c-1.15,0-2.17,0-3.2,0-.27,0-.53-.32-.8-.5.28-.16.55-.46.83-.47q3.86-.05,7.73,0c.28,0,.56.3.84.46-.3.18-.6.49-.91.51-.95.07-1.91,0-3,0Z"/><path class="cls-1" d="M248.34,104.71a2.4,2.4,0,0,1,0-.55c.74-4-1-7.24-3-10.43-.48-.76-.89-1.57-1.35-2.4a1.16,1.16,0,0,1,1.76.63c.83,1.58,1.71,3.13,2.58,4.69.17.31.38.61.74,1.16,1.13-2,2.16-3.84,3.15-5.68.39-.73.84-1.24,1.89-.85-1.1,2-2.1,3.94-3.3,5.8a7.31,7.31,0,0,0-1.2,4.82c.06.66,0,1.33,0,2C249.59,104.74,249.28,105.07,248.34,104.71Z"/><path class="cls-1" d="M10.74,91.17c-1.21,2.17-2.24,4.2-3.46,6.11a6.76,6.76,0,0,0-1.1,4.35c.06.78,0,1.58,0,2.37s-.35,1-1.25.72c0-1.26-.06-2.57,0-3.88a5.48,5.48,0,0,0-.89-3.28c-1.22-2-2.32-4.1-3.52-6.24a1.19,1.19,0,0,1,1.76.62c1,1.9,2.07,3.76,3.28,5.94a39.06,39.06,0,0,1,2.26-3.95C8.6,92.92,8.51,91,10.74,91.17Z"/><path class="cls-1" d="M202.33,103.87c1.76,0,3.37,0,5,0,.35,0,.68.34,1,.53-.33.15-.66.43-1,.44-2,0-4,0-6.15,0V91.32c.89-.41,1.16-.06,1.16.84,0,3.36,0,6.72,0,10.08C202.33,102.73,202.33,103.21,202.33,103.87Z"/><path class="cls-1" d="M211.41,104.88V91.32c1-.42,1.18,0,1.17.88,0,3.4,0,6.8,0,10.21,0,.44,0,.89.06,1.47,1.72,0,3.33,0,4.94,0a2.94,2.94,0,0,1,1,.44c-.34.18-.68.52-1,.52C215.51,104.9,213.49,104.88,211.41,104.88Z"/><path class="cls-1" d="M358.77,92.46a30.65,30.65,0,1,1,30.7-30.71A30.72,30.72,0,0,1,358.77,92.46Zm15.52-10.85A24.07,24.07,0,0,0,384,59.17c-1.34-10.78-7.4-18.06-17.69-21.5-8.84-3-18.27,0-22.09,3.68,2.45-.77,5.38-1.88,8.41-2.58a21.15,21.15,0,0,1,9.28.21,24.69,24.69,0,0,1,8.66,3.67,25.76,25.76,0,0,1,6.73,6.6A25.4,25.4,0,0,1,374.29,81.61Z"/><path class="cls-1" d="M470.39,81.5a12.79,12.79,0,0,1-.12,1.72c-.53,2.85-2.76,4.4-6,4.21a4.92,4.92,0,0,1-5-5,15.59,15.59,0,0,1,.3-3.95,4.29,4.29,0,0,1,4.25-3.38,10.29,10.29,0,0,1,3,.17C469.27,75.92,470.39,77.86,470.39,81.5Z"/><path class="cls-1" d="M465.51,107.71a42.81,42.81,0,0,1-4.73-1,3.58,3.58,0,0,1-2.61-3.68,3.64,3.64,0,0,1,2.44-3.81,13.35,13.35,0,0,1,9.59,0,4,4,0,0,1,.07,7.34A38.33,38.33,0,0,1,465.51,107.71Z"/><path class="cls-1" d="M413.52,84.66A50.64,50.64,0,0,1,414.58,79a5.26,5.26,0,0,1,10,0,18.41,18.41,0,0,1,0,11.37A4.74,4.74,0,0,1,419.48,94a4.69,4.69,0,0,1-4.92-3.75A53.56,53.56,0,0,1,413.52,84.66Z"/></g></g></g></svg>