<svg xmlns="http://www.w3.org/2000/svg" viewBox="0 0 124.82 133.94"><defs><style>.cls-1{fill:#f70;}.cls-2{fill:#dbdbdb;}.cls-3{fill:#ccccce;}.cls-4{fill:#d1e5f5;}.cls-5{fill:#acaab0;}.cls-6{fill:#b4d8f1;}.cls-7{fill:#b2b2b2;}.cls-8{fill:#ededed;}.cls-9{fill:#88888f;}.cls-10{fill:#797781;}</style></defs><title>immeuble</title><g id="Calque_2" data-name="Calque 2"><g id="ELEMENTS"><g id="Structures"><path class="cls-1" d="M48.28,11.75V2.38a2.36,2.36,0,1,1,4.71,0v9.42a2.36,2.36,0,1,1-4.71,0Z"/><rect class="cls-2" x="29.44" y="23.26" width="42.39" height="54.75"/><rect class="cls-3" x="62.41" y="23.85" width="11.78" height="54.17"/><rect class="cls-3" x="38.27" y="11.48" width="24.14" height="11.78"/><path class="cls-4" d="M59.8,38H41a2.36,2.36,0,1,1,0-4.71H59.78a2.36,2.36,0,1,1,0,4.71Z"/><path class="cls-4" d="M59.6,49.75H50.2a2.36,2.36,0,1,1,0-4.71h9.4a2.36,2.36,0,1,1,0,4.71Z"/><path class="cls-4" d="M59.6,62.12H50.2a2.36,2.36,0,1,1,0-4.71h9.4a2.36,2.36,0,1,1,0,4.71Z"/><rect class="cls-5" x="71.24" y="11.48" width="42.39" height="120.11"/><path class="cls-6" d="M81.25,26.66v-3.1a2.36,2.36,0,1,1,4.71,0v3.14a2.36,2.36,0,1,1-4.71,0Z"/><path class="cls-6" d="M90.08,26.66v-3.1a2.36,2.36,0,1,1,4.71,0v3.14a2.36,2.36,0,1,1-4.71,0Z"/><path class="cls-6" d="M98.91,26.66v-3.1a2.36,2.36,0,1,1,4.71,0v3.14a2.36,2.36,0,1,1-4.71,0Z"/><path class="cls-6" d="M81.25,41.7V38.6a2.36,2.36,0,1,1,4.71,0v3.14a2.36,2.36,0,1,1-4.71,0Z"/><path class="cls-6" d="M90.08,41.7V38.6a2.36,2.36,0,1,1,4.71,0v3.14a2.36,2.36,0,1,1-4.71,0Z"/><path class="cls-6" d="M98.91,41.7V38.6a2.36,2.36,0,1,1,4.71,0v3.14a2.36,2.36,0,1,1-4.71,0Z"/><path class="cls-6" d="M81.25,56.74v-3.1a2.36,2.36,0,1,1,4.71,0v3.14a2.36,2.36,0,1,1-4.71,0Z"/><path class="cls-6" d="M90.08,56.74v-3.1a2.36,2.36,0,1,1,4.71,0v3.14a2.36,2.36,0,1,1-4.71,0Z"/><path class="cls-6" d="M98.91,56.74v-3.1a2.36,2.36,0,1,1,4.71,0v3.14a2.36,2.36,0,1,1-4.71,0Z"/><path class="cls-6" d="M81.25,71.77v-3.1a2.36,2.36,0,1,1,4.71,0v3.14a2.36,2.36,0,1,1-4.71,0Z"/><path class="cls-6" d="M90.08,71.77v-3.1a2.36,2.36,0,1,1,4.71,0v3.14a2.36,2.36,0,1,1-4.71,0Z"/><path class="cls-6" d="M90.08,86.81v-3.1a2.36,2.36,0,1,1,4.71,0v3.14a2.36,2.36,0,1,1-4.71,0Z"/><path class="cls-6" d="M90.08,101.85v-3.1a2.36,2.36,0,1,1,4.71,0v3.14a2.36,2.36,0,1,1-4.71,0Z"/><path class="cls-6" d="M90.08,116.89v-3.1a2.36,2.36,0,1,1,4.71,0v3.14a2.36,2.36,0,1,1-4.71,0Z"/><path class="cls-6" d="M98.91,71.77v-3.1a2.36,2.36,0,1,1,4.71,0v3.14a2.36,2.36,0,1,1-4.71,0Z"/><path class="cls-6" d="M98.91,86.81v-3.1a2.36,2.36,0,1,1,4.71,0v3.14a2.36,2.36,0,1,1-4.71,0Z"/><path class="cls-6" d="M98.91,101.85v-3.1a2.36,2.36,0,1,1,4.71,0v3.14a2.36,2.36,0,1,1-4.71,0Z"/><path class="cls-6" d="M98.91,116.89v-3.1a2.36,2.36,0,1,1,4.71,0v3.14a2.36,2.36,0,1,1-4.71,0Z"/><rect class="cls-7" x="8.24" y="44.45" width="42.39" height="87.14"/><path class="cls-4" d="M17.66,62.75v-3.1a2.36,2.36,0,1,1,4.71,0v3.14a2.36,2.36,0,1,1-4.71,0Z"/><path class="cls-4" d="M27.08,62.75v-3.1a2.36,2.36,0,1,1,4.71,0v3.14a2.36,2.36,0,1,1-4.71,0Z"/><path class="cls-4" d="M35.91,62.75v-3.1a2.36,2.36,0,1,1,4.71,0v3.14a2.36,2.36,0,1,1-4.71,0Z"/><path class="cls-4" d="M17.66,77.79v-3.1a2.36,2.36,0,1,1,4.71,0v3.14a2.36,2.36,0,1,1-4.71,0Z"/><path class="cls-4" d="M27.08,77.79v-3.1a2.36,2.36,0,1,1,4.71,0v3.14a2.36,2.36,0,1,1-4.71,0Z"/><path class="cls-4" d="M35.91,77.79v-3.1a2.36,2.36,0,1,1,4.71,0v3.14a2.36,2.36,0,1,1-4.71,0Z"/><path class="cls-4" d="M17.66,92.83v-3.1a2.36,2.36,0,1,1,4.71,0v3.14a2.36,2.36,0,1,1-4.71,0Z"/><path class="cls-4" d="M27.08,92.83v-3.1a2.36,2.36,0,1,1,4.71,0v3.14a2.36,2.36,0,1,1-4.71,0Z"/><path class="cls-4" d="M35.91,92.83v-3.1a2.36,2.36,0,1,1,4.71,0v3.14a2.36,2.36,0,1,1-4.71,0Z"/><path class="cls-4" d="M17.66,107.87v-3.1a2.36,2.36,0,1,1,4.71,0v3.14a2.36,2.36,0,1,1-4.71,0Z"/><path class="cls-4" d="M27.08,107.87v-3.1a2.36,2.36,0,1,1,4.71,0v3.14a2.36,2.36,0,1,1-4.71,0Z"/><path class="cls-4" d="M35.91,107.87v-3.1a2.36,2.36,0,1,1,4.71,0v3.14a2.36,2.36,0,1,1-4.71,0Z"/><rect class="cls-8" x="50.04" y="71.54" width="42.39" height="60.05"/><rect class="cls-2" x="62.41" y="71.54" width="30.03" height="60.05"/><path class="cls-4" d="M60.05,122.74V80.87a2.36,2.36,0,0,1,4.71-.12v42.11a2.36,2.36,0,0,1-4.71-.12Z"/><path class="cls-6" d="M68.88,122.74V80.87a2.36,2.36,0,0,1,4.71-.12v42.11a2.36,2.36,0,0,1-4.71-.12Z"/><path class="cls-6" d="M78.3,122.74V80.87A2.36,2.36,0,0,1,83,80.75v42.11a2.36,2.36,0,0,1-4.71-.12Z"/><path class="cls-6" d="M62.41,78.5v46.62a2.31,2.31,0,0,0,2.36-2.26V80.75A2.31,2.31,0,0,0,62.41,78.5Z"/><rect class="cls-4" x="23.55" y="119.81" width="11.78" height="11.78"/><path class="cls-9" d="M122.56,133.94H2.37a2.36,2.36,0,0,1-.11-4.71H122.44a2.36,2.36,0,0,1,.11,4.71Z"/><path class="cls-10" d="M122.44,129.23h-60v4.71h60.15a2.36,2.36,0,0,0-.11-4.71Z"/></g></g></g></svg>