<?xml version="1.0" encoding="utf-8"?>
<!-- Generator: Adobe Illustrator 24.0.1, SVG Export Plug-In . SVG Version: 6.00 Build 0)  -->
<svg version="1.1" id="Calque_1" xmlns="http://www.w3.org/2000/svg" xmlns:xlink="http://www.w3.org/1999/xlink" x="0px" y="0px"
	 viewBox="0 0 730.3 312.3" style="enable-background:new 0 0 730.3 312.3;" xml:space="preserve">
<style type="text/css">
	.st0{opacity:0.1;fill:#FF7700;enable-background:new    ;}
	.st1{fill:#EAECF0;}
	.st2{fill:#3A3768;}
	.st3{opacity:0.1;enable-background:new    ;}
	.st4{fill:#EFC6CD;}
	.st5{fill:#D48A9B;}
	.st6{fill:#DFE6F5;}
	.st7{opacity:0.15;enable-background:new    ;}
	.st8{fill:#4C4C56;}
	.st9{fill:#D1D9EC;}
	.st10{fill:#FF7700;}
	.st11{fill:url(#SVGID_1_);}
	.st12{fill:url(#SVGID_2_);}
	.st13{fill:#D38884;}
	.st14{fill:#A36468;}
	.st15{fill:#444053;}
	.st16{fill:#67647E;}
	.st17{opacity:0.1;}
	.st18{fill:#D3DAE1;}
	.st19{fill:#FFFFFF;}
	.st20{fill:#D5E1F4;}
	.st21{fill:url(#SVGID_3_);}
	.st22{fill:#EFB7B9;}
	.st23{opacity:5.000000e-02;enable-background:new    ;}
</style>
<g>
	<path class="st0" d="M724.7,265.9c-3.5,6.7-8.4,12.7-14.4,17.3c-0.9,0.7-1.7,1.3-2.6,2c-1.2,0.8-2.4,1.7-3.7,2.5
		c-9.7,6.2-21.1,10.4-32.2,13.5c-3,0.8-6.1,1.6-9.1,2.4c-2.6,0.6-5.1,1.2-7.7,1.7c-1,0.2-2,0.4-2.9,0.6c-1,0.2-2.1,0.4-3.1,0.6
		l-1.5,0.3c-28.7,5.3-57.9,6.3-87.2,5l-1.4-0.1l-2.2-0.1c-6-0.3-11.9-0.7-17.9-1.2l-2.3-0.2l-1-0.1c-3.3-0.3-6.7-0.6-10-0.9
		c-4.4-0.4-8.8-0.9-13.2-1.4l-0.6-0.1l-0.5-0.1l0,0c-15.8-1.8-31.6-3.9-47.4-6.1l-2.2-0.3l-4-0.6l-3.4-0.5l0,0l-1-0.1
		c-5.3-0.7-10.7-1.5-16-2.2l-0.9-0.1c-10-1.4-20.1-2.7-30.2-3.9l-1.3-0.2l0,0c-4.1-0.5-8.2-1-12.4-1.4l-3.1-0.3l-4.2-0.4
		c-11.6-1.1-23.1-2.1-34.7-2.6c-5.5-0.3-11.1-0.5-16.7-0.6c-4.6-0.1-9.2-0.2-13.8-0.2c-6.2,0-12.5,0-18.8,0.1l0,0h-1.4
		c-8.8,0.1-17.7,0.4-26.5,0.7l-1.6,0.1h-0.5c-18.8,0.7-37.6,1.5-56.4,2.2l-4.6,0.2h-0.7c-6.5,0.2-13,0.4-19.6,0.5h-1.7H188h-2.1H183
		c-3,0-6,0-9.1,0.1h-3.7c-11.1,0-22.1-0.3-33-0.8l-1.2-0.1c-21.3-1.1-42.3-3.5-62.9-7.8c-2.1-0.4-4.3-0.9-6.4-1.4
		c-14.3-3.2-28.3-7.5-41.9-12.7c-6.4-2.5-12.9-5.4-17.8-10.3c-12.4-12.5-7.7-37.1,8.4-44.3c12.6-5.6,27.4-1,41-3.6
		c0.8-0.2,1.7-0.4,2.5-0.6c1.7-0.6,3.4-1.2,5-2.1c0.6-0.3,1.1-0.6,1.7-0.9c1.3-0.7,2.5-1.4,3.7-2.3c2-1.3,3.9-2.7,5.6-4.3
		c0.8-0.7,1.6-1.4,2.3-2.1c2.6-2.4,4.9-5.2,6.9-8.2c0.7-1.1,1.3-2.3,1.9-3.5c0.3-0.6,0.6-1.3,0.8-2c0.3-0.9,0.6-1.9,0.7-2.9
		c0.8-4.7-0.5-9.2-4.9-13c-0.4-0.3-0.8-0.7-1.3-0.9c-0.9-0.6-1.8-1.1-2.7-1.6c-0.4-0.2-0.8-0.4-1.2-0.5c-5.7-2.4-13.1-3.3-19.4-5
		l0,0c-1.9-0.5-3.8-1.1-5.5-1.9c-1.1-0.5-2.3-1.1-3.4-1.7l0,0l-0.3-0.2l0,0c-9.5-4.9-17.8-11.7-24.5-20.1c-1.7-2.1-3.2-4.3-4.6-6.6
		c-0.4-0.7-0.8-1.4-1.2-2.1c-11-19.9-12.2-45.4-0.7-64.9c1.4-2.4,2.9-4.6,4.6-6.8c0.6-0.7,1.1-1.4,1.7-2.1
		C35,41.8,50.7,33.1,66.5,26.6c21.3-8.7,43.5-14.1,66.2-17.8c4.6-0.7,9.2-1.4,13.8-2C165.8,4.3,185.2,3,204.6,2
		c18.1-0.9,36.3-1.5,54.5-1.8c6.2-0.1,12.4-0.1,18.6-0.1c14,0,27.9,0.3,41.9,0.8c4.6,0.2,9.2,0.4,13.8,0.6
		C345.2,2.1,357,2.9,368.7,4c5.6,0.5,11.3,1.1,16.9,1.7c42.8,4.7,85,12.6,125.7,25c4.6,1.4,9.2,2.9,13.8,4.4
		c17.1,5.6,34,12.1,50.4,19.5c1.6,0.7,3.1,1.4,4.7,2.1c10.3,4.7,20.4,9.8,30.4,15.3c13.2,7.1,25.9,15.1,38,23.8
		c4.7,3.5,9.3,7.1,13.8,10.9c7.9,6.7,15.3,13.9,22,21.7c0.6,0.7,1.2,1.4,1.8,2.1c3.1,3.7,6,7.5,8.7,11.4
		c13.4,19.3,22.4,41.4,29.1,63.9C730.1,225.4,734,247.5,724.7,265.9z"/>
	<path class="st0" d="M716.2,198.5h-53.6v-68.2h23.8c-0.6-0.7-1.2-1.4-1.8-2.1h-22v-21.7c-4.5-3.8-9.1-7.4-13.8-10.9v32.6H525.3
		V56.5h55.1c-1.6-0.7-3.1-1.4-4.7-2.1h-50.4V35c-4.6-1.5-9.2-3-13.8-4.4v23.8H335.1l-0.4-0.4l51-48.4c-5.6-0.6-11.3-1.2-16.9-1.7
		l-35.3,33.5v-36c-4.6-0.2-9.2-0.5-13.8-0.6v39L277.8,0c-6.2,0-12.4,0-18.6,0.1L316,54l-0.4,0.4h-169V6.7c-4.6,0.6-9.2,1.2-13.8,2
		v45.8H24.1c-0.6,0.7-1.2,1.4-1.7,2.1h110.3v71.7H18.4c0.4,0.7,0.8,1.4,1.2,2.1h113.1v68.2H77.1c-0.8,0.7-1.5,1.4-2.3,2.1h58v69.8
		c4.6,0.7,9.2,1.3,13.8,2.1v-71.8h173.1v87.4c4.6,0,9.2,0.1,13.8,0.2v-87.6h178v107l0.6,0.1c4.4,0.5,8.8,1,13.2,1.4V200.7h123.5
		v105.8c1.1-0.2,2.1-0.4,3.1-0.6s2-0.4,2.9-0.6c2.6-0.5,5.2-1.1,7.7-1.7V200.7h54C716.5,200,716.4,199.3,716.2,198.5z M319.7,198.5
		H146.6v-68.2h173.1V198.5z M319.7,128.3H146.6V56.6h170.7l2.4,1.9V128.3z M511.5,198.5h-178v-68.2h178V198.5z M511.5,128.3h-178
		V56.6h178V128.3z M648.8,198.5H525.3v-68.2h123.5V198.5z"/>
	<path class="st1" d="M186.4,294.8c0,0.1-0.1,0.1-0.1,0.2l0,0C186.3,294.9,186.3,294.9,186.4,294.8L186.4,294.8z"/>
	<path class="st1" d="M189.6,291.8h-1.7h-0.1h-2.1h-2.9l-0.3-3.3l-0.3-3.1l-1.4-14.3v-0.4v-0.2l-0.4-4l5.9-2.2l0.7,5.8l0.1,0.4v0.1
		l1.4,11.9l0.4,3.6l0.3,2.1l0.2,1.8v0.1L189.6,291.8z"/>
	<polygon class="st2" points="210.7,294.8 210.7,295 210.3,295 210.2,294.8 	"/>
	<path class="st2" d="M264.3,295L264.3,295L264.3,295z"/>
	<path class="st2" d="M301.5,212.1c0,0.1,0,0.2,0,0.2v0.1c0,0-5.5,15-7.3,27.7c-0.1,0.8-0.2,1.7-0.3,2.5c-0.1,0.9-0.2,1.8-0.2,2.6
		c-0.1,1-0.1,1.9,0,2.8c0,0.2,0,0.4,0,0.6c0,0.4,0,0.9,0.1,1.3c0,0.4,0.1,0.9,0.1,1.4s0.1,0.9,0.1,1.3c1.3,13.8,6.5,34,6.5,34
		s0.2,0.5,0.4,1.5h-1.4c-8.8,0.1-17.7,0.4-26.5,0.7l-1.6,0.1h-0.5c-18.8,0.7-37.6,1.5-56.4,2.2l-4.6,0.2h-0.7
		c-6.5,0.2-13,0.4-19.6,0.5h-1.7c0.4-0.6,1-1.2,1.5-1.7c0.5-0.4,1-0.8,1.5-1.2c3-1.9,6.2-3.3,9.6-4.1c0.7-0.2,1.5-0.3,2.2-0.3
		l4.4,0.1h0.7l6.7,0.1l57.8,1.1h0.1l0.4-0.1c0.7-0.2,1.3-0.4,2-0.7c2.2-0.9,3.8-2.9,4.1-5.3c0-0.2,0.1-0.4,0.1-0.6
		c0-0.3,0-0.6,0-0.9c0-0.2,0-0.4-0.1-0.7c-0.1-0.2-0.1-0.5-0.1-0.7C277.4,269,275,245,275,245v0.1c0,0,0-1,0.1-2.7
		c0-0.1,0-0.3,0-0.4v-0.4c0-0.4,0-0.8,0.1-1.3c0-0.3,0-0.5,0.1-0.8c0-0.4,0.1-0.9,0.1-1.3v-0.1c0-0.3,0.1-0.6,0.1-0.9
		c0-0.4,0-0.1,0-0.1c0.9-9.3,3.9-23.9,13.2-29.3c4.4-2.6,7.2-3.1,9.1-2.6c2.8,0.7,3.5,3.6,3.6,5.5c0,0.1,0,0.2,0,0.4
		C301.5,211.4,301.5,211.8,301.5,212.1z"/>
	<path class="st3" d="M186.4,294.8c0,0.1-0.1,0.1-0.1,0.2l0,0C186.3,294.9,186.3,294.9,186.4,294.8L186.4,294.8z"/>
	<polygon class="st3" points="210.7,294.8 210.7,295 210.3,295 210.2,294.8 	"/>
	<path class="st3" d="M264.3,295L264.3,295L264.3,295z"/>
	<path class="st3" d="M301.5,212.1c0,0.1,0,0.2,0,0.2s-4.5,12.3-6.7,24.1l0,0c-0.2,0.8-0.3,1.6-0.4,2.4c-0.1,0.4-0.1,0.8-0.2,1.2
		c-0.1,0.8-0.2,1.7-0.3,2.5c-0.1,0.9-0.2,1.8-0.2,2.6c-0.1,1-0.1,1.9,0,2.8c0,0.2,0,0.4,0,0.6c0,0.4,0,0.9,0.1,1.3
		c0,0.4,0.1,0.9,0.1,1.4s0.1,0.9,0.1,1.3s0.1,0.9,0.1,1.3c0.2,1.8,0.5,3.6,0.7,5.5c2,12.8,5.6,27.1,5.6,27.1s0.2,0.6,0.4,1.5l0,0
		h-1.4c-8.8,0.1-17.7,0.4-26.5,0.7l-1.6,0.1h-0.5c-18.8,0.7-37.6,1.5-56.4,2.2l-4.6,0.2h-0.7c-6.5,0.2-13,0.4-19.6,0.5h-1.7h-0.1
		c0.5-0.6,1-1.2,1.6-1.8c0.5-0.4,1-0.9,1.5-1.2c3-1.9,6.2-3.2,9.6-4.1c0.7-0.2,1.5-0.3,2.2-0.3l4.4,0.1h0.7l6.8,0.1l57.8,1.1h0.1
		c0,0,0.2,0,0.5-0.1c0.7-0.2,1.3-0.4,2-0.7c2.2-0.9,3.7-2.9,4.1-5.2c0-0.2,0.1-0.4,0.1-0.6c0-0.3,0-0.6,0-0.9c0-0.2,0-0.4-0.1-0.7
		c-0.1-0.2-0.1-0.5-0.1-0.8c-1.4-7.8-3.8-31.8-3.8-31.8s0-1,0.1-2.7c0-0.1,0-0.3,0-0.4v-0.4c0-0.4,0-0.8,0.1-1.3
		c0-0.3,0-0.5,0.1-0.8c0-0.4,0.1-0.9,0.1-1.3v-0.1c0-0.3,0.1-0.6,0.1-0.9c0-0.4,0-0.1,0-0.1c0.1-1.2,0.3-2.4,0.5-3.7
		c1.3-9.1,4.6-20.9,12.7-25.7c4.2-2.5,7.1-3,9-2.6c2.9,0.7,3.6,3.7,3.8,5.6c0,0.1,0,0.2,0,0.4C301.5,211.3,301.5,211.7,301.5,212.1z
		"/>
	<path class="st2" d="M186.4,294.8c0,0.1-0.1,0.1-0.1,0.2l0,0C186.3,294.9,186.3,294.9,186.4,294.8L186.4,294.8z"/>
	<polygon class="st2" points="210.7,294.8 210.7,295 210.3,295 210.2,294.8 	"/>
	<path class="st2" d="M264.3,295L264.3,295L264.3,295z"/>
	<path class="st2" d="M299.9,211.6c0,0-8.2,22.4-7.8,35.8c0.4,13.4,6.8,38.5,6.8,38.5s0.3,0.9,0.6,2.3c-8.8,0.1-17.7,0.4-26.5,0.7
		l-1.6,0.1h-0.5c-18.8,0.7-37.6,1.5-56.4,2.2l-4.6,0.2h-0.7c-6.5,0.2-13,0.4-19.6,0.5h-1.7h-0.1h-2.1c0.9-1.4,2-2.7,3.4-3.6l0.2-0.1
		c3-1.8,6.2-3.2,9.6-4c0.7-0.2,1.5-0.3,2.2-0.3l5.8,0.1h0.7l7,0.1l56.3,1.1c0.8-0.2,1.6-0.4,2.3-0.8c0.2-0.1,0.5-0.2,0.7-0.4l0,0
		c0.7-0.4,1.3-0.9,1.9-1.5c1.2-1.3,2-3.4,1.4-6.3c-1.4-7.8-3.8-31.8-3.8-31.8s-0.4-29.2,13.6-37.3c5.6-3.3,8.8-3.2,10.6-1.9
		c0.1,0,0.1,0.1,0.2,0.1C300.3,207.3,299.9,211.6,299.9,211.6z"/>
	<path class="st1" d="M74.6,266.5l-0.2,2.3L73,283.2c-2.1-0.4-4.3-0.9-6.4-1.4l1.6-13.1l0.5-4.4L74.6,266.5z"/>
	<polygon class="st4" points="34.5,261.9 68.6,189.1 206.3,199.9 219,261.9 	"/>
	<polygon class="st5" points="34.5,268.2 34.5,261.9 219,261.9 219,271.1 	"/>
	<path class="st6" d="M86.5,251.2l82.5,1.7c0.6,0,1.2-0.5,1.2-1.1c0-0.1,0-0.3-0.1-0.4l-12.9-34.7l-55.6-1.1l-16.4,33.7
		c-0.3,0.7,0,1.5,0.7,1.8C86.1,251.2,86.3,251.2,86.5,251.2z"/>
	<path class="st7" d="M86.5,251.2l82.5,1.7c0.6,0,1.2-0.5,1.2-1.1c0-0.1,0-0.3-0.1-0.4l-12.9-34.7l-55.6-1.1l-16.4,33.7
		c-0.3,0.7,0,1.5,0.7,1.8C86.1,251.2,86.3,251.2,86.5,251.2z"/>
	<path class="st6" d="M85.8,249.8l83.4,1.8l-11.3-34.3c-0.4-1.1-1.4-1.9-2.6-1.9l-53.6-1L85.8,249.8z"/>
	<path class="st8" d="M92.7,242l10-22c0.4-0.9,1.4-1.6,2.4-1.6h24.8c1.5,0,2.7,1.2,2.7,2.7v23.8c0,1.5-1.2,2.7-2.7,2.7h-0.1
		L95,245.8c-1.5-0.1-2.6-1.3-2.5-2.8C92.5,242.6,92.6,242.3,92.7,242z"/>
	<path class="st9" d="M141.7,239.2l0.4-12.5c0-1,0.9-1.9,1.9-1.9h7.3c0.9,0,1.7,0.7,1.9,1.6l2.2,12.5c0.2,1-0.5,2-1.6,2.2
		c-0.1,0-0.2,0-0.3,0l-9.9,0.1C142.6,241.2,141.7,240.4,141.7,239.2C141.7,239.3,141.7,239.3,141.7,239.2z"/>
	<path class="st8" d="M44.5,157.6l27.7-2.3c0.8-0.1,1.6,0.3,2,1.1l26.2,59.2l-14.6,32.8c0.5-1,0.8,7-2.5,0l-41.6-86.8
		C41,160.6,43.2,157.8,44.5,157.6z"/>
	<path class="st7" d="M44.5,157.6l27.7-2.3c0.8-0.1,1.6,0.3,2,1.1l26.2,59.2l-14.6,32.8c0.5-1,0.8,7-2.5,0l-41.6-86.8
		C41,160.6,43.2,157.8,44.5,157.6z"/>
	<path class="st8" d="M44.5,157.6l29.1-3.7c0.8-0.1,1.6,0.3,2,1.1l26.2,59.2L86,249.7l-42.9-89.5c-0.5-0.9-0.1-2.1,0.9-2.5
		C44,157.7,44.3,157.6,44.5,157.6z"/>
	<path class="st10" d="M51.7,161.8l21-3.3c0.9-0.1,1.7,0.3,2,1.2l22,53.9c0.2,0.4,0.2,0.9,0,1.4l-10,21c-0.4,0.9-1.4,1.2-2.3,0.8
		c-0.4-0.2-0.7-0.5-0.8-0.8l-33.3-71.5c-0.4-0.9-0.1-2.1,0.9-2.5C51.4,161.9,51.5,161.8,51.7,161.8z"/>
	
		<linearGradient id="SVGID_1_" gradientUnits="userSpaceOnUse" x1="282.3037" y1="652.1891" x2="282.3037" y2="652.1891" gradientTransform="matrix(1 0 0 1 -17.96 -357.1891)">
		<stop  offset="0" style="stop-color:#808080;stop-opacity:0.25"/>
		<stop  offset="0.54" style="stop-color:#808080;stop-opacity:0.12"/>
		<stop  offset="1" style="stop-color:#808080;stop-opacity:0.1"/>
	</linearGradient>
	<path class="st11" d="M264.3,295L264.3,295L264.3,295z"/>
	
		<linearGradient id="SVGID_2_" gradientUnits="userSpaceOnUse" x1="123.9906" y1="560.8853" x2="294.1037" y2="560.8853" gradientTransform="matrix(1 0 0 1 -17.96 -357.1891)">
		<stop  offset="0" style="stop-color:#808080;stop-opacity:0.25"/>
		<stop  offset="0.54" style="stop-color:#808080;stop-opacity:0.12"/>
		<stop  offset="1" style="stop-color:#808080;stop-opacity:0.1"/>
	</linearGradient>
	<path class="st12" d="M276.1,283.2c0,0-0.4,0.7-1.1,1.9l-0.1,0.1c-0.6,1-1.3,2.3-2,3.8h-1.5h-0.5c-18.8,0.7-37.6,1.5-56.4,2.2
		l-4.6,0.2h-0.7c-6.5,0.2-13,0.4-19.6,0.5h-1.7h-0.1h-2.1h-2.9c-3,0-6,0-9.1,0.1h-3.6c-11.1,0-22.1-0.3-33-0.8l-1.2-0.1
		c2.2-4.7,6-12.4,9.1-14.8c2.4-1.9,19.8-4,35.7-5.5l1.7-0.2l0,0l4.5-0.4c6.1-0.6,11.6-1,15.6-1.3h0.4l-2.1-6.9l-3-10l0.8-8.4
		l0.1-0.7h-0.1c-0.8,0.1-1.7,0-2.5-0.3l-29.8-1h-0.5l0,0l-11.4-0.4l0,0c-6.1-0.2-10.5-0.4-10.7-0.4s-0.4-0.1-0.5-0.1
		c-0.3-0.1-0.5-0.3-0.7-0.4c-0.3-0.2-0.5-0.5-0.6-0.8h-0.1h-0.3l-1.6,0.1l-0.8,0.1c0-0.1-0.1-0.2-0.1-0.3c-0.1-0.2-0.2-0.5-0.2-0.7
		h-0.4l-5.6-0.1h-0.1c0,0-14.6,1.1-22.2-1.7l0,0c-2.8-1-4.6-2.6-4.5-4.9c0-0.5,0.1-1,0.3-1.5c-2.4-4.6,9.5-12.9,18.6-10.6
		c2.5,0.7,5.1,0.8,7.6,0.3c1.4-0.3,2.6-0.9,3.8-1.7c0.1-0.1,0.2-0.2,0.3-0.2c-0.2-0.1-0.3-0.2-0.5-0.3c-0.6-0.3-1.3-0.6-2-0.7
		l2.5-0.7l0,0c0,0,8.8-0.8,14.5-1.1l0,0c1.7-0.1,3.1-0.1,4-0.1c3.8,0.1,11.1-2.6,11.4-3.4c0.3-0.8,3.7,0,3.7,0l2.9-1.1
		c2.9-1.1,4.6-2.7,4.6-3.8c0-1.1,2.6-2.4,2.6-2.4c1.2-2,3.5-4.1,5.9-6c2.1-1.6,4.3-3.1,5.9-4.1c0.6-4.1,1.5-8.1,2.5-12.1
		c1.1-3.7,4.6-6.5,5.8-7.3l0.5-0.3c-0.3-1.6-0.8-3.1-1.4-4.6c0-0.1-0.1-0.3-0.2-0.4c-0.1-0.3-0.3-0.6-0.4-0.9l-0.2-0.4
		c-0.3,0.1-0.6,0.1-1,0.2c-1,0.2-2.1,0.2-3.1,0.2c-9.7,0-18.2-6.4-20.8-15.7l0,0c-0.5-1.8-0.8-3.7-0.8-5.6c0-1.8,0.2-3.7,0.7-5.4
		l0,0c0.1-0.4,0.2-0.7,0.3-1.1v-0.1c0.1-0.2,0.1-0.3,0.2-0.5c-0.9,0.1-1.9,0.2-2.8,0.2h-0.6c-1.8,0.1-3.6-0.2-5.3-0.9l0,0
		c-0.4-0.2-0.8-0.4-1.2-0.6c0,0,0,0-0.1,0c-0.5-0.3-0.9-0.6-1.3-1c1.4-1.1,2.3-2.7,2.6-4.4c0.2-1.4-0.1-2.9,0.8-4
		c0.4-0.5,0.9-0.9,1.5-1.3c3.3-2.3,6-5.4,9-8.1s6.7-5,10.7-5.1c5.4-0.2,10.2,3.6,15.6,4.3c1.7,0.2,3.4,0.1,5,0.6
		c1.8,0.6,3.5,1.4,5.1,2.6c1.4,0.8,2.6,1.8,3.6,3.1c0.7,1.1,1.2,2.3,1.5,3.5c0.7,2.6,1.1,5.3,1.3,8c0.1,2.8,0,5.7,0.3,8.5
		c0.2,2.5,1,4.8,2.4,6.9h0.1c0.2,0.3,0.5,0.7,0.8,1c-0.5,0.2-1.1,0.3-1.6,0.5c-0.9,0.2-1.8,0.4-2.8,0.5c-0.4,0.1-0.9,0.1-1.3,0.1
		c-0.3,0-0.6,0-0.9-0.1l0.6,0.4l1.5,1l0,0l0.6,0.4l1.2,0.8c0.3-0.8,0.6-1,1-0.9c0.9-0.8,2.1,0.9,2.1,0.9c0.7,1.4,2.8,2.9,4.5,3.9
		c1,0.6,2.1,1.2,3.2,1.7c23.4,14,22,34.9,23.3,36.5c1.4,1.7,1.5,7.7,1.5,7.7s3.5,20.4,5,22.1c1.6,1.8,0.1,2.4,1.5,4.3s1,7.2,1,7.2
		s0.9,12.4,4.3,15.1c3,2.4,7,22.7,7.8,26.9L276.1,283.2z"/>
	<path class="st13" d="M138.6,217.8c0,0-3.3,5.1-12.5,2.8c-9.2-2.4-21.4,6.6-17.9,11c3.5,4.4,25.9-1.3,25.9-1.3l8.6-1.7l-0.6-7.2
		L138.6,217.8z"/>
	<path class="st3" d="M138.6,217.8c0,0-3.3,5.1-12.5,2.8c-9.2-2.4-21.4,6.6-17.9,11c3.5,4.4,25.9-1.3,25.9-1.3l8.6-1.7l-0.6-7.2
		L138.6,217.8z"/>
	<path class="st14" d="M141.6,217.5l-4-0.2l-2.5,0.7c0,0,7.8,1.1,5.6,11.7l8.4-0.5L141.6,217.5z"/>
	<path class="st3" d="M141.6,217.5l-4-0.2l-2.5,0.7c0,0,7.8,1.1,5.6,11.7l8.4-0.5L141.6,217.5z"/>
	<path class="st15" d="M194.5,193.9c0,0-11,6.3-14,11.5c0,0-2.6,1.3-2.6,2.4s-1.6,2.7-4.5,3.8l-2.9,1.1c0,0-3.3-0.8-3.6,0
		s-7.5,3.5-11.2,3.4s-18.1,1.3-18.1,1.3c5.4,2.5,8.5,8.4,7.3,14.2l34.1-1.4l12.9-2.9l7.6-7.6L194.5,193.9z"/>
	<path class="st3" d="M194.5,193.9c0,0-11,6.3-14,11.5c0,0-2.6,1.3-2.6,2.4s-1.6,2.7-4.5,3.8l-2.9,1.1c0,0-3.3-0.8-3.6,0
		s-7.5,3.5-11.2,3.4s-18.1,1.3-18.1,1.3c5.4,2.5,8.5,8.4,7.3,14.2l34.1-1.4l12.9-2.9l7.6-7.6L194.5,193.9z"/>
	<path class="st13" d="M144.2,239.2l-4.8-0.1l-5.6-0.1c0,0-26.7,2.1-26.1-6.5c0.5-8.5,21-11.5,23.9-9.1c2.2,1.9,7.2,3.3,9.5,4
		c0.7,0.2,1.2,0.3,1.2,0.3L144.2,239.2z"/>
	<path class="st3" d="M144.2,239.2l-4.8-0.1c-1.9-6.6,0.3-10.3,1.6-11.7c0.7,0.2,1.2,0.3,1.2,0.3L144.2,239.2z"/>
	<path class="st14" d="M147.5,239.6l-5,0.4l-2.4,0.2c-3.3-9.6,2-13.4,2-13.4h1.6l2.6,0.3L147.5,239.6z"/>
	<path class="st13" d="M208.3,175.6l-5.9,11.3c0,0-0.9-11.4-3.6-16.8c-0.7-1.4-1.5-2.4-2.4-2.7c-2.5-0.8,11.9-16.6,11.9-16.6
		c0.5,0.1,3.2,1.9,6.6,4.2c3.7,2.5,8.2,5.6,11.2,7.5C231.9,166.2,208.3,175.6,208.3,175.6z"/>
	<path class="st15" d="M200.6,175.8c0,0-4.8,3.1-6.1,7.6s-2.6,12.6-2.6,12.6s2.2,19.4,3.3,20.3s5.4,20.3,5.4,20.3l4.1-2.8l-5.4-24.4
		C199.4,209.5,203,178.1,200.6,175.8z"/>
	<path class="st3" d="M200.6,175.8c0,0-4.8,3.1-6.1,7.6s-2.6,12.6-2.6,12.6s2.2,19.4,3.3,20.3s5.4,20.3,5.4,20.3l4.1-2.8l-5.4-24.4
		C199.4,209.5,203,178.1,200.6,175.8z"/>
	<polygon class="st14" points="221.4,219.1 197.6,219.1 201.4,181.4 221.4,181.4 	"/>
	<path class="st16" d="M166.1,294.8h0.3l-0.5,0.2L166.1,294.8z"/>
	<path class="st16" d="M211,277.6l-4.7,1.8l-0.6,0.2l-16.8,6.5l-6.4,2.5l-8.7,3.4h-3.6c-11.1,0-22.1-0.3-33-0.8
		c2.1-4.6,5.8-12.1,8.9-14.5c2.4-1.9,19.2-3.9,34.8-5.4c1.9-0.2,3.9-0.4,5.7-0.5h0.4c6.2-0.6,11.8-1,15.7-1.3l0.6-0.1l4.9-0.4
		l0.5-0.5l0.6,2.7l0.5,2.1L211,277.6z"/>
	<path class="st3" d="M166.1,294.8h0.3l-0.5,0.2L166.1,294.8z"/>
	<path class="st3" d="M211,277.6l-4.7,1.8l-0.6,0.2l-16.8,6.5l-6.4,2.5l-8.7,3.4h-3.6c-11.1,0-22.1-0.3-33-0.8
		c2.1-4.6,5.8-12.1,8.9-14.5c2.4-1.9,19.2-3.9,34.8-5.4c1.9-0.2,3.9-0.4,5.7-0.5h0.4c6.2-0.6,11.8-1,15.7-1.3l0.6-0.1l4.9-0.4
		l0.5-0.5l0.6,2.7l0.5,2.1L211,277.6z"/>
	<path class="st16" d="M166.1,294.8h0.3l-0.5,0.2L166.1,294.8z"/>
	<path class="st16" d="M186.4,294.8c0,0.1-0.1,0.1-0.1,0.2l0,0C186.3,294.9,186.3,294.9,186.4,294.8L186.4,294.8z"/>
	<polygon class="st16" points="210.7,295 210.3,295 210.2,294.8 210.7,294.8 	"/>
	<path class="st16" d="M215,271.1l-0.4,12.9v0.7v0.1l-0.2,6.4l-4.6,0.2h-0.7c-6.5,0.2-13,0.4-19.6,0.5h-1.7h-0.1h-2.1h-2.9
		c-3,0-6,0-9.1,0.1H170c3.3-2,7.5-4.2,12-6.5c2-1,4.2-2,6.3-3c5.6-2.6,11.4-5.1,16-7.1l0.6-0.3c1.8-0.8,3.4-1.4,4.8-2
		C213,271.8,214.9,271.1,215,271.1L215,271.1z"/>
	<path class="st3" d="M173.1,218c1.2,2.4,2.4,4.9,4.3,6.9c0.3,0.3,0.8,0.6,1.1,0.2c0.1-0.1,0.1-0.3,0.1-0.5
		c-0.1-1.2-0.5-2.3-1.1-3.2c-0.6-1-1.4-1.8-1.9-2.8c-0.6-1-1.2-2.9-2.5-3.2C171.6,215.1,172.8,217.3,173.1,218z"/>
	<path class="st3" d="M214.9,155c-0.1,0.3-0.2,0.6-0.3,0.9c-2.4,7.2-8.4,12.6-15.8,14.1c-0.7-1.4-1.5-2.4-2.4-2.7
		c-2.5-0.8,11.9-16.6,11.9-16.6C208.8,150.9,211.5,152.7,214.9,155z"/>
	<path class="st13" d="M215.7,149c0,11.7-9.5,21.1-21.1,21.1s-21.2-9.5-21.2-21.1s9.5-21.1,21.1-21.1
		C206.2,127.8,215.6,137.2,215.7,149C215.7,148.9,215.7,148.9,215.7,149z"/>
	<path class="st16" d="M202.6,180.3c0,0-4.4,5.3-3.7,8.8h5.3l3.9-4.4L202.6,180.3z"/>
	<path class="st3" d="M218.3,157.8l-16.8,23c0,0,4.3,6.2,6.4,6.5c2.1,0.3,13.8-27.2,13.8-27.2L218.3,157.8z"/>
	<path class="st14" d="M218.5,157.4l-16.8,23.1c0,0,4.3,6.1,6.4,6.5c2.1,0.3,13.8-27.2,13.8-27.2L218.5,157.4z"/>
	<path class="st16" d="M199.6,186.9c0,0-0.8,12.9-1.6,15.5s0,26.1,0,26.1l7.7-3.2l-1.3-36.2L199.6,186.9z"/>
	<polygon class="st3" points="210.7,294.8 210.7,295 210.3,295 210.2,294.8 	"/>
	<path class="st3" d="M264.3,295L264.3,295L264.3,295z"/>
	<path class="st3" d="M273.7,283.7c0,0-0.1,0.2-0.4,0.6s-0.5,0.9-0.8,1.5c0,0,0,0,0,0.1c-0.5,0.9-1,1.9-1.6,3.1
		c-18.8,0.7-37.6,1.5-56.4,2.2l-4.6,0.2h-0.7l-2-6.7v-0.1l-0.2-0.7l-1.3-4.2l-1.3-4.2l-1.3-4.5l-0.5-1.6l-0.1-0.4l-2-7l-2.8-9.5
		l0.9-9l0,0l0.1-0.7l0.8-8.1l0.1-2.4l0,0l0.1-1.3v-0.4l0,0l0.1-2.9l0.4-8.7l0.2-4.4l0,0v-0.7l0,0l0.4-8.9l1.2-3.6l0.6-1.8l1.4-4.2
		l0.3-1l0,0c0.4-1.6,1.3-4.7,2.2-7.7l0,0l0.1-0.3l0,0l0.1-0.2l0.6-2.1l0.7-2.7c0.3-1,0.5-1.8,0.5-2.1c0.1-0.4,1.3-2.4,2.8-5l0,0
		c3.1-5.2,7.9-12.8,8.4-15.4c0,0,0,0,0-0.1c0-0.2,0.1-0.3,0.1-0.5c0.3-0.8,0.6-1,1-0.9c0.2,0,0.3,0.1,0.5,0.2c0.4,0.3,0.7,0.6,1,0.9
		c0.7,1.4,2.7,2.8,4.4,3.9l0.3,0.2l0.2,0.1c1.4,0.8,2.6,1.3,2.6,1.3c23,13.8,21.5,34.6,22.9,36.2s1.4,7.6,1.4,7.6s3.4,20.2,4.9,22
		s0.1,2.4,1.4,4.3s1,7.1,1,7.1s0.9,12.3,4.2,15C269.2,259,273.7,283.7,273.7,283.7z"/>
	<path class="st15" d="M274.3,283.5L274,284l0,0c-0.2,0.4-0.6,1-1,1.8v0.1c-0.5,0.9-1,2-1.6,3.1h-0.5c-18.8,0.7-37.6,1.5-56.4,2.2
		l-4.6,0.2l-2-6.7v-0.1l-0.2-0.7l-1.3-4.4l-1.3-4.3l-1.3-4.3l-0.5-1.7l0,0l-2.1-7.3l-2.8-9.7l0.8-7.8l0.1-1l0.9-8.9l0,0l0.3-7
		l0.4-8.4l0.1-2.2l0.1-2.5l0.1-1.1l0.4-8.4l1.2-3.6l0.5-1.6l1.2-3.7l0.3-0.8c0,0,1.2-4.1,2.3-8.2c0-0.2,0.1-0.3,0.1-0.5
		c0.1-0.4,0.2-0.7,0.3-1l0,0c0.1-0.4,0.2-0.7,0.3-1c0.3-1.1,0.6-2.2,0.8-3.1c0.3-1.1,0.5-2,0.6-2.3c0.1-0.4,1.3-2.5,2.9-5.1
		c3-4.9,7.3-11.9,8.2-14.8c0-0.2,0.1-0.3,0.1-0.5l0,0c0.1-0.5,0.2-0.9,0.5-1.3c0.8-0.8,2.1,0.9,2.1,0.9c0.7,1.4,2.7,2.8,4.4,3.9
		c1,0.6,2.1,1.2,3.1,1.7c23,13.8,21.5,34.6,22.9,36.2c1.3,1.6,1.4,7.6,1.4,7.6s3.4,20.2,4.9,22s0.1,2.4,1.4,4.3s1,7.2,1,7.2
		s0.9,12.3,4.2,15C269.8,258.8,274.3,283.5,274.3,283.5z"/>
	<path class="st3" d="M227.5,162.7c-2.3,3.3-5.9,9-6.9,13.2c0,0-3.6,3.7-4.9,3.5c-1.3-0.2,1.3,2.8,1.3,2.8l-14.1,19.5l2-6
		c0,0,4.2-14.8,4.4-16.1c0.2-1.3,10.4-16.6,11.2-20.4c0.6-3.1,2.6-0.3,2.6-0.3C223.8,160.2,225.7,161.7,227.5,162.7z"/>
	<path class="st15" d="M227.5,162.3c-2.3,3.3-5.9,9-6.9,13.1c0,0-3.6,3.7-4.9,3.5c-1.3-0.2,1.3,2.8,1.3,2.8l-14.1,19.5l2-6
		c0,0,4.2-14.8,4.4-16.1c0.2-1.3,10.4-16.6,11.2-20.4c0.6-3.1,2.6-0.3,2.6-0.3C223.8,159.8,225.7,161.2,227.5,162.3z"/>
	<path class="st3" d="M246.4,202.8c0.1,4.5-6.5,10.6-6.8,11s-20.4,16.9-20.4,16.9l-14.4,11.1c-1.6,1.3-3.6,2.2-5.6,2.6l1-9.9l1-20.1
		c2.3-2.5,4.4-5.1,4.5-6c0.1-1.7,3.8-3.6,3.8-3.6s2.6-2.2,2.2-3.4c-0.4-1.2,1.4-7.1,1.4-7.1c0.9-16.7,18.1-18.4,18.1-18.4
		s8.3,3.3,14.1,6.8C251,186.2,246.3,198.3,246.4,202.8z"/>
	<path class="st3" d="M147.5,239.6l-5,0.4c-2.1-3.6,0.8-13.3,0.8-13.3h0.4l2.6,0.3L147.5,239.6z"/>
	<path class="st15" d="M231,174.9c0,0-17.2,1.6-18.1,18.4c0,0-1.7,5.8-1.3,7.1c0.4,1.2-2.2,3.4-2.2,3.4s-3.7,1.8-3.8,3.6
		s-9.4,11.3-9.4,11.3s-3.9,4.4-12.9,4.9s-13.2,3.2-13.2,3.2s-4.4-3.1-7.6-2.2c-3.2,0.9-18.8,2.2-18.8,2.2s-4.1,13.7,1,14.6
		c0.6,0.1,51.4,1.8,51.4,1.8s3.5,1.6,8.7-2.4s14.4-11.1,14.4-11.1s20.1-16.6,20.4-16.9c0.3-0.3,6.9-6.5,6.8-11s4.6-16.6-1.3-20.1
		C239.3,178.2,231,174.9,231,174.9z"/>
	<path class="st3" d="M215.7,149c0,2.2-0.3,4.4-1,6.5c-0.3-0.3-0.5-0.7-0.8-1.1c-1-1.5-2-3-2.9-4.5c-0.8-1.4-1.8-2.6-3-3.5
		c-1.3-0.9-3-1.3-4.4-0.5c-1.2,0.7-1.8,2.1-1.9,3.5c0,1.4,0,2.8,0.1,4.2c0.1,0.5-0.1,1.1-0.4,1.5c-0.4,0.4-1,0.6-1.6,0.6l-1.9,0.3
		c-0.7,0.2-1.5-0.1-1.7-0.8l0,0c-1.6-2.8-2.6-6.3-5.6-7.7c-1.8-0.8-4.2-0.8-5.4-2.4c-0.8-1.1-0.7-2.6-0.5-3.9c0.3-1.5,0.6-3,1.1-4.5
		c0.3-1,1.1-3.1-0.6-3.3c-1.1-0.1-2.7,1-3.2,1.9c-0.6,0.8-0.7,2-1.1,2.9c-0.8,1.7-2.2,2.9-3.9,3.6c-0.9,0.4-1.7,0.6-2.7,0.7
		c3.6-11.1,15.5-17.2,26.6-13.6C209.7,131.6,215.7,139.7,215.7,149L215.7,149z"/>
	<path class="st15" d="M182.1,134.7c-0.6,0.9-0.7,2-1.1,2.9c-0.8,1.7-2.2,2.9-3.9,3.6c-1.7,0.6-3.5,1-5.3,0.9
		c-2.9,0.1-6.2-0.4-8.1-2.6c1.4-1.1,2.3-2.7,2.5-4.4c0.2-1.3-0.1-2.8,0.7-3.9c0.4-0.5,0.9-0.9,1.4-1.2c3.3-2.3,5.9-5.4,8.8-8
		c3-2.7,6.5-5,10.5-5.1c5.3-0.2,10,3.6,15.3,4.3c1.6,0.2,3.3,0.1,4.9,0.6c1.8,0.6,3.5,1.4,5,2.5c1.4,0.8,2.6,1.8,3.5,3
		c0.7,1.1,1.2,2.2,1.4,3.5c0.7,2.6,1.1,5.3,1.3,8c0.1,2.8,0,5.6,0.3,8.4s1.2,5.6,3.1,7.7c-1.4,0.4-2.8,0.8-4.3,1
		c-0.9,0.2-1.9,0.1-2.7-0.2c-0.7-0.4-1.3-1.1-1.7-1.8l-2.9-4.5c-0.8-1.4-1.8-2.6-3-3.5c-1.3-0.9-3-1.3-4.4-0.5
		c-1.2,0.7-1.8,2.1-1.9,3.5c0,1.4,0,2.8,0.1,4.2c0.1,0.5-0.1,1.1-0.4,1.5c-0.4,0.4-1,0.6-1.6,0.6l-1.9,0.3c-0.7,0.2-1.5-0.1-1.7-0.8
		l0,0c-1.6-2.8-2.6-6.3-5.6-7.7c-1.8-0.8-4.2-0.8-5.4-2.4c-0.8-1.1-0.7-2.6-0.5-3.9c0.3-1.5,0.6-3,1.1-4.5c0.3-1,1.1-3.1-0.6-3.3
		C184.2,132.6,182.6,133.8,182.1,134.7z"/>
	<path class="st3" d="M229.8,184.3c1.6-0.2,3.3-0.4,4.7,0.2c-3.9-1.6-10.2-1-13.7,1.2C221.2,186.5,228.6,184.5,229.8,184.3z"/>
	<path class="st3" d="M231.7,189.4c3.9,0.3,7.8,0.8,11.5-0.5c-3.1-1.1-6.4-0.4-9.7-0.7c-2.6-0.3-5.2-1.1-7.7-0.5
		c-1,0.3-4.9,2-4.6,3.3C224.5,189.6,228.1,189.1,231.7,189.4z"/>
	<path class="st3" d="M221.5,197.9c0.8-0.1,1.6,0,2.4,0.3c2.9,0.7,5.9,1,8.8,1c2.3,0,4.7-0.3,6.4-1.9L221.5,197.9z"/>
	<path class="st3" d="M209,217.5c2.7,1.2,5.7,1.8,8.6,1.6c2.9-0.2,5.9-0.8,8.7-1.7c1.3-0.4,2.6-0.8,3.4-1.9L209,217.5z"/>
	<path class="st3" d="M236.8,220.3c5.9,3.4,12.4,5.4,19.1,5.9c-3.4-1.4-6.8-2.7-10.3-3.9c-3.5-1.2-7.1-2.2-10.8-2.9
		C235.5,219.6,236.2,219.8,236.8,220.3z"/>
	<path class="st3" d="M246.3,216.7c1.2,0.2,2.4,0.3,3.6,0.2c0.6,0,1.4-0.1,1.7-0.6c-2.7,0.1-5.3-0.6-8-1.2c-0.7-0.2-2.1-0.6-2.7-0.1
		C242.1,215.8,244.8,216.4,246.3,216.7z"/>
	<path class="st3" d="M262.5,272.7c1.4,2.4,2.8,4.9,4.8,6.9c1.1,1.1,2.3,2.1,3.6,3.1c-2.3-5.9-4.7-11.9-8.4-17.1
		c-0.9-1.3-2.3-3.2-4.1-3.4c-0.5,1.4,0.7,4,1.3,5.4C260.5,269.3,261.4,271,262.5,272.7z"/>
	<path class="st3" d="M193.9,228.3c-0.1,1-0.2,2.1,0.4,2.9c0.3,0.4,0.7,0.7,1.2,0.8c-0.3-0.1-0.6-3-0.7-3.4c-0.1-0.8,0-2.4-0.6-3
		C194,226.5,194,227.4,193.9,228.3z"/>
	<path class="st3" d="M197.1,227.2c0.4,1.8,1.6,3.3,3.1,4.2c-1.1-1.4-1.5-3.1-2.4-4.6c-0.3-0.5-0.7-1.2-1.3-1.3
		C196.8,226.1,196.9,226.6,197.1,227.2z"/>
	<path class="st3" d="M194.4,209.1c-1.9,1.1-4.1,1.4-6.2,0.8c-0.5-0.1-1.6-0.6-1.3-1.3s1.5-0.2,2.1-0.2l2.7,0.3
		C192.1,208.8,194,209.3,194.4,209.1z"/>
	<path class="st3" d="M185.1,213.6c1.3-0.2,2.4,0.7,3.6,1.2c1.3,0.4,2.7,0.6,4.1,0.6c0.7,0,1.5-0.1,1.9-0.6
		C191.6,214,188.5,213.1,185.1,213.6z"/>
	<polygon class="st14" points="200.6,175.8 200.9,175.8 202.4,181.4 200.6,183.2 	"/>
	<g class="st17">
		<path d="M166.7,132c-0.2,0.9-0.3,1.8-0.3,2.7c0.1-0.3,0.1-0.6,0.2-0.9C166.6,133.3,166.6,132.6,166.7,132z"/>
		<path d="M185.4,132.7c0.6,0,1.1,0.6,1,1.2v0.1c0.3-1,0.5-2.3-0.8-2.5c-1.1-0.1-2.7,1-3.2,1.9c-0.6,0.9-0.7,2-1.1,2.9
			c-0.8,1.7-2.1,2.9-3.9,3.6c-1.7,0.6-3.5,1-5.3,0.9c-2.7,0.1-5.6-0.3-7.5-2c-0.2,0.2-0.5,0.5-0.7,0.7c1.9,2.2,5.1,2.7,8.1,2.6
			c1.8,0,3.6-0.3,5.3-0.9s3.1-1.9,3.9-3.6c0.4-1,0.5-2,1.1-2.9C182.7,133.8,184.3,132.6,185.4,132.7z"/>
		<path d="M218.5,154.6c-0.9,0.2-1.9,0.1-2.7-0.2c-0.7-0.4-1.3-1.1-1.7-1.8c-1-1.5-2-3-2.9-4.5c-0.8-1.4-1.8-2.6-3-3.5
			c-1.3-0.9-3-1.3-4.4-0.5c-1.2,0.7-1.8,2.1-1.9,3.5c0,0.1,0,0.1,0,0.2c0.2-1,0.8-1.9,1.7-2.5c1.3-0.8,3.1-0.4,4.4,0.5
			c1.2,1,2.2,2.2,3,3.5c1,1.5,2,3,2.9,4.5c0.4,0.7,1,1.3,1.7,1.8c0.9,0.4,1.8,0.4,2.7,0.2c1.5-0.2,2.9-0.5,4.3-1
			c-0.3-0.3-0.5-0.6-0.8-0.9C220.7,154.2,219.6,154.4,218.5,154.6z"/>
		<path d="M201.6,153.3c-0.4,0.4-1,0.6-1.6,0.6l-1.9,0.3c-0.7,0.2-1.5-0.1-1.7-0.8l0,0c-1.6-2.8-2.6-6.3-5.6-7.7
			c-1.8-0.8-4.2-0.8-5.3-2.4c-0.6-1-0.8-2.2-0.6-3.3c0,0.2-0.1,0.4-0.1,0.6c-0.2,1.3-0.3,2.8,0.5,3.9c1.2,1.6,3.5,1.6,5.3,2.4
			c2.9,1.4,4,4.9,5.6,7.7c0.1,0.4,0.4,0.7,0.7,0.9c0.3,0.1,0.7,0.1,1,0l1.9-0.3c0.6,0,1.2-0.2,1.6-0.6c0.3-0.4,0.4-1,0.4-1.5l0,0
			C201.8,153.1,201.7,153.2,201.6,153.3z"/>
	</g>
	<path class="st1" d="M461.3,301.2l-4-0.6v-59.4l0.8,0.3l2.5,0.8v2v1.5v2.3v2.6l0.1,5.3v0.5v0.7v1.5v0.9v2.2v1.4l0.3,26.7v0.7
		l0.1,9.4v0.1L461.3,301.2z"/>
	<path class="st18" d="M463.6,301.5l-2.2-0.3v-1.1V300l-0.1-9.4v-0.7l-0.3-26.7v-1.4v-2.2v-0.9v-1.5v-0.7V256l-0.1-5.3v-2.6v-2.3
		v-1.5v-2h2.4v2.2v1.5v1.7v2.3l0.1,5.7v1.3v1.3v0.9v1.1v1.5l0,0l0.2,28.1v0.7l0.1,9.3v0.2L463.6,301.5z"/>
	<path class="st18" d="M463.6,304.9"/>
	<path class="st1" d="M707.6,233.9v51.2c-1.2,0.8-2.4,1.7-3.7,2.5l-0.1-42.7v-4.5L707.6,233.9z"/>
	<path class="st18" d="M710.2,233.2v50c-0.9,0.7-1.7,1.3-2.6,2v-51.3L710.2,233.2z"/>
	<path class="st1" d="M652,305.8c-1.5,0.3-3.1,0.6-4.6,0.9l-0.1-46.4v-2l4.5-1.9v4.3L652,305.8z"/>
	<path class="st18" d="M654.9,255v50.2c-1,0.2-2,0.4-2.9,0.6l-0.2-45.1v-4.3l0.3-0.1l0,0L654.9,255z"/>
	<path class="st1" d="M389,291.9l-4.2-0.4l-0.5-52.3v-1.5v-1h4.1v1.3v1.5L389,291.9z"/>
	<path class="st18" d="M392.1,292.2l-3.1-0.3l-0.6-52.4V238v-1.3h3.2v1.6v1.5L392.1,292.2z"/>
	<polygon class="st3" points="652,256.3 654.9,255 654.9,261.3 652.1,262.2 	"/>
	<polygon class="st3" points="710.2,233.2 710.2,242.8 707.6,243.7 703.9,245 703.9,240.4 707.6,233.9 	"/>
	<polygon class="st5" points="710.2,214.5 710.2,241.4 652.1,260.7 651.7,232 	"/>
	<polygon class="st4" points="383.5,212.7 459.9,198.1 710.2,214.5 651.7,232 	"/>
	<polygon class="st3" points="391.5,236.7 391.6,239.8 388.4,239.5 384.3,239.2 384.3,236.7 	"/>
	<polygon class="st3" points="463.1,246 460.7,245.8 457.3,245.5 457.3,241.3 460.6,242.3 463.1,242.3 	"/>
	<polygon class="st5" points="383.5,212.7 383.5,237.6 652.1,260.7 651.7,232 	"/>
	<polygon class="st5" points="596.5,242.4 561.4,242.4 561.4,229.6 596.5,232.1 	"/>
	<polygon class="st3" points="596.5,242.4 561.4,242.4 561.4,229.6 596.5,232.1 	"/>
	<polygon class="st3" points="514.3,226.8 514.3,246.9 649,257.2 649,235.8 596.4,232.8 591.2,237.4 569.8,236 562.1,230.4 	"/>
	<polygon class="st19" points="513.5,226.1 513.5,246.2 648.2,256.4 648.2,235 595.7,232 590.5,236.7 569,235.2 561.4,229.6 	"/>
	<polygon class="st5" points="430.5,220.7 462.3,222.9 461.9,233 441.1,233 427.2,227.6 	"/>
	<polygon class="st3" points="430.5,220.7 462.3,222.9 461.9,233 441.1,233 427.2,227.6 	"/>
	<polygon class="st3" points="388,217.9 388,236 510.2,245.6 510.2,226.5 463.1,223.7 458,227.4 439,226.3 431.2,221.4 	"/>
	<polygon class="st19" points="387.3,217.1 387.3,235.2 509.4,244.9 509.4,225.7 462.3,222.9 457.3,226.6 438.3,225.5 430.5,220.7 	
		"/>
	<polygon class="st3" points="649,217.2 666.1,218.3 637.7,226.8 623.3,225.8 	"/>
	<polygon class="st19" points="649,216.5 666.1,217.6 637.7,226.1 623.3,225 	"/>
	<path class="st18" d="M646.9,218.4c0.7-0.3,1.4,0.3,2.1,0.4c0.4,0.1,0.8,0,1.3,0.1c0.8,0.1,1.7,0.7,2.5,0.4L646.9,218.4z"/>
	<path class="st18" d="M646,218.9c0.7-0.3,1.4,0.3,2.1,0.4c0.4,0.1,0.8,0,1.3,0.1c0.8,0.1,1.7,0.7,2.5,0.4L646,218.9z"/>
	<path class="st18" d="M644,219.9c0.7-0.3,1.4,0.3,2.1,0.4c0.4,0.1,0.8,0,1.3,0.1c0.8,0.1,1.7,0.7,2.5,0.4L644,219.9z"/>
	<polygon class="st3" points="533.4,207.8 571.6,210.3 563.5,222 521.5,217.5 	"/>
	<polygon class="st2" points="532.7,207.1 570.8,209.6 562.7,221.3 520.7,216.8 	"/>
	<polygon class="st20" points="534.3,207.9 567.6,210 560.6,219.5 523.9,215.8 	"/>
	<path class="st2" d="M463.6,304.9"/>
	<path class="st3" d="M463.6,304.9"/>
	<path class="st2" d="M463.3,304.9"/>
	<path class="st2" d="M512,303.4c0,0.2,0,0.4,0,0.5s0,0.3-0.1,0.5c-0.1,1.1-0.4,2.2-0.9,3.2l0,0c-15.8-1.8-31.6-3.9-47.4-6.1
		l-2.2-0.3l-4-0.6l-3.4-0.5l0,0c-3.7-0.1-7.4-0.4-11.1-1c-2.3-0.3-4.6-0.8-6.8-1.4c-10-1.4-20.1-2.7-30.2-3.9l-1.3-0.2
		c0.2-1.1,0.4-1.7,0.4-1.7s2.2-8.5,4-18l0,0c0.4-2.1,0.8-4.2,1.1-6.2c0.3-1.7,0.5-3.3,0.7-4.9c0.1-0.9,0.2-1.7,0.3-2.6
		c0-0.4,0.1-0.8,0.1-1.3c0-0.4,0.1-0.9,0.1-1.3s0-0.8,0.1-1.2v-0.6c0-0.8,0-1.7,0-2.6c-0.3-4.5-1-9-2.1-13.4
		c-0.2-0.8-0.4-1.5-0.5-2.2c-0.1-0.2-0.1-0.5-0.2-0.7c-2-7.8-4.4-14.3-4.4-14.3v-0.1v-0.1c0-0.1,0-0.1,0-0.2c0-0.2,0-0.5,0-0.9
		c0-0.1,0-0.2,0-0.2c0-0.7,0.2-1.3,0.3-1.9c0.1-0.2,0.1-0.4,0.2-0.7c0.5-1.3,1.5-2.3,2.8-2.6l0,0c1.8-0.5,4.5,0,8.5,2.4
		c0.7,0.4,1.3,0.8,1.9,1.3c0.3,0.2,0.6,0.5,0.9,0.8c4.6,4.3,7.1,11.5,8.4,18c0.1,0.2,0.1,0.5,0.1,0.7c0.2,0.8,0.3,1.6,0.4,2.4
		c0.2,1.4,0.4,2.7,0.5,3.9c0,0.3,0.1,0.6,0.1,1c0,0.3,0.1,0.6,0.1,0.9c0.1,1,0.1,1.9,0.2,2.6c0.1,2,0.1,3.3,0.1,3.3v0.1
		c0,0,0,0.1,0,0.3c0,0,0,0,0,0.1s0,0.2,0,0.3c0,0.1,0,0.2,0,0.3c0,0.3-0.1,0.6-0.1,0.9c-0.1,0.5-0.1,1.2-0.2,1.9l0,0
		c-0.1,0.5-0.1,1.1-0.2,1.7c-0.1,1.3-0.3,2.7-0.5,4.2c0,0.3-0.1,0.6-0.1,0.9c-0.1,1.3-0.3,2.7-0.5,4.1l0,0c-0.2,1.6-0.4,3.1-0.5,4.7
		c0,0.3-0.1,0.7-0.1,1c-0.5,3.8-0.9,7.2-1.3,9.3c-0.1,0.3-0.1,0.6-0.1,1c0,0.1,0,0.2,0,0.3c0,0.3,0,0.6,0,0.9
		c0.3,5.4,6.1,6.3,6.1,6.3l26.3-0.5l3.9-0.1h2.3l20.5-0.4l0,0h1.9l10.2-0.2c0.7,0,1.4,0.1,2.1,0.2c3.1,0.8,6.2,2.2,8.9,3.9
		c0.9,0.6,1.6,1.2,2.3,2l0.1,0.1c1.4,1.7,2.2,3.7,2.5,5.9c0,0.1,0,0.3,0,0.4C512,302.7,512,303.1,512,303.4z"/>
	<path class="st3" d="M463.3,304.9"/>
	<path class="st3" d="M512,303.4c0,0.2,0,0.4,0,0.5s0,0.3-0.1,0.5c-0.1,1.1-0.5,2.2-0.9,3.2c-15.8-1.8-31.6-3.9-47.4-6.1l-2.2-0.3
		l-4-0.6l-3.4-0.5l0,0c-3.7-0.1-7.4-0.4-11.1-1c-2.3-0.3-4.6-0.8-6.8-1.4c-10-1.4-20.1-2.7-30.2-3.9l-1.3-0.2l0,0
		c0.2-1.1,0.5-1.8,0.5-1.8s1.8-6.9,3.4-15.3l0,0c0.1-0.6,0.2-1.2,0.3-1.7l0.2-0.9l0,0c0.4-2.1,0.8-4.2,1.1-6.2
		c0.3-1.7,0.5-3.3,0.7-4.9c0.1-0.9,0.2-1.7,0.3-2.6c0-0.4,0.1-0.8,0.1-1.3c0-0.4,0.1-0.9,0.1-1.3s0-0.8,0.1-1.2v-0.6
		c0-0.8,0-1.7,0-2.6c-0.3-4.5-1-9-2.1-13.4c-0.2-0.8-0.4-1.5-0.5-2.2c-0.1-0.2-0.1-0.5-0.2-0.7c-2-7.9-4.4-14.3-4.4-14.3l0,0v-0.1
		c0-0.1,0-0.1,0-0.2c0-0.2,0-0.5,0-0.9c0-0.1,0-0.2,0-0.2c0-0.7,0.1-1.3,0.3-1.9c0.1-0.2,0.1-0.4,0.2-0.7c0.5-1.4,1.6-2.4,3-2.7
		c1.8-0.4,4.4,0.1,8.4,2.4c0.7,0.4,1.3,0.9,2,1.4l0,0c0.3,0.2,0.6,0.5,0.9,0.8c4.6,4.3,7.1,11.5,8.4,18c0.1,0.2,0.1,0.5,0.1,0.7
		c0.2,0.8,0.3,1.6,0.4,2.4c0.2,1.4,0.4,2.7,0.5,3.9c0,0.3,0.1,0.7,0.1,1s0.1,0.6,0.1,0.9c0.1,1,0.1,1.9,0.2,2.6
		c0.1,2,0.1,3.3,0.1,3.3v0.2v0.1c0,0,0,0,0,0.1s0,0.2,0,0.3s0,0.2,0,0.3c0,0.3-0.1,0.6-0.1,0.9c-0.1,0.5-0.1,1.2-0.2,1.9l0,0
		c-0.1,0.5-0.1,1.1-0.2,1.7c-0.1,1.3-0.3,2.7-0.5,4.2c0,0.3-0.1,0.6-0.1,0.9c-0.1,1.3-0.3,2.7-0.5,4.1l0,0c-0.2,1.6-0.4,3.1-0.6,4.7
		c0,0.3-0.1,0.7-0.1,1c-0.5,3.8-0.9,7.1-1.3,9.2c-0.1,0.3-0.1,0.7-0.1,1c0,0.1,0,0.2,0,0.3c0,0.3,0,0.6,0,0.9
		c0.4,5.3,6.1,6.2,6.1,6.2l26.3-0.5l3.9-0.1h2.3l20.5-0.4h1.9l10.2-0.2c0.7,0,1.4,0.1,2.1,0.2c3.2,0.8,6.2,2.1,9,3.9
		c0.9,0.6,1.7,1.3,2.3,2l0.1,0.1c1.4,1.7,2.2,3.7,2.4,5.9c0,0.1,0,0.3,0,0.4C512,302.7,512,303.1,512,303.4z"/>
	<path class="st2" d="M463.3,304.9"/>
	<path class="st2" d="M512,307.7l-1-0.1l0,0c-15.8-1.8-31.6-3.9-47.4-6.1l-2.2-0.3l-4-0.6l-3.4-0.5l0,0c-3.7-0.1-7.4-0.4-11.1-1
		c-2.3-0.3-4.6-0.8-6.8-1.4c-10-1.4-20.1-2.7-30.2-3.9c0.2-0.9,0.4-1.8,0.6-2.6c0,0,6-23.5,6.3-35.9c0.1-4.5-0.8-10-2-15.2l0,0
		c-0.2-0.8-0.4-1.5-0.5-2.3l-0.2-0.7c-2.1-8.3-4.7-15.2-4.7-15.2c-0.1-0.9,0-1.7,0.1-2.6c0-0.2,0.1-0.5,0.2-0.7
		c0.2-1.1,0.8-2,1.6-2.7l0,0l0.1-0.1c1.7-1.3,4.6-1.3,9.9,1.7c1.1,0.6,2.1,1.4,2.9,2.3c0.3,0.2,0.5,0.5,0.7,0.7
		c4.2,4.6,6.5,11.6,7.7,17.9l0.1,0.7c0.1,0.8,0.3,1.6,0.4,2.3c0,0,0,0,0,0.1l0,0c0.1,1,0.3,1.9,0.4,2.8l0,0c0.3,2.7,0.4,5.3,0.5,8
		c0,0-0.2,2.5-0.6,6c-0.1,1.4-0.3,3-0.5,4.6c0,0.1,0,0.2,0,0.3l-0.1,0.9c-0.3,2.9-0.7,6-1,8.8c0,0.4-0.1,0.7-0.1,1
		c-0.4,3.2-0.8,6.1-1.1,7.9c-1.3,7.3,6,8.4,6,8.4l24.8-0.5l3.9-0.1l2.3-0.1h1h0.3l19.7-0.4h1.9l11.3-0.2c0.7,0,1.4,0.1,2.1,0.3
		c3.2,0.8,6.2,2.1,9,3.9c0.8,0.5,1.5,1.1,2.1,1.8l0.1,0.1C513.9,298.7,514.3,303.7,512,307.7z"/>
	<polygon class="st8" points="600.7,194.3 608.4,210.8 607.1,210.8 598.1,194.5 	"/>
	<polygon class="st3" points="600.7,194.3 608.4,210.8 607.1,210.8 598.1,194.5 	"/>
	<polygon class="st8" points="600.7,210.8 608.4,210.8 608.4,212.5 600.7,212.7 	"/>
	<polygon class="st3" points="600.7,210.8 608.4,210.8 608.4,212.5 600.7,212.7 	"/>
	<path class="st8" d="M541.1,133.8v57.4c0,2.4,1.9,4.3,4.3,4.3h95.7c2.3,0,4.2-1.9,4.2-4.2v-0.1l-1.1-57.5c0-2.3-1.9-4.2-4.2-4.2
		h-94.6C543,129.6,541.1,131.5,541.1,133.8z"/>
	<path class="st3" d="M541.1,133.8v57.4c0,2.4,1.9,4.3,4.3,4.3h95.7c2.3,0,4.2-1.9,4.2-4.2v-0.1l-1.1-57.5c0-2.3-1.9-4.2-4.2-4.2
		h-94.6C543,129.6,541.1,131.5,541.1,133.8z"/>
	<path class="st8" d="M537.6,133.8v57.4c0,2.4,1.9,4.3,4.3,4.3h95.7c2.3,0,4.2-1.9,4.2-4.2v-0.1l-1.1-57.5c0-2.3-1.9-4.2-4.2-4.2
		h-94.6C539.5,129.6,537.6,131.5,537.6,133.8L537.6,133.8z"/>
	<path class="st10" d="M541.4,137.4V188c0,2.4,1.9,4.3,4.3,4.3h88.6c2.3,0,4.2-1.9,4.2-4.2l0,0v-50.6c0-2.3-1.9-4.2-4.2-4.2h-88.6
		C543.3,133.2,541.4,135.1,541.4,137.4z"/>
	<polygon class="st8" points="579.7,194.6 588.1,210.8 607.1,210.8 597.6,192.2 	"/>
	<polygon class="st8" points="573,210.8 571.6,212.5 600.7,212.5 600.7,210.8 	"/>
	
		<linearGradient id="SVGID_3_" gradientUnits="userSpaceOnUse" x1="-1486.2675" y1="668.7891" x2="-1486.2675" y2="466.3456" gradientTransform="matrix(1 0 0 1 1979.37 -357.1891)">
		<stop  offset="0" style="stop-color:#808080;stop-opacity:0.25"/>
		<stop  offset="0.54" style="stop-color:#808080;stop-opacity:0.12"/>
		<stop  offset="1" style="stop-color:#808080;stop-opacity:0.1"/>
	</linearGradient>
	<path class="st21" d="M450.1,151.3c-2.1-5.9-2.1-12.4-4.6-18.1c-0.4-0.8-0.8-1.7-1.1-2.5c-0.2-0.5-0.3-1.1-0.3-1.6h-0.2h-0.2
		l-0.2,0.1l0,0l-0.1,0.1c0,0.2,0.1,0.4,0.1,0.6c0.3,0.9,0.7,1.7,1.1,2.5c2.6,5.7,2.6,12.3,4.7,18.2c0.1,0.3,0.2,0.5,0.4,0.7
		c0.1,0.1,0.2,0.2,0.3,0.2C450.1,151.3,450.1,151.3,450.1,151.3z M450.1,151.3c-2.1-5.9-2.1-12.4-4.6-18.1c-0.4-0.8-0.8-1.7-1.1-2.5
		c-0.2-0.5-0.3-1.1-0.3-1.6h-0.2h-0.2l-0.2,0.1l0,0l-0.1,0.1c0,0.2,0.1,0.4,0.1,0.6c0.3,0.9,0.7,1.7,1.1,2.5
		c2.6,5.7,2.6,12.3,4.7,18.2c0.1,0.3,0.2,0.5,0.4,0.7c0.1,0.1,0.2,0.2,0.3,0.2C450.1,151.3,450.1,151.3,450.1,151.3z M450.1,151.3
		c-2.1-5.9-2.1-12.4-4.6-18.1c-0.4-0.8-0.8-1.7-1.1-2.5c-0.2-0.5-0.3-1.1-0.3-1.6h-0.2h-0.2l-0.2,0.1l0,0l-0.1,0.1
		c0,0.2,0.1,0.4,0.1,0.6c0.3,0.9,0.7,1.7,1.1,2.5c2.6,5.7,2.6,12.3,4.7,18.2c0.1,0.3,0.2,0.5,0.4,0.7c0.1,0.1,0.2,0.2,0.3,0.2
		C450.1,151.3,450.1,151.3,450.1,151.3z M450.1,151.3c-2.1-5.9-2.1-12.4-4.6-18.1c-0.4-0.8-0.8-1.7-1.1-2.5
		c-0.2-0.5-0.3-1.1-0.3-1.6h-0.2h-0.2l-0.2,0.1l0,0l-0.1,0.1c0,0.2,0.1,0.4,0.1,0.6c0.3,0.9,0.7,1.7,1.1,2.5
		c2.6,5.7,2.6,12.3,4.7,18.2c0.1,0.3,0.2,0.5,0.4,0.7c0.1,0.1,0.2,0.2,0.3,0.2C450.1,151.3,450.1,151.3,450.1,151.3z M450.1,151.3
		c-2.1-5.9-2.1-12.4-4.6-18.1c-0.4-0.8-0.8-1.7-1.1-2.5c-0.2-0.5-0.3-1.1-0.3-1.6h-0.2h-0.2l-0.2,0.1l0,0l-0.1,0.1
		c0,0.2,0.1,0.4,0.1,0.6c0.3,0.9,0.7,1.7,1.1,2.5c2.6,5.7,2.6,12.3,4.7,18.2c0.1,0.3,0.2,0.5,0.4,0.7c0.1,0.1,0.2,0.2,0.3,0.2
		C450.1,151.3,450.1,151.3,450.1,151.3z M450.1,151.3c-2.1-5.9-2.1-12.4-4.6-18.1c-0.4-0.8-0.8-1.7-1.1-2.5
		c-0.2-0.5-0.3-1.1-0.3-1.6h-0.2h-0.2l-0.2,0.1l0,0l-0.1,0.1c0,0.2,0.1,0.4,0.1,0.6c0.3,0.9,0.7,1.7,1.1,2.5
		c2.6,5.7,2.6,12.3,4.7,18.2c0.1,0.3,0.2,0.5,0.4,0.7c0.1,0.1,0.2,0.2,0.3,0.2C450.1,151.3,450.1,151.3,450.1,151.3z M450.1,151.3
		c-2.1-5.9-2.1-12.4-4.6-18.1c-0.4-0.8-0.8-1.7-1.1-2.5c-0.2-0.5-0.3-1.1-0.3-1.6h-0.2h-0.2l-0.2,0.1l0,0l-0.1,0.1
		c0,0.2,0.1,0.4,0.1,0.6c0.3,0.9,0.7,1.7,1.1,2.5c2.6,5.7,2.6,12.3,4.7,18.2c0.1,0.3,0.2,0.5,0.4,0.7c0.1,0.1,0.2,0.2,0.3,0.2
		C450.1,151.3,450.1,151.3,450.1,151.3z M559.1,209.7L559.1,209.7l-0.5-0.1l0.6-0.1l0,0c0.1,0,0.1,0,0.2,0l0,0
		c0.7-0.2,1.4-0.3,2.1-0.5l0,0l0.7-0.2l0,0h0.1c5.8-1.7-1-3.3-9.6-4.5l0,0c-9.4-1.3-20.8-2.1-20.8-2.1l-3.6,0.5l0,0
		c-4.4,0.6-11.3,1.5-12.4,1.9c-1.3,0.4-12.7,1-16.7,1.2c-0.1-0.3-0.3-0.5-0.6-0.6l-11.7-0.5v1.6l0,0h-0.1c-0.1-2.2-0.6-4.3-1.6-6.3
		l-0.1-0.2c-3-5.7-3.6-7.2-3.6-7.2l0,0c0-0.1-0.1-0.2-0.1-0.3c-1-3.5-4.8-9.7-11.1-18.5l-0.2-0.3l-0.8-3.9l-0.1-0.7h-4
		c0.6-3.4,1.5-6.7,2.8-9.9c0.1-0.2,0.2-0.4,0.3-0.6l0.1-0.1c0.1-0.2,0.2-0.4,0.3-0.6c0.2,0,0.5,0,0.7,0l0,0
		c9.8-0.4,17.7-8,18.3-17.8c0,0,0,0,0-0.1c0-0.4,0-0.8,0-1.2c0-3.3-0.9-6.6-2.5-9.4c-0.1-0.1-0.1-0.2-0.2-0.3l-0.1-0.2l-0.2-0.4
		c1.4-0.3,3.1,0.3,4.4-0.5c0.5-0.3,0.8-0.8,1.1-1.3c0.3-0.6,0.5-1.2,0.6-1.9l0,0l0,0l0,0v-0.1l0,0c0.1-0.4,0.1-0.9,0.1-1.3
		c0-0.9-0.1-1.8-0.4-2.6c-0.7-1.9-2.2-3.3-4-4.1c-1-0.3-1.9-0.6-2.9-0.8c-4-1.1-7.4-3.7-11.3-5.2c-2.7-1-5.6-1.5-8.5-1.3
		c-1.7,0.1-3.5,0.5-5,1.3c-1.2,0.7-2.3,1.5-3.4,2.4c-2.8,2.2-6,4.1-8.4,6.7c-0.4,0.5-0.8,1-1.2,1.5c-0.2,0.3-0.4,0.6-0.6,0.9
		c-0.4-0.5-0.9-0.7-1.5-0.6l0,0c-0.1,0-0.2,0-0.3,0c-0.3,0-0.5,0-0.8,0.1c-0.6,0.1-5.3,1.3-5.3,2c-1.9,0.8-3.7,1.9-5.4,3.3
		c-3.8,3.4-4.6,8.9-5.1,13.9c-0.6,5.8-0.8,11.7-0.6,17.6c0.1,2.1,0.3,4.3,0.2,6.4c-0.2,2.5-0.5,5-1.1,7.5c-0.5,2.6-1.1,5.1-1.8,7.6
		c-0.3,1.3-0.8,2.7-2,3l0.5,0.1c-0.1,0.1-0.3,0.2-0.5,0.2c0.5,0.1,1.1,0.1,1.6,0.2h0.4c0.3,0,0.6,0,0.9-0.1c0.4-0.1,0.8-0.3,1.1-0.5
		c0.1-0.1,0.1-0.3,0.1-0.4c0.4-0.3,0.6-0.7,0.8-1.2c0,0.7,0,1.4-0.1,2.1c0,0.1,0,0.2-0.1,0.3c-0.3,1.5-1.1,2.9-2.2,4.1l0.6-0.5
		c-0.2,0.3-0.4,0.5-0.6,0.8c0.9-0.7,1.8-1.4,2.7-2.1l0,0c0.1,0,0.1-0.1,0.2-0.1l0,0l1.5-1.2c0,0.2,0,0.3,0,0.6s0,0.4,0,0.6l0,0
		c0,0.1,0,0.2,0,0.3c-0.1,4.3-0.3,15,0.7,17.5c0.1,0.2,0.1,0.3,0.2,0.4c1.1,2.9,1.6,4.1,1.5,5.6c-0.1,1,0.7,4,1.1,6.4
		c0.2,0.9,0.3,1.9,0.2,2.9c-0.1,0.6,0,1.2,0.1,1.7c0.1,0.3,0.1,0.6,0.2,0.9c0,0.1,0.1,0.2,0.1,0.3c0.6,2.3,1.4,5.1,0.5,6.2
		c-0.3,0.4-0.5,0.8-0.6,1.3c-0.7,1.9-0.8,4.5-1.6,5.5c-0.9,1.2-0.6,3.4-0.6,3.6l0,0c0,0,0,0.2-0.1,0.6c-0.1,0.5-0.3,1.3-0.5,2.2v0.1
		c-0.3,1.3-0.6,2.5-1.1,3.7l0,0c-0.3,0.9-0.6,1.5-1,1.6c-1.3,0.5-1.9,6.3-1.9,6.3s-2.9,4.7-2.3,5.8c0.1,0.3,0.3,0.5,0.4,0.8
		l-0.3,0.4c-1.5,2.5-3.8,6.9-1.6,9.4c0.8,0.8,1.6,1.4,2.6,2c-0.1,0.3-0.2,0.5-0.4,0.8c-2.4,5.6-6,18.5,8,23.9c1.4,0.5,2.8,1,4.3,1.4
		c2.2,0.6,4.5,1.1,6.8,1.4c3.3,0.5,6.7,0.8,10,0.9c1.5,0.1,3,0.1,4.4,0.1s2.7,0,4-0.1c0.8,0,1.5-0.1,2.2-0.1
		c4.3-0.2,8.6-0.7,12.9-1.4l20.1-3.6c0,0,8.4,0.3,11.5,2.1l0.1,0.1c0,0,0.5-0.3,1.4-0.9l0,0c0.4-0.3,0.8-0.6,1.3-0.9
		c3.2-2.3,8.5-6.9,12-13.3l0.1-0.1l0.7-0.1h0.2l0.5-0.1l1-0.1h0.1h0.1c2.5-0.4,4.9-0.8,4.9-0.8s0.1,2.8,0.2,6.1c0,1,0.1,2,0.1,3
		c0.1,3.4,0.2,6.6,0.2,6.7s2.6,6.9,5.5,13.8l2.3,0.2c6,0.5,11.9,0.9,17.9,1.2l2.2,0.1l1.4,0.1c-1-6.1-1.8-11.9-1.8-11.9l-3.7-17.4
		c0,0-0.4-3.6-3.2-19.6c-2.3-12.9-15.6-11.8-20.5-10.9c-0.5,0.1-0.9,0.2-1.3,0.3v-1c0,0-9.6,0.8-18.2,1.2l-2.1,0.1
		c-2,0.1-3.9,0.1-5.6,0.1c-1.5,0-2.9,0-4.4-0.2c-6.7-0.8-14.3,1.5-14.3,1.5s-9.7,1.6-11,1c-0.4-0.1-0.7-0.2-1.1-0.2
		c-0.2,0-0.4,0-0.6,0c0.5-0.2,0.7-0.6,0.6-1.1c-0.4-1.6-0.5-3.8,0.5-5.4c0.5-0.7,1.3-1.7,2-2.7l1.7-2.3v-0.2v-0.7l0.4-6.1l1-5.6
		l0.1-0.4l0.1-0.5l0.1-0.4l0.2,0.1l0,0c2.8,1,5.9,1.6,8.2,0.9l0,0c0.2-0.1,0.3-0.1,0.5-0.2h0.1v0.4v0.7l10.5-0.6h0.2
		c0,0,0.4-2,0.8-4.8c0-0.2,0.1-0.5,0.1-0.7s0.1-0.6,0.1-0.9c0-0.1,0-0.3,0.1-0.4h0.4h0.2c4.9-0.2,11.6-0.6,14.4-1.6l0,0
		c0.3-0.1,0.7-0.3,0.9-0.5c1.2-1,5.4-2.5,9.5-3.7l0,0l1.7-0.5c1.2-0.4,2.4-0.7,3.4-1c2.4-0.6,4.1-1.1,4.1-1.1s16.3,1.5,28.5-2l0,0
		l0.2-0.1C567.4,212,564.6,210.8,559.1,209.7z M443.4,128.2c0,0.2,0,0.4,0.1,0.6l0,0l0,0l0,0l0,0c0,0.1,0,0.2,0,0.2
		c0,0.1,0,0.2,0.1,0.2c0,0.2,0.1,0.4,0.1,0.6c0.3,0.9,0.7,1.7,1.1,2.5c2.6,5.7,2.6,12.3,4.7,18.2c0.1,0.3,0.2,0.5,0.4,0.7
		c0.1,0.1,0.2,0.2,0.3,0.2l0.2,0.1l0,0h0.2l-0.1,0.1c0,0,0,0.1-0.1,0.1v0.1c-0.8,1.4-1.7,2.8-2.6,4c-0.8,0.1-1.5,0.5-2.2,0.9
		l-0.4,0.2L445,157c-0.2-1.1-0.5-2.1-0.8-3.2c-1.5-5.7-2.3-11.5-2.4-17.4c0-0.1,0-0.3,0-0.4c0-0.3,0-0.5,0-0.8c0-1.5,0-3,0.1-4.5
		c0-0.7,0.2-1.4,0.5-2l0,0C442.7,128.4,443,128.2,443.4,128.2L443.4,128.2z M450.1,151.3c-2.1-5.9-2.1-12.4-4.6-18.1
		c-0.4-0.8-0.8-1.7-1.1-2.5c-0.2-0.5-0.3-1.1-0.3-1.6h-0.2h-0.2l-0.2,0.1l0,0l-0.1,0.1c0,0.2,0.1,0.4,0.1,0.6
		c0.3,0.9,0.7,1.7,1.1,2.5c2.6,5.7,2.6,12.3,4.7,18.2c0.1,0.3,0.2,0.5,0.4,0.7c0.1,0.1,0.2,0.2,0.3,0.2
		C450.1,151.3,450.1,151.3,450.1,151.3L450.1,151.3z M450.1,151.3c-2.1-5.9-2.1-12.4-4.6-18.1c-0.4-0.8-0.8-1.7-1.1-2.5
		c-0.2-0.5-0.3-1.1-0.3-1.6h-0.2h-0.2l-0.2,0.1l0,0l-0.1,0.1c0,0.2,0.1,0.4,0.1,0.6c0.3,0.9,0.7,1.7,1.1,2.5
		c2.6,5.7,2.6,12.3,4.7,18.2c0.1,0.3,0.2,0.5,0.4,0.7c0.1,0.1,0.2,0.2,0.3,0.2C450.1,151.3,450.1,151.3,450.1,151.3L450.1,151.3z
		 M450.1,151.3c-2.1-5.9-2.1-12.4-4.6-18.1c-0.4-0.8-0.8-1.7-1.1-2.5c-0.2-0.5-0.3-1.1-0.3-1.6h-0.2h-0.2l-0.2,0.1l0,0l-0.1,0.1
		c0,0.2,0.1,0.4,0.1,0.6c0.3,0.9,0.7,1.7,1.1,2.5c2.6,5.7,2.6,12.3,4.7,18.2c0.1,0.3,0.2,0.5,0.4,0.7c0.1,0.1,0.2,0.2,0.3,0.2
		C450.1,151.3,450.1,151.3,450.1,151.3L450.1,151.3z M450.1,151.3c-2.1-5.9-2.1-12.4-4.6-18.1c-0.4-0.8-0.8-1.7-1.1-2.5
		c-0.2-0.5-0.3-1.1-0.3-1.6h-0.2h-0.2l-0.2,0.1l0,0l-0.1,0.1c0,0.2,0.1,0.4,0.1,0.6c0.3,0.9,0.7,1.7,1.1,2.5
		c2.6,5.7,2.6,12.3,4.7,18.2c0.1,0.3,0.2,0.5,0.4,0.7c0.1,0.1,0.2,0.2,0.3,0.2C450.1,151.3,450.1,151.3,450.1,151.3L450.1,151.3z
		 M450.1,151.3c-2.1-5.9-2.1-12.4-4.6-18.1c-0.4-0.8-0.8-1.7-1.1-2.5c-0.2-0.5-0.3-1.1-0.3-1.6h-0.2h-0.2l-0.2,0.1l0,0l-0.1,0.1
		c0,0.2,0.1,0.4,0.1,0.6c0.3,0.9,0.7,1.7,1.1,2.5c2.6,5.7,2.6,12.3,4.7,18.2c0.1,0.3,0.2,0.5,0.4,0.7c0.1,0.1,0.2,0.2,0.3,0.2
		C450.1,151.3,450.1,151.3,450.1,151.3L450.1,151.3z M450.1,151.3c-2.1-5.9-2.1-12.4-4.6-18.1c-0.4-0.8-0.8-1.7-1.1-2.5
		c-0.2-0.5-0.3-1.1-0.3-1.6h-0.2h-0.2l-0.2,0.1l0,0l-0.1,0.1c0,0.2,0.1,0.4,0.1,0.6c0.3,0.9,0.7,1.7,1.1,2.5
		c2.6,5.7,2.6,12.3,4.7,18.2c0.1,0.3,0.2,0.5,0.4,0.7c0.1,0.1,0.2,0.2,0.3,0.2C450.1,151.3,450.1,151.3,450.1,151.3L450.1,151.3z"/>
	<path class="st22" d="M471.1,154.6c-1,1.1-1.8,2.4-2.4,3.7c-0.1,0.2-0.2,0.4-0.3,0.6c-2.8,6.3-3.7,15.2-3.7,15.2s-1.7-0.8-4.2-2
		c-4.5-2.2-11.5-6-14.4-9c-1.3-1.3-1.7-2.5-0.7-3.4c0.2-0.2,0.5-0.4,0.7-0.6c0.8-0.8,1.5-1.7,2.2-2.6c0.9-1.3,1.8-2.7,2.6-4.1
		c0.5-0.8,1-1.7,1.4-2.5l0.2-0.3c1.9-3.6,3.3-6.6,3.3-6.6s0.6,0.2,1.6,0.6C462.2,145.2,475.1,150.3,471.1,154.6z"/>
	<path class="st22" d="M557,299.9c0,0,0.8,5.7,1.7,11.7l-2.2-0.1c-6-0.3-11.9-0.7-17.9-1.2c-3.4-7.8-6.9-17.2-6.9-17.3
		c0-0.1-0.1-3.2-0.2-6.6c0-1.2-0.1-2.4-0.1-3.6l0,0c-0.1-1.8-0.1-3.4-0.2-4.4c0-0.7,0-1.1,0-1.1s-3.2,0.6-6.1,1l-1.3,0.2
		c-0.7,0.1-1.3,0.1-1.8,0.2s-0.9,0.1-1.4,0c-1-0.4,1.1-10,1.1-10l5.1-12.4l1.4-3.5l0.6-0.2c0.3-0.1,0.7-0.2,1.2-0.3
		c4.9-0.9,17.9-2,20.2,10.8c2.7,15.9,3.1,19.5,3.1,19.5L557,299.9z"/>
	<path class="st22" d="M561.9,325.4h-1.5l0,0H561.9L561.9,325.4z"/>
	<path class="st23" d="M557,299.9c0,0,0.8,5.7,1.7,11.7l-2.2-0.1c-6-0.3-11.9-0.7-17.9-1.2c-3.4-7.8-6.9-17.2-6.9-17.3
		c0-0.1-0.1-3.2-0.2-6.6c0-1.2-0.1-2.4-0.1-3.6l0,0c-0.1-1.8-0.1-3.4-0.2-4.4c0-0.7,0-1.1,0-1.1s-3.2,0.6-6.1,1l-1.3,0.2
		c-0.7,0.1-1.3,0.1-1.8,0.2s-0.9,0.1-1.4,0c-1-0.4,1.1-10,1.1-10l5.1-12.4l1.4-3.5l0.6-0.2c0.3-0.1,0.7-0.2,1.2-0.3
		c4.9-0.9,17.9-2,20.2,10.8c2.7,15.9,3.1,19.5,3.1,19.5L557,299.9z"/>
	<path class="st23" d="M561.9,325.4h-1.5l0,0H561.9L561.9,325.4z"/>
	<path class="st22" d="M556.5,311.5c-6-0.3-11.9-0.7-17.9-1.2l-2.3-0.2l-1-0.1c-2.8-6.8-5.3-13.4-5.3-13.5s-0.1-3.2-0.2-6.6
		c-0.1-4.3-0.3-9-0.3-9l-0.4,0.1h-0.2h-0.1h-0.2l-1,0.2l-0.6,0.1c-1,0.2-2.2,0.3-3.4,0.5h-0.3l-0.7,0.1L522,282l0,0
		c-0.5,0.1-0.9,0.1-1.4,0.2h-0.5c-0.5,0.1-0.9,0.1-1.4,0c-1-0.4,1.1-10,1.1-10l6.5-15.8l0.2-0.1c0.3-0.1,1.1-0.3,2.1-0.4
		c0.4-0.1,0.8-0.1,1.2-0.2c5.7-0.7,16.5-0.5,18.5,11.1c2.7,15.9,3.1,19.5,3.1,19.5l3.7,17.3C555.3,303.4,555.8,307,556.5,311.5z"/>
	<path class="st3" d="M529.8,289.9c-0.1-4.3-0.3-9.1-0.3-9.1s-6.3,1.1-9.2,1.3l0.6-2c0,0,10.7-3,11-1.3
		C532,280,530.6,286.3,529.8,289.9z"/>
	<path class="st3" d="M530,252.3v4.5c0,0-0.5,8.2-4.7,20.6c-0.1,0.3-0.2,0.5-0.3,0.8c-0.4,1.2-1,2.4-1.6,3.5
		c-1.2,0.2-2.3,0.3-3.2,0.4c-0.5,0.1-0.9,0.1-1.4,0c-1-0.4,1.1-10,1.1-10l6.5-15.8l0.2-0.1l1.4-3.5
		C528.2,252.7,528.9,252.5,530,252.3z"/>
	<path class="st15" d="M528.8,251.6v5.3c0,0-0.5,8.2-4.7,20.6c-0.1,0.3-0.2,0.6-0.3,1c-0.1,0.3-0.3,0.7-0.4,1.1
		c-0.3,0.8-0.7,1.6-1.1,2.4l0,0c-3.3,6.2-8.3,10.7-11.5,13.1c-0.5,0.4-0.9,0.7-1.3,0.9l0,0c-0.6,0.4-1.1,0.7-1.4,0.9
		c-0.3,0.2-0.3,0.2-0.3,0.2c-3-1.8-11.4-2.1-11.4-2.1l-19.7,3.6c-4.3,0.7-8.7,1.2-13,1.5l-2.2,0.1c-1.3,0.1-2.6,0.1-4,0.1
		c-1.1,0-2.2,0-3.4,0l0,0c-3.7-0.1-7.4-0.4-11.1-1c-2-0.3-4-0.8-6-1.3c-1.4-0.4-2.8-0.8-4.1-1.4c-13.8-5.4-10.2-18.3-7.9-23.8
		c0.1-0.3,0.2-0.6,0.4-0.8c0.5-1.1,0.9-1.8,0.9-1.8l0.9-2.2l0,0l1.5-3.6l0.3-0.8l0.1-0.2l1.1-2.7l15.7-2l11.5-1.5l3.5-0.5l2.4-0.3
		l4.5-0.6l1.7-0.2c1.1-0.2,2.1-0.2,3.2-0.3c0.6,0,1.2,0.1,1.7,0.3c1.3,0.6,10.8-1,10.8-1s7.5-2.3,14-1.5c3.2,0.2,6.5,0.2,9.7,0.1
		l0,0h0.8h1h0.2C519.4,252.4,528.8,251.6,528.8,251.6z"/>
	<path class="st3" d="M472.4,267.3c0,0-7.5,17.1-7.8,17.4s-0.3,5.6,0,5.3c0.3-0.3,10.7-23.5,10.7-23.5L472.4,267.3z"/>
	<path class="st3" d="M508.9,252.8c0,0-3.8,2.5-5,4.4c-1.1,2-11.6,21.7-14.2,24.6c-2.1,2.6-4.1,5.3-5.8,8.2
		c-0.3,0.5-0.3,3.8,1.5,0.7c1.8-3.1,1.4-3.7,5-7.5c3.6-3.9,7.5-12.6,9.1-14.4c1.5-1.8,3.7-7,6.3-10.1l5.1-6L508.9,252.8z"/>
	<path class="st3" d="M509.8,286.7c0,0-2.7-1.8-5.2,1.3C502.1,291.1,509.8,286.7,509.8,286.7z"/>
	<path class="st3" d="M513,287.6c0,0-2.2,3.9-3.3,4.2C508.7,292.1,513,287.6,513,287.6z"/>
	<path class="st3" d="M509.8,288.6c0,0-1.8,3-3.3,2.7L509.8,288.6z"/>
	<path class="st22" d="M497.4,206.3c0,0,16.1-0.7,17.7-1.2c1.6-0.5,15.8-2.4,15.8-2.4s42,3,30,6.6s-28.2,2.1-28.2,2.1
		s-15.8,4.1-18.3,6.3c-2.4,2.2-20.4,2.2-20.4,2.2L497.4,206.3z"/>
	<path class="st23" d="M497.4,206.3c0,0,16.1-0.7,17.7-1.2c1.6-0.5,15.8-2.4,15.8-2.4s42,3,30,6.6s-28.2,2.1-28.2,2.1
		s-15.8,4.1-18.3,6.3c-2.4,2.2-20.4,2.2-20.4,2.2L497.4,206.3z"/>
	<path class="st14" d="M440,169.5c0,0-14.8,5-7.6,17.8s16.4,18.8,16.4,18.8l23.8,16.5c0,0,10,5.7,14.5,3.4l7.5-0.6l1.3-19.6
		c0,0-6.3,4.9-13.1-1.9c-6.8-6.8-15.2-11.3-15.9-15S448.6,166.4,440,169.5z"/>
	<path class="st16" d="M486.7,210.9c0,0,7.7,2.7,7.4,2.9s-7.4,2.8-7.4,2.8l0.5,10.4l10.4-0.6c0,0,3.8-19,0.5-20.9l-11.5-0.5
		L486.7,210.9z"/>
	<path class="st3" d="M486.7,210.9c0,0,7.7,2.7,7.4,2.9s-7.4,2.8-7.4,2.8l0.5,10.4l10.4-0.6c0,0,3.8-19,0.5-20.9l-11.5-0.5
		L486.7,210.9z"/>
	<path class="st3" d="M471.1,154.6c-1,1.1-1.8,2.4-2.4,3.7c-0.1,0.2-0.2,0.4-0.3,0.6c-5.6,0-9.6-4.4-13.1-8.3
		c-0.6-0.7-2.2,0.4-2.7-0.4c-0.1-0.1-0.1-0.2-0.2-0.3l0.2-0.3c1.9-3.6,3.3-6.6,3.3-6.6s0.6,0.2,1.6,0.6
		C462.2,145.2,475.1,150.3,471.1,154.6z"/>
	<path class="st22" d="M487.4,139.4c0,10.4-8.4,18.8-18.7,18.9h-0.2c-5.4,0-10.6-2.3-14.2-6.4c-0.6-0.7-1.2-1.5-1.7-2.3
		c-5.6-8.8-3.1-20.5,5.7-26.1c8.8-5.6,20.5-3.1,26.1,5.7C486.4,132.2,487.4,135.8,487.4,139.4z"/>
	<path class="st3" d="M468.2,256.5c0,0-1.4,1.8-3,3.4c-1.2,1.3-2.5,2.4-3.3,2.7c-1.9,0.7-10.5,7.2-10.5,7.2s-6.9,4.6-8.6,6
		s-8.1,0.5-8.1,0.5s-6.1-1.3-9.9-3.8c0.4-0.9,0.8-1.8,1.3-2.6l4-9.6l15.7-2L468.2,256.5z"/>
	<path class="st16" d="M467.9,255.3c0,0-1.4,1.8-3,3.4c-1.2,1.3-2.5,2.4-3.3,2.7c-1.9,0.7-10.5,7.2-10.5,7.2s-6.9,4.6-8.6,6
		c-1.8,1.4-8.1,0.5-8.1,0.5s-8.7-1.9-11.7-5.3c-2.1-2.4,0.1-6.9,1.6-9.3c0.6-1,1.2-1.7,1.2-1.7L467.9,255.3z"/>
	<path class="st16" d="M479.2,196.3C474,195.8,457,175,457,175l0.4-0.5l3.6-5h8.4l0.9,4.6c6.4,8.9,10.1,15.1,11.1,18.7
		C482,195.3,481.3,196.5,479.2,196.3z"/>
	<path class="st3" d="M479.2,196.3C474,195.8,457,175,457,175l0.4-0.5c3.1,2.8,5.9,5.8,8.6,9c12.5,14.7,15,10.6,15.4,9.3
		C482,195.3,481.3,196.5,479.2,196.3z"/>
	<path class="st3" d="M467.9,255.3c0,0-1.4,1.8-3,3.4c-0.8,0.3-1.7,0.5-2.6,0.6c-2-0.1-6.6,3-6.6,3s-8.1-0.5-9.6,0.4s-7.4,1-7.4,1
		c-10.7,3.1-13.7-1.6-14.5-3.1c0.6-1,1.2-1.7,1.2-1.7L467.9,255.3z"/>
	<path class="st14" d="M486.5,210c0,0.3-0.1,0.6-0.1,0.9s-0.1,0.6-0.1,0.8c-0.2,1.5-0.7,3.1-1.4,4.4c-1.4,2.3-5.6,11.2-5.6,11.2
		l-0.3,1.6l-0.1,0.9l-0.2,0.8l-1,6l-0.5,6.9c0,0-2.5,3.5-3.6,5s-0.9,3.7-0.5,5.3s-3.5,1.8-3.5,1.8s-5.5,2.7-7.5,2.6s-6.6,3-6.6,3
		s-8.1-0.5-9.6,0.4c-1.5,0.8-7.4,1-7.4,1c-11.5,3.3-14.1-2.3-14.6-3.4s2.3-5.8,2.3-5.8s0.6-5.9,1.8-6.3c1.2-0.5,2.7-8.2,2.7-8.2
		s-0.5-2.4,0.5-3.7c1-1.3,0.9-5,2.2-6.7c1.3-1.8-1.4-7.6-0.9-9.1s-1.4-7.7-1.3-9.3s-0.4-2.9-1.6-6.1c-1-2.7-0.7-14.9-0.6-18.3
		c0-0.6,0-0.9,0-0.9s1.1-3.4,3.9-10.3c2.1-5.2,6.9-7.2,9.1-7.8c0.4-0.1,0.8-0.2,1.1-0.3c0.6,0.1,1.1,0.2,1.6,0.4
		c2.2,0.7,6.7,2.9,13,8.8c2.8,2.6,5.4,5.4,7.9,8.4c14.3,16.8,15.5,9,15.5,9s0.6,1.4,3.6,7.1C486.5,203.2,486.8,206.8,486.5,210z"/>
	<path class="st3" d="M463,168.6l-14.3-11.4c0,0-5.2,0.6-7.3,9.3l14.8,12.9L463,168.6z"/>
	<path class="st16" d="M463,168.6l-2.5,3.5l-2.5,3.6l-1.9,2.8l-11.8-9.9l-2-1.8l-1.1-1c1.1-4.7,3.2-7,4.8-8.2
		c0.7-0.6,1.6-0.9,2.5-1.1L463,168.6z"/>
	<path class="st22" d="M561.6,213.8c-12,3.6-28.2,2.1-28.2,2.1s-15.8,4.1-18.3,6.3c-1.6,1.4-9.6,1.9-15.1,2.1
		c-3,0.1-5.3,0.1-5.3,0.1l3.3-13.5l1.9-0.1c4.3-0.2,14.6-0.7,15.8-1.1c1.6-0.5,15.8-2.4,15.8-2.4S573.5,210.2,561.6,213.8z"/>
	<path class="st3" d="M486.3,211.6c-0.2,1.5-0.7,3.1-1.4,4.4c-1.4,2.3-5.6,11.2-5.6,11.2l-0.6,3.4c-1.9-0.7-3.8-1.6-5.6-2.6
		l-23.7-16.4c0,0-9.2-6-16.4-18.8s7.6-17.8,7.6-17.8c8.6-3.1,26,15.7,26.7,19.3c0.7,3.7,9.1,8.2,15.9,15
		C484.2,210.2,485.2,211,486.3,211.6z"/>
	<path class="st3" d="M486.5,210c-0.1,0.6-0.1,1.2-0.2,1.7c-0.2,1.5-0.7,3.1-1.4,4.4c-1.4,2.3-5.6,11.2-5.6,11.2l-0.3,1.6
		c-2.1-0.7-4-1.6-6-2.7l-23.6-16.4c0,0-9.2-6-16.4-18.8s7.6-17.8,7.6-17.8c8.6-3.1,26,15.7,26.7,19.3c0.7,3.7,9.1,8.2,15.9,15
		C484.2,208.5,485.3,209.3,486.5,210z"/>
	<path class="st14" d="M496.4,210.3l-1.2,19.6l-7.5,0.6c-0.2,0.1-0.3,0.2-0.5,0.2c-4.8,1.7-14-3.6-14-3.6l-23.8-16.4
		c0,0-9.2-6-16.4-18.8s7.6-17.8,7.6-17.8c8.6-3.1,26,15.7,26.7,19.3c0.7,3.7,9.1,8.2,15.9,15c1,1,2.2,1.9,3.4,2.5
		C489.8,212.5,493.5,212.3,496.4,210.3z"/>
	<path class="st3" d="M496.4,210.3l-1.2,19.6l-7.5,0.6c-0.2,0.1-0.3,0.2-0.5,0.2l-0.5-9.5c0,0,7.1-2.7,7.4-2.8
		c0.3-0.2-7.4-2.9-7.4-2.9V211C489.8,212.6,493.5,212.3,496.4,210.3z"/>
	<path class="st3" d="M500,224.2c-3,0.1-5.3,0.1-5.3,0.1l3.4-13.5l1.9-0.1C501.2,212.9,500.7,219.2,500,224.2z"/>
	<path class="st16" d="M487.3,215.5c0,0,7.7,2.7,7.4,2.9s-7.4,2.8-7.4,2.8l0.5,10.4l10.4-0.6c0,0,3.8-19,0.5-20.9l-11.5-0.5
		L487.3,215.5z"/>
	<path class="st3" d="M441.7,228c0,0-2.6,2.4-4.7,3.1L441.7,228z"/>
	<path class="st3" d="M435.5,235.2c0,0,6.3-0.2,7.1-1.5C443.4,232.4,435.5,235.2,435.5,235.2z"/>
	<path class="st3" d="M432.4,244.3c0.4,0,8-1.1,8.3-2.1L432.4,244.3z"/>
	<path class="st3" d="M430,250.1c2.7-0.1,7.4-3,7.4-3L430,250.1z"/>
	<path class="st3" d="M447.8,251.6c0,0,16.5,0,17.3-3S447.8,251.6,447.8,251.6z"/>
	<path class="st3" d="M460.2,209c0.3,0,13,0,14.2-1.8C475.7,205.5,460.2,209,460.2,209z"/>
	<path class="st3" d="M446.2,159.1c0.1,0.6,0.2,1.3,0.2,1.9c0,0.7-0.1,1.4-0.2,2.1c-0.3,1.3-0.6,2.6-1.2,3.8l-0.1,0.3
		c-0.2,0.4-0.4,0.9-0.6,1.3c-0.9,1.9-2,3.7-3.3,5.4c-2.9,3.8-6.2,7.2-9.9,10.3c-0.6,0.5-1.3,1.1-1.9,1.6c0-0.6,0-0.9,0-0.9
		s1.1-3.4,3.9-10.3c2.1-5.2,6.9-7.2,9.1-7.8l-1.1-1c1.1-4.7,3.2-7,4.8-8.2C446,158.1,446.1,158.6,446.2,159.1z"/>
	<path class="st3" d="M484.6,129.6c-0.2,0-0.4,0.1-0.6,0.2c-1.2,0.7-1.5,2.2-2.5,3.2c-1.1,1.2-2.9,1.3-4.5,1.5s-3.4,0.6-4.2,2
		c-0.6,1-0.6,2.3-0.8,3.5c0,0.2-0.1,0.4-0.2,0.6c-0.2,0.2-0.5,0.3-0.8,0.3c-3.1,0.2-5.4-0.9-8.4-1.6c-1.4-0.4-3-0.3-4,0.6
		s-1.2,2.3-1.2,3.6v0.1c0.1,1.2,0.2,2.5,0.1,3.8c-0.3,2-1.5,3.7-3.3,4.6c-0.7,0.4-1.5,0.6-2.4,0.7c-0.3,0-0.6,0-0.9-0.1
		c0.6-1,1.1-1.9,1.6-2.8c-5.7-8.8-3.2-20.5,5.6-26.1c8.8-5.7,20.5-3.2,26.1,5.6C484.4,129.3,484.5,129.4,484.6,129.6L484.6,129.6z"
		/>
	<path class="st15" d="M489.8,127.2c-0.2,0.5-0.6,1-1,1.3c-1.4,0.9-3.5-0.1-5,0.7c-1.2,0.7-1.5,2.2-2.5,3.2
		c-1.1,1.2-2.9,1.3-4.5,1.5s-3.4,0.6-4.2,2c-0.6,1-0.6,2.3-0.8,3.5c0,0.2-0.1,0.4-0.2,0.6c-0.2,0.2-0.5,0.3-0.8,0.3
		c-3.1,0.2-5.4-0.9-8.4-1.6c-1.4-0.4-3-0.3-4,0.6s-1.2,2.3-1.2,3.6c0.1,1.3,0.2,2.6,0.1,3.9c-0.4,2.8-2.8,5-5.6,5.3
		c-0.4,0.1-0.8,0-1.2-0.3c-0.2-0.2-0.3-0.4-0.4-0.7c-2.1-5.9-2.1-12.4-4.6-18.1c-0.4-0.8-0.8-1.7-1.1-2.5c-0.1-0.2-0.1-0.4-0.1-0.5
		c-0.1-0.4-0.1-0.7-0.2-1.1c-0.3,0-0.5,0.1-0.7,0.3c-0.1,0.1-0.1,0.1-0.2,0.2c-0.4,0.6-0.5,1.3-0.5,2c-0.5,7.8,0.3,15.7,2.3,23.3
		c0.6,1.9,1,3.9,1.1,5.9c-0.1,2.1-0.6,4.3-1.5,6.2c-3.9,9.1-11.8,15.7-19.7,21.7c1.6-1.7,2.5-4.1,2.3-6.5c-0.3,0.9-1,1.6-2,1.8
		c-0.9,0.2-1.9,0.1-2.8,0c1.2-0.4,1.7-1.8,2-3c0.6-2.5,1.2-5,1.7-7.6c0.6-2.4,0.9-4.9,1.1-7.4c0.1-2.1-0.1-4.2-0.2-6.4
		c-0.2-5.8,0-11.7,0.6-17.5c0.5-5,1.3-10.4,5-13.9c1.6-1.3,3.4-2.5,5.3-3.3c0-0.6,4.6-1.9,5.2-2c0.3,0,0.5-0.1,0.8-0.1
		c0.7-0.1,1.3,0.2,1.6,0.9c0.2-0.4,0.5-0.8,0.7-1.2c0.4-0.5,0.8-1,1.2-1.5c2.4-2.6,5.5-4.5,8.3-6.7c1-0.9,2.1-1.7,3.3-2.4
		c1.5-0.8,3.2-1.2,4.9-1.3c2.8-0.2,5.7,0.3,8.3,1.3c3.8,1.5,7.1,4.1,11.1,5.2c1,0.2,1.9,0.5,2.9,0.8c3.6,1.4,5.3,5.5,3.9,9.1
		C490,126.8,489.9,127,489.8,127.2L489.8,127.2z"/>
	<g class="st17">
		<path d="M426.3,183.4c0.5-1.2,0.7-2.4,0.6-3.7c-0.3,0.9-1,1.6-2,1.8c-0.2,0.1-0.5,0.1-0.7,0.1c-0.3,1-0.8,2-1.8,2.3
			c0.9,0.2,1.9,0.2,2.8,0.1C425.6,183.8,425.9,183.6,426.3,183.4z"/>
		<path d="M490.3,122.2c0,1-0.3,2-0.8,2.8c-0.2,0.5-0.6,0.9-1.1,1.3c-1.4,0.9-3.5-0.1-5,0.7c-1.2,0.7-1.5,2.2-2.5,3.2
			c-1.1,1.2-2.9,1.3-4.5,1.5s-3.4,0.6-4.2,2c-0.6,1-0.6,2.3-0.8,3.5c0,0.5-0.4,0.9-0.9,0.8h-0.1c-3.1,0.2-5.4-0.9-8.4-1.6
			c-1.4-0.4-3-0.3-4,0.6s-1.2,2.3-1.2,3.6c0.1,1.3,0.2,2.6,0.1,3.9c-0.4,2.9-2.8,5-5.6,5.3c-0.4,0.1-0.8,0-1.2-0.3
			c-0.2-0.2-0.3-0.4-0.4-0.7c-2.1-5.9-2.1-12.4-4.6-18.1c-0.4-0.8-0.8-1.7-1.1-2.5c-0.2-0.5-0.3-1.1-0.3-1.6c-0.4,0-0.7,0.2-0.9,0.5
			c-0.4,0.6-0.5,1.3-0.5,2c-0.3,5-0.1,10.1,0.6,15.1c-0.5-4.2-0.6-8.4-0.3-12.6c0-0.7,0.2-1.4,0.5-2c0.2-0.3,0.6-0.5,0.9-0.5
			c0,0.6,0.1,1.1,0.3,1.6c0.3,0.9,0.7,1.7,1.1,2.5c2.5,5.7,2.5,12.2,4.6,18.1c0.1,0.3,0.2,0.5,0.4,0.7c0.3,0.3,0.7,0.4,1.2,0.3
			c2.9-0.3,5.2-2.4,5.6-5.3c0.1-1.3,0-2.6-0.1-3.9c0-1.3,0.2-2.7,1.2-3.6c1.1-1,2.7-1,4-0.6c2.9,0.8,5.2,1.8,8.4,1.6
			c0.3,0,0.5-0.1,0.8-0.3c0.1-0.2,0.2-0.4,0.2-0.6c0.2-1.2,0.2-2.5,0.8-3.5c0.9-1.4,2.6-1.8,4.2-2s3.4-0.4,4.5-1.5
			c0.9-1,1.3-2.5,2.5-3.2c1.5-0.8,3.5,0.2,5-0.7c0.5-0.3,0.8-0.8,1-1.3C490.6,125.8,490.8,123.9,490.3,122.2z"/>
		<path d="M445.7,158.3c-0.1,2.1-0.6,4.3-1.5,6.2c-3.5,8.1-10.2,14.3-17.2,19.8c-0.3,1.6-1.1,3.2-2.2,4.4c7.9-6,15.8-12.6,19.7-21.7
			c0.9-1.9,1.4-4.1,1.5-6.2c0-0.9-0.1-1.8-0.3-2.7C445.7,158.1,445.7,158.2,445.7,158.3z"/>
	</g>
	<path class="st3" d="M446.5,122.1c-0.6,2.6-1.3,6-1.9,7.7c-0.1-0.4-0.1-0.7-0.2-1.1c-0.3,0-0.5,0.1-0.7,0.3c0-1.8,0.2-4.5,0.4-6.6
		c0.7-0.1,1.3,0.2,1.6,0.9C446,122.9,446.3,122.5,446.5,122.1z"/>
	<path class="st16" d="M446.2,122.1c-0.6,2.6-1.3,6-1.9,7.7c-0.1-0.4-0.1-0.7-0.2-1.1c-0.3,0-0.5,0.1-0.7,0.3c0-1.8,0.2-4.5,0.4-6.6
		c0.7-0.1,1.3,0.2,1.6,0.9C445.7,122.9,446,122.5,446.2,122.1z"/>
</g>
</svg>
