<svg xmlns="http://www.w3.org/2000/svg" xmlns:xlink="http://www.w3.org/1999/xlink" viewBox="0 0 429.22 326.81"><defs><style>.cls-1,.cls-10{fill:none;}.cls-2{fill:#231f20;}.cls-3,.cls-5,.cls-6,.cls-7,.cls-8,.cls-9{opacity:0.19;}.cls-3{fill:url(#_30_10_ppp);}.cls-4{fill:#556270;}.cls-5{fill:url(#_30_10_ppp-3);}.cls-6{fill:url(#_30_10_ppp-5);}.cls-7{fill:url(#_30_10_ppp-7);}.cls-8{fill:url(#_30_10_ppp-9);}.cls-9{fill:url(#_30_10_ppp-11);}.cls-10{stroke:#f70;stroke-miterlimit:10;stroke-width:1.17px;}.cls-11{fill:#fff;}</style><pattern id="_30_10_ppp" data-name="30 % 10 ppp" width="28.8" height="28.8" patternTransform="translate(-4.93 -28.24) rotate(11.73) scale(0.47)" patternUnits="userSpaceOnUse" viewBox="0 0 28.8 28.8"><rect class="cls-1" width="28.8" height="28.8"/><circle class="cls-2" cx="28.8" cy="28.8" r="2.16"/><circle class="cls-2" cx="14.4" cy="28.8" r="2.16"/><circle class="cls-2" cx="28.8" cy="14.4" r="2.16"/><circle class="cls-2" cx="14.4" cy="14.4" r="2.16"/><circle class="cls-2" cx="7.2" cy="21.6" r="2.16"/><circle class="cls-2" cx="21.6" cy="21.6" r="2.16"/><circle class="cls-2" cx="7.2" cy="7.2" r="2.16"/><circle class="cls-2" cx="21.6" cy="7.2" r="2.16"/><circle class="cls-2" cy="28.8" r="2.16"/><circle class="cls-2" cy="14.4" r="2.16"/><circle class="cls-2" cx="28.8" r="2.16"/><circle class="cls-2" cx="14.4" r="2.16"/><circle class="cls-2" r="2.16"/></pattern><pattern id="_30_10_ppp-3" data-name="30 % 10 ppp" width="28.8" height="28.8" patternTransform="translate(-3.96 -27.06) rotate(11.73) scale(0.47)" patternUnits="userSpaceOnUse" viewBox="0 0 28.8 28.8"><rect class="cls-1" width="28.8" height="28.8"/><circle class="cls-2" cx="28.8" cy="28.8" r="2.16"/><circle class="cls-2" cx="14.4" cy="28.8" r="2.16"/><circle class="cls-2" cx="28.8" cy="14.4" r="2.16"/><circle class="cls-2" cx="14.4" cy="14.4" r="2.16"/><circle class="cls-2" cx="7.2" cy="21.6" r="2.16"/><circle class="cls-2" cx="21.6" cy="21.6" r="2.16"/><circle class="cls-2" cx="7.2" cy="7.2" r="2.16"/><circle class="cls-2" cx="21.6" cy="7.2" r="2.16"/><circle class="cls-2" cy="28.8" r="2.16"/><circle class="cls-2" cy="14.4" r="2.16"/><circle class="cls-2" cx="28.8" r="2.16"/><circle class="cls-2" cx="14.4" r="2.16"/><circle class="cls-2" r="2.16"/></pattern><pattern id="_30_10_ppp-5" data-name="30 % 10 ppp" width="28.8" height="28.8" patternTransform="matrix(0.4, 0.24, -0.24, 0.4, 33.18, 0.15)" patternUnits="userSpaceOnUse" viewBox="0 0 28.8 28.8"><rect class="cls-1" width="28.8" height="28.8"/><circle class="cls-2" cx="28.8" cy="28.8" r="2.16"/><circle class="cls-2" cx="14.4" cy="28.8" r="2.16"/><circle class="cls-2" cx="28.8" cy="14.4" r="2.16"/><circle class="cls-2" cx="14.4" cy="14.4" r="2.16"/><circle class="cls-2" cx="7.2" cy="21.6" r="2.16"/><circle class="cls-2" cx="21.6" cy="21.6" r="2.16"/><circle class="cls-2" cx="7.2" cy="7.2" r="2.16"/><circle class="cls-2" cx="21.6" cy="7.2" r="2.16"/><circle class="cls-2" cy="28.8" r="2.16"/><circle class="cls-2" cy="14.4" r="2.16"/><circle class="cls-2" cx="28.8" r="2.16"/><circle class="cls-2" cx="14.4" r="2.16"/><circle class="cls-2" r="2.16"/></pattern><pattern id="_30_10_ppp-7" data-name="30 % 10 ppp" width="28.8" height="28.8" patternTransform="matrix(-0.38, 0.28, 0.28, 0.38, -55.52, -31.45)" patternUnits="userSpaceOnUse" viewBox="0 0 28.8 28.8"><rect class="cls-1" width="28.8" height="28.8"/><circle class="cls-2" cx="28.8" cy="28.8" r="2.16"/><circle class="cls-2" cx="14.4" cy="28.8" r="2.16"/><circle class="cls-2" cx="28.8" cy="14.4" r="2.16"/><circle class="cls-2" cx="14.4" cy="14.4" r="2.16"/><circle class="cls-2" cx="7.2" cy="21.6" r="2.16"/><circle class="cls-2" cx="21.6" cy="21.6" r="2.16"/><circle class="cls-2" cx="7.2" cy="7.2" r="2.16"/><circle class="cls-2" cx="21.6" cy="7.2" r="2.16"/><circle class="cls-2" cy="28.8" r="2.16"/><circle class="cls-2" cy="14.4" r="2.16"/><circle class="cls-2" cx="28.8" r="2.16"/><circle class="cls-2" cx="14.4" r="2.16"/><circle class="cls-2" r="2.16"/></pattern><pattern id="_30_10_ppp-9" data-name="30 % 10 ppp" width="28.8" height="28.8" patternTransform="translate(-4.44 -12) rotate(18.86) scale(0.47)" patternUnits="userSpaceOnUse" viewBox="0 0 28.8 28.8"><rect class="cls-1" width="28.8" height="28.8"/><circle class="cls-2" cx="28.8" cy="28.8" r="2.16"/><circle class="cls-2" cx="14.4" cy="28.8" r="2.16"/><circle class="cls-2" cx="28.8" cy="14.4" r="2.16"/><circle class="cls-2" cx="14.4" cy="14.4" r="2.16"/><circle class="cls-2" cx="7.2" cy="21.6" r="2.16"/><circle class="cls-2" cx="21.6" cy="21.6" r="2.16"/><circle class="cls-2" cx="7.2" cy="7.2" r="2.16"/><circle class="cls-2" cx="21.6" cy="7.2" r="2.16"/><circle class="cls-2" cy="28.8" r="2.16"/><circle class="cls-2" cy="14.4" r="2.16"/><circle class="cls-2" cx="28.8" r="2.16"/><circle class="cls-2" cx="14.4" r="2.16"/><circle class="cls-2" r="2.16"/></pattern><pattern id="_30_10_ppp-11" data-name="30 % 10 ppp" width="28.8" height="28.8" patternTransform="translate(6.53 -43.69) rotate(11.73) scale(0.47)" patternUnits="userSpaceOnUse" viewBox="0 0 28.8 28.8"><rect class="cls-1" width="28.8" height="28.8"/><circle class="cls-2" cx="28.8" cy="28.8" r="2.16"/><circle class="cls-2" cx="14.4" cy="28.8" r="2.16"/><circle class="cls-2" cx="28.8" cy="14.4" r="2.16"/><circle class="cls-2" cx="14.4" cy="14.4" r="2.16"/><circle class="cls-2" cx="7.2" cy="21.6" r="2.16"/><circle class="cls-2" cx="21.6" cy="21.6" r="2.16"/><circle class="cls-2" cx="7.2" cy="7.2" r="2.16"/><circle class="cls-2" cx="21.6" cy="7.2" r="2.16"/><circle class="cls-2" cy="28.8" r="2.16"/><circle class="cls-2" cy="14.4" r="2.16"/><circle class="cls-2" cx="28.8" r="2.16"/><circle class="cls-2" cx="14.4" r="2.16"/><circle class="cls-2" r="2.16"/></pattern></defs><title>illustration1</title><g id="Calque_2" data-name="Calque 2"><g id="HEADER"><path class="cls-3" d="M147.92,211.15s26.35,2,42.39-1.57l22,56.21s-31.42,6.81-41.46-6.56Z"/><path class="cls-4" d="M134.14,74.93c.49,7.12,1,14.43,1.56,21.63s1.23,14.45,2,21.65,1.6,14.41,2.69,21.57c.55,3.58,1.16,7.15,1.94,10.68.39,1.76.82,3.52,1.36,5.23a25,25,0,0,0,.92,2.52,7.29,7.29,0,0,0,1.34,2.18l-.1-.07a123.2,123.2,0,0,0,17.6,5.9,110.21,110.21,0,0,0,18.28,3.14,72.31,72.31,0,0,0,18.46-.71,54.64,54.64,0,0,0,8.89-2.42,47,47,0,0,0,8.21-4.13l-.2.7a60.75,60.75,0,0,1-2.15-5.79l-.91-2.93-.82-3q-.78-3-1.46-6c-.41-2-.89-4-1.24-6s-.77-4-1.07-6l-.93-6.06c-.49-4.05-1.06-8.1-1.39-12.17-.81-8.13-1.18-16.28-1.47-24.44l-.18-12.24L205.63,66l.88.64c-5.84,2-11.76,3.56-17.73,5s-12,2.57-18.07,3.43a157,157,0,0,1-18.34,1.46A94.81,94.81,0,0,1,134.14,74.93Zm-.09-.11a101,101,0,0,0,18.32,1.11,164.7,164.7,0,0,0,18.21-1.78c6-1,12-2.21,17.94-3.66s11.81-3.13,17.56-5.12l.89-.31V66l-.09,12.2.17,12.2c.29,8.13.66,16.25,1.46,24.34.33,4.05.85,8.08,1.32,12.12l.88,6c.29,2,.69,4,1,6s.8,4,1.2,6,.91,4,1.41,5.92a83.55,83.55,0,0,0,3.74,11.51l.19.45-.39.25a48.09,48.09,0,0,1-8.44,4.2,55.68,55.68,0,0,1-9.09,2.42,73.26,73.26,0,0,1-18.71.63A111.06,111.06,0,0,1,163.22,167a123.89,123.89,0,0,1-17.69-6l-.06,0,0,0a7.86,7.86,0,0,1-1.5-2.42,25,25,0,0,1-.93-2.59c-.53-1.75-1-3.52-1.34-5.3-.76-3.56-1.34-7.14-1.87-10.73-1-7.18-1.84-14.39-2.55-21.61s-1.3-14.44-1.83-21.68l-.75-10.85-.34-5.43-.16-2.71-.08-1.36,0-.68,0-.34v-.17A.52.52,0,0,1,134,74.82Z"/><path class="cls-4" d="M0,142.43c5.75-.61,11.3-1.27,16.93-2.08s11.2-1.72,16.76-2.81,11.09-2.34,16.52-3.94c2.71-.8,5.4-1.68,8-2.74A38.14,38.14,0,0,0,65.7,127l.3-.21.14.34c3.19,7.75,6.6,15.41,10.13,23s7.25,15.11,11.21,22.5a229.65,229.65,0,0,0,12.9,21.53A91.28,91.28,0,0,0,108.1,204a39.91,39.91,0,0,0,4.52,4.24,16.73,16.73,0,0,0,5.27,3l1.34.42-1.25.61a162.72,162.72,0,0,1-15.08,6.42,133.15,133.15,0,0,1-15.69,4.77,68.44,68.44,0,0,1-16.33,2,34.65,34.65,0,0,1-8.25-1A21.1,21.1,0,0,1,55,220.8l.08.06a73.89,73.89,0,0,1-9.82-7.32A111.42,111.42,0,0,1,36.54,205a152.34,152.34,0,0,1-15.05-19.11A182.21,182.21,0,0,1,9.41,164.86c-1.81-3.62-3.44-7.33-5-11.06-.78-1.86-1.51-3.75-2.27-5.63Zm.12.08,2.27,5.56c.81,1.85,1.58,3.72,2.41,5.56,1.67,3.68,3.4,7.32,5.26,10.91a187.41,187.41,0,0,0,12.36,20.78,151.12,151.12,0,0,0,15.11,18.81c2.78,2.91,5.67,5.71,8.7,8.34a72.88,72.88,0,0,0,9.59,7.16l.06,0,0,0A19.69,19.69,0,0,0,63,223a33.27,33.27,0,0,0,7.91,1,69.75,69.75,0,0,0,16-1.91,131.88,131.88,0,0,0,15.57-4.62,160,160,0,0,0,15-6.27l.09,1a17.78,17.78,0,0,1-5.62-3.18,41,41,0,0,1-4.62-4.38,92.29,92.29,0,0,1-7.76-10A230.55,230.55,0,0,1,86.72,173c-3.93-7.42-7.6-15-11.12-22.59s-6.86-15.32-10-23.1l.44.13a38.68,38.68,0,0,1-7.61,3.89c-2.64,1.06-5.36,1.92-8.08,2.71-5.46,1.57-11,2.78-16.58,3.84s-11.18,1.93-16.8,2.7q-4.21.57-8.44,1.06l-4.23.46-2.12.21-1.06.1-.53,0C.44,142.5.2,142.56.12,142.51Z"/><path class="cls-5" d="M86.47,129.56S40,59,42,30.54c0,0,89.09-9,99.34-18.89,0,0,18.48,101.72,28.92,112.77C170.31,124.42,111.38,139.55,86.47,129.56Z"/><path class="cls-4" d="M96.13,244a1,1,0,0,1,.41,0l.34.05.68.1,1.35.2,2.71.37q2.71.35,5.44.64c3.63.38,7.27.68,10.91.83a86.83,86.83,0,0,0,10.92-.13,35.47,35.47,0,0,0,5.36-.83,11,11,0,0,0,4.75-2.23l.33-.3.21.39q5.83,10.71,12.05,21.2c2.09,3.48,4.21,7,6.43,10.35a71.76,71.76,0,0,0,7.23,9.66l.83.87-1.18.11c-7.42.71-14.84,1.16-22.3,1.13a89.48,89.48,0,0,1-11.2-.71,28.84,28.84,0,0,1-5.56-1.27,9.69,9.69,0,0,1-2.65-1.42c-.38-.32-.7-.67-1.05-1a10.49,10.49,0,0,1-1-1c-2.48-2.85-4.68-5.84-6.84-8.88s-4.27-6.09-6.3-9.2-4.06-6.22-6.05-9.36L99,248.88l-1.46-2.37-.73-1.19A11.64,11.64,0,0,1,96.13,244Zm.12.08A8.74,8.74,0,0,1,97,245.2l.78,1.16,1.56,2.31,3.14,4.59c2.09,3.07,4.19,6.13,6.32,9.16s4.27,6.06,6.47,9,4.45,5.93,6.89,8.65a11.73,11.73,0,0,0,.94,1c.32.3.63.64,1,.92a8.39,8.39,0,0,0,2.24,1.19,27.53,27.53,0,0,0,5.27,1.2,88.15,88.15,0,0,0,11,.7c7.39.09,14.81-.25,22.17-.88l-.35,1a73,73,0,0,1-7.29-9.92c-2.2-3.44-4.29-6.93-6.35-10.44q-6.14-10.56-11.86-21.35l.54.09a11.6,11.6,0,0,1-5.08,2.33,36,36,0,0,1-5.46.78,87.32,87.32,0,0,1-11,0c-3.65-.2-7.29-.54-10.92-1q-2.72-.32-5.43-.71l-2.71-.41-1.35-.22-.68-.11-.34-.06C96.41,244.18,96.24,244.21,96.25,244.12Z"/><path class="cls-4" d="M146.92,271.67a.32.32,0,0,1,.15,0l.08,0,.16.06.33.11.65.21,1.31.4q1.32.39,2.64.75,2.65.72,5.34,1.31a95.55,95.55,0,0,0,10.84,1.75,62.24,62.24,0,0,0,11,.21A34.8,34.8,0,0,0,190,274.15l.24-.1.1.24q4.28,10.59,8.91,21c1.56,3.47,3.16,6.93,4.87,10.32.86,1.69,1.74,3.38,2.69,5,.48.81,1,1.62,1.5,2.38a8.17,8.17,0,0,0,1.73,2l.77.53-.8.43a42.84,42.84,0,0,1-7.3,3,50.51,50.51,0,0,1-7.67,1.79,48.08,48.08,0,0,1-7.87.55,46.43,46.43,0,0,1-7.86-.84l-.22,0-.15-.16c-3.4-3.55-6.66-7.19-9.83-10.93s-6.18-7.6-9.06-11.57a118.5,118.5,0,0,1-8-12.36,60.57,60.57,0,0,1-3.19-6.63l-.65-1.72-.57-1.75-.47-1.78C147.1,272.92,147,272.26,146.92,271.67Zm.09.11.44,1.71.54,1.74.64,1.71.72,1.67c1,2.21,2.19,4.34,3.41,6.44a134.12,134.12,0,0,0,8.23,12c2.93,3.89,6,7.66,9.2,11.34s6.41,7.35,9.76,10.86l-.37-.2a46.49,46.49,0,0,0,15.27.38,49.25,49.25,0,0,0,7.5-1.65,41.33,41.33,0,0,0,7.11-2.84l0,1a8.86,8.86,0,0,1-2-2.3c-.54-.81-1-1.64-1.51-2.47-.95-1.67-1.82-3.38-2.66-5.09-1.68-3.43-3.24-6.92-4.76-10.41-3-7-5.89-14.07-8.62-21.19l.34.14a35.27,35.27,0,0,1-10.79,2.3,62.62,62.62,0,0,1-11-.3,95.81,95.81,0,0,1-10.86-1.85q-2.69-.61-5.34-1.35-1.33-.37-2.64-.78l-1.31-.42-.65-.22-.33-.11-.16-.06-.08,0S147,271.8,147,271.78Z"/><path class="cls-4" d="M352.57,250.48a1.11,1.11,0,0,1-.28,0H352l-.66,0-1.33-.07-2.65-.16q-2.65-.17-5.3-.39c-3.53-.3-7.06-.66-10.58-1.12s-7-1-10.51-1.69a90.42,90.42,0,0,1-10.33-2.64l.38-.15-28,53.49-.22-.78a122.41,122.41,0,0,0,11,5.39,95.77,95.77,0,0,0,11.49,4.16,45.79,45.79,0,0,0,11.92,2,19.79,19.79,0,0,0,5.87-.75,11.08,11.08,0,0,0,4.91-2.94l-.13.2c2-4.53,4-9,6.06-13.55L340,277.91Zm.12-.07-11.62,27.43-5.93,13.87c-2,4.62-4,9.27-6,13.88l0,.11-.08.09a12.49,12.49,0,0,1-5.53,3.32,21.18,21.18,0,0,1-6.3.81,47,47,0,0,1-12.3-2.07,97.07,97.07,0,0,1-11.61-4.33A123.49,123.49,0,0,1,282.2,298l-.49-.28.27-.5,28.44-53.24.13-.23.25.09A89.85,89.85,0,0,0,321,246.53c3.46.74,7,1.29,10.46,1.81s7,.9,10.55,1.24q2.64.26,5.29.45Z"/><path class="cls-4" d="M383.58,114.11a.37.37,0,0,1-.06.2l-.06.13-.12.26-.24.51-.49,1-1,2.06-2,4.11-4,8.2q-4,8.19-8.06,16.34c-5.44,10.86-11,21.69-16.86,32.31-1.48,2.65-3,5.29-4.57,7.89A64.44,64.44,0,0,1,341,194.7a8.13,8.13,0,0,1-1.75,1.59c-.64.43-1.3.82-2,1.2a41.3,41.3,0,0,1-4.14,2,42,42,0,0,1-8.81,2.58,40,40,0,0,1-9.18.52,39.23,39.23,0,0,1-9-1.68,47.79,47.79,0,0,1-16-8.87l-.36-.29.24-.43a83.54,83.54,0,0,0,5-11q1.09-2.84,2.09-5.72c.62-1.93,1.31-3.84,1.88-5.79s1.19-3.88,1.71-5.85l1.57-5.89c.94-4,1.91-7.9,2.71-11.89,1.73-7.94,3-16,4.26-24l1.58-12.1,1.32-12.13.1-.94.85.41c5.48,2.63,11.14,5,16.85,7.12s11.52,4,17.4,5.7a151.26,151.26,0,0,0,17.89,3.87c3,.44,6.06.78,9.1,1S380.44,114.22,383.58,114.11Zm-.12.08a72.41,72.41,0,0,1-9.12.23c-3.06-.11-6.12-.38-9.17-.75a144.86,144.86,0,0,1-18-3.57q-8.9-2.33-17.56-5.49c-5.77-2.1-11.45-4.39-17-7l1-.53-1.23,12.17-1.59,12.14c-1.23,8.07-2.54,16.13-4.28,24.1-.8,4-1.82,8-2.78,11.93L302,163.32c-.54,2-1.18,3.91-1.76,5.87s-1.29,3.88-1.93,5.82-1.4,3.84-2.14,5.75L295,183.59l-1.24,2.81a60.76,60.76,0,0,1-2.81,5.51l-.12-.72a46.76,46.76,0,0,0,15.6,8.79,38.29,38.29,0,0,0,8.81,1.7,39.17,39.17,0,0,0,9-.45,41.14,41.14,0,0,0,8.66-2.46,40.53,40.53,0,0,0,4.07-1.93c.66-.36,1.31-.74,1.93-1.15a7.31,7.31,0,0,0,1.61-1.46,64.82,64.82,0,0,0,5.15-7.44c1.59-2.58,3.11-5.2,4.61-7.84,6-10.57,11.55-21.36,17.05-32.18q4.12-8.12,8.16-16.29Z"/><path class="cls-4" d="M190.09,121.4l22.26,2.78q11.11,1.35,22.23,2.6c7.41.83,14.83,1.62,22.26,2.31,3.71.34,7.43.66,11.14.93s7.44.48,11.15.41h.39l-.1.38c-3.64,14.11-7.06,28.28-10.13,42.52-1.52,7.12-3,14.26-4.15,21.44-.59,3.59-1.12,7.19-1.5,10.8-.19,1.8-.33,3.61-.4,5.41a23.59,23.59,0,0,0,.3,5.31l.11.53-.5.13a108.44,108.44,0,0,1-13.55,2.59,118.62,118.62,0,0,1-13.75,1,93.66,93.66,0,0,1-13.78-.8,78.52,78.52,0,0,1-13.5-3l-.16,0-.09-.09a26.41,26.41,0,0,1-3.78-5.07,55.59,55.59,0,0,1-2.86-5.5,88.77,88.77,0,0,1-4.24-11.58,164.59,164.59,0,0,1-5-24c-1.13-8.11-1.75-16.27-2.13-24.43S189.89,129.64,190.09,121.4Zm.09.11c.08,8.09.31,16.27.82,24.41s1.27,16.26,2.51,24.31a163.4,163.4,0,0,0,5.19,23.82A91,91,0,0,0,203,205.43a54.23,54.23,0,0,0,2.78,5.36,25.66,25.66,0,0,0,3.5,4.74l-.25-.14a77.11,77.11,0,0,0,13.25,2.92,101,101,0,0,0,13.58.84,117.37,117.37,0,0,0,13.61-.86,106.37,106.37,0,0,0,13.4-2.44l-.39.66a24.51,24.51,0,0,1-.29-5.58c.07-1.84.23-3.67.43-5.49.4-3.64,1-7.25,1.57-10.85,1.24-7.2,2.71-14.34,4.28-21.46q4.73-21.36,10.41-42.48l.29.37c-3.76.05-7.48-.2-11.21-.47s-7.44-.62-11.15-1c-7.43-.73-14.84-1.55-22.25-2.42s-14.81-1.78-22.21-2.71S197.47,122.55,190.19,121.51Z"/><path class="cls-6" d="M243.17,107.78S274.89,20.16,295.12,0c0,0,78.92,23.46,96.83,66.2,0,0-66.54,16.25-71.1,62.24C320.85,128.44,263.87,103.72,243.17,107.78Z"/><path class="cls-7" d="M132.59,274.69s-25.67-53.6-39.79-65.11c0,0-48.6,19.88-57.26,48.14,0,0,43.25,6.1,49.06,35C84.59,292.71,119.19,273.42,132.59,274.69Z"/><path class="cls-8" d="M314.47,224.35s16-66.79,52.51-74.74c0,0,48.48,32.51,62.24,28.74,0,0-65.5,50.45-59.59,77.63C369.62,256,331.52,245.08,314.47,224.35Z"/><path class="cls-4" d="M204.87,265.24l6.34.6q3.14.28,6.29.51c4.2.3,8.4.53,12.61.65s8.41.13,12.61-.12a60,60,0,0,0,6.25-.67,25.79,25.79,0,0,0,3-.69,10,10,0,0,0,2.78-1.23l.56-.38,0,.68c-.43,8.08-.63,16.19-.49,24.28.08,4,.25,8.09.62,12.1.19,2,.44,4,.8,6a25.46,25.46,0,0,0,1.61,5.69l.38.85h-.93a163.88,163.88,0,0,1-20.6-1.09,66.33,66.33,0,0,1-10.19-2,19.73,19.73,0,0,1-4.89-2.06,7.39,7.39,0,0,1-2.08-1.86,17.88,17.88,0,0,1-1.44-2.25,78.18,78.18,0,0,1-4.16-9.48c-1.23-3.21-2.3-6.47-3.36-9.73s-2.07-6.54-3-9.84l-1.39-4.95-.68-2.48-.33-1.24-.16-.62-.08-.31A1.2,1.2,0,0,1,204.87,265.24Zm.11.09c2,6.42,4.18,13,6.44,19.44q1.7,4.84,3.58,9.61a77.21,77.21,0,0,0,4.23,9.26,16.67,16.67,0,0,0,1.36,2.06,6,6,0,0,0,1.76,1.51,20.74,20.74,0,0,0,4.57,1.88,65,65,0,0,0,10,1.93,187.19,187.19,0,0,0,20.41,1.28l-.54.86a26.58,26.58,0,0,1-1.63-6c-.34-2-.57-4-.75-6.08-.34-4.06-.46-8.12-.5-12.18s0-8.12.16-12.18.32-8.11.6-12.16l.53.3a10.57,10.57,0,0,1-3,1.29,26.39,26.39,0,0,1-3.12.67,60.59,60.59,0,0,1-6.31.61c-4.22.2-8.44.14-12.65,0s-8.42-.44-12.61-.78q-3.15-.26-6.29-.57l-3.14-.33-1.57-.18-.78-.09-.39,0-.2,0H205S204.91,265.38,205,265.33Z"/><path class="cls-9" d="M259.73,271.72s42.29,3.14,48.68,0c0,0-16.28,45.94-12.93,50.58,0,0-16.35,9.78-30.77.5C264.72,322.81,256,289.2,259.73,271.72Z"/><path class="cls-10" d="M241.07,298.55"/><path class="cls-11" d="M350.41,313.67"/></g></g></svg>