<svg xmlns="http://www.w3.org/2000/svg" xmlns:xlink="http://www.w3.org/1999/xlink" viewBox="0 0 470.46 249.76"><defs><style>.cls-1,.cls-8,.cls-9{fill:none;}.cls-2{fill:#231f20;}.cls-3,.cls-4,.cls-8{opacity:0.19;}.cls-3{fill:url(#_30_10_ppp);}.cls-4{fill:url(#_30_10_ppp-3);}.cls-5{fill:#f70;}.cls-6{fill:#ff2f63;}.cls-7{fill:#556270;}.cls-9{stroke:#ff2f63;stroke-linecap:round;stroke-miterlimit:10;stroke-width:10px;}</style><pattern id="_30_10_ppp" data-name="30 % 10 ppp" width="28.8" height="28.8" patternTransform="matrix(0.34, 0.07, -0.07, 0.33, 0.97, 4.85)" patternUnits="userSpaceOnUse" viewBox="0 0 28.8 28.8"><rect class="cls-1" width="28.8" height="28.8"/><circle class="cls-2" cx="28.8" cy="28.8" r="2.16"/><circle class="cls-2" cx="14.4" cy="28.8" r="2.16"/><circle class="cls-2" cx="28.8" cy="14.4" r="2.16"/><circle class="cls-2" cx="14.4" cy="14.4" r="2.16"/><circle class="cls-2" cx="7.2" cy="21.6" r="2.16"/><circle class="cls-2" cx="21.6" cy="21.6" r="2.16"/><circle class="cls-2" cx="7.2" cy="7.2" r="2.16"/><circle class="cls-2" cx="21.6" cy="7.2" r="2.16"/><circle class="cls-2" cy="28.8" r="2.16"/><circle class="cls-2" cy="14.4" r="2.16"/><circle class="cls-2" cx="28.8" r="2.16"/><circle class="cls-2" cx="14.4" r="2.16"/><circle class="cls-2" r="2.16"/></pattern><pattern id="_30_10_ppp-3" data-name="30 % 10 ppp" width="28.8" height="28.8" patternTransform="matrix(0.18, 0.29, -0.29, 0.17, 12.58, 5.06)" patternUnits="userSpaceOnUse" viewBox="0 0 28.8 28.8"><rect class="cls-1" width="28.8" height="28.8"/><circle class="cls-2" cx="28.8" cy="28.8" r="2.16"/><circle class="cls-2" cx="14.4" cy="28.8" r="2.16"/><circle class="cls-2" cx="28.8" cy="14.4" r="2.16"/><circle class="cls-2" cx="14.4" cy="14.4" r="2.16"/><circle class="cls-2" cx="7.2" cy="21.6" r="2.16"/><circle class="cls-2" cx="21.6" cy="21.6" r="2.16"/><circle class="cls-2" cx="7.2" cy="7.2" r="2.16"/><circle class="cls-2" cx="21.6" cy="7.2" r="2.16"/><circle class="cls-2" cy="28.8" r="2.16"/><circle class="cls-2" cy="14.4" r="2.16"/><circle class="cls-2" cx="28.8" r="2.16"/><circle class="cls-2" cx="14.4" r="2.16"/><circle class="cls-2" r="2.16"/></pattern></defs><title>illustration3</title><g id="Calque_2" data-name="Calque 2"><g id="BODY"><ellipse class="cls-3" cx="245.75" cy="187.24" rx="7.51" ry="20.01" transform="translate(50.97 427.05) rotate(-88.22)"/><ellipse class="cls-4" cx="343" cy="233.85" rx="7.51" ry="20.01" transform="translate(-69.39 281.53) rotate(-40.88)"/><path class="cls-5" d="M320.53,50.4a5.73,5.73,0,0,1,1,3.6c-.17.9-.82,1.39-2,1.48a5.13,5.13,0,0,1-3.4-1.06,10.52,10.52,0,0,1-3-3.45,5.69,5.69,0,0,1-1-3.58c.17-.89.83-1.38,2-1.47a5.12,5.12,0,0,1,3.4,1.05A10.27,10.27,0,0,1,320.53,50.4Z"/><path class="cls-5" d="M328.28,47c-.67-1.18-1.87-1.7-3.6-1.57l-1,.08L326,49.65l.53,0a2.52,2.52,0,0,0,2-.78C328.79,48.38,328.72,47.77,328.28,47Zm0,0c-.67-1.18-1.87-1.7-3.6-1.57l-1,.08L326,49.65l.53,0a2.52,2.52,0,0,0,2-.78C328.79,48.38,328.72,47.77,328.28,47ZM359.49,34.8l-.8,0c.61.81,1.2,1.64,1.78,2.48-6.57.92-66,8.94-106.09,5.3-.56-.74-1.15-1.48-1.77-2.2l.62,1.77.28.35.06.07c.28.34.54.67.79,1,1.46,1.87,2.82,3.81,4.1,5.8.19.3.38.59.56.89.78,1.23,1.51,2.48,2.21,3.75.48.87.94,1.74,1.39,2.63.18.35.36.7.53,1.06.28.57.55,1.14.81,1.72l.6.06c-.25-.58-.52-1.15-.8-1.72,11.76,1.18,23.41,1.64,34.43,1.64a429.12,429.12,0,0,0,71.2-6q.42,1,.81,1.95l.53-.11A93.46,93.46,0,0,0,359.49,34.8Zm-36.23,20c-.36,1.16-1.36,1.8-3,1.93a7.81,7.81,0,0,1-4.84-1.33,11.68,11.68,0,0,1-3.92-4.25c-1-1.81-1.36-3.31-1-4.47s1.37-1.8,3-1.93A7.81,7.81,0,0,1,318.35,46a11.84,11.84,0,0,1,3.93,4.24Q323.81,53,323.26,54.76Zm10.95.56-6-4.57-1.52.11,2.72,4.83-1.62.12-6.43-11.4,3.49-.27a5.39,5.39,0,0,1,2.95.53,4.87,4.87,0,0,1,2.07,2,3.12,3.12,0,0,1,.48,2,2,2,0,0,1-1,1.44l6.86,5Zm8.83-.38A8.33,8.33,0,0,1,338,53.72a11.52,11.52,0,0,1-4-4.34q-1.62-2.85-1-4.53c.4-1.12,1.51-1.75,3.31-1.89a16.09,16.09,0,0,1,3.93.24l.84,1.49a16,16,0,0,0-4.11-.52c-1.24.1-2,.59-2.19,1.48s.1,2.09,1,3.61a9.58,9.58,0,0,0,3.08,3.43,6,6,0,0,0,3.81,1,4.87,4.87,0,0,0,1.6-.42l-2.09-3.72,1.63-.12,2.61,4.61A10.67,10.67,0,0,1,343,54.94Zm-18.36-9.53-1,.08L326,49.65l.53,0a2.52,2.52,0,0,0,2-.78c.3-.45.23-1.06-.21-1.85C327.61,45.8,326.41,45.28,324.68,45.41Z"/><path class="cls-6" d="M218.12,47.9a10.21,10.21,0,0,0-3-3.33,5.13,5.13,0,0,0-3.43-.94c-1.15.12-1.79.63-1.93,1.53a5.68,5.68,0,0,0,1.12,3.54,10.34,10.34,0,0,0,3.06,3.35,5.16,5.16,0,0,0,3.44,1c1.14-.13,1.78-.64,1.92-1.54A5.74,5.74,0,0,0,218.12,47.9Zm0,0a10.21,10.21,0,0,0-3-3.33,5.13,5.13,0,0,0-3.43-.94c-1.15.12-1.79.63-1.93,1.53a5.68,5.68,0,0,0,1.12,3.54,10.34,10.34,0,0,0,3.06,3.35,5.16,5.16,0,0,0,3.44,1c1.14-.13,1.78-.64,1.92-1.54A5.74,5.74,0,0,0,218.12,47.9Zm30.19-12.26-.48.05-.41,0c-2.25.24-4.52.48-6.82.7l-.15,0c-20.95,3.34-81.81,12-114.82,6.08a.75.75,0,0,1,.12-.14h-1.13l-3.93,2.25a80.65,80.65,0,0,0-5.61,8.9l1.76,2.52c.51-1,1-2,1.59-2.93l-.1.47C137,57.54,156.54,59,174.93,59A429.35,429.35,0,0,0,259,50.31c.78,1.23,1.51,2.48,2.21,3.75.15-.11.3-.22.44-.34A82.07,82.07,0,0,0,248.31,35.64Zm-41,19.73a8.15,8.15,0,0,1-5.07-1.07,11.64,11.64,0,0,1-4.09-4.18c-1.14-1.87-1.52-3.38-1.15-4.51s1.46-1.8,3.26-2a18.33,18.33,0,0,1,3.91.1l.91,1.49a16,16,0,0,0-4.13-.4c-1.25.14-2,.65-2.15,1.55a5.4,5.4,0,0,0,1.09,3.59A9.47,9.47,0,0,0,203,53.2a5.9,5.9,0,0,0,3.75.91,4.93,4.93,0,0,0,2.89-1.36l.83,1.36A5.54,5.54,0,0,1,207.28,55.37ZM221,52.16c-.33,1.18-1.31,1.85-2.94,2A7.76,7.76,0,0,1,213.18,53a11.62,11.62,0,0,1-4.06-4.12c-1.09-1.78-1.46-3.26-1.13-4.43s1.3-1.85,2.94-2a7.77,7.77,0,0,1,4.88,1.17,11.79,11.79,0,0,1,4.06,4.12Q221.49,50.4,221,52.16Zm13.75-.09L229.24,43l1.9,8.69-1.58.18-8.15-8,5.53,9.11-1.4.16-6.79-11.2,2.25-.25L229.45,50l-2-9,2-.22,6.79,11.19Zm-19.67-7.5a5.13,5.13,0,0,0-3.43-.94c-1.15.12-1.79.63-1.93,1.53a5.68,5.68,0,0,0,1.12,3.54,10.34,10.34,0,0,0,3.06,3.35,5.16,5.16,0,0,0,3.44,1c1.14-.13,1.78-.64,1.92-1.54a5.74,5.74,0,0,0-1.14-3.57A10.21,10.21,0,0,0,215.08,44.57Z"/><path class="cls-7" d="M239.83,209a52.22,52.22,0,0,1-.6,5.7c-.06.35-.12.7-.19,1-.55-.27-1.1-.52-1.64-.76,0-.37,0-.73.05-1.09.07-1.61.07-3.22,0-4.82a95.52,95.52,0,0,0-1.81-14.58c0-.14,0-.29-.08-.43-.07-.37-.14-.73-.22-1.09-.76-3.84-1.75-7.64-2.84-11.41-.1-.32-.19-.65-.29-1,0-.13-.07-.25-.11-.38-1.42-4.69-3-9.34-4.9-13.87l.27-.12a62.64,62.64,0,0,1,6.89,13.3l.19.47.37.94.13.33c.23.59.4,1.19.6,1.78.38,1.19.81,2.37,1.15,3.57s.64,2.42,1,3.64l.76,3.42h0l0,.25c0,.27.09.53.13.8A64.28,64.28,0,0,1,239.83,209Z"/><path class="cls-7" d="M185.57,177.2a55.83,55.83,0,0,1-3.71,15.69c-2,5-4.57,10-9,14.1a17.66,17.66,0,0,1-3.87,2.59,11.41,11.41,0,0,1-9.67.27,14,14,0,0,1-3.86-2.47,20.86,20.86,0,0,1-2.26-2.25l-.71-.88.18-.43c.23-.55.44-1.1.65-1.65.25.28.5.55.76.81a23.87,23.87,0,0,0,2.79,2.52,10.86,10.86,0,0,0,7.15,2.48,11.47,11.47,0,0,0,6.85-3.23,29.74,29.74,0,0,0,5-6,59.84,59.84,0,0,0,3.81-6.88,98.28,98.28,0,0,0,5.56-14.76Z"/><path class="cls-7" d="M343.09,223.71c.18-.29.36-.58.52-.87a52.9,52.9,0,0,0,4.36-9.15,42.12,42.12,0,0,0,2-7.56,39.26,39.26,0,0,0,.59-7.8,43.09,43.09,0,0,0-3-15.29,46.36,46.36,0,0,0-3.41-7.06,41.55,41.55,0,0,0-4.54-6.39l.22-.2a30,30,0,0,1,5.69,5.78c.82,1.08,1.57,2.22,2.3,3.38a40.53,40.53,0,0,1,1.94,3.62,39.69,39.69,0,0,1,2.76,7.82,42.91,42.91,0,0,1,1,8.3,38.69,38.69,0,0,1-3.37,16.21,41.63,41.63,0,0,1-5.6,9.16l-.64.77Z"/><path class="cls-7" d="M252.38,194.23c.12.32.24.64.37,1a107.07,107.07,0,0,0,5.56,12.09,55.85,55.85,0,0,0,3,5.17,59.45,59.45,0,0,0,3.56,5,30.33,30.33,0,0,0,4.43,4.5,16.3,16.3,0,0,0,6.08,3.33,10.74,10.74,0,0,0,3.89.25,10.52,10.52,0,0,0,3.71-1.26,15.56,15.56,0,0,0,5-4.82,32.24,32.24,0,0,0,2.93-5.6,44,44,0,0,0,2-5.76,79.16,79.16,0,0,0,2.25-11.72,81.83,81.83,0,0,0,.58-11.81l-.3,0c-.44,3.87-1.06,7.72-1.83,11.53a96.86,96.86,0,0,1-3,11.28,40.41,40.41,0,0,1-5,10.47,12.89,12.89,0,0,1-4.12,3.9,7.4,7.4,0,0,1-2.65.88,8,8,0,0,1-2.79-.21,13.72,13.72,0,0,1-5-2.7,29.89,29.89,0,0,1-4.12-4.07,72,72,0,0,1-6.72-9.5c-2.18-3.6-4.17-7.3-6-11.07h0c-.16-.31-.31-.62-.46-.93Z"/><path class="cls-7" d="M153.91,182c-2.1-.86-4.87.38-7.81,3.51A41.92,41.92,0,0,0,138.52,198c-4.4,10.7-4.53,20.45-.29,22.19a3.52,3.52,0,0,0,1.37.27c4.08,0,9.7-6.21,13.63-15.32l.39-.93c.17-.41.33-.81.49-1.22A40.45,40.45,0,0,0,157,190C157.11,185.71,156,182.87,153.91,182Zm-.56,20.16c-.21.55-.42,1.1-.65,1.65l-.18.43c-4.06,9.62-10.38,16.47-13.91,15s-3.21-11,.83-20.89a40.92,40.92,0,0,1,7.39-12.16c2.12-2.26,4.13-3.47,5.7-3.47a2.74,2.74,0,0,1,1,.19c1.67.69,2.56,3.25,2.46,7A39.24,39.24,0,0,1,153.35,202.17Z"/><path class="cls-7" d="M255.72,227.6a33.26,33.26,0,0,0-4.64-5,50.8,50.8,0,0,0-6.22-4.74,52.3,52.3,0,0,0-5.63-3.18c-.6-.29-1.19-.56-1.78-.81-6.79-2.91-12.51-3.22-14.35-.38-2.49,3.84,3.16,11.78,12.87,18.08,6.33,4.1,12.6,6.35,16.89,6.35,2.28,0,4-.64,4.87-2C259,234,258.25,231.06,255.72,227.6Zm1.17,7.78c-2.11,3.26-11.44,1.12-20.37-4.67s-14.69-13.44-12.58-16.7c.67-1,2.08-1.52,4-1.52a22.27,22.27,0,0,1,7.43,1.62c.67.25,1.36.53,2.06.83.54.24,1.09.49,1.64.76a48.68,48.68,0,0,1,5.27,3,40.94,40.94,0,0,1,10.6,9.51C257.15,231.25,257.87,233.87,256.89,235.38Z"/><path class="cls-7" d="M357.06,240.2a42.11,42.11,0,0,0-8-12.2,51.74,51.74,0,0,0-4.45-4.34c-.33-.29-.65-.56-1-.82a33.25,33.25,0,0,0-6-4c-3.83-1.94-6.86-2.17-8.54-.64s-1.74,4.57-.17,8.56a41.85,41.85,0,0,0,8,12.2c6.08,6.68,12.75,10.76,17,10.76a4.19,4.19,0,0,0,2.93-1C358.57,247.23,358.63,244.19,357.06,240.2Zm-.84,7.82c-2.88,2.62-11.36-1.83-18.52-9.7a41,41,0,0,1-7.83-11.88c-1.38-3.53-1.42-6.25-.09-7.46a3.27,3.27,0,0,1,2.27-.74,11.94,11.94,0,0,1,5.15,1.53,32.06,32.06,0,0,1,5.55,3.66l.34.28c.29.23.57.47.86.72a49.52,49.52,0,0,1,4.35,4.25,41,41,0,0,1,7.83,11.88C357.52,244.09,357.55,246.81,356.22,248Z"/><path class="cls-7" d="M246.1,179.08a46.73,46.73,0,0,0-11.52.87q-1.23.27-2.34.6l-.64.21c-4.07,1.36-6.36,3.36-6.46,5.62s2,4.45,6,6.15a32.22,32.22,0,0,0,4.48,1.49c1,.25,2.06.48,3.15.66a48.65,48.65,0,0,0,6.68.72c.75,0,1.5,0,2.24,0a49.27,49.27,0,0,0,5.09-.26c.52-.05,1-.11,1.53-.19h0a31.11,31.11,0,0,0,5.63-1.27c4.07-1.36,6.37-3.36,6.46-5.63C266.57,183.52,257.66,179.56,246.1,179.08Zm13.5,13.69a32.25,32.25,0,0,1-5.78,1.29l-1.44.17a50.72,50.72,0,0,1-6.92.17,46.84,46.84,0,0,1-6.9-.77h0c-1.11-.19-2.17-.43-3.18-.7a29.53,29.53,0,0,1-3.86-1.32c-3.49-1.5-5.44-3.39-5.37-5.18s2.18-3.52,5.78-4.72l.61-.19c.76-.24,1.57-.45,2.42-.63a43.24,43.24,0,0,1,8.91-.86c.73,0,1.46,0,2.2.05,10.63.44,19.48,4.09,19.32,8C265.31,189.85,263.2,191.57,259.6,192.77Z"/><path class="cls-7" d="M111.63,118.66q-1.46.11-2.91.24-25.16,2.08-50.2,5.17C39,126.56,19.45,129.36.13,133.18L0,132.59c4.79-1.24,9.6-2.37,14.41-3.47s9.68-2,14.52-3c9.7-1.88,19.44-3.6,29.19-5.24s19.56-2.91,29.36-4.16c4.91-.65,9.82-1.22,14.73-1.74l5.22-.57,2.16-.23A40.43,40.43,0,0,1,111.63,118.66Z"/><path class="cls-7" d="M269.93,109.25l.4,0q-.53,2.91-1.29,5.77h-.45Q269.37,112.16,269.93,109.25Z"/><path class="cls-7" d="M470.46,137.74l-.12.59q-48.22-9.75-97.1-15.48l-.49-.06c.44-1.38.85-2.78,1.22-4.18l.45.06c3,.4,6,.82,8.93,1.33L398,122.35c2.44.37,4.87.8,7.3,1.25s4.87.86,7.3,1.34l7.28,1.39c2.42.47,4.85.93,7.27,1.46l14.49,3.09C451.31,132.86,460.88,135.37,470.46,137.74Z"/><path class="cls-8" d="M369.41,52.46c-1.84.34-53.23,9.82-106.79,4.23a82,82,0,0,0-8.26-13.07c7.34.67,15.34.94,23.53.94,39.07,0,82.73-6.25,83.32-6.33l-.08-.55A92.1,92.1,0,0,1,369.41,52.46Z"/><path class="cls-3" d="M247.42,35.73a81.83,81.83,0,0,0-9.27-8l-.9-.66c.19-.21.38-.42.58-.62,14.87-15.53,35-25.06,57.1-25.06,26.87,0,50.76,14.06,65.92,35.85l.28.41.08.55c-.59.08-44.25,6.33-83.32,6.33-8.19,0-16.19-.27-23.53-.94-.27-.36-.55-.72-.85-1.08A78.49,78.49,0,0,0,247.42,35.73Z"/><path class="cls-3" d="M373.52,63.41h0a95.82,95.82,0,0,0-4-10.75,1.4,1.4,0,0,1-.08-.18h0c-1.84.34-53.23,9.82-106.79,4.23.18.35.36.7.53,1.06q1.09,2.23,2.05,4.53a81.88,81.88,0,0,1-26,96.42l-.89.67.6.61c14.76,14.86,34.42,23.92,56,23.92,36.43,0,67.37-25.83,78.52-61.75a2,2,0,0,0,.07-.23,100.37,100.37,0,0,0,0-58.52Zm-61.49,80a21.57,21.57,0,0,1-7.9-2.15,36.89,36.89,0,0,1-11.87-9.83,29.31,29.31,0,0,0,1.62-2.84,27.87,27.87,0,0,0,2-6.08,26.61,26.61,0,0,0-.2-10.71c10.68.28,21.38.44,32.08.33,5.54-.08,11.08-.17,16.62-.7a21.43,21.43,0,0,0,4.14-.73c.14,0,.32-.14.45-.19a3.4,3.4,0,0,1-.17.92,17.74,17.74,0,0,1-.72,1.91,57.23,57.23,0,0,1-3.93,7.26,69.66,69.66,0,0,1-10.29,12.91c-3.95,3.81-8.52,7.15-13.76,8.85A21.49,21.49,0,0,1,312,143.43Z"/><path class="cls-7" d="M373.52,63.41h0c-.42-1.43-.88-2.84-1.37-4.25s-.92-2.56-1.42-3.82a93.46,93.46,0,0,0-11.24-20.52q-2-2.71-4.11-5.26A85,85,0,0,0,328.76,8.22a76,76,0,0,0-67-.85,83.75,83.75,0,0,0-25.08,18.25l-.61.66,1.2.83.9.66c.19-.21.38-.42.58-.62A81.94,81.94,0,0,1,262.67,9.29a74.36,74.36,0,0,1,65.58,0A82.89,82.89,0,0,1,354.84,30q2,2.35,3.85,4.84c.61.81,1.2,1.64,1.78,2.48.21.31.43.62.63.93A92.88,92.88,0,0,1,369,52.55c.14.31.28.63.41.94q.42,1,.81,1.95.78,1.92,1.47,3.87a100.12,100.12,0,0,1,2.3,59.3c-.37,1.4-.78,2.8-1.22,4.18-.34,1.08-.7,2.15-1.08,3.22a92.66,92.66,0,0,1-16.83,29.31,82.89,82.89,0,0,1-26.59,20.76,74.34,74.34,0,0,1-65.57,0,81.42,81.42,0,0,1-22.87-16.73c-.21-.2-.4-.4-.58-.6l-.89.67c-.39.29-.79.58-1.2.86.2.22.41.43.62.64a83.62,83.62,0,0,0,24,17.09,76,76,0,0,0,67-.85,84.77,84.77,0,0,0,26.62-21.34,93.43,93.43,0,0,0,16.77-29.6c.38-1.1.75-2.21,1.09-3.33l.21-.69a2,2,0,0,0,.07-.23c.32-1.08.63-2.17.9-3.26a104.86,104.86,0,0,0-.9-55.26Z"/><path class="cls-7" d="M268.59,115a79.43,79.43,0,0,1-3.39,10,82,82,0,0,1-26,33.72c.18.2.37.4.58.6a86.11,86.11,0,0,0,8.11-7.26,82.8,82.8,0,0,0,17.75-26.86A79.41,79.41,0,0,0,269,115ZM265.66,62.1c-.35-.86-.72-1.71-1.1-2.56-.25-.58-.52-1.15-.8-1.72-.16-.35-.33-.71-.52-1.06-.49-1-1-2-1.57-3a80.76,80.76,0,0,0-6.46-10c-.26-.36-.54-.72-.83-1.07-.56-.74-1.15-1.48-1.77-2.2-1.36-1.65-2.8-3.24-4.3-4.78-.12-.14-.26-.28-.39-.41a87.32,87.32,0,0,0-9.19-8.09l-.9-.66c-.39-.31-.78-.59-1.17-.87a81.9,81.9,0,0,0-15.37-8.69,83,83,0,0,0-100.6,27.73,80.7,80.7,0,0,0-5.61,8.9,81.64,81.64,0,0,0-3.73,7.71,82.28,82.28,0,0,0-3.92,53.18c.39,1.5.82,3,1.29,4.45.76,2.41,1.64,4.79,2.62,7.12a85,85,0,0,0,18.48,27.31,83.07,83.07,0,0,0,27.55,17.92,83.6,83.6,0,0,0,63.92-.88,82.43,82.43,0,0,0,16.47-9.49c.4-.29.79-.59,1.18-.89l.87-.68a86.11,86.11,0,0,0,8.11-7.26,82.8,82.8,0,0,0,17.75-26.86A79.41,79.41,0,0,0,269,115q.77-2.86,1.29-5.77a82,82,0,0,0,1.41-15.63A82.27,82.27,0,0,0,265.66,62.1Zm4.27,47.15q-.55,2.91-1.34,5.78a79.43,79.43,0,0,1-3.39,10,82,82,0,0,1-26,33.72l-.89.67c-.39.29-.79.58-1.2.86a81.85,81.85,0,0,1-123.21-35.29c-.86-2.07-1.62-4.16-2.3-6.29-.48-1.49-.91-3-1.3-4.51a82.14,82.14,0,0,1,3.6-51.81q1.32-3.2,2.91-6.26c.51-1,1-2,1.59-2.93l.28-.48A80.93,80.93,0,0,1,125.27,43c.11-.15.23-.31.36-.46a.75.75,0,0,1,.12-.14,78.82,78.82,0,0,1,5.91-6.61,81.72,81.72,0,0,1,104.39-9.51l1.2.83.9.66a80.46,80.46,0,0,1,8.89,7.6l.38.37.48.49a77.18,77.18,0,0,1,5.33,6l.28.35.06.07c.28.34.54.67.79,1,1.46,1.87,2.82,3.81,4.1,5.8.19.3.38.59.56.89.78,1.23,1.51,2.48,2.21,3.75.48.87.94,1.74,1.39,2.63.18.35.36.7.53,1.06.28.57.55,1.14.81,1.72.44.93.85,1.87,1.24,2.81a81.73,81.73,0,0,1,4.73,47Z"/><path class="cls-7" d="M185.27,88.64a18.45,18.45,0,0,1,1.57-12.92,15.53,15.53,0,0,1,4.63-5.43,12.06,12.06,0,0,1,14.45,0,15.5,15.5,0,0,1,4.63,5.43,18.49,18.49,0,0,1,1.58,12.92h-.3A22.25,22.25,0,0,0,208.56,77a14.52,14.52,0,0,0-4.19-4.34,10,10,0,0,0-11.33,0A14.52,14.52,0,0,0,188.84,77a22.24,22.24,0,0,0-3.27,11.66Z"/><path class="cls-7" d="M222.86,88.64a18.45,18.45,0,0,1,1.57-12.92,15.53,15.53,0,0,1,4.63-5.43,12.06,12.06,0,0,1,14.45,0,15.5,15.5,0,0,1,4.63,5.43,18.49,18.49,0,0,1,1.58,12.92h-.3A22.24,22.24,0,0,0,246.15,77,14.52,14.52,0,0,0,242,72.65a10,10,0,0,0-11.33,0A14.52,14.52,0,0,0,226.43,77a22.25,22.25,0,0,0-3.27,11.66Z"/><path class="cls-7" d="M354.42,70.59a18.45,18.45,0,0,1-1.57,12.92,15.53,15.53,0,0,1-4.63,5.43,12.06,12.06,0,0,1-14.45,0,15.5,15.5,0,0,1-4.63-5.43,18.49,18.49,0,0,1-1.58-12.92h.3a22.24,22.24,0,0,0,3.27,11.66,14.52,14.52,0,0,0,4.19,4.34,10,10,0,0,0,11.33,0,14.52,14.52,0,0,0,4.19-4.34,22.24,22.24,0,0,0,3.27-11.66Z"/><path class="cls-7" d="M316.83,70.59a18.45,18.45,0,0,1-1.57,12.92,15.53,15.53,0,0,1-4.63,5.43,12.06,12.06,0,0,1-14.45,0,15.5,15.5,0,0,1-4.63-5.43A18.49,18.49,0,0,1,290,70.59h.3a22.24,22.24,0,0,0,3.27,11.66,14.52,14.52,0,0,0,4.19,4.34,10,10,0,0,0,11.33,0,14.52,14.52,0,0,0,4.19-4.34,22.24,22.24,0,0,0,3.27-11.66Z"/><path class="cls-7" d="M251.73,108.6a11.69,11.69,0,0,1-.82,3.23,16.26,16.26,0,0,1-1.66,2.94,26.19,26.19,0,0,1-4.66,4.87,45.93,45.93,0,0,1-11.6,6.63A66.64,66.64,0,0,1,220.19,130a81.39,81.39,0,0,1-13.25,1.24,88.13,88.13,0,0,1-13.24-1,66.67,66.67,0,0,1-12.9-3.36,40.09,40.09,0,0,1-11.71-6.57,20,20,0,0,1-4.42-5.19,12.6,12.6,0,0,1-1.27-3.18,10.06,10.06,0,0,1-.19-3.34h.3a10.51,10.51,0,0,0,2,5.94A19.29,19.29,0,0,0,170,119a41.49,41.49,0,0,0,11.5,5.6,81.22,81.22,0,0,0,25.38,3.6,77.74,77.74,0,0,0,25.29-4.14,48.59,48.59,0,0,0,11.48-5.7,26.13,26.13,0,0,0,4.79-4.24,13,13,0,0,0,3-5.58Z"/><path class="cls-7" d="M295.92,122.53a27.87,27.87,0,0,1-2,6.08,29.31,29.31,0,0,1-1.62,2.84q-.12.19-.24.36a19.33,19.33,0,0,1-1.6,2.1,28.81,28.81,0,0,1-2.13,2.28c-.79.68-1.53,1.38-2.36,2a25.75,25.75,0,0,1-5.27,3.06l-.19-.23a39.77,39.77,0,0,0,8-8.43,27.69,27.69,0,0,0,4.5-10.62,24.77,24.77,0,0,0,.52-5.76c-.06-1-.07-1.94-.15-2.91s-.27-1.92-.46-2.87a33.54,33.54,0,0,0-4.27-10.78l.25-.17a23.79,23.79,0,0,1,6.33,10.46,15.06,15.06,0,0,1,.41,1.5,3,3,0,0,1,.11.4A26.61,26.61,0,0,1,295.92,122.53Z"/><path class="cls-7" d="M351.81,111.53a5.4,5.4,0,0,1-.18.72,17.4,17.4,0,0,1-.82,2.26,55.27,55.27,0,0,1-4.09,7.7,70.12,70.12,0,0,1-10.87,13.34,48.84,48.84,0,0,1-6.9,5.37,30.84,30.84,0,0,1-8.1,3.7,22.28,22.28,0,0,1-17.41-1.93A35,35,0,0,1,292,131.81l-.64-1,.24-.18.64.78a36.89,36.89,0,0,0,11.87,9.83,20.88,20.88,0,0,0,16,1.1c5.24-1.7,9.81-5,13.76-8.85a69.66,69.66,0,0,0,10.29-12.91,57.23,57.23,0,0,0,3.93-7.26,17.74,17.74,0,0,0,.72-1.91,3.4,3.4,0,0,0,.17-.92c-.13,0-.31.15-.45.19a21.43,21.43,0,0,1-4.14.73c-5.54.53-11.08.62-16.62.7-10.7.11-21.4-.05-32.08-.33l-1.16,0v-.3l1-.07c10.74-.77,21.47-1.17,32.15-1.65,5.5-.33,11.06-.48,16.36-1.15.65-.09,1.3-.16,1.91-.27a10.7,10.7,0,0,0,1.57-.36l.08,0h0l.25-.12a3.26,3.26,0,0,1,1-.22,3.22,3.22,0,0,1,1,.12,2.88,2.88,0,0,1,1,.58,2.83,2.83,0,0,1,.59.74,2.88,2.88,0,0,1,.24.57,2.27,2.27,0,0,1,.09.38,2.62,2.62,0,0,1,0,.31A4.55,4.55,0,0,1,351.81,111.53Z"/><path class="cls-9" d="M374.49,118.54"/><path class="cls-7" d="M247.92,36.22h0c-1.36.25-53,9.33-94.2,9.33a163.94,163.94,0,0,1-28.52-2.08l.09-.48.09-.51.27,0c33,5.93,93.87-2.74,114.82-6.08l.15,0c3.15-.5,5.37-.88,6.44-1.07l.71-.12.08.45Z"/><path class="cls-7" d="M259.07,50.3H259A429.35,429.35,0,0,1,174.93,59c-18.39,0-37.93-1.41-56.6-5.34l.1-.47.11-.51.17,0c62,13,133.8-2,139.75-3.24l.39-.09Z"/><path class="cls-7" d="M361.21,38.23l-.11,0c-2.51.35-45,6.31-83.21,6.31-7.87,0-15.57-.25-22.68-.87l-.85-.07c-.25-.34-.51-.67-.79-1l-.06-.07.87.08c40.09,3.64,99.52-4.38,106.09-5.3l.38,0,.22,0,.06.44Z"/><path class="cls-7" d="M369.65,53.43l-.26.05a429.12,429.12,0,0,1-71.2,6c-11,0-22.67-.46-34.43-1.64l-.61-.06c-.17-.36-.35-.71-.53-1.06l.62.06C314.52,62,363.64,53.5,369,52.54l.43-.08h.05l0,.19Z"/></g></g></svg>