<?xml version="1.0" encoding="utf-8"?>
<!-- Generator: Adobe Illustrator 24.0.1, SVG Export Plug-In . SVG Version: 6.00 Build 0)  -->
<svg version="1.1" id="Calque_1" xmlns="http://www.w3.org/2000/svg" xmlns:xlink="http://www.w3.org/1999/xlink" x="0px" y="0px"
	 viewBox="0 0 644.1 481.5" style="enable-background:new 0 0 644.1 481.5;" xml:space="preserve">
<style type="text/css">
	.st0{opacity:0.1;fill:#FF7700;enable-background:new    ;}
	.st1{fill:#3F3D56;}
	.st2{fill:#FF7700;}
	.st3{fill:none;stroke:#3F3D56;stroke-miterlimit:10;}
	.st4{fill:#FFB6B6;}
	.st5{fill:#F0F0F0;}
	.st6{fill:#2F2E41;}
</style>
<g>
	<path class="st0" d="M640.1,447.4c0,2.6-2.4,5.2-6.9,7.6c-23,12.4-100.8,21.5-193.4,21.5c-3.6,0-7.3,0-10.8,0
		c-105.5-0.8-189.4-13.5-189.4-29c0-16,89.6-29,200.2-29c30.3,0,59,1,84.7,2.7c6.5,0.4,12.7,0.9,18.8,1.5c2.5,0.2,5,0.4,7.5,0.7
		c11.6,1.1,22.3,2.4,32,3.8c4.7,0.7,9.2,1.4,13.4,2.2c11,2,20.2,4.2,27.3,6.5C634.1,439.4,640.1,443.3,640.1,447.4z"/>
	<path class="st0" d="M407.3,300.4c0,10.6-89.6,19.1-200.2,19.1c-18.3,0-36-0.2-52.8-0.7c-64.9-1.7-116.6-6.4-137.5-12.5
		c-6.5-1.9-9.9-3.9-9.9-6c0-2.4,4.6-4.7,12.9-6.8c4.9-1.2,11-2.4,18.3-3.5c0.1,0,0.1,0,0.2,0c16.7-2.5,39.3-4.6,65.9-6.1
		c30.1-1.7,65.2-2.7,102.8-2.7C317.7,281.3,407.3,289.9,407.3,300.4z"/>
	<path class="st1" d="M398.2,206.5l-14.6-4.1c0,0-5.7-1.1-2.2-12.3c3.5-11.2,10.4-8.1,10.4-8.1l13,3.8l5.1,1.6l-7.2,10.1l-0.6,6.7
		L398.2,206.5z"/>
	<polygon class="st1" points="426.5,176.9 431.1,195.3 407.6,218 405.6,218.6 400.2,217 395.6,198.7 400.2,193.8 395.5,192.6 
		405.6,182.7 410.9,183.9 415.1,179.6 412.3,178.5 412,177.4 415.5,174.7 	"/>
	<polygon class="st2" points="404.5,202.8 407.5,214.9 421.5,201.7 418,189.4 	"/>
	<polygon class="st3" points="426.5,176.9 427.1,179.5 403.8,202.3 401.7,202.8 396.5,201.3 396.2,201.3 395.6,198.7 400.2,193.8 
		395.5,192.6 405.6,182.7 410.9,183.9 415.1,179.6 412.3,178.5 412,177.4 415.5,174.7 	"/>
	
		<ellipse transform="matrix(0.9701 -0.2429 0.2429 0.9701 -30.4729 106.2558)" class="st2" cx="415.7" cy="176.7" rx="1.9" ry="1.3"/>
	
		<ellipse transform="matrix(0.9701 -0.2429 0.2429 0.9701 -35.6801 103.2368)" class="st2" cx="400.9" cy="196.3" rx="1.9" ry="1.3"/>
	<path class="st4" d="M388.5,229.3l3.2-10.8c0,0-8.3-19.8,1.3-21.7c9.6-1.9,10.2,18.5,10.2,18.5l-3.8,12.1L388.5,229.3z"/>
	<circle class="st4" cx="447.7" cy="182.9" r="25.3"/>
	<path class="st4" d="M439.5,200.8c0,0-1.5,18.6-5.2,20.1c-3.7,1.5,40.2,11.9,40.2,11.9l-11.2-12.7c0,0-2.2-19.4,3-23.8L439.5,200.8
		z"/>
	<path class="st5" d="M403.8,223.6l-10.2-1.3c0,0-12.1,6.4-12.1,14.7c0,8.3-7,21.7-7,21.7s-5.1,17.9,6.4,19.1
		c11.5,1.3,21.7-19.1,21.7-19.1L403.8,223.6z"/>
	<path class="st6" d="M398.1,325c0,0-22.3-21-28.7-19.8c-6.4,1.3-19.1,3.2-19.1,12.8s21,31.9,21,31.9s15.9,35.1,31.2,36.3
		c10.1,0.9,20.1,2.4,30,4.5c0,0-7,25.5-3.2,32.5c3.8,7,18.5,15.3,19.8,14.7c1.3-0.6,19.1-17.2,26.8-40.8
		c7.7-23.6,12.8-41.4,5.7-42.7C474.6,353,398.1,325,398.1,325z"/>
	<path class="st6" d="M352.2,316c0,0-4.5-0.6-3.8,10.2c0.6,10.8,2.6,49.7,5.7,57.4c3.2,7.7,3.8,16.6,2.6,19.8
		c-1.3,3.2-3.8,8.3,0.6,8.9c4.5,0.6,23-1.9,24.9-2.6s3.8-11.5,2.6-11.5c-1.3,0-4.5-0.6-3.2-5.1c1.3-4.5,1.9-4.5,0-5.7
		c-1.9-1.3-7-3.2-5.7-4.5c1.3-1.3,2.6-31.2,2.6-31.2L352.2,316z"/>
	<path class="st6" d="M358.6,410.4c0,0-10.8-3.2-12.1,3.8c0,0-1.9,10.8,6.4,14.7c5.3,2.5,10.5,5.5,15.3,8.9c0,0,13.4,5.1,14-1.3
		c0.6-6.4-2.6-29.3-2.6-29.3L358.6,410.4z"/>
	<path class="st6" d="M430.6,418.1l20.4-16.6c0,0-3.8,20.4,1.3,24.2l2.3,6.8l-6.5,5.3C448.1,437.9,428.1,434.6,430.6,418.1z"/>
	<path class="st6" d="M459.3,390c0,0-13.4,3.8-11.5,17.2c1.9,13.4,4.4,27.9,4.4,27.9s0.7,35.8,10.3,38.4s12.1-2.6,12.1-2.6
		s10.9-28,7.7-36.3c-3.9-10.1-9.5-21.5-7.7-24.9C476.4,406.4,473.3,388.1,459.3,390z"/>
	<path class="st5" d="M467,214c0,0-5.1,0.6-13.4,1.9c-8.3,1.3-14-5.1-18.5-3.8c-4.5,1.3-41.4,10.2-41.4,10.2l5.7,44
		c0,0-7,51-5.7,59.9c1.3,8.9-15.3,7.7-5.7,18.5c9.6,10.8,26.1,20.4,59.9,17.2s38.3-2.6,38.3-7.7c0-5.1-7.7-48.5-5.1-52.3
		c2.6-3.8,7.7-8.3,5.1-12.8s-5.1-7-1.3-10.8s5.7-7.7,5.7-9.6s8.9-33.2,8.9-33.2s-3.8-15.3-8.3-15.9c-4.5-0.6-8.3-3.8-11.5-3.8
		c-3.2,0-5.1,0.6-7,0L467,214z"/>
	<path class="st6" d="M411.3,178.4c2.9-0.4,6-2.1,7.6-3.2c1.9,1.8,13.2,12.1,32.8,15.1c0,0,0-0.4,0.2-1l6.7,1.1l12.4-1.2
		c-0.1,0.2-0.1,0.3-0.1,0.3s1.8-0.5,2.4-4.5c0.1-0.8,0.3-1.5,0.4-2.3c1-4.6,3.4-21-10.3-31.9c-10-8-21.5-5.5-28.8-2.4
		c-6,2.5-10.7,7.3-13.1,13.3c-0.6,1.5-1,3.1-1.2,4.7l-0.3,0.8c-2.2,0.3-6.7-1.6-9-0.7c-3.3,1.2-4.9,6.1-5.2,7.6
		C405.5,175.5,407,178.9,411.3,178.4z M453.6,183c1.8-4.5,5.1-9.5,11.2-9.3c6.3,0.3,7.5,5.3,7.2,9.6l-15.8,0.6L453.6,183z"/>
	<ellipse transform="matrix(0.1682 -0.9857 0.9857 0.1682 232.2709 567.3586)" class="st6" cx="452.3" cy="146" rx="1.1" ry="2.8"/>
	<circle class="st2" cx="243.5" cy="19.9" r="16.6"/>
	<path class="st6" d="M216.1,125.2c-0.1-0.2-5.6-22.7-6.6-46.3c-0.6-13.9,0.6-25.5,3.3-34.5c3.5-11.3,9.7-18.5,18.3-21.4l0.4,1.2
		c-18.7,6.1-21.6,33.1-20.8,54.6c0.9,23.5,6.5,45.8,6.5,46L216.1,125.2z"/>
	<path class="st1" d="M286.5,250.6c-8.8,11.6,1.3,34.1,1.3,34.1s24.4,3.8,33.2-7.8c8.8-11.6-1.3-34.1-1.3-34.1
		S295.3,239.1,286.5,250.6z"/>
	<path class="st1" d="M118.8,269.5c7.3,8.5,25.9,4.5,25.9,4.5s6.8-17.8-0.5-26.3c-7.3-8.5-25.9-4.5-25.9-4.5S111.6,261,118.8,269.5z
		"/>
	<path class="st6" d="M318.4,300.3c-71.3-38.8-127.5-36.7-162.1-28.2c-37.4,9.3-58.3,27.9-58.5,28.1l-0.9-0.9
		c0.2-0.2,21.3-19,59-28.4c22.2-5.5,45.6-6.7,69.8-3.5c30.2,3.9,61.5,14.6,93.2,31.8L318.4,300.3z"/>
	<rect x="207.4" y="186.3" class="st6" width="1.3" height="80.1"/>
	<circle class="st1" cx="208.4" cy="209.2" r="45.9"/>
	<circle class="st1" cx="208.4" cy="132.1" r="34.4"/>
	<circle class="st1" cx="208.4" cy="74.7" r="26.8"/>
</g>
</svg>
