<svg xmlns="http://www.w3.org/2000/svg" xmlns:xlink="http://www.w3.org/1999/xlink" viewBox="0 0 508.58 220.77"><defs><style>.cls-1,.cls-5{fill:none;}.cls-2{fill:#231f20;}.cls-3{opacity:0.19;fill:url(#_30_10_ppp);}.cls-4,.cls-6{fill:#556270;}.cls-5{stroke:#556270;stroke-miterlimit:10;}.cls-6{font-size:16.42px;font-family:LucidaSansUnicode, Lucida Sans Unicode;}</style><pattern id="_30_10_ppp" data-name="30 % 10 ppp" width="28.8" height="28.8" patternTransform="translate(37.07 -6.48) rotate(11.73) scale(0.47)" patternUnits="userSpaceOnUse" viewBox="0 0 28.8 28.8"><rect class="cls-1" width="28.8" height="28.8"/><circle class="cls-2" cx="28.8" cy="28.8" r="2.16"/><circle class="cls-2" cx="14.4" cy="28.8" r="2.16"/><circle class="cls-2" cx="28.8" cy="14.4" r="2.16"/><circle class="cls-2" cx="14.4" cy="14.4" r="2.16"/><circle class="cls-2" cx="7.2" cy="21.6" r="2.16"/><circle class="cls-2" cx="21.6" cy="21.6" r="2.16"/><circle class="cls-2" cx="7.2" cy="7.2" r="2.16"/><circle class="cls-2" cx="21.6" cy="7.2" r="2.16"/><circle class="cls-2" cy="28.8" r="2.16"/><circle class="cls-2" cy="14.4" r="2.16"/><circle class="cls-2" cx="28.8" r="2.16"/><circle class="cls-2" cx="14.4" r="2.16"/><circle class="cls-2" r="2.16"/></pattern></defs><title>illustration2</title><g id="Calque_2" data-name="Calque 2"><g id="BODY"><g id="_1" data-name="1"><polygon class="cls-3" points="366.14 53.33 428.31 218.17 502.44 217.85 366.14 53.33"/><polygon class="cls-4" points="426.81 215.35 366.14 53.33 428.54 220.08 426.81 215.35"/><path class="cls-4" d="M366.18,53.31l62.59,165.84-.47-.32c6.43,0,12.86,0,19.29,0l19.29.11,19.29.11,19.29.2v.1l-19.29.2-19.29.11-19.29.11c-6.43.05-12.86,0-19.29,0H428l-.12-.32L366.09,53.35Z"/><path class="cls-4" d="M0,219.39,120.42,77l.38-.44.38.44,37.29,43.27h-.92L256.81.78l.65-.78.66.77,54.05,63.06,13.56,15.72,6.81,7.82c.57.64,1.15,1.31,1.71,1.89l.08.08,0,0c.29.31-.18-.58-1.35.11l0,0,0,0,.21-.24.43-.49.86-1,3.43-3.9,27.43-31.21.84-1,.82,1L506.58,218.4l2,2.37H378.75l-63.38-.08-63.29-.25Zm.27-.13,253.24-1.05,63-.25,63-.08H505.47l-1.11,2.37L365.3,54l1.65,0L339.47,85.16,336,89l-.86,1-.43.49-.21.24-.1.11c-1.2.68-1.69-.23-1.42.06l-.08-.07-.15-.15c-.63-.67-1.18-1.31-1.76-2l-6.81-7.85L310.69,65.11,256.82,1.89h1.31L158.47,121.06l-.46.55-.46-.54L120.43,77.65h.76Z"/><polygon class="cls-3" points="120.8 77.33 142.76 137.98 158.65 120.94 120.8 77.33"/><line class="cls-5" x1="226.14" y1="219.33" x2="304.72" y2="125.67"/><line class="cls-5" x1="143.55" y1="136.62" x2="73.47" y2="219.33"/><text class="cls-6" transform="matrix(0.97, 0, -0.22, 0.97, 216.7, 76.83)">PIWIGO</text><path class="cls-4" d="M120.85,77.31,132,107.37l5.57,15c1.86,5,3.74,10,5.52,15.05l-.85-.17,7.79-8.39q3.92-4.17,7.92-8.27l.07.07q-3.69,4.38-7.46,8.69L143,138l-.55.63-.29-.79c-1.86-5-3.62-10.06-5.4-15.1l-5.35-15.12L120.76,77.35Z"/><polygon class="cls-3" points="257.47 1.33 302.8 127.91 335.06 90.13 257.47 1.33"/><path class="cls-4" d="M257.52,1.31l22.92,63.2,11.44,31.61,11.39,31.63-.85-.16c2.54-3,5.15-6,7.72-8.93l7.74-8.91,7.74-8.91,7.8-8.85.08.06-7.52,9.1-7.59,9-7.59,9c-2.54,3-5,6-7.61,9l-.56.65-.29-.81L291.06,96.41,279.83,64.73,257.42,1.35Z"/></g></g></g></svg>