<?xml version="1.0" encoding="utf-8"?>
<!-- Generator: Adobe Illustrator 24.0.1, SVG Export Plug-In . SVG Version: 6.00 Build 0)  -->
<svg version="1.1" id="Calque_1" xmlns="http://www.w3.org/2000/svg" xmlns:xlink="http://www.w3.org/1999/xlink" x="0px" y="0px"
	 viewBox="0 0 1532 121.1" style="enable-background:new 0 0 1532 121.1;" xml:space="preserve">
<style type="text/css">
	.st0{opacity:0.5;}
	.st1{clip-path:url(#SVGID_2_);fill:#FFEDCF;}
</style>
<g class="st0">
	<g>
		<defs>
			<rect id="SVGID_1_" x="-3.4" y="-12.3" width="1539.4" height="134.1"/>
		</defs>
		<clipPath id="SVGID_2_">
			<use xlink:href="#SVGID_1_"  style="overflow:visible;"/>
		</clipPath>
		<path class="st1" d="M1684.5,358.2c-36.3-33.6-132-40-158.1-76.4c-14.4-20-2-43,16.3-62.3c39.1-41.4,106.4-78.5,107.5-124.9
			c0.8-31.8-34.2-62.9-86.5-76.7c-54.8-14.5-129.5-10.8-167.9,16.2c-39.5,27.8-110.9,39.8-172.7,39.9c-70,0.1-137.4-12.9-201.8-27.3
			C964.6,34,908.3,20,848.8,12.1c-7.7-1.6-15.8-2.9-24.3-3.8c-12.1-1.2-24.9-1.7-37.9-1.4c-33.2-0.7-66.4,2.7-91.4,14.3
			c-6.3,2.9-11.8,6.2-16.5,9.7c-4.3,2.4-8.2,5-11.6,7.7c-32.6,26.1-98.6,43-157.6,49.5c-66.8,7.4-133.6,4.2-197.8-0.4
			s-128.2-10.6-195.1-8.8c-43,1.2-90.9,6.7-120.9,22.9c-28.9,15.6-33.4,36.6-33.5,55.6c-0.1,14.3,1.8,29.1,17.3,40.4
			c10.7,7.9,27.3,13.5,39.8,20.8c43.4,25.3,30.2,65.2,1.7,99c-13.4,15.9-29.7,31.5-38.8,47.8s-10.3,33.7,6,47
			c16.1,13.4,47.3,20.8,79.8,24.7c66.1,7.8,139.6,3,210.8-3.6c110.2-10.2,219.5-24.4,328.5-39.8c1.3,3.8,3.2,7.5,5.8,11.1
			c13.3,18.5,43.4,31.9,75.7,41.1c65.5,18.6,141.9,22.6,216.1,24.2c164.4,3.4,329.1-3.5,493.4-10.5c60.8-2.6,121.9-5.2,181.4-12.6
			c33.1-4.1,67.1-10.3,90.5-23.7C1700,406.1,1706.1,378.2,1684.5,358.2z"/>
	</g>
</g>
</svg>
