<?xml version="1.0" encoding="utf-8"?>
<!-- Generator: Adobe Illustrator 24.0.2, SVG Export Plug-In . SVG Version: 6.00 Build 0)  -->
<svg version="1.1" id="Calque_1" xmlns="http://www.w3.org/2000/svg" xmlns:xlink="http://www.w3.org/1999/xlink" x="0px" y="0px"
	 viewBox="0 0 1532 85" style="enable-background:new 0 0 1532 85;" xml:space="preserve">
<style type="text/css">
	.st0{clip-path:url(#SVGID_2_);fill:#FFEACF;}
</style>
<g>
	<g>
		<defs>
			<rect id="SVGID_1_" x="-5" y="-1.2" width="1540" height="235.8"/>
		</defs>
		<clipPath id="SVGID_2_">
			<use xlink:href="#SVGID_1_"  style="overflow:visible;"/>
		</clipPath>
		<path class="st0" d="M618.4,34.2c114.6,0,225,8.7,330.5,18.4s210.3,20.6,322.8,25.2c72.4,3,154.6,2.7,211.2-8.1
			c54.4-10.3,70.2-27.4,77.8-43.2c5.7-11.9,8.4-24.4-13.1-35.2c-14.9-7.5-40.3-13.8-58.3-21c-62.6-25-25-57,35.9-82.6
			c28.5-12,62-23.5,83.5-36.2c21.6-12.7,30.4-27.1,8.4-39.6c-21.8-12.4-71.1-21.4-123.9-27.6c-107.3-12.5-232.3-15.2-354-16.3
			c-269.2-2.3-539,2.4-808,7.1c-99.6,1.7-199.6,3.5-297.1,8.5c-54.1,2.8-109.9,6.9-148.3,16c-48.7,11.5-58.7,30.2-23.2,43.7
			c59.5,22.6,216.2,26.9,258.9,51.3c23.5,13.5,3.2,28.9-26.6,41.9C30.9-35.7-79.3-10.8-81.2,20.4C-82.5,41.8-25.1,62.7,60.5,72
			c89.7,9.7,212.1,7.2,275-10.9C400.1,42.3,517.1,34.2,618.4,34.2z"/>
	</g>
</g>
</svg>
