<svg xmlns="http://www.w3.org/2000/svg" viewBox="0 0 23.15 23.15"><defs><style>.cls-1{fill:#f70;}</style></defs><title>google</title><g id="Calque_2" data-name="Calque 2"><g id="BODY"><g id="_1" data-name="1"><path class="cls-1" d="M11.57,0A11.58,11.58,0,1,0,23.15,11.57,11.57,11.57,0,0,0,11.57,0Zm.82,15.23A4.7,4.7,0,0,1,7.24,16.6,4.78,4.78,0,1,1,12,8.5c-.39.43-.79.86-1.21,1.25A3.36,3.36,0,0,0,7.95,9.2,3,3,0,0,0,6,13.06a3,3,0,0,0,4,1.81,2.63,2.63,0,0,0,1.56-1.8c-.91,0-1.83,0-2.73,0,0-.54,0-1.08,0-1.62h4.57A5.41,5.41,0,0,1,12.39,15.23ZM19,12.77H17.68c0,.46,0,.91,0,1.37H16.32c0-.46,0-.91,0-1.36l-1.36,0V11.41h1.36c0-.46,0-.91,0-1.36h1.36c0,.46,0,.91,0,1.36H19Z"/></g></g></g></svg>