<svg xmlns="http://www.w3.org/2000/svg" xmlns:xlink="http://www.w3.org/1999/xlink" viewBox="0 0 177.03 175.37"><defs><style>.cls-1{fill:none;}.cls-2{opacity:0.29;}.cls-3{clip-path:url(#clip-path);}.cls-4{opacity:0.43;}.cls-5{fill:#fff;}</style><clipPath id="clip-path" transform="translate(-10.03 -24.46)"><rect class="cls-1" width="106.87" height="226"/></clipPath></defs><title>newspaper_transparent2</title><g id="Calque_2" data-name="Calque 2"><g id="BODY"><g id="_1" data-name="1"><g class="cls-2"><g class="cls-3"><g class="cls-4"><path class="cls-5" d="M173.37,103.58l-26.16,3.86L135.64,29a5.29,5.29,0,0,0-6-4.46l-115.08,17a5.29,5.29,0,0,0-4.46,6L29.9,181.76a21.17,21.17,0,0,0,24,17.84l115.08-17a21.17,21.17,0,0,0,17.84-24L179.37,108A5.29,5.29,0,0,0,173.37,103.58ZM34.1,65.33a5.29,5.29,0,0,1,4.46-6L69.95,54.7a5.29,5.29,0,0,1,6,4.46L82.13,101a5.29,5.29,0,0,1-4.46,6l-31.39,4.63a5.29,5.29,0,0,1-6-4.46ZM87.44,173.27,56.06,177.9a5.29,5.29,0,1,1-1.54-10.46l31.39-4.63a5.29,5.29,0,1,1,1.54,10.46Zm-3.09-20.92L53,157a5.29,5.29,0,1,1-1.54-10.46l31.39-4.63a5.29,5.29,0,1,1,1.54,10.46Zm44.94,14.75-20.92,3.09a5.29,5.29,0,0,1-1.54-10.46l20.92-3.09a5.29,5.29,0,1,1,1.54,10.46Zm-3.09-20.92-20.92,3.09a5.29,5.29,0,1,1-1.54-10.46l20.92-3.09a5.29,5.29,0,1,1,1.54,10.46Zm-3.09-20.92-73.24,10.8a5.29,5.29,0,1,1-1.54-10.46l73.24-10.8a5.29,5.29,0,1,1,1.54,10.46Zm-3.6-24.41-20.92,3.09A5.29,5.29,0,0,1,97,93.46L118,90.37a5.29,5.29,0,1,1,1.54,10.46Zm-3.09-20.92L95.5,83A5.29,5.29,0,1,1,94,72.54l20.92-3.09a5.29,5.29,0,1,1,1.54,10.46ZM113.34,59,92.42,62.08a5.29,5.29,0,1,1-1.54-10.46l20.92-3.09A5.29,5.29,0,1,1,113.34,59Zm63,101.16a10.58,10.58,0,1,1-20.92,3.09l-6.69-45.34,20.92-3.09,6.69,45.34Z" transform="translate(-10.03 -24.46)"/><rect class="cls-5" x="47.54" y="67.31" width="21.15" height="31.73" transform="translate(-21.55 -15.08) rotate(-8.39)"/></g></g></g></g></g></g></svg>