<svg xmlns="http://www.w3.org/2000/svg" viewBox="0 0 24.18 24.72"><defs><style>.cls-1{fill:#f70;}</style></defs><title>newspaper</title><g id="Calque_2" data-name="Calque 2"><g id="BODY"><g id="_1" data-name="1"><path class="cls-1" d="M23.38,12.9h-4V.81A.81.81,0,0,0,18.54,0H.81A.81.81,0,0,0,0,.81V21.5a3.23,3.23,0,0,0,3.22,3.22H21a3.23,3.23,0,0,0,3.22-3.22V13.7A.81.81,0,0,0,23.38,12.9ZM3.22,23.11A1.61,1.61,0,0,1,1.61,21.5V1.61H17.74V21.5a3.2,3.2,0,0,0,.43,1.61H3.22ZM22.57,21.5a1.61,1.61,0,0,1-3.22,0v-7h3.22v7Z"/><path class="cls-1" d="M8.87,3.22H4A.81.81,0,0,0,3.22,4v6.45a.81.81,0,0,0,.81.81H8.87a.81.81,0,0,0,.81-.81V4A.81.81,0,0,0,8.87,3.22ZM8.06,9.67H4.84V4.84H8.06Z"/><path class="cls-1" d="M15.32,13.44H4A.81.81,0,1,0,4,15H15.32a.81.81,0,1,0,0-1.61Z"/><path class="cls-1" d="M8.87,16.66H4a.81.81,0,1,0,0,1.61H8.87a.81.81,0,1,0,0-1.61Z"/><path class="cls-1" d="M8.87,19.89H4A.81.81,0,1,0,4,21.5H8.87a.81.81,0,1,0,0-1.61Z"/><path class="cls-1" d="M15.32,16.66H12.09a.81.81,0,1,0,0,1.61h3.22a.81.81,0,1,0,0-1.61Z"/><path class="cls-1" d="M15.32,19.89H12.09a.81.81,0,1,0,0,1.61h3.22a.81.81,0,1,0,0-1.61Z"/><path class="cls-1" d="M15.32,3.22H12.09a.81.81,0,1,0,0,1.61h3.22a.81.81,0,1,0,0-1.61Z"/><path class="cls-1" d="M15.32,6.45H12.09a.81.81,0,1,0,0,1.61h3.22a.81.81,0,1,0,0-1.61Z"/><path class="cls-1" d="M15.32,9.67H12.09a.81.81,0,1,0,0,1.61h3.22a.81.81,0,1,0,0-1.61Z"/></g></g></g></svg>