<svg xmlns="http://www.w3.org/2000/svg" viewBox="0 0 30.89 25.74"><defs><style>.cls-1{fill:#f70;}</style></defs><title>pig</title><g id="Calque_2" data-name="Calque 2"><g id="BODY"><g id="_1" data-name="1"><g id="Icon"><path class="cls-1" d="M19.31,5.89a12.25,12.25,0,0,0-4.2.19.64.64,0,0,0,.14,1.27h.14a10.94,10.94,0,0,1,3.76-.17.64.64,0,1,0,.17-1.27Z"/><path class="cls-1" d="M24,9.22a.64.64,0,0,0-.25.87l.14.28A.64.64,0,1,0,25,9.82l-.18-.34A.64.64,0,0,0,24,9.22Z"/><path class="cls-1" d="M24.95,11.36a.64.64,0,0,0-.55.73,5.73,5.73,0,0,1-1.16,4.32.64.64,0,1,0,1,.79,7,7,0,0,0,1.42-5.29A.64.64,0,0,0,24.95,11.36Z"/><path class="cls-1" d="M29,10.94a1.9,1.9,0,0,0-.78.17A8.61,8.61,0,0,0,25.33,6,11.38,11.38,0,0,0,19.55,3.4a2.57,2.57,0,1,0-4.86,0,14.91,14.91,0,0,0-3.1.84L8.32,1.44a.64.64,0,0,0-1.06.42L6.82,6.15a7.31,7.31,0,0,0-3.61,4.66C2.89,12,2.69,12.07,2,12.12A2.16,2.16,0,0,0,.29,13a2.18,2.18,0,0,0-.13,1.94l.75,2.32c.35,1.09,1,1.32,1.49,1.32h.72a8,8,0,0,0,5.22,3.18c-.06.83-.18,1.81-.29,2.69H6.4a.64.64,0,1,0,0,1.29h6.86a.64.64,0,1,0,0-1.29H13l.4-1.36a12.73,12.73,0,0,0,5.11-.35l0,.21a15.41,15.41,0,0,1,.15,2.13.64.64,0,0,0,.64.66h6a.64.64,0,1,0,0-1.29H23.88a17.88,17.88,0,0,1,2.43-5.69,9.55,9.55,0,0,0,2-5.89.63.63,0,1,1,1.27,0,.65.65,0,0,1-.19.46.64.64,0,1,0,.91.91A1.93,1.93,0,0,0,29,10.94ZM17.11,1.29a1.29,1.29,0,1,1-1.29,1.29A1.29,1.29,0,0,1,17.11,1.29ZM25.29,18a19.34,19.34,0,0,0-2.73,6.48H20c0-.58-.09-1.14-.15-1.65,0-.33-.07-.64-.1-.92a.64.64,0,0,0-.81-.57,11.8,11.8,0,0,1-5.83.42.64.64,0,0,0-.75.45l-.67,2.27H9.34c.13-1.06.26-2.25.31-3.15a.64.64,0,0,0-.49-.66c-2.24-.55-3.6-.88-5.2-3.08a.64.64,0,0,0-.52-.26h-1c-.09,0-.2-.23-.26-.43l-.75-2.32a1,1,0,0,1,0-.83,1,1,0,0,1,.78-.3c1.47-.12,1.95-.89,2.32-2.26a6.06,6.06,0,0,1,3.27-4,.64.64,0,0,0,.34-.51l.34-3.39L11,5.5a.64.64,0,0,0,.67.11,13.91,13.91,0,0,1,3.82-1,2.57,2.57,0,0,0,3.17,0C22.79,5,27,7.43,27,12.87A8.27,8.27,0,0,1,25.29,18Z"/><path class="cls-1" d="M7.69,10.29a.64.64,0,1,0,.64.64A.64.64,0,0,0,7.69,10.29Z"/><path class="cls-1" d="M17.21,24.45h-.6a.64.64,0,0,0,0,1.29h.6a.64.64,0,0,0,0-1.29Z"/></g></g></g></g></svg>