<svg xmlns="http://www.w3.org/2000/svg" viewBox="0 0 23.02 23.02"><defs><style>.cls-1{fill:#f70;}</style></defs><title>twitter</title><g id="Calque_2" data-name="Calque 2"><g id="BODY"><g id="_1" data-name="1"><path class="cls-1" d="M11.51,0A11.51,11.51,0,1,0,23,11.51,11.51,11.51,0,0,0,11.51,0Zm5.68,9.7c0,.12,0,.24,0,.36a7.82,7.82,0,0,1-12,6.58,4.52,4.52,0,0,0,.66,0A5.51,5.51,0,0,0,9.22,15.5a2.74,2.74,0,0,1-2.57-1.91,2.8,2.8,0,0,0,1.24,0,2.75,2.75,0,0,1-2.21-2.69,0,0,0,0,1,0,0,2.82,2.82,0,0,0,1.24.34A2.77,2.77,0,0,1,5.71,8.87a2.67,2.67,0,0,1,.38-1.38,7.81,7.81,0,0,0,5.67,2.87,2.67,2.67,0,0,1-.07-.63A2.74,2.74,0,0,1,14.44,7a2.72,2.72,0,0,1,2,.87,5.49,5.49,0,0,0,1.75-.67A2.79,2.79,0,0,1,17,8.71a5.67,5.67,0,0,0,1.58-.43A5.62,5.62,0,0,1,17.19,9.7Z"/></g></g></g></svg>