<svg xmlns="http://www.w3.org/2000/svg" viewBox="0 0 150.15 174.2"><defs><style>.cls-1{fill:#fff;opacity:0.44;}</style></defs><title>banner_start2</title><g id="Calque_2" data-name="Calque 2"><g id="BODY"><g id="_1" data-name="1"><rect class="cls-1" x="108.21" y="8.85" width="34.6" height="13.4" transform="translate(14.6 76.32) rotate(-35.78)"/><rect class="cls-1" x="117.11" y="24.98" width="34.6" height="5.84" transform="matrix(0.81, -0.58, 0.58, 0.81, 9.06, 83.85)"/><path class="cls-1" d="M118.34,122.17a7.54,7.54,0,0,0-10.53-1.71l8.4-6.05a7.54,7.54,0,1,0-8.82-12.24l1.87-1.35A7.54,7.54,0,0,0,106,87.25a7.57,7.57,0,0,0-5.63,1.33l5-3.6,10.94-7.88A7.55,7.55,0,0,0,118,66.51l-3.24-4.43L69.66,94.62a12.27,12.27,0,0,1-9.18,2.21,12.79,12.79,0,0,1-3.41-1.07A12.25,12.25,0,0,1,50,85.3c-.19-3.31.66-11.07,1.86-17.72a5.29,5.29,0,0,0-4.45-6.2h-.06a7.59,7.59,0,0,0-8.53,6L33.39,94.09A45.92,45.92,0,0,0,37.46,124L0,166.29l48.68,7.9,14.66-16.07a46.74,46.74,0,0,0,14.26-1.37l1.62-.44a47.1,47.1,0,0,0,14.37-7l8.36-6,14.66-10.57A7.54,7.54,0,0,0,118.34,122.17ZM104.13,22.53l-6.05-8.4L60.24,41.4c1.88,2.6,3.37,8.49,3.37,8.49L47.1,45,37.49,52l10.74,1.74,12.45,9A18.69,18.69,0,0,1,56,67.52l-.06,0C54.73,74,53.82,81.94,54,85.06a8.41,8.41,0,0,0,13.31,6.31l56.89-41Zm-21,40.14,9.4-6.77a2.8,2.8,0,1,0-3.27-4.55l-9.4,6.78-3.21-4.45L86,46.91a2.8,2.8,0,1,0-3.27-4.55l-9.41,6.77-2.61-3.64L96.66,26.82l15.91,22.07L86.65,67.56Z"/></g></g></g></svg>