<svg xmlns="http://www.w3.org/2000/svg" viewBox="0 0 240.51 281.27"><defs><style>.cls-1{fill:#fff;opacity:0.44;}</style></defs><title>banner_documentation</title><g id="Calque_2" data-name="Calque 2"><g id="BODY"><g id="_1" data-name="1"><path class="cls-1" d="M65.1,0,0,246l133.38,35.3,53.16-30.91,54-203.94Zm95.75,52.64,44.4,11.75a5.28,5.28,0,1,1-2.7,10.21l-44.4-11.75a5.28,5.28,0,0,1,2.7-10.21ZM123.91,66.35l75.53,20a5.28,5.28,0,1,1-2.7,10.21l-75.53-20a5.28,5.28,0,1,1,2.7-10.21ZM88.9,33.6l14.8,3.92A5.28,5.28,0,1,1,101,47.72L86.2,43.81A5.28,5.28,0,0,1,88.9,33.6ZM70.13,95.25,189,126.72a5.28,5.28,0,1,1-2.7,10.21L67.43,105.46a5.28,5.28,0,1,1,2.7-10.21ZM65.54,112.6l118.9,31.47a5.28,5.28,0,1,1-2.7,10.21L62.83,122.81a5.28,5.28,0,1,1,2.7-10.21Zm-5,18.88,118.9,31.47a5.28,5.28,0,1,1-2.7,10.21L57.84,141.69a5.28,5.28,0,1,1,2.7-10.21ZM178.6,186.76a5.27,5.27,0,0,1-6.45,3.76l-2.81-.74a5.28,5.28,0,1,1,2.7-10.21l2.81.74A5.27,5.27,0,0,1,178.6,186.76ZM52.59,238A24.08,24.08,0,1,1,82,220.93,24.1,24.1,0,0,1,52.59,238Zm71.14.26-28.07-7.43a5.27,5.27,0,0,1,2.7-10.2l28.07,7.43a5.27,5.27,0,1,1-2.7,10.2ZM151.48,185,53.24,159a5.28,5.28,0,1,1,2.7-10.21l98.24,26a5.28,5.28,0,0,1-2.7,10.21ZM62.21,201.7a13.52,13.52,0,1,0,9.61,16.53A13.53,13.53,0,0,0,62.21,201.7Z"/></g></g></g></svg>