<svg xmlns="http://www.w3.org/2000/svg" viewBox="0 0 260.95 187.42"><defs><style>.cls-1{fill:#fff;opacity:0.44;}</style></defs><title>banner_forum</title><g id="Calque_2" data-name="Calque 2"><g id="BODY"><g id="_1" data-name="1"><path class="cls-1" d="M116.65,0H6.66C3,0,0,4.68,0,10.45V47.58C0,53.35,3,58,6.66,58h12a3.9,3.9,0,0,1,2.57,1L40.37,75.6a3.92,3.92,0,0,0,6.49-3V61.94A3.92,3.92,0,0,1,50.78,58h65.87c3.68,0,6.66-4.68,6.66-10.45V10.45C123.31,4.68,120.34,0,116.65,0ZM15.34,17.41h46.5a3.87,3.87,0,1,1,0,7.74H15.34a3.87,3.87,0,0,1,0-7.74Zm93.51,23.21H13.73c-1.25,0-2.26-1.73-2.26-3.87s1-3.87,2.26-3.87h95.12c1.25,0,2.26,1.73,2.26,3.87S110.1,40.62,108.85,40.62Z"/><path class="cls-1" d="M67,83.45v58.39c0,9.08,4.68,16.43,10.48,16.43h103.6a6.16,6.16,0,0,1,6.16,6.16v16.82a6.16,6.16,0,0,0,10.2,4.65l30.1-26.12a6.14,6.14,0,0,1,4-1.51h18.88c5.79,0,10.48-7.35,10.48-16.43V83.45C261,74.38,256.27,67,250.47,67H77.5C71.7,67,67,74.38,67,83.45Zm175.89,17a6.09,6.09,0,0,1-6.08,6.08H163.7a6.08,6.08,0,1,1,0-12.17h73.13A6.09,6.09,0,0,1,242.91,100.48ZM86.21,124.81c0-3.36,1.59-6.08,3.56-6.08H239.35c2,0,3.56,2.72,3.56,6.08s-1.59,6.08-3.56,6.08H89.76C87.8,130.9,86.21,128.18,86.21,124.81Z"/></g></g></g></svg>