<svg width="529" height="312" viewBox="0 0 529 312" fill="none" xmlns="http://www.w3.org/2000/svg">
<path d="M514.428 270.817H37.6397C26.9929 115.24 151.809 107.549 220.428 168.479C260.8 204.326 326.908 227.648 449.95 176.761C545.781 137.127 534.344 236.507 514.428 270.817Z" fill="#E0EDFC"/>
<g clip-path="url(#clip0_447_2032)">
<path d="M312.234 276.37C307.505 272.377 304.632 266.069 305.386 259.928C306.139 253.787 310.805 248.142 316.857 246.838C322.909 245.534 329.808 249.143 331.647 255.051C332.658 243.661 333.824 231.794 339.884 222.094C345.371 213.311 354.876 207.026 365.176 205.902C375.476 204.777 386.321 209.024 392.745 217.148C399.169 225.272 400.742 237.083 396.242 246.41C392.928 253.281 386.822 258.394 380.424 262.554C359.751 275.884 334.955 281.304 310.601 277.819" fill="#F2F2F2"/>
<path d="M382.56 209.259C374.061 216.177 366.264 223.914 359.282 232.358C348.355 245.528 339.512 260.293 333.063 276.141C332.591 277.297 334.47 277.8 334.936 276.657C339.038 266.637 344.112 257.044 350.086 248.013C359.402 233.907 370.816 221.301 383.933 210.632C384.903 209.843 383.522 208.476 382.56 209.259Z" fill="white"/>
<path d="M308.968 276.37C313.697 272.377 316.569 266.069 315.816 259.928C315.063 253.787 310.397 248.142 304.345 246.838C298.292 245.534 291.393 249.143 289.555 255.051C288.543 243.661 287.378 231.794 281.317 222.094C275.83 213.311 266.326 207.026 256.026 205.902C245.726 204.777 234.881 209.024 228.457 217.148C222.033 225.272 220.46 237.083 224.959 246.41C228.274 253.281 234.38 258.394 240.778 262.554C261.451 275.884 286.246 281.304 310.601 277.819" fill="#F2F2F2"/>
<path d="M238.643 209.259C247.142 216.177 254.939 223.914 261.921 232.358C272.848 245.528 281.69 260.293 288.139 276.141C288.611 277.297 286.733 277.8 286.266 276.657C275.714 250.902 258.868 228.201 237.269 210.632C236.299 209.843 237.681 208.476 238.643 209.259Z" fill="white"/>
<path d="M294.934 140.362C286.186 140.362 279.093 133.274 279.093 124.532C279.093 115.789 286.186 108.702 294.934 108.702C303.683 108.702 310.775 115.789 310.775 124.532C310.775 133.274 303.683 140.362 294.934 140.362Z" fill="#F2F2F2"/>
<path d="M343.775 69.9639H234.635V75.9308H329.843C335.441 75.9308 340.984 77.0326 346.155 79.1733C351.327 81.314 356.026 84.4516 359.984 88.4071C363.943 92.3625 367.083 97.0583 369.225 102.226C371.367 107.394 372.47 112.934 372.47 118.527V186.319H384.412C384.94 186.319 385.446 186.11 385.819 185.737C386.193 185.364 386.402 184.858 386.402 184.33V112.56C386.402 106.967 385.3 101.428 383.158 96.2594C381.015 91.0914 377.875 86.3956 373.917 82.4401C369.959 78.4846 365.26 75.347 360.088 73.2063C354.916 71.0656 349.373 69.9639 343.775 69.9639Z" fill="#F2F2F2"/>
<path d="M322.783 276.702V186.064H296.211V276.702C296.212 277.311 296.454 277.895 296.885 278.326C297.317 278.757 297.901 278.999 298.511 279H320.484C321.093 278.999 321.678 278.757 322.109 278.326C322.54 277.895 322.783 277.311 322.783 276.702Z" fill="#3F3D56"/>
<path d="M392.023 184.277V110.574C392.01 98.8408 387.34 87.5922 379.038 79.2957C370.735 70.9992 359.479 66.3324 347.737 66.3191H235.146V186.83H389.468C390.146 186.829 390.795 186.56 391.274 186.081C391.753 185.602 392.023 184.953 392.023 184.277ZM236.168 67.3404H347.737C359.208 67.3534 370.205 71.9125 378.315 80.0175C386.426 88.1226 390.988 99.1116 391.001 110.574V184.277C391.001 184.683 390.839 185.072 390.552 185.359C390.265 185.646 389.875 185.808 389.468 185.808H236.168V67.3404Z" fill="#3F3D56"/>
<path d="M294.934 132.702C297.373 132.699 299.711 131.73 301.435 130.007C303.159 128.284 304.129 125.948 304.132 123.511V57.6383C304.133 57.2321 304.294 56.8428 304.582 56.5556C304.869 56.2684 305.259 56.1068 305.665 56.1064H341.435C342.113 56.1056 342.762 55.8364 343.241 55.3577C343.72 54.8791 343.989 54.2301 343.99 53.5532V29.5532C343.989 28.8763 343.72 28.2273 343.241 27.7487C342.762 27.27 342.113 27.0008 341.435 27H288.291C287.614 27.0008 286.964 27.27 286.485 27.7487C286.006 28.2273 285.737 28.8763 285.736 29.5532V123.511C285.739 125.948 286.709 128.284 288.433 130.007C290.158 131.73 292.496 132.699 294.934 132.702Z" fill="#65A8F8"/>
<path d="M231.059 65.2979C223.35 65.2818 215.95 68.3264 210.488 73.7621C205.025 79.1977 201.948 86.5791 201.931 94.2825V178.185H144.699C142.4 178.18 140.193 179.089 138.564 180.71C136.935 182.331 136.017 184.532 136.012 186.83H260.186V94.2825C260.169 86.5791 257.092 79.1977 251.629 73.7621C246.167 68.3264 238.767 65.2818 231.059 65.2979Z" fill="#3F3D56"/>
<path d="M238.049 113.077L232.018 137.974L114.037 109.433L120.068 84.5366C120.141 84.2322 120.29 83.9511 120.501 83.7194C120.711 83.4878 120.977 83.313 121.273 83.2115C121.492 83.1346 121.723 83.0998 121.955 83.1089L190.153 47.8228C190.552 47.6189 191.012 47.5645 191.448 47.6693C191.884 47.7741 192.269 48.0312 192.532 48.3944L225.4 94.1954L237.79 111.467C237.813 111.497 237.828 111.532 237.836 111.569C237.844 111.605 237.844 111.643 237.836 111.68C238.088 112.1 238.165 112.602 238.049 113.077Z" fill="white"/>
<path d="M237.835 111.68C237.83 111.713 237.817 111.744 237.8 111.771C237.782 111.799 237.759 111.823 237.732 111.842C237.7 111.863 237.664 111.879 237.625 111.886C237.587 111.894 237.548 111.893 237.51 111.885C237.449 111.869 237.395 111.831 237.358 111.779L237.315 111.72L236.67 110.819L224.953 94.4967L192.095 48.7061C191.908 48.4467 191.634 48.2629 191.322 48.1883C191.011 48.1137 190.683 48.1532 190.398 48.2995L122.728 83.3123L122.121 83.6273C122.097 83.6376 122.071 83.6464 122.046 83.6536C122 83.6453 121.954 83.6409 121.907 83.6404C121.844 83.6191 121.791 83.5744 121.759 83.5154C121.743 83.4843 121.732 83.4503 121.729 83.4152C121.726 83.3802 121.729 83.3449 121.74 83.3113C121.75 83.2777 121.767 83.2464 121.79 83.2194C121.812 83.1923 121.84 83.1699 121.871 83.1535L121.955 83.1089L190.152 47.8228C190.552 47.6189 191.011 47.5645 191.448 47.6693C191.884 47.7741 192.269 48.0312 192.532 48.3944L225.399 94.1954L237.79 111.467C237.812 111.497 237.828 111.532 237.836 111.569C237.844 111.605 237.844 111.643 237.835 111.68Z" fill="#3F3D56"/>
<path d="M202.402 114.219L199.776 114.51L180.285 116.668L167.364 118.097L166.601 118.182L150.477 105.597L149.86 105.115L146.052 102.143L132.503 91.57L132.422 90.8273L127.603 47.3648C127.537 46.7663 127.712 46.1662 128.088 45.6961C128.464 45.2259 129.012 44.9241 129.611 44.8568L193.923 37.7376C194.522 37.6722 195.122 37.8467 195.593 38.2227C196.063 38.5988 196.365 39.1458 196.433 39.744L199.831 70.4015L201.716 87.3985L203.403 102.604L204.184 109.666L204.412 111.712C204.478 112.31 204.302 112.91 203.926 113.38C203.549 113.85 203.001 114.152 202.402 114.219Z" fill="#E6E6E6"/>
<path d="M184.728 76.1221L156.87 79.2054L146.991 80.2985C146.555 80.3468 146.113 80.3088 145.692 80.1866C145.27 80.0644 144.877 79.8604 144.534 79.5863C144.192 79.3122 143.907 78.9734 143.695 78.5892C143.483 78.205 143.35 77.7829 143.301 77.347C143.253 76.9111 143.291 76.47 143.413 76.0489C143.536 75.6277 143.74 75.2347 144.014 74.8924C144.288 74.55 144.627 74.265 145.012 74.0536C145.396 73.8422 145.819 73.7086 146.255 73.6603L158.543 72.3004L183.99 69.4807C184.872 69.3834 185.755 69.6397 186.447 70.1934C187.139 70.747 187.583 71.5526 187.681 72.433C187.779 73.3134 187.522 74.1966 186.969 74.8884C186.415 75.5802 185.609 76.024 184.728 76.1221Z" fill="white"/>
<path d="M186.316 88.4368C186.244 88.4497 186.172 88.4625 186.099 88.4695L153.76 92.0496L148.361 92.6485C147.479 92.7459 146.595 92.4895 145.903 91.9357C145.211 91.3819 144.768 90.576 144.67 89.6954C144.573 88.8148 144.829 87.9315 145.384 87.2399C145.938 86.5483 146.744 86.1051 147.625 86.0077L155.433 85.1445L181.049 82.308L185.36 81.8307C186.222 81.7345 187.088 81.9772 187.774 82.5074C188.461 83.0376 188.914 83.8137 189.038 84.6716C189.162 85.5295 188.947 86.4021 188.439 87.1047C187.931 87.8074 187.17 88.2851 186.316 88.4368Z" fill="white"/>
<path d="M189.974 99.3562C189.709 99.7958 189.347 100.169 188.914 100.445C188.482 100.722 187.991 100.896 187.48 100.952L174.226 102.419L150.619 105.033L150.614 105.031L149.859 105.115L146.051 102.143C146.027 101.918 146.027 101.69 146.05 101.464C146.131 100.706 146.467 99.998 147.005 99.4573C147.543 98.9165 148.249 98.5753 149.007 98.4903L152.287 98.1262L165.295 96.6877L174.655 95.6503L186.745 94.3113C187.365 94.2428 187.992 94.3488 188.554 94.6174C189.116 94.886 189.593 95.3064 189.928 95.8312C190.264 96.356 190.447 96.9642 190.455 97.5871C190.463 98.21 190.297 98.8228 189.974 99.3562Z" fill="white"/>
<path d="M171.357 61.0695L164.426 61.8366L161.364 62.1764L156.739 62.6879C155.858 62.7853 154.974 62.5289 154.282 61.975C153.59 61.4212 153.147 60.6153 153.049 59.7347C152.952 58.8541 153.208 57.9708 153.762 57.2792C154.317 56.5877 155.123 56.1444 156.004 56.047L170.619 54.4306C171.5 54.3328 172.383 54.5886 173.076 55.142C173.768 55.6953 174.212 56.5007 174.31 57.3811C174.408 58.2615 174.151 59.1447 173.598 59.8364C173.044 60.5281 172.238 60.9717 171.357 61.0695Z" fill="white"/>
<path d="M228.036 79.5609L219.585 114.445L205.481 117.125L192.434 119.607L178.436 122.268L173.963 123.119C173.702 123.168 173.432 123.161 173.173 123.099C172.914 123.036 172.672 122.919 172.461 122.755L168.873 119.955L166.601 118.182L150.478 105.597L160.73 63.279C160.831 62.8579 161.052 62.4751 161.365 62.1764C161.641 61.9122 161.978 61.7214 162.346 61.6217C162.715 61.522 163.102 61.5166 163.473 61.606L226.362 76.8192C226.948 76.9613 227.453 77.3298 227.767 77.8439C228.081 78.358 228.178 78.9755 228.036 79.5609Z" fill="#65A8F8"/>
<path d="M208.659 107.312C208.449 108.173 207.907 108.915 207.151 109.376C206.394 109.838 205.485 109.98 204.624 109.772L167.722 100.846C166.861 100.636 166.119 100.094 165.657 99.3383C165.196 98.5825 165.053 97.6746 165.26 96.8138C165.27 96.7711 165.282 96.7291 165.296 96.6878C165.532 95.8579 166.08 95.1513 166.825 94.7162C167.571 94.281 168.456 94.1511 169.295 94.3535L206.197 103.28C207.058 103.489 207.801 104.031 208.262 104.787C208.724 105.543 208.866 106.451 208.659 107.312Z" fill="white"/>
<path d="M205.48 117.125L192.434 119.607L164.796 112.921C163.935 112.713 163.191 112.171 162.73 111.415C162.268 110.659 162.126 109.75 162.334 108.889C162.543 108.028 163.085 107.285 163.842 106.824C164.598 106.363 165.508 106.221 166.369 106.429L203.271 115.356C204.042 115.541 204.721 115.996 205.186 116.638C205.297 116.792 205.396 116.954 205.48 117.125Z" fill="white"/>
<path d="M178.436 122.268L173.963 123.119C173.701 123.168 173.432 123.161 173.173 123.099C172.914 123.036 172.671 122.919 172.461 122.755L168.872 119.955L178.436 122.268Z" fill="white"/>
<path d="M201.223 88.6067C201.013 89.4672 200.471 90.2096 199.715 90.6709C198.958 91.1322 198.049 91.2746 197.188 91.067L182.895 87.6094C182.034 87.3999 181.292 86.8578 180.83 86.102C180.369 85.3462 180.226 84.4384 180.433 83.5776C180.544 83.115 180.754 82.6819 181.049 82.308C181.444 81.8025 181.977 81.4215 182.583 81.2103C183.189 80.9992 183.844 80.9669 184.468 81.1173L198.761 84.5748C199.622 84.7834 200.365 85.3253 200.827 86.0813C201.289 86.8374 201.431 87.7458 201.223 88.6067Z" fill="white"/>
<path d="M192.435 119.606L178.435 122.269L173.964 123.12C173.702 123.168 173.433 123.161 173.174 123.099C172.915 123.036 172.673 122.919 172.462 122.756L168.871 119.955L170.131 120.26L172.792 122.334C172.942 122.45 173.115 122.533 173.3 122.578C173.485 122.623 173.677 122.628 173.864 122.593L177.175 121.964L191.175 119.302L192.435 119.606ZM150.616 105.033L150.48 105.596L149.859 105.113L150.616 105.033ZM192.435 119.606L178.435 122.269L173.964 123.12C173.702 123.168 173.433 123.161 173.174 123.099C172.915 123.036 172.673 122.919 172.462 122.756L168.871 119.955L170.131 120.26L172.792 122.334C172.942 122.45 173.115 122.533 173.3 122.578C173.485 122.623 173.677 122.628 173.864 122.593L177.175 121.964L191.175 119.302L192.435 119.606ZM192.435 119.606L178.435 122.269L173.964 123.12C173.702 123.168 173.433 123.161 173.174 123.099C172.915 123.036 172.673 122.919 172.462 122.756L168.871 119.955L170.131 120.26L172.792 122.334C172.942 122.45 173.115 122.533 173.3 122.578C173.485 122.623 173.677 122.628 173.864 122.593L177.175 121.964L191.175 119.302L192.435 119.606ZM238.049 113.077L222.251 178.291C222.134 178.773 221.83 179.188 221.406 179.447C220.983 179.705 220.474 179.785 219.991 179.668L105.649 152.008C105.167 151.891 104.751 151.588 104.492 151.164C104.234 150.741 104.154 150.232 104.27 149.75L120.068 84.5365C120.141 84.2321 120.29 83.951 120.501 83.7194C120.711 83.4877 120.977 83.313 121.273 83.2114C121.492 83.1345 121.723 83.0997 121.955 83.1088C122.225 83.1166 122.49 83.1862 122.729 83.3122C122.839 83.3646 122.943 83.4292 123.039 83.5048L132.423 90.8272L146.052 101.466L150.617 105.029L150.616 105.033L150.62 105.034L167.364 118.095L170.131 120.26L172.792 122.334C172.942 122.45 173.115 122.533 173.3 122.578C173.485 122.623 173.677 122.628 173.864 122.593L177.175 121.964L191.175 119.302L205.188 116.638L235.879 110.802C236.141 110.75 236.411 110.756 236.67 110.819C237.019 110.904 237.336 111.088 237.584 111.348C237.679 111.45 237.763 111.561 237.836 111.68C238.088 112.1 238.165 112.601 238.049 113.077ZM192.435 119.606L178.435 122.269L173.964 123.12C173.702 123.168 173.433 123.161 173.174 123.099C172.915 123.036 172.673 122.919 172.462 122.756L168.871 119.955L170.131 120.26L172.792 122.334C172.942 122.45 173.115 122.533 173.3 122.578C173.485 122.623 173.677 122.628 173.864 122.593L177.175 121.964L191.175 119.302L192.435 119.606ZM192.435 119.606L178.435 122.269L173.964 123.12C173.702 123.168 173.433 123.161 173.174 123.099C172.915 123.036 172.673 122.919 172.462 122.756L168.871 119.955L170.131 120.26L172.792 122.334C172.942 122.45 173.115 122.533 173.3 122.578C173.485 122.623 173.677 122.628 173.864 122.593L177.175 121.964L191.175 119.302L192.435 119.606ZM192.435 119.606L178.435 122.269L173.964 123.12C173.702 123.168 173.433 123.161 173.174 123.099C172.915 123.036 172.673 122.919 172.462 122.756L168.871 119.955L170.131 120.26L172.792 122.334C172.942 122.45 173.115 122.533 173.3 122.578C173.485 122.623 173.677 122.628 173.864 122.593L177.175 121.964L191.175 119.302L192.435 119.606Z" fill="white"/>
<path d="M192.435 119.607L178.435 122.269L173.964 123.12C173.702 123.169 173.433 123.162 173.174 123.099C172.915 123.036 172.673 122.92 172.462 122.757L168.871 119.955L170.131 120.26L172.792 122.334C172.942 122.45 173.115 122.534 173.3 122.578C173.485 122.623 173.677 122.628 173.864 122.593L177.175 121.964L191.175 119.302L192.435 119.607ZM150.616 105.033L150.48 105.596L149.859 105.114L150.616 105.033ZM192.435 119.607L178.435 122.269L173.964 123.12C173.702 123.169 173.433 123.162 173.174 123.099C172.915 123.036 172.673 122.92 172.462 122.757L168.871 119.955L170.131 120.26L172.792 122.334C172.942 122.45 173.115 122.534 173.3 122.578C173.485 122.623 173.677 122.628 173.864 122.593L177.175 121.964L191.175 119.302L192.435 119.607ZM192.435 119.607L178.435 122.269L173.964 123.12C173.702 123.169 173.433 123.162 173.174 123.099C172.915 123.036 172.673 122.92 172.462 122.757L168.871 119.955L170.131 120.26L172.792 122.334C172.942 122.45 173.115 122.534 173.3 122.578C173.485 122.623 173.677 122.628 173.864 122.593L177.175 121.964L191.175 119.302L192.435 119.607ZM237.315 111.721L237.246 111.773C237.234 111.754 237.214 111.737 237.199 111.717C237.044 111.556 236.851 111.436 236.639 111.367C236.426 111.299 236.2 111.284 235.98 111.325L205.48 117.122L192.435 119.607L178.435 122.269L173.964 123.12C173.702 123.169 173.433 123.162 173.174 123.099C172.915 123.036 172.673 122.92 172.462 122.757L168.871 119.955L170.131 120.26L172.792 122.334C172.942 122.45 173.115 122.534 173.3 122.578C173.485 122.623 173.677 122.628 173.864 122.593L177.175 121.964L191.175 119.302L205.188 116.638L235.879 110.802C236.141 110.75 236.411 110.756 236.67 110.819L237.315 111.721ZM238.049 113.077L222.251 178.291C222.134 178.773 221.83 179.188 221.406 179.447C220.983 179.705 220.474 179.785 219.991 179.669L105.649 152.009C105.167 151.891 104.751 151.588 104.492 151.165C104.234 150.741 104.154 150.233 104.27 149.75L120.068 84.5368C120.141 84.2323 120.29 83.9513 120.501 83.7196C120.711 83.4879 120.977 83.3132 121.273 83.2116C121.492 83.1348 121.723 83.1 121.955 83.1091C122.225 83.1169 122.49 83.1865 122.729 83.3125C122.839 83.3648 122.943 83.4294 123.039 83.505L132.423 90.8275L146.052 101.466L150.617 105.03L150.616 105.033L150.62 105.034L167.364 118.096L170.131 120.26L172.792 122.334C172.942 122.45 173.115 122.534 173.3 122.578C173.485 122.623 173.677 122.628 173.864 122.593L177.175 121.964L191.175 119.302L205.188 116.638L235.879 110.802C236.141 110.75 236.411 110.756 236.67 110.819C237.019 110.904 237.336 111.088 237.584 111.348C237.679 111.45 237.763 111.562 237.836 111.68C238.088 112.1 238.165 112.602 238.049 113.077ZM237.528 112.951C237.575 112.759 237.578 112.559 237.537 112.365C237.496 112.172 237.412 111.99 237.292 111.833C237.281 111.809 237.265 111.789 237.246 111.773C237.234 111.754 237.214 111.737 237.199 111.717C237.044 111.556 236.851 111.436 236.639 111.367C236.426 111.299 236.2 111.284 235.98 111.325L205.48 117.122L192.435 119.607L178.435 122.269L173.964 123.12C173.702 123.169 173.433 123.162 173.174 123.099C172.915 123.036 172.673 122.92 172.462 122.757L168.871 119.955L166.6 118.182L150.48 105.596L149.859 105.114L146.054 102.143L132.503 91.568L122.707 83.9229C122.558 83.8069 122.386 83.7238 122.202 83.6794C122.151 83.6668 122.099 83.6583 122.046 83.6538C122 83.6455 121.954 83.641 121.907 83.6405C121.751 83.639 121.595 83.6644 121.447 83.7155C121.236 83.789 121.047 83.9141 120.896 84.0793C120.746 84.2446 120.639 84.4449 120.586 84.6618L104.787 149.876C104.746 150.046 104.738 150.224 104.766 150.398C104.793 150.571 104.854 150.738 104.946 150.888C105.037 151.038 105.158 151.169 105.3 151.273C105.442 151.376 105.603 151.451 105.774 151.492L220.116 179.152C220.461 179.235 220.825 179.177 221.128 178.992C221.43 178.807 221.647 178.51 221.73 178.165L237.528 112.951ZM192.435 119.607L178.435 122.269L173.964 123.12C173.702 123.169 173.433 123.162 173.174 123.099C172.915 123.036 172.673 122.92 172.462 122.757L168.871 119.955L170.131 120.26L172.792 122.334C172.942 122.45 173.115 122.534 173.3 122.578C173.485 122.623 173.677 122.628 173.864 122.593L177.175 121.964L191.175 119.302L192.435 119.607ZM192.435 119.607L178.435 122.269L173.964 123.12C173.702 123.169 173.433 123.162 173.174 123.099C172.915 123.036 172.673 122.92 172.462 122.757L168.871 119.955L170.131 120.26L172.792 122.334C172.942 122.45 173.115 122.534 173.3 122.578C173.485 122.623 173.677 122.628 173.864 122.593L177.175 121.964L191.175 119.302L192.435 119.607ZM192.435 119.607L178.435 122.269L173.964 123.12C173.702 123.169 173.433 123.162 173.174 123.099C172.915 123.036 172.673 122.92 172.462 122.757L168.871 119.955L170.131 120.26L172.792 122.334C172.942 122.45 173.115 122.534 173.3 122.578C173.485 122.623 173.677 122.628 173.864 122.593L177.175 121.964L191.175 119.302L192.435 119.607Z" fill="#3F3D56"/>
<path d="M135.449 139.196C135.707 138.128 135.529 137 134.956 136.062C134.384 135.124 133.462 134.451 132.393 134.191L117.961 130.7C116.893 130.446 115.768 130.625 114.832 131.198C113.896 131.771 113.225 132.691 112.967 133.758C112.709 134.824 112.884 135.949 113.454 136.886C114.024 137.824 114.943 138.497 116.009 138.759L130.44 142.25C131.51 142.508 132.638 142.331 133.577 141.758C134.516 141.186 135.189 140.264 135.449 139.196Z" fill="#65A8F8"/>
<path d="M294.935 127.085C292.959 127.085 291.358 125.485 291.358 123.511C291.358 121.537 292.959 119.936 294.935 119.936C296.91 119.936 298.512 121.537 298.512 123.511C298.512 125.485 296.91 127.085 294.935 127.085Z" fill="white"/>
</g>
<defs>
<clipPath id="clip0_447_2032">
<rect width="294.592" height="252" fill="white" transform="matrix(-1 0 0 1 398.809 27)"/>
</clipPath>
</defs>
</svg>
