<svg xmlns="http://www.w3.org/2000/svg" viewBox="0 0 127.58 137.05"><defs><style>.cls-1{opacity:0.44;}.cls-2{fill:#fff;}</style></defs><title>banner_changlog</title><g id="Calque_2" data-name="Calque 2"><g id="BODY"><g id="_1" data-name="1"><g class="cls-1"><path class="cls-2" d="M93.71,129.62A63.82,63.82,0,0,1,33.88,16.88a63.14,63.14,0,0,1,6.41-3L35.45,4.82a3.34,3.34,0,0,1,.36-3.64,3.34,3.34,0,0,1,3.53-1L69.93,9.56a3.28,3.28,0,0,1,2.18,4.1L62.79,44.31a3.3,3.3,0,0,1-6.07.59L51.36,34.8a39,39,0,0,0-6.52,2.75A40.42,40.42,0,1,0,99.49,54.3a3.29,3.29,0,0,1,1.37-4.45L115.69,42a3.3,3.3,0,0,1,4.46,1.36A63.91,63.91,0,0,1,93.71,129.62Z"/></g></g></g></g></svg>