<?xml version="1.0" encoding="utf-8"?>
<!-- Generator: Adobe Illustrator 24.1.2, SVG Export Plug-In . SVG Version: 6.00 Build 0)  -->
<svg version="1.1" id="Calque_1" xmlns="http://www.w3.org/2000/svg" xmlns:xlink="http://www.w3.org/1999/xlink" x="0px" y="0px"
	 viewBox="0 0 1525.1 124.3" style="enable-background:new 0 0 1525.1 124.3;" xml:space="preserve">
<style type="text/css">
	.st0{clip-path:url(#SVGID_2_);fill:#F7FBFF;}
</style>
<g>
	<defs>
		<rect id="SVGID_1_" x="-2.9" y="-0.1" width="1530.1" height="134.3"/>
	</defs>
	<clipPath id="SVGID_2_">
		<use xlink:href="#SVGID_1_"  style="overflow:visible;"/>
	</clipPath>
	<path class="st0" d="M1391.9,465.1c1.2-51.4,54.7-100.7,114-147.8c59.3-47.1,125.3-93.8,154.3-144.1c18.6-32.4,18-69.3-45.4-94.9
		c-61-24.6-162.9-32.1-257.1-35.9c-70.9-2.9-145.4-4.3-210.6,5c-45.3,6.5-82.7,17.7-125.9,25.6C871,100.6,680.6,83,528.5,55.1
		C457.2,42,388.8,26.8,313.3,16.8S151.8,2.5,76.7,12.1C2.3,21.5-52.2,43.4-89.7,67c-76.2,47.9-93.8,103.8-101.5,158.3
		c-17.1,120.7,7.4,241.7,31.9,362.4c9.1,44.7,18.2,89.6,46.8,133.4c15.9,24.3,39.9,49.4,93.4,66.9c68,22.1,179.8,27.1,260.7,11.5
		c135.7-26.1,163.2-96.3,309.8-114.8c80.7-10.2,172.7-0.8,249.8,12.9c165.5,29.4,313.1,79.4,499,81c127.7,1.1,253.1-24.1,309.7-62.3
		c59.6-40.1,46.2-94.9-61.4-123.6C1437.6,563.2,1390.9,510.5,1391.9,465.1z"/>
</g>
</svg>
