<?xml version="1.0" encoding="utf-8"?>
<!-- Generator: Adobe Illustrator 24.1.2, SVG Export Plug-In . SVG Version: 6.00 Build 0)  -->
<svg version="1.1" id="Calque_1" xmlns="http://www.w3.org/2000/svg" xmlns:xlink="http://www.w3.org/1999/xlink" x="0px" y="0px"
	 viewBox="0 0 1525.1 108.3" style="enable-background:new 0 0 1525.1 108.3;" xml:space="preserve">
<style type="text/css">
	.st0{clip-path:url(#SVGID_2_);fill:#F7FBFF;}
</style>
<g>
	<defs>
		<rect id="SVGID_1_" x="-3.7" y="-2.5" width="1533" height="134.9"/>
	</defs>
	<clipPath id="SVGID_2_">
		<use xlink:href="#SVGID_1_"  style="overflow:visible;"/>
	</clipPath>
	<path class="st0" d="M675.1,7c129.2,0.7,251.7,19.7,368.6,40.6s232.5,44.2,358.3,54.6c80.9,6.7,173.7,6.7,239.8-15.2
		c63.6-21.1,85.1-56.4,97.1-89.2c9-24.6,14.7-50.5-7.1-73.3c-15.1-15.8-42.5-28.9-61.2-44c-65.1-52.4-15.8-118.5,58.3-171.2
		c34.9-24.7,75-48.4,102-74.6s40.2-56.1,18.1-82.2c-21.9-26-75.4-45-133.7-58.2c-118.3-26.8-258.6-33.3-395.4-36.3
		c-303-6.7-608,1-912.3,8.8c-112.6,2.9-225.7,5.8-336.7,15.4c-61.6,5.4-125.4,13.5-170.6,32c-57.5,23.5-72.8,62.4-35.7,90.6
		c62.1,47.4,237.8,57.4,280.6,108.5c23.6,28.1-2.6,60.1-39.1,86.8C27.9-142.6-101.7-91.6-110.6-27c-6.1,44.4,54,88.2,148.5,108.1
		c99.2,21,237.5,16.7,312.4-20.6C427.3,22.2,560.9,6.3,675.1,7z"/>
</g>
</svg>
