<?xml version="1.0" encoding="utf-8"?>
<!-- Generator: Adobe Illustrator 23.0.6, SVG Export Plug-In . SVG Version: 6.00 Build 0)  -->
<svg version="1.1" id="Calque_1" xmlns="http://www.w3.org/2000/svg" xmlns:xlink="http://www.w3.org/1999/xlink" x="0px" y="0px"
	 viewBox="0 0 62.3 55.7" style="enable-background:new 0 0 62.3 55.7;" xml:space="preserve">
<style type="text/css">
	.st0{fill:none;}
	.st1{fill-rule:evenodd;clip-rule:evenodd;}
</style>
<g>
	<g>
		<g>
			<path class="st0" d="M47.7,6.5C41.5,5.9,35.4,5.7,29.2,6C26.1,6.1,23,6.4,19.9,7c-1.6,0.4-3.1,0.7-4.8,1.4
				c-0.4,0.1-0.8,0.4-1.2,0.7c-0.4,0.2-0.8,0.6-1.3,0.9l-0.3,0.3l-0.2,0.3l-0.5,0.6c-0.2,0.2-0.3,0.4-0.4,0.6L11,12.6
				c-0.7,1.6-1.1,3.2-1.4,4.8c-0.2,0.8-0.3,1.6-0.4,2.4c-0.1,0.8-0.2,1.6-0.3,2.3c-0.3,3.1-0.4,6.2-0.3,9.3c0.1,3.1,0.3,6.2,0.6,9.2
				c0.3,3.1,0.8,6.1,1.4,9.2l4-0.8c-0.6-2.9-1-5.8-1.3-8.8c-0.3-3-0.5-5.9-0.5-8.9c-0.1-3,0-5.9,0.3-8.8c0.1-0.7,0.1-1.5,0.2-2.2
				c0.1-0.7,0.2-1.4,0.3-2.1c0.3-1.4,0.6-2.8,1.1-3.9c0.3-0.6,0.5-1,0.8-1.3c0.3-0.3,0.8-0.6,1.3-0.8c1.1-0.5,2.5-0.8,3.9-1.2
				c2.8-0.6,5.7-0.8,8.7-1c5.9-0.3,11.9-0.1,17.8,0.5L47.7,6.5z"/>
			<path class="st1" d="M12.6,48.3c0-0.1,0-0.1,0-0.2C12.6,48.1,12.6,48.2,12.6,48.3z"/>
			<path class="st1" d="M12.5,48.1c0-0.1,0-0.1,0-0.2C12.5,48,12.4,48,12.5,48.1z"/>
			<path class="st1" d="M12.6,47.6c0-0.1,0-0.1,0-0.2C12.5,47.4,12.5,47.5,12.6,47.6C12.5,47.5,12.5,47.5,12.6,47.6z"/>
			<path class="st1" d="M13,45.6L13,45.6c0-0.1,0-0.2,0-0.2C12.9,45.4,13,45.5,13,45.6z"/>
			<path class="st1" d="M12.4,47.7c0,0,0-0.1,0-0.2C12.4,47.6,12.4,47.6,12.4,47.7C12.4,47.7,12.4,47.7,12.4,47.7z"/>
			<path class="st1" d="M13,45.3c0-0.1,0-0.1,0-0.1C13,45.1,12.9,45.1,13,45.3L13,45.3z"/>
			<path class="st1" d="M12.4,46.4c0,0,0-0.1,0-0.2C12.4,46.3,12.5,46.4,12.4,46.4z"/>
			<path class="st1" d="M12.9,44.4C12.9,44.4,12.9,44.4,12.9,44.4c0-0.1,0-0.1-0.1-0.2c0,0,0-0.1,0-0.2c-0.1,0-0.1-0.1-0.1-0.3
				c0,0.1,0,0.1,0,0.2c0,0,0,0,0.1,0.1c0,0,0,0,0,0c0,0.1,0,0.1,0,0.2C12.9,44.4,12.9,44.4,12.9,44.4z"/>
			<path class="st1" d="M12.4,46.1L12.4,46.1c0-0.1,0-0.1,0-0.2C12.4,46,12.4,46.1,12.4,46.1z"/>
			<path class="st1" d="M12.2,45.9c0-0.1,0-0.1-0.1-0.2C12.1,45.8,12.1,45.9,12.2,45.9z"/>
			<path class="st1" d="M12.9,42.6c0-0.1,0-0.2,0-0.2C12.9,42.5,12.9,42.6,12.9,42.6z"/>
			<path class="st1" d="M12.1,45.2c0-0.1,0-0.1,0-0.2C12.1,45.1,12.1,45.2,12.1,45.2z"/>
			<path class="st1" d="M12.4,43c0-0.1,0-0.1-0.1-0.2c0,0,0,0.1,0,0.1C12.4,42.9,12.3,43,12.4,43z"/>
			<path class="st1" d="M11.9,44.5c0,0,0,0.1,0,0.2C11.9,44.8,11.9,44.6,11.9,44.5z"/>
			<path class="st1" d="M11.8,43.8c0-0.1,0-0.1,0-0.2C11.8,43.6,11.8,43.7,11.8,43.8C11.8,43.9,11.8,43.7,11.8,43.8z"/>
			<path class="st1" d="M12.5,41.3c0.1,0,0-0.1,0-0.2C12.5,41.1,12.5,41.2,12.5,41.3z"/>
			<path class="st1" d="M12.3,41.1c0,0,0,0.1,0,0.2c0,0,0,0,0.1,0C12.4,41.2,12.4,41.1,12.3,41.1z"/>
			<path class="st1" d="M12.7,39.9c0-0.1,0-0.2,0-0.2C12.7,39.7,12.7,39.8,12.7,39.9z"/>
			<path class="st1" d="M11.4,44.3c0,0,0-0.1,0-0.1C11.4,44.1,11.4,44.2,11.4,44.3L11.4,44.3z"/>
			<path class="st1" d="M11.6,43.7c0-0.1,0-0.1,0-0.2C11.5,43.5,11.5,43.7,11.6,43.7z"/>
			<path class="st1" d="M11.4,43.8C11.4,43.8,11.4,43.8,11.4,43.8c0-0.2-0.1-0.4,0-0.6c0-0.1-0.1,0-0.1-0.1c0,0.1,0,0.1,0,0.2
				c0,0.1,0,0,0,0.1c0,0,0.1,0.1,0.1,0.2C11.3,43.7,11.3,43.8,11.4,43.8C11.4,43.9,11.4,43.8,11.4,43.8z"/>
			<path class="st1" d="M12.3,40.1c0,0,0-0.1,0-0.1C12.2,40,12.3,40.1,12.3,40.1C12.3,40.2,12.3,40.1,12.3,40.1c0,0,0,0,0-0.1
				C12.3,39.9,12.3,40.1,12.3,40.1z"/>
			<path class="st1" d="M10.8,45.4c0-0.1,0-0.1,0-0.2C10.8,45.2,10.8,45.3,10.8,45.4z"/>
			<path class="st1" d="M10.8,45.4c0,0,0-0.1,0-0.2C10.7,45.3,10.8,45.4,10.8,45.4z"/>
			<path class="st1" d="M10.8,45.1C10.8,45,10.7,45.1,10.8,45.1C10.7,45.1,10.7,45.1,10.8,45.1C10.8,45.2,10.8,45.2,10.8,45.1z"/>
			<path class="st1" d="M12.3,39.8c0.1,0,0-0.2,0-0.2C12.2,39.6,12.3,39.8,12.3,39.8z"/>
			<path class="st1" d="M10.3,45.9c0-0.1,0-0.2-0.1-0.3C10.3,45.7,10.3,45.8,10.3,45.9z"/>
			<path class="st1" d="M12.3,39c0,0-0.1,0.1,0,0.2C12.3,39.2,12.3,39.1,12.3,39z"/>
			<path class="st1" d="M10.9,43.8c0-0.1,0-0.3-0.1-0.2C10.9,43.6,10.8,43.7,10.9,43.8z"/>
			<path class="st1" d="M11.2,42.2c0,0,0-0.2,0-0.3c0,0,0,0,0,0C11.2,42,11.3,42.1,11.2,42.2z"/>
			<path class="st1" d="M10.5,44.7c0-0.1,0-0.2,0-0.3C10.5,44.6,10.4,44.7,10.5,44.7z"/>
			<path class="st1" d="M12.3,38.6C12.3,38.6,12.3,38.6,12.3,38.6c0-0.2,0-0.3,0-0.5C12.2,38.4,12.2,38.5,12.3,38.6z"/>
			<path class="st1" d="M10.8,42.8c0-0.1,0-0.1,0-0.2C10.8,42.7,10.8,42.7,10.8,42.8C10.8,42.7,10.8,42.8,10.8,42.8z"/>
			<path class="st1" d="M12.2,38.1C12.3,38.2,12.2,38.1,12.2,38.1c0,0,0-0.2,0-0.2C12.2,37.9,12.2,38,12.2,38.1
				C12.2,38.1,12.2,38.1,12.2,38.1z"/>
			<path class="st1" d="M12.2,37.9c0-0.1,0.1-0.2,0-0.3c0,0.1-0.1,0-0.1,0.1C12.2,37.7,12.2,37.8,12.2,37.9z"/>
			<path class="st1" d="M10.4,42.7c0-0.1,0-0.2-0.1-0.2C10.4,42.7,10.4,42.7,10.4,42.7z"/>
			<path class="st1" d="M12.2,37.1c0-0.1,0-0.2,0-0.3c0,0,0,0,0.1,0.1c0-0.2-0.1-0.1-0.1-0.3c0,0,0,0,0,0.1c0,0.1,0,0,0-0.1
				C12.2,36.8,12.1,37,12.2,37.1z"/>
			<path class="st1" d="M11.1,39.3c0-0.1,0-0.2-0.1-0.2C11.1,39.2,11.1,39.3,11.1,39.3z"/>
			<path class="st1" d="M10.7,40.7C10.6,40.6,10.7,40.7,10.7,40.7c0-0.1,0-0.1,0-0.1C10.6,40.6,10.6,40.7,10.7,40.7z"/>
			<path class="st1" d="M10.6,38.7c0-0.1,0-0.2,0-0.3C10.6,38.5,10.6,38.7,10.6,38.7z"/>
			<path class="st1" d="M9.7,40c0-0.1,0-0.1,0-0.2c0-0.1,0,0.1,0,0C9.7,40,9.7,40,9.7,40z"/>
			<path class="st1" d="M9.3,41.2c0-0.1,0-0.2-0.1-0.3C9.3,41,9.3,41.2,9.3,41.2z"/>
			<path class="st1" d="M10.7,36.4L10.7,36.4c0-0.1,0-0.1,0-0.1C10.7,36.3,10.7,36.4,10.7,36.4z"/>
			<path class="st1" d="M9.5,39.5c0-0.1,0-0.2,0-0.3c0,0,0,0-0.1,0c0-0.1,0-0.2,0-0.2c0,0.1,0,0.1,0,0.2C9.5,39.3,9.4,39.4,9.5,39.5
				z"/>
			<path class="st1" d="M10.5,36c0,0,0-0.1,0-0.1C10.5,35.8,10.5,35.9,10.5,36C10.5,36.1,10.5,35.9,10.5,36z"/>
			<path class="st1" d="M9.4,38.2c0,0,0-0.3,0-0.3C9.3,38,9.4,38.1,9.4,38.2z"/>
			<path class="st1" d="M9.1,38.4c0-0.1,0-0.1,0-0.2C9,38.3,9,38.3,9.1,38.4z"/>
			<path class="st1" d="M9.4,37.1c0-0.1,0-0.1,0-0.2C9.4,37,9.4,37.1,9.4,37.1z"/>
			<path class="st1" d="M9.5,36.3c0-0.1,0-0.1,0-0.2C9.4,36.2,9.4,36.2,9.5,36.3L9.5,36.3z"/>
			<path class="st1" d="M9.4,36c0-0.1,0-0.1,0-0.2C9.4,35.8,9.4,35.9,9.4,36z"/>
			<path class="st1" d="M10.5,32.9C10.5,32.9,10.5,32.9,10.5,32.9C10.5,32.8,10.5,32.8,10.5,32.9c0-0.1-0.1-0.1,0-0.2
				c0-0.1,0,0.1,0,0C10.4,32.8,10.5,33,10.5,32.9z"/>
			<path class="st1" d="M10.4,32.6C10.4,32.6,10.4,32.6,10.4,32.6c0-0.1,0-0.2,0-0.1c0,0,0-0.1,0-0.1l0,0.1
				C10.4,32.5,10.4,32.6,10.4,32.6z"/>
			<path class="st1" d="M10.6,32.1c0-0.1,0-0.1,0-0.2C10.5,32,10.6,32.1,10.6,32.1z"/>
			<path class="st1" d="M9.5,34.8C9.5,34.7,9.4,34.7,9.5,34.8C9.4,34.9,9.4,34.8,9.5,34.8z"/>
			<path class="st1" d="M9.4,35c0-0.1,0-0.3,0-0.3C9.4,34.7,9.3,34.8,9.4,35z"/>
			<path class="st1" d="M9.5,34.6c0-0.1,0-0.1,0-0.2C9.4,34.5,9.4,34.6,9.5,34.6C9.4,34.7,9.4,34.6,9.5,34.6z"/>
			<path class="st1" d="M9.6,34.3c0-0.2,0-0.2-0.1-0.1C9.5,34.2,9.6,34.2,9.6,34.3z"/>
			<path class="st1" d="M10.6,31.5c0-0.1,0-0.1,0-0.2C10.6,31.3,10.5,31.4,10.6,31.5z"/>
			<path class="st1" d="M10.6,30.4c0-0.2,0-0.4-0.1-0.5C10.6,30.1,10.6,30.2,10.6,30.4C10.6,30.4,10.6,30.4,10.6,30.4
				C10.5,30.5,10.6,30.5,10.6,30.4z"/>
			<path class="st1" d="M9.5,32.9c0-0.1-0.1,0,0-0.1C9.4,32.8,9.5,33,9.5,32.9z"/>
			<path class="st1" d="M9.5,32.8c0-0.1,0-0.1,0-0.2C9.4,32.7,9.4,32.8,9.5,32.8z"/>
			<path class="st1" d="M10.6,29.4L10.6,29.4c0-0.1,0-0.1,0-0.2C10.6,29.3,10.6,29.4,10.6,29.4z"/>
			<path class="st1" d="M9.7,31.4C9.6,31.3,9.6,31.4,9.7,31.4C9.6,31.4,9.6,31.5,9.7,31.4z"/>
			<path class="st1" d="M8.9,28.2c0.1-0.1,0-0.2,0-0.2C8.9,28.1,8.9,28.1,8.9,28.2z"/>
			<path class="st1" d="M9.1,26c0-0.1,0-0.1,0-0.2C9.1,25.7,9.1,25.9,9.1,26c0.1-0.2,0-0.2,0-0.3c0,0.1,0,0.1,0,0.1
				c0-0.1,0-0.2,0-0.3c0,0.1,0,0.1,0,0.2C9,25.7,9,25.9,9.1,26C9,25.9,9,25.8,9.1,26z"/>
			<path class="st1" d="M9.1,25.1L9.1,25.1c0-0.2,0-0.2,0-0.2C9.1,25,9.1,25.1,9.1,25.1C9.1,25.1,9.1,25.1,9.1,25.1z"/>
			<path class="st1" d="M9.2,24.8c0,0,0-0.1-0.1-0.1L9.2,24.8C9.1,24.7,9.1,24.8,9.2,24.8C9.1,24.8,9.1,24.8,9.2,24.8
				C9.2,24.8,9.2,24.8,9.2,24.8z"/>
			<path class="st1" d="M9.2,24.4c0-0.1,0-0.1,0-0.2C9.2,24.3,9.2,24.4,9.2,24.4C9.2,24.5,9.2,24.5,9.2,24.4z"/>
			<path class="st1" d="M9.2,24.1C9.2,24.1,9.2,24.2,9.2,24.1C9.2,24.1,9.2,24,9.2,24.1C9.2,24,9.2,24,9.2,24.1z"/>
			<path class="st1" d="M9.2,24C9.2,24,9.2,24,9.2,24c0-0.1,0-0.1,0-0.1C9.2,23.8,9.2,23.9,9.2,24L9.2,24z"/>
			<path class="st1" d="M9.2,23.9c0,0,0.1-0.1,0.1-0.2C9.2,23.7,9.2,23.8,9.2,23.9z"/>
			<path class="st1" d="M9.4,22.6c0-0.1,0-0.1,0-0.2C9.3,22.5,9.3,22.5,9.4,22.6C9.3,22.6,9.3,22.7,9.4,22.6z"/>
			<path class="st1" d="M9.4,21.9c0-0.1,0-0.1,0-0.2L9.4,21.9L9.4,21.9z"/>
			<path class="st1" d="M9.5,21.5c0-0.1,0-0.2,0-0.3c0-0.1-0.1,0.1-0.1,0.1c0,0.1,0,0,0,0.1C9.5,21.4,9.4,21.4,9.5,21.5z"/>
			<path class="st1" d="M9.4,21.2c0,0,0-0.1,0-0.2C9.4,21,9.4,21.1,9.4,21.2C9.4,21.2,9.4,21.1,9.4,21.2z"/>
			<path class="st1" d="M9.6,20.7c0-0.1,0-0.3,0.1-0.4c0-0.1-0.1,0.2-0.1,0.2C9.6,20.5,9.6,20.5,9.6,20.7c-0.1,0-0.1,0-0.1,0.1
				C9.5,20.8,9.6,20.8,9.6,20.7z"/>
			<path class="st1" d="M9.5,20.6c0-0.1,0-0.2,0.1-0.3C9.5,20.3,9.5,20.5,9.5,20.6z"/>
			<path class="st1" d="M9.5,20.1c0,0,0-0.1,0-0.1c0-0.1-0.1,0-0.1,0C9.5,20,9.5,20.1,9.5,20.1C9.5,20,9.5,20,9.5,20.1z"/>
			<path class="st1" d="M9.6,19.5c0,0,0-0.1,0-0.1C9.7,19.4,9.6,19.3,9.6,19.5C9.6,19.4,9.6,19.4,9.6,19.5z"/>
			<path class="st1" d="M12.2,11.8c0.1-0.1,0.2-0.2,0.2-0.4C12.3,11.6,12.2,11.6,12.2,11.8C12.2,11.8,12.2,11.8,12.2,11.8z"/>
			<path class="st1" d="M14,9.8c0.1,0,0.1-0.1,0.2-0.1C14.2,9.7,14,9.7,14,9.8z"/>
			<path class="st1" d="M16.3,8.7c0,0,0.2,0,0.3-0.1C16.5,8.7,16.4,8.7,16.3,8.7z"/>
			<path class="st1" d="M17.4,8.4c0.1-0.1,0.3-0.1,0.3-0.2C17.6,8.3,17.4,8.4,17.4,8.4z"/>
			<path class="st1" d="M19.6,7.8c0.1,0,0.2,0,0.2,0C19.8,7.7,19.7,7.7,19.6,7.8z"/>
			<path class="st1" d="M21.9,7.5C21.9,7.5,22,7.5,21.9,7.5C21.9,7.4,21.9,7.4,21.9,7.5C21.9,7.5,21.9,7.5,21.9,7.5z"/>
			<path class="st1" d="M29.5,9.7c0.2,0,0.3-0.1,0.5,0C29.9,9.6,29.7,9.7,29.5,9.7z"/>
			<path class="st1" d="M30,9.6c0.1,0,0.1,0,0.2,0C30.2,9.6,30.1,9.6,30,9.6z"/>
			<path class="st1" d="M26.1,6.9C26.1,6.9,26.1,6.9,26.1,6.9c0.1-0.1,0.2-0.1,0.3-0.1c-0.1,0-0.3,0-0.4,0C26,6.8,26,6.9,26.1,6.9z"
				/>
			<path class="st1" d="M26.8,7C26.8,6.9,26.9,6.9,26.8,7C26.7,6.9,26.7,6.9,26.8,7z"/>
			<path class="st1" d="M26.6,6.8C26.6,6.8,26.6,6.8,26.6,6.8c0.1,0,0.1,0,0.2,0C26.7,6.8,26.6,6.8,26.6,6.8z"/>
			<path class="st1" d="M31.9,6.4c0.1,0,0.1,0,0.2,0C32,6.4,32,6.4,31.9,6.4C31.9,6.4,31.9,6.4,31.9,6.4z"/>
			<path class="st1" d="M32.2,6.3c0.1,0,0.1,0,0.1-0.1C32.3,6.2,32.2,6.3,32.2,6.3z"/>
			<path class="st1" d="M32.6,6.3c0.2,0,0.4,0,0.6,0c0,0,0.1,0,0.2-0.1C33.1,6.3,32.9,6.3,32.6,6.3z"/>
			<path class="st1" d="M33.3,6.3c0.1,0,0.2,0,0.2,0C33.5,6.3,33.4,6.3,33.3,6.3z"/>
			<path class="st1" d="M33.6,6.3c0.1,0,0.2,0,0.3,0C33.9,6.3,33.7,6.2,33.6,6.3z"/>
			<path class="st1" d="M33.9,6.3c0.1,0,0.2,0,0.2,0c0.1,0,0.1,0,0.1-0.1C34.1,6.4,34,6.3,33.9,6.3z"/>
			<path class="st1" d="M34.1,5.9c0,0,0.1,0,0.2,0C34.2,5.9,34.2,5.9,34.1,5.9C34.1,5.9,34.1,5.9,34.1,5.9z"/>
			<path class="st1" d="M35.1,6.2C35,6.2,35,6.2,35.1,6.2L35.1,6.2c0.1,0,0.3,0,0.5,0c0,0,0,0,0,0c-0.1,0-0.2,0-0.3,0
				c-0.1,0,0.1,0,0.1-0.1C35.2,6.1,35.1,6.2,35.1,6.2C35.1,6.2,35.2,6.2,35.1,6.2z"/>
			<path class="st1" d="M34.5,5.9c0.1,0,0.3,0,0.4,0C34.7,5.8,34.6,5.8,34.5,5.9z"/>
			<path class="st1" d="M35.6,6.2c0.1,0,0.1,0.1,0.2,0.1c0,0,0-0.1,0.1-0.1C35.8,6.2,35.7,6.2,35.6,6.2z"/>
			<path class="st1" d="M35.8,6.1c0.1,0,0.2,0,0.3,0C36,6.1,35.9,6.1,35.8,6.1z"/>
			<path class="st1" d="M36.8,6.2C36.8,6.1,36.7,6.1,36.8,6.2c-0.2-0.1-0.3,0-0.5,0C36.3,6.2,36.7,6.1,36.8,6.2z"/>
			<path class="st1" d="M36.3,6.1c0.2,0,0.3,0,0.5,0C36.6,6,36.5,6.1,36.3,6.1z"/>
			<path class="st1" d="M36.7,6c0,0,0.2,0,0.2,0C36.8,5.9,36.7,6,36.7,6z"/>
			<path class="st1" d="M36.8,6c0.1,0,0.2,0,0.4,0C37,6,36.9,6,36.8,6z"/>
			<path class="st1" d="M37.4,6.1c-0.1,0,0-0.1,0.1-0.1C37.6,6.1,37.5,6.1,37.4,6.1c0.1,0,0.1,0,0.2,0C37.6,6.1,37.9,6,38.1,6
				c0-0.1-0.3,0-0.3,0.1c0-0.1-0.2,0-0.1-0.1c-0.1,0-0.3,0.1-0.6,0.2C37.2,6.2,37.3,6.1,37.4,6.1z"/>
			<path class="st1" d="M38,6C38,6.1,38,6.1,38,6c0.1,0,0.2,0,0.2,0c0,0,0,0,0,0c-0.1,0-0.1,0-0.1,0C38.1,6,38.1,6.1,38,6z"/>
			<path class="st1" d="M38.3,6.1c0.1,0,0.2,0,0.1-0.1C38.3,6.1,38.3,6.1,38.3,6.1z"/>
			<path class="st1" d="M38.4,6c0,0,0.1,0,0.1,0c0,0,0,0,0.1,0C38.6,6,38.5,6,38.4,6z"/>
			<path class="st1" d="M12.6,49.2C12.6,49.3,12.6,49.2,12.6,49.2c0,0.1,0,0.1,0,0.1C12.6,49.2,12.8,49.4,12.6,49.2
				c0-0.2-0.1-0.4,0-0.5c-0.1-0.1,0-0.1,0-0.2c0,0,0,0,0,0c0-0.1,0,0,0-0.1c0,0,0-0.1-0.1-0.2c0,0.1,0,0.2,0.1,0.2
				c0,0.1,0,0.1,0,0.2c-0.1,0.1,0,0.4,0,0.4c0.1,0.1,0-0.1,0-0.2C12.6,49,12.6,49.1,12.6,49.2z"/>
			<path class="st1" d="M12.6,47.3c0-0.1,0-0.2-0.1-0.3c0,0.1,0,0,0,0.1C12.6,47.1,12.6,47.2,12.6,47.3z"/>
			<path class="st1" d="M12.6,46.8C12.6,46.7,12.5,46.7,12.6,46.8c-0.1,0,0-0.1,0-0.1c0-0.1,0-0.1-0.1-0.1c0-0.1,0-0.3-0.1-0.4
				c0.1-0.2,0-0.3,0-0.5c0.1,0,0.1,0.2,0.1,0.3c-0.1-0.2,0-0.4-0.1-0.6c0-0.1,0.1-0.1,0-0.2c0-0.1,0.1,0,0.1,0.1c0,0,0-0.1,0-0.1
				c0,0-0.1-0.1-0.1,0c0-0.2-0.1-0.3-0.1-0.5c0.1,0.2,0.1,0.3,0.1,0.4c0.1-0.1-0.1-0.3-0.1-0.5c0,0,0-0.2,0-0.2c0,0,0,0,0,0
				c0,0,0,0,0-0.1c0,0,0,0,0,0c0-0.2-0.1-0.4-0.1-0.5c0,0,0,0,0,0c0,0.2,0.1,0.3,0.1,0.4c0-0.2,0-0.3,0-0.5c0-0.1,0,0.1,0,0.1
				c0,0,0-0.1,0-0.1c0-0.1,0.1,0,0.1-0.1c0,0,0,0-0.1-0.1c0,0,0,0,0,0.1c0,0.1-0.1,0,0,0.1c0,0.1-0.1,0-0.1-0.1c0,0.1,0-0.1,0.1,0
				c0-0.1-0.1-0.1-0.1-0.2c0-0.1,0.1,0.1,0.1,0.2c0,0.1,0-0.1,0.1,0c0-0.1,0-0.2,0-0.2c0,0,0,0.1,0.1,0.1c0-0.1,0-0.2,0-0.2
				c0,0,0,0.1,0,0.1c0-0.1,0-0.1,0-0.2c0,0.1-0.1,0-0.1,0c0,0,0,0,0-0.1c0-0.1,0,0.1,0,0c-0.1-0.1-0.1-0.6,0-0.6
				c0-0.1,0-0.1-0.1-0.1c0-0.1,0,0,0.1-0.1c0,0.1,0,0.2,0,0.3c0-0.1,0-0.3,0-0.5c0,0,0,0,0,0c0-0.1-0.1-0.2,0-0.3c0,0,0-0.1-0.1,0
				c0-0.1,0-0.1,0-0.3c-0.1,0.1,0-0.2-0.1-0.2c0-0.2,0.1,0.1,0.1,0c0-0.1,0-0.1,0-0.2c0,0,0,0,0.1,0c0,0.2,0,0.4,0.1,0.6
				c0,0,0-0.1,0-0.2c-0.1-0.3,0-0.6-0.1-0.8c0.1-0.3-0.1-0.8,0-0.9c0-0.1,0-0.1,0-0.3c-0.1,0,0-0.2-0.1-0.3c0,0,0,0,0,0
				c0,0-0.1-0.2,0-0.2c-0.1-0.2,0-0.5-0.1-0.7c0,0.1,0-0.1-0.1-0.1c0,0,0,0.1,0.1,0.1c0-0.2,0-0.4-0.1-0.6c0.1,0,0.1-0.2,0-0.3
				c0,0,0-0.1,0-0.1c-0.1-0.1,0-0.6-0.1-0.8c0.1-0.2-0.1-0.5,0-0.7c0,0.1,0,0.1,0,0.2c0,0,0-0.3,0-0.4c0-0.1,0-0.3,0-0.3
				c0,0,0-0.1,0-0.1c0-0.2,0-0.3-0.1-0.5c0-0.2,0-0.6,0-0.8c0-3.6,0.1-7.3,0.5-10.9c0.2-1.8,0.4-3.6,0.7-5.3
				c0.2-0.8,0.4-1.7,0.7-2.5l0.2-0.6l0.2-0.5l0.2-0.5c0.1-0.1,0.2-0.3,0.3-0.4c0,0,0,0,0,0.1c-0.1,0.2-0.3,0.3-0.3,0.5
				c-0.1,0.2-0.2,0.4-0.3,0.6c0,0,0,0.1,0,0.1c0,0,0,0,0-0.1c-0.1,0.1,0,0.2-0.1,0.2c0,0.1,0,0,0,0.1c-0.1,0.2-0.2,0.5-0.3,0.8
				c-0.1,0.2-0.2,0.4-0.2,0.6c0,0,0,0,0,0c0,0.4-0.2,0.8-0.2,1.1c0,0,0,0-0.1,0.1c0,0,0,0,0,0c-0.2,0.4-0.1,0.8-0.3,1.3
				c0,0.1-0.1,0.3-0.1,0.4c0,0.2,0,0.3-0.1,0.4c0,0.2,0,0.3-0.1,0.5c0,0.1,0,0,0,0.1c0,0,0,0.1,0,0.1c0,0.1,0,0.2,0,0.3c0,0,0,0,0,0
				c0,0.2,0,0.3,0,0.4c-0.1,0,0,0-0.1,0.1c0,0,0,0.1,0,0.1c0,0,0,0-0.1,0.1c0,0.1-0.1,0.3,0,0.5c0,0,0,0,0,0c0,0.3-0.1,0.8,0,0.9
				c0,0.1-0.1,0.2,0,0.4c-0.1,0.1-0.1,0.3-0.1,0.4c-0.1,0.8-0.1,1.5-0.2,2.4c0,0,0,0,0,0c0,0.1,0,0.1-0.1,0.2c0,0.5-0.1,1.1,0,1.6
				c0,0,0,0,0,0.1c0,0.2,0,0.4,0,0.6c0,0,0.1,0,0.1,0.1c0,0.1-0.1,0-0.1,0.1c0,0-0.1-0.1,0-0.2c0-0.1-0.1,0.1,0,0.1
				c-0.1,0.3,0,0.5-0.1,0.8c0.1,0.1,0,0.2,0,0.4c0,0,0,0,0,0c0,0.2,0,0.5,0,0.7c0,0,0,0,0,0c0,0.3,0,0.8-0.1,1.1c0,0,0,0,0,0
				c0,0.4,0,0.8,0,1.2c0,0.3,0,0.7,0,1.1c0,0.1,0,0,0.1,0.1c0,0,0,0.1,0,0.1c-0.1-0.1,0,0.3-0.1,0.4c0,0,0-0.1,0-0.1
				c0,0,0,0.1,0,0.1c-0.1,0.1,0,0.4-0.1,0.6c0,0.1,0,0,0.1,0.1c0,0,0,0.1,0,0.1c0,0,0,0,0-0.1c0,0.1,0,0.1,0,0.2c0,0,0-0.1,0.1,0
				c0,0,0-0.1,0-0.1c0,0.1,0,0.1,0,0.2c0,0.1,0,0.1,0,0.2c0,0,0-0.1,0-0.2c-0.1,0.1,0-0.1,0-0.1c-0.1,0.2,0,0.2,0,0.4c0,0,0-0.1,0,0
				c0,0,0,0,0,0.1c0,0,0,0,0,0c0.1,0.1,0,0.2,0.1,0.3c0,0.1,0,0.1,0,0.1c0,0.1,0.1,0.2,0.1,0.3c0,0,0-0.1-0.1-0.1c0,0.1,0,0.1,0,0.1
				c0,0.1,0,0.1,0,0.2c0,0,0-0.1,0,0c0.1,0.1,0.1,0.4,0,0.4c0,0.1,0,0.2,0,0.3c-0.1,0.1,0,0.3,0,0.3c0.1,0.1,0,0.4,0.1,0.6
				c0,0.2,0,0.4,0,0.5c0,0.1,0-0.1,0,0c0.1,0.3,0,0.6,0.1,0.9c0,0,0-0.1,0-0.1c0,0,0,0,0,0c0,0.1,0,0.3,0,0.4c0,0,0,0,0-0.1
				c0,0,0,0.1,0,0.1c0,0,0,0,0,0.1c0.1,0.1,0,0.3,0.1,0.5c0,0.1,0,0.1-0.1,0c0,0.1,0,0.1,0,0.2c0,0,0,0,0-0.1c0,0.1,0,0.1,0.1,0.2
				c0,0,0,0-0.1,0c0,0.2,0,0.3,0.1,0.5c0,0,0,0,0,0c0.1,0.1,0.1,0.5,0.1,0.7c0,0,0,0.2-0.1,0.1c0,0.1,0,0.1,0.1,0.1
				c0,0.1-0.1,0.1,0,0.2c0,0,0-0.1,0-0.1c0,0,0,0,0,0c0,0.2,0,0.4,0.1,0.6c0,0,0,0-0.1,0.1c0,0.1,0,0,0.1-0.1c0.1,0.1,0,0.2,0.1,0.3
				c0,0.1-0.1-0.1-0.1,0c0,0.1,0.1,0,0.1,0.1c0,0.1,0,0.1,0,0.1c0,0,0,0,0-0.1c0,0.1,0,0.2,0.1,0.2c0,0.2,0,0.1,0,0.3
				c0.1,0.1,0,0.2,0,0.3c0,0,0-0.1,0.1,0l0-0.1c0-0.1,0,0,0-0.1c0,0,0,0,0,0c0-0.1-0.1-0.5,0-0.5c0,0,0-0.1,0-0.1
				c0-0.1,0.1,0,0.1,0.1c0,0,0-0.3-0.1-0.2c0-0.1,0-0.2-0.1-0.3c0,0,0,0.1,0.1,0.1c0-0.1-0.1-0.3,0-0.2c0-0.1,0-0.1,0,0
				c0-0.1,0-0.2,0-0.2c0,0,0,0,0,0c0-0.1,0-0.1,0-0.2c0,0,0,0,0,0c-0.1-0.2-0.1-0.4-0.1-0.6c0,0,0,0.1,0,0.1c0-0.1,0-0.1,0-0.2
				c0,0.1,0,0.2,0,0.3c0.1,0.1,0,0.3,0.1,0.4c0-0.3-0.1-0.5-0.1-0.8c0-0.1,0,0.1,0,0.1c-0.1-0.1,0.1-0.1,0-0.3c0,0.1,0,0.1,0,0.1
				c-0.1-0.1,0-0.1-0.1-0.2c0-0.1,0,0,0,0c0,0,0-0.1,0-0.1c-0.1,0-0.1-0.4-0.1-0.6c0,0,0,0.1,0,0.1c0-0.3-0.1-0.6-0.1-0.9
				c0,0,0,0,0,0.1c0-0.1,0-0.2-0.1-0.2c0-0.1,0.1,0,0.1-0.1c0-0.1,0,0.1-0.1,0c0-0.2-0.1-0.4,0-0.5c-0.1-0.1,0-0.1-0.1-0.3
				c0-0.1,0,0,0-0.1c0-0.1,0-0.3-0.1-0.4c0,0,0,0.1,0,0.2c0-0.1,0-0.3-0.1-0.4c0-0.1,0,0,0.1-0.1c0,0.1,0,0.2,0.1,0.2
				c0-0.3-0.1-0.5-0.1-0.7c0-0.1,0.1,0.1,0.1,0c0-0.2,0-0.5,0-0.7c-0.1-0.1,0-0.2,0-0.3c0,0,0,0-0.1,0c0-0.2-0.1-0.6,0-0.6
				c0-0.3,0-0.6,0-0.8c0-0.1,0-0.3,0-0.4c-0.1-0.1,0-0.2-0.1-0.3c0-0.1,0,0,0-0.1c0-0.5,0-1,0-1.5c0,0,0-0.1,0,0c0-0.4,0-0.8,0-1.2
				c0-0.1,0-0.2,0-0.3c0,0,0,0,0,0c0-0.1,0-0.3,0-0.5l0.1-0.1c0-0.4,0-0.9,0-1.3c0,0,0,0,0,0c0-0.9,0.1-1.5,0.1-2.3c0-0.1,0-0.6,0-1
				c0-0.2,0-0.3,0-0.4l0-0.1c0.1-0.1,0-0.3,0.1-0.4c0-0.4,0.1-0.9,0.1-1.3l0-0.1c0-0.6,0.1-1.1,0.1-1.6c0.1-0.2,0-0.5,0.1-0.7
				c0-0.2,0.1-0.3,0-0.4c0.1-0.4,0.1-0.8,0.2-1.2c0.2-0.8,0.3-1.7,0.5-2.5l0-0.1c0,0,0,0,0,0c0.1-0.5,0.2-0.7,0.3-1.2l0.1-0.1
				c0-0.1,0-0.1,0-0.2c0,0,0,0,0,0.1c0,0,0-0.1,0-0.1c0.1-0.4,0.2-0.8,0.4-1.1c0.2-0.3,0.3-0.7,0.4-0.9c0.2-0.2,0.3-0.5,0.5-0.6
				c0.1-0.1,0.2-0.2,0.3-0.3l0.4-0.3c1.2-0.7,2.8-1.2,4.4-1.6l0.1,0c0.5-0.1,0.9-0.2,1.4-0.3c0.1,0,0.1-0.1,0.2,0
				c0.1,0,0.2-0.1,0.4-0.1l0.1,0c0.2,0,0.3,0,0.5-0.1c0.8-0.1,1.6-0.3,2.3-0.3l0.1,0c0.1,0,0.4,0,0.4-0.1c0,0,0,0,0.1,0
				c0.1-0.1,0.1,0,0.2,0c0.2-0.1,0.4-0.1,0.7-0.1c0,0,0,0,0,0c0.1,0,0.1-0.1,0.2,0c0,0,0,0,0,0c0.1,0,0.1,0,0.2,0c0,0,0,0,0,0
				c0.1,0,0.2-0.1,0.3-0.1c0.1,0-0.1,0-0.1,0.1c0.3-0.1,0.5-0.1,0.8-0.1l0.1,0c0,0,0.1,0,0,0c0.1-0.1,0.2,0,0.4-0.1c0,0,0.2,0,0.1,0
				c0.1,0,0.1-0.1,0.2,0c0.1,0-0.1,0-0.1,0c0.2-0.1,0.3,0,0.5-0.1c0,0,0,0,0,0c0,0,0.1,0,0.1,0c0,0,0.1,0,0.2-0.1
				c0.4,0.1,0.8-0.1,1.1-0.1c0.1-0.1,0.3-0.1,0.4-0.1c0,0.1-0.2,0-0.3,0.1c0,0,0.1,0,0.1,0c-0.1,0-0.3,0.1-0.4,0.1
				c0-0.1-0.3,0-0.4,0c0.2,0,0.7,0,0.9-0.1c0,0,0,0-0.1,0c0.1,0,0.4,0,0.4-0.1c0.1,0,0.1,0,0.1,0c0.2-0.1,0.4-0.1,0.7-0.1
				c0.3,0,0.7,0,1-0.1c0.2,0,0.5,0,0.6-0.1c0.4,0,1.2-0.2,1.7,0C35.5,9,36,9.1,36,9c0.1,0,0.2-0.1,0.4,0c0.5-0.1,0.9-0.1,1.4,0
				c0.1,0,0.1-0.1,0.1-0.1c0.1,0,0.1,0,0.2,0c0.1,0,0.1,0,0.2,0c0,0,0.1,0,0.1-0.1c0,0-0.1,0-0.1,0c0.3-0.1,0.8,0,1.1,0.1
				c0-0.1,0.2-0.1,0.3,0c0.3-0.1,0.6-0.2,1-0.2l0.1,0.1c0-0.1,0.2,0,0.3-0.1c0,0,0,0,0,0c0.3,0,0.6,0,0.9-0.1c0.3,0,0.8,0,1.1-0.1
				c0.2,0,0.6,0,0.8-0.1c0.3,0,0.6-0.1,0.8-0.1c-0.1,0-0.1,0-0.1-0.1c0.1,0,0.1,0,0.2,0c-0.1,0-0.2,0-0.2,0c-0.1,0.1-0.3,0-0.3,0
				c-0.1,0-0.1,0-0.1-0.1c-0.1,0-0.3,0-0.4,0c0.1,0,0.2,0,0.4-0.1c-0.5,0-1.2-0.1-1.8,0c-0.1,0-0.1,0-0.2,0c0,0,0,0,0,0
				c-0.1,0-0.1,0-0.2,0c-0.1-0.1-0.4,0-0.5,0.1c-0.1,0,0-0.1,0.1-0.1c-0.1,0-0.2,0-0.1-0.1c0.1,0,0.1,0,0.2,0c0,0-0.1,0-0.2,0
				c-0.1,0,0,0-0.1,0c0,0-0.1,0-0.1,0c0,0,0.1-0.1,0.1-0.1c0,0,0,0,0.1,0c-0.1,0,0.1,0,0.2,0c0,0,0,0,0.1,0c0.2,0,0.2-0.1,0.4-0.1
				c0,0-0.2,0.1-0.2,0.1c0.1,0,0.2,0,0.2,0c0.2,0,0.4,0,0.7,0c-0.1,0-0.3,0-0.4,0c0.1-0.1,0.4-0.1,0.5,0c0.2,0,0.4-0.1,0.5,0
				c0.5-0.1,1.1,0,1.6-0.1c-0.1,0-0.2,0-0.3-0.1c-0.1,0-0.3,0-0.4-0.1c0,0,0,0-0.1,0c-0.1-0.1-0.2,0-0.3-0.1c0,0,0,0,0.1-0.1
				c-0.1,0-0.2,0-0.4,0c-0.1,0,0.1,0,0-0.1c-0.2,0-0.3,0-0.5,0c-0.1-0.1,0.2-0.1,0.3-0.1c0,0-0.1,0-0.1,0c0,0,0,0,0,0
				c-0.1,0-0.1,0-0.2,0c0,0,0,0-0.1,0c-0.2,0-0.3,0-0.4,0c-0.1,0-0.1,0,0,0.1c0,0-0.1,0-0.1,0c0,0-0.1-0.1-0.1-0.1
				c0.2,0,0.5,0,0.5-0.1c0.3,0,0.6,0,0.8,0c-0.1-0.1,0.1,0,0.2,0c0,0-0.1,0-0.2,0c0.1,0,0.2,0,0.4,0c0.1,0-0.1,0,0.1,0
				c0-0.1,0.3,0,0.5,0c0.1,0,0.3,0,0.5,0c0-0.1-0.2,0-0.2,0c0.2,0,0.5,0,0.8,0c0.2-0.1,0.8,0.1,0.9-0.1c0.2,0,0.2,0,0.4,0
				c0,0-0.1,0-0.1,0.1c0.4,0,0.7-0.1,0.8-0.2c-0.1,0-0.2-0.1-0.2-0.1c-0.2-0.1-0.5-0.1-0.5-0.2c-0.1,0-0.3,0-0.3,0.1
				c0,0,0.1,0,0.1,0c0,0,0,0-0.1,0c-0.1,0-0.1-0.1-0.2-0.1c-0.1,0,0,0,0-0.1c-0.1,0-0.1,0-0.1,0c-0.1-0.1-0.4,0-0.7,0
				c-0.2-0.1-0.5,0-0.8,0l0,0c0.1-0.1,0.4-0.1,0.5-0.1c0,0-0.1,0-0.1,0c-0.4,0.1-0.6,0-1,0c0,0,0,0,0,0c0.1,0,0.3,0,0.4-0.1
				c-0.1,0-0.1,0-0.2,0c0,0,0,0-0.1,0c0,0,0,0,0,0.1c-0.1,0-0.4,0-0.4,0.1c-0.1,0,0-0.1-0.1,0c0,0,0.1,0,0.1,0c-0.1,0-0.2,0-0.1,0.1
				c-0.1,0,0,0-0.1-0.1c-0.1,0,0,0-0.1,0.1c-0.1,0-0.1,0,0,0c-0.1,0-0.1,0-0.1,0c0,0-0.1,0-0.1-0.1c0.1,0,0.1,0,0.2,0
				c-0.1,0-0.2,0-0.2,0.1c-0.2,0-0.3,0-0.4,0c-0.1,0,0,0,0-0.1c0.1,0,0.2,0,0.3,0c-0.1,0-0.1-0.1,0-0.1c-0.1,0-0.1,0-0.1,0
				c0,0-0.1,0-0.1-0.1c-0.1,0-0.2,0-0.4,0c0,0,0.1,0,0.2,0c0,0,0,0,0,0l0,0c-0.1,0-0.2,0-0.3,0c0,0,0-0.1,0-0.1c-0.1,0-0.1,0-0.1,0
				c-0.1,0-0.1,0-0.1-0.1c-0.1,0,0,0-0.1,0c-0.1,0,0,0-0.1-0.1c-0.1,0-0.3,0-0.4,0c-0.1,0,0.1,0,0.1-0.1c-0.1,0-0.1,0-0.2,0
				c0,0-0.1,0,0,0c-0.3-0.1-0.7,0-1,0c0,0,0,0,0,0c-0.1,0-0.1,0-0.2,0c-0.1-0.1-0.4,0-0.6,0c0.1-0.1,0.3-0.1,0.5-0.1
				c-0.1,0-0.2,0-0.2,0l-0.1,0c-0.1,0,0,0-0.1,0c0.1,0,0.1,0,0.2,0c0,0,0.1,0,0.1-0.1c-0.1-0.1-0.2,0.1-0.3,0l-0.3,0.1
				c-0.1,0,0,0,0-0.1c-0.1,0-0.1,0-0.2,0c0,0,0,0-0.1,0.1c0,0,0.1,0,0.1,0c-0.1,0-0.2,0-0.2,0l-0.2,0.1c0-0.1,0,0-0.1,0
				c-0.1,0,0.1,0,0-0.1c0,0.1-0.2,0.1-0.3,0.1c-0.1,0-0.3,0-0.4-0.1c-0.1,0.1-0.2,0.1-0.4,0.1c-0.1,0,0.1,0,0.1-0.1
				c-0.2,0-0.4,0.1-0.5,0.2c0.2,0,0.3-0.1,0.4-0.1c0,0,0,0,0,0c0.1,0,0.1,0,0.1,0c0.2,0.1,0.6-0.1,0.8,0c-0.2,0.1-0.5,0.1-0.7,0.1
				c-0.2,0.1-0.5,0.1-0.7,0.1c0.1,0,0.1-0.1,0.2-0.1c-0.1,0-0.1,0-0.2,0c-0.2-0.1-0.3,0-0.5,0c-0.2,0-0.1,0-0.3,0.1c0.1,0,0,0,0,0
				c-0.1,0-0.1,0-0.2,0c-0.1,0,0-0.1,0.1,0c0,0-0.3,0-0.3,0c-0.1,0-0.2,0-0.3,0c-0.1,0-0.3,0.1-0.4,0.1c-0.1-0.1,0.1-0.1,0.1-0.1
				c-0.2,0-0.2,0.1-0.5,0.1c-0.1,0,0,0-0.1,0c-0.1,0,0.1,0,0.1,0c0.1,0,0.1,0,0.2,0c0,0,0,0,0.1,0c0,0,0,0,0,0c-0.1,0-0.1,0-0.2,0
				c0,0-0.1,0,0,0c-0.1,0-0.1,0-0.2,0c0,0,0,0,0,0c0,0,0,0,0.1,0c0,0,0,0,0-0.1c-0.3,0.1-0.6,0.1-0.9,0.2c0,0-0.1,0,0,0
				c0,0-0.3,0.1-0.4,0.1c0,0,0.2-0.1,0.2-0.1c0.1,0,0.1,0,0,0c-0.3,0-0.5,0.1-0.7,0.1c-0.1-0.1,0.2,0,0.2-0.1c-0.1,0-0.1,0-0.2,0
				c-0.3,0-0.8,0.1-1.1,0.1c-0.1,0,0.2,0,0.1-0.1c0,0-0.2,0.1-0.3,0.1c0.1,0,0.1,0,0.2,0c0,0,0,0,0,0c-0.1,0-0.3,0-0.4,0
				c0,0,0,0-0.1,0c-0.1,0-0.2,0-0.3,0c0,0,0,0,0,0c-0.1,0-0.1,0-0.2,0c0,0,0,0,0,0c-0.4,0-0.7,0-1.1,0.1c0,0,0,0,0-0.1
				c-0.1,0-0.1,0-0.2,0c-0.1,0,0,0,0,0.1c-0.1,0-0.2,0-0.3,0c-0.1,0,0,0-0.1,0c0,0,0,0,0,0.1c-0.1,0-0.1,0-0.3,0c-0.1,0,0,0-0.1,0
				c0,0,0,0,0,0c-0.1,0-0.4,0-0.4-0.1c-0.2,0,0.2,0,0,0.1c-0.1,0-0.1,0-0.2,0c-0.1,0-0.2,0-0.3,0.1c-0.1,0-0.2,0-0.2,0l-0.1,0
				c0.1,0,0,0,0.1,0c-0.1,0.1-0.4,0-0.6,0.1c0,0,0-0.1,0.1-0.1c-0.2,0-0.2,0.1-0.3,0.1c-0.1,0-0.2,0-0.3,0c-0.1,0-0.3,0-0.4,0
				c0,0,0.1,0,0.2-0.1c0,0,0.1-0.1,0-0.1C26.4,6.9,26.3,7,26.2,7c0,0-0.1,0-0.2,0c0,0,0.3,0,0.1-0.1c0.1,0,0.1,0,0.2,0
				c-0.1,0-0.3,0.1-0.2,0c-0.1,0-0.2,0-0.3,0.1c0-0.1-0.1,0-0.2,0C25.4,7,25.3,7,25.1,7.1c0,0,0.1,0.1,0.2,0c0,0.1-0.2,0-0.3,0
				c0,0,0-0.1,0.1-0.1C25.1,7,25,7,25,7c0,0.1-0.1,0-0.2,0.1c0.1,0,0.1,0,0.2,0c-0.1,0-0.1,0-0.2,0c0,0,0,0,0.1,0c0,0-0.1,0-0.1,0
				c-0.1,0,0,0.1-0.1,0c0,0,0.1,0.1,0,0.1c-0.1,0,0,0-0.1,0c-0.1,0,0,0,0,0.1c0,0-0.1,0-0.1,0c-0.1,0,0.1-0.1,0-0.1
				c0,0-0.1,0.1,0,0.1c-0.1,0-0.1,0-0.2,0c-0.1,0-0.1,0-0.1,0c-0.1,0-0.2,0-0.3,0c-0.1,0.1-0.2,0.1-0.3,0.1c-0.1,0,0.1,0,0-0.1
				c-0.1,0.1-0.2,0.1-0.4,0.1c-0.1,0,0,0,0,0.1c-0.1,0,0,0-0.1-0.1c-0.1,0-0.1,0-0.1,0c-0.2-0.1-0.4,0.1-0.7,0.1
				c-0.1,0.1-0.1,0.1-0.3,0.1c0,0-0.1,0-0.2,0c0,0,0.1,0,0.2-0.1c-0.1,0-0.2,0-0.3,0.1c-0.1,0-0.1,0-0.1,0c-0.1,0-0.1,0-0.2,0.1
				l-0.1,0c0,0-0.2,0.1-0.3,0.1c-0.1,0.1-0.1,0.1-0.2,0.1c-0.1,0,0,0,0,0c-0.1,0-0.1,0-0.2,0c-0.1,0,0,0,0-0.1c-0.1,0-0.2,0-0.3,0
				c0,0,0,0,0.1,0c0,0-0.2,0-0.3,0c0.2,0,0.2,0,0.4,0c-0.2,0.1-0.2,0-0.4,0c0,0,0.2,0,0.2,0.1c-0.1,0-0.2,0-0.3,0
				c-0.1,0-0.1,0.1-0.1,0.1c0-0.1-0.1,0-0.2,0c0,0,0.1-0.1,0-0.1c0,0-0.1,0,0,0.1c-0.1,0-0.1,0-0.1,0c-0.1,0-0.1,0-0.2,0
				c0,0,0.2,0,0.2-0.1c-0.1,0.1-0.6,0.2-0.6,0.1c-0.1,0-0.1,0.1-0.2,0.1c-0.1,0.1-0.3,0.1-0.5,0.2c-0.1,0-0.2,0-0.1,0
				c-0.1,0,0,0.1-0.1,0.1c-0.2,0-0.3,0.1-0.5,0.2c0,0-0.2,0-0.2,0.1c-0.1,0-0.1,0-0.2,0c0,0,0.1,0,0.1,0c-0.1,0-0.2,0-0.2,0
				c-0.1,0,0,0.1-0.2,0.1c0,0,0,0,0,0.1c0.1,0,0.2-0.1,0.3-0.1c-0.2,0-0.3,0.1-0.5,0.2c0,0,0,0,0,0c0.1,0,0.2-0.1,0.2-0.1
				c-0.1,0-0.2,0.1-0.4,0.1c0,0-0.1,0-0.1,0.1c0,0,0,0,0,0C16,9,15.9,9,15.8,9.1c-0.1,0,0,0-0.1,0c-0.1,0.1,0.1,0-0.1,0.1
				c-0.1,0,0-0.1-0.1,0c-0.1,0,0,0,0,0c-0.4,0-0.8,0.4-1.1,0.5c0,0,0-0.1,0-0.1c-0.1,0.1-0.2,0.2-0.4,0.2c0,0,0,0,0,0
				c0,0.1-0.1,0.1-0.1,0.1c-0.1,0,0,0,0-0.1c-0.1,0-0.1,0.1-0.2,0.1c0,0,0,0,0.1,0c0,0.1-0.1,0.1-0.1,0.1c0,0,0,0,0,0l-0.1,0.1
				c-0.1,0,0,0-0.1,0c-0.2,0.2-0.4,0.4-0.6,0.6l0.1,0c-0.1,0.1-0.1,0.1-0.2,0.2c-0.1,0,0,0,0-0.1c-0.1,0.1-0.3,0.4-0.3,0.5
				c-0.1,0-0.1,0.1-0.1,0.2c0.1-0.1,0,0,0,0.1c0.1-0.2,0.2-0.3,0.4-0.5c0,0,0,0,0,0c0-0.1,0.1-0.1,0.1-0.1c0.1-0.1,0.1,0,0.2-0.1
				c-0.3,0.2-0.4,0.6-0.6,0.8c0,0,0,0,0,0c0,0.1,0,0-0.1,0c0,0.2-0.2,0.3-0.3,0.4c0,0.1,0,0.2-0.1,0.2c0-0.1,0-0.1-0.1-0.1
				C12,12.1,12,12,12,12c0,0.1,0,0.1-0.1,0.1c0,0.1,0,0.1,0,0.1c0,0.1-0.1,0.1-0.1,0.2c-0.1,0.1-0.2,0.3-0.2,0.4
				c0,0-0.1,0.1-0.1,0.2c0,0,0,0,0,0c-0.1,0.1-0.1,0.3-0.2,0.5c0,0,0.1,0,0,0c0,0.1-0.1,0.1,0,0.1c0,0,0,0,0,0c0,0.1,0,0,0,0.1
				c0,0-0.1,0.1-0.1,0c0,0.1-0.1,0.3-0.1,0.4c0,0.1,0,0-0.1,0.1c0,0,0,0.1,0,0.1c0,0.2,0,0.2-0.1,0.4c0,0,0,0.2-0.1,0.3c0,0,0,0,0,0
				c0,0.1,0,0.2,0,0.3c0,0,0.1-0.1,0.1-0.1c0,0,0,0.1,0,0.1c0,0.1,0-0.1,0.1-0.1c0,0,0,0,0,0.1c0,0-0.1,0.1-0.1,0.2
				c0,0.1-0.1,0.1-0.1,0c-0.1,0.1,0,0.2-0.1,0.2c0,0,0,0,0,0.1c0-0.1,0-0.3,0-0.4c0,0.1-0.1,0.1-0.1,0.2c0,0,0,0.1,0,0.1
				c0,0,0,0,0,0c0,0.1,0,0.1-0.1,0.1c0.1,0,0,0.4-0.1,0.4c0,0,0,0.1,0,0.2c0-0.1,0-0.2,0.1-0.2c0,0,0,0.2-0.1,0.3c0,0,0,0,0,0.1
				c0,0.1,0,0,0,0c0,0.1,0,0.1,0.1,0c0-0.1,0-0.1,0-0.2c0,0,0,0,0.1,0c0,0.1-0.1,0.2-0.1,0.3c0,0-0.1-0.2-0.1,0c0,0,0,0,0,0.1
				c-0.1,0,0-0.1-0.1,0.1c0,0,0,0,0,0.1c-0.1,0,0,0.2-0.1,0.3c0-0.3,0-0.5,0.1-0.8c-0.1,0.1,0-0.2,0-0.2c0,0,0,0.1-0.1,0.1
				c0,0.1,0,0.2-0.1,0.3c0.1-0.1,0,0.1,0.1,0.1c0,0.1,0,0.1,0,0.2c0,0,0-0.2,0,0c0-0.1,0-0.1,0-0.1c0,0,0,0-0.1,0.1
				c0,0.1,0,0.2-0.1,0.2c0.1,0,0,0.3,0,0.4c0,0.1,0,0,0.1-0.1c0,0.2-0.1,0.4,0,0.5c0,0.1,0,0-0.1,0c0-0.1,0-0.2,0.1-0.4
				c0,0,0-0.1-0.1,0c0,0,0,0.1,0,0.1c0,0,0,0,0,0c-0.1,0.1-0.1,0.5-0.1,0.6c-0.1-0.1-0.1,0.2-0.1,0.2c0,0,0,0.1,0,0.1
				c0,0.1,0-0.1,0.1-0.1c0,0,0,0.1,0.1,0.2c-0.1,0.1,0-0.1-0.1-0.1c-0.1,0.1,0,0.1,0,0.2c0,0,0,0,0.1,0c0,0.1,0,0.1,0,0.2
				c0-0.1,0-0.2,0.1-0.3c0-0.1,0-0.2,0-0.4c0,0,0,0.1,0,0.1c0,0,0.1-0.1,0-0.1c0.2,0-0.1,0.6-0.1,1c0,0,0-0.1,0,0c0,0,0-0.1,0-0.2
				c0,0,0,0.2,0,0.2c0,0,0.1,0.2,0,0.2c0,0,0-0.1,0-0.2c-0.1,0,0-0.1-0.1-0.1c0,0.1,0,0.1-0.1,0.2c0-0.2,0.1-0.2,0-0.5
				c-0.1,0.1,0,0-0.1,0.1c0,0,0.1-0.1,0.1,0.1c0,0.1-0.1,0.3-0.1,0.4c0-0.1,0-0.1,0.1,0c0-0.1,0-0.1,0-0.2c0,0,0,0.1,0,0.1
				c0,0,0,0,0,0c0,0.1,0,0,0,0.2c0,0,0-0.1-0.1,0c0,0.2-0.1,0.5,0,0.6c0,0,0,0-0.1,0.1c0,0.1,0,0.2,0,0.3c0-0.1,0-0.1,0.1-0.1
				c0,0.1,0,0.2,0,0.3c0,0-0.1-0.1,0-0.2c0,0,0,0-0.1,0c0,0.1,0,0.2,0,0.4c0,0,0-0.1,0-0.2c0,0,0,0.1,0,0.2c0,0,0,0,0,0.1
				c0.1,0.1,0,0.3,0,0.4c-0.1,0.1,0-0.2-0.1-0.2c0,0,0,0,0,0.1c0,0.1,0-0.1-0.1,0c0,0.1,0,0.2,0,0.2c0,0.1,0,0.1,0,0.2
				c0,0-0.1,0,0-0.1c-0.1,0,0,0.3-0.1,0.3l0,0.1c0-0.1,0,0,0-0.1c0,0.1,0,0.1,0,0.1c0.1,0.1,0,0.3-0.1,0.5c0,0.1-0.1,0.4,0,0.6
				c0,0,0-0.1,0-0.2c0,0,0,0.3,0,0.4c0,0,0-0.1,0-0.1c0,0.1,0,0.1-0.1,0.1c0,0.1,0.1,0.2,0.1,0.2c0,0.1,0,0.1-0.1,0.1
				c0,0.1,0,0.2,0,0.2c0,0.2,0,0.3,0,0.5c0,0.1,0-0.1-0.1,0c0,0.1,0.1,0,0.1,0.1c0,0.1-0.1,0.1-0.1,0.2c0,0.1,0,0.1,0,0.2
				c0,0,0,0-0.1,0.1c0,0,0,0,0,0.1c0,0.1,0-0.1,0-0.1c0,0.1,0,0.1,0,0.2c0,0.1,0-0.1,0-0.1c0,0,0,0,0.1,0c0,0.1,0,0.1,0,0.1
				c0,0.1,0,0-0.1,0c0,0.1,0,0.1,0,0.1c0,0.1,0,0.2,0,0.3c0,0,0-0.1-0.1-0.1c0,0.1-0.1,0.2-0.1,0.3C9,26.4,9,26.4,8.9,26.6
				c0-0.1,0-0.1,0.1-0.1c0,0.1,0,0.1,0,0.2c0,0,0,0,0,0.1c0-0.1,0.1-0.2,0-0.3c0,0,0,0,0.1,0c0,0.1,0,0,0,0.2c0,0.1,0-0.1-0.1,0
				c0.1,0,0,0.1,0,0.2c0,0.1,0,0,0-0.1c0,0,0,0.1,0,0.1c0,0,0,0.2-0.1,0.1c0,0,0,0.2,0,0.2c0,0.1,0.1,0.1,0,0.2c0,0,0,0,0-0.1
				c0,0.1-0.1,0.3,0,0.4c0,0,0,0.2,0,0.1c0,0.2,0,0.5,0.1,0.5c0,0.1,0,0.1,0,0.2c0,0.1-0.1-0.1-0.1,0c0-0.1,0-0.1,0-0.2
				C9,28.2,9,28.2,9,28.2c0,0,0,0,0,0c0,0.1,0,0.1,0,0.2c0,0,0-0.1,0-0.1c0,0.1,0,0.1,0,0.2c0.1,0,0,0.3,0,0.4C9,29,9,29.1,9,28.9
				c0,0,0-0.1,0-0.1c0,0,0,0,0,0.1c0,0,0-0.3,0-0.4c0,0.4,0,0.9,0,1.3c0,0,0,0,0,0c0,0.1,0,0.1,0,0.2c-0.1,0,0,0.1,0,0.2
				c0,0.1,0-0.2-0.1,0c0.1,0.1,0,0.1,0,0.3c0,0.1,0.1,0.2,0,0.3c0,0.1,0,0.1,0,0.2c-0.1,0.2,0,0.7-0.1,1.1c0,0,0.1,0.1,0,0.1
				c0,0.1,0,0.1,0.1,0.1c0,0,0,0.1,0,0.1c0,0-0.1,0-0.1-0.1c0,0.1,0.1,0,0,0.2c0.1,0,0,0.1,0,0.2c0,0,0,0-0.1-0.1
				c0,0.2,0,0.5,0.1,0.7c0,0.1,0,0.1,0,0.2c0,0.1-0.1-0.1-0.1,0c0,0.1,0,0.1,0.1,0.1c0,0.1,0,0.1,0,0.2C9,33.7,9,33.5,9,33.4
				c0,0,0,0,0,0c0,0.1-0.1,0.4,0,0.6c0,0.1,0-0.1-0.1,0c0,0.1,0,0.3,0,0.4c0,0,0,0,0,0.1c0,0,0,0,0,0c0,0.1,0,0,0,0.1c0,0,0,0,0,0
				c0,0.1,0,0.2,0,0.2c0,0,0,0,0,0.1c0,0,0,0,0,0c0,0.2,0,0.5,0,0.7c0,0.2,0,0.1,0,0.3C9,35.9,9,36,9,36.1c0-0.1,0-0.1,0-0.2
				c0,0.1,0,0.1,0,0.2c0,0,0,0,0,0c0,0.1,0,0.3,0,0.4c0,0,0,0,0,0c0,0.1,0,0.1,0,0.2c0.1,0.1,0,0.5,0.1,0.7c0-0.3,0-0.5,0-0.8
				c0,0.1,0,0.2,0,0.3c0,0,0-0.1,0-0.2l0.1,0.1c0,0,0,0,0,0.1c0,0.2,0.1,0.2,0.1,0.4c0,0,0-0.1-0.1-0.2c0,0,0,0.1-0.1,0
				c0,0,0.1,0.2,0.1,0.3c0,0,0,0-0.1,0c0,0.1,0.1,0.2,0.1,0.3c0,0.1-0.1-0.1-0.1,0c0,0,0,0,0,0c0,0,0,0.1,0.1,0.1c0,0,0,0.2,0,0.2
				c0,0.1,0,0.1,0,0.2c0,0-0.1-0.2-0.1-0.1c0,0,0,0.1,0.1,0.2c0,0.1,0,0,0,0.1c0,0.1,0,0.3,0,0.4c0,0,0-0.1-0.1-0.1
				c0,0.2,0.1,0.2,0.1,0.4c0,0,0.1,0.1,0,0.1c0,0.1,0-0.1,0-0.1l0,0.1c0,0.1,0,0.3,0,0.4c0,0-0.1-0.2,0-0.2c0-0.1,0-0.1,0-0.2
				c0,0.1,0,0.2,0,0.4c0,0.1-0.1,0-0.1,0.1c0.1,0.1,0.1,0.3,0.1,0.6c0,0.1,0-0.1,0-0.1c0,0.1,0,0.1,0,0.1c0,0.1,0,0.2,0.1,0.4
				c0,0.2,0,0.2,0.1,0.4c0-0.1,0-0.2,0-0.3c0,0,0,0,0,0c0-0.1,0-0.1,0-0.2c0-0.1,0,0.1,0,0.1c0,0,0.1-0.2,0-0.4c0-0.1,0-0.3,0-0.5
				c0-0.1,0,0,0-0.1c0-0.2,0-0.5,0-0.7c0.1,0,0-0.2,0.1-0.2c0,0,0-0.1,0-0.2c0,0,0,0.1,0,0.1c0-0.1,0-0.1,0-0.1c0,0,0,0,0,0
				c0-0.1,0-0.1,0-0.2c0,0,0,0,0,0c0-0.1,0-0.1,0-0.2c0,0,0-0.1,0-0.1c0-0.1,0,0.1,0.1,0c-0.1-0.1-0.1-0.5,0-0.6c0-0.1,0,0,0-0.1
				c0,0,0,0,0-0.1c0-0.1,0,0,0.1-0.1c-0.1-0.1,0-0.4,0-0.6c0-0.1,0-0.1,0-0.2c0,0.1,0,0.1,0,0.2c0-0.1,0,0-0.1,0
				c-0.1-0.1,0-0.3,0-0.3c0,0.1,0,0.1,0,0.2c0-0.1,0-0.1,0.1-0.1c0-0.1,0-0.3,0-0.4c0,0,0,0,0-0.1c0,0.1,0,0.1,0,0.2
				c0,0,0-0.1,0.1,0c0-0.1,0-0.2,0-0.2c0-0.1,0,0-0.1,0.1c0-0.1,0-0.2,0-0.4c0,0,0,0-0.1,0c0-0.1,0,0,0.1-0.1c0,0,0,0,0,0.1
				c0.1-0.1,0-0.4,0.1-0.6c-0.1-0.2,0-0.4,0-0.5c0-0.1,0,0.1,0.1,0.1c0-0.1-0.1-0.2,0-0.2c0,0-0.1,0-0.1,0c0-0.2,0-0.3,0-0.5
				c-0.1-0.1,0-0.2,0-0.3c0,0,0,0,0,0c0,0,0,0.1,0,0.1c0,0,0,0,0,0l0,0c0-0.1,0-0.2,0-0.2c0,0.1,0,0.1,0,0.2c0,0,0-0.1,0-0.2
				c0.1,0.1,0-0.2,0-0.3c0,0-0.1,0-0.1-0.1c0,0.1,0-0.1,0.1-0.1c0,0,0,0,0-0.1c0,0,0-0.1-0.1-0.1c0-0.1,0.1-0.2,0-0.4
				c0-0.1,0,0,0.1,0c0-0.1,0-0.2,0-0.3l0-0.1l0,0.1c0,0.1,0,0.2,0,0.2c0-0.1,0-0.2,0-0.3c0.1,0,0-0.2,0.1-0.4c0,0.1,0,0.1,0,0.2
				c0,0,0-0.2,0-0.2c0,0,0,0-0.1-0.1c0-0.1,0-0.1,0.1-0.1c0,0,0-0.1,0-0.1c-0.1,0-0.1-0.1,0-0.2c-0.1,0.1,0,0-0.1-0.1
				c0-0.1,0,0.2,0.1,0c-0.1,0,0-0.1-0.1-0.2c0-0.1,0,0.1,0.1,0.1c0-0.1,0-0.1,0-0.2c0-0.1,0,0.1,0.1,0.1c0.1-0.2,0-0.3,0-0.4
				c0,0,0,0,0.1-0.1c0-0.1,0-0.2,0-0.3c0,0,0,0,0.1,0c0,0,0,0.1,0,0.1c0,0.1,0,0-0.1,0c0,0.1,0,0.2,0,0.3c0-0.1,0-0.2,0-0.3
				c0-0.1,0,0.1,0,0c0,0.1,0,0.2,0,0.3c0,0,0,0,0,0c0,0.1,0,0,0,0.1c0,0,0,0.1,0,0.1c0.1,0,0,0.2,0,0.3c0,0.1-0.1,0-0.1,0.1
				c0,0.1,0.1,0,0.1,0.1c0-0.1,0-0.1,0-0.2c0,0,0,0,0,0c0-0.1,0-0.1,0-0.2c0,0,0,0.1,0,0.1c0,0.1,0,0.2,0,0.3c0,0.1-0.1,0-0.1,0.1
				c0.1,0.2,0,0.6,0.1,0.9c0,0,0-0.1-0.1-0.1c0-0.3,0-0.5,0-0.8c0,0,0,0.1,0,0.1c0,0.1,0,0.2-0.1,0.1c0,0.1,0,0.2,0,0.2
				c0,0,0-0.1-0.1,0c0.1,0.1,0,0.1,0,0.2c0,0.1,0,0-0.1,0.1c0,0.2,0,0.4,0.1,0.4c0,0,0,0,0,0c0-0.1,0,0,0-0.1c0,0.1,0,0.3,0,0.4
				l0.1,0.2c0,0,0,0-0.1,0.1c0.1,0.1,0.1-0.1,0.1-0.1c0,0.1-0.1,0.2,0,0.2c0,0.1-0.1-0.1-0.1,0c0,0,0,0,0,0c0,0.2,0,0.3,0,0.5
				c0,0.1,0.1,0,0.1-0.1c0,0.1,0.1,0.2,0.1,0.2c0,0,0-0.1,0-0.1c0,0,0,0.1,0,0.1c0,0.1,0,0,0.1,0.1c0,0.1,0,0-0.1,0
				c0,0.1,0.1,0.1,0,0.2c0,0-0.1-0.1-0.1,0c0,0.1,0,0.1,0.1,0.1c0,0,0,0.1,0,0.1c0,0,0-0.1-0.1-0.1c0,0.1,0,0.1-0.1,0.2
				c0,0.2,0,0.4,0,0.6c-0.1-0.1,0,0.4,0,0.5c0,0,0-0.2-0.1-0.3c0,0.2,0.1,0.3,0,0.5c0,0,0,0,0,0c0,0.1,0,0.1,0,0.2
				c-0.1,0.2,0,0.4,0,0.5c0,0.2,0,0.3,0.1,0.5c0-0.1,0,0,0-0.1c0.1,0.2,0,0.3-0.1,0.3c0,0.1,0.1,0,0.1,0c0,0.1,0,0.2,0,0.3
				c0,0,0-0.1-0.1-0.2c0,0,0,0.3,0,0.4c0,0.1-0.1,0,0,0c0,0,0,0.1,0,0.1c0,0,0,0,0,0c0,0.2-0.1,0.5,0,0.7l0,0.1c0,0,0,0.1,0,0.1
				c-0.1,0.2,0,0.4,0,0.6c0.1,0.2,0,0.4,0,0.6c0-0.1-0.1-0.1-0.1-0.2c0,0.2,0.1,0.4,0,0.6c0.1,0,0.1,0.2,0.2,0.1c0,0.1,0,0.2,0,0.3
				c0.1,0,0-0.4,0.1-0.4c0,0,0,0.1,0,0.1c0.1,0,0,0.2,0.1,0.3c0,0-0.1,0-0.1,0.1c0,0,0.1,0.1,0.1,0.2c0,0.1-0.1,0.2,0,0.2
				c0,0.1,0,0,0,0.1c0,0,0,0,0-0.1c0,0.1,0,0.2,0,0.3c0,0.1-0.1-0.1-0.1,0c0,0,0.1,0.1,0.1,0.2c0,0,0,0.1,0.1,0c0,0.1,0,0.1,0.1,0.2
				c0,0,0,0.1,0,0.1c0,0.1,0-0.1,0-0.1c0,0.1,0,0.1,0,0.2c0,0-0.1-0.1-0.1,0c0,0,0,0.2,0,0.1c0.1,0.1,0.1,0.4,0,0.6
				c0,0,0,0.1,0.1,0.1c0-0.1,0-0.1,0-0.1c0-0.1,0,0,0,0c0-0.2,0-0.4,0-0.6c0,0.2,0,0.3,0,0.5c0-0.1,0-0.2,0-0.2c0,0.1,0,0.2,0.1,0.3
				c0,0,0,0-0.1,0c0,0,0,0.1,0,0.1c0,0.1,0,0,0,0c0,0,0,0.1,0,0.1c0.1,0,0,0.2,0.1,0.2c0,0.1-0.1,0-0.1,0.1c0,0.1,0,0.3,0,0.3
				c0,0.1,0,0.1,0,0.3c0,0.1,0-0.1,0-0.1c0,0.1,0,0.2,0,0.4c0,0,0,0.1,0.1,0.1c0,0.1,0,0.2,0.1,0.2c0,0.1,0-0.1,0,0
				c0,0.1,0,0.1,0,0.2c0,0.1,0,0,0.1,0.1c0,0.1-0.1-0.1-0.1-0.1c0-0.1,0-0.1,0-0.2c0,0,0,0.2,0,0.3c0,0.1,0,0,0,0.1
				c0,0.1,0.1,0.3,0.1,0.4c0,0,0,0,0,0c0,0.1,0,0.2,0,0.2c0,0.1,0,0.1,0.1,0.2c0-0.1,0-0.2,0-0.3c0-0.1,0.1,0,0.1-0.1
				c0.1,0.1,0,0.2,0,0.2c0.1,0.1,0-0.1,0.1-0.1c0,0,0-0.1,0-0.1c0-0.1,0-0.1-0.1-0.1c0,0.1,0,0.1,0,0.1c0-0.1,0-0.1,0-0.2
				c0,0,0.1,0.1,0.1-0.1c-0.1,0,0-0.1,0-0.2c0,0,0.1,0,0.1,0.1c0-0.1,0-0.2,0-0.3c0.1-0.1,0-0.2,0.1-0.3c0-0.1-0.1-0.1-0.1-0.2
				c0,0,0,0,0.1,0.1c0-0.1,0-0.2,0-0.3c0,0,0,0,0,0c-0.1-0.1,0-0.2-0.1-0.2c0,0,0.1,0,0-0.1c0,0,0,0,0.1,0.1c0-0.1,0-0.2,0-0.4
				c-0.1,0,0-0.2-0.1-0.3c0.1,0,0-0.1,0-0.1c0,0.1,0,0.2,0,0.2c0.1,0.1,0,0.3,0,0.4c0,0,0.1,0,0.1,0.1c-0.1-0.2,0.1-0.6-0.1-0.8
				c0-0.1,0-0.3,0-0.4c0,0,0,0,0,0l-0.1-0.1c0,0,0-0.1,0-0.1c0,0.1,0,0.1,0.1,0.2c0-0.1,0-0.1,0-0.2l0-0.1c0,0,0-0.1,0-0.1
				c0,0,0,0,0.1,0.1c0-0.2-0.1-0.1-0.1-0.3c0,0,0,0,0,0c0,0,0-0.1,0-0.1c0.1,0.1,0.1-0.3,0.1-0.4c0,0.1,0,0.5,0.1,0.4
				c0,0.1,0,0.3,0,0.4c0,0,0-0.2,0-0.2c0,0.1,0,0.1,0.1,0.2c-0.1,0.1,0,0.1-0.1,0.2c0,0.1,0.1,0.1,0.1,0c0,0.1,0,0.1,0,0.1
				c0,0.1,0,0.1,0.1,0.2c0,0.1,0,0,0,0.1c0.1,0.1,0,0.1,0,0.2c0,0.1,0,0.2,0.1,0.3c0,0.1,0,0-0.1,0c0-0.1,0-0.3-0.1-0.3
				c0,0.1,0,0.1,0.1,0.2c0,0,0,0,0,0c0,0.1,0.1,0.1,0,0.2c0,0.1,0.1,0,0.1,0.1c0,0,0,0,0,0.1c0,0.1,0,0-0.1,0c0,0.1,0,0.1,0,0.2
				c0,0,0,0,0,0c0,0.1,0,0.3,0.1,0.4c0,0.2,0.1,0.4,0,0.6c0.1,0.1,0,0.1,0,0.2c0,0,0,0,0.1,0.1c0-0.1,0-0.1,0-0.2c0,0,0,0-0.1-0.1
				c0-0.1,0-0.2-0.1-0.3c0-0.1,0.1,0.1,0.1,0.1c0-0.1,0-0.2,0-0.2c0-0.1-0.1-0.3,0-0.4c0,0.1,0,0.2,0.1,0.3c0-0.1,0-0.1,0-0.2
				c0,0,0,0,0-0.1c-0.1-0.2,0-0.3-0.1-0.5c0-0.1,0,0,0.1,0c0-0.1,0-0.1,0-0.2c0,0-0.1,0-0.1,0.2c0,0,0,0,0,0c0-0.1,0-0.1,0-0.2
				c0,0,0,0,0,0c0-0.1,0,0,0-0.1c0,0,0-0.1,0-0.1c0-0.1,0,0,0.1,0c0,0.1,0,0.1,0,0.2c0-0.7-0.1-1.4-0.1-2c-0.1,0-0.1-0.3,0-0.3
				c0,0-0.1,0-0.1,0c0-0.1,0-0.1,0-0.2c0,0,0,0,0,0c0-0.1-0.1-0.2,0-0.3c0.1,0.1,0-0.3,0.1-0.4c0-0.1,0,0,0,0c0-0.2,0-0.1,0-0.3
				c0,0,0,0.1,0,0c0,0,0-0.1,0-0.1c0,0,0,0-0.1-0.1c0-0.1,0-0.1,0-0.2c0,0,0,0,0.1,0c0-0.3,0-0.2,0-0.5c0,0,0,0,0,0
				c-0.1-0.2,0-0.4-0.1-0.6c0,0,0,0,0,0c0-0.1,0-0.2-0.1-0.2c0-0.1,0-0.1,0.1,0c0-0.3,0-0.5-0.1-0.8c0-0.1,0,0,0.1-0.1
				c0,0,0,0.1,0,0.1c0-0.2-0.1-0.5-0.1-0.7c0,0,0,0.2-0.1,0c0-0.1,0.1-0.2,0-0.3c-0.1-0.1,0,0.1,0,0.2c0-0.1,0-0.2,0-0.2
				c0,0,0.1,0,0.1,0c0-0.2-0.1-0.4-0.1-0.6c0,0,0,0,0,0c0,0,0-0.1,0-0.1c0-0.1,0,0-0.1-0.1c0,0,0,0,0-0.1c0-0.1,0-0.2,0-0.3
				c0,0,0,0.1,0,0.1c0-0.1,0-0.3-0.1-0.3c0-0.1,0,0,0.1,0c0-0.2-0.1-0.3-0.1-0.5c0-0.1,0.1,0.1,0,0.1c0,0,0-0.1,0-0.2c0,0,0,0.1,0,0
				c0,0,0,0.1,0,0.1c0-0.1,0-0.1,0-0.2c0,0-0.1,0,0-0.1c0,0,0,0,0,0.1c0-0.1,0-0.2-0.1-0.3c0-0.1,0,0.1,0.1,0c0-0.1,0-0.2-0.1-0.2
				c0-0.2,0-0.4,0-0.5c0,0,0,0-0.1-0.1c0-0.1,0.1,0.1,0.1-0.1c0,0.1,0,0.1,0,0.2c0,0,0-0.2,0-0.3c0,0,0,0,0,0c0-0.1,0-0.1,0-0.2
				c0-0.1,0,0-0.1-0.1c0-0.1,0.1-0.1,0-0.2c0-0.1,0,0,0-0.1c0,0.1,0,0.1,0,0.2c0.1-0.3,0-0.8,0-1.2c0,0,0,0,0.1,0.1
				c0-0.1,0-0.2,0-0.2c0-0.1,0,0-0.1,0c0-0.2,0.1-0.5,0-0.7c0-0.1,0,0.1,0.1,0.1c0-0.1,0-0.2,0-0.3c0,0,0,0,0,0c0-0.1,0.1-0.4,0-0.5
				c0,0,0,0,0.1-0.1c0-0.1,0-0.1,0-0.2c-0.1-0.1,0-0.4,0-0.6c0,0,0-0.1,0.1,0c0-0.1,0-0.2,0-0.3c0,0,0-0.1,0-0.1c0,0,0,0,0,0
				c0,0,0-0.1,0-0.1c0-0.1,0-0.2,0-0.3c0,0,0,0,0-0.1c0,0,0,0,0,0c0-0.1,0-0.2,0-0.3c0,0.1,0,0.1,0,0.2c0-0.1,0-0.1,0-0.2
				c0,0,0,0,0,0.1c0,0.1-0.1,0.2,0,0.2c0-0.1,0.1,0,0-0.1c0,0,0,0.1,0,0.1c0,0,0,0-0.1,0c0,0.1,0,0.1,0,0.2c0,0.1,0,0.1,0,0.2
				c0-0.2,0-0.1,0-0.2c0,0,0,0.1-0.1,0c0-0.1,0.1,0,0-0.1c0-0.1,0,0-0.1,0c0,0,0-0.1,0-0.1c0,0.1,0,0.4,0,0.5c0.1,0,0,0.1,0,0.1
				c0-0.1,0-0.2,0-0.3c0.1,0,0.1,0.3,0.1,0.4c0,0.2-0.1,0-0.1,0.1c0.1,0,0,0.1,0,0.2c0-0.1,0-0.3,0.1-0.2c-0.1,0.1,0,0.1,0,0.3
				c0,0.1,0,0-0.1,0.1l0,0.1c0,0,0-0.1,0,0c0,0.2,0,0.4,0,0.6c0-0.1,0-0.1,0-0.2c0,0.1,0,0.3,0,0.4c0-0.1,0-0.1,0-0.2
				c0,0,0,0.1,0,0.1c0,0.1,0.1,0.3,0,0.3c0,0.1,0,0.1,0,0.2c0,0,0,0.1,0,0c0,0.2,0,0.4,0,0.5c0,0.1,0,0.2,0,0.3c0,0,0,0,0,0
				c0,0.1,0,0.1,0,0.1c0,0.1-0.1,0-0.1,0c0,0.1,0,0.2-0.1,0.3c0,0,0.1,0,0.1,0.1c0-0.1-0.1-0.1,0-0.2c0,0,0.1,0,0.1,0.1
				c0,0.2-0.1,0.3,0,0.5c0,0.1,0-0.1-0.1-0.1c0,0.1,0,0.1,0,0.2c0,0,0,0,0,0c0,0.1,0,0.1,0,0.1c0,0.1,0.1,0.3,0,0.4c0,0,0,0.2,0,0.2
				c0.1,0.1,0.1,0.3,0,0.4c0,0,0,0,0,0c0,0.1,0,0.2-0.1,0.2l0.1,0.2c0,0.1-0.1,0-0.1,0c0,0.1,0,0.2,0,0.3c0,0,0.1,0.1,0.1,0.1
				c0,0.1-0.1-0.1-0.1,0c0.1,0,0.1,0.3,0,0.4c0,0.1,0.1,0.1,0.1,0.2c0,0-0.1-0.1-0.1,0c0,0-0.1,0-0.1-0.1c0,0,0,0,0,0l0,0
				c0,0.1,0,0,0.1,0.1c0,0.1,0,0.1-0.1,0.2c0,0.1,0,0.2,0,0.2c0-0.1,0-0.2,0-0.3c0,0,0,0,0.1-0.1c0,0.1,0,0.1,0,0.2
				c0,0.1,0-0.1,0.1,0c0,0.1,0,0.3,0,0.5c0,0,0-0.1,0-0.2c0.1,0,0.1,0.2,0.1,0.3c0,0.1,0-0.2,0-0.1c0,0.1,0,0.1,0,0.2
				c-0.1-0.1,0,0.3,0,0.5c0,0.1,0.1,0.2,0.1,0.3c-0.1,0,0,0.3,0,0.4c0,0,0,0.1,0,0c0,0,0,0.1,0,0.2c-0.1,0.1,0,0.2,0,0.3
				c0,0,0,0-0.1,0.1c0.1,0.3,0,0.4,0.1,0.7c0,0,0,0,0,0.1c0.1,0,0,0.2,0,0.2c0,0,0.1,0.1,0.1,0.2c0,0,0-0.1-0.1-0.1c0,0,0,0.1,0,0.1
				c0,0,0,0,0,0.1c0,0,0-0.1,0,0c0,0.1,0,0.2,0,0.2c0,0.1-0.1,0,0,0.1c0,0,0.1,0.1,0.1,0.2c0,0,0,0.1,0,0.2c0,0,0,0.1,0,0.2
				c0,0,0,0,0,0c0.1,0,0,0.4,0.1,0.3c0,0.1,0.1,0.2,0,0.2c0,0.1,0-0.1-0.1-0.1c0,0.1,0,0.2,0,0.2c0.1,0,0.1,0.3,0.1,0.4
				c0,0-0.1-0.1-0.1-0.2c0,0,0,0,0,0c0-0.1,0-0.1,0-0.2c0,0.1,0,0.2,0,0.3c0,0.1,0,0,0.1,0c-0.1,0.1,0.1,0.6,0.1,0.8
				c0,0,0.1,0.2,0.1,0.1c0,0.1,0,0.2,0.1,0.2c0,0.1,0,0-0.1,0c0,0,0-0.1,0-0.1c0-0.1,0,0.1-0.1-0.1c0,0.1,0,0.1,0.1,0.3c0,0,0,0,0,0
				c0,0.1,0,0,0.1,0c0,0.1,0,0.1,0,0.2c0-0.3,0-0.7,0-1c0-0.1,0,0.1,0,0c0-0.1,0-0.1-0.1-0.1c0-0.1,0.1,0.1,0.1,0.1
				c0,0.2,0,0.4,0,0.6c0,0.1,0,0.1,0,0.2c0-0.1,0,0,0,0.1c0,0.1,0,0,0.1,0c0,0.2,0,0.2,0,0.3c0,0.1,0,0,0,0.1c0,0,0.1,0.1,0.1,0.2
				c0,0.1,0-0.1-0.1,0c0,0,0,0.1,0,0.1c0,0,0,0,0,0.1c0,0.2,0,0.3,0,0.4c0.1,0,0,0.1,0,0.2c0,0,0-0.1-0.1-0.1c0,0.1,0,0.2,0,0.2
				c0,0,0.1,0.1,0,0.1c0,0,0,0,0.1,0.1c0-0.2,0-0.2,0-0.4c0-0.1,0,0.1,0.1,0c0-0.1-0.1-0.1-0.1-0.1c0-0.1,0-0.1,0-0.2
				c0.1,0,0-0.1,0-0.2c0-0.1,0,0.1,0.1,0.1c0-0.1,0-0.1,0-0.1c0,0,0-0.1,0-0.2c0,0-0.1-0.1-0.1-0.1c0,0,0.1,0,0.1-0.1
				c0-0.1,0-0.1,0-0.2c0,0,0,0,0.1,0c0-0.2,0-0.5-0.1-0.7c-0.1-0.1,0-0.3-0.1-0.4c0.1-0.2-0.1-0.6,0-0.7c0,0,0-0.1,0-0.1
				c0-0.1,0-0.1,0-0.2c0,0.1,0,0.2,0.1,0.2c0,0,0,0.1,0,0.1c0,0.1,0,0,0-0.1c0,0.1,0,0.2,0,0.3c0,0,0-0.1,0-0.1c0,0,0,0.3,0,0.4
				c0-0.1,0-0.1,0-0.2c0,0.2,0.1,0.3,0.1,0.5c0,0.1-0.1-0.1-0.1,0l0,0.1c0,0.2,0,0.4,0.1,0.5c-0.1-0.1,0,0.1,0,0.2c0,0,0,0.1,0,0
				c0.1,0.1,0,0.2,0,0.3c0,0.1,0,0-0.1,0c0,0.1,0.1,0.2,0.1,0.2c0,0.1,0,0.3,0,0.3c0,0,0,0.2,0,0.2c0,0.1,0.1,0.3,0.1,0.5
				c0-0.1,0-0.1-0.1-0.2c0,0.1,0,0.1,0,0.2c0,0.1,0.1-0.1,0,0c0,0,0-0.1,0-0.1c0.1,0,0.1,0.2,0.1,0.3c0,0.1,0.1,0.3,0.1,0.4l0,0.1
				c0,0.1,0,0-0.1,0c0,0.1,0.1,0.2,0.1,0.3c0,0,0-0.1-0.1-0.1c0.1,0.2,0.1,0.5,0.1,0.6c0,0.1,0,0.1,0.1,0.2c0-0.1,0-0.1,0,0
				c0,0.1,0.1,0.3,0,0.5c0,0-0.1-0.1,0-0.2c0,0,0,0.3,0,0.4c0.1,0.1,0-0.1,0-0.1c0,0.1,0,0.1,0.1,0.2c0,0,0,0,0,0c0-0.1,0-0.1,0-0.1
				c0,0,0,0.1,0,0.1c-0.1,0.1,0,0.1,0,0.3c-0.1-0.1,0-0.1,0-0.2c0,0.1,0,0.1,0,0.2c0,0,0.1,0.2,0.1,0.2c0,0,0,0,0,0
				c0,0.1,0,0.1,0,0.2c0,0,0-0.1,0,0c0.1,0.1,0,0.3,0.1,0.5c0,0,0-0.1,0-0.2c0,0,0,0,0,0c0,0.1,0,0.1,0.1,0.3c0,0,0-0.1,0-0.1
				c0-0.1,0.1,0.1,0,0C12.5,46.8,12.5,46.9,12.6,46.8z M12.1,38.6c0-0.1,0-0.2,0-0.2C12.1,38.4,12.1,38.5,12.1,38.6z M12.1,32
				c0,0.1,0,0.2,0.1,0.1c0,0.1,0,0.2,0,0.4c0-0.1,0-0.1-0.1-0.1c0,0,0-0.1,0-0.1c0,0,0,0,0,0C12.1,32.1,12.1,32.1,12.1,32z
				 M42.1,7.5c0.1,0,0.1-0.1,0.2,0C42.3,7.5,42.2,7.5,42.1,7.5z M42.1,6.6c0.1,0,0.2,0,0.3-0.1c0,0,0.1,0,0.2,0c0.1,0,0.1,0,0.1,0.1
				c0.1,0,0-0.1,0-0.1c0.2,0,0.2,0.1,0,0.1c-0.1-0.1-0.3,0-0.5,0c-0.1,0,0.1,0,0.1,0C42.3,6.6,42.1,6.6,42.1,6.6z M28.4,6.8
				c-0.1,0-0.2,0-0.2,0C28.2,6.8,28.3,6.8,28.4,6.8z M21.4,7.6c0,0-0.2,0-0.2,0C21.3,7.6,21.5,7.6,21.4,7.6z M16.1,8.9
				c0.1,0,0.1-0.1,0.2-0.1C16.3,8.9,16.1,9,16.1,8.9z M9.2,38.7c0,0.1,0,0.2,0,0.3C9.2,38.9,9.2,38.7,9.2,38.7z M9.7,36.8
				c0,0,0,0.4,0,0.3C9.7,37,9.6,36.9,9.7,36.8z M10.2,44.6C10.2,44.5,10.2,44.6,10.2,44.6c0-0.1-0.1-0.1,0-0.2
				C10.2,44.5,10.2,44.5,10.2,44.6z M10.7,34.4c0,0.2,0,0.3,0,0.5C10.7,34.7,10.7,34.5,10.7,34.4z M11,38.6c0,0.1,0,0.2,0,0.2
				C10.9,38.7,10.9,38.6,11,38.6z M11.1,40.7c0,0,0.1,0.1,0,0.1C11.1,40.9,11,40.8,11.1,40.7z M12.3,46.1
				C12.3,46.1,12.3,46.1,12.3,46.1c0,0.1,0.1,0.2,0,0.3C12.3,46.3,12.3,46.1,12.3,46.1z M12.1,43c0,0.1,0,0.1,0,0.2
				C12.1,43.1,12.1,43,12.1,43z M12.1,40c0,0,0,0.1,0,0.2C12.1,40.2,12.1,40.1,12.1,40z M12.1,39.4c0,0.1,0,0.3,0,0.3
				C12.1,39.6,12.1,39.5,12.1,39.4z M10.8,43.9c0-0.1-0.1-0.3-0.1-0.4C10.8,43.6,10.8,43.8,10.8,43.9z M12.5,37.5c0,0,0,0.2,0,0.2
				C12.5,37.7,12.5,37.6,12.5,37.5z M11.6,40.4c0,0.1,0,0.1,0,0.2C11.6,40.6,11.6,40.4,11.6,40.4z M10.6,43.9c0,0,0,0.2,0,0.1
				C10.6,44,10.6,43.8,10.6,43.9z M10.6,43.7c0,0,0-0.1,0-0.2c0,0,0,0,0,0C10.6,43.7,10.6,43.7,10.6,43.7L10.6,43.7
				C10.6,43.8,10.6,43.8,10.6,43.7z M10.6,43.3c0,0.1,0,0.1,0,0.2C10.6,43.5,10.6,43.4,10.6,43.3z M11.2,40.5c0,0,0-0.1,0-0.1
				C11.2,40.5,11.3,40.4,11.2,40.5C11.2,40.6,11.2,40.5,11.2,40.5z M10.5,42.7L10.5,42.7l0,0.2C10.5,42.8,10.5,42.7,10.5,42.7z
				 M10.2,44c-0.1,0,0,0.1,0,0.2C10.1,44.2,10.1,43.9,10.2,44z M11.1,40.1c0-0.1-0.1-0.3,0-0.4c-0.1,0-0.1-0.2,0-0.2
				c0,0.2,0.1,0.2,0.1,0.4c-0.1,0.1,0,0.1,0,0.1c0,0.1,0.1,0.3,0,0.4c0,0,0-0.1,0-0.1c0,0.1,0,0.1,0,0.2c0-0.1,0-0.1,0-0.2
				C11.2,40.2,11.2,40.1,11.1,40.1z M12,37.7c0,0,0,0.1,0,0.2C12,37.9,12,37.8,12,37.7z M11.1,40.5L11.1,40.5
				C11.1,40.5,11.1,40.5,11.1,40.5C11.1,40.5,11.1,40.6,11.1,40.5z M10.1,43.2c0,0.1,0,0.1,0,0.2c0,0.1-0.1,0,0,0.1
				C10,43.4,10.2,43.4,10.1,43.2z M10.5,41.9c0,0.1,0.1,0.1,0,0.2C10.5,42.1,10.5,42,10.5,41.9z M10.3,42.8c0,0.1-0.1-0.1-0.1-0.2
				c0,0,0.1,0.1,0.1,0.1C10.2,42.7,10.2,42.8,10.3,42.8z M11.2,38.7c0,0,0,0.1,0,0.1c0,0.1,0,0.1,0,0.1c0.1,0.2,0,0.3,0.1,0.5
				c0,0.1-0.1,0,0,0.1c0,0.1-0.1,0.1-0.1,0c0,0,0,0,0,0c-0.1,0-0.1-0.3-0.1-0.4l0-0.1c0-0.1-0.1-0.2,0-0.3c0.1,0,0.1,0.2,0.1,0.4
				c0,0,0,0,0,0c0-0.1,0-0.1,0-0.2c-0.1-0.1-0.1-0.2-0.1-0.3C11.1,38.7,11.2,38.6,11.2,38.7z M10.5,41.8
				C10.4,41.7,10.4,41.8,10.5,41.8c0,0-0.1-0.1,0-0.1C10.4,41.7,10.5,41.7,10.5,41.8L10.5,41.8L10.5,41.8z M12.5,35.4
				c0,0,0.1,0.1,0,0.2C12.5,35.5,12.5,35.4,12.5,35.4z M12,36.4c0.1,0.1,0,0.3,0,0.2C12,36.5,11.9,36.4,12,36.4z M10.2,42L10.2,42
				c0,0.1,0,0.2,0,0.1C10.2,42.1,10.1,42.1,10.2,42z M10.3,41.2C10.3,41.2,10.3,41.2,10.3,41.2L10.3,41.2c0.1,0.2,0.1,0.2,0.1,0.3
				C10.3,41.4,10.3,41.3,10.3,41.2z M10.1,42C10.1,41.9,10.1,41.9,10.1,42c-0.1-0.1-0.1-0.1-0.1-0.2c0.1,0.2,0-0.2,0.1-0.1
				C10.1,41.8,10.2,42,10.1,42L10.1,42z M10.4,40.8c-0.1,0,0,0.1,0,0.2C10.3,41,10.3,40.7,10.4,40.8z M10.4,40.6
				C10.4,40.5,10.4,40.6,10.4,40.6c0-0.1,0-0.1,0-0.1l0-0.1c0,0,0,0.1,0,0C10.4,40.5,10.4,40.5,10.4,40.6
				C10.4,40.6,10.4,40.5,10.4,40.6c0.1,0.1,0.1,0,0.1,0.1C10.4,40.8,10.4,40.6,10.4,40.6z M10.5,40c0,0.1,0,0.2,0,0.3
				C10.5,40.2,10.5,40.1,10.5,40z M10.1,41.6c0-0.1,0-0.2,0-0.3C10.1,41.4,10.1,41.5,10.1,41.6C10.1,41.6,10.1,41.6,10.1,41.6z
				 M11,38.2L11,38.2c0,0.1,0,0.2,0.1,0.3l0,0.1C11,38.4,11.1,38.3,11,38.2z M10.1,41.2c0,0.1,0,0.1,0,0.2
				C10.1,41.3,10.1,41.1,10.1,41.2z M12,35.3c0,0.1,0,0.2,0,0.3C11.9,35.6,12,35.4,12,35.3z M9.9,41.6C9.9,41.7,9.9,41.6,9.9,41.6
				c-0.1-0.1-0.1-0.2-0.1-0.2c0,0,0.1,0,0.1,0c-0.1-0.1-0.1-0.2-0.1-0.3c0.1-0.1,0-0.2,0-0.3c0.1,0.1,0,0.3,0,0.4c0,0,0,0,0,0
				c0,0.1,0,0.2,0,0.1c0,0.1,0.1,0.4,0,0.5C10,41.7,9.9,41.7,9.9,41.6z M10.2,40.5c0,0,0.1,0.1,0.1,0.2
				C10.3,40.5,10.2,40.6,10.2,40.5z M10,41.3c0-0.1,0-0.1,0-0.2C10.1,41.2,10.1,41.4,10,41.3z M11,37.9c0,0,0-0.1,0-0.1l0-0.1
				c-0.1-0.1,0-0.2-0.1-0.4c0,0,0,0,0.1,0c0,0.1,0,0.2,0,0.3c0,0,0.1,0,0.1,0C11.1,37.7,11.1,37.8,11,37.9c0.1-0.1,0.1-0.1,0-0.2
				C11,37.7,11.1,37.8,11,37.9z M11.1,37.8c0,0.1,0,0.1,0,0.2C11,37.9,11.1,37.9,11.1,37.8z M10,40.8C10,40.7,10.1,40.8,10,40.8
				c0.1,0,0.1,0.1,0.1,0.1C10.1,40.9,10,40.8,10,40.8z M12.2,34.4c0,0.1,0,0.1,0,0.2C12.2,34.5,12.2,34.4,12.2,34.4z M10,40.9
				C10,40.8,10,40.9,10,40.9C10,40.9,10,40.9,10,40.9L10,40.9z M10.4,38.9C10.5,38.9,10.5,38.9,10.4,38.9c0.1,0,0.1,0.1,0,0.2
				C10.5,39.1,10.5,39,10.4,38.9z M10,40.5c0-0.1,0-0.2,0-0.4C10,40.3,10.1,40.4,10,40.5C10,40.5,10,40.5,10,40.5z M10.1,40L10.1,40
				c0-0.1,0-0.2,0-0.2C10.1,39.9,10.2,39.9,10.1,40z M9.9,40.6C9.9,40.6,9.9,40.8,9.9,40.6C9.8,40.6,9.9,40.7,9.9,40.6L9.9,40.6
				c0,0.1,0,0.2,0,0.2C9.9,40.7,9.9,40.7,9.9,40.6z M11,37.1c0,0.1,0,0.1,0,0.2C11,37.2,11,37,11,37.1z M10.1,39.4
				c0,0.1,0,0.2,0,0.2C10.1,39.6,10.1,39.5,10.1,39.4z M12.2,33.5c0,0.1,0,0.1,0,0.2C12.2,33.6,12.2,33.5,12.2,33.5z M10.3,38.7
				c0,0.1,0,0.2,0,0.2C10.2,38.9,10.2,38.7,10.3,38.7z M11,36.6c0-0.1,0-0.2,0-0.3C11,36.4,11.1,36.6,11,36.6z M9.6,39.8
				C9.7,39.8,9.6,39.7,9.6,39.8c0.1,0,0,0.1,0.1,0.1c0-0.1,0-0.1,0-0.2c0,0,0.1-0.1,0.1,0c0,0,0,0.1,0,0.1c0.1,0.1,0,0.2,0,0.3
				c0,0.1,0,0.1,0,0.2c0,0,0,0,0,0c0,0.2-0.1,0.1-0.2,0c0,0,0,0,0,0c0,0,0-0.1,0-0.1c0,0,0,0.1,0,0.1c0-0.1,0-0.1-0.1-0.1
				c0-0.1,0-0.1,0-0.2c0,0,0,0.1,0,0.1C9.6,39.9,9.6,39.8,9.6,39.8z M9.9,39.1c0,0,0-0.1,0-0.1c0,0,0-0.2,0-0.3c0.1,0.1,0-0.1,0-0.1
				c0,0.1,0,0.2,0,0.3C10,39,10.1,39,10,39.2C10,39,9.9,38.9,9.9,39.1z M12.1,32.7C12.2,32.7,12.2,32.8,12.1,32.7
				C12.2,32.6,12.1,32.7,12.1,32.7c0-0.1,0-0.2,0-0.2c0.1,0.1,0.1,0.2,0.1,0.2c-0.1,0.1-0.1,0.2-0.1,0.3
				C12.2,33,12.1,32.9,12.1,32.7z M11,36.1c0,0,0,0.1,0,0.2C11,36.2,11,36.1,11,36.1z M9.6,40.3C9.6,40.3,9.6,40.2,9.6,40.3
				C9.7,40.4,9.6,40.4,9.6,40.3z M10,38.7l0.1,0.2c0,0,0,0.1,0,0.1C10,39,9.9,38.8,10,38.7z M11,35.9C11,35.8,11,35.8,11,35.9
				C11,35.9,11,35.9,11,35.9L11,35.9z M10.4,37.3c0-0.1,0.1,0.1,0.1,0.2C10.4,37.5,10.4,37.4,10.4,37.3z M9.7,39.6
				C9.7,39.5,9.7,39.5,9.7,39.6C9.7,39.6,9.7,39.6,9.7,39.6z M10.9,35.7C10.9,35.8,10.9,35.8,10.9,35.7c0,0,0-0.1,0-0.1
				c0,0.1,0,0.1,0,0.2C10.9,35.8,10.9,35.8,10.9,35.7z M10.8,35.8c0,0.1,0,0.1,0,0.2C10.7,36,10.7,35.8,10.8,35.8z M9.2,40.3
				C9.3,40.3,9.2,40.2,9.2,40.3C9.2,40.2,9.3,40.2,9.2,40.3c0,0,0.1,0,0.1,0.1C9.3,40.4,9.2,40.4,9.2,40.3z M12.2,31.3
				c0,0.1,0,0.1,0,0.2C12.1,31.4,12.1,31.3,12.2,31.3z M10.3,36c0,0.1,0,0.1,0,0.2C10.3,36.1,10.3,36,10.3,36z M11,34.1
				C11,34,11.1,34.1,11,34.1C11,34.1,11,34.2,11,34.1z M10.3,35.6c0-0.1,0-0.3,0-0.3C10.3,35.4,10.4,35.5,10.3,35.6
				C10.4,35.5,10.4,35.6,10.3,35.6z M12.2,30.2c0,0.1,0,0.2,0,0.3C12.2,30.4,12.2,30.2,12.2,30.2z M9.2,38.3c0,0,0,0.2,0,0.2
				C9.2,38.5,9.2,38.3,9.2,38.3z M9.6,36.5c0-0.1,0-0.1,0-0.2C9.7,36.4,9.6,36.4,9.6,36.5c0.1,0.1,0.1,0.1,0.1,0.2
				C9.6,36.6,9.6,36.6,9.6,36.5z M10.7,33.4C10.7,33.3,10.7,33.3,10.7,33.4c0.1,0.1,0,0.1,0,0.2C10.7,33.5,10.7,33.5,10.7,33.4z
				 M9.2,36.7c0,0.1,0.1,0.2,0.1,0.2C9.2,36.9,9.2,36.8,9.2,36.7z M9.9,34.9c0,0.1,0,0.1,0,0.2C9.9,35,9.9,34.9,9.9,34.9z M9.6,35.5
				c0,0.1,0,0.2,0,0.2C9.6,35.7,9.6,35.6,9.6,35.5z M9.7,35c0-0.1,0-0.2,0-0.4C9.8,34.7,9.8,34.8,9.7,35C9.8,35,9.8,35,9.7,35
				C9.8,35,9.8,35,9.7,35z M10.3,33.1c0,0.1,0,0.2,0,0.3C10.3,33.3,10.3,33.2,10.3,33.1z M9.1,36.2c0,0.1,0,0.1,0,0.2
				c0,0-0.1,0-0.1,0C9.1,36.3,9.1,36.3,9.1,36.2z M9.2,36.6c0,0,0,0.1,0,0.2c0-0.2-0.1-0.3,0-0.4C9.1,36.5,9.1,36.5,9.2,36.6z
				 M9.2,36.2c0,0,0,0.2,0,0.2C9.2,36.3,9.1,36.2,9.2,36.2C9.2,36.2,9.2,36.2,9.2,36.2c0.1,0,0.1,0.1,0.1,0.1
				C9.2,36.3,9.2,36.2,9.2,36.2z M9.6,34.7c0,0.1,0,0.1,0,0.2C9.6,34.8,9.6,34.7,9.6,34.7z M9.6,35C9.6,34.9,9.6,35,9.6,35
				C9.6,34.8,9.6,34.9,9.6,35z M9.8,34.5c0-0.1,0-0.1,0-0.2c0-0.1,0-0.1,0-0.2c0,0.1,0,0.1,0.1,0.1C9.8,34.3,9.8,34.3,9.8,34.5
				C9.8,34.4,9.8,34.5,9.8,34.5z M11,31.1c0,0.1,0,0.2,0.1,0.2l0,0c0,0,0,0,0,0C11,31.3,10.9,31.2,11,31.1z M12.2,28.4
				c0-0.1,0-0.1,0-0.1C12.3,28.4,12.2,28.5,12.2,28.4z M9.1,36c0,0.1,0,0.1,0,0.2C9.1,36.1,9.1,36,9.1,36z M10.7,31.5
				c0,0.1,0,0.2,0,0.3C10.6,31.7,10.6,31.6,10.7,31.5z M9.2,35.1C9.1,35.2,9.2,35.2,9.2,35.1c0,0.2,0,0.2,0,0.3c0,0,0-0.1,0.1-0.1
				c0,0.1,0,0.1,0,0.2C9.1,35.4,9.1,35.2,9.2,35.1z M10.4,32.1c0-0.1,0-0.2,0-0.3C10.4,31.9,10.4,32,10.4,32.1
				C10.4,32.2,10.4,32.2,10.4,32.1z M9.6,33.8c0,0,0-0.1,0-0.1C9.7,33.7,9.7,33.9,9.6,33.8z M9.1,34.8C9.2,34.8,9.2,34.8,9.1,34.8
				c0,0.1,0,0.1,0,0.2C9.1,34.9,9.1,34.9,9.1,34.8z M9.7,33.4c0,0.1,0.1,0.1,0,0.2C9.7,33.5,9.6,33.4,9.7,33.4z M9.8,32.7
				c0,0.1,0,0.1,0,0.2c0,0,0,0.1,0,0.1C9.8,32.9,9.8,32.8,9.8,32.7z M9.8,33.2c0-0.1,0-0.2,0-0.3C9.8,33,9.8,33.2,9.8,33.2z
				 M9.2,34.5c0,0.1,0,0.1,0,0.2C9.2,34.6,9.2,34.6,9.2,34.5z M9.7,33.1c0,0.1,0,0.1,0,0.2C9.7,33.2,9.7,33.1,9.7,33.1z M9.6,32.8
				c0,0.1,0,0.2,0.1,0.2c0,0.1,0,0.1,0,0.1C9.6,33,9.6,32.9,9.6,32.8c0,0.1,0,0.2,0,0.2c0-0.1,0-0.2,0-0.3
				C9.6,32.7,9.7,32.7,9.6,32.8C9.6,32.8,9.6,32.8,9.6,32.8z M9.7,32.5c0,0.2,0,0.3,0,0.4C9.6,32.9,9.7,32.6,9.7,32.5z M9,34.6
				c0,0.1,0,0.2,0,0.3C9,34.8,8.9,34.7,9,34.6z M9.2,33.9c0,0,0.1,0,0,0.1C9.3,34,9.2,34,9.2,33.9z M9,34C9,33.9,9.1,34.1,9,34
				c0.1,0,0-0.1,0.1-0.2c0,0.1,0,0.2,0,0.4C9.1,34.2,9.1,34.1,9,34z M9.8,32.3c-0.1-0.1,0-0.3,0.1-0.2C9.8,32.1,9.8,32.1,9.8,32.3z
				 M9.7,32.3l0,0.1c0,0,0,0.1,0,0C9.7,32.4,9.6,32.3,9.7,32.3z M9.3,33.1C9.3,33.1,9.3,33.1,9.3,33.1c0.1,0.1,0.1,0.1,0,0.1
				L9.3,33.1z M9.1,33.5C9.1,33.4,9.2,33.4,9.1,33.5C9.2,33.6,9.1,33.6,9.1,33.5z M9.6,32.4c0-0.1,0-0.2,0-0.2
				C9.7,32.3,9.6,32.3,9.6,32.4z M9.1,33.1c0,0,0-0.1,0-0.1C9.1,33.1,9.1,33.1,9.1,33.1c0,0.1,0.1,0.2,0,0.3
				C9.1,33.3,9.1,33.2,9.1,33.1z M9.2,32.5c-0.1,0.1,0,0.4,0,0.5C9.1,32.8,9.1,32.5,9.2,32.5z M9.2,32.6C9.2,32.7,9.2,32.6,9.2,32.6
				c0,0.1,0,0.1,0,0.2C9.2,32.7,9.1,32.7,9.2,32.6z M9.1,31.8c0,0,0-0.1,0-0.2C9.2,31.7,9.2,31.8,9.1,31.8
				C9.2,31.8,9.1,31.9,9.1,31.8z M9.7,29.9c0,0.1,0,0.3,0,0.2C9.7,30.1,9.7,29.9,9.7,29.9z M10.6,27.8
				C10.7,27.7,10.7,27.8,10.6,27.8C10.7,27.8,10.7,27.9,10.6,27.8z M9.7,30c0,0.1,0,0.1,0,0.2C9.6,30.1,9.6,30.1,9.7,30
				C9.6,30,9.6,30,9.7,30z M9.6,29.9C9.6,29.8,9.7,29.9,9.6,29.9C9.6,30,9.6,30,9.6,29.9z M9.2,30.8c0-0.1,0-0.1,0-0.2
				c0,0.1,0,0.2,0,0.3L9.2,30.8z M9.5,29.9L9.5,29.9l0,0.2C9.5,30,9.5,29.9,9.5,29.9z M9.7,29.5c0-0.1,0-0.1,0-0.2
				C9.7,29.4,9.7,29.5,9.7,29.5z M9.7,29.2L9.7,29.2C9.8,29.2,9.8,29.4,9.7,29.2C9.8,29.3,9.7,29.2,9.7,29.2z M10.7,27.1
				c0,0.1,0,0.1,0,0.1c0-0.3,0-0.6,0.1-0.9c0.1,0.1,0,0.2,0,0.3c0-0.1,0-0.1,0-0.1c0,0.1,0,0.1-0.1,0.1c0,0.1,0,0.2,0,0.3
				c0-0.1,0-0.1,0-0.2c0,0,0,0.1,0,0.1C10.7,27,10.7,26.9,10.7,27.1C10.7,27.1,10.7,26.9,10.7,27.1C10.8,27.1,10.7,27.1,10.7,27.1
				C10.7,27.2,10.7,27.1,10.7,27.1z M9.6,29.5c0-0.1,0-0.2,0-0.3c0,0.1,0.1,0,0.1,0.1c0,0.1,0,0-0.1,0C9.6,29.4,9.6,29.5,9.6,29.5
				C9.6,29.6,9.6,29.6,9.6,29.5z M9.2,30.2c0,0.1,0.1,0.2,0,0.2C9.2,30.4,9.2,30.3,9.2,30.2z M9.9,28.7L9.9,28.7l0,0.2
				C9.9,28.8,9.9,28.7,9.9,28.7z M9.7,28c0,0,0-0.1,0-0.1c0,0.2-0.1,0.2-0.1,0.3l0,0.1c-0.1,0.2-0.1,0.3,0,0.5c0,0,0.1,0.1,0.1,0.1
				c-0.1,0,0,0.1,0,0.2c0-0.1-0.1-0.3-0.1-0.3c0.1-0.1,0-0.4,0-0.6c0,0,0,0.1,0,0.1c0-0.1,0-0.2,0-0.2c0,0,0,0.1,0,0.1
				c0-0.1,0-0.3,0-0.3C9.6,27.9,9.7,28.1,9.7,28c-0.1,0-0.1-0.3,0-0.3C9.7,27.8,9.7,28,9.7,28z M9.7,27.9c0,0,0-0.1,0-0.2
				c0,0,0-0.1,0-0.1C9.7,27.7,9.7,27.8,9.7,27.9z M9.2,30.3c0-0.1,0-0.2,0-0.3C9.3,30,9.3,30.2,9.2,30.3z M9.5,29.4c0,0,0,0.1,0,0.1
				C9.5,29.5,9.5,29.3,9.5,29.4z M9.6,29c0,0.1,0,0.2,0,0.2C9.6,29.1,9.5,29,9.6,29z M9.2,29.7c0,0,0,0.1,0,0.2
				C9.2,29.8,9.2,29.8,9.2,29.7z M10.7,26.1c0,0,0,0.1,0.1,0.1C10.7,26.3,10.7,26.1,10.7,26.1z M10.7,25.8c0,0,0,0.1,0.1,0.2l0,0.1
				C10.7,26,10.7,25.9,10.7,25.8z M9.6,28.4c0,0.1,0,0.2,0,0.2C9.6,28.5,9.6,28.4,9.6,28.4z M9.3,28.8c0,0.1,0,0.1,0,0.2
				C9.3,28.9,9.3,28.8,9.3,28.8z M9.7,27.5c0-0.1,0-0.1,0-0.2C9.8,27.4,9.8,27.4,9.7,27.5C9.8,27.4,9.7,27.5,9.7,27.5z M9.8,27
				c0,0,0-0.1,0-0.1L9.8,27C9.9,27,9.9,26.9,9.8,27c0,0.1,0.1,0,0.1,0c0,0,0,0.1,0,0.2C9.9,27.1,9.8,27.1,9.8,27z M9.7,27.3
				C9.7,27.2,9.7,27.2,9.7,27.3c0,0,0.1,0.2,0,0.2C9.6,27.4,9.7,27.3,9.7,27.3z M12.7,21.3C12.7,21.2,12.8,21.3,12.7,21.3
				c0,0.1,0,0.1,0,0.1C12.7,21.4,12.7,21.3,12.7,21.3z M10.8,24.9c0-0.1,0-0.1,0-0.2C10.8,24.7,10.9,24.7,10.8,24.9
				C10.8,24.8,10.8,24.7,10.8,24.9z M9.9,26.5C9.9,26.6,9.8,26.6,9.9,26.5c0,0.2-0.1,0.5-0.1,0.6c0-0.2,0-0.4,0-0.5
				C9.8,26.6,9.8,26.6,9.9,26.5c-0.1,0-0.1,0-0.1-0.1c0,0,0,0,0,0c0-0.1,0-0.1,0-0.1c0,0.1,0-0.1,0-0.1c0,0,0,0.1,0.1,0.2
				C9.8,26.4,9.8,26.5,9.9,26.5z M9.1,28.1c0-0.1,0-0.2,0-0.3c0-0.1,0,0,0.1,0.1C9.1,28,9.1,28,9.1,28.1C9.1,28.1,9.1,28.1,9.1,28.1
				z M9.7,26.5c0-0.1,0-0.2,0-0.3C9.8,26.3,9.8,26.4,9.7,26.5C9.8,26.4,9.8,26.6,9.7,26.5z M9.2,27.3c0,0,0.1,0.1,0,0.2
				C9.3,27.4,9.2,27.4,9.2,27.3z M9.1,27.4c0,0.1,0,0.1,0,0.2c0-0.1,0-0.1,0-0.1c0,0.1,0,0.3-0.1,0.2C9.1,27.7,9,27.6,9.1,27.4z
				 M9.8,26c0,0,0-0.2,0-0.2C9.9,25.9,9.9,26.1,9.8,26z M9.5,26.4c0,0.1,0,0.2,0,0.3C9.5,26.7,9.4,26.4,9.5,26.4z M9.1,27.2
				C9.1,27.2,9.2,27.2,9.1,27.2c0,0.1,0,0.3,0,0.2C9.1,27.4,9.1,27.3,9.1,27.2z M9.9,25.1c0,0.1,0,0.4,0,0.5c0,0,0-0.1,0.1,0
				c-0.1,0,0,0.1-0.1,0.2c0-0.1,0-0.2-0.1-0.1C9.9,25.6,9.8,25.3,9.9,25.1z M12.9,19.9c0,0.1,0,0.1,0,0.2
				C12.9,20.1,12.9,19.9,12.9,19.9z M10.9,23.3c0,0,0-0.1,0-0.1c0.1-0.1,0.1,0.2,0.1,0.3C10.9,23.3,10.9,23.3,10.9,23.3z M9.2,26.8
				c0,0.1,0,0.3,0,0.4l0-0.1C9.2,27,9.1,26.9,9.2,26.8z M10.2,24.8c0,0.1,0,0.3-0.1,0.3C10.1,25,10.1,24.8,10.2,24.8z M10,25
				c0-0.1,0-0.2,0.1-0.3C10.1,24.7,10,25,10,25C10,25,10,25,10,25z M9.2,26.6C9.2,26.6,9.2,26.5,9.2,26.6c0,0,0.1,0.1,0,0.2
				C9.2,26.7,9.1,26.6,9.2,26.6z M9.2,26.2c0,0.1,0,0.2,0,0.2C9.2,26.3,9.2,26.2,9.2,26.2z M9.9,24.9c0-0.1,0-0.1,0.1-0.2
				c0,0,0,0.1,0,0.1l0,0C9.9,24.7,9.9,24.8,9.9,24.9z M9.1,26.4c0-0.1,0-0.2,0-0.4c0,0.1,0.1,0.1,0.1,0.2
				C9.2,26.3,9.1,26.2,9.1,26.4C9.1,26.3,9.1,26.3,9.1,26.4C9.1,26.4,9.1,26.4,9.1,26.4z M9.2,25.9C9.2,25.9,9.3,25.9,9.2,25.9
				c0,0.2,0,0.2,0,0.3l0,0C9.2,26,9.2,26,9.2,25.9z M10,24.2c0,0.1,0,0.4,0,0.4C10,24.4,9.9,24.3,10,24.2z M10.1,23.5
				c0,0.1,0,0.1,0,0.2C10.1,23.7,10.1,23.6,10.1,23.5z M10.1,23.5c0,0.1,0,0.5-0.1,0.5C10,23.8,10,23.6,10.1,23.5z M10.3,22.8
				c0,0.1,0,0.1,0,0.2C10.3,22.9,10.3,22.8,10.3,22.8z M10.2,22.9c0.1-0.1,0-0.2,0.1-0.4C10.3,22.6,10.3,22.9,10.2,22.9
				C10.2,22.9,10.2,23,10.2,22.9z M10.2,22.8c0.1-0.1,0-0.2,0-0.3c0,0.1,0,0.1,0,0.1C10.2,22.7,10.2,22.9,10.2,22.8z M10.3,22.1
				c0,0.1,0,0.1,0,0.2C10.3,22.3,10.2,22.2,10.3,22.1z M9.5,23.4c0,0.1,0,0.2,0,0.2C9.5,23.6,9.5,23.5,9.5,23.4z M9.4,23.5
				c0,0.1,0,0.2,0,0.2C9.4,23.6,9.4,23.5,9.4,23.5z M9.6,23.2C9.6,23.2,9.6,23.1,9.6,23.2c0.1,0,0.1,0.1,0,0.1
				C9.6,23.2,9.6,23.3,9.6,23.2z M9.4,23.2C9.4,23.2,9.4,23.3,9.4,23.2c0.1,0,0.1,0,0.1-0.1c0,0.1,0,0.2,0,0.3
				C9.5,23.3,9.3,23.4,9.4,23.2z M10.5,21.3c0,0,0,0.2,0,0.2C10.5,21.4,10.5,21.4,10.5,21.3z M9.6,22.9c0,0.1,0,0.1,0,0.2
				C9.5,23,9.5,22.9,9.6,22.9z M10.3,21.5c0-0.1,0-0.3,0.1-0.3c0-0.1,0-0.2,0-0.3l0-0.1c0,0.1,0,0.1,0,0.1c0,0.1,0,0.2,0,0.2
				c0,0.1,0,0-0.1,0l0,0.1C10.3,21.5,10.3,21.4,10.3,21.5z M10.5,20.8c0.1-0.1,0.1,0.2,0,0.2c0,0,0,0,0,0
				C10.4,20.8,10.5,20.9,10.5,20.8z M10.4,20.5C10.5,20.4,10.5,20.5,10.4,20.5c0.1,0.1,0.1,0.2,0.1,0.2
				C10.4,20.6,10.5,20.6,10.4,20.5z M10.7,20c0,0.1,0,0.1,0,0.2C10.7,20.1,10.7,20.1,10.7,20z M14.1,14.7c0-0.1,0-0.2,0.1-0.2
				C14.1,14.6,14.1,14.7,14.1,14.7C14.1,14.7,14.1,14.8,14.1,14.7z M10.8,18.8c0.1-0.1,0.1,0.2,0,0.2C10.8,18.9,10.7,18.9,10.8,18.8
				z M14.2,14.4c0-0.1,0.1-0.3,0.2-0.3c-0.1,0.1,0,0.1,0,0.1c-0.1,0-0.1,0-0.1,0C14.2,14.4,14.2,14.5,14.2,14.4z M14.4,13.9
				c0,0,0,0.1-0.1,0.1C14.3,14.1,14.4,13.9,14.4,13.9z M10.1,18.7c0,0.1,0,0.2,0,0.2C10,18.8,10.1,18.7,10.1,18.7z M10.1,18.3
				c-0.1-0.1,0-0.1,0-0.2c-0.1,0-0.1-0.1-0.1-0.1c0.1-0.1,0,0.2,0.1,0.1c0,0,0,0,0-0.1c0,0,0.1-0.2,0.1-0.1
				C10.2,17.9,10.2,18.4,10.1,18.3c0,0.1,0,0.4-0.1,0.4C10,18.5,10.1,18.3,10.1,18.3z M10.1,18.1c0,0.1,0,0.2,0,0.3
				C10,18.3,10,18.2,10.1,18.1z M14.9,12.9c0.1,0,0.1-0.2,0.1-0.2C15,12.8,14.9,13,14.9,12.9z M10.1,17.7
				C10.1,17.7,10.2,17.6,10.1,17.7c0,0,0,0.1,0,0.2C10.1,17.9,10.1,17.8,10.1,17.7z M10.3,17.3c0,0,0-0.1,0.1-0.1
				C10.4,17.2,10.3,17.4,10.3,17.3z M10.1,17.4C10.1,17.4,10.1,17.3,10.1,17.4C10.1,17.4,10.1,17.4,10.1,17.4c0,0.1,0,0.1,0,0.1
				L10.1,17.4z M15.4,12.4C15.4,12.4,15.4,12.5,15.4,12.4c-0.1,0.1-0.1,0.1-0.1,0.1C15.3,12.5,15.3,12.4,15.4,12.4z M10.5,16.5
				c0,0,0-0.1,0.1-0.1c0,0,0,0,0,0c0-0.1,0.1-0.1,0.1,0c0,0.1-0.1,0.2-0.1,0.3C10.5,16.6,10.4,16.5,10.5,16.5z M15.7,12.3L15.7,12.3
				C15.6,12.3,15.7,12.3,15.7,12.3z M10.6,15.9c0-0.1,0-0.1,0.1-0.2C10.7,15.8,10.7,15.9,10.6,15.9C10.7,15.9,10.7,15.9,10.6,15.9z
				 M16.3,11.8c0,0,0.1,0,0.1,0C16.4,11.8,16.5,11.9,16.3,11.8C16.4,11.8,16.3,11.8,16.3,11.8C16.3,11.9,16.3,11.9,16.3,11.8
				c0,0.1,0,0.1,0,0.1C16.3,11.9,16.2,11.9,16.3,11.8z M10.7,15.2c0-0.1,0.1-0.3,0.1-0.3c0,0.1,0,0.1-0.1,0.2c0,0,0-0.1,0.1-0.1
				c0,0.1,0,0.2,0,0.2C10.8,15.2,10.8,15.2,10.7,15.2z M16.6,11.7C16.6,11.7,16.6,11.7,16.6,11.7C16.6,11.8,16.5,11.7,16.6,11.7z
				 M10.9,14.8c0.1-0.1,0.1-0.1,0.1,0C11,14.8,11,14.8,10.9,14.8C11,14.8,10.9,14.9,10.9,14.8z M16.8,11.7c0,0-0.1,0.1-0.1,0.1
				C16.7,11.7,16.8,11.7,16.8,11.7z M11,14.5c0,0.1-0.1,0.2-0.1,0.4c0-0.1,0-0.2,0.1-0.3C10.9,14.6,11,14.6,11,14.5
				C11,14.5,11,14.5,11,14.5z M11.1,14.3C11.1,14.3,11.1,14.3,11.1,14.3c0,0.1,0,0.3-0.1,0.4c0-0.1,0,0,0-0.1
				C11,14.5,11.1,14.4,11.1,14.3z M17.3,11.4c-0.1,0.1-0.1,0.1-0.1,0.1c-0.1,0-0.1,0-0.2,0.1c0.1-0.1-0.1,0,0-0.1
				C17.1,11.5,17.2,11.5,17.3,11.4z M11.1,14.1C11.1,14.1,11.1,14.1,11.1,14.1C11.1,14,11.1,14,11.1,14.1
				C11.2,13.9,11.2,14,11.1,14.1C11.2,14.1,11.1,14.1,11.1,14.1c0.1,0,0.1,0.1,0.1,0.1l0,0.1C11.1,14.1,11.1,14.2,11.1,14.1z
				 M11.3,13.8c0-0.1,0.1-0.1,0.1-0.2C11.4,13.7,11.3,13.9,11.3,13.8z M11.4,13.3c0-0.1,0-0.1,0.1-0.2
				C11.5,13.2,11.5,13.2,11.4,13.3C11.4,13.3,11.5,13.3,11.4,13.3C11.4,13.3,11.4,13.3,11.4,13.3z M11.7,12.8
				c-0.1,0.1-0.1,0.2-0.1,0.2C11.6,13,11.7,12.8,11.7,12.8z M11.7,12.9C11.7,12.9,11.7,12.9,11.7,12.9
				C11.8,12.8,11.8,12.8,11.7,12.9C11.8,12.8,11.8,12.9,11.7,12.9C11.7,12.9,11.7,12.9,11.7,12.9z M12,12.4c0,0.1-0.1,0.3-0.2,0.4
				C11.8,12.6,11.9,12.5,12,12.4z M11.9,12.3c0,0.1,0,0.2-0.1,0.3C11.8,12.5,11.9,12.3,11.9,12.3z M12.4,11.8
				C12.4,11.8,12.4,11.8,12.4,11.8c0,0.1,0,0.2-0.1,0.3C12.3,11.9,12.4,11.8,12.4,11.8z M13.3,10.5c0,0.1,0.1-0.1,0.1,0
				C13.4,10.5,13.3,10.6,13.3,10.5C13.3,10.5,13.3,10.5,13.3,10.5z M22.5,7.4c0.1,0,0.1,0,0.2,0C22.6,7.5,22.5,7.5,22.5,7.4
				l-0.2,0.1C22.5,7.4,22.4,7.4,22.5,7.4z M23.2,7.4c-0.1,0-0.2,0.1-0.2,0C23.1,7.3,23.2,7.3,23.2,7.4z M31.7,9.3
				c-0.2,0.1,0.2,0,0,0.1c-0.1,0,0,0-0.1,0C31.6,9.3,31.6,9.3,31.7,9.3z M31.5,9.4C31.5,9.4,31.5,9.4,31.5,9.4
				c-0.1,0-0.1,0.1-0.2,0.1c0,0,0,0,0-0.1C31.4,9.4,31.4,9.3,31.5,9.4C31.6,9.3,31.6,9.4,31.5,9.4z M25.4,7.1c0.1,0,0.1,0,0.2,0
				C25.6,7.1,25.5,7.1,25.4,7.1C25.4,7.1,25.4,7.1,25.4,7.1z M32.1,9.3C32.1,9.3,32.1,9.4,32.1,9.3c0,0.1-0.1,0.1-0.1,0.1
				C32,9.3,32,9.3,32.1,9.3z M25.9,7c-0.1,0-0.1,0-0.2,0C25.7,7.1,25.9,7,25.9,7z M32.1,9.3c0,0,0.1,0,0.1,0
				C32.2,9.3,32.2,9.3,32.1,9.3C32.2,9.3,32.2,9.3,32.1,9.3z M32.4,6.5c-0.1,0-0.2,0-0.2,0C32.2,6.5,32.4,6.5,32.4,6.5z M32.7,6.5
				c-0.1,0-0.2,0-0.3,0C32.5,6.5,32.6,6.5,32.7,6.5z M32.9,6.5L32.9,6.5l-0.2,0C32.8,6.5,32.8,6.5,32.9,6.5z M39.8,8
				C39.9,8,39.8,8.1,39.8,8c-0.2,0.1-0.3,0.1-0.5,0.1c0,0-0.1,0,0,0C39.4,8.1,39.7,8,39.8,8z M40.4,8C40.5,8.1,40.5,8.1,40.4,8
				c-0.1,0.1-0.3,0.1-0.4,0.1C40.2,8.1,40.3,8.1,40.4,8z M36.9,6.4c0,0-0.2,0.1-0.3,0C36.8,6.4,36.9,6.4,36.9,6.4z M41.1,8
				c-0.2,0-0.4,0-0.5,0.1l-0.1,0C40.7,8.1,40.9,8,41.1,8z M38.5,6.2c0,0,0.1,0,0.1,0c0.1,0-0.1,0.1,0.1,0.1
				C38.6,6.3,38.6,6.3,38.5,6.2C38.6,6.3,38.7,6.2,38.5,6.2z M42.7,8.1C42.8,8.2,42.7,8.2,42.7,8.1c-0.1,0.1-0.1,0.1-0.2,0
				C42.6,8.2,42.6,8.2,42.7,8.1z M41.9,7.4c0.1,0,0.1,0,0.1-0.1c0.1,0,0,0,0,0.1c0,0,0,0,0.1,0C42.1,7.4,42,7.4,41.9,7.4
				C42,7.4,41.9,7.4,41.9,7.4z M41.2,6.5c0,0-0.1,0-0.2,0C41.1,6.5,41.2,6.5,41.2,6.5z M41.8,6.6c-0.1,0-0.2,0-0.3,0
				C41.6,6.6,41.7,6.5,41.8,6.6z M42.2,6.6c-0.1,0-0.1,0-0.2,0C42.1,6.6,42.2,6.6,42.2,6.6z M42.2,6.4C42.3,6.5,42.3,6.5,42.2,6.4
				C42.4,6.5,42.2,6.5,42.2,6.4C42.2,6.5,42.2,6.5,42.2,6.4z M46.1,7.1c0,0-0.1,0-0.2,0C45.9,7.1,46,7.1,46.1,7.1z"/>
			<path class="st1" d="M9,29.8C9,29.8,9,29.7,9,29.8c-0.1-0.3,0-0.5,0-0.8c0,0.2,0,0.4,0,0.6c0,0,0,0,0,0C9,29.7,9,29.7,9,29.8z"/>
			<path class="st1" d="M12.9,44.7c0-0.1,0-0.1,0-0.2C12.9,44.5,12.9,44.6,12.9,44.7z"/>
			<path class="st1" d="M12.3,40.8C12.3,40.9,12.3,40.8,12.3,40.8C12.3,40.8,12.3,40.8,12.3,40.8C12.3,40.7,12.3,40.7,12.3,40.8
				C12.3,40.7,12.3,40.7,12.3,40.8z"/>
			<path class="st1" d="M11.4,44.1c0,0.1,0-0.1,0-0.1c0,0,0,0-0.1,0C11.3,44,11.4,44,11.4,44.1z"/>
			<path class="st1" d="M11.7,42.6C11.8,42.7,11.8,42.7,11.7,42.6c0,0,0-0.1,0-0.1C11.7,42.5,11.7,42.6,11.7,42.6z"/>
			<path class="st1" d="M11.6,42.9C11.5,42.9,11.5,42.9,11.6,42.9c0,0.1,0,0.1,0,0.1C11.6,43,11.5,42.9,11.6,42.9
				C11.5,42.8,11.5,42.9,11.6,42.9z"/>
			<path class="st1" d="M12.5,39.8C12.5,39.7,12.4,39.7,12.5,39.8c-0.1-0.1,0-0.1,0-0.2c-0.1-0.1-0.1-0.2,0-0.3c0,0,0,0-0.1,0
				c0,0.1,0.1,0.3,0,0.5C12.4,39.7,12.4,39.8,12.5,39.8z"/>
			<path class="st1" d="M11.4,43.1c0-0.3,0-0.4-0.1-0.7c0,0,0,0.1,0,0.1c0,0.1,0,0.1,0,0.2c0,0,0,0.3,0,0.2
				C11.2,42.9,11.3,43.1,11.4,43.1z"/>
			<path class="st1" d="M12.7,38.6c0-0.1,0-0.3,0-0.5C12.6,38.3,12.7,38.5,12.7,38.6z"/>
			<path class="st1" d="M10.3,46.1c0,0,0,0.1,0.1,0.1C10.4,46.1,10.4,46.1,10.3,46.1C10.3,46,10.3,46.1,10.3,46.1z"/>
			<path class="st1" d="M11.3,42.5c0-0.1,0-0.2,0-0.2C11.2,42.4,11.3,42.5,11.3,42.5z"/>
			<path class="st1" d="M12.2,38.9C12.2,39,12.3,38.9,12.2,38.9c0.1,0,0-0.1,0-0.1C12.2,38.7,12.3,38.9,12.2,38.9z"/>
			<path class="st1" d="M10.5,43.8C10.5,43.8,10.5,43.8,10.5,43.8c-0.1,0,0-0.1-0.1-0.1c0,0.1,0,0.2,0.1,0.3
				C10.5,43.9,10.4,43.9,10.5,43.8z"/>
			<path class="st1" d="M10.7,41.4c0-0.1,0-0.1,0-0.2c0-0.1,0,0-0.1-0.1C10.7,41.2,10.7,41.3,10.7,41.4z"/>
			<path class="st1" d="M12.2,36.5C12.2,36.5,12.2,36.4,12.2,36.5C12.1,36.4,12.2,36.5,12.2,36.5C12.2,36.5,12.2,36.6,12.2,36.5
				c0,0,0,0,0-0.1C12.2,36.3,12.2,36.4,12.2,36.5z"/>
			<path class="st1" d="M12.2,36.1c0-0.1,0-0.2,0-0.3c0-0.1,0,0.1,0,0C12.2,35.9,12.2,36,12.2,36.1z"/>
			<path class="st1" d="M12.2,35.6C12.1,35.7,12.1,35.6,12.2,35.6c0,0.2,0,0.3,0,0.4c0.1,0,0-0.2,0.1-0.3c0-0.1,0-0.1,0-0.2
				c0-0.1,0-0.1-0.1-0.2c0,0.1,0,0.1,0,0.1c0,0.1,0,0,0,0c0,0,0,0,0,0.1C12.2,35.5,12.1,35.4,12.2,35.6
				C12.1,35.6,12.1,35.6,12.2,35.6z"/>
			<path class="st1" d="M9.3,41.6C9.3,41.7,9.3,41.6,9.3,41.6C9.3,41.6,9.3,41.5,9.3,41.6c0-0.1,0-0.1,0-0.2
				C9.3,41.5,9.3,41.6,9.3,41.6z"/>
			<path class="st1" d="M9.4,39.5c0,0,0-0.3,0-0.4c0,0,0,0.2,0,0.1C9.3,39.3,9.4,39.4,9.4,39.5z"/>
			<path class="st1" d="M9.4,38.4c0-0.1,0.1-0.1,0-0.3C9.4,38.1,9.4,38.3,9.4,38.4C9.4,38.4,9.4,38.3,9.4,38.4z"/>
			<path class="st1" d="M10.5,34.1c0,0,0-0.1,0-0.1c0,0,0,0,0-0.1c0,0,0,0,0,0l0,0C10.5,33.9,10.5,34.1,10.5,34.1
				C10.5,34.1,10.5,34.1,10.5,34.1z"/>
			<path class="st1" d="M9.4,35.9c0,0,0-0.2,0-0.3c0.1,0,0.1-0.2,0.1-0.2c0,0-0.1,0.1-0.1,0.1C9.4,35.5,9.3,35.6,9.4,35.9
				C9.4,35.8,9.4,35.8,9.4,35.9z"/>
			<path class="st1" d="M9.5,35.1c0,0,0-0.2,0-0.4c0-0.1,0,0.2,0,0.1C9.5,34.9,9.5,35,9.5,35.1z"/>
			<path class="st1" d="M9.4,35.4C9.4,35.4,9.4,35.3,9.4,35.4C9.4,35.3,9.4,35.3,9.4,35.4c0.1-0.1,0.1-0.1,0.1-0.2
				c0,0-0.1,0.1,0-0.1c0,0,0,0,0,0.1C9.4,35.2,9.4,35.3,9.4,35.4z"/>
			<path class="st1" d="M9.4,34.2c0,0,0,0.1,0,0.1c0,0.1,0,0,0.1,0.1C9.4,34.3,9.4,34.3,9.4,34.2z"/>
			<path class="st1" d="M9,33.2C9,33.2,9,33.3,9,33.2C9,33.2,9,33.4,9,33.2L9,33.2C9,33.2,9,33.3,9,33.2C9,33.1,9,33.2,9,33.2z"/>
			<path class="st1" d="M9.5,31.6C9.5,31.7,9.6,31.7,9.5,31.6C9.6,31.6,9.6,31.6,9.5,31.6C9.6,31.6,9.5,31.5,9.5,31.6
				C9.5,31.6,9.5,31.6,9.5,31.6z"/>
			<path class="st1" d="M10.6,29.2C10.6,29.2,10.6,29.2,10.6,29.2c0-0.1,0-0.1,0-0.2C10.6,29.1,10.6,29.1,10.6,29.2
				C10.6,29.2,10.6,29.2,10.6,29.2z"/>
			<path class="st1" d="M8.9,30.8c0,0.1,0,0.2,0,0.3C8.9,31,8.9,30.9,8.9,30.8c0-0.1,0-0.2,0-0.4C8.9,30.5,8.8,30.8,8.9,30.8z"/>
			<path class="st1" d="M9,30.6c0-0.1,0-0.2,0-0.4c-0.1,0,0-0.3,0-0.5c0,0,0,0,0,0c0,0.1,0,0.2,0,0.3c0,0.1,0,0.3,0,0.4
				c0,0,0,0,0-0.1C8.9,30.4,8.9,30.5,9,30.6z"/>
			<path class="st1" d="M8.8,30.8c0.1,0,0.1-0.5,0.1-0.6C8.8,30.3,8.8,30.6,8.8,30.8z"/>
			<path class="st1" d="M8.9,29.1c0-0.1,0-0.2,0-0.3C8.9,28.8,8.9,29,8.9,29.1z"/>
			<path class="st1" d="M8.9,27.9C9,27.8,9,27.4,9,27.2c-0.1,0.1,0,0.2-0.1,0.2c0.1,0,0,0.2,0,0.3c0,0.1-0.1-0.1-0.1,0.1
				C8.9,27.7,9,27.8,8.9,27.9z"/>
			<path class="st1" d="M8.9,27.9c0,0,0-0.2,0-0.3c0-0.1,0,0.1,0,0.1C8.9,27.9,8.9,27.9,8.9,27.9z"/>
			<path class="st1" d="M9,27.2c0-0.2,0-0.3,0-0.5C8.9,26.8,9,27,9,27.2z"/>
			<path class="st1" d="M9.2,24.8c0-0.1,0-0.1,0-0.2l0,0.1C9.2,24.7,9.2,24.7,9.2,24.8z"/>
			<path class="st1" d="M9.2,23.5l0,0.1c0-0.1,0-0.1,0-0.3C9.2,23.3,9.2,23.5,9.2,23.5z"/>
			<path class="st1" d="M9.4,22.2c0.1,0,0-0.1,0.1-0.2c0,0,0,0,0-0.1C9.4,22,9.4,22.1,9.4,22.2z"/>
			<path class="st1" d="M9.6,20.1C9.6,20.1,9.6,20.1,9.6,20.1C9.6,20,9.7,20.1,9.6,20.1c0.1-0.1,0.1-0.1,0.1-0.2
				c-0.1-0.1,0-0.2,0-0.3c0-0.1,0,0,0-0.1c0,0.1-0.1,0.2,0,0.4c0,0,0,0-0.1,0.1C9.6,19.9,9.6,20,9.6,20.1z"/>
			<path class="st1" d="M10.3,16.5c0.1-0.1,0-0.3,0.1-0.4c0,0,0,0-0.1,0.1C10.4,16.3,10.3,16.3,10.3,16.5z"/>
			<path class="st1" d="M11,14.1c0,0,0.1-0.3,0.1-0.3C11.1,13.9,11,14,11,14.1z"/>
			<path class="st1" d="M12.2,11.9C12.2,11.9,12.1,11.9,12.2,11.9c-0.1,0-0.1,0-0.1,0.1C12.1,12,12.1,11.9,12.2,11.9
				C12.2,11.9,12,12.1,12.2,11.9z"/>
			<path class="st1" d="M20.4,7.6c0,0,0.2,0,0.2,0c0,0,0,0,0,0l0,0C20.5,7.6,20.4,7.6,20.4,7.6z"/>
			<path class="st1" d="M28.2,9.8c0.1,0,0.2,0,0.4,0c0.1-0.1,0.2,0,0.3,0c0,0,0,0,0,0c0,0,0,0,0,0C28.6,9.8,28.4,9.8,28.2,9.8z"/>
			<path class="st1" d="M33.3,6.2C33.5,6.2,33.3,6.2,33.3,6.2C33.4,6.2,33.4,6.2,33.3,6.2L33.3,6.2C33.4,6.2,33.2,6.2,33.3,6.2z"/>
			<path class="st1" d="M34.3,6.3c0.1,0.1,0-0.1,0.1,0C34.5,6.2,34.4,6.2,34.3,6.3C34.4,6.3,34.4,6.3,34.3,6.3z"/>
		</g>
	</g>
</g>
</svg>
