<?xml version="1.0" encoding="utf-8"?>
<!-- Generator: Adobe Illustrator 23.0.6, SVG Export Plug-In . SVG Version: 6.00 Build 0)  -->
<svg version="1.1" id="Capa_1" xmlns="http://www.w3.org/2000/svg" xmlns:xlink="http://www.w3.org/1999/xlink" x="0px" y="0px"
	 viewBox="0 0 512 512" style="enable-background:new 0 0 512 512;" xml:space="preserve">
<style type="text/css">
	.st0{fill:#FFFFFF;}
	.st1{fill:#521642;}
</style>
<rect x="116" y="84.9" class="st0" width="279" height="340"/>
<g>
	<path class="st1" d="M472.9,391.2c24.5-39.2,38.6-85.6,38.6-135.2c0-141.4-114.6-256-256-256s-256,114.6-256,256s114.6,256,256,256
		c49.7,0,96-14.1,135.3-38.6L503,503.5L472.9,391.2z M255.5,119.4c17.7,0,32.1,14.4,32.1,32.1s-14.4,32.1-32.1,32.1
		s-32.1-14.4-32.1-32.1S237.8,119.4,255.5,119.4z M311.7,392.6H199.3v-48.2h24.1V248h-24.1v-48.2h88.4V248v96.4h24.1L311.7,392.6
		L311.7,392.6z"/>
</g>
</svg>
