<?xml version="1.0" encoding="utf-8"?>
<!-- Generator: Adobe Illustrator 24.1.2, SVG Export Plug-In . SVG Version: 6.00 Build 0)  -->
<svg version="1.1" id="Calque_1" xmlns="http://www.w3.org/2000/svg" xmlns:xlink="http://www.w3.org/1999/xlink" x="0px" y="0px"
	 viewBox="0 0 1525.1 132.3" style="enable-background:new 0 0 1525.1 132.3;" xml:space="preserve">
<style type="text/css">
	.st0{clip-path:url(#SVGID_2_);fill:#FFEACF;}
</style>
<g>
	<defs>
		<rect id="SVGID_1_" x="-1.6" y="1.5" width="1530.8" height="134.3"/>
	</defs>
	<clipPath id="SVGID_2_">
		<use xlink:href="#SVGID_1_"  style="overflow:visible;"/>
	</clipPath>
	<path class="st0" d="M823.1,238.2c0.8-25.8,35.1-50.5,73.1-74.1s80.3-47,98.9-72.3c11.9-16.2,11.6-34.7-29.1-47.6
		c-39.1-12.4-104.4-16.1-164.9-18c-45.5-1.4-93.2-2.2-135,2.5c-29,3.3-53,8.9-80.7,12.9c-96.3,13.8-218.4,4.9-315.9-9
		c-45.8-6.6-89.6-14.2-138-19.2S27.9,6.2-20.2,11C-68,15.8-102.9,26.8-127,38.6c-48.8,24-60.1,52-65.1,79.4
		c-11,60.5,4.8,121.2,20.5,181.7c5.8,22.4,11.7,44.9,30,66.9c10.2,12.2,25.6,24.8,59.9,33.5c43.6,11.1,115.3,13.6,167.2,5.8
		c87-13.1,104.6-48.3,198.6-57.6c51.8-5.1,110.7-0.4,160.2,6.5c106.1,14.7,200.7,39.8,320,40.6c81.9,0.5,162.3-12.1,198.6-31.2
		c38.2-20.1,29.6-47.6-39.4-62C852.3,287.4,822.4,261,823.1,238.2z"/>
	<path class="st0" d="M1551.2,252c0.8-25.8,35.1-50.5,73.1-74.1c38-23.6,80.3-47,98.9-72.3c11.9-16.2,11.6-34.7-29.1-47.6
		c-39.1-12.4-104.4-16.1-164.9-18c-45.5-1.4-93.2-2.2-135,2.5c-29,3.3-53,8.9-80.7,12.9c-96.3,13.8-218.4,4.9-315.9-9
		c-45.8-6.6-89.6-14.2-138-19.2S756.1,20.1,708,24.9c-47.7,4.8-82.7,15.7-106.7,27.5c-48.8,24-60.1,52-65.1,79.4
		c-11,60.5,4.8,121.2,20.5,181.7c5.8,22.4,11.7,44.9,30,66.9c10.2,12.2,25.6,24.8,59.9,33.5c43.6,11.1,115.3,13.6,167.2,5.8
		c87-13.1,104.6-48.3,198.6-57.6c51.8-5.1,110.7-0.4,160.2,6.5c106.1,14.7,200.7,39.8,320,40.6c81.9,0.5,162.3-12.1,198.6-31.2
		c38.2-20.1,29.6-47.6-39.4-62C1580.5,301.2,1550.6,274.8,1551.2,252z"/>
</g>
</svg>
