<?xml version="1.0" encoding="utf-8"?>
<!-- Generator: Adobe Illustrator 24.1.2, SVG Export Plug-In . SVG Version: 6.00 Build 0)  -->
<svg version="1.1" id="Calque_1" xmlns="http://www.w3.org/2000/svg" xmlns:xlink="http://www.w3.org/1999/xlink" x="0px" y="0px"
	 viewBox="0 0 1524.1 114.3" style="enable-background:new 0 0 1524.1 114.3;" xml:space="preserve">
<style type="text/css">
	.st0{clip-path:url(#SVGID_2_);fill:#FFEACF;}
</style>
<g>
	<defs>
		<rect id="SVGID_1_" x="-0.7" y="-2.4" width="1525.2" height="148.4"/>
	</defs>
	<clipPath id="SVGID_2_">
		<use xlink:href="#SVGID_1_"  style="overflow:visible;"/>
	</clipPath>
	<path class="st0" d="M350.6,42.5c78.3,0.3,152.4,12.4,223.2,25.7s140.8,28.2,217,34.7c49,4.2,105.2,4.1,145.3-10
		c38.6-13.6,51.6-36.4,58.9-57.4c5.5-15.8,9-32.5-4.2-47.1c-9.1-10.1-25.7-18.5-37-28.2c-39.4-33.6-9.4-76.2,35.6-110.1
		c21.2-15.9,45.5-31.2,61.9-48.1s24.4-36.1,11.1-52.9c-13.2-16.7-45.6-28.9-80.9-37.3C910-305.3,825-309.3,742.2-311.1
		c-183.5-4-368.3,1.3-552.6,6.6c-68.2,2-136.7,3.9-204,10.3c-37.3,3.5-76,8.8-103.4,20.8c-34.9,15.2-44.2,40.2-21.8,58.3
		c37.5,30.4,144,36.6,169.8,69.4c14.2,18.1-1.7,38.6-23.8,55.8C-41.1-53-119.7-20.1-125.2,21.5c-3.8,28.6,32.6,56.6,89.8,69.3
		c60,13.4,143.8,10.5,189.2-13.5C200.5,52.6,281.5,42.2,350.6,42.5z"/>
	<path class="st0" d="M1607.5-134.8c0.2-36.5,32.1-71.2,67.4-104.3s74.8-65.9,91.9-101.5c10.9-22.9,10.2-49.1-28.5-67.6
		c-37.2-17.8-98.9-23.7-156-26.9c-42.9-2.4-88-3.9-127.4,2.4c-27.3,4.4-49.9,12.2-75.9,17.5c-90.6,18.7-206,5.2-298.4-15.5
		c-43.3-9.7-84.9-20.9-130.7-28.4c-45.8-7.5-97.9-11-143.2-4.6c-45,6.3-77.7,21.6-100.2,38.1c-45.6,33.6-55.7,73.2-59.8,111.9
		c-9.1,85.6,7,171.7,23.1,257.6c6,31.8,12,63.7,29.7,95c9.9,17.4,24.7,35.3,57.2,48c41.4,16.1,109.1,20.2,157.9,9.6
		c81.9-17.8,97.7-67.5,186.3-79.9c48.7-6.8,104.5,0.4,151.3,10.5c100.5,21.8,190.3,58.1,302.9,60.2c77.3,1.5,152.9-15.8,186.8-42.6
		c35.6-28.1,27-67.2-38.5-88.1C1636.1-64.9,1607.3-102.5,1607.5-134.8z"/>
</g>
</svg>
