<?xml version="1.0" encoding="utf-8"?>
<!-- Generator: Adobe Illustrator 24.1.2, SVG Export Plug-In . SVG Version: 6.00 Build 0)  -->
<svg version="1.1" id="Calque_1" xmlns="http://www.w3.org/2000/svg" xmlns:xlink="http://www.w3.org/1999/xlink" x="0px" y="0px"
	 viewBox="0 0 1525.1 81.3" style="enable-background:new 0 0 1525.1 81.3;" xml:space="preserve">
<style type="text/css">
	.st0{clip-path:url(#SVGID_2_);fill:#EFECFA;}
</style>
<g>
	<defs>
		<rect id="SVGID_1_" x="-4.8" y="-3.5" width="1534.1" height="97.4"/>
	</defs>
	<clipPath id="SVGID_2_">
		<use xlink:href="#SVGID_1_"  style="overflow:visible;"/>
	</clipPath>
	<path class="st0" d="M800.2-67.9c4.4-23.8,37.5-44.7,73.5-64.3s75.7-38.9,95.4-61.1c12.6-14.3,15-31.5-18-45.7
		c-31.7-13.7-87.2-20.9-138.7-26.2c-38.7-3.9-79.6-7.4-116.1-5.5c-25.3,1.3-46.8,5.2-71.1,7.2c-84.6,7.2-187.9-8-269.4-26.6
		c-38.3-8.7-74.7-18.3-115.5-25.7c-40.8-7.4-87.7-12.6-129.7-10.9c-41.6,1.6-73.2,9.8-95.5,19.3C-30.2-288-44-262.7-52.3-237.7
		C-70.5-182.4-66-125.3-61.4-68.4c1.7,21.1,3.4,42.2,15.9,63.6c7,11.9,18.3,24.4,46.4,34.5c35.7,12.8,96.8,19.2,142.4,15
		C219.9,37.6,240.1,6,322.1,2.9c45.1-1.8,94.9,6,136.3,15.2c88.8,19.8,166.2,48.4,268.3,56c70.1,5.2,140.9-1.8,174.8-17.4
		c35.7-16.4,32.4-42.3-24.7-59.6C818.1-20.7,796.3-46.8,800.2-67.9z"/>
	<path class="st0" d="M1757.4-68.4c0.5-22,40.1-42.9,84-62.9c43.9-20,92.9-39.8,114.2-61.3c13.6-13.8,12.9-29.6-34.8-40.7
		c-45.9-10.7-122.1-14.1-192.6-15.9c-53-1.4-108.8-2.2-157.5,1.7c-33.8,2.7-61.7,7.4-94,10.7c-112.1,11.4-254.7,3.4-368.7-8.8
		c-53.5-5.8-104.7-12.4-161.3-16.9c-56.6-4.4-120.9-6.5-177-2.6c-55.6,3.9-96.2,13.1-124.1,23.1c-56.6,20.3-69.3,44.2-74.6,67.5
		c-11.8,51.6,7.6,103.4,27,155.1c7.2,19.1,14.4,38.3,36.1,57.1c12.1,10.4,30.2,21.2,70.4,28.8c51,9.6,134.7,12,195.1,5.5
		c101.3-10.9,121.2-40.8,230.7-48.4c60.3-4.2,129.1,0.1,187,6.1c124,12.9,234.9,34.7,374,35.7c95.6,0.8,189.1-9.7,231.1-25.9
		c44.2-17,33.7-40.5-47-53C1792.4-26.4,1757-49,1757.4-68.4z"/>
</g>
</svg>
