<?xml version="1.0" encoding="utf-8"?>
<!-- Generator: Adobe Illustrator 24.1.2, SVG Export Plug-In . SVG Version: 6.00 Build 0)  -->
<svg version="1.1" id="Calque_1" xmlns="http://www.w3.org/2000/svg" xmlns:xlink="http://www.w3.org/1999/xlink" x="0px" y="0px"
	 viewBox="0 0 1525.1 124.3" style="enable-background:new 0 0 1525.1 124.3;" xml:space="preserve">
<style type="text/css">
	.st0{clip-path:url(#SVGID_2_);fill:#EFECFA;}
</style>
<g>
	<defs>
		<rect id="SVGID_1_" x="-6.7" y="-10" width="1538" height="138"/>
	</defs>
	<clipPath id="SVGID_2_">
		<use xlink:href="#SVGID_1_"  style="overflow:visible;"/>
	</clipPath>
	<path class="st0" d="M962.5,112.4C840.8,111.9,724.2,91,612.8,67.8s-222-49-341.1-60.4C195,0.1,107.7,0.4,47.1,25.2
		c-58.3,23.9-76,63.8-85,100.6c-6.8,27.7-10.3,56.9,11.9,82.4c15.4,17.7,42,32.4,60.7,49.3c65,58.8,23.3,133.3-42.7,192.8
		c-31.1,27.9-67.1,54.7-90.7,84.2c-23.6,29.6-33.8,63.2-11.2,92.6c22.4,29.1,74.2,50.5,130,65.2C133.3,722.1,265.7,729,394.7,732
		c285.6,6.7,572.1-2.9,857.9-12.5c105.8-3.6,212-7.1,315.7-18.3c57.6-6.2,117-15.6,158.2-36.5c52.4-26.6,64.1-70.4,27.2-102
		c-61.8-53.1-227.9-63.9-271.8-121.2c-24.2-31.6-1.8-67.6,30.6-97.8c69.5-64.8,187.9-122.5,191.6-195.3c2.6-50-57.1-99-147.5-121.2
		c-94.8-23.3-224.7-18.1-292.5,24C1194.6,94.5,1070,112.8,962.5,112.4z"/>
</g>
</svg>
