<?xml version="1.0" encoding="utf-8"?>
<!-- Generator: Adobe Illustrator 23.0.6, SVG Export Plug-In . SVG Version: 6.00 Build 0)  -->
<svg version="1.1" id="Calque_1" xmlns="http://www.w3.org/2000/svg" xmlns:xlink="http://www.w3.org/1999/xlink" x="0px" y="0px"
	 viewBox="0 0 372.3 51.6" style="enable-background:new 0 0 372.3 51.6;" xml:space="preserve">
<style type="text/css">
	.st0{fill:none;}
	.st1{fill-rule:evenodd;clip-rule:evenodd;}
</style>
<g>
	<g>
		<g>
			<rect x="6.4" y="18.7" class="st0" width="360.7" height="10.3"/>
			<path class="st1" d="M361.7,23.2c-0.3-0.1-0.6-0.1-1,0C361.1,23.2,361.4,23.3,361.7,23.2z"/>
			<path class="st1" d="M360.8,23.4c-0.3,0-0.6-0.1-1,0C360.2,23.4,360.5,23.5,360.8,23.4z"/>
			<path class="st1" d="M358.3,23c-0.3-0.1-0.4,0-0.9,0c0.2,0.1,0.4,0,0.5,0.1C358.2,23.1,358.1,23.1,358.3,23z"/>
			<path class="st1" d="M348.8,21.1c-0.1,0-0.3-0.1-0.4-0.1c-0.2,0.1-0.4,0-0.7,0.1C348,21.2,348.4,21.2,348.8,21.1z"/>
			<path class="st1" d="M359,23.4c0.2-0.1-0.5-0.1-0.7-0.1c0,0.1,0.3,0,0.5,0.1C358.8,23.4,358.8,23.4,359,23.4z"/>
			<path class="st1" d="M347.3,21.1c-0.4,0-0.4-0.1-0.6-0.1c-0.2,0.1-0.1,0.1,0.2,0.2C347,21.1,347.1,21.1,347.3,21.1z"/>
			<path class="st1" d="M352.6,22.8c0.2-0.1-0.6-0.1-0.9,0C352,22.9,352.3,22.7,352.6,22.8z"/>
			<path class="st1" d="M343.2,20.8c-0.2,0-0.5,0-0.3,0c-0.2-0.1-0.5,0.1-0.7,0.1c-0.2-0.1-0.5-0.1-0.9-0.2c0,0.2-0.8,0.2-1.4,0.2
				c0.3,0,0.7,0,1,0.1c0-0.1,0.2-0.1,0.7-0.1c0,0,0,0.1,0.2,0.1c0.3,0,0.6,0,0.9,0C342.9,20.9,343.2,20.9,343.2,20.8z"/>
			<path class="st1" d="M351.2,22.7c-0.1,0-0.3-0.1-0.4-0.1c0,0-0.2,0.1-0.3,0.1C350.3,22.7,351,22.8,351.2,22.7z"/>
			<path class="st1" d="M349.8,23.3c-0.3,0-0.7,0-1,0.1C349.1,23.4,349.7,23.4,349.8,23.3z"/>
			<path class="st1" d="M334.2,20.3c-0.3-0.1-0.9-0.1-0.9,0C333.6,20.3,333.9,20.3,334.2,20.3z"/>
			<path class="st1" d="M346.5,23.2c-0.4,0-0.7-0.1-1.1,0C345.8,23.2,346.1,23.3,346.5,23.2z"/>
			<path class="st1" d="M335.4,21.7c-0.5,0-0.4,0.1-1,0.1c0.1,0,0.3,0,0.4,0C335.1,21.7,335.6,21.8,335.4,21.7z"/>
			<path class="st1" d="M342.7,23.5c-0.1,0.1,0.6,0.1,0.8,0.2C343.9,23.6,343,23.5,342.7,23.5z"/>
			<path class="st1" d="M339,23.3c-0.4,0-0.7,0-1.1,0c0.4,0,0.9,0,1.3,0.1C339.5,23.4,338.6,23.3,339,23.3z"/>
			<path class="st1" d="M327.2,20.8c0.2-0.1-0.6,0-0.9-0.1C326.2,20.9,327,20.8,327.2,20.8z"/>
			<path class="st1" d="M326.3,21.2c0.2,0.1,0.5,0,0.7,0.1c0.2-0.1,0.2-0.1,0-0.2C326.8,21.2,326.3,21.1,326.3,21.2z"/>
			<path class="st1" d="M320.3,19.9c-0.4-0.1-0.8-0.1-1.2,0C319.5,19.9,319.9,20,320.3,19.9z"/>
			<path class="st1" d="M341.4,24.5c-0.2-0.1-0.4,0-0.6-0.1c-0.4,0.1-0.1,0.1,0.2,0.2C341.1,24.6,341.2,24.5,341.4,24.5z"/>
			<path class="st1" d="M338.6,24c-0.3-0.1-0.6-0.1-0.8-0.1C337.6,23.9,338.3,24.1,338.6,24z"/>
			<path class="st1" d="M339.1,24.4c-0.1,0-0.1,0-0.2,0c-0.8-0.1-1.7,0-2.6-0.1c-0.5,0.1-0.2,0.1-0.5,0.2c0.5,0.1,0.4-0.1,0.8-0.1
				c0.4,0.1,0.1,0.1,0.5,0.1c0-0.1,0.7-0.1,1-0.1c0.2,0.1,0.5,0.1,0.7,0.1C339.4,24.5,338.6,24.5,339.1,24.4z"/>
			<path class="st1" d="M321.1,21c0.2,0-0.4,0.1-0.6,0.1c-0.3,0.1,0.4,0,0.5,0.1c0.5,0,0.2-0.1,0.4-0.1c-0.3,0-0.6-0.1-0.8-0.1
				C320.3,21,320.9,21,321.1,21z"/>
			<path class="st1" d="M346.3,26.4c-0.4-0.1-0.7-0.2-1.1-0.1C345.5,26.4,345.9,26.5,346.3,26.4z"/>
			<path class="st1" d="M346.3,26.6c0.2-0.1-0.5-0.1-0.8,0C345.8,26.7,346.1,26.5,346.3,26.6z"/>
			<path class="st1" d="M344.8,26.4c-0.3,0-0.2,0.1-0.4,0.1c0.2,0,0.4,0,0.5,0C345.2,26.5,345.1,26.4,344.8,26.4z"/>
			<path class="st1" d="M319.8,21c0.1-0.1-0.9,0-1.2-0.1C318.3,21.1,319.4,21.1,319.8,21z"/>
			<path class="st1" d="M348.5,27.8c-0.3,0-0.8,0-1.4,0.1C347.6,27.9,348,27.9,348.5,27.8z"/>
			<path class="st1" d="M315.7,20.9c0,0.1,0.5,0.2,0.8,0.1C316.6,20.9,316.1,20.8,315.7,20.9z"/>
			<path class="st1" d="M338.4,25.7c-0.3-0.1-1.6,0-1,0.1C337.7,25.7,338,25.7,338.4,25.7z"/>
			<path class="st1" d="M331.1,24.3c-0.1-0.1-1.1-0.1-1.5,0c0.2,0,0.1,0.1,0,0.1C330,24.5,330.6,24.2,331.1,24.3z"/>
			<path class="st1" d="M342.8,27.1c-0.4-0.1-0.8-0.1-1.3-0.1C342,27,342.4,27.1,342.8,27.1z"/>
			<path class="st1" d="M313.7,20.8c-0.2,0-0.3,0-0.2,0c-0.7,0.1-1.4-0.1-2.1,0C312.4,20.8,312.9,21,313.7,20.8z"/>
			<path class="st1" d="M333.6,25.6c-0.2-0.1-0.5,0-0.8,0.1c0.1,0,0.3,0,0.4,0C333.3,25.6,333.4,25.6,333.6,25.6z"/>
			<path class="st1" d="M311.2,20.8c0.3-0.1-0.3,0-0.4-0.1c0.2,0.1-0.4,0-0.8,0.1c0.2,0.1,0.5-0.1,0.8,0
				C310.9,20.8,311,20.8,311.2,20.8z"/>
			<path class="st1" d="M309.9,20.7c-0.7,0-0.8-0.2-1.4-0.1c0.7,0.1-0.2,0.1,0.4,0.2C308.9,20.7,309.5,20.8,309.9,20.7z"/>
			<path class="st1" d="M333.1,26.5c-0.5,0-1.2,0-0.8,0.1C332.7,26.6,332.9,26.6,333.1,26.5z"/>
			<path class="st1" d="M306.2,20.7c-0.4-0.1-0.9,0-1.3-0.1c-0.2-0.1,0.1-0.1,0.4-0.1c-0.7-0.1-0.8,0.1-1.8,0.1
				c0.2,0.1,0.2,0.1,0.6,0.1c0.5-0.1-0.2,0-0.3-0.1C304.6,20.6,305.4,20.8,306.2,20.7z"/>
			<path class="st1" d="M316.5,23.7c-0.5-0.1-1,0-1.2,0.1C315.8,23.8,316.3,23.8,316.5,23.7z"/>
			<path class="st1" d="M323.2,25.3c-0.4,0-0.1,0-0.4-0.1c-0.2,0-0.1,0.1-0.1,0.1C322.8,25.4,323,25.3,323.2,25.3z"/>
			<path class="st1" d="M313.3,25c-0.5,0-0.9,0-1.4,0.1C312.3,25,313.2,25.1,313.3,25z"/>
			<path class="st1" d="M319.5,27.5c-0.2-0.1-0.5,0-0.7-0.1c-0.4,0,0.6,0.1,0.2,0.1C319.1,27.6,319.3,27.5,319.5,27.5z"/>
			<path class="st1" d="M324.9,28.7c-0.4-0.1-0.9,0-1.3,0.1C324,28.8,324.8,28.8,324.9,28.7z"/>
			<path class="st1" d="M302.2,24.2c-0.1,0-0.3-0.1-0.4-0.1c0,0-0.1,0.1-0.2,0C301.3,24.2,302,24.3,302.2,24.2z"/>
			<path class="st1" d="M316.8,27.9c-0.5-0.1-0.9,0-1.4-0.1c-0.2,0,0,0.1,0.1,0.1c-0.3,0-0.8,0-0.8,0.1c0.2,0,0.5-0.1,0.8,0
				C315.7,27.9,316.3,28,316.8,27.9z"/>
			<path class="st1" d="M300,24.7c-0.2,0-0.4,0-0.5,0c-0.4,0.1,0,0.2,0.3,0.2C300.2,24.8,299.5,24.7,300,24.7z"/>
			<path class="st1" d="M310.5,28c0-0.1-1.4-0.1-1.5,0C309.5,27.9,310,27.9,310.5,28z"/>
			<path class="st1" d="M311.3,28.7c-0.3-0.1-0.7-0.1-1.1,0C310.5,28.7,310.9,28.8,311.3,28.7z"/>
			<path class="st1" d="M305.1,27.6c-0.4,0-0.7-0.1-1.1,0C304.4,27.6,304.8,27.6,305.1,27.6z"/>
			<path class="st1" d="M301.3,27.4c-0.2,0-0.5,0-0.8,0c-0.1,0,0.2,0.1,0.3,0.1C301,27.4,301.1,27.4,301.3,27.4z"/>
			<path class="st1" d="M299.6,27.4c-0.3-0.1-0.6,0-0.9-0.1C298.6,27.4,299.4,27.5,299.6,27.4z"/>
			<path class="st1" d="M284.5,24.3C284.4,24.4,284.4,24.4,284.5,24.3c-0.2,0.1-0.3,0-0.4,0c-0.3,0-0.2,0.1-0.6,0.1
				c-0.4,0.1,0.6,0,0.2,0.1C284,24.5,285.1,24.4,284.5,24.3z"/>
			<path class="st1" d="M283.3,24.5c-0.1,0-0.3,0-0.4,0c-0.2,0-0.3-0.1-0.2-0.1c-0.2,0-0.4,0-0.6,0.1c0.2,0,0.3,0.1,0.5,0.1
				C282.8,24.5,283,24.5,283.3,24.5z"/>
			<path class="st1" d="M280.9,24.1c-0.3,0-0.6,0-0.9,0C280.3,24.2,280.6,24.1,280.9,24.1z"/>
			<path class="st1" d="M293.7,27.1c-0.5,0-0.5,0.1-0.3,0.2C294,27.3,293.6,27.1,293.7,27.1z"/>
			<path class="st1" d="M294.5,27.3c-0.6,0-1.4-0.1-1.6,0C293.4,27.4,293.9,27.5,294.5,27.3z"/>
			<path class="st1" d="M293,27.1c-0.4,0-0.7,0-1.1,0C292.2,27.2,292.6,27.1,293,27.1C293,27.2,292.8,27.1,293,27.1z"/>
			<path class="st1" d="M291.2,26.7c-1,0-1.2,0-0.6,0.2C291.1,26.8,291,26.8,291.2,26.7z"/>
			<path class="st1" d="M277.6,24.1c-0.3-0.1-0.7-0.1-1.1,0C276.9,24.1,277.2,24.1,277.6,24.1z"/>
			<path class="st1" d="M272.3,23.8c-1,0.1-1.9,0-2.5,0.2c0.8,0,1.6,0,2.4-0.1c0.1,0-0.1,0.1-0.2,0.1
				C272.7,24.1,272.7,23.9,272.3,23.8z"/>
			<path class="st1" d="M284.6,26.9c-0.6-0.1-0.2,0.2-0.6,0.1C284,27.1,284.8,26.9,284.6,26.9z"/>
			<path class="st1" d="M284.1,26.9c-0.3,0-0.6,0-1,0.1C283.4,27,283.7,27,284.1,26.9z"/>
			<path class="st1" d="M267.3,23.9c-0.1,0-0.3-0.1-0.4-0.1c-0.2,0-0.1,0.1-0.4,0.1C266.8,23.9,267,24,267.3,23.9z"/>
			<path class="st1" d="M276.9,26.3c-0.2,0,0.1,0.1-0.4,0.1C277.1,26.5,277.7,26.4,276.9,26.3z"/>
			<path class="st1" d="M261.5,28.1c-0.5-0.1-0.9,0-1,0.1C260.8,28.2,261.1,28.1,261.5,28.1z"/>
			<path class="st1" d="M250.5,27.9c-0.5-0.1-0.4,0.1-1,0c-0.2-0.1,0.4-0.1,0.6-0.1c-0.4-0.1-0.8,0-1,0.1c0.3,0,0.4,0,0.4,0.1
				c-0.5,0.1-0.9-0.1-1.4,0.1c0.3,0,0.5,0,0.7,0.1c0.6-0.1,1.2-0.1,1.5,0C250.4,28.1,249.9,28,250.5,27.9z"/>
			<path class="st1" d="M246.4,27.9c-0.1,0-0.3-0.1-0.4-0.1c-0.4,0.1-0.4,0-0.7,0.1c0.4,0.1,1-0.1,0.6,0
				C246.2,28.1,246.3,28,246.4,27.9z"/>
			<path class="st1" d="M244.8,27.8c0,0.1-0.4,0.1-0.7,0.2c0.1,0,0.2,0,0.3,0.1c0.1,0,0.2,0,0.3,0c0-0.1-0.1-0.1,0.4-0.1
				C244.9,27.9,245,27.8,244.8,27.8z"/>
			<path class="st1" d="M243,27.7c-0.4,0.1-0.7,0-1.1,0.1c0.5,0.1,1,0,1.4,0.1C243.6,27.8,243.2,27.8,243,27.7z"/>
			<path class="st1" d="M241.2,27.9c0.3,0,0.5-0.1,0.1-0.1c-0.1,0-0.3,0-0.4,0C241,27.8,241.1,27.9,241.2,27.9z"/>
			<path class="st1" d="M240.9,27.8c-0.2,0-0.1-0.1-0.3-0.1c-0.2,0-0.1,0.1-0.3,0.1c-0.1,0,0.2,0.1,0.3,0.1
				C240.7,27.9,240.8,27.9,240.9,27.8z"/>
			<path class="st1" d="M240.2,28c0.1,0-0.7-0.2-1.1-0.1C239.5,28,239.9,28,240.2,28z"/>
			<path class="st1" d="M234,27.7c-0.3,0.1-0.5,0.1-0.8,0.1c0.2,0.1,0.5,0,0.7,0.1C234.2,27.8,234.4,27.8,234,27.7z"/>
			<path class="st1" d="M230.6,27.8c-0.3-0.1-0.6-0.1-0.9,0c0.1,0,0.3,0.1,0.4,0.1C230.3,27.8,230.5,27.8,230.6,27.8z"/>
			<path class="st1" d="M228.6,27.7c-0.4,0-0.9,0-1.3-0.1c-0.4,0,0.7,0.1,0.3,0.2c0.3,0,0.2,0,0.3-0.1
				C228.1,27.7,228.3,27.8,228.6,27.7z"/>
			<path class="st1" d="M227.1,27.9c-0.2,0-0.5,0.1-0.8,0c0,0.1,0.3,0.1,0.7,0.1C227.3,28,226.8,28,227.1,27.9z"/>
			<path class="st1" d="M224.7,27.6c-0.7,0.1-1.3,0-2,0c-0.5,0.1,0.8,0.2,1,0.3c0.1-0.1,0-0.1,0.7-0.2c0.4,0.1,0.4,0.2,0.9,0.2
				C225.5,27.7,225.2,27.7,224.7,27.6z"/>
			<path class="st1" d="M224.5,27.9c-0.5,0-0.9,0-1.4,0C223.1,27.9,224.1,28,224.5,27.9z"/>
			<path class="st1" d="M222.2,28c-0.2,0-0.4,0-0.5-0.1c-0.3,0.1,0.2,0.1-0.2,0.2C221.7,28.1,221.9,28.1,222.2,28
				C221.7,28,221.7,28,222.2,28z"/>
			<path class="st1" d="M219,28c-0.2-0.1-0.4,0-0.5-0.1c0.1,0.1-0.2,0.1,0.1,0.2C218.6,28,218.7,28,219,28z"/>
			<path class="st1" d="M181.5,27.2c-0.5-0.1-1.1,0-1.6,0c0.5,0,0.9,0.1,1.4,0.1C181.5,27.3,181.4,27.2,181.5,27.2z"/>
			<path class="st1" d="M170.9,27.5c-0.2-0.1-0.5,0-0.8,0C170,27.5,170.7,27.6,170.9,27.5z"/>
			<path class="st1" d="M159.9,27.3c0-0.1-0.9-0.1-1.3,0C159,27.3,159.4,27.3,159.9,27.3z"/>
			<path class="st1" d="M154.5,27.2c-0.5,0.1-1.5,0.1-1.7,0.1C153.4,27.4,154.3,27.3,154.5,27.2z"/>
			<path class="st1" d="M143.8,27.3c-0.4-0.1-0.8,0-1.2,0C142.6,27.4,143.5,27.4,143.8,27.3z"/>
			<path class="st1" d="M132.6,27c0,0-0.3,0.1-0.4,0.1c0.2,0,0.4,0,0.7,0C132.7,27,132.8,27,132.6,27z"/>
			<path class="st1" d="M96.1,19.7c-0.9-0.1-1.8,0.1-2.6,0.1C93.9,19.9,95.3,19.7,96.1,19.7z"/>
			<path class="st1" d="M93.3,19.8c-0.3-0.1-0.7-0.1-1.1,0C92.6,19.8,93,19.8,93.3,19.8z"/>
			<path class="st1" d="M112.2,27.3c-0.1,0-0.1,0.1,0.1,0.1c-0.7,0-0.9,0-1.7,0c0.7,0.1,1.4,0.1,2.2,0
				C112.3,27.4,112.4,27.3,112.2,27.3z"/>
			<path class="st1" d="M108.8,26.9c0,0.1-0.5,0.1-0.2,0.2C109.1,27.1,109.1,27,108.8,26.9z"/>
			<path class="st1" d="M109.6,27.3c0.1,0-0.2-0.1-0.3-0.1c-0.3,0-0.4,0.1-0.5,0.1C109.1,27.4,109.4,27.3,109.6,27.3z"/>
			<path class="st1" d="M83.7,27.6c-0.4,0-0.6,0.1-0.8,0.1c0.2,0,0.4,0,0.7,0C83.4,27.7,83.6,27.7,83.7,27.6z"/>
			<path class="st1" d="M82,27.9c-0.3,0-0.7,0.1-0.7,0.1C81.7,28,81.9,28,82,27.9z"/>
			<path class="st1" d="M80,27.8c-0.9-0.1-1.9,0-2.8,0c0.2,0.1-0.4,0.1-0.8,0.1C77.7,27.9,78.6,27.8,80,27.8z"/>
			<path class="st1" d="M76.8,27.8c-0.4-0.1-0.8,0-1.2,0.1C75.9,27.9,76.3,27.9,76.8,27.8z"/>
			<path class="st1" d="M75.1,27.9c-0.4,0-0.9-0.1-1.3,0C73.9,27.9,74.7,28,75.1,27.9z"/>
			<path class="st1" d="M73.9,27.7c-0.5,0-0.7-0.1-1.1-0.1c-0.3,0.1-0.5,0.1-0.3,0.2C72.7,27.7,73.5,27.8,73.9,27.7z"/>
			<path class="st1" d="M73,28.9c0.2-0.1-0.6-0.1-0.9,0c0.2,0.1,0.4,0,0.5,0.1C72.9,28.9,72.8,28.9,73,28.9z"/>
			<path class="st1" d="M68.1,28.1C68.2,28,68.2,28,68.1,28.1C68,28,68,28,67.9,28c-0.3,0.1-1.4,0-2.1,0.1c0.1,0,0.2,0,0.1,0.1
				c0.5-0.1,1,0,1.6-0.1c0.5,0.1-0.3,0.1-0.3,0.2c0.2,0.1,0.5-0.1,0.8-0.1C68.1,28.1,67.5,28,68.1,28.1z"/>
			<path class="st1" d="M71,28.9c-0.7,0-1.4,0-2.1,0.1C69.6,29,70.3,29,71,28.9z"/>
			<path class="st1" d="M65.2,28.1c-0.4,0-0.3-0.1-0.8-0.1c0.2,0.1,0.1,0.1-0.5,0.2C64.4,28.2,64.8,28.1,65.2,28.1z"/>
			<path class="st1" d="M64.4,28.3c-0.5-0.1-1,0-1.5,0.1C63.6,28.4,63.8,28.3,64.4,28.3z"/>
			<path class="st1" d="M59.6,28.2c-0.1,0,0.3,0.1,0.1,0.1c0.7,0,1.5-0.2,2.2-0.1C61.9,28,60.2,28.3,59.6,28.2z"/>
			<path class="st1" d="M62,28.4c-0.7-0.1-1.5,0.1-2.3,0.1C60.5,28.6,61.3,28.4,62,28.4z"/>
			<path class="st1" d="M60.2,28.7c0.1-0.1-0.8,0-1.1,0C59.5,28.8,59.9,28.6,60.2,28.7z"/>
			<path class="st1" d="M59.8,28.5c-0.6,0-1.2-0.1-1.9,0C58.6,28.5,59.2,28.6,59.8,28.5z"/>
			<path class="st1" d="M56.7,28.4c0.6,0.1-0.2,0.2-0.6,0.1C55.8,28.4,56.4,28.4,56.7,28.4c-0.3-0.1-0.6,0-0.9-0.1
				c-0.2,0.2-1.7,0.4-2.4,0.5c0,0.2,1.5-0.1,1.6-0.2c0,0.1,0.8,0,0.5,0.2c0.8-0.1,1.6-0.3,2.7-0.5C57.8,28.2,57.2,28.3,56.7,28.4z"
				/>
			<path class="st1" d="M53.7,28.6c0.1,0-0.2-0.1-0.3-0.1c-0.3,0-0.6,0.1-0.9,0.1c0,0,0.1,0.1-0.1,0.1c0.2,0,0.4,0,0.6,0
				C53.3,28.6,53.1,28.5,53.7,28.6z"/>
			<path class="st1" d="M52.4,28.4c-0.3,0-1.1,0.1-0.6,0.1C52.3,28.5,52.2,28.4,52.4,28.4z"/>
			<path class="st1" d="M51.7,28.6c0.2-0.1-0.5,0-0.6-0.1c-0.1,0.1,0,0.1-0.5,0.1C51,28.7,51.4,28.6,51.7,28.6z"/>
			<path class="st1" d="M366.5,23.6c0.2,0.1-0.4,0.1,0.1,0.1c0.2,0,0.4,0,0.6-0.1c-0.9,0,0.5-0.4-0.5-0.1c-0.9,0-1.9,0-2.8-0.1
				c-0.4,0.1-0.6,0.1-0.8,0c-0.1,0,0.1,0.1,0,0.1c-0.4,0-0.1-0.1-0.5-0.1c-0.1,0.1-0.3,0.1-0.9,0.2c0.4,0,0.8-0.1,1.2-0.1
				c0.3,0.1,0.6,0,1,0c0.7,0.2,1.8,0.1,2.1,0.2c0.5-0.1-0.5-0.2-0.7-0.2C365.6,23.5,366,23.7,366.5,23.6z"/>
			<path class="st1" d="M357.2,22.7c-0.6-0.1-1.2,0-1.7,0c0.4,0,0.1,0.1,0.4,0.1C356.1,22.6,356.7,22.8,357.2,22.7z"/>
			<path class="st1" d="M354.5,22.6c-0.3,0-0.4,0-0.1,0.1c-0.2,0-0.3,0-0.4,0c-0.4,0-0.3,0.1-0.6,0.1c-0.6,0-1.3-0.1-2,0
				c-0.7-0.2-1.6,0-2.4-0.1c0.1-0.2,1.2-0.1,1.4-0.2c-1.2,0.1-1.9-0.1-3.3,0.1c-0.3-0.1-0.5-0.2-1.1-0.1c-0.3-0.1-0.1-0.2,0.4-0.2
				c-0.2-0.1-0.4,0-0.5,0c0.2,0.1-0.5,0.1-0.1,0.2c-0.7-0.1-1.5,0-2.3,0c1-0.1,1.7-0.2,1.9-0.2c-0.3-0.2-1.6,0-2.3,0.1
				c0-0.1-0.8-0.1-1.2-0.1c-0.1,0,0.1,0.1,0,0.1c-0.1,0-0.2,0-0.3,0c0,0,0.2-0.1-0.1-0.1c-0.9,0-1.8,0.1-2.7,0.1c-0.1,0,0,0-0.1-0.1
				c1,0,1.3-0.1,2.2-0.1c-0.7-0.1-1.5,0-2.3-0.1c-0.3,0.1,0.3,0,0.4,0.1c-0.2,0.1-0.4,0-0.6,0.1c-0.5-0.1-0.1-0.2-0.6-0.2
				c-0.2,0-0.1,0.1-0.4,0.1c0.1,0,0.2,0,0.3,0c0.2,0.1,0.1,0.2,0.4,0.1c0.6,0.1-0.2,0.2-0.6,0.1c0.6-0.1-0.6-0.1-0.2-0.2
				c-0.3,0-0.6,0.1-0.9,0.1c-0.3-0.1,0.5-0.1,0.8-0.1c0.3-0.1-0.2-0.1,0-0.2c-0.4-0.1-0.8,0-1.2,0c0-0.1,0.4-0.1,0.7-0.2
				c-0.4-0.1-0.8,0-1.2-0.1c-0.2,0.1,0.5,0,0.6,0.1c-0.3,0-0.7,0-1,0c0.5,0.1,0.2,0.1,0,0.2c-0.1,0-0.2,0-0.3,0
				c-0.5,0,0.3-0.1-0.2-0.1c-0.5,0.1-3,0-2.8-0.2c-0.3,0.1-0.7,0-0.7,0.1c-0.6-0.1-0.2-0.1-0.5-0.2c0.5,0,1.1-0.1,1.6,0
				c-0.3-0.1-1.6-0.1-2.3-0.1c-0.2,0,0.2-0.1-0.2-0.1c-0.5,0.1-1,0.1-1.6,0c-0.1,0.1-0.5,0.1-0.3,0.2c-0.3-0.1-0.7,0-1.3-0.1
				c0.3,0.2-0.9,0.1-0.9,0.2c-0.8-0.1,0.5-0.1-0.1-0.2c-0.3,0.1-0.7,0.1-1,0.1c0-0.1,0.1-0.1,0.1-0.1c1.1,0,2.2,0,3.1-0.1
				c-0.2-0.1-0.5,0-0.7-0.1c-1.5,0.2-2.8-0.2-4.3,0c-1.3-0.2-3.9,0-4.5-0.3c-0.4,0-0.9,0-1.3-0.1c-0.3,0.2-1,0-1.5,0.1
				c0,0,0.2-0.1-0.1-0.1c-0.1,0.1-0.8,0.1-0.8,0c-1.2,0.1-2.4-0.1-3.6,0c0.3,0.1-0.3,0.1-0.5,0.1c-0.2-0.1,0.5-0.1,0.4-0.1
				c-1-0.1-2,0-3.1,0c0.1-0.2-1.2-0.2-1.4-0.1c-0.2-0.1-0.4,0-0.6-0.1c-0.6,0.2-2.8-0.1-4,0.1c-0.9-0.2-2.8,0.1-3.5-0.1
				c0.3,0,0.7,0,1,0c-0.2-0.1-1.3,0-2.2,0c-0.3,0-1.5-0.2-1.6,0c-0.2,0-0.4-0.1-0.6-0.1c-0.8,0.1-1.5,0-2.3,0.1
				c-0.9-0.1-2.8-0.1-4.2-0.1c-36.5-0.8-73.3-0.7-110-0.6c-0.3-0.1,0-0.1,0.1-0.1c2.7,0.2,5.5-0.1,8.3,0c0.2-0.1,0.4-0.1,0.8-0.1
				c0.1,0-0.2,0-0.3,0.1c0.4,0.1,0.9-0.1,1.3,0c0.3-0.1,0-0.1,0.3-0.2c1.1,0.2,3,0.2,4.6,0c1.2,0,2.4,0.1,3.7,0c0.1,0,0.2,0,0.1,0.1
				c1.9-0.1,4.6,0,5.9-0.1c0.3,0.1,0,0.1,0.4,0.1c0.1,0-0.1-0.1-0.2-0.1c2.4,0.1,4.4-0.1,7,0.1c0.2-0.1,1.5,0,2.1,0
				c1,0,1.7-0.1,2.2,0c0.9-0.1,1.8-0.1,2.6,0c0.5,0-0.2-0.1,0.2-0.1c0.1,0,0.7,0.1,0.4,0.1c0.6-0.1,1.2,0,1.8-0.1
				c0.2,0,0.1,0.1,0,0.1c0.8-0.1,1.5,0,2.3-0.1c0.1,0.2,0.1,0,0.6,0.1c0-0.1,0.3-0.1,0.6-0.1c0,0,0.1,0.1,0.3,0.1
				c0.5-0.2,1.6,0.1,2.6-0.1c0.2,0,0.2,0.1,0.1,0.1c1.3,0,4.3,0,4.6-0.1c0.7,0,1.3,0.1,2,0c0.6,0.1,1.7,0.2,1.9,0.1
				c4.1,0.1,7.8,0,12.1,0.1c0.2,0,0.1-0.1,0.2-0.1c0.3,0.1,0.4,0,1,0.1c2.3-0.1,5.4,0.1,8.1-0.1c0.2,0,0.1,0.1,0.3,0.1
				c1,0,2-0.1,3.1,0c0-0.1-0.2-0.2,0.7-0.3c0.3,0.1,0,0.1,0.6,0.2c0.1,0.1-0.6,0.1-0.8,0.1c-0.4,0.1,0.7,0.2,0.6,0
				c1.3,0.2,2.8-0.1,4.1,0.1c0.3-0.1,1.2-0.1,1.8,0c0.2,0,0.1-0.1,0-0.1c1.2,0.1,2.5,0,3.7,0.1c0.1,0,0-0.1,0.1-0.1
				c1.8,0.1,4.2,0,5.5,0.2c0.1,0,0,0-0.1-0.1c1.9,0.1,3.9,0,5.8,0.1c1.4-0.1,3.7,0,5.4,0.1c0.4,0-0.1-0.1,0.4-0.1c0.1,0,0.3,0,0.4,0
				c-0.5,0.2,1.3,0.1,1.9,0.2c0.2-0.1-0.5,0-0.6-0.1c-0.2-0.1,0.5-0.1,0.7-0.1c0.7,0.3,2.2,0.1,3.2,0.2c0.4,0-0.1-0.1,0.4-0.1
				c0.1,0,0.3,0,0.4,0c0.1,0-0.2,0.1-0.4,0.1c0.3,0.1,0.6,0.1,1,0c0,0-0.3-0.1,0-0.1c-0.2,0-0.4,0-0.6,0c0.4-0.1,0.7,0,1.1-0.1
				c0.3,0.1,0.7,0.1,1.1,0.1c0.1,0.1-0.7,0-1,0.1c0.7,0.1-0.3,0.1-0.6,0.1c1,0.2,1,0,1.9,0.1c0.2,0-0.3-0.1-0.2-0.1
				c0.1,0,0.2,0,0.3,0c0.2-0.1,0.1-0.1-0.2-0.1c0.6-0.1,1.1-0.1,1.7-0.2c0.3,0,0.5,0.1,0.4,0.1c0.5,0,1-0.2,1.4-0.1
				c0.2,0-0.4,0.1-0.5,0.1c0.3,0.1,0.7,0,0.6-0.1c0.3-0.1,0.6,0.1,1,0c0.1,0-0.3,0.1,0.2,0.1c0.5-0.2,2.2-0.2,2.2,0
				c0.5,0,0.9,0.1,1.4-0.1c0.6,0.2,1.5,0,1.7,0.1c0.6-0.2,2,0.2,2.9,0c0.9,0.1,1.8,0,2.7,0.1c0.3,0.1-0.6,0,0,0.1
				c1.5-0.2,2.9,0.1,4.4,0c-0.2,0-0.4,0-0.5-0.1c-0.1,0,0.2-0.1,0-0.1c0.6,0,1.3,0.1,1.9,0.1c0.1-0.1-0.2,0-0.3-0.1
				c-0.2-0.1,0.5,0,0.7-0.1c0,0.1,0.1,0.1,0.4,0.1c0.6-0.2,1.7,0.1,2.6-0.1c0.4,0.1,0.4,0.1,0,0.2c0.3,0.1,0.6,0,0.9,0.1
				c0.1,0-0.2-0.1-0.3-0.1c0.3-0.1,0.6-0.1,0.9-0.1c0.2,0,0,0.1-0.2,0.1c0.8-0.1,1.5,0,2.3,0c0.1,0-0.3,0.1,0.2,0.1
				c0.5-0.2,2.8,0,3.5-0.1c0.2,0.1,1.1,0.1,0.4,0.2c0.5,0,0.5,0,0.6-0.1c0.5,0,0.5,0.2,1.2,0.1c-0.2-0.1-0.4,0-0.6,0
				c0.1,0,0.2,0,0.1-0.1c1.1,0,2.1,0.1,3.3,0c-0.1,0.1,0,0.1,0.4,0.2c0.3-0.1-0.1-0.1-0.3-0.2c0.6-0.2,1.1,0.1,1.7,0
				c0.6,0.1-0.3,0.2,0.1,0.2c0.4-0.1,0.2-0.2,0.4-0.2c0.4-0.1,0.4,0.1,0.6,0c0.1,0-0.2,0.1-0.4,0.1c0.4,0,1,0,0.8-0.1
				c0.7,0.1,0.7,0,1.3,0.2c0.7-0.1,0.8,0,1.5,0c0.1-0.1-0.3-0.1,0.3-0.2c-0.2,0-0.3-0.1-0.5-0.1c-0.4,0-0.2,0.1-0.7,0
				c-0.2,0-0.1,0.1,0,0.1c-0.7,0-2.8,0-2.3-0.2c-0.2-0.1-0.5,0.1-0.7,0.1c-0.4-0.1,0-0.2,0.4-0.2c-0.2,0-1.3,0-0.9,0.1
				c-0.5,0-0.9-0.1-1.4,0.1c-0.2-0.1,0.5-0.1,0.4-0.1c-0.4-0.1-1.5,0.1-1.2-0.1c-0.3-0.1-0.4,0.1-0.2,0.1c-0.4,0-0.8,0-1.2-0.1
				c-0.1,0,0,0.1-0.1,0.1c-0.3,0-0.5,0-0.8,0c0,0,0-0.1,0.1-0.1c-1,0.1-1.9,0.1-2.8,0c-0.2-0.1,0.3,0,0.5-0.1c-0.3-0.1-0.7,0-1-0.1
				c0.4,0,0.9,0,1.3,0.1c0.4-0.2,1.5,0,2.2-0.1c-1.4-0.1-2.7,0-3.9-0.1c-0.3,0.1,0.3,0,0.4,0.1c-0.7,0.1-0.7-0.2-1.4-0.1
				c0.2,0,0.4,0,0.6,0c-0.3,0.1-0.6,0-0.9,0.1c-0.3,0,0-0.1,0.1-0.1c-0.2,0-0.4,0-0.5,0c-0.2,0.1-2.1,0-2.9,0
				c-0.2-0.1,0.5,0.1,0.7,0c-1.5,0-3,0-4.4-0.1c-0.1,0,0.2-0.1,0.4-0.1c-0.4-0.1-0.8,0-0.8,0.1c-0.7,0,0-0.1-0.6-0.2
				c-0.6,0,0.4,0.1,0.1,0.1c-0.9,0-1.8,0.1-2.7,0c-0.4,0.1-0.8,0.1-1.3,0.1c-0.4,0-0.1-0.1-0.4-0.1c-0.7,0.1-1.4,0.1-2.1,0
				c-0.1-0.1,0.6,0,0.8-0.1c-0.4-0.1-1.3,0-1.9,0c-0.4-0.1,0.1-0.1-0.3-0.2c0.3-0.1,0.8,0,0.8-0.1c-1.4,0-2.3,0-3.5,0.1
				c-0.6-0.1,0.4-0.1-0.1-0.2c-1.2,0-2.3,0-3.5-0.1c-0.6,0.1-1,0-1.3,0c-0.2,0,0.1,0.1-0.2,0.1c-0.8-0.1-2.8,0.1-2.9-0.1
				c-1.4,0-3.2-0.1-4.2,0c-0.7-0.1-1.4,0-2-0.2c-0.5,0.1-0.9,0-1.4,0.1c-0.4,0-0.1-0.1-0.4-0.1c-2.5,0-5.1,0-7.6-0.2
				c-0.1,0.1-0.4,0.1,0.1,0.1c-2.1-0.1-4.2-0.2-6.3-0.1c-0.5,0-1-0.1-1.5-0.1c-0.1,0,0.1,0.1,0,0.1c-0.6,0-1.5-0.1-2.4,0
				c-0.2,0-0.4-0.1-0.6-0.1c-2.2,0.1-4.4,0-6.6-0.1c-0.1,0,0,0-0.1,0.1c-3.8-0.1-7.7-0.1-11.5-0.2c-0.6,0.1-3.2,0-4.9,0
				c-0.9,0-1.6,0.1-2.3,0c-0.2,0-0.3,0.1-0.5,0.1c-0.4-0.2-1.4,0-2.2-0.1c-1.8,0.1-4.5-0.1-6.7,0c-0.1,0-0.3-0.1-0.4-0.1
				c-2.8,0.1-5.6-0.1-8.4,0.1c-1.2-0.1-2.5,0.1-3.7-0.1c-0.8,0.1-1.4,0-2.2,0.1c-2-0.1-4.1-0.1-6.1,0c-4.5-0.1-9,0.1-13.5,0
				c-0.2,0-0.3,0.1-0.5,0.1c-0.2,0-0.2,0-0.1-0.1c-2.4,0.1-4.1,0-6.6,0.1c-0.1,0-0.3-0.1-0.4-0.1c-0.5,0-0.2,0.2-0.9,0.1
				c-0.1,0,0.2,0,0.3-0.1c-0.3,0-0.8,0-0.8,0.1c-17.7,0-34.9,0.3-52.5,0.5c-0.1,0-0.2,0-0.3,0.1c-2.4-0.1-4.8,0.1-7.2,0
				c-0.4,0-0.8,0.2-0.9,0c-0.3,0.1-1.3,0.1-2,0c-0.1,0-0.3,0.1-0.5,0.1c-0.8,0-1.7,0-2.5,0c-4-0.1-8.1,0.2-12.1-0.1
				c-0.2,0-0.3,0.1-0.5,0.1c-0.7-0.1-1.8-0.1-2.2,0c-0.2,0-0.1-0.1-0.3-0.1c-0.3,0.2-0.7,0.1-1,0c-1.1,0.1-2.3,0.1-3.7,0.1
				c-0.2,0-0.2-0.1-0.1-0.1c-0.3,0-0.4,0.1-1,0.1c-0.1,0,0,0,0.1,0.1c-0.3,0-0.6,0-1,0.1c-0.2,0-0.1-0.1,0-0.1
				c-0.4,0.1-1.1,0.1-1.8,0.1c-0.3-0.1,0.4-0.1,0.7-0.1c-1.3,0.1-2.7,0.1-4,0.2c-0.2,0-0.3-0.1-0.5-0.1c0.1-0.1-0.3,0.1,0.2,0.1
				c-0.6,0.1-1.2,0.1-2,0.2c-0.1-0.1-0.9-0.1-0.4-0.1c-0.4,0-0.4,0.1-1.1,0c-0.5,0.1,0.3,0.1,0.4,0.1c-0.8,0.1-1.5,0-2.3,0.1
				c-0.1,0,0.1-0.1,0.2-0.1c-0.2,0-0.4,0-0.6,0c0.2,0.1-0.4,0-0.8,0.1c-1.9-0.2-4,0.3-5.7,0c-0.4,0.2-1.5,0.2-2.2,0.2
				c0-0.1,0.9,0,1.3-0.1c-0.2,0-0.4,0-0.5-0.1c0.6-0.1,1.3-0.2,1.9-0.2c-0.1,0.2,1.6,0,2,0c-1.2-0.1-3.3,0-4.5,0.1
				c-0.1,0,0.2-0.1,0.4-0.1c-0.7,0-2.1,0-2.1,0.2c-0.4,0-0.3-0.1-0.5-0.1c-1.3,0.1-2,0.1-3.4,0.3c-1.7,0-3.3,0-5.1,0.2
				c-1,0-2.6,0.1-3.2,0.2c-2.1-0.1-5.8,0.4-8.5,0.1c0.7,0.3-1.6,0.1-1.5,0.4c-0.6,0-1.2,0.2-1.8,0.1c-2.3,0.2-4.6,0.2-6.9,0
				c-0.3,0.1-0.6,0.1-0.5,0.2c-0.4,0-0.7,0-1.1-0.1c-0.4,0.1-0.7,0-1,0.1c-0.2,0.1-0.5,0.1-0.7,0.2c0.2,0.1,0.4,0,0.7,0
				c-1.5,0.1-3.8,0.1-5.5-0.1c-0.2,0.2-0.9,0.2-1.6,0.2c-1.4,0.3-3.2,0.5-4.9,0.6c-0.2,0-0.4-0.1-0.6-0.1c0.2,0.1-1,0.1-1.5,0.2
				c0,0-0.1-0.1,0-0.1c-1.6,0.1-3,0.1-4.3,0.3c-1.7,0-3.9,0.1-5.2,0.4c-1.1,0-3.2,0.2-4.1,0.3c-1.5,0.2-2.9,0.3-4,0.5
				c0.4,0,0.4,0.1,0.6,0.1c-0.3,0.1-0.6,0-0.9,0.1c0.5,0,0.8,0,1.1,0.1c0.5-0.1,1.5,0.1,1.7-0.1c0.3,0,0.5,0.1,0.7,0.1
				c0.7,0,1.4,0,2.1,0c-0.6,0.1-0.9,0.1-1.8,0.3c2.6-0.1,6.1-0.1,9.1-0.4c0.3,0,0.6,0,0.9,0.1c0,0,0-0.1-0.1-0.1c0.3,0,0.7,0,1-0.1
				c0.5,0.2,1.7-0.1,2.3-0.3c0.3,0.1-0.2,0.1-0.5,0.2c0.3,0,0.8,0,0.7,0.1c-0.5,0.1-0.6,0-1,0.1c0.2,0.1,0.5-0.1,0.8,0
				c0.4,0,0.2-0.1,0.5-0.1c0.1,0,0.3,0,0.4,0c0,0.1-0.5,0.1-0.5,0.2c-0.1,0-0.2,0-0.3,0c0.3-0.1-0.7,0-1.1,0c-0.2,0-0.1-0.1-0.3-0.1
				c-1,0.1-1.2,0.3-2,0.3c-0.1-0.1,0.8-0.1,1-0.2c-0.4,0-1.2,0-1,0.1c-1-0.1-2.1,0.1-3.2,0.2c0.6,0.1,1.3-0.1,2-0.2
				c-0.4,0.2-1.7,0.3-2.4,0.1c-0.9,0.1-1.7,0.2-2.5,0.1c-2.6,0.3-5.2,0.2-7.8,0.4c0.6,0.1,1.2,0,1.7,0.2c0.6,0,1.2,0,1.8,0.1
				c0.2,0,0.1-0.1,0.2-0.1c0.4,0.1,0.9,0,1.4,0.1c0.2,0.1-0.1,0.1-0.4,0.1c0.6,0.1,1.2,0,1.7,0c0.4,0.1-0.2,0.1,0.1,0.1
				c0.8,0.1,1.3-0.1,2.3-0.1c0.3,0.1-0.9,0.2-1.3,0.3c0.2,0,0.4,0,0.5,0.1c0.1,0,0,0-0.1-0.1c0.4-0.1,0.7,0,0.9-0.1
				c0.2,0,0.1,0.1,0.3,0.1c0.7-0.1,1.5,0,2.2,0c0.3-0.1,0.3-0.1,0-0.2c0.2-0.1,0.5-0.1,0.7-0.1c0.2,0.1,0.3,0.2,0.4,0.3
				c-0.9,0-2.2,0.2-2.5,0.4c-1.4,0-2.7,0.1-4,0c0.3,0.2-0.7,0.1-1.2,0.1c-0.1-0.1,0.6,0,0.8-0.1c-0.6-0.1-1.2,0.1-1.8,0.1
				c-0.4-0.1,0.3-0.1-0.3-0.1c-0.2,0.1-1.6,0.1-2.4,0.1c-0.7,0.1-1.4,0.1-2.3,0.1c-0.1,0.1,0.8,0,1.1,0.1c-0.8,0.1-2.6,0.2-3.9,0.1
				c-0.9,0.2-4,0-4.3,0.4c-0.8-0.1-1.1,0.1-1.8,0.1c0-0.1,0.4,0,0.4-0.1c-1.8,0.1-3.5,0.4-3.6,0.6c0.4,0.1,1.1,0.1,0.9,0.2
				c0.9,0.1,2.4,0.1,2.6,0.3c0.4-0.1,1.2-0.1,1.4-0.2c-0.1,0-0.3,0-0.4,0c-0.2-0.1,0.1-0.1,0.4-0.1c0.3,0.1,0.6,0.1,0.8,0.1
				c0.3,0.1,0.2,0.1-0.1,0.1c0.3,0,0.5,0,0.6-0.1c0.7,0.2,2.2,0,3.3-0.1c1.2,0.2,2.5-0.1,3.8-0.2c0.1,0,0.1,0,0.2,0
				c-0.5,0.2-1.7,0.2-2.4,0.4c0.2,0.1,0.4,0,0.6,0.1c1.9-0.2,3-0.1,4.9-0.3c0.1,0,0,0,0.1,0.1c-0.7,0-1.7,0.1-2,0.2
				c0.3,0.1,0.6,0,0.9,0.1c-0.1-0.1,0.2-0.1,0.6-0.1c-0.1-0.1-0.1-0.1,0-0.2c0.6,0.1,2.1,0,1.8-0.2c0.3-0.1,0.1,0.1,0.5,0.1
				c0.1,0-0.4,0-0.2,0.1c0.4,0,0.8-0.1,0.7-0.2c0.3,0,0.2,0.1,0.5,0.2c0.6-0.1,0.2-0.1,0.6-0.2c0.3,0,0.4,0.1,0.2,0.1
				c0.5,0,0.4-0.1,0.5-0.1c0.1,0,0.6,0.1,0.6,0.1c-0.3,0.1-0.5,0.1-0.8,0.1c0.6,0.1,0.9-0.1,0.9-0.2c0.8,0,1.5,0,2-0.2
				c0.6,0.1-0.1,0.1,0.2,0.2c-0.4,0-0.9,0-1.3,0.1c0.4,0.1,0.4,0.2-0.1,0.3c0.3,0,0.5,0,0.6-0.1c0,0.1,0.5,0,0.6,0.1
				c0.6-0.1,1.2-0.1,2-0.1c0.1,0.1-0.6,0.1-0.8,0c-0.1,0-0.1,0,0,0c-0.1,0-0.2,0-0.2,0c0.4,0.1,0.9,0,1.3,0c0.2,0.1-0.1,0.2,0.2,0.3
				c0.2-0.1,0.3,0,0.7-0.1c0.4,0.1,0.3,0.1,0.5,0.2c0.3,0,0.2-0.1,0.4-0.1c0.3,0,0,0.1,0.4,0.1c0.7,0,1.3,0,2,0
				c0.3,0.1-0.3,0.1-0.6,0.1c0.3,0.1,0.7-0.1,1,0c0,0,0.3-0.1,0.1-0.1c1.6,0.1,3.2-0.1,4.8,0c0.1,0-0.1-0.1-0.2-0.1
				c0.3-0.1,0.5-0.1,0.8-0.1c0.4,0.3,2.1-0.1,3.1,0c-0.3,0.3-1.5,0.2-2.4,0.3c0.5,0.1,1-0.1,1.2,0.1c0.2,0,0.5-0.1,0.7-0.1
				c0.3,0,0.2,0.1,0.3,0.1c-0.3,0-0.6,0.1-0.9,0c0.1,0.1-0.3,0.1-0.4,0.1c0.5,0.2,1.1-0.2,1.5,0c0.5-0.1,1-0.2,1.5-0.3
				c0.4,0.1,0.2,0.1,0,0.2c0.3,0.1,0.7,0,1.1,0.1c-0.1-0.1,0-0.1,0.5-0.2c-0.2,0-0.4,0-0.6,0c0.4,0,0.7,0,1.1,0
				c0.3-0.1,0.7-0.1,1-0.2c0.2,0.1-0.2,0.1,0.5,0.1c0.5,0.1-0.3,0.1,0.2,0.2c0.2-0.2,0.8-0.1,1.5-0.3c0.6,0,1.3,0,1.9,0.1
				c0.5-0.2,1.2-0.2,1.9-0.3c0.5,0.1-0.4,0.1-0.3,0.2c1,0,2-0.3,2.5-0.4c-1-0.1-1.4,0.2-2,0.3c-0.2,0-0.2-0.1-0.1-0.1
				c-0.3,0-0.7,0.1-0.5,0.1c-0.9-0.2-2.7,0.3-3.9,0.1c0.8-0.2,2.5-0.3,3.5-0.2c0.7-0.3,2.3-0.3,3.7-0.3c-0.4,0.1-0.6,0.2-0.7,0.4
				c0.3-0.1,0.6,0,0.9-0.1c0.9,0.2,1.4-0.1,2.3,0.1c1-0.1,0.7-0.1,1.7-0.1c-0.3,0,0.1-0.1-0.1-0.1c0.3,0,0.6,0,0.9-0.1
				c0.5,0.1-0.1,0.1-0.5,0.1c0.1,0.1,1.4,0,1.3-0.1c0.4,0,0.9-0.1,1.3,0.1c0.6,0,1.3-0.2,1.9-0.1c0.4,0.1-0.3,0.2-0.6,0.4
				c0.8,0,1.1-0.2,2.2-0.1c0.4,0.1,0.2,0.1,0.6,0.1c0.4-0.1-0.7,0-0.3-0.1c-0.3,0-0.6,0-1,0c-0.1-0.1,0-0.1-0.6-0.1
				c-0.1,0,0.1-0.1,0.2-0.1c0.3,0,0.6,0.1,0.8,0.1c0,0,0.3-0.1,0.1-0.1c0.4,0,0.7,0,1.1,0c0.2,0.1,0,0.1-0.2,0.1
				c-0.2,0-0.1,0-0.3-0.1c-0.1,0.1-0.2,0.1,0.1,0.2c1.5-0.3,3-0.3,4.5-0.5c0.2,0,0.3,0.1,0.2,0.1c0.1-0.1,1.3-0.2,2-0.2
				c0.1,0.1-1.1,0.2-1,0.2c-0.3-0.1-0.6,0-0.1,0c1.2-0.1,2.4-0.1,3.3-0.1c0.3,0.1-1.2,0.1-1.1,0.2c0.4,0,0.6,0,0.8-0.1
				c1.4,0.1,4-0.2,5.5-0.2c0.3,0.1-0.9,0.1-0.3,0.2c0.2-0.1,0.8-0.2,1.2-0.2c-0.3,0-0.6-0.1-1,0c-0.1,0,0,0-0.1-0.1
				c0.7-0.1,1.3,0.1,2-0.1c0.2,0,0.1,0.1,0.3,0.1c0.5-0.1,1,0,1.5-0.1c0.2,0,0.2,0.1,0.1,0.1c0.2,0,0.5-0.1,0.8,0
				c0.2,0,0.1-0.1,0-0.1c2,0,3.4,0,5.3-0.1c0.2,0,0,0.1-0.2,0.1c0.3,0,0.7,0,1,0c0.5-0.1-0.2-0.1,0.3-0.2c0.5,0.1,1,0.1,1.5,0
				c0.3,0,0,0.1,0.4,0.1c0.2,0-0.1-0.1,0.1-0.1c0.6,0.1,0.5,0,1.3,0c0.3,0,0,0.1,0.4,0.1c0.1,0,0.1-0.1-0.1-0.1
				c0.7-0.1,2.2,0.1,2.1,0.2c1-0.1-0.8-0.1-0.2-0.3c0.4,0,0.3,0.1,0.7,0.1c0.5-0.1,1.1,0,1.3-0.2c0.5,0,1,0,1.2,0.1
				c0.2,0,0.4-0.1,0.6-0.1c-0.4-0.1-0.2,0.1-0.5,0c0.3-0.2,1.9,0,2.9-0.1c-0.2,0.1-0.1,0.2-0.6,0.2c0.7,0.1,0.9-0.2,1.7-0.2
				c0.5,0.1,1,0,1.5,0c0.6,0.1,1.2,0.1,1.8,0c0.1,0.1-0.6,0-0.8,0.1c0.2,0.1-0.3,0.1-0.2,0.2c0.6-0.1,1.5-0.1,2-0.3
				c0.2,0,0.4,0,0.9,0.1c0.2,0.1-1.3,0-0.5,0.2c-0.3,0.1-0.6,0-1,0.1c0.3,0.1,1.2-0.1,1.2,0.1c0.4-0.1,0.7,0,1.3-0.1
				c-0.1,0.2,0.6,0,1.2,0.1c0.7-0.1,1.3-0.1,2-0.2c0-0.1-0.5-0.2-0.8-0.1c0.1-0.1,1-0.1,1.4-0.1c0.1,0.1-0.2,0.1-0.4,0.1
				c0.1,0.1,0.4,0.1,0.4,0.2c0.1-0.2,0.6,0,1.2-0.2c-0.2-0.1-0.5,0-0.7-0.1c0.4,0,0.7-0.1,1.1,0c0.1,0-0.2,0-0.3,0.1
				c0.2,0,0.5,0,0.3,0.1c0.4,0.1,0.2-0.1,0.5,0c-0.1-0.1-0.3-0.1,0.1-0.2c0.5,0,0,0.1,0.4,0.1c0.3,0,0.2-0.1,0.1-0.1
				c0.2,0,0.4,0,0.5,0c0.6,0.1-0.4,0.2,0,0.3c0.1-0.1,0.3-0.1,0.3-0.2c0.4-0.1,0.7,0.1,1.1,0c0.4,0.1,0.3,0.1,0.5,0.2
				c0.5-0.1,1,0,1.4,0c0.3-0.1,1.1-0.1,1.7-0.1c0.3,0-0.6,0.1,0,0.1c0.5-0.1,1-0.1,1.8-0.1c0.5,0-0.2-0.1,0.1-0.1
				c0.6,0,0.1,0.1,0.6,0.2c0.3,0,0.4,0,0.5-0.1c1,0.2,2.2-0.1,3.3,0c0.4-0.1,0.6-0.1,1.4-0.2c0.2,0,0.3,0.1,0.7,0.1
				c0.1,0.1-0.7,0.1-0.9,0.1c0.7,0.1,1.2,0,1.7-0.1c0.5,0,0.3,0.1,0.6,0.2c0.4,0,0.7,0,0.9-0.1c0.1,0,0.3,0.1,0.4,0.1
				c-0.2-0.1,1-0.2,1.4,0c0.4-0.2,0.7-0.1,1.2-0.1c0.5-0.1,0,0-0.2-0.1c0.3-0.1,0.5,0,0.8,0c0.4,0.1,0.1,0.1,0,0.2
				c0.5,0,0.9,0,1.4,0.2c-0.1,0-0.2,0-0.3,0c0.1,0.1,1.1,0,1.5,0.1c-1.1-0.1-0.9-0.2-2-0.3c1-0.2,1.2,0.1,1.9,0.1
				c0-0.1-0.8-0.2-0.7-0.3c0.3,0.1,1,0.1,1.3,0.2c0.3-0.1,0.3-0.2,0.6-0.3c-0.1,0.2,0.4,0.1,0.8,0.2c0.2,0.1-0.5,0.1,0,0.2
				c0.2-0.1,0.3-0.1,0.3-0.2c0.3,0,0.7,0.1,0.4,0c0.3,0,0.6,0.1,0.9,0.1c0,0.1-1,0-0.8,0.1c0.6-0.1,3.2-0.2,2.7,0c0.3,0,0.7-0.1,1,0
				c0.5-0.2,1.6,0,2.5-0.2c0.2,0.1,0.9,0.1,0.6,0.2c0.4,0,0.3-0.1,0.8-0.1c0.8,0,1.7,0.1,2.5,0c0.1,0.1,0.8,0.1,0.9,0
				c0.3,0.1,0.6,0,1,0.1c-0.1-0.1-0.3-0.1-0.4-0.2c0.4,0,0.9,0.1,1.1,0.1c0.6,0,0.3-0.1,1.1,0c0.1,0-0.1-0.1,0.1-0.1
				c-0.5,0-0.9,0-1.4-0.1c0.8,0,1.6,0,2.4,0c0.1,0,0,0,0.1,0.1c-0.4,0-1-0.1-1.1,0.1c0.6,0.1,1.1-0.1,1.8,0c0.2,0,0.3-0.1,0.4,0
				c0.1,0,0.1-0.1-0.1-0.1c0.5-0.1,0.9,0,1.4-0.1c0.4,0,0.1,0.1,0.4,0.1c0.4-0.1-0.2-0.1,0.4-0.1c0.4,0.1-0.3,0.1,0.3,0.1
				c0.3,0,0-0.1,0.1-0.1c1.7,0.3,3.7,0,5.1,0.2c0.2,0-0.3,0.1-0.2,0.1c0.6,0,1.3-0.1,1.8,0c0.1,0,0.1-0.1-0.1-0.1
				c0.2-0.1,0.4,0,0.7-0.1c0.3,0,0,0.1-0.1,0.1c0.3,0.1,0.7,0,1,0c0.1,0-0.1-0.1-0.2-0.1c0.2-0.1,0.4,0,0.7,0c0,0-0.2,0.1,0.1,0.1
				c0.2,0,0.3-0.1,0.5-0.1c0.3,0,0,0.1,0.4,0.1c1.1,0,2.1-0.1,3.2,0c-0.1,0-0.2,0-0.3-0.1c0.3,0,0.6-0.1,0.9,0c0.3,0,0,0.1-0.1,0.1
				c0.6,0.1,1.8,0,2.1-0.1c0.2,0.1,0.4,0.1,0.9,0.1c-0.5-0.1,0-0.1,0.3-0.1c-1,0-1.4-0.1-2.5,0c-0.1,0,0.1,0,0.2,0
				c-0.2,0.1-0.4-0.1-0.7,0c-0.3-0.1-0.3-0.1-0.8-0.2c1.3,0.1,3-0.1,3.9,0.1c0.1,0,0,0,0.1-0.1c0.4,0-0.1,0.1,0.3,0.1
				c0.7-0.2,1.3-0.1,2,0c0.2-0.1,0.7-0.1,1.1-0.1c-0.2,0.1-0.6,0.2-0.3,0.3c-0.3,0-0.9,0-0.9,0.1c0.4,0,0.4,0,0.6,0.1
				c0.2-0.1,0.5-0.1,0.6-0.1c0.4,0,0.7,0.1,1.1,0c0.4,0.2,1.4,0.1,2.2,0c0,0.1,0.4,0.1,1,0c0.1,0,0.1,0.1-0.1,0.1
				c0.7,0.1,1.5-0.1,2.2,0c0.2,0-0.3-0.1,0-0.1c0.2-0.1,0.4,0.1,0.7,0c0.2,0,0.2,0.1,0.1,0.1c0.3,0,0-0.1,0.6-0.1
				c0.3,0,0.4,0.1,0.2,0.1c0.6-0.1,1.5,0.1,1.8-0.1c0.3,0,0,0.1,0.4,0.1c0-0.1,0.6,0,0.5,0c0.8,0,1-0.2,1.9,0
				c0.2-0.1,1.1-0.1,1.5-0.1c0,0-0.2,0.1,0.1,0.1c0.4-0.1,0.9,0,1.4-0.1c0.2-0.1-0.5-0.1-0.7-0.1c-0.2,0,0.5-0.1,0.7-0.1
				c0.2-0.1-0.5,0-0.6,0c-0.1,0,0.2-0.1,0.4-0.1c0.2,0,0.6,0.1,1.1,0c0.3,0.1,0.5,0.1,0.3,0.2c0.4,0.1,0.8,0,1.2,0.1
				c0.1-0.1,0-0.1,0.5-0.1c-0.3,0.2-1.1,0.3-1.9,0.3c0.4,0,0.7,0.1,1.1,0.1c0.2,0,0.2-0.1,0.6-0.1c0.1,0,0-0.1,0.1-0.1
				c0.5-0.1,0.3,0.1,0.7,0.1c-0.1-0.2,1.9-0.2,2.1,0c0-0.1,0.5,0,0.8-0.1c-0.3-0.1-0.7,0-1.1-0.1c0-0.1,0.9,0,1.3,0
				c0,0,0.2-0.1,0.5-0.1c0.3,0,0.2,0.1,0,0.1c0.4,0,0.4-0.1,0.1-0.1c-0.3,0-0.5,0-0.8,0.1c-0.1,0-0.1-0.1-0.2-0.1
				c0.5-0.1,1,0.1,1.5,0c0.1,0.1-0.8,0.2-0.1,0.3c-0.1-0.1,0.2-0.1,0.6-0.1c0,0.1-0.4,0.1,0.4,0.1c0.1-0.1,0.1-0.1,0.6-0.1
				c0.2,0.2,0.8,0,1.3,0.1c-1.3,0-2.4,0.1-3.8,0c0.5,0.1-1,0.1-0.8,0.2c0.2,0,0.4,0,0.5,0.1c0.2-0.1,1.1,0,1.3,0.1
				c-0.3-0.1,0.5-0.1,0.2-0.2c0.3,0,0.6-0.1,0.9,0c0.2,0.1-0.9,0-0.1,0.1c-0.2,0.1-0.4-0.1-0.7,0c0.2,0,0.1,0.1,0.3,0.1
				c0.7-0.1,0.8,0,1,0.1c0-0.2,1.4,0,2.1-0.1c0.2-0.1,0-0.1-0.3-0.1c0.7-0.1,1.9,0,2.3-0.1c0.4,0.1-0.1,0.1,0.1,0.1
				c-0.6,0-1.2,0-1.7,0c-0.2,0.1-0.2,0.1,0,0.2c0.2,0,0.3,0,0.4,0c0.1,0,0.1-0.1,0-0.1c0.6,0.1,2.2,0,2.6-0.1
				c-0.3,0.2,0.8,0.1,1,0.3c0.2,0,0.4,0,0.5,0c0.2-0.1-0.5,0-0.6-0.1c-0.2-0.1,0.5-0.1,1-0.3c0.5,0.1-0.5,0.1-0.5,0.2
				c0.5,0.1,0.4,0,1-0.1c-0.2-0.1,0-0.1-0.1-0.1c0.3,0,0.5,0.1,0.8,0c-0.4-0.1-1,0.1-1.4-0.1c-0.6,0.1-1.1,0.2-1.7,0.1
				c-0.2-0.1,0.5,0,0.7,0c0.2-0.1-0.6-0.1-0.4,0c-0.1-0.4,3.1,0,4.8-0.2c-0.2,0-0.3-0.1-0.2-0.1c-0.2-0.1-0.5,0.1-0.8,0
				c0-0.1,0.8-0.1,1.1,0c-0.2-0.1,0.7-0.2,1.1-0.1c0.1,0-0.7,0.1-0.9,0c0.1,0.1-0.3,0.1-0.4,0.2c0.5,0.1,0.3,0.1,0.8,0.1
				c-0.8,0-1.2,0-2.2,0.1c0.4,0.1-0.1,0.1,0.6,0.2c0-0.1-0.4-0.1,0.3-0.2c0.7,0,1.4,0.1,2.2,0c-0.3,0-0.4-0.1-0.2-0.1
				c-0.3,0-0.6,0-1,0c0-0.1,0.5-0.1,0.7-0.1c0.2,0,0.1,0.1,0,0.1c0.6,0.1,0.2-0.1,0.9-0.1c0,0.1-0.2,0.1-0.2,0.2
				c0.8-0.2,2.2,0,3.1-0.1c0.1,0.1-0.1,0.1,0.3,0.2c0.4,0,0.8,0,1.2-0.1c-0.3,0-0.4-0.1-0.4-0.1c0.5,0,1,0,1.5-0.1
				c0.2,0.1-0.4,0.2-0.9,0.1c0.2,0.1-0.2,0.1,0.1,0.2c0.5-0.1,1-0.1,1.9-0.2c-0.2-0.1-0.5,0-0.8,0c0-0.1,0.6,0,1-0.1
				c0.2,0,0.1,0.1,0.3,0.1c0.3-0.2,1.3,0,1.9-0.1c0.3,0.2-0.9,0.1-0.9,0.2c0.1,0,0.2,0,0.3,0c0.5,0-0.3,0.1,0.2,0.1
				c0.4-0.1,1,0,0.8-0.1c0.4-0.1,0.7,0,1.1,0c0.1,0.1-0.1,0.1-0.5,0.1c0.1,0.1,1.4-0.1,1.5,0.1c0.2,0,0.5-0.1,0.7-0.1
				c-0.3,0-0.2-0.1-0.3-0.1c0.4,0,0.4,0,0.6,0.1c0.7-0.2,1.3,0,2.5,0.1c0.7-0.1,2,0.1,3.1,0c0-0.1-0.5,0-0.7-0.1
				c0.2-0.1,1.3-0.1,1.8-0.1c0.2,0.1-0.7,0-0.6,0.1c0.3,0.1,0.6,0.1,0.6,0.1c0.3,0,0.8-0.2,1.2-0.2c0.5,0,0.4,0.1,0.7,0.2
				c0.3,0,1.1-0.1,1,0c0.9-0.1,1.7-0.1,2.5,0c0.5,0.1-0.4,0.1,0.1,0.2c0.6-0.1-0.2-0.1,0.4-0.2c0.5-0.1,0.5,0.1,0.8,0.2
				c0.3,0,0.6,0,0.9,0c-0.1,0.1,0,0.1,0.4,0.2c0,0,0.2-0.1,0.3-0.1c0.3-0.1-0.3,0-0.4-0.1c0.3-0.1,0.6,0,0.9,0
				c0.2-0.1-0.4-0.1-0.5-0.1c0-0.1,0.1-0.1,0.1-0.1c0.4,0,0.4,0.1,0.7,0c0.5,0.1-0.1,0.1-0.1,0.1c0.4,0.1,0.4,0,0.6-0.1
				c0.5,0,1,0,1.5,0c0,0.1-0.3,0.1-0.4,0.2c0.5,0,0.9,0.2,1.5,0.1c0.4,0.1,0.5,0.2,1.5,0.2c-0.3,0-0.6-0.1-0.6-0.1
				c0.3-0.1,0.7,0,1,0c0.2,0-0.1-0.1,0.2-0.1c-0.4,0-1.2-0.1-1.3,0c-0.1-0.1-0.2-0.1,0.1-0.1c0.4,0,0.2,0.1,0.8,0
				c0.5,0-0.3,0.1,0.2,0.1c-0.1-0.1,0.5-0.1,1-0.1c0.3-0.1-0.1-0.1-0.4-0.1c0.2,0,0.4,0,0.6-0.1c0.1,0.1,0.7,0.1,0.5,0.2
				c0.2,0,1-0.1,0.8,0c0.3,0,0.6-0.2,1.1-0.1c0.1,0-0.2,0.1-0.4,0.1c0.5,0,1.5,0.1,1.7,0c0.2,0,0.9,0,0.4,0.1c1,0,2.2-0.1,2.6-0.4
				c0.3,0,0.5,0,0.8,0c0.4,0.1-0.4,0.1,0.2,0.2c-0.5,0.1-0.5,0-0.9,0c-0.5,0.1-0.6,0.1-0.3,0.2c0.1,0,0,0-0.1-0.1c0.3,0,0.7-0.1,1,0
				c0.2,0.1-0.3,0-0.5,0.1c0.3,0.1,0.6-0.1,0.9,0.1c0.2-0.2,1.4,0,2.2,0.1c0.4-0.1,0.7-0.2,0-0.2c0.2,0.1-0.3,0.1-0.7,0
				c-0.1,0,0.2,0,0.3,0c-0.2-0.1-1.3,0-1.8-0.1c1.8-0.1,4.4,0,6.5-0.1c0.1,0-0.1,0.1-0.2,0.1c0.3,0,0.6,0.1,0.9,0
				c0.1,0.1,0.4,0,0.8,0.1c0.3,0.1-0.7,0.1-0.1,0.1c0.4-0.1,0.6-0.1,1.4,0c0.3-0.1,0.8-0.2,1.3,0c0.4-0.1,0.7,0,1.1-0.1
				c1.1,0.3,3.2,0.1,5.2,0.3c0-0.1,0.5-0.2,0.7,0c0.5,0,0.3-0.1,0.4-0.1c0.1,0,0.3,0,0.4,0c-0.1,0.1,0.1,0.1-0.4,0.2
				c0.6,0.1,0.2-0.2,0.9,0c0.2-0.1,0.4-0.1,1-0.1c0.2,0.1-0.1,0.1-0.4,0.1c1.1-0.1,2.6,0,3.4-0.2c0.5,0,0.5,0,0.9,0.1
				c0.3,0.1-0.3,0.1,0.1,0.2c0.4-0.1,0.3-0.1,0.3-0.2c0.5,0,0.4,0,0.9-0.1c0.3,0.1-0.4,0.3-0.9,0.2c0.2,0,0.1,0.1,0,0
				c0.7,0.1,1.7,0.3,2.9,0c0.4,0.1-0.5,0.1,0,0.2c0.4-0.1,1.5,0,2.2,0c0.2,0,0.1-0.1,0.4-0.1c0,0-0.2,0.1,0.1,0.1
				c0.4,0,0.1,0,0.5-0.1c0.1,0-0.2,0.1,0,0.1c0.4,0.1,0.9,0,0.9-0.1c0.1,0,0.2,0,0.3,0c0.1,0-0.1,0.1-0.2,0.1c1,0,2.6,0.2,3.3,0
				c1,0.1,0.7,0,1.3,0.1c0.6-0.2,0.9-0.1,1.7-0.2c-0.2-0.1-0.5,0-0.7-0.1c0.3-0.1,0.6,0,1,0c0.1,0-0.1,0.1-0.2,0.1
				c0.7,0,1.4,0.1,2,0.1c0.1,0-0.1,0.1-0.2,0.1c0.3,0,0.6,0,1,0c0.4-0.2,2.5,0.1,3.6,0c-1.3,0-2.5-0.1-3.8-0.1c0.4-0.1,0.9,0,1.3,0
				c0.2-0.1-0.6,0-0.7-0.1c0.2,0,0.5-0.1,0.7-0.1c0.2,0,0.1,0.1,0.3,0.1c0.9,0,0.9-0.2,2-0.2c0.1,0.1-0.7,0.1-1,0.1
				c0,0.1,0.3,0.1,0.1,0.1c0.2,0,0.8-0.3,1.7-0.2c0.2,0,0,0.1-0.2,0.1c0.4,0.1,0.9-0.2,1.6-0.1c0.4,0.1-0.3,0.1,0.2,0.2
				c0.1,0,0.1,0,0,0c0-0.1,0.6,0,0.5-0.1c0.2,0,0.9,0.1,0.8-0.1c0.2,0,0.5,0,0.8,0c0,0.1-0.8,0.1-0.6,0.2c0.3,0,0.7-0.1,1-0.1
				c0.3,0,0,0.1,0.4,0.1c0.7,0,1.3,0,2,0c0.2,0.1-0.4,0-0.6,0.1c0.8,0.1,1.1-0.2,1.9,0c0.2,0,0.5-0.1,0.7-0.1c0.3-0.1-0.3,0-0.4-0.1
				c0.1,0,0.2,0,0.3-0.1c0.6,0.1,1.3,0,1.9,0.1c0,0.1-0.9,0.1-1.2,0c-0.3,0-0.6,0.1-0.9,0.1c0.4,0,1.2,0.2,1.7,0
				c0.4,0.1-0.1,0.1,0.3,0.2c0.4-0.1,1.7-0.1,2.8-0.1c0.2,0.1-0.3,0-0.5,0.1c0.5,0,0.2,0.1,0.6,0.1c0.6-0.1,1.2,0,1.8-0.1
				c0.8,0.1,0.8,0,2-0.2c-0.5,0-1,0.1-1.4,0c-0.2,0-0.1,0.1,0,0.1c-0.3,0-0.6,0-0.9,0c-0.2,0,0.4-0.1,0.4,0
				c-0.1-0.1-1.2-0.3-1.7-0.1c-0.3-0.1-1.5-0.1-2.3-0.1c-0.2-0.1-0.1-0.1-0.5,0c-1.1-0.1-2.2-0.2-3.3-0.1c0-0.1-1.2,0-0.8-0.2
				c-0.2,0-0.5,0-1,0.1c0.2,0,0.4,0,0.5,0.1c-0.2,0-0.4,0-0.7,0c-0.1,0-0.1-0.1,0.1-0.1c-0.3-0.1-0.6,0-0.8-0.1
				c-0.2,0-0.1,0.1-0.2,0.1c-0.2-0.1-0.5-0.1-0.8,0c-0.2,0-0.3-0.1-0.5-0.1c-0.3,0,0.6-0.1,0-0.1c-0.5,0.2-2.3,0.1-2.7,0
				c-0.4-0.1-0.1,0.1-0.5,0.1c-0.1,0-0.2,0-0.3,0c-0.4-0.1-0.1-0.1-0.5-0.2c-0.7,0.1-2.1,0-3.1-0.1c-0.3,0.1-0.5,0.1-0.8,0.1
				c0.5,0.1,0.4-0.1,1,0c-0.3,0.1-0.2,0,0.1,0.1c-0.7,0.1-1.3,0.1-1.5-0.1c0.3-0.1,0.6,0.1,0.9,0c-0.5,0-0.7-0.1-0.3-0.2
				c-0.7,0-1.4-0.1-2-0.1c0.2-0.1,0.1-0.1-0.4-0.1c0.4,0,0.7,0,1.1,0.1c0.2,0-0.3-0.1,0-0.1c-0.4,0-0.8,0-1.2,0
				c-0.3,0.1,0.1,0.1,0.4,0.2c-0.6,0-1.2,0-1.9,0c-0.1,0.1,0.1,0.1,0,0.2c-0.7,0,0-0.1-0.5-0.2c-0.1,0,0.2,0,0.3-0.1
				c-0.6-0.2-2.1-0.1-2.8-0.2c-0.9,0.1-1.7,0-2.6,0c-0.3-0.1,0.6-0.1,0.7-0.2c-0.6-0.1-0.8,0.1-1-0.1c-0.2,0.1-0.2,0.1-0.1,0.2
				c-0.8,0-1.5,0-2.3,0c-0.3,0.2-1,0.1-1.5,0.1c-0.1,0,0.1-0.1,0.2-0.1c0.2,0,0.4,0,0.5,0.1c0.2,0,0.2,0,0.1-0.1c0.1,0,0.2,0,0.2,0
				c-0.4-0.1-0.8,0.1-1.2-0.1c0.3-0.1,0.5,0,0.8,0c0.2-0.1-0.6-0.1-0.8-0.1c0.7-0.2-0.8,0-1.4-0.1c0,0.1-0.1,0.2-0.6,0.2
				c0.3-0.1-0.3-0.1-0.3-0.2c-0.1,0-0.2,0-0.3,0c0.2,0.1-0.6,0.1-0.7,0.2c-0.3,0-1.2-0.1-1.8,0c-0.4-0.1,0-0.1,0-0.2
				c-0.6-0.1-1.2-0.1-1.5-0.1c-0.2,0-0.3,0.1-0.5,0.1c0.1,0,0.3,0.1,0.4,0.1c0.4-0.1,0.8,0,1.2,0c-0.5,0.1-1-0.1-1.5,0
				c0.1-0.3-1.2-0.1-2-0.3c0.3,0,0.7,0,1,0c0.1-0.1-0.8-0.1-1.2-0.1c-0.1,0.1-0.1,0.1-0.3,0.2c-0.6,0-0.3-0.1-0.5-0.2
				c-0.2,0-0.3,0-0.4,0c0,0.1-0.6,0.1-1.1,0c0.3,0.1-0.2,0-0.7,0.2c-0.6-0.1,0.8-0.1,0.1-0.2c-0.2,0.2-0.6,0.1-0.9,0.2
				c-0.5-0.1,0.6-0.1,0.5-0.2c-0.5,0-0.6,0-1,0.1c-0.5-0.1,0.4,0,0.2-0.1c-0.9-0.2-1.2,0-2.2,0.1c-0.2-0.1-0.1-0.1-0.5-0.2
				c-0.5,0.1-0.9,0-1.4,0c-0.1-0.1,0.1-0.1,0-0.2c0.2,0,0.3,0,0.4,0c0.4,0,0,0.1,0,0.1c0.7,0,0.9-0.1,1.6,0c-0.5,0-0.9-0.1-1.4-0.1
				c-0.4-0.1,0.6,0,0.2-0.1c0.5,0,1,0,1.5,0.1c0.1,0-0.1-0.1,0-0.1c0.4,0,0.1,0.1,0.5,0.1c0.2,0,0.4,0,0.5,0c0.1-0.3,1,0.1,1.7-0.1
				c0.4,0.1-0.1,0.1,0.4,0.1c0.3-0.1-0.1-0.2,0.3-0.3c-0.3-0.1-0.6,0-0.9-0.1c-0.1,0,0.1,0.1,0.2,0.1c-0.4,0.1-0.7,0-1.1,0
				c-0.1-0.1,0.4,0,0.5-0.1c0.4,0,0.9,0,1.3,0c0.4,0.1-0.1,0.1,0.4,0.1c0.8-0.3,3.1-0.1,4.5-0.1c0.1,0.1-0.5,0.1-0.3,0.2
				c-1.3,0-2.6-0.1-3.9-0.1c-0.2,0.1,0.5,0.1,0.7,0c0.3,0.1,0.8,0.1,0.3,0.2c0.4,0,0.7,0,1.1,0c0.1,0.1-0.3,0.1,0.2,0.2
				c0.4-0.1,0.5-0.1,1-0.1c0.4,0.1-0.1,0.1,0.3,0.2c0.8,0,1.7,0,2.2-0.1c0,0,0.2,0.1,0.1,0.1c-0.3,0.1,0-0.1-0.4,0
				c0.6,0.1,1.3,0,1.9,0.1c0.3,0,0.5-0.1,0.8-0.1c0.2,0.1,0.2,0.1,0.6,0.2c0.5-0.1-0.3-0.1-0.4-0.2c0.4-0.1,0.8,0.2,1.2,0
				c0.5,0.1-0.5,0.2,0.2,0.3c0.1,0,0,0-0.1-0.1c0.9-0.1,1.7,0,2.5,0c0.5-0.1-0.2-0.2-0.6-0.2c0.4,0,0.9-0.2,1.2-0.1
				c0.2,0.1-0.5,0-0.4,0.1c0.2,0.1,0.4,0,0.6,0c0.3-0.1,0-0.1,0.6-0.1c0.2,0,0.2,0.1,0,0.1c0.6,0.1,0.6-0.2,1.1-0.1
				c0.2,0.1-0.6,0.1-0.2,0.2c0.4,0,0.3-0.1,0.6-0.1c0.1,0,0.3,0,0.4,0c0,0.1-0.6,0.1-0.5,0.2c0.6,0,0.4,0.1,0.9,0.2
				c1,0.1,2.1,0,2.8,0c-0.6,0.1,1.7,0.1,2.5,0.2c-0.1,0.1-1,0-1.4,0.1c0.9,0.1,1.7-0.1,2.3,0c0.1,0-0.1-0.1-0.2-0.1
				c0.3-0.1,0.6,0,0.9-0.1c0.8,0.2,1.9,0,2.3,0.2c1-0.1,1.6,0,2.4-0.1c-0.4,0-0.1,0-0.4-0.1c1.2-0.1,1.5,0.1,1.6,0.3
				c0.3-0.1,0.1-0.2,0.3-0.3c0.5,0,0.9,0,1.4,0.1c0.2,0.1-0.6,0-0.8,0.1c-0.1-0.1,1.6,0.1,1.9,0.1c0.3,0,0.2,0.1,0,0.1
				c0,0.1,0.4,0,0.7,0c0.1,0-0.1-0.1-0.2-0.1c0.9,0,2.2,0.3,3.4,0.2c0.2,0,0.3,0.1,0.5,0.1c0.2,0,0.4,0,0.7,0c0.9,0.2,1.9,0,2.8,0.2
				c1-0.1,2,0,2.9,0.1c-0.6,0.1-0.7,0.1-1.1,0.2c1.1,0,2.2-0.1,2.7,0c0-0.2,0.8-0.3,0.6-0.5c0.5,0,1.1,0.1,1.6,0.1
				c0-0.2-2-0.1-1.9-0.3c0.2,0,0.4,0.1,0.6,0.1c0.1-0.1,0.9,0,1.3-0.1c-0.1,0.1-0.2,0.1,0.4,0.2c0-0.1,0.3-0.1,0.8-0.2
				c0.3,0.1,0.9,0.2,1,0.1c0.4,0.1,0.2,0.1,0.6,0.1c0.2,0.1-0.1,0.1-0.4,0.1c0.5,0,0.9,0,1.4,0c0.4,0.1-0.4,0.1-0.1,0.2
				c0.2,0,0.4-0.2,0.8-0.1c0.1,0,0.4-0.1-0.1-0.1c0.6,0,0.5,0,0.8-0.1c0.2-0.1,0.4,0.1,0.6,0c0.5-0.1-0.3-0.1-0.4-0.1
				c0.3,0,0.6,0,0.9,0c0.2,0.1-0.5,0.1,0,0.2c0.2-0.1,0.8,0,0.5,0c0.7-0.2,1.8-0.1,2.7,0.1c0,0,0.3-0.1,0.4-0.1
				c-0.5,0-0.2,0-0.6-0.1c-0.3,0-0.1,0.1,0.1,0.1c-0.9,0-1.8-0.1-2.7-0.2c0.8-0.1,1.5,0.1,2.3,0c-0.4,0-0.8-0.1-1.2-0.1
				c0.4,0,0.9,0.1,1.3-0.1c0.2,0.1-0.2,0.1,0.2,0.2c0.2,0,0.4,0,0.6-0.1c0.3,0,0,0.1-0.1,0.1c0.2,0,0.4,0,0.6,0
				c0.1-0.1,0.8,0,0.9-0.2c0.6,0.1,0,0.1,0.4,0.2c0.5-0.1,1.4,0,1.5,0.1c0.7-0.1,0.7,0.1,1.3,0c0.2,0.1-0.3,0-0.5,0.1
				c0.6,0.1,1.2,0,1.8,0.1c0.3-0.1,0.3-0.1,0.4-0.2c0.4,0,1.1,0,1.1-0.1c0.5,0-0.3,0.1,0.2,0.1c0.3,0,0.7,0,1,0
				c0.4-0.1,0.2-0.1,0.6-0.1c0.3,0.1-0.5,0.1-0.5,0.2c-0.3,0.1-0.5-0.1-0.8,0c0.1,0.1,0.9,0.1,1.4,0c0.4,0,0.1,0.1,0.4,0.1
				c0.6-0.1,1.7-0.1,1.9,0c0.2,0,0.2,0,0.1-0.1c0.4,0,0.8,0,1.2,0.1c0.3-0.1,0.5,0,0.8-0.1c-0.5,0.1-0.9-0.2-1.4,0
				c-0.3-0.1,0.2-0.1-0.6-0.2c0.7-0.1,0.8,0,1,0c0.5-0.1-0.4-0.1-0.4-0.2c-0.2,0.1-0.5,0.1-0.7,0c-0.3,0.1-0.5,0-0.6,0.1
				c0.3,0.1,0.7,0,0.5,0.1c-0.3,0-0.5-0.1-0.8,0c-0.2-0.1,0.3-0.1-0.3-0.2c0.2,0.1-0.5,0-0.9,0c-0.1,0,0.1-0.1,0.4-0.1
				c-0.3,0-1-0.1-1.5-0.1c-0.4-0.2-1.1-0.1-1.4-0.2c-0.6,0-0.5,0.1-1.1,0.1c-0.1,0,0.2-0.1,0.4-0.1c-0.4-0.1-0.9-0.1-1.4-0.1
				c-0.2,0.1-0.1,0.1,0.2,0.1c-0.3,0.1-0.8,0-0.8,0.1c0,0-0.1-0.1-0.4-0.1c-0.2-0.1,0.1-0.1,0.4-0.1c-0.6-0.1-1.2,0-1.7-0.1
				c-0.2,0.2-0.8-0.1-1.3,0.1c0.1-0.1-0.4-0.1-0.5-0.2c0.4,0,0.8,0,1.2,0.1c0.4-0.2,1.4,0,2,0.1c0.1-0.1,0.1-0.1,0.6-0.2
				c-1.1,0.2-3-0.3-4.1,0c-0.7,0-1.4,0-2-0.1c-0.2,0.1-0.1,0.1,0.2,0.1c-0.2,0-0.5,0.1-0.7,0.1c-0.2,0-0.4,0-0.6,0
				c0.3-0.1,0.7,0,1-0.1c-0.3-0.1-0.6-0.1-1-0.1c-0.2,0-0.3,0.1-0.5,0.1c-0.2,0-0.4,0-0.5,0c-0.2-0.1,0.1-0.1,0.4-0.1
				c-0.8,0-0.5,0.2-1.3,0.1c-0.1,0-0.1,0.1,0.1,0.1c-0.2,0-0.4,0.1-0.7,0c0.5-0.2-1.2-0.2-1.8-0.3c0.6,0,2.2,0.1,2.2-0.1
				c0.7,0,1.3,0.1,1.9,0.1c0.1-0.1-0.8,0-1.1-0.1c0.5-0.1,0.5,0,0.9-0.1c0.2,0.2,0.6,0,0.8,0.2c0.6-0.1,0.3-0.2,0.2-0.2
				c0.4,0,0.4,0.1,0.6,0.1c0.3,0,0.5,0,0.8-0.1c0.4,0,0.1,0.1,0.4,0.1c0.5-0.1,0.3,0,0.8,0c0.5-0.1,1,0,1.5-0.1
				c0.4,0.1-0.1,0.1,0.1,0.1c-0.5,0-1.5-0.1-1.4,0.1c0.3,0,0.6-0.1,0.9-0.1c0,0,0,0.1,0.2,0.1c0.5-0.1,0.6-0.1,1,0
				c0.6-0.1,0-0.2,0.6-0.2c0.1,0,0.2,0,0.3,0c0.4,0.1,0,0.1,0,0.2c0.3,0.1,0.6,0,0.8,0.1c0.2,0,0.1-0.1,0-0.1c0.7,0,1.3,0.2,2,0
				c1.2,0.1,2.1,0,3,0.2c0.4-0.1,0.7,0,1.1,0c0.2-0.1,0-0.1,0.4-0.2c-0.5-0.1-0.5-0.1-0.8-0.2c-0.3,0.1-0.1,0.1-0.5,0.2
				c-0.5,0-0.9-0.1-1.4,0.1c-0.3-0.1,0.5-0.2,0.6-0.2c-0.2-0.1-1.1,0-1-0.1c-0.7,0-1.5,0.1-2.2-0.1c0.4-0.1,0.9,0,1.3-0.1
				c-0.3,0-0.6,0-0.8-0.1c-0.1,0.1-0.2,0.1-0.4,0c-0.9,0.1-1.6-0.1-2.5,0c-0.4,0,0.1-0.1,0.2-0.1c-0.3-0.1-0.6,0-0.9-0.1
				c0.2,0.1,0.2,0.2,0.7,0.2c0,0,0,0.1-0.1,0.1c-0.3,0-0.5,0-0.8,0c-0.1,0,0.3-0.1-0.2-0.1c-0.3,0-0.2,0.1-0.4,0.1
				c-0.1,0-0.3,0-0.4,0c-0.2-0.1,0.2,0,0.3-0.1c0.3-0.1,0.6,0.1,1,0c-3.3-0.1-6.7-0.1-10-0.3c-0.3,0.2-1.3,0.1-1.5-0.1
				c-0.2,0.1,0.1,0.2-0.2,0.3c-0.6,0-0.5-0.1-1.2-0.1c-0.1,0,0.1-0.1,0.2-0.1c-0.5,0-1.1,0.1-1.6,0c0.7-0.2-1.3-0.1-2.1-0.3
				c-0.4,0,0,0.1,0.2,0.1c-0.9,0-0.5,0-1.3-0.1c-0.1,0,0.3,0.1,0.1,0.1c-0.2,0-0.4,0-0.6,0c0,0-0.2,0.1-0.5,0.1
				c-0.5,0.1-0.3-0.1-0.9,0c-0.2,0,0-0.1,0.2-0.1c-1.3-0.1-1.1-0.1-2.7-0.1c-0.1,0-0.1-0.1,0.1-0.1c-1,0.1-2,0-3.1,0.1
				c0,0-0.1-0.1,0-0.1c-0.4,0-0.8,0.1-1.2,0.1c-0.3,0-0.3-0.1,0-0.1c-1.3,0-2.6-0.2-3.9,0c-0.4-0.1,0.1-0.1-0.3-0.2
				c0.2,0,0.4,0,0.7,0c-1,0-2.3,0.1-3.6,0c-0.2,0.1,0.8,0.1,0.2,0.2c-0.6-0.1-1-0.2-1.5-0.1c-0.4,0.1,0.5,0,0.7,0.1
				c-0.4,0.1-0.8,0-1.2,0.1c0-0.1,0.1-0.1,0.3-0.2c-1.1,0-1.9,0.2-3.2,0.1c-0.1,0,0.2-0.1,0-0.1c-0.2,0-0.4,0-0.5-0.1
				c-0.4,0.1-0.2,0.1-0.7,0.1c0,0-0.1-0.1-0.4-0.1c-0.6,0-1.1,0-1.6,0c-0.2-0.1,0.4-0.1,0.4,0c-0.4-0.1-1.3,0-1.7,0.1
				c-0.6-0.1,0-0.1,0.3-0.2c-0.8,0-1.6,0.2-2.3,0.1c-0.2,0,0.4-0.1,0.4,0c-0.1-0.1-0.5-0.1-1.1-0.1c0.2,0,0.7,0,0.2-0.1
				c0.2,0,0.4,0.1,0.7,0c-0.3-0.1-0.7,0-1.1-0.1c0.1,0.1-0.2,0.2-0.6,0.1c-0.1,0,0.2,0,0.3,0.1c-0.4,0-0.9,0-1.3,0.2
				c-0.5-0.1,0.3-0.1-0.2-0.2c-0.3,0.1-0.9,0.1-0.9,0.2c-0.9,0-2-0.1-2.6-0.1c0,0,0.1,0.1-0.4,0.1c-0.3-0.1,0.3-0.2-0.6-0.2
				c0.3-0.1,0.6,0,0.9,0c0-0.1-1,0-1.4,0c0,0,0.1,0.1-0.1,0.1c-0.3,0-0.6,0-0.8-0.1c-0.4,0-0.2,0.1-0.6,0.1c-0.3,0-0.6-0.2-1.2,0
				c-0.3,0,0-0.1-0.4-0.1c0.3-0.1,0.5,0,0.8,0c-1.6-0.2-4.2,0-6.2-0.1c0-0.1,0.2-0.1,0.5-0.2c-0.4,0-0.8,0-1.2,0
				c-0.3,0-0.2,0.1-0.1,0.1c-1,0-2.7-0.2-3.7,0c-0.3-0.1,0.4-0.1,0.4-0.1c-0.7,0-0.9,0-1.4,0c-0.1,0,0,0.1-0.1,0.1
				c-0.7,0-1.9-0.2-2.3,0c-0.2-0.1-0.1-0.1-0.5-0.2c-0.3,0-0.7,0.1-1,0c-0.5,0.2-1.9-0.1-2.7,0.1c0.1,0-0.4-0.1-0.2-0.1
				c-0.6,0-1.1,0.1-1.6,0c-0.2,0.1-0.5,0.1-0.7,0.1c0,0,0-0.1-0.2-0.1c-0.1,0.1-0.7,0.1-0.4,0c-0.4,0.1-0.9,0-1.5,0
				c0.1,0.1-0.2,0.1-0.6,0.1c-0.1,0,0.1-0.1,0.2-0.1c-0.5,0-1.1,0-1.6,0c0.4-0.1,0.6,0,0.8-0.1c-0.3,0-0.6-0.1-1,0
				c-0.1,0,0.2-0.1,0.4-0.1c0.4,0,0.8,0.1,1.2,0c-0.5,0-0.2-0.1-0.7-0.1c-0.1-0.1,0.3-0.1,0.7-0.1c0.2,0.1-0.1,0.1-0.1,0.1
				c0.4,0.1,0.6,0,0.8-0.1c0.4,0,0.7,0,1.1,0.1c-0.8,0-0.6,0.1-1.2,0.1c-0.2,0.1,0.7,0,0,0.1c-0.4,0.1,0.1-0.1-0.3-0.1
				c-0.6,0.1-0.1,0,0.2,0.1c-0.1,0-0.3,0-0.4,0c0.5,0.1,1.9,0,2.7,0c-0.2-0.1,0.4,0,0.5-0.1c-0.5,0-1,0-1.5,0.1
				c-0.2-0.3,1.6-0.2,2.1-0.3c0.8,0.1,0,0.2,0.5,0.3c0.1-0.1,0.7,0,1.1-0.1c-0.3,0-1.3,0-0.9-0.2c0.6,0.1,0.6-0.1,1.4,0
				c0.4,0.1-0.1,0.1,0.3,0.2c0.2,0,0.4-0.1,0.6-0.1c-0.2,0-0.3-0.1-0.2-0.1c1-0.1,2,0,3.1-0.1c-0.3-0.1-0.6,0-1-0.1
				c0.6-0.1,1.7-0.1,1.9,0.1c-0.3,0-0.6,0-0.9,0.1c-0.1,0.1,0.5,0,0.3,0.1c0.7,0,1.3-0.2,1.7,0c0.3-0.1,0.5,0,0.8,0
				c0,0,0.2-0.1,0.1-0.1c0.8,0.1,2.2-0.1,2.6,0.1c0.5,0,1,0,1.4,0c0,0-0.1,0.1-0.1,0.1c0.4,0,0.3-0.1,0.6-0.1
				c0.4,0.1,0.1,0.1-0.1,0.2c0.5,0,1.1,0,1.3,0.1c0.2-0.1-0.2-0.2,0.3-0.3c-0.7-0.1-0.3,0.2-1.1,0.1c-0.1-0.1,0.1-0.1,0.5-0.2
				c0.8,0,1.6,0.2,2.5,0.1c0.3,0.1-0.4,0.1-0.7,0.1c0.3,0.1,0.7,0,1.1,0c0,0,0-0.1-0.2-0.1c0.3,0,0.4,0.1,0.4,0
				c0.6,0.1,1.3-0.1,1.8,0.1c0.1-0.1,1-0.1,1.1,0c0.4-0.2,1.4-0.2,2.1-0.1c0.2,0,0.1-0.1,0.2-0.1c0.5,0.1,1.2,0,1.2,0.2
				c0.3,0,0.5-0.1,0.8-0.1c0.7,0.1-0.3,0.1,0.2,0.2c0.5-0.1,1-0.1,1.4,0c0.1-0.1,0.6-0.1,0.7-0.2c0.3,0.1-0.6,0.2-0.1,0.3
				c0.1-0.2,1.4-0.2,2.1-0.1c0.6,0,0.5-0.2,1.1-0.1c0,0.1-0.5,0.2,0.2,0.1c0.1,0.1-0.2,0.1-0.6,0.2c0.1,0,0.1,0,0.2,0
				c0.1,0,0.1,0,0.2,0c0.4-0.1,0.1-0.1,0.5-0.2c0.6-0.1,0.5,0.1,1,0.2c0.4-0.1,0.8,0,1.2,0c-0.4-0.1-0.8-0.1-1.3-0.1
				c0,0-0.2-0.1-0.5-0.2c0.5,0,0.4-0.1,1,0c0.5,0-0.2-0.1,0.2-0.1c0.4,0.1,1.5,0.1,2.3,0.1c0.1-0.1-0.6-0.1-0.9-0.1
				c-0.1-0.2,1-0.1,1.4-0.1c0.3,0.1-0.8,0-0.5,0.1c0.5,0.1,0.4-0.1,1,0c-0.7,0.2,1.7,0,2.3,0.2c0.3-0.1,1.1-0.1,1.7-0.2
				c-0.1,0.2,1.7,0,2,0c0.2,0,0.3,0.1,0.2,0.1c0.2-0.1,0.6,0,1.1-0.1c0.3,0.2,0.8,0,1.5,0c0.1,0.1-0.1,0.1,0.3,0.2
				c1.4-0.1,2.1,0,3.5-0.1c0.1,0.1-0.1,0.1,0.3,0.1c0.1-0.2,0.8-0.1,1.1,0.1c-0.2-0.1,0.5-0.2,1.1-0.2c0.2,0.1-0.7,0-0.6,0.1
				c0.2,0,0.4,0,0.5,0.1c0.2-0.1-0.1-0.1,0.4-0.1c0.1,0-0.3,0.1-0.1,0.1c0.7,0.1,0.9,0,0.9-0.1c0.5,0,0,0.1,0.5,0.1
				c0-0.1,0.4-0.1,0.9-0.2c0.2,0.1,0.3,0,0.7,0.1c0-0.1,0.6-0.1,0.9,0c0,0.1-0.2,0-0.1,0.1c0.2-0.1,1.9,0,1.7-0.2
				c0.4,0.1,0.8-0.1,1.2-0.1c0.3,0.1-0.4,0.1-0.7,0.2c0.4,0,0.8,0,1.2,0c0.2-0.3,1.7-0.1,2.1-0.2c-0.1,0.1-0.6,0.1-0.8,0.1
				c-0.2,0-0.1-0.1,0-0.1c-0.5-0.1-0.4,0.1-0.9,0.1c0.7,0,0.9,0,1.5,0.2c0.5,0,0-0.1,0.1-0.1c0.6,0.2,3.2,0,4.1,0.1
				c0.1,0,0.9-0.1,0.6-0.1c0.6-0.1,1.1,0.1,1.1-0.1c0.3,0.1-0.1,0.1,0,0.2c-0.2,0-0.4,0-0.5-0.1c-0.4,0.1,0.2,0.1-0.5,0.2
				c0.6,0,0.6-0.1,1.3-0.1c0,0,0.1,0.1,0.2,0.1c0.4-0.1-0.2-0.1-0.1-0.1c0.3,0,0.6,0,1-0.1c-1.6-0.1-3.3-0.1-5-0.2
				c-0.5,0,0.3-0.1-0.2-0.1c-0.4,0-0.3,0-0.6,0.1c-0.4-0.1,0.3-0.2,0.7-0.2c0.9,0,1.9,0.2,3.1,0.1c0.3,0,0.6,0.1,1,0.1
				c-0.3-0.1-0.2-0.1,0.4,0c0.4,0,0-0.1,0.2-0.1c0.8,0.2,1,0,1.7,0.1c0.3,0,0,0.1,0.4,0.1c0-0.1,0.3-0.2,0.8-0.1
				c0.3,0-0.6,0.1,0,0.1c0.2,0,0.3,0,0.4,0c0,0,0.1-0.1,0.4-0.1c0.9,0.1,1.4,0.1,2.1,0.2c0.2-0.2,0.7,0.1,1.2-0.1
				c0.2,0.1-0.4,0-0.6,0.1c0.4,0,0.8,0,1.2,0c0.2,0,0.5-0.1,0.7-0.1c-0.1-0.1,0-0.1,0.6-0.2c-0.8,0-1.2-0.1-1.8,0
				c-0.4-0.1,0.3-0.1-0.1-0.1c-0.5,0.1-0.5,0.1-0.4,0.2c-0.3,0-0.5,0-0.8,0.1c0-0.1-0.7-0.1-1.1-0.1c-0.3-0.1,0.5-0.1,0.6-0.2
				c-0.4,0-0.4,0-0.7,0.1c-0.1,0-0.4-0.1-1.1-0.1c0,0.1-0.4,0.1-0.7,0.2c-0.1-0.1,0.1-0.1-0.4-0.2c-0.3,0.1-0.6,0-0.9,0
				c0.1,0-0.1-0.1-0.1-0.1c-1.2,0-2.3,0-3.5-0.1c-0.7,0.1-1.3-0.1-2,0c-1.1-0.2-2.8,0.1-3.5-0.2c-0.2,0.1-0.4,0-0.7,0.1
				c-0.3-0.1-0.6-0.1-0.8-0.1c0.5,0,0.8,0,1-0.1c-0.2,0.1,0.3,0.1,0.6,0.1c0.3-0.1-0.1-0.1-0.4-0.1c0.5-0.1,1,0,1.5,0
				c0.2,0-0.5,0.1-0.7,0c0.2,0.1,1.3,0,1.8,0c-0.2-0.1-0.5,0-0.7-0.1c1,0,1.4-0.1,2.3-0.1c0.3,0.1-0.7,0.1-0.1,0.1
				c0.2,0,0.3-0.1,0.5-0.1c0.9,0.1,2.1,0,2.7,0c-0.7,0.1,0.4,0.1,1,0.1c0.1-0.1,0.4-0.1-0.1-0.1c0.8-0.2,0.9,0.1,1.5,0
				c0.3,0.1,0.1,0.1,0.1,0.2c0.3,0,0.8-0.1,0.8-0.1c0.5,0,1.3,0.2,1.4,0c0.2,0,0.9,0.1,0.7,0.1c0.4-0.1,1.6-0.1,2.6,0
				c-0.6,0-0.5,0-1,0.1c0.3,0.1,0.7,0.1,1.1,0.1c0.3,0-0.3-0.2,0.1-0.1c0.2-0.1-0.5,0-0.7,0c-0.1-0.1,1.2-0.2,1.8-0.1
				c0.7,0,1.5-0.3,2.2-0.1c0.2,0,0.3-0.1,0.5-0.1c0.4,0,0,0.1,0,0.1c0.4,0,0.9-0.1,1.3,0c0.2,0.1-0.4,0.1-0.6,0.1
				c1.2,0,2.4-0.1,3.1,0.1c0.4,0,0.7,0,1.1-0.1c-0.2,0-0.3-0.1-0.1-0.1c0.4,0.1,1.6,0,2.4,0.1c-0.3,0.1-0.5,0.1-0.8,0.1
				c0.2,0.1,1.4,0.1,1.9,0.1c0.5-0.1-0.4,0-0.5-0.1c0.4-0.1,0.7,0,1.1-0.1c-0.1,0-0.1-0.1,0.1-0.1c-0.3-0.1-0.4,0-0.4-0.1
				c0.1,0,0.3,0,0.4,0c0.5,0.2,0.7,0.1,1.4,0.2c-0.4,0.1-0.7-0.1-1.1,0c0.2,0.1,0.5,0,0.7,0.1c-0.2-0.1,0.8-0.1,1.2-0.1
				c0.1,0-0.1,0.1-0.2,0.1c0.3,0.1,0.6,0,0.8,0.1c0.2,0-0.3-0.1-0.2-0.1c0.8-0.1,1.5,0,2.3,0c0-0.1-0.6,0-0.9-0.1
				c-0.1,0,0,0-0.1-0.1c0.5,0,0.7,0,1.3-0.1c0-0.1-0.5-0.1-0.8,0c-0.5-0.1,0.5-0.1-0.2-0.1C354.2,22.8,355,22.8,354.5,22.6z
				 M313.4,21.2c-0.4,0.1-0.8,0-1.2,0C312.6,21.1,313,21.2,313.4,21.2z M280.3,20.1c0.4-0.1,1.1,0,0.6-0.1c0.6-0.1,1.2,0,1.8,0
				c-0.3,0.1-0.4,0-0.7,0.2c-0.2,0-0.3-0.1-0.5-0.1c-0.2,0,0.1,0.1,0,0.1C281.1,20.2,280.7,20.3,280.3,20.1z M33,25.4
				c-0.4,0.1-0.3,0.1-0.8,0.1C32.3,25.4,32.7,25.4,33,25.4z M33.3,27.7c-0.7,0-0.8,0.1-1.4,0.2c-0.2-0.1-0.5,0-0.8,0
				c-0.3-0.1-0.4-0.1-0.6-0.2c-0.6,0.1-0.2,0.2-0.1,0.3c-0.9-0.1-0.8-0.3-0.2-0.4c0.7,0.2,1.6-0.1,2.3,0c0.4,0.1-0.4,0-0.3,0.1
				C32.7,27.6,33.3,27.6,33.3,27.7z M100.8,27c0.4-0.1,0.8,0,1.2,0C101.6,27.1,101.2,27.1,100.8,27z M135,26.9
				c0.2,0.1,0.9,0.1,0.7,0.2C135.5,26.9,134.7,27,135,26.9z M160.9,27.1c-0.3,0-0.6,0.1-0.9-0.1C160.3,26.9,161,27,160.9,27.1z
				 M312.6,28.4c0.5,0,0.9,0,1.4,0.1C313.5,28.5,312.6,28.5,312.6,28.4z M303.7,26.9c0.1-0.1,2-0.1,1.6,0.1
				C304.8,26.9,304.2,27.1,303.7,26.9z M341.8,27.6c-0.1,0-0.1,0.1-0.4,0.1c-0.2,0-0.4,0-0.5-0.1C341.2,27.6,341.6,27.5,341.8,27.6z
				 M291.9,23.9c1,0,1.4,0,2.3,0C293.4,24,292.6,24,291.9,23.9z M312.9,24.1c0.3,0,1.2,0,1.2,0.1C313.7,24.1,312.8,24.2,312.9,24.1z
				 M323.6,24.3c0,0,0.4-0.2,0.7-0.1C324.4,24.3,323.7,24.4,323.6,24.3z M350.7,23c0.2,0,0.1,0,0.3-0.1c0.3,0.1,0.7-0.1,1,0.1
				C351.6,23.1,350.7,23,350.7,23z M335.5,22.3c0.3,0,0.6-0.1,0.9,0C335.9,22.4,335.6,22.3,335.5,22.3z M320.7,21.5
				c0.1-0.1,0.7-0.1,1.1,0C321.4,21.6,321.1,21.5,320.7,21.5z M317.6,21.4c0.4,0,1.3,0,1.3,0.1C318.4,21.4,318,21.5,317.6,21.4z
				 M339,26c-0.7,0-1.5,0-2.2,0C337.5,25.9,338.6,25.9,339,26z M308.4,19.9c0.1-0.1,0.8-0.1,1.2,0C309.1,20,308.7,19.9,308.4,19.9z
				 M322.3,22.9c0.4,0,0.7-0.1,1.1,0C323.1,22.9,322.2,23,322.3,22.9z M338.9,26.4c0.1,0.1,0.9,0,0.6,0.1
				C339.2,26.5,338.5,26.5,338.9,26.4z M338.1,26.4c-0.2-0.1-0.3,0-0.7-0.1c0.2,0-0.2-0.1-0.1-0.1c0.5,0,0.4,0.1,0.9,0
				c0.1,0,0.2,0,0.3,0.1C338.3,26.4,338.4,26.4,338.1,26.4z M336.1,26.1c0.4,0,0.7-0.1,1.1,0C336.8,26.3,336.4,26.2,336.1,26.1z
				 M322.7,23.9c-0.2,0-0.4,0.1-0.7,0c0.5-0.1,0.2-0.3,0.9-0.2C323.1,23.8,322.3,23.8,322.7,23.9z M332.7,26.2
				c0.2,0,0.3-0.1,0.5-0.1c0.1,0,0.2,0,0.3,0.1C333.2,26.3,333,26.2,332.7,26.2z M339,27.5c0.1,0.1,0.4,0,0.9,0.1
				C339.9,27.7,338.3,27.7,339,27.5z M320.3,23.9c-0.7-0.1-1.6,0.1-1.9-0.1c-0.1,0.1-0.8,0.1-1.2,0.1c1.1,0,0.9-0.2,1.9-0.3
				c0.4,0.2,0.4,0,0.6,0.1c0.6,0,1.7-0.1,1.9,0c-0.1,0-0.7,0-0.4,0c0.4,0,0.7,0,1.1,0.1c-0.3,0.1-0.6,0-0.9-0.1
				C321,23.8,320.4,23.8,320.3,23.9z M309,21.3c0-0.1,0.7-0.1,1-0.1C310,21.3,309.3,21.3,309,21.3z M322.6,24.2
				c-0.1,0-0.3-0.1-0.4-0.1c0.2-0.1,0.5-0.1,0.7,0C322.4,24.2,323.1,24.2,322.6,24.2z M335.3,27.3c0.4-0.1,0.6,0.1,1,0
				c0.3,0.1-0.1,0.2,0.5,0.2C336,27.6,335.9,27.3,335.3,27.3z M329.1,26c0.3-0.1,0.7-0.1,1-0.1C329.8,26,329.5,26.1,329.1,26z
				 M333.3,26.9c0.4,0.1-0.8,0.3-1.2,0.2c0-0.1,0.3-0.1,0.6-0.1C332.6,27,333.1,27,333.3,26.9z M313.7,23.5c0,0.1,0.4,0,0.7,0
				c0.3,0,0.4,0,0.4,0.1c0.8-0.1,1.5,0.1,2.3,0c0.3,0.1-0.1,0.2,0.5,0.1c0.4,0.1,0.3,0.2-0.3,0.2c0.1,0,0.2-0.1,0-0.1
				c-0.1,0.2-1.4,0.2-2.1,0.2c-0.2,0-0.3-0.1-0.5-0.1c-0.4,0-0.9,0.1-1.3,0c0.2-0.1,1.2-0.1,1.8-0.1c-0.1,0,0.1,0,0.2,0
				c-0.4,0-0.7-0.1-1.1-0.1c-0.6,0.1-1.1,0.2-1.7,0.1C313.5,23.7,313.3,23.6,313.7,23.5z M328.4,26.1c-0.2,0,0.3,0.1,0,0.1
				c-0.2-0.1-0.4,0-0.6,0c0.3-0.1,0.3-0.1,0.7-0.2c0.1,0,0.2,0,0.3,0.1C328.6,26.1,328.5,26.1,328.4,26.1z M297.4,19.6
				c-0.1-0.1,0.6-0.1,0.8-0.1C297.9,19.6,297.7,19.7,297.4,19.6z M302.3,21.1c0.3-0.1,1.4,0.1,1,0C302.9,21.1,302.6,21.2,302.3,21.1
				z M329.4,26.9c0.2,0,0.3-0.1,0.5-0.1c0.1,0,0.3,0.1,0.2,0.1C329.8,26.9,329.8,27,329.4,26.9z M325.4,26.4c0.2,0,0.2-0.1-0.1-0.1
				c0.2,0,0.4-0.1,0.6-0.1c0.3,0,0.6,0.1,1,0.1C326.3,26.3,325.8,26.4,325.4,26.4z M329.1,26.9c-0.2,0.1-0.2,0.1-0.2,0.2
				c-0.2,0-0.4,0-0.6,0c0.9-0.1-0.8-0.1-0.5-0.2c0.4,0.1,1.5-0.1,1.5,0.1C329.3,27,329.2,26.9,329.1,26.9z M323.5,26.1
				c0.1,0.2,0.7,0,1.2,0.1C324.3,26.3,323.1,26.2,323.5,26.1z M322.6,26c-0.4,0-0.1-0.1-0.4-0.1c-0.2,0,0.1,0.1-0.1,0.1
				c-0.1,0-0.3-0.1-0.4-0.1c0.2,0,0.4-0.1,0.1-0.1c0.3-0.1,0.5-0.1,0.8-0.1c-0.1,0-0.2,0.1,0,0.1c0.4,0,0.2-0.1,0.5-0.1
				C323.5,25.9,322.7,25.9,322.6,26z M319.7,25.4c0.5-0.1,1-0.1,1.4,0C320.6,25.5,320.2,25.5,319.7,25.4z M327.5,26.9
				c-0.6,0-1.1-0.1-1.6,0c0.5-0.1,0.8-0.1,1.4-0.1C327.2,26.9,327.4,26.9,327.5,26.9z M310.9,23.7c0.2,0,0.3-0.1,0.5-0.1
				c0.3,0.1,0.6,0.1,0.9,0c0.1,0,0.2,0,0.3,0.1C312,23.8,311.4,23.7,310.9,23.7z M325.2,26.7c0.3,0,0.7,0,1,0.1
				C325.8,26.9,325,26.8,325.2,26.7z M296.9,20.9c0.6-0.1,1.1,0,1.7,0C298.4,21,297.4,20.9,296.9,20.9z M327.4,27.4
				c0.1,0.1-0.2,0.1-0.4,0.1c-0.3,0-0.6,0-0.9,0c-0.1-0.1,0.1-0.1,0.2-0.2c-0.5,0.1-1,0.1-1.6,0.1c-0.4-0.2-0.9-0.1-1.6-0.2
				c0.4-0.1,1.5,0,2.2,0c-0.2,0-0.2-0.1-0.1-0.1c0.7,0,0.8,0,0.5,0.1c0.5,0,2.1-0.1,2.5,0.1C327.8,27.3,327.9,27.4,327.4,27.4z
				 M321.9,26.3c0.2-0.1,0.4-0.2,1-0.1C322.2,26.2,322.6,26.3,321.9,26.3z M325.9,27.1c-0.2,0-0.5,0-0.7-0.1
				C325.5,27,326.3,27,325.9,27.1z M309.4,23.7c-0.2,0-0.4,0-0.5,0c-0.2,0-0.3-0.1-0.5-0.1c-0.8,0.1-0.9,0-1.8,0.1
				c0.2,0-0.1-0.1,0.2-0.1c0.4,0.1,0.9,0,1.3,0c-0.2-0.1-0.2-0.1,0.3-0.2c0.3,0,0.6,0,1,0.1c-0.3,0.1-0.7,0-1,0.1
				C308.5,23.7,309.3,23.6,309.4,23.7z M309.1,23.6c0.4-0.1,0.7,0,1.1,0.1C309.8,23.7,309.4,23.6,309.1,23.6z M323.2,26.9
				c-0.5,0,0.3-0.1-0.2-0.1c0.3,0,0.6,0,0.9,0C323.8,26.8,323.4,26.9,323.2,26.9z M292.4,20.3c0.3,0,0.6-0.1,0.9,0
				C292.9,20.3,292.6,20.3,292.4,20.3z M323.8,27.1c-0.2,0-0.1-0.1-0.3-0.1c0.3-0.1,0.5,0,0.8,0C324.1,27,323.9,27,323.8,27.1z
				 M314.5,25.4c-0.2,0-0.3-0.1-0.3-0.1c0.5,0,1-0.1,1.4,0C315.2,25.4,314.9,25.3,314.5,25.4z M322,26.9c-0.6-0.1-1.2,0-1.7-0.1
				C320.8,26.8,321.4,26.7,322,26.9C321.8,26.8,322.1,26.8,322,26.9z M319.5,26.4c-0.2,0-0.3,0.1-0.5,0.1c-0.1-0.1-0.4-0.1-0.3-0.2
				C319,26.4,319.2,26.3,319.5,26.4z M322.5,27.1c-0.2,0.1,0.7,0.1,0.2,0.2c-0.5,0,0-0.1-0.5-0.2c0.2,0,0.4-0.1,0.6-0.1
				c0.1,0.1,0.8,0,0.5,0.1C323,27.2,322.7,27.1,322.5,27.1z M305.4,23.6c0.5,0.1,0.4-0.1,1,0C306.1,23.6,305.2,23.7,305.4,23.6z
				 M316.6,26.3c0.4,0,0.8,0,1.2,0C317.3,26.4,317,26.3,316.6,26.3z M287.7,20.1c0.3,0,0.5-0.1,0.8,0
				C288.5,20.2,288,20.2,287.7,20.1z M313.4,25.8c0.4,0,0.8,0,1.2,0.1C314.2,26,313.4,25.9,313.4,25.8z M303,23.5
				c-0.5,0-1,0-1.5-0.1C302,23.4,303.3,23.4,303,23.5z M318.1,27.6c0.5-0.1,0,0-0.2-0.1c0.3-0.1,0.5,0,0.8,0
				c-0.3-0.1-0.7-0.1-1.1-0.1c-0.1,0-0.5-0.2,0.1-0.1c-0.2,0.1,0.4,0,0.5,0.1c0.5-0.1,0.9,0,1.3,0c0.3,0.1,0.5,0.1,1.1,0.1
				c0.2,0-0.2-0.1-0.1-0.1c0.9,0.1,0.4,0.2-0.1,0.4c-0.2,0-0.1-0.1-0.1-0.1c-0.2,0-0.4,0-0.5,0c0.2,0,0.3,0.1,0.3,0.1
				c-0.4,0.1-0.7,0-0.6,0.1c-0.3,0-0.5,0-0.7-0.1c0.2,0,0.4,0,0.3-0.1C318.8,27.6,318.4,27.6,318.1,27.6z M315,26.8
				c0,0.1-0.4,0-0.7,0.1c-0.2-0.1-0.8,0-1.3-0.1c0.5-0.1-0.5,0-0.6-0.1c0.5,0,0.9,0.1,1.4,0c0.9-0.1,0.7-0.4,1.6-0.3
				C314.8,26.5,314,26.8,315,26.8z M284,20.2c-0.1-0.1,0.6-0.1,0.1-0.1c-0.6,0.1-0.3,0.1-0.6,0.2c-0.2,0-0.4,0-0.5-0.1
				c0.4-0.2,0.8-0.2,1.2-0.3c0.7,0.2,0.9,0.2,1.7,0.2C285.4,20.2,284.7,20.2,284,20.2z M300.4,23.5c0.2-0.1,0.6-0.1,1-0.1
				C301,23.5,300.7,23.5,300.4,23.5z M320.5,27.8c0.2,0-0.3-0.1,0-0.1C321.1,27.7,321,27.9,320.5,27.8z M313,26.5
				c0.3-0.1,0.6-0.1,0.9-0.2c0.1,0,0.3,0,0.4,0C314.4,26.5,313.5,26.6,313,26.5z M299.5,23.5c-0.3-0.1-0.5,0-0.3-0.1
				c0.2,0,0.4,0,0.6,0C299.7,23.4,299.6,23.4,299.5,23.5z M306.6,25.3c-0.6-0.1,0.5-0.2,0.8-0.1C307.1,25.2,306.9,25.2,306.6,25.3z
				 M317.3,27.4c-0.2,0-0.6-0.1-0.3-0.2C317.2,27.3,317.5,27.4,317.3,27.4z M298.8,23.6C298.9,23.6,299,23.6,298.8,23.6
				c-0.2,0-0.4,0-0.5,0c0.4-0.1,0.7-0.1,1.1,0C299.2,23.6,299,23.6,298.8,23.6z M299.1,24c0.3,0.1,0.7-0.1,1.1,0
				C299.8,24.1,299,24.1,299.1,24z M320.5,28.7c0.2-0.1-0.4,0-0.3,0c-0.3-0.1-0.1-0.1-0.1-0.1c0.5,0,0.4,0,1.1,0
				C321,28.7,320.8,28.7,320.5,28.7z M276.6,20c0.3-0.1,0.6,0,0.9,0C277.2,20.1,276.9,20.1,276.6,20z M299.9,25.1
				c0.3-0.1,0.5,0,0.8,0C300.3,25.2,300.1,25.2,299.9,25.1z M290.7,23.2c-0.5-0.1,0.1-0.2,0.5-0.1C290.8,23.2,291.1,23.2,290.7,23.2
				z M298,25c-0.5,0.1-1.5,0-1.6-0.1c0.4,0.1,0.9,0,1.4,0C297.6,25,298.1,24.9,298,25z M271.1,19.9c0.5,0,1,0,1.4,0
				C272.1,19.9,271.2,20,271.1,19.9z M310.9,28.3c0.2,0,1,0.1,0.8,0.1C311.5,28.5,310.8,28.4,310.9,28.3z M302.1,27
				c-0.3-0.1-0.7-0.1-1.1-0.1c0.4-0.1,0.8,0.1,1.2-0.1c0.2,0.1,0.4,0,0.6,0.1C302.4,26.9,302.5,26.9,302.1,27z M287.1,23.9
				c-0.4-0.1-0.6-0.1-0.1-0.2c0.3,0,0.4,0.1,1,0.1C287.7,23.9,287.4,23.8,287.1,23.9z M303.2,28c0.4-0.1,0.8-0.1,1.2-0.1
				C304,28,303.5,28.1,303.2,28z M294.3,26c0.3-0.1,0.5,0,0.8,0C294.8,26.1,294.5,26.1,294.3,26z M297.4,26.8c0.4-0.1,0.8-0.1,1.2,0
				C298.2,26.9,297.8,26.9,297.4,26.8z M294.6,26.4c-0.6-0.1-1.2,0-1.7,0c0.4-0.2,1.1-0.1,1.9-0.1c0.1,0,0.1-0.1,0.3,0
				C295.1,26.4,294.9,26.4,294.6,26.4z M285.7,24.8c0.6-0.1,1.1-0.1,1.6,0C286.8,24.9,286.2,24.8,285.7,24.8z M300.6,28.2
				c0.3,0,0.6,0,0.9,0c-0.2,0.1,0,0.1-0.3,0.2C300.8,28.3,301,28.3,300.6,28.2z M302.4,28.1c0.2,0.1,0.4,0.1,0.8,0.1
				c-0.7,0-1.4,0.2-1.8,0.1C302.1,28.3,302.1,28.2,302.4,28.1z M300.6,28c0.2,0.1,1,0,0.8,0.1c-0.4,0-0.8,0-1.2-0.1
				c0.2,0,0.2-0.1-0.1-0.1c0.4-0.1,0.7-0.1,1.1,0C301.1,27.9,300.4,27.9,300.6,28z M293.3,26.7c0.3,0,0.6,0,0.9,0.1
				C293.9,26.8,293.1,26.8,293.3,26.7z M294.6,26.7c-0.3,0,0.3,0.1-0.1,0.1C294,26.8,294.2,26.7,294.6,26.7z M292.2,26.3
				c-0.3,0.1-0.6,0-0.9,0.1c-0.3-0.1-0.6-0.1-0.8-0.1c0.5,0,0.3,0,0.7-0.1c0.2,0.1,0.3,0.1,0.8,0C292.1,26.2,292.2,26.3,292.2,26.3z
				 M275.6,23c0.3-0.1,0.8,0,0.8-0.1c0.1,0,0.1,0,0.2,0c0.1,0,0.2,0,0.2,0C276.6,23.1,276,23.1,275.6,23z M262.2,19.9
				c-0.3,0-0.5,0-0.5-0.1C262,19.8,262.5,19.8,262.2,19.9z M299.6,28.1c0.3,0,0.6,0,1,0.1C300.2,28.3,299.5,28.2,299.6,28.1z
				 M277.8,23.8c0.4,0,0.9,0,1.3,0C278.6,23.9,278.2,23.8,277.8,23.8z M295.4,27.9c0.2,0,0.1,0,0.3-0.1c0.5,0,0.5,0.1,1.1,0.1
				c0.1-0.1-0.6-0.1-0.3-0.2c0.4,0,0.7,0,0.8,0.1C296.7,28,295.5,28.1,295.4,27.9z M280.8,24.6c-0.5,0-1,0.1-1.4,0
				c0.4-0.1,0.8,0,1.2-0.1C280.9,24.5,281,24.5,280.8,24.6z M288.9,26.6c-0.2,0-0.4,0-0.6-0.1C288.6,26.4,289.3,26.5,288.9,26.6z
				 M293.7,27.9c0.2,0,0.2-0.1,0.2-0.1c0.2,0,0.4,0,0.6,0.1C294.3,28,294,27.9,293.7,27.9z M286.8,26.5c0.3,0,0.7-0.1,1-0.1
				C287.4,26.5,287.1,26.5,286.8,26.5z M283.7,26.1c0.4-0.1,0.6,0,0.8-0.1c0.2,0,0.3,0.1,0.3,0.1C284.4,26.2,284.1,26.2,283.7,26.1z
				 M286.1,26.2c-0.4-0.1-0.9,0.1-1.3-0.1C285.2,26,286.1,26.1,286.1,26.2z M292.3,27.6c0.3-0.1,0.6,0,0.9,0.1
				C292.8,27.7,292.6,27.6,292.3,27.6z M285.3,26.4c0.3-0.1,0.6,0,0.9,0C286.1,26.5,285.6,26.5,285.3,26.4z M283.9,26.5
				c0.6-0.1,0.8-0.1,0.9-0.2c0.4,0,0.3,0.1,0.4,0.1c-0.3,0.1-0.6,0-0.9,0.1c0.1,0,0.4,0,0.3,0.1c-0.7,0-1,0-1.4-0.1
				c0.1,0,0.1-0.1,0.4-0.1C284.1,26.4,283.8,26.5,283.9,26.5z M282.4,26.3c0.7-0.1,1.5-0.1,2.2,0C284.4,26.5,283.1,26.4,282.4,26.3z
				 M292.4,28.3c0.6,0,1.1,0,1.6,0C293.5,28.4,293,28.4,292.4,28.3z M289.3,27.6c0.1-0.1,0.1-0.2,0.6-0.1
				C289.9,27.5,289.6,27.7,289.3,27.6z M290,28.1c-0.6-0.1,0.5-0.1,0.1-0.1c-0.3,0-0.6,0.1-0.9,0c0.6-0.1,1.2,0,1.7,0
				C290.8,28,290.3,28,290,28.1z M281.6,26c-0.7,0.1-1.5-0.1-1.1-0.2C280.7,25.9,280.7,26,281.6,26z M281.4,26.3
				c0.2,0,0.4-0.1,0.6-0.1c0.1,0,0.3,0.1,0.2,0.1C281.9,26.2,281.6,26.4,281.4,26.3z M285.5,27.4c-0.3-0.1,0-0.1,0.1-0.1
				c0.1,0,0.3,0,0.4,0C285.9,27.3,285.7,27.3,285.5,27.4z M287.2,27.9c-0.2-0.1-0.2-0.2,0.2-0.2C287.9,27.7,287.6,27.9,287.2,27.9z
				 M281.9,26.5c-0.3,0.1-0.9,0-0.8-0.1C281.6,26.4,281.4,26.5,281.9,26.5z M285.4,27.9c-0.2,0-0.3-0.1-0.5-0.1c0.5,0,0.6,0,1-0.1
				c0.1,0.1,0.5,0,1,0.1C286.3,27.9,285.8,27.8,285.4,27.9z M282.4,27.6c0.7,0.2,2,0,2.3,0.1C284,27.7,282.2,27.9,282.4,27.6z
				 M283,27.6c0.2,0-0.1-0.1,0.2-0.1c0.2,0,0.4,0,0.5,0.1C283.3,27.6,283.5,27.7,283,27.6z M279.2,27.7c-0.2-0.1-0.5,0-0.7-0.1
				c0.3,0,0.6-0.1,0.9,0C279.2,27.6,279.3,27.6,279.2,27.7z M269.8,26.2c0.4,0,1.5-0.1,1.2,0.1C270.6,26.2,269.7,26.3,269.8,26.2z
				 M259.2,23.9c-0.5-0.1,0.1-0.2,0.5-0.1C259.4,23.8,259.6,23.8,259.2,23.9z M270.1,26.3c0.3-0.1,0.5,0,0.8,0
				c-0.3,0-0.3,0.2-0.6,0.1C270.4,26.4,270.1,26.3,270.1,26.3z M269.7,26.5c-0.5-0.1,0-0.2,0.4-0.1C270,26.4,270.1,26.4,269.7,26.5z
				 M273.9,27.5c-0.3-0.1-0.7,0-1-0.1c0.6-0.1,1.1-0.1,1.6,0C274.4,27.4,274.1,27.5,273.9,27.5z M269.7,26.6c0.2,0,0.3-0.1,0.5-0.1
				c0.1,0,0.2,0,0.3,0.1C270.1,26.7,269.9,26.7,269.7,26.6z M267.8,26.2c-0.6,0.1-0.5-0.1-1.1-0.1C267.1,26.1,267.8,26.1,267.8,26.2
				z M266.4,26.1c-0.1,0-0.3-0.1-0.4-0.1c0.2-0.1,1-0.1,0.9,0C266.6,26,266.5,26.1,266.4,26.1z M255.8,23.9c0.3,0,0.5,0,0.7,0.1
				c-1.5,0-3.1,0-4.6-0.1c0.5-0.2,0.9,0.1,1.3,0c-0.3-0.1-0.5,0-0.3-0.1c0.5,0,0.3,0.1,0.7,0.2c0.5-0.1,0.9,0.1,1.4-0.1
				c-0.3,0-0.6,0-0.8-0.1c0.2-0.1,0.4,0,0.7-0.1c0.4,0-0.1,0.2,0.4,0.1c0.3,0-0.3-0.1,0.1-0.1c0.2,0,0.4,0,0.6,0
				C256.1,23.8,255.6,23.8,255.8,23.9z M267.7,26.5c-0.5-0.1-1,0-1.5-0.1c0.3-0.1-0.1-0.2,0.6-0.2c0.5,0.1,0.1,0.1,0.2,0.2
				c0.3,0,0.7,0,1-0.1C268.4,26.4,268.1,26.4,267.7,26.5z M271.4,27.4c0.4-0.1,0.8-0.2,1.1-0.1C272.2,27.4,271.8,27.5,271.4,27.4z
				 M263.7,25.6c0.2,0,0.3-0.1,0.5-0.1c0.1,0,0.2,0,0.3,0.1C264.2,25.7,263.9,25.7,263.7,25.6z M260.3,26.1c-0.2,0-0.4,0-0.5,0
				c0.8-0.1,1.2,0.2,1.6,0.2c0.2,0,0.4-0.1,0.6-0.1c0.8,0.1,1.6,0.1,2.5,0.1c0.1-0.1,0.5-0.2,0.7-0.2c0,0.2,0.4-0.1,0.9,0.1
				c-0.7,0.1-1.3,0.2-1.7,0.3c-0.7-0.2-2,0-2.8,0c0.1,0,0.7-0.1,0.5-0.1c-0.4,0.1-0.8,0-1.2,0.1c0.1,0,0.4,0,0.3,0.1
				c-0.4-0.1-1.4,0.1-1.4-0.1c0.5,0.1,1.4-0.1,0.9-0.2c-0.1,0.2-1.5,0.1-1.5,0C259.4,26.2,260.6,26.3,260.3,26.1z M259.8,26.3
				c0,0-0.5,0.1-0.8,0.1c0.2-0.1-0.5,0-0.6-0.1C258.9,26.3,259.4,26.3,259.8,26.3z M271.4,27.4c-0.6,0-1.1,0-1.6,0
				C270.3,27.3,271.3,27.3,271.4,27.4z M267.2,26.6c0.2,0,0.4,0,0.6,0C267.6,26.8,267,26.7,267.2,26.6z M265.1,26.5
				c0.3-0.1,1.1-0.1,1,0C265.8,26.5,265.4,26.6,265.1,26.5z M268.8,27.4c0-0.1,0.6-0.1,0.9,0C269.4,27.4,269.1,27.4,268.8,27.4z
				 M250.8,23.8c0.1-0.1,0.7,0,0.6-0.1C251.9,23.7,251.1,23.9,250.8,23.8z M249.6,23.8c0-0.1,0.6-0.1,0.9-0.2c0.1,0,0.2,0,0.3,0.1
				C250.4,23.8,249.9,23.9,249.6,23.8z M262.2,26.5c0.3,0,1.1-0.1,1,0C262.8,26.5,262.5,26.5,262.2,26.5z M264.1,27.1
				c0.3-0.1,0.5-0.1,0.8,0C264.6,27.2,264.3,27.2,264.1,27.1z M257.8,26.2c-0.3,0-0.6,0-0.9,0c0.4-0.1,0.4-0.2,0.9-0.1
				C257.6,26.1,258.1,26.2,257.8,26.2z M255.6,26c-0.2,0-0.3-0.1-0.5-0.1c0.1,0,0.2,0,0.2,0c-0.1,0-0.1,0,0,0
				c0.6,0.1,0.2-0.1,0.5-0.1c0.2,0,0.5,0,0.7,0.1C255.9,25.8,255.9,25.9,255.6,26z M256.8,26.4c-0.1,0-0.4-0.1-0.3-0.1
				c0.5,0,1-0.1,1.5,0.1C257.4,26.4,257.1,26.3,256.8,26.4z M225.9,19.7c-0.4-0.1-0.1-0.1,0.3-0.2c0.1,0,0.3,0,0.4,0
				C226.5,19.7,226.2,19.7,225.9,19.7z M244.7,23.8c-0.4,0-0.7,0-1.1-0.1c0.4-0.1,0.4-0.2,1-0.1C244.3,23.7,244,23.8,244.7,23.8z
				 M253.1,25.9c0.4,0,0.5,0.1,0.4,0.1c0.8-0.1,2.1,0,2.5,0.1c-0.9-0.1-2-0.1-2.6,0c0.2-0.1,0-0.1-0.2-0.2c-0.1,0.1-0.1,0.1-0.6,0.1
				c-0.2,0-0.1-0.1-0.1-0.1c-0.3,0.1-0.2,0-0.7,0c0.3,0.1-0.4,0.1-0.7,0c0-0.1,0.5,0,0.8-0.1C252.7,26,252.8,26,253.1,25.9z
				 M260.9,27.8c-0.6-0.1-1,0.1-1.3,0.1c-0.4-0.1,0.2-0.1,0.5-0.2c0.2,0.1,0.4,0,0.7,0C261,27.7,261.1,27.8,260.9,27.8z M253.2,26.3
				c-0.5,0-0.9,0-1.4-0.1c0.3,0,0.7-0.1,1-0.1C252.6,26.2,253.7,26.2,253.2,26.3z M257.1,27.4c0-0.1,0.5-0.2,0.8-0.1
				C257.6,27.3,257.3,27.5,257.1,27.4z M257.6,27.8c0.3-0.1,0.5,0,0.8-0.1c-0.3-0.1-0.5,0-0.3-0.1c0.3,0,1.2,0,1.2,0.1
				C258.8,27.8,258.3,27.9,257.6,27.8z M250.6,26c-0.2-0.1-0.9,0-0.7-0.1C250.2,25.9,251,25.9,250.6,26z M252.7,26.8
				c0.4,0,0.9,0,1.3,0C254,26.9,252.7,27,252.7,26.8z M256.6,27.7c0.2,0,0.2-0.1,0.2-0.1c0.3,0,1.1,0,1,0.1
				C257.4,27.6,256.9,27.8,256.6,27.7z M246.1,26c0.7-0.1,1.8,0,2.6-0.1c-0.1-0.1-0.4-0.1-0.1-0.1c0.1,0.2,0.5,0,1.1,0.1
				c-0.4,0.1-0.7,0.1-0.6,0.2C248.4,26,247.1,26.1,246.1,26z M218.8,19.7c0.4,0,0.7-0.1,1.1,0C219.6,19.7,218.7,19.8,218.8,19.7z
				 M236.9,23.8c-0.2-0.1-0.4-0.1-0.7,0c-0.4-0.1,0.8-0.3,1.4-0.2C237,23.6,237,23.7,236.9,23.8z M254.4,27.6c0.7,0,1.3,0,2,0
				c-0.1,0-0.2,0-0.3,0.1C255.5,27.6,254.9,27.7,254.4,27.6z M244.4,25.3c0.4,0,1.5,0,1.5,0.1C245.5,25.4,244.4,25.5,244.4,25.3z
				 M245.4,25.8c-0.6-0.1-1.2,0-1.7-0.1c0.6-0.1,1.8,0,2.1,0C245.5,25.7,245.4,25.7,245.4,25.8z M253.5,27.6c0.2,0-0.2-0.1-0.1-0.1
				c0.3,0,0.6,0,0.9,0.1C254,27.6,253.8,27.7,253.5,27.6z M251.5,27.6c0.4-0.1,0.7-0.1,1.1,0C252.2,27.5,251.8,27.6,251.5,27.6z
				 M245.2,26c-0.6,0.1-0.7,0-1.2-0.1c0.2,0,0.3-0.1,0.4-0.1c0.1,0,0.1,0,0.2,0C244.4,26,244.7,26,245.2,26z M252.5,27.9
				c-0.6,0-1.2,0.1-1.7-0.1c0.6,0,0.4-0.2,0.9-0.2c0.6,0.1-0.1,0.2,0.4,0.2c0.2,0-0.1-0.1,0.4-0.1C252.7,27.7,252.5,27.8,252.5,27.9
				z M249.9,27.5c0,0,0.2-0.1,0.5-0.1c0.3,0.1,0.6,0,0.8,0.1c-0.1,0-0.2,0-0.2,0C250.7,27.5,250.5,27.6,249.9,27.5z M241.5,26
				c0.5,0,2-0.2,1.7,0C242.7,25.9,242.1,26.1,241.5,26z M238.3,25.6c0.3,0,0.6-0.1,0.9,0C239.2,25.6,238.6,25.7,238.3,25.6z
				 M238.2,25.8c0.7,0.1,2.3-0.1,2.3,0.1C239.8,25.8,238.5,25.9,238.2,25.8z M234.5,25.3c0.3-0.1,0.6-0.1,0.9,0
				C235.4,25.3,234.8,25.3,234.5,25.3z M235.2,25.6c-0.6-0.2-1.2,0-1.8-0.1c0.4-0.1,1.6,0,2.3,0C235.3,25.5,235.6,25.5,235.2,25.6z
				 M234.9,25.7c-0.6-0.1-0.7,0.2-1.4,0.1c0.6-0.1,0.3,0,0.6-0.1C234.4,25.6,235.3,25.5,234.9,25.7z M231.3,25.6
				c0.3-0.1,0.7-0.1,1-0.1C232.2,25.6,231.6,25.7,231.3,25.6z M238.1,27.2c0.4-0.1,0.7,0,1.1,0C238.9,27.2,238.5,27.3,238.1,27.2z
				 M238.3,27.3c0.2-0.1,1,0,0.9,0.1C238.9,27.3,238.6,27.4,238.3,27.3z M236.8,27.1c0.2,0-0.3-0.1-0.2-0.1c0.3-0.1,0.5-0.1,0.8,0
				C237,27,237.3,27.1,236.8,27.1z M236.8,27.5c0.1,0,0.5-0.1,0.4-0.2c-0.3,0-0.5,0-0.7-0.1c0.6-0.1,1.1-0.2,1.7-0.1
				C237.2,27.3,237.8,27.6,236.8,27.5z M227.3,25.2c0.2-0.1,0.9-0.1,0.8,0C227.8,25.2,227.6,25.3,227.3,25.2z M235.2,27.2
				c0.3-0.1,0.5-0.1,0.8,0C235.7,27.2,235.5,27.3,235.2,27.2z M228.5,25.7c-0.5,0-1.5,0-1.6-0.1c-0.4,0.1-1.1-0.1-1.2,0.1
				c-0.1,0-0.3-0.1-0.4-0.1c0.3-0.1,0.5,0,0.6-0.1c0.6,0.1,0.9,0.1,1.1-0.1c0.5,0,0.1,0.1,0.2,0.1c0.2,0,0.4-0.1,0.6-0.1
				C228.2,25.6,227.7,25.6,228.5,25.7z M224.6,25.5c-0.6-0.1,0.8-0.2,1.1-0.1c-0.1,0,0,0.1-0.1,0.1
				C224.9,25.5,225.2,25.3,224.6,25.5z M223.4,25.6c-0.5-0.1,0-0.2,0.4-0.2c0.2,0,0.4,0,0.5,0C223.9,25.6,223.7,25.5,223.4,25.6z
				 M220.8,25.1c0.3,0,0.7-0.1,1,0C221.5,25.2,221.1,25.2,220.8,25.1z M190.7,19.8c-0.3,0-1.1,0.1-1,0c0.3,0.1,0.7,0,0.7-0.1
				C190.6,19.7,190.7,19.8,190.7,19.8z M214.9,25.4c-0.6-0.1,1.1-0.3,1-0.1C215.4,25.2,215.4,25.4,214.9,25.4z M188.9,19.8
				c-0.6,0-1.8,0.1-1.9-0.1c0.8,0.1,0.4-0.1,0.7-0.2c0.4,0.1,0.2,0.2,0.3,0.2C188.3,19.7,188.9,19.7,188.9,19.8z M185.6,19.8
				c0.3,0,0.6,0,0.9,0C186.5,20,185.1,19.9,185.6,19.8z M214.8,27.1c0.4,0,0.7,0,1.1,0C215.5,27.2,215.1,27.2,214.8,27.1z
				 M212.8,27.2c-0.3,0.2-0.5,0-0.9,0c0.3,0.1-0.3,0.2-0.5,0.3c-0.5-0.1,0.7-0.2,0.2-0.3c-0.1,0-0.1,0.1-0.4,0.1
				c-0.2,0-0.8-0.1-0.6-0.1c0.6,0.1,3-0.3,2.4,0c0.4,0,1.5-0.1,1.5,0.1C214.2,27.3,213,27.3,212.8,27.2z M212.1,27.4
				c0.6-0.1,1.1-0.1,1.6,0C213.2,27.4,212.6,27.5,212.1,27.4z M178.3,20.1c-0.5-0.1-1.5,0.1-1.6,0C177.2,20.1,178.2,19.9,178.3,20.1
				z M210.1,27.5c-0.1,0-0.4-0.1-0.3-0.1c0.5,0.1,0.8,0.1,1-0.1C211.1,27.5,210.5,27.5,210.1,27.5z M208.1,27.3
				c-0.2-0.1-0.5,0-0.7-0.1C207.7,27.1,208.4,27.2,208.1,27.3z M208.8,27.7c-0.3,0-0.4-0.1-0.2-0.1c0.1,0,0.3,0.1,0.4,0
				c0.1,0,0.2,0,0.3,0C209.2,27.7,209,27.7,208.8,27.7z M172.9,20.1c0.1,0,0.1-0.1,0.4-0.1c0.2,0.1,0.5,0,0.7,0.1
				C173.6,20.1,173.2,20.2,172.9,20.1z M204.2,27.3c0.1,0-0.5-0.1-0.5-0.1c-0.1,0,0,0.1-0.1,0.1c-0.6,0-0.7-0.1-0.3-0.2
				c0.6,0,1.2,0,1.7,0.1C204.5,27.2,204.4,27.3,204.2,27.3z M170.9,19.9c0.1,0,0.3,0.1,0.4,0.1C171,20.1,170.4,20,170.9,19.9z
				 M201.4,27.1c-0.3,0-0.7,0-1,0C200.7,27,201.1,27.1,201.4,27.1C201.3,27.1,201.3,27.1,201.4,27.1z M166.1,20.2
				c-0.2,0-0.5,0-0.7-0.1c0.2,0-0.1-0.2,0.4-0.1c-0.2,0.1,0,0.1,0.3,0.1c-0.1,0-0.1-0.1,0-0.1c0.2,0,0.4,0,0.6,0
				C166.1,20.1,166.6,20.1,166.1,20.2z M198.1,27.3c-0.5,0-1.5,0-1.6-0.1c0.3,0,0.7,0,1,0c-0.2,0-0.4,0-0.5-0.1
				c0.3,0,0.8-0.1,0.8-0.1C197.9,27.1,198,27.2,198.1,27.3z M163.9,20.2c0.2,0,0.1-0.1,0.4-0.1C164.5,20.1,164.4,20.2,163.9,20.2z
				 M195.8,27.2c-0.5-0.1-0.4-0.2-0.3-0.3c0.1,0,0.3,0,0.4,0C195.7,27,196.4,27.1,195.8,27.2z M163,20.1c0.3-0.1,0.5-0.1,0.8,0
				C163.5,20.1,163.2,20.1,163,20.1z M194.4,27.2c0.6,0,1.2,0,1.7,0c-0.6,0-0.8,0.1-1.2,0.1c0.1,0,0,0-0.1-0.1
				C194.7,27.3,194.5,27.3,194.4,27.2z M193.5,27.2c0.1,0-0.1-0.1-0.1-0.1c0.6-0.1,1.2-0.1,1.9,0c-0.4,0.1-0.1,0.1-0.5,0.2
				C194.4,27.2,194,27.2,193.5,27.2z M160.2,20.2c0.4-0.1,0.7-0.1,0.6-0.2c0.3,0.1,0.7,0,1,0c-0.6,0.1,0.3,0.1,0,0.2
				C161.2,20.1,160.7,20.2,160.2,20.2z M192.7,27.4c-0.2,0-0.1-0.1-0.3-0.1c-0.1,0-0.1,0-0.1,0.1c-0.5-0.1-0.2-0.1,0.1-0.1
				c0.1,0,0.3,0.1,0.4,0c-0.1,0,0.1-0.1,0.2-0.1c0.1,0,0.2,0,0.3,0.1C192.8,27.3,192.9,27.3,192.7,27.4z M191.3,27.1
				c-0.4,0-0.7,0-1.1,0C190.6,27,191.3,26.9,191.3,27.1z M188.8,27.2c-0.3,0-0.7,0.1-1,0c0.3-0.1,0.6,0,0.9,0c-0.1,0-0.2,0-0.1-0.1
				C188.8,27.2,188.8,27.2,188.8,27.2z M186.4,27c0.4,0,0.7,0,1.1,0.1C187.1,27.2,186.3,27.1,186.4,27z M186.6,27
				c-0.1,0-0.2,0-0.3,0c-0.3,0-0.4-0.1-0.2-0.1C186.3,26.9,186.4,26.9,186.6,27C186.5,26.9,186.7,27,186.6,27z M184.1,27
				c0.6-0.1,1.2-0.1,1.7,0C185.3,27,184.7,26.9,184.1,27z M183.7,27.2c0.2-0.1,0.9-0.1,1.4-0.1C184.7,27.2,184.2,27.3,183.7,27.2z
				 M181.1,26.9c-0.1,0,0-0.1-0.3-0.1c0.5-0.1,1-0.1,1.4,0C181.6,26.8,181.1,26.8,181.1,26.9z M174.6,27.1c0.3-0.1-0.3,0-0.4-0.1
				c0.2-0.1,0.9,0,0.7,0.1C174.7,27.1,174.8,27.2,174.6,27.1z M129.8,27c-0.3,0-0.6,0-0.8-0.1c0.5-0.1,0.9-0.1,1.3-0.1
				c0.1,0,0.2,0,0.3,0.1C129.9,26.9,130,26.9,129.8,27z M126.2,26.9c0.5,0.1,1.1-0.1,1,0.1C126.9,26.9,126.1,27,126.2,26.9z
				 M84.8,20.4c1-0.1-1.1,0,0.1-0.3c0.4,0.1,0.2,0.1,0.7,0.1C85.5,20.3,85.3,20.5,84.8,20.4z M86,20.1c0.1,0,0.3,0.1,0.4,0
				c0.2,0,0-0.2,0.5-0.2c0.1,0.1-0.2,0.1,0.1,0.1c-0.6,0-0.6,0.2-1.1,0.2C85.7,20.3,85.5,20.2,86,20.1z M115.5,27
				c-0.3,0.1-0.7,0-1,0c0-0.1,0.5,0,0.8-0.1C115.7,26.9,115.3,26.9,115.5,27z M83.2,20.4c-0.3-0.1-0.1-0.1-0.2-0.2
				c0.3,0,0.6-0.1,0.9,0C83.5,20.3,83.5,20.3,83.2,20.4z M113.2,26.9c0.5,0,0.4-0.1,0.9,0C114.2,26.9,113.1,27,113.2,26.9z
				 M82.8,20.4c-0.2,0-0.4,0-0.7,0c0.1-0.1,0.2-0.1,0.5-0.1C82.5,20.3,82.7,20.3,82.8,20.4z M81.2,27.3c0.4,0.1,0.8-0.1,1.2,0
				C82.1,27.4,81.2,27.4,81.2,27.3z M79.5,27.3c0.5,0,1.1,0,1.6,0C80.6,27.4,80,27.4,79.5,27.3z M78.7,27.4c0.2,0,0.3-0.1,0.5-0.1
				c0.1,0,0.2,0,0.3,0.1C79.2,27.5,79,27.4,78.7,27.4z M44.3,23.8c-0.3-0.1-0.1-0.1,0.3-0.2c0.5-0.1,1.3,0,2.1-0.1
				c0.1,0,0.3,0.1,0.2,0.1C46.3,23.6,45.2,23.7,44.3,23.8z M41.4,23.8c-0.2,0-0.3-0.1-0.2-0.1c0.7,0,1.5-0.1,2.2-0.1
				C42.7,23.7,42.1,23.7,41.4,23.8z M58.8,27.7c0.1-0.1,0.9-0.2,1.3-0.1C59.7,27.7,59.3,27.6,58.8,27.7z M38.1,24
				c1-0.1,1.8-0.1,2.3-0.3c0.1,0,0.3,0.1,0.4,0.1C40.1,23.8,39.3,24.1,38.1,24z M51.1,28.3c-0.2,0-0.4,0.1-0.6,0.1
				c-0.5-0.1,0.4-0.2-0.4-0.3c0.4,0,0.8-0.1,1.2,0C50.6,28,50.4,28.2,51.1,28.3z M30.1,23.8c-0.3-0.1,0.1-0.1,0-0.2
				c0.2,0,0.5,0,0.7,0.1C30.6,23.8,30.3,23.8,30.1,23.8z M34.1,25.6c-0.3,0-0.5,0.1-0.7,0.2c-0.5,0-0.1-0.1-0.2-0.1
				c-0.1,0-0.2,0-0.3,0c0.5,0,1,0,0.8-0.1C33.9,25.5,34.1,25.5,34.1,25.6z M38,27.7c0.2,0.1,0.5-0.1,0.8,0
				C38.6,27.8,37.8,27.7,38,27.7z M35,27.6c0.6-0.1,1.1-0.1,1.6,0C36.1,27.6,35.5,27.7,35,27.6z M32.8,27.6c0.3,0,0.6-0.1,0.9,0
				C33.4,27.6,33.1,27.6,32.8,27.6z M32.9,28c-0.3-0.1-0.4-0.1-0.4,0c-0.5-0.1,0.5-0.2,0.7-0.1C33,27.9,33,28,32.9,28z M13.7,27.1
				c0-0.1,0.6-0.1,0.9-0.1C14.6,27,14,27.1,13.7,27.1z"/>
			<path class="st1" d="M269.2,27.9C269.4,27.9,268.9,27.9,269.2,27.9c-1.3,0.1-2.5,0-3.7,0c1,0.1,2,0.1,3,0.1
				c0.1,0-0.1-0.1-0.2-0.1C268.6,28,268.9,27.9,269.2,27.9z"/>
			<path class="st1" d="M344.2,20.9c-0.3-0.1-0.7,0-1.1,0C343.5,21,343.9,21,344.2,20.9z"/>
			<path class="st1" d="M324.6,21.3c0.3,0,0.2-0.1,0.4-0.1c-0.2,0-0.4,0-0.6,0.1c0,0,0-0.1-0.2-0.1
				C323.9,21.2,324.3,21.2,324.6,21.3z"/>
			<path class="st1" d="M340.2,24.5c0.5,0-0.7,0-0.6-0.1c-0.2,0-0.1,0.1-0.1,0.1C339.9,24.6,339.7,24.5,340.2,24.5z"/>
			<path class="st1" d="M333.3,23.2c0.3,0,0.3-0.1,0-0.1c0,0.1-0.3,0.1-0.6,0.1C332.6,23.2,333.2,23.2,333.3,23.2z"/>
			<path class="st1" d="M334.5,23.7c0,0-0.2,0.1,0.1,0.1c0.3,0,0.4-0.1,0.5-0.1c-0.2,0-0.4,0.1-0.7,0
				C334.3,23.7,334.5,23.7,334.5,23.7z"/>
			<path class="st1" d="M319.5,20.6c-0.4-0.1-0.3,0.1-0.5,0.1c-0.3,0,0-0.1-0.4-0.1c-0.6,0.1-1.2,0.1-1.7,0c-0.1,0-0.1,0.1-0.2,0.1
				c0.5-0.1,1.5-0.1,2.3,0C319.2,20.6,319.5,20.6,319.5,20.6z"/>
			<path class="st1" d="M335.5,24.2c-1.3,0-2.2,0-3.5,0.1c0.2,0,0.5,0,0.3,0.1c0.5,0,0.3,0,0.8-0.1c-0.1,0.1,1.6,0,1.2,0.1
				C334.5,24.5,335.2,24.3,335.5,24.2z"/>
			<path class="st1" d="M313.9,19.8c-0.3-0.1-1.6-0.1-2.3,0C312.4,19.8,313.2,19.8,313.9,19.8z"/>
			<path class="st1" d="M349.3,27.9c0-0.1,0.4,0,0.7-0.1c-0.7,0-0.7,0-1,0.1C348.8,27.9,349.1,27.9,349.3,27.9z"/>
			<path class="st1" d="M332.6,24.2c-0.4,0-0.8,0-1.2,0.1C331.8,24.4,332.2,24.2,332.6,24.2z"/>
			<path class="st1" d="M315.1,21c0.3,0,0-0.1,0.1-0.1c-0.2,0-0.5,0-0.8,0C314.2,20.9,314.9,20.8,315.1,21z"/>
			<path class="st1" d="M338.3,26.7C338.2,26.7,338.4,26.7,338.3,26.7c-0.1,0.1-0.3,0.1-0.6,0.1c0.4,0,0.8,0.1,1.3,0
				C338.7,26.7,338.5,26.8,338.3,26.7z"/>
			<path class="st1" d="M326.5,25.3c-0.6,0.1-0.5-0.1-1.1-0.1c-0.3,0.1-0.2,0.1-0.5,0.2C325.4,25.4,326.3,25.4,326.5,25.3z"/>
			<path class="st1" d="M302.9,20.5c0.2,0.1-0.6,0-0.5,0.1c0.2,0.1,0.5-0.1,0.8,0c-0.1-0.1,0.5-0.1,0.1-0.3c-0.3,0-0.6,0.1-0.9,0
				C302.1,20.5,302.7,20.5,302.9,20.5z"/>
			<path class="st1" d="M300.9,20.4c-0.5-0.1-1,0.1-1.5-0.1c-0.4,0.1,0.3,0.1,0.1,0.1C300,20.5,300.4,20.5,300.9,20.4z"/>
			<path class="st1" d="M298.6,20.5c0.2,0,0.1,0.1,0.3,0.1c0.6,0,1.2,0,1.8,0c-0.1-0.2-1.1,0-1.6-0.2c-0.4,0.1-0.7,0-1.1-0.1
				c-0.6,0-0.7,0.1-1.2,0.1c0.2,0,0.4,0,0.6,0c0.3,0,0-0.1,0.1-0.1c0.1,0,0.2,0,0.3,0c0.1,0-0.3,0.1,0.2,0.1
				C298.5,20.6,298.6,20.6,298.6,20.5z"/>
			<path class="st1" d="M327,28.9c0.1,0,0,0-0.1,0c-0.2,0-0.3-0.1-0.2-0.1c-0.2,0-0.4,0-0.6,0.1C326.4,28.9,326.7,28.9,327,28.9z"/>
			<path class="st1" d="M316.6,28.2c0.2-0.1-1.4-0.2-1.9-0.1c0.2,0,0.9-0.1,0.6,0C315.7,28.3,316.2,28.1,316.6,28.2z"/>
			<path class="st1" d="M311.2,27.8c-0.4,0-0.6-0.2-1.3-0.1c0.1,0.2,1.2,0,1,0.2C311.4,27.9,310.7,27.9,311.2,27.8z"/>
			<path class="st1" d="M290.6,24.5c0.2-0.1-0.4,0-0.5-0.1c-0.2,0-0.1,0.1-0.3,0.1c-0.1,0-0.1,0,0,0c0.1,0,0.1,0,0.2,0
				c-0.1,0,0.6-0.2,0.3-0.1C290.4,24.5,290.3,24.4,290.6,24.5z"/>
			<path class="st1" d="M298.9,27.5c0-0.1-0.9-0.1-1.3-0.1c0.2-0.1-0.7-0.2-1-0.3c0,0.1,0.3,0.2,0.5,0.4c0.1-0.2,0.7,0,1.4,0
				C298.5,27.5,298.7,27.5,298.9,27.5z"/>
			<path class="st1" d="M295.5,27.1c-0.1-0.1-1.2-0.1-1.7-0.1c-0.3,0.1,0.8,0,0.4,0.1C294.3,27.1,295,27,295.5,27.1z"/>
			<path class="st1" d="M296.5,27.5c0.4-0.1,0-0.1-0.2,0c-0.2,0-0.2-0.1-0.1-0.1c-0.2,0-0.4,0-0.5,0c0.2,0,0.3,0.2-0.3,0.1
				c-0.1,0,0.2,0.1,0.3,0.1C295.9,27.4,296.2,27.4,296.5,27.5z"/>
			<path class="st1" d="M290.9,27.3c0.2,0,0.4,0,0.5,0c0.4,0-0.1-0.1,0.4-0.1C291.5,27.2,291.5,27.2,290.9,27.3z"/>
			<path class="st1" d="M285.9,28.2c0.1-0.1,0.2,0,0.5-0.1c-0.4-0.1,0.3-0.1-0.3-0.2c-0.1,0-0.2,0-0.3,0.1c0.2,0.1,0.4,0.1-0.2,0.1
				C285.2,28.1,285.9,28.1,285.9,28.2z"/>
			<path class="st1" d="M278.3,26.6c0.3,0,0.1-0.1-0.1,0c-0.1,0,0.1-0.1,0.2-0.1c-0.3,0-0.8,0.1-0.5,0.2
				C278,26.6,278.2,26.6,278.3,26.6z"/>
			<path class="st1" d="M266.3,23.9c-0.1,0-0.2,0-0.1,0c-0.3,0.1-0.6-0.1-1,0C265.6,24,265.9,23.9,266.3,23.9
				C266.4,23.9,266.2,23.9,266.3,23.9z"/>
			<path class="st1" d="M274.3,28.2c0.4,0.1,0.8,0.1,1.3,0.1c-0.5-0.1-1-0.1-1.5-0.2c-0.3,0.1-1,0.1-1.6,0.1
				C272.6,28.2,274.1,28.3,274.3,28.2z"/>
			<path class="st1" d="M272.9,28.1c-0.6,0-1.2,0.1-1.7,0c-0.2,0.2-1.7-0.1-2.5,0c0,0,0.2,0.1,0.1,0.1c0.5,0,1-0.1,1.4,0
				c0.7-0.1,1.4,0,2.1,0c0.1,0-0.2-0.1-0.3-0.1C272.2,28.1,272.5,28.2,272.9,28.1z"/>
			<path class="st1" d="M274,28.6c-0.1-0.2-2.6-0.2-3.1-0.1C271.9,28.4,273.4,28.4,274,28.6z"/>
			<path class="st1" d="M265.9,28.2c-0.4,0-0.9,0-1.3-0.1C264.6,28.3,265.5,28.3,265.9,28.2z"/>
			<path class="st1" d="M260,28.1c-0.7-0.1-2.3-0.1-3.4-0.1c0.4,0.1,0.9,0,1.1,0.1c0.1-0.2,0.9,0,1.3-0.1c0.4,0.1-0.3,0.1,0.3,0.2
				C259.2,28.1,259.5,28.1,260,28.1z"/>
			<path class="st1" d="M260.2,28.3c0-0.1-0.9,0-1.3-0.1c-0.2,0.1,0.4,0,0.5,0.1C259.8,28.3,259.7,28.3,260.2,28.3z"/>
			<path class="st1" d="M256.5,28c-0.7-0.1-1.5-0.1-2.3-0.1C254.5,28.2,255.7,28,256.5,28z"/>
			<path class="st1" d="M244.8,27.7c-0.3,0-0.6,0-1.2,0c0.1,0,0.2,0,0.3,0.1C244.2,27.7,244.5,27.8,244.8,27.7z"/>
			<path class="st1" d="M238.5,28c0.2,0,0.5-0.1,0.7-0.1c-0.5,0-0.6,0.1-1.2,0.1C237.7,28,238.4,28,238.5,28z"/>
			<path class="st1" d="M232.2,27.8c-0.1-0.2-0.7,0.1-1.2-0.1c0,0-0.1,0.1-0.2,0.1C231.3,27.9,231.8,27.8,232.2,27.8z"/>
			<path class="st1" d="M221.9,27.8c0.3,0,0.1-0.1-0.1,0c-0.2-0.1,0.1-0.1,0.1-0.1c-0.4,0-0.7,0.1-1.1,0c-0.5,0.2-1,0.1-1.7,0.1
				c-0.5,0,0.2,0.1-0.2,0.1c0.6-0.1,1.2,0,1.9,0c0.2,0,0.1,0.1,0.3,0.1C221.1,27.8,221.6,27.8,221.9,27.8z"/>
			<path class="st1" d="M204.2,27.6c-0.6-0.1-1.2,0.1-1.7,0c-0.1,0,0.2,0.1,0.3,0.1C203.3,27.5,203.7,27.7,204.2,27.6z"/>
			<path class="st1" d="M192.8,27.6c0-0.1-1.4-0.1-1.4,0C191.8,27.6,192.3,27.6,192.8,27.6z"/>
			<path class="st1" d="M182,27.1c-0.2,0.1-0.1,0.1-0.3,0.2c0.3,0,0.6,0,0.9,0c-0.2-0.1-0.4,0-0.7,0C181.8,27.2,182.7,27.2,182,27.1
				z"/>
			<path class="st1" d="M140,27.3c0.1-0.1-0.8,0-1.1-0.1c-0.1,0-0.1,0,0,0c0.1,0,0.1,0,0.2,0C139.5,27.2,139.7,27.3,140,27.3z"/>
			<path class="st1" d="M103,19.5c-0.6,0-1.2,0-1.8,0c-0.3,0.1-1.1,0.1-1.6,0c-0.1,0,0,0-0.1,0.1c0.1,0,0.1,0,0,0
				C100.6,19.6,101.8,19.6,103,19.5z"/>
			<path class="st1" d="M76.5,28c-0.6,0.1,0.1,0.1-0.5,0.2c0.1,0,0.2,0,0.3,0c0.1,0,0.2,0,0.2,0C76,28.1,77.1,28,76.5,28z"/>
			<path class="st1" d="M71.6,27.8c-0.6-0.1,0,0.2-0.6,0.1c-0.2,0.1,0.5,0.1,0.7,0C71.5,27.9,71.4,27.9,71.6,27.8z"/>
		</g>
	</g>
</g>
</svg>
