<svg xmlns="http://www.w3.org/2000/svg" viewBox="0 0 318.28 250.27"><defs><style>.cls-1{fill:#fff;opacity:0.44;}</style></defs><title>banner_start</title><g id="Calque_2" data-name="Calque 2"><g id="BODY"><g id="_1" data-name="1"><polygon class="cls-1" points="42.9 112.61 42.9 250.27 24.19 250.27 24.19 110.5 42.9 112.61"/><polygon class="cls-1" points="300.95 109.66 300.95 250.27 282.24 250.27 282.24 111.88 300.95 109.66"/><path class="cls-1" d="M154.85,46.1a6.36,6.36,0,0,0-4.51,1.82,6.08,6.08,0,0,0-1.8,4.35v6.63a0,0,0,0,0,0,0c4.2.06,8.42.08,12.63.07a0,0,0,0,0,0,0V52.39A6.36,6.36,0,0,0,154.85,46.1Zm0,0a6.36,6.36,0,0,0-4.51,1.82,6.08,6.08,0,0,0-1.8,4.35v6.63a0,0,0,0,0,0,0c4.2.06,8.42.08,12.63.07a0,0,0,0,0,0,0V52.39A6.36,6.36,0,0,0,154.85,46.1Zm0,0a6.36,6.36,0,0,0-4.51,1.82,6.08,6.08,0,0,0-1.8,4.35v6.63a0,0,0,0,0,0,0c4.2.06,8.42.08,12.63.07a0,0,0,0,0,0,0V52.39A6.36,6.36,0,0,0,154.85,46.1Zm49.54.35A5.42,5.42,0,0,0,200.32,45c-2.53.13-5.07.26-7.61.37a0,0,0,0,0,0,0v13.2a0,0,0,0,0,0,0l7.09-.34a6.49,6.49,0,0,0,4.35-2.08A6.59,6.59,0,0,0,206,51.73V50.29A5.21,5.21,0,0,0,204.39,46.45Zm0,0A5.42,5.42,0,0,0,200.32,45c-2.53.13-5.07.26-7.61.37a0,0,0,0,0,0,0v13.2a0,0,0,0,0,0,0l7.09-.34a6.49,6.49,0,0,0,4.35-2.08A6.59,6.59,0,0,0,206,51.73V50.29A5.21,5.21,0,0,0,204.39,46.45Zm-49.54-.35a6.36,6.36,0,0,0-4.51,1.82,6.08,6.08,0,0,0-1.8,4.35v6.63a0,0,0,0,0,0,0c4.2.06,8.42.08,12.63.07a0,0,0,0,0,0,0V52.39A6.36,6.36,0,0,0,154.85,46.1Zm0,0a6.36,6.36,0,0,0-4.51,1.82,6.08,6.08,0,0,0-1.8,4.35v6.63a0,0,0,0,0,0,0c4.2.06,8.42.08,12.63.07a0,0,0,0,0,0,0V52.39A6.36,6.36,0,0,0,154.85,46.1Zm49.54.35A5.42,5.42,0,0,0,200.32,45c-2.53.13-5.07.26-7.61.37a0,0,0,0,0,0,0v13.2a0,0,0,0,0,0,0l7.09-.34a6.49,6.49,0,0,0,4.35-2.08A6.59,6.59,0,0,0,206,51.73V50.29A5.21,5.21,0,0,0,204.39,46.45Zm0,0A5.42,5.42,0,0,0,200.32,45c-2.53.13-5.07.26-7.61.37a0,0,0,0,0,0,0v13.2a0,0,0,0,0,0,0l7.09-.34a6.49,6.49,0,0,0,4.35-2.08A6.59,6.59,0,0,0,206,51.73V50.29A5.21,5.21,0,0,0,204.39,46.45Zm-49.54-.35a6.36,6.36,0,0,0-4.51,1.82,6.08,6.08,0,0,0-1.8,4.35v6.63a0,0,0,0,0,0,0c4.2.06,8.42.08,12.63.07a0,0,0,0,0,0,0V52.39A6.36,6.36,0,0,0,154.85,46.1Zm0,0a6.36,6.36,0,0,0-4.51,1.82,6.08,6.08,0,0,0-1.8,4.35v6.63a0,0,0,0,0,0,0c4.2.06,8.42.08,12.63.07a0,0,0,0,0,0,0V52.39A6.36,6.36,0,0,0,154.85,46.1Zm49.54.35A5.42,5.42,0,0,0,200.32,45c-2.53.13-5.07.26-7.61.37a0,0,0,0,0,0,0v13.2a0,0,0,0,0,0,0l7.09-.34a6.49,6.49,0,0,0,4.35-2.08A6.59,6.59,0,0,0,206,51.73V50.29A5.21,5.21,0,0,0,204.39,46.45Zm0,0A5.42,5.42,0,0,0,200.32,45c-2.53.13-5.07.26-7.61.37a0,0,0,0,0,0,0v13.2a0,0,0,0,0,0,0l7.09-.34a6.49,6.49,0,0,0,4.35-2.08A6.59,6.59,0,0,0,206,51.73V50.29A5.21,5.21,0,0,0,204.39,46.45Zm-49.54-.35a6.36,6.36,0,0,0-4.51,1.82,6.08,6.08,0,0,0-1.8,4.35v6.63a0,0,0,0,0,0,0c4.2.06,8.42.08,12.63.07a0,0,0,0,0,0,0V52.39A6.36,6.36,0,0,0,154.85,46.1ZM318.26,6.81A6.66,6.66,0,0,0,311.57.22l-2.77,0Q294.9,2.1,281,3.61q-33.64,3.65-67.41,5.28l-.41,0A1127.94,1127.94,0,0,1,65.53,6.32Q55.41,5.47,45.3,4.45h0Q28.07,2.7,10.86.43L7.28,0A6.65,6.65,0,0,0,0,5.72V96.83a6.66,6.66,0,0,0,4.39,6.24l3.78.52,6.76.89,1.41.17q9,1.17,18.09,2.17a1129.26,1129.26,0,0,0,150.44,6.61q49.58-1.13,99-6.61,9.39-1,18.77-2.25h0q4.36-.56,8.73-1.16l2.26-.3a6.67,6.67,0,0,0,4-3.47,6.58,6.58,0,0,0,.65-2.87V9.68ZM231.35,33c10.24-1,20.6-2.16,30.79-3.53a4.87,4.87,0,1,1,1.31,9.65q-5.59.76-11.23,1.44a0,0,0,0,0,0,0V78.3A4.88,4.88,0,0,1,247,83.16a5,5,0,0,1-4.57-5V41.66s0,0,0,0c-3.39.36-6.78.7-10.15,1l-.46,0a4.87,4.87,0,0,1-.45-9.72ZM77.92,79.3a14,14,0,0,1-9.37,3.52,16.06,16.06,0,0,1-1.85-.11c-3.94-.48-7.93-1-11.87-1.52a4.87,4.87,0,1,1,1.31-9.66c3.89.53,7.83,1,11.73,1.49a4.5,4.5,0,0,0,3.59-1,4.57,4.57,0,0,0,1.46-3.49,7.26,7.26,0,0,0-6.22-6.87l-1.31-.16A17,17,0,0,1,50.61,44.78a14,14,0,0,1,4.66-10.64,14.18,14.18,0,0,1,11.29-3.38c3.89.48,7.84.92,11.74,1.34a4.87,4.87,0,0,1-1,9.68c-4-.41-8-.87-11.89-1.35a4.58,4.58,0,0,0-3.65,1,4.31,4.31,0,0,0-1.38,3.35,7.45,7.45,0,0,0,6.21,7l1.3.15a17,17,0,0,1,14.8,16.55A14.36,14.36,0,0,1,77.92,79.3ZM127.2,45.45H127q-5.21-.22-10.45-.5a0,0,0,0,0,0,0V81.7a5,5,0,0,1-4.57,5,4.86,4.86,0,0,1-5.17-4.86V44.36a0,0,0,0,0,0,0l-5.55-.39-5.49-.43a4.87,4.87,0,1,1,.8-9.71l5.74.45q3.52.26,7,.49l2.6.17c5.18.32,10.35.58,15.5.8a4.87,4.87,0,0,1-.19,9.74ZM171,83.33a4.87,4.87,0,0,1-5.17,4.86,5,5,0,0,1-4.57-5V68.76a0,0,0,0,0,0,0h-2c-3.53,0-7.07,0-10.59-.07a0,0,0,0,0,0,0V83A5,5,0,0,1,144,88.06a4.87,4.87,0,0,1-5.18-4.86V52.27A15.77,15.77,0,0,1,143.47,41,16.15,16.15,0,0,1,171,52.39Zm38.17,2.88A4.83,4.83,0,0,1,206,81.57a13,13,0,0,0-4-9.47,13.48,13.48,0,0,0-9.3-3.69,0,0,0,0,0,0,0v14.2a5,5,0,0,1-4.57,5,4.87,4.87,0,0,1-5.17-4.86V40.71a4.87,4.87,0,0,1,4.69-4.87c4-.15,8.12-.33,12.17-.55a15,15,0,0,1,11.29,4.09,14.59,14.59,0,0,1,2,2.39,12.67,12.67,0,0,1,.69,1.11,15,15,0,0,1,1.91,7.41v1.44A15.93,15.93,0,0,1,213.95,59c-.2.4-.43.8-.67,1.19a16.8,16.8,0,0,1-4.54,4.83l0,0a22.33,22.33,0,0,1,4.61,6.27c.25.5.48,1,.69,1.53a23.26,23.26,0,0,1,1.68,8.74,4.86,4.86,0,0,1-1.58,3.59,4.63,4.63,0,0,1-.67.51A4.93,4.93,0,0,1,209.13,86.2ZM200.32,45c-2.53.13-5.07.26-7.61.37a0,0,0,0,0,0,0v13.2a0,0,0,0,0,0,0l7.09-.34a6.49,6.49,0,0,0,4.35-2.08A6.59,6.59,0,0,0,206,51.73V50.29a5.21,5.21,0,0,0-1.6-3.84A5.42,5.42,0,0,0,200.32,45ZM154.85,46.1a6.36,6.36,0,0,0-4.51,1.82,6.08,6.08,0,0,0-1.8,4.35v6.63a0,0,0,0,0,0,0c4.2.06,8.42.08,12.63.07a0,0,0,0,0,0,0V52.39A6.36,6.36,0,0,0,154.85,46.1Zm0,0a6.36,6.36,0,0,0-4.51,1.82,6.08,6.08,0,0,0-1.8,4.35v6.63a0,0,0,0,0,0,0c4.2.06,8.42.08,12.63.07a0,0,0,0,0,0,0V52.39A6.36,6.36,0,0,0,154.85,46.1Zm49.54.35A5.42,5.42,0,0,0,200.32,45c-2.53.13-5.07.26-7.61.37a0,0,0,0,0,0,0v13.2a0,0,0,0,0,0,0l7.09-.34a6.49,6.49,0,0,0,4.35-2.08A6.59,6.59,0,0,0,206,51.73V50.29A5.21,5.21,0,0,0,204.39,46.45Zm0,0A5.42,5.42,0,0,0,200.32,45c-2.53.13-5.07.26-7.61.37a0,0,0,0,0,0,0v13.2a0,0,0,0,0,0,0l7.09-.34a6.49,6.49,0,0,0,4.35-2.08A6.59,6.59,0,0,0,206,51.73V50.29A5.21,5.21,0,0,0,204.39,46.45Zm-49.54-.35a6.36,6.36,0,0,0-4.51,1.82,6.08,6.08,0,0,0-1.8,4.35v6.63a0,0,0,0,0,0,0c4.2.06,8.42.08,12.63.07a0,0,0,0,0,0,0V52.39A6.36,6.36,0,0,0,154.85,46.1Zm0,0a6.36,6.36,0,0,0-4.51,1.82,6.08,6.08,0,0,0-1.8,4.35v6.63a0,0,0,0,0,0,0c4.2.06,8.42.08,12.63.07a0,0,0,0,0,0,0V52.39A6.36,6.36,0,0,0,154.85,46.1Zm49.54.35A5.42,5.42,0,0,0,200.32,45c-2.53.13-5.07.26-7.61.37a0,0,0,0,0,0,0v13.2a0,0,0,0,0,0,0l7.09-.34a6.49,6.49,0,0,0,4.35-2.08A6.59,6.59,0,0,0,206,51.73V50.29A5.21,5.21,0,0,0,204.39,46.45Zm0,0A5.42,5.42,0,0,0,200.32,45c-2.53.13-5.07.26-7.61.37a0,0,0,0,0,0,0v13.2a0,0,0,0,0,0,0l7.09-.34a6.49,6.49,0,0,0,4.35-2.08A6.59,6.59,0,0,0,206,51.73V50.29A5.21,5.21,0,0,0,204.39,46.45Zm-49.54-.35a6.36,6.36,0,0,0-4.51,1.82,6.08,6.08,0,0,0-1.8,4.35v6.63a0,0,0,0,0,0,0c4.2.06,8.42.08,12.63.07a0,0,0,0,0,0,0V52.39A6.36,6.36,0,0,0,154.85,46.1Zm0,0a6.36,6.36,0,0,0-4.51,1.82,6.08,6.08,0,0,0-1.8,4.35v6.63a0,0,0,0,0,0,0c4.2.06,8.42.08,12.63.07a0,0,0,0,0,0,0V52.39A6.36,6.36,0,0,0,154.85,46.1Zm0,0a6.36,6.36,0,0,0-4.51,1.82,6.08,6.08,0,0,0-1.8,4.35v6.63a0,0,0,0,0,0,0c4.2.06,8.42.08,12.63.07a0,0,0,0,0,0,0V52.39A6.36,6.36,0,0,0,154.85,46.1Zm0,0a6.36,6.36,0,0,0-4.51,1.82,6.08,6.08,0,0,0-1.8,4.35v6.63a0,0,0,0,0,0,0c4.2.06,8.42.08,12.63.07a0,0,0,0,0,0,0V52.39A6.36,6.36,0,0,0,154.85,46.1Zm0,0a6.36,6.36,0,0,0-4.51,1.82,6.08,6.08,0,0,0-1.8,4.35v6.63a0,0,0,0,0,0,0c4.2.06,8.42.08,12.63.07a0,0,0,0,0,0,0V52.39A6.36,6.36,0,0,0,154.85,46.1Z"/></g></g></g></svg>