<?xml version="1.0" encoding="utf-8"?>
<!-- Generator: Adobe Illustrator 24.1.1, SVG Export Plug-In . SVG Version: 6.00 Build 0)  -->
<svg version="1.1" id="Calque_1" xmlns="http://www.w3.org/2000/svg" xmlns:xlink="http://www.w3.org/1999/xlink" x="0px" y="0px"
	 viewBox="0 0 315.8 214.6" style="enable-background:new 0 0 315.8 214.6;" xml:space="preserve">
<style type="text/css">
	.st0{opacity:0.1;fill:#63A0D7;enable-background:new    ;}
	.st1{opacity:0.7;}
	.st2{fill:url(#SVGID_1_);}
	.st3{fill:#BDBDBC;}
	.st4{opacity:0.1;}
	.st5{fill:#020203;}
	.st6{fill:#555562;}
	.st7{fill:url(#SVGID_2_);}
	.st8{opacity:0.6;fill:none;stroke:#555562;stroke-width:3;stroke-miterlimit:10;enable-background:new    ;}
	.st9{fill:#63A0D7;}
	.st10{fill:#4FB7AD;}
	.st11{opacity:0.3;fill:none;stroke:#555562;stroke-miterlimit:10;enable-background:new    ;}
	.st12{fill:#E0E0E0;}
	.st13{opacity:0.1;fill:#020203;enable-background:new    ;}
	.st14{fill:url(#SVGID_3_);}
	.st15{fill:#5BBA97;}
	.st16{fill:#5882C2;}
	.st17{fill:#EC6047;}
	.st18{opacity:0.25;fill:#020203;enable-background:new    ;}
</style>
<g>
	<path class="st0" d="M98.4,203.4c10.5,9.9,27,11.9,42.1,11.1c47.2-2.5,89.8-26.5,126.7-53.6c13.3-9.8,26.5-20.4,35.1-33.9
		c17.6-27.5,12.4-65.7-12.1-88.4c-8.3-7.7-18.5-13.6-28.8-18.9C242.9,10.3,223,2.8,202,0.7c-14.9-1.5-30.1-0.3-44.9,1.8
		C115.6,8.4,74.9,21.5,40.7,44c-15,9.8-29.1,22.1-35.3,38S3.2,118,18.5,127.4c6.3,3.9,13.9,5.7,21.3,7.3c10.9,2.4,22,4.8,31.8,9.8
		c10.2,5.1,22.2,15,20.2,26.3C89.6,182.9,87.9,193.5,98.4,203.4z"/>
	<g>
		<g>
			<g class="st1">
				
					<linearGradient id="SVGID_1_" gradientUnits="userSpaceOnUse" x1="271.999" y1="164.4083" x2="271.999" y2="316.8746" gradientTransform="matrix(1 0 0 -1 -114.28 350.2359)">
					<stop  offset="0" style="stop-color:#808181;stop-opacity:0.25"/>
					<stop  offset="0.54" style="stop-color:#808181;stop-opacity:0.12"/>
					<stop  offset="1" style="stop-color:#808181;stop-opacity:0.1"/>
				</linearGradient>
				<path class="st2" d="M240,33.4H75.4c-2.9,0-5.3,2.4-5.3,5.3V152c0,2.9,2.4,5.3,5.3,5.3H132v19.6h-2.6c-1.5,0-2.7,1.2-2.7,2.7
					c0,0,0,0,0,0v3.9h5.3v2.3h51.4v-2.3h5.3v-3.9c0-1.5-1.2-2.7-2.7-2.7c0,0,0,0,0,0h-2.4v-0.2h-0.2v-19.4H240
					c2.9,0,5.3-2.4,5.3-5.3V38.7C245.3,35.8,243,33.4,240,33.4z"/>
			</g>
			<rect x="132.5" y="154" class="st3" width="50.7" height="29.9"/>
			<g class="st4">
				<path class="st5" d="M133.5,156.9h48.8c0.6-2.6,1.1-4.2,1.1-4.2h-51C132.4,152.7,132.9,154.3,133.5,156.9z"/>
			</g>
			<path class="st6" d="M76.7,34.3h162.5c2.9,0,5.2,2.3,5.2,5.2v100.1l0,0H71.4l0,0V39.6C71.4,36.7,73.8,34.3,76.7,34.3L76.7,34.3z"
				/>
			<path class="st3" d="M239.1,155.9H76.7c-2.9,0-5.2-2.3-5.2-5.2v-11h172.9v11C244.3,153.6,242,155.9,239.1,155.9z"/>
			<circle class="st6" cx="157.9" cy="147.8" r="2.9"/>
			<path class="st3" d="M130,175.1h55.8c1.5,0,2.7,1.2,2.7,2.7v3.8l0,0h-61.1l0,0v-3.8C127.3,176.3,128.5,175.1,130,175.1
				C130,175.1,130,175.1,130,175.1z"/>
			<g class="st4">
				<rect x="132.7" y="174.9" class="st5" width="50.7" height="1"/>
			</g>
			<g class="st1">
				
					<linearGradient id="SVGID_2_" gradientUnits="userSpaceOnUse" x1="120.0404" y1="214.1741" x2="175.6195" y2="214.1741" gradientTransform="matrix(1 0 0 -1 -114.28 350.2359)">
					<stop  offset="0" style="stop-color:#808181;stop-opacity:0.25"/>
					<stop  offset="0.54" style="stop-color:#808181;stop-opacity:0.12"/>
					<stop  offset="1" style="stop-color:#808181;stop-opacity:0.1"/>
				</linearGradient>
				<path class="st7" d="M58.2,152.7H34.7L35,150c6.7-6,11-21.9,11-21.9c-0.1,0-0.2,0-0.3,0.1c-3.9,0.8-6.7,2.4-8.6,4.3l0.8-7
					c12.3-2.6,17.2-18.9,17.2-18.9c-7.8,1.7-12.7,4.4-15.8,7l1.2-10.3c8.3,2.9,16.9-12.3,16.9-12.3l-0.3-0.1l0.2-0.1L57,90.8
					c-9.2-2-14.1,3.3-15.7,5.5l0.1-1c-0.2,0.7-0.5,1.3-0.7,1.9l0,0v0c-0.7,1.8-1.2,3.5-1.8,5.2l0,0l0,0c-0.5,1.5-0.9,2.9-1.3,4.4v0
					c0,0-0.4-9.3-10.1-11.7c0,0,1,20.2,8.8,16.9l0,0c-0.7,2.9-1.3,5.7-1.8,8.5l0,0c-0.3,1.8-0.6,3.5-0.8,5.2l0,0.1l0,0l0,0.1l0,0
					l0,0c-0.2,1.5-0.4,3-0.6,4.5c0.1-2.8-0.4-10.9-9.9-18.5c0,0-12.7,22.3,8.9,26.7c0,0,0.1,0.1,0.1,0.1l0-0.1l0.2,0l0.1-1.1
					c-0.3,4.8-0.2,9.6,0.1,14.3l0,0c0,0.3,0,0.7,0.1,1H8.8c-9.1,18.8,5,29.1,5,29.1h39C68,162.6,58.2,152.7,58.2,152.7z M32.9,131.3
					L32.9,131.3L32.9,131.3z"/>
			</g>
			<path class="st8" d="M33.4,159.8c0,0-6.2-27,7.5-61.8"/>
			<path class="st9" d="M9.3,151.7h47.8c0,0,9.4,12-5.2,29.9H14.2C14.2,181.6,0.6,169.2,9.3,151.7z"/>
			<path class="st10" d="M40.2,99.8c0,0,4.7-8.5,16.1-5.9c0,0-9.4,16-17.9,10.8L40.2,99.8z"/>
			<path class="st10" d="M37.2,108.8c0,0-0.4-8.6-9.8-10.9c0,0,1,18.9,8.5,15.8L37.2,108.8z"/>
			<path class="st10" d="M34.1,121.6c0,0,1.7-9.1,19.9-13c0,0-5.8,18.7-20.8,18L34.1,121.6z"/>
			<path class="st10" d="M32.6,131.7c0,0,1.9-9.5-9.5-18.2c0,0-12.4,21,8.9,25L32.6,131.7z"/>
			<path class="st10" d="M32.3,144.7c0,0-1.3-13.4,13-16c0,0-5.2,18.7-13,22L32.3,144.7z"/>
			<path class="st11" d="M38.6,104.9c0,0,12.4-9.4,17.6-11.1"/>
			<path class="st11" d="M33.2,126.5c0,0,15-15.9,20.8-17.9"/>
			<path class="st11" d="M27.4,97.9c0,0,9.1,12.4,8.5,15.6"/>
			<path class="st11" d="M23.1,113.5c0,0,4.9,22.1,8.8,25"/>
			<path class="st11" d="M32.3,150.9c0,0,7.8-21.5,13-22.1"/>
			<g class="st4">
				<path class="st5" d="M57.1,151.7H9.3c-0.1,0.2-0.2,0.4-0.3,0.7h46.5c0,0,9.2,11.7-4.7,29.3h1.1
					C66.5,163.7,57.1,151.7,57.1,151.7z"/>
			</g>
			<rect y="181.5" class="st12" width="315.8" height="10.7"/>
			<rect x="13.4" y="192.2" class="st12" width="289" height="4.4"/>
			<rect x="13.4" y="192.2" class="st13" width="289" height="1.5"/>
			<g class="st1">
				
					<linearGradient id="SVGID_3_" gradientUnits="userSpaceOnUse" x1="380.402" y1="196.843" x2="412.2435" y2="196.843" gradientTransform="matrix(1 0 0 -1 -114.28 350.2359)">
					<stop  offset="0" style="stop-color:#808181;stop-opacity:0.25"/>
					<stop  offset="0.54" style="stop-color:#808181;stop-opacity:0.12"/>
					<stop  offset="1" style="stop-color:#808181;stop-opacity:0.1"/>
				</linearGradient>
				<path class="st14" d="M296.7,178L296.7,178c0.1-0.2,0.2-0.3,0.2-0.4l0-0.1c0.1-0.1,0.1-0.2,0.2-0.3l0-0.1
					c0.1-0.1,0.1-0.3,0.2-0.4l0,0c0.1-0.3,0.2-0.5,0.3-0.8l0-0.1c0-0.1,0.1-0.2,0.1-0.3l0-0.1c0-0.1,0-0.2,0.1-0.3
					c0-0.1,0-0.1,0-0.2c0-0.1,0-0.2,0-0.3c0-0.1,0-0.1,0-0.2c0-0.1,0-0.2,0-0.3c0,0,0-0.1,0-0.1c0-0.1,0-0.3,0-0.4v-26.8h-4.5v-13.2
					h-5.5v13.2h-3.8v-18.9h-5.5v18.9h-2.1v-21.6H271v21.6h-4.9v26.8c0,4.4,3.6,7.9,8.1,7.9h15.6c2.6,0,5-1.2,6.6-3.3l0,0
					C296.5,178.2,296.6,178.1,296.7,178z"/>
			</g>
			<rect x="271.6" y="137.7" class="st6" width="5.2" height="32.5"/>
			<rect x="271.6" y="127" class="st15" width="5.2" height="10.7"/>
			<rect x="278.8" y="140.3" class="st6" width="5.2" height="32.5"/>
			<rect x="278.8" y="129.6" class="st16" width="5.2" height="10.7"/>
			<rect x="287.6" y="145.8" class="st6" width="5.2" height="32.5"/>
			<rect x="287.6" y="135.1" class="st17" width="5.2" height="10.7"/>
			<path class="st9" d="M267.1,147.8H297l0,0v25.8c0,4.2-3.4,7.6-7.6,7.6h-14.6c-4.2,0-7.6-3.4-7.6-7.6V147.8L267.1,147.8z"/>
			<g class="st4">
				<path class="st5" d="M267.1,147.8v1.3h28.6v25.8c0,1.7-0.6,3.4-1.6,4.7c1.8-1.4,2.9-3.7,2.9-6v-25.8H267.1z"/>
			</g>
		</g>
		<path class="st9" d="M191.6,91.9c2.5-2.3,2.6-6.3,0.3-8.8c-0.1-0.1-0.2-0.2-0.3-0.3c-2.7-2.5-6.8-2.5-9.5,0l-16.7,17.4V55.3
			c-0.2-3.7-3.3-6.6-7-6.4c-3.5,0.2-6.3,2.9-6.4,6.4v44.9l-16.7-17.4c-2.7-2.5-6.8-2.5-9.5,0c-2.5,2.3-2.6,6.3-0.3,8.8
			c0.1,0.1,0.2,0.2,0.3,0.3l28.1,29c1.2,1.3,2.9,1.9,4.7,1.9h0.1c1.8,0,3.5-0.6,4.7-1.9L191.6,91.9L191.6,91.9z"/>
		<path class="st18" d="M191.6,91.9c2.5-2.3,2.6-6.3,0.3-8.8c-0.1-0.1-0.2-0.2-0.3-0.3c-2.7-2.5-6.8-2.5-9.5,0l-16.7,17.4V55.3
			c-0.2-3.7-3.3-6.6-7-6.4c-3.5,0.2-6.3,2.9-6.4,6.4v44.9l-16.7-17.4c-2.7-2.5-6.8-2.5-9.5,0c-2.5,2.3-2.6,6.3-0.3,8.8
			c0.1,0.1,0.2,0.2,0.3,0.3l28.1,29c1.2,1.3,2.9,1.9,4.7,1.9h0.1c1.8,0,3.5-0.6,4.7-1.9L191.6,91.9L191.6,91.9z"/>
	</g>
</g>
</svg>
