<?xml version="1.0" encoding="utf-8"?>
<!-- Generator: Adobe Illustrator 24.1.1, SVG Export Plug-In . SVG Version: 6.00 Build 0)  -->
<svg version="1.1" id="aa99ff36-6623-4fd3-8334-3402d1c0f727"
	 xmlns="http://www.w3.org/2000/svg" xmlns:xlink="http://www.w3.org/1999/xlink" x="0px" y="0px" viewBox="0 0 854.6 686"
	 style="enable-background:new 0 0 854.6 686;" xml:space="preserve">
<style type="text/css">
	.st0{fill:#3F3D56;}
	.st1{fill:#FF7700;}
	.st2{fill:#A0616A;}
	.st3{fill:#2F2E41;}
</style>
<rect x="33.6" y="600" class="st0" width="821" height="9.1"/>
<rect x="33.6" y="676.9" class="st0" width="821" height="9.1"/>
<path class="st0" d="M100.8,606.1c0.5-0.8,45.7-78.2-15.1-241.9C60.2,296,54.7,222,69.8,150.8c11.4-53.7,30.8-87.4,31-87.8l3.7,2.1
	c-0.8,1.3-75.8,133.6-14.8,297.5c32.2,86.5,34.5,148.6,30.9,185.4c-4,40.1-15.6,59.4-16.1,60.2L100.8,606.1z"/>
<circle class="st0" cx="128.3" cy="27.8" r="27.8"/>
<circle class="st0" cx="40.6" cy="130.4" r="27.8"/>
<circle class="st1" cx="100.5" cy="198.8" r="27.8"/>
<circle class="st1" cx="27.8" cy="256.6" r="27.8"/>
<circle class="st0" cx="121.9" cy="346.4" r="27.8"/>
<path class="st0" d="M32.1,489.6c83.4,51.3,55.6,119.7,55.6,119.7L32.1,489.6z"/>
<path class="st0" d="M232.4,536c-97.9-0.6-110.6,72.1-110.6,72.1L232.4,536z"/>
<circle class="st2" cx="718.1" cy="387.5" r="41"/>
<path class="st3" d="M688,345.7c-3.4,5.1,0.6,21.1,2.2,26.6c2.6,8.8,8,17.2,16.2,21.4c2.3,1.2,4.8,2,6.6,3.9
	c5,5.2,1.8,15.5,7.8,19.4c1.9,1.3,4.3,1.5,6.6,1.6c6,0.2,11.9-0.5,17.7-2.1c3.3-0.9,6.6-2,10-1.4c3.3,0.7,6.3,4.1,5.1,7.3
	c7.3-9.9,10.2-22.2,8.2-34.3c-0.9-4.5-2.2-8.9-3.8-13.1c-2.8-7.8-6-15.6-10.8-22.4c-4.7-6.8-11.2-12.7-19-15.5
	c-7.6-2.7-16-2.4-23.9-0.5C705.5,337.8,691.1,341,688,345.7z"/>
<path class="st2" d="M599.1,391.5c-15,30,0,98,0,98l9,65l25,67c0,0,32,58,51,48s-30-50-30-50l-10-118l-2-65c0,0,11-21,12-53
	c0.7-23-18.2-35.2-28.9-40.2c-5.8-2.8-12.6-3.2-18.7-1C581.8,351.3,599.1,391.5,599.1,391.5z"/>
<path class="st2" d="M416.1,445.5l4,37c-32,4-105,60-105,60l-39,11l-4,24l23,31l10-17c0,0,79-34,139-54s43-92,43-92H416.1z"/>
<path class="st2" d="M378.1,433.5c0,0-102,82-125,88s-77,69-77,69l-19-45c0,0,43-29,61-56s88-67,88-67l21.2-34.8L378.1,433.5z"/>
<path class="st1" d="M466.4,258c-9.1-1.4-11.5-1-12.3,8.9c-0.6,6.8,1,13.6,2.5,20.1c1.8,7.6,3.5,15.2,5.8,22.7
	c2.1,7.1,4.7,14.2,7.2,21.2c4,11.1,8,22.1,12,33.2c0.8,2.6,2,5,3.6,7.2c2.1,2.5,5.3,4,8.4,5.2c31.6,12.7,68.3,11.9,97.3,29.9
	c6.8,4.3,13.1,9.5,20.5,12.6c11.7,4.9,24.9,4,37.5,3c4-0.1,7.9-0.8,11.7-2c2.8-1,5.5-2.5,7.8-4.3c9-6.7,15.1-16.9,18.1-27.7
	s3.1-22.3,1.5-33.4c-0.3-3.2-1.1-6.3-2.3-9.2c-1.9-4.2-5.3-7.6-8.8-10.6c-5.3-4.3-11-8.1-17-11.5c-22-13.2-44.9-25-68.4-35.3
	c-16.8-7.4-34-14-52-18c-7.7-1.7-15.5-2.9-23.3-4.2C499.5,263.2,482.9,260.6,466.4,258z"/>
<path class="st2" d="M629.1,391.5c-15,30,0,98,0,98l9,65l25,67c0,0,32,58,51,48s-30-50-30-50l-10-118l-2-65c0,0,11-21,12-53
	c0.7-23-18.2-35.2-28.9-40.2c-5.8-2.8-12.6-3.2-18.7-1C611.8,351.3,629.1,391.5,629.1,391.5z"/>
<path class="st3" d="M485.1,371.5c14,22,4,87,4,87l-77-4c0,0-30-95-34-150s84.8-47,84.8-47L485.1,371.5z"/>
<path class="st3" d="M422.1,397.5l-44,45l-59-42c0,0,36-55,48-83s34-42,34-42L422.1,397.5z"/>
<path class="st3" d="M291.1,553.5c1-5-34-8-34-8s-5,57-9,69s3,47,20,48s13-25,13-25c5.3-10.6,12-20.3,20-29c13-14-6-21-6-21
	C285.1,583.5,290.1,558.5,291.1,553.5z"/>
<path class="st3" d="M172.1,538.5c0,0-17-4-27-4s-9,31-9,31s0,31-3,39s7,47,24,44s11-33,11-33s16-23,21-31s-13-17-13-17
	C168.1,566.5,172.1,538.5,172.1,538.5z"/>
<rect x="729.6" y="617.9" class="st1" width="29" height="50.6"/>
</svg>
