<?xml version="1.0" encoding="utf-8"?>
<!-- Generator: Adobe Illustrator 24.1.1, SVG Export Plug-In . SVG Version: 6.00 Build 0)  -->
<svg version="1.1" id="Calque_1" xmlns="http://www.w3.org/2000/svg" xmlns:xlink="http://www.w3.org/1999/xlink" x="0px" y="0px"
	 viewBox="0 0 307 229.6" style="enable-background:new 0 0 307 229.6;" xml:space="preserve">
<style type="text/css">
	.st0{opacity:0.1;fill:#63A0D7;enable-background:new    ;}
	.st1{fill:#E8EAED;}
	.st2{opacity:0.5;fill:#57B46A;enable-background:new    ;}
	.st3{opacity:0.5;fill:#63A0D7;enable-background:new    ;}
	.st4{opacity:0.8;fill:#57B46A;enable-background:new    ;}
	.st5{opacity:0.8;fill:#63A0D7;enable-background:new    ;}
	.st6{fill:#63A0D7;}
	.st7{fill:#F3F5F6;}
	.st8{opacity:0.1;fill:#020203;enable-background:new    ;}
	.st9{fill:none;stroke:#555562;stroke-width:2;stroke-miterlimit:10;}
	.st10{opacity:0.25;fill:#020203;enable-background:new    ;}
	.st11{opacity:0.8;}
	.st12{opacity:0.5;}
	.st13{fill:#FFFFFF;}
	.st14{fill:#FFD13B;}
	.st15{fill:#66627D;}
	.st16{fill:#9E9CB5;}
	.st17{fill:url(#SVGID_1_);}
	.st18{fill:url(#SVGID_2_);}
	.st19{fill:url(#SVGID_3_);}
	.st20{opacity:0.1;}
	.st21{fill:url(#SVGID_4_);}
	.st22{fill:url(#SVGID_5_);}
	.st23{fill:url(#SVGID_6_);}
	.st24{fill:url(#SVGID_7_);}
	.st25{fill:url(#SVGID_8_);}
	.st26{fill:url(#SVGID_9_);}
	.st27{fill:url(#SVGID_10_);}
	.st28{fill:url(#SVGID_11_);}
	.st29{fill:url(#SVGID_12_);}
	.st30{fill:url(#SVGID_13_);}
	.st31{fill:url(#SVGID_14_);}
	.st32{fill:url(#SVGID_15_);}
	.st33{fill:url(#SVGID_16_);}
	.st34{fill:url(#SVGID_17_);}
	.st35{fill:url(#SVGID_18_);}
	.st36{fill:url(#SVGID_19_);}
	.st37{fill:url(#SVGID_20_);}
	.st38{fill:url(#SVGID_21_);}
	.st39{fill:url(#SVGID_22_);}
	.st40{fill:url(#SVGID_23_);}
	.st41{fill:url(#SVGID_24_);}
	.st42{fill:url(#SVGID_25_);}
	.st43{fill:url(#SVGID_26_);}
	.st44{fill:url(#SVGID_27_);}
	.st45{fill:url(#SVGID_28_);}
	.st46{fill:url(#SVGID_29_);}
	.st47{fill:url(#SVGID_30_);}
	.st48{fill:url(#SVGID_31_);}
	.st49{fill:url(#SVGID_32_);}
	.st50{fill:url(#SVGID_33_);}
	.st51{fill:url(#SVGID_34_);}
	.st52{fill:url(#SVGID_35_);}
	.st53{fill:#F0B7B9;}
	.st54{fill:#454153;}
	.st55{fill:#E4797E;}
	.st56{fill:#020203;}
	.st57{font-family:'MyriadPro-Regular';}
	.st58{font-size:3.4687px;}
</style>
<g>
	<path class="st0" d="M175.1,32.2c-18.7-0.6-36.5-6.7-53.5-13.3S87.7,5,69.5,1.5C57.7-0.8,44.3-1.1,34.8,5.2
		c-9.1,6.1-12.1,16.5-13.6,26.2c-1.2,7.3-1.9,15,1.4,21.8c2.3,4.7,6.3,8.7,9.1,13.3c9.7,15.8,2.8,35.3-7.6,50.8
		c-4.9,7.2-10.6,14.2-14.4,21.9c-3.8,7.7-5.5,16.5-2.2,24.4c3.3,7.8,11.1,13.7,19.6,17.8c17.3,8.4,37.6,10.8,57.4,12.1
		c43.9,3,88,1.7,132,0.4c16.3-0.5,32.6-1,48.7-3.5c8.9-1.4,18.1-3.6,24.5-9c8.2-6.8,10.2-18.3,4.7-26.8
		c-9.2-14.3-34.7-17.9-41.1-33.2c-3.5-8.5,0.1-17.9,5.2-25.7C269.5,78.8,288,64.1,289,44.9c0.7-13.2-8.2-26.4-22-32.7
		c-14.4-6.5-34.4-5.7-45.1,5.1C210.9,28.5,191.6,32.8,175.1,32.2z"/>
	<rect y="35.7" class="st1" width="75" height="75"/>
	<rect x="232" y="35.7" class="st1" width="75" height="75"/>
	<path class="st2" d="M42,9.3l-0.7-0.8c0,0-0.1-0.1-0.1-0.1c0,0-0.1,0-0.1,0.1l-5.2,5.2L34,11.8c-0.1-0.1-0.2-0.1-0.2,0c0,0,0,0,0,0
		L33,12.6c-0.1,0.1-0.1,0.2,0,0.2c0,0,0,0,0,0l2.4,2.4c0.1,0.1,0.3,0.2,0.5,0.2c0.2,0,0.4-0.1,0.5-0.2l0,0L42,9.5
		C42.1,9.4,42.1,9.3,42,9.3L42,9.3z"/>
	<path class="st3" d="M37.5,4.3c4.2,0,7.6,3.4,7.6,7.6s-3.4,7.6-7.6,7.6c-4.2,0-7.6-3.4-7.6-7.6c0-2,0.8-4,2.2-5.4
		C33.5,5.1,35.5,4.3,37.5,4.3 M37.5,3.1c-4.9,0-8.8,4-8.8,8.8s4,8.8,8.8,8.8s8.8-4,8.8-8.8c0,0,0,0,0,0C46.3,7.1,42.4,3.1,37.5,3.1
		C37.5,3.1,37.5,3.1,37.5,3.1z"/>
	<path class="st4" d="M100,33.9L99,33c0,0-0.1-0.1-0.1-0.1c-0.1,0-0.1,0-0.2,0.1l-6.5,6.6l-2.4-2.4c0,0-0.1-0.1-0.1-0.1
		c-0.1,0-0.1,0-0.2,0.1l-1,1c-0.1,0.1-0.1,0.2,0,0.3c0,0,0,0,0,0l3,3c0.2,0.2,0.4,0.3,0.6,0.3c0.2,0,0.5-0.1,0.6-0.3l0,0l7.1-7.2
		C100,34.1,100,34,100,33.9L100,33.9z"/>
	<path class="st5" d="M94.3,27.7c5.3,0,9.6,4.3,9.6,9.6c0,5.3-4.3,9.6-9.6,9.6s-9.6-4.3-9.6-9.6c0-2.5,1-5,2.8-6.8
		C89.3,28.7,91.7,27.7,94.3,27.7 M94.3,26.2c-6.1,0-11.1,5-11.1,11.1s5,11.1,11.1,11.1s11.1-5,11.1-11.1l0,0
		C105.4,31.2,100.4,26.2,94.3,26.2C94.3,26.2,94.3,26.2,94.3,26.2z"/>
	<path class="st3" d="M269.5,4.3c4.2,0,7.6,3.4,7.6,7.6s-3.4,7.6-7.6,7.6c-4.2,0-7.6-3.4-7.6-7.6c0-2,0.8-4,2.2-5.4
		C265.5,5.1,267.4,4.3,269.5,4.3 M269.5,3.1c-4.9,0-8.8,4-8.8,8.8s4,8.8,8.8,8.8c4.9,0,8.8-4,8.8-8.8c0,0,0,0,0,0
		C278.3,7.1,274.4,3.1,269.5,3.1C269.5,3.1,269.5,3.1,269.5,3.1z"/>
	<path class="st5" d="M212.3,27.7c5.3,0,9.6,4.3,9.6,9.6s-4.3,9.6-9.6,9.6s-9.6-4.3-9.6-9.6c0-2.6,1-5,2.8-6.8
		C207.3,28.7,209.8,27.7,212.3,27.7 M212.3,26.2c-6.1,0-11.1,5-11.1,11.1s5,11.1,11.1,11.1s11.1-5,11.1-11.1l0,0
		C223.4,31.2,218.5,26.2,212.3,26.2C212.3,26.2,212.3,26.2,212.3,26.2L212.3,26.2z"/>
	<path class="st6" d="M153,45.3c7,0,12.7,5.7,12.7,12.7c0,7-5.7,12.7-12.7,12.7c-7,0-12.7-5.7-12.7-12.7c0-3.4,1.3-6.6,3.7-9
		C146.4,46.6,149.6,45.3,153,45.3 M153,43.3c-8.1,0-14.7,6.6-14.7,14.7s6.6,14.7,14.7,14.7c8.1,0,14.7-6.6,14.7-14.7l0,0
		C167.7,49.9,161.1,43.3,153,43.3C153,43.3,153,43.3,153,43.3z"/>
	<rect x="52.5" y="55.4" class="st7" width="83.6" height="83.6"/>
	<rect x="170.5" y="55.4" class="st7" width="83.6" height="83.6"/>
	<rect x="7.5" y="49" class="st8" width="27.9" height="3.1"/>
	<rect x="245.5" y="49" class="st8" width="27.9" height="3.1"/>
	<path class="st9" d="M202.7,178.8c0,0,7.2-12.8,18.2-16.5c4.6-1.5,8.6-4.5,11.3-8.5c1.3-1.9,2.4-3.9,3.3-6"/>
	<path class="st6" d="M242.3,145.4c-1.2,1.2-7,2.5-7,2.5s1.4-5.7,2.7-7c1.2-1.2,3.2-1.2,4.4,0.1
		C243.6,142.2,243.6,144.2,242.3,145.4L242.3,145.4z"/>
	<path class="st6" d="M239.1,155.8c-1.7,0.3-7.2-1.8-7.2-1.8s4.3-4,6-4.4c1.7-0.3,3.3,0.8,3.6,2.5
		C241.8,153.8,240.7,155.4,239.1,155.8L239.1,155.8z"/>
	<path class="st6" d="M227.1,167.1c-1.6-0.6-5.4-5.2-5.4-5.2s5.8-1.3,7.4-0.8c1.6,0.6,2.5,2.4,1.9,4S228.8,167.6,227.1,167.1z"/>
	<path class="st6" d="M216.2,173.5c-1.7-0.3-6.2-4.2-6.2-4.2s5.5-2.3,7.2-2c1.7,0.3,2.9,1.9,2.6,3.6
		C219.6,172.6,218,173.8,216.2,173.5C216.3,173.5,216.2,173.5,216.2,173.5z"/>
	<path class="st6" d="M227,149.5c0,1.7,3.1,6.8,3.1,6.8s3.1-5,3.1-6.8c0-1.7-1.4-3.1-3.1-3.1S227,147.8,227,149.5L227,149.5z"/>
	<path class="st6" d="M214.3,157.3c0.5,1.7,5,5.5,5,5.5s1.5-5.7,1-7.4c-0.5-1.7-2.3-2.6-3.9-2.1
		C214.7,153.9,213.8,155.6,214.3,157.3L214.3,157.3z"/>
	<path class="st6" d="M203,166.5c0.2,1.7,4,6.3,4,6.3s2.4-5.4,2.2-7.1c-0.2-1.7-1.8-2.9-3.5-2.7S202.8,164.8,203,166.5L203,166.5z"
		/>
	<path class="st10" d="M242.3,145.4c-1.2,1.2-7,2.5-7,2.5s1.4-5.7,2.7-7c1.2-1.2,3.2-1.2,4.4,0.1
		C243.6,142.2,243.6,144.2,242.3,145.4L242.3,145.4z"/>
	<path class="st10" d="M239.1,155.8c-1.7,0.3-7.2-1.8-7.2-1.8s4.3-4,6-4.4c1.7-0.3,3.3,0.8,3.6,2.5
		C241.8,153.8,240.7,155.4,239.1,155.8L239.1,155.8z"/>
	<path class="st10" d="M227.1,167.1c-1.6-0.6-5.4-5.2-5.4-5.2s5.8-1.3,7.4-0.8c1.6,0.6,2.5,2.4,1.9,4S228.8,167.6,227.1,167.1z"/>
	<path class="st10" d="M216.2,173.5c-1.7-0.3-6.2-4.2-6.2-4.2s5.5-2.3,7.2-2c1.7,0.3,2.9,1.9,2.6,3.6
		C219.6,172.6,218,173.8,216.2,173.5C216.3,173.5,216.2,173.5,216.2,173.5z"/>
	<path class="st10" d="M227,149.5c0,1.7,3.1,6.8,3.1,6.8s3.1-5,3.1-6.8c0-1.7-1.4-3.1-3.1-3.1S227,147.8,227,149.5L227,149.5z"/>
	<path class="st10" d="M214.3,157.3c0.5,1.7,5,5.5,5,5.5s1.5-5.7,1-7.4c-0.5-1.7-2.3-2.6-3.9-2.1
		C214.7,153.9,213.8,155.6,214.3,157.3L214.3,157.3z"/>
	<path class="st10" d="M203,166.5c0.2,1.7,4,6.3,4,6.3s2.4-5.4,2.2-7.1c-0.2-1.7-1.8-2.9-3.5-2.7S202.8,164.8,203,166.5L203,166.5z"
		/>
	<path class="st9" d="M203.1,178.5c0,0,1.4-14.7,9.9-22.5c3.6-3.3,6-7.6,6.9-12.3c0.4-2.3,0.6-4.5,0.6-6.8"/>
	<path class="st6" d="M225.8,131.9c-0.6,1.6-5.4,5.1-5.4,5.1s-1-5.8-0.4-7.4c0.6-1.6,2.5-2.4,4.1-1.7
		C225.7,128.5,226.5,130.3,225.8,131.9L225.8,131.9L225.8,131.9z"/>
	<path class="st6" d="M227.1,142.8c-1.4,1-7.3,1.3-7.3,1.3s2.3-5.5,3.7-6.5c1.4-1,3.4-0.6,4.3,0.9
		C228.7,139.9,228.4,141.8,227.1,142.8z"/>
	<path class="st6" d="M220.7,157.9c-1.7,0.1-7-2.6-7-2.6s4.7-3.5,6.5-3.7c1.7-0.2,3.3,1.1,3.4,2.8c0.2,1.7-1.1,3.3-2.8,3.4
		C220.8,157.9,220.8,157.9,220.7,157.9z"/>
	<path class="st6" d="M213.3,168.3c-1.7,0.4-7.3-1.3-7.3-1.3s4.1-4.3,5.8-4.7c1.7-0.4,3.4,0.6,3.8,2.3
		C215.9,166.1,215,167.8,213.3,168.3L213.3,168.3z"/>
	<path class="st6" d="M213.5,141.9c0.7,1.6,5.6,4.9,5.6,4.9s0.8-5.9,0.1-7.4c-0.7-1.6-2.6-2.3-4.1-1.6
		C213.5,138.5,212.8,140.4,213.5,141.9L213.5,141.9z"/>
	<path class="st6" d="M205,154.2c1.2,1.3,6.8,3,6.8,3s-1-5.8-2.1-7.1c-1.1-1.3-3.1-1.4-4.4-0.3S203.9,152.9,205,154.2L205,154.2
		L205,154.2z"/>
	<path class="st6" d="M198.4,167.2c0.9,1.5,6.2,4.1,6.2,4.1s0-5.9-0.9-7.4c-0.9-1.5-2.8-1.9-4.3-1
		C198,163.8,197.5,165.7,198.4,167.2L198.4,167.2z"/>
	<rect x="63.3" y="73.2" class="st8" width="27.9" height="3.1"/>
	<rect x="114.6" y="100.4" class="st8" width="16.6" height="3.1"/>
	<rect x="114.6" y="121.2" class="st8" width="24.7" height="3.1"/>
	<rect x="63.3" y="84.1" class="st8" width="27.9" height="3.1"/>
	<rect x="188.7" y="73.2" class="st8" width="27.9" height="3.1"/>
	<rect x="188.7" y="84.1" class="st8" width="27.9" height="3.1"/>
	<path class="st6" d="M149.1,62.3l0.8-1c0.8,0.7,1.8,1.2,2.8,1.2c1.3,0,2.3-0.6,2.3-1.7c0-1.1-0.9-1.9-3.5-1.9v-1.2
		c2.3,0,3.2-0.8,3.2-1.8c0-0.9-0.8-1.5-1.9-1.5c-0.9,0-1.8,0.4-2.4,1l-0.8-1c0.9-0.8,2.1-1.3,3.3-1.3c2,0,3.5,1,3.5,2.6
		c0,1.2-0.9,2-2.1,2.4v0.1c1.3,0.3,2.5,1.2,2.5,2.6c0,1.8-1.7,2.9-3.8,2.9C151,63.8,149.8,63.1,149.1,62.3z"/>
	<g class="st11">
		<path class="st6" d="M213.2,35.7c0-0.6,0-1.3,0.1-1.8h-0.1c-0.3,0.5-0.7,1-1,1.5l-2.3,3h6.1v1.2h-7.7v-1l4.6-6.1h1.7v9.7h-1.4
			V35.7z"/>
	</g>
	<g class="st12">
		<path class="st6" d="M266.5,15l0.5-0.7c0.5,0.5,1.2,0.8,1.9,0.8c0.9,0,1.7-0.6,1.7-1.5c0-0.9-0.6-1.4-1.6-1.4
			c-0.5,0-1,0.1-1.4,0.4l-0.5-0.3l0.2-3.4h4v0.9h-3.1l-0.2,1.9c0.4-0.2,0.8-0.3,1.2-0.3c1.3,0,2.4,0.7,2.4,2.2S270.4,16,269,16
			C268.1,16,267.2,15.6,266.5,15z"/>
	</g>
	<rect x="100.3" y="81.9" class="st0" width="103.3" height="103.3"/>
	<rect x="103.8" y="77" class="st13" width="103.3" height="103.3"/>
	<rect x="114.6" y="88.4" class="st3" width="81.7" height="3.1"/>
	<rect x="114.6" y="110.8" class="st8" width="52" height="3.1"/>
	<rect x="114.6" y="131.6" class="st8" width="50.5" height="3.1"/>
	<rect x="114.6" y="142" class="st8" width="68.8" height="3.1"/>
	<path class="st2" d="M181.4,111.1l-0.4-0.4c0,0,0,0-0.1,0c0,0,0,0-0.1,0l-2.5,2.5l-0.9-0.9c0,0,0,0-0.1,0c0,0,0,0-0.1,0l-0.4,0.4
		c0,0,0,0.1,0,0.1c0,0,0,0,0,0l1.1,1.1c0.1,0.1,0.1,0.1,0.2,0.1c0.1,0,0.2,0,0.2-0.1l0,0l2.7-2.7
		C181.4,111.2,181.4,111.1,181.4,111.1L181.4,111.1z"/>
	<path class="st2" d="M179.2,108.7c2,0,3.6,1.6,3.6,3.6c0,2-1.6,3.6-3.6,3.6c-2,0-3.6-1.6-3.6-3.6c0-1,0.4-1.9,1.1-2.6
		C177.3,109.1,178.3,108.7,179.2,108.7 M179.2,108.2c-2.3,0-4.2,1.9-4.2,4.2c0,2.3,1.9,4.2,4.2,4.2c2.3,0,4.2-1.9,4.2-4.2
		c0,0,0,0,0,0C183.4,110.1,181.6,108.2,179.2,108.2L179.2,108.2z"/>
	<path class="st2" d="M181.4,131.9l-0.4-0.4c0,0,0,0-0.1,0c0,0,0,0-0.1,0l-2.5,2.5l-0.9-0.9c0,0,0,0-0.1,0c0,0,0,0-0.1,0l-0.4,0.4
		c0,0,0,0.1,0,0.1c0,0,0,0,0,0l1.1,1.1c0.1,0.1,0.1,0.1,0.2,0.1c0.1,0,0.2,0,0.2-0.1l0,0l2.7-2.7C181.4,132,181.4,131.9,181.4,131.9
		L181.4,131.9z"/>
	<path class="st2" d="M179.2,129.5c2,0,3.6,1.6,3.6,3.6c0,2-1.6,3.6-3.6,3.6c-2,0-3.6-1.6-3.6-3.6c0-1,0.4-1.9,1.1-2.6
		C177.3,129.9,178.3,129.5,179.2,129.5 M179.2,129c-2.3,0-4.2,1.9-4.2,4.2s1.9,4.2,4.2,4.2c2.3,0,4.2-1.9,4.2-4.2c0,0,0,0,0,0
		C183.4,130.9,181.6,129,179.2,129C179.2,129,179.2,129,179.2,129z"/>
	<ellipse class="st0" cx="148.1" cy="226.2" rx="20.6" ry="3.5"/>
	<path class="st6" d="M37.8,200.4c0,0,1.1,1.4-0.5,3.5c-1.6,2.1-2.9,3.9-2.3,5.2c0,0,2.4-3.9,4.3-4C41.2,205.1,40,202.8,37.8,200.4z
		"/>
	<path class="st8" d="M37.8,200.4c0.1,0.1,0.2,0.3,0.2,0.4c1.9,2.2,2.9,4.3,1.1,4.3c-1.7,0-3.7,3.1-4.2,3.8c0,0.1,0,0.1,0.1,0.2
		c0,0,2.4-3.9,4.3-4C41.2,205.1,40,202.8,37.8,200.4z"/>
	<path class="st14" d="M39.8,202.2c0,0.5-0.1,0.9-0.1,0.9s-0.1-0.4-0.1-0.9s0.1-0.3,0.1-0.3S39.8,201.7,39.8,202.2z"/>
	<path class="st14" d="M40.5,202.8c-0.4,0.2-0.8,0.4-0.8,0.3c0-0.1,0.3-0.3,0.7-0.5c0.4-0.3,0.3-0.1,0.3,0
		C40.7,202.7,41,202.6,40.5,202.8z"/>
	<path class="st6" d="M32.2,200.4c0,0-1.1,1.4,0.5,3.5c1.6,2.1,2.9,3.9,2.3,5.2c0,0-2.4-3.9-4.3-4C28.8,205.1,30,202.8,32.2,200.4z"
		/>
	<path class="st8" d="M32.2,200.4c-0.1,0.1-0.2,0.3-0.2,0.4c-1.9,2.2-2.9,4.3-1.1,4.3c1.7,0,3.7,3.1,4.2,3.8c0,0.1,0,0.1-0.1,0.2
		c0,0-2.4-3.9-4.3-4C28.8,205.1,30,202.8,32.2,200.4z"/>
	<path class="st14" d="M30.1,202.2c0,0.5,0.1,0.9,0.1,0.9c0.1,0,0.1-0.4,0.1-0.9s-0.1-0.3-0.1-0.3C30.2,202,30.1,201.7,30.1,202.2z"
		/>
	<path class="st14" d="M29.5,202.8c0.4,0.2,0.8,0.4,0.8,0.3c0-0.1-0.3-0.3-0.7-0.5c-0.4-0.3-0.3-0.1-0.3,0S29,202.6,29.5,202.8z"/>
	<ellipse class="st0" cx="35" cy="218.3" rx="11.3" ry="1.7"/>
	<path class="st15" d="M40.8,207.3l-0.1,0.4l-0.1,0.6l0,0.3l-0.1,0.6l0,0.3l-0.1,0.6l-0.9,7.1c-0.1,0.6-1.1,1.1-2.4,1.1h-4.5
		c-1.2,0-2.3-0.5-2.3-1.1l-0.9-7.1l-0.1-0.6l0-0.3l-0.1-0.6l0-0.3l-0.1-0.6l-0.1-0.4c0-0.4,0.5-0.7,1.2-0.7h9.2
		C40.3,206.7,40.8,207,40.8,207.3z"/>
	<polygon class="st16" points="40.7,207.7 40.7,208.4 29.3,208.4 29.3,207.7 	"/>
	<polygon class="st16" points="40.6,208.6 40.6,209.2 29.4,209.2 29.4,208.6 	"/>
	<polygon class="st16" points="40.5,209.5 40.4,210.1 29.5,210.1 29.5,209.5 	"/>
	<path class="st8" d="M170.8,133.5c-0.2-0.4-1.7-5.5-1.7-5.5l-3-7.5c0,0-1.8-9.9-4.5-7.4c-2.7,2.5,1.4,8.4,1.4,8.4s1.7,4.3,1.6,5.2
		c-0.1,0.9,0.9,4,0.9,4l-0.3,1.8c-0.4,0-0.7,0-0.7,0s-0.3,0.4-0.5,0.4c0,0-0.1,0-0.1,0c-0.3-0.1-1.2-0.1-1.7-0.1
		c-0.5-0.1-0.9-0.2-1.3-0.4c-0.2-0.3-1.1-0.5-2-0.6c-0.6-1.6-1.5-3.1-1.7-4.8c-0.1-0.5,0-0.9,0.3-1.3c0.1-0.1,0.1-0.2,0.2-0.2
		c0.2-0.2,0.5-0.4,0.8-0.7c0.1-0.1,0.2-0.2,0.4-0.3c2.2-2.1,1.9-5.5-0.1-7.7c-2.3-2.7-12.7-8.4-15.9-3.5c-0.4,0.7-0.5,1.5-0.6,2.2
		c-0.3,1.9-1.2,3.6-2.5,4.9c-1,1.1-2.4,2.1-3,3.4l0,0c-0.1,0.3-0.2,0.6-0.3,0.9c-0.3,1.5,0.7,3,1.3,4.5c0.2,0.5,0.3,1,0.4,1.6l0-0.3
		c0.1,0.8,0.2,1.5,0.1,2.3c-3.8,0.8-3.8,7.3-3.8,7.3s-0.5,2.6-0.4,3.5s0.1,3,0.1,3.5s-0.5,3.5-0.5,3.9l0,0c-0.1,0.4-0.8,2.3,0.9,2.8
		c0.1,0,0.2,0.1,0.4,0.1c0.1,1.6,0.2,4.8,0.1,5.5c0,0,0.6,4.4,1.1,5.5c0.3,0.7,0.7,1.3,1.2,1.9c0,0.3-0.1,0.5-0.3,0.8
		c-0.3,0.4-0.1,0.7,0.3,0.8c0,0.1,0,0.3-0.1,0.5c-0.2,1.7-0.5,5.1,0,6.8c0.7,2.3,0.7,3.1,0.7,3.1c0,0.4,0.1,0.8,0.3,1.1
		c0.3,0.4,0.8,4,0.8,4.6c0,0.6,1.3,5.8,0.9,7.1s-0.1,3-0.1,3s-0.2,3.1-0.5,3.7c-0.3,0.7-0.4,11.3,0,14.1c0.4,2.8,0.7,5.1,0.7,5.1
		s-0.3,2.5,0,2.9c0.2,0.4,0.7,2.5,0.3,2.6c-0.3,0.1-0.5,1-0.5,1c0.2,0.3,0.3,0.5,0.5,0.7c-0.1,0-0.2-0.1-0.4-0.2
		c0.1,0.2,0.3,0.4,0.5,0.7l-0.2,2.8c0,0.2,0.1,0.4,0.3,0.5c1.4,0.4,2.9,0,3.9-1.1c1.9-2,2.6-1.7,3-2.9c0-0.1,0.1-0.3,0.1-0.4
		c0.2-0.7-0.3-1.4-0.9-1.5c-0.3-0.1-0.6,0-0.8,0.1c0.1-0.9,0.2-1.8,0.1-2.4c-0.2-1.1-0.2-4.1-0.2-4.1l-0.3-14.2c0,0,0.5-2.8,1.1-3.9
		c0.6-1.1,0.5-4.9,0.5-4.9l0.7-12.5l0.7-6.1c0,0,0.6-2.1,1.4,0.2c0,0-0.4,4.7-0.2,5.8c0.2,1.1,0.5,6.6,0.3,7.8
		c-0.2,1.2-1.1,7.8-0.5,9.5c0.5,1.7,1.1,3.7,1,4.4s-0.5,15-0.5,15s1,2.8,0.3,3.7s0,4.5,0,4.5s0.1,0.1,0.3,0.2l0,0.3l-0.2,3.2
		c0,0.2,0.1,0.4,0.3,0.5c1.4,0.4,2.9,0,3.9-1.1c1.9-2,2.6-1.7,3-2.9c0-0.1,0.1-0.3,0.1-0.4c0.2-0.7-0.3-1.4-1-1.5
		c-0.4-0.1-0.8,0-1.1,0.3c0,0,0,0,0,0c0,0-0.1,0.1-0.2,0.1l-0.1,0c0.2-0.9,0.5-2.4,0.3-3.1c-0.2-1.1,0.2-4.2,0.2-4.2
		s1.1-3.8,1.2-5.3c0-1.5,0.3-12.1,0.3-12.1s0-4.9,0.1-6.1s1.4-11.6,2.6-14.7c1-2.4,1.4-8.5,1.1-11.6c0-0.2,0-0.3,0-0.4
		c1.5-1.1,1.7-3,1.7-3s-1.4-2.7-2.8-3.8s-1.7-3.1-1.6-3.9c0-0.5-0.1-1-0.5-1.4c0,0-0.6-2-1-2.2c0,0-0.1,0-0.1-0.1
		c-0.3-0.3-0.1-1.2-0.1-1.2v0c0-0.2,0.3-1.5,0.3-1.8s0.1-2.1,0.1-2.1s1-3,0.8-5.3c-0.2-2.3,2-2.1,2-2.1l6.7-0.1h0.8
		c0.3-0.3,0.6-0.6,0.9-0.9c0.5,0.1,1.1,0,1.5-0.4C171.2,136.4,171,133.9,170.8,133.5z M139.5,153.7l0-1.2l0.3,0.2
		c0.1,0.3,0.1,0.6,0,0.9c-0.1,0.3-0.3,0.5-0.6,0.7c0,0-0.1,0-0.1,0.1l-0.1-0.7C139.3,153.7,139.5,153.7,139.5,153.7L139.5,153.7z"/>
	
		<linearGradient id="SVGID_1_" gradientUnits="userSpaceOnUse" x1="235.0275" y1="395.3064" x2="235.0275" y2="420.9623" gradientTransform="matrix(1 0 0 -1 -69 532.6278)">
		<stop  offset="0" style="stop-color:#808181;stop-opacity:0.25"/>
		<stop  offset="0.54" style="stop-color:#808181;stop-opacity:0.12"/>
		<stop  offset="1" style="stop-color:#808181;stop-opacity:0.1"/>
	</linearGradient>
	<path class="st17" d="M164.7,135.8c0,0,3.8,2.5,5.3,1.2c1.5-1.3,1.3-3.8,1.1-4.2s-1.8-5.5-1.8-5.5l-3-7.6c0,0-1.8-10-4.6-7.5
		c-2.7,2.5,1.5,8.5,1.5,8.5s1.7,4.4,1.6,5.2c-0.1,0.9,1,4.1,1,4.1L164.7,135.8z"/>
	
		<linearGradient id="SVGID_2_" gradientUnits="userSpaceOnUse" x1="222.9039" y1="303.1983" x2="222.9039" y2="309.3242" gradientTransform="matrix(1 0 0 -1 -69 532.6278)">
		<stop  offset="0" style="stop-color:#808181;stop-opacity:0.25"/>
		<stop  offset="0.54" style="stop-color:#808181;stop-opacity:0.12"/>
		<stop  offset="1" style="stop-color:#808181;stop-opacity:0.1"/>
	</linearGradient>
	<path class="st18" d="M157.6,224.9c0,0.1-0.1,0.3-0.1,0.4c-0.4,1.2-1,0.9-3,2.9c-1,1.1-2.5,1.5-3.9,1.1c-0.2-0.1-0.4-0.3-0.4-0.5
		l0.2-3.2l0.1-1.6c0,0,3.1,0.9,4.8-0.2c0.1,0,0.1-0.1,0.2-0.1l0,0c0.5-0.5,1.4-0.4,1.8,0.2C157.6,224.1,157.7,224.5,157.6,224.9z"/>
	
		<linearGradient id="SVGID_3_" gradientUnits="userSpaceOnUse" x1="213.0286" y1="304.423" x2="213.0286" y2="310.5516" gradientTransform="matrix(1 0 0 -1 -69 532.6278)">
		<stop  offset="0" style="stop-color:#808181;stop-opacity:0.25"/>
		<stop  offset="0.54" style="stop-color:#808181;stop-opacity:0.12"/>
		<stop  offset="1" style="stop-color:#808181;stop-opacity:0.1"/>
	</linearGradient>
	<path class="st19" d="M147.7,223.6c0,0.1-0.1,0.3-0.1,0.4c-0.4,1.2-1,0.9-3,2.9c-1,1.1-2.5,1.5-3.9,1.1c-0.2-0.1-0.4-0.3-0.4-0.5
		l0.2-3.2l0.1-1.6c0,0,3.1,0.9,4.7-0.2c0.1,0,0.1-0.1,0.2-0.1l0,0c0.5-0.5,1.4-0.4,1.8,0.2C147.7,222.8,147.8,223.3,147.7,223.6z"/>
	<g class="st20">
		
			<linearGradient id="SVGID_4_" gradientUnits="userSpaceOnUse" x1="211.2802" y1="306.2115" x2="211.2802" y2="308.5705" gradientTransform="matrix(1 0 0 -1 -69 532.6278)">
			<stop  offset="0" style="stop-color:#808181;stop-opacity:0.25"/>
			<stop  offset="0.54" style="stop-color:#808181;stop-opacity:0.12"/>
			<stop  offset="1" style="stop-color:#808181;stop-opacity:0.1"/>
		</linearGradient>
		<path class="st21" d="M144.4,224.1l0.1,1.7c-1.8,1.8-4-0.9-4.6-1.8C141.6,224.9,144.4,224.1,144.4,224.1z"/>
	</g>
	<g class="st20">
		
			<linearGradient id="SVGID_5_" gradientUnits="userSpaceOnUse" x1="221.8785" y1="306.4236" x2="221.8785" y2="308.8769" gradientTransform="matrix(1 0 0 -1 -69 532.6278)">
			<stop  offset="0" style="stop-color:#808181;stop-opacity:0.25"/>
			<stop  offset="0.54" style="stop-color:#808181;stop-opacity:0.12"/>
			<stop  offset="1" style="stop-color:#808181;stop-opacity:0.1"/>
		</linearGradient>
		<path class="st22" d="M155.1,224.8l0.2-0.2c-1.7,2.5-4.1,1.3-4.9,0.9l0.1-1.6c0,0,3.1,0.9,4.8-0.2
			C155.2,224.4,155.1,224.8,155.1,224.8z"/>
	</g>
	
		<linearGradient id="SVGID_6_" gradientUnits="userSpaceOnUse" x1="218.0535" y1="306.5107" x2="218.0535" y2="368.5071" gradientTransform="matrix(1 0 0 -1 -69 532.6278)">
		<stop  offset="0" style="stop-color:#808181;stop-opacity:0.25"/>
		<stop  offset="0.54" style="stop-color:#808181;stop-opacity:0.12"/>
		<stop  offset="1" style="stop-color:#808181;stop-opacity:0.1"/>
	</linearGradient>
	<path class="st23" d="M160.1,177.7c-1.3,3.1-2.5,13.7-2.7,14.9c-0.2,1.2-0.1,6.2-0.1,6.2L157,211c0,1.5-1.2,5.4-1.2,5.4
		s-0.4,3.2-0.2,4.3c0.2,1.1-0.5,3.8-0.5,3.8l0.2-0.2c-2,3-5.1,0.7-5.1,0.7s-0.8-3.6,0-4.5s-0.3-3.7-0.3-3.7s0.4-14.5,0.5-15.1
		s-0.5-2.7-1-4.4c-0.6-1.7,0.3-8.4,0.5-9.6c0.2-1.2-0.1-6.7-0.3-7.9s0.2-5.9,0.2-5.9c-0.8-2.4-1.4-0.2-1.4-0.2l-0.6,6.2l-0.7,12.7
		c0,0,0.1,3.8-0.5,4.9c-0.6,1.1-1.1,3.9-1.1,3.9l0.3,14.3c0,0,0,3,0.2,4.1c0.2,1.1-0.4,4.1-0.4,4.1c-2.2,5.2-5.8-0.4-5.8-0.4
		s0.2-0.9,0.5-1c0.3-0.1-0.1-2.2-0.4-2.6c-0.2-0.4,0-2.9,0-2.9s-0.3-2.3-0.7-5.1s-0.3-13.5,0-14.2c0.3-0.7,0.5-3.8,0.5-3.8
		s-0.3-1.8,0.1-3c0.4-1.3-1-6.6-1-7.1s-0.5-4.2-0.8-4.6c-0.2-0.3-0.3-0.7-0.3-1.1c0,0,0-0.8-0.7-3.1c-0.5-1.7-0.2-5.1,0-6.8
		c0.1-0.6,0.1-1,0.1-1s22.7-3.7,23.6-2.8c0.2,0.2,0.4,0.9,0.4,1.8C161.5,169.1,161.1,175.3,160.1,177.7z"/>
	<g class="st20">
		
			<linearGradient id="SVGID_7_" gradientUnits="userSpaceOnUse" x1="222.3415" y1="337.2046" x2="222.3415" y2="337.3693" gradientTransform="matrix(1 0 0 -1 -69 532.6278)">
			<stop  offset="0" style="stop-color:#808181;stop-opacity:0.25"/>
			<stop  offset="0.54" style="stop-color:#808181;stop-opacity:0.12"/>
			<stop  offset="1" style="stop-color:#808181;stop-opacity:0.1"/>
		</linearGradient>
		<path class="st24" d="M151.5,195.3c0.1,0,2.6,0.2,3.5,0S151.5,195.3,151.5,195.3z"/>
	</g>
	<g class="st20">
		
			<linearGradient id="SVGID_8_" gradientUnits="userSpaceOnUse" x1="222.5187" y1="335.4613" x2="222.5187" y2="335.8399" gradientTransform="matrix(1 0 0 -1 -69 532.6278)">
			<stop  offset="0" style="stop-color:#808181;stop-opacity:0.25"/>
			<stop  offset="0.54" style="stop-color:#808181;stop-opacity:0.12"/>
			<stop  offset="1" style="stop-color:#808181;stop-opacity:0.1"/>
		</linearGradient>
		<path class="st25" d="M151.7,196.8c0,0,3.5,0.6,3.6,0.3C155.5,196.8,151.7,196.8,151.7,196.8z"/>
	</g>
	<g class="st20">
		
			<linearGradient id="SVGID_9_" gradientUnits="userSpaceOnUse" x1="211.584" y1="335.8286" x2="211.584" y2="336.4675" gradientTransform="matrix(1 0 0 -1 -69 532.6278)">
			<stop  offset="0" style="stop-color:#808181;stop-opacity:0.25"/>
			<stop  offset="0.54" style="stop-color:#808181;stop-opacity:0.12"/>
			<stop  offset="1" style="stop-color:#808181;stop-opacity:0.1"/>
		</linearGradient>
		<path class="st26" d="M141.1,196.2c0,0,1.8,0.1,2.8,0.5C144.9,197.1,141.1,196.2,141.1,196.2z"/>
	</g>
	
		<linearGradient id="SVGID_10_" gradientUnits="userSpaceOnUse" x1="205.856" y1="365.9572" x2="205.856" y2="380.5315" gradientTransform="matrix(1 0 0 -1 -69 532.6278)">
		<stop  offset="0" style="stop-color:#808181;stop-opacity:0.25"/>
		<stop  offset="0.54" style="stop-color:#808181;stop-opacity:0.12"/>
		<stop  offset="1" style="stop-color:#808181;stop-opacity:0.1"/>
	</linearGradient>
	<path class="st27" d="M134.6,152.2c0,0,0.3,5.5,0.1,6.4c0,0,0.6,4.4,1.2,5.5c0.5,0.9,1,1.7,1.7,2.5l1.6-10.9l-0.4-3.7L134.6,152.2z
		"/>
	
		<linearGradient id="SVGID_11_" gradientUnits="userSpaceOnUse" x1="150.9577" y1="458.2076" x2="150.9577" y2="470.296" gradientTransform="matrix(1 0 0 -1 0 585.4478)">
		<stop  offset="0" style="stop-color:#808181;stop-opacity:0.25"/>
		<stop  offset="0.54" style="stop-color:#808181;stop-opacity:0.12"/>
		<stop  offset="1" style="stop-color:#808181;stop-opacity:0.1"/>
	</linearGradient>
	<ellipse class="st28" cx="151" cy="121.2" rx="6.1" ry="6"/>
	
		<linearGradient id="SVGID_12_" gradientUnits="userSpaceOnUse" x1="218.7692" y1="399.4995" x2="218.7692" y2="408.8094" gradientTransform="matrix(1 0 0 -1 -69 532.6278)">
		<stop  offset="0" style="stop-color:#808181;stop-opacity:0.25"/>
		<stop  offset="0.54" style="stop-color:#808181;stop-opacity:0.12"/>
		<stop  offset="1" style="stop-color:#808181;stop-opacity:0.1"/>
	</linearGradient>
	<path class="st29" d="M147.8,124c0,0-1.9,3.7-3.8,5.4c-1.9,1.7,11.4,3.7,11.7,3.7s-2.4-7.8-1.9-8.8
		C154.3,123.4,147.8,124,147.8,124z"/>
	<g class="st20">
		
			<linearGradient id="SVGID_13_" gradientUnits="userSpaceOnUse" x1="218.1525" y1="364.2142" x2="218.1525" y2="368.5346" gradientTransform="matrix(1 0 0 -1 -69 532.6278)">
			<stop  offset="0" style="stop-color:#808181;stop-opacity:0.25"/>
			<stop  offset="0.54" style="stop-color:#808181;stop-opacity:0.12"/>
			<stop  offset="1" style="stop-color:#808181;stop-opacity:0.1"/>
		</linearGradient>
		<path class="st30" d="M161.2,166c-0.3,0.2-0.6,0.4-1,0.5c-2.4,0.9-5.1,2.3-6.9,1.7c-1.8-0.5-5.6,0-5.6,0s-7.7-0.6-9.2-0.3
			c-0.5,0.2-1.1,0.2-1.6,0c0.1-0.6,0.1-1,0.1-1s22.7-3.7,23.6-2.8C161,164.4,161.2,165.1,161.2,166z"/>
	</g>
	
		<linearGradient id="SVGID_14_" gradientUnits="userSpaceOnUse" x1="217.5368" y1="364.6801" x2="217.5368" y2="404.3036" gradientTransform="matrix(1 0 0 -1 -69 532.6278)">
		<stop  offset="0" style="stop-color:#808181;stop-opacity:0.25"/>
		<stop  offset="0.54" style="stop-color:#808181;stop-opacity:0.12"/>
		<stop  offset="1" style="stop-color:#808181;stop-opacity:0.1"/>
	</linearGradient>
	<path class="st31" d="M162.9,162.5c0,0-0.2,2.6-2.6,3.6c-2.4,1-5.1,2.3-6.9,1.7s-5.6,0-5.6,0s-7.7-0.6-9.2-0.3s-2.3-0.1-1.8-0.8
		s0.4-2.9,0.4-3.9s-0.5-4.8-0.1-5.4c0.5-0.7,0.9-3.3,1.8-3.7c0.3-0.1,0.5-0.4,0.6-0.7c0.1-0.3,0.1-0.6,0-1c0,0-0.2-0.1-0.4-0.3
		c-0.6-0.5-1.5-1.4-1.2-1.7c0.4-0.4,0-3.1,0-3.1s-1-2.1-0.6-2.9c0.4-0.8-3.2-4.9-3.2-4.9s0-7.1,4.3-7.4c0,0,3.1,0.1,3.4-1.3
		c0.4-1.4,2.8-2.1,2.8-2.1l5.5,1.2c0,0,4.9,1,5.8,0.4c0.9-0.6,1.6,0.8,1.6,0.8s3.1,0.2,3.4,0.8c0.3,0.6-1,6.7-1,6.7
		s-2.2-0.2-2.1,2.1c0.2,2.4-0.8,5.3-0.8,5.3s-0.2,1.7-0.1,2.1s-0.2,1.7-0.3,1.9v0c0,0-0.2,0.9,0.1,1.2c0,0,0.1,0.1,0.1,0.1
		c0.4,0.2,1.1,2.2,1.1,2.2c0.3,0.4,0.5,0.9,0.5,1.4c-0.1,0.8,0.3,2.8,1.6,4C161.5,159.8,162.9,162.5,162.9,162.5z"/>
	
		<linearGradient id="SVGID_15_" gradientUnits="userSpaceOnUse" x1="205.2363" y1="379.4587" x2="205.2363" y2="393.9" gradientTransform="matrix(1 0 0 -1 -69 532.6278)">
		<stop  offset="0" style="stop-color:#808181;stop-opacity:0.25"/>
		<stop  offset="0.54" style="stop-color:#808181;stop-opacity:0.12"/>
		<stop  offset="1" style="stop-color:#808181;stop-opacity:0.1"/>
	</linearGradient>
	<path class="st32" d="M139.4,150.4v0.2l-0.1,2.4c0,0-3.2,0.3-5-0.2c-1.8-0.4-1-2.4-1-2.8l0,0c0.1-0.4,0.5-3.4,0.5-3.9
		s0-2.5-0.1-3.5s0.4-3.6,0.4-3.6l0.3-0.4l3.7,1.4L139.4,150.4z"/>
	<g class="st20">
		
			<linearGradient id="SVGID_16_" gradientUnits="userSpaceOnUse" x1="205.2305" y1="379.4591" x2="205.2305" y2="382.5033" gradientTransform="matrix(1 0 0 -1 -69 532.6278)">
			<stop  offset="0" style="stop-color:#808181;stop-opacity:0.25"/>
			<stop  offset="0.54" style="stop-color:#808181;stop-opacity:0.12"/>
			<stop  offset="1" style="stop-color:#808181;stop-opacity:0.1"/>
		</linearGradient>
		<path class="st33" d="M139.4,150.7l-0.1,2.4c0,0-3.2,0.3-5-0.2s-1-2.4-1-2.8L139.4,150.7z"/>
	</g>
	<g class="st20">
		
			<linearGradient id="SVGID_17_" gradientUnits="userSpaceOnUse" x1="217.0599" y1="379.5458" x2="217.0599" y2="382.8844" gradientTransform="matrix(1 0 0 -1 -69 532.6278)">
			<stop  offset="0" style="stop-color:#808181;stop-opacity:0.25"/>
			<stop  offset="0.54" style="stop-color:#808181;stop-opacity:0.12"/>
			<stop  offset="1" style="stop-color:#808181;stop-opacity:0.1"/>
		</linearGradient>
		<path class="st34" d="M139.6,153.1c0.1-0.3,0.1-0.6,0-1c0,0-0.2-0.1-0.4-0.3c2.8-0.4,13.9-1.9,17.6-2.1v0c0,0-0.2,0.9,0.1,1.2
			L139.6,153.1z"/>
	</g>
	<g class="st20">
		
			<linearGradient id="SVGID_18_" gradientUnits="userSpaceOnUse" x1="225.3151" y1="372.4437" x2="225.3151" y2="377.6525" gradientTransform="matrix(1 0 0 -1 -69 532.6278)">
			<stop  offset="0" style="stop-color:#808181;stop-opacity:0.25"/>
			<stop  offset="0.54" style="stop-color:#808181;stop-opacity:0.12"/>
			<stop  offset="1" style="stop-color:#808181;stop-opacity:0.1"/>
		</linearGradient>
		<path class="st35" d="M157.2,155c0,0,0.7,3.8-1.9,5.2C155.3,160.2,156.8,158.3,157.2,155z"/>
	</g>
	<g class="st20">
		
			<linearGradient id="SVGID_19_" gradientUnits="userSpaceOnUse" x1="213.2105" y1="372.1432" x2="213.2105" y2="372.8837" gradientTransform="matrix(1 0 0 -1 -69 532.6278)">
			<stop  offset="0" style="stop-color:#808181;stop-opacity:0.25"/>
			<stop  offset="0.54" style="stop-color:#808181;stop-opacity:0.12"/>
			<stop  offset="1" style="stop-color:#808181;stop-opacity:0.1"/>
		</linearGradient>
		<path class="st36" d="M140.5,160.3c0,0,6.2-1,7.4-0.2C149.1,160.9,140.5,160.3,140.5,160.3z"/>
	</g>
	<g class="st20">
		
			<linearGradient id="SVGID_20_" gradientUnits="userSpaceOnUse" x1="223.8976" y1="391.3194" x2="223.8976" y2="396.1753" gradientTransform="matrix(1 0 0 -1 -69 532.6278)">
			<stop  offset="0" style="stop-color:#808181;stop-opacity:0.25"/>
			<stop  offset="0.54" style="stop-color:#808181;stop-opacity:0.12"/>
			<stop  offset="1" style="stop-color:#808181;stop-opacity:0.1"/>
		</linearGradient>
		<path class="st37" d="M155.1,136.5c0,0-0.9,3.9-0.2,4.8S155.1,136.5,155.1,136.5z"/>
	</g>
	<g class="st20">
		
			<linearGradient id="SVGID_21_" gradientUnits="userSpaceOnUse" x1="206.428" y1="396.1031" x2="206.428" y2="399.3434" gradientTransform="matrix(1 0 0 -1 -69 532.6278)">
			<stop  offset="0" style="stop-color:#808181;stop-opacity:0.25"/>
			<stop  offset="0.54" style="stop-color:#808181;stop-opacity:0.12"/>
			<stop  offset="1" style="stop-color:#808181;stop-opacity:0.1"/>
		</linearGradient>
		<path class="st38" d="M137.2,133.3c0,0,0.9,1.4,0.3,2.9S137.2,133.3,137.2,133.3z"/>
	</g>
	
		<linearGradient id="SVGID_22_" gradientUnits="userSpaceOnUse" x1="204.8012" y1="384.8247" x2="204.8012" y2="386.7318" gradientTransform="matrix(1 0 0 -1 -69 532.6278)">
		<stop  offset="0" style="stop-color:#808181;stop-opacity:0.25"/>
		<stop  offset="0.54" style="stop-color:#808181;stop-opacity:0.12"/>
		<stop  offset="1" style="stop-color:#808181;stop-opacity:0.1"/>
	</linearGradient>
	<path class="st39" d="M135.4,145.9c0,0,1.1,0.7,0.7,1.7C135.8,148.6,135.4,145.9,135.4,145.9z"/>
	<g class="st20">
		
			<linearGradient id="SVGID_23_" gradientUnits="userSpaceOnUse" x1="204.8617" y1="388.1726" x2="204.8617" y2="389.7149" gradientTransform="matrix(1 0 0 -1 -69 532.6278)">
			<stop  offset="0" style="stop-color:#808181;stop-opacity:0.25"/>
			<stop  offset="0.54" style="stop-color:#808181;stop-opacity:0.12"/>
			<stop  offset="1" style="stop-color:#808181;stop-opacity:0.1"/>
		</linearGradient>
		<path class="st40" d="M135.3,142.9c0,0,1,0.6,1.2,1.4C136.6,145.1,135.3,142.9,135.3,142.9z"/>
	</g>
	<g class="st20">
		
			<linearGradient id="SVGID_24_" gradientUnits="userSpaceOnUse" x1="223.4134" y1="358.2798" x2="223.4134" y2="359.2828" gradientTransform="matrix(1 0 0 -1 -69 532.6278)">
			<stop  offset="0" style="stop-color:#808181;stop-opacity:0.25"/>
			<stop  offset="0.54" style="stop-color:#808181;stop-opacity:0.12"/>
			<stop  offset="1" style="stop-color:#808181;stop-opacity:0.1"/>
		</linearGradient>
		<path class="st41" d="M150.5,174.2c0,0,6.5,0.7,7.8-0.9C158.3,173.3,152.5,174.5,150.5,174.2z"/>
	</g>
	<g class="st20">
		
			<linearGradient id="SVGID_25_" gradientUnits="userSpaceOnUse" x1="212.5318" y1="357.9532" x2="212.5318" y2="358.7856" gradientTransform="matrix(1 0 0 -1 -69 532.6278)">
			<stop  offset="0" style="stop-color:#808181;stop-opacity:0.25"/>
			<stop  offset="0.54" style="stop-color:#808181;stop-opacity:0.12"/>
			<stop  offset="1" style="stop-color:#808181;stop-opacity:0.1"/>
		</linearGradient>
		<path class="st42" d="M139.4,173.8c0,0,6.9,1.6,8.3,0.3C147.7,174.2,141.7,174.6,139.4,173.8z"/>
	</g>
	<g class="st20">
		
			<linearGradient id="SVGID_26_" gradientUnits="userSpaceOnUse" x1="222.2647" y1="356.2015" x2="222.2647" y2="356.2997" gradientTransform="matrix(1 0 0 -1 -69 532.6278)">
			<stop  offset="0" style="stop-color:#808181;stop-opacity:0.25"/>
			<stop  offset="0.54" style="stop-color:#808181;stop-opacity:0.12"/>
			<stop  offset="1" style="stop-color:#808181;stop-opacity:0.1"/>
		</linearGradient>
		<path class="st43" d="M151,176.3c0,0,2.9,0,4.2,0.1S151,176.3,151,176.3z"/>
	</g>
	<g class="st20">
		
			<linearGradient id="SVGID_27_" gradientUnits="userSpaceOnUse" x1="210.5374" y1="353.7274" x2="210.5374" y2="355.0713" gradientTransform="matrix(1 0 0 -1 -69 532.6278)">
			<stop  offset="0" style="stop-color:#808181;stop-opacity:0.25"/>
			<stop  offset="0.54" style="stop-color:#808181;stop-opacity:0.12"/>
			<stop  offset="1" style="stop-color:#808181;stop-opacity:0.1"/>
		</linearGradient>
		<path class="st44" d="M139.9,177.6c0,0,1.4,1.6,3,1.3S139.9,177.6,139.9,177.6z"/>
	</g>
	
		<linearGradient id="SVGID_28_" gradientUnits="userSpaceOnUse" x1="217.3168" y1="378.9131" x2="217.3168" y2="422.3549" gradientTransform="matrix(1 0 0 -1 -69 532.6278)">
		<stop  offset="0" style="stop-color:#808181;stop-opacity:0.25"/>
		<stop  offset="0.54" style="stop-color:#808181;stop-opacity:0.12"/>
		<stop  offset="1" style="stop-color:#808181;stop-opacity:0.1"/>
	</linearGradient>
	<path class="st45" d="M142.7,112.2c-0.4,0.7-0.5,1.5-0.6,2.2c-0.3,1.9-1.2,3.6-2.5,5c-1.3,1.3-3,2.5-3.3,4.2
		c-0.3,1.5,0.7,3,1.3,4.5c1.4,4-0.6,8.1-1.2,12.2c-0.2,1.1,0,2.6,1.4,3c0.4,0.1,0.9,0.1,1.3,0.3c0.5,0.3,0.7,0.8,0.8,1.2
		c0.4,1.7,0.5,3.4,0.4,5.1c-0.1,1-0.1,2.1,0.8,2.7c0.5,0.3,1,0.5,1.5,0.6c1.4,0.4,3.3,0.7,4.3-0.2c0.4-0.4,0.6-0.9,1.1-1.2
		c0.8-0.4,1.8-0.1,2.8-0.1c1.9,0.1,3.6-0.9,4.6-2.4c0.8-1.4,0.7-3,0.4-4.5c-0.3-1.5-0.8-3-0.8-4.5c0-0.5,0.1-1.1,0.3-1.5
		c0.6-0.9,2-1.3,2.9-2c1.8-1.3,1.7-3.5,1.1-5.3c-0.6-1.8-1.8-3.6-1.9-5.5c-0.1-0.5,0-0.9,0.3-1.3c0.3-0.4,0.7-0.7,1.1-1
		c2.6-2.1,2.3-5.7,0.1-8.1C156.4,113,145.8,107.3,142.7,112.2z"/>
	<g class="st20">
		
			<linearGradient id="SVGID_29_" gradientUnits="userSpaceOnUse" x1="206.0131" y1="402.8439" x2="206.0131" y2="409.8391" gradientTransform="matrix(1 0 0 -1 -69 532.6278)">
			<stop  offset="0" style="stop-color:#808181;stop-opacity:0.25"/>
			<stop  offset="0.54" style="stop-color:#808181;stop-opacity:0.12"/>
			<stop  offset="1" style="stop-color:#808181;stop-opacity:0.1"/>
		</linearGradient>
		<path class="st46" d="M137.8,129.8c0.3-1.6,0.1-3.2-0.4-4.7c-0.3-0.8-0.7-1.5-1-2.3c-0.1,0.3-0.3,0.6-0.3,0.9
			c-0.3,1.5,0.7,3,1.3,4.5C137.6,128.7,137.7,129.2,137.8,129.8z"/>
		
			<linearGradient id="SVGID_30_" gradientUnits="userSpaceOnUse" x1="207.2234" y1="385.3212" x2="207.2234" y2="393.3743" gradientTransform="matrix(1 0 0 -1 -69 532.6278)">
			<stop  offset="0" style="stop-color:#808181;stop-opacity:0.25"/>
			<stop  offset="0.54" style="stop-color:#808181;stop-opacity:0.12"/>
			<stop  offset="1" style="stop-color:#808181;stop-opacity:0.1"/>
		</linearGradient>
		<path class="st47" d="M140.2,146.9c0.1-1.7,0-3.4-0.4-5.1c-0.1-0.5-0.3-1-0.8-1.2c-0.4-0.2-0.9-0.2-1.3-0.3c-0.5-0.1-1-0.5-1.2-1
			c-0.1,0.4-0.2,0.8-0.2,1.2c-0.2,1.1,0,2.6,1.4,3c0.4,0.1,0.9,0.1,1.3,0.3c0.5,0.3,0.7,0.8,0.8,1.2c0.2,0.8,0.3,1.6,0.3,2.4
			C140.2,147.2,140.2,147.1,140.2,146.9z"/>
		
			<linearGradient id="SVGID_31_" gradientUnits="userSpaceOnUse" x1="216.9983" y1="378.8463" x2="216.9983" y2="387.4811" gradientTransform="matrix(1 0 0 -1 -69 532.6278)">
			<stop  offset="0" style="stop-color:#808181;stop-opacity:0.25"/>
			<stop  offset="0.54" style="stop-color:#808181;stop-opacity:0.12"/>
			<stop  offset="1" style="stop-color:#808181;stop-opacity:0.1"/>
		</linearGradient>
		<path class="st48" d="M155.2,146.3c-1,1.6-2.7,2.5-4.6,2.4c-1,0-2-0.3-2.8,0.1c-0.5,0.3-0.7,0.8-1.1,1.2c-1,0.9-2.8,0.6-4.3,0.2
			c-0.5-0.1-1.1-0.3-1.5-0.6c-0.4-0.3-0.7-0.7-0.7-1.2c0,0.5,0,1.1,0,1.6c-0.1,1-0.1,2.1,0.8,2.7c0.5,0.3,1,0.5,1.5,0.6
			c1.4,0.4,3.3,0.7,4.3-0.2c0.4-0.4,0.6-0.9,1.1-1.2c0.8-0.5,1.8-0.1,2.8-0.1c1.9,0.1,3.6-0.9,4.6-2.4c0.7-1.3,0.7-2.9,0.5-4.3
			C155.6,145.6,155.4,146,155.2,146.3z"/>
		
			<linearGradient id="SVGID_32_" gradientUnits="userSpaceOnUse" x1="227.8145" y1="407.9371" x2="227.8145" y2="414.2501" gradientTransform="matrix(1 0 0 -1 -69 532.6278)">
			<stop  offset="0" style="stop-color:#808181;stop-opacity:0.25"/>
			<stop  offset="0.54" style="stop-color:#808181;stop-opacity:0.12"/>
			<stop  offset="1" style="stop-color:#808181;stop-opacity:0.1"/>
		</linearGradient>
		<path class="st49" d="M158.6,120.7c-0.4,0.3-0.8,0.6-1.1,1c-0.2,0.4-0.3,0.9-0.3,1.3c0,0.6,0.2,1.1,0.4,1.7c0.3-0.3,0.6-0.6,1-0.8
			c1.7-1.4,2.2-3.5,1.6-5.5C159.9,119.3,159.3,120.1,158.6,120.7z"/>
		
			<linearGradient id="SVGID_33_" gradientUnits="userSpaceOnUse" x1="226.1921" y1="393.4639" x2="226.1921" y2="400.543" gradientTransform="matrix(1 0 0 -1 -69 532.6278)">
			<stop  offset="0" style="stop-color:#808181;stop-opacity:0.25"/>
			<stop  offset="0.54" style="stop-color:#808181;stop-opacity:0.12"/>
			<stop  offset="1" style="stop-color:#808181;stop-opacity:0.1"/>
		</linearGradient>
		<path class="st50" d="M158.1,133.8c-0.9,0.7-2.3,1.1-2.9,2c-0.3,0.5-0.4,1-0.3,1.5c0,0.6,0.1,1.2,0.2,1.8c0-0.1,0.1-0.1,0.1-0.2
			c0.6-0.9,2-1.3,2.9-2c1.6-1.2,1.7-3.1,1.3-4.9C159.1,132.8,158.6,133.4,158.1,133.8z"/>
	</g>
	
		<linearGradient id="SVGID_34_" gradientUnits="userSpaceOnUse" x1="233.7217" y1="394.3195" x2="233.7217" y2="401.0893" gradientTransform="matrix(1 0 0 -1 -69 532.6278)">
		<stop  offset="0" style="stop-color:#808181;stop-opacity:0.25"/>
		<stop  offset="0.54" style="stop-color:#808181;stop-opacity:0.12"/>
		<stop  offset="1" style="stop-color:#808181;stop-opacity:0.1"/>
	</linearGradient>
	<path class="st51" d="M170.1,134.4c-1.1,2.7-2.5,3.8-2.5,3.8h-0.8l-6.8,0.1l-0.8-2.1l1.1-4.6l0.7,0c0.4,0.2,0.9,0.4,1.3,0.4
		c0.5,0,1.5,0,1.8,0.1c0,0,0.1,0,0.1,0c0.3,0,0.5-0.4,0.5-0.4S171.2,131.7,170.1,134.4z"/>
	<g class="st20">
		
			<linearGradient id="SVGID_35_" gradientUnits="userSpaceOnUse" x1="236.2264" y1="394.3889" x2="236.2264" y2="400.939" gradientTransform="matrix(1 0 0 -1 -69 532.6278)">
			<stop  offset="0" style="stop-color:#808181;stop-opacity:0.25"/>
			<stop  offset="0.54" style="stop-color:#808181;stop-opacity:0.12"/>
			<stop  offset="1" style="stop-color:#808181;stop-opacity:0.1"/>
		</linearGradient>
		<path class="st52" d="M170.1,134.4c-1.1,2.7-2.5,3.8-2.5,3.8h-0.8c0.4-1.1,1.3-3.3,1.6-3.8c0.3-0.5-2.5-1.7-4.2-2.3
			c0.3,0,0.5-0.4,0.5-0.4S171.2,131.7,170.1,134.4z"/>
	</g>
	<path class="st53" d="M164.5,136.5c0,0,3.8,2.4,5.2,1.1c1.4-1.3,1.3-3.8,1.1-4.2s-1.7-5.5-1.7-5.5l-3-7.5c0,0-1.8-9.9-4.5-7.4
		c-2.7,2.5,1.4,8.4,1.4,8.4s1.7,4.3,1.6,5.2c-0.1,0.9,0.9,4,0.9,4L164.5,136.5z"/>
	<path class="st6" d="M157.5,224.9c0,0.1-0.1,0.2-0.1,0.4c-0.4,1.2-1,0.9-3,2.9c-1,1.1-2.5,1.5-3.9,1.1c-0.2-0.1-0.4-0.3-0.3-0.5
		l0.2-3.2l0.1-1.5c0,0,3.1,0.9,4.7-0.2c0.1,0,0.1-0.1,0.2-0.1c0,0,0,0,0,0c0.5-0.4,1.3-0.4,1.8,0.2
		C157.5,224.1,157.6,224.5,157.5,224.9z"/>
	<path class="st6" d="M147.8,223.7c0,0.1-0.1,0.2-0.1,0.4c-0.4,1.2-1,0.9-3,2.9c-1,1.1-2.5,1.5-3.9,1.1c-0.2-0.1-0.4-0.3-0.3-0.5
		l0.2-3.2l0.1-1.5c0,0,3.1,0.9,4.7-0.2c0.1,0,0.1-0.1,0.2-0.1l0,0c0.5-0.4,1.3-0.4,1.8,0.2C147.8,222.9,147.9,223.3,147.8,223.7z"/>
	<path class="st8" d="M144.6,224.2l0.1,1.7c-1.8,1.8-3.9-0.9-4.5-1.7C141.8,224.9,144.6,224.2,144.6,224.2z"/>
	<path class="st8" d="M155,224.8l0.2-0.2c-1.6,2.5-4,1.3-4.8,0.9l0.1-1.5c0,0,3.1,0.9,4.7-0.2C155.1,224.4,155,224.8,155,224.8z"/>
	<path class="st54" d="M160,178.1c-1.2,3.1-2.5,13.5-2.6,14.7c-0.2,1.2-0.1,6.1-0.1,6.1l-0.3,12.1c0,1.5-1.2,5.3-1.2,5.3
		s-0.4,3.2-0.2,4.2c0.2,1.1-0.5,3.8-0.5,3.8l0.2-0.2c-1.9,3-5,0.7-5,0.7s-0.7-3.6,0-4.5S150,217,150,217s0.4-14.4,0.5-15
		s-0.5-2.7-1-4.4c-0.5-1.7,0.3-8.3,0.5-9.5s-0.1-6.7-0.3-7.8s0.2-5.8,0.2-5.8c-0.8-2.3-1.4-0.2-1.4-0.2l-0.6,6.1l-0.7,12.5
		c0,0,0.1,3.8-0.5,4.9c-0.6,1.1-1.1,3.9-1.1,3.9l0.3,14.2c0,0,0,3,0.2,4.1s-0.4,4-0.4,4c-2.2,5.1-5.7-0.4-5.7-0.4s0.2-0.9,0.5-1
		s-0.1-2.2-0.3-2.6c-0.2-0.3,0-2.9,0-2.9s-0.3-2.3-0.7-5.1c-0.4-2.8-0.3-13.4,0-14.1s0.5-3.7,0.5-3.7s-0.3-1.8,0.1-3
		c0.4-1.2-0.9-6.5-0.9-7.1s-0.5-4.2-0.8-4.6c-0.2-0.3-0.3-0.7-0.3-1.1c0,0,0-0.8-0.7-3.1c-0.5-1.7-0.2-5.1,0-6.8
		c0.1-0.6,0.1-1,0.1-1s22.3-3.6,23.2-2.8c0.2,0.2,0.3,0.9,0.4,1.8C161.4,169.6,160.9,175.7,160,178.1z"/>
	<path class="st8" d="M151.5,195.6c0.1,0,2.6,0.2,3.5,0C155.9,195.4,151.5,195.6,151.5,195.6z"/>
	<path class="st8" d="M151.7,197.1c0,0,3.4,0.6,3.6,0.3C155.5,197,151.7,197.1,151.7,197.1z"/>
	<path class="st8" d="M141.3,196.4c0,0,1.8,0.1,2.7,0.5C145,197.4,141.3,196.4,141.3,196.4z"/>
	<path class="st53" d="M134.9,152.8c0,0,0.3,5.4,0.1,6.4c0,0,0.6,4.4,1.1,5.5c0.5,0.9,1,1.7,1.6,2.5l1.5-10.8l-0.4-3.7L134.9,152.8z
		"/>
	<circle class="st53" cx="151" cy="122.1" r="6"/>
	<path class="st53" d="M147.9,124.9c0,0-1.9,3.7-3.7,5.4s11.2,3.7,11.5,3.7c0.3,0-2.3-7.8-1.9-8.7
		C154.2,124.3,147.9,124.9,147.9,124.9z"/>
	<path class="st8" d="M161.1,166.5c-0.3,0.2-0.6,0.4-1,0.5c-2.4,0.9-5,2.2-6.7,1.7c-1.8-0.5-5.5,0-5.5,0s-7.5-0.6-9-0.3
		c-0.5,0.2-1,0.2-1.6,0c0.1-0.6,0.1-1,0.1-1s22.3-3.6,23.2-2.8C160.9,164.9,161,165.6,161.1,166.5z"/>
	<path class="st6" d="M162.7,163.1c0,0-0.2,2.6-2.6,3.5c-2.4,0.9-5,2.2-6.7,1.7c-1.8-0.5-5.5,0-5.5,0s-7.5-0.6-9-0.3
		s-2.3-0.1-1.8-0.8c0.5-0.7,0.4-2.9,0.4-3.8s-0.5-4.7-0.1-5.4c0.5-0.7,0.9-3.3,1.8-3.7c0.3-0.1,0.5-0.4,0.6-0.7
		c0.1-0.3,0.1-0.6,0-0.9c0,0-0.2-0.1-0.4-0.3c-0.5-0.5-1.5-1.4-1.2-1.7c0.4-0.4,0-3.1,0-3.1s-1-2.1-0.6-2.9c0.4-0.8-3.2-4.9-3.2-4.9
		s0-7.1,4.3-7.4c0,0,3,0.1,3.4-1.2s2.8-2.1,2.8-2.1l5.4,1.2c0,0,4.8,1,5.7,0.4s1.5,0.8,1.5,0.8s3,0.2,3.3,0.8c0.3,0.6-1,6.7-1,6.7
		s-2.2-0.2-2,2.1c0.2,2.3-0.8,5.3-0.8,5.3s-0.2,1.7-0.1,2.1c0.1,0.4-0.2,1.6-0.3,1.8v0c0,0-0.2,0.9,0.1,1.2c0,0,0.1,0.1,0.1,0.1
		c0.4,0.2,1,2.2,1,2.2c0.3,0.4,0.5,0.9,0.5,1.4c-0.1,0.8,0.3,2.8,1.6,3.9S162.7,163.1,162.7,163.1z"/>
	<path class="st6" d="M139.6,151.1v0.2l-0.1,2.4c0,0-3.2,0.3-4.9-0.2c-1.7-0.4-1-2.4-0.9-2.8l0,0c0.1-0.4,0.5-3.4,0.5-3.9
		c0-0.5,0-2.5-0.1-3.5c-0.1-0.9,0.4-3.5,0.4-3.5l0.3-0.4l3.7,1.4L139.6,151.1z"/>
	<path class="st8" d="M139.6,151.3l-0.1,2.4c0,0-3.2,0.3-4.9-0.2c-1.7-0.4-1-2.4-0.9-2.8L139.6,151.3z"/>
	<path class="st8" d="M139.8,153.7c0.1-0.3,0.1-0.6,0-0.9c0,0-0.2-0.1-0.4-0.3c2.8-0.4,13.6-1.9,17.3-2v0c0,0-0.2,0.9,0.1,1.2
		L139.8,153.7z"/>
	<path class="st8" d="M157.1,155.6c0,0,0.7,3.8-1.8,5.2C155.3,160.7,156.7,158.9,157.1,155.6z"/>
	<path class="st8" d="M140.6,160.9c0,0,6.1-1,7.3-0.2C149.1,161.4,140.6,160.9,140.6,160.9z"/>
	<path class="st8" d="M155,137.2c0,0-0.9,3.8-0.2,4.7C155.5,142.8,155,137.2,155,137.2z"/>
	<path class="st8" d="M137.4,134.1c0,0,0.9,1.4,0.3,2.9S137.4,134.1,137.4,134.1z"/>
	<path class="st6" d="M135.7,146.6c0,0,1.1,0.7,0.7,1.7S135.7,146.6,135.7,146.6z"/>
	<path class="st8" d="M135.6,143.6c0,0,1,0.5,1.1,1.3C136.8,145.8,135.6,143.6,135.6,143.6z"/>
	<path class="st8" d="M150.6,174.7c0,0,6.4,0.7,7.6-0.9C158.2,173.8,152.5,174.9,150.6,174.7z"/>
	<path class="st8" d="M139.6,174.3c0,0,6.8,1.6,8.2,0.3C147.8,174.6,141.9,175.1,139.6,174.3z"/>
	<path class="st8" d="M151.1,176.8c0,0,2.9,0,4.2,0.1C156.6,176.9,151.1,176.8,151.1,176.8z"/>
	<path class="st8" d="M140.1,178c0,0,1.4,1.6,3,1.3S140.1,178,140.1,178z"/>
	<path class="st55" d="M142.8,113.1c-0.4,0.7-0.5,1.5-0.6,2.2c-0.3,1.9-1.2,3.6-2.5,4.9c-1.2,1.3-3,2.5-3.3,4.1
		c-0.3,1.5,0.7,3,1.3,4.5c1.4,3.9-0.6,8.1-1.2,12.1c-0.2,1.1,0,2.6,1.4,2.9c0.4,0.1,0.9,0.1,1.3,0.3c0.5,0.2,0.7,0.8,0.8,1.2
		c0.3,1.7,0.5,3.4,0.4,5.1c-0.1,1-0.1,2.1,0.8,2.7c0.5,0.3,1,0.5,1.5,0.6c1.4,0.4,3.3,0.7,4.2-0.2c0.4-0.4,0.6-0.9,1.1-1.2
		c0.8-0.4,1.8-0.1,2.8-0.1c1.8,0.1,3.5-0.8,4.5-2.4c0.8-1.4,0.7-2.9,0.4-4.4c-0.3-1.5-0.8-3-0.8-4.5c0-0.5,0.1-1.1,0.3-1.5
		c0.6-0.9,1.9-1.3,2.8-2c1.7-1.3,1.7-3.5,1.1-5.3s-1.8-3.5-1.9-5.4c-0.1-0.5,0-0.9,0.3-1.3c0.3-0.4,0.7-0.7,1.1-1
		c2.5-2.1,2.2-5.6,0.1-8C156.4,114,145.9,108.3,142.8,113.1z"/>
	<g class="st20">
		<path class="st56" d="M138.1,130.6c0.2-1.6,0.1-3.2-0.4-4.7c-0.3-0.8-0.7-1.5-1-2.3c-0.1,0.3-0.2,0.6-0.3,0.9
			c-0.3,1.5,0.7,3,1.3,4.5C137.8,129.5,138,130.1,138.1,130.6z"/>
		<path class="st56" d="M140.4,147.6c0.1-1.7,0-3.4-0.4-5.1c-0.1-0.5-0.3-1-0.8-1.2c-0.4-0.2-0.9-0.2-1.3-0.3c-0.5-0.1-1-0.5-1.2-1
			c-0.1,0.4-0.1,0.8-0.2,1.2c-0.2,1.1,0,2.6,1.4,2.9c0.4,0.1,0.9,0.1,1.3,0.3c0.5,0.3,0.7,0.8,0.8,1.2c0.2,0.8,0.3,1.6,0.3,2.3
			C140.4,147.9,140.4,147.7,140.4,147.6z"/>
		<path class="st56" d="M155.2,147c-0.9,1.6-2.7,2.5-4.5,2.4c-0.9,0-2-0.3-2.8,0.1c-0.5,0.3-0.7,0.8-1.1,1.2c-1,0.9-2.8,0.6-4.2,0.2
			c-0.5-0.1-1-0.3-1.5-0.6c-0.4-0.3-0.7-0.7-0.7-1.2c0,0.5,0,1.1,0,1.6c-0.1,1-0.1,2.1,0.8,2.7c0.5,0.3,1,0.5,1.5,0.6
			c1.4,0.4,3.3,0.7,4.2-0.2c0.4-0.4,0.6-0.9,1.1-1.2c0.8-0.4,1.8-0.1,2.8-0.1c1.8,0.1,3.5-0.8,4.5-2.4c0.7-1.3,0.7-2.8,0.4-4.3
			C155.5,146.2,155.4,146.6,155.2,147z"/>
		<path class="st56" d="M158.5,121.6c-0.4,0.3-0.7,0.6-1,1c-0.2,0.4-0.3,0.9-0.3,1.3c0.1,0.6,0.2,1.1,0.4,1.7
			c0.3-0.3,0.6-0.6,0.9-0.8c1.7-1.4,2.1-3.5,1.6-5.4C159.7,120.2,159.2,121,158.5,121.6z"/>
		<path class="st56" d="M158,134.6c-0.9,0.7-2.3,1.1-2.8,2c-0.3,0.5-0.4,1-0.3,1.5c0,0.6,0.1,1.2,0.2,1.8c0-0.1,0.1-0.1,0.1-0.2
			c0.6-0.9,1.9-1.3,2.8-2c1.6-1.2,1.7-3.1,1.2-4.8C159,133.6,158.5,134.1,158,134.6z"/>
	</g>
	<path class="st6" d="M169.8,135.2c-1.1,2.7-2.4,3.8-2.4,3.8h-0.8l-6.7,0.1l-0.8-2.1l1.1-4.6l0.7,0c0.4,0.2,0.8,0.4,1.3,0.4
		c0.5,0,1.4,0,1.7,0.1c0,0,0.1,0,0.1,0c0.3,0,0.5-0.4,0.5-0.4S170.9,132.5,169.8,135.2z"/>
	<path class="st8" d="M169.8,135.2c-1.1,2.7-2.4,3.8-2.4,3.8h-0.8c0.4-1.1,1.2-3.3,1.6-3.8c0.3-0.5-2.5-1.7-4.2-2.3
		c0.3,0,0.5-0.4,0.5-0.4S170.9,132.5,169.8,135.2z"/>
	<text transform="matrix(1 0 0 1 34.8243 22.5329)" class="st56 st57 st58">53a6f9</text>
</g>
</svg>
