<?xml version="1.0" encoding="utf-8"?>
<!-- Generator: Adobe Illustrator 24.1.1, SVG Export Plug-In . SVG Version: 6.00 Build 0)  -->
<svg version="1.1" id="Calque_1" xmlns="http://www.w3.org/2000/svg" xmlns:xlink="http://www.w3.org/1999/xlink" x="0px" y="0px"
	 viewBox="0 0 306.1 211" style="enable-background:new 0 0 306.1 211;" xml:space="preserve">
<style type="text/css">
	.st0{opacity:0.1;fill:#63A0D7;enable-background:new    ;}
	.st1{fill:#63A0D7;}
	.st2{fill:#454153;}
	.st3{opacity:0.7;}
	.st4{opacity:0.1;fill:#020203;enable-background:new    ;}
	.st5{fill:#FFFFFF;}
	.st6{opacity:0.3;fill:#63A0D7;enable-background:new    ;}
	.st7{opacity:0.3;fill:#020203;enable-background:new    ;}
	.st8{fill:url(#SVGID_1_);}
	.st9{fill:#A6646D;}
	.st10{opacity:5.000000e-02;fill:#020203;enable-background:new    ;}
	.st11{fill:#BEBED0;}
	.st12{fill:#5E5D8F;}
	.st13{fill:none;}
	.st14{opacity:0.1;}
	.st15{fill:#020203;}
	.st16{fill:#F8CDDD;}
	.st17{fill:#4C3E42;}
	.st18{opacity:0.1;fill:#FFFFFF;enable-background:new    ;}
	.st19{fill:#EFC8C5;}
	.st20{fill:#727B9D;}
	.st21{fill:#57B46A;}
	.st22{fill:#FFD13B;}
	.st23{fill:#66627D;}
	.st24{fill:#9E9CB5;}
</style>
<g>
	<path class="st0" d="M94.5,10.7C104.9,1.3,121.2-0.6,136,0.1c46.6,2.3,88.7,25.1,125.1,50.8c13.2,9.3,26.1,19.3,34.7,32.1
		c17.4,26.1,12.2,62.2-12,83.7c-8.2,7.3-18.2,12.9-28.5,17.9c-18.2,8.8-37.9,15.9-58.6,17.9c-14.8,1.4-29.7,0.3-44.3-1.7
		c-41-5.6-81.2-18-114.9-39.2c-14.8-9.3-28.7-20.9-34.8-36S0.6,91.5,15.7,82.6c6.2-3.7,13.7-5.4,21-6.9c10.8-2.3,21.7-4.6,31.4-9.2
		C78.1,61.6,90,52.2,88,41.5C85.9,30.1,84.1,20,94.5,10.7z"/>
	<path class="st1" d="M68,118.6c0,0,2.7-2,5.6-0.8c0,0-0.8,1.7-4.3,1.7L68,118.6z"/>
	<path class="st1" d="M67.7,118.8c0,0-0.7,3.3,1.5,5.4c0,0,1.2-1.4-0.2-4.6L67.7,118.8z"/>
	<path class="st1" d="M64,115.8c0,0,0.1-2.8,6.4-2.1c0,0,0.1,1.8-2.1,2.7C66.2,117.3,65.2,116.6,64,115.8z"/>
	<path class="st1" d="M63.6,115.7c0,0-2.6,1,0,6.7c0,0,1.7-0.5,2-2.8C65.8,117.3,64.8,116.6,63.6,115.7z"/>
	<path class="st1" d="M59.9,111.9c0,0-0.5-4.6,5.9-4.3c0,0,0.6,4.1-4.7,5.4L59.9,111.9z"/>
	<path class="st1" d="M55.5,106.9c0,0,0.7-5.2,7.2-3.9c0,0,0.2,4.5-6.1,5.1L55.5,106.9z"/>
	<path class="st1" d="M52.2,101.7c0,0,1.3-5.1,7.7-3.8c0,0-1.3,4.6-7.2,4.8L52.2,101.7z"/>
	<path class="st1" d="M49.1,96.6c0,0,1.2-5.3,7.4-4c0,0-1.9,5.1-7,4.8L49.1,96.6z"/>
	<path class="st1" d="M47,91.8c0,0,0.9-6.4,6.6-5.2c0,0-1.4,5.9-6.2,6.2L47,91.8z"/>
	<path class="st1" d="M45,85.9c0,0,1.1-6.5,6.9-4.8c0,0-2,6.2-6.5,5.7L45,85.9z"/>
	<path class="st1" d="M43.7,80.3c0,0,1.9-6.5,6.3-6.5c0,0-1.9,6.9-5.9,7.8L43.7,80.3z"/>
	<path class="st1" d="M42.8,74.9c0,0,2-7.9,5.7-7.4c0,0-1.4,6-5.5,8.6L42.8,74.9z"/>
	<path class="st1" d="M42.1,68.5c0,0,1.9-6.6,5.5-7c0,0-1.2,6.4-5.3,8.6L42.1,68.5z"/>
	<path class="st1" d="M41.5,62.4c0,0,2.4-6.6,4.8-6.8c0,0-0.9,6.4-4.5,7.9L41.5,62.4z"/>
	<path class="st1" d="M40.9,56.8c0,0,1.4-7.1,3.7-7.8c0,0-0.1,5.8-3.5,8.3L40.9,56.8z"/>
	<path class="st1" d="M39.8,49.5c0,0,1.5-5.7,3.4-6.6c0,0-0.1,6.6-2.9,7.9L39.8,49.5z"/>
	<path class="st1" d="M38.8,44.7l-0.7-9.9c0,0,3.9,7.3,1.1,11.6L38.8,44.7z"/>
	<path class="st1" d="M35.7,35c0,0-2.9-7.1-3.5-7.5c0,0,5.2,4.5,5,10.5L35.7,35z"/>
	<path class="st1" d="M59.8,111.9c0,0-4.6-0.4-4.2,6c0,0,4.1,0.5,5.3-4.9L59.8,111.9z"/>
	<path class="st1" d="M55.3,106.8c0,0-5.3,0.2-4.6,6.7c0,0,4.4,0.6,5.7-5.5L55.3,106.8z"/>
	<path class="st1" d="M52.2,102.2c0,0-4.9-2.1-7.7,3.8c0,0,4.5,1.7,8.1-2.9L52.2,102.2z"/>
	<path class="st1" d="M49,96.7c0,0-5-2.2-7.6,3.6c0,0,5.2,1.6,8.1-2.7L49,96.7z"/>
	<path class="st1" d="M47.1,91.9c0,0-4.9-4.3-8.4,0.4c0,0,4.9,3.5,8.7,0.6L47.1,91.9z"/>
	<path class="st1" d="M45.2,85.7c0,0-4.9-4.4-8.4,0.5c0,0,5.4,3.6,8.6,0.4L45.2,85.7z"/>
	<path class="st1" d="M44.1,80.1c0,0-3.9-5.6-8.1-4.1c0,0,4,5.9,8.1,5.5L44.1,80.1z"/>
	<path class="st1" d="M42.9,74.9c0,0-4-7.1-7.4-5.7c0,0,2.9,5.4,7.5,6.9L42.9,74.9z"/>
	<path class="st1" d="M42.4,68.1c0,0-4-5.5-7.5-4.7c0,0,3.3,5.6,7.9,6.3L42.4,68.1z"/>
	<path class="st1" d="M41.8,62.3c0,0-3.2-6.3-5.5-6.2c0,0,1.6,6.3,5.4,7.3L41.8,62.3z"/>
	<path class="st1" d="M41.1,56.7c0,0-3.5-6.3-5.9-6.3c0,0,1.9,5.5,5.9,6.8L41.1,56.7z"/>
	<path class="st1" d="M40.3,49.9c0,0-2.6-5.3-4.7-5.8c0,0,1.5,6.5,4.5,7.2L40.3,49.9z"/>
	<path class="st1" d="M38.5,44.5l-5.7-8.1c0,0,1.7,8.1,6.6,9.6L38.5,44.5z"/>
	<path class="st1" d="M34.5,35.7c0,0-6.5-4.1-6.7-4.8c0,0,3.4,6,9.4,6.8L34.5,35.7z"/>
	<path class="st1" d="M34,33.7c0,0-7.5-6.7-9.4-6.6c0,0,6,0,9.5,6.2L34,33.7z"/>
	<path class="st2" d="M40.3,50.9L40,51c-1.8-10.6-4-16.8-6.3-17.5l0.1-0.3C36.2,33.9,38.5,40,40.3,50.9z"/>
	<path class="st2" d="M43.3,76.3l-0.4,0c-0.1-1-0.2-2-0.3-3c-0.7-8.8-1.6-16.9-2.6-22.9l0.2-0.3c1,6.1,2.1,14.4,2.8,23.2
		C43,74.3,43.1,75.3,43.3,76.3z"/>
	<path class="st2" d="M75.6,123.4c-0.1,0-7.2-2.9-14.8-10.1c-4.4-4.2-8.2-9.1-11.1-14.5c-3.6-6.7-6-15.1-7-23.3l0.4,0.2
		c2.3,18.3,11.1,30.6,18,37.2c7.5,7.1,14.6,10,14.6,10L75.6,123.4z"/>
	<g class="st3">
		<path class="st1" d="M79.1,101.9c0,0,3.2-1.1,5.6,0.9c0,0-1.3,1.4-4.6,0.3L79.1,101.9z"/>
		<path class="st1" d="M78.7,101.9c0,0-1.7,2.9-0.2,5.6c0,0,1.6-1,1.2-4.5L78.7,101.9z"/>
		<path class="st1" d="M76.2,97.9c0,0,0.9-2.6,6.7-0.1c0,0-0.4,1.7-2.8,2C77.8,100,77,99.1,76.2,97.9z"/>
		<path class="st1" d="M75.8,97.8c0,0-2.8,0.1-2,6.4c0,0,1.8,0.1,2.7-2.1S76.7,98.9,75.8,97.8z"/>
		<path class="st1" d="M73.4,93.1c0,0,0.8-4.5,6.9-2.4c0,0-0.6,4.1-6.1,3.7L73.4,93.1z"/>
		<path class="st1" d="M70.6,87c0,0,2.2-4.8,8-1.6c0,0-1.1,4.3-7.3,3.1L70.6,87z"/>
		<path class="st1" d="M69,81c0,0,2.7-4.5,8.5-1.4c0,0-2.6,4-8.3,2.4L69,81z"/>
		<path class="st1" d="M67.6,75.2c0,0,2.8-4.7,8.3-1.6c0,0-3.3,4.3-8.1,2.5L67.6,75.2z"/>
		<path class="st1" d="M67,69.9c0,0,2.7-5.9,7.9-3c0,0-3.1,5.2-7.7,4L67,69.9z"/>
		<path class="st1" d="M66.9,63.7c0,0,3-5.9,8.1-2.6c0,0-3.8,5.3-7.9,3.5L66.9,63.7z"/>
		<path class="st1" d="M67.3,58c0,0,3.7-5.7,8-4.4c0,0-3.9,6-8,5.7L67.3,58z"/>
		<path class="st1" d="M68,52.6c0,0,4.2-6.9,7.6-5.4c0,0-3.1,5.3-7.8,6.6L68,52.6z"/>
		<path class="st1" d="M69.3,46.2c0,0,3.8-5.7,7.3-5c0,0-3.1,5.8-7.7,6.7L69.3,46.2z"/>
		<path class="st1" d="M70.5,40.3c0,0,4.3-5.6,6.6-5.1c0,0-2.8,5.9-6.7,6.2L70.5,40.3z"/>
		<path class="st1" d="M71.6,34.8c0,0,3.4-6.4,5.9-6.3c0,0-1.8,5.5-5.8,6.9L71.6,34.8z"/>
		<path class="st1" d="M72.7,27.4c0,0,3.1-5,5.2-5.3c0,0-2.1,6.3-5.1,6.7L72.7,27.4z"/>
		<path class="st1" d="M73.2,22.6l2.2-9.6c0,0,1.5,8.1-2.4,11.4L73.2,22.6z"/>
		<path class="st1" d="M73.1,12.4c0,0-0.6-7.7-1.1-8.2c0,0,3.7,5.8,1.6,11.5L73.1,12.4z"/>
		<path class="st1" d="M73.2,93c0,0-4.2-1.8-5.8,4.5c0,0,3.8,1.7,6.5-3.1L73.2,93z"/>
		<path class="st1" d="M70.5,86.7c0,0-5.1-1.4-6.4,5.1c0,0,4.1,1.9,7.1-3.6L70.5,86.7z"/>
		<path class="st1" d="M68.9,81.4c0,0-4-3.4-8.5,1.4c0,0,3.8,2.9,8.6-0.4L68.9,81.4z"/>
		<path class="st1" d="M67.4,75.2c0,0-4.1-3.6-8.3,1.1c0,0,4.5,3,8.5-0.2L67.4,75.2z"/>
		<path class="st1" d="M67,70.1c0,0-3.4-5.6-8.2-2.2c0,0,3.7,4.8,8.1,3.2L67,70.1z"/>
		<path class="st1" d="M67.2,63.6c0,0-3.4-5.7-8.2-2c0,0,4.1,5,8.1,3L67.2,63.6z"/>
		<path class="st1" d="M67.8,58c0,0-2-6.5-6.5-6.4c0,0,2.1,6.9,6.1,7.7L67.8,58z"/>
		<path class="st1" d="M68.1,52.6c0,0-1.7-7.9-5.3-7.6c0,0,1.1,6.1,5.1,8.8L68.1,52.6z"/>
		<path class="st1" d="M69.6,46c0,0-2.2-6.5-5.8-6.7c0,0,1.5,6.4,5.7,8.4L69.6,46z"/>
		<path class="st1" d="M70.9,40.3c0,0-1.2-6.9-3.4-7.6c0,0-0.3,6.5,3,8.6L70.9,40.3z"/>
		<path class="st1" d="M71.8,34.7c0,0-1.5-7.1-3.8-7.7c0,0,0.2,5.8,3.6,8.3L71.8,34.7z"/>
		<path class="st1" d="M73.1,28c0,0-1-5.8-2.7-6.9c0,0-0.5,6.6,2.1,8.2L73.1,28z"/>
		<path class="st1" d="M73,22.3l-3.1-9.4c0,0-0.8,8.2,3.4,11.1L73,22.3z"/>
		<path class="st1" d="M71.8,12.7c0,0-5-5.9-5-6.6c0,0,1.5,6.7,7,9.3L71.8,12.7z"/>
		<path class="st1" d="M71.9,10.7c0,0-5.2-8.6-7-9.1c0,0,5.7,1.8,7.2,8.8L71.9,10.7z"/>
		<path class="st2" d="M72.8,28.9l-0.3,0c1.5-10.7,1.2-17.3-0.8-18.6l0.2-0.2C74,11.5,74.3,18,72.8,28.9z"/>
		<path class="st2" d="M68,54.1L67.6,54c0.2-1,0.4-2,0.6-3c1.9-8.6,3.5-16.6,4.3-22.7l0.3-0.2c-0.8,6.1-2.3,14.3-4.2,23
			C68.4,52.1,68.2,53.1,68,54.1z"/>
		<path class="st2" d="M85,108.7c-0.1,0-6-4.9-11.1-14c-3-5.3-5.1-11.1-6.3-17.1c-1.5-7.5-1.3-16.2,0.2-24.3l0.3,0.3
			c-3.3,18.2,1.5,32.5,6.2,40.8c5,9,10.9,13.9,11,13.9L85,108.7z"/>
	</g>
	<path class="st1" d="M268.7,199.8c0,0-11.2-0.7-9.9,7.2c0,0-0.3,1.4,1,2c0,0,0-0.6,1.1-0.4c0.4,0.1,0.8,0.1,1.2,0.1
		c0.5,0,1.1-0.3,1.5-0.6l0,0c0,0,3.1-1.3,4.4-6.4c0,0,0.9-1.1,0.9-1.4l-1.9,0.8c0,0,0.6,1.4,0.1,2.5c0,0-0.1-2.4-0.4-2.4
		c-0.1,0-1,0.5-1,0.5s1.1,2.4,0.3,4.1c0,0,0.3-2.9-0.6-3.9l-1.3,0.8c0,0,1.3,2.5,0.4,4.5c0,0,0.2-3.1-0.7-4.3l-1.2,0.9
		c0,0,1.2,2.4,0.5,4.1c0,0-0.1-3.6-0.7-3.8c0,0-1.1,0.9-1.2,1.3c0,0,0.8,1.8,0.3,2.7c0,0-0.3-2.4-0.6-2.4c0,0-1.1,1.6-1.2,2.6
		c0,0,0-1.6,0.9-2.8c-0.6,0.1-1.2,0.4-1.6,0.8c0,0,0.2-1.1,1.9-1.2c0,0,0.9-1.2,1.1-1.3c0,0-1.7-0.1-2.7,0.3c0,0,0.9-1.1,3-0.6
		l1.2-1c0,0-2.2-0.3-3.2,0c0,0,1.1-0.9,3.5-0.3l1.3-0.8c0,0-1.9-0.4-3-0.3c0,0,1.2-0.6,3.4,0.1l0.9-0.4c0,0-1.4-0.3-1.8-0.3
		s-0.4-0.2-0.4-0.2c0.9-0.1,1.8,0,2.6,0.3C266.8,200.6,268.8,199.9,268.7,199.8z"/>
	<ellipse class="st0" cx="261" cy="209.7" rx="7.9" ry="1.3"/>
	<path class="st1" d="M290.2,179.1c0,0-6.3-0.4-5.6,4c-0.1,0.5,0.1,0.9,0.6,1.1c0,0,0-0.3,0.6-0.2c0.2,0,0.5,0.1,0.7,0
		c0.3,0,0.6-0.1,0.8-0.3l0,0c0,0,1.8-0.7,2.5-3.6c0,0,0.5-0.6,0.5-0.8l-1.1,0.5c0,0,0.4,0.8,0.1,1.4c0,0,0-1.4-0.2-1.3
		c0,0-0.6,0.3-0.6,0.3s0.6,1.3,0.2,2.3c0,0,0.2-1.7-0.3-2.2l-0.7,0.4c0,0,0.7,1.4,0.2,2.5c0,0,0.1-1.7-0.4-2.4l-0.7,0.5
		c0,0,0.7,1.4,0.3,2.3c0,0-0.1-2-0.4-2.2c-0.3,0.2-0.5,0.5-0.7,0.7c0,0,0.5,1,0.2,1.5c0,0-0.2-1.3-0.3-1.3c0,0-0.6,0.9-0.7,1.5
		c0-0.6,0.2-1.1,0.5-1.6c-0.3,0.1-0.7,0.2-0.9,0.5c0,0,0.1-0.6,1.1-0.7c0,0,0.5-0.7,0.6-0.7c0,0-1-0.1-1.5,0.2c0,0,0.5-0.6,1.7-0.3
		l0.7-0.5c0,0-1.3-0.2-1.8,0c0,0,0.6-0.5,2-0.1l0.7-0.4c-0.6-0.1-1.1-0.2-1.7-0.1c0,0,0.7-0.4,1.9,0l0.5-0.2c0,0-0.8-0.2-1-0.2
		s-0.2-0.1-0.2-0.1c0.5-0.1,1,0,1.5,0.2C289.1,179.6,290.2,179.2,290.2,179.1z"/>
	<ellipse class="st0" cx="285.9" cy="184.7" rx="4.5" ry="0.8"/>
	<path class="st1" d="M252.9,182.9c0,0-7.6-0.5-6.7,4.9c-0.1,0.6,0.2,1.1,0.7,1.4c0,0,0-0.4,0.8-0.3c0.3,0,0.6,0.1,0.8,0
		c0.4,0,0.7-0.2,1-0.4l0,0c0,0,2.1-0.9,3-4.4c0,0,0.6-0.8,0.6-1l-1.3,0.5c0,0,0.4,0.9,0.1,1.7c0,0,0-1.7-0.3-1.6
		c-0.1,0-0.7,0.3-0.7,0.3s0.8,1.6,0.2,2.8c0,0,0.2-2-0.4-2.7l-0.9,0.5c0,0,0.9,1.7,0.3,3c0,0,0.2-2.1-0.5-2.9l-0.8,0.6
		c0,0,0.8,1.6,0.3,2.8c0,0-0.1-2.4-0.5-2.6c0,0-0.7,0.6-0.8,0.9c0,0,0.6,1.2,0.2,1.8c0,0-0.2-1.6-0.4-1.6c0,0-0.7,1.1-0.8,1.8
		c0-0.7,0.2-1.3,0.6-1.9c-0.4,0.1-0.8,0.3-1.1,0.6c0,0,0.1-0.8,1.3-0.8c0,0,0.6-0.8,0.7-0.9c0,0-1.2-0.1-1.9,0.2
		c0,0,0.6-0.7,2.1-0.4l0.8-0.7c0,0-1.5-0.2-2.2,0c0,0,0.7-0.6,2.4-0.2l0.9-0.5c0,0-1.3-0.3-2.1-0.2c0,0,0.8-0.4,2.3,0l0.6-0.3
		c0,0-0.9-0.2-1.2-0.2c-0.3,0-0.3-0.1-0.3-0.1c0.6-0.1,1.2,0,1.8,0.2C251.6,183.5,253,183,252.9,182.9z"/>
	<ellipse class="st0" cx="247.7" cy="189.7" rx="5.4" ry="0.9"/>
	<path class="st4" d="M189.2,185.7L162.6,196l-38.8,15c-1.5-2.7-3.6-6.4-6.3-10.9c-9.2-15.2-24.4-39-38-59.8
		C64.2,116.9,51.1,97,51.1,97l9.5-2.8l77.7-22.5L189.2,185.7z"/>
	<path class="st5" d="M189.7,183.9l-26.6,10.3l-38.8,15c-1.5-2.7-3.6-6.4-6.3-10.9c-9.2-15.2-24.4-39-38-59.8
		C64.7,115,51.6,95.2,51.6,95.2l9.5-2.8l77.7-22.5L189.7,183.9z"/>
	<path class="st4" d="M189.7,183.9l-26.6,10.3c-14.8,3.1-30,4.5-45.1,4.2c-9.2-15.2-24.4-39-38-59.8L61.1,92.4l77.7-22.5
		L189.7,183.9z"/>
	<path class="st1" d="M209.5,177.5c0,0-41.3,24.4-102.9,18.9L57.4,76.6l23.5-4l81.4-14l46.2,116.6L209.5,177.5z"/>
	<path class="st4" d="M208.6,175.2c-9.7,0.5-21,0.4-32.3-0.9c-12.2-1.4-24.5-4.4-35.1-9.9c-8.8-4.5-16.4-9.5-23-15.4
		c-17.1-15.4-27.7-37.4-37.2-76.4l81.4-14L208.6,175.2z"/>
	<path class="st5" d="M238.8,168.5c0,0-30.4,6-61.4,2.3c-12.2-1.4-24.6-4.4-35.1-9.9c-8.8-4.5-16.4-9.5-23-15.4
		C98.2,126.4,87,97.2,75.4,38.2c0,0,50.6,12.2,100.6-14.5C176,23.7,192.9,128.9,238.8,168.5z"/>
	<path class="st4" d="M177.4,170.7c-12.2-1.4-24.6-4.4-35.1-9.9c-8.8-4.5-16.4-9.5-23-15.4c18-1.5,20.6-11.3,20.6-11.3
		C153.4,155.4,177.4,170.7,177.4,170.7z"/>
	<path class="st6" d="M101.6,59.9c0,0,27.2,3.1,52.6-11.2l1.7,5.6c0,0-24.3,12.1-54.4,12.1V59.9z"/>
	<path class="st7" d="M101.6,87.5c0,0,27-2.2,57.1-16.7l1,2.3c0,0-11.1,13.9-58.1,17.6V87.5z"/>
	<path class="st7" d="M104.8,98.3c0,0,27-2.2,57.1-16.7l1,2.3c0,0-11.1,13.9-58.1,17.6V98.3z"/>
	<path class="st7" d="M107.7,109.9c0,0,27-2.2,57.1-16.7l1,2.3c0,0-11.1,13.9-58.1,17.6V109.9z"/>
	<path class="st7" d="M111.2,119.8c0,0,27-2.2,57.1-16.7l1,2.3c0,0-11.1,13.9-58.1,17.6V119.8z"/>
	<path class="st4" d="M114.4,130.6c0,0,27-2.2,57.1-16.7l1,2.3c0,0-11.1,13.9-58.1,17.6L114.4,130.6z"/>
	<rect x="164.3" y="64.6" transform="matrix(0.9466 -0.3223 0.3223 0.9466 -13.1259 57.8812)" class="st6" width="8" height="8"/>
	<rect x="168.6" y="75.8" transform="matrix(0.9466 -0.3223 0.3223 0.9466 -16.5216 59.8676)" class="st6" width="8" height="8"/>
	<rect x="175.5" y="97.5" transform="matrix(0.9466 -0.3223 0.3223 0.9466 -23.1291 63.2448)" class="st6" width="8" height="8"/>
	<rect x="179.4" y="109.1" transform="matrix(0.9466 -0.3223 0.3223 0.9466 -26.6618 65.1396)" class="st6" width="8" height="8"/>
	<rect x="172.1" y="87.5" transform="matrix(0.9466 -0.3223 0.3223 0.9466 -20.1006 61.6214)" class="st6" width="8" height="8"/>
	
		<linearGradient id="SVGID_1_" gradientUnits="userSpaceOnUse" x1="249.5576" y1="350.2605" x2="249.5576" y2="478.1254" gradientTransform="matrix(1 0 0 -1 -22.3 537.2453)">
		<stop  offset="0" style="stop-color:#808181;stop-opacity:0.25"/>
		<stop  offset="0.54" style="stop-color:#808181;stop-opacity:0.12"/>
		<stop  offset="1" style="stop-color:#808181;stop-opacity:0.1"/>
	</linearGradient>
	<path class="st8" d="M257.6,119.1l-0.3-0.3c0.7-0.1,1.4-0.2,1.4-0.2s-2.5-9.1-6.7-12.1c-2.1-1.5-3.8-4-5.1-6.1
		c-2.2-3.9-4.8-7.6-7.5-11.1l-0.8-1l-0.3-0.4c0.5-0.7,1-1.4,1-2.2c0,0,0,0,0,0c0,0,0-0.1,0-0.1c0-0.1,0-0.2-0.1-0.3l0,0
		c-0.4-1-1.7-1.5-2.8-2.1c-2.4-1.3-3.4-4.3-3.9-7c-0.4-2.1-0.7-4.5-2.4-5.9c-1.1-0.9-2.5-1.2-3.6-2c-1-0.8-1.6-2.1-2.2-3.2
		c-1.1-1.9-2.5-3.7-4.3-4.9c-1.8-1.1-4.2-1.6-6.2-0.8c-0.8,0.3-1.5,0.8-2.2,1.1c-1.9,0.8-4.1,0.7-6,1.5c-2.3,1-3.8,3.3-5.2,5.5
		c-0.7,1.1-1.8,2.8-2.5,4.4c0-0.1,0-0.1,0-0.2c-0.3,0.7-0.5,1.5-0.5,2.3c0,0.3,0,0.7,0.1,1c0.3,1.1,1.1,1.6,2.2,2.1
		c0.1,0.3,0.1,0.7,0.2,1c0.9,3.1,3.3,5.5,6.3,6.5c0.1,0,0.2,0.1,0.3,0.1c0.1,0.2,0.2,0.4,0.3,0.6c0.8,1.1,2.5,0.8,3.6,0
		c0,0,0.1-0.1,0.1-0.1c0,0.2,0,0.3,0,0.4c0,0.1,0,0.3,0.1,0.4c1,5.4,3.5,8.2,3.5,8.2s0.2,0.4,0.6,0.9c-0.2,3,1.1,5.6,2.7,7.7
		c-1.3,0.8-4.2,2.3-6,2.2c0,0-6.6,0.9-7.3,0.4c-0.1-0.1-0.2,0-0.3,0.2c-1.8-1.1-7.6-4.3-8.1-0.2c-0.4,3.7,4.8,4.2,7.3,4.2
		c-0.1,1.1-0.2,2-0.2,2l10.8-0.7l5.6-0.8c-0.6,0.8-1.3,1.6-2,1.9c0,0-5.1,4.1-6,4.2c-0.1,0-0.2,0.1-0.1,0.3c-2.1,0-8.8,0.3-7,4
		c1.7,3.4,6.4,1,8.5-0.2c0.5,1,0.9,1.7,0.9,1.7l8.7-6.2l1.9-1.6c0.6,0,1.3-0.2,1.9-0.4c0,0,0,0,0,0.1c0.1,0.2,0.1,0.4,0.2,0.6
		c0.5,3-1.3,10.1-1.3,10.1s-3.9,10-2,11.3c1.9,1.4,0.5,7.1,0.5,7.1c0.3,0.6,0.7,1.1,1.1,1.6l0,0c0.2,0.2,0.4,0.4,0.7,0.6
		c-0.1,0.2-0.2,0.5-0.2,0.7c-0.3,1.2-0.2,2.5,0.3,3.7c1.3,3.1,0.5,7.7,0.5,7.7l-2.5,17.1c-1.2-0.2-2.8-0.3-3.4,0
		c-0.9,0.5-0.6,3.1,1.5,4.2c-0.6,0.5-1.4,0.8-2.1,1c-1.9,0.4-3.2,0.7-4,0.9c-0.1,0-4.5-1-5.6-0.3c-1.1,0.6-0.6,4.2,2.6,5.1
		c3.1,0.9,14.9,2.1,18.2,1.6l0.2,0c2.9-0.6,0.3-4.3,0-4.8c0-0.2,0-0.3-0.1-0.5c0-0.4-0.1-0.8-0.1-1.3c3.2,0.3,6.4,0.4,7.8,0.2
		c0.1,0,0.1,0,0.2,0c2.5-0.5,0.3-3.8,0-4.2c0-0.1,0-0.2,0-0.3v0c0-0.1,0-0.2,0-0.2c0-0.1,0-0.1,0-0.2c0-0.1,0-0.1,0-0.2
		c0-0.1,0-0.3,0-0.4c0-0.1,0-0.1,0-0.2c0-0.1,0-0.2,0-0.3c0-0.1,0-0.1,0-0.2c0-0.2,0-0.3,0-0.5c0,0,0-0.1,0-0.1c0-0.1,0-0.3,0-0.4
		c0-0.1,0-0.1,0-0.2c0-0.1,0-0.3,0-0.4c0,0,0-0.1,0-0.1c0-0.2,0-0.4,0-0.5l0-0.2c0-0.1,0-0.3,0-0.4c0-0.1,0-0.1,0-0.2
		c0-0.2,0-0.4,0.1-0.6c0-0.1,0-0.1,0-0.2c0-0.1,0-0.3,0.1-0.4c0-0.1,0-0.1,0-0.2c0-0.2,0.1-0.3,0.1-0.5c0,0,0-0.1,0-0.1
		c0-0.2,0.1-0.4,0.2-0.6c0-0.1,0-0.1,0.1-0.2c0-0.1,0.1-0.3,0.1-0.4l0.1-0.2c0.1-0.2,0.1-0.4,0.2-0.5c0,0,0-0.1,0.1-0.1
		c0.1-0.1,0.1-0.3,0.2-0.4l0.1-0.2c0.1-0.2,0.2-0.3,0.3-0.5c2.9-4.2,3.7-12.2,3.6-13.9s0.3-5.4,0.9-5.9c0.3-0.4,2.4-3.2,3.6-5.3
		c0.2-0.4,0.4-0.8,0.6-1.1c0.9-0.3,1.4-0.5,1.4-0.5l0,0l0,0c-0.3-1.1-0.5-2.3-0.4-3.4c0-2.3,0.6-5.2,3.2-7.6
		c3.8-3.6,4.3-7.1,4.4-8.4c0-0.1,0-0.2,0-0.3C257.6,119.2,257.6,119.1,257.6,119.1z"/>
	<path class="st9" d="M247.6,141.3c-1,1.8-2.2,3.6-3.4,5.3c-0.5,0.5-0.9,4.1-0.8,5.8c0.1,1.7-0.7,9.6-3.4,13.8
		c-2.8,4.1-1.4,11.2-1.4,11.2l-4.4,1.6h-5.3l-3.7-1.1l-1-2.7c0,0,1.3-0.2,4.5-1c1.8-0.4,3.2-1.9,3.3-3.8l2.3-15.7c0,0,0.7-4-0.4-6.7
		c-0.6-1.6-0.5-3.3,0.4-4.8l0.1-0.1c0,0,3.5-2.7,7-4.5c3.1-1.5,6.3-2.2,7.2,0.5C248.5,139.4,248.1,140.3,247.6,141.3z"/>
	<path class="st10" d="M247.6,141.3c-1,1.8-2.2,3.6-3.4,5.3c-0.5,0.5-0.9,4.1-0.8,5.8c0.1,1.7-0.7,9.6-3.4,13.8
		c-2,2.9-1.8,7.3-1.6,9.6c0.1,1,0.2,1.6,0.2,1.6l-4.4,1.6h-5.3l-3.7-1.1l-1-2.7c0,0,0.3-0.1,1.1-0.2c0.7-0.1,1.9-0.4,3.5-0.8
		c1.8-0.4,3.2-1.9,3.3-3.8l2.3-15.7c0,0,0.7-4-0.4-6.7c-0.6-1.6-0.5-3.3,0.4-4.8l0.1-0.1c0,0,3.5-2.7,7-4.5c3.1-1.5,6.3-2.2,7.2,0.5
		C248.5,139.4,248.1,140.3,247.6,141.3z"/>
	<path class="st4" d="M238.5,177.4l-4.4,1.6h-5.3l-3.7-1.1l-1-2.7c0,0,0.3-0.1,1.1-0.2c-0.1,1,0.6,1.9,1.5,2.2l2.1,0.1
		c0.3,0,0.6,0,0.9,0c2.9,0,5.9-0.5,8.6-1.4C238.4,176.8,238.5,177.4,238.5,177.4z"/>
	<path class="st11" d="M228.7,177.6l-2.1-0.1c0,0-1.9-0.4-1.5-2.6c0,0-3.8-0.9-4.7-0.3c-1,0.6-0.5,3.7,2.2,4.4
		c2.6,0.7,12.6,1.8,15.4,1.4l0.2,0c2.6-0.5,0-4.2,0-4.2l0,0C235.2,177.3,232,177.8,228.7,177.6z"/>
	<path class="st9" d="M241.6,141.9c-0.1,0.3-0.3,0.6-0.5,0.9c-1.3,2.4-3.4,5.4-3.8,5.8c-0.6,0.6-1,4.6-0.9,6.6
		c0.1,1.9-0.7,10.9-3.9,15.5c-1.6,2.4-2,5.6-1.9,8.2c0,0.9,0.1,1.8,0.2,2.6c0.1,1.1,0.3,1.8,0.3,1.8l-5,1.8h-6l-4.2-1.2l-1.1-3
		c0,0,0.4-0.1,1.2-0.2s2.1-0.4,3.9-0.9c2.1-0.4,3.6-2.2,3.7-4.3l2.5-17.8c0,0,0.7-4.5-0.5-7.6c-0.5-1.2-0.6-2.4-0.3-3.6
		c0.1-0.7,0.4-1.3,0.8-1.9c0,0,1-0.8,2.4-1.8c0.6-0.4,1.4-0.9,2.2-1.4c3.5-2.2,8.2-4.4,10.4-2.8c0.5,0.4,0.9,0.9,1,1.5
		C242.3,140.4,242,141.1,241.6,141.9z"/>
	<path class="st4" d="M231,183.3l-5,1.8h-6l-4.2-1.2l-1.1-3c0,0,0.4-0.1,1.2-0.2c-0.1,0.7,0.2,1.5,0.7,2c0.4,0.4,0.9,0.6,1.5,0.6
		l1.9,0.1c0.3,0,0.7,0,1,0c3.3,0,6.6-0.5,9.7-1.6C230.9,182.7,231,183.3,231,183.3z"/>
	<path class="st11" d="M220,183.6l-1.9-0.1c-0.5,0-1.1-0.2-1.5-0.6c-0.5-0.4-0.9-1.2-0.6-2.4c0,0-4.2-1-5.3-0.3
		c-1.1,0.6-0.6,4.2,2.5,5c3,0.8,14.2,2.1,17.4,1.6l0.2,0c2.9-0.6,0-4.8,0-4.8l0,0C227.3,183.2,223.7,183.8,220,183.6z"/>
	<path class="st4" d="M247.6,141.3c-1.8,0.6-4.5,1.5-5.9,1.5c-0.2,0-0.3,0-0.5,0l0,0c-1-0.1-4.2,0.1-7.1,0.3
		c-1.2,0.1-2.3,0.2-3.2,0.3c-1.4,0.1-2.3,0.2-2.3,0.2v-0.9c0.6-0.4,1.4-0.9,2.2-1.4c3.5-2.2,8.2-4.4,10.4-2.8
		c3.1-1.5,6.3-2.2,7.2,0.5C248.5,139.4,248.1,140.3,247.6,141.3z"/>
	<path class="st12" d="M256.3,120.4c-0.1,1.3-0.6,4.8-4.2,8.4c-4.6,4.5-2.6,10.9-2.6,10.9s-5.5,2.2-7.8,2.2c-0.2,0-0.3,0-0.5,0
		c-1.4-0.2-7.1,0.3-10.3,0.7c-1.4,0.1-2.3,0.2-2.3,0.2v-19.1l25.4-6.2l2.3,2.3C256.3,120,256.3,120.2,256.3,120.4z"/>
	<path class="st13" d="M247.2,139.1"/>
	<g class="st14">
		<path class="st15" d="M229,142.6l-0.4,0v0.2c0,0,0.9-0.1,2.3-0.2c2.3-0.2,5.9-0.6,8.2-0.7C237.5,141.8,232.1,142.3,229,142.6z"/>
		<path class="st15" d="M256.3,119.9l-2.3-2.3l-1.5,0.4l1.9,1.9c0,0.2,0,0.4,0,0.6c-0.1,1.3-0.6,4.8-4.2,8.4
			c-4.6,4.5-2.6,10.9-2.6,10.9s-4.5,1.8-7.1,2.1c0.2,0,0.5,0,0.7,0c0.2,0,0.3,0,0.5,0c2.4-0.1,7.8-2.2,7.8-2.2s-2-6.5,2.6-10.9
			c3.6-3.5,4.1-7,4.2-8.4C256.3,120.3,256.3,120.1,256.3,119.9z"/>
	</g>
	<path class="st9" d="M205.5,107c0,0-7.7-5.3-8.2-0.5c-0.6,4.8,8.2,4.1,8.2,4.1V107z"/>
	<path class="st16" d="M218.7,103.4c0,0-4.2,2.7-6.5,2.6c0,0-6.3,0.8-7,0.4c-0.7-0.4-1.2,6.1-1.2,6.1l10.3-0.7l6.6-1
		c0,0,3.3-2,3.3-3.8C224.3,105.3,218.7,103.4,218.7,103.4z"/>
	<path class="st10" d="M218.7,103.4c0,0-4.2,2.7-6.5,2.6c0,0-6.3,0.8-7,0.4c-0.7-0.4-1.2,6.1-1.2,6.1l10.3-0.7l6.6-1
		c0,0,3.3-2,3.3-3.8C224.3,105.3,218.7,103.4,218.7,103.4z"/>
	<path class="st9" d="M212.6,117.3c0,0-9.3-0.4-7.3,4c2.1,4.4,9.2-0.9,9.2-0.9L212.6,117.3z"/>
	<path class="st12" d="M222,108c0,0-7.6-5.7-6.5-12.6c1.1-6.9,6.5,5.3,6.5,5.3V108z"/>
	<path class="st9" d="M219.9,76.7c0,2.5-1,4.9-2.7,6.7c-0.4,0.4-0.9,0.8-1.4,1.2c-1,0.7-2,1.2-3.1,1.5c-0.4,0.1-0.9,0.2-1.4,0.2
		c-0.3,0-0.7,0.1-1,0.1c-1.1,0-2.1-0.2-3.2-0.5c-5-1.7-7.6-7.2-5.9-12.2c1.7-5,7.2-7.6,12.2-5.9C217.4,69,219.9,72.7,219.9,76.7
		L219.9,76.7z"/>
	<path class="st4" d="M256.3,120.4c-0.9,0.2-1.9,0.4-1.9,0.9c0,0.7-12,4.8-12,4.8s0.4,1-0.7,2.8c-1.2,1.8-10.9,12.1-10.9,12.1l0,0.3
		l0.1,1.2l0.6,5.7c0,0-3.7-1.3-4.9-1.2c-0.4,0.1-0.8-0.2-1.2-0.6c0.1-0.7,0.4-1.3,0.8-1.9c0,0,1-0.8,2.4-1.8v-19.1l25.4-6.2l2.3,2.3
		C256.3,120,256.3,120.2,256.3,120.4z"/>
	<path class="st16" d="M257.3,119.4c0,0-3,0.3-3,1c0,0.7-12,4.8-12,4.8s0.4,1-0.7,2.8c-1.2,1.8-10.9,12.1-10.9,12.1l0.7,7.2
		c0,0-3.7-1.3-4.9-1.2c-0.5,0.1-1.1-0.4-1.6-1c-0.4-0.5-0.8-1-1.1-1.5c0,0,1.3-5.7-0.4-7c-1.8-1.3,1.9-11.2,1.9-11.2s1.7-7,1.2-10
		c0-0.2-0.1-0.4-0.1-0.6c0,0,0,0,0-0.1c-1.1-2.9-12.5-27-12.5-27c0-0.7,0.1-1.4,0.1-2c0-0.2,0.1-0.4,0.1-0.6
		c0.1-0.4,0.1-0.7,0.2-1.1c0.1-0.2,0.1-0.4,0.2-0.7c0.4-0.9,0.9-1.6,1.7-1.6c0,0,0.9-1,3-1.3c1.5-0.2,3.7,0,6.7,1.3
		c7,3,8.7,3.1,8.7,3.1l3.5,4.6l0.7,1c2.7,3.5,5.1,7.1,7.2,10.9c1.2,2.1,2.8,4.6,4.8,6.1C254.9,110.4,257.3,119.4,257.3,119.4z"/>
	<path class="st4" d="M231.1,102.1c0,0,10,2.5,13.9,8.7L231.1,102.1z"/>
	<path class="st4" d="M234.2,113c0,0,1.9,12.7,1.4,13.6C235,127.6,234.2,113,234.2,113z"/>
	<path class="st4" d="M233.5,119.5c-0.7,1-3.7,8.3-3.7,8.3l0.9,12.3l0.7,7.2c0,0-3.7-1.3-4.9-1.2c-0.5,0.1-1.1-0.4-1.6-1
		c0.8-4.2,2.4-13,2.7-13.2c0.4-0.2,2.4-7.3,2.5-9.3c0.1-2,2.9-6.4,2.9-6.4S234.3,118.6,233.5,119.5z"/>
	<path class="st4" d="M230.7,107.4c-0.2,0.6-0.5,3.8-0.5,3.8c-0.2,2.9-2.4,3.8-3.7,4.1c0-0.2-0.1-0.4-0.1-0.6
		c-0.9-2.5-12.6-27.1-12.6-27.1c0-1.2,0.2-2.5,0.5-3.7c2.5-0.7,6.6,0.4,6.6,0.4c1.2-0.2,5,7.4,5,7.4s2.5,5.8,2.8,6.6
		c0.3,0.8,0,2.1,0.1,2.5s1.3,0.8,1.5,1.5c0.2,0.6,0.1,1.9,0.2,2.1C230.4,104.6,230.9,106.8,230.7,107.4z"/>
	<path class="st16" d="M229.8,107c-0.2,0.6-0.5,3.8-0.5,3.8c-0.2,2.4-1.7,3.4-3,3.9c-0.6,0.2-1.2,0.3-1.8,0.4l-1.8,1.6l-8.3,6.1
		c0,0-3.1-5.7-2.3-5.8c0.8,0,5.7-4.1,5.7-4.1c1.5-0.8,3-3.4,3.7-4.8c0-0.2-0.1-0.3-0.1-0.5c-0.3-2.5-6.6-12.3-6.6-12.3
		s-2.4-2.9-3.4-8.2c0-0.1,0-0.2-0.1-0.4c0-0.2,0-0.3,0-0.5c-0.1-2,1.4-2.8,3.1-3l0,0c0.9-0.1,1.8,0,2.8,0.1c0.9,0.1,1.8,0.3,2.7,0.5
		c0.8-0.1,2.6,3,3.8,5.2l0,0c0.7,1.2,1.1,2.1,1.1,2.1s2.5,5.8,2.8,6.6c0.3,0.8,0,2.1,0.1,2.5c0.1,0.4,1.3,0.8,1.5,1.5
		c0.2,0.6,0.1,1.9,0.2,2.1S230,106.4,229.8,107z"/>
	<path class="st4" d="M239.5,94c-1.6,1.6-4.2,1.6-6.2,0.8c-2.1-0.8-3.8-2.3-5.7-3.5c-1.2-0.8-2.6-1.4-3.8-2.2l0,0
		c-0.2-0.1-0.4-0.2-0.5-0.4c-1.4-1-2.6-2.3-4.1-3.2c-1-0.6-2.1-1-3.3-1.1c-0.5,0-1.1,0.1-1.6,0.3c-0.1,0-0.2,0.1-0.3,0.1
		c-0.5,0.3-0.9,0.6-1.3,1c-0.4,0.4-0.8,0.8-1.2,1.1c0-0.1,0-0.2-0.1-0.4c0-0.2,0-0.3,0-0.5c-0.3,0-0.7,0.1-1,0.1
		c-1.1,0-2.1-0.2-3.2-0.5c0,0,0-0.1,0-0.1c-0.4-1.9-1-3.9-2.5-4.9c-0.9-0.6-2.3-0.9-3.5-1.3c-1.5-5.1,1.5-10.4,6.6-11.8
		c5.1-1.5,10.4,1.5,11.8,6.6c0.6,2.1,0.5,4.3-0.4,6.3c1.5-0.2,3.7,0,6.7,1.3c7,3,8.7,3.1,8.7,3.1l3.5,4.6c-0.4,0.6-0.8,1.2-0.9,1.8
		C237.2,92.6,238.4,93.4,239.5,94z"/>
	<path class="st17" d="M204.7,79.8c1.5,1.1,2.2,3.1,2.5,4.9c0.1,0.6,0.2,1.2,0.6,1.7c0.8,1,2.4,0.7,3.5,0s1.9-1.9,3.1-2.4
		c1.6-0.7,3.4-0.2,4.9,0.7s2.7,2.2,4.1,3.2c1.4,1,2.9,1.6,4.3,2.5c1.9,1.2,3.7,2.7,5.7,3.5c2.1,0.8,4.6,0.8,6.2-0.8
		c-1.1-0.6-2.3-1.5-2.2-2.7s1.5-2.2,1.5-3.5c-0.1-1.3-1.6-1.8-2.7-2.4c-2.3-1.3-3.3-4.2-3.7-6.9c-0.4-2.1-0.7-4.5-2.3-5.8
		c-1-0.9-2.4-1.2-3.4-2c-1-0.8-1.5-2.1-2.1-3.2c-1-1.9-2.3-3.7-4.1-4.8c-1.8-1.1-4-1.6-5.9-0.8c-0.7,0.3-1.4,0.7-2.1,1.1
		c-1.8,0.8-3.9,0.7-5.7,1.5c-2.2,1-3.7,3.3-5,5.4c-1.1,1.8-3.3,5.1-2.7,7.5C199.5,78.8,203,78.7,204.7,79.8z"/>
	<g class="st14">
		<path class="st15" d="M238.7,86.8c0-0.1,0-0.2-0.1-0.3c-0.4,0.6-0.9,1.2-1,2c0,0.2,0,0.3,0,0.5C238.2,88.3,238.8,87.6,238.7,86.8z
			"/>
		<path class="st15" d="M233.7,92c-2.1-0.8-3.8-2.3-5.7-3.5c-1.4-0.9-2.9-1.6-4.3-2.5c-1.4-1-2.6-2.3-4.1-3.2
			c-1.5-0.9-3.3-1.4-4.9-0.7c-1.2,0.5-2,1.7-3.1,2.4c-1.1,0.8-2.7,1.1-3.5,0c-0.4-0.5-0.5-1.1-0.6-1.7c-0.4-1.9-1-3.9-2.5-4.9
			c-1.7-1.2-5.1-1-5.8-3.4c-0.1-0.4-0.1-0.9-0.1-1.3c-0.4,1.1-0.6,2.2-0.4,3.1c0.6,2.4,4.1,2.3,5.8,3.4c1.5,1.1,2.2,3.1,2.5,4.9
			c0.1,0.6,0.2,1.2,0.6,1.7c0.8,1,2.4,0.7,3.5,0c1.1-0.8,1.9-1.9,3.1-2.4c1.6-0.7,3.4-0.2,4.9,0.7s2.7,2.2,4.1,3.2
			c1.4,1,2.9,1.6,4.3,2.5c1.9,1.2,3.7,2.7,5.7,3.5c2.1,0.8,4.6,0.8,6.2-0.8c-0.4-0.2-0.8-0.5-1.2-0.8
			C236.9,92.7,235.2,92.6,233.7,92z"/>
	</g>
	<path class="st12" d="M186.8,110.1l21.2-7.9c1-0.4,2.2,0.1,2.6,1.2c0,0,0,0,0,0l0,0c0.4,1-0.1,2.2-1.2,2.6c0,0,0,0,0,0l-21.2,7.9
		l-4.5-0.5L186.8,110.1z"/>
	<path class="st18" d="M210,102.7L210,102.7c0.4,1-0.1,2.2-1.2,2.6l-21.2,7.9l-3.4-0.3l-0.5,0.5l4.5,0.5l21.2-7.9
		c1-0.4,1.6-1.6,1.2-2.6v0l0,0c-0.2-0.4-0.4-0.8-0.8-1C209.8,102.5,209.9,102.6,210,102.7z"/>
	<polygon class="st19" points="186.8,110.1 188.2,113.9 184.5,113.5 183.7,113.4 184.8,112.2 	"/>
	<path class="st20" d="M184.8,112.2c0.1,0.1,0.2,0.1,0.2,0.2c0.1,0.1,0.1,0.3,0,0.4c-0.1,0.1-0.1,0.1-0.2,0.1
		c-0.2,0.1-0.3,0.3-0.3,0.5l-0.8-0.1L184.8,112.2z"/>
	<path class="st21" d="M168.3,69.2l-3.6-1.7c-0.2-0.1-0.3-0.4-0.2-0.6c0,0,0,0,0,0l0.4-0.8c0.1-0.2,0.4-0.3,0.6-0.2c0,0,0,0,0,0
		l2.4,1.2l2.5-5.2c0.1-0.2,0.4-0.3,0.6-0.2l0.8,0.4c0.2,0.1,0.3,0.4,0.2,0.6c0,0,0,0,0,0l-3.1,6.3C168.8,69.2,168.5,69.3,168.3,69.2
		C168.3,69.2,168.3,69.2,168.3,69.2z"/>
	<path class="st21" d="M176.1,91.5l-3.6-1.7c-0.2-0.1-0.3-0.4-0.2-0.6c0,0,0,0,0,0l0.4-0.8c0.1-0.2,0.4-0.3,0.6-0.2l2.4,1.2l2.5-5.2
		c0.1-0.2,0.4-0.3,0.6-0.2l0.8,0.4c0.2,0.1,0.3,0.4,0.2,0.6c0,0,0,0,0,0l-3.1,6.3C176.6,91.5,176.3,91.6,176.1,91.5L176.1,91.5z"/>
	<path class="st21" d="M172.6,80.5l-3.6-1.7c-0.2-0.1-0.3-0.4-0.2-0.6l0.4-0.8c0.1-0.2,0.4-0.3,0.6-0.2c0,0,0,0,0,0l2.4,1.2l2.5-5.2
		c0.1-0.2,0.4-0.3,0.6-0.2c0,0,0,0,0,0l0.8,0.4c0.2,0.1,0.3,0.4,0.2,0.6l-3.1,6.3C173.1,80.5,172.8,80.6,172.6,80.5
		C172.6,80.5,172.6,80.5,172.6,80.5L172.6,80.5z"/>
	<path class="st21" d="M179.5,101.5l-3.6-1.7c-0.2-0.1-0.3-0.4-0.2-0.6c0,0,0,0,0,0l0.4-0.8c0.1-0.2,0.4-0.3,0.6-0.2c0,0,0,0,0,0
		l2.4,1.2l2.5-5.2c0.1-0.2,0.4-0.3,0.6-0.2l0.8,0.4c0.2,0.1,0.3,0.4,0.2,0.6c0,0,0,0,0,0l-3.1,6.3
		C180,101.5,179.7,101.6,179.5,101.5z"/>
	<path class="st21" d="M45.9,170c0,0,1.6,2.1-0.7,5.2c-2.3,3.1-4.2,5.7-3.4,7.7c0,0,3.5-5.8,6.3-5.9C50.9,176.9,49,173.5,45.9,170z"
		/>
	<path class="st4" d="M45.9,170c0.1,0.2,0.2,0.4,0.3,0.6c2.8,3.2,4.2,6.3,1.6,6.4c-2.5,0.1-5.4,4.5-6.1,5.6c0,0.1,0,0.2,0.1,0.3
		c0,0,3.5-5.8,6.3-5.9C50.9,176.9,49,173.5,45.9,170z"/>
	<path class="st22" d="M48.8,172.6c0,0.7-0.1,1.3-0.2,1.3c-0.1,0-0.2-0.6-0.2-1.3c0-0.7,0.1-0.4,0.2-0.4
		C48.8,172.2,48.8,171.9,48.8,172.6z"/>
	<path class="st22" d="M49.8,173.5c-0.6,0.3-1.2,0.6-1.2,0.5c0-0.1,0.4-0.4,1.1-0.8s0.4-0.1,0.4,0C50.1,173.2,50.5,173.1,49.8,173.5
		z"/>
	<path class="st21" d="M37.6,170c0,0-1.6,2.1,0.7,5.2c2.3,3.1,4.2,5.7,3.4,7.7c0,0-3.5-5.8-6.3-5.9C32.6,176.9,34.5,173.5,37.6,170z
		"/>
	<path class="st4" d="M37.6,170c-0.1,0.2-0.2,0.4-0.3,0.6c-2.8,3.2-4.2,6.3-1.6,6.4c2.5,0.1,5.4,4.5,6.1,5.6c0,0.1-0.1,0.2-0.1,0.3
		c0,0-3.5-5.8-6.3-5.9C32.6,176.9,34.5,173.5,37.6,170z"/>
	<path class="st22" d="M34.6,172.6c0,0.7,0.1,1.3,0.2,1.3c0.1,0,0.2-0.6,0.2-1.3c0-0.7-0.1-0.4-0.2-0.4
		C34.7,172.2,34.6,171.9,34.6,172.6z"/>
	<path class="st22" d="M33.6,173.5c0.6,0.3,1.2,0.6,1.2,0.5c0-0.1-0.4-0.4-1.1-0.8c-0.6-0.4-0.4-0.1-0.4,0
		C33.3,173.2,33,173.1,33.6,173.5z"/>
	<ellipse class="st0" cx="41.7" cy="196.1" rx="16.5" ry="2.5"/>
	<path class="st23" d="M50.2,180.1l-0.1,0.6l-0.1,0.9l0,0.4l-0.1,0.9l-0.1,0.4l-0.1,0.9l-1.3,10.3c-0.1,0.9-1.6,1.6-3.4,1.6h-6.5
		c-1.8,0-3.3-0.7-3.4-1.6l-1.3-10.3l-0.1-0.9l0-0.4l-0.1-0.9l0-0.4l-0.1-0.9l-0.1-0.6c-0.1-0.5,0.8-1,1.8-1h13.4
		C49.5,179.1,50.3,179.5,50.2,180.1z"/>
	<polygon class="st24" points="50.1,180.7 50,181.6 33.4,181.6 33.3,180.7 	"/>
	<polygon class="st24" points="50,182 49.9,182.9 33.6,182.9 33.5,182 	"/>
	<polygon class="st24" points="49.8,183.3 49.7,184.2 33.8,184.2 33.6,183.3 	"/>
</g>
</svg>
