<?xml version="1.0" encoding="utf-8"?>
<!-- Generator: Adobe Illustrator 24.1.1, SVG Export Plug-In . SVG Version: 6.00 Build 0)  -->
<svg version="1.1" id="Calque_1" xmlns="http://www.w3.org/2000/svg" xmlns:xlink="http://www.w3.org/1999/xlink" x="0px" y="0px"
	 viewBox="0 0 1517.2 135.4" style="enable-background:new 0 0 1517.2 135.4;" xml:space="preserve">
<style type="text/css">
	.st0{clip-path:url(#SVGID_2_);}
	.st1{fill:#F8FBFE;}
</style>
<g>
	<defs>
		<rect id="SVGID_1_" x="-4.7" y="6.9" width="1529.3" height="132.1"/>
	</defs>
	<clipPath id="SVGID_2_">
		<use xlink:href="#SVGID_1_"  style="overflow:visible;"/>
	</clipPath>
	<g class="st0">
		<path class="st1" d="M1658.6,314.5c-99.6,22.3-222.5,39.9-280.7,70.7c-84.5,44.6-0.9,101.6,129.2,141.2s302.1,68.6,440.7,106.3
			c397.9,108.2,456.6,282.9,185.3,406.7c-38.8,17.7-84.4,34.7-147.5,46.7c-82.1,15.6-186.6,21.3-288.9,25.2
			c-228.5,8.7-461.7,10.4-694.5,5c-158.4-3.7-337.6-14.2-424.2-49.8c-27.2-11.2-42.1-24-56.1-36.7
			C317.4,842.2,334.7,646.5,368.6,454.9C394,312,429,167.7,596.7,33.3c7.7-6.2,16.8-12.7,36.9-16.5c22.8-4.3,54.2-3.9,82.8-2.9
			c94.3,3.4,185.2,12.2,277.2,19.3c191.5,14.6,389,21.3,585.4,19.8c173.8-1.3,321.1-24.8,369,28.8
			C2023.1,165.9,1898.9,260.9,1658.6,314.5z"/>
	</g>
	<g class="st0">
		<path class="st1" d="M-555.6,113.2c51.1,16.8,93,37.4,161.3,47.5c99,14.6,219.7,1.5,301.5-19.5S46.2,92.1,123.5,69.6
			C345.3,5,721.4-2.3,997.2,44.4c39.4,6.7,77.6,14.5,105.4,25.1c36.1,13.8,51.6,31.2,63.1,48.3c25.8,38,36.4,76.7,31.7,115.3
			c-3.2,26.2-20.5,55.8-94.9,69.7c-23.5,4.4-50.6,6.7-77.6,8.8C625.4,342.8,202,337.3-213.3,329.1c-309.6-6.1-622.8-13.9-918.3-43.5
			c-13.6-1.4-28-3-36.7-6.3c-9.9-3.8-10.1-9-8.8-13.8c4.4-15.6,20.8-30.5,33.3-45.7c25.7-31.6,34.2-64.2,25.1-96.8
			c-8-28.8-63.3-53.6,51.2-60.8C-887.9,50.8-678.9,72.6-555.6,113.2z"/>
	</g>
</g>
</svg>
