<?xml version="1.0" encoding="utf-8"?>
<!-- Generator: Adobe Illustrator 24.1.1, SVG Export Plug-In . SVG Version: 6.00 Build 0)  -->
<svg version="1.1" id="Calque_1" xmlns="http://www.w3.org/2000/svg" xmlns:xlink="http://www.w3.org/1999/xlink" x="0px" y="0px"
	 viewBox="0 0 1517.2 135.4" style="enable-background:new 0 0 1517.2 135.4;" xml:space="preserve">
<style type="text/css">
	.st0{clip-path:url(#SVGID_2_);fill:#F8FBFE;}
</style>
<g>
	<defs>
		<rect id="SVGID_1_" x="-5.4" y="-6" width="1531.1" height="260.3"/>
	</defs>
	<clipPath id="SVGID_2_">
		<use xlink:href="#SVGID_1_"  style="overflow:visible;"/>
	</clipPath>
	<path class="st0" d="M608.7-528.8c2.1-3.7,4.2-7.4,6.2-11c3.2-5.6,6.4-11.2,9.6-16.6c1.4-2.4,2.8-4.8,4.2-7.1
		c15.5-26.2,29.9-49.4,42.2-68.5c22.7-35.2,66.7-57.4,114.8-57.8l272.8-2.5h2.9l23.4-0.2l20-0.2l61.3-0.6h2.5l31.2-0.3h1l192.4-1.7
		l171.8-1.5l20-0.2l124.1-1.1h0.2l80.5-0.7h0.9l254.5-2.3l76.1-0.7c6.5-0.1,13,0.2,19.4,0.8l0,0c2.2,0.2,4.4,0.4,6.6,0.7
		c35.5,4.5,68.1,19.1,92.2,41.1c32.8,30,56.6,64.8,72.6,102.7c2.3,5.5,4.5,11,6.5,16.6c55.4,155.5-12.1,356.1-133.7,490.2
		c-5.1,5.6-10.3,11.1-15.5,16.4l-0.1,0.1c-37.4,38.1-79.3,69.9-124,92.5c-79.1,40.2-166.8,51.5-253.1,17.8
		c-73-28.5-141.1-42-207.1-45.6c-6.7-0.4-13.3-0.6-20-0.8c-151.5-4-293.5,41.3-460.2,70.6c-6.6,1.2-13.3,2.3-20,3.4
		c-118.9,19.6-250.9,30-407.8,8.2c-16.3-2.2-32.4-5.4-48.1-9.6c-6.9-1.9-13.6-3.8-20-6C533.8,72.2,493,25.5,475.6-33
		c-1.6-5.4-3.1-11-4.3-16.6C440.6-190.4,530.7-390.2,608.7-528.8z"/>
	<path class="st0" d="M-589.8-513c2.1-3.7,4.2-7.4,6.2-11c3.2-5.6,6.4-11.2,9.6-16.6c1.4-2.4,2.8-4.8,4.2-7.1
		c15.5-26.2,29.9-49.4,42.2-68.5c22.7-35.2,66.7-57.4,114.8-57.8l272.8-2.5h2.9l23.4-0.2l20-0.2l61.3-0.6h2.5l31.2-0.3h1l192.4-1.7
		l171.8-1.5l20-0.2l124.1-1.1h0.2l80.5-0.7h0.9l254.5-2.3l76.1-0.7c6.5-0.1,13,0.2,19.4,0.8l0,0c2.2,0.2,4.4,0.4,6.6,0.7
		c35.5,4.5,68.1,19.1,92.2,41.1c32.8,30,56.6,64.8,72.6,102.7c2.3,5.5,4.5,11,6.5,16.6c55.4,155.5-12.1,356.1-133.7,490.2
		c-5.1,5.6-10.3,11.1-15.5,16.4l-0.1,0.1c-37.4,38.1-79.3,69.9-124,92.5c-79.1,40.2-166.8,51.5-253.1,17.8
		c-73-28.5-141.1-42-207.1-45.6c-6.7-0.4-13.3-0.6-20-0.8C214.9,42.7,72.9,88-93.8,117.2c-6.6,1.2-13.3,2.3-20,3.4
		c-118.9,19.6-250.9,30-407.8,8.2c-16.3-2.2-32.4-5.4-48.1-9.6c-6.9-1.9-13.6-3.8-20-6c-74.9-25.3-115.7-72-133.1-130.5
		c-1.6-5.4-3.1-11-4.3-16.6C-757.9-174.6-667.8-374.4-589.8-513z"/>
</g>
</svg>
