<svg xmlns="http://www.w3.org/2000/svg" viewBox="0 0 318.28 369.37"><defs><style>.cls-1{opacity:0.2;}.cls-2{fill:#fff;}</style></defs><title>newspaper_transparent</title><g id="Calque_2" data-name="Calque 2"><g id="BODY"><g id="_1" data-name="1"><g class="cls-1"><path class="cls-2" d="M311.16,235.61l-48-14.57,43.72-144a10,10,0,0,0-6.68-12.51L89.05.44A10,10,0,0,0,76.54,7.12L1.74,253.47a40.17,40.17,0,0,0,26.73,50l211.15,64.12a40.17,40.17,0,0,0,50-26.73l28.17-92.78A10,10,0,0,0,311.16,235.61ZM103.27,57.17a10,10,0,0,1,12.51-6.68L173.37,68a10,10,0,0,1,6.68,12.51l-23.32,76.78A10,10,0,0,1,144.23,164L86.64,146.46A10,10,0,0,1,80,134Zm4,228.36L49.73,268a10,10,0,0,1,5.83-19.2l57.59,17.49a10,10,0,1,1-5.83,19.2ZM119,247.13,61.38,229.65a10,10,0,1,1,5.83-19.2l57.59,17.49a10,10,0,1,1-5.83,19.2Zm65.13,61.71L145.7,297.18a10,10,0,1,1,5.83-19.2l38.39,11.66a10,10,0,1,1-5.83,19.2Zm11.66-38.39-38.39-11.66a10,10,0,1,1,5.83-19.2l38.39,11.66a10,10,0,1,1-5.83,19.2Zm11.66-38.39L73,191.25a10,10,0,1,1,5.83-19.2l134.37,40.8a10,10,0,1,1-5.83,19.2ZM221,187.27l-38.39-11.66a10,10,0,0,1,5.83-19.2l38.39,11.66a10,10,0,1,1-5.83,19.2Zm11.66-38.39-38.39-11.66a10,10,0,1,1,5.83-19.2l38.39,11.66a10,10,0,1,1-5.83,19.2Zm11.66-38.39L205.94,98.82a10,10,0,1,1,5.83-19.2l38.39,11.66a10,10,0,1,1-5.83,19.2Zm26.15,224.59a20.06,20.06,0,0,1-38.39-11.66l25.26-83.18,38.39,11.66-25.26,83.18Z"/><rect class="cls-2" x="99.92" y="87.16" width="60.18" height="40.12" transform="matrix(0.29, -0.96, 0.96, 0.29, -10.36, 200.46)"/></g></g></g></g></svg>