<?xml version="1.0" encoding="iso-8859-1"?>
<!-- Generator: Adobe Illustrator 19.0.0, SVG Export Plug-In . SVG Version: 6.00 Build 0)  -->
<svg version="1.1" id="Layer_1" xmlns="http://www.w3.org/2000/svg" xmlns:xlink="http://www.w3.org/1999/xlink" x="0px" y="0px"
	 viewBox="0 0 512 512" style="enable-background:new 0 0 512 512;" xml:space="preserve">
<path style="fill:#FF4B55;" d="M503.524,374.657H28.871c-4.681,0-8.476-3.795-8.476-8.476V61.048c0-4.681,3.795-8.476,8.476-8.476
	h474.653c4.681,0,8.476,3.795,8.476,8.476v305.133C512,370.862,508.205,374.657,503.524,374.657z"/>
<path style="fill:#73AF00;" d="M512,61.048c0-4.681-3.795-8.476-8.476-8.476h-30.186L266.197,188.284L59.057,52.572H28.871
	c-4.681,0-8.476,3.795-8.476,8.476v16.854l207.14,135.712L20.395,349.327v16.854c0,4.681,3.795,8.476,8.476,8.476h30.186
	l207.14-135.712l207.14,135.712h30.186c4.681,0,8.476-3.795,8.476-8.476v-16.854l-207.14-135.712L512,77.902V61.048z"/>
<polygon style="fill:#F5F5F5;" points="512,192.425 287.387,192.425 287.387,52.572 245.007,52.572 245.007,192.425 20.395,192.425 
	20.395,234.804 245.007,234.804 245.007,374.657 287.387,374.657 287.387,234.804 512,234.804 "/>
<path style="fill:#2E3033;" d="M19.203,489.087L19.203,489.087C8.598,489.087,0,480.49,0,469.884V41.958
	c0-10.519,8.527-19.045,19.045-19.045h0.158c10.606,0,19.203,8.598,19.203,19.203v427.768
	C38.407,480.49,29.809,489.087,19.203,489.087z"/>
<g>
</g>
<g>
</g>
<g>
</g>
<g>
</g>
<g>
</g>
<g>
</g>
<g>
</g>
<g>
</g>
<g>
</g>
<g>
</g>
<g>
</g>
<g>
</g>
<g>
</g>
<g>
</g>
<g>
</g>
</svg>
