<svg xmlns="http://www.w3.org/2000/svg" viewBox="0 0 289.19 183.93"><defs><style>.cls-1{fill:#fff;opacity:0.44;}</style></defs><title>chat</title><g id="Calque_2" data-name="Calque 2"><g id="BODY"><g id="_1" data-name="1"><path class="cls-1" d="M86.12,78.8h0a71.19,71.19,0,0,0-26-4.84C26.89,74,0,96,0,123.24s26.89,48.47,60.09,48.47a60.41,60.41,0,0,0,8.55-.61c12.42,9.77,25.06,13,25.26,12.83-4.48-4.48-7.13-10.38-8.76-15.88,19.31-7.38,33-22.51,34.81-40.64a41.13,41.13,0,0,0,.22-4.17C120.16,103.62,106.28,86.74,86.12,78.8ZM44.81,131A8.15,8.15,0,1,1,53,122.83,8.18,8.18,0,0,1,44.81,131Zm26.47,0a8.15,8.15,0,1,1,8.14-8.15A8.18,8.18,0,0,1,71.28,131Z"/><path class="cls-1" d="M201.63,0c-48.27,0-87.58,32.18-87.58,71.88a58,58,0,0,0,.59,8.31h0c2.78,19.8,15.41,37.12,33.82,48.6a91.8,91.8,0,0,0,17.32,8.46c-2.45,7.74-6.32,15.48-12.22,21.59.2.41,17.31-3.87,34.81-16.9a94.4,94.4,0,0,0,13.25.82c48.27,0,87.56-31.16,87.56-70.88S249.9,0,201.63,0ZM165,83.5a12.22,12.22,0,1,1,12.22-12.23A12.25,12.25,0,0,1,165,83.5Zm36.66,0a12.22,12.22,0,1,1,12.22-12.23A12.26,12.26,0,0,1,201.63,83.5Zm36.65,0a12.22,12.22,0,1,1,12.23-12.23A12.26,12.26,0,0,1,238.28,83.5Z"/></g></g></g></svg>