<?xml version="1.0" encoding="iso-8859-1"?>
<!-- Generator: Adobe Illustrator 17.1.0, SVG Export Plug-In . SVG Version: 6.00 Build 0)  -->
<!DOCTYPE svg PUBLIC "-//W3C//DTD SVG 1.0//EN" "http://www.w3.org/TR/2001/REC-SVG-20010904/DTD/svg10.dtd">
<svg version="1.0" xmlns="http://www.w3.org/2000/svg" xmlns:xlink="http://www.w3.org/1999/xlink" x="0px" y="0px" width="110px"
	 height="110px" viewBox="0 0 110 110" style="enable-background:new 0 0 110 110;" xml:space="preserve">
<g id="Artboard" style="display:none;">
	<rect x="-49.5" y="-48.5" style="display:inline;fill:#808080;stroke:#000000;stroke-miterlimit:10;" width="1362" height="598"/>
</g>
<g id="R-Multicolor" style="display:none;">
	<g style="display:inline;">
		<circle style="fill:#25B7D3;" cx="55" cy="55" r="55"/>
	</g>
	<g style="display:inline;">
		<path style="fill:#FBC8C8;" d="M70,45.036l-2,1l-3-10l-17,5c0,0,1.5-2.107,3-5c-7.25,0-9,10-9,10l-1-0.5V53l4,10l5.105,3.995
			C50.674,67.634,51.489,68,52.345,68H55h2.655c0.856,0,1.671-0.366,2.24-1.005L65,63l3.193-7.982
			C71.039,54.827,72,50.517,72,47.258C72,46.147,71,45.036,70,45.036z"/>
		<g>
			<path style="fill:#FFFFFF;" d="M83,76c-0.615-1.333-1.698-2.395-3.043-2.983L68,69H55H42l-11.957,4.017
				C28.698,73.605,27.615,74.667,27,76l-4,11h64L83,76z"/>
		</g>
		<g>
			<polygon style="fill:#F79392;" points="24.078,84.036 85.922,84.036 84.831,81.036 25.169,81.036 			"/>
		</g>
		<g>
			<path style="fill:#F79392;" d="M27,76l-0.377,1.036h56.754L83,76c-0.351-0.76-0.867-1.417-1.484-1.964H28.484
				C27.867,74.583,27.351,75.24,27,76z"/>
		</g>
		<g>
			<path style="fill:#21B2D1;" d="M55,79.072c3.857,0,13-1,13-7c0-0.676,0-1.789,0-3.072h-3v3.072c0,0-2,4-10,4s-10-4-10-4V69h-3
				c0,1.283,0,2.396,0,3.072C42,78.072,51.143,79.072,55,79.072z"/>
		</g>
		<path style="fill:#F7B4B4;" d="M57.655,68H55h-2.655c-0.856,0-1.671-0.366-2.24-1.005L45,63v9.036c0,0,2,4,10,4s10-4,10-4V63
			l-5.105,3.995C59.326,67.634,58.511,68,57.655,68z"/>
		<path style="fill:#FBC8C8;" d="M50.105,66.995L45,63v9.036c0,0,2,4,10,4V68h-2.655C51.489,68,50.674,67.635,50.105,66.995z"/>
		<path style="fill:#FBD7D7;" d="M51,36.036c-7.25,0-9,10-9,10l-2-1c-1,0-2,1.111-2,2.222c0,3.259,0.961,7.568,3.807,7.76L45,63
			l5.105,3.995c0.569,0.64,1.384,1.005,2.24,1.005H55V38.977l-7,2.059C48,41.036,49.5,38.929,51,36.036z"/>
		<g>
			<path style="fill:#3E3E3F;" d="M52,47.036c0-1.104-0.896-2-2-2c-0.002,0-0.004,0-0.006,0C49.995,45.058,50,45.078,50,45.099
				c0,1.103-0.892,1.996-1.994,2c0.033,1.075,0.91,1.938,1.994,1.938C51.104,49.036,52,48.141,52,47.036z"/>
		</g>
		<g>
			<path style="fill:#3E3E3F;" d="M61.994,47.036c0-1.104-0.896-2-2-2c-0.002,0-0.004,0-0.006,0
				c0.001,0.021,0.006,0.041,0.006,0.062c0,1.103-0.892,1.996-1.994,2c0.033,1.075,0.91,1.938,1.994,1.938
				C61.098,49.036,61.994,48.141,61.994,47.036z"/>
		</g>
		<g>
			<path style="fill:#F79392;" d="M50,58.036h10c0,0,0,3-5,3S50,58.036,50,58.036z"/>
		</g>
		<g>
			<path style="fill:#84462D;" d="M55,26.429c-8.284,0-15,6.42-15,15v3.607l2,1c0,0,1.75-10,9-10c-1.5,2.893-3,5-3,5l17-5l3,10l2-1
				v-3.607C70,32.849,63.284,26.429,55,26.429z"/>
		</g>
		<path style="fill:#9C6144;" d="M40,41.429v3.607l2,1c0,0,1.75-10,9-10c-1.5,2.893-3,5-3,5l7-2.059V26.429
			C46.716,26.429,40,32.849,40,41.429z"/>
	</g>
</g>
<g id="Multicolor">
	<g>
		<path style="fill:#FBC8C8;" d="M70,45.036l-2,1l-3-10l-17,5c0,0,1.5-2.107,3-5c-7.25,0-9,10-9,10l-1-0.5V53l4,10l5.105,3.995
			C50.674,67.634,51.489,68,52.345,68H55h2.655c0.856,0,1.671-0.366,2.24-1.005L65,63l3.193-7.982
			C71.039,54.827,72,50.517,72,47.258C72,46.147,71,45.036,70,45.036z"/>
		<g>
			<path style="fill:#FFFFFF;" d="M83,76c-0.615-1.333-1.698-2.395-3.043-2.983L68,69H55H42l-11.957,4.017
				C28.698,73.605,27.615,74.667,27,76l-4,11h64L83,76z"/>
		</g>
		<g>
			<polygon style="fill:#F79392;" points="24.078,84.036 85.922,84.036 84.831,81.036 25.169,81.036 			"/>
		</g>
		<g>
			<path style="fill:#F79392;" d="M27,76l-0.377,1.036h56.754L83,76c-0.351-0.76-0.867-1.417-1.484-1.964H28.484
				C27.867,74.583,27.351,75.24,27,76z"/>
		</g>
		<g>
			<path style="fill:#21B2D1;" d="M55,79.072c3.857,0,13-1,13-7c0-0.676,0-1.789,0-3.072h-3v3.072c0,0-2,4-10,4s-10-4-10-4V69h-3
				c0,1.283,0,2.396,0,3.072C42,78.072,51.143,79.072,55,79.072z"/>
		</g>
		<path style="fill:#F7B4B4;" d="M57.655,68H55h-2.655c-0.856,0-1.671-0.366-2.24-1.005L45,63v9.036c0,0,2,4,10,4s10-4,10-4V63
			l-5.105,3.995C59.326,67.634,58.511,68,57.655,68z"/>
		<path style="fill:#FBC8C8;" d="M50.105,66.995L45,63v9.036c0,0,2,4,10,4V68h-2.655C51.489,68,50.674,67.635,50.105,66.995z"/>
		<path style="fill:#FBD7D7;" d="M51,36.036c-7.25,0-9,10-9,10l-2-1c-1,0-2,1.111-2,2.222c0,3.259,0.961,7.568,3.807,7.76L45,63
			l5.105,3.995c0.569,0.64,1.384,1.005,2.24,1.005H55V38.977l-7,2.059C48,41.036,49.5,38.929,51,36.036z"/>
		<g>
			<path style="fill:#3E3E3F;" d="M52,47.036c0-1.104-0.896-2-2-2c-0.002,0-0.004,0-0.006,0C49.995,45.058,50,45.078,50,45.099
				c0,1.103-0.892,1.996-1.994,2c0.033,1.075,0.91,1.938,1.994,1.938C51.104,49.036,52,48.141,52,47.036z"/>
		</g>
		<g>
			<path style="fill:#3E3E3F;" d="M61.994,47.036c0-1.104-0.896-2-2-2c-0.002,0-0.004,0-0.006,0
				c0.001,0.021,0.006,0.041,0.006,0.062c0,1.103-0.892,1.996-1.994,2c0.033,1.075,0.91,1.938,1.994,1.938
				C61.098,49.036,61.994,48.141,61.994,47.036z"/>
		</g>
		<g>
			<path style="fill:#F79392;" d="M50,58.036h10c0,0,0,3-5,3S50,58.036,50,58.036z"/>
		</g>
		<g>
			<path style="fill:#84462D;" d="M55,26.429c-8.284,0-15,6.42-15,15v3.607l2,1c0,0,1.75-10,9-10c-1.5,2.893-3,5-3,5l17-5l3,10l2-1
				v-3.607C70,32.849,63.284,26.429,55,26.429z"/>
		</g>
		<path style="fill:#9C6144;" d="M40,41.429v3.607l2,1c0,0,1.75-10,9-10c-1.5,2.893-3,5-3,5l7-2.059V26.429
			C46.716,26.429,40,32.849,40,41.429z"/>
	</g>
</g>
<g id="Blue" style="display:none;">
	<g style="display:inline;">
		<path style="fill:#E1F5FA;" d="M70,45.036l-2,1l-3-10l-17,5c0,0,1.5-2.107,3-5c-7.25,0-9,10-9,10l-1-0.5V53l4,10l5.105,3.995
			C50.674,67.634,51.489,68,52.345,68H55h2.655c0.856,0,1.671-0.366,2.24-1.005L65,63l3.193-7.982
			C71.039,54.827,72,50.517,72,47.258C72,46.148,71,45.036,70,45.036z"/>
		<g>
			<path style="fill:#FFFFFF;" d="M83,76c-0.615-1.334-1.698-2.394-3.044-2.983L68,69H55H42l-11.958,4.017
				C28.698,73.606,27.615,74.666,27,76l-4,11h64L83,76z"/>
		</g>
		<g>
			<polygon style="fill:#009FC7;" points="24.078,84.036 85.922,84.036 84.831,81.036 25.169,81.036 			"/>
		</g>
		<g>
			<path style="fill:#009FC7;" d="M27,76l-0.377,1.036h56.754L83,76c-0.351-0.76-0.867-1.417-1.484-1.964H28.484
				C27.867,74.583,27.351,75.24,27,76z"/>
		</g>
		<g>
			<path style="fill:#00B7E5;" d="M55,79.072c3.857,0,13-1,13-7c0-0.677,0-1.789,0-3.072h-3v3.072c0,0-2,4-10,4s-10-4-10-4V69h-3
				c0,1.283,0,2.396,0,3.072C42,78.072,51.143,79.072,55,79.072z"/>
		</g>
		<path style="fill:#BBE7F2;" d="M57.655,68H55h-2.655c-0.856,0-1.671-0.366-2.24-1.005L45,63v9.036c0,0,2,4,10,4s10-4,10-4V63
			l-5.105,3.995C59.326,67.634,58.511,68,57.655,68z"/>
		<path style="fill:#E1F5FA;" d="M50.105,66.995L45,63v9.036c0,0,2,4,10,4V68h-2.655C51.489,68,50.674,67.635,50.105,66.995z"/>
		<path style="fill:#FFFFFF;" d="M51,36.036c-7.25,0-9,10-9,10l-2-1c-1,0-2,1.111-2,2.222c0,3.259,0.961,7.568,3.807,7.76L45,63
			l5.105,3.995c0.569,0.64,1.384,1.005,2.24,1.005H55V38.977l-7,2.059C48,41.036,49.5,38.929,51,36.036z"/>
		<g>
			<path style="fill:#0C333D;" d="M52,47.036c0-1.104-0.896-2-2-2c-0.002,0-0.004,0-0.006,0C49.995,45.058,50,45.078,50,45.099
				c0,1.103-0.892,1.996-1.994,2c0.033,1.075,0.91,1.938,1.994,1.938C51.104,49.036,52,48.141,52,47.036z"/>
		</g>
		<g>
			<path style="fill:#0C333D;" d="M61.994,47.036c0-1.104-0.896-2-2-2c-0.002,0-0.004,0-0.006,0
				c0.001,0.021,0.006,0.041,0.006,0.062c0,1.103-0.892,1.996-1.994,2c0.033,1.075,0.91,1.938,1.994,1.938
				C61.098,49.036,61.994,48.141,61.994,47.036z"/>
		</g>
		<g>
			<path style="fill:#53BAD4;" d="M50,58.036h10c0,0,0,3-5,3S50,58.036,50,58.036z"/>
		</g>
		<g>
			<path style="fill:#0F6175;" d="M55,26.429c-8.284,0-15,6.42-15,15v3.607l2,1c0,0,1.75-10,9-10c-1.5,2.893-3,5-3,5l17-5l3,10l2-1
				v-3.607C70,32.849,63.284,26.429,55,26.429z"/>
		</g>
		<path style="fill:#33899E;" d="M40,41.429v3.607l2,1c0,0,1.75-10,9-10c-1.5,2.893-3,5-3,5l7-2.059V26.429
			C46.716,26.429,40,32.849,40,41.429z"/>
	</g>
</g>
<g id="R-Blue" style="display:none;">
	<g style="display:inline;">
		<circle style="fill:#81D2EB;" cx="55" cy="55" r="55"/>
	</g>
	<g style="display:inline;">
		<path style="fill:#E1F5FA;" d="M70,45.036l-2,1l-3-10l-17,5c0,0,1.5-2.107,3-5c-7.25,0-9,10-9,10l-1-0.5V53l4,10l5.105,3.995
			C50.674,67.634,51.489,68,52.345,68H55h2.655c0.856,0,1.671-0.366,2.24-1.005L65,63l3.193-7.982
			C71.039,54.827,72,50.517,72,47.258C72,46.148,71,45.036,70,45.036z"/>
		<g>
			<path style="fill:#FFFFFF;" d="M83,76c-0.615-1.334-1.698-2.394-3.044-2.983L68,69H55H42l-11.958,4.017
				C28.698,73.606,27.615,74.666,27,76l-4,11h64L83,76z"/>
		</g>
		<g>
			<polygon style="fill:#009FC7;" points="24.078,84.036 85.922,84.036 84.831,81.036 25.169,81.036 			"/>
		</g>
		<g>
			<path style="fill:#009FC7;" d="M27,76l-0.377,1.036h56.754L83,76c-0.351-0.76-0.867-1.417-1.484-1.964H28.484
				C27.867,74.583,27.351,75.24,27,76z"/>
		</g>
		<g>
			<path style="fill:#00B7E5;" d="M55,79.072c3.857,0,13-1,13-7c0-0.677,0-1.789,0-3.072h-3v3.072c0,0-2,4-10,4s-10-4-10-4V69h-3
				c0,1.283,0,2.396,0,3.072C42,78.072,51.143,79.072,55,79.072z"/>
		</g>
		<path style="fill:#BBE7F2;" d="M57.655,68H55h-2.655c-0.856,0-1.671-0.366-2.24-1.005L45,63v9.036c0,0,2,4,10,4s10-4,10-4V63
			l-5.105,3.995C59.326,67.634,58.511,68,57.655,68z"/>
		<path style="fill:#E1F5FA;" d="M50.105,66.995L45,63v9.036c0,0,2,4,10,4V68h-2.655C51.489,68,50.674,67.635,50.105,66.995z"/>
		<path style="fill:#FFFFFF;" d="M51,36.036c-7.25,0-9,10-9,10l-2-1c-1,0-2,1.111-2,2.222c0,3.259,0.961,7.568,3.807,7.76L45,63
			l5.105,3.995c0.569,0.64,1.384,1.005,2.24,1.005H55V38.977l-7,2.059C48,41.036,49.5,38.929,51,36.036z"/>
		<g>
			<path style="fill:#0C333D;" d="M52,47.036c0-1.104-0.896-2-2-2c-0.002,0-0.004,0-0.006,0C49.995,45.058,50,45.078,50,45.099
				c0,1.103-0.892,1.996-1.994,2c0.033,1.075,0.91,1.938,1.994,1.938C51.104,49.036,52,48.141,52,47.036z"/>
		</g>
		<g>
			<path style="fill:#0C333D;" d="M61.994,47.036c0-1.104-0.896-2-2-2c-0.002,0-0.004,0-0.006,0
				c0.001,0.021,0.006,0.041,0.006,0.062c0,1.103-0.892,1.996-1.994,2c0.033,1.075,0.91,1.938,1.994,1.938
				C61.098,49.036,61.994,48.141,61.994,47.036z"/>
		</g>
		<g>
			<path style="fill:#53BAD4;" d="M50,58.036h10c0,0,0,3-5,3S50,58.036,50,58.036z"/>
		</g>
		<g>
			<path style="fill:#0F6175;" d="M55,26.429c-8.284,0-15,6.42-15,15v3.607l2,1c0,0,1.75-10,9-10c-1.5,2.893-3,5-3,5l17-5l3,10l2-1
				v-3.607C70,32.849,63.284,26.429,55,26.429z"/>
		</g>
		<path style="fill:#33899E;" d="M40,41.429v3.607l2,1c0,0,1.75-10,9-10c-1.5,2.893-3,5-3,5l7-2.059V26.429
			C46.716,26.429,40,32.849,40,41.429z"/>
	</g>
</g>
<g id="Green" style="display:none;">
	<g style="display:inline;">
		<path style="fill:#D7FCF9;" d="M70,45.036l-2,1l-3-10l-17,5c0,0,1.5-2.107,3-5c-7.25,0-9,10-9,10l-1-0.5V53l4,10l5.105,3.995
			C50.674,67.634,51.489,68,52.345,68H55h2.655c0.856,0,1.671-0.366,2.24-1.005L65,63l3.193-7.982
			C71.039,54.827,72,50.517,72,47.258C72,46.148,71,45.036,70,45.036z"/>
		<g>
			<path style="fill:#FFFFFF;" d="M83,76c-0.615-1.334-1.698-2.394-3.044-2.983L68,69H55H42l-11.958,4.017
				C28.698,73.606,27.615,74.666,27,76l-4,11h64L83,76z"/>
		</g>
		<g>
			<polygon style="fill:#00B8A5;" points="24.078,84.036 85.922,84.036 84.831,81.036 25.169,81.036 			"/>
		</g>
		<g>
			<path style="fill:#00B8A5;" d="M27,76l-0.377,1.036h56.754L83,76c-0.351-0.76-0.867-1.417-1.484-1.964H28.484
				C27.867,74.583,27.351,75.24,27,76z"/>
		</g>
		<g>
			<path style="fill:#00D6C1;" d="M55,79.072c3.857,0,13-1,13-7c0-0.677,0-1.789,0-3.072h-3v3.072c0,0-2,4-10,4s-10-4-10-4V69h-3
				c0,1.283,0,2.396,0,3.072C42,78.072,51.143,79.072,55,79.072z"/>
		</g>
		<path style="fill:#AAF0E9;" d="M57.655,68H55h-2.655c-0.856,0-1.671-0.366-2.24-1.005L45,63v9.036c0,0,2,4,10,4s10-4,10-4V63
			l-5.105,3.995C59.326,67.634,58.511,68,57.655,68z"/>
		<path style="fill:#D7FCF9;" d="M50.105,66.995L45,63v9.036c0,0,2,4,10,4V68h-2.655C51.489,68,50.674,67.635,50.105,66.995z"/>
		<path style="fill:#FFFFFF;" d="M51,36.036c-7.25,0-9,10-9,10l-2-1c-1,0-2,1.111-2,2.222c0,3.259,0.961,7.568,3.807,7.76L45,63
			l5.105,3.995c0.569,0.64,1.384,1.005,2.24,1.005H55V38.977l-7,2.059C48,41.036,49.5,38.929,51,36.036z"/>
		<g>
			<path style="fill:#0A3631;" d="M52,47.036c0-1.104-0.896-2-2-2c-0.002,0-0.004,0-0.006,0C49.995,45.058,50,45.078,50,45.099
				c0,1.103-0.892,1.996-1.994,2c0.033,1.075,0.91,1.938,1.994,1.938C51.104,49.036,52,48.141,52,47.036z"/>
		</g>
		<g>
			<path style="fill:#0A3631;" d="M61.994,47.036c0-1.104-0.896-2-2-2c-0.002,0-0.004,0-0.006,0
				c0.001,0.021,0.006,0.041,0.006,0.062c0,1.103-0.892,1.996-1.994,2c0.033,1.075,0.91,1.938,1.994,1.938
				C61.098,49.036,61.994,48.141,61.994,47.036z"/>
		</g>
		<g>
			<path style="fill:#55C9BE;" d="M50,58.036h10c0,0,0,3-5,3S50,58.036,50,58.036z"/>
		</g>
		<g>
			<path style="fill:#14635B;" d="M55,26.429c-8.284,0-15,6.42-15,15v3.607l2,1c0,0,1.75-10,9-10c-1.5,2.893-3,5-3,5l17-5l3,10l2-1
				v-3.607C70,32.849,63.284,26.429,55,26.429z"/>
		</g>
		<path style="fill:#3E948B;" d="M40,41.429v3.607l2,1c0,0,1.75-10,9-10c-1.5,2.893-3,5-3,5l7-2.059V26.429
			C46.716,26.429,40,32.849,40,41.429z"/>
	</g>
</g>
<g id="R-Green" style="display:none;">
	<g style="display:inline;">
		<circle style="fill:#77E0C4;" cx="55" cy="55" r="55"/>
	</g>
	<g style="display:inline;">
		<path style="fill:#D7FCF9;" d="M70,45.036l-2,1l-3-10l-17,5c0,0,1.5-2.107,3-5c-7.25,0-9,10-9,10l-1-0.5V53l4,10l5.105,3.995
			C50.674,67.634,51.489,68,52.345,68H55h2.655c0.856,0,1.671-0.366,2.24-1.005L65,63l3.193-7.982
			C71.039,54.827,72,50.517,72,47.258C72,46.148,71,45.036,70,45.036z"/>
		<g>
			<path style="fill:#FFFFFF;" d="M83,76c-0.615-1.334-1.698-2.394-3.044-2.983L68,69H55H42l-11.958,4.017
				C28.698,73.606,27.615,74.666,27,76l-4,11h64L83,76z"/>
		</g>
		<g>
			<polygon style="fill:#00B8A5;" points="24.078,84.036 85.922,84.036 84.831,81.036 25.169,81.036 			"/>
		</g>
		<g>
			<path style="fill:#00B8A5;" d="M27,76l-0.377,1.036h56.754L83,76c-0.351-0.76-0.867-1.417-1.484-1.964H28.484
				C27.867,74.583,27.351,75.24,27,76z"/>
		</g>
		<g>
			<path style="fill:#00D6C1;" d="M55,79.072c3.857,0,13-1,13-7c0-0.677,0-1.789,0-3.072h-3v3.072c0,0-2,4-10,4s-10-4-10-4V69h-3
				c0,1.283,0,2.396,0,3.072C42,78.072,51.143,79.072,55,79.072z"/>
		</g>
		<path style="fill:#AAF0E9;" d="M57.655,68H55h-2.655c-0.856,0-1.671-0.366-2.24-1.005L45,63v9.036c0,0,2,4,10,4s10-4,10-4V63
			l-5.105,3.995C59.326,67.634,58.511,68,57.655,68z"/>
		<path style="fill:#D7FCF9;" d="M50.105,66.995L45,63v9.036c0,0,2,4,10,4V68h-2.655C51.489,68,50.674,67.635,50.105,66.995z"/>
		<path style="fill:#FFFFFF;" d="M51,36.036c-7.25,0-9,10-9,10l-2-1c-1,0-2,1.111-2,2.222c0,3.259,0.961,7.568,3.807,7.76L45,63
			l5.105,3.995c0.569,0.64,1.384,1.005,2.24,1.005H55V38.977l-7,2.059C48,41.036,49.5,38.929,51,36.036z"/>
		<g>
			<path style="fill:#0A3631;" d="M52,47.036c0-1.104-0.896-2-2-2c-0.002,0-0.004,0-0.006,0C49.995,45.058,50,45.078,50,45.099
				c0,1.103-0.892,1.996-1.994,2c0.033,1.075,0.91,1.938,1.994,1.938C51.104,49.036,52,48.141,52,47.036z"/>
		</g>
		<g>
			<path style="fill:#0A3631;" d="M61.994,47.036c0-1.104-0.896-2-2-2c-0.002,0-0.004,0-0.006,0
				c0.001,0.021,0.006,0.041,0.006,0.062c0,1.103-0.892,1.996-1.994,2c0.033,1.075,0.91,1.938,1.994,1.938
				C61.098,49.036,61.994,48.141,61.994,47.036z"/>
		</g>
		<g>
			<path style="fill:#55C9BE;" d="M50,58.036h10c0,0,0,3-5,3S50,58.036,50,58.036z"/>
		</g>
		<g>
			<path style="fill:#14635B;" d="M55,26.429c-8.284,0-15,6.42-15,15v3.607l2,1c0,0,1.75-10,9-10c-1.5,2.893-3,5-3,5l17-5l3,10l2-1
				v-3.607C70,32.849,63.284,26.429,55,26.429z"/>
		</g>
		<path style="fill:#3E948B;" d="M40,41.429v3.607l2,1c0,0,1.75-10,9-10c-1.5,2.893-3,5-3,5l7-2.059V26.429
			C46.716,26.429,40,32.849,40,41.429z"/>
	</g>
</g>
<g id="Red" style="display:none;">
	<g style="display:inline;">
		<path style="fill:#FFEFED;" d="M70,45.036l-2,1l-3-10l-17,5c0,0,1.5-2.107,3-5c-7.25,0-9,10-9,10l-1-0.5V53l4,10l5.105,3.995
			C50.674,67.634,51.489,68,52.345,68H55h2.655c0.856,0,1.671-0.366,2.24-1.005L65,63l3.193-7.982
			C71.039,54.827,72,50.517,72,47.258C72,46.148,71,45.036,70,45.036z"/>
		<g>
			<path style="fill:#FFFFFF;" d="M83,76c-0.615-1.334-1.698-2.394-3.044-2.983L68,69H55H42l-11.958,4.017
				C28.698,73.606,27.615,74.666,27,76l-4,11h64L83,76z"/>
		</g>
		<g>
			<polygon style="fill:#E54B44;" points="24.078,84.036 85.922,84.036 84.831,81.036 25.169,81.036 			"/>
		</g>
		<g>
			<path style="fill:#E54B44;" d="M27,76l-0.377,1.036h56.754L83,76c-0.351-0.76-0.867-1.417-1.484-1.964H28.484
				C27.867,74.583,27.351,75.24,27,76z"/>
		</g>
		<g>
			<path style="fill:#FF6C5E;" d="M55,79.072c3.857,0,13-1,13-7c0-0.677,0-1.789,0-3.072h-3v3.072c0,0-2,4-10,4s-10-4-10-4V69h-3
				c0,1.283,0,2.396,0,3.072C42,78.072,51.143,79.072,55,79.072z"/>
		</g>
		<path style="fill:#FFD7D4;" d="M57.655,68H55h-2.655c-0.856,0-1.671-0.366-2.24-1.005L45,63v9.036c0,0,2,4,10,4s10-4,10-4V63
			l-5.105,3.995C59.326,67.634,58.511,68,57.655,68z"/>
		<path style="fill:#FFEFED;" d="M50.105,66.995L45,63v9.036c0,0,2,4,10,4V68h-2.655C51.489,68,50.674,67.635,50.105,66.995z"/>
		<path style="fill:#FFFFFF;" d="M51,36.036c-7.25,0-9,10-9,10l-2-1c-1,0-2,1.111-2,2.222c0,3.259,0.961,7.568,3.807,7.76L45,63
			l5.105,3.995c0.569,0.64,1.384,1.005,2.24,1.005H55V38.977l-7,2.059C48,41.036,49.5,38.929,51,36.036z"/>
		<g>
			<path style="fill:#4A1410;" d="M52,47.036c0-1.104-0.896-2-2-2c-0.002,0-0.004,0-0.006,0C49.995,45.058,50,45.078,50,45.099
				c0,1.103-0.892,1.996-1.994,2c0.033,1.075,0.91,1.938,1.994,1.938C51.104,49.036,52,48.141,52,47.036z"/>
		</g>
		<g>
			<path style="fill:#4A1410;" d="M61.994,47.036c0-1.104-0.896-2-2-2c-0.002,0-0.004,0-0.006,0
				c0.001,0.021,0.006,0.041,0.006,0.062c0,1.103-0.892,1.996-1.994,2c0.033,1.075,0.91,1.938,1.994,1.938
				C61.098,49.036,61.994,48.141,61.994,47.036z"/>
		</g>
		<g>
			<path style="fill:#E8A099;" d="M50,58.036h10c0,0,0,3-5,3S50,58.036,50,58.036z"/>
		</g>
		<g>
			<path style="fill:#7D261E;" d="M55,26.429c-8.284,0-15,6.42-15,15v3.607l2,1c0,0,1.75-10,9-10c-1.5,2.893-3,5-3,5l17-5l3,10l2-1
				v-3.607C70,32.849,63.284,26.429,55,26.429z"/>
		</g>
		<path style="fill:#B84E44;" d="M40,41.429v3.607l2,1c0,0,1.75-10,9-10c-1.5,2.893-3,5-3,5l7-2.059V26.429
			C46.716,26.429,40,32.849,40,41.429z"/>
	</g>
</g>
<g id="R-Red" style="display:none;">
	<g style="display:inline;">
		<circle style="fill:#FABBAF;" cx="55" cy="55" r="55"/>
	</g>
	<g style="display:inline;">
		<path style="fill:#FFEFED;" d="M70,45.036l-2,1l-3-10l-17,5c0,0,1.5-2.107,3-5c-7.25,0-9,10-9,10l-1-0.5V53l4,10l5.105,3.995
			C50.674,67.634,51.489,68,52.345,68H55h2.655c0.856,0,1.671-0.366,2.24-1.005L65,63l3.193-7.982
			C71.039,54.827,72,50.517,72,47.258C72,46.148,71,45.036,70,45.036z"/>
		<g>
			<path style="fill:#FFFFFF;" d="M83,76c-0.615-1.334-1.698-2.394-3.044-2.983L68,69H55H42l-11.958,4.017
				C28.698,73.606,27.615,74.666,27,76l-4,11h64L83,76z"/>
		</g>
		<g>
			<polygon style="fill:#E54B44;" points="24.078,84.036 85.922,84.036 84.831,81.036 25.169,81.036 			"/>
		</g>
		<g>
			<path style="fill:#E54B44;" d="M27,76l-0.377,1.036h56.754L83,76c-0.351-0.76-0.867-1.417-1.484-1.964H28.484
				C27.867,74.583,27.351,75.24,27,76z"/>
		</g>
		<g>
			<path style="fill:#FF6C5E;" d="M55,79.072c3.857,0,13-1,13-7c0-0.677,0-1.789,0-3.072h-3v3.072c0,0-2,4-10,4s-10-4-10-4V69h-3
				c0,1.283,0,2.396,0,3.072C42,78.072,51.143,79.072,55,79.072z"/>
		</g>
		<path style="fill:#FFD7D4;" d="M57.655,68H55h-2.655c-0.856,0-1.671-0.366-2.24-1.005L45,63v9.036c0,0,2,4,10,4s10-4,10-4V63
			l-5.105,3.995C59.326,67.634,58.511,68,57.655,68z"/>
		<path style="fill:#FFEFED;" d="M50.105,66.995L45,63v9.036c0,0,2,4,10,4V68h-2.655C51.489,68,50.674,67.635,50.105,66.995z"/>
		<path style="fill:#FFFFFF;" d="M51,36.036c-7.25,0-9,10-9,10l-2-1c-1,0-2,1.111-2,2.222c0,3.259,0.961,7.568,3.807,7.76L45,63
			l5.105,3.995c0.569,0.64,1.384,1.005,2.24,1.005H55V38.977l-7,2.059C48,41.036,49.5,38.929,51,36.036z"/>
		<g>
			<path style="fill:#4A1410;" d="M52,47.036c0-1.104-0.896-2-2-2c-0.002,0-0.004,0-0.006,0C49.995,45.058,50,45.078,50,45.099
				c0,1.103-0.892,1.996-1.994,2c0.033,1.075,0.91,1.938,1.994,1.938C51.104,49.036,52,48.141,52,47.036z"/>
		</g>
		<g>
			<path style="fill:#4A1410;" d="M61.994,47.036c0-1.104-0.896-2-2-2c-0.002,0-0.004,0-0.006,0
				c0.001,0.021,0.006,0.041,0.006,0.062c0,1.103-0.892,1.996-1.994,2c0.033,1.075,0.91,1.938,1.994,1.938
				C61.098,49.036,61.994,48.141,61.994,47.036z"/>
		</g>
		<g>
			<path style="fill:#E8A099;" d="M50,58.036h10c0,0,0,3-5,3S50,58.036,50,58.036z"/>
		</g>
		<g>
			<path style="fill:#7D261E;" d="M55,26.429c-8.284,0-15,6.42-15,15v3.607l2,1c0,0,1.75-10,9-10c-1.5,2.893-3,5-3,5l17-5l3,10l2-1
				v-3.607C70,32.849,63.284,26.429,55,26.429z"/>
		</g>
		<path style="fill:#B84E44;" d="M40,41.429v3.607l2,1c0,0,1.75-10,9-10c-1.5,2.893-3,5-3,5l7-2.059V26.429
			C46.716,26.429,40,32.849,40,41.429z"/>
	</g>
</g>
<g id="Yellow" style="display:none;">
	<g style="display:inline;">
		<path style="fill:#FFF5D9;" d="M70,45.036l-2,1l-3-10l-17,5c0,0,1.5-2.107,3-5c-7.25,0-9,10-9,10l-1-0.5V53l4,10l5.105,3.995
			C50.674,67.634,51.489,68,52.345,68H55h2.655c0.856,0,1.671-0.366,2.24-1.005L65,63l3.193-7.982
			C71.039,54.827,72,50.517,72,47.258C72,46.148,71,45.036,70,45.036z"/>
		<g>
			<path style="fill:#FFFFFF;" d="M83,76c-0.615-1.334-1.698-2.394-3.044-2.983L68,69H55H42l-11.958,4.017
				C28.698,73.606,27.615,74.666,27,76l-4,11h64L83,76z"/>
		</g>
		<g>
			<polygon style="fill:#FA9200;" points="24.078,84.036 85.922,84.036 84.831,81.036 25.169,81.036 			"/>
		</g>
		<g>
			<path style="fill:#FA9200;" d="M27,76l-0.377,1.036h56.754L83,76c-0.351-0.76-0.867-1.417-1.484-1.964H28.484
				C27.867,74.583,27.351,75.24,27,76z"/>
		</g>
		<g>
			<path style="fill:#FFAA00;" d="M55,79.072c3.857,0,13-1,13-7c0-0.677,0-1.789,0-3.072h-3v3.072c0,0-2,4-10,4s-10-4-10-4V69h-3
				c0,1.283,0,2.396,0,3.072C42,78.072,51.143,79.072,55,79.072z"/>
		</g>
		<path style="fill:#FFE9A1;" d="M57.655,68H55h-2.655c-0.856,0-1.671-0.366-2.24-1.005L45,63v9.036c0,0,2,4,10,4s10-4,10-4V63
			l-5.105,3.995C59.326,67.634,58.511,68,57.655,68z"/>
		<path style="fill:#FFF5D9;" d="M50.105,66.995L45,63v9.036c0,0,2,4,10,4V68h-2.655C51.489,68,50.674,67.635,50.105,66.995z"/>
		<path style="fill:#FFFFFF;" d="M51,36.036c-7.25,0-9,10-9,10l-2-1c-1,0-2,1.111-2,2.222c0,3.259,0.961,7.568,3.807,7.76L45,63
			l5.105,3.995c0.569,0.64,1.384,1.005,2.24,1.005H55V38.977l-7,2.059C48,41.036,49.5,38.929,51,36.036z"/>
		<g>
			<path style="fill:#3D320C;" d="M52,47.036c0-1.104-0.896-2-2-2c-0.002,0-0.004,0-0.006,0C49.995,45.058,50,45.078,50,45.099
				c0,1.103-0.892,1.996-1.994,2c0.033,1.075,0.91,1.938,1.994,1.938C51.104,49.036,52,48.141,52,47.036z"/>
		</g>
		<g>
			<path style="fill:#3D320C;" d="M61.994,47.036c0-1.104-0.896-2-2-2c-0.002,0-0.004,0-0.006,0
				c0.001,0.021,0.006,0.041,0.006,0.062c0,1.103-0.892,1.996-1.994,2c0.033,1.075,0.91,1.938,1.994,1.938
				C61.098,49.036,61.994,48.141,61.994,47.036z"/>
		</g>
		<g>
			<path style="fill:#F5C43D;" d="M50,58.036h10c0,0,0,3-5,3S50,58.036,50,58.036z"/>
		</g>
		<g>
			<path style="fill:#66510D;" d="M55,26.429c-8.284,0-15,6.42-15,15v3.607l2,1c0,0,1.75-10,9-10c-1.5,2.893-3,5-3,5l17-5l3,10l2-1
				v-3.607C70,32.849,63.284,26.429,55,26.429z"/>
		</g>
		<path style="fill:#947615;" d="M40,41.429v3.607l2,1c0,0,1.75-10,9-10c-1.5,2.893-3,5-3,5l7-2.059V26.429
			C46.716,26.429,40,32.849,40,41.429z"/>
	</g>
</g>
<g id="R-Yellow" style="display:none;">
	<g style="display:inline;">
		<circle style="fill:#FFD75E;" cx="55" cy="55" r="55"/>
	</g>
	<g style="display:inline;">
		<path style="fill:#FFF5D9;" d="M70,45.036l-2,1l-3-10l-17,5c0,0,1.5-2.107,3-5c-7.25,0-9,10-9,10l-1-0.5V53l4,10l5.105,3.995
			C50.674,67.634,51.489,68,52.345,68H55h2.655c0.856,0,1.671-0.366,2.24-1.005L65,63l3.193-7.982
			C71.039,54.827,72,50.517,72,47.258C72,46.148,71,45.036,70,45.036z"/>
		<g>
			<path style="fill:#FFFFFF;" d="M83,76c-0.615-1.334-1.698-2.394-3.044-2.983L68,69H55H42l-11.958,4.017
				C28.698,73.606,27.615,74.666,27,76l-4,11h64L83,76z"/>
		</g>
		<g>
			<polygon style="fill:#FA9200;" points="24.078,84.036 85.922,84.036 84.831,81.036 25.169,81.036 			"/>
		</g>
		<g>
			<path style="fill:#FA9200;" d="M27,76l-0.377,1.036h56.754L83,76c-0.351-0.76-0.867-1.417-1.484-1.964H28.484
				C27.867,74.583,27.351,75.24,27,76z"/>
		</g>
		<g>
			<path style="fill:#FFAA00;" d="M55,79.072c3.857,0,13-1,13-7c0-0.677,0-1.789,0-3.072h-3v3.072c0,0-2,4-10,4s-10-4-10-4V69h-3
				c0,1.283,0,2.396,0,3.072C42,78.072,51.143,79.072,55,79.072z"/>
		</g>
		<path style="fill:#FFE9A1;" d="M57.655,68H55h-2.655c-0.856,0-1.671-0.366-2.24-1.005L45,63v9.036c0,0,2,4,10,4s10-4,10-4V63
			l-5.105,3.995C59.326,67.634,58.511,68,57.655,68z"/>
		<path style="fill:#FFF5D9;" d="M50.105,66.995L45,63v9.036c0,0,2,4,10,4V68h-2.655C51.489,68,50.674,67.635,50.105,66.995z"/>
		<path style="fill:#FFFFFF;" d="M51,36.036c-7.25,0-9,10-9,10l-2-1c-1,0-2,1.111-2,2.222c0,3.259,0.961,7.568,3.807,7.76L45,63
			l5.105,3.995c0.569,0.64,1.384,1.005,2.24,1.005H55V38.977l-7,2.059C48,41.036,49.5,38.929,51,36.036z"/>
		<g>
			<path style="fill:#3D320C;" d="M52,47.036c0-1.104-0.896-2-2-2c-0.002,0-0.004,0-0.006,0C49.995,45.058,50,45.078,50,45.099
				c0,1.103-0.892,1.996-1.994,2c0.033,1.075,0.91,1.938,1.994,1.938C51.104,49.036,52,48.141,52,47.036z"/>
		</g>
		<g>
			<path style="fill:#3D320C;" d="M61.994,47.036c0-1.104-0.896-2-2-2c-0.002,0-0.004,0-0.006,0
				c0.001,0.021,0.006,0.041,0.006,0.062c0,1.103-0.892,1.996-1.994,2c0.033,1.075,0.91,1.938,1.994,1.938
				C61.098,49.036,61.994,48.141,61.994,47.036z"/>
		</g>
		<g>
			<path style="fill:#F5C43D;" d="M50,58.036h10c0,0,0,3-5,3S50,58.036,50,58.036z"/>
		</g>
		<g>
			<path style="fill:#66510D;" d="M55,26.429c-8.284,0-15,6.42-15,15v3.607l2,1c0,0,1.75-10,9-10c-1.5,2.893-3,5-3,5l17-5l3,10l2-1
				v-3.607C70,32.849,63.284,26.429,55,26.429z"/>
		</g>
		<path style="fill:#947615;" d="M40,41.429v3.607l2,1c0,0,1.75-10,9-10c-1.5,2.893-3,5-3,5l7-2.059V26.429
			C46.716,26.429,40,32.849,40,41.429z"/>
	</g>
</g>
</svg>
