<?xml version="1.0" encoding="iso-8859-1"?>
<!-- Generator: Adobe Illustrator 17.1.0, SVG Export Plug-In . SVG Version: 6.00 Build 0)  -->
<!DOCTYPE svg PUBLIC "-//W3C//DTD SVG 1.0//EN" "http://www.w3.org/TR/2001/REC-SVG-20010904/DTD/svg10.dtd">
<svg version="1.0" xmlns="http://www.w3.org/2000/svg" xmlns:xlink="http://www.w3.org/1999/xlink" x="0px" y="0px" width="110px"
	 height="110px" viewBox="0 0 110 110" style="enable-background:new 0 0 110 110;" xml:space="preserve">
<g id="Artboard" style="display:none;">
	
		<rect x="-433.5" y="-176.5" style="display:inline;fill:#808080;stroke:#000000;stroke-miterlimit:10;" width="1362" height="598"/>
</g>
<g id="R-Multicolor" style="display:none;">
	<g style="display:inline;">
		<circle style="fill:#32BEA6;" cx="54.976" cy="55.024" r="55"/>
	</g>
	<g style="display:inline;">
		<path style="fill:#FBC8C8;" d="M70.73,45.189C69.021,46.139,69,47.11,69,48.829V50h-2V38.006c-3.686,0.886-7.934,1.284-12,1.042
			v0.012c-4-0.232-8.748-1.22-12-3.536V50h-2v2.997l4,10l5.105,3.996c0.569,0.639,1.384,1.004,2.24,1.004H55h2.655
			c0.856,0,1.671-0.365,2.24-1.004L65,62.997l3.207-8.017C71.042,54.776,72,50.476,72,47.222C72,46.388,71.436,45.553,70.73,45.189z
			"/>
		<path style="fill:#F7B4B4;" d="M57.655,67.997H55h-2.655c-0.856,0-1.671-0.365-2.24-1.004L45,62.997V67l9.996,8
			c0.001,0,0.002,0,0.004,0s0.002,0,0.004,0L65,67v-4.003l-5.105,3.996C59.326,67.632,58.511,67.997,57.655,67.997z"/>
		<path style="fill:#FBC8C8;" d="M50.105,66.993L45,62.997v4l9.996,8c0.001,0,0.002,0,0.004,0v-7h-2.655
			C51.489,67.997,50.674,67.632,50.105,66.993z"/>
		<path style="fill:#FBD7D7;" d="M43,50h-2v-1.171c0-1.719-0.021-2.69-1.73-3.639C38.564,45.553,38,46.388,38,47.222
			c0,3.253,0.958,7.554,3.793,7.758L45,62.997l5.105,3.996c0.569,0.639,1.384,1.004,2.24,1.004H55V39.059
			c-4.597-0.27-8.957-1.367-12-3.536V50z"/>
		<g>
			<polygon style="fill:#FFFFFF;" points="49.192,77.803 55,87 60.808,77.803 67,67.997 65,66.997 55,75 45,66.997 43,67.997 			"/>
		</g>
		<g>
			<path style="fill:#F79392;" d="M50,56.997h10c0,0,0,3-5,3S50,56.997,50,56.997z"/>
		</g>
		<g>
			<path style="fill:#0484AB;" d="M23,87l4-11c0.615-1.333,1.698-2.394,3.043-2.983L43,68l12,19H23z"/>
		</g>
		<g>
			<path style="fill:#0484AB;" d="M87,87l-4-11c-0.615-1.333-1.698-2.394-3.043-2.983L67,68L55,87H87z"/>
		</g>
		<g>
			<polygon style="fill:#6FDAF1;" points="40,69 51,87 55,87 53.509,84.639 43,68 			"/>
		</g>
		<g>
			<polygon style="fill:#6FDAF1;" points="70,69 59,87 55,87 56.491,84.639 67,68 			"/>
		</g>
		<path style="fill:#DF2C2C;" d="M64,73l-6.73,3.059C56.72,75.416,55.913,75,55,75s-1.72,0.416-2.27,1.059L46,73v10l6.73-3.059
			C53.28,80.584,54.087,81,55,81s1.72-0.416,2.27-1.059L64,83V73z"/>
		<g>
			<path style="fill:#3E3E3F;" d="M61.5,41c-1.537,0-2.925,0.632-3.923,1.648c-1.618-0.831-3.536-0.831-5.153,0
				C51.425,41.632,50.037,41,48.5,41c-3.038,0-5.5,2.462-5.5,5.5s2.462,5.5,5.5,5.5s5.5-2.462,5.5-5.5
				c0-0.886-0.214-1.72-0.586-2.461c1.01-0.442,2.163-0.442,3.173,0C56.214,44.78,56,45.614,56,46.5c0,3.038,2.462,5.5,5.5,5.5
				s5.5-2.462,5.5-5.5S64.538,41,61.5,41z"/>
		</g>
		<g>
			<circle style="fill:#9CE5F4;" cx="48.5" cy="46.5" r="3.5"/>
		</g>
		<g>
			<circle style="fill:#9CE5F4;" cx="61.5" cy="46.5" r="3.5"/>
		</g>
		<g>
			<path style="fill:#C9F2F8;" d="M48.5,43c-1.933,0-3.5,1.567-3.5,3.5c0,0.992,0.417,1.883,1.08,2.521l4.94-4.94
				C50.383,43.417,49.492,43,48.5,43z"/>
		</g>
		<g>
			<path style="fill:#C9F2F8;" d="M61.479,43c-1.933,0-3.5,1.567-3.5,3.5c0,0.992,0.417,1.883,1.08,2.521L64,44.08
				C63.363,43.417,62.472,43,61.479,43z"/>
		</g>
		<path style="fill:#84462D;" d="M75,34.601c-1.943-13.245-34-14.169-34-2.015c0,0.883,0,1.131,0,1.131
			c4.955,5.791,17.126,6.421,26,4.289V50h2v-1.171c0-1.811,0-2.792,2-3.792v-8.268C72.588,36.144,73.956,35.414,75,34.601z"/>
		<path style="fill:#9C6144;" d="M55,24.057c-7.379,0.199-13.971,3.002-13.998,8.497C39.811,33.246,39,34.522,39,36v9.036
			c2,1,2,1.981,2,3.792V50h2V35.523c3.043,2.169,7.403,3.266,12,3.536V24.057z"/>
	</g>
</g>
<g id="Multicolor">
	<g>
		<path style="fill:#FBC8C8;" d="M70.73,45.189C69.021,46.139,69,47.11,69,48.829V50h-2V38.006c-3.686,0.886-7.934,1.284-12,1.042
			v0.012c-4-0.232-8.748-1.22-12-3.536V50h-2v2.997l4,10l5.105,3.996c0.569,0.639,1.384,1.004,2.24,1.004H55h2.655
			c0.856,0,1.671-0.365,2.24-1.004L65,62.997l3.207-8.017C71.042,54.776,72,50.476,72,47.222C72,46.388,71.436,45.553,70.73,45.189z
			"/>
		<path style="fill:#F7B4B4;" d="M57.655,67.997H55h-2.655c-0.856,0-1.671-0.365-2.24-1.004L45,62.997V67l9.996,8
			c0.001,0,0.002,0,0.004,0s0.002,0,0.004,0L65,67v-4.003l-5.105,3.996C59.326,67.632,58.511,67.997,57.655,67.997z"/>
		<path style="fill:#FBC8C8;" d="M50.105,66.993L45,62.997v4l9.996,8c0.001,0,0.002,0,0.004,0v-7h-2.655
			C51.489,67.997,50.674,67.632,50.105,66.993z"/>
		<path style="fill:#FBD7D7;" d="M43,50h-2v-1.171c0-1.719-0.021-2.69-1.73-3.639C38.564,45.553,38,46.388,38,47.222
			c0,3.253,0.958,7.554,3.793,7.758L45,62.997l5.105,3.996c0.569,0.639,1.384,1.004,2.24,1.004H55V39.059
			c-4.597-0.27-8.957-1.367-12-3.536V50z"/>
		<g>
			<polygon style="fill:#FFFFFF;" points="49.192,77.803 55,87 60.808,77.803 67,67.997 65,66.997 55,75 45,66.997 43,67.997 			"/>
		</g>
		<g>
			<path style="fill:#F79392;" d="M50,56.997h10c0,0,0,3-5,3S50,56.997,50,56.997z"/>
		</g>
		<g>
			<path style="fill:#0484AB;" d="M23,87l4-11c0.615-1.333,1.698-2.394,3.043-2.983L43,68l12,19H23z"/>
		</g>
		<g>
			<path style="fill:#0484AB;" d="M87,87l-4-11c-0.615-1.333-1.698-2.394-3.043-2.983L67,68L55,87H87z"/>
		</g>
		<g>
			<polygon style="fill:#6FDAF1;" points="40,69 51,87 55,87 53.509,84.639 43,68 			"/>
		</g>
		<g>
			<polygon style="fill:#6FDAF1;" points="70,69 59,87 55,87 56.491,84.639 67,68 			"/>
		</g>
		<path style="fill:#DF2C2C;" d="M64,73l-6.73,3.059C56.72,75.416,55.913,75,55,75s-1.72,0.416-2.27,1.059L46,73v10l6.73-3.059
			C53.28,80.584,54.087,81,55,81s1.72-0.416,2.27-1.059L64,83V73z"/>
		<g>
			<path style="fill:#3E3E3F;" d="M61.5,41c-1.537,0-2.925,0.632-3.923,1.648c-1.618-0.831-3.536-0.831-5.153,0
				C51.425,41.632,50.037,41,48.5,41c-3.038,0-5.5,2.462-5.5,5.5s2.462,5.5,5.5,5.5s5.5-2.462,5.5-5.5
				c0-0.886-0.214-1.72-0.586-2.461c1.01-0.442,2.163-0.442,3.173,0C56.214,44.78,56,45.614,56,46.5c0,3.038,2.462,5.5,5.5,5.5
				s5.5-2.462,5.5-5.5S64.538,41,61.5,41z"/>
		</g>
		<g>
			<circle style="fill:#9CE5F4;" cx="48.5" cy="46.5" r="3.5"/>
		</g>
		<g>
			<circle style="fill:#9CE5F4;" cx="61.5" cy="46.5" r="3.5"/>
		</g>
		<g>
			<path style="fill:#C9F2F8;" d="M48.5,43c-1.933,0-3.5,1.567-3.5,3.5c0,0.992,0.417,1.883,1.08,2.521l4.94-4.94
				C50.383,43.417,49.492,43,48.5,43z"/>
		</g>
		<g>
			<path style="fill:#C9F2F8;" d="M61.479,43c-1.933,0-3.5,1.567-3.5,3.5c0,0.992,0.417,1.883,1.08,2.521L64,44.08
				C63.363,43.417,62.472,43,61.479,43z"/>
		</g>
		<path style="fill:#84462D;" d="M75,34.601c-1.943-13.245-34-14.169-34-2.015c0,0.883,0,1.131,0,1.131
			c4.955,5.791,17.126,6.421,26,4.289V50h2v-1.171c0-1.811,0-2.792,2-3.792v-8.268C72.588,36.144,73.956,35.414,75,34.601z"/>
		<path style="fill:#9C6144;" d="M55,24.057c-7.379,0.199-13.971,3.002-13.998,8.497C39.811,33.246,39,34.522,39,36v9.036
			c2,1,2,1.981,2,3.792V50h2V35.523c3.043,2.169,7.403,3.266,12,3.536V24.057z"/>
	</g>
</g>
<g id="Blue" style="display:none;">
	<g style="display:inline;">
		<path style="fill:#E1F5FA;" d="M70.73,45.189C69.021,46.139,69,47.11,69,48.829V50h-2V38.006c-3.686,0.886-7.934,1.284-12,1.041
			v0.012c-4-0.232-8.748-1.22-12-3.536V50h-2v2.997l4,10l5.105,3.996c0.569,0.639,1.384,1.004,2.24,1.004H55h2.655
			c0.856,0,1.671-0.365,2.24-1.004L65,62.997l3.206-8.017C71.041,54.776,72,50.476,72,47.222C72,46.388,71.435,45.553,70.73,45.189z
			"/>
		<path style="fill:#BBE7F2;" d="M57.655,67.997H55h-2.655c-0.856,0-1.671-0.365-2.24-1.004L45,62.997V67l9.996,8
			c0.002,0,0.002,0,0.004,0c0.001,0,0.002,0,0.004,0L65,67v-4.003l-5.106,3.996C59.326,67.632,58.511,67.997,57.655,67.997z"/>
		<path style="fill:#E1F5FA;" d="M50.105,66.993L45,62.997v4l9.996,8c0.002,0,0.002,0,0.004,0v-7h-2.655
			C51.489,67.997,50.674,67.632,50.105,66.993z"/>
		<path style="fill:#FFFFFF;" d="M43,50h-2v-1.171c0-1.719-0.021-2.69-1.731-3.639C38.564,45.553,38,46.388,38,47.222
			c0,3.253,0.957,7.554,3.793,7.758L45,62.997l5.105,3.996c0.569,0.639,1.384,1.004,2.24,1.004H55V39.059
			c-4.597-0.27-8.958-1.367-12-3.536V50z"/>
		<g>
			<polygon style="fill:#FFFFFF;" points="49.192,77.803 55,87 60.808,77.803 67,67.997 65,66.997 55,75 45,66.997 43,67.997 			"/>
		</g>
		<g>
			<path style="fill:#81D2EB;" d="M50,56.997h10c0,0,0,3-5,3S50,56.997,50,56.997z"/>
		</g>
		<g>
			<path style="fill:#0C333D;" d="M23,87l4-11c0.615-1.334,1.698-2.394,3.043-2.982L43,68l12,19H23z"/>
		</g>
		<g>
			<path style="fill:#0C333D;" d="M87,87l-4-11c-0.615-1.334-1.698-2.394-3.043-2.982L67,68L55,87H87z"/>
		</g>
		<g>
			<polygon style="fill:#33899E;" points="40,69 51,87 55,87 53.509,84.639 43,68 			"/>
		</g>
		<g>
			<polygon style="fill:#33899E;" points="70,69 59,87 55,87 56.491,84.639 67,68 			"/>
		</g>
		<path style="fill:#00B7E5;" d="M64,73l-6.73,3.059C56.72,75.416,55.913,75,55,75c-0.913,0-1.72,0.416-2.27,1.059L46,73v10
			l6.73-3.059C53.28,80.584,54.087,81,55,81c0.913,0,1.72-0.416,2.27-1.059L64,83V73z"/>
		<g>
			<path style="fill:#0C333D;" d="M61.5,41c-1.537,0-2.925,0.632-3.923,1.648c-1.618-0.83-3.536-0.83-5.153,0
				C51.425,41.632,50.037,41,48.5,41c-3.038,0-5.5,2.462-5.5,5.5c0,3.038,2.462,5.5,5.5,5.5c3.038,0,5.5-2.462,5.5-5.5
				c0-0.886-0.214-1.72-0.586-2.461c1.01-0.442,2.163-0.442,3.173,0C56.214,44.78,56,45.614,56,46.5c0,3.038,2.462,5.5,5.5,5.5
				c3.038,0,5.5-2.462,5.5-5.5C67,43.462,64.538,41,61.5,41z"/>
		</g>
		<g>
			<circle style="fill:#BBE7F2;" cx="48.5" cy="46.5" r="3.5"/>
		</g>
		<g>
			<circle style="fill:#BBE7F2;" cx="61.5" cy="46.5" r="3.5"/>
		</g>
		<g>
			<path style="fill:#E1F5FA;" d="M48.5,43c-1.933,0-3.5,1.567-3.5,3.5c0,0.992,0.417,1.883,1.08,2.521l4.94-4.94
				C50.383,43.417,49.492,43,48.5,43z"/>
		</g>
		<g>
			<path style="fill:#E1F5FA;" d="M61.479,43c-1.933,0-3.5,1.567-3.5,3.5c0,0.992,0.417,1.883,1.08,2.521L64,44.08
				C63.363,43.417,62.472,43,61.479,43z"/>
		</g>
		<path style="fill:#0F6175;" d="M75,34.601c-1.943-13.245-34-14.169-34-2.015c0,0.883,0,1.131,0,1.131
			c4.955,5.791,17.126,6.421,26,4.289V50h2v-1.171c0-1.811,0-2.793,2-3.793v-8.267C72.588,36.144,73.956,35.414,75,34.601z"/>
		<path style="fill:#33899E;" d="M55,24.057c-7.379,0.199-13.971,3.002-13.998,8.497C39.81,33.246,39,34.522,39,36v9.036
			c2,1,2,1.982,2,3.793V50h2V35.523c3.042,2.17,7.403,3.266,12,3.536V24.057z"/>
	</g>
</g>
<g id="R-Blue" style="display:none;">
	<g style="display:inline;">
		<circle style="fill:#81D2EB;" cx="54.976" cy="55.024" r="55"/>
	</g>
	<g style="display:inline;">
		<path style="fill:#E1F5FA;" d="M70.73,45.189C69.021,46.139,69,47.11,69,48.829V50h-2V38.006c-3.686,0.886-7.934,1.284-12,1.041
			v0.012c-4-0.232-8.748-1.22-12-3.536V50h-2v2.997l4,10l5.105,3.996c0.569,0.639,1.384,1.004,2.24,1.004H55h2.655
			c0.856,0,1.671-0.365,2.24-1.004L65,62.997l3.206-8.017C71.041,54.776,72,50.476,72,47.222C72,46.388,71.435,45.553,70.73,45.189z
			"/>
		<path style="fill:#BBE7F2;" d="M57.655,67.997H55h-2.655c-0.856,0-1.671-0.365-2.24-1.004L45,62.997V67l9.996,8
			c0.001,0,0.002,0,0.004,0c0.001,0,0.002,0,0.004,0L65,67v-4.003l-5.106,3.996C59.326,67.632,58.511,67.997,57.655,67.997z"/>
		<path style="fill:#E1F5FA;" d="M50.105,66.993L45,62.997v4l9.996,8c0.001,0,0.002,0,0.004,0v-7h-2.655
			C51.489,67.997,50.674,67.632,50.105,66.993z"/>
		<path style="fill:#FFFFFF;" d="M43,50h-2v-1.171c0-1.719-0.022-2.69-1.731-3.639C38.564,45.553,38,46.388,38,47.222
			c0,3.253,0.957,7.554,3.793,7.758L45,62.997l5.105,3.996c0.569,0.639,1.384,1.004,2.24,1.004H55V39.059
			c-4.597-0.27-8.958-1.367-12-3.536V50z"/>
		<g>
			<polygon style="fill:#FFFFFF;" points="49.192,77.803 55,87 60.808,77.803 67,67.997 65,66.997 55,75 45,66.997 43,67.997 			"/>
		</g>
		<g>
			<path style="fill:#81D2EB;" d="M50,56.997h10c0,0,0,3-5,3S50,56.997,50,56.997z"/>
		</g>
		<g>
			<path style="fill:#0C333D;" d="M23,87l4-11c0.615-1.334,1.698-2.394,3.043-2.982L43,68l12,19H23z"/>
		</g>
		<g>
			<path style="fill:#0C333D;" d="M87,87l-4-11c-0.615-1.334-1.698-2.394-3.043-2.982L67,68L55,87H87z"/>
		</g>
		<g>
			<polygon style="fill:#33899E;" points="40,69 51,87 55,87 53.509,84.639 43,68 			"/>
		</g>
		<g>
			<polygon style="fill:#33899E;" points="70,69 59,87 55,87 56.491,84.639 67,68 			"/>
		</g>
		<path style="fill:#00B7E5;" d="M64,73l-6.73,3.059C56.72,75.416,55.913,75,55,75c-0.913,0-1.72,0.416-2.27,1.059L46,73v10
			l6.73-3.059C53.28,80.584,54.087,81,55,81c0.913,0,1.72-0.416,2.27-1.059L64,83V73z"/>
		<g>
			<path style="fill:#0C333D;" d="M61.5,41c-1.537,0-2.925,0.632-3.923,1.648c-1.618-0.83-3.536-0.83-5.153,0
				C51.425,41.632,50.037,41,48.5,41c-3.038,0-5.5,2.462-5.5,5.5c0,3.038,2.462,5.5,5.5,5.5c3.038,0,5.5-2.462,5.5-5.5
				c0-0.886-0.214-1.72-0.586-2.461c1.01-0.442,2.163-0.442,3.173,0C56.214,44.78,56,45.614,56,46.5c0,3.038,2.462,5.5,5.5,5.5
				c3.038,0,5.5-2.462,5.5-5.5C67,43.462,64.538,41,61.5,41z"/>
		</g>
		<g>
			<circle style="fill:#BBE7F2;" cx="48.5" cy="46.5" r="3.5"/>
		</g>
		<g>
			<circle style="fill:#BBE7F2;" cx="61.5" cy="46.5" r="3.5"/>
		</g>
		<g>
			<path style="fill:#E1F5FA;" d="M48.5,43c-1.933,0-3.5,1.567-3.5,3.5c0,0.992,0.416,1.883,1.08,2.521l4.94-4.94
				C50.383,43.417,49.492,43,48.5,43z"/>
		</g>
		<g>
			<path style="fill:#E1F5FA;" d="M61.479,43c-1.933,0-3.5,1.567-3.5,3.5c0,0.992,0.417,1.883,1.08,2.521L64,44.08
				C63.363,43.417,62.472,43,61.479,43z"/>
		</g>
		<path style="fill:#0F6175;" d="M75,34.601c-1.943-13.245-34-14.169-34-2.015c0,0.883,0,1.131,0,1.131
			c4.955,5.791,17.126,6.421,26,4.289V50h2v-1.171c0-1.811,0-2.793,2-3.793v-8.267C72.588,36.144,73.956,35.414,75,34.601z"/>
		<path style="fill:#33899E;" d="M55,24.057c-7.379,0.199-13.971,3.002-13.998,8.497C39.81,33.246,39,34.522,39,36v9.036
			c2,1,2,1.982,2,3.793V50h2V35.523c3.042,2.17,7.403,3.266,12,3.536V24.057z"/>
	</g>
</g>
<g id="Green" style="display:none;">
	<g style="display:inline;">
		<path style="fill:#D7FCF9;" d="M70.73,45.189C69.021,46.139,69,47.11,69,48.829V50h-2V38.006c-3.686,0.886-7.934,1.284-12,1.041
			v0.012c-4-0.232-8.748-1.22-12-3.536V50h-2v2.997l4,10l5.105,3.996c0.569,0.639,1.384,1.004,2.24,1.004H55h2.655
			c0.856,0,1.671-0.365,2.24-1.004L65,62.997l3.206-8.017C71.041,54.776,72,50.476,72,47.222C72,46.388,71.435,45.553,70.73,45.189z
			"/>
		<path style="fill:#AAF0E9;" d="M57.655,67.997H55h-2.655c-0.856,0-1.671-0.365-2.24-1.004L45,62.997V67l9.996,8
			c0.001,0,0.002,0,0.004,0c0.001,0,0.002,0,0.004,0L65,67v-4.003l-5.106,3.996C59.326,67.632,58.511,67.997,57.655,67.997z"/>
		<path style="fill:#D7FCF9;" d="M50.105,66.993L45,62.997v4l9.996,8c0.001,0,0.002,0,0.004,0v-7h-2.655
			C51.489,67.997,50.674,67.632,50.105,66.993z"/>
		<path style="fill:#FFFFFF;" d="M43,50h-2v-1.171c0-1.719-0.022-2.69-1.731-3.639C38.564,45.553,38,46.388,38,47.222
			c0,3.253,0.957,7.554,3.793,7.758L45,62.997l5.105,3.996c0.569,0.639,1.384,1.004,2.24,1.004H55V39.059
			c-4.597-0.27-8.958-1.367-12-3.536V50z"/>
		<g>
			<polygon style="fill:#FFFFFF;" points="49.192,77.803 55,87 60.808,77.803 67,67.997 65,66.997 55,75 45,66.997 43,67.997 			"/>
		</g>
		<g>
			<path style="fill:#77E0C4;" d="M50,56.997h10c0,0,0,3-5,3S50,56.997,50,56.997z"/>
		</g>
		<g>
			<path style="fill:#0A3631;" d="M23,87l4-11c0.615-1.334,1.698-2.394,3.043-2.982L43,68l12,19H23z"/>
		</g>
		<g>
			<path style="fill:#0A3631;" d="M87,87l-4-11c-0.615-1.334-1.698-2.394-3.043-2.982L67,68L55,87H87z"/>
		</g>
		<g>
			<polygon style="fill:#3E948B;" points="40,69 51,87 55,87 53.509,84.639 43,68 			"/>
		</g>
		<g>
			<polygon style="fill:#3E948B;" points="70,69 59,87 55,87 56.491,84.639 67,68 			"/>
		</g>
		<path style="fill:#00D6C1;" d="M64,73l-6.73,3.059C56.72,75.416,55.913,75,55,75c-0.913,0-1.72,0.416-2.27,1.059L46,73v10
			l6.73-3.059C53.28,80.584,54.087,81,55,81c0.913,0,1.72-0.416,2.27-1.059L64,83V73z"/>
		<g>
			<path style="fill:#0A3631;" d="M61.5,41c-1.537,0-2.925,0.632-3.923,1.648c-1.618-0.83-3.536-0.83-5.153,0
				C51.425,41.632,50.037,41,48.5,41c-3.038,0-5.5,2.462-5.5,5.5c0,3.038,2.462,5.5,5.5,5.5c3.038,0,5.5-2.462,5.5-5.5
				c0-0.886-0.214-1.72-0.586-2.461c1.01-0.442,2.163-0.442,3.173,0C56.214,44.78,56,45.614,56,46.5c0,3.038,2.462,5.5,5.5,5.5
				c3.038,0,5.5-2.462,5.5-5.5C67,43.462,64.538,41,61.5,41z"/>
		</g>
		<g>
			<circle style="fill:#AAF0E9;" cx="48.5" cy="46.5" r="3.5"/>
		</g>
		<g>
			<circle style="fill:#AAF0E9;" cx="61.5" cy="46.5" r="3.5"/>
		</g>
		<g>
			<path style="fill:#D7FCF9;" d="M48.5,43c-1.933,0-3.5,1.567-3.5,3.5c0,0.992,0.416,1.883,1.08,2.521l4.94-4.94
				C50.383,43.417,49.492,43,48.5,43z"/>
		</g>
		<g>
			<path style="fill:#D7FCF9;" d="M61.479,43c-1.933,0-3.5,1.567-3.5,3.5c0,0.992,0.417,1.883,1.08,2.521L64,44.08
				C63.363,43.417,62.472,43,61.479,43z"/>
		</g>
		<path style="fill:#14635B;" d="M75,34.601c-1.943-13.245-34-14.169-34-2.015c0,0.883,0,1.131,0,1.131
			c4.955,5.791,17.126,6.421,26,4.289V50h2v-1.171c0-1.811,0-2.793,2-3.793v-8.267C72.588,36.144,73.956,35.414,75,34.601z"/>
		<path style="fill:#3E948B;" d="M55,24.057c-7.379,0.199-13.971,3.002-13.998,8.497C39.81,33.246,39,34.522,39,36v9.036
			c2,1,2,1.982,2,3.793V50h2V35.523c3.042,2.17,7.403,3.266,12,3.536V24.057z"/>
	</g>
</g>
<g id="R-Green" style="display:none;">
	<g style="display:inline;">
		<circle style="fill:#77E0C4;" cx="54.976" cy="55.024" r="55"/>
	</g>
	<g style="display:inline;">
		<path style="fill:#D7FCF9;" d="M70.73,45.189C69.021,46.139,69,47.11,69,48.829V50h-2V38.006c-3.686,0.886-7.934,1.284-12,1.041
			v0.012c-4-0.232-8.748-1.22-12-3.536V50h-2v2.997l4,10l5.105,3.996c0.569,0.639,1.384,1.004,2.24,1.004H55h2.655
			c0.856,0,1.671-0.365,2.24-1.004L65,62.997l3.206-8.017C71.041,54.776,72,50.476,72,47.222C72,46.388,71.435,45.553,70.73,45.189z
			"/>
		<path style="fill:#AAF0E9;" d="M57.655,67.997H55h-2.655c-0.856,0-1.671-0.365-2.24-1.004L45,62.997V67l9.996,8
			c0.001,0,0.002,0,0.004,0c0.001,0,0.002,0,0.004,0L65,67v-4.003l-5.106,3.996C59.326,67.632,58.511,67.997,57.655,67.997z"/>
		<path style="fill:#D7FCF9;" d="M50.105,66.993L45,62.997v4l9.996,8c0.001,0,0.002,0,0.004,0v-7h-2.655
			C51.489,67.997,50.674,67.632,50.105,66.993z"/>
		<path style="fill:#FFFFFF;" d="M43,50h-2v-1.171c0-1.719-0.022-2.69-1.731-3.639C38.564,45.553,38,46.388,38,47.222
			c0,3.253,0.957,7.554,3.793,7.758L45,62.997l5.105,3.996c0.569,0.639,1.384,1.004,2.24,1.004H55V39.059
			c-4.597-0.27-8.958-1.367-12-3.536V50z"/>
		<g>
			<polygon style="fill:#FFFFFF;" points="49.192,77.803 55,87 60.808,77.803 67,67.997 65,66.997 55,75 45,66.997 43,67.997 			"/>
		</g>
		<g>
			<path style="fill:#77E0C4;" d="M50,56.997h10c0,0,0,3-5,3S50,56.997,50,56.997z"/>
		</g>
		<g>
			<path style="fill:#0A3631;" d="M23,87l4-11c0.615-1.334,1.698-2.394,3.043-2.982L43,68l12,19H23z"/>
		</g>
		<g>
			<path style="fill:#0A3631;" d="M87,87l-4-11c-0.615-1.334-1.698-2.394-3.043-2.982L67,68L55,87H87z"/>
		</g>
		<g>
			<polygon style="fill:#3E948B;" points="40,69 51,87 55,87 53.509,84.639 43,68 			"/>
		</g>
		<g>
			<polygon style="fill:#3E948B;" points="70,69 59,87 55,87 56.491,84.639 67,68 			"/>
		</g>
		<path style="fill:#00D6C1;" d="M64,73l-6.73,3.059C56.72,75.416,55.913,75,55,75c-0.913,0-1.72,0.416-2.27,1.059L46,73v10
			l6.73-3.059C53.28,80.584,54.087,81,55,81c0.913,0,1.72-0.416,2.27-1.059L64,83V73z"/>
		<g>
			<path style="fill:#0A3631;" d="M61.5,41c-1.537,0-2.925,0.632-3.923,1.648c-1.618-0.83-3.536-0.83-5.153,0
				C51.425,41.632,50.037,41,48.5,41c-3.038,0-5.5,2.462-5.5,5.5c0,3.038,2.462,5.5,5.5,5.5c3.038,0,5.5-2.462,5.5-5.5
				c0-0.886-0.214-1.72-0.586-2.461c1.01-0.442,2.163-0.442,3.173,0C56.214,44.78,56,45.614,56,46.5c0,3.038,2.462,5.5,5.5,5.5
				c3.038,0,5.5-2.462,5.5-5.5C67,43.462,64.538,41,61.5,41z"/>
		</g>
		<g>
			<circle style="fill:#AAF0E9;" cx="48.5" cy="46.5" r="3.5"/>
		</g>
		<g>
			<circle style="fill:#AAF0E9;" cx="61.5" cy="46.5" r="3.5"/>
		</g>
		<g>
			<path style="fill:#D7FCF9;" d="M48.5,43c-1.933,0-3.5,1.567-3.5,3.5c0,0.992,0.416,1.883,1.08,2.521l4.94-4.94
				C50.383,43.417,49.492,43,48.5,43z"/>
		</g>
		<g>
			<path style="fill:#D7FCF9;" d="M61.479,43c-1.933,0-3.5,1.567-3.5,3.5c0,0.992,0.417,1.883,1.08,2.521L64,44.08
				C63.363,43.417,62.472,43,61.479,43z"/>
		</g>
		<path style="fill:#14635B;" d="M75,34.601c-1.943-13.245-34-14.169-34-2.015c0,0.883,0,1.131,0,1.131
			c4.955,5.791,17.126,6.421,26,4.289V50h2v-1.171c0-1.811,0-2.793,2-3.793v-8.267C72.588,36.144,73.956,35.414,75,34.601z"/>
		<path style="fill:#3E948B;" d="M55,24.057c-7.379,0.199-13.971,3.002-13.998,8.497C39.81,33.246,39,34.522,39,36v9.036
			c2,1,2,1.982,2,3.793V50h2V35.523c3.042,2.17,7.403,3.266,12,3.536V24.057z"/>
	</g>
</g>
<g id="Red" style="display:none;">
	<g style="display:inline;">
		<path style="fill:#FFEFED;" d="M70.73,45.189C69.021,46.139,69,47.11,69,48.829V50h-2V38.006c-3.686,0.886-7.934,1.284-12,1.041
			v0.012c-4-0.232-8.748-1.22-12-3.536V50h-2v2.997l4,10l5.105,3.996c0.569,0.639,1.384,1.004,2.24,1.004H55h2.655
			c0.856,0,1.671-0.365,2.24-1.004L65,62.997l3.206-8.017C71.041,54.776,72,50.476,72,47.222C72,46.388,71.435,45.553,70.73,45.189z
			"/>
		<path style="fill:#FFD7D4;" d="M57.655,67.997H55h-2.655c-0.856,0-1.671-0.365-2.24-1.004L45,62.997V67l9.996,8
			c0.001,0,0.002,0,0.004,0c0.001,0,0.002,0,0.004,0L65,67v-4.003l-5.106,3.996C59.326,67.632,58.511,67.997,57.655,67.997z"/>
		<path style="fill:#FFEFED;" d="M50.105,66.993L45,62.997v4l9.996,8c0.001,0,0.002,0,0.004,0v-7h-2.655
			C51.489,67.997,50.674,67.632,50.105,66.993z"/>
		<path style="fill:#FFFFFF;" d="M43,50h-2v-1.171c0-1.719-0.022-2.69-1.731-3.639C38.564,45.553,38,46.388,38,47.222
			c0,3.253,0.957,7.554,3.793,7.758L45,62.997l5.105,3.996c0.569,0.639,1.384,1.004,2.24,1.004H55V39.059
			c-4.597-0.27-8.958-1.367-12-3.536V50z"/>
		<g>
			<polygon style="fill:#FFFFFF;" points="49.192,77.803 55,87 60.808,77.803 67,67.997 65,66.997 55,75 45,66.997 43,67.997 			"/>
		</g>
		<g>
			<path style="fill:#FABBAF;" d="M50,56.997h10c0,0,0,3-5,3S50,56.997,50,56.997z"/>
		</g>
		<g>
			<path style="fill:#4A1410;" d="M23,87l4-11c0.615-1.334,1.698-2.394,3.043-2.982L43,68l12,19H23z"/>
		</g>
		<g>
			<path style="fill:#4A1410;" d="M87,87l-4-11c-0.615-1.334-1.698-2.394-3.043-2.982L67,68L55,87H87z"/>
		</g>
		<g>
			<polygon style="fill:#B84E44;" points="40,69 51,87 55,87 53.509,84.639 43,68 			"/>
		</g>
		<g>
			<polygon style="fill:#B84E44;" points="70,69 59,87 55,87 56.491,84.639 67,68 			"/>
		</g>
		<path style="fill:#FF6C5E;" d="M64,73l-6.73,3.059C56.72,75.416,55.913,75,55,75c-0.913,0-1.72,0.416-2.27,1.059L46,73v10
			l6.73-3.059C53.28,80.584,54.087,81,55,81c0.913,0,1.72-0.416,2.27-1.059L64,83V73z"/>
		<g>
			<path style="fill:#4A1410;" d="M61.5,41c-1.537,0-2.925,0.632-3.923,1.648c-1.618-0.83-3.536-0.83-5.153,0
				C51.425,41.632,50.037,41,48.5,41c-3.038,0-5.5,2.462-5.5,5.5c0,3.038,2.462,5.5,5.5,5.5c3.038,0,5.5-2.462,5.5-5.5
				c0-0.886-0.214-1.72-0.586-2.461c1.01-0.442,2.163-0.442,3.173,0C56.214,44.78,56,45.614,56,46.5c0,3.038,2.462,5.5,5.5,5.5
				c3.038,0,5.5-2.462,5.5-5.5C67,43.462,64.538,41,61.5,41z"/>
		</g>
		<g>
			<circle style="fill:#FFD7D4;" cx="48.5" cy="46.5" r="3.5"/>
		</g>
		<g>
			<circle style="fill:#FFD7D4;" cx="61.5" cy="46.5" r="3.5"/>
		</g>
		<g>
			<path style="fill:#FFEFED;" d="M48.5,43c-1.933,0-3.5,1.567-3.5,3.5c0,0.992,0.416,1.883,1.08,2.521l4.94-4.94
				C50.383,43.417,49.492,43,48.5,43z"/>
		</g>
		<g>
			<path style="fill:#FFEFED;" d="M61.479,43c-1.933,0-3.5,1.567-3.5,3.5c0,0.992,0.417,1.883,1.08,2.521L64,44.08
				C63.363,43.417,62.472,43,61.479,43z"/>
		</g>
		<path style="fill:#7D261E;" d="M75,34.601c-1.943-13.245-34-14.169-34-2.015c0,0.883,0,1.131,0,1.131
			c4.955,5.791,17.126,6.421,26,4.289V50h2v-1.171c0-1.811,0-2.793,2-3.793v-8.267C72.588,36.144,73.956,35.414,75,34.601z"/>
		<path style="fill:#B84E44;" d="M55,24.057c-7.379,0.199-13.971,3.002-13.998,8.497C39.81,33.246,39,34.522,39,36v9.036
			c2,1,2,1.982,2,3.793V50h2V35.523c3.042,2.17,7.403,3.266,12,3.536V24.057z"/>
	</g>
</g>
<g id="R-Red" style="display:none;">
	<g style="display:inline;">
		<circle style="fill:#FABBAF;" cx="54.976" cy="55.024" r="55"/>
	</g>
	<g style="display:inline;">
		<path style="fill:#FFEFED;" d="M70.73,45.189C69.021,46.139,69,47.11,69,48.829V50h-2V38.006c-3.686,0.886-7.934,1.284-12,1.041
			v0.012c-4-0.232-8.748-1.22-12-3.536V50h-2v2.997l4,10l5.105,3.996c0.569,0.639,1.384,1.004,2.24,1.004H55h2.655
			c0.856,0,1.671-0.365,2.24-1.004L65,62.997l3.206-8.017C71.041,54.776,72,50.476,72,47.222C72,46.388,71.435,45.553,70.73,45.189z
			"/>
		<path style="fill:#FFD7D4;" d="M57.655,67.997H55h-2.655c-0.856,0-1.671-0.365-2.24-1.004L45,62.997V67l9.996,8
			c0.001,0,0.002,0,0.004,0c0.001,0,0.002,0,0.004,0L65,67v-4.003l-5.106,3.996C59.326,67.632,58.511,67.997,57.655,67.997z"/>
		<path style="fill:#FFEFED;" d="M50.105,66.993L45,62.997v4l9.996,8c0.001,0,0.002,0,0.004,0v-7h-2.655
			C51.489,67.997,50.674,67.632,50.105,66.993z"/>
		<path style="fill:#FFFFFF;" d="M43,50h-2v-1.171c0-1.719-0.022-2.69-1.731-3.639C38.564,45.553,38,46.388,38,47.222
			c0,3.253,0.957,7.554,3.793,7.758L45,62.997l5.105,3.996c0.569,0.639,1.384,1.004,2.24,1.004H55V39.059
			c-4.597-0.27-8.958-1.367-12-3.536V50z"/>
		<g>
			<polygon style="fill:#FFFFFF;" points="49.192,77.803 55,87 60.808,77.803 67,67.997 65,66.997 55,75 45,66.997 43,67.997 			"/>
		</g>
		<g>
			<path style="fill:#FABBAF;" d="M50,56.997h10c0,0,0,3-5,3S50,56.997,50,56.997z"/>
		</g>
		<g>
			<path style="fill:#4A1410;" d="M23,87l4-11c0.615-1.334,1.698-2.394,3.043-2.982L43,68l12,19H23z"/>
		</g>
		<g>
			<path style="fill:#4A1410;" d="M87,87l-4-11c-0.615-1.334-1.698-2.394-3.043-2.982L67,68L55,87H87z"/>
		</g>
		<g>
			<polygon style="fill:#B84E44;" points="40,69 51,87 55,87 53.509,84.639 43,68 			"/>
		</g>
		<g>
			<polygon style="fill:#B84E44;" points="70,69 59,87 55,87 56.491,84.639 67,68 			"/>
		</g>
		<path style="fill:#FF6C5E;" d="M64,73l-6.73,3.059C56.72,75.416,55.913,75,55,75c-0.913,0-1.72,0.416-2.27,1.059L46,73v10
			l6.73-3.059C53.28,80.584,54.087,81,55,81c0.913,0,1.72-0.416,2.27-1.059L64,83V73z"/>
		<g>
			<path style="fill:#4A1410;" d="M61.5,41c-1.537,0-2.925,0.632-3.923,1.648c-1.618-0.83-3.536-0.83-5.153,0
				C51.425,41.632,50.037,41,48.5,41c-3.038,0-5.5,2.462-5.5,5.5c0,3.038,2.462,5.5,5.5,5.5c3.038,0,5.5-2.462,5.5-5.5
				c0-0.886-0.214-1.72-0.586-2.461c1.01-0.442,2.163-0.442,3.173,0C56.214,44.78,56,45.614,56,46.5c0,3.038,2.462,5.5,5.5,5.5
				c3.038,0,5.5-2.462,5.5-5.5C67,43.462,64.538,41,61.5,41z"/>
		</g>
		<g>
			<circle style="fill:#FFD7D4;" cx="48.5" cy="46.5" r="3.5"/>
		</g>
		<g>
			<circle style="fill:#FFD7D4;" cx="61.5" cy="46.5" r="3.5"/>
		</g>
		<g>
			<path style="fill:#FFEFED;" d="M48.5,43c-1.933,0-3.5,1.567-3.5,3.5c0,0.992,0.416,1.883,1.08,2.521l4.94-4.94
				C50.383,43.417,49.492,43,48.5,43z"/>
		</g>
		<g>
			<path style="fill:#FFEFED;" d="M61.479,43c-1.933,0-3.5,1.567-3.5,3.5c0,0.992,0.417,1.883,1.08,2.521L64,44.08
				C63.363,43.417,62.472,43,61.479,43z"/>
		</g>
		<path style="fill:#7D261E;" d="M75,34.601c-1.943-13.245-34-14.169-34-2.015c0,0.883,0,1.131,0,1.131
			c4.955,5.791,17.126,6.421,26,4.289V50h2v-1.171c0-1.811,0-2.793,2-3.793v-8.267C72.588,36.144,73.956,35.414,75,34.601z"/>
		<path style="fill:#B84E44;" d="M55,24.057c-7.379,0.199-13.971,3.002-13.998,8.497C39.81,33.246,39,34.522,39,36v9.036
			c2,1,2,1.982,2,3.793V50h2V35.523c3.042,2.17,7.403,3.266,12,3.536V24.057z"/>
	</g>
</g>
<g id="Yellow" style="display:none;">
	<g style="display:inline;">
		<path style="fill:#FFF5D9;" d="M70.73,45.189C69.021,46.139,69,47.11,69,48.829V50h-2V38.006c-3.686,0.886-7.934,1.284-12,1.041
			v0.012c-4-0.232-8.748-1.22-12-3.536V50h-2v2.997l4,10l5.105,3.996c0.569,0.639,1.384,1.004,2.24,1.004H55h2.655
			c0.856,0,1.671-0.365,2.24-1.004L65,62.997l3.206-8.017C71.041,54.776,72,50.476,72,47.222C72,46.388,71.435,45.553,70.73,45.189z
			"/>
		<path style="fill:#FFE9A1;" d="M57.655,67.997H55h-2.655c-0.856,0-1.671-0.365-2.24-1.004L45,62.997V67l9.996,8
			c0.001,0,0.002,0,0.004,0c0.001,0,0.002,0,0.004,0L65,67v-4.003l-5.106,3.996C59.326,67.632,58.511,67.997,57.655,67.997z"/>
		<path style="fill:#FFF5D9;" d="M50.105,66.993L45,62.997v4l9.996,8c0.001,0,0.002,0,0.004,0v-7h-2.655
			C51.489,67.997,50.674,67.632,50.105,66.993z"/>
		<path style="fill:#FFFFFF;" d="M43,50h-2v-1.171c0-1.719-0.022-2.69-1.731-3.639C38.564,45.553,38,46.388,38,47.222
			c0,3.253,0.957,7.554,3.793,7.758L45,62.997l5.105,3.996c0.569,0.639,1.384,1.004,2.24,1.004H55V39.059
			c-4.597-0.27-8.958-1.367-12-3.536V50z"/>
		<g>
			<polygon style="fill:#FFFFFF;" points="49.192,77.803 55,87 60.808,77.803 67,67.997 65,66.997 55,75 45,66.997 43,67.997 			"/>
		</g>
		<g>
			<path style="fill:#FFD75E;" d="M50,56.997h10c0,0,0,3-5,3S50,56.997,50,56.997z"/>
		</g>
		<g>
			<path style="fill:#3D320C;" d="M23,87l4-11c0.615-1.334,1.698-2.394,3.043-2.982L43,68l12,19H23z"/>
		</g>
		<g>
			<path style="fill:#3D320C;" d="M87,87l-4-11c-0.615-1.334-1.698-2.394-3.043-2.982L67,68L55,87H87z"/>
		</g>
		<g>
			<polygon style="fill:#947615;" points="40,69 51,87 55,87 53.509,84.639 43,68 			"/>
		</g>
		<g>
			<polygon style="fill:#947615;" points="70,69 59,87 55,87 56.491,84.639 67,68 			"/>
		</g>
		<path style="fill:#FFAA00;" d="M64,73l-6.73,3.059C56.72,75.416,55.913,75,55,75c-0.913,0-1.72,0.416-2.27,1.059L46,73v10
			l6.73-3.059C53.28,80.584,54.087,81,55,81c0.913,0,1.72-0.416,2.27-1.059L64,83V73z"/>
		<g>
			<path style="fill:#3D320C;" d="M61.5,41c-1.537,0-2.925,0.632-3.923,1.648c-1.618-0.83-3.536-0.83-5.153,0
				C51.425,41.632,50.037,41,48.5,41c-3.038,0-5.5,2.462-5.5,5.5c0,3.038,2.462,5.5,5.5,5.5c3.038,0,5.5-2.462,5.5-5.5
				c0-0.886-0.214-1.72-0.586-2.461c1.01-0.442,2.163-0.442,3.173,0C56.214,44.78,56,45.614,56,46.5c0,3.038,2.462,5.5,5.5,5.5
				c3.038,0,5.5-2.462,5.5-5.5C67,43.462,64.538,41,61.5,41z"/>
		</g>
		<g>
			<circle style="fill:#FFE9A1;" cx="48.5" cy="46.5" r="3.5"/>
		</g>
		<g>
			<circle style="fill:#FFE9A1;" cx="61.5" cy="46.5" r="3.5"/>
		</g>
		<g>
			<path style="fill:#FFF5D9;" d="M48.5,43c-1.933,0-3.5,1.567-3.5,3.5c0,0.992,0.416,1.883,1.08,2.521l4.94-4.94
				C50.383,43.417,49.492,43,48.5,43z"/>
		</g>
		<g>
			<path style="fill:#FFF5D9;" d="M61.479,43c-1.933,0-3.5,1.567-3.5,3.5c0,0.992,0.417,1.883,1.08,2.521L64,44.08
				C63.363,43.417,62.472,43,61.479,43z"/>
		</g>
		<path style="fill:#66510D;" d="M75,34.601c-1.943-13.245-34-14.169-34-2.015c0,0.883,0,1.131,0,1.131
			c4.955,5.791,17.126,6.421,26,4.289V50h2v-1.171c0-1.811,0-2.793,2-3.793v-8.267C72.588,36.144,73.956,35.414,75,34.601z"/>
		<path style="fill:#947615;" d="M55,24.057c-7.379,0.199-13.971,3.002-13.998,8.497C39.81,33.246,39,34.522,39,36v9.036
			c2,1,2,1.982,2,3.793V50h2V35.523c3.042,2.17,7.403,3.266,12,3.536V24.057z"/>
	</g>
</g>
<g id="R-Yellow" style="display:none;">
	<g style="display:inline;">
		<circle style="fill:#FFD75E;" cx="54.976" cy="55.024" r="55"/>
	</g>
	<g style="display:inline;">
		<path style="fill:#FFF5D9;" d="M70.73,45.189C69.021,46.139,69,47.11,69,48.829V50h-2V38.006c-3.686,0.886-7.934,1.284-12,1.041
			v0.012c-4-0.232-8.748-1.22-12-3.536V50h-2v2.997l4,10l5.105,3.996c0.569,0.639,1.384,1.004,2.24,1.004H55h2.655
			c0.856,0,1.671-0.365,2.24-1.004L65,62.997l3.206-8.017C71.041,54.776,72,50.476,72,47.222C72,46.388,71.435,45.553,70.73,45.189z
			"/>
		<path style="fill:#FFE9A1;" d="M57.655,67.997H55h-2.655c-0.856,0-1.671-0.365-2.24-1.004L45,62.997V67l9.996,8
			c0.001,0,0.002,0,0.004,0c0.001,0,0.002,0,0.004,0L65,67v-4.003l-5.106,3.996C59.326,67.632,58.511,67.997,57.655,67.997z"/>
		<path style="fill:#FFF5D9;" d="M50.105,66.993L45,62.997v4l9.996,8c0.001,0,0.002,0,0.004,0v-7h-2.655
			C51.489,67.997,50.674,67.632,50.105,66.993z"/>
		<path style="fill:#FFFFFF;" d="M43,50h-2v-1.171c0-1.719-0.022-2.69-1.731-3.639C38.564,45.553,38,46.388,38,47.222
			c0,3.253,0.957,7.554,3.793,7.758L45,62.997l5.105,3.996c0.569,0.639,1.384,1.004,2.24,1.004H55V39.059
			c-4.597-0.27-8.958-1.367-12-3.536V50z"/>
		<g>
			<polygon style="fill:#FFFFFF;" points="49.192,77.803 55,87 60.808,77.803 67,67.997 65,66.997 55,75 45,66.997 43,67.997 			"/>
		</g>
		<g>
			<path style="fill:#FFD75E;" d="M50,56.997h10c0,0,0,3-5,3S50,56.997,50,56.997z"/>
		</g>
		<g>
			<path style="fill:#3D320C;" d="M23,87l4-11c0.615-1.334,1.698-2.394,3.043-2.982L43,68l12,19H23z"/>
		</g>
		<g>
			<path style="fill:#3D320C;" d="M87,87l-4-11c-0.615-1.334-1.698-2.394-3.043-2.982L67,68L55,87H87z"/>
		</g>
		<g>
			<polygon style="fill:#947615;" points="40,69 51,87 55,87 53.509,84.639 43,68 			"/>
		</g>
		<g>
			<polygon style="fill:#947615;" points="70,69 59,87 55,87 56.491,84.639 67,68 			"/>
		</g>
		<path style="fill:#FFAA00;" d="M64,73l-6.73,3.059C56.72,75.416,55.913,75,55,75c-0.913,0-1.72,0.416-2.27,1.059L46,73v10
			l6.73-3.059C53.28,80.584,54.087,81,55,81c0.913,0,1.72-0.416,2.27-1.059L64,83V73z"/>
		<g>
			<path style="fill:#3D320C;" d="M61.5,41c-1.537,0-2.925,0.632-3.923,1.648c-1.618-0.83-3.536-0.83-5.153,0
				C51.425,41.632,50.037,41,48.5,41c-3.038,0-5.5,2.462-5.5,5.5c0,3.038,2.462,5.5,5.5,5.5c3.038,0,5.5-2.462,5.5-5.5
				c0-0.886-0.214-1.72-0.586-2.461c1.01-0.442,2.163-0.442,3.173,0C56.214,44.78,56,45.614,56,46.5c0,3.038,2.462,5.5,5.5,5.5
				c3.038,0,5.5-2.462,5.5-5.5C67,43.462,64.538,41,61.5,41z"/>
		</g>
		<g>
			<circle style="fill:#FFE9A1;" cx="48.5" cy="46.5" r="3.5"/>
		</g>
		<g>
			<circle style="fill:#FFE9A1;" cx="61.5" cy="46.5" r="3.5"/>
		</g>
		<g>
			<path style="fill:#FFF5D9;" d="M48.5,43c-1.933,0-3.5,1.567-3.5,3.5c0,0.992,0.416,1.883,1.08,2.521l4.94-4.94
				C50.383,43.417,49.492,43,48.5,43z"/>
		</g>
		<g>
			<path style="fill:#FFF5D9;" d="M61.479,43c-1.933,0-3.5,1.567-3.5,3.5c0,0.992,0.417,1.883,1.08,2.521L64,44.08
				C63.363,43.417,62.472,43,61.479,43z"/>
		</g>
		<path style="fill:#66510D;" d="M75,34.601c-1.943-13.245-34-14.169-34-2.015c0,0.883,0,1.131,0,1.131
			c4.955,5.791,17.126,6.421,26,4.289V50h2v-1.171c0-1.811,0-2.793,2-3.793v-8.267C72.588,36.144,73.956,35.414,75,34.601z"/>
		<path style="fill:#947615;" d="M55,24.057c-7.379,0.199-13.971,3.002-13.998,8.497C39.81,33.246,39,34.522,39,36v9.036
			c2,1,2,1.982,2,3.793V50h2V35.523c3.042,2.17,7.403,3.266,12,3.536V24.057z"/>
	</g>
</g>
</svg>
