<?xml version="1.0" encoding="iso-8859-1"?>
<!-- Generator: Adobe Illustrator 17.1.0, SVG Export Plug-In . SVG Version: 6.00 Build 0)  -->
<!DOCTYPE svg PUBLIC "-//W3C//DTD SVG 1.0//EN" "http://www.w3.org/TR/2001/REC-SVG-20010904/DTD/svg10.dtd">
<svg version="1.0" xmlns="http://www.w3.org/2000/svg" xmlns:xlink="http://www.w3.org/1999/xlink" x="0px" y="0px" width="110px"
	 height="110px" viewBox="0 0 110 110" style="enable-background:new 0 0 110 110;" xml:space="preserve">
<g id="Artboard" style="display:none;">
	<rect x="-46.5" y="-25.5" style="display:inline;fill:#808080;stroke:#000000;stroke-miterlimit:10;" width="1335" height="316"/>
</g>
<g id="R-Multicolor" style="display:none;">
	<g style="display:inline;">
		<circle style="fill:#32BEA6;" cx="55" cy="55" r="55"/>
	</g>
	<g style="display:inline;">
		<g>
			<path style="fill:#3E3E3F;" d="M83,73.964c-0.615-1.333-1.698-2.395-3.043-2.983L65,66.964H55H45l-14.957,4.017
				c-1.345,0.588-2.428,1.65-3.043,2.983L23,87h64L83,73.964z"/>
		</g>
		<path style="fill:#F7B4B4;" d="M57.655,65.964H55h-2.655c-0.856,0-1.671-0.365-2.24-1.004L45,60.964V68c0,0,2,4,10,4s10-4,10-4
			v-7.036l-5.105,3.996C59.326,65.598,58.511,65.964,57.655,65.964z"/>
		<path style="fill:#FBC8C8;" d="M50.105,64.959L45,60.964V68c0,0,2,4,10,4v-6.036h-2.655
			C51.489,65.964,50.674,65.598,50.105,64.959z"/>
		<path style="fill:#FBC8C8;" d="M72,45.222C72,44.111,71,43,70,43c-0.348,0-0.694,0-1,0v-0.036C68.982,33.964,67.976,26,55,26
			s-13.982,7.964-14,16.964v8l4,10l5.105,3.996c0.569,0.639,1.384,1.004,2.24,1.004H55h2.655c0.856,0,1.671-0.365,2.24-1.004
			L65,60.964l3.193-7.982C71.039,52.791,72,48.481,72,45.222z"/>
		<path style="fill:#FBD7D7;" d="M41,42.964V43c-0.306,0-0.652,0-1,0c-1,0-2,1.111-2,2.222c0,3.259,0.961,7.568,3.807,7.76
			L45,60.964l5.105,3.996c0.569,0.639,1.384,1.004,2.24,1.004H55V26C42.024,26,41.018,33.964,41,42.964z"/>
		<g>
			<path style="fill:#3E3E3F;" d="M55,52c0,0-6,0-9,2c0,7,5,12,5,12l4,2l4-2c0,0,5-5,5-12C61,52,55,52,55,52z M57,60l-1-1h-1h-1
				l-1,1h-2l-1.183-1.971c-0.371-0.618-0.38-1.387-0.025-2.014S50.812,55,51.532,55H55h3.468c0.721,0,1.385,0.388,1.74,1.015
				s0.345,1.397-0.025,2.014L59,60H57z"/>
		</g>
		<g>
			<path style="fill:#FBE158;" d="M58.302,79.685c0.058-0.038,0.083-0.11,0.063-0.176c-0.02-0.066-0.081-0.112-0.15-0.112h-3.612
				l4.351-4.129c0.045-0.045,0.058-0.112,0.034-0.171C58.964,75.038,58.906,75,58.843,75h-4.164c-0.048,0-0.094,0.022-0.124,0.061
				l-4.317,5.34c-0.037,0.047-0.043,0.112-0.017,0.165c0.026,0.054,0.081,0.088,0.141,0.088h2.984l-3.73,4.137
				c-0.052,0.059-0.052,0.148,0,0.207c0.052,0.059,0.14,0.071,0.205,0.027L58.302,79.685z"/>
		</g>
		<g>
			<path style="fill:#3E3E3F;" d="M51.758,45c0-1.104-0.896-2-2-2c-0.002,0-0.004,0-0.006,0c0.001,0.021,0.006,0.041,0.006,0.062
				c0,1.103-0.892,1.996-1.994,2C47.797,46.137,48.674,47,49.758,47C50.862,47,51.758,46.104,51.758,45z"/>
		</g>
		<g>
			<path style="fill:#3E3E3F;" d="M61.751,45c0-1.104-0.896-2-2-2c-0.002,0-0.004,0-0.006,0c0.001,0.021,0.006,0.041,0.006,0.062
				c0,1.103-0.892,1.996-1.994,2C57.791,46.137,58.668,47,59.751,47C60.856,47,61.751,46.104,61.751,45z"/>
		</g>
		<path style="fill:#3E3E3F;" d="M55,26c-8.648,0-11.977,3.54-13.242,8.564C47,29,50,35,55,35s8-6,13.242-0.436
			C66.977,29.54,63.648,26,55,26z"/>
		<g>
			<circle style="fill:#3E3E3F;" cx="69.5" cy="51.5" r="1.5"/>
		</g>
	</g>
</g>
<g id="Multicolor">
	<g>
		<g>
			<path style="fill:#3E3E3F;" d="M83,73.964c-0.615-1.333-1.698-2.395-3.043-2.983L65,66.964H55H45l-14.957,4.017
				c-1.345,0.588-2.428,1.65-3.043,2.983L23,87h64L83,73.964z"/>
		</g>
		<path style="fill:#F7B4B4;" d="M57.655,65.964H55h-2.655c-0.856,0-1.671-0.365-2.24-1.004L45,60.964V68c0,0,2,4,10,4s10-4,10-4
			v-7.036l-5.105,3.996C59.326,65.598,58.511,65.964,57.655,65.964z"/>
		<path style="fill:#FBC8C8;" d="M50.105,64.959L45,60.964V68c0,0,2,4,10,4v-6.036h-2.655
			C51.489,65.964,50.674,65.598,50.105,64.959z"/>
		<path style="fill:#FBC8C8;" d="M72,45.222C72,44.111,71,43,70,43c-0.348,0-0.694,0-1,0v-0.036C68.982,33.964,67.976,26,55,26
			s-13.982,7.964-14,16.964v8l4,10l5.105,3.996c0.569,0.639,1.384,1.004,2.24,1.004H55h2.655c0.856,0,1.671-0.365,2.24-1.004
			L65,60.964l3.193-7.982C71.039,52.791,72,48.481,72,45.222z"/>
		<path style="fill:#FBD7D7;" d="M41,42.964V43c-0.306,0-0.652,0-1,0c-1,0-2,1.111-2,2.222c0,3.259,0.961,7.568,3.807,7.76
			L45,60.964l5.105,3.996c0.569,0.639,1.384,1.004,2.24,1.004H55V26C42.024,26,41.018,33.964,41,42.964z"/>
		<g>
			<path style="fill:#3E3E3F;" d="M55,52c0,0-6,0-9,2c0,7,5,12,5,12l4,2l4-2c0,0,5-5,5-12C61,52,55,52,55,52z M57,60l-1-1h-1h-1
				l-1,1h-2l-1.183-1.971c-0.371-0.618-0.38-1.387-0.025-2.014S50.812,55,51.532,55H55h3.468c0.721,0,1.385,0.388,1.74,1.015
				s0.345,1.397-0.025,2.014L59,60H57z"/>
		</g>
		<g>
			<path style="fill:#FBE158;" d="M58.302,79.685c0.058-0.038,0.083-0.11,0.063-0.176c-0.02-0.066-0.081-0.112-0.15-0.112h-3.612
				l4.351-4.129c0.045-0.045,0.058-0.112,0.034-0.171C58.964,75.038,58.906,75,58.843,75h-4.164c-0.048,0-0.094,0.022-0.124,0.061
				l-4.317,5.34c-0.037,0.047-0.043,0.112-0.017,0.165c0.026,0.054,0.081,0.088,0.141,0.088h2.984l-3.73,4.137
				c-0.052,0.059-0.052,0.148,0,0.207c0.052,0.059,0.14,0.071,0.205,0.027L58.302,79.685z"/>
		</g>
		<g>
			<path style="fill:#3E3E3F;" d="M51.758,45c0-1.104-0.896-2-2-2c-0.002,0-0.004,0-0.006,0c0.001,0.021,0.006,0.041,0.006,0.062
				c0,1.103-0.892,1.996-1.994,2C47.797,46.137,48.674,47,49.758,47C50.862,47,51.758,46.104,51.758,45z"/>
		</g>
		<g>
			<path style="fill:#3E3E3F;" d="M61.751,45c0-1.104-0.896-2-2-2c-0.002,0-0.004,0-0.006,0c0.001,0.021,0.006,0.041,0.006,0.062
				c0,1.103-0.892,1.996-1.994,2C57.791,46.137,58.668,47,59.751,47C60.856,47,61.751,46.104,61.751,45z"/>
		</g>
		<path style="fill:#3E3E3F;" d="M55,26c-8.648,0-11.977,3.54-13.242,8.564C47,29,50,35,55,35s8-6,13.242-0.436
			C66.977,29.54,63.648,26,55,26z"/>
		<g>
			<circle style="fill:#3E3E3F;" cx="69.5" cy="51.5" r="1.5"/>
		</g>
	</g>
</g>
<g id="Blue" style="display:none;">
	<g style="display:inline;">
		<g>
			<path style="fill:#0C333D;" d="M83,73.964c-0.615-1.333-1.698-2.395-3.044-2.983L65,66.964H55H45l-14.958,4.017
				c-1.345,0.589-2.427,1.65-3.042,2.983L23,87h64L83,73.964z"/>
		</g>
		<path style="fill:#BBE7F2;" d="M57.655,65.964H55h-2.655c-0.856,0-1.671-0.366-2.24-1.005L45,60.964V68c0,0,2,4,10,4s10-4,10-4
			v-7.036l-5.105,3.995C59.326,65.598,58.511,65.964,57.655,65.964z"/>
		<path style="fill:#E1F5FA;" d="M50.105,64.959L45,60.964V68c0,0,2,4,10,4v-6.036h-2.655
			C51.489,65.964,50.674,65.598,50.105,64.959z"/>
		<path style="fill:#E1F5FA;" d="M72,45.223C72,44.111,71,43,70,43c-0.348,0-0.694,0-1,0v-0.036C68.982,33.964,67.976,26,55,26
			s-13.982,7.964-14,16.964v8l4,10l5.105,3.995c0.569,0.639,1.384,1.005,2.24,1.005H55h2.655c0.856,0,1.671-0.366,2.24-1.005
			L65,60.964l3.193-7.982C71.039,52.791,72,48.481,72,45.223z"/>
		<path style="fill:#FFFFFF;" d="M41,42.964V43c-0.306,0-0.652,0-1,0c-1,0-2,1.111-2,2.223c0,3.258,0.961,7.568,3.807,7.759
			L45,60.964l5.105,3.995c0.569,0.64,1.384,1.005,2.24,1.005H55V26C42.024,26,41.018,33.964,41,42.964z"/>
		<g>
			<path style="fill:#0C333D;" d="M55,52c0,0-6,0-9,2c0,7,5,12,5,12l4,2l4-2c0,0,5-5,5-12C61,52,55,52,55,52z M57,60l-1-1h-1h-1
				l-1,1h-2l-1.183-1.971c-0.371-0.618-0.381-1.387-0.026-2.014C50.146,55.388,50.812,55,51.532,55H55h3.468
				c0.72,0,1.385,0.388,1.74,1.015c0.355,0.627,0.346,1.396-0.025,2.014L59,60H57z"/>
		</g>
		<g>
			<path style="fill:#00B7E5;" d="M58.302,79.686c0.058-0.039,0.083-0.11,0.063-0.177c-0.02-0.066-0.081-0.111-0.15-0.111h-3.612
				l4.351-4.129c0.045-0.045,0.059-0.113,0.034-0.172C58.964,75.038,58.907,75,58.843,75h-4.164c-0.048,0-0.094,0.022-0.124,0.061
				l-4.317,5.34c-0.037,0.047-0.043,0.111-0.017,0.165c0.026,0.054,0.081,0.088,0.141,0.088h2.984l-3.73,4.137
				c-0.052,0.059-0.052,0.148,0,0.207c0.052,0.059,0.14,0.07,0.206,0.027L58.302,79.686z"/>
		</g>
		<g>
			<path style="fill:#0C333D;" d="M51.758,45c0-1.104-0.896-2-2-2c-0.002,0-0.004,0.001-0.006,0.001
				c0.001,0.021,0.006,0.041,0.006,0.062c0,1.102-0.892,1.996-1.994,1.999C47.797,46.137,48.674,47,49.758,47
				C50.862,47,51.758,46.104,51.758,45z"/>
		</g>
		<g>
			<path style="fill:#0C333D;" d="M61.751,45c0-1.104-0.896-2-2-2c-0.002,0-0.004,0.001-0.006,0.001
				c0.001,0.021,0.006,0.041,0.006,0.062c0,1.102-0.892,1.996-1.994,1.999C57.791,46.137,58.667,47,59.751,47
				C60.855,47,61.751,46.104,61.751,45z"/>
		</g>
		<path style="fill:#0C333D;" d="M55,26c-8.648,0-11.977,3.54-13.242,8.565C47,29,50,35,55,35s8-6,13.242-0.435
			C66.977,29.54,63.648,26,55,26z"/>
		<g>
			<circle style="fill:#0C333D;" cx="69.5" cy="51.5" r="1.5"/>
		</g>
	</g>
</g>
<g id="R-Blue" style="display:none;">
	<g style="display:inline;">
		<circle style="fill:#81D2EB;" cx="55" cy="55" r="55"/>
	</g>
	<g style="display:inline;">
		<g>
			<path style="fill:#0C333D;" d="M83,73.964c-0.615-1.333-1.698-2.395-3.044-2.983L65,66.964H55H45l-14.958,4.017
				c-1.345,0.589-2.427,1.65-3.042,2.983L23,87h64L83,73.964z"/>
		</g>
		<path style="fill:#BBE7F2;" d="M57.655,65.964H55h-2.655c-0.856,0-1.671-0.366-2.24-1.005L45,60.964V68c0,0,2,4,10,4s10-4,10-4
			v-7.036l-5.105,3.995C59.326,65.598,58.511,65.964,57.655,65.964z"/>
		<path style="fill:#E1F5FA;" d="M50.105,64.959L45,60.964V68c0,0,2,4,10,4v-6.036h-2.655
			C51.489,65.964,50.674,65.598,50.105,64.959z"/>
		<path style="fill:#E1F5FA;" d="M72,45.223C72,44.111,71,43,70,43c-0.348,0-0.694,0-1,0v-0.036C68.982,33.964,67.976,26,55,26
			s-13.982,7.964-14,16.964v8l4,10l5.105,3.995c0.569,0.639,1.384,1.005,2.24,1.005H55h2.655c0.856,0,1.671-0.366,2.24-1.005
			L65,60.964l3.193-7.982C71.039,52.791,72,48.481,72,45.223z"/>
		<path style="fill:#FFFFFF;" d="M41,42.964V43c-0.306,0-0.652,0-1,0c-1,0-2,1.111-2,2.223c0,3.258,0.961,7.568,3.807,7.759
			L45,60.964l5.105,3.995c0.569,0.64,1.384,1.005,2.24,1.005H55V26C42.024,26,41.018,33.964,41,42.964z"/>
		<g>
			<path style="fill:#0C333D;" d="M55,52c0,0-6,0-9,2c0,7,5,12,5,12l4,2l4-2c0,0,5-5,5-12C61,52,55,52,55,52z M57,60l-1-1h-1h-1
				l-1,1h-2l-1.183-1.971c-0.371-0.618-0.381-1.387-0.026-2.014C50.146,55.388,50.812,55,51.532,55H55h3.468
				c0.72,0,1.385,0.388,1.74,1.015c0.355,0.627,0.346,1.396-0.025,2.014L59,60H57z"/>
		</g>
		<g>
			<path style="fill:#00B7E5;" d="M58.302,79.686c0.058-0.039,0.083-0.11,0.063-0.177c-0.02-0.066-0.081-0.111-0.15-0.111h-3.612
				l4.351-4.129c0.045-0.045,0.059-0.113,0.034-0.172C58.964,75.038,58.907,75,58.843,75h-4.164c-0.048,0-0.094,0.022-0.124,0.061
				l-4.317,5.34c-0.037,0.047-0.043,0.111-0.017,0.165c0.026,0.054,0.081,0.088,0.141,0.088h2.984l-3.73,4.137
				c-0.052,0.059-0.052,0.148,0,0.207c0.052,0.059,0.14,0.07,0.206,0.027L58.302,79.686z"/>
		</g>
		<g>
			<path style="fill:#0C333D;" d="M51.758,45c0-1.104-0.896-2-2-2c-0.002,0-0.004,0.001-0.006,0.001
				c0.001,0.021,0.006,0.041,0.006,0.062c0,1.102-0.892,1.996-1.994,1.999C47.797,46.137,48.674,47,49.758,47
				C50.862,47,51.758,46.104,51.758,45z"/>
		</g>
		<g>
			<path style="fill:#0C333D;" d="M61.751,45c0-1.104-0.896-2-2-2c-0.002,0-0.004,0.001-0.006,0.001
				c0.001,0.021,0.006,0.041,0.006,0.062c0,1.102-0.892,1.996-1.994,1.999C57.791,46.137,58.667,47,59.751,47
				C60.855,47,61.751,46.104,61.751,45z"/>
		</g>
		<path style="fill:#0C333D;" d="M55,26c-8.648,0-11.977,3.54-13.242,8.565C47,29,50,35,55,35s8-6,13.242-0.435
			C66.977,29.54,63.648,26,55,26z"/>
		<g>
			<circle style="fill:#0C333D;" cx="69.5" cy="51.5" r="1.5"/>
		</g>
	</g>
</g>
<g id="Green" style="display:none;">
	<g style="display:inline;">
		<g>
			<path style="fill:#0A3631;" d="M83,73.964c-0.615-1.333-1.698-2.395-3.044-2.983L65,66.964H55H45l-14.958,4.017
				c-1.345,0.589-2.427,1.65-3.042,2.983L23,87h64L83,73.964z"/>
		</g>
		<path style="fill:#AAF0E9;" d="M57.655,65.964H55h-2.655c-0.856,0-1.671-0.366-2.24-1.005L45,60.964V68c0,0,2,4,10,4s10-4,10-4
			v-7.036l-5.105,3.995C59.326,65.598,58.511,65.964,57.655,65.964z"/>
		<path style="fill:#D7FCF9;" d="M50.105,64.959L45,60.964V68c0,0,2,4,10,4v-6.036h-2.655
			C51.489,65.964,50.674,65.598,50.105,64.959z"/>
		<path style="fill:#D7FCF9;" d="M72,45.223C72,44.111,71,43,70,43c-0.348,0-0.694,0-1,0v-0.036C68.982,33.964,67.976,26,55,26
			s-13.982,7.964-14,16.964v8l4,10l5.105,3.995c0.569,0.639,1.384,1.005,2.24,1.005H55h2.655c0.856,0,1.671-0.366,2.24-1.005
			L65,60.964l3.193-7.982C71.039,52.791,72,48.481,72,45.223z"/>
		<path style="fill:#FFFFFF;" d="M41,42.964V43c-0.306,0-0.652,0-1,0c-1,0-2,1.111-2,2.223c0,3.258,0.961,7.568,3.807,7.759
			L45,60.964l5.105,3.995c0.569,0.64,1.384,1.005,2.24,1.005H55V26C42.024,26,41.018,33.964,41,42.964z"/>
		<g>
			<path style="fill:#0A3631;" d="M55,52c0,0-6,0-9,2c0,7,5,12,5,12l4,2l4-2c0,0,5-5,5-12C61,52,55,52,55,52z M57,60l-1-1h-1h-1
				l-1,1h-2l-1.183-1.971c-0.371-0.618-0.381-1.387-0.026-2.014C50.146,55.388,50.812,55,51.532,55H55h3.468
				c0.72,0,1.385,0.388,1.74,1.015c0.355,0.627,0.346,1.396-0.025,2.014L59,60H57z"/>
		</g>
		<g>
			<path style="fill:#00D6C1;" d="M58.302,79.686c0.058-0.039,0.083-0.11,0.063-0.177c-0.02-0.066-0.081-0.111-0.15-0.111h-3.612
				l4.351-4.129c0.045-0.045,0.059-0.113,0.034-0.172C58.964,75.038,58.907,75,58.843,75h-4.164c-0.048,0-0.094,0.022-0.124,0.061
				l-4.317,5.34c-0.037,0.047-0.043,0.111-0.017,0.165c0.026,0.054,0.081,0.088,0.141,0.088h2.984l-3.73,4.137
				c-0.052,0.059-0.052,0.148,0,0.207c0.052,0.059,0.14,0.07,0.206,0.027L58.302,79.686z"/>
		</g>
		<g>
			<path style="fill:#0A3631;" d="M51.758,45c0-1.104-0.896-2-2-2c-0.002,0-0.004,0.001-0.006,0.001
				c0.001,0.021,0.006,0.041,0.006,0.062c0,1.102-0.892,1.996-1.994,1.999C47.797,46.137,48.674,47,49.758,47
				C50.862,47,51.758,46.104,51.758,45z"/>
		</g>
		<g>
			<path style="fill:#0A3631;" d="M61.751,45c0-1.104-0.896-2-2-2c-0.002,0-0.004,0.001-0.006,0.001
				c0.001,0.021,0.006,0.041,0.006,0.062c0,1.102-0.892,1.996-1.994,1.999C57.791,46.137,58.667,47,59.751,47
				C60.855,47,61.751,46.104,61.751,45z"/>
		</g>
		<path style="fill:#0A3631;" d="M55,26c-8.648,0-11.977,3.54-13.242,8.565C47,29,50,35,55,35s8-6,13.242-0.435
			C66.977,29.54,63.648,26,55,26z"/>
		<g>
			<circle style="fill:#0A3631;" cx="69.5" cy="51.5" r="1.5"/>
		</g>
	</g>
</g>
<g id="R-Green" style="display:none;">
	<g style="display:inline;">
		<circle style="fill:#77E0C4;" cx="55" cy="55" r="55"/>
	</g>
	<g style="display:inline;">
		<g>
			<path style="fill:#0A3631;" d="M83,73.964c-0.615-1.333-1.698-2.395-3.044-2.983L65,66.964H55H45l-14.958,4.017
				c-1.345,0.589-2.427,1.65-3.042,2.983L23,87h64L83,73.964z"/>
		</g>
		<path style="fill:#AAF0E9;" d="M57.655,65.964H55h-2.655c-0.856,0-1.671-0.366-2.24-1.005L45,60.964V68c0,0,2,4,10,4s10-4,10-4
			v-7.036l-5.105,3.995C59.326,65.598,58.511,65.964,57.655,65.964z"/>
		<path style="fill:#D7FCF9;" d="M50.105,64.959L45,60.964V68c0,0,2,4,10,4v-6.036h-2.655
			C51.489,65.964,50.674,65.598,50.105,64.959z"/>
		<path style="fill:#D7FCF9;" d="M72,45.223C72,44.111,71,43,70,43c-0.348,0-0.694,0-1,0v-0.036C68.982,33.964,67.976,26,55,26
			s-13.982,7.964-14,16.964v8l4,10l5.105,3.995c0.569,0.639,1.384,1.005,2.24,1.005H55h2.655c0.856,0,1.671-0.366,2.24-1.005
			L65,60.964l3.193-7.982C71.039,52.791,72,48.481,72,45.223z"/>
		<path style="fill:#FFFFFF;" d="M41,42.964V43c-0.306,0-0.652,0-1,0c-1,0-2,1.111-2,2.223c0,3.258,0.961,7.568,3.807,7.759
			L45,60.964l5.105,3.995c0.569,0.64,1.384,1.005,2.24,1.005H55V26C42.024,26,41.018,33.964,41,42.964z"/>
		<g>
			<path style="fill:#0A3631;" d="M55,52c0,0-6,0-9,2c0,7,5,12,5,12l4,2l4-2c0,0,5-5,5-12C61,52,55,52,55,52z M57,60l-1-1h-1h-1
				l-1,1h-2l-1.183-1.971c-0.371-0.618-0.381-1.387-0.026-2.014C50.146,55.388,50.812,55,51.532,55H55h3.468
				c0.72,0,1.385,0.388,1.74,1.015c0.355,0.627,0.346,1.396-0.025,2.014L59,60H57z"/>
		</g>
		<g>
			<path style="fill:#00D6C1;" d="M58.302,79.686c0.058-0.039,0.083-0.11,0.063-0.177c-0.02-0.066-0.081-0.111-0.15-0.111h-3.612
				l4.351-4.129c0.045-0.045,0.059-0.113,0.034-0.172C58.964,75.038,58.907,75,58.843,75h-4.164c-0.048,0-0.094,0.022-0.124,0.061
				l-4.317,5.34c-0.037,0.047-0.043,0.111-0.017,0.165c0.026,0.054,0.081,0.088,0.141,0.088h2.984l-3.73,4.137
				c-0.052,0.059-0.052,0.148,0,0.207c0.052,0.059,0.14,0.07,0.206,0.027L58.302,79.686z"/>
		</g>
		<g>
			<path style="fill:#0A3631;" d="M51.758,45c0-1.104-0.896-2-2-2c-0.002,0-0.004,0.001-0.006,0.001
				c0.001,0.021,0.006,0.041,0.006,0.062c0,1.102-0.892,1.996-1.994,1.999C47.797,46.137,48.674,47,49.758,47
				C50.862,47,51.758,46.104,51.758,45z"/>
		</g>
		<g>
			<path style="fill:#0A3631;" d="M61.751,45c0-1.104-0.896-2-2-2c-0.002,0-0.004,0.001-0.006,0.001
				c0.001,0.021,0.006,0.041,0.006,0.062c0,1.102-0.892,1.996-1.994,1.999C57.791,46.137,58.667,47,59.751,47
				C60.855,47,61.751,46.104,61.751,45z"/>
		</g>
		<path style="fill:#0A3631;" d="M55,26c-8.648,0-11.977,3.54-13.242,8.565C47,29,50,35,55,35s8-6,13.242-0.435
			C66.977,29.54,63.648,26,55,26z"/>
		<g>
			<circle style="fill:#0A3631;" cx="69.5" cy="51.5" r="1.5"/>
		</g>
	</g>
</g>
<g id="Red" style="display:none;">
	<g style="display:inline;">
		<g>
			<path style="fill:#4A1410;" d="M83,74.029c-0.615-1.333-1.698-2.395-3.044-2.983L65,67.029H55H45l-14.958,4.017
				c-1.345,0.589-2.427,1.65-3.042,2.983l-4,13.036h64L83,74.029z"/>
		</g>
		<path style="fill:#FFD7D4;" d="M57.655,66.029H55h-2.655c-0.856,0-1.671-0.366-2.24-1.005L45,61.029v7.036c0,0,2,4,10,4s10-4,10-4
			v-7.036l-5.105,3.995C59.326,65.663,58.511,66.029,57.655,66.029z"/>
		<path style="fill:#FFEFED;" d="M50.105,65.024L45,61.029v7.036c0,0,2,4,10,4v-6.036h-2.655
			C51.489,66.029,50.674,65.663,50.105,65.024z"/>
		<path style="fill:#FFEFED;" d="M72,45.287c0-1.111-1-2.223-2-2.223c-0.348,0-0.694,0-1,0v-0.036c-0.018-9-1.024-16.964-14-16.964
			s-13.982,7.964-14,16.964v8l4,10l5.105,3.995c0.569,0.639,1.384,1.005,2.24,1.005H55h2.655c0.856,0,1.671-0.366,2.24-1.005
			L65,61.029l3.193-7.982C71.039,52.855,72,48.545,72,45.287z"/>
		<path style="fill:#FFFFFF;" d="M41,43.029v0.036c-0.306,0-0.652,0-1,0c-1,0-2,1.111-2,2.223c0,3.258,0.961,7.568,3.807,7.759
			L45,61.029l5.105,3.995c0.569,0.64,1.384,1.005,2.24,1.005H55V26.065C42.024,26.065,41.018,34.029,41,43.029z"/>
		<g>
			<path style="fill:#4A1410;" d="M55,52.065c0,0-6,0-9,2c0,7,5,12,5,12l4,2l4-2c0,0,5-5,5-12C61,52.065,55,52.065,55,52.065z
				 M57,60.065l-1-1h-1h-1l-1,1h-2l-1.183-1.971c-0.371-0.618-0.381-1.387-0.026-2.014c0.355-0.627,1.021-1.015,1.741-1.015H55
				h3.468c0.72,0,1.385,0.388,1.74,1.015c0.355,0.627,0.346,1.396-0.025,2.014L59,60.065H57z"/>
		</g>
		<g>
			<path style="fill:#FF6C5E;" d="M58.302,79.75c0.058-0.039,0.083-0.11,0.063-0.177c-0.02-0.066-0.081-0.111-0.15-0.111h-3.612
				l4.351-4.129c0.045-0.045,0.059-0.113,0.034-0.172c-0.024-0.059-0.081-0.097-0.145-0.097h-4.164
				c-0.048,0-0.094,0.022-0.124,0.061l-4.317,5.34c-0.037,0.047-0.043,0.111-0.017,0.165c0.026,0.054,0.081,0.088,0.141,0.088h2.984
				l-3.73,4.137c-0.052,0.059-0.052,0.147,0,0.207c0.052,0.059,0.14,0.07,0.206,0.027L58.302,79.75z"/>
		</g>
		<g>
			<path style="fill:#4A1410;" d="M51.758,45.065c0-1.105-0.896-2-2-2c-0.002,0-0.004,0-0.006,0
				c0.001,0.021,0.006,0.041,0.006,0.062c0,1.102-0.892,1.996-1.994,1.999c0.033,1.076,0.91,1.939,1.994,1.939
				C50.862,47.065,51.758,46.169,51.758,45.065z"/>
		</g>
		<g>
			<path style="fill:#4A1410;" d="M61.751,45.065c0-1.105-0.896-2-2-2c-0.002,0-0.004,0-0.006,0
				c0.001,0.021,0.006,0.041,0.006,0.062c0,1.102-0.892,1.996-1.994,1.999c0.033,1.076,0.91,1.939,1.994,1.939
				C60.855,47.065,61.751,46.169,61.751,45.065z"/>
		</g>
		<path style="fill:#4A1410;" d="M55,26.065c-8.648,0-11.977,3.54-13.242,8.565C47,29.065,50,35.065,55,35.065s8-6,13.242-0.436
			C66.977,29.605,63.648,26.065,55,26.065z"/>
		<g>
			<circle style="fill:#4A1410;" cx="69.5" cy="51.565" r="1.5"/>
		</g>
	</g>
</g>
<g id="R-Red" style="display:none;">
	<g style="display:inline;">
		<circle style="fill:#FABBAF;" cx="55" cy="55" r="55"/>
	</g>
	<g style="display:inline;">
		<g>
			<path style="fill:#4A1410;" d="M83,73.964c-0.615-1.333-1.698-2.395-3.044-2.983L65,66.964H55H45l-14.958,4.017
				c-1.345,0.589-2.427,1.65-3.042,2.983L23,87h64L83,73.964z"/>
		</g>
		<path style="fill:#FFD7D4;" d="M57.655,65.964H55h-2.655c-0.856,0-1.671-0.366-2.24-1.005L45,60.964V68c0,0,2,4,10,4s10-4,10-4
			v-7.036l-5.105,3.995C59.326,65.598,58.511,65.964,57.655,65.964z"/>
		<path style="fill:#FFEFED;" d="M50.105,64.959L45,60.964V68c0,0,2,4,10,4v-6.036h-2.655
			C51.489,65.964,50.674,65.598,50.105,64.959z"/>
		<path style="fill:#FFEFED;" d="M72,45.223C72,44.111,71,43,70,43c-0.348,0-0.694,0-1,0v-0.036C68.982,33.964,67.976,26,55,26
			s-13.982,7.964-14,16.964v8l4,10l5.105,3.995c0.569,0.639,1.384,1.005,2.24,1.005H55h2.655c0.856,0,1.671-0.366,2.24-1.005
			L65,60.964l3.193-7.982C71.039,52.791,72,48.481,72,45.223z"/>
		<path style="fill:#FFFFFF;" d="M41,42.964V43c-0.306,0-0.652,0-1,0c-1,0-2,1.111-2,2.223c0,3.258,0.961,7.568,3.807,7.759
			L45,60.964l5.105,3.995c0.569,0.64,1.384,1.005,2.24,1.005H55V26C42.024,26,41.018,33.964,41,42.964z"/>
		<g>
			<path style="fill:#4A1410;" d="M55,52c0,0-6,0-9,2c0,7,5,12,5,12l4,2l4-2c0,0,5-5,5-12C61,52,55,52,55,52z M57,60l-1-1h-1h-1
				l-1,1h-2l-1.183-1.971c-0.371-0.618-0.381-1.387-0.026-2.014C50.146,55.388,50.812,55,51.532,55H55h3.468
				c0.72,0,1.385,0.388,1.74,1.015c0.355,0.627,0.346,1.396-0.025,2.014L59,60H57z"/>
		</g>
		<g>
			<path style="fill:#FF6C5E;" d="M58.302,79.686c0.058-0.039,0.083-0.11,0.063-0.177c-0.02-0.066-0.081-0.111-0.15-0.111h-3.612
				l4.351-4.129c0.045-0.045,0.059-0.113,0.034-0.172C58.964,75.038,58.907,75,58.843,75h-4.164c-0.048,0-0.094,0.022-0.124,0.061
				l-4.317,5.34c-0.037,0.047-0.043,0.111-0.017,0.165c0.026,0.054,0.081,0.088,0.141,0.088h2.984l-3.73,4.137
				c-0.052,0.059-0.052,0.148,0,0.207c0.052,0.059,0.14,0.07,0.206,0.027L58.302,79.686z"/>
		</g>
		<g>
			<path style="fill:#4A1410;" d="M51.758,45c0-1.104-0.896-2-2-2c-0.002,0-0.004,0.001-0.006,0.001
				c0.001,0.021,0.006,0.041,0.006,0.062c0,1.102-0.892,1.996-1.994,1.999C47.797,46.137,48.674,47,49.758,47
				C50.862,47,51.758,46.104,51.758,45z"/>
		</g>
		<g>
			<path style="fill:#4A1410;" d="M61.751,45c0-1.104-0.896-2-2-2c-0.002,0-0.004,0.001-0.006,0.001
				c0.001,0.021,0.006,0.041,0.006,0.062c0,1.102-0.892,1.996-1.994,1.999C57.791,46.137,58.667,47,59.751,47
				C60.855,47,61.751,46.104,61.751,45z"/>
		</g>
		<path style="fill:#4A1410;" d="M55,26c-8.648,0-11.977,3.54-13.242,8.565C47,29,50,35,55,35s8-6,13.242-0.435
			C66.977,29.54,63.648,26,55,26z"/>
		<g>
			<circle style="fill:#4A1410;" cx="69.5" cy="51.5" r="1.5"/>
		</g>
	</g>
</g>
<g id="Yellow" style="display:none;">
	<g style="display:inline;">
		<g>
			<path style="fill:#3D320C;" d="M83,73.964c-0.615-1.333-1.698-2.395-3.044-2.983L65,66.964H55H45l-14.958,4.017
				c-1.345,0.589-2.427,1.65-3.042,2.983L23,87h64L83,73.964z"/>
		</g>
		<path style="fill:#FFE9A1;" d="M57.655,65.964H55h-2.655c-0.856,0-1.671-0.366-2.24-1.005L45,60.964V68c0,0,2,4,10,4s10-4,10-4
			v-7.036l-5.105,3.995C59.326,65.598,58.511,65.964,57.655,65.964z"/>
		<path style="fill:#FFF5D9;" d="M50.105,64.959L45,60.964V68c0,0,2,4,10,4v-6.036h-2.655
			C51.489,65.964,50.674,65.598,50.105,64.959z"/>
		<path style="fill:#FFF5D9;" d="M72,45.223C72,44.111,71,43,70,43c-0.348,0-0.694,0-1,0v-0.036C68.982,33.964,67.976,26,55,26
			s-13.982,7.964-14,16.964v8l4,10l5.105,3.995c0.569,0.639,1.384,1.005,2.24,1.005H55h2.655c0.856,0,1.671-0.366,2.24-1.005
			L65,60.964l3.193-7.982C71.039,52.791,72,48.481,72,45.223z"/>
		<path style="fill:#FFFFFF;" d="M41,42.964V43c-0.306,0-0.652,0-1,0c-1,0-2,1.111-2,2.223c0,3.258,0.961,7.568,3.807,7.759
			L45,60.964l5.105,3.995c0.569,0.64,1.384,1.005,2.24,1.005H55V26C42.024,26,41.018,33.964,41,42.964z"/>
		<g>
			<path style="fill:#3D320C;" d="M55,52c0,0-6,0-9,2c0,7,5,12,5,12l4,2l4-2c0,0,5-5,5-12C61,52,55,52,55,52z M57,60l-1-1h-1h-1
				l-1,1h-2l-1.183-1.971c-0.371-0.618-0.381-1.387-0.026-2.014C50.146,55.388,50.812,55,51.532,55H55h3.468
				c0.72,0,1.385,0.388,1.74,1.015c0.355,0.627,0.346,1.396-0.025,2.014L59,60H57z"/>
		</g>
		<g>
			<path style="fill:#FFAA00;" d="M58.302,79.686c0.058-0.039,0.083-0.11,0.063-0.177c-0.02-0.066-0.081-0.111-0.15-0.111h-3.612
				l4.351-4.129c0.045-0.045,0.059-0.113,0.034-0.172C58.964,75.038,58.907,75,58.843,75h-4.164c-0.048,0-0.094,0.022-0.124,0.061
				l-4.317,5.34c-0.037,0.047-0.043,0.111-0.017,0.165c0.026,0.054,0.081,0.088,0.141,0.088h2.984l-3.73,4.137
				c-0.052,0.059-0.052,0.148,0,0.207c0.052,0.059,0.14,0.07,0.206,0.027L58.302,79.686z"/>
		</g>
		<g>
			<path style="fill:#3D320C;" d="M51.758,45c0-1.104-0.896-2-2-2c-0.002,0-0.004,0.001-0.006,0.001
				c0.001,0.021,0.006,0.041,0.006,0.062c0,1.102-0.892,1.996-1.994,1.999C47.797,46.137,48.674,47,49.758,47
				C50.862,47,51.758,46.104,51.758,45z"/>
		</g>
		<g>
			<path style="fill:#3D320C;" d="M61.751,45c0-1.104-0.896-2-2-2c-0.002,0-0.004,0.001-0.006,0.001
				c0.001,0.021,0.006,0.041,0.006,0.062c0,1.102-0.892,1.996-1.994,1.999C57.791,46.137,58.667,47,59.751,47
				C60.855,47,61.751,46.104,61.751,45z"/>
		</g>
		<path style="fill:#3D320C;" d="M55,26c-8.648,0-11.977,3.54-13.242,8.565C47,29,50,35,55,35s8-6,13.242-0.435
			C66.977,29.54,63.648,26,55,26z"/>
		<g>
			<circle style="fill:#3D320C;" cx="69.5" cy="51.5" r="1.5"/>
		</g>
	</g>
</g>
<g id="R-Yellow" style="display:none;">
	<g style="display:inline;">
		<circle style="fill:#FFD75E;" cx="55" cy="55" r="55"/>
	</g>
	<g style="display:inline;">
		<g>
			<path style="fill:#3D320C;" d="M83,73.964c-0.615-1.333-1.698-2.395-3.044-2.983L65,66.964H55H45l-14.958,4.017
				c-1.345,0.589-2.427,1.65-3.042,2.983L23,87h64L83,73.964z"/>
		</g>
		<path style="fill:#FFE9A1;" d="M57.655,65.964H55h-2.655c-0.856,0-1.671-0.366-2.24-1.005L45,60.964V68c0,0,2,4,10,4s10-4,10-4
			v-7.036l-5.105,3.995C59.326,65.598,58.511,65.964,57.655,65.964z"/>
		<path style="fill:#FFF5D9;" d="M50.105,64.959L45,60.964V68c0,0,2,4,10,4v-6.036h-2.655
			C51.489,65.964,50.674,65.598,50.105,64.959z"/>
		<path style="fill:#FFF5D9;" d="M72,45.223C72,44.111,71,43,70,43c-0.348,0-0.694,0-1,0v-0.036C68.982,33.964,67.976,26,55,26
			s-13.982,7.964-14,16.964v8l4,10l5.105,3.995c0.569,0.639,1.384,1.005,2.24,1.005H55h2.655c0.856,0,1.671-0.366,2.24-1.005
			L65,60.964l3.193-7.982C71.039,52.791,72,48.481,72,45.223z"/>
		<path style="fill:#FFFFFF;" d="M41,42.964V43c-0.306,0-0.652,0-1,0c-1,0-2,1.111-2,2.223c0,3.258,0.961,7.568,3.807,7.759
			L45,60.964l5.105,3.995c0.569,0.64,1.384,1.005,2.24,1.005H55V26C42.024,26,41.018,33.964,41,42.964z"/>
		<g>
			<path style="fill:#3D320C;" d="M55,52c0,0-6,0-9,2c0,7,5,12,5,12l4,2l4-2c0,0,5-5,5-12C61,52,55,52,55,52z M57,60l-1-1h-1h-1
				l-1,1h-2l-1.183-1.971c-0.371-0.618-0.381-1.387-0.026-2.014C50.146,55.388,50.812,55,51.532,55H55h3.468
				c0.72,0,1.385,0.388,1.74,1.015c0.355,0.627,0.346,1.396-0.025,2.014L59,60H57z"/>
		</g>
		<g>
			<path style="fill:#FFAA00;" d="M58.302,79.686c0.058-0.039,0.083-0.11,0.063-0.177c-0.02-0.066-0.081-0.111-0.15-0.111h-3.612
				l4.351-4.129c0.045-0.045,0.059-0.113,0.034-0.172C58.964,75.038,58.907,75,58.843,75h-4.164c-0.048,0-0.094,0.022-0.124,0.061
				l-4.317,5.34c-0.037,0.047-0.043,0.111-0.017,0.165c0.026,0.054,0.081,0.088,0.141,0.088h2.984l-3.73,4.137
				c-0.052,0.059-0.052,0.148,0,0.207c0.052,0.059,0.14,0.07,0.206,0.027L58.302,79.686z"/>
		</g>
		<g>
			<path style="fill:#3D320C;" d="M51.758,45c0-1.104-0.896-2-2-2c-0.002,0-0.004,0.001-0.006,0.001
				c0.001,0.021,0.006,0.041,0.006,0.062c0,1.102-0.892,1.996-1.994,1.999C47.797,46.137,48.674,47,49.758,47
				C50.862,47,51.758,46.104,51.758,45z"/>
		</g>
		<g>
			<path style="fill:#3D320C;" d="M61.751,45c0-1.104-0.896-2-2-2c-0.002,0-0.004,0.001-0.006,0.001
				c0.001,0.021,0.006,0.041,0.006,0.062c0,1.102-0.892,1.996-1.994,1.999C57.791,46.137,58.667,47,59.751,47
				C60.855,47,61.751,46.104,61.751,45z"/>
		</g>
		<path style="fill:#3D320C;" d="M55,26c-8.648,0-11.977,3.54-13.242,8.565C47,29,50,35,55,35s8-6,13.242-0.435
			C66.977,29.54,63.648,26,55,26z"/>
		<g>
			<circle style="fill:#3D320C;" cx="69.5" cy="51.5" r="1.5"/>
		</g>
	</g>
</g>
</svg>
