<?xml version="1.0" encoding="iso-8859-1"?>
<!-- Generator: Adobe Illustrator 19.0.0, SVG Export Plug-In . SVG Version: 6.00 Build 0)  -->
<svg version="1.1" id="Capa_1" xmlns="http://www.w3.org/2000/svg" xmlns:xlink="http://www.w3.org/1999/xlink" x="0px" y="0px"
	 viewBox="0 0 512 512" style="enable-background:new 0 0 512 512;" xml:space="preserve">
<g>
	<path style="fill:#FDC9A6;" d="M392.533,343.42L196.267,147.153l61.38-68.198c8.644-9.609,8.26-24.303-0.879-33.442l0,0
		c-9.737-9.737-25.617-9.446-34.987,0.649l-71.39,76.885c-12.493,13.457-12.109,34.381,0.879,47.36l70.596,70.613l-128,128v34.133
		h296.286L392.533,343.42z"/>
	<path style="fill:#FDC9A6;" d="M342.724,259.648l-12.049-12.083c-19.968-20.028-19.917-52.446,0.111-72.405l34.389-34.287
		c20.028-19.968,52.446-19.917,72.405,0.111l12.049,12.083c19.968,20.028,19.917,52.446-0.111,72.405l-34.389,34.287
		C395.11,279.727,362.692,279.676,342.724,259.648z"/>
</g>
<path style="fill:#277BAA;" d="M374.007,133.909l82.509,82.748c12.595-19.78,10.359-46.293-6.886-63.59l-12.049-12.083
	C420.326,123.686,393.822,121.365,374.007,133.909z"/>
<g>
	<path style="fill:#176177;" d="M372.992,218.918c-0.009,0-0.026,0-0.043,0c-6.835-0.009-13.261-2.679-18.091-7.526l-12.049-12.083
		c-4.83-4.838-7.484-11.273-7.467-18.116c0.009-6.835,2.679-13.261,7.526-18.091c4.83-4.821,11.247-7.467,18.074-7.467
		c0.017,0,0.026,0,0.043,0c6.835,0.009,13.261,2.679,18.091,7.526l12.049,12.083c4.83,4.838,7.484,11.273,7.475,18.116
		c-0.009,6.844-2.679,13.269-7.526,18.091C386.236,216.273,379.819,218.918,372.992,218.918z"/>
	<path style="fill:#176177;" d="M415.164,261.227c-0.009,0-0.017,0-0.034,0c-6.844-0.009-13.269-2.679-18.091-7.526l-12.049-12.092
		c-9.967-9.993-9.941-26.24,0.051-36.207c4.83-4.821,11.247-7.467,18.074-7.467c0.017,0,0.026,0,0.043,0
		c6.835,0.009,13.261,2.679,18.091,7.526l12.049,12.092c4.83,4.838,7.484,11.273,7.475,18.108
		c-0.009,6.844-2.679,13.269-7.526,18.091C428.416,258.573,421.99,261.227,415.164,261.227z"/>
</g>
<polyline style="fill:#FDC9A6;" points="342.724,259.648 324.267,275.153 318.387,279.991 294.042,254.579 298.667,249.553 
	324.267,232.486 "/>
<g>
	<path style="fill:#6FBBC6;" d="M360.909,205.376l-12.049-12.083c-6.656-6.673-6.639-17.485,0.034-24.132l0,0
		c6.673-6.656,17.485-6.639,24.132,0.034l12.049,12.083c6.656,6.673,6.639,17.485-0.034,24.132l0,0
		C378.368,212.066,367.565,212.049,360.909,205.376z"/>
	<path style="fill:#6FBBC6;" d="M403.081,247.676l-12.049-12.083c-6.656-6.673-6.639-17.485,0.034-24.132l0,0
		c6.673-6.656,17.485-6.639,24.132,0.034l12.049,12.083c6.656,6.673,6.639,17.485-0.034,24.132l0,0
		C420.548,254.366,409.737,254.349,403.081,247.676z"/>
</g>
<path style="fill:#6CBAE5;" d="M0,473.604h512v-87.518c-85.333,0-85.333-51.2-170.675-51.2s-85.333,51.2-170.675,51.2
	c-85.325,0-85.325-51.2-170.65-51.2L0,473.604L0,473.604z"/>
<path style="fill:#4799CF;" d="M0,403.153c85.325,0,85.325,51.2,170.65,51.2c85.333,0,85.333-51.2,170.675-51.2
	s85.333,51.2,170.675,51.2v19.251H0V403.153z"/>
<g>
</g>
<g>
</g>
<g>
</g>
<g>
</g>
<g>
</g>
<g>
</g>
<g>
</g>
<g>
</g>
<g>
</g>
<g>
</g>
<g>
</g>
<g>
</g>
<g>
</g>
<g>
</g>
<g>
</g>
</svg>
