<?xml version="1.0" encoding="iso-8859-1"?>
<!-- Generator: Adobe Illustrator 17.1.0, SVG Export Plug-In . SVG Version: 6.00 Build 0)  -->
<!DOCTYPE svg PUBLIC "-//W3C//DTD SVG 1.0//EN" "http://www.w3.org/TR/2001/REC-SVG-20010904/DTD/svg10.dtd">
<svg version="1.0" xmlns="http://www.w3.org/2000/svg" xmlns:xlink="http://www.w3.org/1999/xlink" x="0px" y="0px" width="110px"
	 height="110px" viewBox="0 0 110 110" style="enable-background:new 0 0 110 110;" xml:space="preserve">
<g id="Artboard" style="display:none;">
	<rect x="-573.5" y="-49.5" style="display:inline;fill:#808080;stroke:#000000;stroke-miterlimit:10;" width="1365" height="596"/>
</g>
<g id="R-Multicolor" style="display:none;">
	<g style="display:inline;">
		<circle style="fill:#32BEA6;" cx="55" cy="55" r="55"/>
	</g>
	<g style="display:inline;">
		<path style="fill:#FFFFFF;" d="M83.242,77.663c-0.889-2.311-2.797-4.08-5.168-4.791l-13.241-4.875l-9.917,4.961L45,67.997
			l-13.241,4.875c-2.371,0.711-4.279,2.48-5.168,4.791L23,87h31.833H55h31.833L83.242,77.663z"/>
		<g>
			<polygon style="fill:#DF2C2C;" points="59,87.022 56,79.022 58,76.024 54.981,73 51.983,75.998 54,79.022 51,87.022 			"/>
		</g>
		<g>
			<polygon style="fill:#FA5655;" points="55,87.022 55,73.019 54.981,73 51.983,75.998 54,79.022 51,87.022 			"/>
		</g>
		<polygon style="fill:#3E3E3F;" points="66.952,68.777 54.917,86.875 42.882,68.777 33,72.416 33,87 54.833,87 55,87 76.833,87 
			76.833,72.416 		"/>
		<path style="fill:#F7B4B4;" d="M55,69v4l10-5v-6.567C62.159,65.829,58.284,67.905,55,69z"/>
		<path style="fill:#FBC8C8;" d="M45,61.433V68l10,5v-4C51.716,67.905,47.841,65.829,45,61.433z"/>
		<path style="fill:#FBC8C8;" d="M70,45c-0.277,0-0.632,0-1,0h0l-2.155-0.431C62.283,43.657,59,39.652,59,35
			c-1.214,3.236-2.591,5.149-4,6.297C52.927,42.986,50.786,43,49,43v-4c-4.761,6.349-6.633,6.125-9.16,6.021
			C38.896,45.131,38,46.171,38,47.222c0,3.091,0.864,7.13,4.178,7.703C44.62,64.027,50.396,67.465,55,69
			c4.604-1.535,10.38-4.973,12.822-14.075C71.136,54.353,72,50.313,72,47.222C72,46.111,71,45,70,45z"/>
		<path style="fill:#FBD7D7;" d="M49,43v-4c-4.761,6.349-6.633,6.125-9.16,6.021C38.896,45.131,38,46.171,38,47.222
			c0,3.091,0.864,7.13,4.178,7.703C44.62,64.027,50.396,67.465,55,69V41.297C52.927,42.986,50.786,43,49,43z"/>
		<g>
			<path style="fill:#F79392;" d="M50,58h10c0,0,0,3-5,3S50,58,50,58z"/>
		</g>
		<g>
			<path style="fill:#3E3E3F;" d="M52.006,47c0-1.104-0.896-2-2-2c-0.002,0-0.004,0-0.006,0c0.001,0.021,0.006,0.041,0.006,0.062
				c0,1.103-0.892,1.996-1.994,2C48.046,48.137,48.923,49,50.006,49C51.111,49,52.006,48.104,52.006,47z"/>
		</g>
		<g>
			<path style="fill:#3E3E3F;" d="M62,47c0-1.104-0.896-2-2-2c-0.002,0-0.004,0-0.006,0C59.995,45.021,60,45.042,60,45.063
				c0,1.103-0.892,1.996-1.994,2C58.04,48.137,58.917,49,60,49C61.104,49,62,48.104,62,47z"/>
		</g>
		<path style="fill:#84462D;" d="M79,34.75c-3.067-6.134-7.896-6.963-12.236-4.318C63.845,27.678,59.662,26,55,26
			c-8.462,0-15.373,5.508-15.944,13H39v6c3,0,4.726,1.032,10-6v4c3,0,7,0,10-8c0,4.652,3.283,8.657,7.845,9.569L69,45
			c0.368,0,0.723,0,1,0c1,0,2,1.111,2,2.222c0,2.686-0.655,6.084-3,7.306c0,1.162,0,2.327,0,3.472c0,9,13,9,13,5
			C70,64,83,42.75,79,34.75z"/>
		<path style="fill:#9C6144;" d="M39.056,39H39v6c3,0,4.726,1.032,10-6v4c1.786,0,3.927-0.014,6-1.703V26
			C46.538,26,39.627,31.508,39.056,39z"/>
	</g>
</g>
<g id="Multicolor">
	<g>
		<path style="fill:#FFFFFF;" d="M83.242,77.663c-0.889-2.311-2.797-4.08-5.168-4.791l-13.241-4.875l-9.917,4.961L45,67.997
			l-13.241,4.875c-2.371,0.711-4.279,2.48-5.168,4.791L23,87h31.833H55h31.833L83.242,77.663z"/>
		<g>
			<polygon style="fill:#DF2C2C;" points="59,87.022 56,79.022 58,76.024 54.981,73 51.983,75.998 54,79.022 51,87.022 			"/>
		</g>
		<g>
			<polygon style="fill:#FA5655;" points="55,87.022 55,73.019 54.981,73 51.983,75.998 54,79.022 51,87.022 			"/>
		</g>
		<polygon style="fill:#3E3E3F;" points="66.952,68.777 54.917,86.875 42.882,68.777 33,72.416 33,87 54.833,87 55,87 76.833,87 
			76.833,72.416 		"/>
		<path style="fill:#F7B4B4;" d="M55,69v4l10-5v-6.567C62.159,65.829,58.284,67.905,55,69z"/>
		<path style="fill:#FBC8C8;" d="M45,61.433V68l10,5v-4C51.716,67.905,47.841,65.829,45,61.433z"/>
		<path style="fill:#FBC8C8;" d="M70,45c-0.277,0-0.632,0-1,0h0l-2.155-0.431C62.283,43.657,59,39.652,59,35
			c-1.214,3.236-2.591,5.149-4,6.297C52.927,42.986,50.786,43,49,43v-4c-4.761,6.349-6.633,6.125-9.16,6.021
			C38.896,45.131,38,46.171,38,47.222c0,3.091,0.864,7.13,4.178,7.703C44.62,64.027,50.396,67.465,55,69
			c4.604-1.535,10.38-4.973,12.822-14.075C71.136,54.353,72,50.313,72,47.222C72,46.111,71,45,70,45z"/>
		<path style="fill:#FBD7D7;" d="M49,43v-4c-4.761,6.349-6.633,6.125-9.16,6.021C38.896,45.131,38,46.171,38,47.222
			c0,3.091,0.864,7.13,4.178,7.703C44.62,64.027,50.396,67.465,55,69V41.297C52.927,42.986,50.786,43,49,43z"/>
		<g>
			<path style="fill:#F79392;" d="M50,58h10c0,0,0,3-5,3S50,58,50,58z"/>
		</g>
		<g>
			<path style="fill:#3E3E3F;" d="M52.006,47c0-1.104-0.896-2-2-2c-0.002,0-0.004,0-0.006,0c0.001,0.021,0.006,0.041,0.006,0.062
				c0,1.103-0.892,1.996-1.994,2C48.046,48.137,48.923,49,50.006,49C51.111,49,52.006,48.104,52.006,47z"/>
		</g>
		<g>
			<path style="fill:#3E3E3F;" d="M62,47c0-1.104-0.896-2-2-2c-0.002,0-0.004,0-0.006,0C59.995,45.021,60,45.042,60,45.063
				c0,1.103-0.892,1.996-1.994,2C58.04,48.137,58.917,49,60,49C61.104,49,62,48.104,62,47z"/>
		</g>
		<path style="fill:#84462D;" d="M79,34.75c-3.067-6.134-7.896-6.963-12.236-4.318C63.845,27.678,59.662,26,55,26
			c-8.462,0-15.373,5.508-15.944,13H39v6c3,0,4.726,1.032,10-6v4c3,0,7,0,10-8c0,4.652,3.283,8.657,7.845,9.569L69,45
			c0.368,0,0.723,0,1,0c1,0,2,1.111,2,2.222c0,2.686-0.655,6.084-3,7.306c0,1.162,0,2.327,0,3.472c0,9,13,9,13,5
			C70,64,83,42.75,79,34.75z"/>
		<path style="fill:#9C6144;" d="M39.056,39H39v6c3,0,4.726,1.032,10-6v4c1.786,0,3.927-0.014,6-1.703V26
			C46.538,26,39.627,31.508,39.056,39z"/>
	</g>
</g>
<g id="Blue" style="display:none;">
	<g style="display:inline;">
		<path style="fill:#FFFFFF;" d="M83.242,77.663c-0.889-2.311-2.797-4.08-5.168-4.791l-13.241-4.875l-9.917,4.961L45,67.997
			l-13.241,4.875c-2.371,0.711-4.279,2.48-5.168,4.791L23,87h31.833H55h31.834L83.242,77.663z"/>
		<g>
			<polygon style="fill:#009FC7;" points="59,87.022 56,79.022 57.999,76.024 54.981,73 51.983,75.998 54,79.022 51,87.022 			"/>
		</g>
		<g>
			<polygon style="fill:#00B7E5;" points="55,87.022 55,73.019 54.981,73 51.983,75.998 54,79.022 51,87.022 			"/>
		</g>
		<polygon style="fill:#0C333D;" points="66.952,68.777 54.917,86.875 42.882,68.777 33,72.416 33,87 54.833,87 55,87 76.834,87 
			76.834,72.416 		"/>
		<path style="fill:#BBE7F2;" d="M55,69v4l10-5v-6.567C62.159,65.829,58.284,67.905,55,69z"/>
		<path style="fill:#E1F5FA;" d="M45,61.433V68l10,5v-4C51.716,67.905,47.841,65.829,45,61.433z"/>
		<path style="fill:#E1F5FA;" d="M70,45c-0.277,0-0.632,0-1,0h-0.001l-2.155-0.431C62.283,43.657,59,39.652,59,35
			c-1.214,3.236-2.591,5.149-4,6.297C52.927,42.986,50.786,43,49,43v-4c-4.761,6.349-6.633,6.125-9.16,6.022
			C38.896,45.131,38,46.171,38,47.222c0,3.091,0.864,7.13,4.178,7.703C44.62,64.027,50.396,67.465,55,69
			c4.604-1.535,10.38-4.973,12.822-14.075C71.136,54.353,72,50.313,72,47.222C72,46.111,71,45,70,45z"/>
		<path style="fill:#FFFFFF;" d="M49,43v-4c-4.761,6.349-6.633,6.125-9.16,6.022C38.896,45.131,38,46.171,38,47.222
			c0,3.091,0.864,7.13,4.178,7.703C44.62,64.027,50.396,67.465,55,69V41.297C52.927,42.986,50.786,43,49,43z"/>
		<g>
			<path style="fill:#53BAD4;" d="M50,58h10c0,0,0,3-5,3S50,58,50,58z"/>
		</g>
		<g>
			<path style="fill:#0C333D;" d="M52.006,47c0-1.104-0.896-2-2-2c-0.002,0-0.004,0.001-0.006,0.001
				c0,0.021,0.006,0.041,0.006,0.062c0,1.102-0.892,1.996-1.994,1.999C48.046,48.137,48.923,49,50.006,49
				C51.111,49,52.006,48.104,52.006,47z"/>
		</g>
		<g>
			<path style="fill:#0C333D;" d="M62,47c0-1.104-0.896-2-2-2c-0.002,0-0.004,0.001-0.006,0.001C59.995,45.022,60,45.042,60,45.063
				c0,1.102-0.892,1.996-1.994,1.999C58.04,48.137,58.917,49,60,49C61.104,49,62,48.104,62,47z"/>
		</g>
		<path style="fill:#33899E;" d="M79,34.75c-3.067-6.134-7.896-6.963-12.236-4.318C63.845,27.678,59.662,26,55,26
			c-8.462,0-15.373,5.508-15.944,13H39v6c3,0,4.726,1.032,10-6v4c3,0,7,0,10-8c0,4.652,3.283,8.657,7.845,9.569L69,45
			c0.368,0,0.723,0,1,0c1,0,2,1.111,2,2.222c0,2.686-0.655,6.084-3,7.306c0,1.162,0,2.327,0,3.472c0,9,13,9,13,5
			C70,64,83,42.75,79,34.75z"/>
		<path style="fill:#37A4BF;" d="M39.056,39H39v6c3,0,4.726,1.032,10-6v4c1.786,0,3.927-0.014,6-1.703V26
			C46.538,26,39.627,31.508,39.056,39z"/>
	</g>
</g>
<g id="R-Blue" style="display:none;">
	<g style="display:inline;">
		<circle style="fill:#81D2EB;" cx="55" cy="55" r="55"/>
	</g>
	<g style="display:inline;">
		<path style="fill:#FFFFFF;" d="M83.242,77.663c-0.889-2.311-2.797-4.08-5.168-4.791l-13.241-4.875l-9.917,4.961L45,67.997
			l-13.241,4.875c-2.371,0.711-4.279,2.48-5.168,4.791L23,87h31.833H55h31.834L83.242,77.663z"/>
		<g>
			<polygon style="fill:#009FC7;" points="59,87.022 56,79.022 57.999,76.024 54.981,73 51.983,75.998 54,79.022 51,87.022 			"/>
		</g>
		<g>
			<polygon style="fill:#00B7E5;" points="55,87.022 55,73.019 54.981,73 51.983,75.998 54,79.022 51,87.022 			"/>
		</g>
		<polygon style="fill:#0C333D;" points="66.952,68.777 54.916,86.875 42.882,68.777 33,72.416 33,87 54.833,87 55,87 76.834,87 
			76.834,72.416 		"/>
		<path style="fill:#BBE7F2;" d="M55,69v4l10-5v-6.567C62.159,65.829,58.284,67.905,55,69z"/>
		<path style="fill:#E1F5FA;" d="M45,61.433V68l10,5v-4C51.716,67.905,47.841,65.829,45,61.433z"/>
		<path style="fill:#E1F5FA;" d="M70,45c-0.277,0-0.632,0-1,0h-0.001l-2.155-0.431C62.283,43.657,59,39.652,59,35
			c-1.214,3.236-2.591,5.149-4,6.297C52.927,42.986,50.786,43,49,43v-4c-4.761,6.349-6.633,6.125-9.16,6.022
			C38.896,45.131,38,46.171,38,47.222c0,3.091,0.864,7.13,4.178,7.703C44.62,64.027,50.396,67.465,55,69
			c4.603-1.535,10.38-4.973,12.822-14.075C71.136,54.353,72,50.313,72,47.222C72,46.111,71,45,70,45z"/>
		<path style="fill:#FFFFFF;" d="M49,43v-4c-4.761,6.349-6.633,6.125-9.16,6.022C38.896,45.131,38,46.171,38,47.222
			c0,3.091,0.864,7.13,4.178,7.703C44.62,64.027,50.396,67.465,55,69V41.297C52.927,42.986,50.786,43,49,43z"/>
		<g>
			<path style="fill:#53BAD4;" d="M50,58h10c0,0,0,3-5,3S50,58,50,58z"/>
		</g>
		<g>
			<path style="fill:#0C333D;" d="M52.006,47c0-1.104-0.896-2-2-2c-0.002,0-0.004,0.001-0.006,0.001
				c0,0.021,0.006,0.041,0.006,0.062c0,1.102-0.892,1.996-1.994,1.999C48.046,48.137,48.923,49,50.006,49
				C51.111,49,52.006,48.104,52.006,47z"/>
		</g>
		<g>
			<path style="fill:#0C333D;" d="M62,47c0-1.104-0.896-2-2-2c-0.002,0-0.004,0.001-0.006,0.001C59.995,45.022,60,45.042,60,45.063
				c0,1.102-0.892,1.996-1.994,1.999C58.04,48.137,58.916,49,60,49C61.104,49,62,48.104,62,47z"/>
		</g>
		<path style="fill:#33899E;" d="M79,34.75c-3.067-6.134-7.896-6.963-12.236-4.318C63.845,27.678,59.662,26,55,26
			c-8.462,0-15.373,5.508-15.944,13H39v6c3,0,4.726,1.032,10-6v4c3,0,7,0,10-8c0,4.652,3.283,8.657,7.845,9.569L69,45
			c0.368,0,0.723,0,1,0c1,0,2,1.111,2,2.222c0,2.686-0.655,6.084-3,7.306c0,1.162,0,2.327,0,3.472c0,9,13,9,13,5
			C70,64,83,42.75,79,34.75z"/>
		<path style="fill:#37A4BF;" d="M39.056,39H39v6c3,0,4.726,1.032,10-6v4c1.786,0,3.927-0.014,6-1.703V26
			C46.538,26,39.627,31.508,39.056,39z"/>
	</g>
</g>
<g id="Green" style="display:none;">
	<g style="display:inline;">
		<path style="fill:#FFFFFF;" d="M83.242,77.663c-0.889-2.311-2.797-4.08-5.168-4.791l-13.241-4.875l-9.917,4.961L45,67.997
			l-13.241,4.875c-2.371,0.711-4.279,2.48-5.168,4.791L23,87h31.833H55h31.834L83.242,77.663z"/>
		<g>
			<polygon style="fill:#00B8A5;" points="59,87.022 56,79.022 57.999,76.024 54.981,73 51.983,75.998 54,79.022 51,87.022 			"/>
		</g>
		<g>
			<polygon style="fill:#00D6C1;" points="55,87.022 55,73.019 54.981,73 51.983,75.998 54,79.022 51,87.022 			"/>
		</g>
		<polygon style="fill:#0A3631;" points="66.952,68.777 54.917,86.875 42.882,68.777 33,72.416 33,87 54.833,87 55,87 76.834,87 
			76.834,72.416 		"/>
		<path style="fill:#AAF0E9;" d="M55,69v4l10-5v-6.567C62.159,65.829,58.284,67.905,55,69z"/>
		<path style="fill:#D7FCF9;" d="M45,61.433V68l10,5v-4C51.716,67.905,47.841,65.829,45,61.433z"/>
		<path style="fill:#D7FCF9;" d="M70,45c-0.277,0-0.632,0-1,0h-0.001l-2.155-0.431C62.283,43.657,59,39.652,59,35
			c-1.214,3.236-2.591,5.149-4,6.297C52.927,42.986,50.786,43,49,43v-4c-4.761,6.349-6.633,6.125-9.16,6.022
			C38.896,45.131,38,46.171,38,47.222c0,3.091,0.864,7.13,4.178,7.703C44.62,64.027,50.396,67.465,55,69
			c4.604-1.535,10.38-4.973,12.822-14.075C71.136,54.353,72,50.313,72,47.222C72,46.111,71,45,70,45z"/>
		<path style="fill:#FFFFFF;" d="M49,43v-4c-4.761,6.349-6.633,6.125-9.16,6.022C38.896,45.131,38,46.171,38,47.222
			c0,3.091,0.864,7.13,4.178,7.703C44.62,64.027,50.396,67.465,55,69V41.297C52.927,42.986,50.786,43,49,43z"/>
		<g>
			<path style="fill:#55C9BE;" d="M50,58h10c0,0,0,3-5,3S50,58,50,58z"/>
		</g>
		<g>
			<path style="fill:#0A3631;" d="M52.006,47c0-1.104-0.896-2-2-2c-0.002,0-0.004,0.001-0.006,0.001
				c0,0.021,0.006,0.041,0.006,0.062c0,1.102-0.892,1.996-1.994,1.999C48.046,48.137,48.923,49,50.006,49
				C51.111,49,52.006,48.104,52.006,47z"/>
		</g>
		<g>
			<path style="fill:#0A3631;" d="M62,47c0-1.104-0.896-2-2-2c-0.002,0-0.004,0.001-0.006,0.001C59.995,45.022,60,45.042,60,45.063
				c0,1.102-0.892,1.996-1.994,1.999C58.04,48.137,58.917,49,60,49C61.104,49,62,48.104,62,47z"/>
		</g>
		<path style="fill:#3E948B;" d="M79,34.75c-3.067-6.134-7.896-6.963-12.236-4.318C63.845,27.678,59.662,26,55,26
			c-8.462,0-15.373,5.508-15.944,13H39v6c3,0,4.726,1.032,10-6v4c3,0,7,0,10-8c0,4.652,3.283,8.657,7.845,9.569L69,45
			c0.368,0,0.723,0,1,0c1,0,2,1.111,2,2.222c0,2.686-0.655,6.084-3,7.306c0,1.162,0,2.327,0,3.472c0,9,13,9,13,5
			C70,64,83,42.75,79,34.75z"/>
		<path style="fill:#28B5A7;" d="M39.056,39H39v6c3,0,4.726,1.032,10-6v4c1.786,0,3.927-0.014,6-1.703V26
			C46.538,26,39.627,31.508,39.056,39z"/>
	</g>
</g>
<g id="R-Green" style="display:none;">
	<g style="display:inline;">
		<circle style="fill:#77E0C4;" cx="55" cy="55" r="55"/>
	</g>
	<g style="display:inline;">
		<path style="fill:#FFFFFF;" d="M83.242,77.663c-0.889-2.311-2.797-4.08-5.168-4.791l-13.241-4.875l-9.917,4.961L45,67.997
			l-13.241,4.875c-2.371,0.711-4.279,2.48-5.168,4.791L23,87h31.833H55h31.834L83.242,77.663z"/>
		<g>
			<polygon style="fill:#00B8A5;" points="59,87.022 56,79.022 57.999,76.024 54.981,73 51.983,75.998 54,79.022 51,87.022 			"/>
		</g>
		<g>
			<polygon style="fill:#00D6C1;" points="55,87.022 55,73.019 54.981,73 51.983,75.998 54,79.022 51,87.022 			"/>
		</g>
		<polygon style="fill:#0A3631;" points="66.952,68.777 54.916,86.875 42.882,68.777 33,72.416 33,87 54.833,87 55,87 76.834,87 
			76.834,72.416 		"/>
		<path style="fill:#AAF0E9;" d="M55,69v4l10-5v-6.567C62.159,65.829,58.284,67.905,55,69z"/>
		<path style="fill:#D7FCF9;" d="M45,61.433V68l10,5v-4C51.716,67.905,47.841,65.829,45,61.433z"/>
		<path style="fill:#D7FCF9;" d="M70,45c-0.277,0-0.632,0-1,0h-0.001l-2.155-0.431C62.283,43.657,59,39.652,59,35
			c-1.214,3.236-2.591,5.149-4,6.297C52.927,42.986,50.786,43,49,43v-4c-4.761,6.349-6.633,6.125-9.16,6.022
			C38.896,45.131,38,46.171,38,47.222c0,3.091,0.864,7.13,4.178,7.703C44.62,64.027,50.396,67.465,55,69
			c4.603-1.535,10.38-4.973,12.822-14.075C71.136,54.353,72,50.313,72,47.222C72,46.111,71,45,70,45z"/>
		<path style="fill:#FFFFFF;" d="M49,43v-4c-4.761,6.349-6.633,6.125-9.16,6.022C38.896,45.131,38,46.171,38,47.222
			c0,3.091,0.864,7.13,4.178,7.703C44.62,64.027,50.396,67.465,55,69V41.297C52.927,42.986,50.786,43,49,43z"/>
		<g>
			<path style="fill:#55C9BE;" d="M50,58h10c0,0,0,3-5,3S50,58,50,58z"/>
		</g>
		<g>
			<path style="fill:#0A3631;" d="M52.006,47c0-1.104-0.896-2-2-2c-0.002,0-0.004,0.001-0.006,0.001
				c0,0.021,0.006,0.041,0.006,0.062c0,1.102-0.892,1.996-1.994,1.999C48.046,48.137,48.923,49,50.006,49
				C51.111,49,52.006,48.104,52.006,47z"/>
		</g>
		<g>
			<path style="fill:#0A3631;" d="M62,47c0-1.104-0.896-2-2-2c-0.002,0-0.004,0.001-0.006,0.001C59.995,45.022,60,45.042,60,45.063
				c0,1.102-0.892,1.996-1.994,1.999C58.04,48.137,58.916,49,60,49C61.104,49,62,48.104,62,47z"/>
		</g>
		<path style="fill:#3E948B;" d="M79,34.75c-3.067-6.134-7.896-6.963-12.236-4.318C63.845,27.678,59.662,26,55,26
			c-8.462,0-15.373,5.508-15.944,13H39v6c3,0,4.726,1.032,10-6v4c3,0,7,0,10-8c0,4.652,3.283,8.657,7.845,9.569L69,45
			c0.368,0,0.723,0,1,0c1,0,2,1.111,2,2.222c0,2.686-0.655,6.084-3,7.306c0,1.162,0,2.327,0,3.472c0,9,13,9,13,5
			C70,64,83,42.75,79,34.75z"/>
		<path style="fill:#28B5A7;" d="M39.056,39H39v6c3,0,4.726,1.032,10-6v4c1.786,0,3.927-0.014,6-1.703V26
			C46.538,26,39.627,31.508,39.056,39z"/>
	</g>
</g>
<g id="Red" style="display:none;">
	<g style="display:inline;">
		<path style="fill:#FFFFFF;" d="M83.242,77.663c-0.889-2.311-2.797-4.08-5.168-4.791l-13.241-4.875l-9.917,4.961L45,67.997
			l-13.241,4.875c-2.371,0.711-4.279,2.48-5.168,4.791L23,87h31.833H55h31.834L83.242,77.663z"/>
		<g>
			<polygon style="fill:#E54B44;" points="59,87.022 56,79.022 57.999,76.024 54.981,73 51.983,75.998 54,79.022 51,87.022 			"/>
		</g>
		<g>
			<polygon style="fill:#FF6C5E;" points="55,87.022 55,73.019 54.981,73 51.983,75.998 54,79.022 51,87.022 			"/>
		</g>
		<polygon style="fill:#4A1410;" points="66.952,68.777 54.917,86.875 42.882,68.777 33,72.416 33,87 54.833,87 55,87 76.834,87 
			76.834,72.416 		"/>
		<path style="fill:#FFD7D4;" d="M55,69v4l10-5v-6.567C62.159,65.829,58.284,67.905,55,69z"/>
		<path style="fill:#FFEFED;" d="M45,61.433V68l10,5v-4C51.716,67.905,47.841,65.829,45,61.433z"/>
		<path style="fill:#FFEFED;" d="M70,45c-0.277,0-0.632,0-1,0h-0.001l-2.155-0.431C62.283,43.657,59,39.652,59,35
			c-1.214,3.236-2.591,5.149-4,6.297C52.927,42.986,50.786,43,49,43v-4c-4.761,6.349-6.633,6.125-9.16,6.022
			C38.896,45.131,38,46.171,38,47.222c0,3.091,0.864,7.13,4.178,7.703C44.62,64.027,50.396,67.465,55,69
			c4.604-1.535,10.38-4.973,12.822-14.075C71.136,54.353,72,50.313,72,47.222C72,46.111,71,45,70,45z"/>
		<path style="fill:#FFFFFF;" d="M49,43v-4c-4.761,6.349-6.633,6.125-9.16,6.022C38.896,45.131,38,46.171,38,47.222
			c0,3.091,0.864,7.13,4.178,7.703C44.62,64.027,50.396,67.465,55,69V41.297C52.927,42.986,50.786,43,49,43z"/>
		<g>
			<path style="fill:#E8A099;" d="M50,58h10c0,0,0,3-5,3S50,58,50,58z"/>
		</g>
		<g>
			<path style="fill:#4A1410;" d="M52.006,47c0-1.104-0.896-2-2-2c-0.002,0-0.004,0.001-0.006,0.001
				c0,0.021,0.006,0.041,0.006,0.062c0,1.102-0.892,1.996-1.994,1.999C48.046,48.137,48.923,49,50.006,49
				C51.111,49,52.006,48.104,52.006,47z"/>
		</g>
		<g>
			<path style="fill:#4A1410;" d="M62,47c0-1.104-0.896-2-2-2c-0.002,0-0.004,0.001-0.006,0.001C59.995,45.022,60,45.042,60,45.063
				c0,1.102-0.892,1.996-1.994,1.999C58.04,48.137,58.917,49,60,49C61.104,49,62,48.104,62,47z"/>
		</g>
		<path style="fill:#B84E44;" d="M79,34.75c-3.067-6.134-7.896-6.963-12.236-4.318C63.845,27.678,59.662,26,55,26
			c-8.462,0-15.373,5.508-15.944,13H39v6c3,0,4.726,1.032,10-6v4c3,0,7,0,10-8c0,4.652,3.283,8.657,7.845,9.569L69,45
			c0.368,0,0.723,0,1,0c1,0,2,1.111,2,2.222c0,2.686-0.655,6.084-3,7.306c0,1.162,0,2.327,0,3.472c0,9,13,9,13,5
			C70,64,83,42.75,79,34.75z"/>
		<path style="fill:#DB7D74;" d="M39.056,39H39v6c3,0,4.726,1.032,10-6v4c1.786,0,3.927-0.014,6-1.703V26
			C46.538,26,39.627,31.508,39.056,39z"/>
	</g>
</g>
<g id="R-Red" style="display:none;">
	<g style="display:inline;">
		<circle style="fill:#FABBAF;" cx="55" cy="55" r="55"/>
	</g>
	<g style="display:inline;">
		<path style="fill:#FFFFFF;" d="M83.242,77.663c-0.889-2.311-2.797-4.08-5.168-4.791l-13.241-4.875l-9.917,4.961L45,67.997
			l-13.241,4.875c-2.371,0.711-4.279,2.48-5.168,4.791L23,87h31.833H55h31.834L83.242,77.663z"/>
		<g>
			<polygon style="fill:#E54B44;" points="59,87.022 56,79.022 57.999,76.024 54.981,73 51.983,75.998 54,79.022 51,87.022 			"/>
		</g>
		<g>
			<polygon style="fill:#FF6C5E;" points="55,87.022 55,73.019 54.981,73 51.983,75.998 54,79.022 51,87.022 			"/>
		</g>
		<polygon style="fill:#4A1410;" points="66.952,68.777 54.916,86.875 42.882,68.777 33,72.416 33,87 54.833,87 55,87 76.834,87 
			76.834,72.416 		"/>
		<path style="fill:#FFD7D4;" d="M55,69v4l10-5v-6.567C62.159,65.829,58.284,67.905,55,69z"/>
		<path style="fill:#FFEFED;" d="M45,61.433V68l10,5v-4C51.716,67.905,47.841,65.829,45,61.433z"/>
		<path style="fill:#FFEFED;" d="M70,45c-0.277,0-0.632,0-1,0h-0.001l-2.155-0.431C62.283,43.657,59,39.652,59,35
			c-1.214,3.236-2.591,5.149-4,6.297C52.927,42.986,50.786,43,49,43v-4c-4.761,6.349-6.633,6.125-9.16,6.022
			C38.896,45.131,38,46.171,38,47.222c0,3.091,0.864,7.13,4.178,7.703C44.62,64.027,50.396,67.465,55,69
			c4.604-1.535,10.38-4.973,12.822-14.075C71.136,54.353,72,50.313,72,47.222C72,46.111,71,45,70,45z"/>
		<path style="fill:#FFFFFF;" d="M49,43v-4c-4.761,6.349-6.633,6.125-9.16,6.022C38.896,45.131,38,46.171,38,47.222
			c0,3.091,0.864,7.13,4.178,7.703C44.62,64.027,50.396,67.465,55,69V41.297C52.927,42.986,50.786,43,49,43z"/>
		<g>
			<path style="fill:#E8A099;" d="M50,58h10c0,0,0,3-5,3S50,58,50,58z"/>
		</g>
		<g>
			<path style="fill:#4A1410;" d="M52.006,47c0-1.104-0.896-2-2-2c-0.002,0-0.004,0.001-0.006,0.001
				c0,0.021,0.006,0.041,0.006,0.062c0,1.102-0.892,1.996-1.994,1.999C48.046,48.137,48.923,49,50.006,49
				C51.111,49,52.006,48.104,52.006,47z"/>
		</g>
		<g>
			<path style="fill:#4A1410;" d="M62,47c0-1.104-0.896-2-2-2c-0.002,0-0.004,0.001-0.006,0.001C59.995,45.022,60,45.042,60,45.063
				c0,1.102-0.892,1.996-1.994,1.999C58.04,48.137,58.917,49,60,49C61.104,49,62,48.104,62,47z"/>
		</g>
		<path style="fill:#B84E44;" d="M79,34.75c-3.067-6.134-7.896-6.963-12.236-4.318C63.845,27.678,59.662,26,55,26
			c-8.462,0-15.373,5.508-15.944,13H39v6c3,0,4.726,1.032,10-6v4c3,0,7,0,10-8c0,4.652,3.283,8.657,7.845,9.569L69,45
			c0.368,0,0.723,0,1,0c1,0,2,1.111,2,2.222c0,2.686-0.655,6.084-3,7.306c0,1.162,0,2.327,0,3.472c0,9,13,9,13,5
			C70,64,83,42.75,79,34.75z"/>
		<path style="fill:#DB7D74;" d="M39.056,39H39v6c3,0,4.726,1.032,10-6v4c1.786,0,3.927-0.014,6-1.703V26
			C46.538,26,39.627,31.508,39.056,39z"/>
	</g>
</g>
<g id="Yellow" style="display:none;">
	<g style="display:inline;">
		<path style="fill:#FFFFFF;" d="M83.242,77.663c-0.889-2.311-2.797-4.08-5.168-4.791l-13.241-4.875l-9.917,4.961L45,67.997
			l-13.241,4.875c-2.371,0.711-4.279,2.48-5.168,4.791L23,87h31.833H55h31.834L83.242,77.663z"/>
		<g>
			<polygon style="fill:#FA9200;" points="59,87.022 56,79.022 57.999,76.024 54.981,73 51.983,75.998 54,79.022 51,87.022 			"/>
		</g>
		<g>
			<polygon style="fill:#FFAA00;" points="55,87.022 55,73.019 54.981,73 51.983,75.998 54,79.022 51,87.022 			"/>
		</g>
		<polygon style="fill:#3D320C;" points="66.952,68.777 54.917,86.875 42.882,68.777 33,72.416 33,87 54.833,87 55,87 76.834,87 
			76.834,72.416 		"/>
		<path style="fill:#FFE9A1;" d="M55,69v4l10-5v-6.567C62.159,65.829,58.284,67.905,55,69z"/>
		<path style="fill:#FFF5D9;" d="M45,61.433V68l10,5v-4C51.716,67.905,47.841,65.829,45,61.433z"/>
		<path style="fill:#FFF5D9;" d="M70,45c-0.277,0-0.632,0-1,0h-0.001l-2.155-0.431C62.283,43.657,59,39.652,59,35
			c-1.214,3.236-2.591,5.149-4,6.297C52.927,42.986,50.786,43,49,43v-4c-4.761,6.349-6.633,6.125-9.16,6.022
			C38.896,45.131,38,46.171,38,47.222c0,3.091,0.864,7.13,4.178,7.703C44.62,64.027,50.396,67.465,55,69
			c4.604-1.535,10.38-4.973,12.822-14.075C71.136,54.353,72,50.313,72,47.222C72,46.111,71,45,70,45z"/>
		<path style="fill:#FFFFFF;" d="M49,43v-4c-4.761,6.349-6.633,6.125-9.16,6.022C38.896,45.131,38,46.171,38,47.222
			c0,3.091,0.864,7.13,4.178,7.703C44.62,64.027,50.396,67.465,55,69V41.297C52.927,42.986,50.786,43,49,43z"/>
		<g>
			<path style="fill:#F5C43D;" d="M50,58h10c0,0,0,3-5,3S50,58,50,58z"/>
		</g>
		<g>
			<path style="fill:#3D320C;" d="M52.006,47c0-1.104-0.896-2-2-2c-0.002,0-0.004,0.001-0.006,0.001
				c0,0.021,0.006,0.041,0.006,0.062c0,1.102-0.892,1.996-1.994,1.999C48.046,48.137,48.923,49,50.006,49
				C51.111,49,52.006,48.104,52.006,47z"/>
		</g>
		<g>
			<path style="fill:#3D320C;" d="M62,47c0-1.104-0.896-2-2-2c-0.002,0-0.004,0.001-0.006,0.001C59.995,45.022,60,45.042,60,45.063
				c0,1.102-0.892,1.996-1.994,1.999C58.04,48.137,58.917,49,60,49C61.104,49,62,48.104,62,47z"/>
		</g>
		<path style="fill:#947615;" d="M79,34.75c-3.067-6.134-7.896-6.963-12.236-4.318C63.845,27.678,59.662,26,55,26
			c-8.462,0-15.373,5.508-15.944,13H39v6c3,0,4.726,1.032,10-6v4c3,0,7,0,10-8c0,4.652,3.283,8.657,7.845,9.569L69,45
			c0.368,0,0.723,0,1,0c1,0,2,1.111,2,2.222c0,2.686-0.655,6.084-3,7.306c0,1.162,0,2.327,0,3.472c0,9,13,9,13,5
			C70,64,83,42.75,79,34.75z"/>
		<path style="fill:#D4A420;" d="M39.056,39H39v6c3,0,4.726,1.032,10-6v4c1.786,0,3.927-0.014,6-1.703V26
			C46.538,26,39.627,31.508,39.056,39z"/>
	</g>
</g>
<g id="R-Yellow" style="display:none;">
	<g style="display:inline;">
		<circle style="fill:#FFD75E;" cx="55" cy="55" r="55"/>
	</g>
	<g style="display:inline;">
		<path style="fill:#FFFFFF;" d="M83.242,77.663c-0.889-2.311-2.797-4.08-5.168-4.791l-13.241-4.875l-9.917,4.961L45,67.997
			l-13.241,4.875c-2.371,0.711-4.279,2.48-5.168,4.791L23,87h31.833H55h31.834L83.242,77.663z"/>
		<g>
			<polygon style="fill:#FA9200;" points="59,87.022 56,79.022 57.999,76.024 54.981,73 51.983,75.998 54,79.022 51,87.022 			"/>
		</g>
		<g>
			<polygon style="fill:#FFAA00;" points="55,87.022 55,73.019 54.981,73 51.983,75.998 54,79.022 51,87.022 			"/>
		</g>
		<polygon style="fill:#3D320C;" points="66.952,68.777 54.917,86.875 42.882,68.777 33,72.416 33,87 54.833,87 55,87 76.834,87 
			76.834,72.416 		"/>
		<path style="fill:#FFE9A1;" d="M55,69v4l10-5v-6.567C62.159,65.829,58.284,67.905,55,69z"/>
		<path style="fill:#FFF5D9;" d="M45,61.433V68l10,5v-4C51.716,67.905,47.841,65.829,45,61.433z"/>
		<path style="fill:#FFF5D9;" d="M70,45c-0.277,0-0.632,0-1,0h-0.001l-2.155-0.431C62.283,43.657,59,39.652,59,35
			c-1.214,3.236-2.591,5.149-4,6.297C52.927,42.986,50.786,43,49,43v-4c-4.761,6.349-6.633,6.125-9.16,6.022
			C38.896,45.131,38,46.171,38,47.222c0,3.091,0.864,7.13,4.178,7.703C44.62,64.027,50.396,67.465,55,69
			c4.604-1.535,10.38-4.973,12.822-14.075C71.136,54.353,72,50.313,72,47.222C72,46.111,71,45,70,45z"/>
		<path style="fill:#FFFFFF;" d="M49,43v-4c-4.761,6.349-6.633,6.125-9.16,6.022C38.896,45.131,38,46.171,38,47.222
			c0,3.091,0.864,7.13,4.178,7.703C44.62,64.027,50.396,67.465,55,69V41.297C52.927,42.986,50.786,43,49,43z"/>
		<g>
			<path style="fill:#F5C43D;" d="M50,58h10c0,0,0,3-5,3S50,58,50,58z"/>
		</g>
		<g>
			<path style="fill:#3D320C;" d="M52.006,47c0-1.104-0.896-2-2-2c-0.002,0-0.004,0.001-0.006,0.001
				c0,0.021,0.006,0.041,0.006,0.062c0,1.102-0.892,1.996-1.994,1.999C48.046,48.137,48.923,49,50.006,49
				C51.111,49,52.006,48.104,52.006,47z"/>
		</g>
		<g>
			<path style="fill:#3D320C;" d="M62,47c0-1.104-0.896-2-2-2c-0.002,0-0.004,0.001-0.006,0.001C59.995,45.022,60,45.042,60,45.063
				c0,1.102-0.892,1.996-1.994,1.999C58.04,48.137,58.917,49,60,49C61.104,49,62,48.104,62,47z"/>
		</g>
		<path style="fill:#947615;" d="M79,34.75c-3.067-6.134-7.896-6.963-12.236-4.318C63.845,27.678,59.662,26,55,26
			c-8.462,0-15.373,5.508-15.944,13H39v6c3,0,4.726,1.032,10-6v4c3,0,7,0,10-8c0,4.652,3.283,8.657,7.845,9.569L69,45
			c0.368,0,0.723,0,1,0c1,0,2,1.111,2,2.222c0,2.686-0.655,6.084-3,7.306c0,1.162,0,2.327,0,3.472c0,9,13,9,13,5
			C70,64,83,42.75,79,34.75z"/>
		<path style="fill:#D4A420;" d="M39.056,39H39v6c3,0,4.726,1.032,10-6v4c1.786,0,3.927-0.014,6-1.703V26
			C46.538,26,39.627,31.508,39.056,39z"/>
	</g>
</g>
</svg>
