<?xml version="1.0" encoding="iso-8859-1"?>
<!-- Generator: Adobe Illustrator 17.1.0, SVG Export Plug-In . SVG Version: 6.00 Build 0)  -->
<!DOCTYPE svg PUBLIC "-//W3C//DTD SVG 1.0//EN" "http://www.w3.org/TR/2001/REC-SVG-20010904/DTD/svg10.dtd">
<svg version="1.0" xmlns="http://www.w3.org/2000/svg" xmlns:xlink="http://www.w3.org/1999/xlink" x="0px" y="0px" width="110px"
	 height="110px" viewBox="0 0 110 110" style="enable-background:new 0 0 110 110;" xml:space="preserve">
<g id="Artboard" style="display:none;">
	
		<rect x="-305.5" y="-432.5" style="display:inline;fill:#808080;stroke:#000000;stroke-miterlimit:10;" width="1362" height="598"/>
</g>
<g id="R-Multicolor" style="display:none;">
	<g style="display:inline;">
		<circle style="fill:#E04F5F;" cx="55" cy="55" r="55"/>
	</g>
	<g style="display:inline;">
		<g>
			<path style="fill:#FBC8C8;" d="M41.115,47.072c-0.374,0-0.746-0.019-1.115-0.072c-1,0-2,1.111-2,2.222
				c0,2.92,0.774,6.684,3.655,7.574L41.115,47.072z"/>
			<path style="fill:#FBC8C8;" d="M70,47c-0.369,0.053-0.742,0.072-1.115,0.072l-0.54,9.724C71.226,55.906,72,52.143,72,49.222
				C72,48.111,71,47,70,47z"/>
			<path style="fill:#FBC8C8;" d="M66,46.628C60.271,44.93,55,39,55,39s-5.271,5.93-11,7.628v15.078
				c2.876,5.605,7.312,8.064,11,9.294c3.687-1.229,8.124-3.689,11-9.294V46.628z"/>
		</g>
		<path style="fill:#F3B607;" d="M83.409,79.663c-0.889-2.311-2.797-4.08-5.168-4.791L65,72H55H45l-13.241,2.872
			c-2.371,0.711-4.279,2.48-5.168,4.791L23,87h32h32L83.409,79.663z"/>
		<path style="fill:#F7B4B4;" d="M65,68v-4.544c-2.842,4.387-6.719,6.451-10,7.544v16h2l8-16.15V68z"/>
		<g>
			<path style="fill:#FFFFFF;" d="M65,70.85V68c2.602,0.618,4.938,1.989,6.683,3.924L75,75.6h-7l0.14,0.265
				C70.589,80.518,67.43,87,57,87L65,70.85z"/>
		</g>
		<path style="fill:#FBC8C8;" d="M45,63.456V68v2.85L53,87h2V71C51.719,69.906,47.842,67.843,45,63.456z"/>
		<g>
			<path style="fill:#FFFFFF;" d="M45,70.85V68c-2.602,0.618-4.938,1.989-6.683,3.924L35,75.6h7l-0.14,0.265
				C39.411,80.518,42.57,87,53,87L45,70.85z"/>
		</g>
		<g>
			<path style="fill:#FBD7D7;" d="M41.115,47.072c-0.374,0-0.746-0.019-1.115-0.072c-1,0-2,1.111-2,2.222
				c0,2.92,0.774,6.684,3.655,7.574L41.115,47.072z"/>
			<path style="fill:#FBD7D7;" d="M44,46.628v15.078c2.876,5.605,7.312,8.064,11,9.294V39C55,39,49.729,44.93,44,46.628z"/>
		</g>
		<g>
			<path style="fill:#F79392;" d="M50,60h10c0,0,0,3-5,3S50,60,50,60z"/>
		</g>
		<g>
			<path style="fill:#3E3E3F;" d="M52.006,49c0-1.104-0.896-2-2-2c-0.002,0-0.004,0-0.006,0c0.001,0.021,0.006,0.041,0.006,0.062
				c0,1.103-0.892,1.996-1.994,2C48.046,50.137,48.923,51,50.006,51C51.111,51,52.006,50.104,52.006,49z"/>
		</g>
		<g>
			<path style="fill:#3E3E3F;" d="M62,49c0-1.104-0.896-2-2-2c-0.002,0-0.004,0-0.006,0C59.995,47.021,60,47.042,60,47.062
				c0,1.103-0.892,1.996-1.994,2C58.04,50.137,58.917,51,60,51C61.104,51,62,50.104,62,49z"/>
		</g>
		<path style="fill:#3E3E3F;" d="M60.879,30.205C60.958,29.815,61,29.413,61,29c0-3.313-2.687-6-6-6s-6,2.687-6,6
			c0,0.413,0.042,0.815,0.121,1.205C42.023,31.51,36.07,36.783,40,47c0.369,0.053,0.742,0.072,1.115,0.072l0.633,11.394
			C41.937,61.863,42.142,64.522,44,67V46.628C49.729,44.93,55,39,55,39s5.271,5.93,11,7.628V67c1.858-2.478,2.063-5.137,2.252-8.535
			l0.633-11.394c0.374,0,0.746-0.019,1.115-0.072C73.93,36.783,67.977,31.51,60.879,30.205z"/>
	</g>
</g>
<g id="Multicolor">
	<g>
		<g>
			<path style="fill:#FBC8C8;" d="M41.115,47.072c-0.374,0-0.746-0.019-1.115-0.072c-1,0-2,1.111-2,2.222
				c0,2.92,0.774,6.684,3.655,7.574L41.115,47.072z"/>
			<path style="fill:#FBC8C8;" d="M70,47c-0.369,0.053-0.742,0.072-1.115,0.072l-0.54,9.724C71.226,55.906,72,52.143,72,49.222
				C72,48.111,71,47,70,47z"/>
			<path style="fill:#FBC8C8;" d="M66,46.628C60.271,44.93,55,39,55,39s-5.271,5.93-11,7.628v15.078
				c2.876,5.605,7.312,8.064,11,9.294c3.687-1.229,8.124-3.689,11-9.294V46.628z"/>
		</g>
		<path style="fill:#F3B607;" d="M83.409,79.663c-0.889-2.311-2.797-4.08-5.168-4.791L65,72H55H45l-13.241,2.872
			c-2.371,0.711-4.279,2.48-5.168,4.791L23,87h32h32L83.409,79.663z"/>
		<path style="fill:#F7B4B4;" d="M65,68v-4.544c-2.842,4.387-6.719,6.451-10,7.544v16h2l8-16.15V68z"/>
		<g>
			<path style="fill:#FFFFFF;" d="M65,70.85V68c2.602,0.618,4.938,1.989,6.683,3.924L75,75.6h-7l0.14,0.265
				C70.589,80.518,67.43,87,57,87L65,70.85z"/>
		</g>
		<path style="fill:#FBC8C8;" d="M45,63.456V68v2.85L53,87h2V71C51.719,69.906,47.842,67.843,45,63.456z"/>
		<g>
			<path style="fill:#FFFFFF;" d="M45,70.85V68c-2.602,0.618-4.938,1.989-6.683,3.924L35,75.6h7l-0.14,0.265
				C39.411,80.518,42.57,87,53,87L45,70.85z"/>
		</g>
		<g>
			<path style="fill:#FBD7D7;" d="M41.115,47.072c-0.374,0-0.746-0.019-1.115-0.072c-1,0-2,1.111-2,2.222
				c0,2.92,0.774,6.684,3.655,7.574L41.115,47.072z"/>
			<path style="fill:#FBD7D7;" d="M44,46.628v15.078c2.876,5.605,7.312,8.064,11,9.294V39C55,39,49.729,44.93,44,46.628z"/>
		</g>
		<g>
			<path style="fill:#F79392;" d="M50,60h10c0,0,0,3-5,3S50,60,50,60z"/>
		</g>
		<g>
			<path style="fill:#3E3E3F;" d="M52.006,49c0-1.104-0.896-2-2-2c-0.002,0-0.004,0-0.006,0c0.001,0.021,0.006,0.041,0.006,0.062
				c0,1.103-0.892,1.996-1.994,2C48.046,50.137,48.923,51,50.006,51C51.111,51,52.006,50.104,52.006,49z"/>
		</g>
		<g>
			<path style="fill:#3E3E3F;" d="M62,49c0-1.104-0.896-2-2-2c-0.002,0-0.004,0-0.006,0C59.995,47.021,60,47.042,60,47.062
				c0,1.103-0.892,1.996-1.994,2C58.04,50.137,58.917,51,60,51C61.104,51,62,50.104,62,49z"/>
		</g>
		<path style="fill:#3E3E3F;" d="M60.879,30.205C60.958,29.815,61,29.413,61,29c0-3.313-2.687-6-6-6s-6,2.687-6,6
			c0,0.413,0.042,0.815,0.121,1.205C42.023,31.51,36.07,36.783,40,47c0.369,0.053,0.742,0.072,1.115,0.072l0.633,11.394
			C41.937,61.863,42.142,64.522,44,67V46.628C49.729,44.93,55,39,55,39s5.271,5.93,11,7.628V67c1.858-2.478,2.063-5.137,2.252-8.535
			l0.633-11.394c0.374,0,0.746-0.019,1.115-0.072C73.93,36.783,67.977,31.51,60.879,30.205z"/>
	</g>
</g>
<g id="Blue" style="display:none;">
	<g style="display:inline;">
		<g>
			<path style="fill:#E1F5FA;" d="M41.115,47.072c-0.374,0-0.746-0.019-1.115-0.072c-1,0-2,1.111-2,2.222
				c0,2.92,0.774,6.684,3.655,7.574L41.115,47.072z"/>
			<path style="fill:#E1F5FA;" d="M70,47c-0.369,0.053-0.742,0.072-1.115,0.072l-0.54,9.724C71.226,55.906,72,52.143,72,49.222
				C72,48.111,71,47,70,47z"/>
			<path style="fill:#E1F5FA;" d="M66,46.628C60.271,44.93,55,39,55,39s-5.271,5.93-11,7.628v15.078
				c2.875,5.604,7.312,8.064,11,9.294c3.687-1.229,8.123-3.689,11-9.294V46.628z"/>
		</g>
		<path style="fill:#009FC7;" d="M83.409,79.663c-0.889-2.311-2.797-4.08-5.168-4.791L65,72H55H45l-13.241,2.872
			c-2.371,0.711-4.279,2.48-5.168,4.791L23,87h32h32L83.409,79.663z"/>
		<path style="fill:#BBE7F2;" d="M65,68v-4.544c-2.842,4.387-6.719,6.451-10,7.544v16h2l8-16.15V68z"/>
		<g>
			<path style="fill:#FFFFFF;" d="M65,70.85V68c2.602,0.618,4.938,1.989,6.683,3.924L75,75.6h-7l0.14,0.265
				C70.588,80.519,67.43,87,57,87L65,70.85z"/>
		</g>
		<path style="fill:#E1F5FA;" d="M45,63.456V68v2.85L53,87h2V71C51.719,69.906,47.842,67.843,45,63.456z"/>
		<g>
			<path style="fill:#FFFFFF;" d="M45,70.85V68c-2.602,0.618-4.938,1.989-6.683,3.924L35,75.6h7l-0.14,0.265
				C39.412,80.519,42.57,87,53,87L45,70.85z"/>
		</g>
		<g>
			<path style="fill:#FFFFFF;" d="M41.115,47.072c-0.374,0-0.746-0.019-1.115-0.072c-1,0-2,1.111-2,2.222
				c0,2.92,0.774,6.684,3.655,7.574L41.115,47.072z"/>
			<path style="fill:#FFFFFF;" d="M44,46.628v15.078c2.875,5.604,7.312,8.064,11,9.294V39C55,39,49.729,44.93,44,46.628z"/>
		</g>
		<g>
			<path style="fill:#53BAD4;" d="M50,60h10c0,0,0,3-5,3S50,60,50,60z"/>
		</g>
		<g>
			<path style="fill:#0C333D;" d="M52.006,49c0-1.104-0.896-2-2-2c-0.002,0-0.004,0-0.006,0c0,0.021,0.006,0.041,0.006,0.062
				c0,1.102-0.892,1.996-1.994,1.999C48.046,50.137,48.923,51,50.006,51C51.111,51,52.006,50.104,52.006,49z"/>
		</g>
		<g>
			<path style="fill:#0C333D;" d="M62,49c0-1.104-0.896-2-2-2c-0.002,0-0.004,0-0.006,0C59.995,47.021,60,47.042,60,47.062
				c0,1.102-0.892,1.996-1.994,1.999C58.04,50.137,58.917,51,60,51C61.104,51,62,50.104,62,49z"/>
		</g>
		<path style="fill:#0C333D;" d="M60.879,30.205C60.957,29.815,61,29.413,61,29c0-3.313-2.687-6-6-6c-3.314,0-6,2.687-6,6
			c0,0.413,0.042,0.815,0.121,1.205C42.023,31.51,36.07,36.783,40,47c0.369,0.053,0.742,0.072,1.115,0.072l0.632,11.394
			C41.936,61.863,42.142,64.522,44,67V46.628C49.729,44.93,55,39,55,39s5.271,5.93,11,7.628V67c1.858-2.478,2.062-5.137,2.251-8.535
			l0.633-11.394c0.374,0,0.746-0.019,1.115-0.072C73.93,36.783,67.977,31.51,60.879,30.205z"/>
	</g>
</g>
<g id="R-Blue" style="display:none;">
	<g style="display:inline;">
		<circle style="fill:#81D2EB;" cx="55" cy="55" r="55"/>
	</g>
	<g style="display:inline;">
		<g>
			<path style="fill:#E1F5FA;" d="M41.115,47.072c-0.374,0-0.746-0.019-1.115-0.072c-1,0-2,1.111-2,2.222
				c0,2.92,0.774,6.684,3.655,7.574L41.115,47.072z"/>
			<path style="fill:#E1F5FA;" d="M70,47c-0.369,0.053-0.742,0.072-1.115,0.072l-0.54,9.724C71.226,55.906,72,52.143,72,49.222
				C72,48.111,71,47,70,47z"/>
			<path style="fill:#E1F5FA;" d="M66,46.628C60.271,44.93,55,39,55,39s-5.272,5.93-11,7.628v15.078
				c2.875,5.604,7.312,8.064,11,9.294c3.687-1.229,8.123-3.689,11-9.294V46.628z"/>
		</g>
		<path style="fill:#009FC7;" d="M83.409,79.663c-0.889-2.311-2.797-4.08-5.168-4.791L65,72H55H45l-13.241,2.872
			c-2.371,0.711-4.279,2.48-5.168,4.791L23,87h32h32L83.409,79.663z"/>
		<path style="fill:#BBE7F2;" d="M65,68v-4.544c-2.842,4.387-6.719,6.451-10,7.544v16h2l8-16.15V68z"/>
		<g>
			<path style="fill:#FFFFFF;" d="M65,70.85V68c2.602,0.618,4.938,1.989,6.683,3.924L75,75.6h-7l0.14,0.265
				C70.588,80.519,67.43,87,57,87L65,70.85z"/>
		</g>
		<path style="fill:#E1F5FA;" d="M45,63.456V68v2.85L53,87h2V71C51.719,69.906,47.842,67.843,45,63.456z"/>
		<g>
			<path style="fill:#FFFFFF;" d="M45,70.85V68c-2.602,0.618-4.938,1.989-6.683,3.924L35,75.6h7l-0.14,0.265
				C39.412,80.519,42.57,87,53,87L45,70.85z"/>
		</g>
		<g>
			<path style="fill:#FFFFFF;" d="M41.115,47.072c-0.374,0-0.746-0.019-1.115-0.072c-1,0-2,1.111-2,2.222
				c0,2.92,0.774,6.684,3.655,7.574L41.115,47.072z"/>
			<path style="fill:#FFFFFF;" d="M44,46.628v15.078c2.875,5.604,7.312,8.064,11,9.294V39C55,39,49.728,44.93,44,46.628z"/>
		</g>
		<g>
			<path style="fill:#53BAD4;" d="M50,60h10c0,0,0,3-5,3S50,60,50,60z"/>
		</g>
		<g>
			<path style="fill:#0C333D;" d="M52.006,49c0-1.104-0.896-2-2-2c-0.002,0-0.004,0-0.006,0c0,0.021,0.006,0.041,0.006,0.062
				c0,1.102-0.892,1.996-1.994,1.999C48.046,50.137,48.923,51,50.006,51C51.111,51,52.006,50.104,52.006,49z"/>
		</g>
		<g>
			<path style="fill:#0C333D;" d="M62,49c0-1.104-0.896-2-2-2c-0.002,0-0.004,0-0.006,0C59.995,47.021,60,47.042,60,47.062
				c0,1.102-0.892,1.996-1.994,1.999C58.04,50.137,58.916,51,60,51C61.104,51,62,50.104,62,49z"/>
		</g>
		<path style="fill:#0C333D;" d="M60.879,30.205C60.957,29.815,61,29.413,61,29c0-3.313-2.687-6-6-6c-3.314,0-6,2.687-6,6
			c0,0.413,0.041,0.815,0.121,1.205C42.023,31.51,36.07,36.783,40,47c0.369,0.053,0.742,0.072,1.115,0.072l0.632,11.394
			C41.936,61.863,42.142,64.522,44,67V46.628C49.728,44.93,55,39,55,39s5.271,5.93,11,7.628V67c1.858-2.478,2.062-5.137,2.251-8.535
			l0.633-11.394c0.373,0,0.746-0.019,1.115-0.072C73.93,36.783,67.977,31.51,60.879,30.205z"/>
	</g>
</g>
<g id="Green" style="display:none;">
	<g style="display:inline;">
		<g>
			<path style="fill:#D7FCF9;" d="M41.115,47.072c-0.374,0-0.746-0.019-1.115-0.072c-1,0-2,1.111-2,2.222
				c0,2.92,0.774,6.684,3.655,7.574L41.115,47.072z"/>
			<path style="fill:#D7FCF9;" d="M70,47c-0.369,0.053-0.742,0.072-1.115,0.072l-0.54,9.724C71.226,55.906,72,52.143,72,49.222
				C72,48.111,71,47,70,47z"/>
			<path style="fill:#D7FCF9;" d="M66,46.628C60.271,44.93,55,39,55,39s-5.272,5.93-11,7.628v15.078
				c2.875,5.604,7.312,8.064,11,9.294c3.687-1.229,8.123-3.689,11-9.294V46.628z"/>
		</g>
		<path style="fill:#00B8A5;" d="M83.409,79.663c-0.889-2.311-2.797-4.08-5.168-4.791L65,72H55H45l-13.241,2.872
			c-2.371,0.711-4.279,2.48-5.168,4.791L23,87h32h32L83.409,79.663z"/>
		<path style="fill:#AAF0E9;" d="M65,68v-4.544c-2.842,4.387-6.719,6.451-10,7.544v16h2l8-16.15V68z"/>
		<g>
			<path style="fill:#FFFFFF;" d="M65,70.85V68c2.602,0.618,4.938,1.989,6.683,3.924L75,75.6h-7l0.14,0.265
				C70.588,80.519,67.43,87,57,87L65,70.85z"/>
		</g>
		<path style="fill:#D7FCF9;" d="M45,63.456V68v2.85L53,87h2V71C51.719,69.906,47.842,67.843,45,63.456z"/>
		<g>
			<path style="fill:#FFFFFF;" d="M45,70.85V68c-2.602,0.618-4.938,1.989-6.683,3.924L35,75.6h7l-0.14,0.265
				C39.412,80.519,42.57,87,53,87L45,70.85z"/>
		</g>
		<g>
			<path style="fill:#FFFFFF;" d="M41.115,47.072c-0.374,0-0.746-0.019-1.115-0.072c-1,0-2,1.111-2,2.222
				c0,2.92,0.774,6.684,3.655,7.574L41.115,47.072z"/>
			<path style="fill:#FFFFFF;" d="M44,46.628v15.078c2.875,5.604,7.312,8.064,11,9.294V39C55,39,49.728,44.93,44,46.628z"/>
		</g>
		<g>
			<path style="fill:#55C9BE;" d="M50,60h10c0,0,0,3-5,3S50,60,50,60z"/>
		</g>
		<g>
			<path style="fill:#0A3631;" d="M52.006,49c0-1.104-0.896-2-2-2c-0.002,0-0.004,0-0.006,0c0,0.021,0.006,0.041,0.006,0.062
				c0,1.102-0.892,1.996-1.994,1.999C48.046,50.137,48.923,51,50.006,51C51.111,51,52.006,50.104,52.006,49z"/>
		</g>
		<g>
			<path style="fill:#0A3631;" d="M62,49c0-1.104-0.896-2-2-2c-0.002,0-0.004,0-0.006,0C59.995,47.021,60,47.042,60,47.062
				c0,1.102-0.892,1.996-1.994,1.999C58.04,50.137,58.916,51,60,51C61.104,51,62,50.104,62,49z"/>
		</g>
		<path style="fill:#0A3631;" d="M60.879,30.205C60.957,29.815,61,29.413,61,29c0-3.313-2.687-6-6-6c-3.314,0-6,2.687-6,6
			c0,0.413,0.041,0.815,0.121,1.205C42.023,31.51,36.07,36.783,40,47c0.369,0.053,0.742,0.072,1.115,0.072l0.632,11.394
			C41.936,61.863,42.142,64.522,44,67V46.628C49.728,44.93,55,39,55,39s5.271,5.93,11,7.628V67c1.858-2.478,2.062-5.137,2.251-8.535
			l0.633-11.394c0.373,0,0.746-0.019,1.115-0.072C73.93,36.783,67.977,31.51,60.879,30.205z"/>
	</g>
</g>
<g id="R-Green" style="display:none;">
	<g style="display:inline;">
		<circle style="fill:#77E0C4;" cx="55" cy="55" r="55"/>
	</g>
	<g style="display:inline;">
		<g>
			<path style="fill:#D7FCF9;" d="M41.115,47.072c-0.374,0-0.746-0.019-1.115-0.072c-1,0-2,1.111-2,2.222
				c0,2.92,0.774,6.684,3.655,7.574L41.115,47.072z"/>
			<path style="fill:#D7FCF9;" d="M70,47c-0.369,0.053-0.742,0.072-1.115,0.072l-0.54,9.724C71.226,55.906,72,52.143,72,49.222
				C72,48.111,71,47,70,47z"/>
			<path style="fill:#D7FCF9;" d="M66,46.628C60.271,44.93,55,39,55,39s-5.272,5.93-11,7.628v15.078
				c2.875,5.604,7.312,8.064,11,9.294c3.687-1.229,8.123-3.689,11-9.294V46.628z"/>
		</g>
		<path style="fill:#00B8A5;" d="M83.409,79.663c-0.889-2.311-2.797-4.08-5.168-4.791L65,72H55H45l-13.241,2.872
			c-2.371,0.711-4.279,2.48-5.168,4.791L23,87h32h32L83.409,79.663z"/>
		<path style="fill:#AAF0E9;" d="M65,68v-4.544c-2.842,4.387-6.719,6.451-10,7.544v16h2l8-16.15V68z"/>
		<g>
			<path style="fill:#FFFFFF;" d="M65,70.85V68c2.602,0.618,4.938,1.989,6.683,3.924L75,75.6h-7l0.14,0.265
				C70.588,80.519,67.43,87,57,87L65,70.85z"/>
		</g>
		<path style="fill:#D7FCF9;" d="M45,63.456V68v2.85L53,87h2V71C51.719,69.906,47.842,67.843,45,63.456z"/>
		<g>
			<path style="fill:#FFFFFF;" d="M45,70.85V68c-2.602,0.618-4.938,1.989-6.683,3.924L35,75.6h7l-0.14,0.265
				C39.412,80.519,42.57,87,53,87L45,70.85z"/>
		</g>
		<g>
			<path style="fill:#FFFFFF;" d="M41.115,47.072c-0.374,0-0.746-0.019-1.115-0.072c-1,0-2,1.111-2,2.222
				c0,2.92,0.774,6.684,3.655,7.574L41.115,47.072z"/>
			<path style="fill:#FFFFFF;" d="M44,46.628v15.078c2.875,5.604,7.312,8.064,11,9.294V39C55,39,49.728,44.93,44,46.628z"/>
		</g>
		<g>
			<path style="fill:#55C9BE;" d="M50,60h10c0,0,0,3-5,3S50,60,50,60z"/>
		</g>
		<g>
			<path style="fill:#0A3631;" d="M52.006,49c0-1.104-0.896-2-2-2c-0.002,0-0.004,0-0.006,0c0,0.021,0.006,0.041,0.006,0.062
				c0,1.102-0.892,1.996-1.994,1.999C48.046,50.137,48.923,51,50.006,51C51.111,51,52.006,50.104,52.006,49z"/>
		</g>
		<g>
			<path style="fill:#0A3631;" d="M62,49c0-1.104-0.896-2-2-2c-0.002,0-0.004,0-0.006,0C59.995,47.021,60,47.042,60,47.062
				c0,1.102-0.892,1.996-1.994,1.999C58.04,50.137,58.916,51,60,51C61.104,51,62,50.104,62,49z"/>
		</g>
		<path style="fill:#0A3631;" d="M60.879,30.205C60.957,29.815,61,29.413,61,29c0-3.313-2.687-6-6-6c-3.314,0-6,2.687-6,6
			c0,0.413,0.041,0.815,0.121,1.205C42.023,31.51,36.07,36.783,40,47c0.369,0.053,0.742,0.072,1.115,0.072l0.632,11.394
			C41.936,61.863,42.142,64.522,44,67V46.628C49.728,44.93,55,39,55,39s5.271,5.93,11,7.628V67c1.858-2.478,2.062-5.137,2.251-8.535
			l0.633-11.394c0.373,0,0.746-0.019,1.115-0.072C73.93,36.783,67.977,31.51,60.879,30.205z"/>
	</g>
</g>
<g id="Red" style="display:none;">
	<g style="display:inline;">
		<g>
			<path style="fill:#FFEFED;" d="M41.115,47.072c-0.374,0-0.746-0.019-1.115-0.072c-1,0-2,1.111-2,2.222
				c0,2.92,0.774,6.684,3.655,7.574L41.115,47.072z"/>
			<path style="fill:#FFEFED;" d="M70,47c-0.369,0.053-0.742,0.072-1.115,0.072l-0.54,9.724C71.226,55.906,72,52.143,72,49.222
				C72,48.111,71,47,70,47z"/>
			<path style="fill:#FFEFED;" d="M66,46.628C60.271,44.93,55,39,55,39s-5.272,5.93-11,7.628v15.078
				c2.875,5.604,7.312,8.064,11,9.294c3.687-1.229,8.123-3.689,11-9.294V46.628z"/>
		</g>
		<path style="fill:#E54B44;" d="M83.409,79.663c-0.889-2.311-2.797-4.08-5.168-4.791L65,72H55H45l-13.241,2.872
			c-2.371,0.711-4.279,2.48-5.168,4.791L23,87h32h32L83.409,79.663z"/>
		<path style="fill:#FFD7D4;" d="M65,68v-4.544c-2.842,4.387-6.719,6.451-10,7.544v16h2l8-16.15V68z"/>
		<g>
			<path style="fill:#FFFFFF;" d="M65,70.85V68c2.602,0.618,4.938,1.989,6.683,3.924L75,75.6h-7l0.14,0.265
				C70.588,80.519,67.43,87,57,87L65,70.85z"/>
		</g>
		<path style="fill:#FFEFED;" d="M45,63.456V68v2.85L53,87h2V71C51.719,69.906,47.842,67.843,45,63.456z"/>
		<g>
			<path style="fill:#FFFFFF;" d="M45,70.85V68c-2.602,0.618-4.938,1.989-6.683,3.924L35,75.6h7l-0.14,0.265
				C39.412,80.519,42.57,87,53,87L45,70.85z"/>
		</g>
		<g>
			<path style="fill:#FFFFFF;" d="M41.115,47.072c-0.374,0-0.746-0.019-1.115-0.072c-1,0-2,1.111-2,2.222
				c0,2.92,0.774,6.684,3.655,7.574L41.115,47.072z"/>
			<path style="fill:#FFFFFF;" d="M44,46.628v15.078c2.875,5.604,7.312,8.064,11,9.294V39C55,39,49.728,44.93,44,46.628z"/>
		</g>
		<g>
			<path style="fill:#E8A099;" d="M50,60h10c0,0,0,3-5,3S50,60,50,60z"/>
		</g>
		<g>
			<path style="fill:#4A1410;" d="M52.006,49c0-1.104-0.896-2-2-2c-0.002,0-0.004,0-0.006,0c0,0.021,0.006,0.041,0.006,0.062
				c0,1.102-0.892,1.996-1.994,1.999C48.046,50.137,48.923,51,50.006,51C51.111,51,52.006,50.104,52.006,49z"/>
		</g>
		<g>
			<path style="fill:#4A1410;" d="M62,49c0-1.104-0.896-2-2-2c-0.002,0-0.004,0-0.006,0C59.995,47.021,60,47.042,60,47.062
				c0,1.102-0.892,1.996-1.994,1.999C58.04,50.137,58.916,51,60,51C61.104,51,62,50.104,62,49z"/>
		</g>
		<path style="fill:#4A1410;" d="M60.879,30.205C60.957,29.815,61,29.413,61,29c0-3.313-2.687-6-6-6c-3.314,0-6,2.687-6,6
			c0,0.413,0.041,0.815,0.121,1.205C42.023,31.51,36.07,36.783,40,47c0.369,0.053,0.742,0.072,1.115,0.072l0.632,11.394
			C41.936,61.863,42.142,64.522,44,67V46.628C49.728,44.93,55,39,55,39s5.271,5.93,11,7.628V67c1.858-2.478,2.062-5.137,2.251-8.535
			l0.633-11.394c0.373,0,0.746-0.019,1.115-0.072C73.93,36.783,67.977,31.51,60.879,30.205z"/>
	</g>
</g>
<g id="R-Red" style="display:none;">
	<g style="display:inline;">
		<circle style="fill:#FABBAF;" cx="55" cy="55" r="55"/>
	</g>
	<g style="display:inline;">
		<g>
			<path style="fill:#FFEFED;" d="M41.115,47.072c-0.374,0-0.746-0.019-1.115-0.072c-1,0-2,1.111-2,2.222
				c0,2.92,0.774,6.684,3.655,7.574L41.115,47.072z"/>
			<path style="fill:#FFEFED;" d="M70,47c-0.369,0.053-0.742,0.072-1.115,0.072l-0.54,9.724C71.226,55.906,72,52.143,72,49.222
				C72,48.111,71,47,70,47z"/>
			<path style="fill:#FFEFED;" d="M66,46.628C60.271,44.93,55,39,55,39s-5.272,5.93-11,7.628v15.078
				c2.875,5.604,7.312,8.064,11,9.294c3.687-1.229,8.123-3.689,11-9.294V46.628z"/>
		</g>
		<path style="fill:#E54B44;" d="M83.409,79.663c-0.889-2.311-2.797-4.08-5.168-4.791L65,72H55H45l-13.241,2.872
			c-2.371,0.711-4.279,2.48-5.168,4.791L23,87h32h32L83.409,79.663z"/>
		<path style="fill:#FFD7D4;" d="M65,68v-4.544c-2.842,4.387-6.719,6.451-10,7.544v16h2l8-16.15V68z"/>
		<g>
			<path style="fill:#FFFFFF;" d="M65,70.85V68c2.602,0.618,4.938,1.989,6.683,3.924L75,75.6h-7l0.14,0.265
				C70.588,80.519,67.43,87,57,87L65,70.85z"/>
		</g>
		<path style="fill:#FFEFED;" d="M45,63.456V68v2.85L53,87h2V71C51.719,69.906,47.842,67.843,45,63.456z"/>
		<g>
			<path style="fill:#FFFFFF;" d="M45,70.85V68c-2.602,0.618-4.938,1.989-6.683,3.924L35,75.6h7l-0.14,0.265
				C39.412,80.519,42.57,87,53,87L45,70.85z"/>
		</g>
		<g>
			<path style="fill:#FFFFFF;" d="M41.115,47.072c-0.374,0-0.746-0.019-1.115-0.072c-1,0-2,1.111-2,2.222
				c0,2.92,0.774,6.684,3.655,7.574L41.115,47.072z"/>
			<path style="fill:#FFFFFF;" d="M44,46.628v15.078c2.875,5.604,7.312,8.064,11,9.294V39C55,39,49.728,44.93,44,46.628z"/>
		</g>
		<g>
			<path style="fill:#E8A099;" d="M50,60h10c0,0,0,3-5,3S50,60,50,60z"/>
		</g>
		<g>
			<path style="fill:#4A1410;" d="M52.006,49c0-1.104-0.896-2-2-2c-0.002,0-0.004,0-0.006,0c0,0.021,0.006,0.041,0.006,0.062
				c0,1.102-0.892,1.996-1.994,1.999C48.046,50.137,48.923,51,50.006,51C51.111,51,52.006,50.104,52.006,49z"/>
		</g>
		<g>
			<path style="fill:#4A1410;" d="M62,49c0-1.104-0.896-2-2-2c-0.002,0-0.004,0-0.006,0C59.995,47.021,60,47.042,60,47.062
				c0,1.102-0.892,1.996-1.994,1.999C58.04,50.137,58.916,51,60,51C61.104,51,62,50.104,62,49z"/>
		</g>
		<path style="fill:#4A1410;" d="M60.879,30.205C60.957,29.815,61,29.413,61,29c0-3.313-2.687-6-6-6c-3.314,0-6,2.687-6,6
			c0,0.413,0.041,0.815,0.121,1.205C42.023,31.51,36.07,36.783,40,47c0.369,0.053,0.742,0.072,1.115,0.072l0.632,11.394
			C41.936,61.863,42.142,64.522,44,67V46.628C49.728,44.93,55,39,55,39s5.271,5.93,11,7.628V67c1.858-2.478,2.062-5.137,2.251-8.535
			l0.633-11.394c0.373,0,0.746-0.019,1.115-0.072C73.93,36.783,67.977,31.51,60.879,30.205z"/>
	</g>
</g>
<g id="Yellow" style="display:none;">
	<g style="display:inline;">
		<g>
			<path style="fill:#FFF5D9;" d="M41.115,47.072c-0.374,0-0.746-0.019-1.115-0.072c-1,0-2,1.111-2,2.222
				c0,2.92,0.774,6.684,3.655,7.574L41.115,47.072z"/>
			<path style="fill:#FFF5D9;" d="M70,47c-0.369,0.053-0.742,0.072-1.115,0.072l-0.54,9.724C71.226,55.906,72,52.143,72,49.222
				C72,48.111,71,47,70,47z"/>
			<path style="fill:#FFF5D9;" d="M66,46.628C60.271,44.93,55,39,55,39s-5.272,5.93-11,7.628v15.078
				c2.875,5.604,7.312,8.064,11,9.294c3.687-1.229,8.123-3.689,11-9.294V46.628z"/>
		</g>
		<path style="fill:#FA9200;" d="M83.409,79.663c-0.889-2.311-2.797-4.08-5.168-4.791L65,72H55H45l-13.241,2.872
			c-2.371,0.711-4.279,2.48-5.168,4.791L23,87h32h32L83.409,79.663z"/>
		<path style="fill:#FFE9A1;" d="M65,68v-4.544c-2.842,4.387-6.719,6.451-10,7.544v16h2l8-16.15V68z"/>
		<g>
			<path style="fill:#FFFFFF;" d="M65,70.85V68c2.602,0.618,4.938,1.989,6.683,3.924L75,75.6h-7l0.14,0.265
				C70.588,80.519,67.43,87,57,87L65,70.85z"/>
		</g>
		<path style="fill:#FFF5D9;" d="M45,63.456V68v2.85L53,87h2V71C51.719,69.906,47.842,67.843,45,63.456z"/>
		<g>
			<path style="fill:#FFFFFF;" d="M45,70.85V68c-2.602,0.618-4.938,1.989-6.683,3.924L35,75.6h7l-0.14,0.265
				C39.412,80.519,42.57,87,53,87L45,70.85z"/>
		</g>
		<g>
			<path style="fill:#FFFFFF;" d="M41.115,47.072c-0.374,0-0.746-0.019-1.115-0.072c-1,0-2,1.111-2,2.222
				c0,2.92,0.774,6.684,3.655,7.574L41.115,47.072z"/>
			<path style="fill:#FFFFFF;" d="M44,46.628v15.078c2.875,5.604,7.312,8.064,11,9.294V39C55,39,49.728,44.93,44,46.628z"/>
		</g>
		<g>
			<path style="fill:#F5C43D;" d="M50,60h10c0,0,0,3-5,3S50,60,50,60z"/>
		</g>
		<g>
			<path style="fill:#3D320C;" d="M52.006,49c0-1.104-0.896-2-2-2c-0.002,0-0.004,0-0.006,0c0,0.021,0.006,0.041,0.006,0.062
				c0,1.102-0.892,1.996-1.994,1.999C48.046,50.137,48.923,51,50.006,51C51.111,51,52.006,50.104,52.006,49z"/>
		</g>
		<g>
			<path style="fill:#3D320C;" d="M62,49c0-1.104-0.896-2-2-2c-0.002,0-0.004,0-0.006,0C59.995,47.021,60,47.042,60,47.062
				c0,1.102-0.892,1.996-1.994,1.999C58.04,50.137,58.916,51,60,51C61.104,51,62,50.104,62,49z"/>
		</g>
		<path style="fill:#3D320C;" d="M60.879,30.205C60.957,29.815,61,29.413,61,29c0-3.313-2.687-6-6-6c-3.314,0-6,2.687-6,6
			c0,0.413,0.041,0.815,0.121,1.205C42.023,31.51,36.07,36.783,40,47c0.369,0.053,0.742,0.072,1.115,0.072l0.632,11.394
			C41.936,61.863,42.142,64.522,44,67V46.628C49.728,44.93,55,39,55,39s5.271,5.93,11,7.628V67c1.858-2.478,2.062-5.137,2.251-8.535
			l0.633-11.394c0.373,0,0.746-0.019,1.115-0.072C73.93,36.783,67.977,31.51,60.879,30.205z"/>
	</g>
</g>
<g id="R-Yellow" style="display:none;">
	<g style="display:inline;">
		<circle style="fill:#FFD75E;" cx="55" cy="55" r="55"/>
	</g>
	<g style="display:inline;">
		<g>
			<path style="fill:#FFF5D9;" d="M41.115,47.072c-0.374,0-0.746-0.019-1.115-0.072c-1,0-2,1.111-2,2.222
				c0,2.92,0.774,6.684,3.655,7.574L41.115,47.072z"/>
			<path style="fill:#FFF5D9;" d="M70,47c-0.369,0.053-0.742,0.072-1.115,0.072l-0.54,9.724C71.226,55.906,72,52.143,72,49.222
				C72,48.111,71,47,70,47z"/>
			<path style="fill:#FFF5D9;" d="M66,46.628C60.271,44.93,55,39,55,39s-5.272,5.93-11,7.628v15.078
				c2.875,5.604,7.312,8.064,11,9.294c3.687-1.229,8.123-3.689,11-9.294V46.628z"/>
		</g>
		<path style="fill:#FA9200;" d="M83.409,79.663c-0.889-2.311-2.797-4.08-5.168-4.791L65,72H55H45l-13.241,2.872
			c-2.371,0.711-4.279,2.48-5.168,4.791L23,87h32h32L83.409,79.663z"/>
		<path style="fill:#FFE9A1;" d="M65,68v-4.544c-2.842,4.387-6.719,6.451-10,7.544v16h2l8-16.15V68z"/>
		<g>
			<path style="fill:#FFFFFF;" d="M65,70.85V68c2.602,0.618,4.938,1.989,6.683,3.924L75,75.6h-7l0.14,0.265
				C70.588,80.519,67.43,87,57,87L65,70.85z"/>
		</g>
		<path style="fill:#FFF5D9;" d="M45,63.456V68v2.85L53,87h2V71C51.719,69.906,47.842,67.843,45,63.456z"/>
		<g>
			<path style="fill:#FFFFFF;" d="M45,70.85V68c-2.602,0.618-4.938,1.989-6.683,3.924L35,75.6h7l-0.14,0.265
				C39.412,80.519,42.57,87,53,87L45,70.85z"/>
		</g>
		<g>
			<path style="fill:#FFFFFF;" d="M41.115,47.072c-0.374,0-0.746-0.019-1.115-0.072c-1,0-2,1.111-2,2.222
				c0,2.92,0.774,6.684,3.655,7.574L41.115,47.072z"/>
			<path style="fill:#FFFFFF;" d="M44,46.628v15.078c2.875,5.604,7.312,8.064,11,9.294V39C55,39,49.728,44.93,44,46.628z"/>
		</g>
		<g>
			<path style="fill:#F5C43D;" d="M50,60h10c0,0,0,3-5,3S50,60,50,60z"/>
		</g>
		<g>
			<path style="fill:#3D320C;" d="M52.006,49c0-1.104-0.896-2-2-2c-0.002,0-0.004,0-0.006,0c0,0.021,0.006,0.041,0.006,0.062
				c0,1.102-0.892,1.996-1.994,1.999C48.046,50.137,48.923,51,50.006,51C51.111,51,52.006,50.104,52.006,49z"/>
		</g>
		<g>
			<path style="fill:#3D320C;" d="M62,49c0-1.104-0.896-2-2-2c-0.002,0-0.004,0-0.006,0C59.995,47.021,60,47.042,60,47.062
				c0,1.102-0.892,1.996-1.994,1.999C58.04,50.137,58.916,51,60,51C61.104,51,62,50.104,62,49z"/>
		</g>
		<path style="fill:#3D320C;" d="M60.879,30.205C60.957,29.815,61,29.413,61,29c0-3.313-2.687-6-6-6c-3.314,0-6,2.687-6,6
			c0,0.413,0.041,0.815,0.121,1.205C42.023,31.51,36.07,36.783,40,47c0.369,0.053,0.742,0.072,1.115,0.072l0.632,11.394
			C41.936,61.863,42.142,64.522,44,67V46.628C49.728,44.93,55,39,55,39s5.271,5.93,11,7.628V67c1.858-2.478,2.062-5.137,2.251-8.535
			l0.633-11.394c0.373,0,0.746-0.019,1.115-0.072C73.93,36.783,67.977,31.51,60.879,30.205z"/>
	</g>
</g>
</svg>
