<?xml version="1.0" encoding="iso-8859-1"?>
<!-- Generator: Adobe Illustrator 17.1.0, SVG Export Plug-In . SVG Version: 6.00 Build 0)  -->
<!DOCTYPE svg PUBLIC "-//W3C//DTD SVG 1.0//EN" "http://www.w3.org/TR/2001/REC-SVG-20010904/DTD/svg10.dtd">
<svg version="1.0" xmlns="http://www.w3.org/2000/svg" xmlns:xlink="http://www.w3.org/1999/xlink" x="0px" y="0px" width="110px"
	 height="110px" viewBox="0 0 110 110" style="enable-background:new 0 0 110 110;" xml:space="preserve">
<g id="Artboard" style="display:none;">
	
		<rect x="-817.5" y="-304.5" style="display:inline;fill:#808080;stroke:#000000;stroke-miterlimit:10;" width="1362" height="598"/>
</g>
<g id="R-Multicolor" style="display:none;">
	<g style="display:inline;">
		<circle style="fill:#25B7D3;" cx="55" cy="55" r="55"/>
	</g>
	<g style="display:inline;">
		<path style="fill:#F7B4B4;" d="M87,87l-3.591-9.337c-0.889-2.311-2.797-4.08-5.168-4.791L65,69.715v-8.283
			c-2.841,4.396-6.716,6.473-10,7.567c-3.281-1.094-7.158-3.157-10-7.544V72c0,0,2,4,10,4v11H87z"/>
		<path style="fill:#3E3E3F;" d="M65,69.715l5,1.192V53.781c-0.569,0.575-1.282,0.99-2.178,1.145
			c-0.7,2.611-1.679,4.747-2.822,6.513V69.715z"/>
		<path style="fill:#FBC8C8;" d="M45,61.456v8.26l-13.241,3.157c-2.371,0.711-4.279,2.48-5.168,4.791L23,87h32V69
			C51.719,67.906,47.842,65.843,45,61.456z"/>
		<path style="fill:#FBC8C8;" d="M70.025,45.003c0,0.004,0,0.01,0,0.015c-1.531,0.413-8.763-1.464-9.013-16.25
			C59.367,28.272,57.387,28,55,28c-12.976,0-13.982,7.971-14,16.979C41,61.777,49,67,55,69c4.604-1.535,10.38-4.973,12.822-14.075
			C71.136,54.353,72,50.313,72,47.222C72,46.121,71.017,45.021,70.025,45.003z"/>
		<g>
			<path style="fill:#FA5655;" d="M83.409,77.663c-0.585-1.522-1.619-2.8-2.93-3.705C78.021,78.543,67.102,82,54,82
				c-12.057,0-22.264-2.927-25.732-6.967c-0.715,0.752-1.294,1.637-1.677,2.63L23,87h32h32L83.409,77.663z"/>
		</g>
		<g>
			<path style="fill:#FBD7D7;" d="M55,28c-12.976,0-13.982,7.971-14,16.979C41,61.777,49,67,55,69V28z"/>
		</g>
		<g>
			<path style="fill:#3E3E3F;" d="M52,47c0-1.104-0.896-2-2-2c-0.002,0-0.004,0-0.006,0C49.995,45.021,50,45.042,50,45.062
				c0,1.103-0.892,1.996-1.994,2C48.04,48.137,48.917,49,50,49C51.104,49,52,48.104,52,47z"/>
		</g>
		<g>
			<path style="fill:#3E3E3F;" d="M61.994,47c0-1.104-0.896-2-2-2c-0.002,0-0.004,0-0.006,0c0.001,0.021,0.006,0.041,0.006,0.062
				c0,1.103-0.892,1.996-1.994,2C58.033,48.137,58.91,49,59.994,49C61.098,49,61.994,48.104,61.994,47z"/>
		</g>
		<g>
			<path style="fill:#F79392;" d="M50,58h10c0,0,0,3-5,3S50,58,50,58z"/>
		</g>
		<g>
			<path style="fill:#3E3E3F;" d="M37,39v46c0,0,11-6,11-24.293V45c0-15.988,14-8,13-17C61,20,37,24,37,39z"/>
		</g>
		<g>
			<path style="fill:#3E3E3F;" d="M61,28.066c0.025,15.439,7.469,17.372,9.025,16.953c0-3.253,2.124-16.976-8.958-17.018
				C61.031,28,61,28.031,61,28.066z"/>
		</g>
		<g>
			<path style="fill:#FFFFFF;" d="M69.347,56l1.527,3.687c0.256,0.618,0.114,1.329-0.358,1.801c-0.646,0.646-1.692,0.646-2.338,0
				c-0.473-0.473-0.614-1.184-0.358-1.801L69.347,56z"/>
		</g>
	</g>
</g>
<g id="Multicolor">
	<g>
		<path style="fill:#F7B4B4;" d="M87,87l-3.591-9.337c-0.889-2.311-2.797-4.08-5.168-4.791L65,69.715v-8.283
			c-2.841,4.396-6.716,6.473-10,7.567c-3.281-1.094-7.158-3.157-10-7.544V72c0,0,2,4,10,4v11H87z"/>
		<path style="fill:#3E3E3F;" d="M65,69.715l5,1.192V53.781c-0.569,0.575-1.282,0.99-2.178,1.145
			c-0.7,2.611-1.679,4.747-2.822,6.513V69.715z"/>
		<path style="fill:#FBC8C8;" d="M45,61.456v8.26l-13.241,3.157c-2.371,0.711-4.279,2.48-5.168,4.791L23,87h32V69
			C51.719,67.906,47.842,65.843,45,61.456z"/>
		<path style="fill:#FBC8C8;" d="M70.025,45.003c0,0.004,0,0.01,0,0.015c-1.531,0.413-8.763-1.464-9.013-16.25
			C59.367,28.272,57.387,28,55,28c-12.976,0-13.982,7.971-14,16.979C41,61.777,49,67,55,69c4.604-1.535,10.38-4.973,12.822-14.075
			C71.136,54.353,72,50.313,72,47.222C72,46.121,71.017,45.021,70.025,45.003z"/>
		<g>
			<path style="fill:#FA5655;" d="M83.409,77.663c-0.585-1.522-1.619-2.8-2.93-3.705C78.021,78.543,67.102,82,54,82
				c-12.057,0-22.264-2.927-25.732-6.967c-0.715,0.752-1.294,1.637-1.677,2.63L23,87h32h32L83.409,77.663z"/>
		</g>
		<g>
			<path style="fill:#FBD7D7;" d="M55,28c-12.976,0-13.982,7.971-14,16.979C41,61.777,49,67,55,69V28z"/>
		</g>
		<g>
			<path style="fill:#3E3E3F;" d="M52,47c0-1.104-0.896-2-2-2c-0.002,0-0.004,0-0.006,0C49.995,45.021,50,45.042,50,45.062
				c0,1.103-0.892,1.996-1.994,2C48.04,48.137,48.917,49,50,49C51.104,49,52,48.104,52,47z"/>
		</g>
		<g>
			<path style="fill:#3E3E3F;" d="M61.994,47c0-1.104-0.896-2-2-2c-0.002,0-0.004,0-0.006,0c0.001,0.021,0.006,0.041,0.006,0.062
				c0,1.103-0.892,1.996-1.994,2C58.033,48.137,58.91,49,59.994,49C61.098,49,61.994,48.104,61.994,47z"/>
		</g>
		<g>
			<path style="fill:#F79392;" d="M50,58h10c0,0,0,3-5,3S50,58,50,58z"/>
		</g>
		<g>
			<path style="fill:#3E3E3F;" d="M37,39v46c0,0,11-6,11-24.293V45c0-15.988,14-8,13-17C61,20,37,24,37,39z"/>
		</g>
		<g>
			<path style="fill:#3E3E3F;" d="M61,28.066c0.025,15.439,7.469,17.372,9.025,16.953c0-3.253,2.124-16.976-8.958-17.018
				C61.031,28,61,28.031,61,28.066z"/>
		</g>
		<g>
			<path style="fill:#FFFFFF;" d="M69.347,56l1.527,3.687c0.256,0.618,0.114,1.329-0.358,1.801c-0.646,0.646-1.692,0.646-2.338,0
				c-0.473-0.473-0.614-1.184-0.358-1.801L69.347,56z"/>
		</g>
	</g>
</g>
<g id="Blue" style="display:none;">
	<g style="display:inline;">
		<path style="fill:#BBE7F2;" d="M87,87l-3.591-9.337c-0.889-2.311-2.797-4.08-5.168-4.791L65,69.715v-8.283
			c-2.841,4.397-6.716,6.473-10,7.567c-3.281-1.094-7.158-3.157-10-7.544V72c0,0,2,4,10,4v11H87z"/>
		<path style="fill:#0C333D;" d="M65,69.715l5,1.192V53.781c-0.569,0.575-1.282,0.99-2.178,1.145
			c-0.7,2.611-1.679,4.747-2.822,6.512V69.715z"/>
		<path style="fill:#E1F5FA;" d="M45,61.456v8.26l-13.241,3.157c-2.371,0.711-4.279,2.48-5.168,4.791L23,87h32V69
			C51.719,67.906,47.842,65.843,45,61.456z"/>
		<path style="fill:#E1F5FA;" d="M70.025,45.003c0,0.004-0.001,0.01-0.001,0.015c-1.531,0.413-8.763-1.464-9.013-16.25
			C59.367,28.272,57.387,28,55,28c-12.976,0-13.982,7.971-14,16.979C41,61.777,49,67,55,69c4.604-1.535,10.38-4.973,12.822-14.075
			C71.136,54.353,72,50.312,72,47.222C72,46.121,71.017,45.021,70.025,45.003z"/>
		<g>
			<path style="fill:#009FC7;" d="M83.409,77.663c-0.585-1.522-1.619-2.8-2.93-3.706C78.021,78.543,67.102,82,54,82
				c-12.057,0-22.264-2.927-25.732-6.967c-0.715,0.753-1.295,1.637-1.677,2.63L23,87h32h32L83.409,77.663z"/>
		</g>
		<g>
			<path style="fill:#FFFFFF;" d="M55,28c-12.976,0-13.982,7.971-14,16.979C41,61.777,49,67,55,69V28z"/>
		</g>
		<g>
			<path style="fill:#0C333D;" d="M52,47c0-1.104-0.896-2-2-2c-0.002,0-0.004,0-0.006,0C49.995,45.021,50,45.042,50,45.062
				c0,1.102-0.892,1.996-1.994,1.999C48.04,48.137,48.917,49,50,49C51.104,49,52,48.104,52,47z"/>
		</g>
		<g>
			<path style="fill:#0C333D;" d="M61.994,47c0-1.104-0.896-2-2-2c-0.002,0-0.004,0-0.006,0c0.001,0.021,0.006,0.041,0.006,0.062
				c0,1.102-0.892,1.996-1.994,1.999C58.033,48.137,58.91,49,59.994,49C61.098,49,61.994,48.104,61.994,47z"/>
		</g>
		<g>
			<path style="fill:#53BAD4;" d="M50,58h10c0,0,0,3-5,3S50,58,50,58z"/>
		</g>
		<g>
			<path style="fill:#0C333D;" d="M37,39v46c0,0,11-6,11-24.293V45c0-15.988,14-8,13-17C61,20,37,24,37,39z"/>
		</g>
		<g>
			<path style="fill:#0C333D;" d="M61,28.066c0.025,15.439,7.469,17.372,9.024,16.953c0-3.253,2.124-16.976-8.958-17.019
				C61.031,28,61,28.031,61,28.066z"/>
		</g>
		<g>
			<path style="fill:#FFFFFF;" d="M69.347,56l1.527,3.687c0.256,0.618,0.115,1.329-0.358,1.801c-0.646,0.646-1.692,0.646-2.337,0
				c-0.473-0.473-0.614-1.184-0.358-1.801L69.347,56z"/>
		</g>
	</g>
</g>
<g id="R-Blue" style="display:none;">
	<g style="display:inline;">
		<circle style="fill:#81D2EB;" cx="55" cy="55" r="55"/>
	</g>
	<g style="display:inline;">
		<path style="fill:#BBE7F2;" d="M87,87l-3.591-9.337c-0.889-2.311-2.797-4.08-5.168-4.791L65,69.715v-8.283
			c-2.841,4.397-6.716,6.473-10,7.567c-3.281-1.094-7.158-3.157-10-7.544V72c0,0,2,4,10,4v11H87z"/>
		<path style="fill:#0C333D;" d="M65,69.715l5,1.192V53.781c-0.569,0.575-1.282,0.99-2.178,1.145
			c-0.7,2.611-1.679,4.747-2.822,6.512V69.715z"/>
		<path style="fill:#E1F5FA;" d="M45,61.456v8.26l-13.241,3.157c-2.371,0.711-4.279,2.48-5.168,4.791L23,87h32V69
			C51.719,67.906,47.842,65.843,45,61.456z"/>
		<path style="fill:#E1F5FA;" d="M70.025,45.003c0,0.004-0.001,0.01-0.001,0.015c-1.531,0.413-8.763-1.464-9.013-16.25
			C59.367,28.272,57.387,28,55,28c-12.976,0-13.982,7.971-14,16.979C41,61.777,49,67,55,69c4.604-1.535,10.38-4.973,12.822-14.075
			C71.136,54.353,72,50.312,72,47.222C72,46.121,71.017,45.021,70.025,45.003z"/>
		<g>
			<path style="fill:#009FC7;" d="M83.409,77.663c-0.585-1.522-1.619-2.8-2.93-3.706C78.021,78.543,67.102,82,54,82
				c-12.057,0-22.264-2.927-25.732-6.967c-0.715,0.753-1.295,1.637-1.677,2.63L23,87h32h32L83.409,77.663z"/>
		</g>
		<g>
			<path style="fill:#FFFFFF;" d="M55,28c-12.976,0-13.982,7.971-14,16.979C41,61.777,49,67,55,69V28z"/>
		</g>
		<g>
			<path style="fill:#0C333D;" d="M52,47c0-1.104-0.896-2-2-2c-0.002,0-0.004,0-0.006,0C49.995,45.021,50,45.042,50,45.062
				c0,1.102-0.892,1.996-1.994,1.999C48.04,48.137,48.917,49,50,49C51.104,49,52,48.104,52,47z"/>
		</g>
		<g>
			<path style="fill:#0C333D;" d="M61.994,47c0-1.104-0.896-2-2-2c-0.002,0-0.004,0-0.006,0c0.001,0.021,0.006,0.041,0.006,0.062
				c0,1.102-0.892,1.996-1.994,1.999C58.033,48.137,58.91,49,59.994,49C61.098,49,61.994,48.104,61.994,47z"/>
		</g>
		<g>
			<path style="fill:#53BAD4;" d="M50,58h10c0,0,0,3-5,3S50,58,50,58z"/>
		</g>
		<g>
			<path style="fill:#0C333D;" d="M37,39v46c0,0,11-6,11-24.293V45c0-15.988,14-8,13-17C61,20,37,24,37,39z"/>
		</g>
		<g>
			<path style="fill:#0C333D;" d="M61,28.066c0.025,15.439,7.469,17.372,9.024,16.953c0-3.253,2.124-16.976-8.958-17.019
				C61.031,28,61,28.031,61,28.066z"/>
		</g>
		<g>
			<path style="fill:#FFFFFF;" d="M69.347,56l1.527,3.687c0.256,0.618,0.115,1.329-0.358,1.801c-0.646,0.646-1.692,0.646-2.337,0
				c-0.473-0.473-0.614-1.184-0.358-1.801L69.347,56z"/>
		</g>
	</g>
</g>
<g id="Green" style="display:none;">
	<g style="display:inline;">
		<path style="fill:#AAF0E9;" d="M87,87l-3.591-9.337c-0.889-2.311-2.797-4.08-5.168-4.791L65,69.715v-8.283
			c-2.841,4.397-6.716,6.473-10,7.567c-3.281-1.094-7.158-3.157-10-7.544V72c0,0,2,4,10,4v11H87z"/>
		<path style="fill:#0A3631;" d="M65,69.715l5,1.192V53.781c-0.569,0.575-1.282,0.99-2.178,1.145
			c-0.7,2.611-1.679,4.747-2.822,6.512V69.715z"/>
		<path style="fill:#D7FCF9;" d="M45,61.456v8.26l-13.241,3.157c-2.371,0.711-4.279,2.48-5.168,4.791L23,87h32V69
			C51.719,67.906,47.842,65.843,45,61.456z"/>
		<path style="fill:#D7FCF9;" d="M70.025,45.003c0,0.004-0.001,0.01-0.001,0.015c-1.531,0.413-8.763-1.464-9.013-16.25
			C59.367,28.272,57.387,28,55,28c-12.976,0-13.982,7.971-14,16.979C41,61.777,49,67,55,69c4.604-1.535,10.38-4.973,12.822-14.075
			C71.136,54.353,72,50.312,72,47.222C72,46.121,71.017,45.021,70.025,45.003z"/>
		<g>
			<path style="fill:#00B8A5;" d="M83.409,77.663c-0.585-1.522-1.619-2.8-2.93-3.706C78.021,78.543,67.102,82,54,82
				c-12.057,0-22.264-2.927-25.732-6.967c-0.715,0.753-1.295,1.637-1.677,2.63L23,87h32h32L83.409,77.663z"/>
		</g>
		<g>
			<path style="fill:#FFFFFF;" d="M55,28c-12.976,0-13.982,7.971-14,16.979C41,61.777,49,67,55,69V28z"/>
		</g>
		<g>
			<path style="fill:#0A3631;" d="M52,47c0-1.104-0.896-2-2-2c-0.002,0-0.004,0-0.006,0C49.995,45.021,50,45.042,50,45.062
				c0,1.102-0.892,1.996-1.994,1.999C48.04,48.137,48.917,49,50,49C51.104,49,52,48.104,52,47z"/>
		</g>
		<g>
			<path style="fill:#0A3631;" d="M61.994,47c0-1.104-0.896-2-2-2c-0.002,0-0.004,0-0.006,0c0.001,0.021,0.006,0.041,0.006,0.062
				c0,1.102-0.892,1.996-1.994,1.999C58.033,48.137,58.91,49,59.994,49C61.098,49,61.994,48.104,61.994,47z"/>
		</g>
		<g>
			<path style="fill:#55C9BE;" d="M50,58h10c0,0,0,3-5,3S50,58,50,58z"/>
		</g>
		<g>
			<path style="fill:#0A3631;" d="M37,39v46c0,0,11-6,11-24.293V45c0-15.988,14-8,13-17C61,20,37,24,37,39z"/>
		</g>
		<g>
			<path style="fill:#0A3631;" d="M61,28.066c0.025,15.439,7.469,17.372,9.024,16.953c0-3.253,2.124-16.976-8.958-17.019
				C61.031,28,61,28.031,61,28.066z"/>
		</g>
		<g>
			<path style="fill:#FFFFFF;" d="M69.347,56l1.527,3.687c0.256,0.618,0.115,1.329-0.358,1.801c-0.646,0.646-1.692,0.646-2.337,0
				c-0.473-0.473-0.614-1.184-0.358-1.801L69.347,56z"/>
		</g>
	</g>
</g>
<g id="R-Green" style="display:none;">
	<g style="display:inline;">
		<circle style="fill:#77E0C4;" cx="55" cy="55" r="55"/>
	</g>
	<g style="display:inline;">
		<path style="fill:#AAF0E9;" d="M87,87l-3.591-9.337c-0.889-2.311-2.797-4.08-5.168-4.791L65,69.715v-8.283
			c-2.841,4.397-6.716,6.473-10,7.567c-3.281-1.094-7.158-3.157-10-7.544V72c0,0,2,4,10,4v11H87z"/>
		<path style="fill:#0A3631;" d="M65,69.715l5,1.192V53.781c-0.569,0.575-1.282,0.99-2.178,1.145
			c-0.7,2.611-1.679,4.747-2.822,6.512V69.715z"/>
		<path style="fill:#D7FCF9;" d="M45,61.456v8.26l-13.241,3.157c-2.371,0.711-4.279,2.48-5.168,4.791L23,87h32V69
			C51.719,67.906,47.842,65.843,45,61.456z"/>
		<path style="fill:#D7FCF9;" d="M70.025,45.003c0,0.004-0.001,0.01-0.001,0.015c-1.531,0.413-8.763-1.464-9.013-16.25
			C59.367,28.272,57.387,28,55,28c-12.976,0-13.982,7.971-14,16.979C41,61.777,49,67,55,69c4.604-1.535,10.38-4.973,12.822-14.075
			C71.136,54.353,72,50.312,72,47.222C72,46.121,71.017,45.021,70.025,45.003z"/>
		<g>
			<path style="fill:#00B8A5;" d="M83.409,77.663c-0.585-1.522-1.619-2.8-2.93-3.706C78.021,78.543,67.102,82,54,82
				c-12.057,0-22.264-2.927-25.732-6.967c-0.715,0.753-1.295,1.637-1.677,2.63L23,87h32h32L83.409,77.663z"/>
		</g>
		<g>
			<path style="fill:#FFFFFF;" d="M55,28c-12.976,0-13.982,7.971-14,16.979C41,61.777,49,67,55,69V28z"/>
		</g>
		<g>
			<path style="fill:#0A3631;" d="M52,47c0-1.104-0.896-2-2-2c-0.002,0-0.004,0-0.006,0C49.995,45.021,50,45.042,50,45.062
				c0,1.102-0.892,1.996-1.994,1.999C48.04,48.137,48.917,49,50,49C51.104,49,52,48.104,52,47z"/>
		</g>
		<g>
			<path style="fill:#0A3631;" d="M61.994,47c0-1.104-0.896-2-2-2c-0.002,0-0.004,0-0.006,0c0.001,0.021,0.006,0.041,0.006,0.062
				c0,1.102-0.892,1.996-1.994,1.999C58.033,48.137,58.91,49,59.994,49C61.098,49,61.994,48.104,61.994,47z"/>
		</g>
		<g>
			<path style="fill:#55C9BE;" d="M50,58h10c0,0,0,3-5,3S50,58,50,58z"/>
		</g>
		<g>
			<path style="fill:#0A3631;" d="M37,39v46c0,0,11-6,11-24.293V45c0-15.988,14-8,13-17C61,20,37,24,37,39z"/>
		</g>
		<g>
			<path style="fill:#0A3631;" d="M61,28.066c0.025,15.439,7.469,17.372,9.024,16.953c0-3.253,2.124-16.976-8.958-17.019
				C61.031,28,61,28.031,61,28.066z"/>
		</g>
		<g>
			<path style="fill:#FFFFFF;" d="M69.347,56l1.527,3.687c0.256,0.618,0.115,1.329-0.358,1.801c-0.646,0.646-1.692,0.646-2.337,0
				c-0.473-0.473-0.614-1.184-0.358-1.801L69.347,56z"/>
		</g>
	</g>
</g>
<g id="Red" style="display:none;">
	<g style="display:inline;">
		<path style="fill:#FFD7D4;" d="M87,87l-3.591-9.337c-0.889-2.311-2.797-4.08-5.168-4.791L65,69.715v-8.283
			c-2.841,4.397-6.716,6.473-10,7.567c-3.281-1.094-7.158-3.157-10-7.544V72c0,0,2,4,10,4v11H87z"/>
		<path style="fill:#4A1410;" d="M65,69.715l5,1.192V53.781c-0.569,0.575-1.282,0.99-2.178,1.145
			c-0.7,2.611-1.679,4.747-2.822,6.512V69.715z"/>
		<path style="fill:#FFEFED;" d="M45,61.456v8.26l-13.241,3.157c-2.371,0.711-4.279,2.48-5.168,4.791L23,87h32V69
			C51.719,67.906,47.842,65.843,45,61.456z"/>
		<path style="fill:#FFEFED;" d="M70.025,45.003c0,0.004-0.001,0.01-0.001,0.015c-1.531,0.413-8.763-1.464-9.013-16.25
			C59.367,28.272,57.387,28,55,28c-12.976,0-13.982,7.971-14,16.979C41,61.777,49,67,55,69c4.604-1.535,10.38-4.973,12.822-14.075
			C71.136,54.353,72,50.312,72,47.222C72,46.121,71.017,45.021,70.025,45.003z"/>
		<g>
			<path style="fill:#E54B44;" d="M83.409,77.663c-0.585-1.522-1.619-2.8-2.93-3.706C78.021,78.543,67.102,82,54,82
				c-12.057,0-22.264-2.927-25.732-6.967c-0.715,0.753-1.295,1.637-1.677,2.63L23,87h32h32L83.409,77.663z"/>
		</g>
		<g>
			<path style="fill:#FFFFFF;" d="M55,28c-12.976,0-13.982,7.971-14,16.979C41,61.777,49,67,55,69V28z"/>
		</g>
		<g>
			<path style="fill:#4A1410;" d="M52,47c0-1.104-0.896-2-2-2c-0.002,0-0.004,0-0.006,0C49.995,45.021,50,45.042,50,45.062
				c0,1.102-0.892,1.996-1.994,1.999C48.04,48.137,48.917,49,50,49C51.104,49,52,48.104,52,47z"/>
		</g>
		<g>
			<path style="fill:#4A1410;" d="M61.994,47c0-1.104-0.896-2-2-2c-0.002,0-0.004,0-0.006,0c0.001,0.021,0.006,0.041,0.006,0.062
				c0,1.102-0.892,1.996-1.994,1.999C58.033,48.137,58.91,49,59.994,49C61.098,49,61.994,48.104,61.994,47z"/>
		</g>
		<g>
			<path style="fill:#E8A099;" d="M50,58h10c0,0,0,3-5,3S50,58,50,58z"/>
		</g>
		<g>
			<path style="fill:#4A1410;" d="M37,39v46c0,0,11-6,11-24.293V45c0-15.988,14-8,13-17C61,20,37,24,37,39z"/>
		</g>
		<g>
			<path style="fill:#4A1410;" d="M61,28.066c0.025,15.439,7.469,17.372,9.024,16.953c0-3.253,2.124-16.976-8.958-17.019
				C61.031,28,61,28.031,61,28.066z"/>
		</g>
		<g>
			<path style="fill:#FFFFFF;" d="M69.347,56l1.527,3.687c0.256,0.618,0.115,1.329-0.358,1.801c-0.646,0.646-1.692,0.646-2.337,0
				c-0.473-0.473-0.614-1.184-0.358-1.801L69.347,56z"/>
		</g>
	</g>
</g>
<g id="R-Red" style="display:none;">
	<g style="display:inline;">
		<circle style="fill:#FABBAF;" cx="55" cy="55" r="55"/>
	</g>
	<g style="display:inline;">
		<path style="fill:#FFD7D4;" d="M87,87l-3.591-9.337c-0.889-2.311-2.797-4.08-5.168-4.791L65,69.715v-8.283
			c-2.841,4.397-6.716,6.473-10,7.567c-3.281-1.094-7.158-3.157-10-7.544V72c0,0,2,4,10,4v11H87z"/>
		<path style="fill:#4A1410;" d="M65,69.715l5,1.192V53.781c-0.569,0.575-1.282,0.99-2.178,1.145
			c-0.7,2.611-1.679,4.747-2.822,6.512V69.715z"/>
		<path style="fill:#FFEFED;" d="M45,61.456v8.26l-13.241,3.157c-2.371,0.711-4.279,2.48-5.168,4.791L23,87h32V69
			C51.719,67.906,47.842,65.843,45,61.456z"/>
		<path style="fill:#FFEFED;" d="M70.025,45.003c0,0.004-0.001,0.01-0.001,0.015c-1.531,0.413-8.763-1.464-9.013-16.25
			C59.367,28.272,57.387,28,55,28c-12.976,0-13.982,7.971-14,16.979C41,61.777,49,67,55,69c4.604-1.535,10.38-4.973,12.822-14.075
			C71.136,54.353,72,50.312,72,47.222C72,46.121,71.017,45.021,70.025,45.003z"/>
		<g>
			<path style="fill:#E54B44;" d="M83.409,77.663c-0.585-1.522-1.619-2.8-2.93-3.706C78.021,78.543,67.102,82,54,82
				c-12.057,0-22.264-2.927-25.732-6.967c-0.715,0.753-1.295,1.637-1.677,2.63L23,87h32h32L83.409,77.663z"/>
		</g>
		<g>
			<path style="fill:#FFFFFF;" d="M55,28c-12.976,0-13.982,7.971-14,16.979C41,61.777,49,67,55,69V28z"/>
		</g>
		<g>
			<path style="fill:#4A1410;" d="M52,47c0-1.104-0.896-2-2-2c-0.002,0-0.004,0-0.006,0C49.995,45.021,50,45.042,50,45.062
				c0,1.102-0.892,1.996-1.994,1.999C48.04,48.137,48.917,49,50,49C51.104,49,52,48.104,52,47z"/>
		</g>
		<g>
			<path style="fill:#4A1410;" d="M61.994,47c0-1.104-0.896-2-2-2c-0.002,0-0.004,0-0.006,0c0.001,0.021,0.006,0.041,0.006,0.062
				c0,1.102-0.892,1.996-1.994,1.999C58.033,48.137,58.91,49,59.994,49C61.098,49,61.994,48.104,61.994,47z"/>
		</g>
		<g>
			<path style="fill:#E8A099;" d="M50,58h10c0,0,0,3-5,3S50,58,50,58z"/>
		</g>
		<g>
			<path style="fill:#4A1410;" d="M37,39v46c0,0,11-6,11-24.293V45c0-15.988,14-8,13-17C61,20,37,24,37,39z"/>
		</g>
		<g>
			<path style="fill:#4A1410;" d="M61,28.066c0.025,15.439,7.469,17.372,9.024,16.953c0-3.253,2.124-16.976-8.958-17.019
				C61.031,28,61,28.031,61,28.066z"/>
		</g>
		<g>
			<path style="fill:#FFFFFF;" d="M69.347,56l1.527,3.687c0.256,0.618,0.115,1.329-0.358,1.801c-0.646,0.646-1.692,0.646-2.337,0
				c-0.473-0.473-0.614-1.184-0.358-1.801L69.347,56z"/>
		</g>
	</g>
</g>
<g id="Yellow" style="display:none;">
	<g style="display:inline;">
		<path style="fill:#FFE9A1;" d="M87,87l-3.591-9.337c-0.889-2.311-2.797-4.08-5.168-4.791L65,69.715v-8.283
			c-2.841,4.397-6.716,6.473-10,7.567c-3.281-1.094-7.158-3.157-10-7.544V72c0,0,2,4,10,4v11H87z"/>
		<path style="fill:#3D320C;" d="M65,69.715l5,1.192V53.781c-0.569,0.575-1.282,0.99-2.178,1.145
			c-0.7,2.611-1.679,4.747-2.822,6.512V69.715z"/>
		<path style="fill:#FFF5D9;" d="M45,61.456v8.26l-13.241,3.157c-2.371,0.711-4.279,2.48-5.168,4.791L23,87h32V69
			C51.719,67.906,47.842,65.843,45,61.456z"/>
		<path style="fill:#FFF5D9;" d="M70.025,45.003c0,0.004-0.001,0.01-0.001,0.015c-1.531,0.413-8.763-1.464-9.013-16.25
			C59.367,28.272,57.387,28,55,28c-12.976,0-13.982,7.971-14,16.979C41,61.777,49,67,55,69c4.604-1.535,10.38-4.973,12.822-14.075
			C71.136,54.353,72,50.312,72,47.222C72,46.121,71.017,45.021,70.025,45.003z"/>
		<g>
			<path style="fill:#FA9200;" d="M83.409,77.663c-0.585-1.522-1.619-2.8-2.93-3.706C78.021,78.543,67.102,82,54,82
				c-12.057,0-22.264-2.927-25.732-6.967c-0.715,0.753-1.295,1.637-1.677,2.63L23,87h32h32L83.409,77.663z"/>
		</g>
		<g>
			<path style="fill:#FFFFFF;" d="M55,28c-12.976,0-13.982,7.971-14,16.979C41,61.777,49,67,55,69V28z"/>
		</g>
		<g>
			<path style="fill:#3D320C;" d="M52,47c0-1.104-0.896-2-2-2c-0.002,0-0.004,0-0.006,0C49.995,45.021,50,45.042,50,45.062
				c0,1.102-0.892,1.996-1.994,1.999C48.04,48.137,48.917,49,50,49C51.104,49,52,48.104,52,47z"/>
		</g>
		<g>
			<path style="fill:#3D320C;" d="M61.994,47c0-1.104-0.896-2-2-2c-0.002,0-0.004,0-0.006,0c0.001,0.021,0.006,0.041,0.006,0.062
				c0,1.102-0.892,1.996-1.994,1.999C58.033,48.137,58.91,49,59.994,49C61.098,49,61.994,48.104,61.994,47z"/>
		</g>
		<g>
			<path style="fill:#F5C43D;" d="M50,58h10c0,0,0,3-5,3S50,58,50,58z"/>
		</g>
		<g>
			<path style="fill:#3D320C;" d="M37,39v46c0,0,11-6,11-24.293V45c0-15.988,14-8,13-17C61,20,37,24,37,39z"/>
		</g>
		<g>
			<path style="fill:#3D320C;" d="M61,28.066c0.025,15.439,7.469,17.372,9.024,16.953c0-3.253,2.124-16.976-8.958-17.019
				C61.031,28,61,28.031,61,28.066z"/>
		</g>
		<g>
			<path style="fill:#FFFFFF;" d="M69.347,56l1.527,3.687c0.256,0.618,0.115,1.329-0.358,1.801c-0.646,0.646-1.692,0.646-2.337,0
				c-0.473-0.473-0.614-1.184-0.358-1.801L69.347,56z"/>
		</g>
	</g>
</g>
<g id="R-Yellow" style="display:none;">
	<g style="display:inline;">
		<circle style="fill:#FFD75E;" cx="55" cy="55" r="55"/>
	</g>
	<g style="display:inline;">
		<path style="fill:#FFE9A1;" d="M87,87l-3.591-9.337c-0.889-2.311-2.797-4.08-5.168-4.791L65,69.715v-8.283
			c-2.841,4.397-6.716,6.473-10,7.567c-3.281-1.094-7.158-3.157-10-7.544V72c0,0,2,4,10,4v11H87z"/>
		<path style="fill:#3D320C;" d="M65,69.715l5,1.192V53.781c-0.569,0.575-1.282,0.99-2.178,1.145
			c-0.7,2.611-1.679,4.747-2.822,6.512V69.715z"/>
		<path style="fill:#FFF5D9;" d="M45,61.456v8.26l-13.241,3.157c-2.371,0.711-4.279,2.48-5.168,4.791L23,87h32V69
			C51.719,67.906,47.842,65.843,45,61.456z"/>
		<path style="fill:#FFF5D9;" d="M70.025,45.003c0,0.004-0.001,0.01-0.001,0.015c-1.531,0.413-8.763-1.464-9.013-16.25
			C59.367,28.272,57.387,28,55,28c-12.976,0-13.982,7.971-14,16.979C41,61.777,49,67,55,69c4.604-1.535,10.38-4.973,12.822-14.075
			C71.136,54.353,72,50.312,72,47.222C72,46.121,71.017,45.021,70.025,45.003z"/>
		<g>
			<path style="fill:#FA9200;" d="M83.409,77.663c-0.585-1.522-1.619-2.8-2.93-3.706C78.021,78.543,67.102,82,54,82
				c-12.057,0-22.264-2.927-25.732-6.967c-0.715,0.753-1.295,1.637-1.677,2.63L23,87h32h32L83.409,77.663z"/>
		</g>
		<g>
			<path style="fill:#FFFFFF;" d="M55,28c-12.976,0-13.982,7.971-14,16.979C41,61.777,49,67,55,69V28z"/>
		</g>
		<g>
			<path style="fill:#3D320C;" d="M52,47c0-1.104-0.896-2-2-2c-0.002,0-0.004,0-0.006,0C49.995,45.021,50,45.042,50,45.062
				c0,1.102-0.892,1.996-1.994,1.999C48.04,48.137,48.917,49,50,49C51.104,49,52,48.104,52,47z"/>
		</g>
		<g>
			<path style="fill:#3D320C;" d="M61.994,47c0-1.104-0.896-2-2-2c-0.002,0-0.004,0-0.006,0c0.001,0.021,0.006,0.041,0.006,0.062
				c0,1.102-0.892,1.996-1.994,1.999C58.033,48.137,58.91,49,59.994,49C61.098,49,61.994,48.104,61.994,47z"/>
		</g>
		<g>
			<path style="fill:#F5C43D;" d="M50,58h10c0,0,0,3-5,3S50,58,50,58z"/>
		</g>
		<g>
			<path style="fill:#3D320C;" d="M37,39v46c0,0,11-6,11-24.293V45c0-15.988,14-8,13-17C61,20,37,24,37,39z"/>
		</g>
		<g>
			<path style="fill:#3D320C;" d="M61,28.066c0.025,15.439,7.469,17.372,9.024,16.953c0-3.253,2.124-16.976-8.958-17.019
				C61.031,28,61,28.031,61,28.066z"/>
		</g>
		<g>
			<path style="fill:#FFFFFF;" d="M69.347,56l1.527,3.687c0.256,0.618,0.115,1.329-0.358,1.801c-0.646,0.646-1.692,0.646-2.337,0
				c-0.473-0.473-0.614-1.184-0.358-1.801L69.347,56z"/>
		</g>
	</g>
</g>
</svg>
