<?xml version="1.0" encoding="utf-8"?>
<!-- Generator: Adobe Illustrator 24.0.2, SVG Export Plug-In . SVG Version: 6.00 Build 0)  -->
<svg version="1.1" id="Calque_1" xmlns="http://www.w3.org/2000/svg" xmlns:xlink="http://www.w3.org/1999/xlink" x="0px" y="0px"
	 viewBox="0 0 315 278" style="enable-background:new 0 0 315 278;" xml:space="preserve">
<style type="text/css">
	.st0{opacity:0.3;fill:#FF7700;}
	.st1{fill:none;stroke:#535461;stroke-width:2;stroke-miterlimit:10;}
	.st2{fill:#009688;}
	.st3{fill:#FBCD98;}
	.st4{fill:#FFD037;}
	.st5{fill:#FF7700;}
	.st6{fill:url(#SVGID_1_);}
	.st7{fill:#F7F7FD;}
	.st8{fill:#E2E2EC;}
	.st9{fill:#FFFFFF;}
	.st10{fill:#FC6681;}
	.st11{fill:url(#SVGID_2_);}
	.st12{fill:#DB8B8B;}
	.st13{opacity:0.1;enable-background:new    ;}
	.st14{fill:#2E3037;}
	.st15{fill:#474463;}
	.st16{opacity:5.000000e-02;enable-background:new    ;}
	.st17{fill:#472727;}
</style>
<g>
	<path class="st0" d="M289.6,151.6c-11.8,19.1-9.6,45.2-4.4,65.7c1.7,6.9,3.7,14.1,2.3,21.8c-1.8,9.4-8.4,16.8-15.1,21
		c-12.2,7.7-26.2,7.5-36.3-0.6c-8.8-6.9-14.5-19.1-23.5-25.6c-15-11-35.5-4.3-53.4,6c-12.6,7.3-26.5,16.5-38.2,11.3
		c-8.2-3.7-13.3-14-15.7-25.3c-1.2-5.4-1.9-11.4-4.5-15.5c-1.6-2.5-3.7-4.1-6-5.5c-20.5-12.3-48.2-2-67.9-16
		C13.4,179.4,5.9,159.9,3.4,139S2.9,95.9,5.5,73.9c1.8-15.6,4.3-32.3,12.5-45c8.7-13.4,22.3-19.4,34.2-18.2s22.2,8.8,31.1,18
		c11.1,11.5,21.1,26.2,35.5,29.9c9.8,2.5,20.5-0.4,30.9-2.1c17.4-2.8,34.5-2,51.6-0.9c16.3,1,32.7,2.2,47.9,8
		c10.7,4.1,19,12.5,29,18c6.5,3.6,13.9,4,20,8.8c7.5,5.9,14,16.8,11,30.5C306.3,134,295.9,141.4,289.6,151.6z"/>
	<path class="st1" d="M214,108.4c0,0,32.2-27,39.3-40.6s16.3-25.3,16.3-25.3"/>
	<path class="st2" d="M265.4,72.9l-13.9-3.1C251.4,69.8,254.7,84.4,265.4,72.9z"/>
	<path class="st3" d="M244.1,57.9l8,12C252.1,69.9,236.4,71,244.1,57.9z"/>
	<path class="st2" d="M270.8,61.6l-12.7-2.2C258.1,59.4,266.1,71.5,270.8,61.6z"/>
	<path class="st3" d="M252,50.9l6.3,8.2C258.3,59.1,247.2,60.1,252,50.9z"/>
	<path class="st3" d="M264.7,49.3c0,0,10.8,0.5,12.1,1.6c1.3,1-1.6,7.1-5.7,6.1S264.7,49.3,264.7,49.3z"/>
	<path class="st3" d="M260.4,39.6c0,0,4.4,8.1,4.3,9.6s-6.7,3.3-8.1-2.5C255.2,40.8,260.4,39.6,260.4,39.6z"/>
	<circle class="st4" cx="271.3" cy="44.8" r="3"/>
	<circle class="st4" cx="266.5" cy="41.7" r="3"/>
	<path class="st5" d="M113.6,214.1c0,0,5.2-15.4-27.6-33.9c0,0-33.2-9.7-29.8-43c0,0-38.3,28.1-12.4,63.8s48.3,28,48.3,28
		L113.6,214.1z"/>
	<path class="st1" d="M103.6,221c0,0-16-17.3-31.3-23.9c-3.1-1.4-5.9-3.2-8.3-5.5c-9.8-8.9-14-22.4-11.5-35.4l3.7-19"/>
	
		<linearGradient id="SVGID_1_" gradientUnits="userSpaceOnUse" x1="154.6784" y1="46.8215" x2="154.6784" y2="257.9399" gradientTransform="matrix(1 0 0 -1 0 279.1024)">
		<stop  offset="0" style="stop-color:#808080;stop-opacity:0.25"/>
		<stop  offset="0.54" style="stop-color:#808080;stop-opacity:0.12"/>
		<stop  offset="1" style="stop-color:#808080;stop-opacity:0.1"/>
	</linearGradient>
	<rect x="63.8" y="21.2" class="st6" width="181.8" height="211.1"/>
	<rect x="65.9" y="23.6" class="st7" width="177.6" height="206.2"/>
	<rect x="76.6" y="46.9" class="st8" width="44.9" height="3.6"/>
	<rect x="76.6" y="55.6" class="st8" width="76.7" height="3.6"/>
	<rect x="203.1" y="43.4" class="st9" width="31.9" height="27.5"/>
	<path class="st8" d="M234.8,43.6v27.2h-31.5V43.6H234.8 M235.1,43.3h-32.2v27.8h32.2V43.3z"/>
	<rect x="170.9" y="43.4" class="st9" width="31.9" height="27.5"/>
	<path class="st8" d="M202.6,43.6v27.2h-31.5V43.6H202.6 M202.9,43.3h-32.2v27.8h32.2V43.3z"/>
	<rect x="203.1" y="71.3" class="st9" width="31.9" height="27.5"/>
	<path class="st8" d="M234.8,71.4v27.2h-31.5V71.4H234.8 M235.1,71.1h-32.2v27.8h32.2V71.1z"/>
	<rect x="170.9" y="71.3" class="st9" width="31.9" height="27.5"/>
	<path class="st8" d="M202.6,71.4v27.2h-31.5V71.4H202.6 M202.9,71.1h-32.2v27.8h32.2V71.1z"/>
	<rect x="138.7" y="71.3" class="st9" width="31.9" height="27.5"/>
	<path class="st8" d="M170.5,71.4v27.2h-31.5V71.4H170.5 M170.8,71.1h-32.2v27.8h32.2V71.1z"/>
	<rect x="106.6" y="71.3" class="st9" width="31.9" height="27.5"/>
	<path class="st8" d="M138.3,71.4v27.2h-31.5V71.4H138.3 M138.6,71.1h-32.2v27.8h32.2V71.1z"/>
	<rect x="74.4" y="71.3" class="st9" width="31.9" height="27.5"/>
	<path class="st8" d="M106.1,71.4v27.2H74.5V71.4H106.1 M106.4,71.1H74.2v27.8h32.2V71.1z"/>
	<rect x="203.1" y="99.1" class="st9" width="31.9" height="27.5"/>
	<path class="st8" d="M234.8,99.2v27.2h-31.5V99.2H234.8 M235.1,98.9h-32.2v27.8h32.2V98.9z"/>
	<rect x="170.9" y="99.1" class="st9" width="31.9" height="27.5"/>
	<path class="st8" d="M202.6,99.2v27.2h-31.5V99.2H202.6 M202.9,98.9h-32.2v27.8h32.2V98.9z"/>
	<rect x="138.7" y="99.1" class="st9" width="31.9" height="27.5"/>
	<path class="st8" d="M170.5,99.2v27.2h-31.5V99.2H170.5 M170.8,98.9h-32.2v27.8h32.2V98.9z"/>
	<rect x="106.6" y="99.1" class="st9" width="31.9" height="27.5"/>
	<path class="st8" d="M138.3,99.2v27.2h-31.5V99.2H138.3 M138.6,98.9h-32.2v27.8h32.2V98.9z"/>
	<rect x="74.4" y="99.1" class="st9" width="31.9" height="27.5"/>
	<path class="st8" d="M106.1,99.2v27.2H74.5V99.2H106.1 M106.4,98.9H74.2v27.8h32.2V98.9z"/>
	<rect x="203.1" y="126.9" class="st9" width="31.9" height="27.5"/>
	<path class="st8" d="M234.8,127v27.2h-31.5V127H234.8 M235.1,126.7h-32.2v27.8h32.2V126.7z"/>
	<rect x="170.9" y="126.9" class="st9" width="31.9" height="27.5"/>
	<path class="st8" d="M202.6,127v27.2h-31.5V127H202.6 M202.9,126.7h-32.2v27.8h32.2V126.7z"/>
	<rect x="138.7" y="126.9" class="st9" width="31.9" height="27.5"/>
	<path class="st8" d="M170.5,127v27.2h-31.5V127H170.5 M170.8,126.7h-32.2v27.8h32.2V126.7z"/>
	<rect x="106.6" y="126.9" class="st9" width="31.9" height="27.5"/>
	<path class="st8" d="M138.3,127v27.2h-31.5V127H138.3 M138.6,126.7h-32.2v27.8h32.2V126.7z"/>
	<rect x="74.4" y="126.9" class="st9" width="31.9" height="27.5"/>
	<path class="st8" d="M106.1,127v27.2H74.5V127H106.1 M106.4,126.7H74.2v27.8h32.2V126.7z"/>
	<rect x="203.1" y="154.7" class="st9" width="31.9" height="27.5"/>
	<path class="st8" d="M234.8,154.9V182h-31.5v-27.2H234.8 M235.1,154.5h-32.2v27.8h32.2V154.5z"/>
	<rect x="170.9" y="154.7" class="st9" width="31.9" height="27.5"/>
	<path class="st8" d="M202.6,154.9V182h-31.5v-27.2H202.6 M202.9,154.5h-32.2v27.8h32.2V154.5z"/>
	<rect x="138.7" y="154.7" class="st9" width="31.9" height="27.5"/>
	<path class="st8" d="M170.5,154.9V182h-31.5v-27.2H170.5 M170.8,154.5h-32.2v27.8h32.2V154.5z"/>
	<rect x="106.6" y="154.7" class="st9" width="31.9" height="27.5"/>
	<path class="st8" d="M138.3,154.9V182h-31.5v-27.2H138.3 M138.6,154.5h-32.2v27.8h32.2V154.5z"/>
	<rect x="74.4" y="154.7" class="st9" width="31.9" height="27.5"/>
	<path class="st8" d="M106.1,154.9V182H74.5v-27.2H106.1 M106.4,154.5H74.2v27.8h32.2V154.5z"/>
	<rect x="203.1" y="182.5" class="st9" width="31.9" height="27.5"/>
	<path class="st8" d="M234.8,182.7v27.2h-31.5v-27.2H234.8 M235.1,182.3h-32.2v27.8h32.2V182.3z"/>
	<rect x="170.9" y="182.5" class="st9" width="31.9" height="27.5"/>
	<path class="st8" d="M202.6,182.7v27.2h-31.5v-27.2H202.6 M202.9,182.3h-32.2v27.8h32.2V182.3z"/>
	<rect x="138.7" y="182.5" class="st9" width="31.9" height="27.5"/>
	<path class="st8" d="M170.5,182.7v27.2h-31.5v-27.2H170.5 M170.8,182.3h-32.2v27.8h32.2V182.3z"/>
	<rect x="106.6" y="182.5" class="st9" width="31.9" height="27.5"/>
	<path class="st8" d="M138.3,182.7v27.2h-31.5v-27.2H138.3 M138.6,182.3h-32.2v27.8h32.2V182.3z"/>
	<rect x="74.4" y="182.5" class="st9" width="31.9" height="27.5"/>
	<path class="st8" d="M106.1,182.7v27.2H74.5v-27.2H106.1 M106.4,182.3H74.2v27.8h32.2V182.3z"/>
	<path class="st3" d="M141.3,235.2c0.9-0.7,1.8-1.5,2-2.5c0.3-1.1-0.3-2.2-1.4-2.5c-1.3-0.4-2.7,0.3-3.8,1.1
		c-1.1,0.8-2.3,1.6-3.6,1.4c1.4-1,2.1-2.7,1.7-4.2c-0.1-0.3-0.2-0.6-0.5-0.9c-0.7-0.6-2-0.4-2.9,0.1c-2.8,1.6-3.5,4.6-3.5,7.4
		c-0.3-1,0-2-0.1-3c0-1-0.3-2.1-1.4-2.7c-0.7-0.3-1.4-0.4-2.1-0.4c-1.2,0-2.6,0.1-3.5,0.8c-1.1,0.9-0.8,2.5,0.1,3.5s2.3,1.6,3.6,2.3
		c1,0.5,2,1.2,2.5,2c0.1,0.1,0.1,0.2,0.2,0.4h7.8C138.2,237.2,139.8,236.3,141.3,235.2z"/>
	<circle class="st10" cx="78.6" cy="75.4" r="1.8"/>
	<circle class="st4" cx="83.1" cy="75.4" r="1.8"/>
	<circle class="st5" cx="142.7" cy="102.4" r="1.8"/>
	<circle class="st5" cx="147.3" cy="102.4" r="1.8"/>
	<circle class="st3" cx="239.8" cy="154.4" r="1.8"/>
	<circle class="st3" cx="240.8" cy="152.3" r="1.8"/>
	<circle class="st3" cx="241.7" cy="150.5" r="1.8"/>
	<circle class="st5" cx="207.8" cy="75.4" r="1.8"/>
	<circle class="st5" cx="212.3" cy="75.4" r="1.8"/>
	<circle class="st5" cx="216.9" cy="75.4" r="1.8"/>
	<circle class="st5" cx="221.4" cy="75.4" r="1.8"/>
	<circle class="st5" cx="207.8" cy="131.7" r="1.8"/>
	<circle class="st5" cx="212.3" cy="131.7" r="1.8"/>
	<circle class="st5" cx="216.9" cy="131.7" r="1.8"/>
	<circle class="st5" cx="221.4" cy="131.7" r="1.8"/>
	<circle class="st4" cx="110.7" cy="102.4" r="1.8"/>
	<circle class="st10" cx="78.6" cy="129.9" r="1.8"/>
	
		<linearGradient id="SVGID_2_" gradientUnits="userSpaceOnUse" x1="2091.0073" y1="-22.3781" x2="2091.0073" y2="172.5978" gradientTransform="matrix(-1 0 0 -1 2352.8201 229.5124)">
		<stop  offset="0" style="stop-color:#808080;stop-opacity:0.25"/>
		<stop  offset="0.54" style="stop-color:#808080;stop-opacity:0.12"/>
		<stop  offset="1" style="stop-color:#808080;stop-opacity:0.1"/>
	</linearGradient>
	<path class="st11" d="M238.3,159c2,1.2,5.1,1.9,9-0.6l0,5.6c0.3,3.8,5,17.8,5,17.8l3.3,11.5c2.4,8.1,3.6,16.6,3.7,25
		c0,2.8,0.3,5.7,1.1,7.9c1.8,4.8-0.7,11-1.8,13.3c-1.8,0.6-3.7,1.1-5.5,1.6c-0.2,0-0.3,0.1-0.5,0.1l0,0c0,0-5,2-7.3,1.7
		c-1.7-0.2-2.7,1.9-1.4,3.4c-1.2,0.3-2.5,0.5-3.3,0.4c-2.2-0.3-3.3,3.6,0.8,4.7s27.9,0,27.9,0c1.4-0.7,2.1-2.2,1.8-3.7
		c1.8-0.1,3-0.1,3-0.1s4.2-1.9,0-7.1l-0.2,0.2l-0.9-2.6v-3.6c0,0,5.3-25.5,3.6-28.5s-2.5-18.4-2.5-18.4l0.6-16.7
		c1.5-3.1,2.3-8,2.7-11.8c0.6-1.8,0.9-3.7,1.1-5.6c0.1-0.9,0.1-1.8,0.2-2.8c0-2.1-0.3-4.3-1-6.3c1.6-2.3,4.2-5.8,6.3-7.9
		c3.3-3.3,2.5-7.1,2.5-7.1l-1.4-9.3l-3.3-15.9c0.4-4.4-0.5-6.9-1.5-8.4c0.2-1.4,0.5-2.8,0.6-4.3c0.7-6.2,0.4-12.5-1-18.6
		c-0.5-2.1-1.1-4.3-2.6-5.9c-1.7-1.8-4.4-2.9-5.1-5.3c-0.2-0.6-0.2-1.2-0.4-1.8c-0.6-1.6-2.5-2.1-4.2-2.3c-3-0.4-7.4-0.6-10.3,0.5
		c-2,0.8-4.8,3.1-5.9,5.6c-0.6,1.1-0.9,2.3-0.7,3.4c0.1,0.4,0.3,0.8,0.5,1.2c-0.4,1.2-0.7,2.4-0.7,3.7c0,4.4,2.7,8.3,6.8,9.9
		c0.1,0.2,0.1,0.4,0.2,0.6c0.1,0.5,0.2,1,0.3,1.5c-0.1,1-0.1,1.9-0.2,2.9c0,0.1-0.1,0.3-0.1,0.4c-2.4,1.1-4.7,2.3-7,3.6
		c1.7,2.5-0.3,12.9-0.3,12.9c-4.2,2.5-8.4,8.8-3.9,15.3c4.5,6.6,2,13.7,2,13.7l-0.7,10.7l0,0v0l-0.1,2.1h0.1l-0.1,0.8l0.1,0v0.9
		c-2,0.7-4.8,2.2-6.5,4.9c-0.8,1.3-1.8,2.5-2.9,3.6c-0.9,0.8-1,2.1-0.2,3C237.9,158.7,238.1,158.8,238.3,159z M272,130.5
		c-0.2-1.9,0.2-3.7,1-5.4c0.7,0,1.3,0,2,0c0.1,0.5,0.1,0.9,0.2,1.3C275.7,128.8,273.5,130,272,130.5L272,130.5z"/>
	<path class="st12" d="M272.5,236.7l1.1,3.2l-3.5,3.5l-11.5,2.7l-8.3-0.8l0.5-3l0,0c0.3-1.3,1.3-2.3,2.6-2.6
		c3.4-0.8,9.9-2.6,11.3-5.2L272.5,236.7z"/>
	<path class="st13" d="M272.5,236.7l1.1,3.2l-3.5,3.5l-11.5,2.7l-8.3-0.8l0.5-3l0,0c0.3-1.3,1.3-2.3,2.6-2.6
		c3.4-0.8,9.9-2.6,11.3-5.2L272.5,236.7z"/>
	<path class="st14" d="M252.9,244.5l1.6-2.1l-1.6-2.5c0,0-4.8,2-7,1.7s-3.2,3.5,0.8,4.6s26.9,0,26.9,0s4-1.9,0-7l-3.5,2.7
		c0,0-5.9,3.2-8.9,2.7L252.9,244.5z"/>
	<path class="st12" d="M245.7,249.1l8.3,0.8l11.5-2.7l3.5-3.5l-0.3-0.9l-0.4-1.2l-0.4-1.2l-7.8-2.1c-0.4,0.6-0.9,1.2-1.6,1.6
		c-2.5,1.7-7.1,3-9.7,3.6c-0.1,0-0.2,0.1-0.3,0.1c-1.1,0.4-2,1.3-2.3,2.5L245.7,249.1z"/>
	<path class="st13" d="M245.7,249.1l8.3,0.8l11.5-2.7l3.5-3.5l-0.3-0.9l-3.2,2.5c0,0-5.9,3.2-8.9,2.7h-8.3l1.6-2.1l-1.4-2.2
		c-1.1,0.4-2,1.3-2.3,2.5L245.7,249.1z"/>
	<path class="st14" d="M248.4,248.3l1.6-2.1l-1.6-2.5c0,0-4.8,2-7,1.7c-2.1-0.3-3.2,3.5,0.8,4.6s26.9,0,26.9,0s4-1.9,0-7l-3.5,2.7
		c0,0-5.9,3.2-8.9,2.7L248.4,248.3z"/>
	<path class="st12" d="M255.1,92.5c0,0,12.9,1.3,11-4c-0.5-1.5-0.7-3.2-0.4-4.7c0.3-2,1.1-3.8,2.3-5.5l-12.1,1.9
		c0.7,1.2,1.3,2.5,1.6,3.9C259,89.7,255.1,92.5,255.1,92.5z"/>
	<path class="st15" d="M277.1,153.7c0,0-0.3,11.5-3,17.2l-0.5,16.4c0,0,0.8,15,2.4,18s-3.5,27.9-3.5,27.9v4.3c0,0-8.6,3.2-11-0.5
		l2.4-32l-1.1-44.3L277.1,153.7z"/>
	<path class="st13" d="M277.1,153.7c0,0-0.3,11.5-3,17.2l-0.5,16.4c0,0,0.8,15,2.4,18s-3.5,27.9-3.5,27.9v4.3c0,0-8.6,3.2-11-0.5
		l2.4-32l-1.1-44.3L277.1,153.7z"/>
	<path class="st10" d="M282.5,116.7l1.6,4.3l1.3,9.1c0.4,2.6-0.5,5.2-2.4,7c-3.2,3.2-7.5,9.9-7.5,9.9l-5.1-15.3c0,0,5.1-0.8,4.3-4.3
		c-0.8-3.5-0.5-10-0.5-10L282.5,116.7z"/>
	<path class="st16" d="M282.5,116.7l1.6,4.3l1.3,9.1c0.4,2.6-0.5,5.2-2.4,7c-3.2,3.2-7.5,9.9-7.5,9.9l-5.1-15.3c0,0,5.1-0.8,4.3-4.3
		c-0.8-3.5-0.5-10-0.5-10L282.5,116.7z"/>
	<path class="st13" d="M258.6,239.9c3.4,5.4,8.8,2.3,9.8,1.7l-0.4-1.2l-7.8-2.1C259.8,239,259.2,239.5,258.6,239.9z"/>
	<path class="st15" d="M247.8,164.2c0.3,3.8,4.8,17.5,4.8,17.5l3.2,11.3c2.3,8,3.5,16.2,3.5,24.5c0,2.8,0.3,5.6,1,7.7
		c2.1,5.9-2.1,14-2.1,14c3.8,6.7,10.2,2.1,10.2,2.1V237c0,0,5.1-23.4,3.8-27.9s-1.9-16.9-1.9-16.9v-22.3c4.3-4.3,6.9-10,7.4-16
		c0.1-0.9,0.1-1.8,0.1-2.8c0.2-6.1-3.9-13.2-5.5-15.7c-0.4-0.6-0.6-1-0.6-1l-23.7,9.4l-0.1,0v0.9v2L247.8,164.2z"/>
	<path class="st13" d="M255.9,80.1c0.7,1.2,1.3,2.5,1.6,3.9c2.7,1,5.6,0.9,8.2-0.3c0.3-2,1.1-3.8,2.3-5.5L255.9,80.1z"/>
	<circle class="st12" cx="261.2" cy="73.7" r="10.5"/>
	<path class="st13" d="M247.8,146.8l0.1,0c11.3,2.3,25.4-9.4,25.4-9.4c-0.4-0.6-0.7-1.3-1-2c-0.4-0.6-0.6-1-0.6-1l-23.7,9.4
		l-0.1,0.9L247.8,146.8z"/>
	<path class="st10" d="M250.8,92.2c0,0,15-9.1,19.9-5.4l6.7,8.6c0,0,4.3,1.3,3.5,9.9l3.2,15.6l-9.7,2.4c0,0-5.6,5.4-1.1,13.2
		c0,0-14.2,11.8-25.5,9.4l0.8-12.6c0,0,2.4-7-1.9-13.4c-4.3-6.4-0.3-12.6,3.8-15C250.5,104.9,252.4,94.6,250.8,92.2z"/>
	<path class="st12" d="M250,147c0,0-5.6,1.1-8.3,5.4c-0.8,1.3-1.7,2.5-2.8,3.5c-0.9,0.8-0.9,2.1-0.1,3c0.1,0.1,0.3,0.3,0.5,0.4
		c2.1,1.3,5.6,2.1,10-1.5C256.7,151.6,250,147,250,147z"/>
	<path class="st13" d="M258.3,97.3c0,0,5.4-0.5,6.7,13.4c1.3,14,3.5,17.2,3.5,17.2s1.3,7.3-1.9,11.5c-3.2,4.3-9.4,13.4-9.4,13.4
		s-6.7,1.9-8.1-4.8l8.3-15.6c0,0,1.3-5.4-1.9-9.1S250,94.6,258.3,97.3z"/>
	<path class="st10" d="M257.7,96.5c0,0,5.4-0.5,6.7,13.4s3.5,17.2,3.5,17.2s1.3,7.3-1.9,11.5c-3.2,4.3-9.4,13.4-9.4,13.4
		s-6.7,1.9-8.1-4.8l8.3-15.6c0,0,1.3-5.4-1.9-9.1C251.9,118.8,249.4,93.8,257.7,96.5z"/>
	<path class="st13" d="M253.3,106.6c0,0-0.5,8.3,1.9,12.9c2.4,4.6,2.4,10.5,0,13.7"/>
	<path class="st13" d="M252,96.4c0,0,2.1-2.1,8.3-2.4c6.2-0.3,8.9-2.1,8.9-2.1"/>
	<path class="st13" d="M266.9,60.2c1.6,0.2,3.5,0.8,4.1,2.3c0.2,0.6,0.2,1.2,0.4,1.8c0.6,2.3,3.3,3.4,4.9,5.2
		c1.4,1.6,2.1,3.7,2.5,5.8c1.3,6,1.7,12.2,1,18.2c-0.5,4.5-1.6,8.8-1.9,13.3s0.2,9.2,2.7,12.9c1.1,1.6,2.4,3,3.2,4.8
		c-1.5,1.2-3.7,1.4-5.6,1.5c-2.3,0.1-4.6,0.1-6.9,0c-1.2,0-2.5-0.1-3.5-0.7c-0.8-0.5-1.4-1.2-1.8-2c-1.3-2.2-1.7-4.9-1.6-7.5
		c0.1-2.6,0.5-5.2,0.5-7.8c0-1.4-0.1-2.9-0.9-4.1c-0.6-0.8-1.5-1.4-2.2-2.1c-2.9-2.5-3.9-6.6-4-10.5c-0.1-3.8,0.5-7.7,0.2-11.5
		c-0.1-1.5-0.7-3.3-2.2-3.6c-0.5-0.1-1,0-1.4-0.2c-1.2-0.5-1.1-2.1-1.4-3.3c-0.4-1.4-1.5-2.4-1.9-3.8c-0.8-3.3,3.4-7.1,6.1-8.3
		C259.8,59.5,264,59.8,266.9,60.2z"/>
	<path class="st17" d="M267.2,59.6c1.6,0.2,3.5,0.8,4.1,2.3c0.2,0.6,0.2,1.2,0.4,1.8c0.6,2.3,3.3,3.4,4.9,5.2
		c1.4,1.6,2.1,3.7,2.5,5.8c1.3,6,1.7,12.2,1,18.2c-0.5,4.5-1.6,8.8-1.9,13.3c-0.3,4.5,0.2,9.2,2.7,12.9c1.1,1.6,2.4,3,3.2,4.8
		c-1.5,1.2-3.7,1.4-5.6,1.5c-2.3,0.1-4.6,0.1-6.9,0c-1.2,0-2.5-0.1-3.5-0.7c-0.8-0.5-1.4-1.2-1.8-2c-1.3-2.2-1.7-4.9-1.6-7.5
		s0.5-5.2,0.5-7.8c0-1.4-0.1-2.9-0.9-4.1c-0.6-0.8-1.5-1.4-2.2-2.1c-2.9-2.5-3.9-6.6-4-10.5c-0.1-3.8,0.5-7.7,0.2-11.5
		c-0.1-1.5-0.7-3.3-2.2-3.6c-0.5-0.1-1,0-1.4-0.2c-1.2-0.5-1.1-2.1-1.4-3.3c-0.4-1.4-1.5-2.4-1.9-3.8c-0.8-3.3,3.4-7.1,6.1-8.3
		C260.1,59,264.3,59.3,267.2,59.6z"/>
</g>
</svg>
