<svg xmlns="http://www.w3.org/2000/svg" viewBox="0 0 43.88 47.25"><defs><style>.cls-1{fill:#f70;}</style></defs><title>calendar</title><g id="Calque_2" data-name="Calque 2"><g id="BODY"><g id="_1" data-name="1"><path class="cls-1" d="M34.36,25.42l-13.5,13.5a.88.88,0,0,1-.6.24.9.9,0,0,1-.61-.24L12,31.32a.87.87,0,0,1-.24-.6.79.79,0,0,1,.24-.58l1.21-1.21a.78.78,0,0,1,.58-.24.86.86,0,0,1,.6.24l5.8,5.8L32,23a.88.88,0,0,1,.61-.24.78.78,0,0,1,.58.24l1.21,1.21a.8.8,0,0,1,.24.58.88.88,0,0,1-.24.6Zm-31,18.46H40.5v-27H3.37ZM13.5,11.81V4.22a.82.82,0,0,0-.24-.6.83.83,0,0,0-.6-.24H11a.81.81,0,0,0-.6.24.83.83,0,0,0-.24.6v7.59a.82.82,0,0,0,.24.6.83.83,0,0,0,.6.24h1.69a.81.81,0,0,0,.6-.24.83.83,0,0,0,.24-.6Zm20.25,0V4.22a.82.82,0,0,0-.24-.6.84.84,0,0,0-.61-.24H31.22a.81.81,0,0,0-.6.24.83.83,0,0,0-.24.6v7.59a.82.82,0,0,0,.24.6.83.83,0,0,0,.6.24H32.9a.83.83,0,0,0,.61-.24.8.8,0,0,0,.24-.6Zm10.13-1.69V43.88a3.42,3.42,0,0,1-3.38,3.37H3.37a3.24,3.24,0,0,1-2.37-1,3.24,3.24,0,0,1-1-2.37V10.13A3.24,3.24,0,0,1,1,7.75a3.24,3.24,0,0,1,2.37-1H6.75V4.22A4.07,4.07,0,0,1,8,1.24,4,4,0,0,1,11,0h1.69a4.06,4.06,0,0,1,3,1.24,4.06,4.06,0,0,1,1.24,3V6.75H27V4.22a4.07,4.07,0,0,1,1.24-3,4,4,0,0,1,3-1.24H32.9a4.06,4.06,0,0,1,3,1.24,4.06,4.06,0,0,1,1.24,3V6.75H40.5a3.42,3.42,0,0,1,3.38,3.37Z"/></g></g></g></svg>