<svg xmlns="http://www.w3.org/2000/svg" viewBox="0 0 51.59 51.59"><defs><style>.cls-1{fill:#f70;}</style></defs><title>easy</title><g id="Calque_2" data-name="Calque 2"><g id="BODY"><g id="_1" data-name="1"><path class="cls-1" d="M50.08,9.71H20.94a1.51,1.51,0,0,0-1.51,1.51v9.71a1.51,1.51,0,0,0,1.51,1.51H40.36a1.51,1.51,0,0,0,0-3H22.45V12.74H48.56V50.08a1.51,1.51,0,1,0,3,0V11.22A1.51,1.51,0,0,0,50.08,9.71Z"/><path class="cls-1" d="M30.65,38.85H11.22a1.51,1.51,0,0,0,0,3H29.14v6.69H3V11.22a1.51,1.51,0,0,0-3,0V50.08a1.51,1.51,0,0,0,1.51,1.51H30.65a1.51,1.51,0,0,0,1.51-1.51V40.36A1.51,1.51,0,0,0,30.65,38.85Z"/><path class="cls-1" d="M40.36,29.14H12.74V6.26h.92a1.51,1.51,0,0,0,1.17-2.47L12.43.6A1.51,1.51,0,0,0,10,.6L7.59,3.84A1.51,1.51,0,0,0,8.8,6.26h.92V30.65a1.51,1.51,0,0,0,1.51,1.51H38.85V50.08a1.51,1.51,0,1,0,3,0V30.65A1.51,1.51,0,0,0,40.36,29.14Z"/></g></g></g></svg>