<?xml version="1.0" encoding="utf-8"?>
<!-- Generator: Adobe Illustrator 24.0.2, SVG Export Plug-In . SVG Version: 6.00 Build 0)  -->
<svg version="1.1" id="Calque_1" xmlns="http://www.w3.org/2000/svg" xmlns:xlink="http://www.w3.org/1999/xlink" x="0px" y="0px"
	 viewBox="0 0 1519 182" style="enable-background:new 0 0 1519 182;" xml:space="preserve">
<style type="text/css">
	.st0{clip-path:url(#SVGID_2_);fill:#F7FBFF;}
</style>
<g>
	<defs>
		<rect id="SVGID_1_" x="-0.3" y="0" width="1519" height="182"/>
	</defs>
	<clipPath id="SVGID_2_">
		<use xlink:href="#SVGID_1_"  style="overflow:visible;"/>
	</clipPath>
	<path class="st0" d="M609-417.6c2.1-3.3,4.1-6.6,6.2-9.9c3.2-5.1,6.4-10,9.5-14.9c1.4-2.2,2.8-4.3,4.1-6.4
		c15.3-23.5,29.7-44.2,41.8-61.3c22.5-31.5,66.1-51.4,113.9-51.7l270.6-2.2h2.9l23.2-0.2l19.8-0.2l60.8-0.5h2.5l31-0.3h0.9
		l190.9-1.5l170.4-1.3l19.8-0.2l123.1-1h0.2l79.9-0.6h0.9l252.5-2l75.5-0.6c6.4-0.1,12.9,0.2,19.3,0.7l0,0c2.2,0.2,4.4,0.4,6.5,0.7
		c35.2,4.1,67.5,17.1,91.5,36.8c32.5,26.9,56.1,58,72,91.9c2.3,4.9,4.4,9.8,6.4,14.9c55,139.2-12,318.7-132.7,438.8
		c-5.1,5-10.2,9.9-15.4,14.7l-0.1,0.1c-37.1,34.1-78.7,62.6-123,82.8c-78.5,36-165.5,46.1-251.1,15.9
		c-72.4-25.5-140-37.6-205.5-40.8c-6.6-0.3-13.2-0.6-19.8-0.7c-150.3-3.5-291.2,37-456.6,63.2c-6.6,1-13.2,2.1-19.8,3
		c-118,17.6-248.9,26.9-404.6,7.4c-16.2-2-32.1-4.8-47.8-8.6c-6.9-1.7-13.5-3.4-19.8-5.3c-74.3-22.6-114.8-64.5-132-116.9
		c-1.6-4.9-3-9.8-4.2-14.8C442.2-114.7,531.6-293.5,609-417.6z"/>
	<path class="st0" d="M-580-403.4c2.1-3.3,4.1-6.6,6.2-9.9c3.2-5.1,6.4-10,9.5-14.9c1.4-2.2,2.8-4.3,4.1-6.4
		c15.3-23.5,29.7-44.2,41.8-61.3c22.5-31.5,66.1-51.4,113.9-51.7l270.6-2.2h2.9l23.2-0.2l19.8-0.2l60.8-0.5h2.5l31-0.3h0.9
		l190.9-1.5l170.4-1.3l19.8-0.2l123.1-1h0.2l79.9-0.6h0.9l252.5-2l75.5-0.6c6.4-0.1,12.9,0.2,19.3,0.7l0,0c2.2,0.2,4.4,0.4,6.5,0.7
		c35.2,4.1,67.5,17.1,91.5,36.8c32.5,26.9,56.1,58,72,91.9c2.3,4.9,4.4,9.8,6.4,14.9c55,139.2-12,318.7-132.7,438.8
		c-5.1,5-10.2,9.9-15.4,14.7l-0.1,0.1c-37.1,34.1-78.7,62.6-123,82.8c-78.5,36-165.5,46.1-251.1,15.9
		c-72.4-25.5-140-37.6-205.5-40.8c-6.6-0.3-13.2-0.6-19.8-0.7C218.3,94,77.4,134.5-88,160.7c-6.6,1-13.2,2.1-19.8,3
		c-118,17.6-248.9,26.9-404.6,7.4c-16.2-2-32.1-4.8-47.8-8.6c-6.9-1.7-13.5-3.4-19.8-5.3c-74.3-22.6-114.8-64.5-132-116.9
		c-1.6-4.9-3-9.8-4.2-14.8C-746.8-100.5-657.4-279.3-580-403.4z"/>
</g>
</svg>
