<?xml version="1.0" encoding="utf-8"?>
<!-- Generator: Adobe Illustrator 24.0.2, SVG Export Plug-In . SVG Version: 6.00 Build 0)  -->
<svg version="1.1" id="Calque_1" xmlns="http://www.w3.org/2000/svg" xmlns:xlink="http://www.w3.org/1999/xlink" x="0px" y="0px"
	 viewBox="0 0 852 522" style="enable-background:new 0 0 852 522;" xml:space="preserve">
<style type="text/css">
	.st0{fill:none;}
	.st1{opacity:0.1;fill:#FF7700;enable-background:new    ;}
	.st2{opacity:0.2;}
	.st3{fill:#3F3D56;}
	.st4{fill:#FF7700;}
	.st5{opacity:0.1;enable-background:new    ;}
	.st6{fill:#FFFFFF;}
	.st7{opacity:0.5;}
	.st8{opacity:0.7;fill:none;stroke:#3F3D56;stroke-linecap:round;stroke-miterlimit:10;enable-background:new    ;}
	.st9{fill:url(#SVGID_1_);}
	.st10{fill:#FBBEBE;}
	.st11{fill:#F86D70;}
	.st12{fill:#434175;}
</style>
<rect x="-17.9" y="-9.5" class="st0" width="1519" height="131.2"/>
<g>
	<path class="st1" d="M844.5,310c0,24.1-6.5,47.8-19,68.5c0,25.2-11.8,48.1-30.9,64.8c-4.8,4.2-9.9,7.9-15.4,11.1
		c-0.2,0.1-0.4,0.3-0.7,0.4c-0.4,0.2-0.8,0.5-1.2,0.7l-0.4,0.2l0,0c-18.1,10.1-38.4,15.3-59.1,15.2H168.6c-4.4,0-8.7-0.2-13-0.5
		c-15.3-1.2-30.3-4.7-44.5-10.3c-2.8-1.1-5.5-2.3-8.2-3.5c-1.3-0.6-2.5-1.2-3.8-1.8c-0.8-0.4-1.6-0.8-2.3-1.2
		c-9-4.7-17.4-10.5-25.1-17.1c-24.8-21.3-40.2-50.8-40.2-83.3c-13.9-21.4-21.3-46.4-21.2-72c0-72.3,57.8-130.9,129.1-130.9
		c2.2,0,4.4,0.1,6.6,0.2c0.3,0,0.6,0,0.9,0c12-20.5,28.1-39.3,47.4-55.9C246.9,49.5,323.9,21,409.7,21c72.1,0,137.9,20.1,188.4,53.3
		c19.1-10.8,40.7-16.5,62.7-16.4c71.3,0,129.1,58.6,129.1,130.9c0,4.6-0.3,9.1-0.7,13.7C823.9,227.1,844.6,267.2,844.5,310z"/>
	<g class="st2">
		<path class="st3" d="M111.2,459.1c0,0.3,0,0.7-0.1,1c-2.8-1.1-5.5-2.3-8.2-3.5c-1.4-0.2-2.8-0.8-3.8-1.8c-0.8-0.4-1.6-0.8-2.3-1.2
			c0.2-0.4,0.4-0.7,0.6-1.1c1.5-2.4,3.8-3.9,6.3-3.8c2.5,0.1,4.7,1.7,6,4.2C110.8,454.7,111.3,456.9,111.2,459.1z"/>
		<path class="st3" d="M111.6,446.6c0,2.2-0.7,4.3-1.8,6.2c-1.5,2.4-3.8,3.9-6.3,3.8l-0.5,0c-1.4-0.2-2.8-0.8-3.8-1.8
			c-0.7-0.7-1.3-1.4-1.7-2.3c-2-3.9-1.9-8.7,0.4-12.5c1.5-2.4,3.8-3.9,6.3-3.8s4.7,1.7,6,4.2C111.2,442.2,111.7,444.4,111.6,446.6z"
			/>
		
			<ellipse transform="matrix(3.158516e-02 -0.9995 0.9995 3.158516e-02 -332.7652 524.29)" class="st3" cx="104.2" cy="433.9" rx="10.2" ry="7.8"/>
		
			<ellipse transform="matrix(3.158516e-02 -0.9995 0.9995 3.158516e-02 -319.9088 512.5904)" class="st3" cx="104.6" cy="421.4" rx="10.2" ry="7.8"/>
		
			<ellipse transform="matrix(2.998651e-02 -0.9996 0.9996 2.998651e-02 -306.034 500.8249)" class="st3" cx="105" cy="408.1" rx="10.2" ry="7.8"/>
		<path class="st4" d="M78.4,322.5c-1-1.4-2-2.9-2.8-4.4l20.6-2.7l-22.2-0.5c-4-9.5-3.9-20.2,0.2-29.6l29.3,16.4l-26.8-21
			c10.9-17.6,33.9-23,51.5-12.1c17.6,10.9,23,33.9,12.1,51.5c-1,1.6-2,3-3.2,4.4c1.6,2.2,3,4.5,4,6.9l-27,13l28.7-8.6
			c3.7,12.1,1,25.2-7.2,34.9c12.3,16.6,8.7,40-7.9,52.3s-40,8.7-52.3-7.9c-10.2-13.9-9.6-33,1.5-46.2
			C66.7,354.8,67.3,335.7,78.4,322.5L78.4,322.5z"/>
		<path class="st5" d="M144.5,347.7c-0.3,8.4-3.3,16.4-8.8,22.9c12.3,16.6,8.7,40-7.9,52.3s-40,8.7-52.3-7.9
			c-10.2-13.9-9.6-33,1.5-46.2C72.2,362.2,144.6,343.5,144.5,347.7z"/>
	</g>
	<path class="st6" d="M708.9,108v349.4c0,7.4-6,13.4-13.4,13.4H159.3c-1.3,0-2.5-0.2-3.7-0.5c-5.8-1.6-9.7-6.9-9.7-12.9V301.5
		c0-0.8,0-1.6,0-2.4V150.4c0.3,0,0.6,0,0.9,0c12-20.5,28.1-39.3,47.4-55.9h501.2C702.9,94.6,708.9,100.6,708.9,108z"/>
	<path class="st3" d="M542.7,140H617c7.2,0,13.1,5.9,13.1,13.1l0,0c0,7.2-5.9,13.1-13.1,13.1h-74.3c-7.2,0-13.1-5.9-13.1-13.1l0,0
		C529.6,145.9,535.5,140,542.7,140z"/>
	<path class="st5" d="M544.9,144.4h69.9c4.8,0,8.7,3.9,8.7,8.7v0c0,4.8-3.9,8.7-8.7,8.7h-69.9c-4.8,0-8.7-3.9-8.7-8.7v0
		C536.2,148.3,540.1,144.4,544.9,144.4z"/>
	<path class="st4" d="M597.6,145.3h16c4.3,0,7.8,3.5,7.8,7.8v0c0,4.3-3.5,7.8-7.8,7.8h-16c-4.3,0-7.8-3.5-7.8-7.8v0
		C589.8,148.8,593.3,145.3,597.6,145.3z"/>
	<circle class="st6" cx="605.3" cy="153.1" r="4.9"/>
	<path class="st3" d="M542.7,312.8H617c7.2,0,13.1,5.9,13.1,13.1l0,0c0,7.2-5.9,13.1-13.1,13.1h-74.3c-7.2,0-13.1-5.9-13.1-13.1l0,0
		C529.6,318.7,535.5,312.8,542.7,312.8z"/>
	<path class="st5" d="M544.9,317.2h69.9c4.8,0,8.7,3.9,8.7,8.7l0,0c0,4.8-3.9,8.7-8.7,8.7h-69.9c-4.8,0-8.7-3.9-8.7-8.7l0,0
		C536.2,321.1,540.1,317.2,544.9,317.2z"/>
	<path class="st4" d="M597.6,318.2h16c4.3,0,7.8,3.5,7.8,7.8v0c0,4.3-3.5,7.8-7.8,7.8h-16c-4.3,0-7.8-3.5-7.8-7.8v0
		C589.8,321.7,593.3,318.2,597.6,318.2z"/>
	<circle class="st6" cx="605.3" cy="326" r="4.9"/>
	<path class="st3" d="M542.7,399.3H617c7.2,0,13.1,5.9,13.1,13.1v0c0,7.2-5.9,13.1-13.1,13.1h-74.3c-7.2,0-13.1-5.9-13.1-13.1v0
		C529.6,405.1,535.5,399.3,542.7,399.3z"/>
	<path class="st5" d="M544.9,403.7h69.9c4.8,0,8.7,3.9,8.7,8.7v0c0,4.8-3.9,8.7-8.7,8.7h-69.9c-4.8,0-8.7-3.9-8.7-8.7v0
		C536.2,407.6,540.1,403.7,544.9,403.7z"/>
	<path class="st4" d="M597.6,404.6h16c4.3,0,7.8,3.5,7.8,7.8v0c0,4.3-3.5,7.8-7.8,7.8h-16c-4.3,0-7.8-3.5-7.8-7.8v0
		C589.8,408.1,593.3,404.6,597.6,404.6z"/>
	<circle class="st6" cx="605.3" cy="412.4" r="4.9"/>
	<path class="st4" d="M232.4,123.5h43.2c4.3,0,7.8,3.5,7.8,7.8v0c0,4.3-3.5,7.8-7.8,7.8h-43.2c-4.3,0-7.8-3.5-7.8-7.8v0
		C224.7,127,228.1,123.5,232.4,123.5z"/>
	<path class="st4" d="M232.4,145.3h147.6c4.3,0,7.8,3.5,7.8,7.8v0c0,4.3-3.5,7.8-7.8,7.8H232.4c-4.3,0-7.8-3.5-7.8-7.8v0
		C224.7,148.8,228.1,145.3,232.4,145.3z"/>
	<path class="st4" d="M232.4,167.2h147.6c4.3,0,7.8,3.5,7.8,7.8v0c0,4.3-3.5,7.8-7.8,7.8H232.4c-4.3,0-7.8-3.5-7.8-7.8v0
		C224.7,170.7,228.1,167.2,232.4,167.2z"/>
	<g class="st7">
		<path class="st4" d="M232.4,209.9h43.2c4.3,0,7.8,3.5,7.8,7.8v0c0,4.3-3.5,7.8-7.8,7.8h-43.2c-4.3,0-7.8-3.5-7.8-7.8v0
			C224.7,213.4,228.1,209.9,232.4,209.9z"/>
		<path class="st4" d="M232.4,231.8h106.2c4.3,0,7.8,3.5,7.8,7.8v0c0,4.3-3.5,7.8-7.8,7.8H232.4c-4.3,0-7.8-3.5-7.8-7.8v0
			C224.7,235.2,228.1,231.8,232.4,231.8z"/>
		<path class="st4" d="M232.4,253.6h147.6c4.3,0,7.8,3.5,7.8,7.8v0c0,4.3-3.5,7.8-7.8,7.8H232.4c-4.3,0-7.8-3.5-7.8-7.8v0
			C224.7,257.1,228.1,253.6,232.4,253.6z"/>
	</g>
	<path class="st4" d="M232.4,296.3h43.2c4.3,0,7.8,3.5,7.8,7.8v0c0,4.3-3.5,7.8-7.8,7.8h-43.2c-4.3,0-7.8-3.5-7.8-7.8v0
		C224.7,299.8,228.1,296.3,232.4,296.3z"/>
	<path class="st4" d="M232.4,318.2h147.6c4.3,0,7.8,3.5,7.8,7.8v0c0,4.3-3.5,7.8-7.8,7.8H232.4c-4.3,0-7.8-3.5-7.8-7.8v0
		C224.7,321.7,228.1,318.2,232.4,318.2z"/>
	<path class="st4" d="M232.4,340h85.8c4.3,0,7.8,3.5,7.8,7.8v0c0,4.3-3.5,7.8-7.8,7.8h-85.8c-4.3,0-7.8-3.5-7.8-7.8v0
		C224.7,343.5,228.1,340,232.4,340z"/>
	<path class="st4" d="M232.4,382.8h43.2c4.3,0,7.8,3.5,7.8,7.8v0c0,4.3-3.5,7.8-7.8,7.8h-43.2c-4.3,0-7.8-3.5-7.8-7.8v0
		C224.7,386.2,228.1,382.8,232.4,382.8z"/>
	<path class="st4" d="M232.4,404.6h147.6c4.3,0,7.8,3.5,7.8,7.8v0c0,4.3-3.5,7.8-7.8,7.8H232.4c-4.3,0-7.8-3.5-7.8-7.8v0
		C224.7,408.1,228.1,404.6,232.4,404.6z"/>
	<path class="st4" d="M232.4,426.5h115.7c4.3,0,7.8,3.5,7.8,7.8v0c0,4.3-3.5,7.8-7.8,7.8H232.4c-4.3,0-7.8-3.5-7.8-7.8v0
		C224.7,429.9,228.1,426.5,232.4,426.5z"/>
	<line class="st8" x1="199.9" y1="196.7" x2="675.3" y2="196.7"/>
	<line class="st8" x1="199.9" y1="284.6" x2="675.3" y2="284.6"/>
	<line class="st8" x1="199.9" y1="372.4" x2="675.3" y2="372.4"/>
	<line class="st8" x1="199.9" y1="462.5" x2="675.3" y2="462.5"/>
	<ellipse class="st1" cx="590" cy="508.4" rx="107.7" ry="7.7"/>
	<circle class="st1" cx="61.7" cy="110.1" r="15.8"/>
	<circle class="st1" cx="127.4" cy="22.9" r="15.8"/>
	<circle class="st1" cx="122.1" cy="82.8" r="26.4"/>
	<path class="st3" d="M542.7,226.4H617c7.2,0,13.1,5.9,13.1,13.1v0c0,7.2-5.9,13.1-13.1,13.1h-74.3c-7.2,0-13.1-5.9-13.1-13.1v0
		C529.6,232.3,535.5,226.4,542.7,226.4z"/>
	<path class="st5" d="M544.9,230.8h69.9c4.8,0,8.7,3.9,8.7,8.7l0,0c0,4.8-3.9,8.7-8.7,8.7h-69.9c-4.8,0-8.7-3.9-8.7-8.7l0,0
		C536.2,234.7,540.1,230.8,544.9,230.8z"/>
	
		<linearGradient id="SVGID_1_" gradientUnits="userSpaceOnUse" x1="5963.2417" y1="253.7199" x2="5963.2417" y2="542.305" gradientTransform="matrix(-1 0 0 -1 6554 767)">
		<stop  offset="0" style="stop-color:#808080;stop-opacity:0.25"/>
		<stop  offset="0.54" style="stop-color:#808080;stop-opacity:0.12"/>
		<stop  offset="1" style="stop-color:#808080;stop-opacity:0.1"/>
	</linearGradient>
	<path class="st9" d="M539.1,489.1c1.1-0.2,2.3-0.4,3.4-0.7c-0.1,1.1-0.5,2.2-1,3.2c-1.1,2.1-3.3,3.4-5.3,4.7
		c-0.6-0.5-1.4-0.6-2.1-0.1c-2.4,1.5-4.3,3.5-6.9,4.8c-0.9,0.4-1.8,0.8-2.7,1.3c-2.1,1.3-3.9,3.1-5.1,5.3c-0.7,1.1-1.3,2.6-0.6,3.7
		c0.3,0.4,0.6,0.7,1,0.9c1,0.7,2.3,1.1,3.6,1.1c0.7-0.1,1.5-0.3,2.3-0.5c1-0.2,2-0.1,3-0.2c1.5-0.2,2.9-0.6,4.3-1.1l5-1.8
		c1.4-0.5,2.8-1,4.1-1.7c0.8-0.4,1.5-0.9,2.4-1.3c0.9-0.4,1.9-0.7,2.8-1l2.8-0.8c0.4-0.2,0.8-0.2,1.3-0.2c0.4,0.1,0.7,0.3,1.1,0.4
		c0.6,0.1,1.2,0,1.8-0.2l3.3-0.9c0.7-0.2,1.4-0.4,2-0.8c1.5-1.1,1.8-3.2,1.8-5.1c0-2.8-0.3-5.6-0.9-8.4c-0.4,0.2-0.8,0.5-1.1,0.8
		c-0.3-0.5-0.7-0.9-1.1-1.4c-1.5-1.8-2.6-3.8-3.3-6.1c1.2-0.9,2.2-2,2.9-3.3c-1.7-6.6-3.5-13.4-7.1-19.3c-1.2-1.9-2.5-3.7-3.6-5.6
		c-3.4-5.5-4.2-12.4-8.1-17.5c-0.8-1.1-0.8-2.5,0-3.6c0.5-0.6,1.2-1.2,1-1.9c-0.1-0.5-0.7-1-0.4-1.5c0.1-0.2,0.3-0.4,0.5-0.5
		c0.7-0.6,0.6-1.7,0.6-2.6c0.1-2.3,1.5-4.4,2.9-6.2c0.3-0.4,0.6-0.8,1.1-1.1c0.4-0.2,0.8-0.3,1.1-0.5c1.3-0.8,1.2-2.6,1.8-4
		c0.8-1.8,2.8-2.7,4.1-4.2c1.7-1.9,2.1-4.5,3.8-6.1c0.2-0.2,0.4-0.3,0.6-0.5c-0.8,2.8-1.1,5.6-1,8.5c-0.2,9.9,2.3,20.1,1.1,29.9
		c-0.9,7.8,3.8,15.5,10.6,19.4c2.6,1.4,5.4,2.6,8.2,3.5c4.2,1.5,8.4,3.1,12.5,4.8c2.9,1.2,5.8,2.5,8.6,3.9c3.5,1.7,6.9,3.6,10.2,5.7
		c4.1,2.6,8.1,5.2,11,9.1c1.8-0.1,3.5-0.7,4.9-1.8c1.1,0.9,2.5,1.5,3.5,2.5c1.4,1.5,2.4,3.4,2.8,5.4h-0.4c0.1,1,0.1,1.9,0.1,2.9
		c0,0.2,0,0.5-0.1,0.7c-0.1,0.1-0.2,0.3-0.4,0.4l-2.2,1.5c-1.6,1.1-3.4,2.5-3.5,4.5c0,0.6,0.1,1.1,0.5,1.6c0.5,0.5,1.3,0.8,2,0.9
		c3.9,0.8,7.9,1.6,11.9,1.1c1.9-0.3,3.8-0.9,5.1-2.3c1.1-1.3,1.5-3.1,1.8-4.8c0.5-2.9,0.9-5.9,1.2-8.9c0.1-2,0.5-4,1.2-5.9
		c0.1-0.2,0.2-0.3,0.3-0.4c0.2-0.1,0.4,0,0.5-0.1c0.2-0.1,0.3-0.3,0.4-0.6c0.7-2.9,1.1-5.8,1-8.8c0-0.8-0.1-1.5-0.3-2.3
		c-0.6-1.2-1.8-2.1-3.1-2.4c-1.3-0.3-2.7-0.4-4-0.5c-1.1-0.1-2.3-0.3-3.3-0.6c-0.4-0.2-0.9-0.2-1.4-0.2c-0.5,0.1-0.8,0.5-0.8,1
		c0,0.2,0.1,0.3,0.2,0.5l-1.1-0.2c-0.9-0.2-2.2-0.6-3.6-0.9c0-0.2,0-0.5,0-0.7c0-0.5-0.3-1-0.8-1.3l-19.3-10.3l-3.6-1.9
		c-7.9-4.2-16-8.1-24-12.3c-0.5,0.2-1-0.4-1.1-1c-0.2-0.5-0.3-1.2-0.8-1.4c-0.2-0.1-0.6-0.1-0.7-0.3c-0.1-0.2-0.2-0.4-0.1-0.6
		c0.3-3.8,3-7.4,2.5-11.2c-0.2-1.6-1.1-3.2-0.7-4.8c0.3-1.1,1-2,1.5-3c0.9-2.3,0-5.2,1-7.5c0.7-1.5,1.2-3.1,1.4-4.8
		c0.5-3.3,1.5-6.5,2.9-9.4c0.7-1.5,1.6-2.9,2.7-4.1c0.6-0.6,1.2-1.2,1.8-1.8c1.7-2,2.3-4.7,2.8-7.3c0.9-4.7,1.5-9.5,0.4-14.2
		c-0.4-1.6-0.9-3.1-0.9-4.8c0-1.9,0.8-4.2-0.2-5.7c1-0.8,1.6-1.9,1.8-3.1c0-0.4,0.1-0.9,0.3-1.3c0.3-0.4,0.7-0.8,1.2-1.1
		c1.5-1.2,2.3-3.1,1.9-5c1,0.5,2-0.6,2.5-1.6c0.5-1,0.8-2.2,1.8-2.6c0.7-0.3,1.5-0.1,2.2-0.3c1.2-0.3,1.9-1.5,2.7-2.3
		c1.7-1.8,4-2.7,6.2-3.8c6.5-3.3,11.7-8.5,16.9-13.6c2.7-2.5,5.1-5.2,7.3-8.2c0.6-0.9,1.1-1.7,1.6-2.6l0.1-0.1l0,0.2
		c0.1,0.3,0.2,0.6,0.3,1c0.2,0.7,0.5,1.5,0.7,2.3c0.8,2.2,1.6,4.5,3.2,6.2c0.5,0.5,1.1,0.9,1.7,1.3c1.3,0.7,2.8,1.1,4.3,1.3
		c0.6,0.1,1.1,0.1,1.7,0.1s1.2,0.1,1.7,0.1l11.8,0.3c-4.1-5.9-4.4-13.5-4.1-20.7c0.7-18.4,4.3-36.9,0.9-55c-0.4-2.2-0.9-4.4-2.3-6.1
		c-1.8-2.3-4.6-3.4-7.4-4.1s-5.7-1-8.3-2.1c-2.2-1-4.2-2.6-6.6-3.1c-1.7-0.3-3.5-0.3-5.3,0.1c-2.1,0.3-4.2,0.7-6.4,1.1l-0.5,0.1h0
		l-0.4,0.1h-0.1l-0.3,0.1h-0.1l-0.3,0.1l-0.1,0l-0.3,0.1l-0.2,0.1l-0.2,0.1l-0.2,0.1l-0.2,0.1l-0.2,0.1l-0.2,0.1l-0.2,0.1l-0.2,0.1
		l-0.2,0.1l-0.2,0.1l-0.2,0.1l-0.2,0.1l-0.2,0.1l-0.1,0.1l-0.2,0.1l-0.1,0.1c-0.1,0.1-0.1,0.1-0.2,0.2l-0.1,0.1
		c-0.1,0.1-0.1,0.1-0.2,0.2c0,0-0.1,0.1-0.1,0.1s-0.1,0.2-0.2,0.3v0c-0.2,0.3-0.3,0.6-0.4,0.9c-0.1,0.2-0.1,0.3-0.1,0.5
		c-0.1,0.3-0.1,0.6-0.2,0.9c0,0.2,0,0.3,0,0.5c0,0.3,0,0.6,0,1c0,0.5,0.1,1.1,0.2,1.6c-8.4,5-11.3,15.9-6.3,24.3
		c1.4,2.3,3.2,4.2,5.4,5.7c0,0.3,0.1,0.6,0.1,0.9v0.2c0,1-0.1,2.1-0.3,3.1c-2.9-0.6-5.8-0.8-8.8-0.8c-1.8,0-3.5,0.2-5.3,0.3
		c-1.9-2.3-3.7-4.7-5.3-7.1l-3.9-5.7c-1.3-1.9-2.6-3.8-3.6-5.8c-1-1.9-1.7-3.8-2.8-5.6c-2.2-3.7-5.8-6.8-6.2-11.1l-1,0.2
		c-0.6-0.9-1.3-1.9-1.5-2.4c-1.4-3-2.5-6.2-3.2-9.5c-0.4-1.7-0.6-3.5-1.6-4.9c-0.6-0.9-1.4-1.7-2.3-2.4c-1.4-1.3-3.1-2.4-4.9-3.1
		c-1.6-0.6-3.4-0.5-5,0.3c-0.2-0.1-0.5-0.2-0.7-0.3c-1.8-0.7-3.9-0.5-5.5,0.6c-1.5,1.2-2.2,3.2-2.4,5.1c-0.4,2.7,0.1,5.4,1.3,7.7
		c1.5,2.6,4.1,4.4,6.2,6.4c1.5,1.5,2.8,3.1,3.9,4.9c0.3,3.9,0.2,7.9-0.3,11.8c-0.3,1.7-0.7,3.3-0.9,5c-0.5,6.1,2.6,12.2,1.5,18.2
		c-0.4,1.9,0.4,3.7,2.1,4.7c1.6,0.9,3.5,1,5.3,1.5c3.5,0.9,6.6,3.2,10.1,4c1.6,0.4,3.3,0.5,5,0.9l0.3,0.1c-1.3,1.4-2.2,3.1-2.6,5
		c-0.7,3.1,0,6.3-0.8,9.4c-0.6,2.5-2.1,4.7-3.6,6.9c-2.8,4.1-5.7,8.3-8.6,12.4c-1.9,2.9-4,5.7-6.3,8.3c-3.9,4.3-10.7,7.7-12.7,12.9
		c0-0.1-0.1-0.2-0.1-0.4c-2.8,2.1-3.9,6-6.1,8.6c-1.1,1.3-2.5,2.4-3.6,3.6c-1.5,1.6-2.8,3.2-4,5c-3.4,4.7-6.7,9.3-9.1,14.5
		c-1.3,2.7-2.2,5.5-3.2,8.3c-3.9,11.1-10.3,21.6-13,33c-0.6,2.8-2.3,5.3-2.6,8.2c-0.3,3,1.1,6,2.6,8.7c2.2,4.1,4.6,8.1,6.6,12.3
		c1.1,2.5,2.1,5,3.4,7.4c1.4,2.6,3.1,5.1,4.6,7.6C535.2,474.5,537.2,481.9,539.1,489.1z M587.3,280.2L587,280
		c-1.3-0.6-2.5-1.4-3.5-2.3c-3.1-3.4-4.5-8.4-5.5-12.9c-0.1-0.5-0.2-1.1-0.3-1.6C581.5,268.5,585.1,274.1,587.3,280.2L587.3,280.2z"
		/>
	<path class="st10" d="M573,236.4c-0.4-1.7-0.6-3.4-1.5-4.9c-0.6-0.9-1.4-1.7-2.3-2.4c-1.4-1.3-3.1-2.3-4.9-3
		c-1.8-0.7-3.9-0.5-5.5,0.6c-1.5,1.2-2.2,3.2-2.4,5.1c-0.4,2.6,0.1,5.3,1.3,7.7c1.5,2.6,4.1,4.3,6.2,6.4c1.6,1.5,2.9,3.2,4.1,5.1
		c0.5,1,1.1,1.9,1.9,2.7c0.7,0.8,1.8,1.3,2.9,1.2c0.9-0.2,1.7-0.7,2.4-1.4c0.9-0.8,3.3-2.2,3.4-3.4c0.1-1-1.8-3.3-2.3-4.2
		C574.8,242.8,573.7,239.6,573,236.4z"/>
	<path class="st5" d="M573,236.4c-0.4-1.7-0.6-3.4-1.5-4.9c-0.6-0.9-1.4-1.7-2.3-2.4c-1.4-1.3-3.1-2.3-4.9-3
		c-1.8-0.7-3.9-0.5-5.5,0.6c-1.5,1.2-2.2,3.2-2.4,5.1c-0.4,2.6,0.1,5.3,1.3,7.7c1.5,2.6,4.1,4.3,6.2,6.4c1.6,1.5,2.9,3.2,4.1,5.1
		c0.5,1,1.1,1.9,1.9,2.7c0.7,0.8,1.8,1.3,2.9,1.2c0.9-0.2,1.7-0.7,2.4-1.4c0.9-0.8,3.3-2.2,3.4-3.4c0.1-1-1.8-3.3-2.3-4.2
		C574.8,242.8,573.7,239.6,573,236.4z"/>
	<path class="st11" d="M623.4,284.4c-3.8-1-7.8-1.5-11.8-1.5c-6.6,0.1-13.5,1.7-19.8-0.3c-1.6-0.6-3.2-1.2-4.7-2
		c-1.3-0.6-2.5-1.3-3.5-2.3c-3.2-3.3-4.5-8.4-5.5-12.8c-0.9-4.5-1.4-9.1-1.5-13.7c-1.6,0.8-3.4,1.5-5.2,1.4
		c-1.8-0.2-3.6-1.5-3.6-3.3c0.3,4.2,0.5,8.5-0.2,12.7c-0.3,1.7-0.7,3.3-0.9,5c-0.5,6.1,2.6,12.1,1.5,18.1c-0.4,1.8,0.4,3.7,2.1,4.7
		c1.6,0.9,3.6,1,5.3,1.5c3.5,0.9,6.6,3.1,10.1,4c1.6,0.4,3.4,0.5,5,0.9c2.3,0.6,4.4,2,6.8,2.4c1.8,0.3,3.6,0.1,5.4,0.3
		c1.6,0.1,3.1,0.5,4.7,0.6c3.9,0.1,7.5-2.1,10-5C620.2,292,621.8,287.9,623.4,284.4z"/>
	<path class="st5" d="M623.4,284.4c-3.8-1-7.8-1.5-11.8-1.5c-6.6,0.1-13.5,1.7-19.8-0.3c-1.6-0.6-3.2-1.2-4.7-2
		c-1.3-0.6-2.5-1.3-3.5-2.3c-3.2-3.3-4.5-8.4-5.5-12.8c-0.9-4.5-1.4-9.1-1.5-13.7c-1.6,0.8-3.4,1.5-5.2,1.4
		c-1.8-0.2-3.6-1.5-3.6-3.3c0.3,4.2,0.5,8.5-0.2,12.7c-0.3,1.7-0.7,3.3-0.9,5c-0.5,6.1,2.6,12.1,1.5,18.1c-0.4,1.8,0.4,3.7,2.1,4.7
		c1.6,0.9,3.6,1,5.3,1.5c3.5,0.9,6.6,3.1,10.1,4c1.6,0.4,3.4,0.5,5,0.9c2.3,0.6,4.4,2,6.8,2.4c1.8,0.3,3.6,0.1,5.4,0.3
		c1.6,0.1,3.1,0.5,4.7,0.6c3.9,0.1,7.5-2.1,10-5C620.2,292,621.8,287.9,623.4,284.4z"/>
	<path class="st10" d="M634,472.1c1.2,0.1,2.3,0.5,3.4,1.1c1.4,1,2.4,2.4,3,4c1.6,3.9,1.9,8.2,2,12.5c0.1,3.4-0.1,6.9-1.3,10.1
		c-0.3,1-0.9,1.9-1.7,2.6c-0.7,0.5-1.5,0.9-2.3,1.1c-1.8,0.5-3.9,0.5-5.4-0.7c-1.7-1.3-2.1-3.6-2.4-5.7c-0.5-2.8-1.1-5.8-3.2-7.7
		c-1.5-1.5-3.8-2.2-4.9-4c-1.3-2.1-0.6-4.9,0.2-7.3c0.7-2,1.8-6.2,4-7.2S631.8,471.7,634,472.1z"/>
	<path class="st10" d="M555,482.2c0.6,2.3,1.8,4.4,3.3,6.2c0.9,1.1,2.1,2.4,1.6,3.8c-0.2,0.5-0.5,0.9-0.9,1.2
		c-7,6.9-16.9,10.2-26.7,11.5c-0.2,0-0.3,0-0.5,0c-0.3-0.1-0.4-0.5-0.4-0.8c-0.2-1-0.2-2.1,0-3.1c0.5-2.4,2.6-4.1,4.6-5.4
		s4.3-2.6,5.4-4.7c1.4-2.7,0.8-6.1,2.5-8.6c1.4-2,3.9-2.9,6.4-3.3c0.8-0.1,2.6-1.1,3.3-0.6S554.8,481.3,555,482.2z"/>
	<path class="st11" d="M634.9,471.9c0-0.5,0.4-0.9,0.8-1c0.5,0,0.9,0,1.4,0.2c1.1,0.3,2.2,0.5,3.3,0.6c1.4,0,2.7,0.2,4,0.5
		c1.3,0.3,2.5,1.2,3.1,2.4c0.3,0.7,0.4,1.5,0.3,2.3c0,2.9-0.3,5.9-1,8.8c-0.1,0.2-0.1,0.5-0.4,0.6c-0.2,0.1-0.4,0-0.5,0.1
		c-0.2,0.1-0.3,0.2-0.3,0.4c-0.7,1.9-1.1,3.8-1.2,5.8c-0.3,2.9-0.7,5.9-1.2,8.8c-0.3,1.7-0.6,3.5-1.8,4.8c-1.2,1.5-3.2,2.1-5.1,2.3
		c-4,0.5-8-0.3-11.9-1.1c-0.7-0.1-1.5-0.4-2-0.9c-0.4-0.4-0.5-1-0.5-1.6c0.1-2,1.9-3.3,3.5-4.4l2.3-1.5c0.2-0.1,0.3-0.2,0.4-0.4
		c0.1-0.2,0.1-0.5,0.1-0.7l-0.1-2.9c3,0.1,5.8,1.8,7.2,4.5c0.3,0.6,0.6,1.3,1.2,1.6c0.9,0.2,1.7-0.3,2-1.2c0.2-0.8,0.2-1.7-0.1-2.5
		c-1.3-7.1-1-14.3-1.8-21.4c-0.1-0.8-0.3-1.6-0.7-2.3C635.7,473,635,472.5,634.9,471.9z"/>
	<path class="st4" d="M562.1,247.3h-16c-4.3,0-7.8-3.5-7.8-7.8v0c0-4.3,3.5-7.8,7.8-7.8h16c4.3,0,7.8,3.5,7.8,7.8v0
		C569.9,243.8,566.4,247.3,562.1,247.3z"/>
	<circle class="st6" cx="554.4" cy="239.5" r="4.9"/>
	<path class="st11" d="M536.9,499.2c-0.3,0.5-0.8,1-1.2,1.5c-0.4,0.6-0.3,1.3,0.2,1.7c0.3,0.1,0.7,0.2,1,0.1c7-0.9,13.7-3.9,19-8.6
		c0.9-0.7,1.7-1.6,2.3-2.5c0.6-0.9,1.1-2.1,2.2-2.5c0.6,2.7,1,5.5,1,8.3c0,1.9-0.3,4-1.8,5c-0.6,0.4-1.3,0.6-2,0.8l-3.3,0.9
		c-0.6,0.2-1.2,0.3-1.8,0.2c-0.4-0.1-0.7-0.4-1.1-0.4c-0.4,0-0.9,0-1.3,0.2l-2.9,0.8c-1,0.3-1.9,0.6-2.8,1c-0.8,0.4-1.6,0.9-2.4,1.3
		c-1.3,0.7-2.7,1.2-4.1,1.7l-5,1.7c-1.4,0.5-2.8,0.9-4.3,1.1c-1,0.1-2,0-3,0.2c-0.7,0.1-1.5,0.4-2.3,0.5c-1.3,0-2.5-0.3-3.6-1.1
		c-0.4-0.2-0.8-0.5-1-0.9c-0.7-1.1-0.1-2.6,0.6-3.7c1.2-2.1,3-3.9,5.1-5.2c0.9-0.5,1.8-0.8,2.7-1.3c2.6-1.2,4.5-3.3,6.9-4.7
		C536.5,494,537.9,497.4,536.9,499.2z"/>
	<path class="st10" d="M607.3,297.3c2.7,1.8,5.7,3,8.9,3.4c1.7,0.2,3.3,0.3,5,0.3c7,0,14-0.6,20.9-1.7c-2.7-3-5.5-6.3-6.6-10.2
		c-0.5-2.1-0.6-4.3-0.3-6.4c0.4-2.7,1.1-5.4,2-8c-2.9,0.2-5.9,0.1-8.8-0.2c-1.7-0.2-5.8-1.7-7.2-0.5c-1.5,1.2-0.3,4.9-0.3,6.6
		c0,0.1,0,0.1,0,0.2c-0.1,2.7-0.6,5.3-1.7,7.7C617,293.1,612.5,297,607.3,297.3z"/>
	<path class="st5" d="M620.8,280.4c4.3,2.8,9.5,3.6,14.4,2.2c0.4-2.7,1.1-5.4,2-8c-2.9,0.2-5.9,0.1-8.8-0.2
		c-1.7-0.2-5.8-1.7-7.2-0.5C619.6,275,620.7,278.7,620.8,280.4z"/>
	<circle class="st10" cx="630.4" cy="264.9" r="17.6"/>
	<path class="st11" d="M555.8,353.9c0,2.9,1.5,5.6,4,7.1c1.4,0.7,2.8,1.2,4.3,1.5c8,1.9,16.3,3.5,24.5,3c1.8,0,3.6-0.4,5.2-1.1
		c1.7-0.7,2.9-2.2,3.2-4c0-0.4,0.1-0.9,0.2-1.3c0.3-0.4,0.7-0.8,1.2-1.1c1.5-1.2,2.3-3.1,1.9-5c1,0.5,2-0.6,2.5-1.6
		c0.5-1,0.8-2.2,1.8-2.6c0.7-0.3,1.5-0.1,2.2-0.3c1.2-0.3,1.9-1.5,2.7-2.3c1.7-1.8,4-2.7,6.2-3.8c6.5-3.3,11.7-8.4,16.9-13.5
		c2.7-2.5,5.1-5.2,7.3-8.2c0.6-0.8,1.1-1.7,1.6-2.6c1.6-3,2.9-6.1,4-9.3c0.7-1.7,1.3-3.5,1.1-5.3c0-0.2-0.1-0.3-0.1-0.5
		c-0.3-1.2-0.9-2.3-1.6-3.2c-1.8-2.6-4.1-5.1-7.2-5.9s-6.1,0.2-9.3,0.8c-1,0.2-2.1,0.4-3.1,0.5c-3.3,0.2-6.6-0.7-9.8-1.5l-3.5-1
		c-1.7-0.5-2.6-2.6-4.4-3c-0.8-0.1-1.6-0.1-2.4,0.1c-3.6,0.7-7.2,1.6-10.4,3.4c-0.7,0.4-1.4,0.9-2,1.4c-2.3,1.7-3.9,4.1-4.7,6.9
		c-0.7,3,0,6.3-0.8,9.3c-0.6,2.5-2.1,4.7-3.6,6.8l-8.6,12.3c-1.9,2.9-4,5.6-6.3,8.2C564.5,343.3,555.9,347,555.8,353.9z"/>
	<path class="st10" d="M578.7,236.4c-0.4-1.7-0.6-3.4-1.5-4.9c-0.6-0.9-1.4-1.7-2.3-2.4c-1.4-1.3-3.1-2.3-4.9-3
		c-1.8-0.7-3.9-0.5-5.5,0.6c-1.5,1.2-2.2,3.2-2.4,5.1c-0.4,2.6,0.1,5.3,1.3,7.7c1.5,2.6,4.1,4.3,6.2,6.4c1.6,1.5,2.9,3.2,4.1,5.1
		c0.5,1,1.1,1.9,1.9,2.7c0.7,0.8,1.8,1.3,2.9,1.2c0.9-0.2,1.7-0.7,2.4-1.4c0.9-0.8,3.3-2.2,3.4-3.4c0.1-1-1.8-3.3-2.3-4.2
		C580.5,242.8,579.5,239.6,578.7,236.4z"/>
	<path class="st12" d="M516.9,440c2.2,4.1,4.6,8,6.6,12.3c1.1,2.5,2.1,5,3.4,7.4c1.4,2.6,3.1,5,4.6,7.6c3.6,6.5,5.7,13.8,7.6,21
		c5.3-0.8,10.4-2.6,15-5.3c0.3-0.2,0.6-0.4,0.9-0.6c1.2-0.9,2.3-2,3-3.3c-1.7-6.6-3.5-13.3-7.1-19.1c-1.2-1.9-2.5-3.6-3.6-5.5
		c-3.4-5.4-4.2-12.3-8.1-17.4c-0.8-1-0.8-2.5,0-3.5c0.5-0.6,1.2-1.2,1-1.9c-0.1-0.5-0.7-1-0.4-1.5c0.1-0.2,0.4-0.4,0.5-0.5
		c0.7-0.6,0.6-1.7,0.6-2.6c0.1-2.3,1.5-4.3,2.9-6.2c0.3-0.4,0.6-0.8,1.1-1.1c0.4-0.2,0.8-0.3,1.1-0.5c1.3-0.8,1.2-2.6,1.8-4
		c0.8-1.8,2.8-2.7,4.1-4.2c1.7-1.9,2.1-4.4,3.8-6c0.2-0.2,0.4-0.3,0.6-0.5c-0.8,2.8-1.1,5.6-1,8.5c-0.2,9.8,2.3,19.9,1.1,29.7
		c-0.9,7.7,3.9,15.4,10.6,19.3c2.6,1.4,5.4,2.6,8.2,3.5c4.2,1.5,8.4,3,12.6,4.8c2.9,1.2,5.8,2.5,8.6,3.9c3.5,1.7,6.9,3.6,10.2,5.7
		c4.1,2.6,8.1,5.2,11,9.1c2.8-0.1,5.4-1.8,7.1-3.9c1.8-2.2,2.9-4.8,3.9-7.4c0.9-2.2,1.8-4.5,1.9-6.9c0-0.5-0.3-1-0.8-1.2L610.4,459
		l-3.6-1.9c-7.9-4.2-16-8.1-24-12.3c-0.5,0.2-1-0.5-1.1-1c-0.2-0.5-0.3-1.2-0.8-1.4c-0.3-0.1-0.6-0.1-0.7-0.3
		c-0.1-0.2-0.2-0.4-0.1-0.6c0.3-3.8,3-7.3,2.5-11.1c-0.2-1.6-1.1-3.2-0.7-4.8c0.3-1.1,1-2,1.5-3c0.9-2.3,0-5.1,1-7.4
		c0.7-1.5,1.2-3.1,1.4-4.7c0.5-3.3,1.5-6.4,3-9.4c0.7-1.5,1.6-2.9,2.7-4.1c0.6-0.6,1.2-1.2,1.8-1.8c1.7-2,2.3-4.6,2.8-7.2
		c0.9-4.6,1.5-9.5,0.4-14.1c-0.4-1.6-0.9-3.1-0.9-4.7c0-2.1,1-4.6-0.5-6.1c-0.6-0.6-1.4-0.9-2.2-1.1c-3.4-0.9-6.9-1.6-10.5-1.9
		l-16.1-2.1c-1.9-0.1-3.7-0.6-5.4-1.4c-2.2-1.2-3.6-3.4-4.5-5.8c-2.8,2.1-3.9,5.9-6.1,8.6c-1.1,1.3-2.5,2.4-3.6,3.6
		c-1.5,1.5-2.8,3.2-4,5c-3.4,4.6-6.7,9.3-9.2,14.4c-1.2,2.7-2.2,5.5-3.2,8.3c-3.9,11-10.3,21.4-13,32.8c-0.7,2.8-2.4,5.3-2.6,8.1
		C514.1,434.4,515.5,437.3,516.9,440z"/>
	<path class="st5" d="M601.3,348.8c0.4,0.7,0.6,1.5,0.6,2.4c-0.4-1.8-2.8-2.8-3-4.5c-0.1-0.8,0.1-0.8,0.6-0.3
		C600.3,346.9,600.6,348.1,601.3,348.8z"/>
	<path class="st5" d="M593.9,354.2c0.5,0.4,0.9,1,1.1,1.6c0.4,0.9,0.5,1.9,0.2,2.9c-0.4-0.2-0.5-0.6-0.6-1c-0.2-0.6-0.4-1.2-0.7-1.7
		c-0.3-0.5-1.6-1.6-1.6-2.1C592.3,353.2,593.5,353.9,593.9,354.2z"/>
	<path class="st5" d="M593,294.7c1.1,1,2.4,1.8,3.7,2.5c3.5,1.8,7.3,2.7,10.9,4.4c1.7,0.9,3.4,1.9,5,2.9c3.5,2.2,6.9,4.4,10.4,6.6
		c0.8,0.5,1.6,1.1,2.3,1.7c1.3,1.3,1.2,3.6,2.4,5.1c1.3,1.5,3.1,2.3,5.1,2.3c1.9,0,3.8-0.3,5.6-0.9c1.1-0.3,2.2-0.7,3.2-1.2
		c1.1-0.5,2.1-1.1,3.1-1.8c1.9-1.4,3.2-3.4,3.6-5.8c0.1-1.6-0.1-3.2-0.6-4.7c-0.3-1-0.7-1.9-1.1-2.9c-0.3-0.5-0.6-1-0.9-1.5
		c-2.4-3.4-6.6-5-10.7-5.8c-2.2-0.4-4.3-0.7-6.5-1c-1,0.2-2.1,0.4-3.1,0.5c-3.3,0.2-6.6-0.7-9.8-1.5l-3.5-1c-1.7-0.5-2.6-2.6-4.4-3
		c-0.8-0.1-1.6-0.1-2.4,0.1c-3.6,0.7-7.2,1.6-10.4,3.4C594.3,293.7,593.7,294.1,593,294.7z"/>
	<path class="st11" d="M584.5,248c0.4,4.3,4,7.4,6.2,11c1.1,1.8,1.8,3.7,2.8,5.6c1.1,2,2.3,4,3.6,5.8l3.9,5.7
		c2.3,3.3,4.6,6.7,7.5,9.5c5.1,0.9,9.4,4.7,14.3,6.5c3.9,1.5,8.1,1.7,12.2,2.5c4.1,0.8,8.3,2.4,10.7,5.8c0.9,1.3,1.6,2.8,2,4.4
		c0.5,1.5,0.7,3.1,0.6,4.7c-0.4,2.3-1.7,4.4-3.6,5.8c-1.9,1.3-4.1,2.3-6.3,2.9c-1.8,0.6-3.7,1-5.6,0.9c-1.9,0-3.8-0.9-5.1-2.3
		c-1.1-1.5-1.1-3.8-2.4-5.1c-0.7-0.7-1.5-1.3-2.3-1.7l-10.4-6.6c-1.6-1.1-3.3-2-5-2.9c-3.5-1.7-7.4-2.6-10.9-4.4
		c-3.5-1.7-6.7-4.7-7.4-8.5c-2.1-11.8-10.3-21.8-17.3-31.5c0.2,0,0.2-0.6,0.2-0.8c1-2.3,2.8-4.1,5.1-5.2
		C579.6,248.8,582.1,248.5,584.5,248z"/>
	<path class="st12" d="M621.4,248.1c-0.1-1.3,0.1-2.6,0.7-3.7c1.2-1.9,3.6-2.6,5.8-3.1s4.2-0.8,6.4-1.1c1.7-0.3,3.5-0.4,5.3-0.1
		c2.4,0.5,4.4,2.1,6.6,3.1c2.6,1.2,5.5,1.5,8.3,2.1s5.7,1.7,7.4,4c1.3,1.7,1.9,3.9,2.3,6.1c3.3,18-0.3,36.4-0.9,54.6
		c-0.3,7.1,0.1,14.7,4.1,20.5l-11.8-0.3c-3-0.1-6.3-0.2-8.7-2.1c-2.1-1.6-3.1-4.3-4-6.8c-0.8-1.9-1.3-4-1.5-6.1
		c-0.2-4.3,2.3-8.5,1.5-12.7c-0.6-3.2-2.9-5.7-5.3-7.8c-2.4-2.1-5.2-3.9-7.2-6.4c-3.5-4.5-4.2-10.6-3.8-16.3
		c0.3-3.4,0.9-6.8,0.6-10.2c-0.1-2.6-1.1-5.1-2.7-7.1C622.5,252.7,621.5,251.3,621.4,248.1z"/>
	<path class="st5" d="M622.1,244.4c1.1-1.9,3.5-2.6,5.7-3c-1.1,0.4-2.1,1.2-2.8,2.2c-0.6,1.1-0.9,2.4-0.7,3.7c0.2,3.2,1.1,4.6,3,6.8
		c1.6,2,2.5,4.5,2.7,7.1c0.3,3.4-0.3,6.8-0.6,10.2c-0.4,5.7,0.2,11.8,3.8,16.3c2,2.5,4.7,4.3,7.2,6.4c2.5,2.1,4.7,4.6,5.3,7.8
		c0.8,4.2-1.6,8.4-1.5,12.7c0.2,2.1,0.7,4.1,1.5,6.1c0.9,2.5,1.9,5.2,4,6.8c2.4,1.9,5.6,2,8.7,2.1l8.4,0.2c0.2,0.3,0.4,0.6,0.6,0.9
		l-11.8-0.3c-3-0.1-6.3-0.2-8.7-2.1c-2.1-1.6-3.1-4.3-4-6.8c-0.8-1.9-1.3-4-1.5-6.1c-0.2-4.3,2.3-8.5,1.5-12.7
		c-0.6-3.2-2.9-5.7-5.3-7.8c-2.4-2.1-5.2-3.9-7.2-6.4c-3.5-4.5-4.2-10.6-3.8-16.3c0.3-3.4,0.9-6.8,0.6-10.2
		c-0.1-2.6-1.1-5.1-2.7-7.1c-1.9-2.2-2.9-3.6-3-6.8C621.2,246.8,621.5,245.5,622.1,244.4z"/>
	<path class="st5" d="M533.3,429.5l21.7,52.9c1.2-0.9,2.3-2,3-3.3c-1.7-6.6-3.5-13.3-7.1-19.1c-1.2-1.9-2.5-3.6-3.6-5.5
		c-3.4-5.4-4.2-12.3-8.1-17.4c-0.8-1-0.8-2.5,0-3.5c0.5-0.6,1.2-1.2,1-1.9c-0.1-0.5-0.7-1-0.4-1.5c0.1-0.2,0.4-0.4,0.5-0.5
		c0.7-0.6,0.6-1.7,0.6-2.6c0.1-2.3,1.5-4.3,2.9-6.2c0.3-0.4,0.6-0.8,1.1-1.1c0.4-0.2,0.8-0.3,1.1-0.5c1.3-0.8,1.2-2.6,1.8-4
		c0.8-1.8,2.8-2.7,4.1-4.2c1.7-1.9,2.1-4.4,3.8-6l0.2-0.4l-1.6-10.2L533.3,429.5z"/>
	<ellipse class="st4" cx="722.8" cy="487.9" rx="24.8" ry="4.8"/>
	<ellipse class="st3" cx="723.2" cy="485.9" rx="2.9" ry="3.8"/>
	<ellipse class="st3" cx="723.2" cy="481.3" rx="2.9" ry="3.8"/>
	<ellipse class="st3" cx="723.2" cy="476.7" rx="2.9" ry="3.8"/>
	<ellipse class="st3" cx="723.2" cy="472" rx="2.9" ry="3.8"/>
	<ellipse class="st3" cx="723.2" cy="467.4" rx="2.9" ry="3.8"/>
	<ellipse class="st3" cx="723.2" cy="462.8" rx="2.9" ry="3.8"/>
	<ellipse class="st3" cx="723.2" cy="458.2" rx="2.9" ry="3.8"/>
	<path class="st4" d="M712.4,426.7c-0.4-0.5-0.8-1-1.1-1.6l7.6-1.2l-8.2,0.1c-1.6-3.5-1.7-7.4-0.3-10.9l11,5.7l-10.1-7.4
		c3.8-6.6,12.2-8.9,18.9-5.1c6.6,3.8,8.9,12.2,5.1,18.9c-0.3,0.6-0.7,1.2-1.2,1.7c0.6,0.8,1.1,1.6,1.6,2.5l-9.8,5.1l10.5-3.5
		c0.5,1.4,0.7,2.9,0.7,4.4c0,3.1-1,6.1-3,8.5c4.7,6,3.7,14.7-2.3,19.4s-14.7,3.7-19.4-2.3c-3.9-5-3.9-12.1,0-17.1
		C708.4,438.7,708.4,431.7,712.4,426.7L712.4,426.7z"/>
	<path class="st5" d="M737,435.2c0,3.1-1,6.1-3,8.5c4.7,6,3.7,14.7-2.3,19.4s-14.7,3.7-19.4-2.3c-3.9-5-3.9-12.1,0-17.1
		C710.5,441.4,737,433.6,737,435.2z"/>
	<ellipse class="st4" cx="771" cy="435" rx="16.6" ry="3.2"/>
	<ellipse class="st3" cx="771.3" cy="433.7" rx="1.9" ry="2.5"/>
	<ellipse class="st3" cx="771.3" cy="430.6" rx="1.9" ry="2.5"/>
	<ellipse class="st3" cx="771.3" cy="427.5" rx="1.9" ry="2.5"/>
	<ellipse class="st3" cx="771.3" cy="424.4" rx="1.9" ry="2.5"/>
	<ellipse class="st3" cx="771.3" cy="421.3" rx="1.9" ry="2.5"/>
	<ellipse class="st3" cx="771.3" cy="418.2" rx="1.9" ry="2.5"/>
	<ellipse class="st3" cx="771.3" cy="415.1" rx="1.9" ry="2.5"/>
	<path class="st4" d="M764,393.8c-0.3-0.3-0.5-0.7-0.7-1.1l5.1-0.8l-5.5,0c-0.6-1.2-0.9-2.5-0.9-3.9c0-1.2,0.2-2.4,0.7-3.5l7.4,3.8
		l-6.8-5c2.5-4.5,8.2-6,12.7-3.5c4.5,2.5,6,8.2,3.5,12.7c-0.2,0.4-0.5,0.8-0.8,1.2c0.4,0.5,0.8,1.1,1.1,1.7L773,399l7-2.4
		c1,3,0.5,6.3-1.5,8.8c3.2,4,2.5,9.9-1.5,13c-4,3.2-9.9,2.5-13-1.5c-2.7-3.4-2.7-8.1,0-11.5C761.3,402,761.3,397.2,764,393.8
		L764,393.8z"/>
	<path class="st5" d="M780.6,399.6c0,2.1-0.7,4.1-2,5.7c3.2,4,2.5,9.9-1.5,13c-4,3.2-9.9,2.5-13-1.5c-2.7-3.4-2.7-8.1,0-11.5
		C762.8,403.7,780.6,398.5,780.6,399.6z"/>
</g>
</svg>
