<?xml version="1.0" encoding="utf-8"?>
<!-- Generator: Adobe Illustrator 24.0.2, SVG Export Plug-In . SVG Version: 6.00 Build 0)  -->
<svg version="1.1" id="Calque_1" xmlns="http://www.w3.org/2000/svg" xmlns:xlink="http://www.w3.org/1999/xlink" x="0px" y="0px"
	 viewBox="0 0 1519 131" style="enable-background:new 0 0 1519 131;" xml:space="preserve">
<style type="text/css">
	.st0{fill:#F7FBFF;}
	.st1{fill:none;}
</style>
<g>
	<path class="st0" d="M604.1,83.6c30.3,10.8,55.1,24.2,95.6,30.5c58.6,9.1,129.9-0.1,178.2-14.3c48.3-14.3,82.1-33,127.7-48.2
		C1136.4,8,1358.8,1.3,1522.1,30.7c23.3,4.2,46,9.1,62.4,16c21.4,8.9,30.6,20.3,37.5,31.5c15.4,24.9,21.9,50.3,19.2,75.7
		c-1.8,17.3-11.9,36.8-55.8,46.3c-13.9,3-29.9,4.6-45.8,6.2c-236.1,22.6-486.5,21-732.1,17.6c-183.1-2.5-368.3-6.1-543.2-24.2
		c-8-0.8-16.6-1.8-21.7-4c-5.9-2.5-6-5.9-5.3-9c2.5-10.3,12.2-20.2,19.5-30.3c15.1-20.9,19.9-42.5,14.4-63.9
		c-4.9-18.9-37.6-35,30-40.3C407.4,44.1,531,57.5,604.1,83.6z"/>
</g>
<g>
	<path class="st0" d="M-410.8,121.5c30.3,10.8,55.1,24.2,95.6,30.5c58.6,9.1,129.9-0.1,178.2-14.3s82.1-33,127.7-48.2
		c130.9-43.6,353.2-50.2,516.5-20.8c23.3,4.2,46,9.1,62.4,16c21.4,8.9,30.6,20.3,37.5,31.5c15.4,24.9,21.9,50.3,19.2,75.7
		c-1.8,17.3-11.9,36.8-55.8,46.3c-13.9,3-29.9,4.6-45.8,6.2c-236.1,22.6-486.5,21-732.1,17.6c-183.1-2.5-368.3-6.1-543.2-24.2
		c-8-0.8-16.6-1.8-21.7-4c-5.9-2.5-6-5.9-5.3-9c2.5-10.3,12.2-20.2,19.5-30.3c15.1-20.9,19.9-42.5,14.4-63.9
		c-4.9-18.9-37.6-35,30-40.3C-607.6,82-483.9,95.4-410.8,121.5z"/>
</g>
<rect x="0.1" y="-0.5" class="st1" width="1519" height="131.2"/>
</svg>
