<?xml version="1.0" encoding="utf-8"?>
<!-- Generator: Adobe Illustrator 24.0.2, SVG Export Plug-In . SVG Version: 6.00 Build 0)  -->
<svg version="1.1" id="Calque_1" xmlns="http://www.w3.org/2000/svg" xmlns:xlink="http://www.w3.org/1999/xlink" x="0px" y="0px"
	 viewBox="0 0 767 371" style="enable-background:new 0 0 767 371;" xml:space="preserve">
<style type="text/css">
	.st0{opacity:0.1;fill:#FFBCCA;enable-background:new    ;}
	.st1{fill:none;stroke:#535461;stroke-width:2;stroke-miterlimit:10;}
	.st2{fill:#FFA6B9;}
	.st3{opacity:0.25;enable-background:new    ;}
	.st4{fill:#FFFFFF;}
	.st5{opacity:0.2;fill:#FFBCCA;enable-background:new    ;}
	.st6{opacity:0.5;fill:#FFBCCA;enable-background:new    ;}
	.st7{fill:#FFBCCA;}
	.st8{opacity:0.1;enable-background:new    ;}
	.st9{fill:#FFD037;}
	.st10{fill:#444053;}
	.st11{fill:#FBCD98;}
	.st12{opacity:0.1;fill:#FF7700;enable-background:new    ;}
	.st13{fill:url(#SVGID_1_);}
	.st14{opacity:2.000000e-02;enable-background:new    ;}
	.st15{fill:#EFB7B9;}
	.st16{fill:#FF6484;}
	.st17{fill:#925978;}
	.st18{opacity:0.1;}
	.st19{fill:url(#SVGID_2_);}
	.st20{fill:#FBBEBE;}
	.st21{fill:none;stroke:#FF7700;stroke-miterlimit:10;}
	.st22{fill:#65617D;}
</style>
<g>
	<path class="st0" d="M449.5,51c-46.3-0.2-90.6-9.6-133-20S232,9,186.7,3.9c-29.1-3.3-62.4-3.2-85.4,8C79.1,22.6,72.4,40.5,69,57
		c-2.6,12.4-3.9,25.5,4.5,37c5.8,7.9,16,14.5,23.1,22.1c24.7,26.4,8.9,59.8-16.2,86.5c-11.8,12.5-25.5,24.5-34.5,37.8
		s-12.9,28.3-4.2,41.5c8.5,13.1,28.2,22.6,49.4,29.2c43.1,13.4,93.5,16.5,142.5,17.8c108.6,3,217.6-1.3,326.3-5.6
		c40.2-1.6,80.6-3.2,120.1-8.2c21.9-2.8,44.5-7,60.2-16.4c19.9-11.9,24.4-31.6,10.3-45.8c-23.5-23.8-86.7-28.6-103.4-54.4
		c-9.2-14.2-0.7-30.3,11.6-43.9c26.5-29,71.5-55,72.9-87.6c1-22.4-21.7-44.4-56.1-54.4c-36.1-10.5-85.5-8.1-111.3,10.8
		C537.8,43,490.4,51.2,449.5,51z"/>
	<g id="db976b58-83c4-4bad-bfc1-713fe8b9d2f6">
		<path class="st1" d="M228.3,154.5c0,0-19.3-34.3-48.5-44.2c-12.2-4.1-22.8-12-30.2-22.6c-3.5-5.1-6.4-10.4-8.9-16"/>
		<path class="st2" d="M122.4,65.4c3.3,3.2,18.8,6.6,18.8,6.6s-3.8-15.4-7.1-18.6c-3.3-3.2-8.6-3.1-11.8,0.2
			C119,56.8,119,62.1,122.4,65.4z"/>
		<path class="st2" d="M131.1,93.2c4.5,0.9,19.3-4.7,19.3-4.7s-11.6-10.8-16.1-11.7c-4.5-0.9-8.9,2.1-9.8,6.6
			C123.6,87.9,126.6,92.3,131.1,93.2z"/>
		<path class="st2" d="M163,123.2c4.4-1.5,14.3-13.8,14.3-13.8s-15.4-3.5-19.8-2c-4.4,1.5-6.8,6.2-5.3,10.6
			c1.5,4.4,6.2,6.8,10.6,5.3C162.8,123.3,162.9,123.2,163,123.2L163,123.2z"/>
		<path class="st2" d="M192.2,140.5c4.6-0.8,16.4-11.2,16.4-11.2s-14.6-6.1-19.2-5.3c-4.6,0.8-7.7,5.1-6.9,9.6
			C183.3,138.2,187.6,141.3,192.2,140.5L192.2,140.5L192.2,140.5z"/>
		<path class="st2" d="M163.3,76.4c0,4.6-8.4,18-8.4,18s-8.4-13.4-8.4-18c0-4.6,3.8-8.4,8.4-8.4S163.3,71.8,163.3,76.4L163.3,76.4z"
			/>
		<path class="st2" d="M197.3,97.1c-1.4,4.4-13.4,14.7-13.4,14.7s-4-15.3-2.6-19.7c1.4-4.4,6.1-6.9,10.5-5.5
			C196.2,88,198.6,92.7,197.3,97.1L197.3,97.1L197.3,97.1z"/>
		<path class="st2" d="M227.5,121.8c-0.6,4.6-10.7,16.8-10.7,16.8s-6.5-14.4-5.9-19c0.6-4.6,4.8-7.8,9.4-7.2
			C224.9,113,228.1,117.2,227.5,121.8z"/>
		<g>
			<path class="st3" d="M122.9,65.4c3.3,3.2,18.8,6.6,18.8,6.6s-3.8-15.4-7.1-18.6c-3.3-3.2-8.6-3.1-11.8,0.2
				C119.5,56.8,119.5,62.1,122.9,65.4z"/>
			<path class="st3" d="M131.6,93.2c4.5,0.9,19.3-4.7,19.3-4.7s-11.6-10.8-16.1-11.7c-4.5-0.9-8.9,2.1-9.8,6.6
				C124.1,87.9,127.1,92.3,131.6,93.2z"/>
			<path class="st3" d="M163.5,123.2c4.4-1.5,14.3-13.8,14.3-13.8s-15.4-3.5-19.8-2c-4.4,1.5-6.8,6.2-5.3,10.6
				c1.5,4.4,6.2,6.8,10.6,5.3C163.3,123.3,163.4,123.2,163.5,123.2L163.5,123.2z"/>
			<path class="st3" d="M192.7,140.5c4.6-0.8,16.4-11.2,16.4-11.2s-14.6-6.1-19.2-5.3c-4.6,0.8-7.7,5.1-6.9,9.6
				C183.8,138.2,188.1,141.3,192.7,140.5L192.7,140.5L192.7,140.5z"/>
			<path class="st3" d="M163.8,76.4c0,4.6-8.4,18-8.4,18s-8.4-13.4-8.4-18c0-4.6,3.8-8.4,8.4-8.4C160.1,68.1,163.8,71.8,163.8,76.4
				L163.8,76.4z"/>
			<path class="st3" d="M197.7,97.1c-1.4,4.4-13.4,14.7-13.4,14.7s-4-15.3-2.6-19.7c1.4-4.4,6.1-6.9,10.5-5.5
				C196.7,88,199.1,92.7,197.7,97.1L197.7,97.1L197.7,97.1z"/>
			<path class="st3" d="M228,121.8c-0.6,4.6-10.7,16.8-10.7,16.8s-6.5-14.4-5.9-19c0.6-4.6,4.8-7.8,9.4-7.2
				C225.4,113,228.6,117.2,228,121.8z"/>
		</g>
		<path class="st1" d="M227.2,153.8c0,0-3.8-39.2-26.4-60c-9.6-8.7-16-20.2-18.5-32.9c-1.1-6-1.7-12.1-1.6-18.3"/>
		<path class="st2" d="M166.4,29.4C168.2,33.7,181,43,181,43s2.8-15.6,1-19.9c-1.7-4.3-6.5-6.5-10.8-4.8c-4.3,1.7-6.5,6.5-4.8,10.8
			C166.4,29.2,166.4,29.3,166.4,29.4z"/>
		<path class="st2" d="M163.2,58.3c3.8,2.7,19.6,3.5,19.6,3.5s-6.2-14.6-9.9-17.2c-3.8-2.7-9-1.8-11.7,2
			C158.5,50.4,159.4,55.7,163.2,58.3L163.2,58.3z"/>
		<path class="st2" d="M180.1,98.7c4.6,0.4,18.7-6.8,18.7-6.8s-12.7-9.5-17.3-9.9c-4.6-0.4-8.7,3-9.1,7.6
			C172.1,94.3,175.5,98.4,180.1,98.7L180.1,98.7z"/>
		<path class="st2" d="M199.8,126.4c4.5,1.2,19.6-3.6,19.6-3.6s-10.9-11.5-15.4-12.7c-4.4-1.4-9.1,1.1-10.5,5.5
			c-1.4,4.4,1.1,9.1,5.5,10.5C199.2,126.2,199.5,126.3,199.8,126.4L199.8,126.4z"/>
		<path class="st2" d="M199.4,56.1c-1.9,4.2-15,13.1-15,13.1s-2.2-15.7-0.4-19.9c1.9-4.2,6.8-6.1,11.1-4.3
			C199.4,46.9,201.3,51.9,199.4,56.1z"/>
		<path class="st2" d="M222,88.8c-3.1,3.5-18.2,8-18.2,8s2.6-15.6,5.6-19.1c3.1-3.5,8.3-3.8,11.8-0.8C224.8,80,225.1,85.3,222,88.8
			L222,88.8L222,88.8z"/>
		<path class="st2" d="M239.7,123.6c-2.4,3.9-16.6,11-16.6,11s-0.1-15.8,2.3-19.8c2.5-3.9,7.7-5,11.6-2.4
			C240.7,114.8,241.9,119.7,239.7,123.6z"/>
	</g>
	<path class="st0" d="M582,355.2c2.1,4.2-12.5,8.7-30.6,10c-16.2,1.2-29.5-0.7-31.2-4.1s8.6-7.5,24.5-9.4
		C562.4,349.6,579.9,351,582,355.2z"/>
	<polygon class="st4" points="158.5,133.3 382.8,53.9 382.8,328.3 158.5,323.6 	"/>
	<polygon class="st5" points="158.5,133.3 382.8,53.9 382.8,328.3 158.5,323.6 	"/>
	<polygon class="st4" points="4.5,178.7 132.5,133.3 132.5,323.6 4.5,323.6 	"/>
	<polygon class="st5" points="4.5,178.7 132.5,133.3 132.5,323.6 4.5,323.6 	"/>
	<polygon class="st4" points="382.8,53.9 607,133.3 607,323.6 382.8,328.3 	"/>
	<polygon class="st6" points="382.8,53.9 607,133.3 607,323.6 382.8,328.3 	"/>
	<polygon class="st4" points="763.3,179.2 633.8,133.3 633.8,323.6 763.3,323.6 	"/>
	<polygon class="st6" points="763.3,179.2 633.8,133.3 633.8,323.6 763.3,323.6 	"/>
	<path class="st7" d="M394.2,288.4c0,0,4.2,5.5-1.9,13.7c-6.1,8.2-11.1,15.2-9.1,20.3c0,0,9.2-15.3,16.7-15.5
		C407.4,306.7,402.5,297.6,394.2,288.4z"/>
	<path class="st8" d="M394.2,288.4c0.4,0.5,0.6,1.1,0.9,1.7c7.3,8.6,11.2,16.6,4.2,16.8c-6.5,0.2-14.4,11.9-16.3,14.8
		c0.1,0.2,0.1,0.5,0.2,0.7c0,0,9.2-15.3,16.7-15.5C407.4,306.8,402.5,297.6,394.2,288.4z"/>
	<path class="st9" d="M402,295.3c0,1.9-0.2,3.5-0.5,3.5s-0.5-1.6-0.5-3.5s0.3-1,0.5-1C401.8,294.3,402,293.4,402,295.3z"/>
	<path class="st9" d="M404.7,297.6c-1.7,0.9-3.2,1.5-3.3,1.2c-0.1-0.2,1.1-1.2,2.8-2.1c1.7-0.9,1-0.2,1.1,0
		C405.5,297,406.4,296.7,404.7,297.6z"/>
	<path class="st7" d="M372.2,288.4c0,0-4.2,5.5,1.9,13.7c6.1,8.2,11.1,15.2,9.1,20.3c0,0-9.2-15.3-16.7-15.5
		C359,306.7,364,297.6,372.2,288.4z"/>
	<path class="st8" d="M372.2,288.4c-0.4,0.5-0.6,1.1-0.9,1.7c-7.3,8.6-11.2,16.6-4.2,16.8c6.5,0.2,14.4,11.9,16.3,14.8
		c-0.1,0.2-0.1,0.5-0.2,0.7c0,0-9.2-15.3-16.7-15.5C359,306.8,364,297.6,372.2,288.4z"/>
	<path class="st9" d="M364.4,295.3c0,1.9,0.2,3.5,0.5,3.5s0.5-1.6,0.5-3.5s-0.3-1-0.5-1C364.6,294.3,364.4,293.4,364.4,295.3z"/>
	<path class="st9" d="M361.8,297.6c1.7,0.9,3.2,1.5,3.3,1.2c0.1-0.2-1.1-1.2-2.8-2.1c-1.7-0.9-1-0.2-1.1,0
		C361,297,360.1,296.7,361.8,297.6z"/>
	<ellipse class="st0" cx="380.4" cy="355.9" rx="43.3" ry="6.6"/>
	<path class="st10" d="M405.7,315l-0.2,1.7l-0.3,2.4l-0.1,1l-0.3,2.4l-0.1,1l-0.3,2.4l-3.3,27.4c-0.3,2.4-4.3,4.4-9.1,4.4h-17.4
		c-4.8,0-8.8-1.9-9.1-4.4l-3.3-27.4l-0.3-2.4l-0.1-1l-0.3-2.4l-0.1-1l-0.3-2.4l-0.2-1.7c-0.2-1.4,2-2.6,4.7-2.6H401
		C403.7,312.5,405.9,313.7,405.7,315z"/>
	<polygon class="st11" points="405.5,316.8 405.2,319.2 361.3,319.2 361,316.8 	"/>
	<polygon class="st11" points="405.1,320.2 404.8,322.6 361.7,322.6 361.4,320.2 	"/>
	<polygon class="st11" points="404.6,323.6 404.4,326 362.1,326 361.8,323.6 	"/>
	<g>
		<path class="st7" d="M762.3,319.7c0,0-8.2-0.5-7.3,5.3c-0.1,0.6,0.2,1.2,0.7,1.5c0,0,0-0.4,0.8-0.3c0.3,0,0.6,0.1,0.9,0
			c0.4,0,0.8-0.2,1.1-0.5l0,0c0,0,2.3-1,3.2-4.7c0,0,0.7-0.8,0.6-1l-1.4,0.6c0.3,0.6,0.3,1.2,0.1,1.8c0,0,0-1.8-0.3-1.8
			c-0.1,0-0.7,0.4-0.7,0.4s0.8,1.7,0.2,3c0,0,0.2-2.1-0.5-2.9l-1,0.6c0,0,1,1.8,0.3,3.3c0,0,0.2-2.3-0.5-3.1l-0.9,0.7
			c0,0,0.9,1.8,0.4,3c0,0-0.1-2.6-0.5-2.8c-0.3,0.3-0.6,0.6-0.9,1c0,0,0.6,1.3,0.2,2c0,0-0.2-1.7-0.4-1.8c-0.4,0.6-0.7,1.3-0.9,1.9
			c0-0.7,0.3-1.4,0.7-2.1c-0.4,0.1-0.9,0.3-1.2,0.6c0,0,0.1-0.8,1.4-0.9c0.2-0.3,0.5-0.7,0.8-0.9c-0.7-0.1-1.4,0-2,0.2
			c0,0,0.7-0.8,2.2-0.4l0.9-0.7c-0.8-0.1-1.6-0.1-2.3,0c0,0,0.8-0.7,2.6-0.2l1-0.6c-0.7-0.2-1.5-0.2-2.2-0.2c0.8-0.3,1.7-0.3,2.5,0
			l0.7-0.3c0,0-1-0.2-1.3-0.2c-0.3,0-0.3-0.1-0.3-0.1c0.6-0.1,1.3,0,1.9,0.2C761.3,320.1,761.8,319.9,762.3,319.7z"/>
		<ellipse class="st0" cx="756.6" cy="326.9" rx="5.8" ry="1"/>
	</g>
	<g>
		<path class="st4" d="M529.7,193c-0.5-10.8-8.1-19.4-17.2-19.4c-5.5,0-10.9,3.2-14.2,8.4c-0.1,0-0.2-0.1-0.2-0.1
			c-0.2-0.1-0.4-0.2-0.6-0.3c-0.1-0.1-0.2-0.1-0.4-0.2c-0.2-0.1-0.4-0.2-0.6-0.2c-0.1,0-0.2-0.1-0.4-0.1c-0.2-0.1-0.5-0.1-0.7-0.1
			c-0.1,0-0.2,0-0.3-0.1c-0.3,0-0.7-0.1-1-0.1c-5.1,0-9.2,4.8-9.2,10.8c0,0.2,0,0.3,0,0.5c-4.2,2.7-7.1,8.4-7.1,14.1
			c0,8.5,5.9,15.4,13.1,15.4h5.3c0.6,0,1-0.5,1-1.2c0-0.7-0.5-1.2-1-1.2h-5.3c-6.1,0-11-5.8-11-13c0-5,2.8-10.2,6.6-12.3l0.6-0.3
			v-0.8c0-0.1,0-0.3,0-0.5l0-0.2l0-0.2c0-0.1,0-0.2,0-0.3c0-4.6,3.2-8.4,7.1-8.4c0.3,0,0.6,0,0.9,0.1c0.1,0,0.2,0,0.2,0
			c0.3,0.1,0.5,0.1,0.8,0.2c0,0,0.1,0,0.1,0c0.3,0.1,0.6,0.2,0.9,0.4c0.1,0,0.1,0.1,0.2,0.1c0.2,0.1,0.5,0.3,0.7,0.5
			c2,1.5,3.3,4.1,3.3,7.1c0,0.7,0.5,1.2,1,1.2c0.6,0,1-0.5,1-1.2c0-3.3-1.3-6.3-3.3-8.3c2.9-4.5,7.7-7.4,12.5-7.4
			c7.9,0,14.4,7.4,15.1,16.7c-1-0.1-2.6-0.1-4.2,0.2c-0.6,0.1-0.9,0.7-0.9,1.4c0.1,0.6,0.5,1,1,1c0.1,0,0.1,0,0.2,0
			c2.3-0.4,4.6,0,4.8,0c4.7,1.1,8.3,6.2,8.3,12c0,6.6-4.6,12-10.2,12h-4c-0.6,0-1,0.5-1,1.2c0,0.7,0.5,1.2,1,1.2h4
			c6.8,0,12.2-6.5,12.2-14.4C538.8,200.5,534.9,194.6,529.7,193z"/>
		<path class="st4" d="M510,205.1c-0.1-0.1-0.2-0.2-0.3-0.3c-0.2-0.1-0.5-0.1-0.8,0c-0.1,0.1-0.2,0.1-0.3,0.3l-8.1,9.6
			c-0.4,0.5-0.4,1.2,0,1.7c0.2,0.2,0.5,0.4,0.7,0.4c0.3,0,0.5-0.1,0.7-0.4l6.4-7.6v24.7c0,0.7,0.5,1.2,1,1.2c0.6,0,1-0.5,1-1.2
			v-24.7l6.4,7.6c0.2,0.2,0.5,0.4,0.7,0.4c0.3,0,0.5-0.1,0.7-0.4c0.4-0.5,0.4-1.2,0-1.7L510,205.1z"/>
	</g>
	<path class="st7" d="M194.2,319.9c0,0-9.9-0.6-8.8,6.3c-0.1,0.7,0.2,1.4,0.9,1.8c0,0,0-0.5,1-0.3c0.4,0.1,0.7,0.1,1.1,0
		c0.5,0,1-0.2,1.3-0.5l0,0c0,0,2.8-1.2,3.9-5.7c0,0,0.8-1,0.8-1.3l-1.7,0.7c0.3,0.7,0.4,1.5,0.1,2.2c0,0,0-2.2-0.4-2.1
		c-0.1,0-0.9,0.4-0.9,0.4s1,2.1,0.2,3.6c0,0,0.3-2.6-0.6-3.5l-1.2,0.7c0,0,1.1,2.2,0.4,4c0,0,0.2-2.7-0.6-3.8l-1.1,0.8
		c0,0,1.1,2.1,0.4,3.6c0,0-0.1-3.2-0.7-3.4c-0.4,0.3-0.8,0.7-1.1,1.2c0,0,0.7,1.6,0.3,2.4c0,0-0.3-2.1-0.5-2.1
		c-0.5,0.7-0.8,1.5-1,2.4c0-0.9,0.3-1.7,0.8-2.5c-0.5,0.1-1,0.3-1.4,0.7c0,0,0.1-1,1.7-1.1c0.3-0.4,0.6-0.8,1-1.1
		c-0.8-0.1-1.6,0-2.4,0.3c0,0,0.8-0.9,2.7-0.5l1.1-0.9c-0.9-0.2-1.9-0.2-2.8,0c0,0,1-0.8,3.1-0.2l1.1-0.7c-0.9-0.2-1.8-0.3-2.7-0.2
		c0,0,1.1-0.6,3,0l0.8-0.4c0,0-1.2-0.2-1.6-0.3c-0.4,0-0.4-0.1-0.4-0.1c0.8-0.1,1.6,0,2.3,0.3C193.1,320.4,193.6,320.2,194.2,319.9z
		"/>
	<ellipse class="st12" cx="186.6" cy="328.8" rx="6.2" ry="1.1"/>
	
		<linearGradient id="SVGID_1_" gradientUnits="userSpaceOnUse" x1="610.5142" y1="261.0068" x2="610.5142" y2="420.1163" gradientTransform="matrix(1 0 0 -1 -56.96 625.85)">
		<stop  offset="0" style="stop-color:#808080;stop-opacity:0.25"/>
		<stop  offset="0.54" style="stop-color:#808080;stop-opacity:0.12"/>
		<stop  offset="1" style="stop-color:#808080;stop-opacity:0.1"/>
	</linearGradient>
	<path class="st13" d="M579.9,250.5c0,0,0.8-0.8,0.5-1.3c-0.2-0.3-0.2-0.7,0-1c0,0-1.8-7.1-2.5-7.9c-0.4-0.5-0.8-1.1-1-1.8
		c0.1-0.1,0.1-0.3,0.1-0.5c0-0.7-0.3-1.4-0.7-2c-0.5-0.8-0.8-1.7-0.8-2.6c0-0.1,0-0.2,0-0.4l0,0l0,0c-0.4-1.1-1.3-1.9-2.4-2.2
		c0.2-1.5,0.5-3,0.6-4.5c0.3-4.8-1.5-9.4-3.2-13.9c-0.4-1.1-0.9-2.2-1.5-3.1c-1.6-2.1-4-3.4-6.6-3.6c-0.9-0.1-1.9,0-2.8,0.3
		c-0.9,0.4-1.7,1-2.4,1.6c-0.8,0.6-1.5,1.3-2.2,2l-0.1,0.1l-0.2,0.3l-0.1,0.1l-0.2,0.3l-0.1,0.1c-0.1,0.1-0.2,0.2-0.3,0.4l0,0
		c-0.1,0.1-0.2,0.2-0.3,0.4l-0.1,0.1l-0.2,0.3l-0.1,0.1c-0.1,0.1-0.1,0.2-0.2,0.3l-0.1,0.1c-0.1,0.1-0.1,0.3-0.2,0.4l-0.3,0.6v0.1
		l-0.1,0.4c-0.2,0.5-0.4,0.9-0.6,1.3l0,0l0,0.1l-0.5,0.6c-0.2,0.3-0.4,0.6-0.6,1l0,0.1c0,0,0,0.1-0.1,0.2l0,0.1c0,0.1,0,0.1,0,0.2
		c0,0,0,0.1,0,0.1l0,0.2c0,0,0,0.1,0,0.1c0,0,0,0.1,0,0.2v0.1v0.2c0,0.1,0,0.1,0,0.2s0,0.1,0,0.1s0,0.2,0,0.3c0,0.1,0,0.1,0,0.1
		c0,0.1,0,0.1,0,0.2c0,0,0,0.1,0,0.1c0,0.1,0,0.1,0,0.2v0.1c0,0.1,0,0.1,0,0.2c0,0,0,0.1,0,0.1l0,0.2c0,0,0,0.1,0,0.1l0.1,0.2
		c0,0,0,0.1,0,0.1c0,0,0.1,0.2,0.1,0.3c0.2,0.5,0.5,0.9,0.8,1.3c0.2,0.3,0.4,0.6,0.6,0.8l0.3,0.4c0.2,0.3,0.4,0.6,0.6,0.9
		c1,1.9,0.9,4.2-0.2,6.1l-0.3,0.4c-0.1,0.2-0.2,0.5-0.3,0.7c0,0.4,0.1,0.9,0.4,1.2l-0.6,0.2c-0.5,0.1-0.9,0.3-0.9,0.3
		c-0.4,0-0.9,0-1.3,0c-0.6,0.2-1.1,0.5-1.5,1c0,0-2.7,0.3-3.6-0.5c-0.9-0.8-4-1-4-1s-0.9-1.7-1.8-2.2c-0.9-0.5-3.2-1.5-3.3-2
		c-0.2-0.6-0.5-1.1-0.9-1.5c-0.5-0.1-0.9-0.2-1.4-0.2l-0.1-0.3l-1.9-3.2c0,0-2.4-2.8-3.6-3s1.8,2.9,1.9,3.1
		c-0.9-0.6-2.2-0.4-2.8,0.5c-1,1.1,1.7,3.7,3.3,5.2l0.3,0.2c0,0.1,0,0.3,0.1,0.4c0.7,3.9,4.8,7.2,4.8,7.2s0.5,2.2,2,2.7
		c1.2,0.4,7.8,3.4,11.3,4c-0.3,0.7-0.6,2.5,0.8,5c0,0,0.3,4.5-0.4,5.1c-0.7,0.6-0.7,7.1-0.7,7.1s-2.8,11.4,0,13.8
		c0.2,0.2,0.4,0.3,0.6,0.4c0,0.2,0,0.4,0.1,0.5c0.1,1.1,0.2,2.3-0.1,2.8c-0.7,1.1,0.2,4.1,0.2,4.1s-2.7,15.4-1.5,20.8
		c0.8,4.1,1.1,8.2,1.1,12.3c0,0-0.4,4.8,1.7,7.7c0.2,0.7,0.4,1.4,0.4,2.1c0.1,1.4,0.5,2.7,1.1,4c0.5,0.9,1.4,4.8,0.6,5.8
		s0.9,12.5,0.9,12.5s-1.3,3.5,0,5.4l0,0c-0.8,0-1.6-0.1-2.4-0.3c-1.5-0.5-0.4,1.4,1.4,2.7c-0.8,1.8-1.9,4.2-2.2,4.9
		c-1.6,0.3-4.6,0.7-6.4,0.3c-2.5-0.6,1.1,3.4,4.4,4.1c2.4,0.4,4.8,0.6,7.2,0.5l2.2-2.4c1.8,0.2,3.5,0.3,5.3,0.2l-0.2,2.2h1.3v-2.3
		c0.8-0.1,1.6-0.2,2.5-0.3c0,0,0-2.4-0.1-4.7l0.8,0.1l0.1-1.3l2.8,0.5l2.5-20.4c0,0,0.3-7.6,0.9-11.9c0.6-4.3-1.3-18.5-1.3-18.5
		s-0.1-0.7-0.3-2s0-9,0-9s1-4.2,0.8-4.6s0.1-2.2,0.1-2.2c4.2-8.6-1-16.4-2.8-18.7c0.1-0.1,0.2-0.2,0.2-0.4c0,0,0-0.1,0-0.1
		c-0.3-0.7-0.6-1.4-1-2.1l1.1-1.3c0.4,0.5,0.6,0.9,0.6,0.9s1.1-2.6,2.3-3.5s6.7-10.2,6.7-10.2s1.3-0.9,0.6-1.6
		C579.6,250.4,579.9,250.5,579.9,250.5z M563,323c-0.1-0.3-0.3-0.6-0.5-0.8c0,0-0.2-1.4-0.3-3.2c0.4,1.4,0.8,2.4,0.8,2.4L563,323z
		 M566.1,356.4c0-0.1,0-0.3,0-0.4h0.1L566.1,356.4z M567,263.3L567,263.3c0-0.5,0.1-0.8,0.4-1c0.2-0.1,0.2-0.3,0.2-0.5
		c0-0.3-0.1-0.6-0.3-0.8c0.1,0.1,0.5,0.3,0.8-0.5c0-0.1,0.1-0.3,0.1-0.4c-0.1-0.7-0.3-1.3-0.8-1.8l3-6.4c0.3,0.1,0.7,0.2,1,0.2l0,0
		c-0.8,2.5-1.5,5.4-1.5,5.4l-2.4,5.2c0.2,0.1,0.3,0.2,0.4,0.3L567,263.3z"/>
	<path class="st10" d="M552.7,350.9c0,0-3.9,0.5-5.8-0.2c-1.9-0.7,0.6,2.8,3.2,3.6c1.8,0.5,3.7,0.9,5.6,1l3-2.9l3.2,0.3l-0.6,3.2
		l1,0.1l0.4-4.1L552.7,350.9z"/>
	<path class="st8" d="M552.7,350.9c0,0-3.9,0.5-5.8-0.2c-1.9-0.7,0.6,2.8,3.2,3.6c1.8,0.5,3.7,0.9,5.6,1l3-2.9l3.2,0.3l-0.6,3.2
		l1,0.1l0.4-4.1L552.7,350.9z"/>
	<path class="st10" d="M547.1,358.1c0,0-4.7,1-7.1,0.4c-2.4-0.6,1,3.4,4.3,4.1c2.3,0.4,4.6,0.6,6.9,0.5l3.4-3.8l3.9-0.1l-0.3,3.9
		h1.2v-5.1H547.1z"/>
	<path class="st8" d="M547.1,358.1c0,0-4.7,1-7.1,0.4c-2.4-0.6,1,3.4,4.3,4.1c2.3,0.4,4.6,0.6,6.9,0.5l3.4-3.8l3.9-0.1l-0.3,3.9h1.2
		v-5.1H547.1z"/>
	<path class="st10" d="M568.7,269.5c0,0,8.1,9,3.3,19.2c0,0-0.3,1.8-0.1,2.1c0.2,0.3-0.8,4.5-0.8,4.5s-0.1,7.7,0,9
		c0.1,1.3,0.3,2,0.3,2s1.8,14.2,1.2,18.4c-0.6,4.2-0.8,11.8-0.8,11.8l-2.4,20.3l-12.5-2.3l5.6-27.8l0.2-4.9c0,0-2.3-6-1.3-9.1
		s-0.3-41.9-0.3-41.9L568.7,269.5z"/>
	<path class="st14" d="M568.7,269.5c0,0,8.1,9,3.3,19.2c0,0-0.3,1.8-0.1,2.1c0.2,0.3-0.8,4.5-0.8,4.5s-0.1,7.7,0,9
		c0.1,1.3,0.3,2,0.3,2s1.8,14.2,1.2,18.4c-0.6,4.2-0.8,11.8-0.8,11.8l-2.4,20.3l-12.5-2.3l5.6-27.8l0.2-4.9c0,0-2.3-6-1.3-9.1
		s-0.3-41.9-0.3-41.9L568.7,269.5z"/>
	<path class="st10" d="M562.7,313.1c-1.4,2.7-0.5,9.3-0.5,9.3c1.9,1.6,0.8,15.8,0.8,15.8s1.3,14,2.1,15.6s0.7,8.3,0.7,8.3
		c-9.5,1.8-15.8-2-15.8-2s3.1-6.9,3.1-7.3c0-0.2,0.4,0.3,0.6,0.5l-0.6-0.8c-1.3-1.8,0-5.3,0-5.3s-1.6-11.3-0.8-12.3
		s-0.1-4.9-0.6-5.8c-0.6-1.3-0.9-2.6-1-4c0-0.7-0.2-1.4-0.4-2.1c-2-2.9-1.6-7.6-1.6-7.6c0.1-4.1-0.3-8.2-1-12.2
		c-1.2-5.4,1.5-20.7,1.5-20.7s-0.9-3-0.2-4.1c0.3-0.5,0.3-1.7,0.1-2.8c-0.2-1.4-0.5-2.7-0.5-2.7l17.7-3.1c0.4,0.6,0.7,1.2,1,1.8
		c5.9,10.8,1.9,14.9,1.9,14.9l-3.8,11.6C565.5,298.1,564.1,310.4,562.7,313.1z"/>
	<path class="st15" d="M534.6,228.4l-2.5,2.1c0,0-0.5-0.4-1.2-1c-1.6-1.4-4.2-4-3.2-5.1c0.6-0.9,1.8-1.1,2.7-0.5c0,0,0,0,0.1,0
		c-0.1-0.2-3.1-3.3-1.9-3c1.2,0.3,3.5,3,3.5,3l1.8,3.2L534.6,228.4z"/>
	<polygon class="st15" points="568.6,263.4 565.6,264.4 567.8,268.3 570.4,264.9 	"/>
	<circle class="st15" cx="561.5" cy="217.7" r="8.5"/>
	<path class="st15" d="M556.5,220.8c0,0,7.7,12.3,0.4,13.3c-7.3,1,9.9,8.5,9.9,8.5l6.4-6.5c0,0-6.7-11.6-5.6-16
		C568.6,215.8,556.5,220.8,556.5,220.8z"/>
	<path class="st8" d="M567.4,271.6c-1.7,0.5-3.5,0.9-5.2,1.2c0,0-9.6,4.2-13.1,2.8c-0.2-1.4-0.5-2.7-0.5-2.7l17.7-3.1
		C566.7,270.5,567,271.1,567.4,271.6z"/>
	<path class="st16" d="M576.2,239.5l-1.7,3.6l-1.9,4l-0.3,0.6l-2.3,5l-2.9,6.3c0,0,1,1.2,0.7,2.2c-0.3,1-0.8,0.5-0.8,0.5
		c0,0.1,0.7,0.9,0.1,1.3c-0.4,0.3-0.5,0.8-0.4,1.2c0,0,2.4,4,2.9,5.4c0.5,1.4-7.3,2.7-7.3,2.7s-11,4.9-13.7,2.5
		c-2.7-2.4,0-13.7,0-13.7s0-6.5,0.7-7.1s0.4-5.1,0.4-5.1c-1.9-3.4-0.6-5.4-0.6-5.4l-0.5-8.8c0,0,0.8-0.9,1.5-1c0.4,0,0.8,0,1.2,0
		c0,0,0.3-0.1,0.8-0.3c1-0.3,2.8-0.7,3.4-0.4c0.9,0.5,6.8-0.7,6.8-0.7c2.5-0.4,5.1-0.6,7.6-0.7c0.9-0.1,1.7,0,2.6,0.3
		c1.1,0.3,2.1,1.1,2.5,2.2c-0.1,1.1,0.2,2.1,0.8,3C576.6,238.8,576.2,239.5,576.2,239.5z"/>
	<path class="st8" d="M534.6,228.4l-2.5,2.1c0,0-0.5-0.4-1.2-1c-0.2-2.2,1.7-2.5,3-2.4L534.6,228.4z"/>
	<path class="st16" d="M549.5,234.7l-1.1,0.1c0,0-2.6,0.3-3.4-0.5c-0.8-0.8-3.8-1-3.8-1s-0.8-1.7-1.8-2.2c-0.9-0.5-3.1-1.5-3.2-2
		c-0.2-0.5-0.5-1.1-0.8-1.5c0,0-4.9-1.2-4.2,2.7c0.7,3.8,4.7,7.1,4.7,7.1s0.5,2.1,1.9,2.7s11.2,5.1,12.7,3.9
		S549.5,234.7,549.5,234.7z"/>
	<path class="st8" d="M575.6,237.1c-0.6-0.9-0.9-1.9-0.8-3c-0.4-1.1-1.3-1.9-2.5-2.2c-0.4-0.1-0.8-0.2-1.3-0.2
		c1.1,0.3,2.1,1.1,2.4,2.2c-0.1,1.1,0.2,2.1,0.8,3c1,1.7,0.6,2.4,0.6,2.4l-1.7,3.6l-2,4l-0.3,0.6l-2.3,5l-2.9,6.3c0,0,1,1.2,0.7,2.2
		c-0.3,1-0.8,0.5-0.8,0.5c0.1,0.1,0.7,0.9,0.1,1.3c-0.4,0.3-0.5,0.8-0.4,1.2c0,0,2.4,4,2.9,5.4c0.5,1.4-7.3,2.7-7.3,2.7
		s-7.6,3.4-11.7,3.1c3.5,1.4,13-2.9,13-2.9s7.7-1.2,7.3-2.7s-2.9-5.4-2.9-5.4c-0.1-0.5,0-0.9,0.4-1.2c0.6-0.4-0.1-1.2-0.1-1.3
		c0.1,0.1,0.5,0.5,0.8-0.5c0.3-0.9-0.7-2.2-0.7-2.2l2.9-6.3l2.3-5l0.3-0.6l1.9-4l1.7-3.6C576.2,239.5,576.6,238.8,575.6,237.1z"/>
	<path class="st16" d="M575,238.6l1.2,1c0.2,0.6,0.5,1.2,1,1.8c0.6,0.7,2.4,7.8,2.4,7.8c-0.2,0.3-0.2,0.7,0,1
		c0.3,0.5-0.5,1.3-0.5,1.3s-0.4-0.1,0.3,0.6c0.6,0.7-0.6,1.6-0.6,1.6s-5.3,9.1-6.4,10.1c-1.1,1-2.2,3.5-2.2,3.5s-2.3-3.6-2.9-3.7
		l2.3-5.1c0,0,1.6-7.1,2.7-8.4c1.2-1.3-0.6-5.8-0.6-5.8L575,238.6z"/>
	<path class="st8" d="M575.7,251.8c-1,1.2-2.7,1.4-4.2,1.2c-0.2,0-0.4-0.1-0.7-0.1c-0.3-0.1-0.7-0.1-1-0.2c-1.2-0.3-2.3-0.9-3.2-1.6
		c-0.2-0.2-0.4-0.3-0.7-0.4c-0.6-0.1-1.2,0.3-1.5,0.8c-0.3,0.5-0.5,1.1-0.8,1.7c-0.7,1-1.9,1.6-3.2,1.6c-1.2,0-2.5-0.3-3.6-0.7
		c1-1.1,1.8-2.4,2.3-3.9c0.2-1,0.3-1.9,0.2-2.9c-0.3-4.6-1.9-9.4-5.6-12.1c-0.6-0.5-1.4-1-1.6-1.7c1-0.3,2.8-0.7,3.4-0.4
		c0.9,0.5,6.8-0.7,6.8-0.7c2.5-0.4,5.1-0.6,7.6-0.7c0.9-0.1,1.7,0,2.6,0.3c-0.4,1.9-0.5,3.9-0.2,5.8c0.3,1.2,0.7,2.3,1.3,3.4
		c0.3,0.6,0.7,1.3,1,1.9c1,1.8,1.9,3.6,2.1,5.6C576.7,249.8,576.4,250.9,575.7,251.8z"/>
	<path class="st8" d="M562.9,261c0.5-0.1,1-0.2,1.5-0.1c0.4,0.1,0.8,0.4,1.1,0.7h-3.3c-0.9,0-2.2,0-2.8-0.6
		C560,260.4,562,261.1,562.9,261z"/>
	<path class="st17" d="M551.3,216.7c-1,1.4-1.2,3.3-0.6,4.9c0.5,1.3,1.6,2.2,2.2,3.4c1,1.9,0.9,4.2-0.2,6c-0.2,0.3-0.4,0.7-0.5,1.1
		c-0.2,1,0.9,1.7,1.7,2.3c3.7,2.7,5.3,7.5,5.6,12.1c0.1,1,0,1.9-0.2,2.9c-0.5,1.4-1.3,2.7-2.3,3.9c1.2,0.4,2.4,0.7,3.6,0.7
		c1.3,0,2.4-0.6,3.2-1.6c0.3-0.5,0.5-1.1,0.8-1.7c0.3-0.6,0.9-0.9,1.5-0.8c0.3,0.1,0.5,0.2,0.7,0.4c1.4,1.1,3.1,1.7,4.9,1.9
		c1.5,0.2,3.2-0.1,4.2-1.2c0.7-0.9,0.9-2,0.8-3.1c-0.3-3.9-3.7-7-4.4-10.9c-0.6-3.1,0.5-6.3,0.7-9.5c0.3-4.7-1.4-9.3-3.1-13.7
		c-0.4-1.1-0.9-2.1-1.5-3.1c-1.5-2-3.8-3.3-6.3-3.5c-0.9-0.1-1.9,0-2.7,0.3c-0.9,0.4-1.7,0.9-2.4,1.6c-1.6,1.4-3.3,2.8-4.2,4.8
		c-0.4,0.8-0.6,1.6-1,2.4"/>
	<g class="st18">
		<path d="M552.9,215c0.4-0.8,0.7-1.6,1-2.4c0.4-0.7,0.8-1.4,1.4-2c-1,0.9-1.8,2-2.4,3.1c-0.4,0.8-0.6,1.6-1,2.3l0.5-0.4
			c-0.1,0.2-0.3,0.4-0.4,0.6C552.3,215.8,552.6,215.4,552.9,215z"/>
		<path d="M572.8,251.2c-1.8-0.2-3.4-0.9-4.9-1.9c-0.2-0.2-0.4-0.3-0.7-0.4c-0.6-0.1-1.2,0.3-1.5,0.8c-0.1,0.1-0.1,0.2-0.2,0.3
			c0.2-0.1,0.5-0.1,0.7-0.1c0.3,0.1,0.5,0.2,0.7,0.4c1.4,1.1,3.1,1.7,4.9,1.9c1.5,0.2,3.2-0.1,4.2-1.2c0.1-0.2,0.2-0.3,0.3-0.5
			C575.3,251.2,574,251.4,572.8,251.2z"/>
		<path d="M561.7,252.9c-1.2,0-2.5-0.3-3.6-0.7c1-1.1,1.8-2.4,2.3-3.9c0.2-0.9,0.3-1.9,0.2-2.9c-0.3-4.6-1.9-9.4-5.6-12.1
			c-0.8-0.6-1.8-1.3-1.7-2.3c0.1-0.4,0.3-0.8,0.5-1.1c1.1-1.8,1.2-4.1,0.2-6c-0.6-1.2-1.7-2.2-2.2-3.4c-0.6-1.4-0.5-3,0.2-4.3
			c-0.2,0.2-0.4,0.4-0.6,0.5c-0.1,0.2-0.3,0.4-0.5,0.6c-0.7,1.3-0.8,2.9-0.2,4.3c0.5,1.3,1.6,2.2,2.2,3.4c1,1.9,0.9,4.2-0.2,6
			c-0.2,0.3-0.4,0.7-0.5,1.1c-0.2,1,0.9,1.7,1.7,2.3c3.7,2.7,5.3,7.5,5.6,12.1c0.1,1,0,1.9-0.2,2.9c-0.5,1.4-1.3,2.7-2.3,3.9
			c1.2,0.4,2.4,0.7,3.6,0.7c1.3,0,2.4-0.6,3.2-1.6c0-0.1,0.1-0.1,0.1-0.2C563.3,252.7,562.5,252.9,561.7,252.9z"/>
	</g>
	
		<linearGradient id="SVGID_2_" gradientUnits="userSpaceOnUse" x1="93.7019" y1="281.3292" x2="93.7019" y2="381.3596" gradientTransform="matrix(1 0 0 -1 -56.96 625.85)">
		<stop  offset="0" style="stop-color:#808080;stop-opacity:0.25"/>
		<stop  offset="0.54" style="stop-color:#808080;stop-opacity:0.12"/>
		<stop  offset="1" style="stop-color:#808080;stop-opacity:0.1"/>
	</linearGradient>
	<path class="st19" d="M54.6,336.8c-1.5-0.2-2.9-0.7-4.1-1.5l-0.1-0.1c0.1-0.1,0.2-0.3,0.2-0.5c-0.2-0.3-0.3-0.7-0.3-1.1
		c0-0.4-0.1-0.7-0.2-1v-1.8c-0.4-0.6-0.6-1.3-0.6-2c0-1.5-0.1-8.6-0.1-8.6c-0.1-0.4-0.1-0.8,0-1.1c0-0.8,0-1.1,0-1.1
		c-0.2-0.5-0.2-1-0.2-1.5c0-0.5-0.1-1-0.4-1.3l0.8-3.9c0,0,0.4-13.6-0.9-17.7l0,0c0,0,0,0,0,0c0.1-2.6-1.5-7-0.6-10.1
		c0.9-3.1,1-3.7,1-3.7s-4-10.1-5-12.4c-0.6-1.5-1.3-3-2.1-4.5c-0.1-0.1-0.1-0.2-0.2-0.3l-0.1-0.1c0.2-0.4,0.4-0.8,0.4-1.2
		c0.1-0.7,0-1.6,0.5-2.1c0.2-0.2,0.4-0.3,0.7-0.4c0.8-0.6,1.3-1.5,1.2-2.5c-0.2-0.8-0.5-1.5-1.1-2.1c0.1-0.3,0.1-0.7,0.1-1
		c0-1.6-0.7-3.1-1.8-4.2l0,0v-0.3c0-0.7-0.2-1.4-0.6-2l0.1,0.1l-0.3-0.2c-0.1-0.1-0.3-0.2-0.4-0.3c-2.4-1.7-5.6-1.8-8.2-0.4
		c-0.6,0.3-1.2,0.8-1.6,1.4c-0.8,1.3-0.6,3-1.1,4.4c-0.4,1.5-1.4,2.6-2.2,3.8s-1.5,2.7-1.2,4.1c0.2,1,1,2,0.9,3
		c-0.1,1.2-1,2.1-2.1,2.2l0,0h-0.3c1,0.6,2.2,1,3.4,1.1c0,0.1-0.1,0.2-0.1,0.3c-1,3.7-1.8,8.4-1.8,8.4s0.6,4.8-0.6,8.5
		c-1.2,3.7-1.1,11.4-1.1,11.4s3.4-1.8,3.6-0.6c0.2,1.1,0,1.5,0,1.5c0.5,0.3,1,0.5,1.5,0.7v0.5l-0.2,2c-0.1,0.4,0,0.9,0.2,1.2
		c0.3,0.6,0,2.1,0,2.1s-0.3,0.2,0,0.9c0.1,0.6,0,1.2-0.2,1.8c0,0-0.3,3.9-0.4,4.7c-0.2,1.1-0.6,2.1-1.1,3.2c0,0,0.9,1.1,0,1.3
		c-0.9,0.2-1,1.5-1,1.5s-1.1,0.9-1.1,1.2c-3.2,3.6-5.3,8.1-6,12.9c0,0-1.1,1-1,2c0.1,0.6-0.1,0.7-0.3,0.8c0.2,0,0.4,0.2,0.3,0.6
		c-0.2,0.8-0.6,2.6-0.6,2.6h0.1l0,0c-0.9,1-2.2,2.7-2.4,4.2v0.2l-0.5,1.1l4.2,1.9l0.4-0.6c0,0,1.9,2.1,4,2.6
		c0.4,0.1,0.7,0.1,1.1,0.1c1.2,0,2.4-0.3,3.5-0.7c0,0,1.5-1.9-2.5-2.3c0,0-2.4-2.7-2.1-3.8c0.1-0.5,0.1-1,0.1-1.5c0-0.1,0-0.2,0-0.3
		l0.3,0l0-0.9c0.1-0.1,0.2-0.3,0.2-0.5c0-0.4-0.3-0.4,0-0.6c0.3-0.2,0.3,0,0.3-0.5s-0.2-0.4,0.3-0.9c0.5-0.5,0-1.5,0-1.5
		c0.6-0.4,1-1.1,1-1.9c0-1.1,3.6-8,4.3-8.2c0.7-0.3,0.8-1.6,0.8-1.6s1,0.2,1.3,0c0.5-0.6,0.9-1.2,1.3-1.8c0,0,4.1-10.3,4.1-14.1
		l0.3-0.9c0,0,1.5,2,1.3,3.5c-0.2,1.5,1.2,2.5,1.2,2.5v4.4c0.2,0.8,0.2,1.5,0.3,2.3c0,0.7,0.6,1.5,0.4,2.1c-0.1,0.6-0.1,1.1,0,1.7
		c0,0-0.1,1.5,0,1.9c0.1,0.4-0.2,5.2,1.2,7.3c0,0,0.6,1.5,0,2.5c-0.6,1,0.5,2,0.5,2s-0.7,1.1,0,2c0.4,0.5,0.6,1.2,0.5,1.8
		c-0.3,1.1-0.5,2.4,0,3.4l0,0l0.1,1.5l4.1-0.3v-0.8c1.8,0.4,3.6,0.5,5.4,0.3c1.4-0.1,2.7-0.8,3.6-1.9
		C57.4,338.6,59,335.7,54.6,336.8z"/>
	<path class="st16" d="M56.6,338.6c-0.8,1.1-2.1,1.8-3.5,1.9c-1.7,0.2-3.5,0.1-5.2-0.3v0.8l-4,0.3l-0.1-1.5l0,0
		c-0.5-1-0.2-2.4,0-3.4c0.1-0.5,0.3-1,0.5-1.5c0,0,3.4-2.9,4.5-0.7c0.2,0.4,0.6,0.8,1,1.1c1.2,0.8,2.5,1.3,4,1.5
		C58.2,335.7,56.6,338.6,56.6,338.6z"/>
	<path class="st8" d="M46.1,335.7c0,0,0,2.7,2,2.6c2,0,2.2-1.1,1.6-1.8c-0.4-0.5-0.8-1-1.1-1.6L46.1,335.7z"/>
	<path class="st16" d="M29.2,343.8c-1.1,0.4-2.2,0.7-3.4,0.7c-0.4,0-0.7,0-1.1-0.1c-2.1-0.5-3.9-2.6-3.9-2.6l-0.4,0.6l-4.1-1.9
		l0.5-1.1v-0.2c0.2-1.5,1.4-3.2,2.3-4.2c0.5-0.6,0.9-0.9,0.9-0.9l4.9,0.7c0,0,0,0.6,0,1.4c0,0.5-0.1,1-0.1,1.5
		c-0.2,1.1,2.1,3.8,2.1,3.8C30.7,341.9,29.2,343.8,29.2,343.8z"/>
	<path class="st10" d="M19.4,331.9c-0.1,0-0.2,0-0.3,0C19.2,331.8,19.3,331.8,19.4,331.9z"/>
	<path class="st8" d="M24.9,334.9c0,0,0,0.6,0,1.4l-5.8-0.9c0,0,0-0.1,0.1-0.3c0.5-0.6,0.8-0.9,0.8-0.9L24.9,334.9z"/>
	<path class="st8" d="M49.9,335.3c-0.9,2-6.1,1.5-6.1,1.5c0-0.2,0-0.3,0-0.5c0.1-0.5,0.3-1,0.5-1.5c0,0,3.4-2.9,4.5-0.7
		C49.2,334.7,49.5,335,49.9,335.3z"/>
	<path class="st10" d="M50,334.8c-0.5,2.3-6.1,1.8-6.1,1.8c0.1-0.7-0.1-1.4-0.5-2c-0.7-0.8,0-2,0-2s-1.1-1-0.5-2s0-2.5,0-2.5
		c-1.3-2.1-1.1-6.8-1.1-7.2c-0.1-0.4,0-1.9,0-1.9c-0.1-0.6-0.1-1.1,0-1.7c0.3-0.6-0.4-1.3-0.4-2.1c0-0.8-0.1-1.5-0.2-2.3v-4.4
		c-0.8-0.6-1.2-1.5-1.1-2.5c0.2-1.5-1.3-3.5-1.3-3.5l-0.3,0.9c-0.1,3.9-4,14.1-4,14.1c-0.4,0.6-0.8,1.2-1.3,1.8
		c-0.3,0.2-1.3,0-1.3,0s-0.1,1.3-0.8,1.6s-4.2,7.1-4.2,8.2c-0.1,0.8-0.4,1.5-1,1.9c0,0,0.5,0.9,0,1.4s-0.3,0.4-0.3,0.9
		s0,0.3-0.3,0.5s0,0.3,0,0.6c0,0.2,0,0.4-0.2,0.5l0,0.9l-6-1c0,0,0.4-1.8,0.6-2.6c0.1-0.5-0.1-0.6-0.3-0.6c0.2-0.1,0.3-0.3,0.3-0.8
		c-0.2-1,0.9-2,0.9-2c0.6-4.7,2.6-9.2,5.7-12.9c0-0.3,1-1.2,1-1.2s0.1-1.4,1-1.5c0.9-0.1,0-1.3,0-1.3c0.4-1,0.8-2.1,1-3.1
		c0.1-0.8,0.3-4.7,0.3-4.7c0.2-0.6,0.3-1.2,0.2-1.8c-0.2-0.7,0-0.9,0-0.9s0.3-1.5,0-2.1c-0.2-0.4-0.2-0.8-0.2-1.2l0.1-2l0.2-3
		c0,0,16-2.7,17.8-0.5c0.2,0.3,0.3,0.6,0.4,0.9c1.3,4.1,0.8,17.6,0.8,17.6l-0.8,3.9c0.3,0.4,0.4,0.9,0.4,1.3c-0.1,0.5,0,1,0.2,1.5
		c0,0,0,0.3-0.1,1.1c0,0.4,0,0.8,0.1,1.1c0,0,0,7.1,0.1,8.6c0,0.7,0.2,1.4,0.6,2v1.8c0.1,0.3,0.2,0.7,0.2,1
		C49.8,334,49.9,334.4,50,334.8z"/>
	<path class="st8" d="M25.7,343.1c-0.4,0-0.7,0-1.1-0.1c-2-0.5-3.8-2.6-3.8-2.6l-0.4,0.6l-4.1-1.8l0.5-1.1v-0.2L21,340
		C21,340,24.4,341.6,25.7,343.1z"/>
	<path class="st8" d="M52.8,339.1c-1.7,0.2-3.5,0.1-5.2-0.3v0.8l-3.9,0.3l-0.1-1.5c1.2,0,3.2,0,4.1,0
		C49.4,338.4,51.1,338.6,52.8,339.1z"/>
	<path class="st8" d="M21.4,330.5c0.2,0,0.4,0,0.6,0.1c0.2,0.1,0.4,0.3,0.6,0.4c0.1,0.1,0.3,0.2,0.4,0.3c0.1,0.1,0.2,0.4,0.4,0.5
		c0.3,0.3,0.7,0.2,1.1,0.3c0,0,0.1,0,0.1,0.1c0,0,0,0.1-0.1,0.1c-0.2,0.1-0.4,0.1-0.6,0c-0.2-0.1-0.3-0.2-0.5-0.4
		c-0.3-0.3-0.6-0.5-1-0.6c-0.5-0.2-1.3-0.2-1.6-0.7C21,330.5,21.2,330.5,21.4,330.5z"/>
	<path class="st8" d="M21,331.6c0.1,0,0.2,0.1,0.3,0.1l0.5,0.3c-0.4,0-0.7-0.1-1.1-0.2c-0.1,0-0.2-0.1-0.3-0.2
		C20.6,331.6,20.8,331.6,21,331.6z"/>
	<path class="st8" d="M21.7,332.5c0.1,0,0.2,0,0.3,0c0.2,0.1,0.4,0.2,0.5,0.3c0.4,0.3,0.9,0.5,1.4,0.5c-0.1,0-0.2,0.1-0.3,0h-1.1
		c-0.1,0-0.2,0-0.4,0c-0.2,0-0.3-0.1-0.5-0.2c-0.2-0.1-1-0.3-1-0.6C20.8,332.4,21.5,332.5,21.7,332.5z"/>
	<path class="st8" d="M47,333.8c0.3,0,0.7,0,1,0c0.4,0,0.7-0.1,1-0.3c0.3-0.2,0.2-0.5-0.1-0.5c-0.4,0-0.7,0.1-1,0.2
		c-0.2,0.1-0.3,0.2-0.5,0.2C47.3,333.6,47,333.8,47,333.8z"/>
	<path class="st8" d="M48.2,334.4c0,0.1-0.2,0.2-0.3,0.2c-0.3,0.1-0.6,0.2-0.9,0.2c-0.1,0-0.3,0-0.3-0.1c0-0.1,0.4-0.1,0.4-0.1
		C47.5,334.6,47.9,334.5,48.2,334.4z"/>
	<path class="st8" d="M45.1,334.2c0.4,0,0.9,0,1.2,0.2l0,0l0,0c-0.1,0.2-0.2,0.2-0.4,0.2c-0.2,0-0.3-0.1-0.5-0.1
		c-0.3-0.1-0.5-0.1-0.8-0.1c-0.1,0-0.2,0-0.4,0c-0.4-0.1-0.2-0.2,0-0.2C44.5,334.1,44.8,334.2,45.1,334.2z"/>
	<path class="st8" d="M30.9,313.9c-0.5-0.4-1.1-0.6-1.8-0.6C29.8,313.3,30.4,313.5,30.9,313.9z"/>
	<path class="st8" d="M30.4,311.8c0.5,0,0.9,0.1,1.3,0.4l-0.4-0.1C31,312,30.7,311.9,30.4,311.8c-0.2,0.1-0.4,0.1-0.5,0.1
		s-0.4,0-0.6-0.1C29.7,311.8,30.1,311.8,30.4,311.8z"/>
	<path class="st8" d="M32,312.8c0.1,0,0.3,0.1,0.4,0.2c-0.4-0.2-0.8-0.3-1.1-0.4c-0.2-0.1-0.9-0.4-1-0.2
		C30.7,312.6,31.4,312.7,32,312.8z"/>
	<path class="st8" d="M33.4,308.2c0.7-0.2,1.3-0.6,1.8-1.1c0,0.5-0.3,0.9-0.7,1.2c-0.4,0.2-0.8,0.4-1.3,0.5
		c-0.5,0.1-0.9,0.2-1.3,0.4c-0.2,0.1-0.8,0.7-1,0.7s0.2-0.4,0.2-0.5C31.8,308.9,32.6,308.5,33.4,308.2z"/>
	<path class="st8" d="M46.1,314.9c-0.2-0.1-2.9,0.4-2.7-0.1c0.1-0.3,1-0.2,1.2-0.2C45.1,314.7,45.6,314.8,46.1,314.9z"/>
	<path class="st20" d="M43.2,253.2c0,0.4,0,0.9-0.1,1.3c-0.7,3.2-3.9,5.2-7,4.5s-5.2-3.9-4.5-7c0.7-3.2,3.9-5.2,7-4.5
		C41.3,248.1,43.2,250.5,43.2,253.2z"/>
	<path class="st21" d="M40.4,255.6c0,0-1.9,5.6-0.8,6.7s-7.8,1.8-7.8,1.8s3.7-6.7,3.4-8.3C34.7,254.2,40.4,255.6,40.4,255.6z"/>
	<path class="st8" d="M48.3,293.7c0,0.1,0,0.3,0,0.4c-0.1,2.6-4.8,7.9-5.9,7s-8.4-2.6-8.4-2.6s-1.1-1.7-2.2-1.7
		c-0.6-0.1-1.3-0.2-1.9-0.5l0.2-3c0,0,16-2.7,17.8-0.5C48.1,293,48.2,293.3,48.3,293.7z"/>
	<path class="st22" d="M48.3,293.6c0,1.3-1.3,3.3-2.6,4.9s-2.8,2.6-3.3,2.2c-0.4-0.3-0.8-0.5-1.3-0.6c-2.4-0.9-7.2-2-7.2-2
		s-1.1-1.7-2.2-1.7c-1.1,0-3.3-1.1-3.3-1.1s0.2-0.3,0-1.4c-0.2-1.1-3.5,0.6-3.5,0.6s-0.2-7.6,1-11.4s0.6-8.4,0.6-8.4
		s0.9-4.7,1.8-8.4c0.6-2.2,1.1-4.1,1.6-4.4c1.2-0.8,7.4,0,7.4,0c1.2,0,2.4,0.1,3.6,0.3c0.3,0.1,0.6,0.3,0.7,0.6l0.2,0.3
		c0.8,1.4,1.5,2.9,2.1,4.5c1,2.4,4.9,12.4,4.9,12.4s-0.1,0.7-1,3.7C46.8,286.5,48.4,290.9,48.3,293.6z"/>
	<path class="st20" d="M43.9,296.6l1.9,1.8c0,0,1.7,5.9-0.5,5.4c-2.2-0.5-4.1-3.8-4.1-3.8L43.9,296.6z"/>
	<path class="st8" d="M48.6,280.3c-4.4,0-5.5-6.2-5.5-6.2s-0.3-6.1-0.9-7.2c-0.3-1.1-0.5-2.3-0.5-3.4c0.8,1.4,1.5,2.9,2.1,4.5
		C44.7,270.2,48.6,280.3,48.6,280.3z"/>
	<path class="st22" d="M48.7,279.8c-4.4,0-5.5-6.2-5.5-6.2s-0.3-6.1-0.9-7.2c-0.3-1.1-0.5-2.3-0.5-3.4c0.8,1.4,1.5,2.9,2.1,4.5
		C44.9,269.8,48.7,279.8,48.7,279.8z"/>
	<path class="st8" d="M40.9,264.6c0,0-1.3-3.5-3.4,0c-1.3,2.4-2.1,5.2-2.2,7.9l-0.4,9.7c0.3,0.6,0.6,1.3,0.6,2
		c0,0.7,1.3,2.8,1.3,2.8s0.3,4.1,1.5,4.8l1.1,3.4c0,0,0,2.2,0.8,3.1c0.5,0.6,0.6,1.5,0.4,2.2l4.6-1.6c0,0-0.5,0.2,0-1.2
		c0.5-1.4-0.3-3.2-0.3-3.2s-2.9-6.4-3.3-7.3c-0.4-0.9-0.9-2-0.7-3.1s0-12.6,0.3-14.3C41.5,268,40.9,264.6,40.9,264.6z"/>
	<path class="st16" d="M41.3,264.2c0,0-1.3-3.5-3.4,0c-1.3,2.4-2.1,5.2-2.2,7.9l-0.4,9.7c0.3,0.6,0.6,1.3,0.6,2
		c0,0.7,1.3,2.8,1.3,2.8s0.3,4.1,1.5,4.7l1.1,3.4c0,0,0.1,2.2,0.8,3.1c0.5,0.6,0.6,1.5,0.4,2.2l4.6-1.6c0,0-0.5,0.2,0-1.2
		c0.5-1.4-0.3-3.2-0.3-3.2s-2.9-6.4-3.3-7.3c-0.4-0.9-0.9-2-0.7-3.1s0-12.6,0.3-14.4S41.3,264.2,41.3,264.2z"/>
	<path class="st8" d="M41.4,294.5c0.2,0,0.4,0.1,0.6,0.2c0.1,0.1,0.3,0.2,0.4,0.3c0.2,0.1,0.3,0.1,0.5,0.1c-0.2,0-0.4,0-0.6,0
		c-0.1,0-0.3,0-0.4,0c-0.1-0.1-0.2-0.1-0.3-0.2c-0.1-0.1-0.3-0.2-0.4-0.2c-0.1,0-0.2-0.1-0.3-0.2C41.1,294.4,41.3,294.5,41.4,294.5z
		"/>
	<path class="st8" d="M43.2,295.9c0.2,0,0.4,0,0.6-0.1c0.3,0,0.6,0,0.9,0c-0.4,0.2-0.9,0.3-1.3,0.2c-0.1,0-0.3,0-0.4,0
		c-0.1,0.1-0.6,0.5-0.6,0.1C42.2,295.8,42.9,295.9,43.2,295.9z"/>
	<path class="st8" d="M40.8,247l-0.8-0.5c0.1,0,0.2,0.1,0.2,0.1c0.2,0.1,0.3,0.2,0.4,0.3l0.2,0.2L40.8,247z"/>
	<path class="st8" d="M41.6,262.7c-0.1,0.3-0.4,0.6-0.6,0.8c-0.2,0.1-0.4,0.2-0.6,0.2c-0.3,0-0.6,0-0.8-0.1c-0.3-0.1-0.7-0.2-1-0.3
		c-0.7-0.3-1.3-0.5-2-0.7c-1-0.3-2.1-0.1-3,0.6c-0.7,0.7-0.8,1.7-1.5,2.4c-0.9,0.9-2.3,0.8-3.5,0.7l-0.3,0c0.6-2.2,1.1-4.1,1.6-4.4
		c1.2-0.8,7.4,0,7.4,0c1.2,0,2.4,0.1,3.6,0.3C41.2,262.2,41.4,262.4,41.6,262.7z"/>
	<path class="st8" d="M31.4,253.2c0-3.2,2.6-5.9,5.9-5.9c1.5,0,3,0.6,4.1,1.7l0,0c0,1-0.2,2.1,0.1,3.1c0.4,0.9,0.9,1.7,1.5,2.4
		c-0.7,3.2-3.9,5.2-7,4.4C33.4,258.3,31.5,255.9,31.4,253.2z"/>
	<path class="st10" d="M40.9,246.8c-2.3-2.1-5.8-2.5-8.5-1c-0.6,0.3-1.1,0.8-1.5,1.4c-0.8,1.3-0.6,3-1,4.4c-0.4,1.5-1.4,2.5-2.2,3.8
		c-0.8,1.2-1.5,2.7-1.2,4.1c0.2,1,0.9,2,0.9,3c-0.1,1.2-1,2.2-2.3,2.2c1,0.6,2.2,1,3.4,1.1c1.2,0.2,2.7,0.2,3.5-0.7
		c0.6-0.7,0.8-1.7,1.5-2.4c0.8-0.7,1.9-0.9,3-0.6c1,0.2,2,0.7,3,1c0.3,0.1,0.6,0.1,0.8,0.1c0.9-0.1,1.4-1.1,1.5-2
		c0.1-0.7,0-1.6,0.5-2.1c0.2-0.2,0.4-0.3,0.6-0.4c0.8-0.6,1.3-1.5,1.1-2.5c-0.2-1.7-2.1-2.8-2.6-4.5c-0.3-1-0.1-2-0.1-3.1
		c0-1-0.4-2.2-1.4-2.5"/>
	<path class="st8" d="M44,256.3c-0.2-1.7-2.1-2.8-2.6-4.5c-0.3-1-0.1-2-0.1-3.1c0-0.7-0.2-1.4-0.6-2l0.1,0.1
		c-0.1-0.1-0.2-0.1-0.2-0.2c-0.1-0.1-0.3-0.2-0.4-0.3l-0.3-0.2l0.1,0.1l-0.1-0.1c0.4,0.6,0.6,1.3,0.6,2c0,1-0.2,2.1,0.1,3.1
		c0.5,1.7,2.4,2.8,2.6,4.5c0.1,1-0.3,2-1.1,2.5c-0.2,0.1-0.4,0.3-0.6,0.4c-0.5,0.5-0.4,1.4-0.5,2.1c-0.1,0.9-0.6,1.9-1.5,2
		c-0.3,0-0.6,0-0.8-0.1c-1-0.3-2-0.8-3-1c-1-0.3-2.1-0.1-3,0.6c-0.6,0.7-0.8,1.7-1.5,2.4c-0.9,0.9-2.3,0.8-3.5,0.7
		c-0.8-0.1-1.6-0.3-2.4-0.5c-0.1,0-0.2,0-0.3,0c1,0.6,2.2,1,3.4,1.1c1.2,0.2,2.7,0.2,3.5-0.7c0.6-0.7,0.8-1.7,1.5-2.4
		c0.8-0.7,1.9-0.9,3-0.6c1,0.2,2,0.7,3,1c0.3,0.1,0.6,0.1,0.8,0.1c0.9-0.1,1.4-1.1,1.5-2c0.1-0.7,0-1.6,0.5-2.1
		c0.2-0.2,0.4-0.3,0.6-0.4C43.7,258.3,44.2,257.3,44,256.3z"/>
	<path class="st0" d="M66.7,340.4c1.1,3.8-14,6.2-31.8,5.5c-16-0.6-28.5-3.6-29.4-6.6s10-5.6,25.8-5.6
		C48.8,333.6,65.6,336.6,66.7,340.4z"/>
	<g>
		<path class="st4" d="M42.5,232.2l0,0.1l7.9,21.7c0.2,0.8,0.8,1.4,1.4,1.3l22.9-2.8c0.4,0,0.8-0.4,0.9-0.9c0.1-0.4,0.2-0.8,0.1-1.3
			l0,0l-4.2-34.7c-0.1-1.2-0.9-2.1-1.7-2l-9.6,1.2l-1.9,5.9l-12.7,1.5c-0.8,0.1-1.3,1.1-1.1,2.3l0.6,5l-1.8,0.2
			C42.8,229.8,42.3,230.9,42.5,232.2z M74.2,245.7l-6.4-17.4c-0.2-0.7-0.7-1.2-1.2-1.3c-0.1,0-0.1,0-0.2,0l-20.1,2.4l-0.6-5
			c0-0.3,0.1-0.6,0.3-0.6l13.2-1.6l1.9-5.9l9.1-1.1c0.2,0,0.4,0.2,0.4,0.5L74.2,245.7z M43.5,232c0-0.2,0-0.7,0.2-0.7l1.8-0.2
			l21.1-2.5c0.1,0,0.3,0.1,0.3,0.3l7.9,21.6c0,0.1,0,0.3,0,0.3c0,0.1-0.1,0.2-0.2,0.2l-22.9,2.8c-0.1,0-0.3-0.1-0.3-0.3L43.5,232z"
			/>
	</g>
	<g>
		<path class="st4" d="M285.9,185.7l-19.3-12.4c-0.3-0.2-0.6-0.2-0.9,0L247,185.7c-0.3,0.2-0.5,0.6-0.5,1v16.2
			c0,13.3,6.5,25.4,16.6,30.7l2.6,1.4c0.2,0.1,0.5,0.1,0.8,0l2.9-1.5c10.3-5.2,17-17.4,17-30.9v-15.9
			C286.4,186.3,286.2,185.9,285.9,185.7z M284.5,202.6c0,12.6-6.2,23.9-15.8,28.8l0,0l-2.6,1.3l-2.2-1.2c-9.4-5-15.5-16.2-15.5-28.6
			v-15.5l17.8-11.8l18.3,11.8V202.6z"/>
		<path class="st4" d="M259.1,202.2c-0.3-0.5-0.9-0.5-1.4-0.1c-0.4,0.4-0.5,1.1-0.1,1.6l5.1,7.2c0.3,0.5,0.9,0.5,1.3,0.1l11.8-11.6
			c0.4-0.4,0.5-1.1,0.1-1.6c-0.3-0.5-0.9-0.6-1.3-0.2l-11.1,10.9L259.1,202.2z"/>
	</g>
	<g>
		<path class="st4" d="M715.8,249.6c0,0-0.1,0-0.2,0c-2.7-0.9-4.6-4.2-4.6-8c0-4.5,2.7-8.2,6.1-8.2c1.5,0,3,0.8,4.1,2.1
			c-0.1-4.1-0.3-8.2-0.6-12.3c-3.6-0.5-7.2-0.8-10.7-0.9c-0.3,0-0.5-0.2-0.6-0.6c-0.1-0.3,0-0.7,0.3-0.9c1.4-1.2,2.3-3.3,2.3-5.6
			c0-3.6-2.2-6.6-4.9-6.6c-2.7,0-4.9,3-4.9,6.6c0,2.3,0.8,4.3,2.3,5.6c0.2,0.2,0.3,0.6,0.3,0.9c-0.1,0.3-0.3,0.6-0.6,0.6
			c-1.9,0.1-3.7,0.2-5.6,0.3c-0.3,0-0.6-0.3-0.6-0.8s0.2-0.8,0.6-0.9c1.3-0.1,2.7-0.2,4-0.3c-1-1.5-1.6-3.4-1.6-5.5
			c0-4.5,2.7-8.2,6.1-8.2c3.4,0,6.1,3.7,6.1,8.2c0,2.1-0.6,4-1.6,5.5c3.2,0.2,6.5,0.5,9.7,1c0.3,0,0.5,0.3,0.5,0.7
			c0.4,5.1,0.7,10.3,0.8,15.5c0,0.4-0.2,0.7-0.4,0.8c-0.3,0.1-0.5-0.1-0.7-0.4c-0.9-2-2.5-3.3-4.2-3.3c-2.7,0-4.9,3-4.9,6.6
			c0,3,1.5,5.7,3.7,6.4c0.3,0.1,0.5,0.6,0.4,1C716.4,249.4,716.1,249.6,715.8,249.6L715.8,249.6z"/>
		<path class="st4" d="M710.6,262.6c-0.2,0-0.5-0.2-0.6-0.5c-0.1-0.3,0-0.7,0.2-0.9c1.1-1.3,1.7-3.1,1.7-5.1c0-3.6-2.2-6.6-4.9-6.6
			c-2.7,0-4.9,3-4.9,6.6c0,1.9,0.6,3.8,1.7,5c0.2,0.2,0.3,0.6,0.2,0.9c-0.1,0.3-0.3,0.5-0.6,0.5c-3.5-0.1-7.1-0.5-10.6-1
			c-0.3,0-0.5-0.3-0.5-0.7c-0.3-4.2-0.6-8.6-0.7-12.8c-1.1,1.2-2.4,1.8-3.8,1.8c-3.4,0-6.1-3.7-6.1-8.2c0-4.5,2.7-8.2,6.1-8.2
			c1.4,0,2.8,0.6,3.8,1.8c0.1-4.3,0.3-8.6,0.7-12.8c0-0.4,0.3-0.7,0.5-0.7c1-0.1,1.9-0.3,2.8-0.4c0.3,0,0.6,0.3,0.7,0.7
			c0,0.4-0.2,0.8-0.5,0.9c-0.8,0.1-1.5,0.2-2.3,0.3c-0.4,4.6-0.6,9.3-0.7,14c0,0.3-0.2,0.6-0.4,0.8c-0.2,0.1-0.5,0-0.7-0.3
			c-0.9-1.7-2.4-2.6-3.9-2.6c-2.7,0-4.9,3-4.9,6.6c0,3.6,2.2,6.6,4.9,6.6c1.5,0,3-1,3.9-2.6c0.2-0.3,0.4-0.4,0.7-0.3
			c0.2,0.1,0.4,0.4,0.4,0.8c0.1,4.6,0.3,9.3,0.7,14c2.9,0.4,5.7,0.7,8.6,0.8c-0.7-1.4-1.1-3.1-1.1-4.8c0-4.5,2.7-8.2,6.1-8.2
			c3.4,0,6.1,3.7,6.1,8.2c0,1.7-0.4,3.4-1.1,4.8c2.9-0.1,5.8-0.4,8.7-0.9c0.3-4.1,0.5-8.2,0.6-12.3c-0.7,0.9-1.6,1.5-2.6,1.9
			c-0.3,0.1-0.7-0.1-0.7-0.6c-0.1-0.4,0.1-0.9,0.4-1c1.3-0.4,2.3-1.6,3-3.1c0.1-0.3,0.4-0.5,0.7-0.4c0.3,0.1,0.4,0.4,0.4,0.8
			c-0.1,5.1-0.3,10.4-0.8,15.5c0,0.4-0.3,0.7-0.5,0.7C717.7,262.1,714.1,262.5,710.6,262.6C710.6,262.6,710.6,262.6,710.6,262.6
			L710.6,262.6z"/>
	</g>
</g>
</svg>
