<svg xmlns="http://www.w3.org/2000/svg" viewBox="0 0 53.39 43.8"><defs><style>.cls-1{fill:#f70;}</style></defs><title>file</title><g id="Calque_2" data-name="Calque 2"><g id="BODY"><g id="_1" data-name="1"><path class="cls-1" d="M50.67,12.93v-2a4.73,4.73,0,0,0-4.73-4.69H24.11L18.31.46A1.56,1.56,0,0,0,17.21,0H4.69A4.7,4.7,0,0,0,0,4.69V39.1A4.7,4.7,0,0,0,4.69,43.8H46.26a4.69,4.69,0,0,0,4.66-4.17l2.13-19.13h0l.31-2.77A4.66,4.66,0,0,0,50.67,12.93ZM6.42,40.67H4.69A1.57,1.57,0,0,1,3.13,39.1V4.69A1.57,1.57,0,0,1,4.69,3.13H16.56l5.8,5.8a1.56,1.56,0,0,0,1.11.46H45.93a1.62,1.62,0,0,1,1.63,1.56v1.56H13.75a4.69,4.69,0,0,0-4.66,4.17Zm41.4-1.39a1.56,1.56,0,0,1-1.55,1.39H9.57L11.65,21.9H49.75Zm2.43-21.9-.15,1.39H12L12.19,17a1.56,1.56,0,0,1,1.55-1.39H48.7A1.56,1.56,0,0,1,50.25,17.38Z"/></g></g></g></svg>