<svg xmlns="http://www.w3.org/2000/svg" viewBox="0 0 251.41 252.33"><defs><style>.cls-1,.cls-3{opacity:0.44;}.cls-2,.cls-3{fill:#fff;}</style></defs><title>Gears</title><g id="Calque_2" data-name="Calque 2"><g id="BODY"><g id="_1" data-name="1"><g class="cls-1"><path class="cls-2" d="M95.89,117.65a4.13,4.13,0,0,1-1.72-6.94L113,92.63a4.13,4.13,0,0,1,5.72,5.94L99.9,116.66A4.13,4.13,0,0,1,95.89,117.65Z"/><path class="cls-2" d="M183.84,142.94a4.12,4.12,0,0,1-2.86-3l-6.38-25.33a4.13,4.13,0,0,1,8-2L189,138a4.13,4.13,0,0,1-5.14,5Z"/><path class="cls-2" d="M136.55,186.75l-25.2-7.25a4.13,4.13,0,1,1,2.28-7.93l25.2,7.25a4.13,4.13,0,0,1-2.28,7.93Z"/><path class="cls-2" d="M212.44,53.49,204,51.07a41.22,41.22,0,0,0-1.07-9.46l7.67-4.25a1.49,1.49,0,0,0,.58-2l-9.56-17.28a1.49,1.49,0,0,0-2-.58l-7.68,4.25a41.14,41.14,0,0,0-7.44-5.93l2.42-8.43a1.49,1.49,0,0,0-1-1.85l-19-5.46a1.5,1.5,0,0,0-1.85,1l-2.42,8.43a41.15,41.15,0,0,0-9.46,1.07l-4.25-7.68a1.49,1.49,0,0,0-2-.58l-17.27,9.56a1.49,1.49,0,0,0-.58,2l4.25,7.68A41.15,41.15,0,0,0,127.35,29l-8.43-2.42a1.49,1.49,0,0,0-1.85,1l-5.46,19a1.49,1.49,0,0,0,1,1.85l8.43,2.42a41.1,41.1,0,0,0,1.07,9.46l-7.68,4.25a1.49,1.49,0,0,0-.58,2l9.56,17.27a1.49,1.49,0,0,0,2,.58l7.68-4.25a41.18,41.18,0,0,0,7.44,5.93l-2.42,8.43a1.49,1.49,0,0,0,1,1.85l19,5.46a1.49,1.49,0,0,0,1.85-1l2.42-8.43a41.24,41.24,0,0,0,9.46-1.08L176.15,99a1.49,1.49,0,0,0,2,.58l17.27-9.56a1.49,1.49,0,0,0,.58-2l-4.25-7.68a41.19,41.19,0,0,0,5.93-7.44l8.43,2.42a1.49,1.49,0,0,0,1.85-1l5.45-19A1.49,1.49,0,0,0,212.44,53.49Zm-29.85,3.25c-.11.37-.23.76-.38,1.19l-.1.28,0,.08q-.16.44-.33.83l-.15.34c-.14.31-.28.61-.43.91l-.11.21c-.18.36-.39.72-.6,1.08l-.11.18,0,0c-.16.27-.34.55-.54.83l-.18.26c-.19.28-.39.54-.58.79l-.15.19a21.09,21.09,0,0,1-1.65,1.83l-.12.12c-.26.25-.51.49-.79.73l-.17.15a20.85,20.85,0,0,1-3,2.17L173,69a20.79,20.79,0,0,1-3.4,1.59l-.42.15-.84.26-.1,0-.35.1-.42.11-.08,0-.26.06-.43.09-.15,0-1.07.18h-.08l-.58.07-.55.05h-.12l-.9,0h-1.61l-.48,0c-.5,0-.9-.07-1.29-.12l-.13,0-.12,0c-.35,0-.74-.12-1.13-.19l-.39-.08c-.51-.11-.93-.22-1.33-.33s-.83-.25-1.32-.43l-.32-.12-.65-.27-.1,0L154,70l-.22-.09c-.36-.17-.73-.35-1.16-.58l-.43-.24-.66-.39-.12-.07-.5-.32-.68-.47,0,0-.13-.1-.52-.4-.48-.39c-.3-.26-.6-.52-.88-.78l-.13-.12-.27-.26-.52-.54-.16-.18-.11-.11,0,0-.09-.12,0-.05a20.84,20.84,0,0,1-5-16.78l0-.23c0-.32.11-.64.18-1l.07-.32c.1-.43.2-.83.31-1.21s.28-.92.48-1.46l0-.1c.05-.15.11-.31.17-.46l0-.11c.13-.31.24-.57.36-.82l.13-.27,0-.07.28-.56.16-.3.07-.13.26-.47.19-.31.07-.11.26-.42.22-.33,0-.06.3-.43.28-.37.32-.42.3-.36.33-.39.31-.34.37-.39.32-.32.37-.36.34-.31.39-.34.35-.3.42-.33.35-.27.43-.31.06,0,.29-.2.44-.29.1-.07.27-.17.45-.26.15-.08.24-.14.8-.42.13-.06.81-.38.26-.11.05,0,.6-.24.29-.11.07,0,.55-.19.31-.1.08,0,.54-.16.33-.09.08,0,.53-.13.37-.08h.05l.54-.11.44-.07.54-.08.43-.05.56-.05.44,0,.55,0h1.43l.59,0,.43,0,.54.05.14,0,.32,0,.58.09.14,0,.31.05.68.14H167l.25.05,1,.27,1,.31.26.1.12,0,.58.22.27.11.2.09.46.2.34.16.07,0,.5.24.38.2.51.28.36.21.06,0,.44.28.38.25.44.3.38.28.41.31.37.3.4.34.34.3.37.35.33.32.36.37.05.06.26.28.35.4.05.06.24.28.3.37.09.11.22.28.3.42.08.11.18.26c.14.2.27.4.39.6l.26.43c.12.2.24.4.35.61l.14.27.11.2.2.38.15.31.08.17.19.41.15.35.06.15.16.4.15.4.18.51.14.45.14.46.12.46c0,.18.09.34.13.51s.07.31.1.46.07.32.1.49.06.32.08.48.05.33.07.49,0,.32.06.48,0,.31,0,.47,0,.34,0,.5,0,.37,0,.55,0,.31,0,.45,0,.33,0,.49v.14c0,.12,0,.24,0,.36s0,.32,0,.47v.2c0,.12,0,.22,0,.32s0,.36-.05.53l0,.18c0,.1,0,.19,0,.28,0,.29-.08.57-.13.88v0s0,.08,0,.12-.06.32-.1.48l0,.1C182.84,55.81,182.72,56.28,182.59,56.74Z"/></g><path class="cls-3" d="M250.33,203.87l-8.43-2.42a41.23,41.23,0,0,0-1.07-9.46l7.67-4.25a1.49,1.49,0,0,0,.58-2l-9.56-17.28a1.49,1.49,0,0,0-2-.58l-7.68,4.25a41.14,41.14,0,0,0-7.44-5.93l2.42-8.43a1.49,1.49,0,0,0-1-1.85l-19-5.46a1.49,1.49,0,0,0-1.85,1l-2.42,8.43a41.14,41.14,0,0,0-9.46,1.07l-4.25-7.68a1.49,1.49,0,0,0-2-.58l-17.27,9.56a1.49,1.49,0,0,0-.58,2l4.25,7.68a41.16,41.16,0,0,0-5.93,7.44L156.82,177a1.49,1.49,0,0,0-1.85,1l-5.46,19a1.49,1.49,0,0,0,1,1.85l8.43,2.42a41.1,41.1,0,0,0,1.07,9.46L152.37,215a1.49,1.49,0,0,0-.58,2l9.56,17.27a1.49,1.49,0,0,0,2,.58l7.68-4.25a41.18,41.18,0,0,0,7.44,5.93L176.07,245a1.49,1.49,0,0,0,1,1.85l19,5.46a1.49,1.49,0,0,0,1.85-1l2.42-8.43a41.22,41.22,0,0,0,9.46-1.08l4.25,7.68a1.49,1.49,0,0,0,2,.58l17.27-9.56a1.49,1.49,0,0,0,.58-2l-4.25-7.68a41.19,41.19,0,0,0,5.93-7.44l8.43,2.42a1.49,1.49,0,0,0,1.85-1l5.46-19A1.49,1.49,0,0,0,250.33,203.87Zm-29.85,3.25c-.11.37-.23.76-.38,1.19l-.1.28,0,.08c-.11.29-.22.57-.33.83l-.15.34c-.14.31-.28.61-.43.91L219,211c-.18.36-.39.72-.6,1.08l-.11.18,0,0c-.16.27-.34.55-.54.83l-.18.26c-.19.28-.39.54-.58.79l-.15.19a21.09,21.09,0,0,1-1.65,1.83l-.12.12c-.26.25-.51.49-.79.73l-.17.15a20.85,20.85,0,0,1-3,2.17l-.11.06a20.79,20.79,0,0,1-3.4,1.59l-.42.15-.84.26-.1,0-.35.1-.42.11-.08,0-.26.06-.43.09-.15,0-1.07.18h-.08l-.58.07-.55.05H202l-.9,0h-1.61l-.48,0c-.5,0-.9-.07-1.29-.12l-.13,0-.12,0c-.35,0-.74-.12-1.13-.19l-.39-.08c-.51-.11-.93-.22-1.33-.33s-.83-.25-1.32-.43l-.32-.12-.65-.27-.1,0-.34-.14-.22-.09c-.36-.17-.73-.35-1.16-.58l-.43-.24-.66-.39-.12-.07-.5-.32-.68-.47,0,0-.13-.1-.52-.4-.48-.39c-.3-.26-.6-.52-.88-.78l-.13-.12-.27-.26-.52-.54-.16-.18-.11-.11,0,0-.09-.12,0-.05a20.84,20.84,0,0,1-5-16.78l0-.23c0-.32.11-.64.18-1l.07-.32c.1-.43.2-.83.31-1.21s.28-.92.48-1.46l0-.1c.05-.15.11-.31.17-.46l0-.11c.13-.31.24-.57.36-.82l.13-.27,0-.07.28-.56.16-.3.07-.13.26-.47.19-.31.07-.11.26-.42.22-.33,0-.06.3-.43.28-.37.32-.42.3-.36.33-.39.31-.34.37-.39.32-.32.37-.36.34-.31.39-.34.35-.3.42-.33.35-.27.43-.31.06,0,.29-.2.44-.29.1-.07.27-.17.45-.27.15-.08.24-.14.8-.42.13-.06.81-.38.26-.11.05,0,.6-.24.29-.11.07,0,.55-.19.31-.1.08,0,.54-.16.33-.09.08,0,.53-.13.37-.08h.05l.54-.11.44-.07.54-.08.43-.05.56-.05.44,0,.55,0h1.43l.59,0,.43,0,.54.05.14,0,.32,0,.58.09.14,0,.31.05.68.14h.07l.25.05,1,.27,1,.31.26.1.12,0,.58.22.27.11.2.09.46.2.34.16.07,0,.5.24.38.2.51.28.36.21.06,0,.44.28.38.25.44.3.38.28.41.31.37.3.4.34.34.3.37.35.33.32.36.37.05.06.26.28.35.4.05.06.24.28.3.37.09.11.22.28.3.42.08.11.18.26c.14.2.27.4.39.6l.26.43c.12.2.24.4.35.61l.14.27.11.2.2.38.15.31.08.17.19.41.15.35.06.15.16.4.15.4.18.51.14.45.14.46.12.46c0,.18.09.34.13.51s.07.31.1.46.07.32.1.49.06.32.08.48.05.33.07.49,0,.32.06.49,0,.31,0,.47,0,.34,0,.5,0,.37,0,.55,0,.31,0,.45,0,.33,0,.49v.14c0,.12,0,.24,0,.36s0,.32,0,.47v.2c0,.12,0,.22,0,.32s0,.36-.05.53l0,.18c0,.1,0,.19,0,.28,0,.29-.08.57-.13.88v0s0,.08,0,.12-.06.32-.1.48l0,.1C220.73,206.19,220.61,206.66,220.48,207.12Z"/><path class="cls-3" d="M100.87,160.91l-8.43-2.42A41.23,41.23,0,0,0,91.37,149L99,144.78a1.49,1.49,0,0,0,.58-2l-9.56-17.28a1.49,1.49,0,0,0-2-.58l-7.68,4.25a41.16,41.16,0,0,0-7.44-5.93l2.42-8.43a1.49,1.49,0,0,0-1-1.85l-19-5.46a1.49,1.49,0,0,0-1.85,1l-2.42,8.43A41.15,41.15,0,0,0,41.61,118l-4.25-7.68a1.49,1.49,0,0,0-2-.58L18.06,119.3a1.49,1.49,0,0,0-.58,2L21.72,129a41.16,41.16,0,0,0-5.93,7.44L7.36,134a1.49,1.49,0,0,0-1.85,1L.06,154a1.49,1.49,0,0,0,1,1.85l8.43,2.42a41.1,41.1,0,0,0,1.07,9.46L2.91,172a1.49,1.49,0,0,0-.58,2l9.56,17.27a1.49,1.49,0,0,0,2,.58l7.68-4.25A41.18,41.18,0,0,0,29,193.58L26.61,202a1.49,1.49,0,0,0,1,1.85l19,5.46a1.49,1.49,0,0,0,1.85-1l2.42-8.43a41.22,41.22,0,0,0,9.46-1.08l4.25,7.68a1.49,1.49,0,0,0,2,.58l17.27-9.56a1.49,1.49,0,0,0,.58-2l-4.25-7.68a41.19,41.19,0,0,0,5.93-7.44l8.43,2.42a1.49,1.49,0,0,0,1.85-1l5.46-19A1.49,1.49,0,0,0,100.87,160.91ZM71,164.16c-.11.37-.23.76-.38,1.19l-.1.28,0,.08c-.11.29-.22.57-.33.83l-.15.34c-.14.31-.28.61-.43.91l-.11.21c-.18.36-.39.72-.6,1.08l-.11.18,0,0c-.16.27-.34.55-.54.83l-.18.26c-.19.28-.39.54-.58.79l-.15.19a21.09,21.09,0,0,1-1.65,1.83l-.12.12c-.26.25-.51.49-.79.73l-.17.15a20.85,20.85,0,0,1-3,2.17l-.11.06A20.79,20.79,0,0,1,58,178l-.42.15-.84.26-.1,0-.35.1-.42.11-.08,0-.26.06-.43.09-.15,0-1.07.18h-.08l-.58.07-.55.05h-.12l-.9,0H50.07l-.48,0c-.5,0-.9-.07-1.29-.12l-.13,0-.12,0c-.35,0-.74-.12-1.13-.19l-.39-.08c-.51-.11-.93-.22-1.33-.33s-.83-.25-1.32-.43l-.32-.12-.65-.27-.1,0-.34-.14-.22-.09c-.36-.17-.73-.35-1.16-.58l-.43-.24-.66-.39-.12-.07-.5-.32-.68-.47,0,0-.13-.1-.52-.4-.48-.39c-.3-.26-.6-.52-.88-.78l-.13-.12-.27-.26-.52-.54-.16-.18-.11-.11,0,0-.09-.12,0-.05a20.84,20.84,0,0,1-5-16.78l0-.23c0-.32.11-.64.18-1l.07-.32c.1-.43.2-.83.31-1.21s.28-.92.48-1.46l0-.1c.05-.15.11-.31.17-.46l0-.11c.13-.31.24-.57.36-.82l.13-.27,0-.07.28-.56.16-.3.07-.13.26-.47.19-.31.07-.11.26-.42.22-.33,0-.06.3-.43.28-.37.32-.42.3-.36.33-.39.31-.34.37-.39.32-.32.37-.36.34-.31.39-.34.35-.3.42-.33.35-.27.43-.31.06,0,.29-.2.44-.29.1-.07.27-.17.45-.27.15-.08.24-.14.8-.42.13-.06.81-.38.26-.11.05,0,.6-.24.29-.11.07,0,.55-.19.31-.1.08,0,.54-.16.33-.09.08,0,.53-.13.37-.08h.05l.54-.11.44-.07.54-.08.43-.05.56-.05.44,0,.55,0H51.7l.59,0,.43,0,.54.05.14,0,.32,0,.58.09.14,0,.31.05.68.14h.07l.25.05,1,.27,1,.31.26.1.12,0,.58.22.27.11.2.09.46.2.34.16.07,0,.5.24.38.2.51.28.36.21.06,0,.44.28.38.25.44.3.38.28.41.31.37.3.4.34.34.3.37.35.33.32.36.37.05.06.26.28.35.4.05.06.24.28.3.37.09.11.22.28.3.42.08.11.18.26c.14.2.27.4.39.6l.26.43c.12.2.24.4.35.61l.14.27.11.2.2.38.15.31.08.17.19.41.15.35.06.15.16.4.15.4.18.51.14.45.14.46.12.46c0,.18.09.34.13.51s.07.31.1.46.07.32.1.49.06.32.08.48.05.33.07.49,0,.32.06.49,0,.31,0,.47,0,.34,0,.5,0,.37,0,.55,0,.31,0,.45,0,.33,0,.49v.14c0,.12,0,.24,0,.36s0,.32,0,.47v.2c0,.12,0,.22,0,.32s0,.36-.05.53l0,.18c0,.1,0,.19,0,.28,0,.29-.08.57-.13.88v0l0,.12c0,.16-.06.32-.1.48l0,.1C71.27,163.23,71.16,163.7,71,164.16Z"/></g></g></g></svg>