<svg xmlns="http://www.w3.org/2000/svg" viewBox="0 0 146.04 144.9"><defs><style>.cls-1{fill:#556270;}</style></defs><title>hands</title><g id="Calque_2" data-name="Calque 2"><g id="BODY"><g id="_1" data-name="1"><path class="cls-1" d="M142.48,92.91H141V86.62c5.67-5.74,5-16,4.92-17.27V58.62a6.27,6.27,0,0,0-6.26-6.26h-.24a6.22,6.22,0,0,0-3,.77,6.25,6.25,0,0,0-4.9-2.37h-.24a6.27,6.27,0,0,0-2.94.73,6.25,6.25,0,0,0-4.79-2.23h-.24a6.26,6.26,0,0,0-2.48.51A6.26,6.26,0,0,0,115.63,47h-.24a6.27,6.27,0,0,0-6.26,6.26v6a7.61,7.61,0,0,0-6,1.45c-3.22,2.7-2.9,8-2.58,13.22.43,7.06,6.72,13,9.15,15v4h-1.21a2.3,2.3,0,0,0-2.3,2.3V142.6a2.3,2.3,0,0,0,2.3,2.3h34a2.3,2.3,0,0,0,2.3-2.3V95.21A2.3,2.3,0,0,0,142.48,92.91Zm-37.3-19.26c-.22-3.65-.5-8.2.94-9.41a4,4,0,0,1,3-.34V67a2.3,2.3,0,0,0,4.61,0V53.22a1.65,1.65,0,0,1,1.65-1.65h.24a1.65,1.65,0,0,1,1.65,1.65v8.89a2.3,2.3,0,1,0,4.61,0V54.74a1.65,1.65,0,0,1,1.45-.87h.24a1.65,1.65,0,0,1,1.65,1.65v6.59a2.3,2.3,0,1,0,4.61,0V56.28a1.64,1.64,0,0,1,1.47-.9h.24A1.65,1.65,0,0,1,133.2,57v6.21a2.3,2.3,0,1,0,4.61,0V58.62A1.65,1.65,0,0,1,139.46,57h.24a1.65,1.65,0,0,1,1.65,1.65V69.44c0,.07,0,.15,0,.22.27,2.75,0,10.67-4.11,14.19a2.3,2.3,0,0,0-.82,1.76v7.3h-22.1V87.84a2.31,2.31,0,0,0-.93-1.85C113.33,85.93,105.57,80.07,105.18,73.65Zm35,66.65H110.83V109.37h29.35Zm0-35.53H110.83V97.52h29.35Z"/><path class="cls-1" d="M97.87,37.47l10.54,4.45a6.07,6.07,0,0,0,8-3.23l1.28-3a6.07,6.07,0,0,0-3.23-8L101.9,22.45l.58-2.09,0-.08a6.26,6.26,0,0,0-4.64-7.54l-.24-.06a6.21,6.21,0,0,0-3.11.06A6.25,6.25,0,0,0,90.3,9.3l-.23-.06a6.27,6.27,0,0,0-3,0q-.12-.24-.26-.47A6.22,6.22,0,0,0,82.89,6l-.24-.06a6.23,6.23,0,0,0-2.53-.08,6.33,6.33,0,0,0-.56-1.14,6.22,6.22,0,0,0-3.89-2.81l-.23-.05a6.26,6.26,0,0,0-7.53,4.61L67.51,8,51.29,1.17h0l-.13,0-.09,0-.11,0-.12,0h-.09l-.14,0h0L35.12,0A2.3,2.3,0,0,0,33.36,4L44.21,14.54h0l0,0,.14.12.07.05.08.06h0l.12.07a6.12,6.12,0,0,0,.92.49l9.87,4.17a47.93,47.93,0,0,0-1.57,7c-1.26,7.22,3.89,14.71,5.63,17V54H57.61a2.3,2.3,0,0,0-2.3,2.3V142.6a2.3,2.3,0,0,0,2.3,2.3h34a2.3,2.3,0,0,0,2.3-2.3V84.94a2.3,2.3,0,1,0-4.61,0v55.35H59.91V70.44H89.26v6.4a2.3,2.3,0,1,0,4.61,0V56.29a2.3,2.3,0,0,0-2.3-2.3h-1l0-6C94.51,45.45,96.7,41,97.87,37.47Zm12.23-6.58L112.63,32a1.46,1.46,0,0,1,.78,1.91l-1.28,3a1.46,1.46,0,0,1-1.92.78l-2.69-1.14Zm-11,1.7,1.57-5.66,5.18,2.18-2.58,5.65L99,33ZM45.13,9,41,5l5.83.38Zm3.78,2.78,2.62-5.52L66.3,12.48l-1.61,6Zm40.35,54H59.91V58.59H89.26v7.24Zm-2-21.18a2.3,2.3,0,0,0-1.26,2l0,7H64.13v-11a2.31,2.31,0,0,0-.54-1.48c-.06-.08-6.26-7.57-5.16-13.91a48.64,48.64,0,0,1,1.29-6l4.17,1.76a2.3,2.3,0,0,0,4.38-.2L72.38,7.64l0-.07a1.65,1.65,0,0,1,2-1.22l.23.05a1.65,1.65,0,0,1,1.22,2l-.23,1-2.71,9.4a2.3,2.3,0,1,0,4.43,1.28L79.95,11a1.64,1.64,0,0,1,1.64-.54l.24.06a1.65,1.65,0,0,1,1.23,2L80.64,20.6a2.3,2.3,0,1,0,4.42,1.31l2.23-7.55A1.64,1.64,0,0,1,89,13.73l.23.06a1.65,1.65,0,0,1,1.23,2l-.35,1.47-2,6.26a2.3,2.3,0,1,0,4.4,1.38l2-6.34,0-.08,0-.07a1.65,1.65,0,0,1,2-1.23l.24.06a1.65,1.65,0,0,1,1.23,2L94.62,31.5a2.29,2.29,0,0,0-.06.3C94.55,31.89,93.1,41.7,87.28,44.65Z"/><path class="cls-1" d="M45.57,82V71.33a6.27,6.27,0,0,0-6.26-6.26h-.24a6.22,6.22,0,0,0-3,.77,6.25,6.25,0,0,0-4.9-2.37h-.24a6.27,6.27,0,0,0-2.94.73A6.25,6.25,0,0,0,23.19,62h-.24a6.26,6.26,0,0,0-2.48.51,6.26,6.26,0,0,0-5.23-2.82H15a6.27,6.27,0,0,0-6.26,6.26v6a7.6,7.6,0,0,0-6,1.45c-3.22,2.7-2.9,8-2.58,13.22.43,7.06,6.72,13,9.15,15v4H8.13a2.3,2.3,0,0,0-2.3,2.3V142.6a2.3,2.3,0,0,0,2.3,2.3h34a2.3,2.3,0,0,0,2.3-2.3V107.92a2.3,2.3,0,0,0-2.3-2.3H40.65V99.32C46.32,93.58,45.68,83.35,45.57,82Zm-5.79,58.24H10.43V122.07H39.78Zm0-22.83H10.43v-7.24H39.78ZM36.86,96.56A2.3,2.3,0,0,0,36,98.32v7.3H13.95v-5.07A2.3,2.3,0,0,0,13,98.7c-2.18-1.62-7.9-7-8.23-12.34-.22-3.65-.5-8.2.94-9.41a4,4,0,0,1,3-.34v3.13a2.3,2.3,0,0,0,4.61,0V65.92A1.65,1.65,0,0,1,15,64.27h.24a1.65,1.65,0,0,1,1.65,1.65v8.89a2.3,2.3,0,0,0,4.61,0V67.45a1.65,1.65,0,0,1,1.45-.87h.24a1.65,1.65,0,0,1,1.65,1.65v6.59a2.3,2.3,0,0,0,4.61,0V69a1.64,1.64,0,0,1,1.47-.9h.24a1.65,1.65,0,0,1,1.65,1.65V76a2.3,2.3,0,1,0,4.61,0V71.33a1.65,1.65,0,0,1,1.65-1.65h.24A1.65,1.65,0,0,1,41,71.33V82.15c0,.07,0,.15,0,.22C41.24,85.12,41,93,36.86,96.56Z"/></g></g></g></svg>