<svg xmlns="http://www.w3.org/2000/svg" viewBox="0 0 42.43 47.48"><defs><style>.cls-1{fill:#f70;}</style></defs><title>import</title><g id="Calque_2" data-name="Calque 2"><g id="BODY"><g id="_1" data-name="1"><path class="cls-1" d="M19.16,33a1.19,1.19,0,0,0,1.94-.92V24c7.56,0,12.78.57,19.11,11.74a1.18,1.18,0,0,0,1,.6,1.07,1.07,0,0,0,.3,0,1.18,1.18,0,0,0,.88-1.14v-.94c0-7.9.14-24.17-21.33-24.95V1.19A1.19,1.19,0,0,0,19.16.27L.44,15.72a1.19,1.19,0,0,0-.44.91,1.17,1.17,0,0,0,.43.91ZM18.72,3.71v6.76a1.19,1.19,0,0,0,1.17,1.19c8.92.09,14.71,2.81,17.69,8.34,1.88,3.47,2.34,7.57,2.44,11-6.09-8.85-11.82-9.34-20.12-9.35h0a1.2,1.2,0,0,0-.84.35,1.19,1.19,0,0,0-.35.84v6.75l-15.66-13Z"/><path class="cls-1" d="M42.43,46.3V41.09a1.19,1.19,0,0,0-2.38,0v4H2.62V24.4a1.19,1.19,0,1,0-2.38,0V46.29a1.19,1.19,0,0,0,1.19,1.19H41.24A1.19,1.19,0,0,0,42.43,46.3Z"/></g></g></g></svg>