<?xml version="1.0" encoding="utf-8"?>
<!-- Generator: Adobe Illustrator 24.0.2, SVG Export Plug-In . SVG Version: 6.00 Build 0)  -->
<svg version="1.1" id="Calque_1" xmlns="http://www.w3.org/2000/svg" xmlns:xlink="http://www.w3.org/1999/xlink" x="0px" y="0px"
	 viewBox="0 0 318 241" style="enable-background:new 0 0 318 241;" xml:space="preserve">
<style type="text/css">
	.st0{opacity:0.1;fill:#53A6F9;enable-background:new    ;}
	.st1{fill:#E8E9ED;}
	.st2{opacity:0.5;fill:#3ACC6C;enable-background:new    ;}
	.st3{opacity:0.5;fill:#53A6F9;enable-background:new    ;}
	.st4{opacity:0.8;fill:#3ACC6C;enable-background:new    ;}
	.st5{opacity:0.8;fill:#53A6F9;enable-background:new    ;}
	.st6{fill:#53A6F9;}
	.st7{fill:#F3F5F7;}
	.st8{opacity:0.1;enable-background:new    ;}
	.st9{fill:none;stroke:#535461;stroke-width:2;stroke-miterlimit:10;}
	.st10{opacity:0.25;enable-background:new    ;}
	.st11{opacity:0.8;}
	.st12{opacity:0.5;}
	.st13{fill:#FFFFFF;}
	.st14{fill:#FFD037;}
	.st15{fill:#65617D;}
	.st16{fill:#9D9CB5;}
	.st17{fill:url(#SVGID_1_);}
	.st18{fill:url(#SVGID_2_);}
	.st19{fill:url(#SVGID_3_);}
	.st20{opacity:0.1;}
	.st21{fill:url(#SVGID_4_);}
	.st22{fill:url(#SVGID_5_);}
	.st23{fill:url(#SVGID_6_);}
	.st24{fill:url(#SVGID_7_);}
	.st25{fill:url(#SVGID_8_);}
	.st26{fill:url(#SVGID_9_);}
	.st27{fill:url(#SVGID_10_);}
	.st28{fill:url(#SVGID_11_);}
	.st29{fill:url(#SVGID_12_);}
	.st30{fill:url(#SVGID_13_);}
	.st31{fill:url(#SVGID_14_);}
	.st32{fill:url(#SVGID_15_);}
	.st33{fill:url(#SVGID_16_);}
	.st34{fill:url(#SVGID_17_);}
	.st35{fill:url(#SVGID_18_);}
	.st36{fill:url(#SVGID_19_);}
	.st37{fill:url(#SVGID_20_);}
	.st38{fill:url(#SVGID_21_);}
	.st39{fill:url(#SVGID_22_);}
	.st40{fill:url(#SVGID_23_);}
	.st41{fill:url(#SVGID_24_);}
	.st42{fill:url(#SVGID_25_);}
	.st43{fill:url(#SVGID_26_);}
	.st44{fill:url(#SVGID_27_);}
	.st45{fill:url(#SVGID_28_);}
	.st46{fill:url(#SVGID_29_);}
	.st47{fill:url(#SVGID_30_);}
	.st48{fill:url(#SVGID_31_);}
	.st49{fill:url(#SVGID_32_);}
	.st50{fill:url(#SVGID_33_);}
	.st51{fill:url(#SVGID_34_);}
	.st52{fill:url(#SVGID_35_);}
	.st53{fill:#EFB7B9;}
	.st54{fill:#444053;}
	.st55{fill:#E3787D;}
	.st56{font-family:'MyriadPro-Regular';}
	.st57{font-size:3.4687px;}
</style>
<g>
	<path class="st0" d="M179.6,36.3c-18.7-0.6-36.5-6.7-53.5-13.3S92.2,9,74,5.5C62.2,3.3,48.8,3,39.3,9.3
		c-9.1,6.1-12.1,16.5-13.6,26.2c-1.2,7.3-1.9,15,1.4,21.8c2.3,4.7,6.3,8.7,9.1,13.3c9.7,15.8,2.8,35.3-7.6,50.8
		c-4.9,7.2-10.6,14.2-14.4,21.9c-3.8,7.7-5.5,16.5-2.2,24.4c3.3,7.8,11.1,13.7,19.6,17.8c17.3,8.4,37.6,10.8,57.4,12.1
		c43.9,3,88,1.7,132,0.4c16.3-0.5,32.6-1,48.7-3.5c8.9-1.4,18.1-3.6,24.5-9c8.2-6.8,10.2-18.3,4.7-26.8
		c-9.2-14.3-34.7-17.9-41.1-33.2c-3.5-8.5,0.1-17.9,5.2-25.7c11.1-16.8,29.6-31.6,30.6-50.8c0.7-13.2-8.2-26.4-22-32.7
		c-14.4-6.5-34.4-5.7-45.1,5.1C215.4,32.6,196.1,36.8,179.6,36.3z"/>
	<rect x="4.5" y="39.8" class="st1" width="75" height="75"/>
	<rect x="236.5" y="39.8" class="st1" width="75" height="75"/>
	<path class="st2" d="M46.5,13.3l-0.7-0.8c0,0-0.1-0.1-0.1-0.1c0,0-0.1,0-0.1,0.1l-5.2,5.2l-1.9-1.9c-0.1-0.1-0.2-0.1-0.2,0
		c0,0,0,0,0,0l-0.8,0.8c-0.1,0.1-0.1,0.2,0,0.2c0,0,0,0,0,0l2.4,2.4c0.1,0.1,0.3,0.2,0.5,0.2c0.2,0,0.4-0.1,0.5-0.2l0,0l5.7-5.7
		C46.6,13.5,46.6,13.4,46.5,13.3L46.5,13.3z"/>
	<path class="st3" d="M42,8.4c4.2,0,7.6,3.4,7.6,7.6c0,4.2-3.4,7.6-7.6,7.6c-4.2,0-7.6-3.4-7.6-7.6c0-2,0.8-4,2.2-5.4
		C38,9.2,40,8.4,42,8.4 M42,7.2c-4.9,0-8.8,4-8.8,8.8s4,8.8,8.8,8.8s8.8-4,8.8-8.8c0,0,0,0,0,0C50.8,11.1,46.9,7.2,42,7.2
		C42,7.2,42,7.2,42,7.2z"/>
	<path class="st4" d="M104.5,38l-0.9-1c0,0-0.1-0.1-0.1-0.1c-0.1,0-0.1,0-0.2,0.1l-6.5,6.6l-2.4-2.4c0,0-0.1-0.1-0.1-0.1
		c-0.1,0-0.1,0-0.2,0.1l-1,1c-0.1,0.1-0.1,0.2,0,0.3c0,0,0,0,0,0l3,3c0.2,0.2,0.4,0.3,0.6,0.3c0.2,0,0.5-0.1,0.6-0.3l0,0l7.1-7.2
		C104.5,38.2,104.5,38.1,104.5,38L104.5,38z"/>
	<path class="st5" d="M98.8,31.8c5.3,0,9.6,4.3,9.6,9.6s-4.3,9.6-9.6,9.6c-5.3,0-9.6-4.3-9.6-9.6c0-2.5,1-5,2.8-6.8
		C93.8,32.8,96.2,31.7,98.8,31.8 M98.8,30.3c-6.1,0-11.1,5-11.1,11.1c0,6.1,5,11.1,11.1,11.1s11.1-5,11.1-11.1l0,0
		C109.9,35.2,104.9,30.3,98.8,30.3C98.8,30.3,98.8,30.3,98.8,30.3z"/>
	<path class="st3" d="M274,8.4c4.2,0,7.6,3.4,7.6,7.6c0,4.2-3.4,7.6-7.6,7.6c-4.2,0-7.6-3.4-7.6-7.6c0-2,0.8-4,2.2-5.4
		C270,9.2,271.9,8.4,274,8.4 M274,7.2c-4.9,0-8.8,4-8.8,8.8s4,8.8,8.8,8.8c4.9,0,8.8-4,8.8-8.8c0,0,0,0,0,0
		C282.8,11.1,278.8,7.2,274,7.2C274,7.2,274,7.2,274,7.2z"/>
	<path class="st5" d="M216.8,31.8c5.3,0,9.6,4.3,9.6,9.6s-4.3,9.6-9.6,9.6c-5.3,0-9.6-4.3-9.6-9.6c0-2.6,1-5,2.8-6.8
		C211.8,32.8,214.3,31.7,216.8,31.8 M216.8,30.3c-6.1,0-11.1,5-11.1,11.1c0,6.1,5,11.1,11.1,11.1s11.1-5,11.1-11.1l0,0
		C227.9,35.2,222.9,30.3,216.8,30.3C216.8,30.3,216.8,30.3,216.8,30.3L216.8,30.3z"/>
	<path class="st6" d="M157.5,49.4c7,0,12.7,5.7,12.7,12.7s-5.7,12.7-12.7,12.7c-7,0-12.7-5.7-12.7-12.7c0-3.4,1.3-6.6,3.7-9
		C150.9,50.7,154.1,49.4,157.5,49.4 M157.5,47.4c-8.1,0-14.7,6.6-14.7,14.7s6.6,14.7,14.7,14.7c8.1,0,14.7-6.6,14.7-14.7l0,0
		C172.2,54,165.6,47.4,157.5,47.4C157.5,47.4,157.5,47.4,157.5,47.4z"/>
	<rect x="57" y="59.4" class="st7" width="83.6" height="83.6"/>
	<rect x="175" y="59.4" class="st7" width="83.6" height="83.6"/>
	<rect x="12" y="53.1" class="st8" width="27.9" height="3.1"/>
	<rect x="250" y="53.1" class="st8" width="27.9" height="3.1"/>
	<path class="st9" d="M207.2,182.8c0,0,7.2-12.8,18.2-16.5c4.6-1.5,8.6-4.5,11.3-8.5c1.3-1.9,2.4-3.9,3.3-6"/>
	<path class="st6" d="M246.8,149.5c-1.2,1.2-7,2.5-7,2.5s1.4-5.7,2.7-7c1.2-1.2,3.2-1.2,4.4,0.1
		C248.1,146.3,248.1,148.3,246.8,149.5L246.8,149.5z"/>
	<path class="st6" d="M243.6,159.9c-1.7,0.3-7.2-1.8-7.2-1.8s4.3-4,6-4.4c1.7-0.3,3.3,0.8,3.6,2.5
		C246.3,157.9,245.2,159.5,243.6,159.9L243.6,159.9z"/>
	<path class="st6" d="M231.6,171.1c-1.6-0.6-5.4-5.2-5.4-5.2s5.8-1.3,7.4-0.8c1.6,0.6,2.5,2.4,1.9,4
		C235.1,170.8,233.3,171.7,231.6,171.1z"/>
	<path class="st6" d="M220.7,177.6c-1.7-0.3-6.2-4.2-6.2-4.2s5.5-2.3,7.2-2c1.7,0.3,2.9,1.9,2.6,3.6
		C224.1,176.7,222.5,177.9,220.7,177.6C220.7,177.6,220.7,177.6,220.7,177.6z"/>
	<path class="st6" d="M231.5,153.6c0,1.7,3.1,6.8,3.1,6.8s3.1-5,3.1-6.8c0-1.7-1.4-3.1-3.1-3.1C232.9,150.5,231.5,151.9,231.5,153.6
		L231.5,153.6z"/>
	<path class="st6" d="M218.8,161.4c0.5,1.7,5,5.5,5,5.5s1.5-5.7,1-7.4c-0.5-1.7-2.3-2.6-3.9-2.1C219.2,158,218.3,159.7,218.8,161.4
		L218.8,161.4z"/>
	<path class="st6" d="M207.5,170.6c0.2,1.7,4,6.3,4,6.3s2.4-5.4,2.2-7.1c-0.2-1.7-1.8-2.9-3.5-2.7S207.3,168.9,207.5,170.6
		L207.5,170.6z"/>
	<path class="st10" d="M246.8,149.5c-1.2,1.2-7,2.5-7,2.5s1.4-5.7,2.7-7c1.2-1.2,3.2-1.2,4.4,0.1
		C248.1,146.3,248.1,148.3,246.8,149.5L246.8,149.5z"/>
	<path class="st10" d="M243.6,159.9c-1.7,0.3-7.2-1.8-7.2-1.8s4.3-4,6-4.4c1.7-0.3,3.3,0.8,3.6,2.5
		C246.3,157.9,245.2,159.5,243.6,159.9L243.6,159.9z"/>
	<path class="st10" d="M231.6,171.1c-1.6-0.6-5.4-5.2-5.4-5.2s5.8-1.3,7.4-0.8c1.6,0.6,2.5,2.4,1.9,4
		C235.1,170.8,233.3,171.7,231.6,171.1z"/>
	<path class="st10" d="M220.7,177.6c-1.7-0.3-6.2-4.2-6.2-4.2s5.5-2.3,7.2-2c1.7,0.3,2.9,1.9,2.6,3.6
		C224.1,176.7,222.5,177.9,220.7,177.6C220.7,177.6,220.7,177.6,220.7,177.6z"/>
	<path class="st10" d="M231.5,153.6c0,1.7,3.1,6.8,3.1,6.8s3.1-5,3.1-6.8c0-1.7-1.4-3.1-3.1-3.1
		C232.9,150.5,231.5,151.9,231.5,153.6L231.5,153.6z"/>
	<path class="st10" d="M218.8,161.4c0.5,1.7,5,5.5,5,5.5s1.5-5.7,1-7.4c-0.5-1.7-2.3-2.6-3.9-2.1C219.2,158,218.3,159.7,218.8,161.4
		L218.8,161.4z"/>
	<path class="st10" d="M207.5,170.6c0.2,1.7,4,6.3,4,6.3s2.4-5.4,2.2-7.1c-0.2-1.7-1.8-2.9-3.5-2.7S207.3,168.9,207.5,170.6
		L207.5,170.6z"/>
	<path class="st9" d="M207.6,182.6c0,0,1.4-14.7,9.9-22.5c3.6-3.3,6-7.6,6.9-12.3c0.4-2.3,0.6-4.5,0.6-6.8"/>
	<path class="st6" d="M230.3,136c-0.6,1.6-5.4,5.1-5.4,5.1s-1-5.8-0.4-7.4c0.6-1.6,2.5-2.4,4.1-1.7C230.2,132.6,231,134.4,230.3,136
		L230.3,136L230.3,136z"/>
	<path class="st6" d="M231.5,146.8c-1.4,1-7.3,1.3-7.3,1.3s2.3-5.5,3.7-6.5c1.4-1,3.4-0.6,4.3,0.9
		C233.2,144,232.9,145.8,231.5,146.8z"/>
	<path class="st6" d="M225.2,162c-1.7,0.1-7-2.6-7-2.6s4.7-3.5,6.5-3.7c1.7-0.2,3.3,1.1,3.4,2.8c0.2,1.7-1.1,3.3-2.8,3.4
		C225.3,162,225.2,162,225.2,162z"/>
	<path class="st6" d="M217.8,172.3c-1.7,0.4-7.3-1.3-7.3-1.3s4.1-4.3,5.8-4.7c1.7-0.4,3.4,0.6,3.8,2.3
		C220.4,170.2,219.5,171.9,217.8,172.3L217.8,172.3z"/>
	<path class="st6" d="M218,146c0.7,1.6,5.6,4.9,5.6,4.9s0.8-5.9,0.1-7.4c-0.7-1.6-2.6-2.3-4.1-1.6C218,142.6,217.3,144.4,218,146
		L218,146z"/>
	<path class="st6" d="M209.5,158.2c1.2,1.3,6.8,3,6.8,3s-1-5.8-2.1-7.1c-1.1-1.3-3.1-1.4-4.4-0.3S208.4,156.9,209.5,158.2
		L209.5,158.2L209.5,158.2z"/>
	<path class="st6" d="M202.9,171.3c0.9,1.5,6.2,4.1,6.2,4.1s0-5.9-0.9-7.4c-0.9-1.5-2.8-1.9-4.3-1
		C202.5,167.8,202,169.8,202.9,171.3L202.9,171.3z"/>
	<rect x="67.7" y="77.3" class="st8" width="27.9" height="3.1"/>
	<rect x="119.1" y="104.5" class="st8" width="16.6" height="3.1"/>
	<rect x="119.1" y="125.3" class="st8" width="24.7" height="3.1"/>
	<rect x="67.7" y="88.2" class="st8" width="27.9" height="3.1"/>
	<rect x="193.2" y="77.3" class="st8" width="27.9" height="3.1"/>
	<rect x="193.2" y="88.2" class="st8" width="27.9" height="3.1"/>
	<path class="st6" d="M153.5,66.4l0.8-1c0.8,0.7,1.8,1.2,2.8,1.2c1.3,0,2.3-0.6,2.3-1.7c0-1.1-0.9-1.9-3.5-1.9v-1.2
		c2.3,0,3.2-0.8,3.2-1.8c0-0.9-0.8-1.5-1.9-1.5c-0.9,0-1.8,0.4-2.4,1l-0.8-1c0.9-0.8,2.1-1.3,3.3-1.3c2,0,3.5,1,3.5,2.6
		c0,1.2-0.9,2-2.1,2.4v0.1c1.3,0.3,2.5,1.2,2.5,2.6c0,1.8-1.7,2.9-3.8,2.9C155.5,67.8,154.3,67.2,153.5,66.4z"/>
	<g class="st11">
		<path class="st6" d="M217.7,39.8c0-0.6,0-1.3,0.1-1.8h-0.1c-0.3,0.5-0.7,1-1,1.5l-2.3,3h6.1v1.2h-7.7v-1l4.6-6.1h1.7v9.7h-1.4
			V39.8z"/>
	</g>
	<g class="st12">
		<path class="st6" d="M271,19.1l0.5-0.7c0.5,0.5,1.2,0.8,1.9,0.8c0.9,0,1.7-0.6,1.7-1.5c0-0.9-0.6-1.4-1.6-1.4
			c-0.5,0-1,0.1-1.4,0.4l-0.5-0.3l0.2-3.4h4v0.9h-3.1l-0.2,1.9c0.4-0.2,0.8-0.3,1.2-0.3c1.3,0,2.4,0.7,2.4,2.2
			c0,1.5-1.3,2.4-2.6,2.4C272.6,20.1,271.6,19.7,271,19.1z"/>
	</g>
	<rect x="104.8" y="86" class="st0" width="103.3" height="103.3"/>
	<rect x="108.3" y="81.1" class="st13" width="103.3" height="103.3"/>
	<rect x="119.1" y="92.5" class="st3" width="81.7" height="3.1"/>
	<rect x="119.1" y="114.9" class="st8" width="52" height="3.1"/>
	<rect x="119.1" y="135.7" class="st8" width="50.5" height="3.1"/>
	<rect x="119.1" y="146.1" class="st8" width="68.8" height="3.1"/>
	<path class="st2" d="M185.9,115.2l-0.4-0.4c0,0,0,0-0.1,0c0,0,0,0-0.1,0l-2.5,2.5l-0.9-0.9c0,0,0,0-0.1,0c0,0,0,0-0.1,0l-0.4,0.4
		c0,0,0,0.1,0,0.1c0,0,0,0,0,0l1.1,1.1c0.1,0.1,0.1,0.1,0.2,0.1c0.1,0,0.2,0,0.2-0.1l0,0l2.7-2.7
		C185.9,115.3,185.9,115.2,185.9,115.2L185.9,115.2z"/>
	<path class="st2" d="M183.7,112.8c2,0,3.6,1.6,3.6,3.6c0,2-1.6,3.6-3.6,3.6c-2,0-3.6-1.6-3.6-3.6c0-1,0.4-1.9,1.1-2.6
		C181.8,113.2,182.8,112.8,183.7,112.8 M183.7,112.2c-2.3,0-4.2,1.9-4.2,4.2c0,2.3,1.9,4.2,4.2,4.2c2.3,0,4.2-1.9,4.2-4.2
		c0,0,0,0,0,0C187.9,114.1,186,112.3,183.7,112.2L183.7,112.2z"/>
	<path class="st2" d="M185.9,136l-0.4-0.4c0,0,0,0-0.1,0c0,0,0,0-0.1,0l-2.5,2.5l-0.9-0.9c0,0,0,0-0.1,0c0,0,0,0-0.1,0l-0.4,0.4
		c0,0,0,0.1,0,0.1c0,0,0,0,0,0l1.1,1.1c0.1,0.1,0.1,0.1,0.2,0.1c0.1,0,0.2,0,0.2-0.1l0,0l2.7-2.7C185.9,136.1,185.9,136,185.9,136
		L185.9,136z"/>
	<path class="st2" d="M183.7,133.6c2,0,3.6,1.6,3.6,3.6c0,2-1.6,3.6-3.6,3.6c-2,0-3.6-1.6-3.6-3.6c0-1,0.4-1.9,1.1-2.6
		C181.8,134,182.8,133.6,183.7,133.6 M183.7,133c-2.3,0-4.2,1.9-4.2,4.2c0,2.3,1.9,4.2,4.2,4.2c2.3,0,4.2-1.9,4.2-4.2c0,0,0,0,0,0
		C187.9,134.9,186,133,183.7,133C183.7,133,183.7,133,183.7,133z"/>
	<ellipse class="st0" cx="152.6" cy="230.2" rx="20.6" ry="3.5"/>
	<path class="st6" d="M42.3,204.5c0,0,1.1,1.4-0.5,3.5c-1.6,2.1-2.9,3.9-2.3,5.2c0,0,2.4-3.9,4.3-4S44.5,206.9,42.3,204.5z"/>
	<path class="st8" d="M42.3,204.5c0.1,0.1,0.2,0.3,0.2,0.4c1.9,2.2,2.9,4.3,1.1,4.3c-1.7,0-3.7,3.1-4.2,3.8c0,0.1,0,0.1,0.1,0.2
		c0,0,2.4-3.9,4.3-4S44.5,206.9,42.3,204.5z"/>
	<path class="st14" d="M44.3,206.3c0,0.5-0.1,0.9-0.1,0.9c-0.1,0-0.1-0.4-0.1-0.9c0-0.5,0.1-0.3,0.1-0.3
		C44.3,206,44.3,205.8,44.3,206.3z"/>
	<path class="st14" d="M45,206.9c-0.4,0.2-0.8,0.4-0.8,0.3c0-0.1,0.3-0.3,0.7-0.5s0.3-0.1,0.3,0C45.2,206.7,45.5,206.6,45,206.9z"/>
	<path class="st6" d="M36.6,204.5c0,0-1.1,1.4,0.5,3.5c1.6,2.1,2.9,3.9,2.3,5.2c0,0-2.4-3.9-4.3-4C33.2,209.2,34.5,206.9,36.6,204.5
		z"/>
	<path class="st8" d="M36.6,204.5c-0.1,0.1-0.2,0.3-0.2,0.4c-1.9,2.2-2.9,4.3-1.1,4.3c1.7,0,3.7,3.1,4.2,3.8c0,0.1,0,0.1-0.1,0.2
		c0,0-2.4-3.9-4.3-4C33.2,209.2,34.5,206.9,36.6,204.5z"/>
	<path class="st14" d="M34.6,206.3c0,0.5,0.1,0.9,0.1,0.9c0.1,0,0.1-0.4,0.1-0.9c0-0.5-0.1-0.3-0.1-0.3
		C34.7,206,34.6,205.8,34.6,206.3z"/>
	<path class="st14" d="M34,206.9c0.4,0.2,0.8,0.4,0.8,0.3c0-0.1-0.3-0.3-0.7-0.5s-0.3-0.1-0.3,0C33.8,206.7,33.5,206.6,34,206.9z"/>
	<ellipse class="st0" cx="39.5" cy="222.3" rx="11.3" ry="1.7"/>
	<path class="st15" d="M45.3,211.4l-0.1,0.4l-0.1,0.6l0,0.3l-0.1,0.6l0,0.3l-0.1,0.6l-0.9,7.1c-0.1,0.6-1.1,1.1-2.4,1.1h-4.5
		c-1.2,0-2.3-0.5-2.3-1.1l-0.9-7.1l-0.1-0.6l0-0.3l-0.1-0.6l0-0.3l-0.1-0.6l-0.1-0.4c0-0.4,0.5-0.7,1.2-0.7h9.2
		C44.8,210.7,45.3,211,45.3,211.4z"/>
	<polygon class="st16" points="45.2,211.8 45.2,212.4 33.8,212.4 33.7,211.8 	"/>
	<polygon class="st16" points="45.1,212.7 45,213.3 33.9,213.3 33.9,212.7 	"/>
	<polygon class="st16" points="45,213.6 44.9,214.2 34,214.2 34,213.6 	"/>
	<path class="st8" d="M175.3,137.6c-0.2-0.4-1.7-5.5-1.7-5.5l-3-7.5c0,0-1.8-9.9-4.5-7.4c-2.7,2.5,1.4,8.4,1.4,8.4s1.7,4.3,1.6,5.2
		s0.9,4,0.9,4l-0.3,1.8c-0.4,0-0.7,0-0.7,0s-0.3,0.4-0.5,0.4c0,0-0.1,0-0.1,0c-0.3-0.1-1.2-0.1-1.7-0.1c-0.5-0.1-0.9-0.2-1.3-0.4
		c-0.2-0.3-1.1-0.5-2-0.6c-0.6-1.6-1.5-3.1-1.7-4.8c-0.1-0.5,0-0.9,0.3-1.3c0.1-0.1,0.1-0.2,0.2-0.2c0.2-0.2,0.5-0.4,0.8-0.7
		c0.1-0.1,0.2-0.2,0.4-0.3c2.2-2.1,1.9-5.5-0.1-7.7c-2.3-2.7-12.7-8.4-15.9-3.5c-0.4,0.7-0.5,1.5-0.6,2.2c-0.3,1.9-1.2,3.6-2.5,4.9
		c-1,1.1-2.4,2.1-3,3.4l0,0c-0.1,0.3-0.2,0.6-0.3,0.9c-0.3,1.5,0.7,3,1.3,4.5c0.2,0.5,0.3,1,0.4,1.6l0-0.3c0.1,0.8,0.2,1.5,0.1,2.3
		c-3.8,0.8-3.8,7.3-3.8,7.3s-0.5,2.6-0.4,3.5c0.1,0.9,0.1,3,0.1,3.5s-0.5,3.5-0.5,3.9l0,0c-0.1,0.4-0.8,2.3,0.9,2.8
		c0.1,0,0.2,0.1,0.4,0.1c0.1,1.6,0.2,4.8,0.1,5.5c0,0,0.6,4.4,1.1,5.5c0.3,0.7,0.7,1.3,1.2,1.9c0,0.3-0.1,0.5-0.3,0.8
		c-0.3,0.4-0.1,0.7,0.3,0.8c0,0.1,0,0.3-0.1,0.5c-0.2,1.7-0.5,5.1,0,6.8c0.7,2.3,0.7,3.1,0.7,3.1c0,0.4,0.1,0.8,0.3,1.1
		c0.3,0.4,0.8,4,0.8,4.6c0,0.6,1.3,5.8,0.9,7.1c-0.4,1.2-0.1,3-0.1,3s-0.2,3.1-0.5,3.7c-0.3,0.7-0.4,11.3,0,14.1
		c0.4,2.8,0.7,5.1,0.7,5.1s-0.3,2.5,0,2.9c0.2,0.4,0.7,2.5,0.3,2.6c-0.3,0.1-0.5,1-0.5,1c0.2,0.3,0.3,0.5,0.5,0.7
		c-0.1,0-0.2-0.1-0.4-0.2c0.1,0.2,0.3,0.4,0.5,0.7l-0.2,2.8c0,0.2,0.1,0.4,0.3,0.5c1.4,0.4,2.9,0,3.9-1.1c1.9-2,2.6-1.7,3-2.9
		c0-0.1,0.1-0.3,0.1-0.4c0.2-0.7-0.3-1.4-0.9-1.5c-0.3-0.1-0.6,0-0.8,0.1c0.1-0.9,0.2-1.8,0.1-2.4c-0.2-1.1-0.2-4.1-0.2-4.1
		l-0.3-14.2c0,0,0.5-2.8,1.1-3.9c0.6-1.1,0.5-4.9,0.5-4.9l0.7-12.5l0.7-6.1c0,0,0.6-2.1,1.4,0.2c0,0-0.4,4.7-0.2,5.8
		c0.2,1.1,0.5,6.6,0.3,7.8c-0.2,1.2-1.1,7.8-0.5,9.5c0.5,1.7,1.1,3.7,1,4.4c-0.1,0.7-0.5,15-0.5,15s1,2.8,0.3,3.7
		c-0.8,0.9,0,4.5,0,4.5s0.1,0.1,0.3,0.2l0,0.3l-0.2,3.2c0,0.2,0.1,0.4,0.3,0.5c1.4,0.4,2.9,0,3.9-1.1c1.9-2,2.6-1.7,3-2.9
		c0-0.1,0.1-0.3,0.1-0.4c0.2-0.7-0.3-1.4-1-1.5c-0.4-0.1-0.8,0-1.1,0.3c0,0,0,0,0,0c0,0-0.1,0.1-0.2,0.1l-0.1,0
		c0.2-0.9,0.5-2.4,0.3-3.1c-0.2-1.1,0.2-4.2,0.2-4.2s1.1-3.8,1.2-5.3c0-1.5,0.3-12.1,0.3-12.1s0-4.9,0.1-6.1s1.4-11.6,2.6-14.7
		c1-2.4,1.4-8.5,1.1-11.6c0-0.2,0-0.3,0-0.4c1.5-1.1,1.7-3,1.7-3s-1.4-2.7-2.8-3.8c-1.3-1.1-1.7-3.1-1.6-3.9c0-0.5-0.1-1-0.5-1.4
		c0,0-0.6-2-1-2.2c0,0-0.1,0-0.1-0.1c-0.3-0.3-0.1-1.2-0.1-1.2v0c0-0.2,0.3-1.5,0.3-1.8s0.1-2.1,0.1-2.1s1-3,0.8-5.3
		c-0.2-2.3,2-2.1,2-2.1l6.7-0.1h0.8c0.3-0.3,0.6-0.6,0.9-0.9c0.5,0.1,1.1,0,1.5-0.4C175.6,140.5,175.5,138,175.3,137.6z M144,157.8
		l0-1.2l0.3,0.2c0.1,0.3,0.1,0.6,0,0.9c-0.1,0.3-0.3,0.5-0.6,0.7c0,0-0.1,0-0.1,0.1l-0.1-0.7C143.8,157.8,144,157.8,144,157.8
		L144,157.8z"/>
	
		<linearGradient id="SVGID_1_" gradientUnits="userSpaceOnUse" x1="239.5164" y1="791.8811" x2="239.5164" y2="817.537" gradientTransform="matrix(1 0 0 -1 -69 933.2745)">
		<stop  offset="0" style="stop-color:#808080;stop-opacity:0.25"/>
		<stop  offset="0.54" style="stop-color:#808080;stop-opacity:0.12"/>
		<stop  offset="1" style="stop-color:#808080;stop-opacity:0.1"/>
	</linearGradient>
	<path class="st17" d="M169.2,139.9c0,0,3.8,2.5,5.3,1.2s1.3-3.8,1.1-4.2s-1.8-5.5-1.8-5.5l-3-7.6c0,0-1.8-10-4.6-7.5
		s1.5,8.5,1.5,8.5s1.7,4.4,1.6,5.2s1,4.1,1,4.1L169.2,139.9z"/>
	
		<linearGradient id="SVGID_2_" gradientUnits="userSpaceOnUse" x1="227.3928" y1="699.773" x2="227.3928" y2="705.8989" gradientTransform="matrix(1 0 0 -1 -69 933.2745)">
		<stop  offset="0" style="stop-color:#808080;stop-opacity:0.25"/>
		<stop  offset="0.54" style="stop-color:#808080;stop-opacity:0.12"/>
		<stop  offset="1" style="stop-color:#808080;stop-opacity:0.1"/>
	</linearGradient>
	<path class="st18" d="M162.1,228.9c0,0.1-0.1,0.3-0.1,0.4c-0.4,1.2-1,0.9-3,2.9c-1,1.1-2.5,1.5-3.9,1.1c-0.2-0.1-0.4-0.3-0.4-0.5
		l0.2-3.2l0.1-1.6c0,0,3.1,0.9,4.8-0.2c0.1,0,0.1-0.1,0.2-0.1l0,0c0.5-0.5,1.4-0.4,1.8,0.2C162.1,228.1,162.2,228.5,162.1,228.9z"/>
	
		<linearGradient id="SVGID_3_" gradientUnits="userSpaceOnUse" x1="217.5175" y1="700.9977" x2="217.5175" y2="707.1263" gradientTransform="matrix(1 0 0 -1 -69 933.2745)">
		<stop  offset="0" style="stop-color:#808080;stop-opacity:0.25"/>
		<stop  offset="0.54" style="stop-color:#808080;stop-opacity:0.12"/>
		<stop  offset="1" style="stop-color:#808080;stop-opacity:0.1"/>
	</linearGradient>
	<path class="st19" d="M152.2,227.7c0,0.1-0.1,0.3-0.1,0.4c-0.4,1.2-1,0.9-3,2.9c-1,1.1-2.5,1.5-3.9,1.1c-0.2-0.1-0.4-0.3-0.4-0.5
		l0.2-3.2l0.1-1.6c0,0,3.1,0.9,4.7-0.2c0.1,0,0.1-0.1,0.2-0.1l0,0c0.5-0.5,1.4-0.4,1.8,0.2C152.2,226.9,152.3,227.3,152.2,227.7z"/>
	<g class="st20">
		
			<linearGradient id="SVGID_4_" gradientUnits="userSpaceOnUse" x1="215.769" y1="702.7863" x2="215.769" y2="705.1452" gradientTransform="matrix(1 0 0 -1 -69 933.2745)">
			<stop  offset="0" style="stop-color:#808080;stop-opacity:0.25"/>
			<stop  offset="0.54" style="stop-color:#808080;stop-opacity:0.12"/>
			<stop  offset="1" style="stop-color:#808080;stop-opacity:0.1"/>
		</linearGradient>
		<path class="st21" d="M148.9,228.2l0.1,1.7c-1.8,1.8-4-0.9-4.6-1.8C146.1,229,148.9,228.2,148.9,228.2z"/>
	</g>
	<g class="st20">
		
			<linearGradient id="SVGID_5_" gradientUnits="userSpaceOnUse" x1="226.3674" y1="702.9984" x2="226.3674" y2="705.4516" gradientTransform="matrix(1 0 0 -1 -69 933.2745)">
			<stop  offset="0" style="stop-color:#808080;stop-opacity:0.25"/>
			<stop  offset="0.54" style="stop-color:#808080;stop-opacity:0.12"/>
			<stop  offset="1" style="stop-color:#808080;stop-opacity:0.1"/>
		</linearGradient>
		<path class="st22" d="M159.6,228.9l0.2-0.2c-1.7,2.5-4.1,1.3-4.9,0.9l0.1-1.6c0,0,3.1,0.9,4.8-0.2
			C159.7,228.4,159.6,228.9,159.6,228.9z"/>
	</g>
	
		<linearGradient id="SVGID_6_" gradientUnits="userSpaceOnUse" x1="222.5424" y1="703.0854" x2="222.5424" y2="765.0818" gradientTransform="matrix(1 0 0 -1 -69 933.2745)">
		<stop  offset="0" style="stop-color:#808080;stop-opacity:0.25"/>
		<stop  offset="0.54" style="stop-color:#808080;stop-opacity:0.12"/>
		<stop  offset="1" style="stop-color:#808080;stop-opacity:0.1"/>
	</linearGradient>
	<path class="st23" d="M164.6,181.7c-1.3,3.1-2.5,13.7-2.7,14.9c-0.2,1.2-0.1,6.2-0.1,6.2l-0.3,12.2c0,1.5-1.2,5.4-1.2,5.4
		s-0.4,3.2-0.2,4.3c0.2,1.1-0.5,3.8-0.5,3.8l0.2-0.2c-2,3-5.1,0.7-5.1,0.7s-0.8-3.6,0-4.5c0.8-0.9-0.3-3.7-0.3-3.7
		s0.4-14.5,0.5-15.1c0.1-0.7-0.5-2.7-1-4.4c-0.6-1.7,0.3-8.4,0.5-9.6c0.2-1.2-0.1-6.7-0.3-7.9c-0.2-1.1,0.2-5.9,0.2-5.9
		c-0.8-2.4-1.4-0.2-1.4-0.2l-0.6,6.2l-0.7,12.7c0,0,0.1,3.8-0.5,4.9c-0.6,1.1-1.1,3.9-1.1,3.9l0.3,14.3c0,0,0,3,0.2,4.1
		c0.2,1.1-0.4,4.1-0.4,4.1c-2.2,5.2-5.8-0.4-5.8-0.4s0.2-0.9,0.5-1c0.3-0.1-0.1-2.2-0.4-2.6c-0.2-0.4,0-2.9,0-2.9s-0.3-2.3-0.7-5.1
		c-0.4-2.8-0.3-13.5,0-14.2s0.5-3.8,0.5-3.8s-0.3-1.8,0.1-3s-1-6.6-1-7.1s-0.5-4.2-0.8-4.6c-0.2-0.3-0.3-0.7-0.3-1.1
		c0,0,0-0.8-0.7-3.1c-0.5-1.7-0.2-5.1,0-6.8c0.1-0.6,0.1-1,0.1-1s22.7-3.7,23.6-2.8c0.2,0.2,0.4,0.9,0.4,1.8
		C166,173.2,165.6,179.3,164.6,181.7z"/>
	<g class="st20">
		
			<linearGradient id="SVGID_7_" gradientUnits="userSpaceOnUse" x1="226.8304" y1="733.7793" x2="226.8304" y2="733.944" gradientTransform="matrix(1 0 0 -1 -69 933.2745)">
			<stop  offset="0" style="stop-color:#808080;stop-opacity:0.25"/>
			<stop  offset="0.54" style="stop-color:#808080;stop-opacity:0.12"/>
			<stop  offset="1" style="stop-color:#808080;stop-opacity:0.1"/>
		</linearGradient>
		<path class="st24" d="M156,199.4c0.1,0,2.6,0.2,3.5,0C160.5,199.2,156,199.4,156,199.4z"/>
	</g>
	<g class="st20">
		
			<linearGradient id="SVGID_8_" gradientUnits="userSpaceOnUse" x1="227.0076" y1="732.036" x2="227.0076" y2="732.4147" gradientTransform="matrix(1 0 0 -1 -69 933.2745)">
			<stop  offset="0" style="stop-color:#808080;stop-opacity:0.25"/>
			<stop  offset="0.54" style="stop-color:#808080;stop-opacity:0.12"/>
			<stop  offset="1" style="stop-color:#808080;stop-opacity:0.1"/>
		</linearGradient>
		<path class="st25" d="M156.2,200.9c0,0,3.5,0.6,3.6,0.3C160,200.8,156.2,200.9,156.2,200.9z"/>
	</g>
	<g class="st20">
		
			<linearGradient id="SVGID_9_" gradientUnits="userSpaceOnUse" x1="216.0729" y1="732.4034" x2="216.0729" y2="733.0422" gradientTransform="matrix(1 0 0 -1 -69 933.2745)">
			<stop  offset="0" style="stop-color:#808080;stop-opacity:0.25"/>
			<stop  offset="0.54" style="stop-color:#808080;stop-opacity:0.12"/>
			<stop  offset="1" style="stop-color:#808080;stop-opacity:0.1"/>
		</linearGradient>
		<path class="st26" d="M145.6,200.2c0,0,1.8,0.1,2.8,0.5S145.6,200.2,145.6,200.2z"/>
	</g>
	
		<linearGradient id="SVGID_10_" gradientUnits="userSpaceOnUse" x1="210.3449" y1="762.5319" x2="210.3449" y2="777.1062" gradientTransform="matrix(1 0 0 -1 -69 933.2745)">
		<stop  offset="0" style="stop-color:#808080;stop-opacity:0.25"/>
		<stop  offset="0.54" style="stop-color:#808080;stop-opacity:0.12"/>
		<stop  offset="1" style="stop-color:#808080;stop-opacity:0.1"/>
	</linearGradient>
	<path class="st27" d="M139.1,156.2c0,0,0.3,5.5,0.1,6.4c0,0,0.6,4.4,1.2,5.5c0.5,0.9,1,1.7,1.7,2.5l1.6-10.9l-0.4-3.7L139.1,156.2z
		"/>
	
		<linearGradient id="SVGID_11_" gradientUnits="userSpaceOnUse" x1="155.4466" y1="854.7823" x2="155.4466" y2="866.8707" gradientTransform="matrix(1 0 0 -1 0 986.0945)">
		<stop  offset="0" style="stop-color:#808080;stop-opacity:0.25"/>
		<stop  offset="0.54" style="stop-color:#808080;stop-opacity:0.12"/>
		<stop  offset="1" style="stop-color:#808080;stop-opacity:0.1"/>
	</linearGradient>
	<ellipse class="st28" cx="155.4" cy="125.3" rx="6.1" ry="6"/>
	
		<linearGradient id="SVGID_12_" gradientUnits="userSpaceOnUse" x1="223.2581" y1="796.0742" x2="223.2581" y2="805.384" gradientTransform="matrix(1 0 0 -1 -69 933.2745)">
		<stop  offset="0" style="stop-color:#808080;stop-opacity:0.25"/>
		<stop  offset="0.54" style="stop-color:#808080;stop-opacity:0.12"/>
		<stop  offset="1" style="stop-color:#808080;stop-opacity:0.1"/>
	</linearGradient>
	<path class="st29" d="M152.3,128.1c0,0-1.9,3.7-3.8,5.4s11.4,3.7,11.7,3.7s-2.4-7.8-1.9-8.8S152.3,128.1,152.3,128.1z"/>
	<g class="st20">
		
			<linearGradient id="SVGID_13_" gradientUnits="userSpaceOnUse" x1="222.6414" y1="760.7889" x2="222.6414" y2="765.1093" gradientTransform="matrix(1 0 0 -1 -69 933.2745)">
			<stop  offset="0" style="stop-color:#808080;stop-opacity:0.25"/>
			<stop  offset="0.54" style="stop-color:#808080;stop-opacity:0.12"/>
			<stop  offset="1" style="stop-color:#808080;stop-opacity:0.1"/>
		</linearGradient>
		<path class="st30" d="M165.7,170.1c-0.3,0.2-0.6,0.4-1,0.5c-2.4,0.9-5.1,2.3-6.9,1.7c-1.8-0.5-5.6,0-5.6,0s-7.7-0.6-9.2-0.3
			c-0.5,0.2-1.1,0.2-1.6,0c0.1-0.6,0.1-1,0.1-1s22.7-3.7,23.6-2.8C165.5,168.5,165.7,169.1,165.7,170.1z"/>
	</g>
	
		<linearGradient id="SVGID_14_" gradientUnits="userSpaceOnUse" x1="222.0257" y1="761.2548" x2="222.0257" y2="800.8783" gradientTransform="matrix(1 0 0 -1 -69 933.2745)">
		<stop  offset="0" style="stop-color:#808080;stop-opacity:0.25"/>
		<stop  offset="0.54" style="stop-color:#808080;stop-opacity:0.12"/>
		<stop  offset="1" style="stop-color:#808080;stop-opacity:0.1"/>
	</linearGradient>
	<path class="st31" d="M167.4,166.6c0,0-0.2,2.6-2.6,3.6c-2.4,1-5.1,2.3-6.9,1.7s-5.6,0-5.6,0s-7.7-0.6-9.2-0.3s-2.3-0.1-1.8-0.8
		c0.5-0.7,0.4-2.9,0.4-3.9s-0.5-4.8-0.1-5.4c0.5-0.7,0.9-3.3,1.8-3.7c0.3-0.1,0.5-0.4,0.6-0.7c0.1-0.3,0.1-0.6,0-1
		c0,0-0.2-0.1-0.4-0.3c-0.6-0.5-1.5-1.4-1.2-1.7c0.4-0.4,0-3.1,0-3.1s-1-2.1-0.6-2.9c0.4-0.8-3.2-4.9-3.2-4.9s0-7.1,4.3-7.4
		c0,0,3.1,0.1,3.4-1.3c0.4-1.4,2.8-2.1,2.8-2.1l5.5,1.2c0,0,4.9,1,5.8,0.4s1.6,0.8,1.6,0.8s3.1,0.2,3.4,0.8c0.3,0.6-1,6.7-1,6.7
		s-2.2-0.2-2.1,2.1c0.2,2.4-0.8,5.3-0.8,5.3s-0.2,1.7-0.1,2.1s-0.2,1.7-0.3,1.9v0c0,0-0.2,0.9,0.1,1.2c0,0,0.1,0.1,0.1,0.1
		c0.4,0.2,1.1,2.2,1.1,2.2c0.3,0.4,0.5,0.9,0.5,1.4c-0.1,0.8,0.3,2.8,1.6,4S167.4,166.6,167.4,166.6z"/>
	
		<linearGradient id="SVGID_15_" gradientUnits="userSpaceOnUse" x1="209.7252" y1="776.0334" x2="209.7252" y2="790.4747" gradientTransform="matrix(1 0 0 -1 -69 933.2745)">
		<stop  offset="0" style="stop-color:#808080;stop-opacity:0.25"/>
		<stop  offset="0.54" style="stop-color:#808080;stop-opacity:0.12"/>
		<stop  offset="1" style="stop-color:#808080;stop-opacity:0.1"/>
	</linearGradient>
	<path class="st32" d="M143.9,154.5v0.2l-0.1,2.4c0,0-3.2,0.3-5-0.2c-1.8-0.4-1-2.4-1-2.8l0,0c0.1-0.4,0.5-3.4,0.5-3.9
		s0-2.5-0.1-3.5c-0.1-0.9,0.4-3.6,0.4-3.6l0.3-0.4l3.7,1.4L143.9,154.5z"/>
	<g class="st20">
		
			<linearGradient id="SVGID_16_" gradientUnits="userSpaceOnUse" x1="209.7194" y1="776.0338" x2="209.7194" y2="779.0779" gradientTransform="matrix(1 0 0 -1 -69 933.2745)">
			<stop  offset="0" style="stop-color:#808080;stop-opacity:0.25"/>
			<stop  offset="0.54" style="stop-color:#808080;stop-opacity:0.12"/>
			<stop  offset="1" style="stop-color:#808080;stop-opacity:0.1"/>
		</linearGradient>
		<path class="st33" d="M143.9,154.7l-0.1,2.4c0,0-3.2,0.3-5-0.2c-1.8-0.4-1-2.4-1-2.8L143.9,154.7z"/>
	</g>
	<g class="st20">
		
			<linearGradient id="SVGID_17_" gradientUnits="userSpaceOnUse" x1="221.5488" y1="776.1205" x2="221.5488" y2="779.4591" gradientTransform="matrix(1 0 0 -1 -69 933.2745)">
			<stop  offset="0" style="stop-color:#808080;stop-opacity:0.25"/>
			<stop  offset="0.54" style="stop-color:#808080;stop-opacity:0.12"/>
			<stop  offset="1" style="stop-color:#808080;stop-opacity:0.1"/>
		</linearGradient>
		<path class="st34" d="M144.1,157.2c0.1-0.3,0.1-0.6,0-1c0,0-0.2-0.1-0.4-0.3c2.8-0.4,13.9-1.9,17.6-2.1v0c0,0-0.2,0.9,0.1,1.2
			L144.1,157.2z"/>
	</g>
	<g class="st20">
		
			<linearGradient id="SVGID_18_" gradientUnits="userSpaceOnUse" x1="229.804" y1="769.0184" x2="229.804" y2="774.2272" gradientTransform="matrix(1 0 0 -1 -69 933.2745)">
			<stop  offset="0" style="stop-color:#808080;stop-opacity:0.25"/>
			<stop  offset="0.54" style="stop-color:#808080;stop-opacity:0.12"/>
			<stop  offset="1" style="stop-color:#808080;stop-opacity:0.1"/>
		</linearGradient>
		<path class="st35" d="M161.7,159.1c0,0,0.7,3.8-1.9,5.2C159.8,164.3,161.3,162.3,161.7,159.1z"/>
	</g>
	<g class="st20">
		
			<linearGradient id="SVGID_19_" gradientUnits="userSpaceOnUse" x1="217.6994" y1="768.7179" x2="217.6994" y2="769.4584" gradientTransform="matrix(1 0 0 -1 -69 933.2745)">
			<stop  offset="0" style="stop-color:#808080;stop-opacity:0.25"/>
			<stop  offset="0.54" style="stop-color:#808080;stop-opacity:0.12"/>
			<stop  offset="1" style="stop-color:#808080;stop-opacity:0.1"/>
		</linearGradient>
		<path class="st36" d="M144.9,164.4c0,0,6.2-1,7.4-0.2C153.5,164.9,144.9,164.4,144.9,164.4z"/>
	</g>
	<g class="st20">
		
			<linearGradient id="SVGID_20_" gradientUnits="userSpaceOnUse" x1="228.3865" y1="787.8941" x2="228.3865" y2="792.75" gradientTransform="matrix(1 0 0 -1 -69 933.2745)">
			<stop  offset="0" style="stop-color:#808080;stop-opacity:0.25"/>
			<stop  offset="0.54" style="stop-color:#808080;stop-opacity:0.12"/>
			<stop  offset="1" style="stop-color:#808080;stop-opacity:0.1"/>
		</linearGradient>
		<path class="st37" d="M159.6,140.5c0,0-0.9,3.9-0.2,4.8S159.6,140.5,159.6,140.5z"/>
	</g>
	<g class="st20">
		
			<linearGradient id="SVGID_21_" gradientUnits="userSpaceOnUse" x1="210.9169" y1="792.6777" x2="210.9169" y2="795.9181" gradientTransform="matrix(1 0 0 -1 -69 933.2745)">
			<stop  offset="0" style="stop-color:#808080;stop-opacity:0.25"/>
			<stop  offset="0.54" style="stop-color:#808080;stop-opacity:0.12"/>
			<stop  offset="1" style="stop-color:#808080;stop-opacity:0.1"/>
		</linearGradient>
		<path class="st38" d="M141.7,137.4c0,0,0.9,1.4,0.3,2.9S141.7,137.4,141.7,137.4z"/>
	</g>
	
		<linearGradient id="SVGID_22_" gradientUnits="userSpaceOnUse" x1="209.2901" y1="781.3994" x2="209.2901" y2="783.3065" gradientTransform="matrix(1 0 0 -1 -69 933.2745)">
		<stop  offset="0" style="stop-color:#808080;stop-opacity:0.25"/>
		<stop  offset="0.54" style="stop-color:#808080;stop-opacity:0.12"/>
		<stop  offset="1" style="stop-color:#808080;stop-opacity:0.1"/>
	</linearGradient>
	<path class="st39" d="M139.9,150c0,0,1.1,0.7,0.7,1.7C140.3,152.7,139.9,150,139.9,150z"/>
	<g class="st20">
		
			<linearGradient id="SVGID_23_" gradientUnits="userSpaceOnUse" x1="209.3506" y1="784.7473" x2="209.3506" y2="786.2896" gradientTransform="matrix(1 0 0 -1 -69 933.2745)">
			<stop  offset="0" style="stop-color:#808080;stop-opacity:0.25"/>
			<stop  offset="0.54" style="stop-color:#808080;stop-opacity:0.12"/>
			<stop  offset="1" style="stop-color:#808080;stop-opacity:0.1"/>
		</linearGradient>
		<path class="st40" d="M139.8,147c0,0,1,0.6,1.2,1.4C141.1,149.2,139.8,147,139.8,147z"/>
	</g>
	<g class="st20">
		
			<linearGradient id="SVGID_24_" gradientUnits="userSpaceOnUse" x1="227.9023" y1="754.8545" x2="227.9023" y2="755.8575" gradientTransform="matrix(1 0 0 -1 -69 933.2745)">
			<stop  offset="0" style="stop-color:#808080;stop-opacity:0.25"/>
			<stop  offset="0.54" style="stop-color:#808080;stop-opacity:0.12"/>
			<stop  offset="1" style="stop-color:#808080;stop-opacity:0.1"/>
		</linearGradient>
		<path class="st41" d="M155,178.3c0,0,6.5,0.7,7.8-0.9C162.8,177.4,156.9,178.6,155,178.3z"/>
	</g>
	<g class="st20">
		
			<linearGradient id="SVGID_25_" gradientUnits="userSpaceOnUse" x1="217.0207" y1="754.528" x2="217.0207" y2="755.3604" gradientTransform="matrix(1 0 0 -1 -69 933.2745)">
			<stop  offset="0" style="stop-color:#808080;stop-opacity:0.25"/>
			<stop  offset="0.54" style="stop-color:#808080;stop-opacity:0.12"/>
			<stop  offset="1" style="stop-color:#808080;stop-opacity:0.1"/>
		</linearGradient>
		<path class="st42" d="M143.9,177.9c0,0,6.9,1.6,8.3,0.3C152.2,178.3,146.2,178.7,143.9,177.9z"/>
	</g>
	<g class="st20">
		
			<linearGradient id="SVGID_26_" gradientUnits="userSpaceOnUse" x1="226.7536" y1="752.7762" x2="226.7536" y2="752.8745" gradientTransform="matrix(1 0 0 -1 -69 933.2745)">
			<stop  offset="0" style="stop-color:#808080;stop-opacity:0.25"/>
			<stop  offset="0.54" style="stop-color:#808080;stop-opacity:0.12"/>
			<stop  offset="1" style="stop-color:#808080;stop-opacity:0.1"/>
		</linearGradient>
		<path class="st43" d="M155.5,180.4c0,0,2.9,0,4.2,0.1S155.5,180.4,155.5,180.4z"/>
	</g>
	<g class="st20">
		
			<linearGradient id="SVGID_27_" gradientUnits="userSpaceOnUse" x1="215.0263" y1="750.3022" x2="215.0263" y2="751.6459" gradientTransform="matrix(1 0 0 -1 -69 933.2745)">
			<stop  offset="0" style="stop-color:#808080;stop-opacity:0.25"/>
			<stop  offset="0.54" style="stop-color:#808080;stop-opacity:0.12"/>
			<stop  offset="1" style="stop-color:#808080;stop-opacity:0.1"/>
		</linearGradient>
		<path class="st44" d="M144.3,181.6c0,0,1.4,1.6,3,1.3S144.3,181.6,144.3,181.6z"/>
	</g>
	
		<linearGradient id="SVGID_28_" gradientUnits="userSpaceOnUse" x1="221.8057" y1="775.4878" x2="221.8057" y2="818.9296" gradientTransform="matrix(1 0 0 -1 -69 933.2745)">
		<stop  offset="0" style="stop-color:#808080;stop-opacity:0.25"/>
		<stop  offset="0.54" style="stop-color:#808080;stop-opacity:0.12"/>
		<stop  offset="1" style="stop-color:#808080;stop-opacity:0.1"/>
	</linearGradient>
	<path class="st45" d="M147.1,116.3c-0.4,0.7-0.5,1.5-0.6,2.2c-0.3,1.9-1.2,3.6-2.5,5c-1.3,1.3-3,2.5-3.3,4.2
		c-0.3,1.5,0.7,3,1.3,4.5c1.4,4-0.6,8.1-1.2,12.2c-0.2,1.1,0,2.6,1.4,3c0.4,0.1,0.9,0.1,1.3,0.3c0.5,0.3,0.7,0.8,0.8,1.2
		c0.4,1.7,0.5,3.4,0.4,5.1c-0.1,1-0.1,2.1,0.8,2.7c0.5,0.3,1,0.5,1.5,0.6c1.4,0.4,3.3,0.7,4.3-0.2c0.4-0.4,0.6-0.9,1.1-1.2
		c0.8-0.4,1.8-0.1,2.8-0.1c1.9,0.1,3.6-0.9,4.6-2.4c0.8-1.4,0.7-3,0.4-4.5c-0.3-1.5-0.8-3-0.8-4.5c0-0.5,0.1-1.1,0.3-1.5
		c0.6-0.9,2-1.3,2.9-2c1.8-1.3,1.7-3.5,1.1-5.3c-0.6-1.8-1.8-3.6-1.9-5.5c-0.1-0.5,0-0.9,0.3-1.3c0.3-0.4,0.7-0.7,1.1-1
		c2.6-2.1,2.3-5.7,0.1-8.1C160.9,117.1,150.3,111.3,147.1,116.3z"/>
	<g class="st20">
		
			<linearGradient id="SVGID_29_" gradientUnits="userSpaceOnUse" x1="210.502" y1="799.4186" x2="210.502" y2="806.4138" gradientTransform="matrix(1 0 0 -1 -69 933.2745)">
			<stop  offset="0" style="stop-color:#808080;stop-opacity:0.25"/>
			<stop  offset="0.54" style="stop-color:#808080;stop-opacity:0.12"/>
			<stop  offset="1" style="stop-color:#808080;stop-opacity:0.1"/>
		</linearGradient>
		<path class="st46" d="M142.3,133.9c0.3-1.6,0.1-3.2-0.4-4.7c-0.3-0.8-0.7-1.5-1-2.3c-0.1,0.3-0.3,0.6-0.3,0.9
			c-0.3,1.5,0.7,3,1.3,4.5C142.1,132.8,142.2,133.3,142.3,133.9z"/>
		
			<linearGradient id="SVGID_30_" gradientUnits="userSpaceOnUse" x1="211.7123" y1="781.8959" x2="211.7123" y2="789.949" gradientTransform="matrix(1 0 0 -1 -69 933.2745)">
			<stop  offset="0" style="stop-color:#808080;stop-opacity:0.25"/>
			<stop  offset="0.54" style="stop-color:#808080;stop-opacity:0.12"/>
			<stop  offset="1" style="stop-color:#808080;stop-opacity:0.1"/>
		</linearGradient>
		<path class="st47" d="M144.7,151c0.1-1.7,0-3.4-0.4-5.1c-0.1-0.5-0.3-1-0.8-1.2c-0.4-0.2-0.9-0.2-1.3-0.3c-0.5-0.1-1-0.5-1.2-1
			c-0.1,0.4-0.2,0.8-0.2,1.2c-0.2,1.1,0,2.6,1.4,3c0.4,0.1,0.9,0.1,1.3,0.3c0.5,0.3,0.7,0.8,0.8,1.2c0.2,0.8,0.3,1.6,0.3,2.4
			C144.7,151.3,144.7,151.1,144.7,151z"/>
		
			<linearGradient id="SVGID_31_" gradientUnits="userSpaceOnUse" x1="221.4872" y1="775.421" x2="221.4872" y2="784.0558" gradientTransform="matrix(1 0 0 -1 -69 933.2745)">
			<stop  offset="0" style="stop-color:#808080;stop-opacity:0.25"/>
			<stop  offset="0.54" style="stop-color:#808080;stop-opacity:0.12"/>
			<stop  offset="1" style="stop-color:#808080;stop-opacity:0.1"/>
		</linearGradient>
		<path class="st48" d="M159.7,150.4c-1,1.6-2.7,2.5-4.6,2.4c-1,0-2-0.3-2.8,0.1c-0.5,0.3-0.7,0.8-1.1,1.2c-1,0.9-2.8,0.6-4.3,0.2
			c-0.5-0.1-1.1-0.3-1.5-0.6c-0.4-0.3-0.7-0.7-0.7-1.2c0,0.5,0,1.1,0,1.6c-0.1,1-0.1,2.1,0.8,2.7c0.5,0.3,1,0.5,1.5,0.6
			c1.4,0.4,3.3,0.7,4.3-0.2c0.4-0.4,0.6-0.9,1.1-1.2c0.8-0.5,1.8-0.1,2.8-0.1c1.9,0.1,3.6-0.9,4.6-2.4c0.7-1.3,0.7-2.9,0.5-4.3
			C160.1,149.6,159.9,150,159.7,150.4z"/>
		
			<linearGradient id="SVGID_32_" gradientUnits="userSpaceOnUse" x1="232.3034" y1="804.5118" x2="232.3034" y2="810.8248" gradientTransform="matrix(1 0 0 -1 -69 933.2745)">
			<stop  offset="0" style="stop-color:#808080;stop-opacity:0.25"/>
			<stop  offset="0.54" style="stop-color:#808080;stop-opacity:0.12"/>
			<stop  offset="1" style="stop-color:#808080;stop-opacity:0.1"/>
		</linearGradient>
		<path class="st49" d="M163.1,124.8c-0.4,0.3-0.8,0.6-1.1,1c-0.2,0.4-0.3,0.9-0.3,1.3c0,0.6,0.2,1.1,0.4,1.7c0.3-0.3,0.6-0.6,1-0.8
			c1.7-1.4,2.2-3.5,1.6-5.5C164.4,123.4,163.8,124.2,163.1,124.8z"/>
		
			<linearGradient id="SVGID_33_" gradientUnits="userSpaceOnUse" x1="230.681" y1="790.0386" x2="230.681" y2="797.1177" gradientTransform="matrix(1 0 0 -1 -69 933.2745)">
			<stop  offset="0" style="stop-color:#808080;stop-opacity:0.25"/>
			<stop  offset="0.54" style="stop-color:#808080;stop-opacity:0.12"/>
			<stop  offset="1" style="stop-color:#808080;stop-opacity:0.1"/>
		</linearGradient>
		<path class="st50" d="M162.6,137.9c-0.9,0.7-2.3,1.1-2.9,2c-0.3,0.5-0.4,1-0.3,1.5c0,0.6,0.1,1.2,0.2,1.8c0-0.1,0.1-0.1,0.1-0.2
			c0.6-0.9,2-1.3,2.9-2c1.6-1.2,1.7-3.1,1.3-4.9C163.6,136.8,163.1,137.4,162.6,137.9z"/>
	</g>
	
		<linearGradient id="SVGID_34_" gradientUnits="userSpaceOnUse" x1="238.2106" y1="790.8943" x2="238.2106" y2="797.664" gradientTransform="matrix(1 0 0 -1 -69 933.2745)">
		<stop  offset="0" style="stop-color:#808080;stop-opacity:0.25"/>
		<stop  offset="0.54" style="stop-color:#808080;stop-opacity:0.12"/>
		<stop  offset="1" style="stop-color:#808080;stop-opacity:0.1"/>
	</linearGradient>
	<path class="st51" d="M174.6,138.5c-1.1,2.7-2.5,3.8-2.5,3.8h-0.8l-6.8,0.1l-0.8-2.1l1.1-4.6l0.7,0c0.4,0.2,0.9,0.4,1.3,0.4
		c0.5,0,1.5,0,1.8,0.1c0,0,0.1,0,0.1,0c0.3,0,0.5-0.4,0.5-0.4S175.7,135.8,174.6,138.5z"/>
	<g class="st20">
		
			<linearGradient id="SVGID_35_" gradientUnits="userSpaceOnUse" x1="240.7153" y1="790.9636" x2="240.7153" y2="797.5137" gradientTransform="matrix(1 0 0 -1 -69 933.2745)">
			<stop  offset="0" style="stop-color:#808080;stop-opacity:0.25"/>
			<stop  offset="0.54" style="stop-color:#808080;stop-opacity:0.12"/>
			<stop  offset="1" style="stop-color:#808080;stop-opacity:0.1"/>
		</linearGradient>
		<path class="st52" d="M174.6,138.5c-1.1,2.7-2.5,3.8-2.5,3.8h-0.8c0.4-1.1,1.3-3.3,1.6-3.8s-2.5-1.7-4.2-2.3
			c0.3,0,0.5-0.4,0.5-0.4S175.7,135.8,174.6,138.5z"/>
	</g>
	<path class="st53" d="M169,140.6c0,0,3.8,2.4,5.2,1.1c1.4-1.3,1.3-3.8,1.1-4.2c-0.2-0.4-1.7-5.5-1.7-5.5l-3-7.5
		c0,0-1.8-9.9-4.5-7.4c-2.7,2.5,1.4,8.4,1.4,8.4s1.7,4.3,1.6,5.2s0.9,4,0.9,4L169,140.6z"/>
	<path class="st6" d="M162,229c0,0.1-0.1,0.2-0.1,0.4c-0.4,1.2-1,0.9-3,2.9c-1,1.1-2.5,1.5-3.9,1.1c-0.2-0.1-0.4-0.3-0.3-0.5
		l0.2-3.2l0.1-1.5c0,0,3.1,0.9,4.7-0.2c0.1,0,0.1-0.1,0.2-0.1c0,0,0,0,0,0c0.5-0.4,1.3-0.4,1.8,0.2C162,228.2,162.1,228.6,162,229z"
		/>
	<path class="st6" d="M152.3,227.8c0,0.1-0.1,0.2-0.1,0.4c-0.4,1.2-1,0.9-3,2.9c-1,1.1-2.5,1.5-3.9,1.1c-0.2-0.1-0.4-0.3-0.3-0.5
		l0.2-3.2l0.1-1.5c0,0,3.1,0.9,4.7-0.2c0.1,0,0.1-0.1,0.2-0.1l0,0c0.5-0.4,1.3-0.4,1.8,0.2C152.3,227,152.3,227.4,152.3,227.8z"/>
	<path class="st8" d="M149.1,228.2l0.1,1.7c-1.8,1.8-3.9-0.9-4.5-1.7C146.3,229,149.1,228.2,149.1,228.2z"/>
	<path class="st8" d="M159.5,228.9l0.2-0.2c-1.6,2.5-4,1.3-4.8,0.9l0.1-1.5c0,0,3.1,0.9,4.7-0.2
		C159.6,228.5,159.5,228.9,159.5,228.9z"/>
	<path class="st54" d="M164.5,182.2c-1.2,3.1-2.5,13.5-2.6,14.7c-0.2,1.2-0.1,6.1-0.1,6.1l-0.3,12.1c0,1.5-1.2,5.3-1.2,5.3
		s-0.4,3.2-0.2,4.2c0.2,1.1-0.5,3.8-0.5,3.8l0.2-0.2c-1.9,3-5,0.7-5,0.7s-0.7-3.6,0-4.5s-0.3-3.7-0.3-3.7s0.4-14.4,0.5-15
		c0.1-0.7-0.5-2.7-1-4.4c-0.5-1.7,0.3-8.3,0.5-9.5s-0.1-6.7-0.3-7.8s0.2-5.8,0.2-5.8c-0.8-2.3-1.4-0.2-1.4-0.2l-0.6,6.1l-0.7,12.5
		c0,0,0.1,3.8-0.5,4.9c-0.6,1.1-1.1,3.9-1.1,3.9l0.3,14.2c0,0,0,3,0.2,4.1c0.2,1.1-0.4,4-0.4,4c-2.2,5.1-5.7-0.4-5.7-0.4
		s0.2-0.9,0.5-1s-0.1-2.2-0.3-2.6c-0.2-0.3,0-2.9,0-2.9s-0.3-2.3-0.7-5.1c-0.4-2.8-0.3-13.4,0-14.1c0.3-0.7,0.5-3.7,0.5-3.7
		s-0.3-1.8,0.1-3c0.4-1.2-0.9-6.5-0.9-7.1s-0.5-4.2-0.8-4.6c-0.2-0.3-0.3-0.7-0.3-1.1c0,0,0-0.8-0.7-3.1c-0.5-1.7-0.2-5.1,0-6.8
		c0.1-0.6,0.1-1,0.1-1s22.3-3.6,23.2-2.8c0.2,0.2,0.3,0.9,0.4,1.8C165.8,173.7,165.4,179.8,164.5,182.2z"/>
	<path class="st8" d="M156,199.7c0.1,0,2.6,0.2,3.5,0C160.4,199.5,156,199.7,156,199.7z"/>
	<path class="st8" d="M156.2,201.1c0,0,3.4,0.6,3.6,0.3C160,201.1,156.2,201.1,156.2,201.1z"/>
	<path class="st8" d="M145.8,200.5c0,0,1.8,0.1,2.7,0.5C149.5,201.5,145.8,200.5,145.8,200.5z"/>
	<path class="st53" d="M139.4,156.9c0,0,0.3,5.4,0.1,6.4c0,0,0.6,4.4,1.1,5.5c0.5,0.9,1,1.7,1.6,2.5l1.5-10.8l-0.4-3.7L139.4,156.9z
		"/>
	<circle class="st53" cx="155.5" cy="126.2" r="6"/>
	<path class="st53" d="M152.4,129c0,0-1.9,3.7-3.7,5.4s11.2,3.7,11.5,3.7c0.3,0-2.3-7.8-1.9-8.7C158.7,128.3,152.4,129,152.4,129z"
		/>
	<path class="st8" d="M165.6,170.6c-0.3,0.2-0.6,0.4-1,0.5c-2.4,0.9-5,2.2-6.7,1.7c-1.8-0.5-5.5,0-5.5,0s-7.5-0.6-9-0.3
		c-0.5,0.2-1,0.2-1.6,0c0.1-0.6,0.1-1,0.1-1s22.3-3.6,23.2-2.8C165.4,169,165.5,169.7,165.6,170.6z"/>
	<path class="st6" d="M167.2,167.2c0,0-0.2,2.6-2.6,3.5c-2.4,0.9-5,2.2-6.7,1.7s-5.5,0-5.5,0s-7.5-0.6-9-0.3
		c-1.5,0.4-2.3-0.1-1.8-0.8c0.5-0.7,0.4-2.9,0.4-3.8s-0.5-4.7-0.1-5.4c0.5-0.7,0.9-3.3,1.8-3.7c0.3-0.1,0.5-0.4,0.6-0.7
		c0.1-0.3,0.1-0.6,0-0.9c0,0-0.2-0.1-0.4-0.3c-0.5-0.5-1.5-1.4-1.2-1.7c0.4-0.4,0-3.1,0-3.1s-1-2.1-0.6-2.9c0.4-0.8-3.2-4.9-3.2-4.9
		s0-7.1,4.3-7.4c0,0,3,0.1,3.4-1.2c0.4-1.3,2.8-2.1,2.8-2.1l5.4,1.2c0,0,4.8,1,5.7,0.4s1.5,0.8,1.5,0.8s3,0.2,3.3,0.8
		c0.3,0.6-1,6.7-1,6.7s-2.2-0.2-2,2.1c0.2,2.3-0.8,5.3-0.8,5.3s-0.2,1.7-0.1,2.1c0.1,0.4-0.2,1.6-0.3,1.8v0c0,0-0.2,0.9,0.1,1.2
		c0,0,0.1,0.1,0.1,0.1c0.4,0.2,1,2.2,1,2.2c0.3,0.4,0.5,0.9,0.5,1.4c-0.1,0.8,0.3,2.8,1.6,3.9S167.2,167.2,167.2,167.2z"/>
	<path class="st6" d="M144.1,155.1v0.2l-0.1,2.4c0,0-3.2,0.3-4.9-0.2c-1.7-0.4-1-2.4-0.9-2.8l0,0c0.1-0.4,0.5-3.4,0.5-3.9
		c0-0.5,0-2.5-0.1-3.5c-0.1-0.9,0.4-3.5,0.4-3.5l0.3-0.4l3.7,1.4L144.1,155.1z"/>
	<path class="st8" d="M144.1,155.4l-0.1,2.4c0,0-3.2,0.3-4.9-0.2c-1.7-0.4-1-2.4-0.9-2.8L144.1,155.4z"/>
	<path class="st8" d="M144.3,157.8c0.1-0.3,0.1-0.6,0-0.9c0,0-0.2-0.1-0.4-0.3c2.8-0.4,13.6-1.9,17.3-2v0c0,0-0.2,0.9,0.1,1.2
		L144.3,157.8z"/>
	<path class="st8" d="M161.6,159.7c0,0,0.7,3.8-1.8,5.2C159.8,164.8,161.2,162.9,161.6,159.7z"/>
	<path class="st8" d="M145.1,164.9c0,0,6.1-1,7.3-0.2S145.1,164.9,145.1,164.9z"/>
	<path class="st8" d="M159.5,141.3c0,0-0.9,3.8-0.2,4.7C160,146.9,159.5,141.3,159.5,141.3z"/>
	<path class="st8" d="M141.9,138.1c0,0,0.9,1.4,0.3,2.9S141.9,138.1,141.9,138.1z"/>
	<path class="st6" d="M140.2,150.7c0,0,1.1,0.7,0.7,1.7S140.2,150.7,140.2,150.7z"/>
	<path class="st8" d="M140.1,147.7c0,0,1,0.5,1.1,1.3C141.3,149.8,140.1,147.7,140.1,147.7z"/>
	<path class="st8" d="M155.1,178.7c0,0,6.4,0.7,7.6-0.9C162.7,177.9,156.9,179,155.1,178.7z"/>
	<path class="st8" d="M144.1,178.4c0,0,6.8,1.6,8.2,0.3C152.2,178.7,146.4,179.1,144.1,178.4z"/>
	<path class="st8" d="M155.5,180.8c0,0,2.9,0,4.2,0.1C161,181,155.5,180.8,155.5,180.8z"/>
	<path class="st8" d="M144.5,182.1c0,0,1.4,1.6,3,1.3C149.1,183.1,144.5,182.1,144.5,182.1z"/>
	<path class="st55" d="M147.3,117.2c-0.4,0.7-0.5,1.5-0.6,2.2c-0.3,1.9-1.2,3.6-2.5,4.9c-1.2,1.3-3,2.5-3.3,4.1
		c-0.3,1.5,0.7,3,1.3,4.5c1.4,3.9-0.6,8.1-1.2,12.1c-0.2,1.1,0,2.6,1.4,2.9c0.4,0.1,0.9,0.1,1.3,0.3c0.5,0.2,0.7,0.8,0.8,1.2
		c0.3,1.7,0.5,3.4,0.4,5.1c-0.1,1-0.1,2.1,0.8,2.7c0.5,0.3,1,0.5,1.5,0.6c1.4,0.4,3.3,0.7,4.2-0.2c0.4-0.4,0.6-0.9,1.1-1.2
		c0.8-0.4,1.8-0.1,2.8-0.1c1.8,0.1,3.5-0.8,4.5-2.4c0.8-1.4,0.7-2.9,0.4-4.4s-0.8-3-0.8-4.5c0-0.5,0.1-1.1,0.3-1.5
		c0.6-0.9,1.9-1.3,2.8-2c1.7-1.3,1.7-3.5,1.1-5.3c-0.6-1.8-1.8-3.5-1.9-5.4c-0.1-0.5,0-0.9,0.3-1.3c0.3-0.4,0.7-0.7,1.1-1
		c2.5-2.1,2.2-5.6,0.1-8C160.9,118,150.4,112.3,147.3,117.2z"/>
	<g class="st20">
		<path d="M142.6,134.7c0.2-1.6,0.1-3.2-0.4-4.7c-0.3-0.8-0.7-1.5-1-2.3c-0.1,0.3-0.2,0.6-0.3,0.9c-0.3,1.5,0.7,3,1.3,4.5
			C142.3,133.6,142.5,134.1,142.6,134.7z"/>
		<path d="M144.9,151.7c0.1-1.7,0-3.4-0.4-5.1c-0.1-0.5-0.3-1-0.8-1.2c-0.4-0.2-0.9-0.2-1.3-0.3c-0.5-0.1-1-0.5-1.2-1
			c-0.1,0.4-0.1,0.8-0.2,1.2c-0.2,1.1,0,2.6,1.4,2.9c0.4,0.1,0.9,0.1,1.3,0.3c0.5,0.3,0.7,0.8,0.8,1.2c0.2,0.8,0.3,1.6,0.3,2.3
			C144.9,151.9,144.9,151.8,144.9,151.7z"/>
		<path d="M159.7,151.1c-0.9,1.6-2.7,2.5-4.5,2.4c-0.9,0-2-0.3-2.8,0.1c-0.5,0.3-0.7,0.8-1.1,1.2c-1,0.9-2.8,0.6-4.2,0.2
			c-0.5-0.1-1-0.3-1.5-0.6c-0.4-0.3-0.7-0.7-0.7-1.2c0,0.5,0,1.1,0,1.6c-0.1,1-0.1,2.1,0.8,2.7c0.5,0.3,1,0.5,1.5,0.6
			c1.4,0.4,3.3,0.7,4.2-0.2c0.4-0.4,0.6-0.9,1.1-1.2c0.8-0.4,1.8-0.1,2.8-0.1c1.8,0.1,3.5-0.8,4.5-2.4c0.7-1.3,0.7-2.8,0.4-4.3
			C160,150.3,159.9,150.7,159.7,151.1z"/>
		<path d="M163,125.7c-0.4,0.3-0.7,0.6-1,1c-0.2,0.4-0.3,0.9-0.3,1.3c0.1,0.6,0.2,1.1,0.4,1.7c0.3-0.3,0.6-0.6,0.9-0.8
			c1.7-1.4,2.1-3.5,1.6-5.4C164.2,124.3,163.7,125.1,163,125.7z"/>
		<path d="M162.5,138.6c-0.9,0.7-2.3,1.1-2.8,2c-0.3,0.5-0.4,1-0.3,1.5c0,0.6,0.1,1.2,0.2,1.8c0-0.1,0.1-0.1,0.1-0.2
			c0.6-0.9,1.9-1.3,2.8-2c1.6-1.2,1.7-3.1,1.2-4.8C163.5,137.6,163,138.2,162.5,138.6z"/>
	</g>
	<path class="st6" d="M174.3,139.3c-1.1,2.7-2.4,3.8-2.4,3.8h-0.8l-6.7,0.1l-0.8-2.1l1.1-4.6l0.7,0c0.4,0.2,0.8,0.4,1.3,0.4
		c0.5,0,1.4,0,1.7,0.1c0,0,0.1,0,0.1,0c0.3,0,0.5-0.4,0.5-0.4S175.4,136.6,174.3,139.3z"/>
	<path class="st8" d="M174.3,139.3c-1.1,2.7-2.4,3.8-2.4,3.8h-0.8c0.4-1.1,1.2-3.3,1.6-3.8c0.3-0.5-2.5-1.7-4.2-2.3
		c0.3,0,0.5-0.4,0.5-0.4S175.4,136.6,174.3,139.3z"/>
	<text transform="matrix(1 0 0 1 39.3132 26.6045)" class="st56 st57">53a6f9</text>
</g>
</svg>
