<?xml version="1.0" encoding="utf-8"?>
<!-- Generator: Adobe Illustrator 24.0.2, SVG Export Plug-In . SVG Version: 6.00 Build 0)  -->
<svg version="1.1" id="Calque_1" xmlns="http://www.w3.org/2000/svg" xmlns:xlink="http://www.w3.org/1999/xlink" x="0px" y="0px"
	 viewBox="0 0 323 227" style="enable-background:new 0 0 323 227;" xml:space="preserve">
<style type="text/css">
	.st0{opacity:0.1;fill:#53A6F9;enable-background:new    ;}
	.st1{fill:#3F3D56;}
	.st2{opacity:0.1;enable-background:new    ;}
	.st3{fill:#2F2E41;}
	.st4{opacity:0.4;fill:#53A6F9;enable-background:new    ;}
	.st5{opacity:0.8;fill:#53A6F9;enable-background:new    ;}
	.st6{fill:#53A6F9;}
	.st7{fill:url(#SVGID_1_);}
	.st8{fill:#FFFFFF;}
	.st9{fill:#53A6F9;stroke:#53A6F9;stroke-width:4;stroke-miterlimit:10;}
	.st10{fill:url(#SVGID_2_);}
	.st11{fill:url(#SVGID_3_);}
	.st12{clip-path:url(#SVGID_5_);}
	.st13{fill:url(#SVGID_6_);}
	.st14{clip-path:url(#SVGID_8_);}
	.st15{fill:#FBCD98;}
	.st16{fill:#FF5252;}
</style>
<g>
	<g>
		<path class="st0" d="M314.8,72.3c-3.2-7.3-7.4-14.1-12.6-20.2l-175.4-1.7l144.4-20.3c-9.3-3.7-19.3-5.7-29.3-5.8
			c-28.4-22.7-68.3-24-98.1-3.3c-11.6-6-24.5-9.1-37.5-9c-39,0-71.4,27-78.7,62.8L314.8,72.3z"/>
		<path class="st0" d="M321,102.3c0-9.7-1.8-19.3-5.5-28.3l-304,31.9c-3.1,5.7-5.5,11.7-7.1,18l94.1,14L2.3,148.1
			c2.9,40.5,37.6,72.5,80.1,72.5c21.4,0,40.8-8.1,55.1-21.3c14.4,13.5,34,21.8,55.6,21.8c32,0,59.7-18.2,72.6-44.6
			c25.8-8.2,45.9-28.8,52.8-54.5l-119-18.5H321C321,103.1,321,102.7,321,102.3z"/>
	</g>
	<g>
		<ellipse class="st1" cx="271.5" cy="127.4" rx="45.3" ry="6.2"/>
		<ellipse class="st2" cx="271.5" cy="127.4" rx="38.1" ry="5.2"/>
		<rect x="242.9" y="63" class="st3" width="50.4" height="58.7"/>
		<rect x="237.8" y="57.2" class="st1" width="60.6" height="20.8"/>
		<rect x="237.8" y="81.9" class="st1" width="60.6" height="20.8"/>
		<rect x="237.8" y="106.7" class="st1" width="60.6" height="20.8"/>
		<rect x="250" y="60.8" class="st4" width="3.9" height="3.9"/>
		<rect x="244.4" y="60.8" class="st5" width="3.9" height="3.9"/>
		<rect x="238.8" y="60.8" class="st6" width="3.9" height="3.9"/>
		<rect x="250" y="85.3" class="st4" width="3.9" height="3.9"/>
		<rect x="244.4" y="85.3" class="st5" width="3.9" height="3.9"/>
		<rect x="238.8" y="85.3" class="st6" width="3.9" height="3.9"/>
		<rect x="250" y="109.8" class="st4" width="3.9" height="3.9"/>
		<rect x="244.4" y="109.8" class="st5" width="3.9" height="3.9"/>
		<rect x="238.8" y="109.8" class="st6" width="3.9" height="3.9"/>
	</g>
	<g>
		<path class="st6" d="M91.3,117.7c5.4-3.2,11-6,16.7-8.5c5.7-2.5,11.6-4.6,17.7-6.3c6-1.7,12.2-2.9,18.6-3.4
			c1.6-0.2,3.2-0.2,4.8-0.2c1.6,0,3.2,0,4.8,0.1c3.2,0.2,6.4,0.7,9.5,1.4c0.8,0.2,1.6,0.4,2.3,0.6l2.3,0.8l4.4,1.4
			c2.9,1,5.9,1.5,8.8,2.2c6,1,12,1.5,18.1,1.4c6.1-0.1,12.2-0.9,18.2-2.1c6-1.3,11.9-3,17.7-5.4l0.2,0.3c-5.3,3.5-11.1,5.9-17.2,7.8
			c-6.1,1.9-12.3,3-18.7,3.4c-6.4,0.3-12.8-0.3-19-1.6c-3.1-0.9-6.2-1.5-9.2-2.7l-4.5-1.6l-2.1-0.8c-0.7-0.2-1.4-0.4-2.2-0.6
			c-2.9-0.8-5.9-1.4-8.9-1.6c-1.5-0.2-3-0.2-4.6-0.3c-1.5,0-3.1,0-4.6,0.1c-6.1,0.3-12.2,1.3-18.2,2.7c-12,2.9-23.7,7.5-34.7,13.2
			L91.3,117.7z"/>
	</g>
	<g>
		<path d="M89.7,99.6L89,98.3c1.5-1.1,2.5-1.7,2.9-1.9c-0.3-0.6-0.7-1.5-1.3-2.8c-0.8-1.6-1.9-3.9-3.5-6.9c-1.5-3-2.6-5-3-6L81.3,82
			l-0.9-1.4c0.8-0.3,1.9-0.9,3.5-1.6c1.6-0.8,2.8-1.3,3.6-1.7l0.7,1.3c-0.2,0.3-0.6,0.6-1.2,0.9c-0.5,0.3-0.9,0.5-1,0.6
			c0.3,0.5,0.9,1.7,1.9,3.7c1,2,2.1,4.3,3.3,6.7c1.2,2.5,2,4.2,2.6,5.2c0.3-0.1,0.9-0.3,1.7-0.6c0.9-0.3,1.4-0.5,1.6-0.6l0.6,1.4
			c-0.6,0.2-1.4,0.7-2.6,1.2c-0.6,0.3-1.5,0.7-2.7,1.3C91.1,99,90.2,99.4,89.7,99.6z"/>
		<path d="M90.7,76.9l-0.8-1.1l10.5-4.9c0.5-0.2,0.9-0.2,1.4,0c0.4,0.2,0.7,0.5,0.9,0.8c0.1,0.2,0.1,0.5,0,0.7
			c-0.1,0.3-0.4,0.5-0.7,0.7l-4.8,1.6c3.1,6.3,5.8,12.1,8.1,17.3c0.1,0.6-0.2,1-0.6,1.2c-0.3,0.1-0.7,0.1-1.1,0
			c-0.4-0.1-0.8-0.4-1-0.7c-0.4-1-0.9-2.5-1.8-4.6c-0.3-0.8-0.8-1.9-1.4-3.4c-0.6-1.5-1.1-2.6-1.4-3.4c-0.9-2.2-1.6-4.2-2.3-6
			C93.6,75.9,91.9,76.5,90.7,76.9z"/>
		<path d="M105.3,69.7l1.2-0.7c0.2,0.6,0.3,1,0.3,1c0.9-1,2.3-1.9,4.3-2.5c2.1-0.6,3.9-0.4,5.4,0.6c1.5,1,2.5,2.7,3.2,5.1
			c0.6,2.1,0.6,4,0,5.7c-0.6,1.7-2,2.9-4.1,3.5c-0.3,0.1-1.8,0.4-4.3,0.9c0.4,1.4,1.2,3.5,2.1,6.4c0,0.6-0.3,1-0.8,1.2
			c-0.3,0.1-0.7,0.1-1.1-0.1s-0.7-0.5-0.9-0.8c-0.4-1.6-1.3-4.8-2.6-9.4C106.9,75.8,106,72.2,105.3,69.7z M107.7,71.8l2.9,8.8
			c1.2,0.3,2.5,0.2,3.9-0.2c1.3-0.4,2.3-1.2,3-2.5c0.6-1.3,0.7-2.6,0.3-4c-0.5-1.5-1.3-2.8-2.7-3.7c-1.3-1-2.7-1.2-4.2-0.8
			C109.7,69.7,108.7,70.5,107.7,71.8z"/>
		<path d="M134.9,64.6l-1,1.6c-1.7-0.9-3.4-1.2-4.9-0.9c-1,0.2-1.8,0.5-2.4,1.1c-0.6,0.6-1.1,1.2-1.3,2c-0.3,0.7-0.4,1.6-0.4,2.7
			s0,2,0.1,2.7c0.1,0.8,0.2,1.6,0.4,2.6c0.2,1,0.5,2.1,1.1,3.2s1.4,2.2,2.4,3.2c1.1,0.9,2.2,1.3,3.3,1.1c1.3-0.2,3.1-1.2,5.4-2.9
			c0.3,0.3,0.8,0.9,1.3,1.7c-2.2,2.1-4.3,3.3-6.3,3.7c-1.3,0.2-2.5,0-3.7-0.6s-2.2-1.4-3-2.5c-0.8-1.1-1.5-2.2-2-3.5
			c-0.5-1.2-0.9-2.4-1.1-3.6c-0.2-1.3-0.3-2.5-0.3-3.8c0-1.2,0.1-2.5,0.4-3.8c0.3-1.3,0.8-2.4,1.7-3.3c0.8-0.9,1.9-1.5,3.3-1.7
			c1.2-0.2,2.4-0.2,3.7,0C132.8,63.9,134,64.2,134.9,64.6z"/>
		<path d="M154.1,67.4l1.3,0.5c0,0.4,0,1.4-0.1,2.9c0,1.5-0.1,2.5-0.1,2.8l4.6,0.3c0.5,0.1,0.9,0.3,1.2,0.7c0.3,0.4,0.4,0.8,0.4,1.1
			c0,0.3-0.2,0.5-0.4,0.6c-0.2,0.2-0.5,0.2-0.9,0.2c-0.9-0.2-2.5-0.5-4.9-1c0,0.4,0,1.3-0.1,2.5c0,1.2-0.1,2.2-0.1,3.1
			c-0.3,0.6-0.7,0.8-1.2,0.8c-0.4,0-0.7-0.2-1-0.6c-0.3-0.3-0.5-0.7-0.5-1.1c0.1-0.5,0.2-1.3,0.3-2.2c0-0.2,0.1-1.1,0.3-2.8l-5-0.9
			l-0.1-1.3l5.3,0.4c0.1-0.5,0.1-1.3,0.3-2.4C153.7,69.8,153.9,68.5,154.1,67.4z"/>
		<path d="M181.2,90.7l0,1.4c-0.8-0.2-2.2-0.5-4.2-0.9c-2-0.4-3.5-0.7-4.4-0.9c-1.4-0.3-2.4-0.6-2.9-0.9c0.7-2.1,1.7-5.6,2.9-10.6
			c1.2-5,2.2-8.4,2.9-10.3c0.7,0.2,2.4,0.7,5.3,1.4c2.9,0.7,4.7,1.3,5.6,1.6l0,1.4c-0.9-0.1-2.7-0.3-5.4-0.7
			c-2.7-0.4-4.1-0.6-4.3-0.6c-0.1,0.4-0.3,1.4-0.5,2.8c-0.3,1.4-0.5,2.5-0.7,3.4c0.6,0.2,1.8,0.6,3.6,1.2c1.7,0.6,2.8,0.9,3.3,1.1
			l0,1.4c-4.2-0.6-6.7-1-7.4-1.1c-0.2,0.9-0.5,2.1-1,3.9c-0.4,1.7-0.8,3-0.9,3.8C177.4,89.3,180.1,90.3,181.2,90.7z"/>
		<path d="M186.7,93.1l-1.3-0.7c0.5-1.2,1.1-2.4,1.8-3.6c0.7-1.2,1.6-2.6,2.8-4.4c1.2-1.8,1.9-2.9,2.2-3.3c-0.5-0.8-1.5-2.3-3.1-4.5
			c-1.6-2.2-2.7-3.9-3.5-5.2l1.3-0.6c1.7,2,3.9,4.8,6.4,8.5c0.1-0.4,1-1.7,2.6-4s2.6-3.6,2.9-4c0.3-0.5,0.7-0.7,1.1-0.7
			c0.4,0,0.8,0.2,1.1,0.5c0.3,0.3,0.5,0.8,0.5,1.2c-0.1,0.1-1.2,1.6-3.1,4.3c-2,2.7-3.2,4.3-3.7,4.9c0.7,1.1,2,2.9,3.9,5.5
			c1.9,2.6,3.1,4.3,3.7,5.2c0,0.4-0.1,0.7-0.3,0.9c-0.2,0.2-0.4,0.3-0.7,0.3c-0.7,0-1.2-0.3-1.6-1l-6.2-9.1c-0.6,1-1.7,2.6-3.3,4.8
			C188.6,90.2,187.4,91.9,186.7,93.1z"/>
		<path d="M205.4,92.2l-0.3-1.4c1.8-0.6,2.9-1,3.3-1.1c-0.1-0.7-0.3-1.7-0.5-3c-0.3-1.8-0.8-4.3-1.5-7.6c-0.7-3.3-1.2-5.5-1.4-6.6
			l-3,0.4l-0.5-1.6c0.8-0.1,2.1-0.4,3.8-0.7c1.7-0.3,3-0.6,3.9-0.7l0.4,1.4c-0.3,0.2-0.8,0.4-1.4,0.5c-0.6,0.1-1,0.2-1.1,0.3
			c0.2,0.5,0.5,1.9,0.9,4.1c0.4,2.2,0.9,4.7,1.4,7.3c0.5,2.7,0.9,4.6,1.1,5.7c0.3,0,0.9,0,1.8-0.1s1.5-0.1,1.7-0.1l0.2,1.5
			c-0.6,0.1-1.5,0.3-2.8,0.5c-0.7,0.1-1.7,0.3-3,0.6C206.9,92,206,92.1,205.4,92.2z"/>
		<path d="M220.6,88.9l-2.7,0.7c-0.5-2.1-1.6-5.6-3.3-10.5s-2.7-8.3-3.2-10.2c0.7-0.2,2.4-0.7,5.2-1.7c2.8-0.9,4.6-1.5,5.5-1.7
			l0.8,1.2c-0.8,0.5-2.4,1.2-4.9,2.3c-2.5,1.1-3.8,1.7-3.9,1.8c0.2,0.4,0.5,1.3,1.1,2.6c0.5,1.3,1,2.4,1.3,3.2
			c0.7-0.2,1.9-0.5,3.6-0.9c1.8-0.5,2.9-0.8,3.3-0.9l0.7,1.2c-3.9,1.8-6.2,2.8-6.8,3l0.2,0.5c0.3,0.7,0.7,2.2,1.5,4.5
			c0.7,2.3,1.2,3.7,1.5,4.4L220.6,88.9z"/>
	</g>
	<g>
		
			<linearGradient id="SVGID_1_" gradientUnits="userSpaceOnUse" x1="206.4454" y1="614.033" x2="206.4454" y2="699.392" gradientTransform="matrix(0.9902 0.1399 0.1399 -0.9902 -204.1577 776.418)">
			<stop  offset="0" style="stop-color:#808080;stop-opacity:0.25"/>
			<stop  offset="0.54" style="stop-color:#808080;stop-opacity:0.12"/>
			<stop  offset="1" style="stop-color:#808080;stop-opacity:0.1"/>
		</linearGradient>
		<polygon class="st7" points="49,192.1 61,107.5 135.2,118 123.2,202.5 		"/>
		
			<rect x="51.3" y="118" transform="matrix(0.1399 -0.9902 0.9902 0.1399 -73.7384 224.2017)" class="st8" width="81.8" height="73.2"/>
		
			<rect id="_x31_5fa7734-96da-431a-a67f-b368dfbdb931" x="63.9" y="112" transform="matrix(0.1399 -0.9902 0.9902 0.1399 -63.3883 217.2976)" class="st6" width="59" height="66.2"/>
		
			<rect id="_x36_968f8e0-9aea-4d3d-90e1-4904e891fc16" x="63.9" y="112" transform="matrix(0.1399 -0.9902 0.9902 0.1399 -63.3883 217.2976)" class="st9" width="59" height="66.2"/>
		
			<linearGradient id="SVGID_2_" gradientUnits="userSpaceOnUse" x1="75.6754" y1="783.2029" x2="75.6754" y2="868.562" gradientTransform="matrix(1 0 0 -1 0 988)">
			<stop  offset="0" style="stop-color:#808080;stop-opacity:0.25"/>
			<stop  offset="0.54" style="stop-color:#808080;stop-opacity:0.12"/>
			<stop  offset="1" style="stop-color:#808080;stop-opacity:0.1"/>
		</linearGradient>
		<rect x="38.2" y="119.4" class="st10" width="74.9" height="85.4"/>
		<rect x="39.1" y="120.7" class="st8" width="73.2" height="81.8"/>
		
			<linearGradient id="SVGID_3_" gradientUnits="userSpaceOnUse" x1="75.4767" y1="797.1926" x2="75.4767" y2="857.9207" gradientTransform="matrix(1 0 0 -1 0 988)">
			<stop  offset="0" style="stop-color:#808080;stop-opacity:0.25"/>
			<stop  offset="0.54" style="stop-color:#808080;stop-opacity:0.12"/>
			<stop  offset="1" style="stop-color:#808080;stop-opacity:0.1"/>
		</linearGradient>
		<rect x="41.9" y="122.1" class="st11" width="67.1" height="60.7"/>
		<g>
			<defs>
				<rect id="SVGID_4_" x="41.9" y="122.1" width="67.1" height="60.7"/>
			</defs>
			<clipPath id="SVGID_5_">
				<use xlink:href="#SVGID_4_"  style="overflow:visible;"/>
			</clipPath>
			<g class="st12">
				
					<linearGradient id="SVGID_6_" gradientUnits="userSpaceOnUse" x1="228.1807" y1="735.6526" x2="228.1807" y2="783.2707" gradientTransform="matrix(1 0 0 -1 -147.54 924.76)">
					<stop  offset="0" style="stop-color:#808080;stop-opacity:0.25"/>
					<stop  offset="0.54" style="stop-color:#808080;stop-opacity:0.12"/>
					<stop  offset="1" style="stop-color:#808080;stop-opacity:0.1"/>
				</linearGradient>
				<path class="st13" d="M56.4,157.3c2.2,2.4,4,5.4,6.9,6.8c4.2,2,9.4,0,12.9-3.2c3.5-3.2,5.9-7.4,9.2-10.8
					c9.5-9.7,25.6-11.2,37.4-4.7c1.7,0.9,3.3,2,4.5,3.6c1.6,2,2.2,4.5,2.7,7c1.1,5.6,1.6,11.2,1.4,16.9c-0.1,3.9-0.9,8.2-4,10.3
					c-1,0.7-2.2,1-3.3,1.4c-17.1,5-35.2,4.7-53,3.9c-13.3-0.6-26.7-1.4-39.3-5.4c-0.6-0.2-1.2-0.4-1.6-0.9c-0.4-0.6-0.4-1.3-0.4-2
					c0.2-2.3,0.9-4.5,1.4-6.8c1.1-4.7,1.4-9.5,1-14.3c-0.4-4.2-2.7-7.8,2.2-9C42.1,148.5,51.1,151.5,56.4,157.3z"/>
			</g>
		</g>
		<rect id="_x36_b8b7763-08eb-41e9-84db-926332f3d231" x="42.4" y="122.6" class="st8" width="66.2" height="59"/>
		<g>
			<defs>
				<rect id="SVGID_7_" x="42.4" y="122.6" width="66.2" height="59"/>
			</defs>
			<clipPath id="SVGID_8_">
				<use xlink:href="#SVGID_7_"  style="overflow:visible;"/>
			</clipPath>
			<g class="st14">
				<path class="st15" d="M56.7,156.8c2.2,2.4,3.9,5.3,6.8,6.6c4.2,2,9.3,0,12.7-3.1c3.4-3.1,5.9-7.2,9.1-10.5
					c9.4-9.5,25.2-10.9,36.9-4.5c1.7,0.9,3.3,2,4.5,3.5c1.5,1.9,2.2,4.4,2.7,6.8c1.1,5.4,1.6,10.9,1.4,16.4c-0.1,3.8-0.8,8-4,10.1
					c-1,0.6-2.1,1-3.3,1.3c-16.9,4.9-34.8,4.6-52.3,3.8c-13.1-0.6-26.3-1.3-38.8-5.3c-0.6-0.2-1.2-0.4-1.6-0.9
					c-0.4-0.5-0.4-1.3-0.4-2c0.2-2.2,0.9-4.4,1.4-6.6c1.1-4.5,1.4-9.2,1-13.9c-0.3-4.1-2.7-7.6,2.1-8.7
					C42.6,148.2,51.5,151.1,56.7,156.8z"/>
			</g>
		</g>
		<circle class="st16" cx="50.6" cy="130.8" r="4.8"/>
		<rect x="86.2" y="162.3" class="st9" width="2.3" height="17.4"/>
		<polygon class="st9" points="94.7,161.5 92.6,160.2 94.4,160.6 93.4,157.1 90.9,155.6 93.1,156 91.6,151.2 89.1,149.7 91.2,150.1 
			89.8,145.5 87.3,143.9 89.5,144.3 87.3,137.2 85.7,142.4 87.3,141.9 85.4,143.3 84.3,147.2 87.3,146.4 83.8,148.9 82.5,153 
			85.7,152.2 82,154.9 81,158.1 83.5,157.4 80.6,159.5 78.9,164.9 95.8,164.9 		"/>
		<rect x="39.1" y="191.9" class="st6" width="73.2" height="10.6"/>
	</g>
	<g>
		<path class="st6" d="M223.4,97.1c1.1-0.2,2.1-0.2,3.1-0.2c1,0,2,0.1,3,0.2c2,0.2,3.9,0.6,5.8,1.1l1.9,0.5l-0.5,1.9
			c-0.3,0.9-0.5,1.9-0.9,2.8c-0.3,0.9-0.7,1.8-1.1,2.8c-0.4,0.9-0.8,1.8-1.3,2.7c-0.5,0.9-1,1.7-1.7,2.6c-0.2-1.1-0.2-2.1-0.2-3.1
			c0-1,0.1-2,0.2-3c0.1-1,0.3-2,0.5-2.9c0.2-1,0.4-1.9,0.7-2.9l1.4,2.5c-1.9-0.5-3.7-1.2-5.6-2c-0.9-0.4-1.8-0.8-2.7-1.3
			C225.1,98.4,224.2,97.8,223.4,97.1z"/>
	</g>
</g>
</svg>
