<?xml version="1.0" encoding="utf-8"?>
<!-- Generator: Adobe Illustrator 24.0.2, SVG Export Plug-In . SVG Version: 6.00 Build 0)  -->
<svg version="1.1" id="Calque_1" xmlns="http://www.w3.org/2000/svg" xmlns:xlink="http://www.w3.org/1999/xlink" x="0px" y="0px"
	 viewBox="0 0 307 278" style="enable-background:new 0 0 307 278;" xml:space="preserve">
<style type="text/css">
	.st0{opacity:0.3;fill:#FF7700;}
	.st1{fill:#3F3D56;}
	.st2{fill:url(#SVGID_1_);}
	.st3{fill:#F5F5F5;}
	.st4{fill:url(#SVGID_2_);}
	.st5{fill:#F4F4F4;}
	.st6{fill:#FFFFFF;}
	.st7{fill:url(#SVGID_3_);}
	.st8{fill:#F7F7F7;}
	.st9{fill:url(#SVGID_4_);}
	.st10{fill:#FAFAFA;}
	.st11{fill:url(#SVGID_5_);}
	.st12{fill:url(#SVGID_6_);}
	.st13{fill:url(#SVGID_7_);}
	.st14{clip-path:url(#SVGID_9_);}
	.st15{fill:#FF7700;}
	.st16{fill:#FFB9B9;}
	.st17{fill:#2F2E41;}
	.st18{opacity:0.1;enable-background:new    ;}
	.st19{fill:#575A89;}
	.st20{fill:url(#SVGID_10_);}
	.st21{fill:url(#SVGID_11_);}
	.st22{fill:url(#SVGID_12_);}
	.st23{fill:url(#SVGID_13_);}
	.st24{fill:url(#SVGID_14_);}
	.st25{fill:url(#SVGID_15_);}
	.st26{fill:url(#SVGID_16_);}
	.st27{clip-path:url(#SVGID_18_);}
	.st28{fill:url(#SVGID_19_);}
	.st29{fill:url(#SVGID_20_);}
	.st30{fill:url(#SVGID_21_);}
	.st31{fill:url(#SVGID_22_);}
	.st32{fill:url(#SVGID_23_);}
	.st33{fill:url(#SVGID_24_);}
	.st34{fill:url(#SVGID_25_);}
	.st35{clip-path:url(#SVGID_27_);}
	.st36{fill:url(#SVGID_28_);}
	.st37{fill:url(#SVGID_29_);}
	.st38{fill:url(#SVGID_30_);}
	.st39{fill:url(#SVGID_31_);}
	.st40{fill:url(#SVGID_32_);}
	.st41{fill:url(#SVGID_33_);}
	.st42{fill:url(#SVGID_34_);}
	.st43{clip-path:url(#SVGID_36_);}
</style>
<g>
	<path class="st0" d="M172,37.6c-18.5-0.6-36.1-6.6-52.9-13.2S85.6,10.7,67.6,7.2C56,5,42.7,4.6,33.4,10.9c-9,6-11.9,16.3-13.5,25.9
		c-1.2,7.2-1.9,14.8,1.3,21.6c2.3,4.7,6.2,8.6,9,13.2c9.5,15.6,2.8,34.9-7.5,50.2c-4.8,7.2-10.5,14-14.2,21.6S3,159.6,6.3,167.4
		c3.3,7.7,11,13.5,19.4,17.5c17.1,8.3,37.1,10.6,56.7,12c43.4,3,87,1.7,130.4,0.4c16.1-0.5,32.2-1,48.1-3.5
		c8.8-1.4,17.9-3.6,24.2-8.9c8.1-6.7,10.1-18.1,4.6-26.5c-9.1-14.1-34.3-17.7-40.6-32.8c-3.5-8.3,0.1-17.7,5.2-25.4
		c10.9-16.6,29.2-31.2,30.2-50.2c0.7-13.1-8.1-26.1-21.7-32.2c-14.3-6.4-34.1-5.6-44.6,5C207.3,33.9,188.3,38.1,172,37.6z"/>
	<polygon class="st1" points="268.2,152.1 267.6,152.1 267.6,123.3 125.2,123.3 125.2,152.1 124.6,152.1 124.6,122.7 268.2,122.7 	
		"/>
	
		<linearGradient id="SVGID_1_" gradientUnits="userSpaceOnUse" x1="152.1491" y1="-93.2558" x2="152.1491" y2="-131.3842" gradientTransform="matrix(1 0 0 1 0 297.8943)">
		<stop  offset="0" style="stop-color:#808080;stop-opacity:0.25"/>
		<stop  offset="0.54" style="stop-color:#808080;stop-opacity:0.12"/>
		<stop  offset="1" style="stop-color:#808080;stop-opacity:0.1"/>
	</linearGradient>
	<polygon class="st2" points="152.8,204.6 143.4,204.6 143.4,166.5 160.9,166.5 	"/>
	<polygon class="st3" points="152.3,204.6 143.1,204.6 143.1,166.5 160.2,166.5 	"/>
	
		<linearGradient id="SVGID_2_" gradientUnits="userSpaceOnUse" x1="309.02" y1="-29.1166" x2="312.7266" y2="-53.3314" gradientTransform="matrix(1.0077 -0.1467 0.1494 1.0173 -188.5202 243.4833)">
		<stop  offset="0" style="stop-color:#808080;stop-opacity:0.25"/>
		<stop  offset="0.54" style="stop-color:#808080;stop-opacity:0.12"/>
		<stop  offset="1" style="stop-color:#808080;stop-opacity:0.1"/>
	</linearGradient>
	<polygon class="st4" points="97.8,154.1 135.4,143.6 139.4,158 101.8,168.5 	"/>
	
		<rect x="99.5" y="148.7" transform="matrix(0.9631 -0.2693 0.2693 0.9631 -37.6164 37.7187)" class="st5" width="38.4" height="14.5"/>
	
		<rect x="109.6" y="155" transform="matrix(0.9631 -0.2693 0.2693 0.9631 -37.6017 36.5383)" class="st3" width="9.6" height="0.7"/>
	
		<rect x="110.3" y="157.8" transform="matrix(0.9631 -0.2693 0.2693 0.9631 -38.3345 36.8469)" class="st6" width="9.6" height="0.7"/>
	
		<rect x="109.9" y="155.6" transform="matrix(0.9631 -0.2693 0.2693 0.9631 -37.6509 37.4376)" class="st6" width="15.5" height="0.7"/>
	<circle class="st6" cx="106.1" cy="159.1" r="1.7"/>
	
		<linearGradient id="SVGID_3_" gradientUnits="userSpaceOnUse" x1="363.0898" y1="-19.6283" x2="363.0898" y2="-47.5639" gradientTransform="matrix(1.003 4.084946e-05 -4.084946e-05 1.003 -234.3006 194.1812)">
		<stop  offset="0" style="stop-color:#808080;stop-opacity:0.25"/>
		<stop  offset="0.54" style="stop-color:#808080;stop-opacity:0.12"/>
		<stop  offset="1" style="stop-color:#808080;stop-opacity:0.1"/>
	</linearGradient>
	<polygon class="st7" points="108.9,160.5 145.6,146.8 150.9,161 114.2,174.7 	"/>
	
		<rect x="110.7" y="153.5" transform="matrix(0.9372 -0.3489 0.3489 0.9372 -47.9346 55.4224)" class="st8" width="38.4" height="14.5"/>
	
		<rect x="120.8" y="160.1" transform="matrix(0.9372 -0.3489 0.3489 0.9372 -48.1019 53.9174)" class="st3" width="9.6" height="0.7"/>
	
		<rect x="121.8" y="162.9" transform="matrix(0.9372 -0.3489 0.3489 0.9372 -48.9911 54.434)" class="st6" width="9.6" height="0.7"/>
	
		<rect x="121.8" y="160.8" transform="matrix(0.9372 -0.3489 0.3489 0.9372 -48.0934 55.357)" class="st6" width="15.6" height="0.7"/>
	<circle class="st6" cx="117.7" cy="165" r="1.7"/>
	
		<linearGradient id="SVGID_4_" gradientUnits="userSpaceOnUse" x1="416.1023" y1="-22.8626" x2="417.4938" y2="-44.1648" gradientTransform="matrix(1.0203 -8.235779e-02 6.725177e-02 1.048 -281.0193 236.8721)">
		<stop  offset="0" style="stop-color:#808080;stop-opacity:0.25"/>
		<stop  offset="0.54" style="stop-color:#808080;stop-opacity:0.12"/>
		<stop  offset="1" style="stop-color:#808080;stop-opacity:0.1"/>
	</linearGradient>
	<polygon class="st9" points="121.4,171.5 124.1,156.4 162.6,163.3 159.9,178.4 	"/>
	
		<rect x="134.6" y="148.1" transform="matrix(0.1754 -0.9845 0.9845 0.1754 -47.7211 277.6457)" class="st10" width="14.5" height="38.4"/>
	<rect x="138" y="160" transform="matrix(0.1754 -0.9845 0.9845 0.1754 -48.2138 272.1248)" class="st3" width="0.7" height="9.6"/>
	
		<rect x="137.3" y="164.5" transform="matrix(0.1807 -0.9835 0.9835 0.1807 -53.7183 274.0611)" class="st6" width="0.7" height="9.6"/>
	
		<rect x="140.6" y="159.1" transform="matrix(0.1754 -0.9845 0.9845 0.1754 -48.0056 276.3725)" class="st6" width="0.7" height="15.5"/>
	<circle class="st6" cx="129.2" cy="164.7" r="1.7"/>
	
		<linearGradient id="SVGID_5_" gradientUnits="userSpaceOnUse" x1="125.2965" y1="-92.5916" x2="125.2965" y2="-136.2333" gradientTransform="matrix(1 0 0 1 0 297.8943)">
		<stop  offset="0" style="stop-color:#808080;stop-opacity:0.25"/>
		<stop  offset="0.54" style="stop-color:#808080;stop-opacity:0.12"/>
		<stop  offset="1" style="stop-color:#808080;stop-opacity:0.1"/>
	</linearGradient>
	<polygon class="st11" points="113,166.1 106.7,161.7 97.9,161.7 97.9,166.1 97.9,168.3 97.9,205.3 152.7,205.3 152.7,166.1 	"/>
	<polygon class="st6" points="113.3,166.5 107,162.3 98.4,162.3 98.4,166.5 98.4,168.6 98.4,204.6 152.3,204.6 152.3,166.5 	"/>
	
		<linearGradient id="SVGID_6_" gradientUnits="userSpaceOnUse" x1="360.6063" y1="0.8246" x2="360.6063" y2="-19.7157" gradientTransform="matrix(1 0 0 1 -235.26 195.4442)">
		<stop  offset="0" style="stop-color:#B3B3B3;stop-opacity:0.25"/>
		<stop  offset="0.54" style="stop-color:#B3B3B3;stop-opacity:0.1"/>
		<stop  offset="1" style="stop-color:#B3B3B3;stop-opacity:5.000000e-02"/>
	</linearGradient>
	<path class="st12" d="M140.1,195.6c0,0.3-0.3,0.6-0.6,0.6l0,0h-28.2c-0.3,0-0.6-0.3-0.6-0.6v-19.2c0-0.3,0.3-0.6,0.6-0.6h28.2
		c0.3,0,0.6,0.3,0.6,0.6l0,0"/>
	<path class="st6" d="M139.8,195.3c0,0.3-0.3,0.6-0.6,0.6h-27.5c-0.3,0-0.6-0.3-0.6-0.6v-18.6c0-0.3,0.3-0.6,0.6-0.6h27.5
		c0.3,0,0.6,0.3,0.6,0.6"/>
	
		<linearGradient id="SVGID_7_" gradientUnits="userSpaceOnUse" x1="125.3951" y1="-102.7547" x2="125.3951" y2="-120.9523" gradientTransform="matrix(1 0 0 1 0 297.8943)">
		<stop  offset="0" style="stop-color:#B3B3B3;stop-opacity:0.25"/>
		<stop  offset="0.54" style="stop-color:#B3B3B3;stop-opacity:0.1"/>
		<stop  offset="1" style="stop-color:#B3B3B3;stop-opacity:5.000000e-02"/>
	</linearGradient>
	<path class="st13" d="M112.9,177h25c0.4,0,0.8,0.3,0.8,0.8v16.6c0,0.4-0.3,0.8-0.8,0.8h-25c-0.4,0-0.8-0.3-0.8-0.8v-16.6
		C112.1,177.3,112.4,177,112.9,177z"/>
	<path class="st6" d="M113.2,177.4h24.3c0.4,0,0.8,0.3,0.8,0.8v15.7c0,0.4-0.3,0.8-0.8,0.8h-24.3c-0.4,0-0.8-0.3-0.8-0.8v-15.7
		C112.4,177.7,112.8,177.4,113.2,177.4z"/>
	<g>
		<g>
			<g>
				<g>
					<g>
						<defs>
							<path id="SVGID_8_" d="M113.2,177.4h24.3c0.4,0,0.8,0.3,0.8,0.8v15.7c0,0.4-0.3,0.8-0.8,0.8h-24.3c-0.4,0-0.8-0.3-0.8-0.8
								v-15.7C112.4,177.7,112.8,177.4,113.2,177.4z"/>
						</defs>
						<clipPath id="SVGID_9_">
							<use xlink:href="#SVGID_8_"  style="overflow:visible;"/>
						</clipPath>
						<g class="st14">
							<path class="st15" d="M110.9,194.5l7.3-8.3c0.5-0.6,1.4-0.6,2-0.1l0,0l2,1.8c0.5,0.5,1.3,0.5,1.9,0l6.2-5.2
								c0.6-0.5,1.5-0.4,2,0.1l7.6,8.4c0.2,0.2,0.3,0.5,0.3,0.8l0.3,3.3c0.1,0.8-0.5,1.5-1.3,1.6H112c-0.8,0-1.4-0.6-1.4-1.4l0,0
								C110.6,195.1,110.7,194.7,110.9,194.5z"/>
						</g>
					</g>
				</g>
			</g>
		</g>
	</g>
	<circle class="st15" cx="115.5" cy="180.1" r="1.6"/>
	<rect x="196.1" y="100.5" class="st1" width="0.6" height="51.6"/>
	<rect x="37.4" y="273" class="st1" width="147" height="0.6"/>
	<path class="st16" d="M104.7,160.8c0,0,6.7,13.9,2.3,14.4c-4.5,0.5-5.5-12.5-5.5-12.5L104.7,160.8z"/>
	<polygon class="st16" points="79.4,249.8 83.8,257.6 75.7,262.7 73.8,253.4 	"/>
	<path class="st17" d="M81.3,258.7c0,0,2.5-4,3.3-3.3c0.9,0.6,4.5,3.6,4.5,3.6l4.7,4.6c0,0,16,1.7,5.8,7.3
		c-10.2,5.6-15.8,0.9-15.8,0.9s-14.2,0.7-14-3.2c0.2-4,4.8-10.3,4.8-10.3S80.5,262.2,81.3,258.7z"/>
	<path class="st18" d="M81.3,258.7c0,0,2.5-4,3.3-3.3c0.9,0.6,4.5,3.6,4.5,3.6l4.7,4.6c0,0,16,1.7,5.8,7.3
		c-10.2,5.6-15.8,0.9-15.8,0.9s-14.2,0.7-14-3.2c0.2-4,4.8-10.3,4.8-10.3S80.5,262.2,81.3,258.7z"/>
	<path class="st17" d="M59.6,160.6l4.2,50.5c0,0,0.1,30.2,4.6,36c4.5,5.8,4.6,8.8,4.6,8.8l9.2-4.7c0,0-3.1-0.3-1.7-2.3
		c1.4-1.9,5.5,0,1.7-2.8c-3.9-2.8-4.7-2.9-3.8-4.1c0.6-0.8,1-1.7,1.3-2.6l-2.5-31.1l4.7-54.2L59.6,160.6z"/>
	<path class="st18" d="M59.6,160.6l4.2,50.5c0,0,0.1,30.2,4.6,36c4.5,5.8,4.6,8.8,4.6,8.8l9.2-4.7c0,0-3.1-0.3-1.7-2.3
		c1.4-1.9,5.5,0,1.7-2.8c-3.9-2.8-4.7-2.9-3.8-4.1c0.6-0.8,1-1.7,1.3-2.6l-2.5-31.1l4.7-54.2L59.6,160.6z"/>
	<polygon class="st16" points="71,249.8 67.1,260 56,255.9 63,248.6 	"/>
	<path class="st17" d="M65.5,255.6c0,0,4.2-2.6,4.7-1.6c0.5,1,2.6,5.4,2.6,5.4l2.4,6.5c0,0,14.3,9.1,2.1,9.6
		c-12.2,0.5-15.3-6.4-15.3-6.4s-13.8-6-11.7-9.6c2.1-3.7,9.3-7.4,9.3-7.4S63.2,258.5,65.5,255.6z"/>
	<path class="st17" d="M95,160.8l2.3,46.5c0,0-10.8,30.9-20.3,35.9c0,0,0,6.1-2.3,7.2c-1.3,0.7-2.4,1.9-2.8,3.3l-12.2-3.1
		c0,0,3.1-3.1,1.9-4.5c-1.1-1.4,3.6-4.5,3.6-4.5l12.2-29.8c0,0,1.9-0.8,2.5-3.6c0.5-2.8,1.7-2.8-1.1-3.3c-2.8-0.5-2.8-3.3-2.8-3.3
		l-9.2-42.3L95,160.8z"/>
	<ellipse class="st16" cx="84.9" cy="76.8" rx="11.2" ry="11.2"/>
	<path class="st16" d="M75,77.5c0,0-0.8,14.2-1.9,15.6c-1.1,1.4,11.7,1.1,11.7,1.1s-0.8-12,0-13.1C85.6,80,75,77.5,75,77.5z"/>
	<path class="st19" d="M71.3,88.7c0,0,10.6-1.1,14.4,2.3c1.3,1,2.6,2,4,2.9c2.4,1.4,3.9,4,4,6.8l2.1,63.2c0,0-31.4-2.8-37.3,0
		c0,0-0.3-6.4-0.8-7.2c-0.4-0.6-1.1-24.9-1.5-38c-0.2-7.4,2.4-14.6,7.3-20.2c1.7-1.9,3.6-3.4,5.5-4.2C69.1,94.3,68.5,89,71.3,88.7z"
		/>
	<path class="st19" d="M88.3,94.3L88.3,94.3c3.2,0.8,5.5,3.6,6,6.8l4,28.2l5.5,22.5c0,0,2.8,2.5,1.7,3.9c-1.1,1.4,1.4,7.2,1.4,7.2
		l-7,2.3c0,0-0.8-5.8-2.3-6.1c-1.2-0.2-14.9-36.8-18.2-45.6l-0.7-1.9C78.8,111.5,79.4,92.9,88.3,94.3z"/>
	<path class="st18" d="M79,111.4l16.8,45.5C95.8,156.9,79.5,126.2,79,111.4z"/>
	<path class="st17" d="M79.1,80.1c0.9-0.1,1.9,0.3,2.8,0.4c3.3,0.4,6.8-2,7.6-5.2c0.1-0.4,0.2-0.8,0.4-1.3c0.5-0.8,1.7-1,2.7-0.8
		c0.9,0.2,1.9,0.6,2.9,0.7c1.5,0.1,3-0.8,3.8-2.1c0.8-1.3,1.1-2.9,0.9-4.4L99.4,68c-0.3-0.6-0.4-1.3-0.3-2c-0.8-0.2-1.6,0-2.2,0.6
		c-0.6,0.1-0.2-1.2-0.6-1.6c-0.2-0.1-0.5-0.2-0.8-0.1c-1.4,0-2.5-1-3.6-1.9c-1.9-1.5-4.1-2.5-6.3-2.9c-1.5-0.3-3.2-0.3-4.6,0.2
		c-1.2,0.5-2.3,1.3-3.1,2.3c-2.3,2.2-4.3,4.8-5.2,7.8c-0.8,2.5-0.8,5.1-0.1,7.6c0.4,1.3,1.5,5.7,3.2,5.8
		C77.7,83.9,76.5,80.2,79.1,80.1z"/>
	<path class="st1" d="M44.4,273.5l-0.3-0.1c-0.1,0-6.6-2.5-9.6-8.2c-3.1-5.6-1.6-12.5-1.6-12.6l0.1-0.3l0.3,0.1
		c0.1,0,6.6,2.5,9.6,8.2c3,5.6,1.6,12.5,1.6,12.6L44.4,273.5z M35,264.9c2.6,4.8,7.7,7.3,9.1,7.8c0.2-1.4,1-7.1-1.6-11.9
		c-2.6-4.8-7.7-7.2-9.1-7.8C33.2,254.5,32.4,260.1,35,264.9z"/>
	<path class="st15" d="M36.8,263.2c5.5,3.3,7.6,9.9,7.6,9.9s-6.8,1.2-12.3-2.1c-5.5-3.3-7.6-9.9-7.6-9.9S31.3,259.9,36.8,263.2z"/>
	
		<linearGradient id="SVGID_10_" gradientUnits="userSpaceOnUse" x1="223.6066" y1="-198.3746" x2="223.6066" y2="-236.4698" gradientTransform="matrix(1 0 0 1 0 297.8943)">
		<stop  offset="0" style="stop-color:#808080;stop-opacity:0.25"/>
		<stop  offset="0.54" style="stop-color:#808080;stop-opacity:0.12"/>
		<stop  offset="1" style="stop-color:#808080;stop-opacity:0.1"/>
	</linearGradient>
	<polygon class="st20" points="224.2,99.5 214.9,99.5 214.9,61.4 232.3,61.4 	"/>
	<polygon class="st3" points="223.8,99.5 214.6,99.5 214.6,61.4 231.7,61.4 	"/>
	
		<linearGradient id="SVGID_11_" gradientUnits="userSpaceOnUse" x1="393.4404" y1="-120.2611" x2="397.1469" y2="-144.476" gradientTransform="matrix(1.0077 -0.1467 0.1494 1.0173 -188.5163 243.4726)">
		<stop  offset="0" style="stop-color:#808080;stop-opacity:0.25"/>
		<stop  offset="0.54" style="stop-color:#808080;stop-opacity:0.12"/>
		<stop  offset="1" style="stop-color:#808080;stop-opacity:0.1"/>
	</linearGradient>
	<polygon class="st21" points="169.2,48.9 206.8,38.4 210.9,52.9 173.3,63.4 	"/>
	
		<rect x="170.9" y="43.6" transform="matrix(0.9631 -0.2693 0.2693 0.9631 -6.6694 53.0744)" class="st5" width="38.4" height="14.5"/>
	<rect x="181" y="49.8" transform="matrix(0.9631 -0.2693 0.2693 0.9631 -6.6536 51.9031)" class="st3" width="9.6" height="0.7"/>
	
		<rect x="181.9" y="52.7" transform="matrix(0.9631 -0.2693 0.2693 0.9631 -7.3816 52.2289)" class="st6" width="9.6" height="0.7"/>
	
		<rect x="181.4" y="50.5" transform="matrix(0.9631 -0.2693 0.2693 0.9631 -6.6992 52.8107)" class="st6" width="15.5" height="0.7"/>
	<circle class="st6" cx="177.6" cy="54" r="1.7"/>
	
		<linearGradient id="SVGID_12_" gradientUnits="userSpaceOnUse" x1="434.3695" y1="-124.7482" x2="434.3695" y2="-152.6837" gradientTransform="matrix(1.003 4.084946e-05 -4.084946e-05 1.003 -234.3076 194.1784)">
		<stop  offset="0" style="stop-color:#808080;stop-opacity:0.25"/>
		<stop  offset="0.54" style="stop-color:#808080;stop-opacity:0.12"/>
		<stop  offset="1" style="stop-color:#808080;stop-opacity:0.1"/>
	</linearGradient>
	<polygon class="st22" points="180.3,55.3 217.1,41.7 222.4,55.9 185.6,69.6 	"/>
	
		<rect x="182.2" y="48.4" transform="matrix(0.9372 -0.3489 0.3489 0.9372 -6.7627 73.7649)" class="st8" width="38.4" height="14.5"/>
	<rect x="192.3" y="55" transform="matrix(0.9372 -0.3489 0.3489 0.9372 -6.9377 72.2378)" class="st3" width="9.6" height="0.7"/>
	
		<rect x="193.3" y="57.7" transform="matrix(0.9372 -0.3489 0.3489 0.9372 -7.8252 72.7664)" class="st6" width="9.6" height="0.7"/>
	
		<rect x="192.8" y="55.4" transform="matrix(0.9372 -0.3489 0.3489 0.9372 -6.8467 73.4715)" class="st6" width="15.6" height="0.7"/>
	<circle class="st6" cx="189.2" cy="59.9" r="1.7"/>
	
		<linearGradient id="SVGID_13_" gradientUnits="userSpaceOnUse" x1="492.358" y1="-117.2138" x2="493.7476" y2="-138.4846" gradientTransform="matrix(1.0203 -8.235779e-02 6.725177e-02 1.048 -281.0202 236.8809)">
		<stop  offset="0" style="stop-color:#808080;stop-opacity:0.25"/>
		<stop  offset="0.54" style="stop-color:#808080;stop-opacity:0.12"/>
		<stop  offset="1" style="stop-color:#808080;stop-opacity:0.1"/>
	</linearGradient>
	<polygon class="st23" points="192.9,66.4 195.5,51.3 234,58.2 231.4,73.2 	"/>
	
		<rect x="206.1" y="43" transform="matrix(0.1754 -0.9845 0.9845 0.1754 114.7225 261.3188)" class="st10" width="14.5" height="38.4"/>
	
		<rect x="209.4" y="54.9" transform="matrix(0.1754 -0.9845 0.9845 0.1754 114.1621 255.7864)" class="st3" width="0.7" height="9.6"/>
	
		<rect x="208.9" y="57.8" transform="matrix(0.1754 -0.9845 0.9845 0.1754 110.8944 257.7001)" class="st6" width="0.7" height="9.6"/>
	
		<rect x="212.1" y="54" transform="matrix(0.1754 -0.9845 0.9845 0.1754 114.4234 260.082)" class="st6" width="0.7" height="15.5"/>
	<ellipse class="st6" cx="200.7" cy="59.7" rx="1.7" ry="1.7"/>
	
		<linearGradient id="SVGID_14_" gradientUnits="userSpaceOnUse" x1="196.7706" y1="-197.7104" x2="196.7706" y2="-241.3521" gradientTransform="matrix(1 0 0 1 0 297.8943)">
		<stop  offset="0" style="stop-color:#808080;stop-opacity:0.25"/>
		<stop  offset="0.54" style="stop-color:#808080;stop-opacity:0.12"/>
		<stop  offset="1" style="stop-color:#808080;stop-opacity:0.1"/>
	</linearGradient>
	<polygon class="st24" points="184.5,61 178.2,56.5 169.4,56.5 169.4,61 169.4,63.2 169.4,100.2 224.1,100.2 224.1,61 	"/>
	<polygon class="st6" points="184.7,61.4 178.5,57.1 169.9,57.1 169.9,61.4 169.9,63.6 169.9,99.5 223.8,99.5 223.8,61.4 	"/>
	
		<linearGradient id="SVGID_15_" gradientUnits="userSpaceOnUse" x1="432.097" y1="-104.2942" x2="432.097" y2="-124.8344" gradientTransform="matrix(1 0 0 1 -235.26 195.4442)">
		<stop  offset="0" style="stop-color:#B3B3B3;stop-opacity:0.25"/>
		<stop  offset="0.54" style="stop-color:#B3B3B3;stop-opacity:0.1"/>
		<stop  offset="1" style="stop-color:#B3B3B3;stop-opacity:5.000000e-02"/>
	</linearGradient>
	<path class="st25" d="M211.6,90.5c0,0.3-0.3,0.6-0.6,0.6l0,0h-28.2c-0.3,0-0.6-0.3-0.6-0.6V71.3c0-0.3,0.3-0.6,0.6-0.6l0,0h28.2
		c0.3,0,0.6,0.3,0.6,0.6l0,0"/>
	<path class="st6" d="M211.2,90.2c0,0.3-0.3,0.6-0.6,0.6h-27.5c-0.3,0-0.6-0.3-0.6-0.6V71.6c0-0.3,0.3-0.6,0.6-0.6l0,0h27.5
		c0.3,0,0.6,0.3,0.6,0.6l0,0"/>
	
		<linearGradient id="SVGID_16_" gradientUnits="userSpaceOnUse" x1="196.8692" y1="-207.8735" x2="196.8692" y2="-226.0712" gradientTransform="matrix(1 0 0 1 0 297.8943)">
		<stop  offset="0" style="stop-color:#B3B3B3;stop-opacity:0.25"/>
		<stop  offset="0.54" style="stop-color:#B3B3B3;stop-opacity:0.1"/>
		<stop  offset="1" style="stop-color:#B3B3B3;stop-opacity:5.000000e-02"/>
	</linearGradient>
	<path class="st26" d="M184.3,71.9h25c0.4,0,0.8,0.3,0.8,0.8v16.6c0,0.4-0.3,0.8-0.8,0.8h-25c-0.4,0-0.8-0.3-0.8-0.8V72.6
		C183.6,72.2,183.9,71.9,184.3,71.9z"/>
	<path class="st6" d="M184.6,72.3H209c0.4,0,0.8,0.3,0.8,0.8v15.7c0,0.4-0.3,0.8-0.8,0.8h-24.3c-0.4,0-0.8-0.3-0.8-0.8V73
		C183.9,72.6,184.2,72.3,184.6,72.3z"/>
	<g>
		<g>
			<g>
				<g>
					<g>
						<defs>
							<path id="SVGID_17_" d="M184.7,72.3H209c0.4,0,0.8,0.3,0.8,0.8v15.7c0,0.4-0.3,0.8-0.8,0.8h-24.3c-0.4,0-0.8-0.3-0.8-0.8V73
								C183.9,72.6,184.2,72.3,184.7,72.3z"/>
						</defs>
						<clipPath id="SVGID_18_">
							<use xlink:href="#SVGID_17_"  style="overflow:visible;"/>
						</clipPath>
						<g class="st27">
							<path class="st15" d="M182.5,89.4l7.2-8.3c0.5-0.6,1.4-0.7,2-0.2c0,0,0,0,0,0l0,0l2,1.8c0.5,0.5,1.3,0.5,1.9,0l6.2-5.2
								c0.6-0.5,1.5-0.4,2,0.1l7.6,8.4c0.2,0.2,0.3,0.5,0.3,0.8l0.3,3.3c0.1,0.8-0.5,1.5-1.3,1.6h-27.2c-0.8,0-1.4-0.6-1.4-1.4l0,0
								C182.1,90,182.2,89.7,182.5,89.4z"/>
						</g>
					</g>
				</g>
			</g>
		</g>
	</g>
	<circle class="st15" cx="187" cy="75" r="1.6"/>
	
		<linearGradient id="SVGID_19_" gradientUnits="userSpaceOnUse" x1="294.4497" y1="-93.2558" x2="294.4497" y2="-131.3842" gradientTransform="matrix(1 0 0 1 0 297.8943)">
		<stop  offset="0" style="stop-color:#808080;stop-opacity:0.25"/>
		<stop  offset="0.54" style="stop-color:#808080;stop-opacity:0.12"/>
		<stop  offset="1" style="stop-color:#808080;stop-opacity:0.1"/>
	</linearGradient>
	<polygon class="st28" points="295.1,204.6 285.7,204.6 285.7,166.5 303.2,166.5 	"/>
	<polygon class="st3" points="294.6,204.6 285.4,204.6 285.4,166.5 302.6,166.5 	"/>
	
		<linearGradient id="SVGID_20_" gradientUnits="userSpaceOnUse" x1="447.2784" y1="-9.1746" x2="450.9813" y2="-33.3859" gradientTransform="matrix(1.0077 -0.1467 0.1494 1.0173 -188.5203 243.4833)">
		<stop  offset="0" style="stop-color:#808080;stop-opacity:0.25"/>
		<stop  offset="0.54" style="stop-color:#808080;stop-opacity:0.12"/>
		<stop  offset="1" style="stop-color:#808080;stop-opacity:0.1"/>
	</linearGradient>
	<polygon class="st29" points="240.1,154.1 277.7,143.6 281.7,158 244.1,168.5 	"/>
	
		<rect x="241.8" y="148.7" transform="matrix(0.9631 -0.2693 0.2693 0.9631 -32.36 76.045)" class="st5" width="38.4" height="14.5"/>
	
		<rect x="251.9" y="154.9" transform="matrix(0.9631 -0.2693 0.2693 0.9631 -32.3326 74.8718)" class="st3" width="9.6" height="0.7"/>
	
		<rect x="252.7" y="157.8" transform="matrix(0.9631 -0.2693 0.2693 0.9631 -33.0745 75.1815)" class="st6" width="9.6" height="0.7"/>
	
		<rect x="252.2" y="155.6" transform="matrix(0.9631 -0.2693 0.2693 0.9631 -32.392 75.7633)" class="st6" width="15.5" height="0.7"/>
	<circle class="st6" cx="248.5" cy="159.1" r="1.7"/>
	
		<linearGradient id="SVGID_21_" gradientUnits="userSpaceOnUse" x1="504.9973" y1="-19.6293" x2="504.9973" y2="-47.5648" gradientTransform="matrix(1.003 4.084946e-05 -4.084946e-05 1.003 -234.2999 194.1826)">
		<stop  offset="0" style="stop-color:#808080;stop-opacity:0.25"/>
		<stop  offset="0.54" style="stop-color:#808080;stop-opacity:0.12"/>
		<stop  offset="1" style="stop-color:#808080;stop-opacity:0.1"/>
	</linearGradient>
	<polygon class="st30" points="251.2,160.5 288,146.8 293.3,161 256.5,174.7 	"/>
	
		<rect x="253" y="153.5" transform="matrix(0.9372 -0.3489 0.3489 0.9372 -38.9895 105.0763)" class="st8" width="38.4" height="14.5"/>
	
		<rect x="263.1" y="160.1" transform="matrix(0.9372 -0.3489 0.3489 0.9372 -39.1628 103.5611)" class="st3" width="9.6" height="0.7"/>
	
		<rect x="264.1" y="162.9" transform="matrix(0.9372 -0.3489 0.3489 0.9372 -40.0519 104.0777)" class="st6" width="9.6" height="0.7"/>
	
		<rect x="263.6" y="160.5" transform="matrix(0.9372 -0.3489 0.3489 0.9372 -39.0735 104.7829)" class="st6" width="15.6" height="0.7"/>
	<circle class="st6" cx="260" cy="165" r="1.7"/>
	
		<linearGradient id="SVGID_22_" gradientUnits="userSpaceOnUse" x1="552.0273" y1="-15.6317" x2="553.4169" y2="-36.9014" gradientTransform="matrix(1.017 -7.659999e-02 6.140000e-02 1.0446 -275.6541 239.3191)">
		<stop  offset="0" style="stop-color:#808080;stop-opacity:0.25"/>
		<stop  offset="0.54" style="stop-color:#808080;stop-opacity:0.12"/>
		<stop  offset="1" style="stop-color:#808080;stop-opacity:0.1"/>
	</linearGradient>
	<polygon class="st31" points="264.3,173.6 267.1,158.6 305.4,165.6 302.6,180.6 	"/>
	
		<rect x="276.9" y="148.2" transform="matrix(0.1754 -0.9845 0.9845 0.1754 69.6111 417.7896)" class="st10" width="14.5" height="38.4"/>
	
		<rect x="280.3" y="160" transform="matrix(0.1754 -0.9845 0.9845 0.1754 69.1534 412.1999)" class="st3" width="0.7" height="9.6"/>
	<rect x="279.8" y="163" transform="matrix(0.1754 -0.9845 0.9845 0.1754 65.8122 414.16)" class="st6" width="0.7" height="9.6"/>
	
		<rect x="282.9" y="159.1" transform="matrix(0.1754 -0.9845 0.9845 0.1754 69.3438 416.4376)" class="st6" width="0.7" height="15.5"/>
	<ellipse class="st6" cx="271.6" cy="164.7" rx="1.7" ry="1.7"/>
	
		<linearGradient id="SVGID_23_" gradientUnits="userSpaceOnUse" x1="267.6303" y1="-92.5916" x2="267.6303" y2="-136.2333" gradientTransform="matrix(1 0 0 1 0 297.8943)">
		<stop  offset="0" style="stop-color:#808080;stop-opacity:0.25"/>
		<stop  offset="0.54" style="stop-color:#808080;stop-opacity:0.12"/>
		<stop  offset="1" style="stop-color:#808080;stop-opacity:0.1"/>
	</linearGradient>
	<polygon class="st32" points="255.3,166.1 249,161.7 240.3,161.7 240.3,166.1 240.3,168.3 240.3,205.3 295,205.3 295,166.1 	"/>
	<polygon class="st6" points="255.6,166.5 249.3,162.3 240.7,162.3 240.7,166.5 240.7,168.6 240.7,204.6 294.6,204.6 294.6,166.5 	
		"/>
	
		<linearGradient id="SVGID_24_" gradientUnits="userSpaceOnUse" x1="502.9401" y1="0.8246" x2="502.9401" y2="-19.7157" gradientTransform="matrix(1 0 0 1 -235.26 195.4442)">
		<stop  offset="0" style="stop-color:#B3B3B3;stop-opacity:0.25"/>
		<stop  offset="0.54" style="stop-color:#B3B3B3;stop-opacity:0.1"/>
		<stop  offset="1" style="stop-color:#B3B3B3;stop-opacity:5.000000e-02"/>
	</linearGradient>
	<path class="st33" d="M282.4,195.6c0,0.3-0.3,0.6-0.6,0.6h-28.2c-0.3,0-0.6-0.3-0.6-0.6l0,0v-19.2c0-0.3,0.3-0.6,0.6-0.6l0,0h28.1
		c0.3,0,0.6,0.3,0.6,0.6"/>
	<path class="st6" d="M282,195.3c0,0.3-0.3,0.6-0.6,0.6h-27.5c-0.3,0-0.6-0.3-0.6-0.6v-18.6c0-0.3,0.3-0.6,0.6-0.6h27.5
		c0.3,0,0.6,0.3,0.6,0.6"/>
	
		<linearGradient id="SVGID_25_" gradientUnits="userSpaceOnUse" x1="267.7123" y1="-102.7547" x2="267.7123" y2="-120.9523" gradientTransform="matrix(1 0 0 1 0 297.8943)">
		<stop  offset="0" style="stop-color:#B3B3B3;stop-opacity:0.25"/>
		<stop  offset="0.54" style="stop-color:#B3B3B3;stop-opacity:0.1"/>
		<stop  offset="1" style="stop-color:#B3B3B3;stop-opacity:5.000000e-02"/>
	</linearGradient>
	<path class="st34" d="M255.2,177h25c0.4,0,0.8,0.3,0.8,0.8v16.6c0,0.4-0.3,0.8-0.8,0.8h-25c-0.4,0-0.8-0.3-0.8-0.8v-16.6
		C254.4,177.3,254.8,177,255.2,177z"/>
	<path class="st6" d="M255.5,177.4h24.3c0.4,0,0.8,0.3,0.8,0.8v15.7c0,0.4-0.3,0.8-0.8,0.8h-24.3c-0.4,0-0.8-0.3-0.8-0.8v-15.7
		C254.7,177.7,255.1,177.4,255.5,177.4z"/>
	<g>
		<g>
			<g>
				<g>
					<g>
						<defs>
							<path id="SVGID_26_" d="M255.5,177.4h24.3c0.4,0,0.8,0.3,0.8,0.8v15.7c0,0.4-0.3,0.8-0.8,0.8h-24.3c-0.4,0-0.8-0.3-0.8-0.8
								v-15.7C254.7,177.7,255.1,177.4,255.5,177.4z"/>
						</defs>
						<clipPath id="SVGID_27_">
							<use xlink:href="#SVGID_26_"  style="overflow:visible;"/>
						</clipPath>
						<g class="st35">
							<path class="st15" d="M253.3,194.5l7.2-8.3c0.5-0.6,1.4-0.6,2-0.1l0,0l2,1.8c0.5,0.5,1.3,0.5,1.9,0l6.2-5.2
								c0.6-0.5,1.5-0.4,2,0.1l7.6,8.4c0.2,0.2,0.3,0.5,0.3,0.8l0.3,3.3c0.1,0.8-0.5,1.5-1.3,1.6h-27.2c-0.8,0-1.4-0.6-1.4-1.4l0,0
								C252.9,195.1,253.1,194.7,253.3,194.5z"/>
						</g>
					</g>
				</g>
			</g>
		</g>
	</g>
	<circle class="st15" cx="257.8" cy="180.1" r="1.6"/>
	
		<linearGradient id="SVGID_28_" gradientUnits="userSpaceOnUse" x1="222.4774" y1="-93.2558" x2="222.4774" y2="-131.3842" gradientTransform="matrix(1 0 0 1 0 297.8943)">
		<stop  offset="0" style="stop-color:#808080;stop-opacity:0.25"/>
		<stop  offset="0.54" style="stop-color:#808080;stop-opacity:0.12"/>
		<stop  offset="1" style="stop-color:#808080;stop-opacity:0.1"/>
	</linearGradient>
	<polygon class="st36" points="223.1,204.6 213.7,204.6 213.7,166.5 231.2,166.5 	"/>
	<polygon class="st3" points="222.6,204.6 213.4,204.6 213.4,166.5 230.5,166.5 	"/>
	
		<linearGradient id="SVGID_29_" gradientUnits="userSpaceOnUse" x1="377.3329" y1="-19.258" x2="381.0358" y2="-43.4693" gradientTransform="matrix(1.0077 -0.1467 0.1494 1.0173 -188.5188 243.4733)">
		<stop  offset="0" style="stop-color:#808080;stop-opacity:0.25"/>
		<stop  offset="0.54" style="stop-color:#808080;stop-opacity:0.12"/>
		<stop  offset="1" style="stop-color:#808080;stop-opacity:0.1"/>
	</linearGradient>
	<polygon class="st37" points="168.1,154 205.7,143.6 209.7,158 172.1,168.5 	"/>
	
		<rect x="169.8" y="148.7" transform="matrix(0.9631 -0.2693 0.2693 0.9631 -35.019 56.6536)" class="st5" width="38.4" height="14.5"/>
	<rect x="179.9" y="155" transform="matrix(0.9631 -0.2693 0.2693 0.9631 -35.003 55.4823)" class="st3" width="9.6" height="0.7"/>
	
		<rect x="180.7" y="157.8" transform="matrix(0.9631 -0.2693 0.2693 0.9631 -35.7348 55.7998)" class="st6" width="9.6" height="0.7"/>
	
		<rect x="180.2" y="155.6" transform="matrix(0.9631 -0.2693 0.2693 0.9631 -35.0535 56.3726)" class="st6" width="15.5" height="0.7"/>
	<circle class="st6" cx="176.4" cy="159.1" r="1.7"/>
	
		<linearGradient id="SVGID_30_" gradientUnits="userSpaceOnUse" x1="433.2234" y1="-19.6293" x2="433.2234" y2="-47.5648" gradientTransform="matrix(1.003 4.084946e-05 -4.084946e-05 1.003 -234.2997 194.1826)">
		<stop  offset="0" style="stop-color:#808080;stop-opacity:0.25"/>
		<stop  offset="0.54" style="stop-color:#808080;stop-opacity:0.12"/>
		<stop  offset="1" style="stop-color:#808080;stop-opacity:0.1"/>
	</linearGradient>
	<polygon class="st38" points="179.2,160.5 215.9,146.8 221.2,161 184.5,174.7 	"/>
	
		<rect x="181" y="153.5" transform="matrix(0.9372 -0.3489 0.3489 0.9372 -43.5164 79.9543)" class="st8" width="38.4" height="14.5"/>
	
		<rect x="191.1" y="160.1" transform="matrix(0.9372 -0.3489 0.3489 0.9372 -43.6837 78.4492)" class="st3" width="9.6" height="0.7"/>
	
		<rect x="192.1" y="162.9" transform="matrix(0.9372 -0.3489 0.3489 0.9372 -44.5729 78.9658)" class="st6" width="9.6" height="0.7"/>
	
		<rect x="192.4" y="160.8" transform="matrix(0.9372 -0.3489 0.3489 0.9372 -43.6377 79.9657)" class="st6" width="15.6" height="0.7"/>
	<circle class="st6" cx="188" cy="165" r="1.7"/>
	
		<linearGradient id="SVGID_31_" gradientUnits="userSpaceOnUse" x1="482.8795" y1="-21.1477" x2="484.2683" y2="-42.4054" gradientTransform="matrix(1.017 -7.659999e-02 6.140000e-02 1.0446 -277.33 239.4855)">
		<stop  offset="0" style="stop-color:#808080;stop-opacity:0.25"/>
		<stop  offset="0.54" style="stop-color:#808080;stop-opacity:0.12"/>
		<stop  offset="1" style="stop-color:#808080;stop-opacity:0.1"/>
	</linearGradient>
	<polygon class="st39" points="192,173.3 194.7,158.2 233,165.3 230.3,180.3 	"/>
	
		<rect x="204.9" y="148.2" transform="matrix(0.1754 -0.9845 0.9845 0.1754 10.2404 346.9044)" class="st10" width="14.5" height="38.4"/>
	
		<rect x="208.3" y="160.1" transform="matrix(0.1754 -0.9845 0.9845 0.1754 9.7476 341.3835)" class="st3" width="0.7" height="9.6"/>
	
		<rect x="207.8" y="162.9" transform="matrix(0.1754 -0.9845 0.9845 0.1754 6.4911 343.2256)" class="st6" width="0.7" height="9.6"/>
	
		<rect x="210.9" y="159.1" transform="matrix(0.1754 -0.9845 0.9845 0.1754 9.9908 345.583)" class="st6" width="0.7" height="15.5"/>
	<ellipse class="st6" cx="199.6" cy="164.7" rx="1.7" ry="1.7"/>
	
		<linearGradient id="SVGID_32_" gradientUnits="userSpaceOnUse" x1="195.6414" y1="-92.5916" x2="195.6414" y2="-136.2333" gradientTransform="matrix(1 0 0 1 0 297.8943)">
		<stop  offset="0" style="stop-color:#808080;stop-opacity:0.25"/>
		<stop  offset="0.54" style="stop-color:#808080;stop-opacity:0.12"/>
		<stop  offset="1" style="stop-color:#808080;stop-opacity:0.1"/>
	</linearGradient>
	<polygon class="st40" points="183.4,166.1 177,161.7 168.3,161.7 168.3,166.1 168.3,168.3 168.3,205.3 223,205.3 223,166.1 	"/>
	<polygon class="st6" points="183.6,166.5 177.3,162.3 168.7,162.3 168.7,166.5 168.7,168.6 168.7,204.6 222.6,204.6 222.6,166.5 	
		"/>
	
		<linearGradient id="SVGID_33_" gradientUnits="userSpaceOnUse" x1="430.9678" y1="0.8246" x2="430.9678" y2="-19.7157" gradientTransform="matrix(1 0 0 1 -235.26 195.4442)">
		<stop  offset="0" style="stop-color:#B3B3B3;stop-opacity:0.25"/>
		<stop  offset="0.54" style="stop-color:#B3B3B3;stop-opacity:0.1"/>
		<stop  offset="1" style="stop-color:#B3B3B3;stop-opacity:5.000000e-02"/>
	</linearGradient>
	<path class="st41" d="M210.4,195.6c0,0.3-0.3,0.6-0.6,0.6h-28.2c-0.3,0-0.6-0.3-0.6-0.6v-19.2c0-0.3,0.3-0.6,0.6-0.6h28.2
		c0.3,0,0.6,0.3,0.6,0.6"/>
	<path class="st6" d="M210.1,195.3c0,0.3-0.3,0.6-0.6,0.6H182c-0.3,0-0.6-0.3-0.6-0.6v-18.6c0-0.3,0.3-0.6,0.6-0.6h27.5
		c0.3,0,0.6,0.3,0.6,0.6"/>
	
		<linearGradient id="SVGID_34_" gradientUnits="userSpaceOnUse" x1="195.7078" y1="-102.7547" x2="195.7078" y2="-120.9523" gradientTransform="matrix(1 0 0 1 0 297.8943)">
		<stop  offset="0" style="stop-color:#B3B3B3;stop-opacity:0.25"/>
		<stop  offset="0.54" style="stop-color:#B3B3B3;stop-opacity:0.1"/>
		<stop  offset="1" style="stop-color:#B3B3B3;stop-opacity:5.000000e-02"/>
	</linearGradient>
	<path class="st42" d="M183.2,177h25c0.4,0,0.8,0.3,0.8,0.8v16.6c0,0.4-0.3,0.8-0.8,0.8h-25c-0.4,0-0.8-0.3-0.8-0.8v-16.6
		C182.4,177.3,182.8,177,183.2,177z"/>
	<path class="st6" d="M183.5,177.4h24.3c0.4,0,0.8,0.3,0.8,0.8v15.7c0,0.4-0.3,0.8-0.8,0.8h-24.3c-0.4,0-0.8-0.3-0.8-0.8v-15.7
		C182.8,177.7,183.1,177.4,183.5,177.4z"/>
	<g>
		<g>
			<g>
				<g>
					<g>
						<defs>
							<path id="SVGID_35_" d="M183.5,177.4h24.3c0.4,0,0.8,0.3,0.8,0.8v15.7c0,0.4-0.3,0.8-0.8,0.8h-24.3c-0.4,0-0.8-0.3-0.8-0.8
								v-15.7C182.8,177.7,183.1,177.4,183.5,177.4z"/>
						</defs>
						<clipPath id="SVGID_36_">
							<use xlink:href="#SVGID_35_"  style="overflow:visible;"/>
						</clipPath>
						<g class="st43">
							<path class="st15" d="M181.3,194.5l7.2-8.3c0.5-0.6,1.4-0.6,2-0.1l0,0l2,1.8c0.5,0.5,1.3,0.5,1.9,0l6.2-5.2
								c0.6-0.5,1.5-0.4,2,0.1l7.6,8.4c0.2,0.2,0.3,0.5,0.3,0.8l0.3,3.3c0.1,0.8-0.5,1.5-1.3,1.6h-27.2c-0.8,0-1.4-0.6-1.4-1.4l0,0
								C180.9,195.1,181,194.7,181.3,194.5z"/>
						</g>
					</g>
				</g>
			</g>
		</g>
	</g>
	<circle class="st15" cx="185.8" cy="180.1" r="1.6"/>
</g>
</svg>
