<?xml version="1.0" encoding="utf-8"?>
<!-- Generator: Adobe Illustrator 24.0.2, SVG Export Plug-In . SVG Version: 6.00 Build 0)  -->
<svg version="1.1" id="Calque_1" xmlns="http://www.w3.org/2000/svg" xmlns:xlink="http://www.w3.org/1999/xlink" x="0px" y="0px"
	 viewBox="0 0 284 309" style="enable-background:new 0 0 284 309;" xml:space="preserve">
<style type="text/css">
	.st0{opacity:0.4;}
	.st1{fill:#7E64D0;}
</style>
<g class="st0">
	<path class="st1" d="M65.8,158.5L188.4,71L146,11.6c-1.8-2.6-5.7-2.7-7.6-0.1c-4.4,5.8-2.7,11.5-11,17.4
		c-10.2,7.3-15.2,0.2-25.5,7.5s-5.2,14.3-15.4,21.6c-10.2,7.3-15.2,0.2-25.5,7.5C51,72.9,56,79.9,45.8,87.2
		c-8.2,5.9-13.1,2.4-20,4.7c-3,1-4.2,4.6-2.3,7.2L65.8,158.5z"/>
	<g>
		<path class="st1" d="M82.6,124.5c-1.4-1.9-0.9-4.6,1-6c1.9-1.4,4.6-0.9,6,1l10.4,14.6l-7,5L82.6,124.5z"/>
		<path class="st1" d="M154.3,95.4l-10.4-14.6c-1.4-1.9-0.9-4.6,1-6c1.9-1.4,4.6-0.9,6,1l10.4,14.6L154.3,95.4z"/>
		<path class="st1" d="M123.6,117.3l-10.4-14.6c-1.4-1.9-0.9-4.6,1-6c1.9-1.4,4.6-0.9,6,1l10.4,14.6L123.6,117.3z"/>
	</g>
	<path class="st1" d="M115.6,68.9c-14,10-7.8,18.8-21.8,28.8S73.5,99,59.5,109c-10.2,7.3-9.7,14-14.1,20.9l-22-30.8
		c-1.8-2.6-0.7-6.2,2.3-7.2c6.9-2.3,11.8,1.2,20-4.7C56,79.9,51,72.9,61.2,65.6c10.2-7.3,15.2-0.2,25.5-7.5s5.2-14.3,15.4-21.6
		c10.2-7.3,15.2-0.2,25.5-7.5c8.2-5.9,6.6-11.6,11-17.4c1.9-2.5,5.7-2.4,7.6,0.1L164,36.8c-4.4,6.9-3.8,13.6-14.1,20.9
		C135.9,67.7,129.6,58.9,115.6,68.9z"/>
	<path class="st1" d="M83.9,186.9l27.6,38.7c6,8.4,17.6,10.3,25.9,4.3l22.2-15.9c4.6-3.3,11-1.9,13.8,3l44.4,77.1
		c9,15.6,29.5,20.1,44.1,9.6c14.7-10.5,17.1-31.3,5.3-44.9l-58.5-67c-3.7-4.2-2.9-10.7,1.6-14l22.2-15.9c8.4-6,10.3-17.6,4.3-25.9
		l-27.6-38.7L83.9,186.9z M238.6,270.9c5-3.6,11.9-2.4,15.5,2.6c3.6,5,2.4,11.9-2.6,15.5c-5,3.6-11.9,2.4-15.5-2.6
		C232.4,281.5,233.6,274.5,238.6,270.9z"/>
	<path class="st1" d="M7.4,154.1c-1.3,7.9,4,15.4,12,16.7c7.9,1.3,15.4-4,16.7-12c1.3-7.9-5.8-26.5-10.2-27.3
		C21.5,130.9,8.7,146.2,7.4,154.1z"/>
	<path class="st1" d="M83.9,186.9l125.4-89.5l-18.9-26.5c-0.3-0.5-1-0.6-1.4-0.2L65.2,158.9c-0.5,0.3-0.6,1-0.2,1.4L83.9,186.9z"/>
	<path class="st1" d="M89.9,165.7c1.1,0.2,2.2-0.1,3.2-0.7l92.5-66c1.9-1.4,2.4-4.1,1-6c-1.4-1.9-4.1-2.4-6-1l-92.5,66
		c-1.9,1.4-2.4,4.1-1,6C87.8,164.9,88.8,165.5,89.9,165.7z"/>
</g>
</svg>
