<?xml version="1.0" encoding="utf-8"?>
<!-- Generator: Adobe Illustrator 24.0.2, SVG Export Plug-In . SVG Version: 6.00 Build 0)  -->
<svg version="1.1" id="Calque_1" xmlns="http://www.w3.org/2000/svg" xmlns:xlink="http://www.w3.org/1999/xlink" x="0px" y="0px"
	 viewBox="0 0 325 274" style="enable-background:new 0 0 325 274;" xml:space="preserve">
<style type="text/css">
	.st0{opacity:0.3;fill:#FF7700;}
	.st1{opacity:0.1;fill:#7E64D0;enable-background:new    ;}
	.st2{fill:url(#SVGID_1_);}
	.st3{fill:#FFFFFF;}
	.st4{opacity:4.000000e-02;fill:#FFFFFF;enable-background:new    ;}
	.st5{fill:#5A5773;}
	.st6{opacity:0.1;fill:#009688;enable-background:new    ;}
	.st7{opacity:0.1;fill:#5A5773;enable-background:new    ;}
	.st8{opacity:0.1;enable-background:new    ;}
	.st9{fill:#FF7700;}
	.st10{fill:url(#SVGID_2_);}
	.st11{fill:#C37098;}
	.st12{fill:#3F3D56;}
	.st13{fill:none;}
	.st14{opacity:0.1;stroke:#7E64D0;stroke-miterlimit:10;enable-background:new    ;}
	.st15{opacity:0.1;}
	.st16{fill:#535461;}
	.st17{fill:#FBCD98;}
	.st18{fill:none;stroke:#535461;stroke-width:2;stroke-miterlimit:10;}
</style>
<g>
	<path class="st0" d="M317.4,171.5c-7.9,16.3-23.9,27.1-40.4,34.3c-22.3,9.7-46.9,13.5-71.1,11.8c-4.2-0.3-8.5-0.7-12.7-1.4
		c-14.7-2.2-29-6.3-42.5-12.4c-3.9-1.8-7.7-3.7-11.5-5.8c-6.3-3.5-12.2-7.4-17.9-11.7c-1.4-1.1-2.8-2.2-4.2-3.3
		c-1-0.8-1.9-1.6-2.9-2.4c-2.1-1.7-4.1-3.2-6.5-4.4c-0.7-0.4-1.4-0.7-2.2-1c-7.4-2.8-16-1.8-23.8,0.4c-5.9,1.7-11.6,4-17.5,5.6
		c-2.6,0.8-5.3,1.3-8,1.7c-6,0.8-12.1,0.2-17.9-1.6l-0.5-0.2c-0.8-0.3-1.7-0.6-2.5-0.9l-0.5-0.2c-0.8-0.3-1.6-0.6-2.3-1l-0.5-0.2
		c-0.8-0.4-1.6-0.8-2.3-1.2c-0.3-0.1-0.5-0.3-0.8-0.4c-4.3-2.4-8.2-5.5-11.6-9c-0.1-0.1-0.2-0.2-0.3-0.3c-0.5-0.5-0.9-1-1.4-1.6
		c-0.2-0.2-0.3-0.4-0.5-0.6c-0.5-0.7-1.1-1.3-1.5-2c-0.1-0.1-0.1-0.2-0.2-0.3c-2-2.8-3.7-5.8-5-9c0-0.1-0.1-0.2-0.1-0.3
		c-0.4-1-0.8-2.1-1.1-3.1c-0.1-0.4-0.3-0.9-0.4-1.3c0-0.1-0.1-0.3-0.1-0.4c-1.6-6.5-1.8-13.1-1.8-19.8c0-0.8,0-1.6,0-2.3
		c0-10.8,0.2-21.7,1.8-32.3c0-0.1,0-0.1,0-0.2c0.5-3.6,1.3-7.1,2.2-10.6c1-3.7,2.2-7.3,3.6-10.8c3.6-8.6,9-16.4,14.9-23.7
		c14.9-18.2,34.5-33.6,57.3-39.3c24.6-6.2,51.9-0.3,71.8,15.5c6.1,4.8,11.5,10.5,18.3,14.2c5.9,3.2,12.9,4.5,19.2,2
		c5.3-2.1,8.7-3.1,14.6-2.8c12.2,0.7,24.2,3.2,35.7,7.5c0.5,0.2,0.9,0.3,1.4,0.5c29.9,11.4,55.5,34.1,68.9,63.3
		c0.4,0.8,0.7,1.6,1,2.3C323.3,131.7,326.2,153.4,317.4,171.5z"/>
	<ellipse class="st1" cx="43.4" cy="249.7" rx="26.2" ry="4.2"/>
	<ellipse class="st1" cx="253.6" cy="272.2" rx="46.4" ry="4.5"/>
	
		<linearGradient id="SVGID_1_" gradientUnits="userSpaceOnUse" x1="158.4116" y1="171.8175" x2="158.4116" y2="12.1766" gradientTransform="matrix(1 0 0 1 0 27.8898)">
		<stop  offset="0" style="stop-color:#808080;stop-opacity:0.25"/>
		<stop  offset="0.54" style="stop-color:#808080;stop-opacity:0.12"/>
		<stop  offset="1" style="stop-color:#808080;stop-opacity:0.1"/>
	</linearGradient>
	<path class="st2" d="M21.2,40.1h274.4c2.1,0,3.7,1.7,3.7,3.7V196c0,2.1-1.7,3.7-3.7,3.7H21.2c-2.1,0-3.7-1.7-3.7-3.7V43.7
		C17.5,41.7,19.2,40.1,21.2,40.1z"/>
	<path class="st3" d="M21.6,42.3h273.5c2.1,0,3.7,1.7,3.7,3.7v149.4c0,2.1-1.7,3.7-3.7,3.7H21.6c-2.1,0-3.7-1.7-3.7-3.7V46
		C17.9,43.9,19.6,42.3,21.6,42.3z"/>
	<path class="st3" d="M21.6,42.3h273.5c2.1,0,3.7,1.7,3.7,3.7v149.4c0,2.1-1.7,3.7-3.7,3.7H21.6c-2.1,0-3.7-1.7-3.7-3.7V46
		C17.9,43.9,19.6,42.3,21.6,42.3z"/>
	<path class="st4" d="M21.6,42.3h273.5c2.1,0,3.7,1.7,3.7,3.7v149.4c0,2.1-1.7,3.7-3.7,3.7H21.6c-2.1,0-3.7-1.7-3.7-3.7V46
		C17.9,43.9,19.6,42.3,21.6,42.3z"/>
	<path class="st5" d="M297.5,40.5H19.4c-0.8,0-1.4,0.6-1.4,1.4v6h280.9v-6C298.9,41.1,298.2,40.5,297.5,40.5z"/>
	<g>
		<circle class="st3" cx="23.6" cy="44.2" r="1.9"/>
		<circle class="st3" cx="28.8" cy="44.2" r="1.9"/>
		<circle class="st3" cx="33.9" cy="44.2" r="1.9"/>
	</g>
	<rect x="41.1" y="62" class="st6" width="75.4" height="6.4"/>
	<rect x="41.1" y="87.6" class="st7" width="234.6" height="98.4"/>
	<path class="st8" d="M178.5,94.1h-4v-7.8c0-8.8-7-16.1-15.8-16.3c-8.9-0.1-16.2,7.1-16.3,15.9c0,0,0,0.1,0,0.1v8h-4
		c-3.7,0-6.7,3-6.7,6.7v32.1c0,3.7,3,6.7,6.7,6.7h40.1c3.7,0,6.7-3,6.7-6.7v-32.1C185.2,97,182.2,94.1,178.5,94.1z M160.8,114.9
		v11.5c0,1.3-1,2.3-2.2,2.4c-1.3,0.1-2.4-0.9-2.4-2.2c0,0,0-0.1,0-0.1v-11.6c-2.6-1.3-3.7-4.5-2.4-7.1s4.5-3.7,7.1-2.4
		c2.6,1.3,3.7,4.5,2.4,7.1C162.7,113.5,161.8,114.4,160.8,114.9L160.8,114.9z M169.8,94.1h-22.7v-8c0-6.3,5.1-11.4,11.4-11.4
		c6.3,0,11.4,5.1,11.4,11.4L169.8,94.1z"/>
	<path class="st9" d="M178.5,93.5h-4v-7.8c0-8.8-7-16.1-15.8-16.3c-8.9-0.1-16.2,7.1-16.3,15.9c0,0,0,0.1,0,0.1v8h-4
		c-3.7,0-6.7,3-6.7,6.7v32.1c0,3.7,3,6.7,6.7,6.7h40.1c3.7,0,6.7-3,6.7-6.7v-32.1C185.2,96.4,182.2,93.5,178.5,93.5z M160.8,114.3
		v11.5c0,1.3-1,2.3-2.2,2.4c-1.3,0.1-2.4-0.9-2.4-2.2c0,0,0-0.1,0-0.1v-11.6c-2.6-1.3-3.7-4.5-2.4-7.1s4.5-3.7,7.1-2.4
		c2.6,1.3,3.7,4.5,2.4,7.1C162.7,112.9,161.8,113.8,160.8,114.3L160.8,114.3z M169.8,93.5h-22.7v-8c0-6.3,5.1-11.4,11.4-11.4
		c6.3,0,11.4,5.1,11.4,11.4L169.8,93.5z"/>
	<rect x="252" y="78.2" class="st7" width="23.8" height="5.6"/>
	
		<linearGradient id="SVGID_2_" gradientUnits="userSpaceOnUse" x1="281.9826" y1="287.4077" x2="281.9826" y2="119.6413" gradientTransform="matrix(1 0 0 1 -26.97 -12.1503)">
		<stop  offset="0" style="stop-color:#808080;stop-opacity:0.25"/>
		<stop  offset="0.54" style="stop-color:#808080;stop-opacity:0.12"/>
		<stop  offset="1" style="stop-color:#808080;stop-opacity:0.1"/>
	</linearGradient>
	<path class="st10" d="M283.8,273.5c-0.2-0.8-0.4-1.6-0.8-2.3l-3.6-5.3h0c0,0-0.6-2.7,0-4c0.6-1.3-2-4.5-2-4.5s-0.3-0.8,0.5-1.8
		c0.8-1-0.5-3.9-0.5-3.9s-0.6-6.1-0.7-7c-0.1-0.9-0.6-6.1-0.6-6.1l-1.2-10.9l-2.1-29l0-0.5c0.3-0.1,0.4-0.2,0.4-0.2l-0.4-16l0.4-0.3
		c3.2-2.9,10.5-9.6,10.5-9.7c-0.1-0.1-0.9-11.2-1-13.9c-0.1-2-0.5-3.9-1.3-5.7c-0.2-0.4-0.7-2.8-0.9-3.8c-0.1-0.3-0.1-0.5-0.1-0.5
		s-2.2-4.1-2-6c0.2-1.9,0.6-3.3-4-3.9c0,0-3.8-0.6-6.2-2.2c-1.4-0.9-2.8-1.7-4.4-2.2c0,0-1.3-2.4-2.2-1.6c-0.4-0.9-0.7-1.7-0.9-2.6
		l0-0.2c1.7-1.2,2.9-2.9,3.4-4.9c0-0.1,0.1-0.2,0.1-0.3c0.1,0,0.2,0,0.3,0.1c0.8,0,1.3-0.9,2-1.2c0.3-0.1,0.7-0.1,0.9-0.4
		c0.2-0.2,0.2-0.4,0.2-0.7c0-0.1,0-0.2,0-0.2c0,0,0-0.1,0-0.1v0c-0.2-1.1-1-2.1-0.9-3.1c0.1-1,1-2,0.9-2.9c0-0.1,0-0.2,0-0.2v0
		c-0.1-0.4-0.3-0.8-0.6-1.1c-0.3-0.4-0.7-0.8-1.2-1c-0.4-0.2-0.9-0.2-1.3-0.4c-1.1-0.6-1.1-2.2-1.8-3.3c-0.6-0.9-1.7-1.5-2.7-1.4
		c-0.8,0.1-1.6,0.5-2.4,0.7c-1.1,0.2-2.3-0.2-3.4-0.6c-1.1-0.4-2.2-0.9-3.3-0.9c-1.2,0-2.4,0.6-2.7,1.7c-0.2,0.6-0.1,1.2-0.2,1.8
		c-0.3,1.1-1.2,1.8-2.2,2.4c-0.6,0.3-1.3,0.7-1.5,1.3c0,0,0,0,0,0c0,0.1,0,0.1,0,0.2c0,0.1,0,0.1,0,0.2c0,0.4,0.2,0.8,0.4,1.2
		c0.3,0.8,0.3,1.6,0,2.4c-0.2,0.6-0.6,1.1-0.8,1.6c-0.1,0.3-0.2,0.5-0.2,0.8v0c0,0.1,0,0.3,0,0.4c0,0.4,0.1,0.9,0.3,1.3
		c0.3,0.5,0.8,0.9,1.3,1.1c0.6,0.1,1-0.4,1.6-0.3c0.1,0,0.2,0.1,0.3,0.1c0,0.1,0,0.3,0.1,0.4c0.4,2,1.5,3.8,3,5.1c0,0.1,0,0.1,0,0.2
		l0,0c0.2,1.2,0.3,2.4,0.2,3.6c0,0-0.9-1.4-2.2,1.3c0,0-3.3,1.9-4.5,2.2c-1.2,0.2-5.3,1.7-5.3,1.7c-0.6,0.4-1.4,0.7-2.1,0.7
		c-1.3,0-2.4,2.8-2.2,4.3s-0.1,2.6-1.3,2.7c-1.2,0.1-0.5,2.5-0.5,2.5l-0.1,0.5c-0.2,1.1-0.7,3.3-0.9,3.7c-0.8,1.8-1.2,3.7-1.3,5.7
		c-0.1,2.7-0.9,13.7-1,13.9c-0.1,0.1,5,4.7,8.5,7.9l0.5,0.5l-1.6,15.2c0.1,1.2,0.7,2.3,1.7,3c0,0.2,0,0.4,0,0.5
		c-0.1,1.8-0.2,3.9-0.5,4.5c-0.5,1-0.4,6.4-0.4,6.4s-0.5,10.9-1.1,12c-0.6,1.2-0.8,3.7-0.6,4.1s-0.6,13.5-0.6,13.5l-0.6,5.9
		c0,0,0.2,5.6-0.4,5.7c-0.6,0.1-0.9,4-0.9,4s-2,2.7-1.1,3.7c0.9,1-0.1,1.4-0.2,1.7c-0.1,0.2-1.9,1.2-0.6,4.7c0,0,0,0.1,0,0.1
		c-1.2,1.7-5.1,7.2-4.9,8c0.2,0.5,0.6,1,1,1.3c0.9,0.6,2.5,0.8,5,0c4.1-1.3,3.8-2.3,3.8-2.3c0-0.9,0.8-1.7,1.8-1.7
		c1.7-0.1,3-1.7,3-1.7l-0.2-0.8l-0.3-1c0-0.3,0.2-0.8,1.2-1.1c1.4-0.4,1.1-3.2,1.1-3.2s-0.1-2.8,0.5-3.2c0.6-0.4,0.4-5.1,0.4-5.1
		s0.7-3.4,1.7-5.7c1-2.3,2.2-16,2.2-16s0.8-6.7,1.6-8.6c0.8-1.9,1.4-7.3,1.4-7.3s4.6-8.9,4.7-11c0,0,0.6-1.9,1.2,0.2
		c0.6,2.1,2.3,7,2.3,7l1.6,6l1.9,9l1.3,7.6c0,0-0.2,2.8,0.3,3.8c0.5,1,1.2,3.3,0.8,3.7c-0.4,0.4,0.8,2.5,1.1,2.9s0,9.6,0,9.6
		s1.4,7.8,3.5,9.2c0.1,0.1,0.3,0.2,0.5,0.2c0,0.9-0.1,2,0,2.6c0,0.1,0,0.3,0.1,0.4c0.2,0.3,2.3,1.9,2.7,1.9s2,1.1,2.1,1.6
		c0.1,0.5,4.6,2.7,5.2,2.8c0.6,0.1,3.7,0.6,4.1-0.3C283.8,274.1,283.9,273.8,283.8,273.5z M272.8,161.5l0.3,0.3c0,0,0.3,2.5,0.6,3.3
		c0.2,0.8,0,2.3,0,2.3c0,0.6,0.1,1.1,0.3,1.6c0.3,0.6-0.6,1.8-0.6,1.8h-0.8l-0.2-9.6L272.8,161.5z M250.5,132.8L250.5,132.8
		C250.5,132.8,250.5,132.8,250.5,132.8L250.5,132.8z M238.9,169.8c-0.1-0.3-0.1-0.5,0-0.8c0.1-0.1,0.1-0.3,0.2-0.4
		c0.1-0.4,0.2-0.8,0.2-1.2l0,0c0-0.1-0.3-1.5,0-2.3s0.6-3.3,0.6-3.3l0.2-0.2l0.5-0.4c0,0,0-0.2,0-0.4c0.1,2.3,0.2,4.7,0.1,4.9
		c-0.3,0.2-1.2,2.7-0.9,2.7c0.1,0,0,1-0.2,2.3C239.2,170.4,239.1,170.1,238.9,169.8z"/>
	<path class="st11" d="M262.8,135.2v3.7l-7.6,3.8c0,0-7.5-4.5-5.7-6.4c1.2-1.2,1-4.3,0.6-6.5l0,0c-0.2-1.3-0.4-2.2-0.4-2.2
		s13.5-3.8,11.5-0.9c-0.7,1-0.7,2.3-0.5,3.5C261.3,132.8,262.8,135.2,262.8,135.2z"/>
	<path class="st12" d="M242.1,171.3l-1,12c0,0-1.5-1.3-3.3-3c-3.5-3.2-8.5-7.8-8.4-7.9c0.1-0.2,0.9-11.1,1-13.8
		c0.1-2,0.5-3.9,1.3-5.7c0.2-0.4,0.7-2.6,0.9-3.7c0.1-0.3,0.1-0.5,0.1-0.5l1.6-0.7c0,0,6.8,7.6,6.8,7.7s-0.5,6-0.5,6l-0.5,0.4
		l-0.2,0.2c0,0-0.3,2.5-0.6,3.3s0,2.1,0,2.3l0,0c0,0.4-0.1,0.8-0.2,1.2c0,0.2-0.1,0.3-0.2,0.4c-0.1,0.3-0.1,0.5,0,0.8
		c0.1,0.3,0.3,0.7,0.5,1L242.1,171.3z"/>
	<path class="st12" d="M283.5,172.4c0.1,0.1-7.2,6.8-10.4,9.7l-1.4,1.3l-1-12h2.5c0,0,0.8-1.2,0.6-1.8c-0.2-0.5-0.3-1.1-0.3-1.6
		c0,0,0.3-1.5,0-2.3c-0.2-0.8-0.6-3.3-0.6-3.3l-0.3-0.3l-0.4-0.3c0,0-0.5-5.9-0.5-6c0-0.1,6.8-7.7,6.8-7.7l1.6,0.7
		c0,0,0,0.2,0.1,0.5c0.2,1,0.7,3.4,0.9,3.8c0.8,1.8,1.2,3.7,1.3,5.7C282.6,161.3,283.4,172.2,283.5,172.4z"/>
	<path class="st12" d="M283.5,274.3c-0.4,0.9-3.5,0.3-4.1,0.3c-0.6,0-5.1-2.3-5.2-2.8s-1.6-1.6-2.1-1.6s-2.5-1.7-2.7-1.9
		c0-0.1-0.1-0.3-0.1-0.4c-0.1-1,0.1-3.6,0.1-3.6l9,0.5l4.4,6.6c0.4,0.7,0.6,1.5,0.8,2.3C283.6,273.8,283.6,274.1,283.5,274.3z"/>
	<path class="st8" d="M283.5,274.3c-0.4,0.9-3.5,0.3-4.1,0.3c-0.6,0-5.1-2.3-5.2-2.8s-1.6-1.6-2.1-1.6s-2.5-1.7-2.7-1.9
		c0-0.1-0.1-0.3-0.1-0.4c-0.1-1,0.1-3.6,0.1-3.6l9,0.5l4.4,6.6c0.4,0.7,0.6,1.5,0.8,2.3C283.6,273.8,283.6,274.1,283.5,274.3z"/>
	<path class="st8" d="M283.5,274.3c-0.4,0.9-3.5,0.3-4.1,0.3c-0.6,0-5.1-2.3-5.2-2.8s-1.6-1.6-2.1-1.6s-2.5-1.7-2.7-1.9
		c0-0.1-0.1-0.3-0.1-0.4l2.9,1.9c0,0,1.9,1.2,2.4,1.9c0.5,0.7,4.4,2.2,4.7,2.2c0.2,0,2.8-0.5,4.2-0.3
		C283.6,273.8,283.6,274.1,283.5,274.3z"/>
	<path class="st12" d="M241.1,268.9c0,0-1.3,1.6-3,1.7c-0.9,0-1.7,0.7-1.7,1.7c0,0,0.3,1-3.8,2.3c-2.5,0.8-4,0.5-4.9,0
		c-0.5-0.3-0.9-0.7-1-1.2c-0.3-1,5.2-8.5,5.2-8.5l5-0.3l3.6,1.6l0.5,2.1L241.1,268.9z"/>
	<path class="st8" d="M241.1,268.9c0,0-1.3,1.6-3,1.7c-0.9,0-1.7,0.7-1.7,1.7c0,0,0.3,1-3.8,2.3c-2.5,0.8-4,0.5-4.9,0
		c-0.5-0.3-0.9-0.7-1-1.2c-0.3-1,5.2-8.5,5.2-8.5l5-0.3l3.6,1.6l0.5,2.1L241.1,268.9z"/>
	<path class="st13" d="M241.1,268.9c0,0-1.3,1.6-3,1.7c-0.9,0-1.7,0.7-1.7,1.7c0,0,0.3,1-3.8,2.3c-2.5,0.8-4,0.5-4.9,0
		c2.4-0.2,7.5-1.7,8-2.2c0.6-0.6,1.4-2.3,1.9-2.4c0.4,0,2.2-1.1,3.3-1.8L241.1,268.9z"/>
	<path class="st8" d="M241.1,268.9c0,0-1.3,1.6-3,1.7c-0.9,0-1.7,0.7-1.7,1.7c0,0,0.3,1-3.8,2.3c-2.5,0.8-4,0.5-4.9,0
		c2.4-0.2,7.5-1.7,8-2.2c0.6-0.6,1.4-2.3,1.9-2.4c0.4,0,2.2-1.1,3.3-1.8L241.1,268.9z"/>
	<path class="st12" d="M279.3,262c-0.6,1.3,0,4,0,4s-8.3,0.4-10.3-0.9s-3.5-9.2-3.5-9.2s0.3-9.2,0-9.6c-0.3-0.4-1.4-2.5-1.1-2.9
		c0.4-0.4-0.3-2.7-0.8-3.7s-0.3-3.8-0.3-3.8l-1.2-7.5l-1.9-9l-1.6-6c0,0-1.7-4.9-2.3-6.9c-0.6-2.1-1.2-0.2-1.2-0.2
		c-0.1,2-4.6,10.9-4.6,10.9s-0.7,5.4-1.4,7.3c-0.7,1.9-1.6,8.6-1.6,8.6s-1.2,13.6-2.2,15.9c-1,2.3-1.7,5.7-1.7,5.7s0.3,4.7-0.4,5.1
		c-0.6,0.4-0.5,3.2-0.5,3.2s0.4,2.7-1.1,3.1s-1.2,1.4-1.2,1.4s-7.9,1.3-9.2-2.2c-1.3-3.5,0.5-4.4,0.6-4.6c0.1-0.3,1.1-0.7,0.2-1.7
		c-0.9-1,1.1-3.7,1.1-3.7s0.3-3.8,0.9-4c0.6-0.1,0.4-5.7,0.4-5.7l0.6-5.8c0,0,0.8-13,0.6-13.5c-0.2-0.5-0.1-3,0.6-4.1
		c0.6-1.2,1.1-12,1.1-12s-0.1-5.3,0.4-6.3c0.3-0.6,0.4-2.7,0.5-4.5c0.1-1.4,0.1-2.4,0.1-2.4l6.9-2.6l8.9-2.8l7.5,3.6l11,2.1l0.1,1.9
		l2.1,28.9l1.2,10.9c0,0,0.5,5.1,0.6,6.1c0.1,0.9,0.7,7,0.7,7s1.3,2.9,0.5,3.9c-0.8,1-0.5,1.8-0.5,1.8S279.8,260.7,279.3,262z"/>
	<path class="st8" d="M261.3,126.8c-0.7,1-0.7,2.3-0.5,3.5c-3.2,2.3-7.5,2.1-10.6-0.4l0,0c-0.2-1.3-0.4-2.2-0.4-2.2
		S263.4,123.9,261.3,126.8z"/>
	<path class="st11" d="M264.5,123c0,4.8-3.9,8.7-8.7,8.7c-4.8,0-8.7-3.9-8.7-8.7c0-4.8,3.9-8.7,8.7-8.7l0,0
		C260.6,114.3,264.5,118.2,264.5,123C264.5,122.9,264.5,123,264.5,123z"/>
	<polygon class="st8" points="266.3,137.4 263.4,188.2 248,184.9 244.9,164.6 247.9,137.3 250.2,137.6 254.2,138.1 258.2,138.3 
		262.6,137.9 	"/>
	<polygon class="st9" points="266.3,137.8 263.4,188.5 248,185.3 244.9,165 247.9,137.7 250.2,138 254.2,138.5 258.2,138.7 
		262.6,138.2 	"/>
	<path class="st12" d="M253.6,139.2l5.6,0.2l-1.6,2.2c0,0,0.1,4.4,0.9,5.7c0.7,1.3,0.5,20.9,0.5,20.9l-1.5,2.8l-2.5-3.1l0-25.9
		L253.6,139.2z"/>
	<path class="st8" d="M253.6,139.2l5.6,0.2l-1.6,2.2c0,0,0.1,4.4,0.9,5.7c0.7,1.3,0.5,20.9,0.5,20.9l-1.5,2.8l-2.5-3.1l0-25.9
		L253.6,139.2z"/>
	<polygon class="st8" points="262.3,133.4 257.1,139.2 260.1,142.3 265,137.5 	"/>
	<polygon class="st9" points="262.3,133.1 257.1,138.8 260.1,141.9 265,137.1 	"/>
	<polygon class="st8" points="254.9,138.9 249.6,133.6 249.1,136.4 251.6,142.4 	"/>
	<polygon class="st9" points="255.1,138.5 249.8,133.3 249.3,136 251.8,142.1 	"/>
	<path class="st8" d="M272.8,199c-2.5,1.2-5.2,2-8,2.3c-5.1,0.7-8.4-5.9-8.4-5.9l-2,2.5c-0.6,2.7-10.1,3.4-13.9,2.4
		c-0.8-0.2-1.6-0.6-2.2-1c0.1-1.4,0.1-2.4,0.1-2.4l6.9-2.6l8.9-2.8l7.5,3.6l11,2.1L272.8,199z"/>
	<path class="st8" d="M266.3,137.8l-2.8,50.7l-15.5-3.2l-3.1-20.3l3-27.3l2.3,0.3c-0.1,1-0.2,2-0.3,3c-0.4,1.7,1.9,14,1.9,14
		s4.3,13.8,6.3,11.8c2-2,4.7-12.5,4.7-12.5c1.9-3.9,0-14.8-0.1-15.1c-0.1-0.3-0.2-0.7-0.2-1L266.3,137.8z"/>
	<path class="st8" d="M273,177.1l0.1,5l-1.4,1.3l-1-12h2.2L273,177.1z"/>
	<path class="st8" d="M239.4,167.9L239.4,167.9c0,0.4-0.1,0.8-0.2,1.2c0-0.1,0-0.2,0-0.2C239.1,168.9,239.2,168.4,239.4,167.9z"/>
	<path class="st8" d="M242.1,171.3l-1,12c0,0-1.5-1.3-3.3-3l0.2-2.1c0,0,0.8-5.2,1.1-7.8c0.1,0.3,0.3,0.7,0.5,1H242.1z"/>
	<path class="st12" d="M250.5,133.5c0,0-0.9-1.4-2.2,1.3c0,0-3.3,1.9-4.4,2.1c-1.1,0.2-5.2,1.7-5.2,1.7c-0.6,0.4-1.4,0.7-2.1,0.7
		c-1.3,0-2.3,2.8-2.2,4.3s-0.1,2.6-1.3,2.7s-0.5,2.5-0.5,2.5l7.8,9c0,0,0.5,8.2,0.3,8.5c-0.2,0.3-1.2,2.7-0.9,2.7s-1.2,9.2-1.2,9.2
		l-1.9,17.7c0,0,0,3,3.8,4c3.8,1,13.3,0.3,13.9-2.4l2-2.5c0,0,3.3,6.5,8.4,5.9c5.1-0.7,8.3-2.5,8.3-2.5l-0.6-21.3l-0.4-15.3l8-13.1
		c0,0-2.1-4.1-2-5.9c0.2-1.9,0.6-3.2-4-3.9c0,0-3.8-0.6-6.1-2.1c-1.4-0.9-2.8-1.7-4.4-2.2c0,0-1.3-2.4-2.2-1.6c0,0,0.9,3.3,0.8,3.8
		c-0.1,0.5,0.1,2.8,0.3,3c0.1,0.2,2,11.2,0.1,15.1c0,0-2.8,10.5-4.7,12.5c-2,2-6.3-11.8-6.3-11.8s-2.3-12.3-1.9-14
		C250.2,139.7,250.5,133.5,250.5,133.5z"/>
	<circle class="st12" cx="257.1" cy="172.7" r="1.4"/>
	<circle class="st12" cx="257.1" cy="179.1" r="1.4"/>
	<circle class="st8" cx="257.1" cy="172.7" r="1.4"/>
	<circle class="st8" cx="257.1" cy="179.1" r="1.4"/>
	<path class="st14" d="M269.4,260.2c0,0,5.6,0.4,6.2,0.9C276,261.5,269.4,260.2,269.4,260.2z"/>
	<path class="st14" d="M236.1,255.8c0,0,1.2,1.5,0.7,2.2C236.3,258.6,236.1,255.8,236.1,255.8z"/>
	<path class="st14" d="M237.5,261.1c0,0,2.2-1.4,3-0.5C241.4,261.6,237.5,261.1,237.5,261.1z"/>
	<path class="st8" d="M264.5,123c0,0.7-0.1,1.5-0.3,2.2c-0.4-0.2-0.6-0.6-0.6-1c0-0.4,0.3-0.7,0.2-1c-0.1-0.5-0.7-0.8-1.1-1.2
		c-0.4-0.5-0.3-1.3-0.3-1.9c0-0.7-0.1-1.5-0.8-1.7c-0.2-0.1-0.4-0.1-0.6-0.2c-0.5-0.2-0.6-0.8-1-1.2c-0.7-0.9-2-0.8-3-0.4
		c-0.4,0.2-0.9,0.4-1.3,0.6c-0.5,0.2-1,0.1-1.4-0.1c-0.2-0.1-0.4-0.3-0.6-0.4c-0.7-0.4-1.6,0-2.1,0.5c-0.6,0.5-1.1,1.2-1.8,1.5
		c-0.3,0.1-0.7,0.2-0.9,0.6c-0.1,0.2-0.1,0.4-0.1,0.6c0,1.2,0.1,2.3-0.1,3.4c-0.2,0.7-0.7,1.6-1.4,1.5c-0.1,0-0.2,0-0.3-0.1
		c-0.9-4.7,2.2-9.3,7-10.1c4.7-0.9,9.3,2.2,10.1,7C264.4,122,264.5,122.5,264.5,123L264.5,123z"/>
	<path class="st12" d="M246.9,124.1c0.2,0.1,0.4,0.2,0.7,0.2c0.7,0.1,1.3-0.7,1.4-1.5c0.2-1.1,0.1-2.3,0.1-3.4c0-0.2,0-0.4,0.1-0.6
		c0.2-0.3,0.6-0.4,0.9-0.6c0.7-0.3,1.2-1,1.8-1.5c0.6-0.5,1.5-0.9,2.1-0.5c0.2,0.1,0.4,0.3,0.6,0.4c0.4,0.2,0.9,0.3,1.4,0.1
		c0.5-0.1,0.9-0.4,1.3-0.6c1-0.4,2.3-0.4,3,0.4c0.3,0.4,0.5,1,1,1.2c0.2,0.1,0.4,0.1,0.6,0.2c0.6,0.2,0.8,1.1,0.8,1.7
		c0,0.7-0.1,1.4,0.3,1.9c0.3,0.4,1,0.6,1.1,1.2c0,0.4-0.2,0.7-0.2,1c0,0.5,0.4,1,0.9,1.1l0,0c0.8,0,1.3-0.9,2-1.1
		c0.3-0.1,0.7-0.1,0.9-0.4c0.2-0.2,0.2-0.5,0.2-0.8c-0.1-1.1-1.1-2.1-1-3.3c0.1-1.1,1.1-2.1,0.9-3.1c-0.1-0.4-0.3-0.8-0.6-1.1
		c-0.3-0.4-0.7-0.8-1.2-1c-0.4-0.2-0.9-0.2-1.3-0.4c-1.1-0.6-1.1-2.2-1.8-3.3c-0.6-0.9-1.6-1.4-2.7-1.4c-0.8,0.1-1.6,0.5-2.4,0.7
		c-1.1,0.2-2.3-0.2-3.3-0.6s-2.2-0.9-3.3-0.9s-2.4,0.6-2.7,1.7c-0.2,0.6-0.1,1.2-0.2,1.8c-0.3,1.1-1.2,1.8-2.1,2.4
		c-0.7,0.4-1.4,0.8-1.5,1.5c-0.1,0.5,0.2,0.9,0.4,1.4c0.3,0.8,0.3,1.6,0,2.4c-0.2,0.6-0.6,1.1-0.8,1.6c-0.3,0.8-0.3,1.6,0.1,2.4
		c0.3,0.5,0.8,1,1.4,1.1C245.9,124.6,246.2,124,246.9,124.1z"/>
	<g class="st15">
		<path d="M248.9,122.2c-0.2,0.7-0.7,1.6-1.4,1.5c-0.2,0-0.4-0.1-0.7-0.2c-0.6-0.1-1,0.4-1.6,0.3c-0.6-0.2-1.1-0.6-1.4-1.1
			c-0.2-0.3-0.3-0.6-0.3-1c-0.1,0.5,0,1.1,0.3,1.5c0.3,0.5,0.8,1,1.4,1.1c0.6,0.1,1-0.4,1.6-0.3c0.2,0.1,0.4,0.1,0.7,0.2
			c0.7,0.1,1.3-0.7,1.4-1.5c0.1-0.6,0.2-1.3,0.1-2C249.1,121.3,249,121.8,248.9,122.2z"/>
		<path d="M244.9,117.8c0-0.5,0-1-0.2-1.4c-0.1-0.3-0.2-0.6-0.3-0.9c0,0.1,0,0.1,0,0.2c-0.1,0.5,0.2,0.9,0.4,1.4
			C244.8,117.2,244.8,117.5,244.9,117.8z"/>
		<path d="M267.5,116.2c-0.1,0.8-0.8,1.6-0.9,2.5c0,0.2,0,0.3,0,0.5C266.8,118.1,267.7,117.2,267.5,116.2z"/>
		<path d="M267.6,122.5c0,0.1-0.1,0.2-0.2,0.3c-0.2,0.2-0.6,0.3-0.9,0.4c-0.7,0.3-1.2,1.2-2,1.1c-0.4,0-0.8-0.3-0.9-0.7
			c0,0.1,0,0.1,0,0.2c0,0.5,0.4,1,0.9,1.1l0,0c0.8,0,1.3-0.9,2-1.1c0.3-0.1,0.7-0.1,0.9-0.4C267.6,123.1,267.6,122.8,267.6,122.5
			C267.6,122.5,267.6,122.5,267.6,122.5z"/>
		<path d="M263.8,122.2c-0.1-0.5-0.7-0.8-1.1-1.2c-0.2-0.3-0.3-0.6-0.3-1c0,0.6,0,1.1,0.3,1.5c0.3,0.4,0.9,0.6,1,1
			C263.8,122.5,263.9,122.3,263.8,122.2z"/>
		<path d="M262.5,119.1c0-0.7-0.1-1.5-0.8-1.7c-0.2-0.1-0.4-0.1-0.6-0.2c-0.5-0.2-0.7-0.8-1-1.2c-0.7-0.9-2-0.8-3-0.4
			c-0.4,0.2-0.9,0.4-1.3,0.6c-0.5,0.2-1,0.1-1.4-0.1c-0.2-0.1-0.4-0.3-0.6-0.4c-0.7-0.4-1.6,0-2.1,0.5c-0.6,0.5-1.1,1.2-1.8,1.5
			c-0.3,0.1-0.7,0.2-0.9,0.6c-0.1,0.2-0.1,0.4-0.1,0.6c0,0.1,0,0.2,0,0.3c0-0.1,0-0.2,0.1-0.3c0.2-0.3,0.6-0.4,0.9-0.6
			c0.7-0.3,1.2-1,1.8-1.5c0.6-0.5,1.5-0.9,2.1-0.5c0.2,0.1,0.4,0.3,0.6,0.4c0.4,0.2,0.9,0.3,1.4,0.1c0.5-0.2,0.9-0.3,1.3-0.6
			c1-0.4,2.3-0.4,3,0.4c0.3,0.4,0.5,1,1,1.2c0.2,0.1,0.4,0.1,0.6,0.2c0.5,0.2,0.7,0.8,0.8,1.3V119.1z"/>
	</g>
	<g class="st15">
		<path d="M247.9,122.2c0-1,0.7-1.9,1.7-2.1c1.3-0.3,2.7-0.3,4,0.2c2.8,0.9-0.4,4.3-0.4,4.3s-2.1,2.1-4.1,0.6
			c-0.6-0.4-1-1.1-1.2-1.8C247.9,123,247.8,122.6,247.9,122.2z"/>
		<path d="M263.3,122.2c0-1-0.7-1.9-1.7-2.1c-1.3-0.3-2.7-0.3-4,0.2c-2.8,0.9,0.4,4.3,0.4,4.3s2.1,2.1,4.1,0.6
			c0.6-0.4,1-1.1,1.2-1.8C263.3,123,263.3,122.6,263.3,122.2z"/>
		<polygon points="253,120 253,120.1 258.2,120.1 258.2,120 		"/>
		<path d="M254.7,121.5h0.2V121c0,0,0.5-0.4,1.4,0v0.4h0.3v-0.3h-0.1c0,0,0.1-0.6-0.9-0.5c0,0-0.8-0.1-0.8,0.4h-0.2L254.7,121.5z"/>
	</g>
	<path class="st9" d="M247.9,122c0-1,0.7-1.9,1.7-2.1c1.3-0.3,2.7-0.3,4,0.2c2.8,0.9-0.4,4.3-0.4,4.3s-2.1,2.1-4.1,0.6
		c-0.6-0.4-1-1.1-1.2-1.8C247.9,122.8,247.8,122.4,247.9,122z"/>
	<path class="st9" d="M263.3,122c0-1-0.7-1.9-1.7-2.1c-1.3-0.3-2.7-0.3-4,0.2c-2.8,0.9,0.4,4.3,0.4,4.3s2.1,2.1,4.1,0.6
		c0.6-0.4,1-1.1,1.2-1.8C263.3,122.8,263.3,122.4,263.3,122z"/>
	<polygon class="st9" points="253,119.8 253,119.9 258.2,119.9 258.2,119.8 	"/>
	<path class="st9" d="M254.7,121.3h0.2v-0.5c0,0,0.5-0.4,1.4,0v0.4h0.3V121h-0.1c0,0,0.1-0.6-0.9-0.5c0,0-0.8-0.1-0.8,0.4h-0.2
		L254.7,121.3z"/>
	<rect x="42.5" y="169.1" class="st16" width="1.7" height="37.9"/>
	<path class="st12" d="M54.8,206.9l-0.1,1.7l-0.1,2.4l-0.1,1l-0.1,2.4l-0.1,1l-0.1,2.4l-1.7,27.4c-0.2,2.4-2.2,4.4-4.6,4.4H39
		c-2.4,0-4.5-1.9-4.6-4.4l-1.7-27.4l-0.1-2.4l-0.1-1l-0.1-2.4l-0.1-1l-0.1-2.4l-0.1-1.7c-0.1-1.3,0.9-2.5,2.3-2.5c0.1,0,0.1,0,0.2,0
		h18c1.3,0,2.4,1.1,2.4,2.4C54.8,206.8,54.8,206.9,54.8,206.9z"/>
	<polygon class="st17" points="54.7,208.6 54.5,211.1 32.2,211.1 32.1,208.6 	"/>
	<polygon class="st17" points="54.5,212.1 54.3,214.5 32.4,214.5 32.3,212.1 	"/>
	<polygon class="st17" points="54.3,215.5 54.1,217.9 32.6,217.9 32.5,215.5 	"/>
	<path class="st9" d="M29.8,184c9.4,6.8,13.4,17.5,13.4,17.5s-11.4-0.4-20.8-7.2C12.9,187.5,9,176.8,9,176.8S20.3,177.2,29.8,184z"
		/>
	<path class="st18" d="M7.8,175.8c0,0,12.3,6.8,16.2,12.4s19.3,13.2,19.3,13.2"/>
	<path class="st9" d="M35.8,169.1c5.3,3.8,7.6,9.9,7.6,9.9s-6.4-0.2-11.8-4.1s-7.5-9.9-7.5-9.9S30.5,165.2,35.8,169.1z"/>
	<path class="st18" d="M24,165c0,0,6.7,3.7,8.8,6.8c2.2,3.1,10.5,7.2,10.5,7.2"/>
	<path class="st9" d="M50.6,179.5c-5.9,6.5-7.1,15-7.1,15s8.3-2,14.2-8.5s7.1-15,7.1-15S56.5,173,50.6,179.5z"/>
	<path class="st18" d="M65.9,169.8c0,0-8,6.9-10,11.7c-2,4.8-12.2,12.7-12.2,12.7"/>
</g>
</svg>
