<svg xmlns="http://www.w3.org/2000/svg" viewBox="0 0 82.03 84.02"><defs><style>.cls-1{opacity:0.44;}.cls-2{fill:#fff;}</style></defs><title>puzzle1</title><g id="Calque_2" data-name="Calque 2"><g id="BODY"><g id="_1" data-name="1"><g class="cls-1"><path class="cls-2" d="M24,10.13l-4.46,8.78-2.62-1.33a10.94,10.94,0,0,0-14.71,4.8l-1,2A10.94,10.94,0,0,0,6,39l2.62,1.33L4.15,49.15A10.94,10.94,0,0,0,9,63.86l8,4,3-6a10.94,10.94,0,0,1,14.71-4.8l2,1a10.94,10.94,0,0,1,4.8,14.71l-3,6,8,4A10.94,10.94,0,0,0,61,78l4.46-8.78-5.65-2.87A10.94,10.94,0,0,1,55,51.67l1-2a10.94,10.94,0,0,1,14.71-4.8l5.65,2.87L80.85,39A10.94,10.94,0,0,0,76,24.29l-8-4,1.71-3.37A10.94,10.94,0,0,0,65,2.18l-2-1A10.94,10.94,0,0,0,48.33,6L46.62,9.36l-8-4A10.94,10.94,0,0,0,24,10.13Z"/></g></g></g></g></svg>