<?xml version="1.0" encoding="utf-8"?>
<!-- Generator: Adobe Illustrator 24.0.2, SVG Export Plug-In . SVG Version: 6.00 Build 0)  -->
<svg version="1.1" id="Calque_1" xmlns="http://www.w3.org/2000/svg" xmlns:xlink="http://www.w3.org/1999/xlink" x="0px" y="0px"
	 viewBox="0 0 284 263" style="enable-background:new 0 0 284 263;" xml:space="preserve">
<style type="text/css">
	.st0{opacity:0.4;}
	.st1{fill:#7E64D0;}
</style>
<g class="st0">
	<g>
		<path class="st1" d="M179,246.2l21.5-32.8c8.8-13.5,22-9.1,25.3,2.9c5.4,19.8,29.1,26.6,43.5,6.5c12.6-21.2-3-40.1-23.3-37.2
			c-12.3,1.8-21.7-8.7-12.9-22.1l21-32.1c6.3-9.6,3.6-22.6-6-28.9l-32.5-21.3c-13.5-8.8-9-22.1,3-25.4c19.8-5.4,26.7-29.3,6.6-43.7
			c-21.3-12.7-40.4,3.2-37.4,23.5c1.8,12.3-8.7,21.7-22.2,12.9l-32.4-21.2c-9.6-6.3-22.6-3.6-28.9,6l-21,32.1
			c-8.8,13.5-21.8,9.3-25.1-2.7c-5.4-19.8-29.1-26.5-43.5-6.5C2.2,77.4,17.8,96.3,38.1,93.4c12.3-1.8,21.4,8.5,12.6,22l-21.2,32.4
			c-6.4,9.8-3.7,23.1,6.1,29.5l22.7,14.9l9.7,6.4c13.2,8.2,23.4-1,21.7-13.2c-2.9-20.3,16.2-36.1,37.4-23.5
			c20.1,14.4,13.2,38.2-6.6,43.7c-11.9,3.3-16.2,16.2-3.4,25.1l8.8,5.8l23.8,15.6c0.1,0,0.1,0,0.1,0.1l0.3,0.2
			C159.8,258.5,172.7,255.8,179,246.2z"/>
	</g>
</g>
</svg>
