<svg xmlns="http://www.w3.org/2000/svg" viewBox="0 0 98.29 41.18"><defs><style>.cls-1{fill:#f70;}.cls-2{fill:none;stroke:#f70;stroke-linecap:round;stroke-miterlimit:10;stroke-width:1.67px;}</style></defs><title>slideshow</title><g id="Calque_2" data-name="Calque 2"><g id="BODY"><g id="_1" data-name="1"><path class="cls-1" d="M0,2.2V39a2.21,2.21,0,0,0,2.2,2.2H47.73a2.21,2.21,0,0,0,2.2-2.2V2.2A2.21,2.21,0,0,0,47.73,0H2.2A2.21,2.21,0,0,0,0,2.2Zm2.2,0H47.73V39H2.2Z"/><path class="cls-1" d="M5.24,6.34V30.7a1.1,1.1,0,0,0,1.1,1.1H43.59a1.1,1.1,0,0,0,1.1-1.1V6.34a1.1,1.1,0,0,0-1.1-1.1H6.34A1.1,1.1,0,0,0,5.24,6.34Zm37.25,1.1V24.72l-11-11a1.1,1.1,0,0,0-1.56,0l-9.71,9.71-4.23-4.23a1.1,1.1,0,0,0-1.56,0L7.44,26.1V7.44h35ZM17.09,29.6,30.67,16,42.49,27.83V29.6Zm-9.65,0v-.44A1.1,1.1,0,0,0,7.7,29l7.47-7.47,3.45,3.46L14,29.6H7.44Z"/><path class="cls-1" d="M16.08,13.7a4.17,4.17,0,1,0,4.17-4.17A4.17,4.17,0,0,0,16.08,13.7Zm2.2,0a2,2,0,1,1,2,2A2,2,0,0,1,18.29,13.7Z"/><path class="cls-1" d="M32.9,35.39a1.1,1.1,0,0,0,1.1,1.1h9.59a1.1,1.1,0,1,0,0-2.2H34A1.1,1.1,0,0,0,32.9,35.39Z"/><path class="cls-1" d="M25.36,35.39a1.1,1.1,0,0,0,1.1,1.1H29a1.1,1.1,0,0,0,0-2.2H26.46A1.1,1.1,0,0,0,25.36,35.39Z"/><line class="cls-2" x1="74.37" y1="18.52" x2="48.66" y2="18.52"/><line class="cls-2" x1="68.18" y1="22.87" x2="57.34" y2="22.87"/><line class="cls-2" x1="97.46" y1="36.94" x2="57.34" y2="36.94"/></g></g></g></svg>