<?xml version="1.0" encoding="utf-8"?>
<!-- Generator: Adobe Illustrator 24.0.2, SVG Export Plug-In . SVG Version: 6.00 Build 0)  -->
<svg version="1.1" id="Calque_1" xmlns="http://www.w3.org/2000/svg" xmlns:xlink="http://www.w3.org/1999/xlink" x="0px" y="0px"
	 viewBox="0 0 1517 121" style="enable-background:new 0 0 1517 121;" xml:space="preserve">
<style type="text/css">
	.st0{fill:#EFECFA;}
	.st1{fill:none;}
</style>
<path class="st0" d="M1663.4,334.1c-35.8-30.3-130.1-36.1-155.8-68.9c-14.1-18.1-1.9-38.8,16-56.2c38.5-37.4,104.9-70.9,106-112.7
	c0.8-28.7-33.7-56.7-85.3-69.2c-54-13.1-127.6-9.7-165.5,14.7c-38.9,25.1-109.3,35.9-170.2,36c-69,0.1-135.4-11.7-198.9-24.7
	c-55.9-11.5-111.4-24.1-170-31.2c-7.6-1.5-15.6-2.6-24-3.4c-11.9-1.1-24.5-1.5-37.3-1.2c-32.7-0.6-65.4,2.5-90.1,12.9
	c-6.2,2.6-11.6,5.6-16.2,8.8c-4.2,2.2-8.1,4.5-11.4,7c-32.1,23.5-97.2,38.8-155.3,44.7c-65.9,6.7-131.6,3.8-194.9-0.3
	c-63.3-4.2-126.4-9.6-192.3-8c-42.4,1.1-89.6,6.1-119.2,20.7c-28.5,14.1-32.9,33.1-33,50.2c-0.1,12.9,1.8,26.2,17,36.5
	c10.6,7.1,26.9,12.2,39.2,18.8c42.7,22.8,29.7,58.8,1.7,89.4c-13.2,14.3-29.3,28.5-38.2,43.1s-10.2,30.4,5.9,42.4
	c15.9,11.9,46.6,18.6,78.7,22c65.1,7,137.6,2.7,207.8-3.3c108.6-9.2,216.3-22,323.8-35.9c1.3,3.4,3.1,6.8,5.7,10
	c13.1,16.7,42.8,28.8,74.6,37.1c64.6,16.8,139.8,20.4,213,21.8c162,3.1,324.3-3.2,486.2-9.5c59.9-2.3,120.1-4.7,178.8-11.4
	c32.6-3.7,66.1-9.3,89.2-21.4C1678.7,377.3,1684.7,352.1,1663.4,334.1z"/>
<path class="st0" d="M948.8,332.3C913,301.9,818.7,296.2,793,263.4c-14.1-18.1-1.9-38.8,16-56.2c38.5-37.4,104.9-70.9,106-112.7
	c0.8-28.7-33.7-56.7-85.3-69.2c-54-13.1-127.6-9.7-165.5,14.7C625.4,65,555,75.8,494.1,75.9c-69,0.1-135.4-11.7-198.9-24.7
	c-55.9-11.5-111.4-24.1-170-31.2c-7.6-1.5-15.6-2.6-24-3.4c-11.9-1.1-24.5-1.5-37.3-1.2c-32.7-0.6-65.4,2.5-90.1,12.9
	c-6.2,2.6-11.6,5.6-16.2,8.8c-4.2,2.2-8.1,4.5-11.4,7C-85.9,67.5-151,82.7-209.1,88.6c-65.9,6.7-131.6,3.8-194.9-0.3
	c-63.3-4.2-126.4-9.6-192.3-8c-42.4,1.1-89.6,6.1-119.2,20.7c-28.5,14.1-32.9,33.1-33,50.2c-0.1,12.9,1.8,26.2,17,36.5
	c10.6,7.1,26.9,12.2,39.2,18.8c42.7,22.8,29.7,58.8,1.7,89.4c-13.2,14.3-29.3,28.5-38.2,43.1s-10.2,30.4,5.9,42.4
	c15.9,11.9,46.6,18.6,78.7,22c65.1,7,137.6,2.7,207.8-3.3c108.6-9.2,216.3-22,323.8-35.9c1.3,3.4,3.1,6.8,5.7,10
	c13.1,16.7,42.8,28.8,74.6,37.1c64.6,16.8,139.8,20.4,213,21.8c162,3.1,324.3-3.2,486.2-9.5c59.9-2.3,120.1-4.7,178.8-11.4
	c32.6-3.7,66.1-9.3,89.2-21.4C964.2,375.5,970.2,350.4,948.8,332.3z"/>
<rect x="0" y="-0.2" class="st1" width="1517.1" height="121"/>
</svg>
