<?xml version="1.0" encoding="utf-8"?>
<!-- Generator: Adobe Illustrator 24.0.2, SVG Export Plug-In . SVG Version: 6.00 Build 0)  -->
<svg version="1.1" id="Calque_1" xmlns="http://www.w3.org/2000/svg" xmlns:xlink="http://www.w3.org/1999/xlink" x="0px" y="0px"
	 viewBox="0 0 1517 74" style="enable-background:new 0 0 1517 74;" xml:space="preserve">
<style type="text/css">
	.st0{fill:#EFECFA;}
	.st1{fill:none;}
</style>
<path class="st0" d="M1283.8,37.2c113,0,221.7,4.8,325.7,10.1c104,5.3,207.2,11.3,318.1,13.8c71.3,1.6,152.4,1.5,208.1-4.4
	c53.7-5.7,69.2-15.1,76.7-23.8c5.6-6.5,8.2-13.4-12.9-19.4c-14.7-4.2-39.8-7.6-57.4-11.5c-61.7-13.8-24.6-31.3,35.4-45.4
	c28.1-6.6,61.1-12.9,82.3-19.9c21.3-7,30-14.9,8.3-21.8c-21.5-6.8-70-11.8-122.1-15.2c-105.8-6.9-229-8.4-348.8-8.9
	c-265.3-1.3-531.2,1.3-796.3,3.9c-98.1,1-196.7,1.9-292.8,4.7C654.7-99.2,599.8-96.9,562-92c-48,6.3-57.8,16.6-22.9,24
	c58.6,12.4,213.1,14.8,255.1,28.2c23.2,7.4,3.2,15.9-26.2,23c-63.1,15.3-171.8,29-173.6,46.2c-1.3,11.8,55.2,23.2,139.6,28.4
	c88.4,5.4,209,4,271-6C1068.7,41.6,1184,37.2,1283.8,37.2z"/>
<path class="st0" d="M-146-236.1c35.9,28.1,130.6,33.4,156.3,63.9c14.2,16.8,2,36-16.1,52.1C-44.4-85.5-111-54.5-112.1-15.7
	c-0.8,26.6,33.8,52.6,85.6,64.1c54.2,12.1,128.1,9,166.1-13.6c39-23.3,109.7-33.3,170.8-33.3c69.2-0.1,135.9,10.8,199.6,22.9
	C566,35,621.7,46.7,680.5,53.3c7.6,1.4,15.7,2.4,24,3.2c11.9,1,24.6,1.4,37.4,1.2c32.8,0.6,65.7-2.3,90.4-12
	c6.2-2.4,11.6-5.2,16.3-8.2c4.2-2,8.1-4.2,11.5-6.4C892.3,9.3,957.7-4.9,1016-10.4c66.1-6.2,132.1-3.5,195.6,0.3
	c63.5,3.9,126.8,8.9,192.9,7.4c42.5-1,89.9-5.6,119.6-19.2c28.6-13,33-30.6,33.1-46.5c0.1-11.9-1.8-24.3-17.1-33.8
	c-10.6-6.6-27-11.3-39.3-17.4c-42.9-21.2-29.8-54.5-1.7-82.8c13.2-13.3,29.4-26.4,38.3-40c9-13.6,10.2-28.2-5.9-39.3
	c-15.9-11-46.8-17.2-79-20.4c-65.3-6.5-138.1-2.5-208.5,3c-108.9,8.5-217.1,20.4-324.9,33.2c-1.3-3.2-3.1-6.3-5.7-9.3
	c-13.2-15.5-42.9-26.7-74.8-34.3c-64.8-15.6-140.3-18.9-213.7-20.2c-162.6-2.9-325.5,3-487.9,8.8c-60.1,2.2-120.5,4.3-179.4,10.6
	c-32.7,3.5-66.4,8.6-89.5,19.8C-161.4-276.2-167.4-252.9-146-236.1z"/>
<rect x="-0.3" y="0.4" class="st1" width="1517.7" height="73.3"/>
</svg>
