<?xml version="1.0" encoding="utf-8"?>
<!-- Generator: Adobe Illustrator 24.0.2, SVG Export Plug-In . SVG Version: 6.00 Build 0)  -->
<svg version="1.1" id="Calque_1" xmlns="http://www.w3.org/2000/svg" xmlns:xlink="http://www.w3.org/1999/xlink" x="0px" y="0px"
	 viewBox="0 0 1517 100" style="enable-background:new 0 0 1517 100;" xml:space="preserve">
<style type="text/css">
	.st0{fill:none;}
	.st1{fill:#FFEACF;}
</style>
<rect x="0.1" y="-9.4" class="st0" width="1516.9" height="134.3"/>
<path class="st1" d="M862.4-425c-104.8-0.4-205.2-18-301.3-37.4S369.9-503.5,267.2-513c-66-6.1-141.2-5.9-193.5,14.9
	c-50.3,20-65.5,53.4-73.2,84.4c-5.8,23.3-8.8,47.7,10.2,69.1C24-329.8,47-317.5,63.1-303.4c56,49.3,20.1,111.7-36.8,161.6
	C-0.5-118.4-31.5-96-51.8-71.2s-29.1,53-9.6,77.6C-42.1,30.8,2.5,48.7,50.6,61c97.6,25,211.7,30.8,322.8,33.3
	c246,5.6,492.9-2.4,739-10.5c91.1-3,182.6-6,272-15.4c49.6-5.2,100.8-13.1,136.3-30.6c45.2-22.3,55.2-59,23.4-85.5
	c-53.3-44.5-196.3-53.5-234.1-101.6c-20.8-26.5-1.6-56.6,26.4-82c59.9-54.3,161.9-102.7,165.1-163.7c2.2-41.9-49.2-83-127-101.6
	c-81.7-19.5-193.6-15.2-252,20.2C1062.3-440,955-424.6,862.4-425z"/>
<rect x="-4.5" y="0.4" class="st0" width="1525.2" height="91.9"/>
</svg>
