<?xml version="1.0" encoding="utf-8"?>
<!-- Generator: Adobe Illustrator 24.0.2, SVG Export Plug-In . SVG Version: 6.00 Build 0)  -->
<svg version="1.1" id="Calque_1" xmlns="http://www.w3.org/2000/svg" xmlns:xlink="http://www.w3.org/1999/xlink" x="0px" y="0px"
	 viewBox="0 0 1517 125" style="enable-background:new 0 0 1517 125;" xml:space="preserve">
<style type="text/css">
	.st0{fill:#FFEACF;}
	.st1{fill:none;}
</style>
<path class="st0" d="M959,109.7c-120-0.5-235-20.8-344.9-43.4S395.2,18.6,277.7,7.5C202.1,0.4,116,0.7,56.2,24.8
	c-57.5,23.3-75,62.1-83.8,98c-6.7,27-10.1,55.4,11.7,80.2c15.1,17.2,41.4,31.5,59.9,48c64.1,57.2,23,129.8-42.1,187.7
	c-30.6,27.2-66.2,53.2-89.5,82c-23.3,28.8-33.3,61.5-11,90.1c22.1,28.4,73.2,49.1,128.2,63.4c111.7,29,242.3,35.7,369.6,38.7
	c281.7,6.5,564.3-2.8,846.1-12.2c104.3-3.5,209.1-7,311.4-17.8c56.8-6.1,115.4-15.2,156.1-35.6c51.7-25.9,63.2-68.5,26.8-99.3
	c-61-51.7-224.8-62.2-268.1-118c-23.9-30.8-1.8-65.8,30.2-95.2c68.6-63.1,185.3-119.3,189-190.1c2.5-48.7-56.3-96.4-145.4-118
	C1451.7,4,1323.6,9.1,1256.7,50.1C1187.9,92.3,1065.1,110.1,959,109.7z"/>
<rect x="0.1" y="-9.4" class="st1" width="1516.9" height="134.3"/>
</svg>
