<?xml version="1.0" encoding="utf-8"?>
<!-- Generator: Adobe Illustrator 24.0.2, SVG Export Plug-In . SVG Version: 6.00 Build 0)  -->
<svg version="1.1" id="Calque_1" xmlns="http://www.w3.org/2000/svg" xmlns:xlink="http://www.w3.org/1999/xlink" x="0px" y="0px"
	 viewBox="0 0 1517 100" style="enable-background:new 0 0 1517 100;" xml:space="preserve">
<style type="text/css">
	.st0{fill:#FFEACF;}
</style>
<path class="st0" d="M1555.6-113.7c1.3-30.6,42.1-59.4,87.1-86.9c44.9-27.5,95.1-54.6,117.4-84.4c14.3-19.1,14.1-41.1-33.5-57
	c-45.7-15.3-122.4-20.8-193.5-24c-53.5-2.4-109.5-4-158.7,0.8c-34,3.4-62.4,9.8-94.8,14c-113.4,14.8-256.6,2.4-371-15.8
	c-53.6-8.6-105-18.3-161.8-25s-121.6-10.1-178.2-5.2c-56.1,4.9-97.4,17.4-125.8,31.1c-57.8,27.8-71.6,61-77.7,93.4
	c-13.8,71.8,3.6,144.2,21.2,216.4c6.5,26.7,13.1,53.6,34.3,80c11.7,14.7,29.7,29.9,69.7,40.8c51,13.9,135.3,18,196.3,9.5
	C788.9,59.7,810.1,18.2,920.7,8.6c60.9-5.3,130,1.3,188.2,10.3c124.5,19.2,235.2,50.5,375.3,53.3c96.2,1.9,190.8-11.8,233.8-34
	c45.1-23.3,35.7-56.1-45.4-74.3C1589.3-54.8,1554.4-86.7,1555.6-113.7z"/>
<path class="st0" d="M640.4-120.3c1-33,27.3-64.4,56.1-94.3c28.8-29.9,61.1-59.5,75.4-91.7c9.2-20.7,9.2-44.4-21-61.3
	c-29.1-16.3-78-21.7-123.4-24.8c-34.1-2.3-69.9-3.7-101.3,1.9c-21.8,3.9-39.9,10.9-60.6,15.7c-72.5,16.7-163.8,4.1-236.7-14.8
	c-34.2-8.9-66.9-19.1-103.2-26c-36.3-6.9-77.6-10.2-113.7-4.6c-35.8,5.6-62.3,19.3-80.5,34.2c-37.1,30.3-46,66.2-50.2,101.1
	c-9.3,77.5,1.4,155.5,12.3,233.3c4,28.8,8,57.7,21.4,86.1c7.4,15.7,18.8,32,44.3,43.6c32.5,14.7,86.2,18.6,125.2,9.1
	c65.5-15.9,79.3-60.8,149.9-71.8c38.9-6,83,0.6,120.1,9.9c79.3,20,149.9,53.1,239.3,55.3c61.4,1.5,121.9-13.9,149.5-38
	c28.9-25.4,23.1-60.8-28.5-79.9C661.5-56.9,639.4-91.1,640.4-120.3z"/>
</svg>
