<?xml version="1.0" encoding="utf-8"?>
<!-- Generator: Adobe Illustrator 24.0.2, SVG Export Plug-In . SVG Version: 6.00 Build 0)  -->
<svg version="1.1" id="Calque_1" xmlns="http://www.w3.org/2000/svg" xmlns:xlink="http://www.w3.org/1999/xlink" x="0px" y="0px"
	 viewBox="0 0 323 227" style="enable-background:new 0 0 323 227;" xml:space="preserve">
<style type="text/css">
	.st0{opacity:0.2;fill:#53A6F9;enable-background:new    ;}
	.st1{opacity:0.1;}
	.st2{fill:#F7F7FD;}
	.st3{opacity:0.2;}
	.st4{fill:#53A6F9;}
	.st5{fill:#FFFFFF;}
	.st6{opacity:0.1;fill:#53A6F9;enable-background:new    ;}
	.st7{opacity:0.1;enable-background:new    ;}
	.st8{fill:#FFD037;}
	.st9{fill:#FBCD98;}
	.st10{opacity:0.2;enable-background:new    ;}
	.st11{fill:#D38884;}
	.st12{fill:#4C4981;}
	.st13{opacity:5.000000e-02;enable-background:new    ;}
	.st14{fill:#CC8294;}
	.st15{fill:#1E1637;}
	.st16{fill:#FFD2C6;}
	.st17{fill:#626696;}
	.st18{fill:#FFCDE5;}
	.st19{fill:#985C7E;}
	.st20{fill:url(#SVGID_1_);}
	.st21{fill:#DB8B8B;}
	.st22{fill:#2E3037;}
	.st23{fill:#474463;}
	.st24{fill:#FC6681;}
	.st25{fill:#472727;}
	.st26{fill:none;stroke:#565987;stroke-miterlimit:10;}
</style>
<g>
	<path class="st0" d="M197.9,31.1c-13.4,9.4-30.7,8.8-46,3.9s-29.2-13.6-44-19.7C95.6,10.1,82.6,6.7,69.3,5.2
		C50.4,3,29.3,5.7,16.1,20.8C1.5,37.7,2.6,68.1,18.4,83.6c8.1,7.9,18.6,11.7,27.8,17.9s17.7,16.4,17,28.2
		c-0.7,11-9.2,19.4-17.9,24.7c-6.8,4.1-15.1,8.6-15.9,17c-0.8,8.2,6.2,14.6,12.9,18.3c21.8,11.9,48.6,11.8,70.3-0.3
		c7.7-4.3,14.8-10.1,23-13.4c21.3-8.8,44.8,0.1,67.4,3.3c19.2,2.7,38.7,1.3,57.3-4.2c11.2-3.3,22.4-8.3,30.2-17.8
		c5.7-6.8,9.2-15.4,12.5-23.8c3.5-9,6.9-18.1,10.2-27.3c2-5.5,3.9-11.1,4.4-17c0.9-10.7-2.9-21.2-8.2-30.2
		c-12.5-21.4-33.5-36.4-56.2-40.2s-46.8,3.6-64.4,19.9"/>
	<g class="st1">
		<path d="M162.3,34.5l-1.1,64c0,0,39.9,0,73.9,11l0.7-64.6C235.7,44.8,181.2,31.8,162.3,34.5z"/>
	</g>
	<path class="st2" d="M161.4,33.3l-1.1,64c0,0,39.9,0,73.9,11l0.7-64.6C234.8,43.7,180.3,30.7,161.4,33.3z"/>
	<g class="st1">
		<path d="M142.2,36.3l1.1,64c0,0-39.9,0-73.9,11l-0.7-64.6C68.8,46.7,123.3,33.7,142.2,36.3z"/>
	</g>
	<path class="st2" d="M143.1,34.8l1.1,64c0,0-39.9,0-73.9,11l-0.7-64.6C69.7,45.2,124.1,32.2,143.1,34.8z"/>
	<g class="st3">
		<path class="st4" d="M125.2,42.3l0.6,34.3c0,0-21.4,0-39.6,5.9l-0.4-34.6C85.8,47.9,115,40.9,125.2,42.3z"/>
	</g>
	<g class="st1">
		<path d="M259.2,58v63.3c0,0,13-1.5,40.4,32.2l2.4-63.3C302,90.2,273.5,59.5,259.2,58z"/>
	</g>
	<path class="st2" d="M258.6,57.1v63.3c0,0,13-1.5,40.4,32.2l2.4-63.3C301.4,89.3,273,58.7,258.6,57.1z"/>
	<g class="st1">
		<path d="M48.7,58.3v63.3c0,0-13-1.5-40.3,32.2L5.9,90.5C5.9,90.5,34.4,59.8,48.7,58.3z"/>
	</g>
	<path class="st2" d="M49.6,57.1v63.3c0,0-13-1.5-40.3,32.2L6.8,89.3C6.8,89.3,35.3,58.7,49.6,57.1z"/>
	<g class="st3">
		<polygon class="st4" points="172,46.6 199.1,51.4 199.1,55.4 172,50.2 		"/>
	</g>
	<polygon class="st5" points="120,84.7 92.9,89.5 92.9,93.4 120,88.2 	"/>
	<polygon class="st5" points="172.4,54 221.8,64.2 221.8,68.1 172.4,57.5 	"/>
	<polygon class="st5" points="172.4,61.3 221.8,71.5 221.8,75.4 172.4,64.9 	"/>
	<g class="st3">
		<polygon class="st4" points="270.1,77.6 270.1,81 280.7,89.6 281.2,86.7 		"/>
	</g>
	<polygon class="st5" points="270.1,111.1 270.1,114.6 280.7,123.2 281.2,120.2 	"/>
	<polygon class="st5" points="270.3,83.5 270.1,87 290.2,105.9 289.9,101.9 	"/>
	<polygon class="st5" points="270.1,90 270.1,93.3 290.2,112.5 290.2,108.2 	"/>
	<g class="st3">
		<polygon class="st4" points="37.9,78.3 38.1,81.8 18,100.7 18.4,96.7 		"/>
	</g>
	<g class="st3">
		<polygon class="st4" points="38.1,84.8 38.1,88.1 18,107.3 18,103 		"/>
	</g>
	<ellipse class="st6" cx="65" cy="184.5" rx="16.5" ry="3"/>
	<path class="st4" d="M25.9,168.2c0,0,1.6,2.1-0.7,5.2s-4.2,5.8-3.5,7.7c0,0,3.5-5.8,6.4-5.9C30.9,175.1,29,171.7,25.9,168.2z"/>
	<path class="st7" d="M25.9,168.2c0.1,0.2,0.2,0.4,0.3,0.7c2.8,3.3,4.3,6.3,1.6,6.4c-2.5,0.1-5.5,4.5-6.2,5.7c0,0.1,0.1,0.2,0.1,0.3
		c0,0,3.5-5.8,6.4-5.9C30.9,175.2,29,171.7,25.9,168.2z"/>
	<path class="st8" d="M28.8,170.8c0,0.7-0.1,1.3-0.2,1.3s-0.2-0.6-0.2-1.3c0-0.7,0.1-0.4,0.2-0.4C28.8,170.4,28.8,170.1,28.8,170.8z
		"/>
	<path class="st8" d="M29.9,171.7c-0.6,0.4-1.2,0.6-1.3,0.5s0.4-0.4,1.1-0.8c0.6-0.4,0.4-0.1,0.4,0
		C30.2,171.5,30.5,171.4,29.9,171.7z"/>
	<path class="st4" d="M17.5,168.2c0,0-1.6,2.1,0.7,5.2c2.3,3.1,4.2,5.8,3.5,7.7c0,0-3.5-5.8-6.4-5.9
		C12.5,175.2,14.4,171.7,17.5,168.2z"/>
	<path class="st7" d="M17.5,168.2c-0.1,0.2-0.2,0.4-0.3,0.7c-2.8,3.3-4.3,6.3-1.6,6.4c2.5,0.1,5.5,4.5,6.2,5.7
		c0,0.1-0.1,0.2-0.1,0.3c0,0-3.5-5.8-6.4-5.9C12.5,175.2,14.4,171.7,17.5,168.2z"/>
	<path class="st8" d="M14.5,170.8c0,0.7,0.1,1.3,0.2,1.3c0.1,0,0.2-0.6,0.2-1.3c0-0.7-0.1-0.4-0.2-0.4S14.5,170.1,14.5,170.8z"/>
	<path class="st8" d="M13.5,171.7c0.6,0.4,1.2,0.6,1.3,0.5s-0.4-0.4-1.1-0.8c-0.6-0.4-0.4-0.1-0.4,0
		C13.2,171.5,12.9,171.4,13.5,171.7z"/>
	<path class="st9" d="M15,180.9c0,0,4.4-0.1,5.8-1.1s6.8-2.1,7.2-0.6c0.3,1.5,6.7,7.6,1.7,7.6c-5,0-11.7-0.8-13-1.6
		S15,180.9,15,180.9z"/>
	<path class="st10" d="M29.7,186.3c-5,0-11.7-0.8-13-1.6c-1-0.6-1.4-2.8-1.6-3.9H15c0,0,0.3,3.6,1.6,4.4c1.3,0.8,8,1.6,13,1.6
		c1.4,0,2-0.5,1.9-1.3C31.4,186,30.8,186.3,29.7,186.3z"/>
	<ellipse class="st6" cx="179.6" cy="140.8" rx="27.2" ry="4.7"/>
	<path class="st11" d="M174.1,77.9c-0.1,0.3-0.2,0.6-0.3,0.9c0,0.1,0,0.2-0.1,0.2c-0.2,0.9-0.3,2-0.4,2.6c0,0.3,0,0.5,0,0.5
		s-6.3-0.4-5.2-1.5c0.3-0.3,0.5-0.6,0.6-1c0-0.1,0.1-0.2,0.1-0.3c0.1-0.3,0.1-0.5,0.1-0.8c0-0.1,0-0.1,0-0.2c0-0.4,0-0.9-0.1-1.3
		c0,0,2,0,3.6,0.2C173.5,77.3,174.3,77.5,174.1,77.9z"/>
	<path class="st11" d="M163.2,107.7c-2.1-0.1-0.6-4.5-0.3-5.1c0.2-0.6-0.4-2.1-0.4-2.1s-0.7-4.2-0.7-4.5c0-0.6-0.1-1.2-0.2-1.7
		c-0.1-0.6,0-1.2,0.3-1.7c0.2-0.4,0.2-1.9,0.2-1.9v-2l0.5-0.6l1.2,1.2l0.3,0.3l0.6,2.2l-0.2,3.2l-0.1,3.1l0.7,4.3
		C165.1,102.4,165.4,107.8,163.2,107.7z"/>
	<polygon class="st7" points="163.9,89.8 162.1,89 162.1,88.7 162.5,88.1 163.8,89.2 	"/>
	<path class="st12" d="M163,85.2c-0.2,0.6-0.4,1.2-0.5,1.8c-0.1,0.6-0.3,1.2-0.5,1.7l2,0.8L163,85.2z"/>
	<path class="st13" d="M163,85.2c-0.2,0.6-0.4,1.2-0.5,1.8c-0.1,0.6-0.3,1.2-0.5,1.7l2,0.8L163,85.2z"/>
	<path class="st11" d="M179.2,129.5l-0.2,0.4c0,0-0.2,1.2-0.2,1.2c0,0-0.5,0.8-0.5,0.8l-1.3,0.3l-0.6-0.1c0-0.3-0.1-0.7-0.2-1
		c0-0.1,0-0.2-0.1-0.3c-0.2-0.7-0.5-1.4-0.9-2.1c0,0-1-2.4-1.3-2.7c-0.4-0.3-1.7-3.5-1.5-4.3c0.1-0.4,0-1.8-0.1-3
		c-0.1-1-0.1-1.8-0.1-1.8l3.3-2l0.4,0.6l0,0l0.2,0.4c0,0,0,0.1,0,0.2v0c0,0.5-0.1,1-0.3,1.4c0,0-0.2,1.8,0,2.1
		c0.2,0.3,1,4.5,1.2,6.5c0,0.1,0,0.1,0,0.2c0.1,0.9,0.6,1.7,1.2,2.3l0,0c0,0,0.1,0.1,0.1,0.1C178.6,129,178.9,129.3,179.2,129.5z"/>
	<path class="st7" d="M176.4,132.1l0.6,0.1l1.3-0.3c0,0,0.5-0.8,0.5-0.8c0,0,0.2-1.2,0.2-1.2l0.2-0.4l0,0c-0.3-0.2-0.6-0.5-0.9-0.7
		l0,0c0,0-0.1-0.1-0.1-0.1c0,0,0.2,1.2-0.8,1.7c-0.5,0.3-0.9,0.4-1.2,0.6L176.4,132.1z"/>
	<path class="st9" d="M179.4,129.6l-0.2,0.4c0,0-0.2,1.2-0.2,1.2c0,0-0.5,0.8-0.5,0.8l-1.3,0.3l-0.8-0.1c0-0.2,0-0.4-0.1-0.6
		c0-0.2-0.1-0.3-0.1-0.5c0.3-0.1,0.7-0.3,1.3-0.6c1-0.5,0.8-1.7,0.8-1.7c0.2,0.2,0.4,0.4,0.7,0.6
		C179.2,129.5,179.3,129.6,179.4,129.6z"/>
	<path class="st7" d="M179.4,129.6l-0.2,0.4c0,0-0.2,1.2-0.2,1.2c0,0-0.5,0.8-0.5,0.8l-1.3,0.3l-0.8-0.1c0-0.2,0-0.4-0.1-0.6
		c0.2,0,0.3,0,0.5,0.1c0,0,1.8,0.4,1.9-1c0.1-0.8,0.2-1.1,0.4-1.3C179.2,129.5,179.3,129.6,179.4,129.6z"/>
	<path class="st14" d="M179.3,129.5c0,0-0.4-0.1-0.5,1.3s-1.9,1-1.9,1s-0.9-0.2-0.9,0.1c0,0.3,0.1,0.7,0.2,1c0,0,0.1,0.9,0.2,1.1
		s0.1,1,0.1,1s0.1,0.6,1.5,0c0,0,1.2-0.3,2.3-1.8c0-0.1-0.1-0.2,0.8-0.5c0.9-0.3,3.5-2.4,3.3-3.4c0-0.3-0.3-0.6-0.6-0.7
		c-0.3-0.1-0.6,0-0.8,0.1c-0.2,0.1-0.5,0.2-0.8,0.3c-0.3,0.1-0.7,0.2-1.1,0.3c-0.3,0-0.6,0.1-0.8,0.2
		C179.9,129.6,179.6,129.6,179.3,129.5z"/>
	<path class="st11" d="M169.1,119.7c-0.2,0.2-0.4,0.4-0.5,0.6c-0.5,0.8-0.8,1.9-1.2,2.3c-0.4,0.6-0.6,1.8-0.6,1.8
		c-0.1,0.8-1.8,4.9-2.2,5.7c-0.4,0.7-1.1,2.7-1.1,2.7c-0.4,0.5-0.4,1.2-0.3,1.5c0,0.1,0,0.1,0,0.1c0,0,0,0.1,0,0.1v0l-0.6,1
		l-1.9-0.3l-1-0.7c0.1-0.1,0.2-0.3,0.2-0.4c0.5-1.2,0.9-3.3,0.9-3.3s0.5-2.4,0.5-3c0-0.8,0.1-1.5,0.2-2.3c0,0,1.5-4.6,2-5.4
		c0.2-0.3,0.3-0.6,0.4-1c0-0.1,0-0.1,0-0.2l0.7-0.7C164.5,118.3,169.9,119.1,169.1,119.7z"/>
	<path class="st7" d="M163.3,134.3c0,0,0,0.1,0,0.2v0.1l-0.6,1l-1.9-0.3l-1-0.7c0.1-0.1,0.2-0.3,0.2-0.4c0.5-0.1,1.6,0.3,1.6,0.3
		S162.7,134.7,163.3,134.3C163.2,134.3,163.2,134.3,163.3,134.3z"/>
	<path class="st9" d="M162.8,137.1l-2,0.5l-1.8-1.3l0.1-0.7c0.1-0.1,0.2-0.2,0.3-0.3c0.1-0.2,0.2-0.3,0.3-0.5
		c0.1-0.6,1.8,0.1,1.8,0.1s1.3,0.2,1.7-0.2c0,0.4,0,0.7,0.1,1.1c0,0.2,0.1,0.3,0.3,0.4C164.1,136.4,162.8,137.1,162.8,137.1z"/>
	<path class="st7" d="M162.8,137.1l-2,0.5l-1.8-1.3l0.1-0.7c0.1-0.1,0.2-0.2,0.3-0.3c0.1,0,0.3,0,0.4,0c0.3,0,1,1.3,1,1.3
		c1.8,0.1,2.3-0.5,2.5-0.9c0,0.2,0.1,0.3,0.3,0.4C164.1,136.4,162.8,137.1,162.8,137.1z"/>
	<path class="st14" d="M160.9,136.7c0,0-0.7-1.3-1-1.3c-0.3,0-0.5,0-0.8,0c0,0-0.8,1.9-1.1,2c-0.3,0.2-0.7,1.1-0.7,1.1
		s2.1,2,4.1,1.6c0.6,0,1.3,0.2,1.8,0.5c0.9,0.5,4.8,0.1,5.3-0.7c0.4-0.6,0.5-1.1,0.2-1.4c-0.2-0.2-0.5-0.3-0.7-0.2
		c-0.5,0.1-1.6,0.1-2.6-1.1c0,0-1.8-1.6-1.9-1.6C163.4,135.4,163.6,136.9,160.9,136.7z"/>
	<path class="st7" d="M176.2,116.2L176.2,116.2c-0.1,0.2-1,1.1-1.3,1.2c-0.4,0.2-0.9,0.3-1.3,0.6c0,0-0.5,0.7-0.9,0.7
		c-0.1,0-0.3,0.1-0.4,0.1c-0.1-1-0.1-1.8-0.1-1.8l3.3-2l0.4,0.6l0,0C176,115.8,176.1,116.1,176.2,116.2L176.2,116.2z"/>
	<path class="st9" d="M164.1,102.6c0,0-1.3,1.7,0,3.9c0.7,1.3,1.6,2.4,2.7,3.4l4.4,9.2c0,0,1.2-0.6,1.6-0.7c0.4,0,0.9-0.7,0.9-0.7
		c0.4-0.2,0.8-0.4,1.3-0.6c0.3-0.1,1.3-1.2,1.3-1.2s-0.5-1.1-0.4-1.3s-0.3-1-0.3-1c-0.1-0.4-0.2-0.7-0.3-1.1c0-0.3-0.5-0.9-0.5-0.9
		s-0.5-0.7-0.5-1.1c0-0.4-0.7-1.9-0.7-1.9l-0.2-6.7L164.1,102.6z"/>
	<path class="st13" d="M176.2,116c0,0-1,1.1-1.3,1.2c-0.4,0.2-0.9,0.4-1.3,0.6c0,0-0.5,0.7-0.9,0.7c-0.3,0.1-0.6,0.2-0.9,0.3
		c-0.4,0.2-0.7,0.4-0.7,0.4l-4.4-9.2c-0.4-0.3-0.7-0.7-1.1-1.1c-0.6-0.7-1.1-1.5-1.6-2.3c-0.5-0.8-0.7-1.8-0.5-2.7
		c0.1-0.4,0.3-0.8,0.5-1.2l3.1-0.2l6.3-0.4l0.1,2l0.1,4.7c0,0,0.1,0.2,0.2,0.5c0.2,0.4,0.3,0.9,0.4,1.3c0,0.4,0.5,1.1,0.5,1.1
		s0.5,0.7,0.5,0.9c0.1,0.4,0.2,0.7,0.3,1.1c0,0,0.4,0.7,0.3,1C175.7,114.9,176.2,116,176.2,116z"/>
	<path class="st7" d="M169.1,119.7c-0.2,0.2-0.4,0.4-0.5,0.6c-1.9,0.1-4.1-0.9-4.7-1.1c0-0.1,0-0.1,0-0.2l0.7-0.7
		C164.5,118.3,169.9,119.1,169.1,119.7z"/>
	<path class="st9" d="M174.7,104.7c0,0-0.3,1-0.4,1.4c-0.1,0.4-0.3,2.5-0.3,2.5l-0.1,0.6l-2,9.5l-0.4,2.1c-0.8,0.4-2.7-0.7-2.7-0.7
		c-2.2,0.2-5-1.2-5-1.2s0.5-1.5,0.4-2.2s0.6-1.3,0.6-1.3c-0.2-0.7,0.5-3.6,0.5-3.6s0.1-1.1,0.7-1.4c0.5-0.3-0.1-0.7-0.2-0.9
		c0-0.2,0-0.4,0-0.6c0-0.2,0.1-0.3,0.2-0.5c-1.3-1.3-1.5-3.4-1.5-4.6c0-0.3,0-0.6,0-0.8l2.9-0.5l6.3-1.1l0.6,2l0,0l0.2,0.5
		L174.7,104.7z"/>
	<path class="st7" d="M174.1,77.9c-0.1,0.3-0.2,0.6-0.3,0.9c0,0.1,0,0.2-0.1,0.2c-0.6,0.4-1,0.4-1.8,0.4c-0.3,0-0.4-0.5-0.7-0.6
		c0,0-0.4-1.4-0.5-0.2c-0.7-0.2-1.4,0.4-1.9-0.1l0,0c0-0.1,0-0.1,0-0.2c0-0.4,0-0.9-0.1-1.3c0,0,2,0,3.6,0.2
		C173.5,77.3,174.3,77.5,174.1,77.9z"/>
	<path class="st11" d="M175.5,75.5c0,2.2-1.8,3.9-3.9,3.9c-0.3,0-0.5,0-0.8-0.1l0,0c-2.1-0.4-3.5-2.5-3-4.6c0.4-2.1,2.5-3.5,4.6-3
		c1.1,0.2,2.1,0.9,2.6,1.9C175.4,74.2,175.5,74.8,175.5,75.5z"/>
	<path class="st7" d="M173.4,81.7c0,0.3,0,0.5,0,0.5s-6.3-0.4-5.2-1.5c0.3-0.3,0.5-0.6,0.6-1l2.7,0.4c0,0,0.8,0.6,1.4,1.2
		C173,81.4,173.2,81.6,173.4,81.7z"/>
	<path class="st7" d="M174.3,104c-0.3,0-0.6,0-0.8-0.1c-0.1,0-0.2-0.1-0.3-0.1c-0.5-0.3-2.3,0.1-2.3,0.1s-4.8,0.3-5,0
		c-0.1-0.2-1-0.2-1.6-0.1c-0.3,0-0.5,0.1-0.7,0.1c0.1-0.4,0.3-0.8,0.5-1.2l3.1-0.2l6.3-1.1l0.6,2l0,0
		C174.2,103.5,174.3,103.7,174.3,104z"/>
	<path class="st12" d="M171.5,80.3l-3.4-0.6c-0.1,0.3-0.4,0.5-0.6,0.6c-0.5,0.1-2.5,1.2-3.4,2.4l-0.9,1.3c0,0-0.7,0.9-0.5,1.6
		c0.2,0.7,0.5,3.2,0.5,3.2l0.4,2.8c0,0,0.7,2,0.5,2.9c-0.2,0.9,0.1,4.6,0.1,4.6l-0.7,4.6c0,0,2.4-0.3,2.6,0c0.2,0.3,5,0,5,0
		s1.7-0.4,2.3-0.1c0.4,0.2,0.8,0.3,1.2,0.2c0,0-0.4-1.4-0.2-2.2c0.2-0.8,0.2-2.3,0.2-2.3s0.4-2.1,0.2-2.5c-0.2-0.4,0.4-1.8,0.4-1.8
		l1.9-9.8c0,0-0.2-1.8-1.2-2.3c-1-0.6-2.1-0.8-2.7-1.3C172.2,80.9,171.5,80.3,171.5,80.3z"/>
	<path class="st11" d="M173,90v1.2l1.1,2.9l0.4,2.7c0,0,0.7,1.9,0.7,2.6c0,0.7,1.7,3.9,1.7,3.9s0.5,1.1,0.2,1.3
		c-0.2,0.2-2.3,4.8,0.3,4.7c2.6-0.1,1.8-5,1.8-5l-0.4-2.1c0,0-0.5-5.3-0.5-5.6c0,0-0.6-2.2-0.7-2.7s-0.5-3-0.5-3l-0.4-1.6L173,90z"
		/>
	<polygon class="st7" points="171.8,93.6 168,95.8 166.8,97.6 168.4,96 	"/>
	<path class="st7" d="M170.7,97.8c0,0-1.7,1.1-2.6,1.1c-0.8,0-2.7,1.9-2.7,1.9s2.7-1.7,2.9-1.7C168.5,99.2,170.7,97.8,170.7,97.8z"
		/>
	<path class="st7" d="M166.2,98.4c0,0-1.6,1.5-1.2,1.6s2.6-1.6,2.6-1.6H166.2z"/>
	<path class="st7" d="M173.4,93.1c0,0-1.3,1.7-0.9,1.7c0.3,0,1.3-1,1.3-1L173.4,93.1z"/>
	<path class="st7" d="M173.6,94.8c0,0-1.4,1.6-1.3,1.9C172.3,97.2,173.6,94.8,173.6,94.8z"/>
	<path class="st7" d="M173.9,95.6c0,0-0.9,1.6-0.5,2S173.9,95.6,173.9,95.6z"/>
	<path class="st7" d="M172.8,91.4c0,0-0.7,1.2-0.2,1.2c0.5,0.1,0.5,0,0.5,0L172.8,91.4z"/>
	<path class="st7" d="M172.9,87.1c-0.2,0.7-0.4,1.4-0.7,2.1c-0.1-0.3-0.2-0.7-0.3-1C172.3,87.8,172.6,87.5,172.9,87.1z"/>
	<path class="st7" d="M175,73.6c-0.1,0.1-0.2,0.3-0.3,0.4c-0.2,0.2-0.3,0.3-0.5,0.5c-0.1,0.3-0.2,0.6-0.2,0.9
		c-0.1,0.3-0.2,0.7-0.6,0.7c-0.2,0-0.3-0.1-0.5-0.1c-0.1-0.1-0.3-0.1-0.5,0c-0.1,0.1-0.1,0.2-0.1,0.3c0,0.3-0.1,0.5,0,0.8
		c0,0.1,0,0.2,0,0.3c0.1,0.3,0.1,0.7-0.1,1c-0.2,0.2-0.4,0.4-0.6,0.5c-0.3,0.1-0.6,0.2-0.9,0.3l0,0c-0.6,0.1-1.2,0.1-1.8,0.1
		c-0.1,0-0.1,0-0.2,0c0,0,0,0-0.1,0c0.1-0.3,0.1-0.7,0.1-1c-1.5-1.5-1.6-4-0.1-5.5c1.5-1.5,4-1.6,5.5-0.1
		C174.6,73,174.8,73.3,175,73.6z"/>
	<path class="st15" d="M173.4,70.3c-0.4,0-0.7,0.2-1.1,0.2c-0.7,0.2-1.5-0.2-2.2-0.2c-0.6,0-1.3,0.2-1.8,0.5
		c-0.5,0.2-0.9,0.5-1.2,0.9c-0.4,0.4-0.6,0.8-0.6,1.3c0,0.3,0,0.6,0,0.9c-0.1,0.1-0.2,0.3-0.3,0.4c-0.2,0.3-0.2,0.7-0.1,1
		c0.1,0.3,0.4,0.6,0.6,0.9c0.5,0.6,0.8,1.4,1.2,2c0.2,0.3,0.4,0.6,0.6,0.8c0,0,0.1,0.1,0.1,0.1c0.1,0,0.1,0,0.2,0
		c0.9,0,1.9,0,2.7-0.3c0.3-0.1,0.5-0.3,0.6-0.5c0.1-0.3,0.1-0.7,0.1-1c0-0.4,0-0.8,0-1.2c0-0.1,0.1-0.3,0.1-0.3
		c0.1-0.1,0.3-0.1,0.5,0c0.1,0.1,0.3,0.1,0.5,0.1c0.3,0,0.5-0.4,0.6-0.7c-0.1-0.6,0.2-1.1,0.6-1.5c0.4-0.6,0.6-1.3,0.4-2
		C174.8,71.2,174.1,70.4,173.4,70.3z"/>
	<path class="st7" d="M177.2,86.9c-0.1,0.5-0.1,1,0,1.4c0,0.4,0,2.5,0,2.5c-1.2-0.4-4.1,0.4-4.1,0.4l-0.4-1.1
		c-0.2-0.3-0.3-0.6-0.4-0.9c-0.1-0.3-0.2-0.7-0.3-1c-0.2-0.7-0.3-1.5-0.3-2.2c-0.1-1.1,1.5-2.3,2.8-3s2.4,2.2,2.4,2.2
		S177.3,86.4,177.2,86.9z"/>
	<path class="st12" d="M177.2,86.7c-0.1,0.5-0.1,1,0,1.4c0,0.4,0,2.5,0,2.5c-1.2-0.4-4.1,0.4-4.1,0.4l-0.4-1.1
		c-0.2-0.3-0.3-0.6-0.4-0.9c-0.1-0.3-0.2-0.7-0.3-1c-0.2-0.7-0.3-1.5-0.3-2.2c-0.1-1.1,1.5-2.3,2.8-3c1.3-0.7,2.4,2.2,2.4,2.2
		S177.3,86.1,177.2,86.7z"/>
	<path class="st10" d="M174.9,71.8c-0.1-0.2-0.1-0.4-0.3-0.6c0,0,0,0.1,0,0.1c0.2,0.7,0,1.4-0.4,2c-0.5,0.3-0.7,0.9-0.6,1.5
		c0,0.3-0.2,0.7-0.6,0.7c-0.2,0-0.3-0.1-0.5-0.1c-0.1-0.1-0.3-0.1-0.5,0c-0.1,0.1-0.1,0.2-0.1,0.3c-0.1,0.4-0.1,0.8,0,1.2
		c0,0.4,0.1,0.7-0.1,1c-0.2,0.2-0.4,0.4-0.6,0.5c-0.8,0.4-1.8,0.3-2.7,0.3c-0.1,0-0.1,0-0.2,0c-0.1,0-0.1-0.1-0.1-0.1
		c-0.2-0.2-0.4-0.5-0.6-0.8c-0.4-0.7-0.7-1.4-1.2-2c-0.1-0.2-0.3-0.3-0.4-0.5v0c0.1,0.3,0.4,0.6,0.6,0.9c0.5,0.6,0.8,1.4,1.2,2
		c0.2,0.3,0.4,0.6,0.6,0.8c0,0,0.1,0.1,0.1,0.1c0.1,0,0.1,0,0.2,0c0.9,0,1.9,0,2.7-0.3c0.3-0.1,0.5-0.3,0.6-0.5
		c0.1-0.3,0.1-0.7,0.1-1c0-0.4,0-0.8,0-1.2c0-0.1,0.1-0.3,0.1-0.3c0.1-0.1,0.3-0.1,0.5,0c0.1,0.1,0.3,0.1,0.5,0.1
		c0.3,0,0.5-0.4,0.6-0.7c0-0.3,0.1-0.6,0.2-0.9c0.1-0.2,0.3-0.4,0.5-0.5C175,73.2,175.1,72.5,174.9,71.8z"/>
	<path class="st16" d="M203.1,72.6l-2.5,5.3c0,0-0.4,1-0.6,1.2c-0.2,0.2-1.3,3.3-1.3,3.3l-2.7,4.1l0,0l-0.2,0.3l-1.1-0.3l-0.7-2.8
		l0-0.8v-0.1c0,0,1.7-1.7,2-1.9c0,0,0.3,0,0.8-1.3c0.5-1.3,1.1-1.6,1.1-1.6l0.3-1l3.1-4.9c0,0,2.6-3.7,3.3-2.1
		C205.5,71.8,203.1,72.6,203.1,72.6z"/>
	<path class="st16" d="M192.8,110.3c0,0.1,0,0.2-0.1,0.3c-0.3,0.4-1.9,9-1.9,9c0.1,0.6-0.2,1.7-0.5,2.3c-0.2,0.5-0.8,3.3-0.8,3.3
		s-0.1,5.9-0.5,6.8c-0.3,0.9,0.1,2.9,0.1,2.9c0,0.9,0.5,1.9,0.8,2.4l0.1,0.1c0.1,0.2,0.2,0.2,0.2,0.2c0.1,0.2,0.2,0.3,0.4,0.5
		l0.1,0.1c0.4,0.3,0.9,0.5,1.5,0.6h0.1c0.2,0,0.3,0.1,0.3,0.1l0.1,0.7l-1.4,0.3l-2.7,0.2c0,0-3.1,0.2-2.4-1.2c0-0.1,0.1-0.2,0.1-0.3
		l0,0c0-0.1,0.1-0.1,0.1-0.2c0.4-1.3,0.1-3,0.1-3l-0.6-4.8c-1-4.4,0.8-9.3,0.8-9.3s-0.2-0.4,0.2-1.4s0-3.2,0-3.2s-0.2-2.8-0.4-4.2
		c-0.1-0.6-0.1-1.2-0.1-1.8c0-0.3,0-0.7,0.1-1l6-0.8C192.5,108.8,192.8,109.8,192.8,110.3z"/>
	<path class="st7" d="M192.7,139.4l-1.4,0.3l-2.7,0.2c0,0-3.1,0.2-2.4-1.2c0-0.1,0.1-0.2,0.1-0.3l0,0c0-0.1,0.1-0.1,0.1-0.2
		c0.5,0,1.1,0.1,1.6,0.3c0.9,0.3,1.6-0.6,1.6-0.6l0.4-0.8l0.1-0.1c0.1,0.2,0.2,0.2,0.2,0.2c0.1,0.2,0.3,0.4,0.4,0.5l-0.1,0.2
		l-0.4,0.9c0,0,0.5,0.1,1.3,0.2c0.3,0.1,0.6-0.1,0.7-0.4h0.1c0.2,0,0.3,0.1,0.3,0.1L192.7,139.4z"/>
	<path class="st17" d="M194,140.1c-0.1,0.5-3,0.6-3,0.6s-1.6-0.2-2.1,0.2c-0.5,0.4-1.8,0.3-1.9,0.3c-0.1,0-0.8,0-1-1.3
		s0.4-1.4,0.4-1.5l0,0c0.6,0,1.1,0.1,1.7,0.3c0.9,0.3,1.6-0.6,1.6-0.6l0.5-0.9c0.1,0.2,0.2,0.2,0.2,0.2c0.1,0.2,0.3,0.4,0.4,0.5
		l-0.5,1c0,0,0.5,0.1,1.3,0.2c0.3,0.1,0.7-0.1,0.7-0.5c0,0,0-0.1,0-0.1c0,0,0-0.1,0-0.1c0,0,0.5,0.1,1,0.3
		C193.7,139,194.1,139.5,194,140.1z"/>
	<path class="st16" d="M199.5,116.6c-0.1,0.4-0.1,1.5-0.1,1.5c0.2,0.9-0.4,3.1-0.4,3.1l-0.3,1.2c0.1,1.6-0.9,5.4-0.9,5.4
		s-0.7,3.6-1,5.1c-0.2,0.9-0.1,1.8,0.2,2.6l0,0.1c0,0,0,0.1,0,0.1c0,0,0,0.1,0,0.1c0.1,0.2,0.2,0.4,0.3,0.6c0.1,0.1,0.1,0.1,0.2,0.2
		l0,0c0.3,0.3,0.7,0.5,1.1,0.7l0,0l0.2,0.1c0.2,0.1,0.4,0.1,0.6,0.2l0,0h0.1l-0.1,0.8l-1.9-0.5l-2.5-0.8l-1.2-0.7c0,0,0-0.1,0-0.2
		c0,0,0,0,0,0c0-0.1,0-0.1,0-0.2c0.2-1.1,0.7-4.1,0.4-6.4c-0.3-2.8,0.9-6.6,1.1-7.5c0.2-0.5,0.2-1.1,0.2-1.6
		c-0.5-0.7-0.6-3.3-0.6-3.3s-0.8-1.7-1.5-3.5c-0.2-0.6-0.4-1.2-0.5-1.8c-0.1-0.4-0.1-0.9-0.1-1.3c0,0,5.6-5.2,6.3-0.2
		c0,0.2,0,0.3,0.1,0.5C199.8,115.3,199.6,116.2,199.5,116.6z"/>
	<path class="st7" d="M199.5,137.6l-0.1,0.8l-1.9-0.5l-2.5-0.8l-1.2-0.7c0,0,0-0.1,0-0.2c0,0,0,0,0,0c0-0.1,0-0.1,0-0.2h0.2l0,0
		c0.4,0,0.7,0,1,0.1c0.4,0.2,0.9,0.3,1,0.3c0.2-0.1,0.4-0.1,0.6-0.1l0.3-0.6l0-0.1c0.1,0.2,0.2,0.4,0.3,0.6c0.1,0.1,0.1,0.1,0.2,0.2
		v0.2l0,0.3c0.3,0.2,0.6,0.3,0.9,0.4c0.1,0,0.2,0,0.2,0l0,0l0.2,0.1C199,137.4,199.2,137.5,199.5,137.6L199.5,137.6L199.5,137.6z"/>
	<path class="st17" d="M198.6,139.3c-0.5-0.1-1.8-0.4-2-0.2c-0.2,0.2-1.9,0-1.9,0c-0.4,0-0.7-0.2-0.9-0.5c-0.4-0.6-0.1-2.4-0.1-2.4
		h0.1l0.2,0l0,0c0.4,0,0.7,0,1,0.1c0.4,0.2,0.9,0.3,1,0.3c0.2-0.1,0.4-0.1,0.6-0.1l0.3-0.7c0.1,0.2,0.2,0.4,0.3,0.6
		c0.1,0.1,0.1,0.1,0.2,0.2l0,0.5c0.3,0.2,0.6,0.3,0.9,0.4c0.2,0.1,0.3,0,0.4-0.1c0,0,0,0,0-0.1l0,0c0.2,0.1,0.5,0.2,0.7,0.2l0,0
		c0.7-0.1,1.3,0.4,1.4,1C201.3,139.4,199.1,139.5,198.6,139.3z"/>
	<path class="st7" d="M192.8,110.3l-0.3,0.1c-0.3,0.1-0.5,0.1-0.8,0.2c-1.7,0.2-4.4,0.1-5.3,0c0-0.3,0-0.7,0.1-1l6-0.8
		C192.5,108.8,192.8,109.8,192.8,110.3z"/>
	<path class="st17" d="M198,108.9c0,0-2.2,0.3-4,0.7c-0.6,0.1-1.2,0.3-1.6,0.4c-0.3,0.1-0.5,0.1-0.8,0.2c-2,0.3-5.5,0-5.5,0
		c-1-3.2,1.2-7.1,1.2-7.1c0-0.3,0.4-1.3,0.4-1.3v0l0.3-1.1h8.2l0.1,0.5l0.2,1l1.3,6.1L198,108.9z"/>
	<path class="st7" d="M199.3,110.8L199.3,110.8l-1,0.4c-1,0.5-4.1,0.6-5.2,0.6c-0.1-0.4-0.1-0.9-0.1-1.3c0,0,5.6-5.2,6.3-0.2
		C199.2,110.5,199.2,110.6,199.3,110.8z"/>
	<path class="st17" d="M199.4,110.3l-0.2,0.1l-1,0.4c-1.1,0.5-4.3,0.6-5.3,0.6h-0.3c-0.5,0-0.9-0.5-0.9-0.6c0-0.1,0-0.4-0.1-0.6
		c0-0.2-0.1-0.4-0.1-0.4c-1.1-0.5-2.2-1-3.2-1.6c-0.8-0.5-0.6-4.4-0.4-6.4c0.1-0.7,0.1-1.1,0.1-1.1l8.3,0.5l1.2,0.1l0.7,0.1l0.2,0
		c0,0,0.5,3.5,0.7,3.8c0.2,0.3,0.1,1.3,0.1,1.8c0,0.2,0,0.5-0.1,0.7c0,0,0.3,1,0.3,1.5C199.3,109.5,199.3,109.9,199.4,110.3z"/>
	<circle class="st16" cx="190.5" cy="78.1" r="3.4"/>
	<path class="st16" d="M188.9,79.5c0,0,0.2,3.2-0.4,4c-0.8,0.8-1.5,1.5-2.4,2.1l0.5,2.2l3,0.3l3.5-3.7l-0.8-1c0,0-0.6-2.1-0.1-3.1
		S188.9,79.5,188.9,79.5z"/>
	<path class="st7" d="M196.1,86.6L196.1,86.6l-0.2,0.3l-1.1-0.3l-0.7-2.8l0-0.8l0.2-0.3c0,0,1.2,0,1.1,1.1
		C195.4,84.7,195.9,86.2,196.1,86.6z"/>
	<path class="st7" d="M198.4,101.8c0,0-0.8,0.2-1.8,0.3c-1,0.1-2.1,0.2-2.5-0.1c-0.8-0.5-4.9-0.3-6.1-0.3h-0.2l0.3-1.1h8.2l0.1,0.5
		l1.2,0.1l0.7,0.1C198.3,101.6,198.4,101.8,198.4,101.8z"/>
	<path class="st18" d="M194.1,82.9c0,0,1.2,0,1.1,1.1c-0.1,1.1,0.6,2.9,0.6,2.9l-0.3,0.6c0,0-0.4,1.5-0.1,1.8
		c0.3,0.4,1.3,0.4,0.7,3.4c0,0-0.1,2.3,0.2,3c0.3,0.7,0.3,2.5,0.8,3.2c0.4,0.8,0.8,1.6,1.1,2.4c0,0-3.4,0.8-4.3,0.2
		s-6.4-0.3-6.4-0.3s0-0.9,0-1c-0.1-0.2,0-0.5,0.1-0.7c0.2-0.3,0.5-0.7,0.3-1c-0.2-0.4,0.4-0.9,0.1-1.5s-0.6-0.7-0.6-1
		c0-0.4-0.1-0.7-0.3-1c-0.2-0.3-1.6-3-1.6-3l-0.2-1.3c0,0-1.8-1.3-1.8-2c0-0.6,0.7-1.5,0.7-1.5l1.8-1.7c0,0,1,1.1,1.9,0.7
		c0.9-0.4,3-2.1,3-2.1s0.7-0.4,0.8-0.7c0.1-0.3,0.5,0,0.5,0s0.7-0.4,0.8-0.2c0.2,0.1,0.5,0.2,0.7,0.2L194.1,82.9z"/>
	<path class="st16" d="M184.2,88.4l-0.6,0.4c-0.4,0.9-0.7,1.9-0.7,2.9c-0.1,1.5-0.4,3-0.7,4.4l-1.1,2c0,0-1.8,3.8-2.1,4.8
		c-0.2,1-1.3,2.7-1.3,2.7s-3.7,3.3-1.1,3.9s2.6-2.6,2.6-2.6s0.6-0.7,0.7-1.1s3.3-6.2,3.3-6.2s1.1-1.5,0.9-2.4c0,0,1.5-3.5,1.5-4.3
		c0-0.7-0.1-1.4-0.2-2.2l0.2-1.8L184.2,88.4z"/>
	<path class="st7" d="M191.8,95.6c0,0-2.6,1.3-3.1,1.4s2.2-0.3,2.2-0.3L191.8,95.6z"/>
	<path class="st7" d="M193.9,96.7c0,0-3.4,1.2-4.9,0.9C189,97.6,192.7,98.3,193.9,96.7z"/>
	<path class="st7" d="M194.1,97.1c0,0-3.1,1.9-4.9,1.6c0,0,4.2,0.8,4.9,0.4l-1.9-0.5C192.2,98.5,194.3,97.4,194.1,97.1z"/>
	<path class="st7" d="M190.5,72.1c-0.9-0.2-1.8,0-2.6,0.5c-0.5,0.4-0.9,1-1.5,1.4c-0.3,0.1-0.6,0.2-1,0.3c-1.2,0.5-1.9,1.7-1.7,3
		c0.1,0.5,0.3,1,0.5,1.5c0.2,0.9,0,1.9-0.2,2.8c-0.6,2.5-1.6,5-2.9,7.2c-0.1,0.1-0.2,0.3-0.1,0.5c0,0.1,0.1,0.2,0.2,0.3
		c1.2,1.4,3.2,1.9,5,2c0.7,0.1,1.4,0,2-0.3c0.4-0.2,0.7-0.5,1-0.9c0.6-0.9,1-2,0.9-3.1c0-0.9-0.3-1.8-0.1-2.6c0-0.1,0.1-0.2,0.2-0.3
		c0.2-0.2,0.5-0.2,0.8-0.2c0.8-0.1,1.3-0.9,1.4-1.7c0.1-0.8-0.1-1.5-0.1-2.3c0-1,0.3-2,0.9-2.9c0.3-0.4,0.6-0.7,0.7-1.1
		c0.1-0.6-0.2-1-0.5-1.4c-0.4-0.7-0.6-1.5-1.3-2C191.6,72.4,191.1,72.2,190.5,72.1z"/>
	<path class="st19" d="M190.3,71.9c-0.9-0.2-1.8,0-2.6,0.5c-0.5,0.4-0.9,1.1-1.5,1.4c-0.3,0.1-0.6,0.2-1,0.3c-1.2,0.5-1.9,1.7-1.7,3
		c0.1,0.5,0.3,1,0.5,1.5c0.2,0.9,0,1.9-0.2,2.8c-0.6,2.5-1.6,5-2.9,7.2c-0.1,0.1-0.2,0.3-0.1,0.5c0,0.1,0.1,0.2,0.2,0.3
		c1.2,1.4,3.2,1.9,5,2c0.7,0.1,1.4,0,2-0.3c0.4-0.2,0.7-0.5,1-0.9c0.6-0.9,1-2,0.9-3.1c-0.1-0.9-0.3-1.8-0.1-2.6
		c0-0.1,0.1-0.2,0.2-0.3c0.2-0.2,0.5-0.2,0.8-0.2c0.8-0.1,1.3-0.9,1.4-1.7c0.1-0.8-0.1-1.5-0.1-2.3c0-1,0.3-2,0.9-2.9
		c0.3-0.4,0.6-0.7,0.7-1.2c0.1-0.6-0.2-1-0.5-1.4c-0.4-0.7-0.6-1.5-1.3-2C191.4,72.2,190.9,72,190.3,71.9z"/>
	<path class="st7" d="M189.2,104.8c0,0,0.7,3.2,1.8,4L189.2,104.8z"/>
	<g class="st1">
		<path d="M183.8,77.8c0-0.1-0.1-0.2-0.1-0.4C183.8,77.5,183.8,77.6,183.8,77.8z"/>
		<path d="M193.4,75c0,0.1,0,0.2,0,0.3c-0.1,0.4-0.4,0.8-0.7,1.1c-0.6,0.8-0.9,1.8-0.9,2.9c0,0.8,0.2,1.6,0.1,2.3s-0.6,1.6-1.4,1.7
			c-0.3,0-0.6,0-0.8,0.2c-0.1,0.1-0.1,0.2-0.2,0.3c-0.2,0.9,0.1,1.7,0.1,2.6c0.1,1.1-0.3,2.2-0.9,3.1c-0.3,0.4-0.6,0.7-1,0.9
			c-0.6,0.3-1.3,0.4-2,0.3c-1.8-0.1-3.8-0.5-5-1.9c0,0.1,0,0.2,0,0.3c0,0.1,0.1,0.2,0.2,0.3c1.2,1.4,3.2,1.9,5,2
			c0.7,0.1,1.4,0,2-0.3c0.4-0.2,0.7-0.5,1-0.9c0.6-0.9,1-2,0.9-3.1c-0.1-0.9-0.3-1.8-0.1-2.6c0-0.1,0.1-0.2,0.2-0.3
			c0.2-0.2,0.5-0.2,0.8-0.2c0.8-0.1,1.3-0.9,1.4-1.7S192,80.7,192,80c0-1,0.3-2,0.9-2.9c0.3-0.4,0.6-0.7,0.7-1.2
			C193.7,75.6,193.6,75.3,193.4,75z"/>
	</g>
	<ellipse class="st6" cx="43.2" cy="149.3" rx="6.1" ry="0.6"/>
	<path class="st4" d="M45.3,139c0,0-8,4.1-3.9,9c0.2,0.6,0.8,1,1.5,1c0,0-0.2-0.4,0.6-0.7c0.3-0.1,0.6-0.3,0.9-0.5
		c0.4-0.3,0.6-0.6,0.8-1l0,0c0,0,1.6-2.2,0.4-6.2c0,0,0.2-1.2,0-1.3l-1,1.3c0,0,1,0.7,1.1,1.7c0,0-1-1.7-1.3-1.5
		c0,0-0.5,0.7-0.5,0.7s1.7,1.2,1.9,2.7c0,0-1-2.1-2-2.5l-0.6,1.1c0,0,1.9,1.2,2.1,2.9c0,0-1.1-2.2-2.2-2.6l-0.4,1.1
		c0,0,1.8,1.2,2,2.6c0,0-1.5-2.4-2.1-2.3c0,0-0.3,1.1-0.3,1.4c0,0,1.3,0.9,1.3,1.7c0,0-1.2-1.5-1.4-1.4c0,0-0.1,1.5,0.3,2.3
		c-0.4-0.7-0.6-1.5-0.5-2.3c-0.4,0.3-0.6,0.8-0.8,1.2c0,0-0.3-0.8,0.8-1.6c0,0,0.1-1.2,0.2-1.3c0,0-1.2,0.6-1.7,1.3
		c0,0,0.2-1.1,1.9-1.6l0.4-1.2c0,0-1.7,0.7-2.2,1.3c0,0,0.4-1.1,2.3-1.6l0.6-1.1c0,0-1.5,0.5-2.2,1.1c0,0,0.6-0.9,2.4-1.4l0.5-0.7
		c0,0-1.1,0.4-1.4,0.5s-0.4,0.1-0.4,0.1c0.5-0.5,1.2-0.8,1.9-0.9C44.4,140.4,45.4,139.1,45.3,139z"/>
	
		<linearGradient id="SVGID_1_" gradientUnits="userSpaceOnUse" x1="4269.8794" y1="731.274" x2="4269.8794" y2="813.0551" gradientTransform="matrix(-1 0 0 -1 4332.9399 916.63)">
		<stop  offset="0" style="stop-color:#808080;stop-opacity:0.25"/>
		<stop  offset="0.54" style="stop-color:#808080;stop-opacity:0.12"/>
		<stop  offset="1" style="stop-color:#808080;stop-opacity:0.1"/>
	</linearGradient>
	<path class="st20" d="M53.2,146.4c0.8,0.5,2.1,0.8,3.8-0.2l0,2.3c0.1,1.6,2.1,7.5,2.1,7.5l1.4,4.8c1,3.4,1.5,6.9,1.5,10.5
		c0,1.1,0.1,2.2,0.4,3.3c0.7,2-0.3,4.6-0.7,5.6c-0.8,0.3-1.7,0.5-2.3,0.7c-0.1,0-0.1,0-0.2,0.1v0c0,0-2.1,0.8-3,0.7
		c-0.7-0.1-1.1,0.8-0.6,1.4c-0.5,0.1-0.9,0.2-1.4,0.2c-0.9-0.1-1.4,1.5,0.4,2c1.8,0.5,11.7,0,11.7,0c0.6-0.3,0.9-0.9,0.7-1.6
		c0.8,0,1.2-0.1,1.2-0.1s1.8-0.8,0-3l-0.1,0.1l-0.4-1.1V178c0,0,2.2-10.7,1.5-12c-0.7-1.3-1.1-7.7-1.1-7.7l0.2-7
		c0.6-1.3,1-3.4,1.1-5c0.2-0.8,0.4-1.6,0.4-2.4c0-0.4,0-0.8,0.1-1.2c0-0.9-0.1-1.8-0.4-2.6c0.8-1.2,1.7-2.3,2.7-3.3
		c0.8-0.8,1.2-1.9,1.1-3l-0.6-3.9l-1.4-6.7c0.2-1.9-0.2-2.9-0.6-3.5c0.1-0.6,0.2-1.2,0.3-1.8c0.3-2.6,0.2-5.3-0.4-7.8
		c-0.2-0.9-0.5-1.8-1.1-2.5c-0.7-0.8-1.9-1.2-2.1-2.2c0-0.3-0.1-0.5-0.2-0.8c-0.3-0.7-1.1-0.9-1.8-1c-1.3-0.2-3.1-0.3-4.3,0.2
		c-0.8,0.4-2,1.3-2.5,2.3c-0.3,0.4-0.4,0.9-0.3,1.4c0,0.2,0.1,0.3,0.2,0.5c-0.2,0.5-0.3,1-0.3,1.5c0,1.8,1.1,3.5,2.9,4.2
		c0,0.1,0.1,0.2,0.1,0.3c0.1,0.2,0.1,0.4,0.1,0.6c0,0.4,0,0.8-0.1,1.2c0,0.1,0,0.1,0,0.2c-1,0.4-2,0.9-2.9,1.5
		c0.7,1-0.1,5.4-0.1,5.4c-1.8,1-3.5,3.7-1.6,6.4c1.9,2.8,0.8,5.7,0.8,5.7l-0.3,4.5l0,0l0,0l-0.1,0.9h0l0,0.3h0v0.4
		c-0.8,0.3-2,0.9-2.7,2c-0.3,0.6-0.8,1.1-1.2,1.5c-0.4,0.3-0.4,0.9-0.1,1.3C53,146.2,53.1,146.3,53.2,146.4z M67.3,134.4
		c-0.1-0.8,0.1-1.6,0.4-2.3c0.3,0,0.6,0,0.8,0c0,0.2,0.1,0.4,0.1,0.5C68.9,133.7,68,134.2,67.3,134.4L67.3,134.4z"/>
	<path class="st21" d="M67.6,179l0.5,1.4l-1.5,1.5l-4.8,1.1l-3.5-0.3l0.2-1.2l0,0c0.1-0.5,0.6-1,1.1-1.1c1.4-0.3,4.2-1.1,4.7-2.2
		L67.6,179z"/>
	<path class="st7" d="M67.6,179l0.5,1.4l-1.5,1.5l-4.8,1.1l-3.5-0.3l0.2-1.2l0,0c0.1-0.5,0.6-1,1.1-1.1c1.4-0.3,4.2-1.1,4.7-2.2
		L67.6,179z"/>
	<path class="st22" d="M59.3,182.3l0.7-0.9l-0.7-1c0,0-2,0.8-2.9,0.7c-0.9-0.1-1.4,1.5,0.3,1.9c1.7,0.4,11.3,0,11.3,0s1.7-0.8,0-2.9
		l-1.5,1.1c0,0-2.5,1.4-3.7,1.1L59.3,182.3z"/>
	<path class="st21" d="M56.3,184.2l3.5,0.3l4.8-1.1l1.5-1.5l-0.1-0.4l-0.2-0.5l-0.2-0.5l-3.3-0.9c-0.2,0.3-0.4,0.5-0.7,0.7
		c-1.1,0.7-3,1.2-4.1,1.5l-0.1,0c-0.2,0.1-0.4,0.2-0.6,0.4c-0.2,0.2-0.3,0.4-0.4,0.7L56.3,184.2z"/>
	<path class="st7" d="M56.3,184.2l3.5,0.3l4.8-1.1l1.5-1.5l-0.1-0.4l-1.3,1c0,0-2.5,1.4-3.7,1.1h-3.5l0.7-0.9l-0.6-0.9
		c-0.2,0.1-0.4,0.2-0.6,0.4c-0.2,0.2-0.3,0.4-0.4,0.7L56.3,184.2z"/>
	<path class="st22" d="M57.4,183.8l0.7-0.9l-0.7-1c0,0-2,0.8-2.9,0.7c-0.9-0.1-1.4,1.5,0.3,1.9c1.7,0.4,11.3,0,11.3,0s1.7-0.8,0-2.9
		l-1.5,1.1c0,0-2.5,1.4-3.7,1.1L57.4,183.8z"/>
	<path class="st21" d="M60.2,118.5c0,0,5.4,0.6,4.6-1.7c-0.2-0.6-0.3-1.3-0.2-2c0.1-0.8,0.5-1.6,1-2.3l-5.1,0.8
		c0.3,0.5,0.5,1.1,0.7,1.6C61.9,117.3,60.2,118.5,60.2,118.5z"/>
	<path class="st23" d="M69.5,144.2c0,0-0.1,4.8-1.2,7.2l-0.2,6.9c0,0,0.3,6.3,1,7.5c0.7,1.2-1.5,11.7-1.5,11.7v1.8
		c0,0-3.6,1.4-4.6-0.2l1-13.4l-0.4-18.6L69.5,144.2z"/>
	<path class="st7" d="M69.5,144.2c0,0-0.1,4.8-1.2,7.2l-0.2,6.9c0,0,0.3,6.3,1,7.5c0.7,1.2-1.5,11.7-1.5,11.7v1.8
		c0,0-3.6,1.4-4.6-0.2l1-13.4l-0.4-18.6L69.5,144.2z"/>
	<path class="st24" d="M71.7,128.6l0.7,1.8l0.6,3.8c0.2,1.1-0.2,2.2-1,2.9c-1.4,1.4-3.2,4.2-3.2,4.2l-2.1-6.4c0,0,2.1-0.3,1.8-1.8
		c-0.3-1.5-0.2-4.2-0.2-4.2L71.7,128.6z"/>
	<path class="st13" d="M71.7,128.6l0.7,1.8l0.6,3.8c0.2,1.1-0.2,2.2-1,2.9c-1.4,1.4-3.2,4.2-3.2,4.2l-2.1-6.4c0,0,2.1-0.3,1.8-1.8
		c-0.3-1.5-0.2-4.2-0.2-4.2L71.7,128.6z"/>
	<path class="st7" d="M61.7,180.3c1.4,2.3,3.7,1,4.1,0.7l-0.2-0.5l-3.3-0.9C62.2,179.9,62,180.2,61.7,180.3z"/>
	<path class="st23" d="M57.2,148.6c0.1,1.6,2,7.3,2,7.3l1.4,4.7c1,3.3,1.5,6.8,1.5,10.3c0,1.1,0.1,2.2,0.4,3.2
		c0.9,2.5-0.9,5.9-0.9,5.9c1.6,2.8,4.3,0.9,4.3,0.9v-1.8c0,0,2.1-9.8,1.6-11.7c-0.6-1.9-0.8-7.1-0.8-7.1v-9.3
		c1.8-1.8,2.9-4.2,3.1-6.7c0-0.4,0-0.8,0.1-1.2c0.1-2.5-1.6-5.5-2.3-6.6c-0.2-0.3-0.3-0.4-0.3-0.4l-10,3.9h0v0.4v0.9L57.2,148.6z"/>
	<path class="st7" d="M60.6,113.3c0.3,0.5,0.5,1.1,0.7,1.6c1.1,0.4,2.3,0.4,3.4-0.1c0.1-0.8,0.5-1.6,1-2.3L60.6,113.3z"/>
	<circle class="st21" cx="62.8" cy="110.6" r="4.4"/>
	<path class="st7" d="M57.2,141.2L57.2,141.2c4.8,1,10.7-4,10.7-4c-0.2-0.3-0.3-0.5-0.4-0.8c-0.2-0.3-0.3-0.4-0.3-0.4l-9.9,4l0,0.4
		L57.2,141.2z"/>
	<path class="st24" d="M58.4,118.4c0,0,6.3-3.8,8.3-2.3l2.8,3.6c0,0,1.8,0.6,1.5,4.2l1.4,6.5l-4.1,1c0,0-2.4,2.3-0.5,5.5
		c0,0-6,5-10.7,3.9l0.3-5.3c0,0,1-2.9-0.8-5.6c-1.8-2.7-0.1-5.3,1.6-6.3C58.3,123.7,59.1,119.4,58.4,118.4z"/>
	<path class="st21" d="M58.1,141.4c0,0-2.4,0.4-3.5,2.3c-0.3,0.5-0.7,1-1.2,1.5c-0.4,0.3-0.4,0.9-0.1,1.3c0.1,0.1,0.1,0.1,0.2,0.2
		c0.9,0.5,2.4,0.9,4.2-0.6C60.9,143.3,58.1,141.4,58.1,141.4z"/>
	<path class="st7" d="M61.6,120.5c0,0,2.3-0.2,2.8,5.6c0.6,5.9,1.5,7.2,1.5,7.2s0.6,3-0.8,4.8c-1.4,1.8-3.9,5.6-3.9,5.6
		s-2.8,0.8-3.4-2l3.5-6.5c0,0,0.6-2.3-0.8-3.8C59.1,129.9,58.1,119.4,61.6,120.5z"/>
	<path class="st24" d="M61.4,120.2c0,0,2.3-0.2,2.8,5.6c0.6,5.9,1.5,7.2,1.5,7.2s0.6,3-0.8,4.8c-1.4,1.8-3.9,5.6-3.9,5.6
		s-2.8,0.8-3.4-2l3.5-6.5c0,0,0.6-2.3-0.8-3.8C58.9,129.5,57.9,119.1,61.4,120.2z"/>
	<path class="st7" d="M59.5,124.4c0,0-0.2,3.5,0.8,5.4c1,1.9,1,4.4,0,5.7"/>
	<path class="st7" d="M58.9,120.1c0,0,0.9-0.9,3.5-1c2.6-0.1,3.7-0.9,3.7-0.9"/>
	<path class="st7" d="M65.2,104.9c0.7,0.1,1.5,0.3,1.7,1c0.1,0.2,0.1,0.5,0.2,0.7c0.3,1,1.4,1.4,2,2.2c0.6,0.7,0.9,1.6,1.1,2.4
		c0.6,2.5,0.7,5.1,0.4,7.7c-0.2,1.9-0.7,3.7-0.8,5.6s0.1,3.9,1.1,5.4c0.4,0.7,1,1.3,1.3,2c-0.6,0.5-1.5,0.6-2.4,0.6
		c-1,0-1.9,0-2.9,0c-0.5,0-1-0.1-1.5-0.3c-0.3-0.2-0.6-0.5-0.8-0.8c-0.6-0.9-0.7-2.1-0.7-3.2c0-1.1,0.2-2.2,0.2-3.3
		c0-0.6,0-1.2-0.4-1.7c-0.3-0.3-0.6-0.6-0.9-0.9c-1.2-1.1-1.6-2.8-1.7-4.4c0-1.6,0.2-3.2,0.1-4.8c-0.1-0.6-0.3-1.4-0.9-1.5
		c-0.2,0-0.4,0-0.6-0.1c-0.5-0.2-0.4-0.9-0.6-1.4c-0.2-0.6-0.6-1-0.8-1.6c-0.3-1.4,1.4-3,2.5-3.5C62.2,104.7,64,104.8,65.2,104.9z"
		/>
	<path class="st25" d="M65.3,104.7c0.7,0.1,1.5,0.3,1.7,1c0.1,0.2,0.1,0.5,0.2,0.7c0.3,1,1.4,1.4,2,2.2c0.6,0.7,0.9,1.6,1.1,2.4
		c0.6,2.5,0.7,5.1,0.4,7.7c-0.2,1.9-0.7,3.7-0.8,5.6c-0.1,1.9,0.1,3.9,1.1,5.4c0.4,0.7,1,1.3,1.3,2c-0.6,0.5-1.5,0.6-2.4,0.6
		c-1,0-1.9,0-2.9,0c-0.5,0-1-0.1-1.5-0.3c-0.3-0.2-0.6-0.5-0.8-0.8c-0.6-0.9-0.7-2.1-0.7-3.2c0-1.1,0.2-2.2,0.2-3.3
		c0-0.6,0-1.2-0.4-1.7c-0.3-0.3-0.6-0.6-0.9-0.9c-1.2-1.1-1.6-2.8-1.7-4.4c0-1.6,0.2-3.2,0.1-4.8c-0.1-0.6-0.3-1.4-0.9-1.5
		c-0.2,0-0.4,0-0.6-0.1c-0.5-0.2-0.4-0.9-0.6-1.4c-0.2-0.6-0.6-1-0.8-1.6c-0.3-1.4,1.4-3,2.5-3.5C62.3,104.4,64.1,104.6,65.3,104.7z
		"/>
	<ellipse class="st6" cx="283.9" cy="205" rx="6.9" ry="1"/>
	<ellipse class="st6" cx="257.3" cy="207.7" rx="6.9" ry="1"/>
	<ellipse class="st6" cx="226" cy="204" rx="6.9" ry="1"/>
	<ellipse class="st6" cx="268" cy="215.4" rx="4.9" ry="0.7"/>
	<ellipse class="st6" cx="240.4" cy="214.7" rx="4.9" ry="0.7"/>
	<path class="st4" d="M257.2,207.5c0,0,9.7-31.9-1.5-44.7c-8.4-9.6-18-8.4-22.3-7.2c-2.2,0.6-4.1,2.2-5.1,4.2
		c-1.5,3.2-1.2,8.5,9.3,14.6c17.7,10.2,18.8,24.3,18.8,24.3L257.2,207.5z"/>
	<path class="st26" d="M234.9,160c0,0,28.7,9,22.3,47.4"/>
	<path class="st26" d="M251.7,163.3c0,0-4,2.7-2.7,6.7"/>
	<path class="st26" d="M237.8,165.6c0,0,2.4-2.5,5.4-1.1"/>
	<path class="st26" d="M249.2,178c0,0,4.2-2.2,5.3,0.5"/>
	<path class="st26" d="M259.6,182.5c0,0-3.2-0.3-3.2,1.3"/>
	<path class="st4" d="M257.6,207.7c0,0-11.4-23.2-14.5-22.7c-1.5,0.2-2.2,1.7-2.5,3.2c-0.4,1.9-0.2,3.9,0.6,5.6
		C242.8,197.6,247.1,204.6,257.6,207.7z"/>
	<path class="st26" d="M243.1,189.4c0,0,12,17.4,14.3,18.1"/>
	<line class="st26" x1="242" y1="192.1" x2="244.8" y2="192.1"/>
	<line class="st26" x1="245.4" y1="198.5" x2="249.7" y2="198.7"/>
	<line class="st26" x1="248" y1="193.4" x2="247.6" y2="195.7"/>
	<line class="st26" x1="252.7" y1="200.4" x2="252.6" y2="202.4"/>
	<path class="st4" d="M257.2,207.7c0,0,11.4-23.2,14.5-22.7c1.5,0.2,2.2,1.7,2.5,3.2c0.4,1.9,0.2,3.9-0.6,5.6
		C272,197.6,267.7,204.6,257.2,207.7z"/>
	<path class="st26" d="M271.7,189.4c0,0-12,17.4-14.3,18.1"/>
	<line class="st26" x1="272.8" y1="192.1" x2="270" y2="192.1"/>
	<line class="st26" x1="269.4" y1="198.5" x2="265.1" y2="198.7"/>
	<line class="st26" x1="266.8" y1="193.4" x2="267.3" y2="195.7"/>
	<line class="st26" x1="262.1" y1="200.4" x2="262.2" y2="202.4"/>
	<path class="st4" d="M237.6,213.1c-0.3-0.3-0.5-0.6-0.6-1c-0.1-0.4,0.1-0.8,0.5-1c0.4-0.2,0.9,0.1,1.2,0.4c0.3,0.3,0.7,0.6,1.2,0.6
		c-0.5-0.4-0.7-1.1-0.5-1.7c0-0.1,0.1-0.2,0.2-0.3c0.2-0.2,0.7-0.1,0.9,0.1c0.9,0.6,1.1,1.8,1.1,2.9c0-0.4,0-0.8,0-1.2
		c0-0.4,0.1-0.8,0.4-1.1c0.2-0.1,0.4-0.2,0.7-0.2c0.4-0.1,0.8,0.1,1.1,0.3c0.3,0.4,0.2,1,0,1.4c-0.3,0.4-0.7,0.7-1.2,0.9
		c-0.3,0.2-0.6,0.5-0.8,0.8c0,0,0,0.1-0.1,0.1h-2.5C238.6,213.9,238.1,213.6,237.6,213.1z"/>
	<path class="st4" d="M281.1,203.8c-0.3-0.3-0.5-0.6-0.6-1c-0.1-0.4,0.1-0.8,0.5-1c0.4-0.2,0.9,0.1,1.2,0.4s0.7,0.6,1.2,0.6
		c-0.5-0.4-0.7-1.1-0.5-1.7c0-0.1,0.1-0.2,0.2-0.3c0.2-0.2,0.7-0.1,0.9,0.1c0.9,0.6,1.1,1.8,1.1,2.9c0-0.4,0-0.8,0-1.2
		c0-0.4,0.1-0.8,0.4-1.1c0.2-0.1,0.4-0.2,0.7-0.2c0.4-0.1,0.8,0.1,1.1,0.3c0.3,0.4,0.2,1,0,1.4c-0.3,0.4-0.7,0.7-1.2,0.9
		c-0.3,0.2-0.6,0.5-0.8,0.8c0,0,0,0.1-0.1,0.1h-2.5C282.1,204.6,281.6,204.2,281.1,203.8z"/>
	<path class="st4" d="M266.6,213.1c-0.3-0.3-0.5-0.6-0.7-1c-0.1-0.4,0.1-0.8,0.5-1c0.4-0.2,0.9,0.1,1.2,0.4s0.7,0.6,1.2,0.6
		c-0.5-0.4-0.7-1.1-0.5-1.7c0-0.1,0.1-0.2,0.2-0.3c0.2-0.2,0.6-0.1,0.9,0.1c0.9,0.6,1.1,1.8,1.1,2.9c0-0.4,0.1-0.8,0-1.2
		c0-0.4,0.1-0.8,0.4-1.1c0.2-0.1,0.4-0.2,0.7-0.2c0.4-0.1,0.8,0.1,1.1,0.3c0.3,0.4,0.2,1,0,1.4c-0.3,0.4-0.7,0.7-1.2,0.9
		c-0.3,0.2-0.6,0.5-0.8,0.8c0,0,0,0.1-0.1,0.1h-2.5C267.6,213.9,267.1,213.6,266.6,213.1z"/>
	<path class="st4" d="M225.5,194.3c0,0-0.9,1.2,0.4,3.1c1.4,1.8,2.5,3.4,2,4.5c0,0-2.1-3.4-3.7-3.5S223.7,196.3,225.5,194.3z"/>
	<path class="st7" d="M225.5,194.3c-0.1,0.1-0.1,0.2-0.2,0.4c-1.6,1.9-2.5,3.7-0.9,3.7c1.5,0,3.2,2.7,3.6,3.3c0,0.1,0,0.1,0,0.2
		c0,0-2.1-3.4-3.7-3.5C222.6,198.3,223.7,196.3,225.5,194.3z"/>
	<path class="st8" d="M223.8,195.8c0,0.4,0,0.8,0.1,0.8c0.1,0,0.1-0.3,0.1-0.8c0-0.4-0.1-0.2-0.1-0.2S223.8,195.4,223.8,195.8z"/>
	<path class="st8" d="M223.2,196.3c0.4,0.2,0.7,0.3,0.7,0.3c0-0.1-0.3-0.3-0.6-0.5c-0.4-0.2-0.2-0.1-0.3,0
		C223,196.2,222.8,196.1,223.2,196.3z"/>
	<path class="st4" d="M230.5,194.3c0,0,0.9,1.2-0.4,3.1c-1.4,1.8-2.5,3.4-2,4.5c0,0,2.1-3.4,3.7-3.5
		C233.4,198.3,232.3,196.3,230.5,194.3z"/>
	<path class="st7" d="M230.5,194.3c0.1,0.1,0.1,0.2,0.2,0.4c1.6,1.9,2.5,3.7,0.9,3.7c-1.4,0-3.2,2.7-3.6,3.3c0,0.1,0,0.1,0,0.2
		c0,0,2.1-3.4,3.7-3.5C233.4,198.3,232.3,196.3,230.5,194.3z"/>
	<path class="st8" d="M232.2,195.8c0,0.4,0,0.8-0.1,0.8c-0.1,0-0.1-0.3-0.1-0.8c0-0.4,0.1-0.2,0.1-0.2S232.2,195.4,232.2,195.8z"/>
	<path class="st8" d="M232.8,196.3c-0.4,0.2-0.7,0.3-0.7,0.3c0-0.1,0.3-0.3,0.6-0.5c0.4-0.2,0.2-0.1,0.3,0
		C233,196.2,233.2,196.1,232.8,196.3z"/>
	<path class="st9" d="M231.9,201.7c0,0-2.6-0.1-3.4-0.6s-4-1.2-4.2-0.3c-0.2,0.9-3.9,4.5-1,4.5c2.9,0,6.8-0.5,7.6-0.9
		C231.7,203.8,231.9,201.7,231.9,201.7z"/>
	<path class="st10" d="M223.3,204.9c2.9,0,6.8-0.5,7.6-0.9c0.6-0.4,0.8-1.7,0.9-2.3h0.1c0,0-0.2,2.1-0.9,2.6c-0.8,0.5-4.7,1-7.6,0.9
		c-0.8,0-1.1-0.3-1.1-0.8C222.3,204.7,222.7,204.9,223.3,204.9z"/>
	<ellipse class="st6" cx="54.2" cy="208.9" rx="10" ry="1.5"/>
	<ellipse class="st6" cx="78.5" cy="222.2" rx="10" ry="1.5"/>
	<ellipse class="st6" cx="185.9" cy="187.5" rx="6.7" ry="0.7"/>
	<ellipse class="st6" cx="154.8" cy="208.9" rx="6.7" ry="0.7"/>
	<ellipse class="st6" cx="140.7" cy="222.2" rx="6.7" ry="0.7"/>
</g>
</svg>
