<svg width="155" height="132" viewBox="0 0 155 132" fill="none" xmlns="http://www.w3.org/2000/svg">
<path opacity="0.3" d="M152.305 80.019C148.465 87.9906 140.686 93.2723 132.665 96.7935C121.823 101.537 109.864 103.396 98.0991 102.564C96.0573 102.418 93.9668 102.222 91.925 101.88C84.7785 100.804 77.8265 98.7986 71.2634 95.8154C69.3674 94.9351 67.52 94.0059 65.6727 92.9789C62.6099 91.2672 59.7416 89.3599 56.9705 87.257C56.2899 86.719 55.6093 86.1811 54.9287 85.6431C54.4425 85.2519 54.005 84.8606 53.5188 84.4694C52.4979 83.638 51.5256 82.9044 50.3588 82.3176C50.0185 82.1219 49.6782 81.9752 49.2893 81.8285C45.6917 80.4592 41.5108 80.9482 37.7188 82.0241C34.8505 82.8555 32.0794 83.9803 29.2111 84.7628C27.9471 85.1541 26.6345 85.3986 25.3219 85.5942C22.405 85.9854 19.4394 85.692 16.6197 84.8117L16.3767 84.7139C15.9877 84.5672 15.5502 84.4205 15.1613 84.2738L14.9182 84.176C14.5293 84.0292 14.1404 83.8825 13.8 83.6869L13.557 83.5891C13.168 83.3935 12.7791 83.1979 12.4388 83.0022C12.293 82.9533 12.1957 82.8555 12.0499 82.8066C9.95943 81.6329 8.06343 80.1168 6.41051 78.4052C6.36189 78.3562 6.31328 78.3073 6.26466 78.2584C6.02159 78.0139 5.82713 77.7694 5.58405 77.476C5.48682 77.3781 5.4382 77.2803 5.34097 77.1825C5.09789 76.8402 4.8062 76.5468 4.61174 76.2044C4.56313 76.1555 4.56313 76.1066 4.51451 76.0577C3.5422 74.6884 2.71574 73.2212 2.08374 71.6562C2.08374 71.6073 2.03513 71.5584 2.03513 71.5095C1.84066 71.0205 1.6462 70.4825 1.50036 69.9935C1.45174 69.7979 1.35451 69.5533 1.30589 69.3577C1.30589 69.3088 1.25728 69.211 1.25728 69.1621C0.479433 65.9833 0.382202 62.7555 0.382202 59.4789C0.382202 59.0876 0.382202 58.6964 0.382202 58.3541C0.382202 53.0723 0.479433 47.7417 1.25728 42.5577C1.25728 42.5088 1.25728 42.5088 1.25728 42.4599C1.50036 40.6993 1.88928 38.9876 2.32682 37.276C2.81297 35.4665 3.39636 33.7059 4.07697 31.9942C5.82713 27.7884 8.45236 23.9738 11.3207 20.4037C18.5644 11.503 28.093 3.97158 39.1773 1.18399C51.1367 -1.84813 64.4087 1.03728 74.0831 8.76428C77.0487 11.1117 79.6739 13.8993 82.9797 15.7088C85.8481 17.2738 89.2511 17.9095 92.3139 16.6869C94.8905 15.6599 96.5434 15.1709 99.4117 15.3176C105.343 15.6599 111.177 16.8825 116.767 18.9854C117.011 19.0833 117.205 19.1322 117.448 19.23C131.984 24.8052 144.43 35.9066 150.944 50.1869C151.139 50.5781 151.284 50.9694 151.43 51.3117C155.174 60.5548 156.583 71.1672 152.305 80.019Z" fill="#F7FAFF"/>
<path opacity="0.1" d="M19.0991 120.317C26.1337 120.317 31.8363 119.397 31.8363 118.263C31.8363 117.129 26.1337 116.209 19.0991 116.209C12.0645 116.209 6.36185 117.129 6.36185 118.263C6.36185 119.397 12.0645 120.317 19.0991 120.317Z" fill="#7E64D0"/>
<path opacity="0.1" d="M121.289 131.467C133.747 131.467 143.846 130.482 143.846 129.267C143.846 128.051 133.747 127.066 121.289 127.066C108.83 127.066 98.7311 128.051 98.7311 129.267C98.7311 130.482 108.83 131.467 121.289 131.467Z" fill="#7E64D0"/>
<path d="M8.30649 15.7578H141.707C142.728 15.7578 143.506 16.5892 143.506 17.5673V92.0009C143.506 93.0279 142.679 93.8104 141.707 93.8104H8.30649C7.28557 93.8104 6.50772 92.979 6.50772 92.0009V17.5184C6.50772 16.5403 7.33418 15.7578 8.30649 15.7578Z" fill="url(#paint0_linear)"/>
<path d="M8.50098 16.8335H141.464C142.485 16.8335 143.263 17.6649 143.263 18.643V91.7072C143.263 92.7342 142.436 93.5167 141.464 93.5167H8.50098C7.48006 93.5167 6.70221 92.6853 6.70221 91.7072V18.643C6.70221 17.616 7.52867 16.8335 8.50098 16.8335Z" fill="white"/>
<path d="M8.50098 16.8335H141.464C142.485 16.8335 143.263 17.6649 143.263 18.643V91.7072C143.263 92.7342 142.436 93.5167 141.464 93.5167H8.50098C7.48006 93.5167 6.70221 92.6853 6.70221 91.7072V18.643C6.70221 17.616 7.52867 16.8335 8.50098 16.8335Z" fill="white"/>
<path opacity="0.04" d="M8.50098 16.8335H141.464C142.485 16.8335 143.263 17.6649 143.263 18.643V91.7072C143.263 92.7342 142.436 93.5167 141.464 93.5167H8.50098C7.48006 93.5167 6.70221 92.6853 6.70221 91.7072V18.643C6.70221 17.616 7.52867 16.8335 8.50098 16.8335Z" fill="white"/>
<path d="M142.631 15.9531H7.43138C7.04246 15.9531 6.75076 16.2466 6.75076 16.6378V19.5721H143.311V16.6378C143.311 16.2466 142.971 15.9531 142.631 15.9531Z" fill="#5A5773"/>
<path d="M9.47328 18.6919C9.98342 18.6919 10.397 18.2759 10.397 17.7627C10.397 17.2495 9.98342 16.8335 9.47328 16.8335C8.96314 16.8335 8.54959 17.2495 8.54959 17.7627C8.54959 18.2759 8.96314 18.6919 9.47328 18.6919Z" fill="white"/>
<path d="M12.0013 18.6919C12.5114 18.6919 12.925 18.2759 12.925 17.7627C12.925 17.2495 12.5114 16.8335 12.0013 16.8335C11.4912 16.8335 11.0776 17.2495 11.0776 17.7627C11.0776 18.2759 11.4912 18.6919 12.0013 18.6919Z" fill="white"/>
<path d="M14.4806 18.6919C14.9908 18.6919 15.4043 18.2759 15.4043 17.7627C15.4043 17.2495 14.9908 16.8335 14.4806 16.8335C13.9705 16.8335 13.5569 17.2495 13.5569 17.7627C13.5569 18.2759 13.9705 18.6919 14.4806 18.6919Z" fill="white"/>
<path opacity="0.1" d="M54.637 26.4678H17.981V29.5977H54.637V26.4678Z" fill="#009688"/>
<path opacity="0.1" d="M132.033 38.9878H17.981V87.1104H132.033V38.9878Z" fill="#5A5773"/>
<path opacity="0.1" d="M84.7785 42.1665H82.8339V38.3519C82.8339 34.0483 79.4308 30.4782 75.1526 30.3804C70.8259 30.3315 67.277 33.8526 67.2283 38.1563V38.2052V42.1176H65.2837C63.4849 42.1176 62.0265 43.5848 62.0265 45.3943V61.0928C62.0265 62.9023 63.4849 64.3694 65.2837 64.3694H84.7785C86.5773 64.3694 88.0357 62.9023 88.0357 61.0928V45.3943C88.0357 43.5848 86.5773 42.1665 84.7785 42.1665ZM76.1736 52.3388V57.9629C76.1736 58.5986 75.6874 59.0877 75.104 59.1366C74.472 59.1855 73.9373 58.6964 73.9373 58.0607V58.0118V52.3388C72.6733 51.703 72.1385 50.1381 72.7705 48.8665C73.4025 47.595 74.9582 47.057 76.2222 47.6928C77.4862 48.3286 78.021 49.8935 77.389 51.1651C77.0973 51.6541 76.6597 52.0943 76.1736 52.3388ZM80.549 42.1665H69.5133V38.2541C69.5133 35.1731 71.9926 32.6789 75.0554 32.6789C78.1182 32.6789 80.5976 35.1731 80.5976 38.2541L80.549 42.1665Z" fill="black"/>
<path d="M84.7785 41.8731H82.8339V38.0585C82.8339 33.7548 79.4308 30.1847 75.1526 30.0869C70.8259 30.038 67.277 33.5592 67.2283 37.8628V37.9117V41.8242H65.2837C63.4849 41.8242 62.0265 43.2913 62.0265 45.1008V60.7993C62.0265 62.6088 63.4849 64.076 65.2837 64.076H84.7785C86.5773 64.076 88.0357 62.6088 88.0357 60.7993V45.1008C88.0357 43.2913 86.5773 41.8731 84.7785 41.8731ZM76.1736 52.0453V57.6694C76.1736 58.3052 75.6874 58.7942 75.104 58.8431C74.472 58.892 73.9373 58.403 73.9373 57.7672V57.7183V52.0453C72.6733 51.4096 72.1385 49.8446 72.7705 48.5731C73.4025 47.3015 74.9582 46.7636 76.2222 47.3993C77.4862 48.0351 78.021 49.6001 77.389 50.8716C77.0973 51.3607 76.6597 51.8008 76.1736 52.0453ZM80.549 41.8731H69.5133V37.9607C69.5133 34.8796 71.9926 32.3855 75.0554 32.3855C78.1182 32.3855 80.5976 34.8796 80.5976 37.9607L80.549 41.8731Z" fill="#2A6AAA"/>
<path opacity="0.1" d="M132.081 34.3906H120.511V37.1293H132.081V34.3906Z" fill="#5A5773"/>
<path d="M135.971 129.902C135.873 129.511 135.776 129.12 135.582 128.777L133.831 126.185C133.831 126.185 133.54 124.865 133.831 124.229C134.123 123.593 132.859 122.028 132.859 122.028C132.859 122.028 132.713 121.637 133.102 121.148C133.491 120.659 132.859 119.241 132.859 119.241C132.859 119.241 132.567 116.258 132.519 115.818C132.47 115.377 132.227 112.834 132.227 112.834L131.644 107.504L130.623 93.3212V93.0767C130.769 93.0278 130.817 92.9789 130.817 92.9789L130.623 85.154L130.817 85.0073C132.373 83.5891 135.922 80.3124 135.922 80.2635C135.873 80.2146 135.484 74.7862 135.436 73.4657C135.387 72.4876 135.193 71.5584 134.804 70.6781C134.707 70.4825 134.463 69.3088 134.366 68.8197C134.318 68.673 134.318 68.5752 134.318 68.5752C134.318 68.5752 133.248 66.5701 133.345 65.6409C133.443 64.7117 133.637 64.027 131.401 63.7336C131.401 63.7336 129.553 63.4402 128.387 62.6577C127.706 62.2175 127.025 61.8263 126.247 61.5818C126.247 61.5818 125.615 60.408 125.178 60.7993C124.983 60.3591 124.838 59.9679 124.74 59.5278V59.4299C125.567 58.8431 126.15 58.0117 126.393 57.0336C126.393 56.9847 126.442 56.9358 126.442 56.8869C126.491 56.8869 126.539 56.8869 126.588 56.9358C126.977 56.9358 127.22 56.4956 127.56 56.3489C127.706 56.3 127.9 56.3 127.998 56.1533C128.095 56.0555 128.095 55.9577 128.095 55.811C128.095 55.7621 128.095 55.7132 128.095 55.7132V55.6643C127.998 55.1263 127.609 54.6372 127.657 54.1482C127.706 53.6591 128.143 53.1701 128.095 52.7299C128.095 52.681 128.095 52.6321 128.095 52.6321C128.046 52.4365 127.949 52.2409 127.803 52.0942C127.657 51.8986 127.463 51.7029 127.22 51.6051C127.025 51.5073 126.782 51.5073 126.588 51.4095C126.053 51.1161 126.053 50.3336 125.713 49.7956C125.421 49.3555 124.886 49.0621 124.4 49.111C124.011 49.1599 123.622 49.3555 123.233 49.4533C122.699 49.5511 122.115 49.3555 121.58 49.1599C121.046 48.9643 120.511 48.7197 119.976 48.7197C119.393 48.7197 118.809 49.0132 118.663 49.5511C118.566 49.8445 118.615 50.138 118.566 50.4314C118.42 50.9694 117.983 51.3117 117.497 51.6051C117.205 51.7518 116.865 51.9475 116.767 52.2409C116.767 52.2898 116.767 52.2898 116.767 52.3387C116.767 52.3876 116.767 52.3876 116.767 52.4365C116.767 52.6321 116.865 52.8278 116.962 53.0234C117.108 53.4146 117.108 53.8059 116.962 54.1971C116.865 54.4905 116.67 54.7351 116.573 54.9796C116.524 55.1263 116.476 55.2241 116.476 55.3708C116.476 55.4197 116.476 55.5175 116.476 55.5664C116.476 55.7621 116.524 56.0066 116.622 56.2022C116.767 56.4467 117.011 56.6424 117.254 56.7402C117.545 56.7891 117.74 56.5445 118.031 56.5934C118.08 56.5934 118.129 56.6424 118.177 56.6424C118.177 56.6913 118.177 56.7891 118.226 56.838C118.42 57.8161 118.955 58.6964 119.684 59.3321C119.684 59.381 119.684 59.381 119.684 59.4299C119.782 60.0168 119.83 60.6037 119.782 61.1905C119.782 61.1905 119.344 60.5059 118.712 61.8263C118.712 61.8263 117.108 62.7555 116.524 62.9022C115.941 63 113.948 63.7336 113.948 63.7336C113.656 63.9292 113.267 64.0759 112.927 64.0759C112.295 64.0759 111.76 65.4453 111.857 66.1788C111.955 66.9124 111.809 67.4504 111.225 67.4993C110.642 67.5482 110.982 68.7219 110.982 68.7219L110.934 68.9664C110.836 69.5044 110.593 70.5803 110.496 70.7759C110.107 71.6562 109.913 72.5854 109.864 73.5635C109.815 74.884 109.427 80.2635 109.378 80.3613C109.329 80.4102 111.809 82.6599 113.51 84.2248L113.753 84.4694L112.975 91.9029C113.024 92.4898 113.316 93.0278 113.802 93.3701C113.802 93.4679 113.802 93.5657 113.802 93.6146C113.753 94.4949 113.705 95.5219 113.559 95.8153C113.316 96.3044 113.364 98.9453 113.364 98.9453C113.364 98.9453 113.121 104.276 112.83 104.814C112.538 105.401 112.441 106.623 112.538 106.819C112.635 107.015 112.246 113.421 112.246 113.421L111.955 116.307C111.955 116.307 112.052 119.045 111.76 119.094C111.468 119.143 111.323 121.05 111.323 121.05C111.323 121.05 110.35 122.371 110.788 122.86C111.225 123.349 110.739 123.545 110.691 123.691C110.642 123.789 109.767 124.278 110.399 125.99V126.039C109.815 126.87 107.919 129.56 108.017 129.951C108.114 130.196 108.308 130.44 108.503 130.587C108.94 130.88 109.718 130.978 110.934 130.587C112.927 129.951 112.781 129.462 112.781 129.462C112.781 129.022 113.17 128.631 113.656 128.631C114.483 128.582 115.115 127.799 115.115 127.799L115.017 127.408L114.871 126.919C114.871 126.772 114.969 126.528 115.455 126.381C116.135 126.185 115.99 124.816 115.99 124.816C115.99 124.816 115.941 123.447 116.233 123.251C116.524 123.055 116.427 120.757 116.427 120.757C116.427 120.757 116.767 119.094 117.254 117.969C117.74 116.845 118.323 110.145 118.323 110.145C118.323 110.145 118.712 106.868 119.101 105.939C119.49 105.01 119.782 102.369 119.782 102.369C119.782 102.369 122.018 98.0161 122.067 96.9891C122.067 96.9891 122.358 96.0599 122.65 97.0869C122.942 98.1139 123.768 100.51 123.768 100.51L124.546 103.445L125.47 107.846L126.102 111.563C126.102 111.563 126.004 112.932 126.247 113.421C126.491 113.91 126.831 115.035 126.636 115.231C126.442 115.426 127.025 116.453 127.171 116.649C127.317 116.845 127.171 121.344 127.171 121.344C127.171 121.344 127.852 125.158 128.873 125.843C128.921 125.892 129.019 125.941 129.116 125.941C129.116 126.381 129.067 126.919 129.116 127.212C129.116 127.261 129.116 127.359 129.164 127.408C129.262 127.555 130.283 128.337 130.477 128.337C130.671 128.337 131.449 128.875 131.498 129.12C131.547 129.364 133.734 130.44 134.026 130.489C134.318 130.538 135.825 130.782 136.019 130.342C135.971 130.196 136.019 130.049 135.971 129.902ZM130.623 75.1285L130.769 75.2752C130.769 75.2752 130.915 76.4978 131.06 76.8891C131.158 77.2803 131.06 78.0139 131.06 78.0139C131.06 78.3073 131.109 78.5518 131.206 78.7964C131.352 79.0898 130.915 79.6767 130.915 79.6767H130.526L130.428 74.9818L130.623 75.1285ZM114.142 79.1876C114.094 79.0409 114.094 78.9431 114.142 78.7964C114.191 78.7475 114.191 78.6497 114.239 78.6008C114.288 78.4051 114.337 78.2095 114.337 78.0139C114.337 77.965 114.191 77.2803 114.337 76.8891C114.483 76.4978 114.628 75.2752 114.628 75.2752L114.726 75.1774L114.969 74.9818C114.969 74.9818 114.969 74.884 114.969 74.7862C115.017 75.911 115.066 77.0847 115.017 77.1825C114.871 77.2803 114.434 78.5029 114.58 78.5029C114.628 78.5029 114.58 78.992 114.483 79.6278C114.288 79.481 114.239 79.3343 114.142 79.1876Z" fill="url(#paint1_linear)"/>
<path d="M125.761 62.2666V64.0761L122.066 65.9345C122.066 65.9345 118.42 63.7337 119.295 62.8045C119.879 62.2177 119.782 60.7016 119.587 59.6257C119.49 58.9899 119.393 58.5498 119.393 58.5498C119.393 58.5498 125.956 56.6914 124.983 58.1096C124.643 58.5987 124.643 59.2345 124.74 59.8213C125.032 61.0928 125.761 62.2666 125.761 62.2666Z" fill="#C37098"/>
<path d="M115.698 79.9213L115.212 85.7899C115.212 85.7899 114.483 85.1541 113.607 84.3227C111.906 82.7578 109.475 80.5081 109.524 80.4592C109.572 80.3614 109.961 75.0307 110.01 73.7103C110.058 72.7322 110.253 71.803 110.642 70.9227C110.739 70.7271 110.982 69.6512 111.079 69.1132C111.128 68.9665 111.128 68.8687 111.128 68.8687L111.906 68.5264C111.906 68.5264 115.212 72.2432 115.212 72.2921C115.212 72.341 114.969 75.2264 114.969 75.2264L114.726 75.422L114.628 75.5198C114.628 75.5198 114.483 76.7424 114.337 77.1337C114.191 77.5249 114.337 78.1607 114.337 78.2585C114.337 78.4541 114.288 78.6497 114.239 78.8453C114.239 78.9432 114.191 78.9921 114.142 79.041C114.094 79.1877 114.094 79.2855 114.142 79.4322C114.191 79.5789 114.288 79.7745 114.385 79.9213H115.698Z" fill="#3F3D56"/>
<path d="M135.825 80.4591C135.873 80.508 132.324 83.7847 130.769 85.2029L130.088 85.8387L129.602 79.9701H130.817C130.817 79.9701 131.206 79.3832 131.109 79.0898C131.012 78.8453 130.963 78.5518 130.963 78.3073C130.963 78.3073 131.109 77.5737 130.963 77.1825C130.866 76.7913 130.671 75.5686 130.671 75.5686L130.526 75.4219L130.331 75.2752C130.331 75.2752 130.088 72.3898 130.088 72.3409C130.088 72.292 133.394 68.5752 133.394 68.5752L134.172 68.9175C134.172 68.9175 134.172 69.0153 134.22 69.1621C134.318 69.6511 134.561 70.8248 134.658 71.0205C135.047 71.9007 135.241 72.8299 135.29 73.808C135.387 75.0307 135.776 80.3613 135.825 80.4591Z" fill="#3F3D56"/>
<path d="M135.825 130.293C135.63 130.733 134.123 130.44 133.831 130.44C133.54 130.44 131.352 129.315 131.303 129.071C131.255 128.826 130.526 128.288 130.283 128.288C130.039 128.288 129.067 127.457 128.97 127.359C128.97 127.31 128.921 127.212 128.921 127.163C128.873 126.674 128.97 125.403 128.97 125.403L133.345 125.647L135.484 128.875C135.679 129.217 135.776 129.609 135.873 130C135.873 130.049 135.873 130.196 135.825 130.293Z" fill="#3F3D56"/>
<path opacity="0.1" d="M135.825 130.293C135.63 130.733 134.123 130.44 133.831 130.44C133.54 130.44 131.352 129.315 131.303 129.071C131.255 128.826 130.526 128.288 130.283 128.288C130.039 128.288 129.067 127.457 128.97 127.359C128.97 127.31 128.921 127.212 128.921 127.163C128.873 126.674 128.97 125.403 128.97 125.403L133.345 125.647L135.484 128.875C135.679 129.217 135.776 129.609 135.873 130C135.873 130.049 135.873 130.196 135.825 130.293Z" fill="black"/>
<path opacity="0.1" d="M135.825 130.293C135.63 130.734 134.123 130.44 133.831 130.44C133.54 130.44 131.352 129.315 131.303 129.071C131.255 128.826 130.526 128.288 130.283 128.288C130.039 128.288 129.067 127.457 128.97 127.359C128.97 127.31 128.921 127.212 128.921 127.164L130.331 128.093C130.331 128.093 131.255 128.68 131.498 129.022C131.741 129.364 133.637 130.098 133.783 130.098C133.88 130.098 135.144 129.853 135.825 129.951C135.873 130.049 135.873 130.196 135.825 130.293Z" fill="black"/>
<path d="M115.212 127.653C115.212 127.653 114.58 128.435 113.753 128.484C113.316 128.484 112.927 128.826 112.927 129.316C112.927 129.316 113.073 129.805 111.079 130.44C109.864 130.832 109.135 130.685 108.697 130.44C108.454 130.294 108.26 130.098 108.211 129.853C108.065 129.364 110.739 125.697 110.739 125.697L113.17 125.55L114.92 126.332L115.163 127.359L115.212 127.653Z" fill="#3F3D56"/>
<path opacity="0.1" d="M115.212 127.653C115.212 127.653 114.58 128.435 113.753 128.484C113.316 128.484 112.927 128.826 112.927 129.316C112.927 129.316 113.073 129.805 111.079 130.44C109.864 130.832 109.135 130.685 108.697 130.44C108.454 130.294 108.26 130.098 108.211 129.853C108.065 129.364 110.739 125.697 110.739 125.697L113.17 125.55L114.92 126.332L115.163 127.359L115.212 127.653Z" fill="black"/>
<path opacity="0.1" d="M115.212 127.652C115.212 127.652 114.58 128.435 113.753 128.484C113.316 128.484 112.927 128.826 112.927 129.315C112.927 129.315 113.073 129.804 111.079 130.44C109.864 130.831 109.135 130.685 108.697 130.44C109.864 130.342 112.343 129.609 112.586 129.364C112.878 129.071 113.267 128.239 113.51 128.19C113.705 128.19 114.58 127.652 115.114 127.31L115.212 127.652Z" fill="black"/>
<path d="M133.783 124.278C133.491 124.914 133.783 126.235 133.783 126.235C133.783 126.235 129.748 126.43 128.775 125.794C127.803 125.159 127.074 121.295 127.074 121.295C127.074 121.295 127.22 116.796 127.074 116.6C126.928 116.405 126.393 115.378 126.539 115.182C126.734 114.986 126.393 113.862 126.15 113.372C125.907 112.883 126.004 111.514 126.004 111.514L125.421 107.846L124.497 103.445L123.719 100.51C123.719 100.51 122.893 98.1141 122.601 97.136C122.31 96.109 122.018 97.0382 122.018 97.0382C121.969 98.0163 119.782 102.369 119.782 102.369C119.782 102.369 119.441 105.01 119.101 105.939C118.761 106.868 118.323 110.145 118.323 110.145C118.323 110.145 117.74 116.796 117.254 117.921C116.767 119.045 116.427 120.708 116.427 120.708C116.427 120.708 116.573 123.007 116.233 123.202C115.941 123.398 115.99 124.767 115.99 124.767C115.99 124.767 116.184 126.088 115.455 126.283C114.726 126.479 114.871 126.968 114.871 126.968C114.871 126.968 111.031 127.604 110.399 125.892C109.767 124.18 110.642 123.74 110.69 123.643C110.739 123.496 111.225 123.3 110.788 122.811C110.35 122.322 111.322 121.002 111.322 121.002C111.322 121.002 111.468 119.143 111.76 119.045C112.052 118.997 111.954 116.258 111.954 116.258L112.246 113.421C112.246 113.421 112.635 107.064 112.538 106.819C112.441 106.575 112.489 105.352 112.83 104.814C113.121 104.227 113.364 98.9455 113.364 98.9455C113.364 98.9455 113.316 96.3535 113.559 95.8644C113.705 95.571 113.753 94.544 113.802 93.6637C113.85 92.979 113.85 92.49 113.85 92.49L117.205 91.2185L121.532 89.8491L125.178 91.6097L130.526 92.6367L130.574 93.5659L131.595 107.699L132.178 113.03C132.178 113.03 132.422 115.524 132.47 116.013C132.519 116.453 132.81 119.437 132.81 119.437C132.81 119.437 133.442 120.855 133.054 121.344C132.665 121.833 132.81 122.224 132.81 122.224C132.81 122.224 134.026 123.643 133.783 124.278Z" fill="#3F3D56"/>
<path opacity="0.1" d="M125.032 58.1585C124.692 58.6475 124.692 59.2833 124.789 59.8701C123.233 60.995 121.143 60.8971 119.636 59.6745C119.539 59.0388 119.441 58.5986 119.441 58.5986C119.441 58.5986 126.053 56.7402 125.032 58.1585Z" fill="black"/>
<path d="M126.588 56.3002C126.588 58.6476 124.692 60.5549 122.358 60.5549C120.025 60.5549 118.129 58.6476 118.129 56.3002C118.129 53.9527 120.025 52.0454 122.358 52.0454C124.692 52.0454 126.588 53.9527 126.588 56.3002C126.588 56.3002 126.588 56.2512 126.588 56.3002Z" fill="#C37098"/>
<path opacity="0.1" d="M127.463 63.3424L126.053 88.1862L118.566 86.5723L117.059 76.6446L118.518 63.2935L119.636 63.4402L121.58 63.6847L123.525 63.7825L125.664 63.5869L127.463 63.3424Z" fill="black"/>
<path d="M127.463 63.5382L126.053 88.3331L118.566 86.7681L117.059 76.8404L118.518 63.4893L119.636 63.636L121.58 63.8805L123.525 63.9783L125.664 63.7338L127.463 63.5382Z" fill="#2A6AAA"/>
<path d="M121.289 64.2227L124.011 64.3205L123.233 65.3964C123.233 65.3964 123.282 67.5482 123.671 68.184C124.011 68.8197 123.914 78.4051 123.914 78.4051L123.185 79.7745L121.969 78.2584V65.592L121.289 64.2227Z" fill="#3F3D56"/>
<path opacity="0.1" d="M121.289 64.2227L124.011 64.3205L123.233 65.3964C123.233 65.3964 123.282 67.5482 123.671 68.184C124.011 68.8197 123.914 78.4051 123.914 78.4051L123.185 79.7745L121.969 78.2584V65.592L121.289 64.2227Z" fill="black"/>
<path opacity="0.1" d="M125.518 61.3862L122.99 64.2227L124.449 65.7388L126.831 63.3913L125.518 61.3862Z" fill="black"/>
<path d="M125.518 61.2393L122.99 64.0269L124.449 65.5429L126.831 63.1955L125.518 61.2393Z" fill="#2A6AAA"/>
<path opacity="0.1" d="M121.921 64.0759L119.344 61.4839L119.101 62.8532L120.316 65.7875L121.921 64.0759Z" fill="black"/>
<path d="M122.018 63.8805L119.441 61.3374L119.198 62.6578L120.414 65.6411L122.018 63.8805Z" fill="#2A6AAA"/>
<path opacity="0.1" d="M130.623 93.4677C129.407 94.0545 128.095 94.4458 126.734 94.5925C124.254 94.9348 122.65 91.7071 122.65 91.7071L121.678 92.9297C121.386 94.2502 116.767 94.5925 114.92 94.1035C114.531 94.0056 114.142 93.81 113.851 93.6144C113.899 92.9297 113.899 92.4407 113.899 92.4407L117.254 91.1691L121.58 89.7998L125.227 91.5604L130.574 92.5874L130.623 93.4677Z" fill="black"/>
<path opacity="0.1" d="M127.463 63.5382L126.102 88.3331L118.566 86.7681L117.059 76.8404L118.518 63.4893L119.636 63.636C119.587 64.125 119.538 64.6141 119.49 65.1031C119.295 65.9345 120.414 71.9498 120.414 71.9498C120.414 71.9498 122.504 78.6988 123.476 77.7207C124.449 76.7425 125.761 71.6075 125.761 71.6075C126.685 69.7002 125.761 64.3696 125.713 64.2228C125.664 64.0761 125.615 63.8805 125.615 63.7338L127.463 63.5382Z" fill="black"/>
<path opacity="0.1" d="M130.72 82.7578L130.769 85.2031L130.088 85.8388L129.602 79.9702H130.671L130.72 82.7578Z" fill="black"/>
<path opacity="0.1" d="M114.386 78.2583C114.386 78.4539 114.337 78.6495 114.288 78.8452C114.288 78.7963 114.288 78.7474 114.288 78.7474C114.239 78.7474 114.288 78.5028 114.386 78.2583Z" fill="black"/>
<path opacity="0.1" d="M115.698 79.9211L115.212 85.7897C115.212 85.7897 114.483 85.154 113.607 84.3226L113.705 83.2956C113.705 83.2956 114.094 80.7525 114.239 79.481C114.288 79.6277 114.385 79.8233 114.483 79.97H115.698V79.9211Z" fill="black"/>
<path d="M119.782 61.4352C119.782 61.4352 119.344 60.7505 118.712 62.071C118.712 62.071 117.108 63.0002 116.573 63.098C116.038 63.1958 114.045 63.9294 114.045 63.9294C113.753 64.125 113.364 64.2717 113.024 64.2717C112.392 64.2717 111.906 65.6411 111.954 66.3746C112.003 67.1082 111.906 67.6462 111.322 67.6951C110.739 67.744 111.079 68.9177 111.079 68.9177L114.871 73.3192C114.871 73.3192 115.114 77.3294 115.017 77.4761C114.92 77.6228 114.434 78.7965 114.58 78.7965C114.726 78.7965 113.996 83.2958 113.996 83.2958L113.073 91.952C113.073 91.952 113.073 93.4191 114.92 93.9082C116.767 94.3972 121.386 94.0549 121.678 92.7345L122.65 91.5118C122.65 91.5118 124.254 94.6907 126.734 94.3972C129.213 94.0549 130.769 93.1746 130.769 93.1746L130.477 82.7578L130.282 75.2754L134.172 68.8688C134.172 68.8688 133.151 66.8637 133.199 65.9834C133.297 65.0542 133.491 64.4184 131.255 64.0761C131.255 64.0761 129.407 63.7827 128.289 63.0491C127.609 62.6089 126.928 62.2177 126.15 61.9732C126.15 61.9732 125.518 60.7994 125.081 61.1907C125.081 61.1907 125.518 62.8046 125.47 63.0491C125.421 63.2936 125.518 64.4184 125.615 64.5162C125.664 64.614 126.588 69.9936 125.664 71.9009C125.664 71.9009 124.303 77.0359 123.379 78.014C122.407 78.9921 120.316 72.2432 120.316 72.2432C120.316 72.2432 119.198 66.2279 119.393 65.3965C119.636 64.4673 119.782 61.4352 119.782 61.4352Z" fill="#3F3D56"/>
<path d="M122.99 81.2907C123.366 81.2907 123.671 80.9842 123.671 80.6061C123.671 80.2279 123.366 79.9214 122.99 79.9214C122.614 79.9214 122.31 80.2279 122.31 80.6061C122.31 80.9842 122.614 81.2907 122.99 81.2907Z" fill="#3F3D56"/>
<path d="M122.99 84.4206C123.366 84.4206 123.671 84.1141 123.671 83.7359C123.671 83.3578 123.366 83.0513 122.99 83.0513C122.614 83.0513 122.31 83.3578 122.31 83.7359C122.31 84.1141 122.614 84.4206 122.99 84.4206Z" fill="#3F3D56"/>
<path opacity="0.1" d="M122.99 81.2907C123.366 81.2907 123.671 80.9842 123.671 80.6061C123.671 80.2279 123.366 79.9214 122.99 79.9214C122.614 79.9214 122.31 80.2279 122.31 80.6061C122.31 80.9842 122.614 81.2907 122.99 81.2907Z" fill="black"/>
<path opacity="0.1" d="M122.99 84.4206C123.366 84.4206 123.671 84.1141 123.671 83.7359C123.671 83.3578 123.366 83.0513 122.99 83.0513C122.614 83.0513 122.31 83.3578 122.31 83.7359C122.31 84.1141 122.614 84.4206 122.99 84.4206Z" fill="black"/>
<path opacity="0.1" d="M128.97 123.398C128.97 123.398 131.692 123.594 131.984 123.838C132.179 124.034 128.97 123.398 128.97 123.398Z" fill="black" stroke="#7E64D0" stroke-miterlimit="10"/>
<path opacity="0.1" d="M112.781 121.246C112.781 121.246 113.364 121.98 113.121 122.322C112.878 122.615 112.781 121.246 112.781 121.246Z" fill="black" stroke="#7E64D0" stroke-miterlimit="10"/>
<path opacity="0.1" d="M113.462 123.838C113.462 123.838 114.531 123.153 114.92 123.593C115.358 124.082 113.462 123.838 113.462 123.838Z" fill="black" stroke="#7E64D0" stroke-miterlimit="10"/>
<path opacity="0.1" d="M126.588 56.3002C126.588 56.6425 126.539 57.0338 126.442 57.3761C126.247 57.2783 126.15 57.0827 126.15 56.8871C126.15 56.6914 126.296 56.5447 126.247 56.398C126.199 56.1535 125.907 56.0068 125.713 55.8111C125.518 55.5666 125.567 55.1754 125.567 54.882C125.567 54.5396 125.518 54.1484 125.178 54.0506C125.081 54.0017 124.983 54.0017 124.886 53.9528C124.643 53.8549 124.595 53.5615 124.4 53.3659C124.06 52.9257 123.428 52.9747 122.942 53.1703C122.747 53.2681 122.504 53.3659 122.31 53.4637C122.067 53.5615 121.823 53.5126 121.629 53.4148C121.532 53.3659 121.435 53.2681 121.337 53.2192C120.997 53.0236 120.559 53.2192 120.316 53.4637C120.025 53.7082 119.782 54.0506 119.441 54.1973C119.295 54.2462 119.101 54.2951 119.004 54.4907C118.955 54.5885 118.955 54.6863 118.955 54.7841C118.955 55.371 119.004 55.909 118.907 56.4469C118.809 56.7893 118.566 57.2294 118.226 57.1805C118.177 57.1805 118.129 57.1805 118.08 57.1316C117.643 54.833 119.15 52.5834 121.483 52.1922C123.768 51.752 126.004 53.2681 126.393 55.6155C126.539 55.8111 126.588 56.0557 126.588 56.3002Z" fill="black"/>
<path d="M118.031 56.838C118.129 56.8869 118.226 56.9358 118.372 56.9358C118.712 56.9847 119.004 56.5935 119.052 56.2022C119.15 55.6643 119.101 55.0774 119.101 54.5395C119.101 54.4417 119.101 54.3438 119.15 54.246C119.247 54.0993 119.441 54.0504 119.587 53.9526C119.927 53.8059 120.171 53.4635 120.462 53.219C120.754 52.9745 121.191 52.7789 121.483 52.9745C121.58 53.0234 121.678 53.1212 121.775 53.1701C121.969 53.2679 122.212 53.3168 122.455 53.219C122.699 53.1701 122.893 53.0234 123.087 52.9256C123.574 52.73 124.206 52.73 124.546 53.1212C124.692 53.3168 124.789 53.6103 125.032 53.7081C125.129 53.757 125.227 53.757 125.324 53.8059C125.615 53.9037 125.713 54.3438 125.713 54.6373C125.713 54.9796 125.664 55.3219 125.859 55.5665C126.004 55.7621 126.345 55.8599 126.393 56.1533C126.393 56.3489 126.296 56.4957 126.296 56.6424C126.296 56.8869 126.491 57.1314 126.734 57.1803C127.123 57.1803 127.366 56.7402 127.706 56.6424C127.852 56.5935 128.046 56.5935 128.143 56.4468C128.241 56.349 128.241 56.2022 128.241 56.0555C128.192 55.5176 127.706 55.0285 127.755 54.4417C127.803 53.9037 128.289 53.4146 128.192 52.9256C128.143 52.73 128.046 52.5344 127.9 52.3876C127.755 52.192 127.56 51.9964 127.317 51.8986C127.123 51.8008 126.879 51.8008 126.685 51.703C126.15 51.4095 126.15 50.6271 125.81 50.0891C125.518 49.649 125.032 49.4044 124.497 49.4044C124.108 49.4533 123.719 49.649 123.331 49.7468C122.796 49.8446 122.212 49.649 121.726 49.4533C121.24 49.2577 120.657 49.0132 120.122 49.0132C119.587 49.0132 118.955 49.3066 118.809 49.8446C118.712 50.138 118.761 50.4314 118.712 50.7249C118.566 51.2628 118.129 51.6052 117.691 51.8986C117.351 52.0942 117.011 52.2898 116.962 52.6322C116.913 52.8767 117.059 53.0723 117.156 53.3168C117.302 53.7081 117.302 54.0993 117.156 54.4906C117.059 54.784 116.865 55.0285 116.767 55.273C116.622 55.6643 116.622 56.0555 116.816 56.4468C116.962 56.6913 117.205 56.9358 117.497 56.9847C117.545 57.0825 117.691 56.7891 118.031 56.838Z" fill="#3F3D56"/>
<g opacity="0.1">
<path opacity="0.1" d="M119.004 55.9089C118.906 56.2512 118.663 56.6913 118.323 56.6424C118.226 56.6424 118.129 56.5935 117.983 56.5446C117.691 56.4957 117.497 56.7403 117.205 56.6914C116.913 56.5935 116.67 56.3979 116.524 56.1534C116.427 56.0067 116.378 55.86 116.378 55.6643C116.33 55.9089 116.378 56.2023 116.524 56.3979C116.67 56.6424 116.913 56.887 117.205 56.9359C117.497 56.9848 117.691 56.7403 117.983 56.7892C118.08 56.8381 118.177 56.8381 118.323 56.887C118.663 56.9359 118.955 56.5446 119.004 56.1534C119.052 55.86 119.101 55.5176 119.052 55.1753C119.101 55.4687 119.052 55.7132 119.004 55.9089Z" fill="black"/>
<path opacity="0.1" d="M117.059 53.7567C117.059 53.5121 117.059 53.2676 116.962 53.072C116.913 52.9253 116.865 52.7786 116.816 52.6318C116.816 52.6807 116.816 52.6807 116.816 52.7296C116.767 52.9742 116.913 53.1698 117.01 53.4143C117.01 53.4632 117.01 53.6099 117.059 53.7567Z" fill="black"/>
<path opacity="0.1" d="M128.046 52.9746C127.998 53.3659 127.657 53.7571 127.609 54.1972C127.609 54.295 127.609 54.344 127.609 54.4418C127.706 53.9038 128.143 53.4637 128.046 52.9746Z" fill="black"/>
<path opacity="0.1" d="M128.095 56.0557C128.095 56.1046 128.046 56.1535 127.998 56.2024C127.9 56.3002 127.706 56.3491 127.56 56.398C127.22 56.5447 126.977 56.9849 126.588 56.936C126.393 56.936 126.199 56.7892 126.15 56.5936C126.15 56.6425 126.15 56.6425 126.15 56.6914C126.15 56.936 126.345 57.1805 126.588 57.2294C126.977 57.2294 127.22 56.7892 127.56 56.6914C127.706 56.6425 127.9 56.6425 127.998 56.4958C128.095 56.3491 128.095 56.2024 128.095 56.0557Z" fill="black"/>
<path opacity="0.1" d="M126.247 55.9089C126.199 55.6644 125.907 55.5177 125.713 55.3221C125.615 55.1753 125.567 55.0286 125.567 54.833C125.567 55.1264 125.567 55.371 125.713 55.5666C125.858 55.7622 126.15 55.86 126.199 56.0556C126.247 56.0556 126.296 55.9578 126.247 55.9089Z" fill="black"/>
<path opacity="0.1" d="M125.615 54.3926C125.615 54.0503 125.567 53.6591 125.226 53.5612C125.129 53.5123 125.032 53.5123 124.935 53.4634C124.692 53.3656 124.594 53.0722 124.449 52.8766C124.108 52.4364 123.476 52.4853 122.99 52.681C122.796 52.7788 122.553 52.8766 122.358 52.9744C122.115 53.0722 121.872 53.0233 121.678 52.9255C121.58 52.8766 121.483 52.7788 121.386 52.7299C121.046 52.5342 120.608 52.7299 120.365 52.9744C120.073 53.2189 119.83 53.5612 119.49 53.708C119.344 53.7569 119.15 53.8058 119.052 54.0014C119.004 54.0992 119.004 54.197 119.004 54.2948C119.004 54.3437 119.004 54.3926 119.004 54.4415C119.004 54.3926 119.004 54.3437 119.052 54.2948C119.15 54.1481 119.344 54.0992 119.49 54.0014C119.83 53.8547 120.073 53.5123 120.365 53.2678C120.657 53.0233 121.094 52.8277 121.386 53.0233C121.483 53.0722 121.58 53.17 121.678 53.2189C121.872 53.3167 122.115 53.3656 122.358 53.2678C122.601 53.17 122.796 53.1211 122.99 52.9744C123.476 52.7788 124.108 52.7788 124.449 53.17C124.594 53.3656 124.692 53.6591 124.935 53.7569C125.032 53.8058 125.129 53.8058 125.226 53.8547C125.47 53.9525 125.567 54.2459 125.615 54.4904V54.3926Z" fill="black"/>
</g>
<g opacity="0.1">
<path opacity="0.1" d="M118.518 55.9089C118.518 55.4198 118.858 54.9797 119.344 54.8819C119.976 54.7351 120.657 54.7352 121.289 54.9797C122.65 55.4198 121.094 57.0826 121.094 57.0826C121.094 57.0826 120.073 58.1096 119.101 57.376C118.809 57.1804 118.615 56.8381 118.518 56.4957C118.518 56.3001 118.469 56.1045 118.518 55.9089Z" fill="black"/>
<path opacity="0.1" d="M126.004 55.9089C126.004 55.4198 125.664 54.9797 125.178 54.8819C124.546 54.7351 123.865 54.7352 123.233 54.9797C121.872 55.4198 123.428 57.0826 123.428 57.0826C123.428 57.0826 124.449 58.1096 125.421 57.376C125.713 57.1804 125.907 56.8381 126.004 56.4957C126.004 56.3001 126.004 56.1045 126.004 55.9089Z" fill="black"/>
<path opacity="0.1" d="M120.997 54.833V54.8819H123.525V54.833H120.997Z" fill="black"/>
<path opacity="0.1" d="M121.823 55.5667H121.921V55.3222C121.921 55.3222 122.164 55.1266 122.601 55.3222V55.5178H122.747V55.3711H122.699C122.699 55.3711 122.747 55.0777 122.261 55.1266C122.261 55.1266 121.872 55.0777 121.872 55.3222H121.775L121.823 55.5667Z" fill="black"/>
</g>
<path d="M118.518 55.8112C118.518 55.3222 118.858 54.882 119.344 54.7842C119.976 54.6375 120.657 54.6375 121.289 54.882C122.65 55.3222 121.094 56.9849 121.094 56.9849C121.094 56.9849 120.073 58.0119 119.101 57.2784C118.809 57.0827 118.615 56.7404 118.518 56.3981C118.518 56.2025 118.469 56.0068 118.518 55.8112Z" fill="#2A6AAA"/>
<path d="M126.004 55.8112C126.004 55.3222 125.664 54.882 125.178 54.7842C124.546 54.6375 123.865 54.6375 123.233 54.882C121.872 55.3222 123.428 56.9849 123.428 56.9849C123.428 56.9849 124.449 58.0119 125.421 57.2784C125.713 57.0827 125.907 56.7404 126.004 56.3981C126.004 56.2025 126.004 56.0068 126.004 55.8112Z" fill="#2A6AAA"/>
<path d="M120.997 54.7354V54.7842H123.525V54.7354H120.997Z" fill="#2A6AAA"/>
<path d="M121.823 55.4685H121.921V55.224C121.921 55.224 122.164 55.0284 122.601 55.224V55.4196H122.747V55.3218H122.698C122.698 55.3218 122.747 55.0284 122.261 55.0773C122.261 55.0773 121.872 55.0284 121.872 55.2729H121.775L121.823 55.4685Z" fill="#2A6AAA"/>
<path d="M19.488 78.8452H18.6616V97.3802H19.488V78.8452Z" fill="#535461"/>
<path d="M24.6413 97.3315L24.5927 98.1629L24.5441 99.3366L24.4955 99.8257L24.4468 100.999L24.3982 101.488L24.3496 102.662L23.5232 116.062C23.4259 117.236 22.4536 118.214 21.2868 118.214H16.9601C15.7933 118.214 14.7724 117.285 14.7238 116.062L13.8973 102.662L13.8487 101.488L13.8001 100.999L13.7515 99.8257L13.7028 99.3366L13.6542 98.1629L13.6056 97.3315C13.557 96.6957 14.0432 96.1089 14.7238 96.1089C14.7724 96.1089 14.7724 96.1089 14.821 96.1089H23.5718C24.2038 96.1089 24.7385 96.6468 24.7385 97.2826C24.6413 97.2826 24.6413 97.3315 24.6413 97.3315Z" fill="#3F3D56"/>
<path d="M24.5927 98.1626L24.4955 99.3852H13.6542L13.6056 98.1626H24.5927Z" fill="#EBECED"/>
<path d="M24.4955 99.8745L24.3982 101.048H13.7515L13.7029 99.8745H24.4955Z" fill="#EBECED"/>
<path d="M24.3982 101.537L24.3009 102.711H13.8486L13.8 101.537H24.3982Z" fill="#EBECED"/>
<path d="M12.4874 86.132C17.0572 89.4576 19.0019 94.6904 19.0019 94.6904C19.0019 94.6904 13.4597 94.4948 8.88986 91.1692C4.2714 87.8437 2.3754 82.6108 2.3754 82.6108C2.3754 82.6108 7.86893 82.8065 12.4874 86.132Z" fill="#2A6AAA"/>
<path d="M1.79205 82.1221C1.79205 82.1221 7.77175 85.4476 9.66774 88.1863C11.5637 90.925 19.0505 94.6418 19.0505 94.6418" stroke="#535461" stroke-width="2" stroke-miterlimit="10"/>
<path d="M15.4044 78.8454C17.981 80.7038 19.0991 83.687 19.0991 83.687C19.0991 83.687 15.9878 83.5892 13.3625 81.6819C10.7373 79.7746 9.71637 76.8403 9.71637 76.8403C9.71637 76.8403 12.8278 76.9381 15.4044 78.8454Z" fill="#2A6AAA"/>
<path d="M9.66769 76.8403C9.66769 76.8403 12.9249 78.6498 13.9458 80.1659C15.0154 81.6819 19.0505 83.687 19.0505 83.687" stroke="#535461" stroke-width="2" stroke-miterlimit="10"/>
<path d="M22.5994 83.9313C19.7311 87.1102 19.1477 91.2671 19.1477 91.2671C19.1477 91.2671 23.1828 90.289 26.0511 87.1102C28.9194 83.9313 29.5028 79.7744 29.5028 79.7744C29.5028 79.7744 25.4677 80.7525 22.5994 83.9313Z" fill="#2A6AAA"/>
<path d="M30.0375 79.1875C30.0375 79.1875 26.1483 82.562 25.176 84.9094C24.2037 87.2568 19.2449 91.1204 19.2449 91.1204" stroke="#535461" stroke-width="2" stroke-miterlimit="10"/>
<defs>
<linearGradient id="paint0_linear" x1="75.0124" y1="93.8139" x2="75.0124" y2="15.7414" gradientUnits="userSpaceOnUse">
<stop stop-color="#808080" stop-opacity="0.25"/>
<stop offset="0.54" stop-color="#808080" stop-opacity="0.12"/>
<stop offset="1" stop-color="#808080" stop-opacity="0.1"/>
</linearGradient>
<linearGradient id="paint1_linear" x1="121.975" y1="130.762" x2="121.975" y2="48.7153" gradientUnits="userSpaceOnUse">
<stop stop-color="#808080" stop-opacity="0.25"/>
<stop offset="0.54" stop-color="#808080" stop-opacity="0.12"/>
<stop offset="1" stop-color="#808080" stop-opacity="0.1"/>
</linearGradient>
</defs>
</svg>
