<svg width="210" height="134" viewBox="0 0 210 134" fill="none" xmlns="http://www.w3.org/2000/svg">
<path d="M37.3508 132.834C39.3533 131.142 40.5697 128.469 40.2507 125.867C39.9317 123.264 37.956 120.872 35.3931 120.32C32.8302 119.767 29.9086 121.297 29.1302 123.8C28.7018 118.973 28.2081 113.945 25.6419 109.834C23.3183 106.113 19.2937 103.449 14.9319 102.973C10.5702 102.497 5.97779 104.296 3.25752 107.739C0.53725 111.181 -0.128802 116.186 1.7764 120.138C3.1799 123.05 5.76564 125.217 8.47486 126.98C17.2293 132.628 27.7291 134.925 38.0424 133.448L37.3508 132.834Z" fill="#F2F2F2"/>
<path d="M7.57065 104.396C11.1696 107.327 14.4713 110.606 17.428 114.184C20.3851 117.759 22.9885 121.612 25.2017 125.689C26.4387 127.976 27.55 130.329 28.5305 132.737C28.7304 133.227 27.9349 133.44 27.7372 132.956C26.0005 128.71 23.8517 124.645 21.3219 120.818C18.8044 117.005 15.9229 113.446 12.718 110.189C10.9052 108.349 8.99268 106.609 6.98892 104.978C6.57821 104.643 7.16332 104.064 7.57065 104.396V104.396Z" fill="white"/>
<path d="M156.855 0H48.4035C47.9902 0.000458568 47.5939 0.164836 47.3017 0.45707C47.0094 0.749304 46.8451 1.14553 46.8446 1.55881V75.0455C46.8451 75.4588 47.0094 75.855 47.3017 76.1472C47.5939 76.4395 47.9902 76.6039 48.4035 76.6043H156.855C157.269 76.6039 157.665 76.4395 157.957 76.1472C158.249 75.855 158.414 75.4588 158.414 75.0455V1.55881C158.414 1.14553 158.249 0.749304 157.957 0.45707C157.665 0.164836 157.269 0.000458568 156.855 0V0ZM157.969 75.0455C157.969 75.3408 157.851 75.6239 157.642 75.8327C157.434 76.0415 157.15 76.1588 156.855 76.1589H48.4035C48.1082 76.1588 47.825 76.0415 47.6163 75.8327C47.4075 75.6239 47.2901 75.3408 47.29 75.0455V1.55881C47.2901 1.26354 47.4075 0.980407 47.6163 0.771623C47.825 0.562839 48.1082 0.445492 48.4035 0.445374H156.855C157.15 0.445492 157.434 0.562839 157.642 0.771623C157.851 0.980407 157.969 1.26354 157.969 1.55881V75.0455Z" fill="#3F3D56"/>
<path d="M158.191 6.24414H47.0673V6.68952H158.191V6.24414Z" fill="#3F3D56"/>
<path d="M50.8531 4.67664C51.591 4.67664 52.1892 4.07844 52.1892 3.34052C52.1892 2.6026 51.591 2.00439 50.8531 2.00439C50.1151 2.00439 49.5169 2.6026 49.5169 3.34052C49.5169 4.07844 50.1151 4.67664 50.8531 4.67664Z" fill="#3F3D56"/>
<path d="M54.6946 4.67664C55.4325 4.67664 56.0307 4.07844 56.0307 3.34052C56.0307 2.6026 55.4325 2.00439 54.6946 2.00439C53.9566 2.00439 53.3584 2.6026 53.3584 3.34052C53.3584 4.07844 53.9566 4.67664 54.6946 4.67664Z" fill="#3F3D56"/>
<path d="M58.536 4.67664C59.2739 4.67664 59.8722 4.07844 59.8722 3.34052C59.8722 2.6026 59.2739 2.00439 58.536 2.00439C57.798 2.00439 57.1998 2.6026 57.1998 3.34052C57.1998 4.07844 57.798 4.67664 58.536 4.67664Z" fill="#3F3D56"/>
<path d="M111.982 16.5903H93.2762C92.8628 16.5903 92.4663 16.426 92.1739 16.1337C91.8816 15.8414 91.7173 15.4449 91.7173 15.0315C91.7173 14.618 91.8816 14.2216 92.1739 13.9292C92.4663 13.6369 92.8628 13.4727 93.2762 13.4727H111.982C112.396 13.4727 112.792 13.6369 113.085 13.9292C113.377 14.2216 113.541 14.618 113.541 15.0315C113.541 15.4449 113.377 15.8414 113.085 16.1337C112.792 16.426 112.396 16.5903 111.982 16.5903V16.5903Z" fill="#CCCCCC"/>
<path d="M124.787 24.1616H80.4713C80.0579 24.1616 79.6614 23.9973 79.3691 23.705C79.0767 23.4127 78.9125 23.0162 78.9125 22.6028C78.9125 22.1893 79.0767 21.7928 79.3691 21.5005C79.6614 21.2082 80.0579 21.0439 80.4713 21.0439H124.787C125.201 21.0439 125.597 21.2082 125.89 21.5005C126.182 21.7928 126.346 22.1893 126.346 22.6028C126.346 23.0162 126.182 23.4127 125.89 23.705C125.597 23.9973 125.201 24.1616 124.787 24.1616Z" fill="#CCCCCC"/>
<path d="M138.078 70.6922C136.398 70.6922 134.756 70.1941 133.359 69.2609C131.963 68.3277 130.874 67.0013 130.231 65.4494C129.589 63.8976 129.42 62.1899 129.748 60.5425C130.076 58.895 130.885 57.3818 132.072 56.194C133.26 55.0063 134.773 54.1974 136.421 53.8697C138.068 53.542 139.776 53.7102 141.328 54.353C142.88 54.9958 144.206 56.0844 145.14 57.481C146.073 58.8776 146.571 60.5196 146.571 62.1994C146.568 64.451 145.673 66.6097 144.081 68.2019C142.488 69.794 140.33 70.6896 138.078 70.6922V70.6922ZM138.078 54.2923C136.514 54.2923 134.985 54.756 133.685 55.6248C132.384 56.4937 131.371 57.7286 130.772 59.1734C130.174 60.6183 130.017 62.2081 130.323 63.742C130.628 65.2758 131.381 66.6847 132.487 67.7905C133.592 68.8964 135.001 69.6494 136.535 69.9545C138.069 70.2596 139.659 70.103 141.104 69.5046C142.549 68.9061 143.784 67.8926 144.653 66.5923C145.521 65.292 145.985 63.7632 145.985 62.1994C145.983 60.103 145.149 58.0932 143.667 56.6108C142.184 55.1285 140.174 54.2946 138.078 54.2923V54.2923Z" fill="#3F3D56"/>
<path d="M66.8747 47.9461C65.195 47.9461 63.5529 47.448 62.1562 46.5148C60.7596 45.5816 59.671 44.2552 59.0282 42.7033C58.3853 41.1515 58.2171 39.4438 58.5448 37.7964C58.8726 36.149 59.6814 34.6357 60.8692 33.4479C62.057 32.2602 63.5703 31.4513 65.2178 31.1236C66.8653 30.7959 68.573 30.9641 70.1249 31.6069C71.6768 32.2497 73.0032 33.3383 73.9365 34.7349C74.8697 36.1316 75.3678 37.7736 75.3678 39.4533C75.3653 41.7049 74.4696 43.8636 72.8774 45.4558C71.2852 47.048 69.1265 47.9435 66.8747 47.9461V47.9461ZM66.8747 31.5462C65.3108 31.5462 63.782 32.0099 62.4816 32.8788C61.1813 33.7476 60.1678 34.9825 59.5693 36.4274C58.9708 37.8722 58.8142 39.462 59.1193 40.9959C59.4244 42.5297 60.1775 43.9386 61.2834 45.0444C62.3893 46.1503 63.7982 46.9033 65.3321 47.2084C66.866 47.5135 68.4559 47.357 69.9007 46.7585C71.3456 46.16 72.5806 45.1465 73.4494 43.8462C74.3183 42.5459 74.7821 41.0171 74.7821 39.4533C74.7797 37.3569 73.9458 35.3471 72.4634 33.8647C70.981 32.3824 68.9712 31.5485 66.8747 31.5462V31.5462Z" fill="#3F3D56"/>
<path d="M70.1737 43.9559C69.9513 43.9559 69.738 43.8677 69.5806 43.7106C69.4232 43.5535 69.3347 43.3403 69.3343 43.118V38.3528C69.3346 38.1307 69.4229 37.9177 69.58 37.7606C69.7371 37.6035 69.9501 37.5152 70.1722 37.5149H70.1737C70.3958 37.5152 70.6088 37.6035 70.7659 37.7606C70.923 37.9177 71.0113 38.1307 71.0116 38.3528V43.118C71.0113 43.3401 70.923 43.5531 70.7659 43.7102C70.6088 43.8673 70.3958 43.9556 70.1737 43.9559ZM67.9859 43.9559C67.875 43.957 67.765 43.9362 67.6621 43.8946C67.5593 43.853 67.4657 43.7915 67.3867 43.7137C67.3077 43.6358 67.2449 43.5431 67.2019 43.4409C67.1588 43.3386 67.1364 43.2289 67.136 43.118V40.5511C67.1362 40.329 67.2246 40.116 67.3817 39.9589C67.5387 39.8019 67.7517 39.7135 67.9739 39.7133H67.9859C68.208 39.7135 68.421 39.8019 68.5781 39.9589C68.7352 40.116 68.8235 40.329 68.8238 40.5511V43.118C68.8235 43.3401 68.7352 43.5531 68.5781 43.7102C68.421 43.8673 68.2081 43.9556 67.9859 43.9559V43.9559ZM65.777 43.9559C65.5546 43.9559 65.3413 43.8677 65.1839 43.7106C65.0265 43.5535 64.938 43.3404 64.9376 43.118V35.7896C64.9379 35.5674 65.0262 35.3544 65.1833 35.1974C65.3404 35.0403 65.5534 34.9519 65.7755 34.9517H65.777C65.9991 34.9519 66.2121 35.0403 66.3692 35.1974C66.5263 35.3544 66.6146 35.5674 66.6149 35.7896V43.118C66.6146 43.3401 66.5263 43.5531 66.3692 43.7102C66.2121 43.8673 65.9991 43.9556 65.777 43.9559V43.9559ZM63.5765 43.9559C63.4663 43.956 63.3572 43.9344 63.2554 43.8923C63.1536 43.8502 63.0611 43.7884 62.9832 43.7106C62.9053 43.6327 62.8435 43.5402 62.8014 43.4384C62.7593 43.3366 62.7376 43.2275 62.7377 43.1174L62.7387 42.0167C62.7388 41.7945 62.8271 41.5814 62.9843 41.4243C63.1415 41.2673 63.3547 41.1791 63.5769 41.1792C63.7991 41.1793 64.0122 41.2677 64.1692 41.4249C64.3263 41.582 64.4145 41.7952 64.4144 42.0174V43.118C64.4141 43.3401 64.3258 43.5531 64.1687 43.7102C64.0116 43.8673 63.7986 43.9556 63.5765 43.9559V43.9559Z" fill="#276AB1"/>
<path d="M195.713 133.458C194.033 133.458 192.391 132.96 190.994 132.027C189.597 131.094 188.509 129.767 187.866 128.216C187.223 126.664 187.055 124.956 187.383 123.309C187.71 121.661 188.519 120.148 189.707 118.96C190.895 117.772 192.408 116.964 194.056 116.636C195.703 116.308 197.411 116.476 198.963 117.119C200.515 117.762 201.841 118.85 202.774 120.247C203.708 121.644 204.206 123.286 204.206 124.965C204.203 127.217 203.307 129.376 201.715 130.968C200.123 132.56 197.964 133.456 195.713 133.458ZM195.713 117.058C194.149 117.058 192.62 117.522 191.319 118.391C190.019 119.26 189.006 120.495 188.407 121.94C187.809 123.384 187.652 124.974 187.957 126.508C188.262 128.042 189.015 129.451 190.121 130.557C191.227 131.662 192.636 132.416 194.17 132.721C195.704 133.026 197.294 132.869 198.739 132.271C200.183 131.672 201.418 130.659 202.287 129.358C203.156 128.058 203.62 126.529 203.62 124.965C203.618 122.869 202.784 120.859 201.301 119.377C199.819 117.895 197.809 117.061 195.713 117.058V117.058Z" fill="#3F3D56"/>
<path d="M198.054 123.491L196.398 126.023C196.531 126.185 196.603 126.387 196.603 126.597C196.602 126.838 196.506 127.069 196.335 127.24C196.164 127.41 195.933 127.506 195.692 127.506C195.45 127.506 195.219 127.41 195.048 127.24C194.877 127.069 194.781 126.838 194.781 126.597C194.781 126.538 194.786 126.48 194.796 126.422L193.704 125.785C193.562 125.922 193.381 126.009 193.186 126.034C192.991 126.058 192.794 126.019 192.623 125.922L191.46 127.011V128.097C191.461 128.312 191.546 128.517 191.698 128.669C191.849 128.821 192.055 128.907 192.27 128.908H199.154C199.368 128.907 199.574 128.821 199.726 128.669C199.878 128.518 199.964 128.312 199.965 128.097V124.07L198.853 123.331C198.741 123.417 198.611 123.477 198.472 123.505C198.334 123.533 198.19 123.528 198.054 123.491H198.054Z" fill="#276AB1"/>
<path d="M193.072 124.226C193.314 124.226 193.546 124.322 193.716 124.492C193.887 124.663 193.983 124.895 193.983 125.137V125.137V125.254L195.123 125.892C195.286 125.758 195.49 125.685 195.7 125.686C195.767 125.686 195.833 125.693 195.898 125.707L197.557 123.138C197.474 123.022 197.42 122.887 197.399 122.746C197.378 122.605 197.39 122.46 197.436 122.325C197.481 122.189 197.558 122.066 197.659 121.966C197.761 121.865 197.885 121.79 198.021 121.747C198.157 121.704 198.302 121.693 198.443 121.716C198.584 121.739 198.718 121.795 198.833 121.88C198.948 121.964 199.042 122.075 199.107 122.202C199.171 122.33 199.205 122.471 199.204 122.614C199.204 122.686 199.196 122.758 199.18 122.829L199.965 123.353V121.834C199.964 121.619 199.878 121.413 199.726 121.261C199.574 121.109 199.368 121.023 199.154 121.022H192.27C192.055 121.023 191.849 121.109 191.698 121.261C191.546 121.413 191.461 121.619 191.46 121.834V126.186L192.219 125.458C192.168 125.321 192.152 125.173 192.17 125.028C192.189 124.882 192.242 124.744 192.326 124.624C192.41 124.503 192.522 124.405 192.652 124.337C192.781 124.27 192.926 124.234 193.072 124.234V124.226Z" fill="#276AB1"/>
<path d="M102.966 47.9461C101.286 47.9461 99.6443 47.448 98.2477 46.5148C96.851 45.5816 95.7624 44.2552 95.1196 42.7033C94.4768 41.1515 94.3086 39.4438 94.6363 37.7964C94.964 36.149 95.7729 34.6357 96.9606 33.4479C98.1484 32.2602 99.6618 31.4513 101.309 31.1236C102.957 30.7959 104.664 30.9641 106.216 31.6069C107.768 32.2497 109.095 33.3383 110.028 34.7349C110.961 36.1316 111.459 37.7736 111.459 39.4533C111.457 41.7049 110.561 43.8636 108.969 45.4558C107.377 47.048 105.218 47.9435 102.966 47.9461V47.9461ZM102.966 31.5462C101.402 31.5462 99.8734 32.0099 98.5731 32.8788C97.2727 33.7476 96.2592 34.9825 95.6607 36.4274C95.0622 37.8722 94.9056 39.462 95.2108 40.9959C95.5159 42.5297 96.269 43.9386 97.3748 45.0444C98.4807 46.1503 99.8896 46.9033 101.424 47.2084C102.957 47.5135 104.547 47.357 105.992 46.7585C107.437 46.16 108.672 45.1465 109.541 43.8462C110.41 42.5459 110.874 41.0171 110.874 39.4533C110.871 37.3569 110.037 35.3471 108.555 33.8647C107.072 32.3824 105.063 31.5485 102.966 31.5462V31.5462Z" fill="#3F3D56"/>
<path d="M98.454 42.5322C98.332 42.5322 98.2126 42.496 98.1111 42.4282C98.0096 42.3604 97.9305 42.264 97.8837 42.1513C97.8369 42.0386 97.8246 41.9145 97.8483 41.7948C97.872 41.675 97.9306 41.565 98.0168 41.4786L101.155 38.3317C101.204 38.2825 101.262 38.2434 101.326 38.2168C101.39 38.1902 101.459 38.1766 101.528 38.1768H101.528C101.598 38.1766 101.666 38.1901 101.73 38.2167C101.794 38.2432 101.852 38.2821 101.901 38.3312L103.357 39.7866C103.386 39.8161 103.421 39.8395 103.459 39.8554C103.498 39.8713 103.539 39.8794 103.58 39.8793H103.581C103.622 39.8794 103.663 39.8713 103.702 39.8553C103.74 39.8394 103.775 39.816 103.804 39.7865L105.859 37.7283C105.869 37.7185 105.877 37.7069 105.882 37.694C105.887 37.6812 105.89 37.6675 105.89 37.6537C105.89 37.6398 105.887 37.6261 105.882 37.6133C105.877 37.6005 105.869 37.5889 105.859 37.5791L105.194 36.9154C105.15 36.8712 105.12 36.8148 105.107 36.7534C105.095 36.692 105.101 36.6283 105.125 36.5705C105.149 36.5126 105.19 36.4632 105.242 36.4284C105.294 36.3936 105.355 36.375 105.418 36.375H107.779C107.863 36.3751 107.943 36.4085 108.003 36.4678C108.062 36.5271 108.096 36.6076 108.096 36.6915V39.0513C108.096 39.1139 108.077 39.1751 108.042 39.2271C108.008 39.2792 107.958 39.3198 107.9 39.3437C107.842 39.3677 107.779 39.3739 107.717 39.3617C107.656 39.3495 107.6 39.3194 107.555 39.2751L106.89 38.6093C106.88 38.5995 106.868 38.5917 106.855 38.5864C106.843 38.5811 106.829 38.5784 106.815 38.5784C106.801 38.5784 106.787 38.5811 106.775 38.5864C106.762 38.5917 106.75 38.5995 106.74 38.6093L103.958 41.3898C103.909 41.4389 103.851 41.4778 103.787 41.5043C103.723 41.5308 103.654 41.5444 103.585 41.5442H103.585C103.516 41.5444 103.447 41.5308 103.383 41.5043C103.319 41.4778 103.261 41.4388 103.212 41.3897L101.756 39.9336C101.696 39.8761 101.615 39.844 101.532 39.844C101.449 39.844 101.369 39.8761 101.308 39.9336L98.8907 42.3512C98.8335 42.4088 98.7654 42.4544 98.6905 42.4855C98.6155 42.5165 98.5352 42.5324 98.454 42.5322V42.5322Z" fill="#276AB1"/>
<path d="M102.966 70.2151C101.286 70.2151 99.6443 69.717 98.2477 68.7838C96.851 67.8506 95.7624 66.5242 95.1196 64.9724C94.4768 63.4205 94.3086 61.7129 94.6363 60.0654C94.964 58.418 95.7729 56.9047 96.9606 55.717C98.1484 54.5292 99.6618 53.7204 101.309 53.3927C102.957 53.065 104.664 53.2332 106.216 53.876C107.768 54.5188 109.095 55.6073 110.028 57.004C110.961 58.4006 111.459 60.0426 111.459 61.7223C111.457 63.974 110.561 66.1327 108.969 67.7248C107.377 69.317 105.218 70.2126 102.966 70.2151V70.2151Z" fill="#E6E6E6"/>
<path d="M138.152 47.2781C136.472 47.2781 134.83 46.78 133.433 45.8468C132.037 44.9136 130.948 43.5872 130.305 42.0354C129.662 40.4835 129.494 38.7759 129.822 37.1284C130.15 35.481 130.958 33.9677 132.146 32.78C133.334 31.5922 134.847 30.7834 136.495 30.4557C138.142 30.128 139.85 30.2962 141.402 30.939C142.954 31.5818 144.28 32.6703 145.213 34.0669C146.147 35.4636 146.645 37.1056 146.645 38.7853C146.642 41.037 145.747 43.1957 144.154 44.7878C142.562 46.38 140.403 47.2756 138.152 47.2781V47.2781Z" fill="#E6E6E6"/>
<path d="M66.875 53.2295C65.4171 53.2314 63.9841 53.607 62.7128 54.3207C64.55 54.483 66.2727 55.2823 67.5829 56.5802C68.8932 57.8781 69.7086 59.5931 69.8883 61.4286C70.0679 63.2641 69.6005 65.1047 68.5668 66.632C67.533 68.1594 65.998 69.2775 64.2272 69.7929C64.5589 69.9029 64.8974 69.9914 65.2404 70.0579C65.7788 70.1638 66.3263 70.2168 66.875 70.216C69.1276 70.216 71.2879 69.3212 72.8808 67.7284C74.4736 66.1356 75.3685 63.9753 75.3685 61.7228C75.3685 59.4702 74.4736 57.3099 72.8808 55.7171C71.2879 54.1243 69.1276 53.2295 66.875 53.2295V53.2295Z" fill="#E6E6E6"/>
<path d="M63.6526 53.8664C63.1144 53.7586 62.5668 53.7049 62.0179 53.7061C59.8341 53.7038 57.7332 54.5419 56.1505 56.0466C54.5679 57.5513 53.6249 59.6073 53.5171 61.7883C53.4092 63.9694 54.1448 66.1084 55.5713 67.7619C56.9977 69.4153 59.0057 70.4566 61.1791 70.6698C63.3525 70.8829 65.5246 70.2517 67.2451 68.9069C68.9657 67.5621 70.1029 65.6068 70.4209 63.4464C70.7389 61.2859 70.2134 59.0859 68.9533 57.3024C67.6932 55.5188 65.7952 54.2885 63.6526 53.8664V53.8664ZM64.2271 69.793C63.1394 70.1094 61.9965 70.1884 60.8756 70.0247C59.7547 69.861 58.6821 69.4585 57.7303 68.8443C56.7785 68.2301 55.9698 67.4186 55.3589 66.4647C54.7479 65.5108 54.3491 64.4368 54.1892 63.3154C54.0294 62.194 54.1124 61.0514 54.4325 59.9648C54.7526 58.8783 55.3025 57.8732 56.0448 57.0176C56.7871 56.1619 57.7046 55.4758 58.7351 55.0055C59.7656 54.5352 60.8852 54.2918 62.0179 54.2917C62.2518 54.2917 62.4834 54.3029 62.7127 54.3207C64.5499 54.483 66.2726 55.2823 67.5828 56.5802C68.8931 57.8782 69.7086 59.5932 69.8882 61.4287C70.0679 63.2642 69.6004 65.1047 68.5667 66.6321C67.5329 68.1594 65.9979 69.2775 64.2271 69.793V69.793Z" fill="#3F3D56"/>
<path d="M66.9631 60.7041C66.6824 59.4737 65.9249 58.4049 64.8569 57.7325C63.7889 57.0601 62.4977 56.8389 61.2668 57.1176C61.1465 57.145 61.0221 57.1788 60.9124 57.2125L62.0474 62.1998L67.0349 61.0669C67.0138 60.9509 66.9906 60.8243 66.9631 60.7041Z" fill="#276AB1"/>
<path d="M66.48 61.9423L61.4904 63.0752L60.3575 58.0879C59.4875 58.357 58.713 58.87 58.1257 59.5659C57.5385 60.2619 57.1631 61.1116 57.0441 62.0144C56.9251 62.9172 57.0674 63.8352 57.4543 64.6596C57.8412 65.4839 58.4563 66.1801 59.2268 66.6654C59.9973 67.1508 60.8908 67.4051 61.8014 67.3981C62.712 67.3912 63.6015 67.1233 64.3645 66.6261C65.1275 66.129 65.7319 65.4236 66.1061 64.5934C66.4803 63.7632 66.6086 62.8432 66.4758 61.9423H66.48Z" fill="#276AB1"/>
<path d="M154.156 101.868C152.477 101.868 150.835 101.37 149.438 100.437C148.041 99.5039 146.953 98.1775 146.31 96.6257C145.667 95.0738 145.499 93.3662 145.827 91.7188C146.154 90.0713 146.963 88.558 148.151 87.3703C149.339 86.1826 150.852 85.3737 152.5 85.046C154.147 84.7183 155.855 84.8865 157.407 85.5293C158.959 86.1721 160.285 87.2606 161.218 88.6573C162.151 90.0539 162.65 91.6959 162.65 93.3756C162.647 95.6273 161.751 97.786 160.159 99.3781C158.567 100.97 156.408 101.866 154.156 101.868V101.868ZM154.156 85.4685C152.593 85.4685 151.064 85.9323 149.763 86.8011C148.463 87.67 147.45 88.9049 146.851 90.3497C146.253 91.7945 146.096 93.3844 146.401 94.9182C146.706 96.4521 147.459 97.861 148.565 98.9668C149.671 100.073 151.08 100.826 152.614 101.131C154.148 101.436 155.738 101.279 157.182 100.681C158.627 100.082 159.862 99.0689 160.731 97.7686C161.6 96.4683 162.064 94.9395 162.064 93.3756C162.061 91.2793 161.228 89.2694 159.745 87.7871C158.263 86.3047 156.253 85.4709 154.156 85.4685V85.4685Z" fill="#3F3D56"/>
<path d="M157.821 96.7786C157.51 96.7788 157.206 96.6868 156.948 96.5143C156.689 96.3418 156.488 96.0964 156.369 95.8093C156.249 95.5222 156.218 95.2062 156.278 94.9013C156.339 94.5964 156.488 94.3162 156.708 94.0962C156.928 93.8763 157.208 93.7264 157.513 93.6656C157.817 93.6047 158.133 93.6356 158.421 93.7544C158.708 93.8732 158.954 94.0744 159.127 94.3328C159.299 94.5911 159.392 94.895 159.392 95.2058C159.392 95.6226 159.227 96.0224 158.932 96.3173C158.638 96.6122 158.238 96.7781 157.821 96.7786ZM154.157 96.7786C153.74 96.7781 153.341 96.6125 153.047 96.318C152.752 96.0236 152.586 95.6244 152.586 95.208V91.5434C152.586 91.1272 152.752 90.7281 153.047 90.434C153.341 90.1398 153.74 89.9746 154.157 89.9746C154.573 89.9746 154.972 90.1398 155.267 90.434C155.561 90.7281 155.727 91.1272 155.727 91.5434V95.208C155.727 95.6244 155.561 96.0236 155.267 96.3181C154.972 96.6125 154.573 96.7781 154.157 96.7786V96.7786ZM150.493 96.7786C150.076 96.7781 149.677 96.6124 149.382 96.3177C149.087 96.023 148.922 95.6235 148.921 95.2068V93.7427C148.921 93.3259 149.087 92.9261 149.382 92.6313C149.676 92.3366 150.076 92.171 150.493 92.171C150.91 92.171 151.31 92.3366 151.604 92.6313C151.899 92.9261 152.065 93.3259 152.065 93.7427V95.2068C152.064 95.6235 151.899 96.023 151.604 96.3177C151.309 96.6124 150.91 96.7781 150.493 96.7786V96.7786Z" fill="#276AB1"/>
<path d="M46.4606 131.478L49.0494 131.185L49.1483 121.06L45.3275 121.494L46.4606 131.478Z" fill="#A0616A"/>
<path d="M54.3146 133.021L46.1787 133.945L45.822 130.801L50.8145 130.235C51.6481 130.14 52.4853 130.381 53.1417 130.903C53.7981 131.426 54.22 132.188 54.3146 133.021V133.021L54.3146 133.021Z" fill="#2F2E41"/>
<path d="M19.8377 131.317L22.443 131.316L23.6822 121.268L19.8372 121.268L19.8377 131.317Z" fill="#A0616A"/>
<path d="M27.4676 133.735L19.2795 133.736L19.2793 130.572L24.3039 130.572C25.1429 130.572 25.9476 130.905 26.5409 131.498C27.1342 132.092 27.4676 132.896 27.4676 133.735V133.735L27.4676 133.735Z" fill="#2F2E41"/>
<path d="M38.5301 86.379L40.0177 91.2175L48.093 108.692L50.2181 125.267L45.3304 125.479L42.3553 110.179L32.1549 99.1291L23.2295 128.029L19.1919 127.604C19.1919 127.604 22.592 90.204 27.2672 86.379C27.2672 86.379 34.9175 82.7665 38.5301 86.379Z" fill="#2F2E41"/>
<path d="M31.9315 65.5015C34.8141 65.5015 37.1509 63.1648 37.1509 60.2823C37.1509 57.3997 34.8141 55.063 31.9315 55.063C29.0489 55.063 26.712 57.3997 26.712 60.2823C26.712 63.1648 29.0489 65.5015 31.9315 65.5015Z" fill="#A0616A"/>
<path d="M39.0614 87.3351C39.0614 87.3351 39.6989 65.6599 30.7736 67.1474C21.8482 68.6349 25.5671 89.5664 25.5671 89.5664C25.5671 89.5664 27.4797 93.3915 32.1549 89.1414C36.8301 84.8914 39.0614 87.3351 39.0614 87.3351Z" fill="#276AB1"/>
<path d="M57.5392 69.2939C57.3716 69.5575 57.1483 69.7813 56.8849 69.9493C56.6215 70.1173 56.3245 70.2255 56.0148 70.2664C55.7051 70.3072 55.3902 70.2796 55.0922 70.1855C54.7943 70.0915 54.5207 69.9333 54.2905 69.722L47.6051 73.3237L47.9551 69.3932L54.2501 66.5756C54.6306 66.2125 55.1311 66.0016 55.6567 65.9828C56.1824 65.9641 56.6966 66.1388 57.102 66.4739C57.5075 66.8089 57.7759 67.2811 57.8564 67.8008C57.937 68.3206 57.8241 68.8518 57.5391 69.2939L57.5392 69.2939Z" fill="#A0616A"/>
<path d="M31.8817 69.7941L42.7337 71.6284L52.4588 67.0376L53.9353 70.1947L43.2891 76.9755C43.2891 76.9755 32.0181 77.7408 29.4123 74.7686C28.4351 73.654 28.3234 72.6395 28.5655 71.8068C28.7775 71.1245 29.2317 70.5433 29.8425 70.1726C30.4533 69.8019 31.1785 69.6673 31.8817 69.7941V69.7941Z" fill="#276AB1"/>
<path d="M31.3108 65.7667C31.3358 65.7444 31.3551 65.7165 31.3674 65.6854C31.3797 65.6542 31.3846 65.6207 31.3816 65.5873C31.3787 65.554 31.368 65.5218 31.3504 65.4933C31.3328 65.4648 31.3089 65.4408 31.2804 65.4232C30.8169 65.1361 30.4393 64.7296 30.1872 64.2462C29.9351 63.7628 29.8179 63.2205 29.8478 62.6761C29.8777 62.1318 30.0537 61.6056 30.3572 61.1527C30.6608 60.6999 31.0807 60.3372 31.5728 60.1027C33.1074 59.371 35.1868 59.9402 36.3211 58.5343C36.5518 58.2335 36.715 57.8865 36.7994 57.517C36.8839 57.1474 36.8876 56.764 36.8105 56.3929C36.5657 55.065 35.5674 54.0789 34.4495 53.4031C33.0761 52.5729 31.4977 52.1439 29.893 52.1648C28.2884 52.1857 26.7216 52.6555 25.3703 53.5212C24.0191 54.3868 22.9372 55.6136 22.2474 57.0625C21.5576 58.5114 21.2875 60.1246 21.4675 61.7192C21.6118 62.9972 22.0062 64.4303 21.2462 65.4679C20.5774 66.3811 19.3149 66.5523 18.2059 66.7792C15.8273 67.2659 13.5325 68.3887 11.9183 70.2023C10.3042 72.0158 9.44304 74.5603 9.92972 76.9389C10.4164 79.3174 12.3689 81.4078 14.7687 81.7765C16.722 82.0766 18.7389 81.2471 20.1733 79.8877C21.6077 78.5284 22.5144 76.6927 23.0862 74.8011C23.765 72.5559 24.0328 70.1366 25.2583 68.1366C26.4575 66.1796 29.0417 64.7766 31.0671 65.7959C31.106 65.8162 31.15 65.8242 31.1935 65.819C31.237 65.8138 31.2779 65.7956 31.3108 65.7667V65.7667Z" fill="#2F2E41"/>
<path d="M182.566 104.399C182.849 104.259 183.097 104.058 183.293 103.811C183.49 103.564 183.63 103.277 183.703 102.97C183.777 102.664 183.782 102.344 183.719 102.035C183.656 101.726 183.526 101.435 183.338 101.181L188.367 73.3509L183.674 73.2891L180.182 100.81C179.777 101.154 179.512 101.634 179.438 102.16C179.364 102.686 179.486 103.221 179.779 103.663C180.073 104.106 180.519 104.425 181.033 104.561C181.547 104.696 182.092 104.639 182.566 104.399H182.566Z" fill="#FFB8B8"/>
<path d="M168.001 103.08L166.22 111.542L166.442 130.47H169.783L171.342 111.987L173.791 104.193L168.001 103.08Z" fill="#FFB8B8"/>
<path d="M179.041 103.715L177.26 112.177L177.482 131.105H180.823L182.382 112.622L184.831 104.828L179.041 103.715Z" fill="#FFB8B8"/>
<path d="M165.276 130.255L170.541 130.242L170.549 133.557L161.969 133.579C161.968 133.143 162.052 132.712 162.218 132.31C162.384 131.907 162.627 131.541 162.934 131.232C163.241 130.924 163.606 130.678 164.008 130.511C164.41 130.343 164.84 130.256 165.276 130.255V130.255Z" fill="#2F2E41"/>
<path d="M176.398 130.613L181.663 130.6L181.671 133.915L173.091 133.937C173.09 133.501 173.175 133.07 173.34 132.667C173.506 132.265 173.749 131.899 174.056 131.59C174.363 131.282 174.728 131.036 175.13 130.869C175.532 130.701 175.962 130.614 176.398 130.613V130.613Z" fill="#2F2E41"/>
<path d="M176.13 61.5804C179.151 61.5804 181.599 59.1317 181.599 56.111C181.599 53.0903 179.151 50.6416 176.13 50.6416C173.109 50.6416 170.66 53.0903 170.66 56.111C170.66 59.1317 173.109 61.5804 176.13 61.5804Z" fill="#FFB8B8"/>
<path d="M188.217 69.639C186.553 67.0279 181.328 60.8354 173.553 64.3899C172.941 64.6732 172.43 65.1372 172.089 65.7196C171.748 66.302 171.593 66.9748 171.645 67.6477C172.022 72.6134 172.496 85.2652 168.447 92.836C168.447 92.836 180.25 96.399 186.708 93.0587C186.708 93.0587 184.481 78.1386 186.708 75.2437C187.45 74.3186 188.052 73.2885 188.492 72.187C188.647 71.7701 188.702 71.3228 188.655 70.8806C188.607 70.4385 188.457 70.0134 188.217 69.639V69.639Z" fill="#3F3D56"/>
<path d="M186.04 69.4541L188.225 70.3647C188.37 70.4253 188.496 70.5262 188.586 70.6555C188.676 70.7848 188.727 70.9371 188.734 71.0945L188.935 75.912L184.035 75.4667L186.04 69.4541Z" fill="#3F3D56"/>
<path d="M169.337 92.3906C169.337 92.3906 164.438 101.521 165.329 109.983L172.232 111.096L177.132 99.2939L176.018 111.319L183.144 111.542C183.144 111.542 187.821 94.1721 186.262 92.6133L169.337 92.3906Z" fill="#2F2E41"/>
<path d="M162.379 93.206C162.691 93.1583 162.989 93.0428 163.251 92.8676C163.514 92.6925 163.734 92.4619 163.898 92.1922C164.062 91.9225 164.164 91.6201 164.198 91.3065C164.233 90.9929 164.198 90.6756 164.096 90.3769L174.034 71.6422L169.584 70.1519L161.203 89.0603C160.713 89.2644 160.315 89.6414 160.084 90.1197C159.853 90.598 159.805 91.1444 159.95 91.6554C160.095 92.1664 160.422 92.6065 160.87 92.8923C161.318 93.1781 161.855 93.2897 162.379 93.206H162.379Z" fill="#FFB8B8"/>
<path d="M175.391 66.5701L173.55 65.7467C173.55 65.7467 171.99 64.7791 170.606 66.9081C169.223 69.0372 167.728 73.7028 167.728 73.7028L173.734 75.3927L175.391 66.5701Z" fill="#3F3D56"/>
<path d="M177.006 58.7444C177.202 58.0625 177.146 57.1399 176.485 56.882C176.14 56.7476 175.756 56.8536 175.388 56.8913C174.668 56.9619 173.948 56.7637 173.366 56.3347C172.682 55.8264 172.26 55.0494 171.859 54.2977L171.252 53.1607C171.117 52.9237 171.002 52.6759 170.908 52.4199C170.57 51.4161 170.937 50.2541 171.687 49.5068C172.471 48.7774 173.503 48.3729 174.574 48.375C175.636 48.3826 176.686 48.6075 177.658 49.0358C179.387 49.7403 180.952 50.7919 182.258 52.1256C183.111 52.9985 183.888 54.1358 183.71 55.3434C183.571 56.2835 182.886 57.0362 182.232 57.7261L179.862 60.2284C179.442 60.6715 178.993 61.1328 178.407 61.3031C177.821 61.4735 177.066 61.2232 176.906 60.6341C176.906 60.6341 176.809 59.4262 177.006 58.7444Z" fill="#2F2E41"/>
<path d="M209.777 134H0.222694C0.163632 134 0.106988 133.977 0.0652253 133.935C0.0234621 133.893 0 133.836 0 133.777C0 133.718 0.0234621 133.662 0.0652253 133.62C0.106988 133.578 0.163632 133.555 0.222694 133.555H209.777C209.836 133.555 209.893 133.578 209.935 133.62C209.977 133.662 210 133.718 210 133.777C210 133.836 209.977 133.893 209.935 133.935C209.893 133.977 209.836 134 209.777 134Z" fill="#3F3D56"/>
<path d="M141.196 65.7624H134.96C134.783 65.7624 134.613 65.692 134.488 65.5667C134.362 65.4414 134.292 65.2715 134.292 65.0943C134.292 64.9171 134.362 64.7472 134.488 64.6219C134.613 64.4967 134.783 64.4263 134.96 64.4263H141.196C141.373 64.4263 141.543 64.4967 141.668 64.6219C141.793 64.7472 141.864 64.9171 141.864 65.0943C141.864 65.2715 141.793 65.4414 141.668 65.5667C141.543 65.692 141.373 65.7624 141.196 65.7624V65.7624Z" fill="#276AB1"/>
<path d="M141.196 62.8674H134.96C134.783 62.8674 134.613 62.797 134.488 62.6717C134.362 62.5464 134.292 62.3765 134.292 62.1993C134.292 62.0221 134.362 61.8522 134.488 61.7269C134.613 61.6016 134.783 61.5312 134.96 61.5312H141.196C141.373 61.5312 141.543 61.6016 141.668 61.7269C141.793 61.8522 141.864 62.0221 141.864 62.1993C141.864 62.3765 141.793 62.5464 141.668 62.6717C141.543 62.797 141.373 62.8674 141.196 62.8674V62.8674Z" fill="#276AB1"/>
<path d="M141.196 59.9724H134.96C134.783 59.9724 134.613 59.902 134.488 59.7767C134.362 59.6514 134.292 59.4815 134.292 59.3043C134.292 59.1271 134.362 58.9572 134.488 58.8319C134.613 58.7066 134.783 58.6362 134.96 58.6362H141.196C141.373 58.6362 141.543 58.7066 141.668 58.8319C141.793 58.9572 141.864 59.1271 141.864 59.3043C141.864 59.4815 141.793 59.6514 141.668 59.7767C141.543 59.902 141.373 59.9724 141.196 59.9724V59.9724Z" fill="#276AB1"/>
</svg>
