<svg width="222" height="188" viewBox="0 0 222 188" fill="none" xmlns="http://www.w3.org/2000/svg">
<path d="M53.0122 47.2766C43.5907 57.7125 53.3807 70.1948 59.4534 75.1314C78.2484 89.0097 74.7658 116.272 70.6751 128.168C67.7326 133.106 63.335 145.154 69.2848 153.837C75.2346 162.52 102.856 170.039 115.923 172.714C131.101 176.307 160.776 180.086 158.045 166.463C155.314 152.84 169.517 144.122 176.959 141.465C190.814 133.998 215.699 113.177 204.402 89.6354C190.279 60.2085 218.12 49.5768 201.949 32.853C194.785 25.4432 159.857 18.703 148.117 26.2087C136.369 33.7189 128.201 29.1311 123.34 27.2614C118.486 25.3943 104.27 23.3581 98.6213 28.0342C94.3935 31.5341 88.7774 39.725 84.4249 39.4173C80.943 39.1712 79.1849 38.0532 73.8302 37.2488C70.6103 36.7651 62.4336 36.8408 53.0122 47.2766Z" fill="#EFECFA"/>
<path d="M191.174 0.00101188H131.421C128.537 0.00087066 125.739 0.981805 123.487 2.78256C121.235 4.58332 119.663 7.09672 119.029 9.90961L88.8371 143.829C88.5077 145.29 88.5019 146.805 88.8201 148.268C89.1382 149.731 89.7725 151.107 90.6786 152.299C91.5847 153.491 92.7406 154.471 94.0653 155.169C95.3899 155.867 96.8513 156.267 98.3468 156.341L159.774 159.367C163.063 159.529 166.299 158.489 168.878 156.441C171.456 154.392 173.201 151.476 173.788 148.235L190.915 53.5526L192.189 53.9167L195.468 35.9707L194.156 35.6429L198.937 9.21353C199.142 8.08147 199.094 6.91815 198.798 5.80652C198.502 4.69489 197.964 3.66231 197.223 2.78241C196.481 1.90251 195.555 1.19697 194.51 0.716065C193.465 0.235164 192.327 -0.00924329 191.176 0.000267281L191.174 0.00101188Z" fill="#3F3D56"/>
<path d="M139.286 2.88787H132.312C130.309 2.88789 128.366 3.57294 126.806 4.82931C125.246 6.08569 124.163 7.83781 123.736 9.79483L94.7548 142.622C94.5878 143.386 94.5879 144.178 94.7551 144.943C94.9223 145.708 95.2525 146.427 95.7233 147.053C96.1941 147.678 96.7944 148.194 97.4831 148.566C98.1718 148.939 98.9327 149.158 99.7138 149.209L160.941 153.222C162.669 153.335 164.377 152.808 165.741 151.742C167.105 150.676 168.028 149.145 168.335 147.441L193.064 10.1517C193.224 9.2631 193.187 8.35022 192.956 7.47747C192.725 6.60471 192.305 5.79335 191.726 5.10063C191.147 4.40792 190.423 3.85073 189.605 3.46839C188.787 3.08606 187.895 2.88789 186.992 2.88787H180.375C179.735 2.88785 179.112 3.09895 178.604 3.48849C178.096 3.87803 177.73 4.42428 177.564 5.04268V5.04268C177.417 5.5888 177.094 6.0712 176.645 6.41514C176.196 6.75909 175.646 6.94539 175.08 6.94518H143.669C142.562 6.94514 141.495 6.52727 140.683 5.77507C139.87 5.02288 139.372 3.99178 139.286 2.88787V2.88787Z" fill="white"/>
<path d="M168.445 114.05C168.564 114.054 168.68 114.015 168.773 113.94C168.866 113.866 168.929 113.76 168.95 113.643L182.49 38.9145C182.503 38.8435 182.501 38.7705 182.483 38.7006C182.465 38.6306 182.432 38.5654 182.387 38.5092C182.342 38.4535 182.285 38.4085 182.221 38.3772C182.156 38.3459 182.086 38.3292 182.014 38.3282L120.412 37.6006H120.406C120.295 37.6015 120.186 37.6404 120.1 37.7109C120.013 37.7814 119.952 37.8792 119.928 37.9885L103.966 110.291C103.951 110.362 103.951 110.435 103.966 110.506C103.981 110.576 104.011 110.643 104.055 110.701C104.098 110.758 104.153 110.805 104.216 110.839C104.279 110.873 104.349 110.892 104.421 110.896L168.445 114.05Z" fill="#E6E6E6"/>
<path d="M84.8757 156.581C84.8757 158.66 65.852 158.881 42.4379 160.344C19.0446 161.806 0 158.66 0 156.581C0 154.503 19.1335 150.322 42.4379 152.818C65.852 155.327 84.8757 154.503 84.8757 156.581Z" fill="#E6E6E6"/>
<path d="M34.67 115.603C34.9918 115.382 35.2613 115.094 35.4596 114.758C35.6579 114.422 35.78 114.046 35.8175 113.658C35.8549 113.27 35.8068 112.878 35.6764 112.51C35.546 112.143 35.3366 111.808 35.0628 111.53L36.0976 88.4304L30.8292 89.0216L31.1354 111.616C30.6985 112.107 30.4568 112.741 30.4561 113.398C30.4554 114.054 30.6957 114.689 31.1316 115.18C31.5675 115.672 32.1685 115.986 32.8207 116.064C33.473 116.141 34.1311 115.977 34.6702 115.602L34.67 115.603Z" fill="#A0616A"/>
<path d="M44.2812 154.706L47.2799 155.233L50.2435 143.918L46.3146 143.14L44.2812 154.706Z" fill="#A0616A"/>
<path d="M52.5743 159.033L43.1502 157.377L43.7903 153.736L49.5732 154.752C50.5389 154.922 51.3976 155.469 51.9604 156.272C52.5232 157.074 52.744 158.068 52.5742 159.034L52.5743 159.033Z" fill="#2F2E41"/>
<path d="M36.051 156.207H39.0956L40.5439 144.463H36.0505L36.051 156.207Z" fill="#A0616A"/>
<path d="M44.9661 159.034L35.3974 159.034L35.3972 155.337L41.2689 155.337C42.2494 155.337 43.1898 155.727 43.8831 156.42C44.5765 157.113 44.966 158.053 44.9661 159.034V159.034Z" fill="#2F2E41"/>
<path d="M48.753 151.997C48.7056 151.997 48.6581 151.994 48.611 151.989L45.0275 151.694C44.8644 151.675 44.7068 151.623 44.5644 151.541C44.4221 151.459 44.2978 151.349 44.1993 151.217C44.1007 151.086 44.0299 150.936 43.9912 150.776C43.9524 150.616 43.9465 150.451 43.9738 150.289L47.5312 132.736L45.2962 120.947C45.278 120.851 45.2257 120.765 45.1491 120.704C45.0725 120.644 44.9766 120.614 44.8792 120.618C44.7818 120.623 44.6895 120.663 44.6192 120.731C44.5489 120.798 44.5054 120.889 44.4968 120.986L41.2036 150.942C41.1729 151.258 41.0208 151.549 40.7794 151.755C40.538 151.96 40.2262 152.064 39.9098 152.044L36.5337 151.918C36.2378 151.898 35.9599 151.769 35.7524 151.557C35.5449 151.345 35.4221 151.065 35.4072 150.768L35.6769 114.569L53.1799 112.381L54.4027 131.265L54.3977 131.285L49.9299 151.071C49.8656 151.335 49.7147 151.57 49.5014 151.737C49.288 151.905 49.0245 151.997 48.753 151.997V151.997Z" fill="#2F2E41"/>
<path d="M41.449 73.4625C44.8176 73.4625 47.5484 70.7317 47.5484 67.3631C47.5484 63.9945 44.8176 61.2637 41.449 61.2637C38.0804 61.2637 35.3496 63.9945 35.3496 67.3631C35.3496 70.7317 38.0804 73.4625 41.449 73.4625Z" fill="#A0616A"/>
<path d="M47.1959 117.324C46.2419 117.329 45.3063 117.062 44.4997 116.552C41.5445 114.706 38.1892 115.44 36.4519 116.042C36.2795 116.102 36.0956 116.123 35.9141 116.102C35.7326 116.081 35.5581 116.02 35.4037 115.922C35.251 115.826 35.1221 115.697 35.0264 115.544C34.9308 115.392 34.8709 115.219 34.8514 115.04L31.6923 86.8229C31.1628 82.095 34.0107 77.6501 38.4639 76.2537C38.6313 76.2012 38.8014 76.1515 38.9742 76.1047C40.36 75.729 41.8113 75.6615 43.2259 75.9071C44.6406 76.1526 45.9842 76.7052 47.1624 77.5259C48.3624 78.3556 49.3661 79.4383 50.1026 80.6977C50.8392 81.9571 51.2908 83.3626 51.4255 84.8153L54.0855 113.222C54.1036 113.406 54.0788 113.591 54.013 113.764C53.9472 113.937 53.8422 114.092 53.7063 114.217C52.7735 115.079 50.0671 117.323 47.1959 117.324Z" fill="#286AAC"/>
<path d="M37.5754 92.8739L30.4482 92.0901C30.2454 92.0678 30.0497 92.0021 29.8746 91.8973C29.6995 91.7926 29.549 91.6514 29.4334 91.4832C29.3178 91.3151 29.2398 91.124 29.2047 90.923C29.1697 90.722 29.1783 90.5158 29.2301 90.3185L31.0444 83.4033C31.0979 82.885 31.2535 82.3824 31.5024 81.9246C31.7512 81.4668 32.0883 81.0629 32.4942 80.7361C32.9001 80.4094 33.3667 80.1663 33.867 80.021C34.3674 79.8757 34.8916 79.8309 35.4094 79.8894C35.9272 79.9478 36.4282 80.1083 36.8836 80.3616C37.339 80.6148 37.7396 80.9558 38.0624 81.3649C38.3852 81.7739 38.6238 82.2428 38.7642 82.7446C38.9047 83.2463 38.9444 83.771 38.8809 84.2881L39.1504 91.4092C39.1581 91.6131 39.1218 91.8163 39.0438 92.0049C38.9659 92.1935 38.8483 92.3631 38.6989 92.5022C38.5496 92.6412 38.372 92.7465 38.1783 92.8107C37.9845 92.8749 37.7793 92.8966 37.5764 92.8744L37.5754 92.8739Z" fill="#286AAC"/>
<path d="M54.0563 114.614C54.3491 114.356 54.5818 114.037 54.738 113.68C54.8943 113.323 54.9703 112.935 54.9607 112.545C54.9511 112.155 54.8561 111.772 54.6824 111.423C54.5087 111.074 54.2606 110.767 53.9555 110.524L52.199 87.4681L47.0364 88.6303L50.0661 111.083C49.6914 111.623 49.5278 112.281 49.6063 112.933C49.6847 113.585 49.9998 114.186 50.4917 114.622C50.9836 115.057 51.6181 115.296 52.275 115.295C52.9319 115.294 53.5654 115.051 54.0553 114.614H54.0563Z" fill="#A0616A"/>
<path d="M45.0575 91.4245C44.9081 91.2856 44.7904 91.1161 44.7125 90.9275C44.6345 90.7389 44.5982 90.5357 44.606 90.3319L44.8755 83.2108C44.8174 82.6963 44.8612 82.1753 45.0044 81.6777C45.1476 81.1801 45.3875 80.7156 45.7102 80.3106C46.033 79.9057 46.4324 79.5683 46.8855 79.3177C47.3387 79.0672 47.8367 78.9083 48.3513 78.8502C48.8658 78.7921 49.3868 78.8359 49.8844 78.9791C50.382 79.1224 50.8466 79.3622 51.2515 79.685C51.6564 80.0077 51.9938 80.4071 52.2444 80.8602C52.495 81.3134 52.6538 81.8115 52.7119 82.326L54.5263 89.2412C54.5781 89.4385 54.5867 89.6447 54.5516 89.8457C54.5165 90.0467 54.4385 90.2378 54.3229 90.4059C54.2073 90.5741 54.0569 90.7153 53.8817 90.82C53.7066 90.9247 53.511 90.9905 53.3082 91.0128L46.181 91.7965C45.9781 91.8189 45.7728 91.7972 45.579 91.7329C45.3853 91.6686 45.2078 91.5632 45.0585 91.424L45.0575 91.4245Z" fill="#286AAC"/>
<path d="M41.0861 73.6922C40.9774 73.6922 40.8691 73.6796 40.7633 73.6547L40.7323 73.6472C35.3697 72.8277 34.1844 69.7205 33.9244 68.4235C33.6552 67.0805 33.9616 65.7842 34.6545 65.2806C34.2768 64.0885 34.3374 63.0304 34.835 62.1361C35.7042 60.5766 37.5868 60.0501 37.8399 59.9845C39.3443 58.8747 41.1442 59.6155 41.4718 59.7658C44.382 58.6892 45.4948 59.5852 45.6955 59.7854C46.9963 60.0191 47.7892 60.5214 48.0524 61.2794C48.5469 62.7026 46.9834 64.473 46.9166 64.5477L46.8818 64.5865L44.5524 64.6975C44.3314 64.708 44.115 64.7649 43.9174 64.8645C43.7198 64.964 43.5453 65.104 43.4052 65.2753C43.2652 65.4467 43.1627 65.6455 43.1044 65.859C43.0462 66.0725 43.0335 66.2958 43.0671 66.5145C43.1301 66.7967 43.2097 67.0749 43.3055 67.3477C43.7028 68.5909 44.0009 69.653 43.6169 70.0568C43.5298 70.1349 43.4225 70.1869 43.3072 70.2069C43.1919 70.2269 43.0734 70.214 42.965 70.1698C42.6007 70.0724 42.3536 70.0928 42.2305 70.2306C42.0392 70.444 42.0976 70.9843 42.3949 71.7517C42.4881 71.9944 42.5132 72.258 42.4674 72.5139C42.4217 72.7699 42.3067 73.0084 42.1351 73.2037C42.0059 73.3561 41.8451 73.4787 41.6639 73.5631C41.4828 73.6474 41.2855 73.6914 41.0856 73.6922H41.0861Z" fill="#2F2E41"/>
<mask id="mask0" mask-type="alpha" maskUnits="userSpaceOnUse" x="106" y="28" width="79" height="78">
<path d="M122.288 28.7534L184.685 29.6476L170.952 105.06L106.167 101.782L122.288 28.7534Z" fill="#C4C4C4"/>
</mask>
<g mask="url(#mask0)">
<path d="M137.268 74.367C142.243 74.367 146.276 70.6952 146.276 66.1658C146.276 61.6365 142.243 57.9647 137.268 57.9647C132.292 57.9647 128.259 61.6365 128.259 66.1658C128.259 70.6952 132.292 74.367 137.268 74.367Z" fill="#286AAC"/>
<path d="M155.283 105.627L94.5343 100.339C94.4582 100.333 94.3826 100.321 94.3087 100.302L126.997 57.4963C127.197 57.2294 127.472 57.0168 127.793 56.8803C128.115 56.7438 128.473 56.6881 128.829 56.7191C129.185 56.7501 129.527 56.8667 129.82 57.0568C130.114 57.2469 130.348 57.5037 130.498 57.8012L147.125 89.8844L147.922 91.4197L155.283 105.627Z" fill="#FF7700"/>
<path opacity="0.2" d="M156.742 105.472L123.196 104.532L140.276 83.2164L141.505 81.6809L142.12 80.9132L143.548 83.3081L156.742 105.472Z" fill="black"/>
<path d="M177.947 106.066L125.226 104.589L135.822 91.3649L136.584 90.4123L150.392 73.1794C151.297 72.05 153.399 72.037 154.397 73.0738C154.464 73.1445 154.526 73.219 154.582 73.2968L177.947 106.066Z" fill="#FF7700"/>
</g>
</svg>
