<svg width="89" height="95" viewBox="0 0 89 95" fill="none" xmlns="http://www.w3.org/2000/svg">
<path d="M83.6323 94.4644L78.103 94.4642V94.3989C78.1031 93.8664 78.3298 93.3556 78.7334 92.9791C79.137 92.6025 79.6844 92.3909 80.2552 92.3909H80.2553L83.6324 92.391L83.6323 94.4644Z" fill="#2F2E41"/>
<path d="M38.0147 18.5318H37.5958V7.08781C37.5958 5.33116 36.8961 3.64646 35.6505 2.40432C34.4049 1.16218 32.7156 0.464357 30.9541 0.464355H6.64172C5.76952 0.464353 4.90585 0.635672 4.10004 0.96853C3.29423 1.30139 2.56206 1.78927 1.94532 2.40431C1.32858 3.01936 0.839353 3.74952 0.505574 4.55311C0.171796 5.35671 1.47797e-06 6.21799 0 7.0878V69.8703C-1.49245e-06 71.627 0.699746 73.3117 1.94531 74.5538C3.19087 75.7959 4.88021 76.4938 6.64169 76.4938H30.9541C32.7156 76.4938 34.4049 75.796 35.6505 74.5538C36.896 73.3117 37.5958 71.627 37.5958 69.8703V26.6778H38.0147V18.5318Z" fill="#3F3D56"/>
<path d="M31.0507 1.84668H27.9217C28.0656 2.20686 28.1205 2.59764 28.0816 2.98459C28.0427 3.37155 27.9113 3.7428 27.6987 4.06565C27.4862 4.3885 27.1992 4.65304 26.8629 4.83596C26.5267 5.01888 26.1515 5.11457 25.7705 5.1146H12.0376C11.6566 5.11457 11.2814 5.01888 10.9452 4.83596C10.6089 4.65304 10.3219 4.3885 10.1094 4.06565C9.89686 3.7428 9.76536 3.37155 9.72649 2.98459C9.68761 2.59764 9.74254 2.20686 9.88643 1.84668H6.96388C6.32167 1.84668 5.68574 1.97582 5.09241 2.22673C4.49908 2.47764 3.95997 2.8454 3.50585 3.30902C3.05174 3.77265 2.69151 4.32305 2.44575 4.9288C2.19998 5.53455 2.07349 6.18379 2.07349 6.83945V70.1186C2.07349 70.7743 2.19998 71.4235 2.44574 72.0293C2.69151 72.635 3.05173 73.1854 3.50584 73.649C3.95996 74.1127 4.49907 74.4804 5.0924 74.7313C5.68573 74.9822 6.32165 75.1114 6.96387 75.1114H31.0507C32.3477 75.1114 33.5916 74.5854 34.5088 73.649C35.4259 72.7127 35.9411 71.4428 35.9411 70.1186V70.1186V6.83946C35.9411 6.1838 35.8146 5.53456 35.5689 4.92881C35.3231 4.32306 34.9629 3.77266 34.5088 3.30903C34.0547 2.84541 33.5155 2.47764 32.9222 2.22673C32.3289 1.97582 31.693 1.84668 31.0507 1.84668V1.84668Z" fill="white"/>
<path d="M19.0075 48.8467C25.6877 48.8467 31.103 43.586 31.103 37.0967C31.103 30.6073 25.6877 25.3467 19.0075 25.3467C12.3272 25.3467 6.91187 30.6073 6.91187 37.0967C6.91187 43.586 12.3272 48.8467 19.0075 48.8467Z" fill="#286AAC"/>
<path d="M82.941 92.3909L81.536 92.3907L80.8677 86.1703L82.9412 86.1704L82.941 92.3909Z" fill="#9F616A"/>
<path d="M70.1277 92.3908L68.4265 91.9561L69.3716 85.479L71.8824 86.1205L70.1277 92.3908Z" fill="#9F616A"/>
<path d="M69.9635 94.4643L64.9707 92.8679L64.9876 92.7924C65.1254 92.1761 65.4623 91.6506 65.9242 91.3313C66.3861 91.0121 66.9351 90.9253 67.4505 91.09L67.4507 91.0901L70.5001 92.0651L69.9635 94.4643Z" fill="#2F2E41"/>
<path d="M84.2294 55.0673L85.706 56.7522L83.7964 90.993H79.7175L77.6609 64.6459L71.2847 91.6996L67.0442 90.6781L70.8999 56.3163L84.2294 55.0673Z" fill="#2F2E41"/>
<path d="M72.0994 32.902L75.9813 30.8761L81.951 30.9853L87.0882 33.7204L84.1654 48.9084L85.428 56.8274H85.428C80.548 58.1222 75.4389 58.166 70.5391 56.9549L70.5 56.9453C70.5 56.9453 73.4017 46.2326 72.1665 42.9634L72.0994 32.902Z" fill="#CBCBCB"/>
<path d="M83.6322 24.9845C83.6278 23.7944 83.1514 22.6547 82.3076 21.8155C81.4637 20.9764 80.3214 20.5063 79.1313 20.5085C77.9412 20.5107 76.8006 20.985 75.9599 21.8273C75.1192 22.6696 74.647 23.811 74.647 25.0011C74.647 26.1912 75.1192 27.3327 75.9599 28.175C76.8006 29.0173 77.9412 29.4916 79.1313 29.4938C80.3214 29.496 81.4637 29.0259 82.3076 28.1867C83.1514 27.3475 83.6278 26.2078 83.6322 25.0178C83.6323 25.0067 83.6323 24.9956 83.6322 24.9845Z" fill="#9F616A"/>
<path d="M77.2338 22.5726C77.4572 22.3429 77.7514 22.2133 78.0582 22.2094C78.519 22.193 79.2094 22.3717 79.5032 22.7808C79.7394 23.1096 79.7507 23.5619 79.7516 23.9798L79.7541 25.1331C79.7548 25.4742 79.7586 25.83 79.9005 26.1339C80.0425 26.4379 80.3683 26.6688 80.666 26.5651C81.0191 26.4422 81.1744 25.9297 81.5352 25.8375C81.8063 25.7683 82.0847 25.9846 82.2031 26.2597C82.3032 26.5448 82.3363 26.8527 82.2996 27.1554C82.2654 27.7592 81.4724 27.9988 81.3601 28.5913C81.2951 28.934 81.0677 29.6176 81.3601 29.4743C82.7078 29.3271 83.2993 28.4675 83.9161 27.6583L85.3073 25.8331C85.4662 25.6519 85.5883 25.4361 85.6656 25.1999C85.7001 25.0344 85.7125 24.8643 85.7024 24.695C85.6948 24.2413 85.6835 23.7878 85.6685 23.3344C85.6555 22.9383 85.5642 22.4385 85.2089 22.3571C85.0242 22.3147 84.7796 22.3886 84.682 22.2121C84.6454 22.1237 84.6394 22.0237 84.6652 21.9309C84.7436 21.4781 84.876 21.0045 84.7396 20.5685C84.5338 19.9109 83.8252 19.6411 83.199 19.517C82.5729 19.3929 81.87 19.2862 81.477 18.7396C81.3718 18.5581 81.2577 18.383 81.1351 18.2149C80.9549 18.0359 80.7333 17.9139 80.4944 17.862C79.7171 17.6472 78.896 17.7267 78.1655 18.0877C77.8627 18.2386 77.5584 18.4419 77.2262 18.4189C76.881 18.395 76.5862 18.1298 76.2455 18.0652C75.6952 17.961 75.169 18.4113 74.8978 18.9445C74.5617 19.6053 74.5309 20.5102 75.0056 21.0602C75.2425 21.3346 75.5959 21.5231 75.6942 21.8845C75.7343 22.0317 75.725 22.1901 75.7604 22.3387C75.8016 22.4865 75.8803 22.6187 75.9873 22.7198C76.0944 22.8209 76.2254 22.8869 76.3653 22.9103C76.7018 22.9701 76.9866 22.8018 77.2338 22.5726Z" fill="#2F2E41"/>
<path d="M71.3083 44.043C71.396 44.2517 71.532 44.44 71.7067 44.5947C71.8814 44.7494 72.0907 44.8668 72.3196 44.9385C72.5486 45.0102 72.7917 45.0345 73.0319 45.0097C73.2721 44.9849 73.5035 44.9116 73.7099 44.795L81.9821 48.8467L82.25 46.9796L74.2119 42.5878C73.9775 42.2796 73.6292 42.0618 73.2331 41.9757C72.8369 41.8895 72.4204 41.941 72.0625 42.1204C71.7046 42.2998 71.4302 42.5946 71.2912 42.9489C71.1522 43.3033 71.1583 43.6925 71.3083 44.043V44.043Z" fill="#9F616A"/>
<path d="M81.9803 44.2972C81.8543 44.4795 81.6888 44.6328 81.4954 44.7462C81.302 44.8596 81.0854 44.9303 80.8609 44.9534C80.6364 44.9765 80.4094 44.9514 80.1959 44.8799C79.9824 44.8083 79.7877 44.6921 79.6253 44.5394L71.1912 46.7732L71.2646 44.4472L79.6546 42.3263C79.9362 42.0779 80.3018 41.9387 80.6819 41.935C81.062 41.9313 81.4302 42.0635 81.7169 42.3064C82.0036 42.5494 82.1887 42.8862 82.2373 43.2531C82.2858 43.62 82.1944 43.9915 81.9803 44.2972V44.2972Z" fill="#9F616A"/>
<path d="M85.5463 33.7515L87.2489 33.6409C87.2489 33.6409 89.2423 36.3686 88.1366 39.3286C88.1366 39.3286 88.3282 49.9616 83.9131 49.5248C79.498 49.0881 78.103 49.0881 78.103 49.0881L79.4283 45.2544L82.393 44.3051C82.393 44.3051 81.4793 40.125 83.2089 38.3858L85.5463 33.7515Z" fill="#CBCBCB"/>
<path d="M73.2348 34.1563L72.9835 32.9498C72.9835 32.9498 69.2778 32.8682 68.545 38.1282C68.545 38.1282 65.2126 46.0003 68.479 47.0139C71.7453 48.0275 75.3383 47.0139 75.3383 47.0139L75.0677 43.5424L71.4736 42.8553C71.4736 42.8553 73.3302 40.6054 72.3193 38.6538L73.2348 34.1563Z" fill="#CBCBCB"/>
<path d="M21.6621 34.9952C23.0521 35.7531 23.0521 37.7491 21.6621 38.507L18.5089 40.2264C17.1762 40.9531 15.5514 39.9884 15.5514 38.4704L15.5514 35.0318C15.5514 33.5138 17.1762 32.5491 18.5089 33.2758L21.6621 34.9952Z" fill="white"/>
</svg>
