<svg width="269" height="272" viewBox="0 0 269 272" fill="none" xmlns="http://www.w3.org/2000/svg">
<path d="M166.426 210.017C192.846 222.99 220.181 206.225 216.705 185.965C211.335 154.655 194.734 150.066 215.567 150.835C224.09 151.15 241.05 144.517 240.707 115.469C240.278 79.1594 196.475 64.5505 181.576 70.4561C153.919 81.4184 117.45 75.7643 93.5624 68.8074C66.0856 64.3166 12.6279 86.7374 44.2987 161.558C83.8873 255.083 106.118 195.663 109.088 194.299C111.382 193.246 106.706 180.694 166.426 210.017Z" fill="#B7D6F4"/>
<path d="M138.082 50.8047L132.422 52.2804L62.6886 70.4621L57.0286 71.9379C54.2813 72.6575 51.9285 74.4496 50.4864 76.921C49.0443 79.3924 48.6307 82.3412 49.3363 85.1206L73.8795 181.347C74.5913 184.124 76.3638 186.503 78.8081 187.961C81.2524 189.419 84.169 189.838 86.9179 189.124L86.9325 189.12L167.956 167.995L167.971 167.991C170.718 167.271 173.071 165.479 174.513 163.008C175.955 160.536 176.369 157.588 175.663 154.808L151.12 58.5821C150.408 55.8044 148.636 53.4256 146.191 51.9675C143.747 50.5095 140.831 50.0913 138.082 50.8047Z" fill="#F2F2F2"/>
<path d="M138.886 54.7035L132.174 56.4281L64.4378 73.8304L57.725 75.555C55.7659 76.0606 54.0882 77.3198 53.0599 79.0562C52.0315 80.7927 51.7366 82.8646 52.2397 84.8175L76.8158 179.761C77.3233 181.712 78.5872 183.384 80.3302 184.408C82.0732 185.433 84.153 185.727 86.1131 185.225L86.1278 185.222L167.26 164.378L167.275 164.374C169.234 163.868 170.911 162.609 171.94 160.873C172.968 159.136 173.263 157.064 172.76 155.111L148.184 60.1682C147.676 58.2165 146.412 56.545 144.669 55.5206C142.926 54.4961 140.847 54.2022 138.886 54.7035V54.7035Z" fill="white"/>
<path d="M147.649 137.94L106.249 148.409C105.786 148.525 105.296 148.457 104.885 148.219C104.474 147.981 104.176 147.593 104.057 147.14C103.938 146.687 104.007 146.205 104.249 145.802C104.492 145.399 104.887 145.107 105.349 144.99L146.75 134.52C147.212 134.403 147.703 134.471 148.114 134.709C148.525 134.947 148.823 135.336 148.943 135.789C149.062 136.243 148.993 136.724 148.75 137.127C148.507 137.531 148.111 137.823 147.649 137.94Z" fill="#F2F2F2"/>
<path d="M155.68 141.979L108.2 154.408C107.976 154.466 107.743 154.48 107.514 154.447C107.285 154.414 107.065 154.336 106.866 154.217C106.667 154.098 106.493 153.94 106.354 153.753C106.214 153.565 106.113 153.352 106.055 153.125C105.998 152.897 105.985 152.661 106.017 152.429C106.049 152.196 106.127 151.973 106.244 151.771C106.362 151.569 106.517 151.392 106.702 151.251C106.887 151.11 107.097 151.008 107.321 150.949L154.801 138.521C155.253 138.403 155.733 138.472 156.134 138.712C156.536 138.953 156.828 139.346 156.944 139.804C157.061 140.263 156.993 140.75 156.756 141.158C156.519 141.566 156.132 141.861 155.68 141.979V141.979Z" fill="#F2F2F2"/>
<path d="M195.205 75.4644H110.794C107.933 75.4676 105.189 76.5993 103.165 78.6112C101.141 80.6231 100.003 83.3509 99.9998 86.1961V184.733C100.003 187.578 101.141 190.306 103.165 192.318C105.189 194.33 107.933 195.461 110.794 195.464H195.205C198.067 195.461 200.811 194.33 202.834 192.318C204.858 190.306 205.997 187.578 206 184.733V86.1961C205.997 83.3509 204.858 80.6231 202.834 78.6112C200.811 76.5993 198.067 75.4676 195.205 75.4644V75.4644Z" fill="#E6E6E6"/>
<path d="M194.45 78.4644H111.549C109.548 78.4667 107.629 79.2739 106.213 80.7088C104.798 82.1438 104.002 84.0894 104 86.1187V184.81C104.002 186.839 104.798 188.785 106.213 190.22C107.629 191.655 109.548 192.462 111.549 192.464H194.45C196.452 192.462 198.371 191.655 199.786 190.22C201.201 188.785 201.998 186.839 202 184.81V86.1187C201.998 84.0894 201.201 82.1438 199.786 80.7089C198.371 79.2739 196.452 78.4667 194.45 78.4644V78.4644Z" fill="white"/>
<path d="M203.5 207.464C214.269 207.464 223 198.734 223 187.964C223 177.195 214.269 168.464 203.5 168.464C192.73 168.464 184 177.195 184 187.964C184 198.734 192.73 207.464 203.5 207.464Z" fill="#F9A826"/>
<path d="M212.428 185.893H205.571V179.036C205.571 178.354 205.3 177.7 204.818 177.218C204.336 176.735 203.682 176.464 203 176.464C202.318 176.464 201.664 176.735 201.181 177.218C200.699 177.7 200.428 178.354 200.428 179.036V185.893H193.571C192.889 185.893 192.235 186.164 191.753 186.646C191.271 187.128 191 187.782 191 188.464C191 189.146 191.271 189.801 191.753 190.283C192.235 190.765 192.889 191.036 193.571 191.036H200.428V197.893C200.428 198.575 200.699 199.229 201.181 199.711C201.664 200.194 202.318 200.464 203 200.464C203.682 200.464 204.336 200.194 204.818 199.711C205.3 199.229 205.571 198.575 205.571 197.893V191.036H212.428C213.11 191.036 213.764 190.765 214.247 190.283C214.729 189.801 215 189.146 215 188.464C215 187.782 214.729 187.128 214.247 186.646C213.764 186.164 213.11 185.893 212.428 185.893V185.893Z" fill="white"/>
<path d="M182.99 121.37H177.804V107.542C177.804 103.739 174.693 100.628 170.89 100.628H157.062V95.442C157.062 90.6021 153.259 86.7994 148.419 86.7994C143.579 86.7994 139.776 90.6021 139.776 95.442V100.628H125.948C122.145 100.628 119.034 103.739 119.034 107.542V120.679H124.22C129.405 120.679 133.554 124.827 133.554 130.013C133.554 135.198 129.405 139.347 124.22 139.347H119.034V152.484C119.034 156.286 122.145 159.398 125.948 159.398H139.085V154.212C139.085 149.026 143.233 144.878 148.419 144.878C153.605 144.878 157.753 149.026 157.753 154.212V159.398H170.89C174.693 159.398 177.804 156.286 177.804 152.484V138.655H182.99C187.829 138.655 191.632 134.853 191.632 130.013C191.632 125.173 187.829 121.37 182.99 121.37Z" fill="black"/>
<path d="M139.159 94.5629L134.15 95.9051L130.571 82.548C129.587 78.8748 125.776 76.6747 122.103 77.659L108.746 81.238L107.404 76.2291C106.151 71.5541 101.494 68.8651 96.8186 70.1178C92.1436 71.3705 89.4546 76.0279 90.7073 80.7028L92.0494 85.7117L78.6924 89.2908C75.0192 90.275 72.8191 94.0856 73.8033 97.7588L77.2034 110.448L82.2123 109.106C87.2212 107.764 92.302 110.697 93.6441 115.706C94.9863 120.715 92.0529 125.796 87.044 127.138L82.0351 128.48L85.4351 141.169C86.4194 144.842 90.23 147.043 93.9032 146.058L106.592 142.658L105.25 137.649C103.908 132.64 106.842 127.56 111.85 126.217C116.859 124.875 121.94 127.809 123.282 132.818L124.624 137.827L137.314 134.426C140.987 133.442 143.187 129.632 142.203 125.958L138.624 112.601L143.633 111.259C148.308 110.007 150.996 105.349 149.744 100.674C148.491 95.9992 143.834 93.3103 139.159 94.5629Z" fill="#286AAC"/>
<path d="M195.205 75.4644H110.794C107.933 75.4676 105.189 76.5993 103.165 78.6112C101.141 80.6231 100.003 83.3509 99.9998 86.1961V184.733C100.003 187.578 101.141 190.306 103.165 192.318C105.189 194.33 107.933 195.461 110.794 195.464H195.205C198.067 195.461 200.811 194.33 202.834 192.318C204.858 190.306 205.997 187.578 206 184.733V86.1961C205.997 83.3509 204.858 80.6231 202.834 78.6112C200.811 76.5993 198.067 75.4676 195.205 75.4644V75.4644Z" fill="#E6E6E6"/>
<path d="M194.45 78.4644H111.549C109.548 78.4667 107.629 79.2739 106.213 80.7088C104.798 82.1438 104.002 84.0894 104 86.1187V184.81C104.002 186.839 104.798 188.785 106.213 190.22C107.629 191.655 109.548 192.462 111.549 192.464H194.45C196.452 192.462 198.371 191.655 199.786 190.22C201.201 188.785 201.998 186.839 202 184.81V86.1187C201.998 84.0894 201.201 82.1438 199.786 80.7089C198.371 79.2739 196.452 78.4667 194.45 78.4644V78.4644Z" fill="white"/>
<path d="M203.5 207.464C214.269 207.464 223 198.734 223 187.964C223 177.195 214.269 168.464 203.5 168.464C192.73 168.464 184 177.195 184 187.964C184 198.734 192.73 207.464 203.5 207.464Z" fill="#286AAC"/>
<path d="M212.428 185.893H205.571V179.036C205.571 178.354 205.3 177.7 204.818 177.218C204.336 176.735 203.682 176.464 203 176.464C202.318 176.464 201.664 176.735 201.181 177.218C200.699 177.7 200.428 178.354 200.428 179.036V185.893H193.571C192.889 185.893 192.235 186.164 191.753 186.646C191.271 187.128 191 187.782 191 188.464C191 189.146 191.271 189.801 191.753 190.283C192.235 190.765 192.889 191.036 193.571 191.036H200.428V197.893C200.428 198.575 200.699 199.229 201.181 199.711C201.664 200.194 202.318 200.464 203 200.464C203.682 200.464 204.336 200.194 204.818 199.711C205.3 199.229 205.571 198.575 205.571 197.893V191.036H212.428C213.11 191.036 213.764 190.765 214.247 190.283C214.729 189.801 215 189.146 215 188.464C215 187.782 214.729 187.128 214.247 186.646C213.764 186.164 213.11 185.893 212.428 185.893V185.893Z" fill="white"/>
<path d="M182.945 120.977H177.759V107.149C177.759 103.346 174.648 100.235 170.845 100.235H157.017V95.0495C157.017 90.2096 153.214 86.4068 148.374 86.4068C143.534 86.4068 139.731 90.2096 139.731 95.0495V100.235H125.903C122.1 100.235 118.989 103.346 118.989 107.149V120.286H124.175C129.36 120.286 133.509 124.434 133.509 129.62C133.509 134.806 129.36 138.954 124.175 138.954H118.989V152.091C118.989 155.894 122.1 159.005 125.903 159.005H139.04V153.82C139.04 148.634 143.188 144.485 148.374 144.485C153.56 144.485 157.708 148.634 157.708 153.82V159.005H170.845C174.648 159.005 177.759 155.894 177.759 152.091V138.263H182.945C187.785 138.263 191.587 134.46 191.587 129.62C191.587 124.78 187.785 120.977 182.945 120.977Z" fill="#286AAC"/>
</svg>
