<svg width="152" height="82" viewBox="0 0 152 82" fill="none" xmlns="http://www.w3.org/2000/svg">
<path d="M124.572 70.2366C124.222 70.2366 124.215 71.0385 124.572 71.0385H137.658C137.812 71.0421 137.938 70.8656 137.941 70.6442C137.943 70.4181 137.815 70.2325 137.658 70.2366H124.572Z" fill="#3F3D56"/>
<path d="M128.615 66.2268C128.219 66.2268 128.216 67.0286 128.615 67.0286H132.812C132.984 67.0322 133.126 66.8557 133.129 66.6343C133.132 66.4082 132.988 66.2227 132.812 66.2268H128.615Z" fill="#286AAC"/>
<path d="M124.572 74.2466C124.222 74.2467 124.215 75.0485 124.572 75.0485H137.658C137.812 75.0521 137.938 74.8756 137.941 74.6542C137.943 74.4281 137.815 74.2426 137.658 74.2466H124.572Z" fill="#3F3D56"/>
<path d="M139.628 59.8109H121.817C121.627 59.811 121.444 59.893 121.31 60.0389C121.175 60.1848 121.099 60.3826 121.099 60.589V79.8844C121.099 80.0907 121.175 80.2885 121.31 80.4344C121.444 80.5803 121.627 80.6623 121.817 80.6624H139.628C139.819 80.6623 140.002 80.5803 140.136 80.4344C140.271 80.2885 140.347 80.0907 140.347 79.8844V60.589C140.347 60.3826 140.271 60.1848 140.136 60.0389C140.002 59.893 139.819 59.811 139.628 59.8109V59.8109ZM140.059 79.8844C140.059 80.0081 140.014 80.1266 139.933 80.2141C139.852 80.3015 139.743 80.3508 139.628 80.3512H121.817C121.703 80.3508 121.594 80.3015 121.513 80.2141C121.432 80.1266 121.387 80.0081 121.386 79.8844V60.589C121.387 60.4653 121.432 60.3467 121.513 60.2593C121.594 60.1718 121.703 60.1225 121.817 60.1221H139.628C139.743 60.1225 139.852 60.1718 139.933 60.2593C140.014 60.3467 140.059 60.4653 140.059 60.589V79.8844Z" fill="#3F3D56"/>
<path d="M115.633 45.3753L117.089 44.5873L115.875 41.0411L115.555 39.2527C115.514 39.0204 115.417 38.8039 115.274 38.6249C115.131 38.446 114.947 38.3108 114.74 38.2329C114.534 38.1549 114.312 38.137 114.097 38.1809C113.882 38.2248 113.682 38.329 113.515 38.483V38.483C113.269 38.7112 113.115 39.034 113.085 39.3831C113.054 39.7323 113.15 40.0805 113.353 40.3544L114.54 41.9605L115.633 45.3753Z" fill="#A0616A"/>
<path d="M114.683 45.0832L114.96 46.0194L116.203 50.225C116.325 50.6373 116.554 51.003 116.863 51.2781C117.173 51.5532 117.549 51.7261 117.947 51.776C118.345 51.826 118.748 51.7508 119.107 51.5596C119.467 51.3684 119.768 51.0692 119.974 50.698L124.003 43.2399C124.068 43.1237 124.123 43.0017 124.168 42.8752C124.362 42.3232 124.353 41.7115 124.14 41.1671C123.928 40.6227 123.53 40.1875 123.029 39.9519C122.527 39.7163 121.961 39.6985 121.447 39.9021C120.934 40.1058 120.513 40.5152 120.272 41.0453L117.812 46.7051L116.686 44.0023L114.683 45.0832Z" fill="#E6E6E6"/>
<path d="M115.485 70.7803L118.043 71.0387L119.438 59.8002C124.037 60.6598 128.375 60.9352 132.127 59.8953C132.445 59.8086 132.742 59.6501 133.001 59.4295C133.261 59.209 133.476 58.9313 133.634 58.6138C133.792 58.2964 133.89 57.946 133.92 57.5848C133.951 57.2235 133.914 56.8591 133.811 56.5146C133.362 55.0252 132.571 53.4292 131.645 51.7911L125.483 54.2455L125.251 55.2789L118.679 54.3546C118.347 54.3079 118.01 54.3384 117.689 54.4442C117.368 54.5501 117.071 54.7288 116.816 54.9692C116.561 55.2096 116.353 55.5063 116.207 55.8406C116.06 56.1748 115.978 56.5392 115.965 56.9106L115.485 70.7803Z" fill="#2F2E41"/>
<path d="M112.288 72.596C112.259 72.4092 112.289 72.2187 112.374 72.0471C112.458 71.8754 112.594 71.7298 112.765 71.6275L115.826 70.2366L118.134 70.5063L118.679 72.3155C118.702 72.4444 118.697 72.5763 118.663 72.7032C118.629 72.8301 118.568 72.9492 118.483 73.0535C118.398 73.1577 118.291 73.2448 118.168 73.3094C118.045 73.3741 117.91 73.415 117.77 73.4296L113.463 73.4383C113.187 73.467 112.91 73.3951 112.691 73.2378C112.472 73.0806 112.327 72.8503 112.288 72.596V72.596Z" fill="#2F2E41"/>
<path d="M114.683 69.1763L117.241 69.4347L118.636 58.1962C123.235 59.0558 127.573 59.3312 131.325 58.2913C131.643 58.2046 131.94 58.0461 132.199 57.8255C132.459 57.605 132.674 57.3273 132.832 57.0098C132.99 56.6924 133.088 56.342 133.118 55.9808C133.149 55.6195 133.112 55.2551 133.009 54.9106C132.56 53.4212 131.769 51.8252 130.843 50.1871L124.681 52.6415L124.449 53.6749L117.877 52.7506C117.545 52.7039 117.208 52.7344 116.887 52.8402C116.566 52.946 116.269 53.1248 116.014 53.3652C115.759 53.6056 115.551 53.9023 115.405 54.2365C115.258 54.5708 115.176 54.9352 115.163 55.3066L114.683 69.1763Z" fill="#2F2E41"/>
<path d="M111.486 71.2042C111.457 71.0641 111.487 70.9213 111.572 70.7926C111.656 70.6638 111.792 70.5546 111.963 70.4779L115.024 69.4347L117.332 69.637L117.877 70.9939C117.9 71.0906 117.895 71.1895 117.861 71.2847C117.827 71.3798 117.766 71.4692 117.681 71.5474C117.596 71.6255 117.489 71.6908 117.366 71.7393C117.243 71.7878 117.108 71.8185 116.968 71.8295L112.661 71.836C112.385 71.8575 112.108 71.8036 111.889 71.6856C111.67 71.5677 111.525 71.395 111.486 71.2042Z" fill="#2F2E41"/>
<path d="M119.495 38.9594C121.267 38.9594 122.703 37.3436 122.703 35.3505C122.703 33.3573 121.267 31.7416 119.495 31.7416C117.723 31.7416 116.287 33.3573 116.287 35.3505C116.287 37.3436 117.723 38.9594 119.495 38.9594Z" fill="#A0616A"/>
<path d="M119.953 42.1674L123.505 41.6979L122.13 37.3555H118.693L119.953 42.1674Z" fill="#A0616A"/>
<path d="M118.991 46.9682C119.171 47.5331 119.432 48.0606 119.764 48.5298C120.236 49.185 120.804 49.7446 121.443 50.1845C121.555 50.266 121.67 50.3439 121.79 50.4208L122.472 51.0771L124.882 53.395L131.525 50.5499C130.06 46.8728 128.232 43.966 126.137 41.6248C125.702 40.9039 125.081 40.351 124.359 40.0406C123.637 39.7302 122.848 39.6771 122.099 39.8886L119.613 40.5903C118.729 42.9467 118.401 45.1134 118.991 46.9682Z" fill="#E6E6E6"/>
<path d="M113.635 37.4255C113.597 37.3864 113.548 37.3621 113.496 37.3566C113.443 37.3512 113.391 37.3649 113.347 37.3955C113.288 37.4611 111.36 38.667 111.481 38.7866C111.477 38.8229 111.481 38.8595 111.493 38.8939C111.505 38.9283 111.523 38.9594 111.548 38.9851L116.028 43.694C116.05 43.7169 116.076 43.735 116.104 43.7473C116.132 43.7595 116.163 43.7657 116.194 43.7653C116.284 43.8869 117.752 42.1204 117.826 42.0866C117.869 42.04 117.892 41.9777 117.891 41.913C117.89 41.8484 117.865 41.7868 117.822 41.7416L113.635 37.4255Z" fill="#3F3D56"/>
<path d="M111.508 38.6326L111.712 38.4949C111.691 38.5355 111.684 38.5821 111.692 38.6273C111.699 38.6726 111.72 38.7139 111.752 38.7449C111.784 38.7758 111.825 38.7946 111.868 38.7983C111.911 38.8019 111.955 38.7902 111.991 38.765L113.308 37.8045C113.337 37.7824 113.361 37.7521 113.375 37.7168C113.389 37.6816 113.394 37.6429 113.388 37.605C113.383 37.5671 113.368 37.5316 113.345 37.5023C113.321 37.4729 113.291 37.451 113.257 37.439C113.309 37.4202 113.393 37.3079 113.45 37.3786L117.881 41.9975C118.039 42.079 116.271 43.704 116.27 43.7679C116.138 43.9239 111.593 38.7523 111.496 38.7487C111.488 38.7408 111.483 38.7312 111.479 38.7206C111.476 38.71 111.475 38.6987 111.476 38.6876C111.477 38.6765 111.48 38.6657 111.486 38.6562C111.492 38.6467 111.499 38.6386 111.508 38.6326V38.6326Z" fill="white"/>
<path d="M116.287 40.9617L114.863 42.1674L111.475 39.1623L113.195 38.1575L116.287 40.9617Z" fill="#286AAC"/>
<path d="M115.485 41.7664C115.478 42.301 116.295 42.301 116.287 41.7663C116.295 41.2317 115.477 41.2317 115.485 41.7664Z" fill="#286AAC"/>
<path opacity="0.2" d="M119.495 48.4719C119.971 49.1194 120.542 49.6723 121.185 50.1071C121.297 50.1876 121.413 50.2647 121.533 50.3406L122.219 50.9892C123.581 49.0032 123.504 42.9694 123.504 42.9694L121.431 43.1994L119.495 48.4719Z" fill="black"/>
<path d="M115.342 46.9792L117.089 46.1911L115.633 42.645L115.249 40.8566C115.199 40.6243 115.082 40.4078 114.911 40.2288C114.739 40.0499 114.518 39.9147 114.27 39.8367C114.023 39.7588 113.757 39.7409 113.499 39.7848C113.241 39.8287 113 39.9329 112.801 40.0869V40.0869C112.506 40.3151 112.32 40.6379 112.284 40.987C112.248 41.3362 112.363 41.6844 112.606 41.9583L114.031 43.5644L115.342 46.9792Z" fill="#A0616A"/>
<path d="M116.686 45.6056L114.683 46.6869L116.203 51.8294C116.312 52.1986 116.508 52.5312 116.771 52.7948C117.034 53.0584 117.356 53.2441 117.705 53.3339V53.3339C118.136 53.4446 118.588 53.4043 118.995 53.2189C119.403 53.0336 119.746 52.7127 119.974 52.3028L124.004 44.8433C124.289 44.3292 124.378 43.715 124.249 43.1318C124.121 42.5485 123.787 42.0425 123.318 41.7217V41.7217C123.066 41.5492 122.783 41.436 122.488 41.3894C122.192 41.3429 121.891 41.364 121.604 41.4515C121.316 41.5389 121.049 41.6907 120.82 41.897C120.59 42.1033 120.404 42.3594 120.272 42.6488L117.812 48.3089L116.686 45.6056Z" fill="#E6E6E6"/>
<path d="M118.543 34.0552C118.289 34.2898 118.003 34.4771 117.695 34.61C117.541 34.6752 117.375 34.7022 117.21 34.6891C117.045 34.676 116.885 34.6231 116.741 34.534C116.582 34.4079 116.457 34.2368 116.379 34.0388C116.3 33.8407 116.272 33.623 116.295 33.4083C116.348 32.9788 116.504 32.5728 116.746 32.2325C117.164 31.588 117.713 31.0623 118.349 30.6982C118.986 30.3341 119.691 30.142 120.406 30.1377C121.122 30.1333 121.829 30.3167 122.469 30.6729C123.109 31.0292 123.663 31.5482 124.088 32.1875C124.397 32.6156 124.587 33.1342 124.635 33.6802C124.68 34.6392 124.088 35.5344 124.151 36.4922C124.205 37.3022 124.729 37.9961 125.35 38.4268C125.971 38.8575 126.689 39.0759 127.383 39.3346C128.078 39.5932 128.78 39.9124 129.294 40.4911C129.808 41.0699 130.091 41.968 129.809 42.7176C129.578 43.3335 129.027 43.7252 128.474 43.9905C126.993 44.6937 125.329 44.7629 123.805 44.1848C123.243 43.9688 122.629 43.5365 122.621 42.877C122.617 42.5908 122.733 42.3221 122.803 42.0465C122.873 41.7709 122.886 41.4421 122.711 41.2317C122.494 40.9706 122.093 41.0307 121.833 41.2389C121.574 41.4471 121.405 41.7629 121.191 42.027C120.785 42.5285 120.169 42.8488 119.567 42.7544C118.965 42.6599 118.421 42.0913 118.396 41.4178C118.353 40.2608 119.661 39.5364 119.803 38.3892C119.898 37.623 119.448 36.922 119.058 36.2807C118.668 35.6394 118.305 34.8359 118.578 34.1241" fill="#2F2E41"/>
<path d="M74.4267 71.0386H22.6131C22.3587 71.0383 22.1148 70.9277 21.9349 70.7311C21.7551 70.5345 21.6539 70.2679 21.6536 69.9899V21.5626C21.6539 21.2845 21.7551 21.018 21.9349 20.8214C22.1148 20.6248 22.3587 20.5142 22.6131 20.5139H74.4267C74.6811 20.5142 74.925 20.6248 75.1049 20.8214C75.2848 21.018 75.3859 21.2845 75.3862 21.5626V69.9899C75.3859 70.2679 75.2848 70.5345 75.1049 70.7311C74.925 70.9277 74.6811 71.0383 74.4267 71.0386V71.0386ZM22.6131 20.9333C22.4604 20.9335 22.3141 20.9999 22.2062 21.1178C22.0982 21.2358 22.0375 21.3958 22.0374 21.5626V69.9899C22.0375 70.1567 22.0982 70.3167 22.2062 70.4346C22.3141 70.5526 22.4604 70.6189 22.6131 70.6191H74.4267C74.5794 70.6189 74.7257 70.5526 74.8336 70.4346C74.9416 70.3167 75.0023 70.1567 75.0024 69.9899V21.5626C75.0023 21.3958 74.9416 21.2358 74.8336 21.1178C74.7257 20.9999 74.5794 20.9335 74.4267 20.9333H22.6131Z" fill="#3F3D56"/>
<path d="M151.555 80.6624C152.612 81.7317 108.593 81.7317 109.653 80.6621C108.596 79.5931 152.615 79.5931 151.555 80.6624Z" fill="#B7D6F4"/>
<path d="M137.594 50.187C139.723 53.7172 140.285 73.8091 140.411 80.2495C140.414 80.3946 140.417 80.5322 140.419 80.6623H145.808C145.874 80.5247 145.935 80.389 145.993 80.2495C149.187 72.8536 147.415 63.9856 147.321 63.537C147.564 64.9468 146.467 69.0331 145.226 72.9911C144.469 60.821 137.999 50.8015 137.594 50.187Z" fill="#B7D6F4"/>
<path d="M27.2246 10.89C22.6625 17.9504 21.4574 58.1343 21.1888 71.015C21.182 71.3052 21.1751 71.5804 21.1716 71.8405H9.62353C9.48236 71.5653 9.35152 71.2939 9.22757 71.015C2.38273 56.2231 6.18045 38.4872 6.38014 37.59C5.86025 40.4097 8.21186 48.5821 10.8699 56.4983C12.4916 32.158 26.3569 12.1189 27.2246 10.89Z" fill="#B7D6F4"/>
<path d="M80.9014 71.4396C82.9403 74.1129 -2.0088 74.1129 0.0363472 71.439C-2.00262 68.7663 82.9465 68.7663 80.9014 71.4396Z" fill="#B7D6F4"/>
<path d="M30.5357 66.2267C32.7707 66.2267 34.5825 64.4314 34.5825 62.2168C34.5825 60.0022 32.7707 58.2069 30.5357 58.2069C28.3006 58.2069 26.4888 60.0022 26.4888 62.2168C26.4888 64.4314 28.3006 66.2267 30.5357 66.2267Z" fill="#B7D6F4"/>
<path d="M39.6402 59.0088C39.4696 59.0091 39.3061 59.0937 39.1856 59.2441C39.065 59.3945 38.9973 59.5983 38.9973 59.8108C38.9973 60.0233 39.065 60.2271 39.1856 60.3774C39.3061 60.5278 39.4696 60.6124 39.6402 60.6127H69.9928C70.1635 60.6127 70.3273 60.5283 70.448 60.3779C70.5688 60.2275 70.6366 60.0235 70.6366 59.8108C70.6366 59.5981 70.5688 59.3941 70.448 59.2437C70.3273 59.0933 70.1635 59.0088 69.9928 59.0088H39.6402Z" fill="#B7D6F4"/>
<path d="M39.6246 63.0188C39.4582 63.0188 39.2987 63.1033 39.181 63.2537C39.0634 63.4041 38.9973 63.6081 38.9973 63.8208C38.9973 64.0335 39.0634 64.2375 39.181 64.3879C39.2987 64.5383 39.4582 64.6228 39.6246 64.6228H52.3493C52.4317 64.6229 52.5134 64.6023 52.5896 64.5621C52.6658 64.5218 52.7351 64.4628 52.7934 64.3883C52.8518 64.3138 52.898 64.2253 52.9296 64.128C52.9612 64.0306 52.9775 63.9262 52.9775 63.8208C52.9775 63.7154 52.9612 63.611 52.9296 63.5136C52.898 63.4162 52.8518 63.3278 52.7934 63.2533C52.7351 63.1788 52.6658 63.1197 52.5896 63.0795C52.5134 63.0393 52.4317 63.0186 52.3493 63.0188H39.6246Z" fill="#B7D6F4"/>
<path d="M86.4563 54.197H34.6426C34.3882 54.1967 34.1443 54.0848 33.9645 53.8859C33.7846 53.6869 33.6834 53.4172 33.6831 53.1359V27.9908C33.6834 27.7094 33.7846 27.4397 33.9645 27.2408C34.1443 27.0419 34.3882 26.93 34.6426 26.9297H86.4563C86.7107 26.93 86.9545 27.0419 87.1344 27.2408C87.3143 27.4397 87.4155 27.7094 87.4158 27.9908V53.1359C87.4155 53.4173 87.3143 53.687 87.1344 53.8859C86.9545 54.0848 86.7107 54.1967 86.4563 54.197Z" fill="#286AAC"/>
<path d="M44.7607 35.7515C44.5878 35.7518 44.422 35.8364 44.2998 35.9868C44.1775 36.1371 44.1089 36.3409 44.1089 36.5534C44.1089 36.7659 44.1775 36.9698 44.2998 37.1201C44.422 37.2705 44.5878 37.3551 44.7607 37.3554H75.5362C75.7092 37.3551 75.875 37.2705 75.9972 37.1201C76.1194 36.9698 76.1881 36.7659 76.1881 36.5534C76.1881 36.3409 76.1194 36.1371 75.9972 35.9868C75.875 35.8364 75.7092 35.7518 75.5362 35.7515H44.7607Z" fill="white"/>
<path d="M44.7607 39.7614C44.5878 39.7617 44.422 39.8463 44.2998 39.9967C44.1775 40.147 44.1089 40.3508 44.1089 40.5633C44.1089 40.7758 44.1775 40.9796 44.2998 41.13C44.422 41.2804 44.5878 41.365 44.7607 41.3653H75.5362C75.7092 41.365 75.875 41.2804 75.9972 41.13C76.1194 40.9796 76.1881 40.7758 76.1881 40.5633C76.1881 40.3508 76.1194 40.147 75.9972 39.9967C75.875 39.8463 75.7092 39.7617 75.5362 39.7614H44.7607Z" fill="white"/>
<path d="M44.7557 43.7712C44.5841 43.7716 44.4195 43.8562 44.2983 44.0065C44.177 44.1569 44.1089 44.3607 44.1089 44.5732C44.1089 44.7857 44.177 44.9895 44.2983 45.1399C44.4195 45.2903 44.5841 45.3749 44.7557 45.3752H57.8958C57.981 45.3754 58.0653 45.3547 58.144 45.3145C58.2227 45.2743 58.2942 45.2152 58.3545 45.1407C58.4147 45.0662 58.4625 44.9778 58.4951 44.8804C58.5277 44.783 58.5445 44.6786 58.5445 44.5732C58.5445 44.4678 58.5277 44.3634 58.4951 44.266C58.4625 44.1687 58.4147 44.0802 58.3545 44.0057C58.2942 43.9312 58.2227 43.8722 58.144 43.832C58.0653 43.7917 57.981 43.7711 57.8958 43.7712H44.7557Z" fill="white"/>
<path d="M87.0149 56.603C89.0081 56.603 90.6238 54.6282 90.6238 52.1921C90.6238 49.7561 89.0081 47.7812 87.0149 47.7812C85.0218 47.7812 83.406 49.7561 83.406 52.1921C83.406 54.6282 85.0218 56.603 87.0149 56.603Z" fill="#3F3D56"/>
<path d="M86.2673 54.197L85.01 52.3674L85.7412 51.7236L86.3365 52.59L88.3474 50.1871L89.0199 50.9083L86.2673 54.197Z" fill="white"/>
<path d="M80.198 8.46496L73.9965 10.0881L71.3762 4.43608L76.679 2.0683L80.198 8.46496Z" fill="#2F2E41"/>
<path d="M85.4147 47.7812L87.7475 45.3831L82.7164 32.5452L78.3203 26.4236L85.5028 29.9404L86.2502 38.8951L89.8218 40.2852L89.3589 29.1046C89.33 28.4073 89.1246 27.7342 88.7672 27.1652C88.4098 26.5962 87.9154 26.1554 87.3428 25.8952L81.4501 23.2175L80.3951 18.2075L74.2432 18.1079C72.3316 21.8708 71.4774 25.1825 72.8569 27.5412L79.258 34.6033L85.4147 47.7812Z" fill="#2F2E41"/>
<path d="M86.5707 46.1239C86.5707 46.1239 86.9506 45.193 87.5462 45.4073C88.1418 45.6216 89.81 46.707 89.81 46.707C89.81 46.707 92.5964 47.0302 90.8512 47.8581C89.1059 48.686 88.4232 48.6345 88.3675 48.5174C88.3118 48.4003 87.859 48.1404 87.859 48.1404L87.2006 48.4858L86.0895 48.5713C86.0895 48.5713 84.6347 46.5507 85.1028 46.4972C85.571 46.4436 86.595 46.5209 86.5707 46.1239Z" fill="#2F2E41"/>
<path d="M88.3764 39.1152C88.3764 39.1152 89.4515 38.8312 89.5499 39.4363C89.6482 40.0413 89.4634 42.0407 89.4634 42.0407C89.4634 42.0407 90.5677 44.4452 88.8989 43.5857C87.2302 42.7262 86.9334 42.1545 87.0162 42.037C87.0991 41.9195 87.1164 41.3986 87.1164 41.3986L86.4554 41.0951L85.8118 40.2708C85.8118 40.2708 86.9914 37.8533 87.2792 38.1896C87.567 38.5259 88.0122 39.3835 88.3764 39.1152Z" fill="#2F2E41"/>
<path d="M74.5842 7.68218C75.9129 7.68218 76.9901 6.60501 76.9901 5.27624C76.9901 3.94748 75.9129 2.8703 74.5842 2.8703C73.2554 2.8703 72.1782 3.94748 72.1782 5.27624C72.1782 6.60501 73.2554 7.68218 74.5842 7.68218Z" fill="#FFB9B9"/>
<path d="M74.4189 13.2961L80.198 12.4291C79.3353 10.8066 78.4459 9.32781 77.2505 9.49315C76.1871 8.71974 76.1257 7.47642 76.3947 6.07825L73.502 6.88175C73.7566 7.74363 73.6581 8.50043 72.9802 9.08474C73.9274 10.4703 74.5404 11.8689 74.4189 13.2961Z" fill="#FFB9B9"/>
<path d="M74.3294 18.7142C76.379 21.6086 78.481 22.7522 80.7408 18.6148L80.9272 16.7686C82.3773 14.785 81.9526 13.071 80.1842 11.5501L79.3313 9.37515L78.046 9.1504C78.2153 9.36248 78.3228 9.62421 78.355 9.90252C78.3872 10.1808 78.3426 10.4633 78.2269 10.7141C78.1112 10.965 77.9295 11.173 77.7048 11.3119C77.4802 11.4509 77.2226 11.5145 76.9646 11.4947L76.4999 11.4591C76.3277 11.4459 76.1596 11.3959 76.0053 11.3119C75.851 11.2279 75.7135 11.1117 75.6009 10.9698L73.6264 8.48413L72.7945 8.72532C72.7002 8.75266 72.6162 8.81122 72.554 8.89285C72.4919 8.97448 72.4548 9.07511 72.448 9.18069L72.1782 13.3231C73.3656 14.7498 74.0488 16.5736 74.3294 18.7142Z" fill="#E6E6E6"/>
<path d="M73.5874 17.0635L68.9848 16.0828L72.0417 13.098L70.8783 10.8901L65.9373 16.4048C65.8525 16.5062 65.7957 16.6299 65.7733 16.7627C65.7508 16.8956 65.7635 17.0323 65.8099 17.158C65.8564 17.2838 65.9348 17.3938 66.0367 17.476C66.1386 17.5583 66.26 17.6096 66.3877 17.6245L73.0793 18.4021L73.3538 19.6729C73.3904 19.8419 73.4651 19.9992 73.5718 20.1315C73.6785 20.2639 73.814 20.3673 73.9668 20.4331C74.1196 20.4988 74.2853 20.525 74.4498 20.5095C74.6143 20.4939 74.7728 20.437 74.9119 20.3436V20.3436C75.0407 20.2571 75.1495 20.1416 75.2304 20.0055C75.3113 19.8693 75.3622 19.716 75.3796 19.5566C75.3969 19.3972 75.3802 19.2357 75.3306 19.084C75.281 18.9322 75.1998 18.7939 75.093 18.6792L73.5874 17.0635Z" fill="#FFB9B9"/>
<path d="M80.1508 25.0961L79.4817 26.8108C79.4163 26.9783 79.3878 27.1576 79.398 27.3367C79.4083 27.5159 79.457 27.6909 79.5411 27.8501C79.6252 28.0093 79.7426 28.1492 79.8857 28.2605C80.0287 28.3717 80.1941 28.4518 80.371 28.4955V28.4955C80.5783 28.5467 80.7952 28.5464 81.0023 28.4946C81.2093 28.4427 81.4001 28.3411 81.5573 28.1987C81.7146 28.0563 81.8333 27.8777 81.903 27.6789C81.9726 27.4801 81.991 27.2673 81.9563 27.0599L81.6731 25.3636L82.6039 18.5795L81.772 14.098L79.8748 14.6713L80.5052 18.843L80.1508 25.0961Z" fill="#FFB9B9"/>
<path d="M79.9037 14.9L82.6039 13.8512L81.0989 10.567C80.9381 10.2162 80.6845 9.91548 80.3652 9.6972C80.0459 9.47891 79.673 9.35127 79.2864 9.32793L78.594 9.28613L79.9037 14.9Z" fill="#E6E6E6"/>
<path d="M70.8665 14.098L73.7821 12.9533L72.7541 8.8974C72.7209 8.7661 72.6483 8.65284 72.5496 8.57795C72.4508 8.50306 72.3322 8.47144 72.2152 8.48876V8.48876C72.1161 8.50341 72.0232 8.55233 71.9486 8.62915L68.9702 11.6935C69.54 12.7813 70.1466 12.8086 70.8665 14.098Z" fill="#E6E6E6"/>
<path d="M76.2916 0.885843C76.2916 0.885843 77.7217 1.17928 78.0524 3.12487C78.1041 3.45297 78.1135 3.78736 78.0804 4.11831C78.0473 4.49282 78.0952 5.28382 78.8407 6.21521C79.3271 6.8193 79.7803 7.45425 80.198 8.11673V8.11673L78.7037 8.55067L78.0361 5.84998C77.7124 4.54062 77.2138 3.29038 76.5562 2.13949L76.5425 2.11546C76.5425 2.11546 76.0462 3.56205 74.716 3.76037L75.1261 3.1713C75.1261 3.1713 73.5711 4.1519 72.6901 4.45146C72.5896 4.48567 72.4995 4.54915 72.4296 4.63507C72.3597 4.72099 72.3126 4.82609 72.2933 4.93905C72.2741 5.05202 72.2835 5.16856 72.3205 5.27612C72.3575 5.38369 72.4207 5.4782 72.5033 5.54948C72.5096 5.55485 72.5159 5.56021 72.5224 5.56558C73.1704 6.10248 74.4924 7.38358 73.9701 8.62288C73.4478 9.86217 74.0569 10.0881 74.0569 10.0881L72.9338 9.62204L72.4198 9.38192L72.4717 9.79652L69.9624 9.85387C69.9624 9.85387 69.2843 9.84937 70.4888 7.87486C70.4888 7.87486 70.7794 7.1345 70.5408 6.56889C70.3493 6.14055 70.254 5.66866 70.2627 5.1922C70.3386 3.20152 71.1073 -0.848315 76.2916 0.885843Z" fill="#2F2E41"/>
</svg>
