<svg width="180" height="136" viewBox="0 0 180 136" fill="none" xmlns="http://www.w3.org/2000/svg">
<path d="M4.66963 56.6983C5.09188 50.6589 13.6998 13.5465 74.8817 5.68618C89.5452 3.80232 110.446 7.30575 121.365 28.877C135.014 55.8411 158.614 33.6488 171.128 55.3316C177.624 66.5865 182.632 84.3132 147.549 113.072C112.466 141.831 96.5048 112.104 71.5579 117.73C46.611 123.355 46.7779 128.135 30.9415 125.294C15.1051 122.452 2.6187 86.0327 4.66963 56.6983Z" fill="#FFC791"/>
<g clip-path="url(#clip0)">
<path d="M73.8927 117C61.6807 117.011 49.9027 112.505 40.8565 104.361C40.812 104.321 40.7854 104.265 40.7825 104.205C40.7796 104.145 40.8006 104.087 40.8409 104.043C40.8813 103.999 40.9377 103.972 40.9977 103.969C41.0577 103.966 41.1165 103.987 41.1611 104.027C50.1239 112.096 61.7933 116.56 73.8927 116.55C90.8752 116.55 106.372 107.99 115.347 93.6525C115.363 93.6273 115.383 93.6055 115.408 93.5882C115.432 93.5709 115.459 93.5585 115.488 93.5517C115.517 93.5449 115.547 93.5439 115.577 93.5487C115.606 93.5535 115.634 93.564 115.66 93.5797C115.685 93.5953 115.707 93.6157 115.724 93.6398C115.742 93.6639 115.754 93.6911 115.761 93.72C115.768 93.7488 115.769 93.7787 115.764 93.8079C115.759 93.8371 115.748 93.8651 115.732 93.8902C111.318 100.961 105.158 106.795 97.8359 110.839C90.5137 114.884 82.2721 117.004 73.8927 117H73.8927Z" fill="#ED8E15"/>
<path d="M113.163 94.0451L113.278 94.4811L115.441 93.914L115.853 96.097L116.299 96.0135L115.797 93.355L113.163 94.0451Z" fill="#ED8E15"/>
<path d="M43.3694 103.795L43.3815 104.245L41.1452 104.302L41.3654 106.512L40.9134 106.556L40.646 103.864L43.3694 103.795Z" fill="#ED8E15"/>
<path d="M53.1024 62.5513V86.808C53.1025 86.8882 53.0866 86.9676 53.0557 87.0417C53.0248 87.1158 52.9796 87.1831 52.9225 87.2398C52.8654 87.2965 52.7976 87.3415 52.723 87.3722C52.6484 87.4029 52.5684 87.4187 52.4877 87.4187H11.0078C10.9782 87.419 10.9487 87.4167 10.9196 87.4119C10.7733 87.391 10.6395 87.3184 10.5427 87.2075C10.4459 87.0966 10.3926 86.9548 10.3926 86.808V62.5513C10.3925 62.3894 10.4573 62.2341 10.5726 62.1196C10.6878 62.0051 10.8442 61.9407 11.0073 61.9406H52.4873C52.568 61.9406 52.648 61.9564 52.7226 61.987C52.7972 62.0177 52.8651 62.0626 52.9222 62.1193C52.9793 62.176 53.0246 62.2433 53.0556 62.3173C53.0865 62.3914 53.1024 62.4708 53.1024 62.5509V62.5513Z" fill="white"/>
<path d="M20.8484 76.3632C23.8291 76.3632 26.2455 73.9645 26.2455 71.0055C26.2455 68.0465 23.8291 65.6478 20.8484 65.6478C17.8677 65.6478 15.4514 68.0465 15.4514 71.0055C15.4514 73.9645 17.8677 76.3632 20.8484 76.3632Z" fill="#ED8E15"/>
<path d="M37.7729 87.516H11.2967C11.2635 87.5164 11.2304 87.5138 11.1978 87.5082L23.7198 65.9763C23.7962 65.8422 23.9071 65.7307 24.0412 65.653C24.1753 65.5754 24.3277 65.5345 24.4829 65.5345C24.6381 65.5345 24.7905 65.5754 24.9246 65.653C25.0586 65.7307 25.1696 65.8422 25.246 65.9763L33.6498 80.4259L34.0524 81.1173L37.7729 87.516Z" fill="#3F3D56"/>
<path opacity="0.2" d="M37.7728 87.5159H28.7332L33.1706 81.1173L33.4902 80.6564L33.6497 80.4258L34.0524 81.1173L37.7728 87.5159Z" fill="black"/>
<path d="M52.5147 87.5159H29.615L34.0525 81.1172L34.3719 80.6563L40.1543 72.3176C40.5334 71.771 41.4454 71.737 41.8911 72.2145C41.9211 72.2471 41.9489 72.2815 41.9744 72.3176L52.5147 87.5159Z" fill="#3F3D56"/>
<path d="M55.4361 61.0194C55.2986 60.6414 55.0471 60.3146 54.7159 60.0834C54.3847 59.8522 53.9898 59.7279 53.5849 59.7273H9.96686C9.70854 59.7272 9.45273 59.7776 9.21406 59.8757C8.97538 59.9738 8.75852 60.1176 8.57586 60.2989C8.3932 60.4803 8.24832 60.6955 8.14952 60.9325C8.05071 61.1694 7.9999 61.4234 8 61.6798V95.9065C8.00074 96.4241 8.2082 96.9204 8.5769 97.2864C8.94559 97.6524 9.44544 97.8583 9.96686 97.8591H53.5849C54.1064 97.8583 54.6062 97.6524 54.9749 97.2864C55.3436 96.9204 55.5511 96.4241 55.5518 95.9065V61.6798C55.5522 61.4547 55.513 61.2312 55.4361 61.0194ZM55.3204 95.9065C55.3198 96.3633 55.1368 96.8012 54.8115 97.1241C54.4861 97.4471 54.045 97.6288 53.5849 97.6294H9.96686C9.50676 97.6288 9.06566 97.4471 8.74031 97.1241C8.41497 96.8012 8.23195 96.3633 8.23139 95.9065V61.6798C8.23195 61.223 8.41497 60.7852 8.74031 60.4622C9.06566 60.1392 9.50675 59.9575 9.96686 59.957H53.5849C54.045 59.9575 54.4861 60.1392 54.8115 60.4622C55.1368 60.7852 55.3198 61.223 55.3204 61.6798V95.9065Z" fill="#3F3D56"/>
<path d="M151.123 31.4696V69.8601C151.123 69.987 151.098 70.1126 151.049 70.2299C151 70.3471 150.929 70.4536 150.838 70.5434C150.748 70.6331 150.641 70.7043 150.523 70.7529C150.405 70.8015 150.278 70.8266 150.15 70.8266H84.501C84.4542 70.827 84.4076 70.8234 84.3614 70.8158C84.1299 70.7827 83.9181 70.6679 83.7649 70.4924C83.6117 70.3168 83.5273 70.0923 83.5273 69.8601V31.4696C83.5273 31.3427 83.5524 31.217 83.6013 31.0998C83.6502 30.9825 83.7218 30.876 83.8122 30.7862C83.9025 30.6965 84.0098 30.6253 84.1279 30.5767C84.2459 30.5281 84.3725 30.5031 84.5003 30.503H150.15C150.277 30.503 150.404 30.5279 150.522 30.5764C150.64 30.625 150.748 30.6961 150.838 30.7858C150.928 30.8755 151 30.982 151.049 31.0992C151.098 31.2164 151.123 31.342 151.123 31.4689V31.4696Z" fill="white"/>
<path d="M100.076 53.3293C104.793 53.3293 108.617 49.5329 108.617 44.8498C108.617 40.1667 104.793 36.3703 100.076 36.3703C95.3582 36.3703 91.5339 40.1667 91.5339 44.8498C91.5339 49.5329 95.3582 53.3293 100.076 53.3293Z" fill="#ED8E15"/>
<path d="M126.862 70.9805H84.9583C84.9059 70.9812 84.8535 70.9771 84.8018 70.9682L104.62 36.8902C104.741 36.6779 104.917 36.5014 105.129 36.3785C105.341 36.2557 105.582 36.1909 105.828 36.1909C106.073 36.1909 106.315 36.2557 106.527 36.3785C106.739 36.5014 106.915 36.6779 107.036 36.8902L120.336 59.7592L120.973 60.8535L126.862 70.9805Z" fill="#3F3D56"/>
<path opacity="0.2" d="M126.862 70.9805H112.555L119.578 60.8535L120.084 60.124L120.336 59.7591L120.973 60.8535L126.862 70.9805Z" fill="black"/>
<path d="M150.193 70.9805H113.95L120.973 60.8534L121.479 60.1239L130.631 46.9264C131.231 46.0615 132.674 46.0076 133.379 46.7633C133.427 46.8148 133.471 46.8693 133.511 46.9264L150.193 70.9805Z" fill="#3F3D56"/>
<path d="M154.817 29.045C154.599 28.4467 154.201 27.9295 153.677 27.5636C153.153 27.1977 152.528 27.0009 151.887 27H82.8539C82.445 26.9998 82.0402 27.0797 81.6624 27.2349C81.2847 27.3902 80.9415 27.6178 80.6524 27.9048C80.3633 28.1917 80.134 28.5325 79.9776 28.9075C79.8212 29.2825 79.7408 29.6844 79.741 30.0902V84.2601C79.7421 85.0793 80.0705 85.8646 80.654 86.4439C81.2375 87.0232 82.0286 87.3491 82.8539 87.3503H151.887C152.712 87.3491 153.504 87.0232 154.087 86.4439C154.671 85.8646 154.999 85.0793 155 84.2601V30.0902C155.001 29.7339 154.939 29.3802 154.817 29.045V29.045ZM154.634 84.2601C154.633 84.983 154.343 85.676 153.828 86.1871C153.313 86.6983 152.615 86.9859 151.887 86.9867H82.8539C82.1257 86.9859 81.4276 86.6983 80.9127 86.1871C80.3977 85.676 80.1081 84.983 80.1072 84.2601V30.0902C80.1081 29.3673 80.3977 28.6743 80.9127 28.1632C81.4276 27.652 82.1257 27.3644 82.8539 27.3636H151.887C152.615 27.3644 153.313 27.652 153.828 28.1632C154.343 28.6743 154.633 29.3673 154.634 30.0902V84.2601Z" fill="#3F3D56"/>
</g>
<defs>
<clipPath id="clip0">
<rect width="147" height="90" fill="white" transform="translate(8 27)"/>
</clipPath>
</defs>
</svg>
