<svg width="171" height="151" viewBox="0 0 171 151" fill="none" xmlns="http://www.w3.org/2000/svg">
<path d="M121.987 121.155C154.235 142.195 157.319 107.306 150.262 94.8174C139.356 75.5163 127.104 76.0335 141.318 72.1277C147.133 70.5299 157.015 62.6124 150.023 43.7244C141.282 20.1144 98.0491 20.7728 95.6086 31.816C93.6562 40.6506 57.7428 43.8853 40.0301 44.3983C20.5481 45.5949 -8.72795 58.5225 30.0241 100.66C78.4643 153.331 79.4302 121.499 79.6997 123.026C79.9691 124.553 81.6773 94.8543 121.987 121.155Z" fill="#FFC791"/>
<g clip-path="url(#clip0)">
<path d="M159.931 143H113.482V142.618H160L159.931 143Z" fill="#3F3D56"/>
<path d="M20.2271 30.4719C20.9053 30.4719 21.455 29.9187 21.455 29.2363C21.455 28.5539 20.9053 28.0007 20.2271 28.0007C19.549 28.0007 18.9993 28.5539 18.9993 29.2363C18.9993 29.9187 19.549 30.4719 20.2271 30.4719Z" fill="#E6E6E6"/>
<path d="M26.4432 30.4714C27.1214 30.4714 27.6711 29.9182 27.6711 29.2357C27.6711 28.5533 27.1214 28.0001 26.4432 28.0001C25.7651 28.0001 25.2153 28.5533 25.2153 29.2357C25.2153 29.9182 25.7651 30.4714 26.4432 30.4714Z" fill="#E6E6E6"/>
<path d="M32.6588 30.4714C33.3369 30.4714 33.8867 29.9182 33.8867 29.2357C33.8867 28.5533 33.3369 28.0001 32.6588 28.0001C31.9806 28.0001 31.4309 28.5533 31.4309 29.2357C31.4309 29.9182 31.9806 30.4714 32.6588 30.4714Z" fill="#E6E6E6"/>
<path d="M38.8744 30.4714C39.5525 30.4714 40.1022 29.9182 40.1022 29.2357C40.1022 28.5533 39.5525 28.0001 38.8744 28.0001C38.1962 28.0001 37.6465 28.5533 37.6465 29.2357C37.6465 29.9182 38.1962 30.4714 38.8744 30.4714Z" fill="#E6E6E6"/>
<path d="M45.0899 30.4714C45.7681 30.4714 46.3178 29.9182 46.3178 29.2357C46.3178 28.5533 45.7681 28.0001 45.0899 28.0001C44.4118 28.0001 43.8621 28.5533 43.8621 29.2357C43.8621 29.9182 44.4118 30.4714 45.0899 30.4714Z" fill="#E6E6E6"/>
<path d="M51.3053 30.4714C51.9834 30.4714 52.5332 29.9182 52.5332 29.2357C52.5332 28.5533 51.9834 28.0001 51.3053 28.0001C50.6271 28.0001 50.0774 28.5533 50.0774 29.2357C50.0774 29.9182 50.6271 30.4714 51.3053 30.4714Z" fill="#E6E6E6"/>
<path d="M57.5209 30.4714C58.199 30.4714 58.7487 29.9182 58.7487 29.2357C58.7487 28.5533 58.199 28.0001 57.5209 28.0001C56.8427 28.0001 56.293 28.5533 56.293 29.2357C56.293 29.9182 56.8427 30.4714 57.5209 30.4714Z" fill="#E6E6E6"/>
<path d="M63.7362 30.4714C64.4143 30.4714 64.9641 29.9182 64.9641 29.2357C64.9641 28.5533 64.4143 28.0001 63.7362 28.0001C63.058 28.0001 62.5083 28.5533 62.5083 29.2357C62.5083 29.9182 63.058 30.4714 63.7362 30.4714Z" fill="#E6E6E6"/>
<path d="M69.9518 30.4714C70.6299 30.4714 71.1796 29.9182 71.1796 29.2357C71.1796 28.5533 70.6299 28.0001 69.9518 28.0001C69.2736 28.0001 68.7239 28.5533 68.7239 29.2357C68.7239 29.9182 69.2736 30.4714 69.9518 30.4714Z" fill="#E6E6E6"/>
<path d="M76.1673 30.4714C76.8455 30.4714 77.3952 29.9182 77.3952 29.2357C77.3952 28.5533 76.8455 28.0001 76.1673 28.0001C75.4892 28.0001 74.9395 28.5533 74.9395 29.2357C74.9395 29.9182 75.4892 30.4714 76.1673 30.4714Z" fill="#E6E6E6"/>
<path d="M20.2279 36.8046C20.906 36.8046 21.4558 36.2514 21.4558 35.569C21.4558 34.8865 20.906 34.3333 20.2279 34.3333C19.5497 34.3333 19 34.8865 19 35.569C19 36.2514 19.5497 36.8046 20.2279 36.8046Z" fill="#E6E6E6"/>
<path d="M26.4432 36.8046C27.1214 36.8046 27.6711 36.2514 27.6711 35.569C27.6711 34.8865 27.1214 34.3333 26.4432 34.3333C25.7651 34.3333 25.2153 34.8865 25.2153 35.569C25.2153 36.2514 25.7651 36.8046 26.4432 36.8046Z" fill="#E6E6E6"/>
<path d="M32.6588 36.8046C33.3369 36.8046 33.8867 36.2514 33.8867 35.569C33.8867 34.8865 33.3369 34.3333 32.6588 34.3333C31.9806 34.3333 31.4309 34.8865 31.4309 35.569C31.4309 36.2514 31.9806 36.8046 32.6588 36.8046Z" fill="#E6E6E6"/>
<path d="M38.8744 36.8046C39.5525 36.8046 40.1022 36.2514 40.1022 35.569C40.1022 34.8865 39.5525 34.3333 38.8744 34.3333C38.1962 34.3333 37.6465 34.8865 37.6465 35.569C37.6465 36.2514 38.1962 36.8046 38.8744 36.8046Z" fill="#F9A826"/>
<path d="M45.0899 36.8046C45.7681 36.8046 46.3178 36.2514 46.3178 35.569C46.3178 34.8865 45.7681 34.3333 45.0899 34.3333C44.4118 34.3333 43.8621 34.8865 43.8621 35.569C43.8621 36.2514 44.4118 36.8046 45.0899 36.8046Z" fill="#E6E6E6"/>
<path d="M51.3053 36.8046C51.9834 36.8046 52.5332 36.2514 52.5332 35.569C52.5332 34.8865 51.9834 34.3333 51.3053 34.3333C50.6271 34.3333 50.0774 34.8865 50.0774 35.569C50.0774 36.2514 50.6271 36.8046 51.3053 36.8046Z" fill="#E6E6E6"/>
<path d="M57.5209 36.8046C58.199 36.8046 58.7487 36.2514 58.7487 35.569C58.7487 34.8865 58.199 34.3333 57.5209 34.3333C56.8427 34.3333 56.293 34.8865 56.293 35.569C56.293 36.2514 56.8427 36.8046 57.5209 36.8046Z" fill="#E6E6E6"/>
<path d="M63.7362 36.8046C64.4143 36.8046 64.9641 36.2514 64.9641 35.569C64.9641 34.8865 64.4143 34.3333 63.7362 34.3333C63.058 34.3333 62.5083 34.8865 62.5083 35.569C62.5083 36.2514 63.058 36.8046 63.7362 36.8046Z" fill="#E6E6E6"/>
<path d="M69.9518 36.8046C70.6299 36.8046 71.1796 36.2514 71.1796 35.569C71.1796 34.8865 70.6299 34.3333 69.9518 34.3333C69.2736 34.3333 68.7239 34.8865 68.7239 35.569C68.7239 36.2514 69.2736 36.8046 69.9518 36.8046Z" fill="#E6E6E6"/>
<path d="M76.1673 36.8046C76.8455 36.8046 77.3952 36.2514 77.3952 35.569C77.3952 34.8865 76.8455 34.3333 76.1673 34.3333C75.4892 34.3333 74.9395 34.8865 74.9395 35.569C74.9395 36.2514 75.4892 36.8046 76.1673 36.8046Z" fill="#E6E6E6"/>
<path d="M20.2279 43.1377C20.906 43.1377 21.4558 42.5845 21.4558 41.9021C21.4558 41.2197 20.906 40.6665 20.2279 40.6665C19.5497 40.6665 19 41.2197 19 41.9021C19 42.5845 19.5497 43.1377 20.2279 43.1377Z" fill="#E6E6E6"/>
<path d="M26.4432 43.1377C27.1214 43.1377 27.6711 42.5845 27.6711 41.9021C27.6711 41.2197 27.1214 40.6665 26.4432 40.6665C25.7651 40.6665 25.2153 41.2197 25.2153 41.9021C25.2153 42.5845 25.7651 43.1377 26.4432 43.1377Z" fill="#E6E6E6"/>
<path d="M32.6588 43.1377C33.3369 43.1377 33.8867 42.5845 33.8867 41.9021C33.8867 41.2197 33.3369 40.6665 32.6588 40.6665C31.9806 40.6665 31.4309 41.2197 31.4309 41.9021C31.4309 42.5845 31.9806 43.1377 32.6588 43.1377Z" fill="#E6E6E6"/>
<path d="M38.8744 43.1377C39.5525 43.1377 40.1022 42.5845 40.1022 41.9021C40.1022 41.2197 39.5525 40.6665 38.8744 40.6665C38.1962 40.6665 37.6465 41.2197 37.6465 41.9021C37.6465 42.5845 38.1962 43.1377 38.8744 43.1377Z" fill="#E6E6E6"/>
<path d="M45.0899 43.1377C45.7681 43.1377 46.3178 42.5845 46.3178 41.9021C46.3178 41.2197 45.7681 40.6665 45.0899 40.6665C44.4118 40.6665 43.8621 41.2197 43.8621 41.9021C43.8621 42.5845 44.4118 43.1377 45.0899 43.1377Z" fill="#E6E6E6"/>
<path d="M51.3053 43.1377C51.9834 43.1377 52.5332 42.5845 52.5332 41.9021C52.5332 41.2197 51.9834 40.6665 51.3053 40.6665C50.6271 40.6665 50.0774 41.2197 50.0774 41.9021C50.0774 42.5845 50.6271 43.1377 51.3053 43.1377Z" fill="#E6E6E6"/>
<path d="M57.5209 43.1377C58.199 43.1377 58.7487 42.5845 58.7487 41.9021C58.7487 41.2197 58.199 40.6665 57.5209 40.6665C56.8427 40.6665 56.293 41.2197 56.293 41.9021C56.293 42.5845 56.8427 43.1377 57.5209 43.1377Z" fill="#E6E6E6"/>
<path d="M63.7362 43.1377C64.4143 43.1377 64.9641 42.5845 64.9641 41.9021C64.9641 41.2197 64.4143 40.6665 63.7362 40.6665C63.058 40.6665 62.5083 41.2197 62.5083 41.9021C62.5083 42.5845 63.058 43.1377 63.7362 43.1377Z" fill="#E6E6E6"/>
<path d="M69.9518 43.1377C70.6299 43.1377 71.1796 42.5845 71.1796 41.9021C71.1796 41.2197 70.6299 40.6665 69.9518 40.6665C69.2736 40.6665 68.7239 41.2197 68.7239 41.9021C68.7239 42.5845 69.2736 43.1377 69.9518 43.1377Z" fill="#E6E6E6"/>
<path d="M76.1673 43.1377C76.8455 43.1377 77.3952 42.5845 77.3952 41.9021C77.3952 41.2197 76.8455 40.6665 76.1673 40.6665C75.4892 40.6665 74.9395 41.2197 74.9395 41.9021C74.9395 42.5845 75.4892 43.1377 76.1673 43.1377Z" fill="#E6E6E6"/>
<path d="M20.2279 49.471C20.906 49.471 21.4558 48.9178 21.4558 48.2353C21.4558 47.5529 20.906 46.9997 20.2279 46.9997C19.5497 46.9997 19 47.5529 19 48.2353C19 48.9178 19.5497 49.471 20.2279 49.471Z" fill="#E6E6E6"/>
<path d="M26.4432 49.471C27.1214 49.471 27.6711 48.9178 27.6711 48.2353C27.6711 47.5529 27.1214 46.9997 26.4432 46.9997C25.7651 46.9997 25.2153 47.5529 25.2153 48.2353C25.2153 48.9178 25.7651 49.471 26.4432 49.471Z" fill="#E6E6E6"/>
<path d="M32.6588 49.471C33.3369 49.471 33.8867 48.9178 33.8867 48.2353C33.8867 47.5529 33.3369 46.9997 32.6588 46.9997C31.9806 46.9997 31.4309 47.5529 31.4309 48.2353C31.4309 48.9178 31.9806 49.471 32.6588 49.471Z" fill="#E6E6E6"/>
<path d="M38.8744 49.471C39.5525 49.471 40.1022 48.9178 40.1022 48.2353C40.1022 47.5529 39.5525 46.9997 38.8744 46.9997C38.1962 46.9997 37.6465 47.5529 37.6465 48.2353C37.6465 48.9178 38.1962 49.471 38.8744 49.471Z" fill="#E6E6E6"/>
<path d="M45.0899 49.471C45.7681 49.471 46.3178 48.9178 46.3178 48.2353C46.3178 47.5529 45.7681 46.9997 45.0899 46.9997C44.4118 46.9997 43.8621 47.5529 43.8621 48.2353C43.8621 48.9178 44.4118 49.471 45.0899 49.471Z" fill="#E6E6E6"/>
<path d="M51.3053 49.471C51.9834 49.471 52.5332 48.9178 52.5332 48.2353C52.5332 47.5529 51.9834 46.9997 51.3053 46.9997C50.6271 46.9997 50.0774 47.5529 50.0774 48.2353C50.0774 48.9178 50.6271 49.471 51.3053 49.471Z" fill="#E6E6E6"/>
<path d="M57.5209 49.471C58.199 49.471 58.7487 48.9178 58.7487 48.2353C58.7487 47.5529 58.199 46.9997 57.5209 46.9997C56.8427 46.9997 56.293 47.5529 56.293 48.2353C56.293 48.9178 56.8427 49.471 57.5209 49.471Z" fill="#E6E6E6"/>
<path d="M63.7362 49.471C64.4143 49.471 64.9641 48.9178 64.9641 48.2353C64.9641 47.5529 64.4143 46.9997 63.7362 46.9997C63.058 46.9997 62.5083 47.5529 62.5083 48.2353C62.5083 48.9178 63.058 49.471 63.7362 49.471Z" fill="#E6E6E6"/>
<path d="M69.9518 49.471C70.6299 49.471 71.1796 48.9178 71.1796 48.2353C71.1796 47.5529 70.6299 46.9997 69.9518 46.9997C69.2736 46.9997 68.7239 47.5529 68.7239 48.2353C68.7239 48.9178 69.2736 49.471 69.9518 49.471Z" fill="#E6E6E6"/>
<path d="M76.1673 49.471C76.8455 49.471 77.3952 48.9178 77.3952 48.2353C77.3952 47.5529 76.8455 46.9997 76.1673 46.9997C75.4892 46.9997 74.9395 47.5529 74.9395 48.2353C74.9395 48.9178 75.4892 49.471 76.1673 49.471Z" fill="#E6E6E6"/>
<path d="M20.2279 55.8042C20.906 55.8042 21.4558 55.251 21.4558 54.5686C21.4558 53.8862 20.906 53.3329 20.2279 53.3329C19.5497 53.3329 19 53.8862 19 54.5686C19 55.251 19.5497 55.8042 20.2279 55.8042Z" fill="#E6E6E6"/>
<path d="M26.4432 55.8042C27.1214 55.8042 27.6711 55.251 27.6711 54.5686C27.6711 53.8862 27.1214 53.3329 26.4432 53.3329C25.7651 53.3329 25.2153 53.8862 25.2153 54.5686C25.2153 55.251 25.7651 55.8042 26.4432 55.8042Z" fill="#F9A826"/>
<path d="M32.6588 55.8042C33.3369 55.8042 33.8867 55.251 33.8867 54.5686C33.8867 53.8862 33.3369 53.3329 32.6588 53.3329C31.9806 53.3329 31.4309 53.8862 31.4309 54.5686C31.4309 55.251 31.9806 55.8042 32.6588 55.8042Z" fill="#E6E6E6"/>
<path d="M38.8744 55.8042C39.5525 55.8042 40.1022 55.251 40.1022 54.5686C40.1022 53.8862 39.5525 53.3329 38.8744 53.3329C38.1962 53.3329 37.6465 53.8862 37.6465 54.5686C37.6465 55.251 38.1962 55.8042 38.8744 55.8042Z" fill="#E6E6E6"/>
<path d="M45.0899 55.8042C45.7681 55.8042 46.3178 55.251 46.3178 54.5686C46.3178 53.8862 45.7681 53.3329 45.0899 53.3329C44.4118 53.3329 43.8621 53.8862 43.8621 54.5686C43.8621 55.251 44.4118 55.8042 45.0899 55.8042Z" fill="#E6E6E6"/>
<path d="M51.3053 55.8042C51.9834 55.8042 52.5332 55.251 52.5332 54.5686C52.5332 53.8862 51.9834 53.3329 51.3053 53.3329C50.6271 53.3329 50.0774 53.8862 50.0774 54.5686C50.0774 55.251 50.6271 55.8042 51.3053 55.8042Z" fill="#E6E6E6"/>
<path d="M57.5209 55.8042C58.199 55.8042 58.7487 55.251 58.7487 54.5686C58.7487 53.8862 58.199 53.3329 57.5209 53.3329C56.8427 53.3329 56.293 53.8862 56.293 54.5686C56.293 55.251 56.8427 55.8042 57.5209 55.8042Z" fill="#E6E6E6"/>
<path d="M63.7362 55.8042C64.4143 55.8042 64.9641 55.251 64.9641 54.5686C64.9641 53.8862 64.4143 53.3329 63.7362 53.3329C63.058 53.3329 62.5083 53.8862 62.5083 54.5686C62.5083 55.251 63.058 55.8042 63.7362 55.8042Z" fill="#E6E6E6"/>
<path d="M69.9518 55.8042C70.6299 55.8042 71.1796 55.251 71.1796 54.5686C71.1796 53.8862 70.6299 53.3329 69.9518 53.3329C69.2736 53.3329 68.7239 53.8862 68.7239 54.5686C68.7239 55.251 69.2736 55.8042 69.9518 55.8042Z" fill="#E6E6E6"/>
<path d="M76.1673 55.8042C76.8455 55.8042 77.3952 55.251 77.3952 54.5686C77.3952 53.8862 76.8455 53.3329 76.1673 53.3329C75.4892 53.3329 74.9395 53.8862 74.9395 54.5686C74.9395 55.251 75.4892 55.8042 76.1673 55.8042Z" fill="#E6E6E6"/>
<path d="M20.2279 62.1374C20.906 62.1374 21.4558 61.5842 21.4558 60.9018C21.4558 60.2193 20.906 59.6661 20.2279 59.6661C19.5497 59.6661 19 60.2193 19 60.9018C19 61.5842 19.5497 62.1374 20.2279 62.1374Z" fill="#E6E6E6"/>
<path d="M26.4432 62.1374C27.1214 62.1374 27.6711 61.5842 27.6711 60.9018C27.6711 60.2193 27.1214 59.6661 26.4432 59.6661C25.7651 59.6661 25.2153 60.2193 25.2153 60.9018C25.2153 61.5842 25.7651 62.1374 26.4432 62.1374Z" fill="#E6E6E6"/>
<path d="M32.6588 62.1374C33.3369 62.1374 33.8867 61.5842 33.8867 60.9018C33.8867 60.2193 33.3369 59.6661 32.6588 59.6661C31.9806 59.6661 31.4309 60.2193 31.4309 60.9018C31.4309 61.5842 31.9806 62.1374 32.6588 62.1374Z" fill="#E6E6E6"/>
<path d="M38.8744 62.1374C39.5525 62.1374 40.1022 61.5842 40.1022 60.9018C40.1022 60.2193 39.5525 59.6661 38.8744 59.6661C38.1962 59.6661 37.6465 60.2193 37.6465 60.9018C37.6465 61.5842 38.1962 62.1374 38.8744 62.1374Z" fill="#E6E6E6"/>
<path d="M45.0899 62.1374C45.7681 62.1374 46.3178 61.5842 46.3178 60.9018C46.3178 60.2193 45.7681 59.6661 45.0899 59.6661C44.4118 59.6661 43.8621 60.2193 43.8621 60.9018C43.8621 61.5842 44.4118 62.1374 45.0899 62.1374Z" fill="#E6E6E6"/>
<path d="M51.3053 62.1374C51.9834 62.1374 52.5332 61.5842 52.5332 60.9018C52.5332 60.2193 51.9834 59.6661 51.3053 59.6661C50.6271 59.6661 50.0774 60.2193 50.0774 60.9018C50.0774 61.5842 50.6271 62.1374 51.3053 62.1374Z" fill="#E6E6E6"/>
<path d="M57.5209 62.1374C58.199 62.1374 58.7487 61.5842 58.7487 60.9018C58.7487 60.2193 58.199 59.6661 57.5209 59.6661C56.8427 59.6661 56.293 60.2193 56.293 60.9018C56.293 61.5842 56.8427 62.1374 57.5209 62.1374Z" fill="#E6E6E6"/>
<path d="M63.7362 62.1374C64.4143 62.1374 64.9641 61.5842 64.9641 60.9018C64.9641 60.2193 64.4143 59.6661 63.7362 59.6661C63.058 59.6661 62.5083 60.2193 62.5083 60.9018C62.5083 61.5842 63.058 62.1374 63.7362 62.1374Z" fill="#E6E6E6"/>
<path d="M69.9518 62.1374C70.6299 62.1374 71.1796 61.5842 71.1796 60.9018C71.1796 60.2193 70.6299 59.6661 69.9518 59.6661C69.2736 59.6661 68.7239 60.2193 68.7239 60.9018C68.7239 61.5842 69.2736 62.1374 69.9518 62.1374Z" fill="#E6E6E6"/>
<path d="M76.1673 62.1374C76.8455 62.1374 77.3952 61.5842 77.3952 60.9018C77.3952 60.2193 76.8455 59.6661 76.1673 59.6661C75.4892 59.6661 74.9395 60.2193 74.9395 60.9018C74.9395 61.5842 75.4892 62.1374 76.1673 62.1374Z" fill="#E6E6E6"/>
<path d="M20.2279 68.4706C20.906 68.4706 21.4558 67.9174 21.4558 67.2349C21.4558 66.5525 20.906 65.9993 20.2279 65.9993C19.5497 65.9993 19 66.5525 19 67.2349C19 67.9174 19.5497 68.4706 20.2279 68.4706Z" fill="#E6E6E6"/>
<path d="M26.4432 68.4706C27.1214 68.4706 27.6711 67.9174 27.6711 67.2349C27.6711 66.5525 27.1214 65.9993 26.4432 65.9993C25.7651 65.9993 25.2153 66.5525 25.2153 67.2349C25.2153 67.9174 25.7651 68.4706 26.4432 68.4706Z" fill="#E6E6E6"/>
<path d="M32.6588 68.4706C33.3369 68.4706 33.8867 67.9174 33.8867 67.2349C33.8867 66.5525 33.3369 65.9993 32.6588 65.9993C31.9806 65.9993 31.4309 66.5525 31.4309 67.2349C31.4309 67.9174 31.9806 68.4706 32.6588 68.4706Z" fill="#F9A826"/>
<path d="M38.8744 68.4706C39.5525 68.4706 40.1022 67.9174 40.1022 67.2349C40.1022 66.5525 39.5525 65.9993 38.8744 65.9993C38.1962 65.9993 37.6465 66.5525 37.6465 67.2349C37.6465 67.9174 38.1962 68.4706 38.8744 68.4706Z" fill="#E6E6E6"/>
<path d="M45.0899 68.4706C45.7681 68.4706 46.3178 67.9174 46.3178 67.2349C46.3178 66.5525 45.7681 65.9993 45.0899 65.9993C44.4118 65.9993 43.8621 66.5525 43.8621 67.2349C43.8621 67.9174 44.4118 68.4706 45.0899 68.4706Z" fill="#E6E6E6"/>
<path d="M51.3053 68.4706C51.9834 68.4706 52.5332 67.9174 52.5332 67.2349C52.5332 66.5525 51.9834 65.9993 51.3053 65.9993C50.6271 65.9993 50.0774 66.5525 50.0774 67.2349C50.0774 67.9174 50.6271 68.4706 51.3053 68.4706Z" fill="#E6E6E6"/>
<path d="M57.5209 68.4706C58.199 68.4706 58.7487 67.9174 58.7487 67.2349C58.7487 66.5525 58.199 65.9993 57.5209 65.9993C56.8427 65.9993 56.293 66.5525 56.293 67.2349C56.293 67.9174 56.8427 68.4706 57.5209 68.4706Z" fill="#E6E6E6"/>
<path d="M63.7362 68.4706C64.4143 68.4706 64.9641 67.9174 64.9641 67.2349C64.9641 66.5525 64.4143 65.9993 63.7362 65.9993C63.058 65.9993 62.5083 66.5525 62.5083 67.2349C62.5083 67.9174 63.058 68.4706 63.7362 68.4706Z" fill="#E6E6E6"/>
<path d="M69.9518 68.4706C70.6299 68.4706 71.1796 67.9174 71.1796 67.2349C71.1796 66.5525 70.6299 65.9993 69.9518 65.9993C69.2736 65.9993 68.7239 66.5525 68.7239 67.2349C68.7239 67.9174 69.2736 68.4706 69.9518 68.4706Z" fill="#E6E6E6"/>
<path d="M76.1673 68.4706C76.8455 68.4706 77.3952 67.9174 77.3952 67.2349C77.3952 66.5525 76.8455 65.9993 76.1673 65.9993C75.4892 65.9993 74.9395 66.5525 74.9395 67.2349C74.9395 67.9174 75.4892 68.4706 76.1673 68.4706Z" fill="#E6E6E6"/>
<path d="M20.2279 74.8038C20.906 74.8038 21.4558 74.2506 21.4558 73.5681C21.4558 72.8857 20.906 72.3325 20.2279 72.3325C19.5497 72.3325 19 72.8857 19 73.5681C19 74.2506 19.5497 74.8038 20.2279 74.8038Z" fill="#E6E6E6"/>
<path d="M26.4432 74.8038C27.1214 74.8038 27.6711 74.2506 27.6711 73.5681C27.6711 72.8857 27.1214 72.3325 26.4432 72.3325C25.7651 72.3325 25.2153 72.8857 25.2153 73.5681C25.2153 74.2506 25.7651 74.8038 26.4432 74.8038Z" fill="#E6E6E6"/>
<path d="M32.6588 74.8038C33.3369 74.8038 33.8867 74.2506 33.8867 73.5681C33.8867 72.8857 33.3369 72.3325 32.6588 72.3325C31.9806 72.3325 31.4309 72.8857 31.4309 73.5681C31.4309 74.2506 31.9806 74.8038 32.6588 74.8038Z" fill="#E6E6E6"/>
<path d="M38.8744 74.8038C39.5525 74.8038 40.1022 74.2506 40.1022 73.5681C40.1022 72.8857 39.5525 72.3325 38.8744 72.3325C38.1962 72.3325 37.6465 72.8857 37.6465 73.5681C37.6465 74.2506 38.1962 74.8038 38.8744 74.8038Z" fill="#E6E6E6"/>
<path d="M45.0899 74.8038C45.7681 74.8038 46.3178 74.2506 46.3178 73.5681C46.3178 72.8857 45.7681 72.3325 45.0899 72.3325C44.4118 72.3325 43.8621 72.8857 43.8621 73.5681C43.8621 74.2506 44.4118 74.8038 45.0899 74.8038Z" fill="#E6E6E6"/>
<path d="M51.3053 74.8038C51.9834 74.8038 52.5332 74.2506 52.5332 73.5681C52.5332 72.8857 51.9834 72.3325 51.3053 72.3325C50.6271 72.3325 50.0774 72.8857 50.0774 73.5681C50.0774 74.2506 50.6271 74.8038 51.3053 74.8038Z" fill="#E6E6E6"/>
<path d="M57.5209 74.8038C58.199 74.8038 58.7487 74.2506 58.7487 73.5681C58.7487 72.8857 58.199 72.3325 57.5209 72.3325C56.8427 72.3325 56.293 72.8857 56.293 73.5681C56.293 74.2506 56.8427 74.8038 57.5209 74.8038Z" fill="#E6E6E6"/>
<path d="M63.7362 74.8038C64.4143 74.8038 64.9641 74.2506 64.9641 73.5681C64.9641 72.8857 64.4143 72.3325 63.7362 72.3325C63.058 72.3325 62.5083 72.8857 62.5083 73.5681C62.5083 74.2506 63.058 74.8038 63.7362 74.8038Z" fill="#E6E6E6"/>
<path d="M69.9518 74.8038C70.6299 74.8038 71.1796 74.2506 71.1796 73.5681C71.1796 72.8857 70.6299 72.3325 69.9518 72.3325C69.2736 72.3325 68.7239 72.8857 68.7239 73.5681C68.7239 74.2506 69.2736 74.8038 69.9518 74.8038Z" fill="#E6E6E6"/>
<path d="M76.1673 74.8038C76.8455 74.8038 77.3952 74.2506 77.3952 73.5681C77.3952 72.8857 76.8455 72.3325 76.1673 72.3325C75.4892 72.3325 74.9395 72.8857 74.9395 73.5681C74.9395 74.2506 75.4892 74.8038 76.1673 74.8038Z" fill="#E6E6E6"/>
<path d="M20.2279 81.137C20.906 81.137 21.4558 80.5837 21.4558 79.9013C21.4558 79.2189 20.906 78.6657 20.2279 78.6657C19.5497 78.6657 19 79.2189 19 79.9013C19 80.5837 19.5497 81.137 20.2279 81.137Z" fill="#E6E6E6"/>
<path d="M26.4432 81.137C27.1214 81.137 27.6711 80.5837 27.6711 79.9013C27.6711 79.2189 27.1214 78.6657 26.4432 78.6657C25.7651 78.6657 25.2153 79.2189 25.2153 79.9013C25.2153 80.5837 25.7651 81.137 26.4432 81.137Z" fill="#E6E6E6"/>
<path d="M32.6588 81.137C33.3369 81.137 33.8867 80.5837 33.8867 79.9013C33.8867 79.2189 33.3369 78.6657 32.6588 78.6657C31.9806 78.6657 31.4309 79.2189 31.4309 79.9013C31.4309 80.5837 31.9806 81.137 32.6588 81.137Z" fill="#E6E6E6"/>
<path d="M38.8744 81.137C39.5525 81.137 40.1022 80.5837 40.1022 79.9013C40.1022 79.2189 39.5525 78.6657 38.8744 78.6657C38.1962 78.6657 37.6465 79.2189 37.6465 79.9013C37.6465 80.5837 38.1962 81.137 38.8744 81.137Z" fill="#E6E6E6"/>
<path d="M45.0899 81.137C45.7681 81.137 46.3178 80.5837 46.3178 79.9013C46.3178 79.2189 45.7681 78.6657 45.0899 78.6657C44.4118 78.6657 43.8621 79.2189 43.8621 79.9013C43.8621 80.5837 44.4118 81.137 45.0899 81.137Z" fill="#E6E6E6"/>
<path d="M51.3053 81.137C51.9834 81.137 52.5332 80.5837 52.5332 79.9013C52.5332 79.2189 51.9834 78.6657 51.3053 78.6657C50.6271 78.6657 50.0774 79.2189 50.0774 79.9013C50.0774 80.5837 50.6271 81.137 51.3053 81.137Z" fill="#E6E6E6"/>
<path d="M57.5209 81.137C58.199 81.137 58.7487 80.5837 58.7487 79.9013C58.7487 79.2189 58.199 78.6657 57.5209 78.6657C56.8427 78.6657 56.293 79.2189 56.293 79.9013C56.293 80.5837 56.8427 81.137 57.5209 81.137Z" fill="#E6E6E6"/>
<path d="M63.7362 81.137C64.4143 81.137 64.9641 80.5837 64.9641 79.9013C64.9641 79.2189 64.4143 78.6657 63.7362 78.6657C63.058 78.6657 62.5083 79.2189 62.5083 79.9013C62.5083 80.5837 63.058 81.137 63.7362 81.137Z" fill="#E6E6E6"/>
<path d="M69.9518 81.137C70.6299 81.137 71.1796 80.5837 71.1796 79.9013C71.1796 79.2189 70.6299 78.6657 69.9518 78.6657C69.2736 78.6657 68.7239 79.2189 68.7239 79.9013C68.7239 80.5837 69.2736 81.137 69.9518 81.137Z" fill="#E6E6E6"/>
<path d="M76.1673 81.137C76.8455 81.137 77.3952 80.5837 77.3952 79.9013C77.3952 79.2189 76.8455 78.6657 76.1673 78.6657C75.4892 78.6657 74.9395 79.2189 74.9395 79.9013C74.9395 80.5837 75.4892 81.137 76.1673 81.137Z" fill="#E6E6E6"/>
<path d="M20.2279 87.4701C20.906 87.4701 21.4558 86.9169 21.4558 86.2345C21.4558 85.5521 20.906 84.9989 20.2279 84.9989C19.5497 84.9989 19 85.5521 19 86.2345C19 86.9169 19.5497 87.4701 20.2279 87.4701Z" fill="#E6E6E6"/>
<path d="M26.4432 87.4701C27.1214 87.4701 27.6711 86.9169 27.6711 86.2345C27.6711 85.5521 27.1214 84.9989 26.4432 84.9989C25.7651 84.9989 25.2153 85.5521 25.2153 86.2345C25.2153 86.9169 25.7651 87.4701 26.4432 87.4701Z" fill="#E6E6E6"/>
<path d="M32.6588 87.4701C33.3369 87.4701 33.8867 86.9169 33.8867 86.2345C33.8867 85.5521 33.3369 84.9989 32.6588 84.9989C31.9806 84.9989 31.4309 85.5521 31.4309 86.2345C31.4309 86.9169 31.9806 87.4701 32.6588 87.4701Z" fill="#E6E6E6"/>
<path d="M38.8744 87.4701C39.5525 87.4701 40.1022 86.9169 40.1022 86.2345C40.1022 85.5521 39.5525 84.9989 38.8744 84.9989C38.1962 84.9989 37.6465 85.5521 37.6465 86.2345C37.6465 86.9169 38.1962 87.4701 38.8744 87.4701Z" fill="#E6E6E6"/>
<path d="M45.0899 87.4701C45.7681 87.4701 46.3178 86.9169 46.3178 86.2345C46.3178 85.5521 45.7681 84.9989 45.0899 84.9989C44.4118 84.9989 43.8621 85.5521 43.8621 86.2345C43.8621 86.9169 44.4118 87.4701 45.0899 87.4701Z" fill="#E6E6E6"/>
<path d="M51.3053 87.4701C51.9834 87.4701 52.5332 86.9169 52.5332 86.2345C52.5332 85.5521 51.9834 84.9989 51.3053 84.9989C50.6271 84.9989 50.0774 85.5521 50.0774 86.2345C50.0774 86.9169 50.6271 87.4701 51.3053 87.4701Z" fill="#E6E6E6"/>
<path d="M57.5209 87.4701C58.199 87.4701 58.7487 86.9169 58.7487 86.2345C58.7487 85.5521 58.199 84.9989 57.5209 84.9989C56.8427 84.9989 56.293 85.5521 56.293 86.2345C56.293 86.9169 56.8427 87.4701 57.5209 87.4701Z" fill="#E6E6E6"/>
<path d="M63.7362 87.4701C64.4143 87.4701 64.9641 86.9169 64.9641 86.2345C64.9641 85.5521 64.4143 84.9989 63.7362 84.9989C63.058 84.9989 62.5083 85.5521 62.5083 86.2345C62.5083 86.9169 63.058 87.4701 63.7362 87.4701Z" fill="#E6E6E6"/>
<path d="M69.9518 87.4701C70.6299 87.4701 71.1796 86.9169 71.1796 86.2345C71.1796 85.5521 70.6299 84.9989 69.9518 84.9989C69.2736 84.9989 68.7239 85.5521 68.7239 86.2345C68.7239 86.9169 69.2736 87.4701 69.9518 87.4701Z" fill="#E6E6E6"/>
<path d="M76.1673 87.4701C76.8455 87.4701 77.3952 86.9169 77.3952 86.2345C77.3952 85.5521 76.8455 84.9989 76.1673 84.9989C75.4892 84.9989 74.9395 85.5521 74.9395 86.2345C74.9395 86.9169 75.4892 87.4701 76.1673 87.4701Z" fill="#E6E6E6"/>
<path d="M91.1596 39.0429C91.5713 39.0429 91.9662 39.2075 92.2573 39.5005C92.5484 39.7934 92.712 40.1908 92.712 40.6051V103.092C92.712 103.297 92.6718 103.5 92.5938 103.69C92.5158 103.879 92.4015 104.052 92.2573 104.197C92.1132 104.342 91.942 104.457 91.7537 104.535C91.5653 104.614 91.3635 104.654 91.1596 104.654H46.6061C46.4022 104.654 46.2004 104.614 46.012 104.535C45.8237 104.457 45.6525 104.342 45.5084 104.197C45.3642 104.052 45.2499 103.879 45.1719 103.69C45.0939 103.5 45.0537 103.297 45.0537 103.092V40.6051C45.0537 40.1908 45.2173 39.7934 45.5084 39.5005C45.7995 39.2075 46.1944 39.0429 46.6061 39.0429H91.1596" fill="#E6E6E6"/>
<path d="M46.7869 102.91H90.9789V40.7869H46.7869V102.91Z" fill="white"/>
<path d="M81.1468 50.6154C81.1875 50.6154 81.2279 50.6235 81.2656 50.6392C81.3033 50.6549 81.3375 50.6779 81.3663 50.707C81.3951 50.736 81.418 50.7704 81.4336 50.8083C81.4492 50.8462 81.4572 50.8869 81.4572 50.9279V51.5528C81.4572 51.6356 81.4245 51.7151 81.3663 51.7737C81.3081 51.8323 81.2291 51.8652 81.1468 51.8652H56.6191C56.5783 51.8652 56.5379 51.8571 56.5003 51.8414C56.4626 51.8257 56.4284 51.8027 56.3995 51.7737C56.3707 51.7447 56.3478 51.7102 56.3322 51.6723C56.3166 51.6344 56.3086 51.5938 56.3086 51.5528V50.9279C56.3086 50.8869 56.3166 50.8462 56.3322 50.8083C56.3478 50.7704 56.3707 50.736 56.3995 50.707C56.4284 50.6779 56.4626 50.6549 56.5003 50.6392C56.5379 50.6235 56.5783 50.6154 56.6191 50.6154H81.1468" fill="#E6E6E6"/>
<path d="M81.1468 53.5836C81.2291 53.5836 81.3081 53.6165 81.3663 53.6751C81.4245 53.7337 81.4572 53.8131 81.4572 53.896V54.5209C81.4572 54.6037 81.4245 54.6832 81.3663 54.7418C81.3081 54.8004 81.2291 54.8333 81.1468 54.8333H56.6191C56.5783 54.8333 56.5379 54.8252 56.5003 54.8095C56.4626 54.7938 56.4284 54.7708 56.3995 54.7418C56.3707 54.7128 56.3478 54.6783 56.3322 54.6404C56.3166 54.6025 56.3086 54.5619 56.3086 54.5209V53.896C56.3086 53.855 56.3166 53.8143 56.3322 53.7764C56.3478 53.7385 56.3707 53.7041 56.3995 53.6751C56.4284 53.6461 56.4626 53.623 56.5003 53.6073C56.5379 53.5916 56.5783 53.5836 56.6191 53.5836H81.1468" fill="#E6E6E6"/>
<path d="M81.1468 56.5517C81.2291 56.5517 81.3081 56.5846 81.3663 56.6432C81.4245 56.7018 81.4572 56.7813 81.4572 56.8642V57.489C81.4572 57.5719 81.4245 57.6513 81.3663 57.7099C81.3081 57.7685 81.2291 57.8014 81.1468 57.8014H56.6191C56.5367 57.8014 56.4578 57.7685 56.3995 57.7099C56.3413 57.6513 56.3086 57.5719 56.3086 57.489V56.8642C56.3086 56.7813 56.3413 56.7018 56.3995 56.6432C56.4578 56.5846 56.5367 56.5517 56.6191 56.5517H81.1468" fill="#F9A826"/>
<path d="M81.1468 59.5848C81.2291 59.5848 81.3081 59.6177 81.3663 59.6763C81.4245 59.7349 81.4572 59.8144 81.4572 59.8972V60.5221C81.4572 60.605 81.4245 60.6845 81.3663 60.743C81.3081 60.8016 81.2291 60.8346 81.1468 60.8346H56.6191C56.5783 60.8346 56.5379 60.8265 56.5003 60.8108C56.4626 60.7951 56.4284 60.7721 56.3995 60.743C56.3707 60.714 56.3478 60.6796 56.3322 60.6417C56.3166 60.6038 56.3086 60.5632 56.3086 60.5221V59.8972C56.3086 59.8562 56.3166 59.8156 56.3322 59.7777C56.3478 59.7398 56.3707 59.7053 56.3995 59.6763C56.4284 59.6473 56.4626 59.6243 56.5003 59.6086C56.5379 59.5929 56.5783 59.5848 56.6191 59.5848H81.1468" fill="#E6E6E6"/>
<path d="M81.1468 62.5529C81.2291 62.5529 81.3081 62.5858 81.3663 62.6444C81.4245 62.703 81.4572 62.7825 81.4572 62.8654V63.4902C81.4572 63.5313 81.4492 63.5719 81.4336 63.6098C81.418 63.6477 81.3951 63.6822 81.3663 63.7112C81.3375 63.7402 81.3033 63.7632 81.2656 63.7789C81.2279 63.7946 81.1875 63.8027 81.1468 63.8027H56.6191C56.5783 63.8027 56.5379 63.7946 56.5003 63.7789C56.4626 63.7632 56.4284 63.7402 56.3995 63.7112C56.3707 63.6822 56.3478 63.6477 56.3322 63.6098C56.3166 63.5719 56.3086 63.5313 56.3086 63.4902V62.8654C56.3086 62.8243 56.3166 62.7837 56.3322 62.7458C56.3478 62.7079 56.3707 62.6734 56.3995 62.6444C56.4284 62.6154 56.4626 62.5924 56.5003 62.5767C56.5379 62.561 56.5783 62.5529 56.6191 62.5529H81.1468" fill="#E6E6E6"/>
<path d="M81.1468 65.5211C81.2291 65.5211 81.3081 65.554 81.3663 65.6126C81.4245 65.6712 81.4572 65.7506 81.4572 65.8335V66.4584C81.4572 66.5412 81.4245 66.6207 81.3663 66.6793C81.3081 66.7379 81.2291 66.7708 81.1468 66.7708H56.6191C56.5367 66.7708 56.4578 66.7379 56.3995 66.6793C56.3413 66.6207 56.3086 66.5412 56.3086 66.4584V65.8335C56.3086 65.7506 56.3413 65.6712 56.3995 65.6126C56.4578 65.554 56.5367 65.5211 56.6191 65.5211H81.1468" fill="#E6E6E6"/>
<path d="M56.7757 75.5056C56.6802 75.5057 56.5885 75.544 56.521 75.612C56.4534 75.68 56.4154 75.7722 56.4153 75.8684V92.7189C56.4154 92.815 56.4534 92.9072 56.521 92.9752C56.5885 93.0432 56.6802 93.0814 56.7757 93.0816H80.9484C81.0439 93.0814 81.1356 93.0432 81.2031 92.9752C81.2707 92.9072 81.3087 92.815 81.3088 92.7189V75.8684C81.3087 75.7722 81.2707 75.68 81.2031 75.612C81.1356 75.544 81.0439 75.5057 80.9484 75.5056H56.7757Z" fill="#F9A826"/>
<path d="M68.9635 57.2308L68.7097 57.163L74.2472 36.201H106.366V36.4652H74.4489L68.9635 57.2308Z" fill="#3F3D56"/>
<path d="M108.991 39.1061C108.446 39.1061 107.913 38.9435 107.46 38.6388C107.007 38.3341 106.654 37.901 106.445 37.3943C106.237 36.8876 106.182 36.33 106.288 35.7921C106.395 35.2542 106.657 34.7601 107.042 34.3722C107.428 33.9844 107.919 33.7203 108.453 33.6133C108.988 33.5063 109.542 33.5612 110.046 33.7711C110.549 33.981 110.979 34.3364 111.282 34.7925C111.585 35.2485 111.747 35.7846 111.747 36.3331C111.746 37.0683 111.455 37.7731 110.939 38.293C110.422 38.8129 109.722 39.1053 108.991 39.1061V39.1061ZM108.991 33.8241C108.498 33.8241 108.016 33.9713 107.606 34.247C107.196 34.5227 106.876 34.9145 106.688 35.3729C106.499 35.8314 106.45 36.3359 106.546 36.8226C106.642 37.3092 106.879 37.7563 107.228 38.1072C107.577 38.4581 108.021 38.697 108.505 38.7938C108.988 38.8906 109.49 38.8409 109.945 38.6511C110.401 38.4612 110.79 38.1396 111.064 37.727C111.338 37.3144 111.484 36.8293 111.484 36.3331C111.484 35.6679 111.221 35.0302 110.753 34.5598C110.286 34.0895 109.652 33.8249 108.991 33.8241Z" fill="#3F3D56"/>
<path d="M108.991 37.3895C109.571 37.3895 110.041 36.9165 110.041 36.3331C110.041 35.7496 109.571 35.2767 108.991 35.2767C108.411 35.2767 107.941 35.7496 107.941 36.3331C107.941 36.9165 108.411 37.3895 108.991 37.3895Z" fill="#F9A826"/>
<path d="M68.1049 92.7323L68.3585 92.8005L62.7813 113.752L30.6621 113.69L30.6626 113.426L62.58 113.487L68.1049 92.7323Z" fill="#3F3D56"/>
<path d="M28.0432 110.78C28.5882 110.781 29.1207 110.945 29.5733 111.25C30.0259 111.556 30.3782 111.989 30.5858 112.497C30.7935 113.004 30.847 113.561 30.7396 114.099C30.6323 114.637 30.3689 115.13 29.9827 115.517C29.5966 115.905 29.1051 116.168 28.5703 116.274C28.0356 116.38 27.4816 116.324 26.9785 116.113C26.4753 115.902 26.0456 115.546 25.7437 115.089C25.4418 114.632 25.2812 114.096 25.2822 113.548C25.2845 112.812 25.5764 112.108 26.094 111.589C26.6116 111.07 27.3126 110.779 28.0432 110.78V110.78ZM28.0331 116.062C28.5263 116.063 29.0086 115.917 29.4191 115.642C29.8296 115.367 30.1499 114.976 30.3395 114.517C30.5291 114.059 30.5794 113.555 30.4842 113.068C30.3889 112.581 30.1523 112.134 29.8043 111.782C29.4563 111.431 29.0125 111.191 28.529 111.093C28.0455 110.995 27.5441 111.044 27.0882 111.233C26.6323 111.422 26.2423 111.743 25.9675 112.155C25.6928 112.567 25.5456 113.052 25.5447 113.548C25.5442 114.213 25.8059 114.851 26.2724 115.323C26.7389 115.794 27.3721 116.06 28.0331 116.062V116.062Z" fill="#3F3D56"/>
<path d="M28.0378 114.609C28.6176 114.609 29.0876 114.136 29.0876 113.553C29.0876 112.969 28.6176 112.496 28.0378 112.496C27.458 112.496 26.988 112.969 26.988 113.553C26.988 114.136 27.458 114.609 28.0378 114.609Z" fill="#F9A826"/>
<path d="M130.163 136.92H128.311L128.641 126.602L133.537 126.868L130.163 136.92Z" fill="#FFB8B8"/>
<path d="M130.416 142.849C129.857 143.106 129.388 141.026 128.917 141.492C127.598 142.796 126.235 143.08 124.474 142.511L124.434 142.504C124.327 142.47 124.229 142.414 124.145 142.34C124.061 142.266 123.992 142.176 123.944 142.075C123.895 141.974 123.867 141.864 123.862 141.752C123.857 141.64 123.875 141.528 123.914 141.423C123.961 141.297 124.037 141.184 124.137 141.095C124.237 141.005 124.356 140.942 124.486 140.909L125.889 140.556L128.091 136.658L130.34 136.505C130.841 137.148 131.191 137.898 131.363 138.696C131.535 139.495 131.525 140.323 131.333 141.117C131.129 141.955 130.814 142.666 130.416 142.849Z" fill="#2F2E41"/>
<path d="M147.759 135.556L146.037 136.241L142.573 126.525L147.222 124.96L147.759 135.556Z" fill="#FFB8B8"/>
<path d="M150.161 140.976C149.735 141.422 148.54 139.661 148.271 140.269C147.522 141.97 146.358 142.739 144.513 142.861L144.472 142.869C144.361 142.877 144.249 142.861 144.144 142.824C144.039 142.787 143.942 142.728 143.86 142.652C143.778 142.576 143.712 142.484 143.666 142.382C143.62 142.279 143.596 142.168 143.594 142.056C143.591 141.922 143.622 141.789 143.682 141.669C143.741 141.549 143.83 141.445 143.938 141.367L145.114 140.519L145.737 136.08L147.772 135.105C148.473 135.518 149.072 136.085 149.524 136.764C149.976 137.443 150.269 138.216 150.382 139.026C150.498 139.881 150.465 140.658 150.161 140.976Z" fill="#2F2E41"/>
<path d="M142.136 85.7357L139.293 86.4715C139.077 86.5272 138.853 86.5337 138.635 86.4905C138.417 86.4473 138.211 86.3556 138.033 86.222C137.855 86.0884 137.709 85.9164 137.605 85.7186C137.502 85.5207 137.443 85.3021 137.435 85.0787C137.427 84.8732 137.461 84.6684 137.536 84.4769C137.61 84.2854 137.722 84.1113 137.866 83.9654C138.01 83.8196 138.183 83.7052 138.373 83.6293C138.562 83.5534 138.766 83.5177 138.97 83.5243L141.475 83.6056L146.301 81.8371L141.739 78.4136L142.268 73.6209L151.159 80.8032C151.317 80.9313 151.448 81.0909 151.542 81.2721C151.637 81.4533 151.693 81.6522 151.707 81.8562V81.8562C151.732 82.1993 151.637 82.5402 151.44 82.8208C151.242 83.1015 150.954 83.3046 150.624 83.3955C148.541 85.1062 145.507 85.6301 142.136 85.7357Z" fill="#FFB8B8"/>
<path d="M135.654 67.7633C138.211 67.7633 140.284 65.6771 140.284 63.1038C140.284 60.5304 138.211 58.4442 135.654 58.4442C133.097 58.4442 131.023 60.5304 131.023 63.1038C131.023 65.6771 133.097 67.7633 135.654 67.7633Z" fill="#FFB8B8"/>
<path d="M141.343 69.4939L135.125 72.0234C135.307 70.0454 134.792 68.0659 133.669 66.432L138.829 65.2338C138.762 66.8195 139.614 68.237 141.343 69.4939Z" fill="#FFB8B8"/>
<path d="M142.467 80.344C137.455 80.7477 134.713 80.0779 130.494 77.6148L132.082 73.8872C132.002 73.3259 132.078 72.7534 132.3 72.2326C132.523 71.7118 132.884 71.2629 133.344 70.9351L134.992 69.7602L140.019 68.2958L140.245 68.3071C140.914 68.3408 141.547 68.6186 142.027 69.0887C142.507 69.5587 142.8 70.1886 142.851 70.8604C143.943 74.1448 143.95 77.3197 142.467 80.344Z" fill="#F9A826"/>
<path d="M141.475 88.132L130.759 86.9339L129.965 83.4725C128.206 80.7997 128.973 78.3516 131.023 76.0173C134.76 78.4304 138.228 79.4731 143.194 78.6799C141.874 81.9122 140.654 85.0888 141.475 88.132Z" fill="#2F2E41"/>
<path d="M149.809 128.47L141.276 128.004L138.498 105.772L136.249 127.871L126.128 127.405C129.216 112.877 131.36 99.0845 130.759 86.4013L141.342 87.3332C144.929 91.139 146.71 97.2142 147.759 104.44C148.807 111.666 149.652 120.043 149.809 128.47Z" fill="#2F2E41"/>
<path d="M140.751 58.862C141.63 58.862 142.343 58.1449 142.343 57.2604C142.343 56.3759 141.63 55.6588 140.751 55.6588C139.872 55.6588 139.159 56.3759 139.159 57.2604C139.159 58.1449 139.872 58.862 140.751 58.862Z" fill="#2F2E41"/>
<path d="M139.111 56.8682C139.137 56.4619 139.316 56.0809 139.612 55.8028C139.907 55.5246 140.297 55.3704 140.702 55.3713C140.669 55.3671 140.636 55.362 140.603 55.3599C140.182 55.3326 139.767 55.4749 139.45 55.7553C139.133 56.0358 138.94 56.4315 138.912 56.8554C138.885 57.2793 139.027 57.6966 139.305 58.0156C139.584 58.3346 139.977 58.5292 140.399 58.5564C140.432 58.5586 140.465 58.5577 140.498 58.5578C140.097 58.5066 139.73 58.3034 139.472 57.9895C139.214 57.6756 139.085 57.2746 139.111 56.8682V56.8682Z" fill="#2F2E41"/>
<path d="M139.102 57.5522C137.683 56.3673 133.611 57.8733 133.349 58.6699C131.429 58.9332 129.976 60.0601 129.976 62.0639V62.0639C131.117 62.5343 132.415 62.4763 133.818 62.0639C136.055 63.898 136.208 66.2036 134.848 68.8518L136.521 68.8855L138.595 65.8349L138.694 68.9292L142.53 68.8518V64.4175C142.542 62.9432 142.205 61.4871 141.546 60.1702C140.949 59.0016 140.021 58.3193 139.102 57.5522Z" fill="#2F2E41"/>
<path d="M135.53 65.3866C135.951 65.3866 136.291 64.9065 136.291 64.3144C136.291 63.7222 135.951 63.2421 135.53 63.2421C135.11 63.2421 134.769 63.7222 134.769 64.3144C134.769 64.9065 135.11 65.3866 135.53 65.3866Z" fill="#FFB8B8"/>
<path d="M129.709 105.436C129.78 105.436 129.848 105.464 129.898 105.515C129.948 105.565 129.976 105.633 129.976 105.705V116.462C129.976 116.534 129.948 116.602 129.898 116.653C129.848 116.703 129.78 116.731 129.709 116.731H122.038C121.968 116.731 121.9 116.703 121.85 116.653C121.799 116.602 121.771 116.534 121.771 116.462V105.705C121.771 105.633 121.799 105.565 121.85 105.515C121.9 105.464 121.968 105.436 122.038 105.436H129.709" fill="#F9A826"/>
<path d="M130.759 101.445L131.018 105.963C131.035 106.254 130.987 106.545 130.878 106.815C130.769 107.085 130.601 107.327 130.388 107.523C130.174 107.72 129.92 107.866 129.643 107.952C129.366 108.037 129.074 108.06 128.788 108.017C127.647 107.848 127.621 106.726 127.901 105.6L128.966 101.312C131.58 91.8817 132.285 82.6259 132.153 73.5989C132.148 73.2927 132.204 72.9887 132.319 72.7051C132.433 72.4215 132.604 72.1641 132.82 71.9487C133.036 71.7332 133.293 71.564 133.576 71.4513C133.859 71.3387 134.162 71.2849 134.466 71.2932C134.763 71.3018 135.055 71.3694 135.325 71.4921C135.596 71.6148 135.84 71.7901 136.043 72.008C136.246 72.2259 136.404 72.4821 136.508 72.7617C136.613 73.0414 136.661 73.339 136.65 73.6375C136.28 84.2377 134.744 93.8637 130.759 101.445Z" fill="#FFB8B8"/>
</g>
<defs>
<clipPath id="clip0">
<rect width="141" height="115" fill="white" transform="translate(19 28)"/>
</clipPath>
</defs>
</svg>
