<svg width="146" height="123" viewBox="0 0 146 123" fill="none" xmlns="http://www.w3.org/2000/svg">
<path d="M36.4948 104.107C61.0059 91.3966 70.9388 102.339 72.8413 109.4C84.5079 129.921 75.9979 100.124 107.206 108.353C132.173 114.936 139.318 82.276 139.77 65.1232C136.185 39.2187 123.289 -5.25778 100.383 24.0721C77.4761 53.402 63.2558 40.561 59.009 30.4742C58.0537 24.5383 51.5351 10.7623 33.1035 3.14549C14.6719 -4.47131 9.01819 19.4592 8.49531 32.3765C6.94093 41.6821 5.0824 60.6051 10.0833 61.8526C15.0843 63.1001 12.3836 76.6828 10.4081 83.3181C8.89071 95.5434 11.9837 116.816 36.4948 104.107Z" fill="#FFC791"/>
<g clip-path="url(#clip0)">
<path d="M142.256 102.497C142.242 102.537 142.212 102.569 142.174 102.587C142.135 102.605 142.092 102.607 142.052 102.592L15.8255 55.1764C15.7861 55.1615 15.7542 55.1314 15.7367 55.0928C15.7193 55.0542 15.7177 55.0101 15.7324 54.9703C15.7471 54.9305 15.7768 54.8982 15.815 54.8805C15.8532 54.8628 15.8968 54.8611 15.9363 54.8758L142.163 102.291C142.202 102.306 142.234 102.336 142.252 102.375C142.269 102.414 142.271 102.458 142.256 102.497V102.497Z" fill="#F2F2F2"/>
<path d="M75.0164 12.3569H44.9385C42.579 12.3596 40.317 13.307 38.6486 14.9912C36.9802 16.6754 36.0417 18.9589 36.0391 21.3408V24.0853C35.9773 24.0681 35.9125 24.0657 35.8497 24.0782C35.7868 24.0907 35.7278 24.1177 35.6771 24.1572C35.6264 24.1967 35.5855 24.2475 35.5576 24.3057C35.5297 24.3639 35.5156 24.4278 35.5164 24.4925V26.603C35.5156 26.6676 35.5297 26.7316 35.5576 26.7897C35.5855 26.8479 35.6264 26.8988 35.6771 26.9382C35.7278 26.9777 35.7868 27.0048 35.8497 27.0173C35.9125 27.0298 35.9773 27.0273 36.0391 27.0102V30.2058C35.9773 30.1887 35.9125 30.1862 35.8497 30.1987C35.7868 30.2112 35.7278 30.2382 35.6771 30.2777C35.6264 30.3172 35.5855 30.368 35.5576 30.4262C35.5297 30.4844 35.5156 30.5484 35.5164 30.613V35.8893C35.5156 35.9539 35.5297 36.0179 35.5576 36.0761C35.5855 36.1342 35.6264 36.1851 35.6771 36.2246C35.7277 36.2641 35.7868 36.2911 35.8497 36.3036C35.9125 36.3161 35.9773 36.3136 36.0391 36.2965V38.2258C35.9773 38.2087 35.9125 38.2062 35.8497 38.2187C35.7868 38.2312 35.7278 38.2582 35.6771 38.2977C35.6264 38.3372 35.5855 38.3881 35.5576 38.4462C35.5297 38.5044 35.5156 38.5684 35.5164 38.633V43.9093C35.5156 43.9739 35.5297 44.0379 35.5576 44.0961C35.5855 44.1542 35.6264 44.2051 35.6771 44.2446C35.7278 44.2841 35.7868 44.3111 35.8497 44.3236C35.9125 44.3361 35.9773 44.3336 36.0391 44.3165V100.035C36.0417 102.417 36.9802 104.701 38.6486 106.385C40.317 108.069 42.579 109.016 44.9385 109.019H75.0164C77.3759 109.016 79.6379 108.069 81.3063 106.385C82.9747 104.701 83.9131 102.417 83.9158 100.035V21.3408C83.9131 18.9589 82.9747 16.6754 81.3063 14.9912C79.6379 13.307 77.3759 12.3596 75.0164 12.3569V12.3569ZM82.0342 100.035C82.0321 101.913 81.292 103.714 79.9764 105.042C78.6608 106.37 76.877 107.117 75.0164 107.12H44.9385C43.0779 107.117 41.2941 106.37 39.9785 105.042C38.6628 103.714 37.9228 101.913 37.9207 100.035V21.3408C37.9228 19.4625 38.6628 17.6618 39.9785 16.3337C41.2941 15.0056 43.0779 14.2585 44.9385 14.2564H75.0164C76.877 14.2585 78.6608 15.0056 79.9764 16.3337C81.292 17.6618 82.0321 19.4625 82.0342 21.3408V100.035Z" fill="#3F3D56"/>
<path d="M75.0163 108.175H44.9384C42.8006 108.172 40.7512 107.314 39.2396 105.788C37.728 104.262 36.8777 102.193 36.8752 100.035V21.3408C36.8777 19.1828 37.728 17.1139 39.2396 15.5879C40.7512 14.062 42.8006 13.2036 44.9384 13.2012H75.0163C77.154 13.2036 79.2035 14.062 80.7151 15.5879C82.2267 17.1139 83.077 19.1828 83.0794 21.3408V100.035C83.077 102.193 82.2267 104.262 80.7151 105.788C79.2035 107.314 77.154 108.172 75.0163 108.175V108.175Z" fill="#E6E6E6"/>
<path d="M75.7596 106.908H44.1951C42.7533 106.907 41.371 106.328 40.3515 105.299C39.332 104.27 38.7585 102.874 38.7568 101.419V19.9573C38.7585 18.5018 39.332 17.1064 40.3515 16.0772C41.371 15.048 42.7533 14.4691 44.1951 14.4675H48.3114C48.5497 14.4677 48.7782 14.5634 48.9467 14.7335C49.1152 14.9037 49.21 15.1343 49.2103 15.3749C49.2111 16.0855 49.4911 16.7669 49.9889 17.2694C50.4867 17.7719 51.1616 18.0546 51.8656 18.0554H67.6709C68.3749 18.0546 69.0498 17.7719 69.5476 17.2694C70.0454 16.7669 70.3254 16.0855 70.3262 15.3748C70.3265 15.1343 70.4213 14.9036 70.5898 14.7335C70.7583 14.5634 70.9867 14.4677 71.225 14.4675H75.7595C77.2013 14.4691 78.5836 15.048 79.6032 16.0772C80.6227 17.1064 81.1962 18.5018 81.1978 19.9573V101.419C81.1962 102.874 80.6227 104.27 79.6032 105.299C78.5836 106.328 77.2014 106.907 75.7596 106.908V106.908Z" fill="white"/>
<path d="M61.3364 16.3142H57.5732C57.4623 16.3142 57.3559 16.2697 57.2775 16.1906C57.1991 16.1114 57.155 16.004 57.155 15.8921C57.155 15.7801 57.1991 15.6728 57.2775 15.5936C57.3559 15.5144 57.4623 15.47 57.5732 15.47H61.3364C61.4473 15.47 61.5536 15.5144 61.6321 15.5936C61.7105 15.6728 61.7545 15.7801 61.7545 15.8921C61.7545 16.004 61.7105 16.1114 61.6321 16.1906C61.5536 16.2697 61.4473 16.3142 61.3364 16.3142V16.3142Z" fill="white"/>
<path d="M63.9495 16.2087C64.065 16.2087 64.1586 16.1142 64.1586 15.9976C64.1586 15.8811 64.065 15.7866 63.9495 15.7866C63.8341 15.7866 63.7405 15.8811 63.7405 15.9976C63.7405 16.1142 63.8341 16.2087 63.9495 16.2087Z" fill="white"/>
<path d="M75.1059 42.4958C75.1059 46.8055 68.5053 56.8479 66.5763 59.6907C66.5181 59.7766 66.44 59.8469 66.3488 59.8955C66.2576 59.9441 66.1561 59.9695 66.0529 59.9695C65.9498 59.9695 65.8482 59.9441 65.757 59.8955C65.6658 59.8469 65.5878 59.7766 65.5296 59.6907C63.6006 56.8479 57 46.8055 57 42.4958C57 40.072 57.9538 37.7475 59.6515 36.0336C61.3493 34.3198 63.652 33.3569 66.0529 33.3569C68.4539 33.3569 70.7566 34.3198 72.4543 36.0336C74.1521 37.7475 75.1059 40.072 75.1059 42.4958Z" fill="#ED8E15"/>
<path d="M66.0529 46.504C68.5967 46.504 70.6588 44.4223 70.6588 41.8544C70.6588 39.2865 68.5967 37.2048 66.0529 37.2048C63.5091 37.2048 61.447 39.2865 61.447 41.8544C61.447 44.4223 63.5091 46.504 66.0529 46.504Z" fill="white"/>
<path d="M94.8382 68.5736C95.0439 68.6852 95.2713 68.75 95.5044 68.7632C95.7375 68.7765 95.9707 68.7381 96.1875 68.6506C96.4043 68.563 96.5994 68.4286 96.7592 68.2567C96.9189 68.0848 97.0394 67.8797 97.1121 67.6557L102.787 67.5567L101.121 65.0999L95.9875 65.5705C95.6066 65.4722 95.2033 65.5182 94.8539 65.7C94.5044 65.8818 94.2332 66.1866 94.0915 66.5568C93.9499 66.927 93.9476 67.3367 94.0853 67.7084C94.2229 68.0802 94.4908 68.388 94.8383 68.5736H94.8382Z" fill="#FFB8B8"/>
<path d="M98.2447 68.5021C98.1567 68.5021 98.0697 68.4842 97.9888 68.4493C97.9079 68.4144 97.8349 68.3634 97.7741 68.2992C97.7133 68.2351 97.6659 68.1592 97.635 68.0761C97.604 67.993 97.59 67.9044 97.5939 67.8157L97.7085 65.1889C97.7147 65.0325 97.7763 64.8835 97.8821 64.769C97.9878 64.6545 98.1307 64.582 98.2849 64.5648L104.859 63.8037L104.638 68.181L98.2768 68.5012C98.2661 68.5018 98.2554 68.5021 98.2447 68.5021Z" fill="#ED8E15"/>
<path d="M106.251 104.508L104.4 105.118L101.188 98.2013L103.919 97.3007L106.251 104.508Z" fill="#FFB8B8"/>
<path d="M107.309 106.163L101.341 108.131L101.316 108.055C101.217 107.747 101.178 107.422 101.203 107.099C101.227 106.776 101.315 106.461 101.46 106.172C101.605 105.883 101.806 105.626 102.049 105.415C102.293 105.205 102.575 105.044 102.881 104.944L102.881 104.944L106.526 103.742L107.309 106.163Z" fill="#2F2E41"/>
<path d="M111.703 107.4L109.756 107.4L108.83 99.8184L111.703 99.8185L111.703 107.4Z" fill="#FFB8B8"/>
<path d="M112.199 109.306L105.921 109.305V109.225C105.921 108.901 105.984 108.58 106.107 108.281C106.23 107.982 106.41 107.71 106.637 107.481C106.864 107.252 107.133 107.07 107.429 106.946C107.726 106.822 108.044 106.758 108.365 106.758H108.365L112.199 106.759L112.199 109.306Z" fill="#2F2E41"/>
<path d="M108.745 105.555C108.586 105.555 108.433 105.496 108.313 105.389C108.194 105.282 108.118 105.135 108.099 104.976L105.589 83.7888L101.914 89.7439L106.226 100.867C106.284 101.021 106.284 101.191 106.225 101.345C106.166 101.498 106.052 101.624 105.905 101.697L102.248 103.504C102.164 103.545 102.073 103.568 101.98 103.571C101.887 103.573 101.795 103.556 101.709 103.52C101.624 103.483 101.547 103.429 101.483 103.36C101.42 103.291 101.373 103.209 101.343 103.12L97.2899 90.7574C96.9846 89.827 96.9447 88.8287 97.1748 87.8765L99.7958 77.0186L99.8265 77.0017L105.735 73.7348L105.768 73.7473L112.726 76.3109L111.998 90.2304L112.527 104.678C112.534 104.849 112.474 105.017 112.36 105.144C112.246 105.271 112.086 105.348 111.917 105.358L108.786 105.554C108.772 105.554 108.759 105.555 108.745 105.555Z" fill="#2F2E41"/>
<path d="M104.913 81.1445C103.873 81.1445 102.997 80.8456 102.449 80.0858L102.432 80.0613L102.786 76.3055L99.6329 78.0726C99.5675 78.1092 99.4926 78.1247 99.4182 78.1169C99.3438 78.1092 99.2736 78.0786 99.217 78.0293C99.1603 77.98 99.1201 77.9143 99.1016 77.8411C99.0832 77.768 99.0874 77.6909 99.1137 77.6202L103.046 67.0771L105.643 58.4886C105.772 57.8012 106.105 57.1695 106.597 56.6771C107.089 56.1848 107.718 55.855 108.4 55.7315V55.7315C110.713 55.3025 112.091 56.0905 113.682 57.839C114.067 58.2645 114.35 58.773 114.511 59.3259C114.671 59.8788 114.704 60.4613 114.607 61.029L113.102 69.7126L113.544 77.4984C113.578 77.6326 113.569 77.7742 113.519 77.9029C113.468 78.0316 113.378 78.1408 113.262 78.2149C112.032 79.0053 108.26 81.1442 104.913 81.1445Z" fill="#ED8E15"/>
<path d="M110.176 54.431C112.33 54.431 114.077 52.668 114.077 50.4931C114.077 48.3183 112.33 46.5552 110.176 46.5552C108.021 46.5552 106.275 48.3183 106.275 50.4931C106.275 52.668 108.021 54.431 110.176 54.431Z" fill="#FFB8B8"/>
<path d="M111.192 78.5635C111.404 78.4652 111.592 78.3212 111.743 78.1416C111.894 77.9619 112.005 77.751 112.066 77.5237C112.128 77.2963 112.14 77.0581 112.1 76.8258C112.061 76.5935 111.971 76.3727 111.838 76.179L115.184 71.5509L112.238 71.4098L109.513 75.8264C109.205 76.0737 108.998 76.4262 108.931 76.8171C108.864 77.2081 108.941 77.6104 109.148 77.9478C109.355 78.2852 109.677 78.5342 110.054 78.6477C110.431 78.7611 110.835 78.7312 111.192 78.5635V78.5635Z" fill="#FFB8B8"/>
<path d="M113.004 75.9517C112.84 75.9752 112.674 75.9353 112.539 75.8402L110.324 74.281C110.191 74.188 110.097 74.0481 110.061 73.8887C110.025 73.7294 110.049 73.5622 110.129 73.42L114.072 66.338L110.106 61.5191C109.898 61.2661 109.744 60.972 109.655 60.6557C109.565 60.3393 109.542 60.0077 109.586 59.6817C109.631 59.3558 109.742 59.0428 109.913 58.7626C110.083 58.4824 110.31 58.2411 110.578 58.0542C110.846 57.8672 111.15 57.7387 111.47 57.6767C111.79 57.6148 112.12 57.6208 112.437 57.6943C112.755 57.7679 113.054 57.9074 113.315 58.104C113.577 58.3005 113.794 58.5499 113.955 58.8361L118.334 66.638C118.365 66.6935 118.381 66.7562 118.381 66.82C118.381 66.8837 118.365 66.9464 118.334 67.0019L113.478 75.6258C113.433 75.7052 113.372 75.7744 113.299 75.8288C113.227 75.8833 113.143 75.9219 113.055 75.9421C113.038 75.9462 113.021 75.9493 113.004 75.9517Z" fill="#ED8E15"/>
<path d="M108.617 49.9904C108.231 49.6995 107.696 49.7449 107.239 49.5924C106.966 49.5016 106.722 49.3401 106.531 49.1242C106.34 48.9082 106.209 48.6453 106.15 48.3618C106.092 48.0784 106.108 47.7844 106.197 47.5093C106.287 47.2342 106.446 46.9876 106.66 46.7944C107.154 46.3474 107.857 46.246 108.515 46.1642C109.417 46.0522 110.328 45.94 111.233 46.0291C112.137 46.1182 113.048 46.4266 113.709 47.0561C114.438 47.7502 114.797 48.7834 114.799 49.795C114.774 50.8113 114.498 51.8051 113.995 52.6863C113.84 53.0212 113.606 53.3126 113.314 53.5351C113.009 53.7379 112.581 53.7909 112.288 53.572C112.034 53.3828 111.942 53.0512 111.827 52.7548C111.713 52.4585 111.518 52.1428 111.206 52.097C110.804 52.0382 110.498 52.4504 110.115 52.5853C109.579 52.7739 108.983 52.3567 108.765 51.8279C108.546 51.2991 108.604 50.7009 108.665 50.1313" fill="#2F2E41"/>
<path d="M143 109.197C143 109.239 142.983 109.28 142.953 109.31C142.924 109.34 142.883 109.357 142.841 109.357H8.15882C8.1167 109.357 8.0763 109.34 8.04652 109.31C8.01673 109.28 8 109.239 8 109.197C8 109.154 8.01673 109.113 8.04652 109.083C8.0763 109.053 8.1167 109.036 8.15882 109.036H142.841C142.883 109.036 142.924 109.053 142.953 109.083C142.983 109.113 143 109.154 143 109.197Z" fill="#CCCCCC"/>
<path d="M99.0868 37.8273C98.2245 38.9874 94.4384 40.3448 93.3503 40.7168C93.3175 40.728 93.2824 40.731 93.2481 40.7255C93.2139 40.72 93.1814 40.7061 93.1537 40.6851C93.1259 40.6641 93.1037 40.6365 93.0888 40.6049C93.074 40.5732 93.067 40.5383 93.0686 40.5033C93.1181 39.3448 93.3506 35.2957 94.2129 34.1355C94.6979 33.4831 95.4197 33.0518 96.2197 32.9367C97.0196 32.8215 97.8321 33.0318 98.4784 33.5213C99.1247 34.0109 99.5519 34.7396 99.666 35.5471C99.7801 36.3546 99.5718 37.1748 99.0868 37.8273V37.8273Z" fill="#F2F2F2"/>
<path d="M96.7783 37.3735C97.6344 37.3735 98.3284 36.6729 98.3284 35.8087C98.3284 34.9445 97.6344 34.244 96.7783 34.244C95.9223 34.244 95.2283 34.9445 95.2283 35.8087C95.2283 36.6729 95.9223 37.3735 96.7783 37.3735Z" fill="white"/>
<path d="M92.2229 42.6387C92.6067 42.6387 92.9178 42.3247 92.9178 41.9373C92.9178 41.5499 92.6067 41.2358 92.2229 41.2358C91.8392 41.2358 91.5281 41.5499 91.5281 41.9373C91.5281 42.3247 91.8392 42.6387 92.2229 42.6387Z" fill="#F2F2F2"/>
<path d="M23.5135 69.6495C24.7823 71.6065 24.7418 78.1471 24.7028 80.0167C24.7017 80.0732 24.687 80.1285 24.6598 80.1779C24.6327 80.2274 24.5941 80.2694 24.5473 80.3003C24.5004 80.3312 24.4468 80.3502 24.3911 80.3555C24.3354 80.3608 24.2792 80.3523 24.2275 80.3307C22.5146 79.6186 16.5607 77.0389 15.2918 75.0819C14.938 74.5369 14.694 73.9269 14.5738 73.2868C14.4535 72.6466 14.4595 71.9887 14.5912 71.3509C14.7229 70.713 14.9779 70.1076 15.3415 69.5692C15.705 69.0308 16.1702 68.5701 16.7102 68.2132C17.2503 67.8564 17.8547 67.6104 18.489 67.4895C19.1232 67.3686 19.7749 67.375 20.4067 67.5084C21.0384 67.6417 21.638 67.8995 22.1711 68.2669C22.7042 68.6343 23.1603 69.1041 23.5135 69.6495V69.6495Z" fill="#F2F2F2"/>
<path d="M19.2138 74.5979C20.5943 74.5979 21.7134 73.4681 21.7134 72.0745C21.7134 70.6809 20.5943 69.5511 19.2138 69.5511C17.8332 69.5511 16.7141 70.6809 16.7141 72.0745C16.7141 73.4681 17.8332 74.5979 19.2138 74.5979Z" fill="white"/>
<path d="M25.9169 83.5439C26.5358 83.5439 27.0375 83.0374 27.0375 82.4127C27.0375 81.7879 26.5358 81.2815 25.9169 81.2815C25.2981 81.2815 24.7964 81.7879 24.7964 82.4127C24.7964 83.0374 25.2981 83.5439 25.9169 83.5439Z" fill="#F2F2F2"/>
<path d="M46.3311 69.4692H45.8154V70.3569H44.9307V69.4692H43.1025V68.8394L44.9805 66.0737H45.8154V68.7661H46.3311V69.4692ZM44.9307 68.7661V68.0396C44.9307 67.9185 44.9355 67.7427 44.9453 67.5122C44.9551 67.2817 44.9629 67.1479 44.9688 67.1108H44.9453C44.873 67.271 44.7861 67.4272 44.6846 67.5796L43.8994 68.7661H44.9307ZM46.9728 70.3569L48.5812 66.8413H46.4689V66.0796H49.5421V66.6479L47.922 70.3569H46.9728ZM49.885 67.0259C49.885 66.8462 49.9299 66.6782 50.0198 66.522C50.1096 66.3657 50.2327 66.2417 50.3889 66.1499C50.5452 66.0581 50.7151 66.0122 50.8987 66.0122C51.0784 66.0122 51.2463 66.0571 51.4026 66.147C51.5608 66.2368 51.6848 66.3608 51.7746 66.519C51.8664 66.6772 51.9123 66.8462 51.9123 67.0259C51.9123 67.2075 51.8664 67.3774 51.7746 67.5356C51.6848 67.6919 51.5618 67.814 51.4055 67.9019C51.2493 67.9897 51.0803 68.0337 50.8987 68.0337C50.6155 68.0337 50.3752 67.937 50.178 67.7437C49.9827 67.5483 49.885 67.3091 49.885 67.0259ZM50.4446 67.0259C50.4446 67.1509 50.4875 67.2573 50.5735 67.3452C50.6614 67.4331 50.7698 67.4771 50.8987 67.4771C51.0276 67.4771 51.136 67.4321 51.2239 67.3423C51.3118 67.2524 51.3557 67.147 51.3557 67.0259C51.3557 66.9028 51.3108 66.7954 51.2209 66.7036C51.133 66.6118 51.0256 66.5659 50.8987 66.5659C50.7737 66.5659 50.6663 66.6108 50.5764 66.7007C50.4885 66.7905 50.4446 66.8989 50.4446 67.0259ZM54.5463 70.3569H53.641V67.8784L53.6498 67.4712L53.6644 67.0259C53.514 67.1763 53.4095 67.2749 53.3509 67.3218L52.8588 67.7173L52.4222 67.1724L53.8021 66.0737H54.5463V70.3569ZM58.6098 70.3569H55.6157V69.7271L56.6909 68.6401C57.0093 68.314 57.2173 68.0884 57.3149 67.9634C57.4126 67.8364 57.4829 67.7192 57.5259 67.6118C57.5688 67.5044 57.5903 67.3931 57.5903 67.2778C57.5903 67.106 57.5425 66.978 57.4468 66.894C57.353 66.8101 57.227 66.7681 57.0688 66.7681C56.9028 66.7681 56.7417 66.8062 56.5854 66.8823C56.4292 66.9585 56.2661 67.0669 56.0962 67.2075L55.604 66.6245C55.8149 66.4448 55.9897 66.3179 56.1284 66.2437C56.2671 66.1694 56.4184 66.1128 56.5825 66.0737C56.7466 66.0327 56.9302 66.0122 57.1333 66.0122C57.4009 66.0122 57.6372 66.061 57.8423 66.1587C58.0473 66.2563 58.2065 66.3931 58.3198 66.5688C58.4331 66.7446 58.4897 66.9458 58.4897 67.1724C58.4897 67.3696 58.4546 67.5552 58.3843 67.729C58.3159 67.9009 58.2085 68.0776 58.062 68.2593C57.9175 68.4409 57.6616 68.6997 57.2944 69.0356L56.7436 69.5542V69.5952H58.6098V70.3569ZM59.8727 66.0737L59.9137 66.1382C59.816 66.5229 59.6441 66.9907 59.398 67.5415H58.7564C58.8912 66.9634 58.9889 66.4741 59.0494 66.0737H59.8727ZM62.9314 67.0317C62.9314 67.2993 62.8503 67.5269 62.6882 67.7144C62.5261 67.9019 62.2986 68.0308 62.0056 68.1011V68.1187C62.3513 68.1616 62.613 68.2671 62.7907 68.4351C62.9685 68.6011 63.0573 68.8257 63.0573 69.1089C63.0573 69.521 62.9079 69.8423 62.6091 70.0728C62.3103 70.3013 61.8835 70.4155 61.3288 70.4155C60.864 70.4155 60.4519 70.3384 60.0925 70.1841V69.4136C60.2585 69.4976 60.4411 69.5659 60.6404 69.6187C60.8396 69.6714 61.0368 69.6978 61.2321 69.6978C61.531 69.6978 61.7517 69.647 61.8943 69.5454C62.0368 69.4438 62.1081 69.2808 62.1081 69.0562C62.1081 68.855 62.0261 68.7124 61.862 68.6284C61.698 68.5444 61.4363 68.5024 61.0769 68.5024H60.7517V67.8081H61.0827C61.4148 67.8081 61.657 67.7651 61.8093 67.6792C61.9636 67.5913 62.0407 67.4419 62.0407 67.231C62.0407 66.9067 61.8376 66.7446 61.4314 66.7446C61.2907 66.7446 61.1472 66.7681 61.0007 66.8149C60.8562 66.8618 60.695 66.9429 60.5173 67.0581L60.0984 66.4341C60.489 66.1528 60.9548 66.0122 61.4958 66.0122C61.9392 66.0122 62.2888 66.1021 62.5446 66.2817C62.8025 66.4614 62.9314 66.7114 62.9314 67.0317ZM64.8885 66.0181C65.2987 66.0181 65.6287 66.1118 65.8787 66.2993C66.1307 66.4849 66.2567 66.7358 66.2567 67.0522C66.2567 67.271 66.1961 67.4663 66.075 67.6382C65.9539 67.8081 65.7586 67.9604 65.4891 68.0952C65.8094 68.2671 66.0389 68.4468 66.1776 68.6343C66.3182 68.8198 66.3885 69.0239 66.3885 69.2466C66.3885 69.5981 66.2508 69.8813 65.9754 70.0962C65.7 70.3091 65.3377 70.4155 64.8885 70.4155C64.4198 70.4155 64.0516 70.3159 63.784 70.1167C63.5164 69.9175 63.3827 69.6353 63.3827 69.27C63.3827 69.0259 63.4471 68.8091 63.576 68.6196C63.7069 68.4302 63.9159 68.2632 64.203 68.1187C63.9588 67.9644 63.783 67.7993 63.6756 67.6235C63.5682 67.4478 63.5145 67.2554 63.5145 67.0464C63.5145 66.7397 63.6414 66.4917 63.8954 66.3022C64.1493 66.1128 64.4803 66.0181 64.8885 66.0181ZM64.2205 69.2173C64.2205 69.3853 64.2791 69.5161 64.3963 69.6099C64.5135 69.7036 64.6737 69.7505 64.8768 69.7505C65.1014 69.7505 65.2694 69.7026 65.3807 69.6069C65.492 69.5093 65.5477 69.3813 65.5477 69.2231C65.5477 69.0923 65.492 68.9702 65.3807 68.8569C65.2713 68.7417 65.0926 68.6196 64.8446 68.4907C64.4286 68.6821 64.2205 68.9243 64.2205 69.2173ZM64.8827 66.6802C64.7284 66.6802 64.6034 66.7202 64.5077 66.8003C64.4139 66.8784 64.367 66.9839 64.367 67.1167C64.367 67.2339 64.4041 67.3394 64.4784 67.4331C64.5545 67.5249 64.6912 67.6196 64.8885 67.7173C65.0799 67.6274 65.2137 67.5356 65.2899 67.4419C65.3661 67.3481 65.4041 67.2397 65.4041 67.1167C65.4041 66.9819 65.3553 66.8755 65.2577 66.7974C65.16 66.7192 65.035 66.6802 64.8827 66.6802ZM67.7099 66.1382C67.6123 66.5229 67.4404 66.9907 67.1943 67.5415H66.5527C66.6875 66.9634 66.7851 66.4741 66.8457 66.0737H67.6689L67.7099 66.1382ZM69.0781 66.1382C68.9804 66.5229 68.8086 66.9907 68.5625 67.5415H67.9209C68.0556 66.9634 68.1533 66.4741 68.2138 66.0737H69.0341L69.0781 66.1382ZM73.3702 70.3569H72.2159L70.3526 67.1167H70.3263C70.3634 67.689 70.3819 68.0972 70.3819 68.3413V70.3569H69.5704V66.0737H70.7159L72.5763 69.2817H72.5968C72.5675 68.7251 72.5528 68.3315 72.5528 68.1011V66.0737H73.3702V70.3569ZM45.4785 85.3569H44.5732V82.8784L44.582 82.4712L44.5967 82.0259C44.4463 82.1763 44.3418 82.2749 44.2832 82.3218L43.791 82.7173L43.3545 82.1724L44.7344 81.0737H45.4785V85.3569ZM46.5773 82.0259C46.5773 81.8462 46.6222 81.6782 46.712 81.522C46.8019 81.3657 46.9249 81.2417 47.0812 81.1499C47.2374 81.0581 47.4073 81.0122 47.5909 81.0122C47.7706 81.0122 47.9386 81.0571 48.0948 81.147C48.253 81.2368 48.3771 81.3608 48.4669 81.519C48.5587 81.6772 48.6046 81.8462 48.6046 82.0259C48.6046 82.2075 48.5587 82.3774 48.4669 82.5356C48.3771 82.6919 48.254 82.814 48.0978 82.9019C47.9415 82.9897 47.7726 83.0337 47.5909 83.0337C47.3077 83.0337 47.0675 82.937 46.8702 82.7437C46.6749 82.5483 46.5773 82.3091 46.5773 82.0259ZM47.1368 82.0259C47.1368 82.1509 47.1798 82.2573 47.2657 82.3452C47.3536 82.4331 47.462 82.4771 47.5909 82.4771C47.7198 82.4771 47.8282 82.4321 47.9161 82.3423C48.004 82.2524 48.048 82.147 48.048 82.0259C48.048 81.9028 48.003 81.7954 47.9132 81.7036C47.8253 81.6118 47.7179 81.5659 47.5909 81.5659C47.4659 81.5659 47.3585 81.6108 47.2687 81.7007C47.1808 81.7905 47.1368 81.8989 47.1368 82.0259ZM51.9944 85.3569H49.0002V84.7271L50.0754 83.6401C50.3938 83.314 50.6018 83.0884 50.6995 82.9634C50.7971 82.8364 50.8674 82.7192 50.9104 82.6118C50.9534 82.5044 50.9748 82.3931 50.9748 82.2778C50.9748 82.106 50.927 81.978 50.8313 81.894C50.7375 81.8101 50.6116 81.7681 50.4534 81.7681C50.2873 81.7681 50.1262 81.8062 49.97 81.8823C49.8137 81.9585 49.6506 82.0669 49.4807 82.2075L48.9885 81.6245C49.1995 81.4448 49.3743 81.3179 49.5129 81.2437C49.6516 81.1694 49.803 81.1128 49.967 81.0737C50.1311 81.0327 50.3147 81.0122 50.5178 81.0122C50.7854 81.0122 51.0217 81.061 51.2268 81.1587C51.4319 81.2563 51.5911 81.3931 51.7043 81.5688C51.8176 81.7446 51.8743 81.9458 51.8743 82.1724C51.8743 82.3696 51.8391 82.5552 51.7688 82.729C51.7004 82.9009 51.593 83.0776 51.4465 83.2593C51.302 83.4409 51.0461 83.6997 50.6789 84.0356L50.1282 84.5542V84.5952H51.9944V85.3569ZM55.2845 82.9019C55.2845 83.7456 55.1068 84.3755 54.7513 84.7915C54.3959 85.2075 53.8578 85.4155 53.1371 85.4155C52.8832 85.4155 52.6908 85.4019 52.5599 85.3745V84.6479C52.724 84.689 52.8959 84.7095 53.0755 84.7095C53.3783 84.7095 53.6273 84.6655 53.8226 84.5776C54.0179 84.4878 54.1673 84.3481 54.2709 84.1587C54.3744 83.9673 54.4339 83.7046 54.4496 83.3706H54.4144C54.3011 83.5542 54.1703 83.6831 54.0218 83.7573C53.8734 83.8315 53.6879 83.8687 53.4652 83.8687C53.0921 83.8687 52.7982 83.7495 52.5834 83.5112C52.3685 83.271 52.2611 82.938 52.2611 82.5122C52.2611 82.0532 52.391 81.6909 52.6507 81.4253C52.9125 81.1577 53.2679 81.0239 53.7171 81.0239C54.0336 81.0239 54.3099 81.0981 54.5463 81.2466C54.7845 81.395 54.9671 81.6108 55.0941 81.894C55.2211 82.1753 55.2845 82.5112 55.2845 82.9019ZM53.7347 81.7505C53.5472 81.7505 53.4007 81.8149 53.2953 81.9438C53.1898 82.0728 53.1371 82.2583 53.1371 82.5005C53.1371 82.7075 53.1849 82.8716 53.2806 82.9927C53.3763 83.1138 53.5218 83.1743 53.7171 83.1743C53.9007 83.1743 54.058 83.1147 54.1888 82.9956C54.3197 82.8745 54.3851 82.7358 54.3851 82.5796C54.3851 82.3472 54.3236 82.1509 54.2005 81.9907C54.0795 81.8306 53.9242 81.7505 53.7347 81.7505ZM56.5649 81.0737L56.6059 81.1382C56.5083 81.5229 56.3364 81.9907 56.0903 82.5415H55.4487C55.5835 81.9634 55.6811 81.4741 55.7417 81.0737H56.5649ZM59.0348 85.3569H58.1295V82.8784L58.1383 82.4712L58.1529 82.0259C58.0025 82.1763 57.898 82.2749 57.8395 82.3218L57.3473 82.7173L56.9107 82.1724L58.2906 81.0737H59.0348V85.3569ZM63.0749 83.2153C63.0749 83.9634 62.9519 84.5171 62.7058 84.8765C62.4616 85.2358 62.0847 85.4155 61.5749 85.4155C61.0808 85.4155 60.7077 85.23 60.4558 84.8589C60.2058 84.4878 60.0808 83.9399 60.0808 83.2153C60.0808 82.4595 60.2029 81.9028 60.447 81.5454C60.6911 81.186 61.0671 81.0063 61.5749 81.0063C62.0691 81.0063 62.4421 81.1938 62.6941 81.5688C62.948 81.9438 63.0749 82.4927 63.0749 83.2153ZM60.9802 83.2153C60.9802 83.7407 61.0251 84.1177 61.115 84.3462C61.2068 84.5728 61.3601 84.686 61.5749 84.686C61.7859 84.686 61.9382 84.5708 62.032 84.3403C62.1257 84.1099 62.1726 83.7349 62.1726 83.2153C62.1726 82.6899 62.1247 82.313 62.029 82.0845C61.9353 81.854 61.7839 81.7388 61.5749 81.7388C61.362 81.7388 61.2097 81.854 61.1179 82.0845C61.0261 82.313 60.9802 82.6899 60.9802 83.2153ZM64.4022 81.1382C64.3045 81.5229 64.1327 81.9907 63.8866 82.5415H63.245C63.3797 81.9634 63.4774 81.4741 63.5379 81.0737H64.3612L64.4022 81.1382ZM65.7704 81.1382C65.6727 81.5229 65.5008 81.9907 65.2547 82.5415H64.6131C64.7479 81.9634 64.8455 81.4741 64.9061 81.0737H65.7264L65.7704 81.1382ZM68.8847 85.3569L68.6328 84.2114L68.2929 82.7642H68.2724L67.6748 85.3569H66.7138L65.7822 82.0815H66.6728L67.0507 83.5317C67.1113 83.7915 67.1728 84.1499 67.2353 84.6069H67.2529C67.2607 84.4585 67.2949 84.2231 67.3554 83.9009L67.4023 83.6519L67.8066 82.0815H68.791L69.1748 83.6519C69.1826 83.6948 69.1943 83.7583 69.2099 83.8423C69.2275 83.9263 69.2441 84.0161 69.2597 84.1118C69.2754 84.2056 69.289 84.2983 69.3007 84.3901C69.3144 84.48 69.3222 84.5522 69.3242 84.6069H69.3418C69.3593 84.4663 69.3906 84.2739 69.4355 84.0298C69.4804 83.7837 69.5127 83.6177 69.5322 83.5317L69.9248 82.0815H70.8007L69.8574 85.3569H68.8847Z" fill="#ED8E15"/>
</g>
<defs>
<clipPath id="clip0">
<rect width="135" height="97" fill="white" transform="translate(8 12.3569)"/>
</clipPath>
</defs>
</svg>
