<svg width="118" height="176" viewBox="0 0 118 176" fill="none" xmlns="http://www.w3.org/2000/svg">
<path d="M93.4759 141.577C93.3865 141.678 93.2972 141.782 93.2107 141.885C92.0029 143.284 90.9117 144.778 89.9482 146.354C89.8703 146.475 89.7954 146.599 89.7262 146.72C87.4451 150.527 85.8922 154.724 85.1465 159.098C84.9794 160.087 84.8535 161.082 84.769 162.083C84.7084 162.854 84.6719 163.625 84.6595 164.398C84.6133 167.642 84.9016 171.252 82.8062 173.731C82.2462 174.383 81.5625 174.919 80.7945 175.307C80.2161 175.605 79.6048 175.836 78.973 175.994H72.4392C72.1107 175.945 71.7821 175.893 71.4535 175.842C71.4449 175.842 71.4362 175.839 71.4276 175.839L71.3613 175.862L70.9665 175.994L70.9492 176V175.994C70.9496 175.982 70.9487 175.971 70.9463 175.959C70.9468 175.938 70.9458 175.917 70.9434 175.896V175.893C70.9405 175.836 70.9376 175.781 70.9376 175.724L70.929 175.571C70.929 175.571 70.9261 175.568 70.929 175.568C70.9261 175.482 70.9203 175.396 70.9175 175.307C70.6148 167.8 71.3526 160.044 74.9034 153.435C76.121 151.171 77.689 149.112 79.5494 147.335C79.5602 147.324 79.5718 147.313 79.584 147.303C83.2761 143.789 88.0489 141.491 93.0868 141.569C93.2165 141.569 93.3462 141.572 93.4759 141.577Z" fill="#F0F0F0"/>
<path d="M93.4905 141.74C87.7847 144.662 83.1465 149.303 80.2348 155.005C79.5861 156.222 79.1337 157.533 78.8941 158.89C78.7035 160.219 78.8732 161.575 79.3854 162.817C79.8397 163.985 80.44 165.126 80.602 166.384C80.6753 167.028 80.6112 167.682 80.4139 168.3C80.2166 168.918 79.8905 169.488 79.457 169.972C78.4084 171.206 76.9781 171.99 75.5526 172.708C73.9699 173.505 72.3134 174.308 71.2145 175.75C71.0814 175.925 70.8175 175.708 70.9505 175.534C72.8623 173.026 76.2294 172.479 78.5224 170.439C79.5924 169.488 80.3814 168.208 80.2924 166.735C80.2145 165.447 79.5966 164.269 79.1264 163.091C78.6088 161.886 78.3947 160.574 78.5026 159.268C78.6721 157.904 79.0732 156.578 79.6887 155.347C81.0299 152.555 82.8028 149.99 84.9424 147.747C87.3701 145.174 90.221 143.034 93.3718 141.42C93.5669 141.321 93.6843 141.641 93.4905 141.74H93.4905Z" fill="white"/>
<path d="M81.0641 153.115C80.1717 152.497 79.5282 151.583 79.2487 150.536C78.9691 149.489 79.0717 148.377 79.538 147.399C79.633 147.201 79.9453 147.339 79.8501 147.537C79.4142 148.448 79.3188 149.483 79.5811 150.458C79.8435 151.432 80.4462 152.281 81.2807 152.851C81.4618 152.975 81.2442 153.238 81.0641 153.115V153.115Z" fill="white"/>
<path d="M79.0769 162.256C81.2646 161.88 83.2301 160.696 84.5816 158.939C84.7154 158.765 84.9792 158.981 84.8456 159.155C83.4359 160.981 81.3879 162.209 79.1105 162.595C78.8934 162.631 78.861 162.292 79.0769 162.256V162.256Z" fill="white"/>
<path d="M87.5494 145.589C87.8448 145.9 88.2129 146.132 88.6207 146.266C89.0284 146.4 89.4631 146.43 89.8855 146.355C90.1021 146.315 90.1342 146.655 89.9191 146.694C89.452 146.775 88.972 146.741 88.5212 146.594C88.0703 146.447 87.6623 146.193 87.3328 145.853C87.2991 145.823 87.2778 145.782 87.2734 145.737C87.269 145.693 87.2818 145.648 87.3091 145.613C87.3379 145.578 87.3794 145.556 87.4244 145.552C87.4694 145.547 87.5143 145.561 87.5494 145.589V145.589Z" fill="white"/>
<path d="M109.388 162.388C109.256 162.417 109.123 162.446 108.988 162.477H108.985C107.178 162.869 105.407 163.406 103.687 164.082C103.555 164.134 103.422 164.186 103.29 164.24H103.287C99.1874 165.906 95.4315 168.312 92.2078 171.338C92.1962 171.35 92.1847 171.358 92.1732 171.37C92.1662 171.378 92.1585 171.386 92.1501 171.393L92.1357 171.407C90.8566 172.616 89.6706 173.92 88.5878 175.307C88.5878 175.31 88.5849 175.313 88.582 175.316C88.4091 175.54 88.2333 175.764 88.0604 175.994H70.9664L70.9491 176V175.994H70.8771C70.8771 175.991 70.88 175.989 70.8828 175.986C70.8828 175.983 70.8857 175.983 70.8857 175.98C70.9059 175.951 70.9261 175.922 70.9434 175.897V175.894C70.9477 175.885 70.9535 175.877 70.9607 175.871C70.9779 175.842 70.9981 175.819 71.0125 175.793C71.1278 175.632 71.2402 175.468 71.3555 175.307C71.5428 175.04 71.7331 174.772 71.9262 174.507C71.9262 174.507 71.9262 174.507 71.9264 174.506C71.9265 174.506 71.9267 174.506 71.927 174.505C71.9273 174.505 71.9276 174.505 71.9279 174.505C71.9283 174.505 71.9287 174.505 71.929 174.505V174.502C71.9319 174.499 71.9319 174.496 71.9348 174.493L71.9406 174.487C74.3183 171.203 76.993 168.085 80.0567 165.474C80.1489 165.394 80.2411 165.313 80.3391 165.238C81.7264 164.067 83.208 163.012 84.769 162.083C85.6221 161.58 86.5011 161.118 87.4061 160.697C89.7404 159.624 92.2292 158.923 94.7815 158.621H94.7873C94.793 158.621 94.7988 158.618 94.8074 158.618C94.8161 158.618 94.8218 158.615 94.8276 158.615C99.903 158.028 105.105 159.061 109.085 162.15C109.189 162.23 109.287 162.308 109.388 162.388Z" fill="#F0F0F0"/>
<path d="M70.8771 175.994H70.9491V176L70.9664 175.994H75.5404C74.1771 175.761 72.8168 175.58 71.4535 175.842C71.4218 175.847 71.393 175.853 71.3613 175.862C71.2229 175.888 71.0846 175.922 70.9462 175.96C70.9376 175.962 70.9261 175.965 70.9174 175.968C70.9049 175.972 70.8931 175.978 70.8828 175.986C70.8755 175.987 70.8685 175.99 70.8627 175.994H70.8771Z" fill="white"/>
<path d="M109.305 162.529C109.198 162.512 109.094 162.492 108.988 162.477H108.985C106.761 162.115 104.504 162.002 102.255 162.138C102.143 162.144 102.027 162.152 101.912 162.158C98.7903 162.375 95.7211 163.073 92.813 164.226C92.8102 164.226 92.8102 164.226 92.8102 164.229C92.7784 164.24 92.7467 164.252 92.7179 164.263C92.0406 164.536 91.372 164.835 90.7177 165.158C89.4658 165.739 88.3132 166.514 87.3024 167.453C86.4932 168.25 85.8805 169.223 85.5126 170.297C85.4751 170.406 85.4377 170.513 85.4031 170.622C85.3771 170.708 85.3512 170.797 85.3253 170.884C84.9852 172.089 84.7748 173.36 84.1465 174.461C83.9715 174.769 83.7584 175.053 83.5124 175.307C83.2581 175.571 82.9715 175.802 82.6593 175.994H81.933C82.3305 175.823 82.699 175.591 83.0253 175.307C83.2791 175.088 83.5013 174.836 83.6853 174.556C84.4001 173.481 84.6191 172.169 84.9535 170.947C85.0082 170.748 85.0659 170.556 85.1293 170.363C85.462 169.308 86.0195 168.338 86.7635 167.519C87.722 166.531 88.8418 165.713 90.075 165.1C90.8532 164.692 91.6525 164.322 92.473 163.99C92.5796 163.944 92.6862 163.904 92.7929 163.863C97.9732 161.852 103.599 161.26 109.086 162.149C109.192 162.164 109.296 162.184 109.403 162.201C109.619 162.239 109.521 162.566 109.305 162.529Z" fill="white"/>
<path d="M92.5205 164.145C92.1805 163.116 92.2181 161.999 92.6266 160.996C93.0351 159.992 93.788 159.165 94.7507 158.664C94.9459 158.563 95.112 158.861 94.9165 158.962C94.0192 159.427 93.318 160.197 92.9395 161.133C92.561 162.068 92.5301 163.108 92.8525 164.064C92.9223 164.272 92.59 164.351 92.5206 164.145H92.5205Z" fill="white"/>
<path d="M85.4187 170.249C87.3919 171.264 89.6758 171.499 91.8151 170.908C92.027 170.849 92.1072 171.181 91.8955 171.239C89.6682 171.85 87.2919 171.601 85.2409 170.54C85.0455 170.439 85.2243 170.149 85.4187 170.249Z" fill="white"/>
<path d="M102.239 162.032C102.288 162.458 102.441 162.865 102.686 163.216C102.931 163.568 103.26 163.854 103.643 164.047C103.839 164.146 103.66 164.436 103.465 164.338C103.043 164.122 102.68 163.807 102.409 163.419C102.137 163.031 101.965 162.582 101.907 162.113C101.898 162.069 101.906 162.023 101.929 161.985C101.953 161.947 101.99 161.919 102.033 161.907C102.077 161.897 102.123 161.904 102.162 161.927C102.201 161.951 102.228 161.989 102.239 162.032V162.032Z" fill="white"/>
<path d="M92.3833 47.8243C92.4611 38.302 92.8492 28.6877 93.5476 18.9813C93.5592 18.7886 93.5736 18.5988 93.588 18.4061C93.9569 13.3531 94.4085 8.2818 94.9426 3.19231V3.16355C94.9421 2.32468 94.6079 1.52031 94.0135 0.927138C93.419 0.333965 92.6129 0.000500588 91.7723 0H6.74934C5.91151 0.00164264 5.10825 0.333501 4.51447 0.92332C3.92068 1.51314 3.58446 2.31315 3.579 3.14917C2.84117 10.1579 2.26282 17.1321 1.84395 24.0718C1.82666 24.299 1.81513 24.5233 1.8036 24.7505C1.59609 28.1815 1.43085 31.6039 1.30788 35.0177C1.29923 35.219 1.29058 35.4203 1.2877 35.6216C0.500825 56.5672 1.26668 77.5421 3.579 98.375C3.58506 99.2106 3.92157 100.01 4.51531 100.599C5.10904 101.188 5.91196 101.52 6.74934 101.521H91.7723C92.6129 101.521 93.419 101.187 94.0135 100.594C94.6079 100.001 94.9421 99.1966 94.9426 98.3578V98.3261C94.5247 94.6248 94.1577 90.8994 93.8416 87.1501C93.7955 86.6008 93.7504 86.0515 93.7062 85.5022C93.4871 82.8017 93.2959 80.0906 93.1326 77.369C93.098 76.8197 93.0663 76.2704 93.0375 75.7211C92.7291 70.274 92.5274 64.7848 92.4323 59.2534C92.4207 58.7041 92.4121 58.1576 92.4034 57.6054C92.3689 54.9049 92.3583 52.1938 92.3718 49.4722C92.3718 48.9229 92.3746 48.3736 92.3833 47.8243Z" fill="#F0F0F0"/>
<path d="M118 21.5698C118 20.7309 117.665 19.9266 117.071 19.3334C116.476 18.7402 115.67 18.4068 114.83 18.4062H29.8068C28.969 18.4079 28.1657 18.7398 27.5719 19.3296C26.9781 19.9194 26.6419 20.7194 26.6365 21.5554C23.7659 48.8684 23.2903 75.6982 25.2127 101.521C25.4461 104.717 25.719 107.896 26.0312 111.058C26.1984 112.752 26.3761 114.441 26.5644 116.126C26.5875 116.344 26.6105 116.563 26.6365 116.781C26.6425 117.617 26.979 118.416 27.5728 119.005C28.1665 119.595 28.9694 119.926 29.8068 119.928H114.83C115.67 119.927 116.476 119.594 117.071 119C117.665 118.407 118 117.603 118 116.764V116.732C114.562 86.3134 114.562 54.3068 118 21.5986V21.5698Z" fill="white"/>
<path d="M118 21.5698C118 20.7309 117.665 19.9266 117.071 19.3334C116.476 18.7402 115.67 18.4068 114.83 18.4062H29.8068C28.969 18.4079 28.1657 18.7398 27.5719 19.3296C26.9781 19.9194 26.6419 20.7194 26.6365 21.5554C23.7659 48.8684 23.2903 75.6982 25.2127 101.521C25.4461 104.717 25.719 107.896 26.0312 111.058C26.1984 112.752 26.3761 114.441 26.5644 116.126C26.5875 116.344 26.6105 116.563 26.6365 116.781C26.6425 117.617 26.979 118.416 27.5728 119.005C28.1665 119.595 28.9694 119.926 29.8068 119.928H114.83C115.67 119.927 116.476 119.594 117.071 119C117.665 118.407 118 117.603 118 116.764V116.732C114.562 86.3134 114.562 54.3068 118 21.5986V21.5698ZM117.424 116.781C117.419 117.465 117.143 118.118 116.657 118.6C116.171 119.081 115.515 119.352 114.83 119.352H29.8068C29.1192 119.351 28.46 119.078 27.9738 118.593C27.4875 118.108 27.2139 117.45 27.2129 116.764V116.732C27.1927 116.548 27.1725 116.361 27.1524 116.177C26.9535 114.417 26.7681 112.652 26.5961 110.883C26.2935 107.78 26.0254 104.659 25.792 101.521C23.8696 75.7126 24.3423 48.9 27.2129 21.5986V21.5698C27.2139 20.8836 27.4875 20.2259 27.9738 19.7407C28.46 19.2555 29.1192 18.9825 29.8068 18.9814H114.83C115.515 18.9817 116.173 19.2525 116.659 19.7347C117.145 20.217 117.42 20.8715 117.424 21.5554C113.985 54.2896 113.985 86.3306 117.424 116.781Z" fill="#E4E4E4"/>
<path d="M35.6672 47.8242C35.4485 47.8248 35.2389 47.9119 35.0845 48.0664C34.93 48.221 34.8433 48.4303 34.8433 48.6486C34.8433 48.8668 34.93 49.0762 35.0845 49.2307C35.2389 49.3852 35.4485 49.4723 35.6672 49.4729H104.761C104.98 49.4723 105.189 49.3852 105.344 49.2307C105.498 49.0762 105.585 48.8668 105.585 48.6486C105.585 48.4303 105.498 48.221 105.344 48.0664C105.189 47.9119 104.98 47.8248 104.761 47.8242H35.6672Z" fill="#E6E6E6"/>
<path d="M35.6674 52.771C35.4485 52.7714 35.2388 52.8584 35.0842 53.013C34.9296 53.1675 34.8428 53.377 34.8428 53.5953C34.8428 53.8137 34.9296 54.0231 35.0842 54.1777C35.2388 54.3322 35.4485 54.4193 35.6674 54.4197H82.5725C82.7914 54.4193 83.0011 54.3322 83.1557 54.1777C83.3103 54.0231 83.3971 53.8137 83.3971 53.5953C83.3971 53.377 83.3103 53.1675 83.1557 53.013C83.0011 52.8584 82.7914 52.7714 82.5725 52.771H35.6674Z" fill="#E6E6E6"/>
<path d="M35.6674 57.6055C35.4485 57.6059 35.2388 57.6929 35.0842 57.8475C34.9296 58.002 34.8428 58.2114 34.8428 58.4298C34.8428 58.6482 34.9296 58.8576 35.0842 59.0122C35.2388 59.1667 35.4485 59.2538 35.6674 59.2542H104.761C104.98 59.2538 105.19 59.1667 105.344 59.0122C105.499 58.8576 105.586 58.6482 105.586 58.4298C105.586 58.2114 105.499 58.002 105.344 57.8475C105.19 57.6929 104.98 57.6059 104.761 57.6055H35.6674Z" fill="#E6E6E6"/>
<path d="M35.6672 62.5522C35.4485 62.5528 35.2389 62.6399 35.0845 62.7945C34.93 62.949 34.8433 63.1583 34.8433 63.3766C34.8433 63.5949 34.93 63.8042 35.0845 63.9587C35.2389 64.1133 35.4485 64.2004 35.6672 64.201H82.5724C82.7911 64.2004 83.0007 64.1133 83.1551 63.9587C83.3096 63.8042 83.3963 63.5949 83.3963 63.3766C83.3963 63.1583 83.3096 62.949 83.1551 62.7945C83.0007 62.6399 82.7911 62.5528 82.5724 62.5522H35.6672Z" fill="#E6E6E6"/>
<path d="M35.6672 75.7212C35.4485 75.7218 35.2389 75.8089 35.0845 75.9634C34.93 76.1179 34.8433 76.3273 34.8433 76.5455C34.8433 76.7638 34.93 76.9731 35.0845 77.1277C35.2389 77.2822 35.4485 77.3693 35.6672 77.3699H104.761C104.98 77.3693 105.189 77.2822 105.344 77.1277C105.498 76.9731 105.585 76.7638 105.585 76.5455C105.585 76.3273 105.498 76.1179 105.344 75.9634C105.189 75.8089 104.98 75.7218 104.761 75.7212H35.6672Z" fill="#E6E6E6"/>
<path d="M35.6674 80.668C35.4485 80.6684 35.2388 80.7554 35.0842 80.91C34.9296 81.0645 34.8428 81.274 34.8428 81.4923C34.8428 81.7107 34.9296 81.9201 35.0842 82.0747C35.2388 82.2292 35.4485 82.3163 35.6674 82.3167H82.5725C82.7914 82.3163 83.0011 82.2292 83.1557 82.0747C83.3103 81.9201 83.3971 81.7107 83.3971 81.4923C83.3971 81.274 83.3103 81.0645 83.1557 80.91C83.0011 80.7554 82.7914 80.6684 82.5725 80.668H35.6674Z" fill="#E6E6E6"/>
<path d="M35.6674 85.5024C35.4485 85.5028 35.2388 85.5899 35.0842 85.7444C34.9296 85.899 34.8428 86.1084 34.8428 86.3268C34.8428 86.5452 34.9296 86.7546 35.0842 86.9092C35.2388 87.0637 35.4485 87.1507 35.6674 87.1511H104.761C104.98 87.1507 105.19 87.0637 105.344 86.9092C105.499 86.7546 105.586 86.5452 105.586 86.3268C105.586 86.1084 105.499 85.899 105.344 85.7444C105.19 85.5899 104.98 85.5028 104.761 85.5024H35.6674Z" fill="#E6E6E6"/>
<path d="M35.6672 90.4487C35.4485 90.4493 35.2389 90.5364 35.0845 90.6909C34.93 90.8455 34.8433 91.0548 34.8433 91.2731C34.8433 91.4913 34.93 91.7007 35.0845 91.8552C35.2389 92.0097 35.4485 92.0968 35.6672 92.0974H82.5724C82.7911 92.0968 83.0007 92.0097 83.1551 91.8552C83.3096 91.7007 83.3963 91.4913 83.3963 91.2731C83.3963 91.0548 83.3096 90.8455 83.1551 90.6909C83.0007 90.5364 82.7911 90.4493 82.5724 90.4487H35.6672Z" fill="#E6E6E6"/>
<path d="M49.3384 37.5889H36.1416C35.9707 37.5887 35.8069 37.5208 35.686 37.4002C35.5651 37.2796 35.4971 37.1161 35.4969 36.9455V34.8357C35.4971 34.6651 35.5651 34.5016 35.686 34.381C35.8069 34.2604 35.9707 34.1926 36.1416 34.1924H49.3384C49.5093 34.1926 49.6731 34.2604 49.794 34.381C49.9149 34.5016 49.9828 34.6651 49.983 34.8357V36.9455C49.9828 37.1161 49.9149 37.2796 49.794 37.4002C49.6731 37.5208 49.5093 37.5887 49.3384 37.5889Z" fill="#276AB1"/>
<path d="M95.1839 105.455L91.1417 106.788C90.468 107.01 89.7943 107.232 89.1206 107.454C88.4966 107.659 87.8214 107.903 87.1535 107.815C86.6918 107.754 86.1656 107.489 86.0218 107.015C85.8857 106.567 86.1742 106.097 86.5236 105.832C87.4882 105.1 88.708 105.845 89.3914 106.603C90.2274 107.531 90.7006 108.728 91.4846 109.699C92.1827 110.57 93.0676 111.273 94.0742 111.757C96.0747 112.7 98.5148 112.6 100.299 111.226C102.43 109.586 102.647 106.743 102.659 104.263C102.655 104.152 102.607 104.046 102.527 103.968C102.446 103.89 102.338 103.847 102.226 103.847C102.114 103.847 102.006 103.89 101.926 103.968C101.845 104.046 101.798 104.152 101.794 104.263C101.784 106.511 101.656 109.266 99.6018 110.673C97.6345 112.02 95.0489 111.663 93.2376 110.227C92.2283 109.427 91.6074 108.384 90.9447 107.304C90.2978 106.25 89.4946 105.228 88.2772 104.818C87.7551 104.628 87.1836 104.625 86.6592 104.807C86.1347 104.99 85.6896 105.348 85.3991 105.82C85.2664 106.043 85.1828 106.292 85.1538 106.549C85.1249 106.807 85.1513 107.068 85.2313 107.315C85.3114 107.561 85.4431 107.788 85.6179 107.98C85.7926 108.172 86.0063 108.325 86.2448 108.428C87.6564 109.099 89.2713 108.312 90.6305 107.864L95.4138 106.287C95.9396 106.113 95.7144 105.28 95.1839 105.455L95.1839 105.455Z" fill="#276AB1"/>
<path d="M83.2054 168.87L80.3709 169.801L75.4199 159.336L79.6033 157.96L83.2054 168.87Z" fill="#9F616A"/>
<path d="M85.2273 171.246L85.0342 170.662L84.5269 169.123L84.1811 168.077L83.2357 168.387L83.0398 168.373L80.4429 168.197L80.0971 168.174L79.5841 168.14L79.0538 168.103L77.5723 170.251H77.5694C77.0157 170.431 76.5033 170.719 76.062 171.098C75.6206 171.477 75.2592 171.94 74.9986 172.46C74.9669 172.523 74.9381 172.586 74.9092 172.649C74.8378 172.804 74.7771 172.964 74.7277 173.127C74.5034 173.832 74.4617 174.582 74.6066 175.307C74.6439 175.487 74.691 175.664 74.7478 175.839L74.7565 175.868L74.7911 175.974L74.9986 175.905L76.8201 175.307L83.2012 173.21L84.4664 172.793L84.8555 172.664H84.8584L85.6135 172.416L85.2273 171.246Z" fill="#2F2E41"/>
<path d="M56.338 171.33L53.3538 171.329L51.9341 159.843L56.3386 159.844L56.338 171.33Z" fill="#9F616A"/>
<path d="M51.5623 120.978L50.2394 123.262C50.2394 123.262 48.7857 123.658 49.2608 128.386C49.5963 131.725 49.7051 146.674 50.5497 156.386C50.9012 160.428 51.3802 163.563 52.056 164.576L52.472 164.948L56.8145 165.362L56.924 165.324L58.5186 154.086C58.8048 152.068 58.762 150.018 58.3917 148.014V148.014L58.1035 144.851L62.1018 128.832C62.1018 128.832 66.1734 139.099 68.7674 148.877C69.3918 151.231 71.7636 152.728 72.6628 154.748C72.9641 155.424 73.2601 156.08 73.5489 156.709C75.4508 160.852 76.4042 163.869 77.1256 164.12H77.702L81.1605 162.969L81.8409 161.262L76.5491 145.713L72.5864 120.608C65.036 116.557 57.9534 116.106 51.5623 120.978Z" fill="#2F2E41"/>
<path d="M73.1915 87.1503C72.9308 86.5774 72.6243 86.0263 72.275 85.5024C71.4764 84.2606 70.3667 83.2484 69.0556 82.566L67.9201 82.3158L65.8853 81.8672L64.8131 80.6679L63.055 78.7036H57.0025L56.1927 80.6679L55.5125 82.3158L55.2214 83.0176L50.0393 85.603C50.0364 85.603 50.0364 85.603 50.0335 85.6059C50.1027 86.1236 50.1709 86.6384 50.2382 87.1503C50.3852 88.2633 50.5235 89.3629 50.6532 90.449C50.7195 91.0012 50.7829 91.5505 50.8434 92.097C51.0365 93.811 51.2027 95.4954 51.342 97.15C51.466 98.6282 51.5649 100.085 51.6389 101.521C51.8191 104.783 51.8326 108.051 51.6793 111.314C51.6389 112.082 52.4027 112.956 52.3421 113.707C52.2413 114.932 51.293 116.019 51.1259 117.19C51.0221 117.909 51.0682 118.674 50.8867 119.352C50.8362 119.551 50.7606 119.742 50.6619 119.922C50.6619 119.925 50.659 119.925 50.659 119.928C48.5838 123.626 50.2122 121.86 50.0191 122.691L50.1114 122.714C50.1546 122.726 50.2872 122.76 50.5005 122.809C51.7196 123.1 56.746 118.392 60.121 118.392C62.1472 118.392 67.5108 121.716 69.3064 121.958C70.7273 122.148 71.9954 122.32 72.7505 121.656C72.9696 121.462 73.137 121.217 73.2376 120.943L73.2462 120.917L73.2434 120.891L73.1713 119.928L73.1281 119.352L72.5113 111.098C72.1669 110.672 71.9492 110.158 71.8829 109.615C71.8167 109.071 71.9046 108.52 72.1366 108.024L72.2634 107.757L71.7965 101.521L71.7101 100.357L71.6784 99.9627V99.9598L71.4536 96.9487L71.9954 95.3036V95.3008L73.0503 92.097L73.5921 90.449L73.9322 89.4137L73.9553 89.3447C73.7738 88.5899 73.5179 87.8548 73.1915 87.1503V87.1503Z" fill="#276AB1"/>
<path d="M78.4495 116.89L72.6392 101.906L69.9406 96.4343L75.1298 93.5737L79.3092 100.922L82.1108 116.274C82.5518 116.574 82.8927 116.999 83.0897 117.495C83.2867 117.99 83.3309 118.532 83.2165 119.053C83.102 119.573 82.8343 120.048 82.4476 120.415C82.061 120.783 81.573 121.026 81.0465 121.115C80.52 121.204 79.9789 121.133 79.4928 120.913C79.0068 120.692 78.5979 120.332 78.3187 119.877C78.0395 119.423 77.9028 118.896 77.9261 118.364C77.9494 117.831 78.1317 117.318 78.4495 116.89H78.4495Z" fill="#9F616A"/>
<path d="M78.5666 96.247L77.0794 95.2864L75.3703 92.097L74.4884 90.4491L73.9321 89.4137L73.6958 88.9708L71.024 87.1503L69.2198 85.9194L67.7499 87.1503L67.0496 87.737L67.7355 90.4491L68.1505 92.097L69.0555 95.6718L71.71 100.357L72.37 101.522L72.7476 102.192L72.7504 102.197L72.8023 102.287L79.509 102.008L79.7194 101.999L79.731 101.522L79.7367 101.349C79.7396 101.263 79.7396 101.176 79.7396 101.09C79.7387 99.4058 79.3367 97.7458 78.5666 96.247V96.247Z" fill="#276AB1"/>
<path d="M27.8051 110.931L39.6913 100.093L43.8223 95.5986L48.3761 99.3865L43.0299 105.938L29.7087 114.112C29.5882 114.631 29.3148 115.102 28.9238 115.465C28.5328 115.828 28.042 116.066 27.5144 116.148C26.9869 116.231 26.4467 116.154 25.9633 115.927C25.4799 115.701 25.0753 115.336 24.8015 114.878C24.5278 114.421 24.3973 113.892 24.427 113.36C24.4566 112.828 24.645 112.317 24.9679 111.893C25.2908 111.469 25.7334 111.15 26.239 110.979C26.7446 110.807 27.29 110.791 27.8051 110.931H27.8051Z" fill="#9F616A"/>
<path d="M52.3421 92.097L52.319 90.4491L52.2758 87.1504L52.2585 85.8706L52.2095 85.8361C51.9411 85.6604 51.6369 85.5464 51.3189 85.5025C51.0393 85.4562 50.754 85.4562 50.4745 85.5025C50.3271 85.5252 50.1816 85.5589 50.0392 85.6031C50.0364 85.6031 50.0364 85.6031 50.0335 85.606C49.1792 85.9121 48.4248 86.4451 47.8517 87.1475L47.8488 87.1504C46.9845 88.1763 46.2184 89.2807 45.5604 90.4491C45.2347 91.0013 44.9235 91.5592 44.6324 92.097C43.5314 94.1418 42.7388 95.9134 42.7244 95.9451L39.433 100.21L39.4791 100.288L40.2025 101.522L42.8541 106.045L43.2749 106.764L44.3499 106.192C45.6031 105.525 46.5911 104.452 47.1514 103.149L47.5347 101.688L47.6759 101.522L51.342 97.1501L52.3911 95.8962L52.3421 92.097Z" fill="#276AB1"/>
<path d="M64.9038 73.0753C65.3947 70.0571 63.3406 67.2134 60.3159 66.7236C57.2912 66.2338 54.4413 68.2835 53.9505 71.3017C53.4597 74.3199 55.5138 77.1637 58.5384 77.6534C61.5631 78.1432 64.413 76.0935 64.9038 73.0753Z" fill="#9F616A"/>
<path d="M54.0638 68.5591C53.8172 67.6978 53.324 66.9597 53.5706 66.9597C53.8172 66.9597 53.9405 66.3445 53.9405 66.3445C53.9405 66.3445 54.1871 66.2215 54.3104 66.3445C54.4337 66.4675 54.557 65.4833 54.557 65.4833C54.557 65.4833 54.6803 65.1142 54.8036 65.3602C54.9269 65.6063 54.9269 65.4833 55.0502 65.1142C55.1735 64.7451 55.79 64.499 55.79 64.499C55.79 64.499 58.1326 64.622 58.5025 64.1299C58.8724 63.6378 63.0644 64.0069 63.9275 64.622C64.7906 65.2372 68.1909 66.337 66.1734 69.7881C67.3263 71.8013 65.6052 75.3919 65.1605 75.8179C64.4572 76.4916 63.9704 76.7345 60.6429 77.3952C59.9917 77.5245 58.3917 72.0889 58.3917 72.0889C58.3917 72.0889 54.3104 69.4203 54.0638 68.5591Z" fill="#2F2E41"/>
<path d="M56.5184 170.881L56.3397 170.809L53.129 169.503L52.6361 169.305L50.5552 170.881H50.5524C49.3766 170.882 48.2495 171.349 47.4185 172.179C46.5874 173.009 46.1202 174.134 46.1196 175.307V175.451H57.5127V170.881H56.5184Z" fill="#2F2E41"/>
<path d="M90.0059 175.649C90.0061 175.695 89.9974 175.739 89.9802 175.781C89.9631 175.823 89.9379 175.861 89.906 175.893C89.8742 175.925 89.8363 175.95 89.7946 175.968C89.7529 175.985 89.7081 175.994 89.6629 175.994H31.0691C30.9778 175.994 30.8902 175.958 30.8256 175.894C30.761 175.829 30.7247 175.742 30.7247 175.651C30.7247 175.56 30.761 175.472 30.8256 175.408C30.8902 175.343 30.9778 175.307 31.0691 175.307H89.6629C89.7538 175.307 89.8409 175.343 89.9052 175.408C89.9695 175.472 90.0057 175.559 90.0059 175.649V175.649Z" fill="#CCCCCC"/>
<path d="M29.5128 0C29.0594 8.04319 26.0964 15.7435 21.0389 22.0227C15.9814 28.302 9.08251 32.8457 1.30826 35.0177C1.29962 35.219 1.29097 35.4203 1.28809 35.6216C9.22338 33.4433 16.2725 28.8329 21.4403 22.4413C26.6081 16.0497 29.6335 8.19984 30.0892 0H29.5128Z" fill="white"/>
<path d="M20.6848 0C19.3454 5.078 16.9843 9.83087 13.7453 13.9692C10.5063 18.1076 6.45713 21.5449 1.8443 24.0718C1.82701 24.299 1.81548 24.5233 1.80396 24.7505C6.58455 22.1871 10.7825 18.6652 14.1343 14.406C17.4861 10.1468 19.9194 5.24216 21.2814 0H20.6848Z" fill="white"/>
</svg>
