<?xml version="1.0" encoding="iso-8859-1"?>
<!-- Generator: Adobe Illustrator 19.0.0, SVG Export Plug-In . SVG Version: 6.00 Build 0)  -->
<svg version="1.1" id="Capa_1" xmlns="http://www.w3.org/2000/svg" xmlns:xlink="http://www.w3.org/1999/xlink" x="0px" y="0px"
	 viewBox="0 0 512 512" style="enable-background:new 0 0 512 512;" xml:space="preserve">
<path style="fill:#ECEEF1;" d="M504,48H8c-4.418,0-8,3.582-8,8v400c0,4.418,3.582,8,8,8h496c4.418,0,8-3.582,8-8V56
	C512,51.582,508.418,48,504,48z"/>
<path style="fill:#D9DDE2;" d="M24,456V56c0-4.418,3.582-8,8-8H8c-4.418,0-8,3.582-8,8v400c0,4.418,3.582,8,8,8h24
	C27.582,464,24,460.418,24,456z"/>
<path style="fill:#69788D;" d="M504,48H8c-4.418,0-8,3.582-8,8v88h512V56C512,51.582,508.418,48,504,48z"/>
<path style="fill:#56677E;" d="M32,48H8c-4.418,0-8,3.582-8,8v88h24V56C24,51.582,27.582,48,32,48z"/>
<path style="fill:#DB6B5E;" d="M464,72c-13.233,0-24,10.766-24,24s10.767,24,24,24s24-10.766,24-24S477.233,72,464,72z"/>
<path style="fill:#FF8C78;" d="M464,80c-8.822,0-16,7.177-16,16s7.178,16,16,16s16-7.177,16-16S472.822,80,464,80z"/>
<path style="fill:#F7C14D;" d="M400,72c-13.233,0-24,10.766-24,24s10.767,24,24,24s24-10.766,24-24S413.233,72,400,72z"/>
<path style="fill:#FFDB66;" d="M400,80c-8.822,0-16,7.177-16,16s7.178,16,16,16s16-7.177,16-16S408.822,80,400,80z"/>
<path style="fill:#59AD57;" d="M336,72c-13.233,0-24,10.766-24,24s10.767,24,24,24s24-10.766,24-24S349.233,72,336,72z"/>
<path style="fill:#7EC97D;" d="M336,80c-8.822,0-16,7.177-16,16s7.178,16,16,16s16-7.177,16-16S344.822,80,336,80z"/>
<g>
	<path style="fill:#435670;" d="M48,104h-8c-4.418,0-8-3.582-8-8s3.582-8,8-8h8c4.418,0,8,3.582,8,8S52.418,104,48,104z"/>
	<path style="fill:#435670;" d="M88,104H72c-4.418,0-8-3.582-8-8s3.582-8,8-8h16c4.418,0,8,3.582,8,8S92.418,104,88,104z"/>
	<path style="fill:#435670;" d="M120,104h-8c-4.418,0-8-3.582-8-8s3.582-8,8-8h8c4.418,0,8,3.582,8,8S124.418,104,120,104z"/>
</g>
<g>
	<path style="fill:#FF8C78;" d="M172,312h-12v-84c0-4.954-3.16-9.508-7.801-11.241c-4.932-1.841-10.64-0.172-13.799,4.04l-72,96
		c-2.826,3.768-3.166,8.985-0.856,13.089C67.649,333.628,71.709,336,76,336h60v12c0,6.627,5.373,12,12,12s12-5.373,12-12v-12h12
		c6.627,0,12-5.373,12-12S178.627,312,172,312z M136,312h-36l36-48V312z"/>
	<path style="fill:#FF8C78;" d="M436,312h-12v-84c0-5.165-3.305-9.751-8.205-11.384c-4.903-1.634-10.296,0.053-13.395,4.184l-72,96
		c-2.727,3.636-3.166,8.501-1.133,12.567S335.455,336,340,336h60v12c0,6.627,5.373,12,12,12s12-5.373,12-12v-12h12
		c6.627,0,12-5.373,12-12S442.627,312,436,312z M400,312h-36l36-48V312z"/>
</g>
<path style="fill:#DB6B5E;" d="M260,216h-8c-24.262,0-44,19.738-44,44v56c0,24.262,19.738,44,44,44h8c24.262,0,44-19.738,44-44v-56
	C304,235.738,284.262,216,260,216z M280,316c0,11.028-8.972,20-20,20h-8c-11.028,0-20-8.972-20-20v-56c0-11.028,8.972-20,20-20h8
	c11.028,0,20,8.972,20,20V316z"/>
<g>
</g>
<g>
</g>
<g>
</g>
<g>
</g>
<g>
</g>
<g>
</g>
<g>
</g>
<g>
</g>
<g>
</g>
<g>
</g>
<g>
</g>
<g>
</g>
<g>
</g>
<g>
</g>
<g>
</g>
</svg>
