<?xml version="1.0" encoding="utf-8"?>
<!-- Generator: Adobe Illustrator 24.1.3, SVG Export Plug-In . SVG Version: 6.00 Build 0)  -->
<svg version="1.1" id="Calque_1" xmlns="http://www.w3.org/2000/svg" xmlns:xlink="http://www.w3.org/1999/xlink" x="0px" y="0px"
	 viewBox="0 0 20 20" style="enable-background:new 0 0 20 20;" xml:space="preserve">
<style type="text/css">
	.st0{fill:#63A0D7;}
</style>
<path class="st0" d="M10,0C4.5,0,0,4.5,0,10s4.5,10,10,10s10-4.5,10-10S15.5,0,10,0z M10,18.1c-4.5,0-8.1-3.6-8.1-8.1
	S5.5,1.9,10,1.9s8.1,3.6,8.1,8.1S14.5,18.1,10,18.1z M12.5,13.9l-3.4-2.5c-0.1-0.1-0.2-0.2-0.2-0.4V4.4c0-0.3,0.2-0.5,0.5-0.5h1.3
	c0.3,0,0.5,0.2,0.5,0.5v5.7l2.7,2c0.2,0.2,0.3,0.5,0.1,0.7l-0.8,1C13,14,12.7,14,12.5,13.9L12.5,13.9z"/>
</svg>
