<?xml version="1.0" encoding="utf-8"?>
<!-- Generator: Adobe Illustrator 24.1.2, SVG Export Plug-In . SVG Version: 6.00 Build 0)  -->
<svg version="1.1" id="Calque_1" xmlns="http://www.w3.org/2000/svg" xmlns:xlink="http://www.w3.org/1999/xlink" x="0px" y="0px"
	 viewBox="0 0 1521 96" style="enable-background:new 0 0 1521 96;" xml:space="preserve">
<style type="text/css">
	.st0{clip-path:url(#SVGID_2_);fill:#EFECFA;}
</style>
<g>
	<defs>
		<rect id="SVGID_1_" x="-1.5" y="-36.1" width="1525.1" height="134.3"/>
	</defs>
	<clipPath id="SVGID_2_">
		<use xlink:href="#SVGID_1_"  style="overflow:visible;"/>
	</clipPath>
	<path class="st0" d="M836.9,62.8c-139-0.3-272.2-12-399.6-25S183.7,10.4,47.6,4C-39.9,0-139.7,0.1-209,14
		c-66.7,13.4-86.9,35.7-97.1,56.3c-7.7,15.5-11.7,31.8,13.6,46.1c17.5,9.9,48,18.1,69.4,27.6c74.3,32.9,26.6,74.6-48.8,107.9
		c-35.5,15.6-76.7,30.6-103.6,47.1c-27,16.5-38.6,35.4-12.8,51.8c25.6,16.3,84.8,28.2,148.5,36.4c129.4,16.7,280.7,20.5,428.1,22.2
		c326.3,3.7,653.7-1.6,980.2-7c120.8-2,242.2-4,360.7-10.2c65.8-3.5,133.7-8.7,180.8-20.4c59.9-14.9,73.2-39.4,31.1-57.1
		c-70.6-29.7-260.4-35.7-310.6-67.8c-27.6-17.7-2.1-37.8,35-54.7c79.5-36.2,214.7-68.5,219-109.3c2.9-28-65.3-55.4-168.5-67.8
		c-108.3-13-256.7-10.1-334.2,13.5C1102.1,52.8,959.8,63,836.9,62.8z"/>
</g>
</svg>
