<?xml version="1.0" encoding="utf-8"?>
<!-- Generator: Adobe Illustrator 24.1.2, SVG Export Plug-In . SVG Version: 6.00 Build 0)  -->
<svg version="1.1" id="Calque_1" xmlns="http://www.w3.org/2000/svg" xmlns:xlink="http://www.w3.org/1999/xlink" x="0px" y="0px"
	 viewBox="0 0 1521 96" style="enable-background:new 0 0 1521 96;" xml:space="preserve">
<style type="text/css">
	.st0{clip-path:url(#SVGID_2_);fill:#EFECFA;}
</style>
<g>
	<defs>
		<rect id="SVGID_1_" x="-2.2" y="-1.2" width="1525.2" height="108.2"/>
	</defs>
	<clipPath id="SVGID_2_">
		<use xlink:href="#SVGID_1_"  style="overflow:visible;"/>
	</clipPath>
	<path class="st0" d="M798.1-72.7c4.4-26.4,37.3-49.6,73.1-71.4c35.8-21.8,75.3-43.2,94.8-67.9c12.5-15.9,14.9-34.9-17.9-50.7
		c-31.5-15.2-86.7-23.2-137.9-29.1c-38.5-4.4-79.1-8.2-115.4-6.1c-25.2,1.5-46.5,5.7-70.7,8c-84.1,8-186.8-8.9-267.9-29.5
		c-38-9.7-74.3-20.3-114.8-28.6c-40.5-8.2-87.2-14-128.9-12.1c-41.4,1.8-72.7,10.8-95,21.4c-45.1,21.5-58.8,49.6-67,77.4
		c-18.2,61.4-13.6,124.8-9.1,188c1.7,23.4,3.4,46.9,15.8,70.6c6.9,13.2,18.2,27.1,46.1,38.3C39,49.8,99.7,57,145.1,52.3
		c76.1-7.9,96.2-42.9,177.6-46.4c44.9-1.9,94.4,6.7,135.5,16.9C546.5,44.7,623.5,76.5,725,85c69.7,5.8,140-2,173.8-19.4
		c35.5-18.2,32.2-47-24.5-66.2C815.9-20.3,794.2-49.3,798.1-72.7z"/>
	<path class="st0" d="M1749.7-73.3c0.5-24.4,39.8-47.7,83.5-69.9c43.7-22.2,92.4-44.2,113.5-68c13.5-15.3,12.8-32.8-34.6-45.2
		c-45.6-11.9-121.4-15.7-191.5-17.7c-52.7-1.5-108.1-2.4-156.5,1.9c-33.6,3-61.4,8.2-93.4,11.9c-111.5,12.7-253.2,3.8-366.5-9.8
		c-53.2-6.4-104.1-13.8-160.4-18.7c-56.3-4.9-120.2-7.2-176-2.8c-55.3,4.3-95.6,14.6-123.3,25.6c-56.2,22.5-68.9,49-74.1,74.9
		c-11.7,57.2,7.6,114.8,26.8,172.2c7.1,21.2,14.3,42.6,35.9,63.4c12,11.6,30.1,23.6,70,32c50.7,10.7,134,13.3,194,6.1
		c100.7-12.1,120.5-45.3,229.4-53.7c59.9-4.6,128.4,0.1,185.9,6.8c123.3,14.4,233.5,38.5,371.8,39.7c95,0.8,188-10.8,229.8-28.8
		c44-18.9,33.5-45-46.7-58.8C1784.5-26.7,1749.3-51.8,1749.7-73.3z"/>
</g>
</svg>
