<?xml version="1.0" encoding="utf-8"?>
<!-- Generator: Adobe Illustrator 24.1.2, SVG Export Plug-In . SVG Version: 6.00 Build 0)  -->
<svg version="1.1" id="f1903550-5374-4fc8-959e-1f31e4981ba4"
	 xmlns="http://www.w3.org/2000/svg" xmlns:xlink="http://www.w3.org/1999/xlink" x="0px" y="0px" viewBox="0 0 1017.2 708.3"
	 style="enable-background:new 0 0 1017.2 708.3;" xml:space="preserve">
<style type="text/css">
	.st0{opacity:0.1;fill:#7E64D0;enable-background:new    ;}
	.st1{opacity:0.1;}
	.st2{fill:#7E64D0;}
	.st3{fill:url(#SVGID_1_);}
	.st4{fill:#FBBEBE;}
	.st5{fill:#464353;}
	.st6{opacity:0.1;enable-background:new    ;}
	.st7{fill:#F86D70;}
	.st8{opacity:5.000000e-02;enable-background:new    ;}
	.st9{fill:#3F3D56;}
	.st10{opacity:0.2;enable-background:new    ;}
	.st11{fill:#FFFFFF;}
	.st12{fill:none;stroke:#3F3D56;stroke-width:4;stroke-miterlimit:10;}
</style>
<path class="st0" d="M594.2,111.4c-64.7-2.3-126.4-23.1-185.2-46S291.8,17.2,228.7,5.2C188.1-2.6,141.6-3.7,108.9,18
	c-31.5,21-41.7,57.2-47.2,90.7c-4.1,25.3-6.5,51.8,4.8,75.5c7.8,16.4,21.7,30.2,31.4,46c33.5,54.7,9.8,122.2-26.5,175.6
	c-17,25.1-36.7,49-49.9,75.7S2.3,538.8,13.8,566c11.4,27,38.5,47.2,67.9,61.5c59.7,28.9,130,37.2,198.6,41.9
	c151.8,10.4,304.5,5.9,456.7,1.4c56.3-1.7,112.9-3.4,168.3-12.1c30.8-4.8,62.6-12.5,84.9-31c28.4-23.5,35.4-63.4,16.4-92.9
	c-31.9-49.5-120-61.8-142.3-114.9c-12.3-29.2,0.3-61.8,18.2-88.9c38.2-58.2,102.3-109.2,105.7-175.7c2.3-45.7-28.5-91.4-76.1-113
	C862.1,19.7,792.8,22.5,756,60C718,98.5,651.4,113.4,594.2,111.4z"/>
<g class="st1">
	<path class="st2" d="M86.4,328.4c0,0-74.7-31.4-84.6,25.3c0,0-5.1,8.8,2,16.1c0,0,1.5-3.9,8.8,0.1c2.6,1.4,5.3,2.5,8.2,3.3
		c3.8,1.1,7.9,0.8,11.6-0.6l0,0c0,0,24.6-1.3,45.3-33.5c0,0,8.9-5.5,9.3-7.5l-14.8,1c0,0,1.1,10.9-5,17.4c0,0,5.4-16.8,2.8-17.3
		c-0.5-0.1-7.8,0.9-7.8,0.9s1.9,18.9-8,28.6c0,0,9.2-19.2,5.2-28.3l-10.9,2.1c0,0,3,19.9-7.8,31.4c0,0,8.9-20.4,5.5-30.8L35.5,340
		c0,0,2.5,19.4-6.5,29c0,0,7.9-24.6,4.2-28c0,0-9.4,3.8-11.4,6c0,0,1.5,14-4.3,19c0,0,3.5-17,1.8-17.7c0,0-10.9,8.2-14.3,15.4
		c0,0,4.2-10.9,12.9-17c0,0-7.3-1.2-13,1.8c0,0,3.8-7.2,15.7-3.8c0,0,8.8-6.1,10.6-6c0,0-11.2-5-19.3-4.4c0,0,8.7-5,22.1,3.4
		l10.4-3.8c0,0-14.5-7.4-21.8-7.4c0,0,9.7-3.7,24.5,6.7l10.7-2.2c0,0-12-7.4-20.1-9.1c0,0,9.7-1.5,23.2,8.5l7.3-0.6
		c0,0-8.9-5.2-11.5-6.5s-2.6-2.1-2.6-2.1c6.4,1.1,12.3,4,17.2,8.3C71.1,329.6,86.3,329.3,86.4,328.4z"/>
</g>
<g class="st1">
	<path class="st2" d="M83.6,272c0,0-26.5-61.3-64.6-33.2c0,0-8.1,2.3-8,10.7c0,0,3.1-1.5,5.1,5.1c0.7,2.3,1.7,4.5,3,6.6
		c1.7,2.8,4.2,5,7.3,6.3l0,0c0,0,15.4,13.2,46,5.9c0,0,8.4,1.8,9.8,0.8l-9.4-7.9c0,0-5.5,7.1-12.9,7.4c0,0,12.8-6.9,11.6-8.7
		c-0.3-0.4-5.1-3.9-5.1-3.9s-9.6,12.3-21,12.5c0,0,16.4-6.2,19.2-13.9l-7.7-5c0,0-9.5,13.5-22.5,14.2c0,0,16.9-7,20.8-15.2l-8.2-3.9
		c0,0-9.6,13-20.4,13.5c0,0,18.7-10.1,18.4-14.3c0,0-7.8-3.1-10.2-2.9c0,0-7.1,9.1-13.4,8.9c0,0,11.8-8.1,11.2-9.5
		c0,0-11.2-1.3-17.2,1c0,0,8.7-4.1,17.3-2.7c0,0-3.7-4.9-8.8-6.3c0,0,6.4-2.1,11.5,6.6c0,0,8.7,1.4,9.7,2.4c0,0-3.8-9.4-9-13.6
		c0,0,8,2,11.2,14.6l8.4,3.7c0,0-4.4-12.7-8.7-16.8c0,0,7.9,3.3,10.8,17.9l7.6,4.8c0,0-2.9-11.2-6.8-16.8c0,0,6.6,4.6,8.9,18.3
		l4.7,3.8c0,0-2.3-8.1-3.2-10.4s-0.3-2.7-0.3-2.7c3.2,4.3,5.1,9.4,5.5,14.7C74,264,83,272.5,83.6,272z"/>
</g>
<linearGradient id="SVGID_1_" gradientUnits="userSpaceOnUse" x1="815.8691" y1="-94.1476" x2="815.8691" y2="417.4632" gradientTransform="matrix(1 0 0 -1 -91.39 614.15)">
	<stop  offset="0" style="stop-color:#808080;stop-opacity:0.25"/>
	<stop  offset="0.54" style="stop-color:#808080;stop-opacity:0.12"/>
	<stop  offset="1" style="stop-color:#808080;stop-opacity:0.1"/>
</linearGradient>
<path class="st3" d="M933.3,667.2c-1-3.6-2-7.3-4-10.4c-1.9-2.7-4.1-5.1-6.6-7.2c-7.3-6.6-16.2-13.3-25.8-11.6
	c-3,0.7-5.9,1.7-8.6,3.1c-1.4,0.7-2.8,1.3-4.3,1.8c-4.1,1.7-8.5,2.1-12.8,1.1c-2.2-0.6-4.3-1.7-6.4-2.3c-1-0.3-2.1-0.5-3.2-0.7
	c2.1-0.9,4.1-2,6.1-3.2c10.8-6.7,19.4-18.7,18.2-31.4c-0.4-4.3-1.9-8.4-3.3-12.5c-1.3-3.5-2.6-7.1-3.8-10.6
	c-1.7-4.6-3.4-9.3-6.4-13.1c-3.4-4.3-8.2-7.2-13.1-9.3c-10.7-4.6-22.3-6.3-33.8-7.8l-0.8-0.1V428.7c0-4.4-3.5-8-7.9-8c0,0,0,0-0.1,0
	h-15.1c-0.7-4.1-1.3-8.2-2-12.2c-1.9-11.6-3.9-23.5-9.2-33.9c-3.5-6.9-9.1-13.4-16.6-14.7c-1.5-0.1-2.9-0.5-4.3-1
	c-2.2-1.1-3.4-3.5-5.1-5.3c-4.4-4.6-11.5-4.6-17.3-7c-5.2-2-9.4-5.9-14.1-8.9s-10.5-5.1-15.8-3.1c0,0.4-0.1,0.8-0.1,1.1l-3.3-1.5
	c-3.6-1.7-7.3-3.4-10.2-6.1c-3.7-3.5-5.7-8.1-7.2-13.1c-0.2-0.5-0.3-1-0.5-1.5c6.4-6.5,10.7-14.8,12.4-23.8c0.3,0.9,0.5,1.8,0.8,2.6
	c0.2,0.9,0.6,1.8,1,2.6c0.1,0.3,0.3,0.5,0.5,0.8c0.3,0.5,0.7,0.9,1.2,1.3c0.5,0.3,1,0.6,1.6,0.6c0.3,0,0.6,0,0.8,0
	c1.5-0.3,2.8-1.4,3.4-2.9c0.2-0.4,0.3-0.8,0.3-1.2c0-0.3,0.1-0.5,0.1-0.8c0-0.1,0-0.2,0-0.2s0-0.4,0-0.5s0-0.2,0-0.3s0-0.3,0-0.5
	v-0.3c0-0.2-0.1-0.4-0.1-0.6s0-0.1,0-0.2c0-0.3-0.1-0.5-0.2-0.8c0-0.1,0-0.1,0-0.2l-0.2-0.6l-0.1-0.4v-0.1l0,0
	c-0.1-0.4-0.2-0.8-0.3-1.2c-0.7-3.5-0.9-7-0.5-10.6c0.6-5.2,1.6-10.3,2.9-15.4l0.2-0.9l0.2-1.1c0.2-0.7,0.3-1.4,0.5-2.2l0,0
	c0.1-0.6,0.3-1.2,0.4-1.9s0.2-1.1,0.3-1.6c0-0.1,0-0.1,0-0.2c0.6-3.7,0.8-7.5,0.5-11.3l0,0c-0.5-5.2-2.1-10.2-5.7-14.1
	c-2.5-2.8-5.8-4.9-8.1-7.8c-2.2-2.8-3.4-6.1-5.7-8.8c-6.3-7.5-22.3-13.2-32.1-14.2c-11.3-1.1-29.5,1.7-38.6,8.4
	c-3.4,2.5-5.7,6-8,9.4c-4.3,6.3-9.2,12.5-16.1,16c-2.6,1.3-5.6,2.3-7.3,4.6c-1,1.6-1.7,3.3-2,5.2c-1.3,6.5-2,13.1-2.1,19.8
	c-0.1,2.9,0.2,5.8,1.1,8.6c0.1,0.4,0.3,0.8,0.5,1.1l0,0c0.2,0.3,0.3,0.7,0.5,1l0.1,0.2c1.2,1.7,2.3,3.6,3.2,5.5
	c0.2,0.5,0.4,1.1,0.5,1.7c0.2,1.5,0.1,3-0.3,4.4l0,0c0,0.2-0.1,0.4-0.1,0.6l-0.1,0.5c0,0.1,0,0.3-0.1,0.4c-0.1,0.4-0.2,0.9-0.2,1.3
	c0,0.3-0.1,0.6-0.1,0.9c-0.1,1.2,0.2,2.5,0.7,3.6c0.1,0.3,0.3,0.5,0.5,0.8c0.4,0.5,0.8,0.9,1.3,1.1c1.2,0.4,2.4,0.7,3.7,0.9
	c3.7,0.8,6.1,3.7,7.6,7.2c0.3,0.8,0.6,1.6,0.9,2.4c0.6,2.1,1.1,4.1,1.4,6.3c1.7-0.1,2.7-1.6,3.3-3.2c0.2-0.5,0.3-1.1,0.5-1.6
	c0.2-1,0.5-2.1,0.7-3.1c3.9,8.4,10.3,15.4,18.3,20.1c0.3,0.8,0.5,1.6,0.8,2.5c1.3,4.5,1.9,9.3-0.3,13.2c-1.6,2.8-4.3,4.5-7.4,5.8
	c-0.4-0.6-1-1.1-1.7-1.4c-2.6-1.3-5.8,0.3-8,2.3c-4,3.6-7.3,8.8-12.5,10c-1.9,0.4-4,0.4-5.6,1.5c-1,1-1.9,2.1-2.6,3.4
	c-2.3,3.3-6.2,5.3-10.2,5.1c-1.8-0.1-4-0.5-5.3,0.8c-0.9,1-1,2.6-2,3.5c-1.3,1.3-3.5,0.7-5.4,0.6c-2.7,0-5.4,1.1-7.3,3.1
	c-0.1-4-1.7-7.9-4.4-10.9c-2.7-2.8-6.5-4.2-9.7-6.4c-8-5.4-12-15-16.2-23.8s-9.7-18-18.8-21.2c-2.1-0.7-5-0.8-5.9,1.2
	c-0.3,0.8-0.4,1.8-0.2,2.6c0.9,4.7,4.2,8.4,7.1,12.1c4.8,6.3,8.9,14,7.7,22c-1.4,9.4-9.7,16.6-10.7,26c-0.4,4.1,0.6,8.3,0.6,12.5
	c0,2.6-0.4,5.2,0.2,7.8c0.6,1.9,1.3,3.8,2.1,5.6c0.9,3,1.4,6.2,1.4,9.3c0.7,13.3,1.4,26.5,2.1,39.8c0.5,9.9-1.6,19.7-3.8,29.4
	c-2.7,5.8-4.8,11.8-6.3,18c-2.5,10.8-2.5,22.4,1,32.9c1.9,5.7,4.8,11.1,6.3,16.9c0,0.1,0.1,0.3,0.1,0.4c0.2,1.2,0.3,2.5,0.5,3.7
	c0.3,1.4,0.7,2.8,1.1,4.2c0.5,2.4,1.2,4.7,2.2,6.9c1.4,2.8,3.5,5.2,6,7c-1.4,2.8-3.8,5.1-5.3,7.8c-2.7,4.8-2.8,10.7-1.8,16.1
	c1.9,10.5,7.5,19.8,15,27.4c-0.3,0-0.7,0-1,0c-2.4,0.3-4.8,1.1-6.8,2.5c-15.8,9.2-24.8,29-21.5,47.1c0.7,3.5,1.8,7.1,4.1,9.8
	c2,2.1,4.5,3.7,7.3,4.5c1.7,0.5,3.5,0.9,5.4,1c12.3,1,24.2-4.7,36.6-5.2c4.1-0.1,8.2,0.1,12.3,0.6c5.9,0.5,11.9,0.8,17.9,0.9
	c9.7,0.2,15.2-2.3,21.3-9.6c1.5-1.8,2.8-3.8,3.8-5.9c5.3-0.3,11.1-0.8,15.3-1.1l0.1,0.6c0.2,2,0.6,4.3,2.2,5.6c0.9,0.6,1.9,1,3,1.2
	c10.1,2.5,20.3,5,30.7,5c4.9-0.1,9.8-0.5,14.6-1.1l18.3-2.1c5.3,0.7,10.6,1.8,15.7,3.4c5.3,1.8,10.2,4.5,15.4,6.6
	c12,4.9,24.9,6.6,37.7,8.3c2.2,0.3,4.7,0.5,6.3-1c2.1-2,1.4-5.3,0.8-8.2c-0.2-1.1-0.4-2.3-0.6-3.5c8.6,2.3,17.1,5.2,25.3,8.8
	l1.4,0.6c0.4,2.2,2.4,3.9,4.4,6.3c0.6,1,1.4,1.9,2.2,2.7c1,0.6,2,1,3.2,1.2c13.5,2.5,27.3,3.1,41,1.8c2.8-0.4,5.6-0.5,8.5-0.3
	c2.1,0.3,4.1,0.7,6.1,1.4l11.6,3.3c8.5,2.5,17.3,4.9,26.1,4.4c1.8-0.1,3.6-0.4,5.3-0.8c7-1.6,13.5-5.5,16.9-11.8
	C938,687,935.8,676.5,933.3,667.2z M593.6,510.7c-0.4,4.3-1.5,8.6-3.3,12.5c-1.2,2.5-2.8,4.8-4,7.3c-1.1,2.3-1.9,6.6-2.4,11.3
	c-0.6-0.1-1.2-0.2-1.8-0.3c0.9-3.1,1.6-6.3,2.5-9.5C586.6,524.8,590.1,517.7,593.6,510.7z"/>
<path class="st4" d="M609,664.5c-2.1-4.8-4.1-10.3-2-15.1c1.4-2.8,3.7-5.1,6.7-6.3c2.9-1.2,5.9-1.9,9-2.2c9.7-1.3,19.5-1.4,29.3-0.4
	c0.7,5.6-0.8,11.3-2.1,16.8c-1.2,5-1.8,5.7-7,6C639.5,663.5,609.8,666.3,609,664.5z"/>
<ellipse class="st5" cx="698.1" cy="592.2" rx="143" ry="40"/>
<ellipse class="st6" cx="698.1" cy="592.2" rx="143" ry="40"/>
<path class="st4" d="M723.7,381c-4.9,9.5-13,16.9-22.9,20.8c-5.8,2.1-12,3.3-18.2,3.5c-6.8,0.3-13.7-0.1-20.1-2.5
	c-8.6-3.1-15.7-9.4-21-16.8s-9-15.8-12.2-24.3c-1.7-4.4-3.3-9.1-2.5-13.8c5.2-1.2,10.8-2.9,13.5-7.5c2.3-3.9,1.6-8.6,0.3-13.1
	c-0.4-1.3-0.8-2.5-1.2-3.7c-1-2.9-4.5-8.4-2-10.9c1.5-1.6,7.9-2.4,10.2-3.4c6.8-3.1,13.1-7.7,20.6-9.2c6.5-1.3,13.2-0.1,19.6,1.3
	c0.9,0.1,1.7,0.4,2.4,0.9c0.8,0.7,1.5,1.6,1.8,2.7c1.8,4.5,2.9,9.4,4.4,14.1c1.5,4.9,3.5,9.5,7.2,13c2.9,2.7,6.6,4.4,10.2,6.1
	l8.9,4.1c1.6,0.6,3,1.5,4.2,2.7c1.2,1.6,1.9,3.5,2,5.4C730.3,360.8,728.6,371.5,723.7,381z"/>
<path class="st6" d="M696.2,319c-14.5,15.1-37.4,18.5-55.6,8.3c-0.4-1.3-0.8-2.5-1.2-3.7c-1-2.9-4.5-8.4-2-10.9
	c1.5-1.6,7.9-2.4,10.2-3.4c6.8-3.1,13.1-7.7,20.6-9.2c6.5-1.3,13.2-0.1,19.6,1.3c0.9,0.1,1.7,0.4,2.4,0.9c0.8,0.7,1.5,1.6,1.8,2.7
	C693.7,309.4,694.8,314.4,696.2,319z"/>
<circle class="st4" cx="663.1" cy="285.2" r="46"/>
<path class="st7" d="M803.2,434.4l-3.8-22.9c-1.9-11.5-3.9-23.2-9.2-33.5c-3.5-6.8-9.1-13.2-16.6-14.6c-1.5-0.1-2.9-0.5-4.3-1
	c-2.2-1.1-3.4-3.4-5.1-5.2c-4.4-4.5-11.5-4.6-17.3-6.9c-5.2-2-9.4-5.9-14.1-8.8s-10.5-5-15.8-3.1c-0.8,9-1.7,18.1-5.5,26.3
	c-9.2,19.7-32.5,28.2-52.2,19c-2.5-1.2-4.9-2.6-7.1-4.2c-8.9-6.7-14.6-17.1-17.3-27.9c-0.7-2.6-1.4-5.7-3.8-6.9
	c-2.6-1.3-5.8,0.3-8,2.2c-4,3.6-7.3,8.7-12.5,9.9c-1.9,0.4-4,0.4-5.6,1.5c-1.1,1-1.9,2.1-2.6,3.4c-2.3,3.3-6.2,5.2-10.2,5.1
	c-1.8-0.1-4-0.5-5.3,0.8c-0.9,1-1,2.6-2,3.5c-1.3,1.3-3.5,0.7-5.4,0.6c-3.6-0.1-6.9,2.1-8.9,5s-3,6.4-4,9.9
	c10.9,24.3,20.9,48.7,31.9,73c0.5,0.9,0.8,1.9,0.8,3c-0.2,1.1-0.7,2.1-1.4,3c-5.4,8.6-5.2,19.4-4.6,29.6s1.3,20.8-3.2,29.9
	c-1.2,2.5-2.8,4.8-4,7.3c-2.7,5.6-3.7,23.7-2.1,29.7h226c-4.3-11.8-2.7-35.6-1.8-48.2c0.6-8.8-1-17.6-1.7-26.4
	C805.1,469.4,806.2,452.4,803.2,434.4z"/>
<path class="st5" d="M814.8,555c3.3-1.3,7-0.8,10.6-0.3c11.5,1.6,23.2,3.2,33.8,7.8c5,2.1,9.8,5,13.1,9.2c3,3.8,4.8,8.4,6.4,13
	l3.8,10.5c1.5,4,2.9,8.1,3.3,12.3c1.2,12.6-7.4,24.5-18.2,31s-23.6,8.9-36,11.3s-24.9,5.1-37.3,8c-5.8,1.5-11.6,2.6-17.5,3.5
	c-13.2,1.5-27.1-0.7-39.7,3.7c-5,1.8-9.9,4.3-15.1,5.6c-3.4,0.8-6.9,1.3-10.4,1.7l-23.8,2.7c-4.8,0.6-9.7,1-14.6,1.1
	c-10.4,0-20.6-2.5-30.7-4.9c-1.1-0.2-2.1-0.6-3-1.2c-1.6-1.3-2-3.5-2.2-5.5c-1-8.9-1.9-17.9-2.7-26.8c-0.2-2.9-0.4-6.1,1.2-8.5
	c2-3,5.9-3.9,9.5-4.5c15.1-2.5,30.4-3.5,45.7-3.2c5.8-5.8,15.4-5.8,23-9c2.8-1.3,5.5-2.8,8.1-4.4c13.6-7.9,28.8-12.7,44.5-14.1
	c3.1-0.1,6.1-0.5,9.1-1.3c5.9-1.8,11.3-6.8,17.3-5.6c0.8-2.1,1.3-4.8,3-6.3c0.9-0.7,1.9-1.2,2.7-2c1.7-1.7,1.8-4.3,1.6-6.7
	s-0.8-4.8-0.2-7.1c0.3-0.9,0.6-1.7,1.1-2.5C804.2,557.2,808.8,554.5,814.8,555z"/>
<path class="st8" d="M814.8,555c3.3-1.3,7-0.8,10.6-0.3c11.5,1.6,23.2,3.2,33.8,7.8c5,2.1,9.8,5,13.1,9.2c3,3.8,4.8,8.4,6.4,13
	l3.8,10.5c1.5,4,2.9,8.1,3.3,12.3c1.2,12.6-7.4,24.5-18.2,31s-23.6,8.9-36,11.3s-24.9,5.1-37.3,8c-5.8,1.5-11.6,2.6-17.5,3.5
	c-13.2,1.5-27.1-0.7-39.7,3.7c-5,1.8-9.9,4.3-15.1,5.6c-3.4,0.8-6.9,1.3-10.4,1.7l-23.8,2.7c-4.8,0.6-9.7,1-14.6,1.1
	c-10.4,0-20.6-2.5-30.7-4.9c-1.1-0.2-2.1-0.6-3-1.2c-1.6-1.3-2-3.5-2.2-5.5c-1-8.9-1.9-17.9-2.7-26.8c-0.2-2.9-0.4-6.1,1.2-8.5
	c2-3,5.9-3.9,9.5-4.5c15.1-2.5,30.4-3.5,45.7-3.2c5.8-5.8,15.4-5.8,23-9c2.8-1.3,5.5-2.8,8.1-4.4c13.6-7.9,28.8-12.7,44.5-14.1
	c3.1-0.1,6.1-0.5,9.1-1.3c5.9-1.8,11.3-6.8,17.3-5.6c0.8-2.1,1.3-4.8,3-6.3c0.9-0.7,1.9-1.2,2.7-2c1.7-1.7,1.8-4.3,1.6-6.7
	s-0.8-4.8-0.2-7.1c0.3-0.9,0.6-1.7,1.1-2.5C804.2,557.2,808.8,554.5,814.8,555z"/>
<path class="st9" d="M618.2,670.7c-6.2,7.2-11.6,9.7-21.3,9.5c-6-0.1-11.9-0.5-17.9-0.9c-4.1-0.4-8.2-0.6-12.2-0.6
	c-12.3,0.5-24.3,6.1-36.6,5.1c-1.8-0.1-3.6-0.5-5.4-1c-2.8-0.8-5.3-2.3-7.3-4.4c-2.4-2.7-3.5-6.2-4.1-9.7
	c-3.3-17.9,5.7-37.5,21.5-46.6c2.1-1.3,4.4-2.2,6.8-2.4c2.4,0,4.8,0.5,6.9,1.5l0.2,0.1c6.4,2.6,12.2,6.5,17.1,11.4
	c0.7,0.9,1.6,1.6,2.6,2.1c1,0.4,2,0.6,3.1,0.6l13.1,0.8c2.2,0.1,4.4,0.4,6.6,0.9c2.4,0.8,4.7,1.8,6.9,3c7.1,3.2,14.9,4,22.5,5.2
	c0.7,0,1.4,0.3,2,0.8c0.3,0.4,0.5,0.8,0.6,1.3C625.8,655.6,623.8,664.3,618.2,670.7z"/>
<path class="st6" d="M548.9,621.3c-5.1,4.9-9.5,10.4-13.2,16.4c-5.8,10-9.5,21.1-10.7,32.5c-0.5,4.2-0.5,8.4-0.1,12.6
	c-2.8-0.8-5.3-2.3-7.3-4.4c-2.4-2.7-3.5-6.2-4.1-9.7c-3.3-17.9,5.7-37.5,21.5-46.6c2.1-1.3,4.4-2.2,6.8-2.4c2.4,0,4.8,0.5,6.9,1.5
	L548.9,621.3z"/>
<path class="st4" d="M803.3,646.2c7.3-0.2,15.6-0.6,21,4.4c5.2,4.7,5.8,12.4,6.2,19.3l0.4,8.1c0.1,2.5,0.2,5-0.8,7.3
	c-1.8,4-6.6,5.9-11,5.7s-8.5-2.2-12.5-3.9c-10.9-4.7-22.3-8.3-34-10.7c0.4-5.6,1-11.1,1.9-16.7c0.6-3.8,0.7-10.2,3.3-13.4
	c2.7-3.4,6.2-1.5,9.9-0.9C792.9,646.1,798.1,646.4,803.3,646.2z"/>
<path class="st5" d="M609.1,565.1c0,1-1.6,0-1.7-1.1c-1.1-8.1-7.5-14.8-15-18s-16-3.4-24.1-2.6c-12.3,1.2-26,5.8-30.5,17.3
	c-1.1,2.7-1.5,5.6-2.8,8.2c-1.4,2.8-3.8,5.1-5.3,7.8c-2.7,4.7-2.8,10.5-1.8,15.9c2.6,14.3,12.4,26.5,24.2,35s25.7,13.5,39.5,18.1
	c36.5,12,74,21,112,26.8c6.2,0.9,12.4,1.8,18.3,3.8c5.3,1.8,10.2,4.4,15.4,6.5c12,4.8,24.9,6.5,37.7,8.2c2.2,0.3,4.7,0.5,6.3-1
	c2.1-1.9,1.4-5.3,0.8-8.1c-2.2-10.5-0.4-21.5,5.1-30.7c2.1-3.6,4.9-7.3,4.5-11.5c-0.5-4.9-5.3-8.3-10.1-9.1s-9.7,0.4-14.6,1
	c-1.7,0.2-3.5,0.4-5-0.5c-0.7-0.5-1.4-1.1-1.9-1.7c-6.8-6.6-17.2-8-25.5-3.6c-1.8,1-4.5-1.2-6.4-2.1l-21-9.5
	c-24.2-10.9-48.4-21.9-74-28.8c-2-0.4-4-1.2-5.7-2.4c-1.3-1-2.2-2.4-3.3-3.5c-2.5-2.4-6.1-3.4-9.2-5.1S608.4,568.5,609.1,565.1z"/>
<path class="st9" d="M933.3,695.8c-3.4,6.2-9.9,10.1-16.9,11.7c-1.8,0.4-3.5,0.7-5.3,0.8c-8.8,0.5-17.6-1.9-26.1-4.3l-11.6-3.3
	c-2-0.6-4-1.1-6.1-1.4c-2.8-0.2-5.6-0.1-8.4,0.3c-13.7,1.3-27.5,0.7-41-1.8c-1.1-0.1-2.2-0.5-3.2-1.1c-0.8-0.8-1.6-1.7-2.2-2.7
	c-3.2-3.8-6.5-6-2.8-11c2.2-2.9,6.1-4.3,7.8-7.7s0.6-8.1-0.4-11.5c-1.3-4.8-5.8-6.8-7.4-11.2c-1.2-3.3,0.8-7.1,3.8-8.9
	s6.7-1.9,10.2-1.5s6.9,1.4,10.4,1.7c10.3,0.8,20.8-4.5,30.6-1.5c2.2,0.7,4.2,1.7,6.4,2.3c4.3,1,8.8,0.6,12.8-1.1
	c1.4-0.5,2.8-1.2,4.3-1.8c2.7-1.4,5.6-2.4,8.5-3.1c9.6-1.7,18.5,5,25.8,11.5c2.5,2.1,4.7,4.5,6.5,7.1c2,3.1,3.1,6.8,4,10.3
	C935.7,676.8,937.9,687.3,933.3,695.8z"/>
<path class="st6" d="M933.3,695.8c-3.4,6.2-9.9,10.1-16.9,11.7c2.7-5.3,4-11.2,3.5-17.2c-0.6-9.5-4.8-18.5-10.1-26.4
	c-3.3-4.9-7-9.4-11.1-13.6c-3.2-3.2-7.1-5.7-10.5-8.7c2.7-1.4,5.6-2.4,8.5-3.1c9.6-1.7,18.5,5,25.8,11.5c2.5,2.1,4.7,4.5,6.5,7.1
	c2,3.1,3.1,6.8,4,10.3C935.7,676.8,937.9,687.3,933.3,695.8z"/>
<path class="st9" d="M631.3,210.5c-3.4,2.4-5.7,5.9-8,9.3c-4.3,6.2-9.2,12.4-16.1,15.8c-2.6,1.3-5.6,2.3-7.3,4.6
	c-1,1.5-1.7,3.3-2,5.1c-1.3,6.5-2,13-2.1,19.6c0,3.3,0.1,6.7,1.6,9.6c1.4,2.8,3.8,5.2,4.3,8.2c0.4,2.4-0.5,4.8-0.8,7.1
	s0.2,5.2,2.4,6.4c1.2,0.4,2.4,0.7,3.7,0.9c6.7,1.5,8.9,9.3,9.9,15.7c2.3-0.1,3.3-2.7,3.8-4.8l6.9-30.8c0.8-3.3,2-7.2,5.3-8.4
	c2.2-0.8,4.7,0,7,0.1c9.2,0.8,16.9-6.3,25.8-8.3c2.9-0.6,5.8-0.8,8.7-0.6c7.1,0.4,15.3,3.3,16.8,9.8c0.3,1.1,0.4,2.4,1.4,2.9
	s2,0.1,3.1,0c4.5-0.5,7.1,4.6,8.4,8.7l4.7,15c0.7,2.3,1.9,4.9,4.3,5.2c2.3,0.3,4.2-1.9,4.5-4s-0.4-4.3-0.9-6.5
	c-2.2-9.9,1.2-19.9,3.2-29.8s2.4-21.2-4.5-28.8c-2.5-2.8-5.8-4.8-8.2-7.7c-2.2-2.7-3.4-6.1-5.7-8.7c-6.3-7.4-22.3-13.1-32.1-14
	C658.6,201.1,640.4,203.9,631.3,210.5z"/>
<g class="st1">
	<path d="M713.4,294.8c-2.5-0.3-3.6-3-4.3-5.2c-1.6-5-3.1-10-4.7-15c-1.3-4.1-3.9-9.2-8.4-8.7c-1,0.1-2.2,0.5-3.1,0
		s-1.2-1.8-1.4-2.9c-1.5-6.6-9.7-9.5-16.8-9.8c-2.9-0.2-5.8,0-8.7,0.6c-9,2-16.7,9-25.8,8.3c-2.4-0.2-4.8-0.9-7-0.1
		c-3.4,1.2-4.6,5-5.3,8.4l-6.9,30.8c-0.5,2.1-1.5,4.7-3.8,4.8c-1-6.4-3.2-14.2-9.9-15.7c-1.3-0.1-2.5-0.4-3.7-0.9
		c-0.9-0.5-1.6-1.2-1.9-2.1c-0.2,0.9-0.4,1.9-0.5,2.8c-0.3,2.4,0.2,5.2,2.4,6.4c1.2,0.4,2.4,0.7,3.7,0.9c6.7,1.5,8.9,9.3,9.9,15.7
		c2.3-0.1,3.3-2.7,3.8-4.8l6.9-30.8c0.8-3.3,2-7.2,5.3-8.4c2.2-0.8,4.7,0,7,0.1c9.2,0.8,16.9-6.3,25.8-8.3c2.9-0.6,5.8-0.8,8.7-0.6
		c7.1,0.4,15.3,3.3,16.8,9.8c0.3,1.1,0.4,2.4,1.4,2.9s2,0.1,3.1,0c4.5-0.5,7.1,4.6,8.4,8.7c1.6,5,3.1,10,4.7,15
		c0.7,2.3,1.9,4.9,4.3,5.2c2.3,0.3,4.2-1.9,4.5-4c0.2-1.8-0.1-3.6-0.6-5.3C716.5,294,715,294.9,713.4,294.8z"/>
	<path d="M601.8,275.8c-0.5-3-3-5.4-4.3-8.2c-0.9-1.9-1.4-3.9-1.5-6c0,1.1-0.1,2.2-0.1,3.4c0,3.3,0.1,6.7,1.6,9.6
		c1.1,2.3,2.9,4.3,3.9,6.6C601.8,279.4,602,277.6,601.8,275.8z"/>
	<path d="M720.3,254.5c-1.8,8.7-4.7,17.6-3.8,26.3c0.6-6.5,2.5-12.9,3.8-19.3c1.1-4.9,1.5-9.8,1.2-14.8
		C721.2,249.3,720.8,251.9,720.3,254.5z"/>
</g>
<path class="st4" d="M605.8,478.6c-1.2,19.9-15.8,36.3-21.3,55.4c-1.4,4.8-2.2,9.7-4.2,14.3c-4,9.2-12.2,15.8-21,20.5
	c-3.2,1.8-6.7,3.1-10.3,3.8c-8.2,1-16.1-3.3-19.9-10.6c-2.3-4.7-2.6-10-4-15c-1.5-5.8-4.5-11.1-6.3-16.8c-3.5-10.4-3.4-21.9-1-32.6
	c2.3-9.3,5.9-18.3,10.7-26.6c0.7-1.2,1.4-2.5,2.1-3.7c2.1-3.5,4.4-6.8,6.9-10c6-7.2,13.7-12.8,21.3-18.3c0.6-0.5,1.3-0.8,2-1h0.1
	c0.9,0,1.7,0.2,2.5,0.6c10.6,4.6,20.7,10.1,30.4,16.4c3.4,2.3,8.9,4.8,10.7,8.8S606,474.4,605.8,478.6z"/>
<path class="st7" d="M566.1,387.3c-1,1-1.7,2.2-2.2,3.5c-8.1,18.2-12.9,37.7-14.1,57.6c0,1-0.2,1.9-0.7,2.8
	c-0.4,0.6-0.9,1.1-1.5,1.6c-2,2.3-1.7,5.8,0.7,7.8c0.1,0.1,0.2,0.2,0.3,0.2c1.7-3.1,5.6-4.1,9.1-4.4c16.8-1.3,33.2,6.5,50.1,5.9
	c-1.2-4.1-2.9-8.1-3.9-12.2c-4.3-18.5,6.4-38.6-0.2-56.4c-1.3-3.6-3.5-7.1-7-8.6c-1.4-0.6-2.9-1-4.5-1.2c-4.3-0.8-12.7-4.1-16.9-2.7
	c-1.5,0.5-2.1,1.9-3.4,2.8C570.2,385.2,567.7,385.6,566.1,387.3z"/>
<path class="st6" d="M573,552.6c-5.2,8.9-14.7,14.4-25,14.5c-2.7,0.1-5.5-0.4-8-1.5c-6.4-2.8-10-9.8-11.3-16.7s-0.9-13.9-1.9-20.9
	c-0.8-5.5-2.4-10.9-3.2-16.4c-2.1-13.6,2-27.1,4.9-40.7c0.7-1.2,1.4-2.5,2.1-3.7c2.1-3.5,4.4-6.8,6.9-10c6-7.2,13.7-12.8,21.3-18.3
	h-8c0.6-0.4,1.5-0.3,1.9,0.3c0.1,0.2,0.2,0.4,0.3,0.7c0.8,7,10.7,14,12.8,20.8c1.3,4.2,2.9,8.3,4,12.5c0.8,3.6,1.5,7.3,1.9,11
	c1.4,10.4,2.8,20.7,4.2,31C577.7,528,579.3,541.6,573,552.6z"/>
<path class="st4" d="M559.7,421.3l9.7-30.3c1.4-4.5,2.9-9.1,3.1-13.9s-1.1-9.8-4.4-13.1c-2.7-2.8-6.4-4.2-9.6-6.3
	c-8-5.4-12-14.8-16.2-23.5s-9.7-17.8-18.8-21c-2.1-0.7-5-0.8-5.9,1.2c-0.3,0.8-0.4,1.8-0.2,2.6c0.9,4.6,4.2,8.3,7.1,12
	c4.8,6.3,8.9,13.9,7.7,21.7c-1.4,9.3-9.7,16.4-10.7,25.8c-0.4,4.1,0.6,8.2,0.6,12.3c0,2.6-0.4,5.2,0.2,7.7c0.6,1.9,1.3,3.8,2.1,5.7
	c0.9,3,1.4,6.1,1.4,9.2l2.1,39.4c1.1,21.3-10.4,42-7.2,63c0.8,5.5,2.5,10.9,3.2,16.4c1,6.9,0.5,14,1.9,20.9s5,13.8,11.3,16.7
	c2.5,1,5.3,1.5,8,1.5c10.3-0.1,19.8-5.6,25-14.5c6.3-11,4.8-24.6,3.1-37.1l-4.2-31c-0.4-3.7-1.1-7.4-1.9-11c-1.1-4.3-2.7-8.4-4-12.5
	C558.6,449.3,555.4,434.9,559.7,421.3z"/>
<path class="st9" d="M609.5,423.7h207.1c4.4,0,8,3.6,8,8v126.1c0,4.4-3.6,8-8,8H609.5c-4.4,0-8-3.6-8-8V431.6
	C601.6,427.2,605.1,423.7,609.5,423.7z"/>
<path class="st10" d="M609.5,423.7h207.1c4.4,0,8,3.6,8,8v126.1c0,4.4-3.6,8-8,8H609.5c-4.4,0-8-3.6-8-8V431.6
	C601.6,427.2,605.1,423.7,609.5,423.7z"/>
<circle class="st11" cx="712.6" cy="494.7" r="6"/>
<path class="st9" d="M449.4,611h12.1c13.8,0,25,11.2,25,25v37.1l0,0h-62.1l0,0V636C424.4,622.2,435.6,611,449.4,611z"/>
<path class="st6" d="M449.4,611h12.1c13.8,0,25,11.2,25,25v37.1l0,0h-62.1l0,0V636C424.4,622.2,435.6,611,449.4,611z"/>
<circle class="st9" cx="453" cy="619.7" r="5"/>
<circle class="st9" cx="453" cy="613.5" r="5"/>
<circle class="st9" cx="453" cy="607.3" r="5"/>
<circle class="st9" cx="453" cy="601.1" r="5"/>
<circle class="st9" cx="453" cy="594.9" r="5"/>
<circle class="st9" cx="453" cy="588.7" r="5"/>
<circle class="st9" cx="453" cy="582.4" r="5"/>
<circle class="st9" cx="460.5" cy="584.9" r="5"/>
<circle class="st9" cx="465.4" cy="582.4" r="5"/>
<circle class="st9" cx="470.4" cy="580" r="5"/>
<circle class="st9" cx="453" cy="576.2" r="5"/>
<circle class="st9" cx="453" cy="570" r="5"/>
<circle class="st9" cx="453" cy="563.8" r="5"/>
<circle class="st9" cx="453" cy="557.6" r="5"/>
<path class="st2" d="M473.6,541.6c-1.2,0.2-2.5,0.3-3.7,0.4c1.2-1,2.2-2.1,3.2-3.3c-0.7-2.1-1.7-4.1-3-5.8c-1.2,0.7-2.6,1.1-4,1.3
	c-1.2,0.2-2.5,0.3-3.7,0.4c1.7-1.6,3.3-3.3,4.8-5c-8.7-7.8-22-7.1-29.8,1.6c-7.8,8.7-7.1,22,1.6,29.8c8.7,7.8,22,7.1,29.8-1.6
	c3.5-3.9,5.4-8.9,5.4-14.1c0-1.2-0.1-2.4-0.3-3.6L473.6,541.6z"/>
<path class="st2" d="M490.2,566.3c-1.3,0.8-2.7,1.3-4.2,1.4c-1.2,0.2-2.5,0.3-3.7,0.4c1.3-1.2,2.5-2.5,3.7-3.8
	c-6.6-1.7-13.4,2.3-15.2,8.9c-1.7,6.6,2.3,13.4,8.9,15.2c6.6,1.7,13.4-2.3,15.2-8.9C496.2,574.5,494.3,569.2,490.2,566.3
	L490.2,566.3z"/>
<circle class="st9" cx="445.6" cy="584.9" r="5"/>
<circle class="st9" cx="440.6" cy="582.4" r="5"/>
<circle class="st9" cx="435.6" cy="580" r="5"/>
<path class="st2" d="M415.8,566.3c1.3,0.8,2.7,1.3,4.2,1.4c1.2,0.2,2.5,0.3,3.7,0.4c-1.3-1.2-2.6-2.5-3.7-3.8
	c6.6-1.7,13.4,2.3,15.2,8.9c1.7,6.6-2.3,13.4-8.9,15.2c-6.6,1.7-13.4-2.3-15.2-8.9C409.8,574.5,411.7,569.2,415.8,566.3L415.8,566.3
	z"/>
<path class="st9" d="M449.4,614.7h12.1c13.8,0,25,11.2,25,25v32.9c0,2.3-1.9,4.2-4.2,4.2h-53.6c-2.3,0-4.2-1.9-4.2-4.2v-32.9
	C424.4,625.9,435.6,614.7,449.4,614.7z"/>
<g class="st1">
	<path d="M474,542.9c-0.5,0.5-1,1-1.6,1.5c0.6,0,1.1-0.1,1.7-0.2C474.1,543.8,474,543.4,474,542.9z"/>
	<path d="M464.9,537c1.3-0.1,2.5-0.2,3.7-0.4c1.1-0.1,2.2-0.4,3.2-0.9c-0.5-1-1.1-2-1.7-2.9c-0.6,0.4-1.3,0.7-2,0.8
		C467.2,534.9,466.1,536,464.9,537z"/>
	<path d="M434.4,547.7c0-11.6,9.4-21.1,21-21.1c4.1,0,8,1.2,11.5,3.4l0.3-0.3c-8.7-7.7-22-7-29.8,1.7c-7.7,8.7-7,22,1.7,29.8
		c0.1,0.1,0.2,0.1,0.2,0.2C436.1,557.5,434.4,552.6,434.4,547.7z"/>
</g>
<g class="st1">
	<path d="M482.3,570.5c1.2-0.1,2.5-0.2,3.7-0.4c1.5-0.1,2.9-0.6,4.2-1.4c2.8,2.1,4.7,5.3,5,8.8c0-0.4,0.1-0.9,0.1-1.3
		c0-3.9-1.8-7.7-5-10c-1.3,0.8-2.7,1.3-4.2,1.4l-1,0.1C484.3,568.7,483.3,569.7,482.3,570.5z"/>
	<path d="M482.8,566.3c0.4,0,0.8,0,1.2,0.1c0.7-0.7,1.3-1.4,1.9-2.2c-6.6-1.8-13.4,2.2-15.2,8.8c-0.3,1.1-0.4,2.1-0.4,3.2
		c0,0.4,0,0.8,0.1,1.2C471.1,571.1,476.5,566.3,482.8,566.3z"/>
</g>
<g class="st1">
	<path d="M423.7,570.5c-1.2-0.1-2.5-0.2-3.7-0.4c-1.5-0.1-2.9-0.6-4.2-1.4c-2.8,2.1-4.7,5.3-5,8.8c0-0.4-0.1-0.9-0.1-1.3
		c0-3.9,1.8-7.7,5-10c1.3,0.8,2.7,1.3,4.2,1.4l1,0.1C421.8,568.7,422.7,569.7,423.7,570.5z"/>
	<path d="M423.2,566.3c-0.4,0-0.8,0-1.3,0.1c-0.6-0.7-1.3-1.4-1.9-2.2c6.6-1.8,13.4,2.2,15.2,8.8c0.3,1.1,0.4,2.1,0.4,3.2
		c0,0.4,0,0.8-0.1,1.2C434.9,571.1,429.6,566.3,423.2,566.3z"/>
</g>
<rect x="158.1" y="179.6" class="st2" width="226" height="88"/>
<path class="st12" d="M170.1,179.6h347c6.6,0,12,5.4,12,12v64c0,6.6-5.4,12-12,12h-347c-6.6,0-12-5.4-12-12v-64
	C158.1,185,163.5,179.6,170.1,179.6z"/>
</svg>
