<svg xmlns="http://www.w3.org/2000/svg" viewBox="0 0 100.79 83.99"><defs><style>.cls-1{fill:#f70;}</style></defs><title>pig</title><g id="Calque_2" data-name="Calque 2"><g id="ELEMENTS"><g id="Icon"><path class="cls-1" d="M63,19.22a40,40,0,0,0-13.72.61,2.1,2.1,0,1,0,.89,4.1,35.71,35.71,0,0,1,12.26-.55A2.1,2.1,0,1,0,63,19.22Z"/><path class="cls-1" d="M78.3,30.1a2.1,2.1,0,0,0-.83,2.85c.17.3.32.61.47.91A2.1,2.1,0,1,0,81.73,32c-.18-.37-.37-.74-.57-1.11A2.1,2.1,0,0,0,78.3,30.1Z"/><path class="cls-1" d="M81.41,37.06a2.1,2.1,0,0,0-1.79,2.37,18.69,18.69,0,0,1-3.78,14.11,2.1,2.1,0,1,0,3.32,2.57,22.86,22.86,0,0,0,4.62-17.26A2.1,2.1,0,0,0,81.41,37.06Z"/><path class="cls-1" d="M94.52,35.7a6.21,6.21,0,0,0-2.54.54,28.1,28.1,0,0,0-9.32-16.81,37.15,37.15,0,0,0-18.87-8.32,8.4,8.4,0,1,0-15.88.07,48.66,48.66,0,0,0-10.13,2.75L27.14,4.71a2.1,2.1,0,0,0-3.46,1.38l-1.41,14A23.87,23.87,0,0,0,10.49,35.28c-1.05,3.87-1.72,4.1-3.87,4.28-3.31.28-4.91,1.7-5.67,2.84C-.15,44.06-.3,46.19.52,48.73L3,56.32c1.15,3.56,3.27,4.31,4.85,4.31h2.33c5.43,7.07,10.46,8.75,17,10.38-.21,2.7-.58,5.9-.94,8.78H20.87a2.1,2.1,0,1,0,0,4.2H43.24a2.1,2.1,0,1,0,0-4.2h-.8l1.3-4.42c5,.78,10.23.42,16.68-1.16l.08.69A50.29,50.29,0,0,1,61,81.84,2.1,2.1,0,0,0,63.08,84H82.53a2.1,2.1,0,1,0,0-4.2h-4.6c1.88-7.62,5.41-15.31,7.93-18.56A31.15,31.15,0,0,0,92.45,42a2.07,2.07,0,1,1,4.14,0A2.13,2.13,0,0,1,96,43.48a2.1,2.1,0,1,0,3,3A6.31,6.31,0,0,0,94.52,35.7ZM55.84,4.2a4.2,4.2,0,1,1-4.2,4.2A4.2,4.2,0,0,1,55.84,4.2Zm26.7,54.46C79.19,63,75.42,72,73.62,79.79H65.16c-.08-1.89-.29-3.72-.49-5.38-.13-1.07-.24-2.09-.31-3a2.1,2.1,0,0,0-2.65-1.87c-7.76,2.15-13.45,2.56-19,1.37a2.1,2.1,0,0,0-2.45,1.46l-2.18,7.42h-7.6c.43-3.47.85-7.33,1-10.28a2.1,2.1,0,0,0-1.6-2.15c-7.32-1.79-11.74-2.86-17-10.06a2.1,2.1,0,0,0-1.7-.86H7.81c-.3,0-.65-.75-.85-1.4L4.52,47.45a3.41,3.41,0,0,1-.07-2.72,3.39,3.39,0,0,1,2.53-1c4.8-.4,6.36-2.9,7.57-7.37A19.77,19.77,0,0,1,25.21,23.25a2.1,2.1,0,0,0,1.12-1.65l1.11-11.06L36,17.94a2.1,2.1,0,0,0,2.2.34A45.4,45.4,0,0,1,50.69,15,8.37,8.37,0,0,0,61,15c13.32,1.46,27.21,9.26,27.21,27A27,27,0,0,1,82.54,58.66Z"/><path class="cls-1" d="M25.09,33.58a2.1,2.1,0,1,0,2.1,2.1A2.1,2.1,0,0,0,25.09,33.58Z"/><path class="cls-1" d="M56.17,79.79h-2a2.1,2.1,0,0,0,0,4.2h2a2.1,2.1,0,0,0,0-4.2Z"/></g></g></g></svg>