<svg xmlns="http://www.w3.org/2000/svg" viewBox="0 0 23.23 22.66"><defs><style>.cls-1{opacity:0.99;}.cls-2{fill:#f70;}</style></defs><title>github</title><g id="Calque_2" data-name="Calque 2"><g id="FOOTER"><g class="cls-1"><path class="cls-2" d="M21.67,5.78a11.56,11.56,0,0,0-4.23-4.23A11.36,11.36,0,0,0,11.61,0,11.36,11.36,0,0,0,5.78,1.56,11.56,11.56,0,0,0,1.56,5.78,11.36,11.36,0,0,0,0,11.61a11.29,11.29,0,0,0,2.22,6.83,11.37,11.37,0,0,0,5.72,4.2.68.68,0,0,0,.6-.11.59.59,0,0,0,.2-.45s0-.3,0-.82,0-1,0-1.35L8.38,20a4.44,4.44,0,0,1-.84.05,6.39,6.39,0,0,1-1.05-.11,2.35,2.35,0,0,1-1-.45,1.92,1.92,0,0,1-.67-.93l-.15-.35a3.78,3.78,0,0,0-.48-.77,1.82,1.82,0,0,0-.66-.57l-.11-.08a1.11,1.11,0,0,1-.2-.18.83.83,0,0,1-.14-.21q0-.11.08-.17a1,1,0,0,1,.44-.07l.3,0a2.21,2.21,0,0,1,.75.36,2.44,2.44,0,0,1,.73.79,2.67,2.67,0,0,0,.84.95,1.78,1.78,0,0,0,1,.32,4.3,4.3,0,0,0,.86-.08,3,3,0,0,0,.68-.23,2.45,2.45,0,0,1,.74-1.56,10.35,10.35,0,0,1-1.55-.27,6.17,6.17,0,0,1-1.42-.59,4.07,4.07,0,0,1-1.22-1,4.87,4.87,0,0,1-.79-1.59A7.55,7.55,0,0,1,4.2,11,4.41,4.41,0,0,1,5.4,7.89,4.06,4.06,0,0,1,5.5,4.81,2.12,2.12,0,0,1,6.8,5a9.09,9.09,0,0,1,1.26.58L8.71,6a10.92,10.92,0,0,1,5.81,0l.57-.36A8.14,8.14,0,0,1,16.48,5a2,2,0,0,1,1.23-.17,4,4,0,0,1,.12,3.08A4.41,4.41,0,0,1,19,11a7.63,7.63,0,0,1-.31,2.28,4.68,4.68,0,0,1-.8,1.59,4.23,4.23,0,0,1-1.23,1,6.18,6.18,0,0,1-1.42.59,10.34,10.34,0,0,1-1.55.27,2.69,2.69,0,0,1,.79,2.15v3.19a.6.6,0,0,0,.19.45.66.66,0,0,0,.6.11A11.37,11.37,0,0,0,21,18.44a11.29,11.29,0,0,0,2.22-6.83A11.37,11.37,0,0,0,21.67,5.78Z"/></g></g></g></svg>