<svg xmlns="http://www.w3.org/2000/svg" viewBox="0 0 74.52 84.65"><defs><style>.cls-1{fill:#f70;}</style></defs><title>newspaper</title><g id="Calque_2" data-name="Calque 2"><g id="ELEMENTS"><path class="cls-1" d="M72,44.07H59.83V2.74A2.62,2.62,0,0,0,57.35,0H2.48A2.62,2.62,0,0,0,0,2.74v71c0,6,4.44,10.95,9.91,10.95H64.61c5.47,0,9.91-4.9,9.91-10.95V46.8A2.62,2.62,0,0,0,72,44.07ZM10.18,78.85a5.23,5.23,0,0,1-4.93-5.48V5.8H54.58V73.37a11.82,11.82,0,0,0,1.33,5.48H10.18Zm59.09-5.27c0,3.38-2.66,6.06-5.69,5.36-2.25-.52-3.76-2.87-3.76-5.41V49.86h9.45V73.58Z"/><path class="cls-1" d="M26.91,11.6h-15a2.62,2.62,0,0,0-2.48,2.74V36.69a2.62,2.62,0,0,0,2.48,2.74h15a2.62,2.62,0,0,0,2.48-2.74V14.33A2.62,2.62,0,0,0,26.91,11.6Zm-2.77,22H14.69V17.39h9.45Z"/><path class="cls-1" d="M48.12,46.38H11.38A2.57,2.57,0,0,0,9,48.07a2.9,2.9,0,0,0,2.4,4.11H48.13a2.57,2.57,0,0,0,2.4-1.69A2.9,2.9,0,0,0,48.12,46.38Z"/><path class="cls-1" d="M27.72,56.82H12a2.57,2.57,0,0,0-2.4,1.69A2.9,2.9,0,0,0,12,62.62H27.72a2.57,2.57,0,0,0,2.4-1.69A2.9,2.9,0,0,0,27.72,56.82Z"/><path class="cls-1" d="M27.72,68.42H12a2.57,2.57,0,0,0-2.4,1.69A2.9,2.9,0,0,0,12,74.21H27.72a2.57,2.57,0,0,0,2.4-1.69A2.9,2.9,0,0,0,27.72,68.42Z"/><path class="cls-1" d="M47.39,56.82H36.89a2.57,2.57,0,0,0-2.4,1.69,2.9,2.9,0,0,0,2.4,4.11h10.5a2.57,2.57,0,0,0,2.4-1.69A2.9,2.9,0,0,0,47.39,56.82Z"/><path class="cls-1" d="M47.39,68.42H36.89a2.57,2.57,0,0,0-2.4,1.69,2.9,2.9,0,0,0,2.4,4.11h10.5a2.57,2.57,0,0,0,2.4-1.69A2.9,2.9,0,0,0,47.39,68.42Z"/><path class="cls-1" d="M47.39,11.6H36.89a2.57,2.57,0,0,0-2.4,1.69,2.9,2.9,0,0,0,2.4,4.11h10.5a2.57,2.57,0,0,0,2.4-1.69A2.9,2.9,0,0,0,47.39,11.6Z"/><path class="cls-1" d="M47.39,22H36.89a2.57,2.57,0,0,0-2.4,1.69,2.9,2.9,0,0,0,2.4,4.11h10.5a2.57,2.57,0,0,0,2.4-1.69A2.9,2.9,0,0,0,47.39,22Z"/><path class="cls-1" d="M47.39,33.63H36.89a2.57,2.57,0,0,0-2.4,1.69,2.9,2.9,0,0,0,2.4,4.11h10.5a2.57,2.57,0,0,0,2.4-1.69A2.9,2.9,0,0,0,47.39,33.63Z"/></g></g></svg>