<?xml version="1.0" encoding="utf-8"?>
<!-- Generator: Adobe Illustrator 23.0.1, SVG Export Plug-In . SVG Version: 6.00 Build 0)  -->
<svg version="1.1" id="Layer_1" xmlns="http://www.w3.org/2000/svg" xmlns:xlink="http://www.w3.org/1999/xlink" x="0px" y="0px"
	 viewBox="0 0 767.6 191" style="enable-background:new 0 0 767.6 191;" xml:space="preserve">
<style type="text/css">
	.st0{fill:#FFFFFF;}
	.st1{fill:#FF7700;}
	.st2{fill:#3C3C3C;}
</style>
<path id="Tracé_3456" class="st0" d="M207,103.4c1.5-0.9,4.5-0.8,4.5-0.8h11.3c9.6,0.1,19.1-1.6,28.1-5.1
	c8.2-3.1,15.4-8.5,20.7-15.5c5.2-6.9,7.8-15.5,7.8-25.6c0-10.3-2.4-18.9-7.3-25.8c-4.9-7-11.8-12.4-19.7-15.5
	c-8.8-3.5-18.3-5.2-27.8-5.1h-40.3c0,0-4.8,0-7.4,1.9c-2.6,2-2.5,5.6-2.5,5.6v124.9c-0.1,1,0.2,1.9,0.8,2.7c0.8,0.6,1.9,0.9,2.9,0.9
	H202c1,0.1,2-0.2,2.9-0.9c0.9-1,0.8-3,0.8-3v-35.7C205.5,105.2,206.1,104.1,207,103.4z M223.6,35.2c7.3,0,13,1.9,17.1,5.6
	c4.1,3.7,6.1,9.2,6.1,16.4c-0.1,6.3-2.3,11.2-6.5,14.9c-4.2,3.7-9.6,5.5-16.3,5.5h-15.3c-0.8,0-1.7-0.2-2.3-0.7
	c-0.5-0.7-0.8-1.5-0.7-2.4V37.4c0-0.7,0.2-1.3,0.7-1.7c0.8-0.4,1.6-0.5,2.5-0.4H223.6z"/>
<path id="Tracé_3455" class="st0" d="M310,34.6c4.6,0.1,9.1-1.8,12.3-5.1c3.3-3.2,5.1-7.5,5.1-12.1c0.1-4.6-1.8-9.1-5.1-12.3
	c-3.2-3.3-7.7-5.2-12.3-5.1c-4.6,0-8.9,1.8-12.1,5.1c-3.3,3.2-5.2,7.7-5.1,12.3c0,4.6,1.8,8.9,5.1,12.1
	C301.1,32.8,305.4,34.6,310,34.6z M324.7,143.7c0.7-1,1.1-2.1,1.1-3.3V56c0,0,0.2-3.8-1.6-5.8s-5.7-2.2-5.7-2.2h-14.4
	c0,0-4.9,0.2-7.3,2.8c-2.4,2.6-2.4,7.7-2.4,7.7v79.9c0,0-0.2,3.6,1.4,5.3c1.6,1.6,4.9,1.3,4.9,1.3h20.5
	C322.5,145,323.7,144.5,324.7,143.7z M454.9,143.2c2.2-1.8,3-5.4,3-5.4l28-85.8c0,0,0.7-1.9,0-2.9s-3-1.1-3-1.1h-22.8
	c-1.3,0.1-2.6,0.5-3.8,1.1c-0.9,0.7-1.5,1.7-1.8,2.8l-10.8,47.7c0,0.8-0.7,1.5-1.5,1.4c0,0,0,0,0,0c-0.8,0-1.5-0.6-1.5-1.4
	c0,0,0,0,0,0l-11.8-46.9c-0.2-1.4-0.9-2.7-1.9-3.6c-1.3-0.8-2.7-1.2-4.2-1.1H401c-1.4,0-2.8,0.4-4.1,1.1c-0.9,0.8-1.6,1.9-1.8,3.1
	l-9.2,44.2c0,0-0.2,1.2-2.8,2c-2.6,0.8-3.5-2-3.5-2l-9.8-43.5c0,0-0.3-4.1-2.5-5.7s-6.4-0.8-6.4-0.8l-14.1,4.1c0,0-4.5,1.1-6,3.8
	s0,7,0,7l24.3,76.1c0,0,0.6,4,3.1,5.9s6.9,1.7,6.9,1.7h13.6c0,0,3.6,0,5.7-1.7s2.6-5.2,2.6-5.2l11.5-40.6c0.2-1.4,1.4-2.4,2.8-2.4
	c1.4,0,2.6,1,2.8,2.4l11.5,39.8c0,0,0.5,4,3.1,5.9s7.4,1.7,7.4,1.7h12.8C449.1,145,452.7,145,454.9,143.2L454.9,143.2z M515.2,34.6
	c4.6,0.1,9.1-1.8,12.3-5.1c3.3-3.2,5.1-7.5,5.1-12.1c0.1-4.6-1.8-9.1-5.1-12.3c-3.2-3.3-7.7-5.2-12.3-5.1c-4.6,0-8.9,1.8-12.1,5.1
	c-3.3,3.2-5.2,7.7-5.1,12.3c0,4.6,1.8,8.9,5.1,12.1C506.3,32.8,510.6,34.6,515.2,34.6z M529.3,143.3c1.9-1.7,1.7-5.2,1.7-5.2V54.6
	c0,0-0.1-3.1-1.5-4.7c-1.1-1.1-2.6-1.7-4.2-1.9h-18.7c0,0-3.6,0.2-5.3,2s-1.7,5.1-1.7,5.1v81.6c0,0-0.3,4.5,1.3,6.5
	c1.6,2.1,5.2,1.8,5.2,1.8h17.2C523.3,145,527.4,145,529.3,143.3z M643.8,49.8c0.9,1.4,0.9,6.9,0.9,6.9l-0.3,92.1
	c0.2,8-2.1,15.8-6.5,22.4c-4.6,6.6-11,11.7-18.4,14.7c-7.9,3.4-17.1,5.1-27.5,5.1c-5.3,0-12.4-1-21.2-3c-5.7-1.2-11.2-3.1-16.5-5.6
	c-1.5-0.7-2.5-2-2.8-3.7c-0.3-1.5,0-3,0.6-4.3l4.1-9.7c0.7-1.6,2-2.9,3.7-3.6c2.6-0.9,4-1.1,6.6-0.1c7.5,3.1,15.6,4.7,23.7,4.8
	c6.8,0,12.3-1.6,16.5-4.7c4.1-2.9,6.4-7.5,6.3-12.5c0,0,0.8-5-3.6-5.4c-4.4-0.4-6.6,3.9-14.2,4c-15.1,0-27.1-4.4-36-13.2
	c-8.9-8.8-13.4-21.3-13.4-37.4s4.5-28.8,13.6-37.9s21.4-13.7,37-13.7c4.7,0,9.4,1,13.8,2.7c4.7,1.8,8.5,7.6,13,7.7
	c4.6,0.1-0.4-7.2,5.2-7.2c3.4,0,7.2,0,11.1,0C641.5,48.2,643,48.4,643.8,49.8z M598.6,122.2c4.4,0,8-0.9,11.6-5.1s2.8-12,2.8-12
	V88.6c0,0,1-8.9-2.8-13.5s-7.1-4.9-12.4-4.9c-5.6-0.1-11,2.6-14.2,7.2c-3.6,4.8-5.4,11.1-5.4,19c0,8,1.8,14.3,5.4,18.9
	S592.2,122.2,598.6,122.2z M767.6,96.6c0,10.4-2.3,19.4-6.9,27c-4.5,7.6-11.2,13.6-19.1,17.5c-8.1,4.1-17.4,6.1-27.8,6.1
	c-10.5,0-19.8-2-27.8-5.9c-7.8-3.8-14.4-9.9-18.7-17.4c-4.5-7.7-6.7-16.9-6.7-27.7c0-10.4,2.3-19.5,6.9-27.2
	c4.5-7.6,11.1-13.8,19-17.8c8.1-4.1,17.3-6.2,27.7-6.2c10.5,0,19.8,2,27.9,6.1c7.9,3.9,14.4,10.1,18.8,17.7
	C765.4,76.5,767.6,85.8,767.6,96.6z M714,121.4c6.4,0,11.5-2.3,15.4-6.8s5.8-10.5,5.8-18s-1.9-13.6-5.7-18.4
	c-3.6-4.7-9.2-7.4-15.1-7.2c-6.5,0-11.7,2.3-15.6,6.9c-3.9,4.6-5.8,10.7-5.8,18.3c0,7.6,1.9,13.7,5.7,18.3
	C702.5,119.1,707.6,121.4,714,121.4z"/>
<path id="Tracé_3467" class="st1" d="M0,109.6V45.6C0,25.6,16.2,9.4,36.1,9.4H121l10.4,4.8l4.9,10.5v84.9
	c0,19.9-16.2,36.1-36.1,36.1c0,0,0,0,0,0H36.1C16.2,145.8,0,129.6,0,109.6C0,109.6,0,109.6,0,109.6z"/>
<path id="Tracé_3469" class="st1" d="M111.4,0c13.5,0,24.9,10.9,24.9,24.4S124.9,49,111.4,49s-61-39.5-60-39.5s-27.4-0.1,9.2,0
	S95.6,0.4,111.4,0z"/>
<circle id="Ellipse_69" class="st0" cx="111.9" cy="24" r="8.6"/>
<circle id="Ellipse_67" class="st0" cx="68.2" cy="77.6" r="40.4"/>
<circle id="Ellipse_68" class="st2" cx="68.2" cy="77.6" r="28.6"/>
</svg>
