<svg xmlns="http://www.w3.org/2000/svg" viewBox="0 0 141.6 204.64"><defs><style>.cls-1{opacity:0.44;}.cls-2{fill:#fff;}</style></defs><title>banner_hand</title><g id="Calque_2" data-name="Calque 2"><g id="BODY"><g id="_1" data-name="1"><g class="cls-1"><path class="cls-2" d="M136.73,129c1.93-4.49,2.09-8.55.48-12.09a13,13,0,0,0-2.69-3.83,18.65,18.65,0,0,0-5.86-3.85c1.26-4.36.94-8.17-1-11.34a13.21,13.21,0,0,0-1.92-2.45c-5.08-5.19-8.91-3.86-8.91-3.86s2.07-8.28-3.93-14.15S101.23,74,96.28,79.08L71.32,104c-3.53-1.32-9.07-4.66-14.79-4-10.18,1.17-12.83,8-14.26,13.67-3.25,12.87-2.28,32.05-6,39.47-4.52,9.12-13.37,16.77-13.37,16.77l34.71,34.71c14.13-14.13,27.73-17.79,37.88-22,23-9.62,34.28-21.14,40-27.32C147.46,142.45,138.4,131.32,136.73,129Z"/><path class="cls-2" d="M51.64,27.16,74,21.05A36,36,0,0,0,47.73,0a2.68,2.68,0,0,0-3.07,3.39Z"/><path class="cls-2" d="M47.07,73.13,65.45,96.48,90,73.72,73.29,52.49a38.87,38.87,0,0,0,3.95-18.55,2.68,2.68,0,0,0-3.41-2.48L28.31,44.35,15.14,9.54a2.68,2.68,0,0,0-4.44-.9A38.67,38.67,0,0,0,47.07,73.13Z"/></g></g></g></g></svg>