<svg xmlns="http://www.w3.org/2000/svg" viewBox="0 0 21.62 21.62"><defs><style>.cls-1{fill:#4e4e4e;}.cls-2{fill:#fff;}</style></defs><title>bug</title><g id="Calque_2" data-name="Calque 2"><g id="BODY"><g id="_1" data-name="1"><path class="cls-1" d="M7.86,4A7,7,0,0,0,6.39,5,5.84,5.84,0,0,1,7.86,4Z"/><path class="cls-1" d="M10.18,3.37A6.68,6.68,0,0,0,9,3.6,5.29,5.29,0,0,1,10.18,3.37Z"/><path class="cls-1" d="M17.44,10v4.72a6.5,6.5,0,0,1-6.5,6.5h-.3a6.5,6.5,0,0,1-6.5-6.5V10A6.58,6.58,0,0,1,6,5.43,6.7,6.7,0,0,0,4.21,9.17H17.39A7.6,7.6,0,0,1,17.44,10Z"/><path class="cls-2" d="M17.41,9.17h0a6.65,6.65,0,0,0-1.9-3.88A6.29,6.29,0,0,0,15,4.86,6.59,6.59,0,0,1,17.41,9.17Z"/><path class="cls-1" d="M20.29,13.06a.42.42,0,0,0-.33-.17h-2.1V10.4H20a.42.42,0,0,0,.37-.23l1.25-2.49a.42.42,0,0,0-.74-.37L19.7,9.56H17.85q0-.17,0-.33a.41.41,0,0,0,0-.14A7.08,7.08,0,0,0,12,3l1.51-1,0,0h0l0,0h0l0,0h0l0,0h0l0,0h0V1.72h0a.41.41,0,0,0,0,0h0V.42a.42.42,0,0,0-.83,0v1L10.81,2.83,8.73,1.44v-1a.42.42,0,1,0-.83,0V1.66h0a.42.42,0,0,0,0,0h0v.08h0l0,0H8l0,0H8l0,0H8L8,2H8l0,0L9.59,3A7.08,7.08,0,0,0,3.73,9.56H1.92L.79,7.3A.42.42,0,1,0,0,7.67l1.25,2.49a.42.42,0,0,0,.37.23H3.72v2.49H1.66a.42.42,0,0,0-.33.17L.08,14.72a.42.42,0,0,0,.67.5l1.12-1.5H3.72v1A6.89,6.89,0,0,0,4.13,17H2.5a.42.42,0,0,0-.38.25L.45,21a.42.42,0,1,0,.76.34l1.55-3.5H4.5a6.93,6.93,0,0,0,6.15,3.74h.3a6.93,6.93,0,0,0,6.15-3.74h1.77l1.55,3.5a.42.42,0,1,0,.76-.34L19.51,17.3a.42.42,0,0,0-.38-.25H17.45a6.89,6.89,0,0,0,.41-2.35v-1h1.89l1.12,1.5a.42.42,0,0,0,.67-.5ZM10.83,8.73H4.7a6.23,6.23,0,0,1,12.2,0ZM5.18,17.4a.41.41,0,0,0-.1-.2,6.05,6.05,0,0,1-.53-2.49V13.44a.41.41,0,0,0,0-.26V11.23h2.1a.42.42,0,1,0,0-.83H4.55v-.29a.41.41,0,0,0,0-.25q0-.15,0-.29h5.85l0,11.22A6.1,6.1,0,0,1,5.18,17.4Zm6,3.39,0-11.22H17c0,.14,0,.28,0,.42V14.7A6.1,6.1,0,0,1,11.23,20.78Z"/></g></g></g></svg>