<svg xmlns="http://www.w3.org/2000/svg" viewBox="0 0 52.49 37.79"><defs><style>.cls-1{fill:#0487ba;}.cls-2{fill:#0af;}.cls-3{fill:#fff;}</style></defs><title>code</title><g id="Calque_2" data-name="Calque 2"><g id="BODY"><g id="_1" data-name="1"><path class="cls-1" d="M5.85,0H46.63a5.85,5.85,0,0,1,5.85,5.85V6.3H0V5.85A5.85,5.85,0,0,1,5.85,0Z"/><path class="cls-2" d="M0,6.3H52.49V31.93a5.85,5.85,0,0,1-5.85,5.85H5.85A5.85,5.85,0,0,1,0,31.93Z"/><path class="cls-3" d="M38.84,2.1h-2.1a1,1,0,1,0,0,2.1h2.1a1,1,0,1,0,0-2.1Z"/><path class="cls-3" d="M44.09,2.1H42a1,1,0,1,0,0,2.1h2.1a1,1,0,1,0,0-2.1Z"/><path class="cls-3" d="M49.34,2.1h-2.1a1,1,0,1,0,0,2.1h2.1a1,1,0,1,0,0-2.1Z"/><path class="cls-3" d="M18.59,12.9a1,1,0,0,0-1.48,0l-8.4,8.4a1,1,0,0,0,0,1.48l8.4,8.4a1,1,0,0,0,1.48-1.48L10.93,22l7.66-7.66A1,1,0,0,0,18.59,12.9Z"/><path class="cls-3" d="M43.78,21.3l-8.4-8.4a1,1,0,0,0-1.48,1.48L41.55,22,33.9,29.7a1,1,0,1,0,1.48,1.48l8.4-8.4A1,1,0,0,0,43.78,21.3Z"/><path class="cls-3" d="M30.91,12.71a1,1,0,0,0-1.41.47L21.11,30a1,1,0,1,0,1.88.94l8.4-16.8A1,1,0,0,0,30.91,12.71Z"/></g></g></g></svg>