<svg xmlns="http://www.w3.org/2000/svg" viewBox="0 0 53.57 54.31"><defs><style>.cls-1{fill:#0af;}.cls-2,.cls-4{fill:none;stroke:#077799;stroke-linecap:round;stroke-miterlimit:10;}.cls-2{stroke-width:1.19px;}.cls-3{fill:#0487ba;}.cls-4{stroke-width:1.12px;}.cls-5{fill:#fff;}</style></defs><title>community</title><g id="Calque_2" data-name="Calque 2"><g id="BODY"><g id="_1" data-name="1"><path class="cls-1" d="M24.59,53.66H22.45V49.36h2.15a2.15,2.15,0,0,1,2.15,2.15h0A2.15,2.15,0,0,1,24.59,53.66Z"/><path class="cls-2" d="M9.57,48.24S9.95,53,15.38,52.8h7.07V49.36h2.15"/><path class="cls-3" d="M15,48.36h-4.8A10.23,10.23,0,0,1,0,38.13V34A10.23,10.23,0,0,1,10.23,23.76H15Z"/><path class="cls-3" d="M38.55,48.36h4.8A10.23,10.23,0,0,0,53.57,38.13V34A10.23,10.23,0,0,0,43.34,23.76h-4.8Z"/><rect class="cls-1" x="9.57" y="23.76" width="5.45" height="24.6"/><rect class="cls-1" x="38.46" y="23.76" width="5.45" height="24.6"/><path class="cls-2" d="M14.12,10.51s-3.39,1.27-4.35,7.24a18.28,18.28,0,0,0-.2,2.91V35.45"/><path class="cls-2" d="M39.37,10.51s3.39,1.27,4.35,7.24a18.28,18.28,0,0,1,.2,2.91V35.45"/><polyline class="cls-2" points="24.75 53.66 22.45 53.66 22.45 52.81"/><path class="cls-4" d="M24.2,53.75a2.21,2.21,0,0,0,0-4.42"/><polygon class="cls-1" points="14.12 0 14.12 18.87 20.43 18.87 26.74 24.68 33.05 18.87 39.37 18.87 39.37 0 14.12 0"/><path class="cls-5" d="M18.16,6.22h8.58a1.07,1.07,0,0,0,0-2.15H18.16a1.07,1.07,0,0,0,0,2.15Z"/><path class="cls-5" d="M18.16,10.51H35.33a1.07,1.07,0,1,0,0-2.15H18.16a1.07,1.07,0,0,0,0,2.15Z"/><path class="cls-5" d="M18.16,14.8H35.33a1.07,1.07,0,1,0,0-2.15H18.16a1.07,1.07,0,0,0,0,2.15Z"/></g></g></g></svg>