<svg xmlns="http://www.w3.org/2000/svg" viewBox="0 0 29.04 46.89"><defs><style>.cls-1{fill:#0af;}.cls-2{fill:#0487ba;}.cls-3{fill:#fff;}</style></defs><title>idea</title><g id="Calque_2" data-name="Calque 2"><g id="BODY"><g id="_1" data-name="1"><path class="cls-1" d="M16.4,46.89H12.65a3.75,3.75,0,0,1-3.75-3.75H20.15A3.75,3.75,0,0,1,16.4,46.89Z"/><path class="cls-2" d="M5.14,35.27v1.86a5.52,5.52,0,0,0,1.65,3.81l2.1,2.21H20.15l2.1-2.21a5.52,5.52,0,0,0,1.65-3.81V35.27Z"/><path class="cls-1" d="M29,14.52a14.52,14.52,0,1,0-26.71,7.9,17,17,0,0,1,2.81,9.26v3.59H23.9V31.68a17.47,17.47,0,0,1,2.88-9.37A14.45,14.45,0,0,0,29,14.52Z"/><polygon class="cls-3" points="19.21 20.16 14.52 20.16 14.52 13.13 9.83 24.85 14.52 24.85 14.52 31.89 19.21 20.16"/></g></g></g></svg>