<svg xmlns="http://www.w3.org/2000/svg" viewBox="0 0 19.43 19.43"><defs><style>.cls-1{fill:#4e4e4e;}</style></defs><title>plugin</title><g id="Calque_2" data-name="Calque 2"><g id="BODY"><g id="_1" data-name="1"><g id="extension"><path class="cls-1" d="M17.12,9.25H15.73V5.55A1.86,1.86,0,0,0,13.88,3.7h-3.7V2.31a2.31,2.31,0,1,0-4.63,0V3.7H1.85A1.86,1.86,0,0,0,0,5.55V9.07H1.39a2.5,2.5,0,0,1,0,5H0v3.52a1.86,1.86,0,0,0,1.85,1.85H5.37V18a2.5,2.5,0,0,1,5,0v1.39h3.52a1.86,1.86,0,0,0,1.85-1.85v-3.7h1.39a2.31,2.31,0,1,0,0-4.63Z"/></g></g></g></g></svg>