<svg xmlns="http://www.w3.org/2000/svg" viewBox="0 0 51.41 51.41"><defs><style>.cls-1{fill:#0487ba;}.cls-2{fill:#0af;}.cls-3{fill:#fff;}</style></defs><title>review</title><g id="Calque_2" data-name="Calque 2"><g id="BODY"><g id="_1" data-name="1"><path class="cls-1" d="M34.32,39.65H31.13l-2-3.36a3.71,3.71,0,0,0,1.23-1.41,7.41,7.41,0,0,0,.78-3.31V27.9a5.43,5.43,0,1,0-10.85,0v3.68a7.41,7.41,0,0,0,.78,3.31A3.71,3.71,0,0,0,22.3,36.3l-2,3.36H17.09a5.86,5.86,0,0,0-5.74,4.68v7.08H40.06V44.33A5.86,5.86,0,0,0,34.32,39.65Z"/><path class="cls-2" d="M48.64,0H2.78A2.78,2.78,0,0,0,0,2.78v9.87a2.78,2.78,0,0,0,2.78,2.78H5.14l14.4,6.17V15.42h29.1a2.78,2.78,0,0,0,2.78-2.78V2.78A2.78,2.78,0,0,0,48.64,0Z"/><path class="cls-3" d="M4.08,6.68H16.44a1,1,0,0,0,0-2.06H4.08a1,1,0,0,0,0,2.06Z"/><path class="cls-3" d="M47.33,8.74H4.08a1,1,0,0,0,0,2.06H47.33a1,1,0,1,0,0-2.06Z"/></g></g></g></svg>