<svg xmlns="http://www.w3.org/2000/svg" xmlns:xlink="http://www.w3.org/1999/xlink" viewBox="0 0 303.15 187.08"><defs><style>.cls-1{fill:none;}.cls-2{fill:#231f20;}.cls-3{fill:#fff;}.cls-4{opacity:0.25;fill:url(#_30_10_ppp);}.cls-5{fill:#556270;}.cls-6{fill:#f70;}</style><pattern id="_30_10_ppp" data-name="30 % 10 ppp" width="28.8" height="28.8" patternTransform="matrix(0.44, -0.34, -0.34, -0.43, 542.04, -182)" patternUnits="userSpaceOnUse" viewBox="0 0 28.8 28.8"><rect class="cls-1" width="28.8" height="28.8"/><circle class="cls-2" cx="28.8" cy="28.8" r="2.16"/><circle class="cls-2" cx="14.4" cy="28.8" r="2.16"/><circle class="cls-2" cx="28.8" cy="14.4" r="2.16"/><circle class="cls-2" cx="14.4" cy="14.4" r="2.16"/><circle class="cls-2" cx="7.2" cy="21.6" r="2.16"/><circle class="cls-2" cx="21.6" cy="21.6" r="2.16"/><circle class="cls-2" cx="7.2" cy="7.2" r="2.16"/><circle class="cls-2" cx="21.6" cy="7.2" r="2.16"/><circle class="cls-2" cy="28.8" r="2.16"/><circle class="cls-2" cy="14.4" r="2.16"/><circle class="cls-2" cx="28.8" r="2.16"/><circle class="cls-2" cx="14.4" r="2.16"/><circle class="cls-2" r="2.16"/></pattern></defs><title>thanks</title><g id="Calque_2" data-name="Calque 2"><g id="BODY"><g id="_1" data-name="1"><path class="cls-3" d="M284.23,186.73l3.41-3.09,12.07-25.18-8.24-21.89-10.24-21.44L270.32,102.2l-3.45-1.07-2.44-.76-.11,0L259.89,99l6.24-4.22.38-.26h0s0,0,0,0l.15-.1.08,0,.46-.31.06,0h0l-.47-.15c.17-.5.32-1,.48-1.5l.09-.28v-.12l0-.63.29-6.23,0-5.57-1.52-13.07-1.72-6-1.06-3.73-.86-3-5.83-12.09h0l-.93-1.95-2.94-4-1.35-1.83-.14-.18-1.87-2.52-1-1L239.29,21l-1.38-1.36L236,18.41l-8.67-5.75-4.52-3-6.94-2.42-.35-.13L212.29,6l-.17,0L205,3.43l-6.44-.61-7.23-.68h0L184,1.45,158.42,5.34,134.54,19.22,116.07,41.16l-9.25,23.18-1.59,18-.31,3.63h0l-.26,2.88,0,.49-.06.68,1.93,1.1.29.17.28.15.18.11.31.18,5.2,3-6.16,6.12-13.9,9.27L83.49,130l-5.3,26.53-.41,21.1,8.65,9.12Z"/><path class="cls-4" d="M268,81.61c0-.39,0-.78,0-1.16,0-.77,0-1.55,0-2.31v-.22a80.92,80.92,0,0,0-3-17.37c-.37-1.29-.77-2.57-1.2-3.83a80.24,80.24,0,0,0-7-15.14h0c-1.2-2-2.5-4-3.88-5.91l-1.35-1.83-.14-.18q-1.37-1.79-2.84-3.48A79.91,79.91,0,0,0,239.29,21q-1.61-1.36-3.29-2.62a77.38,77.38,0,0,0-8.67-5.75,79.65,79.65,0,0,0-11.45-5.41l-.35-.13L212.29,6l-.17,0a79.86,79.86,0,0,0-13.6-3.12q-3.57-.5-7.23-.68h0c-1.32-.07-2.65-.1-4-.1a80.75,80.75,0,0,0-80.73,80.47v.25c0,1.17,0,2.33.08,3.48,0,.61,0,1.22.1,1.83,0,.09,0,.18,0,.27.06.84.14,1.69.23,2.54l0,.29a2,2,0,0,0,0,.26c0,.15,0,.29,0,.42s.13,0,.17,0l.28-.1c.46-.18.89-.31,1.35-.46h0l1-.31c.59-.19,1.18-.35,1.77-.52l.87-.23c.46-.13.94-.24,1.4-.34.75-.17,1.5-.32,2.24-.45.38-.08.78-.15,1.16-.2s.75-.12,1.12-.17l1.15-.15.84-.09.73-.06a50,50,0,0,1,8,0,60.27,60.27,0,0,1,41.13,19.54,56.59,56.59,0,0,1,6.51,8.43c.33.52.68,1,1,1.59a63,63,0,0,1,9.08,32.51h.42a63,63,0,0,1,9.39-30.67c.38-.64.82-1.29,1.24-1.93a57.81,57.81,0,0,1,7.24-8.79,54.75,54.75,0,0,1,6.39-5.79c1.07-.81,2.18-1.62,3.35-2.39a57.19,57.19,0,0,1,30.25-9.82c1.16,0,2.31-.06,3.46,0l1.11,0c.37,0,.75,0,1.11.06l1.11.08c.36,0,.72.06,1.07.11.62.06,1.24.13,1.86.23l.83.12.65.11c.36.06.73.12,1.09.2.73.14,1.45.29,2.16.46.46.11.92.22,1.38.34s.7.19,1.05.3c1,.28,1.91.58,2.85.92.27.09.53.18.79.29l.51.19.1,0,.18.07.19.07s.08,0,.13,0l.33.13c0-.12,0-.23,0-.34a1.09,1.09,0,0,0,0-.26c0-.16,0-.31.07-.48a.09.09,0,0,0,0,0c.09-.65.17-1.32.23-2,0-.21,0-.41.07-.62,0-.42.09-.81.13-1.24.09-.82.18-1.67.22-2.53v-.22c0-.77,0-1.54,0-2.31,0-.38,0-.77,0-1.15a11.43,11.43,0,0,0,0-1.16A11.25,11.25,0,0,0,268,81.61Zm-56.35,11c-.31.94-.6,1.88-.9,2.82-3.65,2.53-6.39,3.53-9.35,6.82s-6.43,6.26-8.65,10.2c-1.84.34-3.63,4.6-5.43,4.26-.1,0-3.28,0-2-2.71.08-.16-.54-.8-.7-.82s-.14-.4-.23-.41,0-.31-.1-.31c-1.38-.21-.23-.48-1-.81a8.37,8.37,0,0,1-1.29-.74l-.25-.16-.33-.22c-.11-.07-.22-.17-.35-.26l0,0-.06,0h0a1.6,1.6,0,0,0,0-.33,4.53,4.53,0,0,0,0-.51,17.33,17.33,0,0,1-.16-2.86,6,6,0,0,0-.65-2.76h0a12.29,12.29,0,0,1-1-3.14c-.21-2.61-2.37-5-3.62-7.29h0l-.07-.12c7.63-1.89,17.09-5.07,24-7.15a78.1,78.1,0,0,0,8.08-2.88,15.33,15.33,0,0,0,2.78-1.33c.09,0,.18-.18.27-.22.08.17,3.36-.92,3.36-.65,0,.51,0,2.88,0,3.39-.1.68.17,2.18,0,2.87s-1.65,2.76-1.81,3.37l-.06.22-.3,1.08,0,.17c0,.13-.07.25-.1.37Z"/><path class="cls-5" d="M217.65,47a18.7,18.7,0,0,1,.49,6.15,20.18,20.18,0,0,1-1.8,6.15,12.2,12.2,0,0,1-22.48.38,20.1,20.1,0,0,1-2-6.08,18.76,18.76,0,0,1,.27-6.16h.28a21.15,21.15,0,0,0,3.3,11c2.09,3.21,5.59,5.73,9.47,5.64s7.3-2.68,9.27-6A21.15,21.15,0,0,0,217.36,47Z"/><path class="cls-5" d="M181.92,47.57a18.7,18.7,0,0,1,.49,6.15,20.18,20.18,0,0,1-1.8,6.15,12.2,12.2,0,0,1-22.48.38,20.06,20.06,0,0,1-2-6.08A18.75,18.75,0,0,1,156.4,48h.29A21.13,21.13,0,0,0,160,59c2.09,3.21,5.59,5.73,9.47,5.64s7.3-2.68,9.27-6a21.12,21.12,0,0,0,2.92-11.13Z"/><path class="cls-5" d="M180.7,110.46c0-.21,0-.43,0-.69v-.09a6.88,6.88,0,0,0,0-1.33,19.81,19.81,0,0,0-1.46-7,17.54,17.54,0,0,0-2-3.77c-.43-.56-.81-1.16-1.24-1.76s-.94-1-1.41-1.59a26.4,26.4,0,0,0-6.94-5l0-.17a17.29,17.29,0,0,1,8.1,3.94c.3.26.56.47.86.77a.93.93,0,0,1,.21.17,19.84,19.84,0,0,1,4.41,6.6,20.42,20.42,0,0,1,1.16,4.5,23.31,23.31,0,0,1,.13,2.44v.3c0,.64-.09,1.29-.13,1.93,0,0,0,.09,0,.17a3.86,3.86,0,0,1-.13.69,2.43,2.43,0,0,1-.13.77Z"/><path class="cls-5" d="M197.86,118.15c-.43.64-.86,1.29-1.24,1.93a1.26,1.26,0,0,1-.38.09,12.24,12.24,0,0,1-1.72.17,17.89,17.89,0,0,1-4.8-.43,21.53,21.53,0,0,1-5.36-2.14,10.72,10.72,0,0,1-1.5-.9c0-.21,0-.43,0-.69.51.26,1.07.51,1.59.81a24.45,24.45,0,0,0,5.44,1.76,14.75,14.75,0,0,0,5.48,0,2.22,2.22,0,0,0,.56-.09A9.62,9.62,0,0,0,197.86,118.15Z"/><path class="cls-5" d="M215.74,82.48a10.86,10.86,0,0,1-.17,1.76,42.53,42.53,0,0,1-1.37,6.26c0,.09,0,.13-.09.21-.43,1.37-.9,2.74-1.46,4.07-1.16.77-2.27,1.58-3.34,2.4a41.9,41.9,0,0,0,1.89-4.5l.9-2.83a47.21,47.21,0,0,0,1.37-5.91c0-.51.13-1,.13-1.5a1.71,1.71,0,0,0-.08-.69c-.09,0-.17.17-.26.21a15,15,0,0,1-2.78,1.33c-3.81,1.46-7.76,2.61-11.65,3.77-7.54,2.19-15.17,4.16-22.79,6a5.94,5.94,0,0,1-.82.21l0-.21.69-.26c7.5-2.66,15-5,22.5-7.46,3.81-1.33,7.71-2.53,11.35-4,.43-.21.9-.38,1.28-.56a9.64,9.64,0,0,0,1-.56.13.13,0,0,1,.09,0v0l.17-.13a1.69,1.69,0,0,1,.64-.34,2,2,0,0,1,.73-.09,1.77,1.77,0,0,1,.81.21,1.85,1.85,0,0,1,.56.38,2.11,2.11,0,0,1,.3.34,1.31,1.31,0,0,0,.13.26.7.7,0,0,1,.09.21,2.22,2.22,0,0,1,.17.9A2.5,2.5,0,0,1,215.74,82.48Z"/><path class="cls-5" d="M267.91,80.45c0-.77,0-1.55,0-2.31v-.22a79.15,79.15,0,0,0-2.82-17.31c-.34-1.29-.73-2.57-1.16-3.86a81.14,81.14,0,0,0-19.24-31.58,82.79,82.79,0,0,0-117.06-1.84,84.3,84.3,0,0,0-25.1,58.53,5.49,5.49,0,0,0,0,.9c0,.91,0,1.8.09,2.75,0,1.33.13,2.7.26,4.07,0,.21,0,.41.06.63s0,.69.09,1c0,.51.11,1,.18,1.54,0,.08,0,.17,0,.26s0,.3.07.44c1.24-.6,2.57-1.11,3.86-1.63.08,0,.13,0,.17,0l0-.28c0-.15,0-.29,0-.43s0-.19,0-.29c-.09-.85-.15-1.71-.21-2.55,0-.08,0-.15,0-.23,0-.6-.08-1.2-.08-1.76-.09-1.2-.09-2.35-.09-3.51v-.22A80.38,80.38,0,0,1,263.12,56.62c.42,1.24.82,2.49,1.15,3.73a79.06,79.06,0,0,1,3.26,22.41,80.63,80.63,0,0,1-.42,8.44c0,.2,0,.4-.07.6-.08.67-.18,1.35-.28,2,0,.17,0,.32-.07.48a.19.19,0,0,0,0,.08.57.57,0,0,0,0,.18,2.28,2.28,0,0,0-.06.37s.08,0,.13,0l.33.13a0,0,0,0,1,0,0l.06-.36a2.52,2.52,0,0,0,0-.27c0-.18.06-.36.08-.54.09-.65.16-1.31.23-2,0-.22,0-.42.07-.64V91.2a9.81,9.81,0,0,0,.08-1.07c.09-.82.18-1.67.22-2.53v-.22c0-.77,0-1.54,0-2.31,0-.38,0-.77,0-1.15V81.61C268,81.21,267.91,80.83,267.91,80.45Z"/><path class="cls-3" d="M284.23,187.08l9.93-.23.23-.11A84.31,84.31,0,0,0,298.64,172a118.88,118.88,0,0,0,2-15.61,93.67,93.67,0,0,0,.18-12.87,62.25,62.25,0,0,0-2.52-13.5,53.53,53.53,0,0,0-4.08-9.92c-1.32-2.42-2.88-4.72-4.42-7a40.46,40.46,0,0,0-6.93-8c-2.22-2-4.6-3.79-7-5.58A41.5,41.5,0,0,0,269,95.37l-1.82-.85,0,0-.39-.17a.09.09,0,0,0-.07,0l-.08,0c-.55-.25-1.12-.48-1.68-.71A60.75,60.75,0,0,0,249,89.5a59.69,59.69,0,0,0-18.48.58A57.33,57.33,0,0,0,217,94.4q-1.31.61-2.6,1.3c-.28.14-.54.29-.82.44a74.6,74.6,0,0,0-7,4.23,68.38,68.38,0,0,0-10.16,8.78,75.5,75.5,0,0,0-7.61,9.37l0,0-.09.13-.17.25-.36.54a1.64,1.64,0,0,0-.12.16l-1,1.45c-.35-.54-.67-1-1-1.49l-.2-.33c-.12-.21-.24-.41-.36-.62a3.91,3.91,0,0,0-.2-.34c-.21-.35-.42-.7-.64-1,0-.08-.09-.15-.14-.23a.75.75,0,0,0-.08-.11c-.25-.41-.51-.82-.79-1.21s-.53-.82-.83-1.22a68.85,68.85,0,0,0-4.76-6.08A66.57,66.57,0,0,0,159.38,93.2a60.86,60.86,0,0,0-12.23-5,58.94,58.94,0,0,0-13.59-2.16A57.08,57.08,0,0,0,119,87.19a78.61,78.61,0,0,0-9.48,2.65c-.81.3-1.6.62-2.38,1l-.15.07-.5.23c-1.13.53-2.24,1.1-3.37,1.67l-1.38.69A45.12,45.12,0,0,0,93.39,99a56.39,56.39,0,0,0-10.54,11.21,57.64,57.64,0,0,0-5.48,9.41,58.46,58.46,0,0,0-4.93,17,106.49,106.49,0,0,0-.35,20.58c.23,3.46.68,6.92,1.15,10.36a85.3,85.3,0,0,0,5.3,19.21l.17.2,7.84.12Z"/><path class="cls-5" d="M266.61,94.26c-.55-.25-1.12-.48-1.68-.71A60.75,60.75,0,0,0,249,89.5a59.7,59.7,0,0,0-18.48.58A57.34,57.34,0,0,0,217,94.4q-1.31.61-2.6,1.3l0-.17.3-1.08.06-.22c.16-.61.31-1.22.43-1.83l-.82.39c-1.78.91-3.37,1.82-5,2.77a56,56,0,0,0-4.9,3.16c-1.56,1.13-3.08,2.31-4.56,3.56a72.73,72.73,0,0,0-8.17,8.17c-1.26,1.46-2.47,3-3.62,4.51-.31.41-.62.84-.92,1.26s-.52.74-.77,1.11l-.27.37c-.55-.21-1.09-.42-1.63-.67a.75.75,0,0,0-.08-.11c-.25-.41-.51-.82-.79-1.21s-.53-.82-.83-1.22a68.88,68.88,0,0,0-4.76-6.08A66.56,66.56,0,0,0,159.38,93.2a60.84,60.84,0,0,0-12.23-5,59,59,0,0,0-13.59-2.16A57.08,57.08,0,0,0,119,87.19a78.66,78.66,0,0,0-9.48,2.65c-.81.3-1.6.62-2.38,1,0,.1,0,.19,0,.29a33.32,33.32,0,0,1,4.39-1.67c1.76-.56,3.55-1.05,5.35-1.49s3.61-.84,5.45-1.09a61.34,61.34,0,0,1,11.08-.5,58.83,58.83,0,0,1,21.51,5,63.48,63.48,0,0,1,18.32,12.38A74.76,74.76,0,0,1,180.7,112c.77,1,1.51,2,2.22,3.05.28.39.54.8.81,1.2.07.09.13.19.19.28l.18.29a.34.34,0,0,1,.06.1c.11.16.21.31.31.48l.41.68c.18.29.34.57.51.87s.28.45.42.68c.33.55.68,1.1,1,1.65l.25.38.24-.36c.35-.54.72-1.08,1.09-1.61l.06-.09.42-.63.24-.31,0,0a76.49,76.49,0,0,1,12.67-14.11,60.46,60.46,0,0,1,9-6.45c1.15-.66,2.29-1.34,3.46-2h0c.46-.27.92-.51,1.4-.75l1.21-.59h0c1.27-.6,2.55-1.14,3.86-1.64a61,61,0,0,1,43.46.47c.75.3,1.5.61,2.24.93h0l.13.06a.57.57,0,0,1,0-.18.19.19,0,0,1,0-.08ZM303.1,145a63.13,63.13,0,0,0-5.16-22.47,50,50,0,0,0-2.69-5.21c-1-1.66-2-3.25-3.06-4.8a43.07,43.07,0,0,0-7.56-9c-1.44-1.3-2.91-2.51-4.41-3.68s-2.92-2.3-4.6-3.44a46.33,46.33,0,0,0-5.82-3.33c-.77-.37-1.54-.73-2.31-1.06l0,0-.1,0h0l-.3-.13c-.59-.26-1.19-.5-1.78-.74a65.18,65.18,0,0,0-22.63-4.49,60.43,60.43,0,0,0-11.6.86,63.73,63.73,0,0,0-11.21,3c-.73.28-1.46.56-2.17.88S216,92,215.27,92.4l-.82.39c-1.78.91-3.37,1.82-5,2.77a56,56,0,0,0-4.9,3.16c-1.56,1.13-3.08,2.31-4.56,3.56a72.73,72.73,0,0,0-8.17,8.17c-1.26,1.46-2.47,3-3.62,4.51-.31.41-.62.84-.92,1.26q-1.21-1.87-2.51-3.7h0c-.59-.82-1.19-1.62-1.82-2.42h0c-.37-.47-.74-.93-1.12-1.4a69.28,69.28,0,0,0-25.71-19.92,61.48,61.48,0,0,0-22.54-5.18,63.62,63.62,0,0,0-11.58.56,57,57,0,0,0-5.69,1.16c-1.85.45-3.71,1-5.55,1.55-1.24.39-2.55.87-3.81,1.4l-.17.08c-.51.22-1,.44-1.51.68l-.64.3-1.76.89-2.66,1.34a51.88,51.88,0,0,0-9.59,6.7A60.67,60.67,0,0,0,70,138.55,96.19,96.19,0,0,0,69.62,150c.12,3.79.31,7.53.74,11.33.22,1.88.47,3.74.74,5.59s.59,3.78,1,5.64a94.89,94.89,0,0,0,3.16,11c.39,1.09.82,2.18,1.26,3.27h2.26c-.55-1.3-1.05-2.62-1.52-4a90,90,0,0,1-3-10.71c-.38-1.82-.69-3.64-.92-5.49s-.48-3.68-.68-5.53c-.39-3.69-.56-7.41-.64-11.12a95.27,95.27,0,0,1,.41-11.12,58.57,58.57,0,0,1,6.21-21.22A57.69,57.69,0,0,1,92.3,100.24a49,49,0,0,1,9.09-6.32c.59-.29,1.17-.58,1.75-.89,1.2-.6,2.4-1.2,3.61-1.76l.25-.11a.55.55,0,0,1,.16-.07,33.32,33.32,0,0,1,4.39-1.67c1.76-.56,3.55-1.05,5.35-1.49s3.61-.84,5.45-1.09a61.34,61.34,0,0,1,11.08-.5,58.83,58.83,0,0,1,21.51,5,63.48,63.48,0,0,1,18.32,12.38A74.76,74.76,0,0,1,180.7,112c.77,1,1.51,2,2.22,3.05.28.39.54.8.81,1.2.07.09.13.19.19.28l.18.29a.34.34,0,0,1,.06.1c.11.16.21.31.31.48l.41.68c.18.29.34.57.51.87s.28.45.42.68c.33.55.68,1.1,1,1.65l.25.38.24-.36c.35-.54.72-1.08,1.09-1.61l.06-.09.42-.63.24-.31,0,0a76.49,76.49,0,0,1,12.67-14.11,60.46,60.46,0,0,1,9-6.45c1.15-.66,2.29-1.34,3.46-2h0c.46-.27.92-.51,1.4-.75l1.21-.59h0c1.27-.6,2.55-1.14,3.86-1.64a61,61,0,0,1,43.46.47c.75.3,1.5.61,2.24.93h0l.13.06.45.2.06,0q.9.4,1.77.83a44,44,0,0,1,5.22,3,101.26,101.26,0,0,1,8.74,6.88,40.89,40.89,0,0,1,7.16,8.44,56.73,56.73,0,0,1,10.58,31.14,105.13,105.13,0,0,1-.26,11.13c-.23,3.71-.6,7.41-1.15,11.08a89.8,89.8,0,0,1-5,19.46h2.29a93.88,93.88,0,0,0,5-19.12c.59-3.74,1-7.51,1.26-11.28A106.2,106.2,0,0,0,303.1,145Z"/><path class="cls-5" d="M106.73,82.76c0,1.16,0,2.31.09,3.51-1.41-.26-2.87-.47-4.28-.77C98.76,84.82,95,84,91.3,83.06a146.42,146.42,0,0,1-23.22-7.8A135.91,135.91,0,0,1,46.44,63.74c-13.67-9-26.1-20.1-35.14-33.81l.38-.21C21.2,43,34,53.46,47.72,61.77a136,136,0,0,0,21.47,10.8,144.85,144.85,0,0,0,22.92,7.11c3.43.86,6.9,1.54,10.37,2.19,1.41.21,2.83.47,4.24.69Z"/><path class="cls-5" d="M274,75.56c-1,8.61-3.73,16.45-6.64,24.21a235.79,235.79,0,0,1-10.11,22.5c-7.46,14.61-15.64,28.75-24.38,42.59l-.38-.26c8.27-14.05,16-28.45,23-43.19,3.43-7.41,6.68-14.87,9.51-22.54.6-1.67,1.2-3.34,1.76-5.06.3-.86.56-1.71.81-2.61A75.25,75.25,0,0,0,271,75.31c.26-4,.21-8.31-2-11.65a7,7,0,0,0-4-3,2.69,2.69,0,0,0-.77-.26q-.51-1.86-1.16-3.73l.77.13c.43.09.9.21,1.37.34a11.53,11.53,0,0,1,6.47,4.71C274.6,66.52,274.34,71.28,274,75.56Z"/><path class="cls-6" d="M7.87,22.33l-.31-.15L7.1,22l-.79-.36-.49-.21-.59-.25-.48-.2-.36-.15-.71-.31L3,20.16l-.77-.42c-.12-.07-.23-.15-.34-.23l-.29-.22L1.29,19a3.4,3.4,0,0,1-.38-.45A3.77,3.77,0,0,1,.61,18c-.08-.15-.16-.31-.23-.47a5.3,5.3,0,0,1-.32-1,2.91,2.91,0,0,1,.05-1.41,2.81,2.81,0,0,1,.31-.7,2.25,2.25,0,0,1,.3-.4,3.84,3.84,0,0,1,.31-.3,3.87,3.87,0,0,1,.4-.28,2.83,2.83,0,0,1,.67-.29,2.92,2.92,0,0,1,.67-.12,3,3,0,0,1,.66,0,3.51,3.51,0,0,1,1.68.79L5.2,14l0-.13a3.77,3.77,0,0,1,.21-.59,3.4,3.4,0,0,1,.33-.58A3.86,3.86,0,0,1,6,12.37a2.79,2.79,0,0,1,.7-.56,3,3,0,0,1,.86-.33,3,3,0,0,1,.82-.07,2.39,2.39,0,0,1,.61.1l.42.15a2,2,0,0,1,.46.26c.11.08.22.17.32.26a2.65,2.65,0,0,1,.36.4,3.1,3.1,0,0,1,.34.59,4.64,4.64,0,0,1,.2.61,5.88,5.88,0,0,1,.17.77,4,4,0,0,1,0,.93c0,.18,0,.35-.07.52a3.2,3.2,0,0,1-.17.6c-.06.15-.11.31-.18.46s-.22.46-.34.69l-.22.4-.43.72-.35.59-.59,1-.28.48-.59,1Z"/><path class="cls-6" d="M12.11,7.8,12,7.67l-.12-.19-.2-.32L11.59,7l-.15-.24-.12-.19-.09-.14L11,6.1l-.17-.28-.18-.34c0-.05,0-.11-.07-.17l-.05-.15c0-.06,0-.13,0-.19a1.49,1.49,0,0,1,0-.25,1.65,1.65,0,0,1,0-.25c0-.08,0-.15,0-.23a2.32,2.32,0,0,1,.12-.43,1.27,1.27,0,0,1,.36-.5,1.23,1.23,0,0,1,.28-.18,1,1,0,0,1,.21-.07l.18,0h.21a1.24,1.24,0,0,1,.31.06,1.28,1.28,0,0,1,.28.12,1.32,1.32,0,0,1,.23.17,1.54,1.54,0,0,1,.42.7v0l0,0a1.65,1.65,0,0,1,.22-.16,1.49,1.49,0,0,1,.26-.13l.17-.05a1.22,1.22,0,0,1,.39,0,1.31,1.31,0,0,1,.39.09A1.33,1.33,0,0,1,15,4a1,1,0,0,1,.2.19l.12.16a.89.89,0,0,1,.1.21c0,.06,0,.11.05.17a1.16,1.16,0,0,1,0,.23,1.36,1.36,0,0,1,0,.3,2,2,0,0,1-.07.27,2.58,2.58,0,0,1-.13.32,1.75,1.75,0,0,1-.21.35l-.15.17a1.4,1.4,0,0,1-.21.18l-.18.12-.29.17L14,6.88,13.7,7l-.27.13L13,7.37l-.22.1-.46.23Z"/><line class="cls-1" x1="284.23" y1="186.73" x2="86.42" y2="186.73"/></g></g></g></svg>