<svg xmlns="http://www.w3.org/2000/svg" viewBox="0 0 26.71 22.34"><defs><style>.cls-1{fill:#0af;}</style></defs><title>tick</title><g id="Calque_2" data-name="Calque 2"><g id="BODY"><g id="_1" data-name="1"><path class="cls-1" d="M0,10c2.06,1.35,4,2.8,5.93,4.31,1,.74,1.88,1.53,2.83,2.3s1.86,1.56,2.77,2.36l-2.23.5a45.06,45.06,0,0,1,2.84-6.12,41.49,41.49,0,0,1,3.72-5.62A28.26,28.26,0,0,1,18.1,5.17,21.23,21.23,0,0,1,20.64,2.9,14.32,14.32,0,0,1,26.71,0a22,22,0,0,0-4.89,4.19A43.34,43.34,0,0,0,18,9.27c-1.17,1.77-2.24,3.62-3.27,5.49s-2,3.81-2.87,5.7L11,22.34,9.63,21c-.85-.86-1.7-1.73-2.52-2.62s-1.67-1.77-2.46-2.69C3,13.83,1.46,12,0,10Z"/></g></g></g></svg>