<svg xmlns="http://www.w3.org/2000/svg" viewBox="0 0 19.98 19.98"><defs><style>.cls-1{fill:#4e4e4e;}</style></defs><title>translation</title><g id="Calque_2" data-name="Calque 2"><g id="BODY"><g id="_1" data-name="1"><path class="cls-1" d="M7.06,9.4H9.4V3.66A3.44,3.44,0,0,0,8,5.26,10.44,10.44,0,0,0,7.06,9.4Z"/><path class="cls-1" d="M9.4,10.57H7.06a10.44,10.44,0,0,0,1,4.14,3.44,3.44,0,0,0,1.39,1.6V10.57h0Z"/><path class="cls-1" d="M10.57,10.57v5.75A3.44,3.44,0,0,0,12,14.72a10.44,10.44,0,0,0,1-4.14Z"/><path class="cls-1" d="M10.57,3.66V9.4h2.35a10.44,10.44,0,0,0-1-4.14A3.44,3.44,0,0,0,10.57,3.66Z"/><path class="cls-1" d="M3.54,9.4H5.88A11.66,11.66,0,0,1,7,4.74a6.86,6.86,0,0,1,.37-.66A6.49,6.49,0,0,0,3.54,9.4Z"/><path class="cls-1" d="M3.54,10.57A6.49,6.49,0,0,0,7.34,15.9,6.87,6.87,0,0,1,7,15.24a11.66,11.66,0,0,1-1.09-4.67Z"/><path class="cls-1" d="M12.63,15.9a6.49,6.49,0,0,0,3.81-5.33H14.09A11.66,11.66,0,0,1,13,15.24,6.87,6.87,0,0,1,12.63,15.9Z"/><path class="cls-1" d="M12.63,4.08a6.88,6.88,0,0,1,.37.66A11.66,11.66,0,0,1,14.09,9.4h2.35A6.49,6.49,0,0,0,12.63,4.08Z"/><path class="cls-1" d="M0,10a10,10,0,0,0,14.76,8.78L20,20l-1.22-5.22A10,10,0,1,0,0,10Zm2.34,0A7.65,7.65,0,1,1,10,17.64,7.66,7.66,0,0,1,2.34,10Z"/></g></g></g></svg>