<?xml version="1.0" encoding="utf-8"?>
<!-- Generator: Adobe Illustrator 23.0.6, SVG Export Plug-In . SVG Version: 6.00 Build 0)  -->
<svg version="1.1" id="Calque_1" xmlns="http://www.w3.org/2000/svg" xmlns:xlink="http://www.w3.org/1999/xlink" x="0px" y="0px"
	 viewBox="0 0 120.5 113.1" style="enable-background:new 0 0 120.5 113.1;" xml:space="preserve">
<style type="text/css">
	.st0{fill:none;stroke:#3B566B;stroke-width:4;stroke-linecap:round;stroke-linejoin:round;stroke-miterlimit:10;}
	.st1{fill:#FFFFFF;}
	.st2{fill:#EECE4A;}
	.st3{fill:#F5EFDC;}
	.st4{fill:#EBBA1B;}
	.st5{fill:#D1BF86;}
	.st6{fill:#BFBAA5;}
	.st7{fill:#CEC9AF;}
	.st8{fill:none;stroke:#020203;stroke-miterlimit:10;}
</style>
<g>
	<g>
		<path class="st0" d="M90.4,106.3H24.5c-4.1,0-7.4-3.3-7.4-7.4V60c0-4.1,3.3-7.4,7.4-7.4h65.9c4.1,0,7.4,3.3,7.4,7.4v38.9
			C97.8,103,94.5,106.3,90.4,106.3z"/>
		<rect x="4.3" y="74" class="st1" width="106.4" height="35.9"/>
	</g>
	<path class="st2" d="M66.6,30.7H41.5c-0.6,0-1-0.5-0.8-1.1L46.4,14c0.1-0.4,0.4-0.6,0.8-0.6h25.1c0.6,0,0.8,0.6,0.8,1.1L67.4,30
		C67.3,30.4,67,30.7,66.6,30.7z"/>
	<path class="st3" d="M46.4,14c0.1-0.4,0.4-0.6,0.8-0.6h23.1V9.4H45.7l-3.4,3.4v12.3L46.4,14z"/>
	<path class="st4" d="M53.9,7.2l-2-2.8H41.6c-0.5,0-1,0.4-1,1v23.9c0,0,0.1,0,0.1,0l1.6-4.3V12.8l1.1-1.1V7.2H53.9z"/>
	<polygon class="st5" points="43.5,7.2 43.5,11.6 45.7,9.4 69.2,9.4 69.2,7.2 	"/>
	<rect x="56.3" y="12.2" class="st6" width="1.1" height="1.1"/>
	<rect x="60.3" y="12.2" class="st6" width="1.1" height="1.1"/>
	<rect x="64.2" y="12.2" class="st6" width="1.1" height="1.1"/>
	<rect x="48.5" y="12.2" class="st6" width="1.1" height="1.1"/>
	<rect x="52.4" y="12.2" class="st6" width="1.1" height="1.1"/>
	<polygon class="st7" points="45.7,12.8 45.7,9.4 42.3,12.8 	"/>
	<g>
		<path class="st2" d="M110.4,108.9H83.2c-0.6,0-1.1-0.6-0.9-1.2l6.2-16.9c0.1-0.4,0.5-0.7,0.9-0.7h27.2c0.6,0,0.9,0.6,0.9,1.2
			l-6.2,16.9C111.2,108.6,110.8,108.9,110.4,108.9z"/>
		<path class="st3" d="M88.5,90.8c0.1-0.4,0.5-0.7,0.9-0.7h25.1v-4.2H87.7l-3.6,3.6v13.3L88.5,90.8z"/>
		<path class="st4" d="M96.6,83.4l-2.2-3H83.3c-0.6,0-1.1,0.5-1.1,1.1v25.9c0,0,0.1,0,0.1,0l1.7-4.6V89.5l1.2-1.2v-4.9H96.6z"/>
		<polygon class="st5" points="85.3,83.4 85.3,88.2 87.7,85.8 113.2,85.8 113.2,83.4 		"/>
		<rect x="99.3" y="88.8" class="st6" width="1.2" height="1.2"/>
		<rect x="103.5" y="88.8" class="st6" width="1.2" height="1.2"/>
		<rect x="107.8" y="88.8" class="st6" width="1.2" height="1.2"/>
		<rect x="90.8" y="88.8" class="st6" width="1.2" height="1.2"/>
		<rect x="95" y="88.8" class="st6" width="1.2" height="1.2"/>
		<polygon class="st7" points="87.7,89.5 87.7,85.8 84.1,89.5 		"/>
	</g>
	<line class="st0" x1="56.9" y1="52.1" x2="56.9" y2="33.8"/>
	<path class="st8" d="M19.5,68.8"/>
	<g>
		<polygon class="st5" points="7.3,83.4 7.3,88.2 9.8,85.8 35.3,85.8 35.3,83.4 		"/>
		<g>
			<path class="st2" d="M32.4,108.9H5.2c-0.6,0-1.1-0.6-0.9-1.2l6.2-16.9c0.1-0.4,0.5-0.7,0.9-0.7h27.2c0.6,0,0.9,0.6,0.9,1.2
				l-6.2,16.9C33.2,108.6,32.8,108.9,32.4,108.9z"/>
			<path class="st3" d="M10.5,90.8c0.1-0.4,0.5-0.7,0.9-0.7h25.1v-4.2H9.8l-3.6,3.6v13.3L10.5,90.8z"/>
			<path class="st4" d="M18.6,83.4l-2.2-3H5.3c-0.6,0-1.1,0.5-1.1,1.1v25.9c0,0,0.1,0,0.1,0l1.7-4.6V89.5l1.2-1.2v-4.9H18.6z"/>
			<rect x="21.3" y="88.8" class="st6" width="1.2" height="1.2"/>
			<rect x="25.5" y="88.8" class="st6" width="1.2" height="1.2"/>
			<rect x="29.8" y="88.8" class="st6" width="1.2" height="1.2"/>
			<rect x="12.8" y="88.8" class="st6" width="1.2" height="1.2"/>
			<rect x="17" y="88.8" class="st6" width="1.2" height="1.2"/>
			<polygon class="st7" points="9.8,89.5 9.8,85.8 6.1,89.5 			"/>
		</g>
		<path class="st8" d="M44.9,83.8"/>
	</g>
	<line class="st0" x1="97.8" y1="76.4" x2="97.8" y2="58"/>
	<line class="st0" x1="17.2" y1="75.8" x2="17.2" y2="57.5"/>
</g>
</svg>
