<svg xmlns="http://www.w3.org/2000/svg" viewBox="0 0 124.13 82.18"><defs><style>.cls-1{fill:#f70;}</style></defs><title>arrow2</title><g id="Calque_2" data-name="Calque 2"><g id="ELEMENTS"><g id="Flèche2"><path class="cls-1" d="M1.63,21.93C1.22,23.1.22,24.06.05,25.26A1.29,1.29,0,0,0,1.29,26.9C2,26.77,2.52,26,3,25.43a.94.94,0,0,0-.07-1.24,4.62,4.62,0,0,0,.38-1.78C3.41,21.45,1.9,20.87,1.63,21.93Z"/><path class="cls-1" d="M2.21,34.14a23.42,23.42,0,0,0-.58,4.08c-.07,1.34-.07,3.05.65,4,.41.55,1.3.31,1.27-.31.17-1.2-.51-2.4-.58-3.64a14.49,14.49,0,0,1,.21-4C3.14,33.66,2.28,33.66,2.21,34.14Z"/><path class="cls-1" d="M8.19,49A18.7,18.7,0,0,1,5.1,45.7c-.31-.41-1,.1-.69.51,1.24,1.65,2.88,5.56,5.35,5.42.48.07.58-.65.38-.93A13.68,13.68,0,0,0,8.19,49Z"/><path class="cls-1" d="M19.78,48.41c-2,1.92-3.6,3.77-6.48,4.22-.38.07-.31.45.07.38,3.19,0,6-1.1,7.44-4.08C21.15,48.24,20.09,48,19.78,48.41Z"/><path class="cls-1" d="M24.31,33.87a16.49,16.49,0,0,0-1.44,4.08,34.3,34.3,0,0,0-1.06,4.87c-.07.48.75.72,1,.14A25.57,25.57,0,0,1,24,38.84a29.22,29.22,0,0,0,1.47-4.32C25.54,33.8,24.65,33.18,24.31,33.87Z"/><path class="cls-1" d="M26.09,17.09c-1.75,2.81-2.33,6.9-2.67,10.16a.49.49,0,0,0,1,.14A43.92,43.92,0,0,1,25.89,22a27.34,27.34,0,0,0,1.34-4.22C27.22,16.88,26.4,16.64,26.09,17.09Z"/><path class="cls-1" d="M34.5,2.85c-2.57,1.72-4.32,4.53-5.9,7a.44.44,0,0,0,.65.58,38.69,38.69,0,0,1,6.17-6.35C36,3.43,35.18,2.33,34.5,2.85Z"/><path class="cls-1" d="M47.09.48A24.84,24.84,0,0,0,42.87,0a.85.85,0,0,0-.24,1.68c1.2.17,2.5.48,3.81.79s2.92,1,4.39,1a.72.72,0,0,0,.31-1.3C50.31,1.06,48.53.69,47.09.48Z"/><path class="cls-1" d="M55.25,5.93c-.41-.55-1.37.17-1,.72a50.2,50.2,0,0,1,2.3,4.49c.65,1.44.89,3.19,1.92,4.56A.8.8,0,0,0,60,15.06C59.44,11.8,57.24,8.3,55.25,5.93Z"/><path class="cls-1" d="M59.75,24.22l.1,4.43c.17,1.37-.07,3.05.62,4.25.41.55,1.06.27,1.37-.17.65-1.13.14-2.68-.07-3.81-.14-1.61-.52-3.26-.65-4.87A.69.69,0,0,0,59.75,24.22Z"/><path class="cls-1" d="M60.4,39.39a21.85,21.85,0,0,0-.45,5.7c.1,1.85.34,4.46,1.75,5.76a.82.82,0,0,0,1.44-.65c0-1.48-.93-3-1.34-4.36A18.72,18.72,0,0,1,61,39.35C61.19,39,60.47,38.9,60.4,39.39Z"/><path class="cls-1" d="M62.67,58.7a17.35,17.35,0,0,0-.14,6.11c.31,2.13.79,4.77,2.3,6.21.55.45,1.37-.17,1.2-.69-.1-1.85-1.34-3.5-1.82-5.28a20.17,20.17,0,0,1-.69-6.35C63.6,58.22,62.77,58,62.67,58.7Z"/><path class="cls-1" d="M78.28,79.8a10.18,10.18,0,0,1-3.81.07,10.15,10.15,0,0,1-3.95-3.26c-.31-.41-1,.1-.69.51,1.68,2.81,5.63,6.93,9.09,4.12C79.38,80.69,79,79.66,78.28,79.8Z"/><path class="cls-1" d="M96.43,73.69c-1.61,1-2.92,2.4-4.43,3.53a12.39,12.39,0,0,1-6.55,2.13c-.38.07-.21.58,0,.62,4.53,0,9.95-1,12.39-5.22A.93.93,0,0,0,96.43,73.69Z"/><path class="cls-1" d="M101.1,55.61c-.55,1.27-.75,2.71-1.34,4.22a10.56,10.56,0,0,1-2.44,3.33c-.58.65.14,1.61.82,1.1,2.57-1.72,5.11-4.91,4.73-8.27C102.91,54.89,101.58,54.82,101.1,55.61Z"/><path class="cls-1" d="M100.55,43.15a36.19,36.19,0,0,0-.51,9.61c.1,1,1.37.69,1.37-.17.07-3.05,1.51-6.28.86-9.44C101.88,42.36,100.68,42.19,100.55,43.15Z"/><path class="cls-1" d="M110.94,35.57c-1-.51-2.54-.24-3.67,0a10.06,10.06,0,0,0-3.57,1.82.6.6,0,1,0,.72,1A7.1,7.1,0,0,1,107.54,37c1-.1,2.06.17,3.05.07A.82.82,0,0,0,110.94,35.57Z"/><path class="cls-1" d="M123.19,34.75c-4.29-1.71-8.2-4.36-12.32-6.41-2-.89-3.12,2.13-1.3,3.12a81.09,81.09,0,0,0,10.16,5.25c-1.13,1.06-2.26,2.13-3.53,3.29-.45.55-1.41,1.27-1.41,2.13l0,.24a.17.17,0,0,0,0,.24c-.07.48.62.82.89.62h0c.24,0,.38-.07.65-.27a14.66,14.66,0,0,0,2.2-1.65,41.36,41.36,0,0,1,5.11-4C124.49,36.77,124.22,35.26,123.19,34.75Z"/></g></g></g></svg>