<svg xmlns="http://www.w3.org/2000/svg" viewBox="0 0 105.26 89.51"><defs><style>.cls-1{fill:#f70;}</style></defs><title>arrow1</title><g id="Calque_2" data-name="Calque 2"><g id="ELEMENTS"><g id="Flèches"><g id="Flèche1"><path class="cls-1" d="M11.75,1.58c-3.5-.87-7.52.52-11,.87A.79.79,0,0,0,.72,4a38.64,38.64,0,0,0,11-.87C12.45,2.81,12.45,1.76,11.75,1.58Z"/><path class="cls-1" d="M32.75,6.31c-2.45-2.45-6.3-3-9.45-2.8a.52.52,0,0,0,0,1,22.16,22.16,0,0,1,4.9,1c1.4.52,2.62,1.22,4,1.75C32.75,7.71,33.27,6.83,32.75,6.31Z"/><path class="cls-1" d="M51.12,20a11,11,0,0,0-3.5-4,23.93,23.93,0,0,0-4.2-3.15.44.44,0,1,0-.52.7A23.38,23.38,0,0,1,46.57,17c1.22,1.22,2.1,2.8,3.32,4C50.42,21.71,51.47,20.83,51.12,20Z"/><path class="cls-1" d="M54.62,30.81a.71.71,0,1,0-1.22.7c.35.87.87,1.92,1.22,2.8.35,1.22.17,2.45.7,3.5a.67.67,0,0,0,1.22,0C57.42,35.88,55.67,32.73,54.62,30.81Z"/><path class="cls-1" d="M59.35,52.68A23.94,23.94,0,0,0,59,47.61c-.17-.87-1.22-.87-1.22,0a39.55,39.55,0,0,0-.17,4.55c0,1.57-.35,3.15.17,4.72a.85.85,0,0,0,1.57,0A11.29,11.29,0,0,0,59.35,52.68Z"/><path class="cls-1" d="M55.15,68.08a35.32,35.32,0,0,1-2.45,5.25c-.87,1.58-2.1,3.15-2.27,4.9-.17.87,1,1,1.57.7,1.4-1.22,2.1-3.32,2.8-5.07a20.57,20.57,0,0,0,1.75-5.25C56.72,67.56,55.32,67.21,55.15,68.08Z"/><path class="cls-1" d="M47.27,81.56c-1,1.22-2.1,2.62-3.15,3.67a7.77,7.77,0,0,1-1.92,1.4c-.7.35-1,.35-1.57,1a1,1,0,0,0,.52,1.4c1.57.35,3-1.22,4-2.27a21.61,21.61,0,0,0,3-4.72C48.32,81.56,47.62,81,47.27,81.56Z"/><path class="cls-1" d="M33.8,85.93a5,5,0,0,1-3,1.22c-.87,0-1.92-.17-2.62.52a.85.85,0,0,0,0,1.22c1.75,1.75,5.25-.7,6.3-2.1C34.85,86.28,34.32,85.58,33.8,85.93Z"/><path class="cls-1" d="M22.6,82.26a19.87,19.87,0,0,1-4.37-1c-1.57-.7-2.27-1.92-3.15-3.32a1,1,0,0,0-1.75.52c-.17,4.72,5.77,5.6,9.27,5.07C23.12,83.31,23.12,82.26,22.6,82.26Z"/><path class="cls-1" d="M13.85,70.71c-1.4-2.62-1-5.25-1.57-8a.73.73,0,0,0-1.4,0A11.57,11.57,0,0,0,13,71.23C13.32,71.76,14,71.41,13.85,70.71Z"/><path class="cls-1" d="M14.55,40.61C11.4,43.58,10.7,48,10.87,52c0,.7,1.22.7,1.22,0a18.31,18.31,0,0,1,3.5-10.32A.74.74,0,1,0,14.55,40.61Z"/><path class="cls-1" d="M24.7,28c-3.15,1.57-5.6,4.55-7.52,7.52-.52.7.7,1.4,1,.7a67.76,67.76,0,0,1,7.17-7C26.1,28.53,25.4,27.66,24.7,28Z"/><path class="cls-1" d="M35,17.86c-2.45,0-5.25,2.1-6.82,3.85a.74.74,0,1,0,1,1,11.5,11.5,0,0,1,3-2.1,28.55,28.55,0,0,0,3.32-1.57C36.07,18.73,35.55,17.86,35,17.86Z"/><path class="cls-1" d="M58.47,10.51a35,35,0,0,0-4.2.7,23.89,23.89,0,0,0-5.07,1.22.72.72,0,0,0,.35,1.4,47.17,47.17,0,0,1,4.9-.7c1.4-.17,3.15-.17,4.37-1A.82.82,0,0,0,58.47,10.51Z"/><path class="cls-1" d="M74,8.76c-2.27-.52-5.07,0-7.52.17a.61.61,0,1,0,0,1.22c2.45.17,5.07.7,7.52.17A.8.8,0,0,0,74,8.76Z"/><path class="cls-1" d="M90.32,9.63a13,13,0,0,0-3.68-.17,28.35,28.35,0,0,0-3.85.17.7.7,0,0,0,0,1.4,28.35,28.35,0,0,1,3.85.17A13,13,0,0,0,90.32,11C91,11,91,10,90.32,9.63Z"/><path class="cls-1" d="M104.84,10.16a78.47,78.47,0,0,0-7-6.3C96.1,2.46,93.47-.17,91.2,0a1.28,1.28,0,0,0-1,1.92c1,1.75,3.5,2.8,5.07,3.85a71.66,71.66,0,0,1,5.77,4.9,112.82,112.82,0,0,0-10.32,5.07c-1,.52-.35,2.45.88,2.1,4.37-1.4,8.22-4.2,12.77-5.07C105.37,12.61,105.54,11,104.84,10.16Z"/></g></g></g></g></svg>