<?xml version="1.0" encoding="utf-8"?>
<!-- Generator: Adobe Illustrator 23.0.6, SVG Export Plug-In . SVG Version: 6.00 Build 0)  -->
<svg version="1.1" id="Calque_1" xmlns="http://www.w3.org/2000/svg" xmlns:xlink="http://www.w3.org/1999/xlink" x="0px" y="0px"
	 viewBox="0 0 96 118.5" style="enable-background:new 0 0 96 118.5;" xml:space="preserve">
<style type="text/css">
	.st0{fill:#E1C3A0;}
	.st1{fill:#EFF2FB;}
	.st2{fill:#C8CFE2;}
	.st3{fill:#B0B9D2;}
	.st4{fill:#83899E;}
	.st5{opacity:0.97;}
	.st6{fill:url(#SVGID_1_);}
	.st7{fill:url(#SVGID_2_);}
	.st8{fill:url(#SVGID_3_);}
	.st9{fill:url(#SVGID_4_);}
	.st10{fill:url(#SVGID_5_);}
	.st11{fill:url(#SVGID_6_);}
	.st12{fill:url(#SVGID_7_);}
	.st13{fill:url(#SVGID_8_);}
	.st14{fill:url(#SVGID_9_);}
	.st15{fill:url(#SVGID_10_);}
	.st16{fill:url(#SVGID_11_);}
	.st17{fill:url(#SVGID_12_);}
	.st18{fill:url(#SVGID_13_);}
	.st19{fill:url(#SVGID_14_);}
</style>
<g>
	<g>
		<path class="st0" d="M78.2,114.1H13.1c-4.2,0-7.7-3.4-7.7-7.7V18.3c0-4.2,3.4-7.7,7.7-7.7h65.1c4.2,0,7.7,3.4,7.7,7.7v88.1
			C85.9,110.6,82.4,114.1,78.2,114.1z"/>
		<path class="st1" d="M78.2,108.3H13.1c-1.1,0-1.9-0.9-1.9-1.9V18.3c0-1.1,0.9-1.9,1.9-1.9h65.1c1.1,0,1.9,0.9,1.9,1.9v88.1
			C80.1,107.5,79.3,108.3,78.2,108.3z"/>
		<path class="st2" d="M57.1,10.7h-5.7V8.8c0-3.2-2.6-5.7-5.7-5.7c-3.2,0-5.7,2.6-5.7,5.7v1.9h-5.7c-2.1,0-3.8,1.7-3.8,3.8v3.8H61
			v-3.8C61,12.4,59.3,10.7,57.1,10.7z M45.6,10.7c-1.1,0-1.9-0.9-1.9-1.9s0.9-1.9,1.9-1.9c1.1,0,1.9,0.9,1.9,1.9
			S46.7,10.7,45.6,10.7z"/>
		<path class="st3" d="M61,20.2H30.3c-1.1,0-1.9-0.9-1.9-1.9l0,0c0-1.1,0.9-1.9,1.9-1.9H61c1.1,0,1.9,0.9,1.9,1.9l0,0
			C62.9,19.4,62,20.2,61,20.2z"/>
		<path class="st4" d="M26.5,47.1c-0.5,0-1-0.2-1.4-0.6l-5.7-5.7c-0.7-0.7-0.7-2,0-2.7s2-0.7,2.7,0l4.4,4.4l8.2-8.2
			c0.7-0.7,2-0.7,2.7,0s0.7,2,0,2.7l-9.6,9.6C27.5,46.9,27,47.1,26.5,47.1z"/>
		<g class="st5">
			<path class="st3" d="M59.1,39.4H43.7c-1.1,0-1.9-0.9-1.9-1.9l0,0c0-1.1,0.9-1.9,1.9-1.9h15.3c1.1,0,1.9,0.9,1.9,1.9l0,0
				C61,38.5,60.1,39.4,59.1,39.4z"/>
		</g>
		<g class="st5">
			<path class="st2" d="M68.6,47.1H43.7c-1.1,0-1.9-0.9-1.9-1.9l0,0c0-1.1,0.9-1.9,1.9-1.9h24.9c1.1,0,1.9,0.9,1.9,1.9l0,0
				C70.5,46.2,69.7,47.1,68.6,47.1z"/>
		</g>
		<path class="st4" d="M26.5,93c-0.5,0-1-0.2-1.4-0.6l-5.7-5.7c-0.7-0.7-0.7-2,0-2.7c0.7-0.7,2-0.7,2.7,0l4.4,4.4l8.2-8.2
			c0.7-0.7,2-0.7,2.7,0c0.7,0.7,0.7,2,0,2.7l-9.6,9.6C27.5,92.8,27,93,26.5,93z"/>
		<g class="st5">
			<path class="st3" d="M59.1,85.4H43.7c-1.1,0-1.9-0.9-1.9-1.9l0,0c0-1.1,0.9-1.9,1.9-1.9h15.3c1.1,0,1.9,0.9,1.9,1.9l0,0
				C61,84.5,60.1,85.4,59.1,85.4z"/>
		</g>
		<g class="st5">
			<path class="st2" d="M68.6,93H43.7c-1.1,0-1.9-0.9-1.9-1.9l0,0c0-1.1,0.9-1.9,1.9-1.9h24.9c1.1,0,1.9,0.9,1.9,1.9l0,0
				C70.5,92.2,69.7,93,68.6,93z"/>
		</g>
		<path class="st4" d="M26.5,70c-0.5,0-1-0.2-1.4-0.6l-5.7-5.7c-0.7-0.7-0.7-2,0-2.7s2-0.7,2.7,0l4.4,4.4l8.2-8.2
			c0.7-0.7,2-0.7,2.7,0s0.7,2,0,2.7l-9.6,9.6C27.5,69.8,27,70,26.5,70z"/>
		<g class="st5">
			<path class="st3" d="M59.1,62.4H43.7c-1.1,0-1.9-0.9-1.9-1.9l0,0c0-1.1,0.9-1.9,1.9-1.9h15.3c1.1,0,1.9,0.9,1.9,1.9l0,0
				C61,61.5,60.1,62.4,59.1,62.4z"/>
		</g>
		<g class="st5">
			<path class="st2" d="M68.6,70H43.7c-1.1,0-1.9-0.9-1.9-1.9l0,0c0-1.1,0.9-1.9,1.9-1.9h24.9c1.1,0,1.9,0.9,1.9,1.9l0,0
				C70.5,69.2,69.7,70,68.6,70z"/>
		</g>
	</g>
	<g>
		
			<linearGradient id="SVGID_1_" gradientUnits="userSpaceOnUse" x1="41.4979" y1="163.7659" x2="25.9012" y2="148.1691" gradientTransform="matrix(1.0667 0 0 1.0667 12.3023 -85.2139)">
			<stop  offset="0" style="stop-color:#FCCF97"/>
			<stop  offset="5.400000e-02" style="stop-color:#FCD19C"/>
			<stop  offset="1" style="stop-color:#E9EFEE"/>
		</linearGradient>
		<path class="st6" d="M55.2,76.1L50.1,71l-1.7,1.7c-0.5,0.5-0.9,1.1-1.1,1.8L43,87.4c-0.2,0.5,0.3,1,0.8,0.8L56.7,84
			c0.7-0.2,1.3-0.6,1.8-1.1l1.7-1.7L55.2,76.1z"/>
		
			<linearGradient id="SVGID_2_" gradientUnits="userSpaceOnUse" x1="36.7134" y1="158.6441" x2="37.5232" y2="160.9114" gradientTransform="matrix(1.0667 0 0 1.0667 12.3023 -85.2139)">
			<stop  offset="0" style="stop-color:#C69C6C;stop-opacity:0"/>
			<stop  offset="1" style="stop-color:#754D24"/>
		</linearGradient>
		<path class="st7" d="M58.6,80.6c-0.5,0.5-1.1,0.9-1.8,1.1L43.8,86c-0.1,0-0.2,0-0.4,0L43,87.4c-0.2,0.5,0.3,1,0.8,0.8L56.7,84
			c0.7-0.2,1.3-0.6,1.8-1.1l1.7-1.7L59.1,80L58.6,80.6z"/>
		
			<linearGradient id="SVGID_3_" gradientUnits="userSpaceOnUse" x1="58.0605" y1="145.8895" x2="49.6098" y2="137.4387" gradientTransform="matrix(1.0667 0 0 1.0667 12.3023 -85.2139)">
			<stop  offset="0" style="stop-color:#F3901D"/>
			<stop  offset="1" style="stop-color:#FCC10C"/>
		</linearGradient>
		<path class="st8" d="M58.2,83.2c0.5-0.5,0.7-1.1,0.7-1.7c0-0.6-0.2-1.2-0.7-1.7l0,0c-0.6-0.6-1.3-0.8-2-0.7c-0.2,0-0.4,0-0.5-0.2
			c-0.1-0.1-0.2-0.3-0.2-0.5c0,0,0,0,0,0c0,0,0-0.1,0-0.1c0,0,0,0,0-0.1c0-0.1,0-0.1,0-0.2c0-0.6-0.2-1.2-0.7-1.7l0,0
			c0,0-0.1-0.1-0.1-0.1c0,0-0.1,0-0.1-0.1c0,0-0.1-0.1-0.1-0.1c0,0,0,0-0.1,0c0,0-0.1,0-0.1-0.1c0,0-0.1,0-0.1-0.1
			c0,0-0.1,0-0.1-0.1c0,0-0.1,0-0.1,0c0,0-0.1,0-0.1,0c-0.1,0-0.2-0.1-0.3-0.1c0,0-0.1,0-0.1,0c0,0-0.1,0-0.1,0c0,0-0.1,0-0.1,0
			c0,0-0.1,0-0.1,0c-0.1,0-0.2,0-0.3,0c-0.2,0-0.4,0-0.5-0.2c-0.1-0.1-0.2-0.3-0.2-0.5c0-0.1,0-0.2,0-0.4c0-0.6-0.2-1.2-0.7-1.7l0,0
			c-0.9-0.9-2.4-0.9-3.3,0l28.8-28.8L87,54.4L58.2,83.2z"/>
		
			<linearGradient id="SVGID_4_" gradientUnits="userSpaceOnUse" x1="50.5156" y1="137.5745" x2="53.7333" y2="140.7922" gradientTransform="matrix(1.0667 0 0 1.0667 12.3023 -85.2139)">
			<stop  offset="0" style="stop-color:#FCCF97"/>
			<stop  offset="0.427" style="stop-color:#FDC956"/>
			<stop  offset="1" style="stop-color:#FCC10C"/>
		</linearGradient>
		<path class="st9" d="M83.6,51l-28,28c-0.1-0.1-0.2-0.3-0.2-0.5c0,0,0,0,0,0c0,0,0-0.1,0-0.1c0,0,0,0,0-0.1c0-0.1,0-0.1,0-0.2
			c0-0.6-0.2-1.2-0.7-1.7l0,0c0,0-0.1-0.1-0.1-0.1c0,0-0.1,0-0.1-0.1c0,0-0.1-0.1-0.1-0.1c0,0,0,0-0.1,0c0,0-0.1,0-0.1-0.1
			c0,0-0.1,0-0.1-0.1c0,0-0.1,0-0.1-0.1c0,0-0.1,0-0.1,0c0,0-0.1,0-0.1,0c-0.1,0-0.2-0.1-0.3-0.1c0,0-0.1,0-0.1,0c0,0-0.1,0-0.1,0
			c0,0-0.1,0-0.1,0c0,0-0.1,0-0.1,0c-0.1,0-0.2,0-0.3,0c-0.2,0-0.4,0-0.5-0.2l28-28L83.6,51z"/>
		
			<linearGradient id="SVGID_5_" gradientUnits="userSpaceOnUse" x1="48.0724" y1="135.9011" x2="50.1595" y2="137.9882" gradientTransform="matrix(1.0667 0 0 1.0667 12.3023 -85.2139)">
			<stop  offset="0" style="stop-color:#FCCF97"/>
			<stop  offset="0.427" style="stop-color:#FDC956"/>
			<stop  offset="1" style="stop-color:#FCC10C"/>
		</linearGradient>
		<path class="st10" d="M76.8,44.2L48.1,73c0.9-0.9,2.4-0.9,3.3,0l0,0c0.5,0.5,0.7,1.1,0.7,1.7c0,0.1,0,0.2,0,0.4
			c0,0.2,0,0.4,0.2,0.5l28-28L76.8,44.2z"/>
		
			<linearGradient id="SVGID_6_" gradientUnits="userSpaceOnUse" x1="72.8157" y1="118.5787" x2="69.2791" y2="122.1161" gradientTransform="matrix(1.0667 0 0 1.0667 12.3023 -85.2139)">
			<stop  offset="0" style="stop-color:#D63516"/>
			<stop  offset="0.366" style="stop-color:#D03217"/>
			<stop  offset="0.899" style="stop-color:#BC2A18"/>
			<stop  offset="1" style="stop-color:#B72718"/>
		</linearGradient>
		<path class="st11" d="M90.5,50.9L80.3,40.7l3.2-3.2c1.5-1.5,3.8-1.5,5.3,0l4.9,4.9c1.5,1.5,1.5,3.8,0,5.3L90.5,50.9z"/>
		
			<linearGradient id="SVGID_7_" gradientUnits="userSpaceOnUse" x1="75.8798" y1="124.734" x2="74.0204" y2="122.8756" gradientTransform="matrix(1.0667 0 0 1.0667 12.3023 -85.2139)">
			<stop  offset="0" style="stop-color:#961914"/>
			<stop  offset="0.331" style="stop-color:#9C1915;stop-opacity:0.669"/>
			<stop  offset="0.812" style="stop-color:#AF1E17;stop-opacity:0.188"/>
			<stop  offset="1" style="stop-color:#B72718;stop-opacity:0"/>
		</linearGradient>
		<path class="st12" d="M87.1,47.6l3.4,3.4l3.2-3.2c1.5-1.5,1.5-3.8,0-5.3L93,41.7L87.1,47.6z"/>
		
			<linearGradient id="SVGID_8_" gradientUnits="userSpaceOnUse" x1="68.9204" y1="122.476" x2="67.6289" y2="123.7665" gradientTransform="matrix(1.0667 0 0 1.0667 12.3023 -85.2139)">
			<stop  offset="0" style="stop-color:#FFFFFF"/>
			<stop  offset="1" style="stop-color:#E9EFEE"/>
		</linearGradient>
		<polygon class="st13" points="91,50.5 80.8,40.3 76.8,44.2 87,54.4 		"/>
		
			<linearGradient id="SVGID_9_" gradientUnits="userSpaceOnUse" x1="66.2551" y1="125.1399" x2="65.414" y2="125.981" gradientTransform="matrix(1.0667 0 0 1.0667 12.3023 -85.2139)">
			<stop  offset="0" style="stop-color:#FFFFFF"/>
			<stop  offset="1" style="stop-color:#E9EFEE"/>
		</linearGradient>
		<polygon class="st14" points="88.3,53.1 78.1,42.9 76.8,44.2 87,54.4 		"/>
		
			<linearGradient id="SVGID_10_" gradientUnits="userSpaceOnUse" x1="63.3947" y1="128.0003" x2="65.5688" y2="125.8261" gradientTransform="matrix(1.0667 0 0 1.0667 12.3023 -85.2139)">
			<stop  offset="0" style="stop-color:#FCC10C;stop-opacity:0"/>
			<stop  offset="0.203" style="stop-color:#FBBA10;stop-opacity:0.203"/>
			<stop  offset="0.499" style="stop-color:#F7A516;stop-opacity:0.499"/>
			<stop  offset="0.852" style="stop-color:#F18619;stop-opacity:0.852"/>
			<stop  offset="1" style="stop-color:#EF771C"/>
		</linearGradient>
		<polygon class="st15" points="85.3,56.1 75.2,45.9 76.8,44.2 87,54.4 		"/>
		
			<linearGradient id="SVGID_11_" gradientUnits="userSpaceOnUse" x1="67.6487" y1="123.7458" x2="66.5413" y2="124.8542" gradientTransform="matrix(1.0667 0 0 1.0667 12.3023 -85.2139)">
			<stop  offset="0" style="stop-color:#FFFFFF"/>
			<stop  offset="1" style="stop-color:#E9EFEE"/>
		</linearGradient>
		<polygon class="st16" points="89.6,51.8 79.5,41.6 78.1,42.9 88.3,53.1 		"/>
		
			<linearGradient id="SVGID_12_" gradientUnits="userSpaceOnUse" x1="31.071" y1="160.324" x2="29.0427" y2="162.3514" gradientTransform="matrix(1.0667 0 0 1.0667 12.3023 -85.2139)">
			<stop  offset="0" style="stop-color:#373F3E"/>
			<stop  offset="1" style="stop-color:#313134"/>
		</linearGradient>
		<path class="st17" d="M44.1,84.2L43,87.4c-0.2,0.5,0.3,1,0.8,0.8l3.3-1.1L44.1,84.2z"/>
		
			<linearGradient id="SVGID_13_" gradientUnits="userSpaceOnUse" x1="69.9438" y1="127.104" x2="72.4409" y2="129.6021" gradientTransform="matrix(1.0667 0 0 1.0667 12.3023 -85.2139)">
			<stop  offset="0" style="stop-color:#C3CECF;stop-opacity:0"/>
			<stop  offset="0.179" style="stop-color:#AFBDBC;stop-opacity:0.179"/>
			<stop  offset="1" style="stop-color:#5C6B6A"/>
		</linearGradient>
		<polygon class="st18" points="91,50.5 87.6,47.1 83.6,51 87,54.4 		"/>
		
			<linearGradient id="SVGID_14_" gradientUnits="userSpaceOnUse" x1="64.1313" y1="121.2917" x2="66.6283" y2="123.7887" gradientTransform="matrix(1.0667 0 0 1.0667 12.3023 -85.2139)">
			<stop  offset="0" style="stop-color:#C3CECF;stop-opacity:0"/>
			<stop  offset="0.55" style="stop-color:#C3CECF"/>
			<stop  offset="1" style="stop-color:#C3CECF;stop-opacity:0"/>
		</linearGradient>
		<polygon class="st19" points="85.8,45.3 82.4,41.9 78.5,45.9 81.9,49.3 		"/>
	</g>
</g>
</svg>
