<?xml version="1.0" encoding="utf-8"?>
<!-- Generator: Adobe Illustrator 23.0.6, SVG Export Plug-In . SVG Version: 6.00 Build 0)  -->
<svg version="1.1" id="Calque_1" xmlns="http://www.w3.org/2000/svg" xmlns:xlink="http://www.w3.org/1999/xlink" x="0px" y="0px"
	 viewBox="0 0 1366 99" style="enable-background:new 0 0 1366 99;" xml:space="preserve">
<style type="text/css">
	.st0{fill:#9CBDE4;}
	.st1{clip-path:url(#SVGID_2_);}
	.st2{fill:#CFEBFF;}
</style>
<g>
	<g>
		<defs>
			<rect id="SVGID_1_" x="-916.9" y="-9" width="2343" height="117"/>
		</defs>
		<clipPath id="SVGID_2_">
			<use xlink:href="#SVGID_1_"  style="overflow:visible;"/>
		</clipPath>
		<g class="st1">
			<path class="st2" d="M-613.6,16.1c86.2-27.3,198.1-25.6,296.1-11.3c98,14.2,188,39.5,283.5,57.5c80.1,15.1,164.1,25,249.1,29.4
				c121.7,6.2,257.6-1.4,342.4-45.6c94.4-49.2,87.2-137.9-14.9-183c-52-23-120-34.2-179.3-52.2s-114.2-47.7-109.2-82.3
				c4.7-32,59.1-56.6,115.3-72.1c43.5-11.9,97.1-24.9,102.3-49.6c5.1-23.9-40-42.6-83-53.3c-140.3-34.7-313.2-34.4-453,0.9
				c-49.9,12.6-95.7,29.3-148,39.1c-137.3,25.7-288.6-0.2-434-9.7c-123-8-249.2-3.9-369.1,12.2c-72,9.6-144.3,24.4-194.9,51.8
				c-36.5,19.8-59.2,44.8-80.5,69.5c-22.7,26.3-44.6,52.9-65.6,79.6c-12.6,16-25,32.4-28.2,49.5c-5.9,31.1,18.9,61.8,52.8,88.1
				c80.4,62.3,215.6,106.1,362.1,117.2s301.4-10.6,415-58.2"/>
			<path class="st2" d="M-673.2,16.1C-587-11.2-475.1-9.5-377.1,4.8c98,14.2,188,39.5,283.5,57.5c80.1,15.1,164.1,25,249.1,29.4
				c121.7,6.2,257.6-1.4,342.4-45.6c94.4-49.2,87.2-137.9-14.9-183c-52-23-120-34.2-179.3-52.2s-114.2-47.7-109.2-82.3
				c4.7-32,59.1-56.6,115.3-72.1c43.5-11.9,97.1-24.9,102.3-49.6c5.1-23.9-40-42.6-83-53.3c-140.3-34.7-313.2-34.4-453,0.9
				c-49.9,12.6-95.7,29.3-148,39.1c-137.3,25.7-288.6-0.2-434-9.7c-123-8-249.2-3.9-369.1,12.2c-72,9.6-144.3,24.4-194.9,51.8
				c-36.5,19.8-59.2,44.8-80.5,69.5c-22.7,26.3-44.6,52.9-65.6,79.6c-12.6,16-25,32.4-28.2,49.5c-5.9,31.1,18.9,61.8,52.8,88.1
				c80.4,62.3,215.6,106.1,362.1,117.2s301.4-10.6,415-58.2"/>
			<path class="st2" d="M1440.9,27.4c42.9-21.9,53.8-49.6,54.4-76.2c0.4-18.7-5.5-39.1-41.4-52.9c-47.3-18.2-138.2-21.8-161.7-45
				c-20.8-20.6,27.6-41.4,74.1-56s99.9-32.4,91.2-54.1c-5.5-13.9-35.7-24.7-65.8-33.9c-57.2-17.4-121.6-32.6-194.1-40
				c-131.6-13.4-273.8,0.5-397.1,21.5c-75.9,12.9-164.1,28.8-239.5,15.5c-19.9-3.5-36.8-8.8-55.2-13.2
				c-53.4-12.7-118.5-17.4-181.9-21.4c-93-5.8-190.7-10.7-280.2-0.2c-89.6,10.5-167,41.4-153.3,74.3c12.9,31,95.2,51.2,160.8,72.3
				c23.1,7.5,46.7,17.4,40.9,28.2c-4.6,8.6-26.1,14.6-45.3,20.2C-54.3-104-128.5-63.4-162.7-18.8c-16.1,21-22,45.3,14,63
				c29,14.3,78.8,21.2,126.1,26.8c87.9,10.8,177.8,19.6,270.2,22s187.7-2.1,269.7-17.3c39.3-7.3,74.9-16.8,114.6-23.8
				C744.6,32,877.4,34.7,1003.1,37.8c44.9,1.1,91.9,3.1,130.8,11.6c33.6,7.4,52.8,12.6,94.4,13.5
				C1309.9,64.5,1394.2,51.2,1440.9,27.4z"/>
		</g>
	</g>
</g>
</svg>
