<?xml version="1.0" encoding="utf-8"?>
<!-- Generator: Adobe Illustrator 23.0.6, SVG Export Plug-In . SVG Version: 6.00 Build 0)  -->
<svg version="1.1" id="Calque_1" xmlns="http://www.w3.org/2000/svg" xmlns:xlink="http://www.w3.org/1999/xlink" x="0px" y="0px"
	 viewBox="0 0 1366 82.4" style="enable-background:new 0 0 1366 82.4;" xml:space="preserve">
<style type="text/css">
	.st0{clip-path:url(#SVGID_2_);fill:#CFEBFF;}
</style>
<g>
	<g>
		<defs>
			<path id="SVGID_1_" d="M1766.5,386.7c-3.1-8.6-11-17-11.1-25.7c-0.2-28.5,79-46,91.1-74.1c7.2-16.6-11.5-33.6-37.8-46
				c-26.3-12.4-59.9-21.3-90.7-31.5c-85.5-28.3-151.4-66.3-190.4-109.9c-7.8-8.8-14.5-17.8-16.7-27.2c-1.6-6.8-0.9-13.8-4.5-20.4
				c-14.5-26.4-87.7-36.6-149.7-38.3c-99.8-2.7-199.6,4.6-292,21.3c-20.7,3.8-42.2,8.1-64.5,7c-17.8-0.9-33.8-5.1-49.4-8.9
				c-46-11.3-95.1-20.1-146-26.2c-28.2-3.4-57.8-6-86.6-3.7c-86.5,6.7-132.5,52.5-217.5,62.5c-58.7,6.9-119.8-5.1-172.5-18.5
				s-107-28.6-167.9-28.7C79.2,18.4,12.5,45.3-42.5,71.3c-11.6,5.5-23.3,11.2-28.8,18.2c-11.1,14.2,6.9,30.3,33.7,39.9
				s60.4,14.3,92.6,19.9c54.6,9.3,106.7,21.2,155.4,35.4c31.5,9.2,62,19.6,83.6,33.2c18.5,11.8,29.6,25.3,42.1,38.5
				c27.2,28.9,65.8,58.2,130.1,71.7c52.5,11.1,113.6,9.8,171.9,10.1c85.9,0.4,174,4.9,250.1,22.3c64.3,14.6,117.1,37.8,182.5,51.6
				c103.9,22,222.6,17.7,334.4,16.8c53.7-0.4,117.7-2.7,169.3,4.9c38.2,5.7,57.8,17.3,101.8,12.6
				C1736,440.2,1776.1,413.4,1766.5,386.7z"/>
		</defs>
		<clipPath id="SVGID_2_">
			<use xlink:href="#SVGID_1_"  style="overflow:visible;"/>
		</clipPath>
		<rect x="-56.7" y="-36.6" class="st0" width="1535.9" height="123"/>
	</g>
</g>
</svg>
