<?xml version="1.0" encoding="utf-8"?>
<!-- Generator: Adobe Illustrator 23.0.6, SVG Export Plug-In . SVG Version: 6.00 Build 0)  -->
<svg version="1.1" id="Calque_1" xmlns="http://www.w3.org/2000/svg" xmlns:xlink="http://www.w3.org/1999/xlink" x="0px" y="0px"
	 viewBox="0 0 1366 95.5" style="enable-background:new 0 0 1366 95.5;" xml:space="preserve">
<style type="text/css">
	.st0{clip-path:url(#SVGID_2_);}
	.st1{fill:#E0DAF4;}
</style>
<g>
	<g>
		<defs>
			<rect id="SVGID_1_" x="-60" y="-3.7" width="1985" height="112"/>
		</defs>
		<clipPath id="SVGID_2_">
			<use xlink:href="#SVGID_1_"  style="overflow:visible;"/>
		</clipPath>
		<g class="st0">
			<path class="st1" d="M913.2-324.3c-105.6,16.7-208.3,4.7-286.7-17.3s-139.2-53.3-211.7-78.5c-60.9-21.1-130.1-37.9-205.5-49.8
				c-107.8-17-241.7-22.7-361.4,9.3c-133.3,35.7-208.1,116.7-154.3,167.1c27.4,25.6,80.5,42.2,119.4,64s62.8,53.8,26.2,84.7
				C-194.6-116.3-268-99-334.7-90.3c-51.6,6.7-113.5,13.5-141.1,35.4c-26.7,21.2-1.9,42.3,28.5,56c99,44.5,260.7,60.3,423.6,41.4
				c58.1-6.7,116.3-17.6,174.1-21.6c151.8-10.5,269.2,27,396.2,49.2c107.4,18.6,229,26.6,355.6,23.3c76-2,157-8.6,229.4-28.7
				c52.2-14.5,96.4-35,139-55.4c45.4-21.7,90.2-43.7,134.4-65.9c26.5-13.3,53.1-27,71.9-42.2c34.1-27.6,39.2-57.7,31.7-84.6
				c-17.6-64-103.6-116.3-230-140c-126.5-23.7-291.1-18.5-440.8,14"/>
			<path class="st1" d="M1912-494c-75.2-11.7-168.7-11.4-258-7.7c-62.9,2.6-131,7.7-175.9,22.2c-59.1,19.1-67.4,51.3-144.5,62.9
				c-68.5,10.3-140.2-3.5-191.1-17.5s-113-30-185.5-23.7c-46.3,4-81.6,16.1-111,27.9c-56.1,22.5-104.5,47.1-126.4,73.4
				c-39.6,47.8,12.9,95.2,88.5,134.9c46.6,24.5,103.6,52.8,62,81c-11,7.4-28.1,14.1-42.1,21.1c-40.5,20.4-53.5,43.8-64.3,66.4
				c-15.8,33.2-28.2,67.9,10.9,97.5c39.1,29.6,145.8,52,255.7,42.4c103.5-9.1,167.9-40.7,236.3-66.6c24.1-9.1,56.4-18.8,93.1-18.4
				c29.1,0.3,50.1,6.9,69.6,12.8c103.1,30.8,242.7,50.6,393.9,55.9c71.3,2.5,153,1,211.1-14.2c46.9-12.2,67.9-30.5,85-47.8
				c31.6-32.1,57.7-64.7,62-97.2c4.2-32.5-15-65-69.3-91.2c-26-12.6-59.7-23.6-84.8-36.4c-71.4-36.3-67.9-82.9-62.5-127
				c1.9-15.8,6.7-32.4,33.7-47.2c23.3-12.8,40.3-20.2,41.3-34.8C2041.9-453.9,1993.8-481.3,1912-494z"/>
		</g>
	</g>
</g>
</svg>
