<svg id="b7479f35-b76c-414d-9259-8a40bcbac55e" xmlns="http://www.w3.org/2000/svg" xmlns:xlink="http://www.w3.org/1999/xlink" viewBox="0 0 963.16 818.07"><defs><style>.cls-1{fill:#f5f5f5;}.cls-2{fill:url(#Dégradé_sans_nom_5);}.cls-3{fill:#ff5252;}.cls-4{fill:#ff0;}.cls-5{fill:#69f0ae;}.cls-6{fill:url(#Dégradé_sans_nom_5-2);}.cls-10,.cls-7{fill:#f70;}.cls-8{fill:url(#Dégradé_sans_nom_5-3);}.cls-9{fill:#ff9800;}.cls-10{opacity:0.4;}.cls-10,.cls-21{isolation:isolate;}.cls-11{fill:url(#Dégradé_sans_nom_5-4);}.cls-12{fill:url(#Dégradé_sans_nom_5-5);}.cls-13{fill:url(#Dégradé_sans_nom_5-6);}.cls-14{fill:url(#Dégradé_sans_nom_5-7);}.cls-15{fill:#fff;}.cls-16{fill:url(#Dégradé_sans_nom_5-8);}.cls-17{fill:url(#Dégradé_sans_nom_5-9);}.cls-18{fill:url(#Dégradé_sans_nom_5-10);}.cls-19{fill:url(#Dégradé_sans_nom_5-11);}.cls-20{fill:url(#Dégradé_sans_nom_5-12);}.cls-21{opacity:0.2;}</style><linearGradient id="Dégradé_sans_nom_5" x1="782.69" y1="475.08" x2="782.69" y2="851.08" gradientTransform="matrix(0, 1, 1, 0, -17.43, -380.46)" gradientUnits="userSpaceOnUse"><stop offset="0" stop-color="gray" stop-opacity="0.25"/><stop offset="0.54" stop-color="gray" stop-opacity="0.12"/><stop offset="1" stop-color="gray" stop-opacity="0.1"/></linearGradient><linearGradient id="Dégradé_sans_nom_5-2" x1="777.73" y1="669.7" x2="777.73" y2="793.93" gradientTransform="matrix(0, 1, 1, 0, -80.75, -444.2)" xlink:href="#Dégradé_sans_nom_5"/><linearGradient id="Dégradé_sans_nom_5-3" x1="652.68" y1="597.65" x2="652.68" y2="621.67" gradientTransform="matrix(0, 1, 1, 0, -100.58, -217.17)" xlink:href="#Dégradé_sans_nom_5"/><linearGradient id="Dégradé_sans_nom_5-4" x1="378.14" y1="-560.64" x2="378.14" y2="-190.64" gradientTransform="matrix(1, 0, 0, -1, -62.47, 0.6)" xlink:href="#Dégradé_sans_nom_5"/><linearGradient id="Dégradé_sans_nom_5-5" x1="372.85" y1="-369.12" x2="372.85" y2="-246.87" gradientTransform="matrix(1, 0, 0, -1, -77.1, 3.39)" xlink:href="#Dégradé_sans_nom_5"/><linearGradient id="Dégradé_sans_nom_5-6" x1="239.71" y1="-440.01" x2="239.71" y2="-416.38" gradientTransform="matrix(1, 0, 0, -1, -47.66, 29.54)" xlink:href="#Dégradé_sans_nom_5"/><linearGradient id="Dégradé_sans_nom_5-7" x1="475.67" y1="214.03" x2="475.67" y2="668.03" gradientTransform="matrix(1, 0, 0, -1, 0, 817.28)" xlink:href="#Dégradé_sans_nom_5"/><linearGradient id="Dégradé_sans_nom_5-8" x1="469.67" y1="449.03" x2="469.67" y2="599.03" gradientTransform="matrix(1, 0, 0, -1, 0, 817.28)" xlink:href="#Dégradé_sans_nom_5"/><linearGradient id="Dégradé_sans_nom_5-9" x1="318.67" y1="362.03" x2="318.67" y2="391.03" gradientTransform="matrix(1, 0, 0, -1, 0, 817.28)" xlink:href="#Dégradé_sans_nom_5"/><linearGradient id="Dégradé_sans_nom_5-10" x1="477.67" y1="161.03" x2="477.67" y2="314.03" gradientTransform="matrix(1, 0, 0, -1, 0, 817.28)" xlink:href="#Dégradé_sans_nom_5"/><linearGradient id="Dégradé_sans_nom_5-11" x1="631.84" y1="113.77" x2="631.84" y2="213.77" gradientTransform="matrix(1, 0, 0, -1, -152.16, 626.02)" xlink:href="#Dégradé_sans_nom_5"/><linearGradient id="Dégradé_sans_nom_5-12" x1="631.84" y1="17.78" x2="631.84" y2="75.83" gradientTransform="matrix(1, 0, 0, -1, -152.16, 626.02)" xlink:href="#Dégradé_sans_nom_5"/></defs><title>content</title><rect class="cls-1" x="660.66" y="-2.59" width="19.88" height="470.41" transform="translate(339.88 860.66) rotate(-81.36)"/><rect class="cls-2" x="457.66" y="157.09" width="376" height="490.29" transform="translate(150.99 980.14) rotate(-81.36)"/><rect class="cls-1" x="471.9" y="176.73" width="342.87" height="470.41" transform="translate(139.44 986.09) rotate(-81.36)"/><circle class="cls-3" cx="449.42" cy="199.01" r="4.86" transform="translate(185.15 613.43) rotate(-81.36)"/><circle class="cls-4" cx="462.63" cy="201.01" r="4.86" transform="translate(194.4 628.19) rotate(-81.36)"/><circle class="cls-5" cx="475.84" cy="203.02" r="4.86"/><rect class="cls-6" x="588.96" y="122.34" width="124.23" height="422.38" transform="translate(223.52 927.11) rotate(-81.36)"/><rect class="cls-7" x="593.89" y="127.37" width="115.12" height="413.27" transform="translate(223.37 927.88) rotate(-81.36)"/><rect class="cls-8" x="497.08" y="421.43" width="24.02" height="28.16" transform="translate(2.05 873.39) rotate(-81.36)"/><rect class="cls-7" x="499.64" y="421.91" width="19.88" height="26.5" transform="translate(2.81 873.59) rotate(-81.36)"/><rect class="cls-3" x="494.53" y="455.48" width="19.88" height="26.5" transform="translate(-34.73 897.06) rotate(-81.36)"/><rect class="cls-9" x="489.43" y="489.06" width="19.88" height="26.5" transform="translate(-72.25 920.55) rotate(-81.36)"/><rect class="cls-10" x="665.9" y="352.96" width="11.59" height="213.67" transform="translate(116.22 1054.8) rotate(-81.36)"/><rect class="cls-10" x="660.8" y="386.53" width="11.59" height="213.67" transform="translate(78.69 1078.28) rotate(-81.36)"/><rect class="cls-10" x="655.7" y="420.1" width="11.59" height="213.67" transform="translate(41.17 1101.77) rotate(-81.36)"/><rect class="cls-1" x="27.59" y="202.01" width="500.84" height="19.56" transform="translate(-39.51 65.75) rotate(-12.6)"/><rect class="cls-11" x="54.67" y="191.24" width="522" height="370" transform="translate(-74.47 77.92) rotate(-12.6)"/><rect class="cls-1" x="66.52" y="217.28" width="500.84" height="337.4" transform="translate(-76.57 78.43) rotate(-12.6)"/><ellipse class="cls-3" cx="45.55" cy="263.75" rx="5.17" ry="4.78" transform="translate(-56.44 16.29) rotate(-12.6)"/><ellipse class="cls-4" cx="59.44" cy="260.65" rx="5.17" ry="4.78" transform="translate(-55.43 19.24) rotate(-12.6)"/><ellipse class="cls-5" cx="73.32" cy="257.55" rx="5.17" ry="4.78" transform="translate(-54.42 22.2) rotate(-12.6)"/><rect class="cls-12" x="70.9" y="250.26" width="449.7" height="122.25" transform="translate(-60.8 72.01) rotate(-12.6)"/><rect class="cls-7" x="76.27" y="255.04" width="440" height="113.28" transform="translate(-60.86 72.14) rotate(-12.6)"/><rect class="cls-13" x="177.05" y="445.92" width="29.98" height="23.63" transform="matrix(0.98, -0.22, 0.22, 0.98, -95.23, 52.92)"/><rect class="cls-7" x="180.47" y="448.9" width="28.34" height="19.65" transform="translate(-95.75 53.77) rotate(-12.65)"/><rect class="cls-3" x="185.56" y="480.07" width="28.22" height="19.56" transform="translate(-102.05 55.35) rotate(-12.6)"/><rect class="cls-9" x="195.24" y="514.36" width="28.34" height="19.65" transform="translate(-109.73 58.6) rotate(-12.65)"/><rect class="cls-10" x="249.01" y="413.45" width="227.49" height="11.41" transform="translate(-82.7 89.23) rotate(-12.6)"/><rect class="cls-10" x="256.3" y="446.07" width="227.49" height="11.41" transform="translate(-89.64 91.6) rotate(-12.6)"/><rect class="cls-10" x="263.59" y="478.67" width="227.49" height="11.41" transform="translate(-96.58 93.98) rotate(-12.6)"/><rect class="cls-1" x="190.67" y="157.24" width="568" height="24"/><rect class="cls-14" x="179.67" y="149.24" width="592" height="454"/><rect class="cls-15" x="190.67" y="181.24" width="568" height="414"/><circle class="cls-3" cx="204.54" cy="169.24" r="5.87"/><circle class="cls-4" cx="220.67" cy="169.24" r="5.87"/><circle class="cls-5" cx="236.8" cy="169.24" r="5.87"/><rect class="cls-16" x="214.67" y="218.24" width="510" height="150"/><rect class="cls-7" x="220.67" y="224.24" width="499" height="139"/><rect class="cls-17" x="301.67" y="426.24" width="34" height="29"/><rect class="cls-7" x="303.17" y="428.24" width="32" height="24"/><rect class="cls-3" x="303.17" y="469.24" width="32" height="24"/><rect class="cls-9" x="303.17" y="510.24" width="32" height="24"/><rect class="cls-10" x="388.17" y="433.24" width="258" height="14"/><rect class="cls-10" x="388.17" y="474.24" width="258" height="14"/><rect class="cls-10" x="388.17" y="515.24" width="258" height="14"/><rect class="cls-18" x="384.67" y="503.24" width="186" height="153"/><path class="cls-19" d="M427.59,478.91a52.09,52.09,0,0,1,104.17,0v33.33h14.58V478.91A66.67,66.67,0,1,0,413,477.28c0,.54,0,1.09,0,1.63v33.33h14.58Z"/><path class="cls-15" d="M429.67,478.24a50,50,0,1,1,100,0v32h14v-32a64,64,0,1,0-128,0v32h14Z"/><rect class="cls-7" x="392.67" y="508.24" width="174" height="142"/><rect class="cls-15" x="392.67" y="508.24" width="174" height="142"/><rect class="cls-7" x="392.67" y="536.24" width="174" height="86"/><path class="cls-20" d="M492.44,563a12.76,12.76,0,1,0-22,8.74V599A9.28,9.28,0,1,0,489,599V571.74A12.7,12.7,0,0,0,492.44,563Z"/><path class="cls-21" d="M490.67,565.24a11,11,0,1,0-19,7.53v23.47a8,8,0,0,0,16,0V572.77A11,11,0,0,0,490.67,565.24Z"/></svg>