<?xml version="1.0" encoding="utf-8"?>
<!-- Generator: Adobe Illustrator 23.0.6, SVG Export Plug-In . SVG Version: 6.00 Build 0)  -->
<svg version="1.1" id="b7479f35-b76c-414d-9259-8a40bcbac55e"
	 xmlns="http://www.w3.org/2000/svg" xmlns:xlink="http://www.w3.org/1999/xlink" x="0px" y="0px" viewBox="0 0 963.2 818.1"
	 style="enable-background:new 0 0 963.2 818.1;" xml:space="preserve">
<style type="text/css">
	.st0{fill:#F2F2F2;}
	.st1{fill:#2F2E41;}
	.st2{fill:#3F3D56;}
	.st3{opacity:0.1;enable-background:new    ;}
	.st4{fill:#A0616A;}
	.st5{fill:#FF7700;}
	.st6{fill:#FFFFFF;}
	.st7{fill:#57B894;}
</style>
<title>content</title>
<rect x="169.1" y="474.5" transform="matrix(0.5592 -0.829 0.829 0.5592 -369.9425 458.9171)" class="st0" width="155" height="205.6"/>
<path class="st1" d="M111.9,681.1l-1.8-0.9c22.9-44.3,10.7-101.9-3.7-142.4c-9.7-27.2-22.1-53.4-37-78.2l1.7-1.1
	c15,24.9,27.4,51.2,37.2,78.6C122.8,578,135.1,636.1,111.9,681.1z"/>
<rect x="87.6" y="493.4" transform="matrix(0.1798 -0.9837 0.9837 0.1798 -385.1108 526.8922)" class="st1" width="71.7" height="2"/>
<rect x="74.7" y="506.6" transform="matrix(0.7321 -0.6812 0.6812 0.7321 -358.0949 200.41)" class="st1" width="2" height="97.7"/>
<rect x="118" y="620.5" transform="matrix(0.5858 -0.8105 0.8105 0.5858 -442.8826 376.3558)" class="st1" width="57.6" height="2"/>
<circle class="st2" cx="134.8" cy="430.3" r="9.9"/>
<circle class="st2" cx="26.6" cy="506.8" r="9.9"/>
<circle class="st2" cx="70.3" cy="516.7" r="9.9"/>
<circle class="st2" cx="50.4" cy="555.4" r="9.9"/>
<circle class="st2" cx="174.6" cy="580.3" r="9.9"/>
<circle class="st2" cx="141.8" cy="591.2" r="9.9"/>
<circle class="st2" cx="164.6" cy="623" r="9.9"/>
<circle class="st2" cx="60.3" cy="442.2" r="9.9"/>
<path class="st2" d="M510.3,691.5c21.1,22.6-1.8,101.6-254.3,42.7C119.2,702.4,1.7,703,1.7,691.5c0-11.5,113.9,1,254.3,1
	S502.5,683.2,510.3,691.5z"/>
<path class="st3" d="M510.3,691.5c21.1,22.6-1.8,101.6-254.3,42.7C119.2,702.4,1.7,703,1.7,691.5c0-11.5,113.9,1,254.3,1
	S502.5,683.2,510.3,691.5z"/>
<path class="st2" d="M510.3,691.5c21.1,22.6-1.8,79.7-254.3,20.9C119.2,680.5,1.7,703,1.7,691.5c0-11.5,113.9-20.9,254.3-20.9
	S502.5,683.2,510.3,691.5z"/>
<path class="st1" d="M245.9,186.9h11.4c15.1,0,27.4,12.3,27.4,27.4l0,0v38.9h-66.3v-38.9C218.5,199.1,230.7,186.9,245.9,186.9
	L245.9,186.9L245.9,186.9z"/>
<path class="st4" d="M239.5,240.4c0,0,2.8,22.2-3.5,23.6c-6.2,1.4-9,9.7-9,9.7l20.8,13.2l21.5-4.2l-2.1-16c0,0-5.6-16-2.8-26.4
	C267.2,230,239.5,240.4,239.5,240.4z"/>
<path class="st3" d="M239.5,240.4c0,0,2.8,22.2-3.5,23.6c-6.2,1.4-9,9.7-9,9.7l20.8,13.2l21.5-4.2l-2.1-16c0,0-5.6-16-2.8-26.4
	C267.2,230,239.5,240.4,239.5,240.4z"/>
<path class="st4" d="M211.7,498.1l5.6,36.1c0,0-1.4,36.8,8.3,69.5l9.7,32.7l9.7-11.1l2.8-44.5c0,0,0.7-16-2.1-28.5l2.1-58.4
	L211.7,498.1z"/>
<path class="st4" d="M263,491.9l4.9,63.3c0,0-2.1,67.4-2.8,69.5c-0.7,2.1,14,4.8,14,4.8s22.2-52.8,15.3-94.5c0,0-4.2-35.4,1.4-44.5
	S263,491.9,263,491.9z"/>
<ellipse transform="matrix(0.1602 -0.9871 0.9871 0.1602 -13.2228 438.8032)" class="st4" cx="251.3" cy="227.2" rx="24.3" ry="24.3"/>
<path class="st1" d="M231.8,269.6c0,0,2.8,10.4,16,9.7c13.2-0.7,19.5-12.5,19.5-12.5s16,8.3,23.6,7.6l-2.1,34
	c0,0-13.2,36.1-10.4,44.5c2.8,8.3,59.1,95.9,52.1,129.9c0,0,6.9,9.7-19.5,11.8c-26.4,2.1-25.7-2.8-47.2,6.9s-51.4,4.2-58.4,2.8
	s-31.3-5.6-31.3-5.6s5.5-102.8,37.5-137.6l-0.7-62.5l-2.8-23.6c0,0,22.4-11.1,23-8.3L231.8,269.6z"/>
<path class="st4" d="M334.6,316.1c0,0,35.4,22.2,21.5,31.3c-13.9,9-63.5,31.8-63.5,31.8s-37.9-17.9-28.2-24.8
	c9.7-6.9,26.4,12.5,26.4,12.5l43.1-25.7l-11.1-12.5L334.6,316.1z"/>
<path class="st4" d="M190.1,334.9v101.4c0,0-3.5,38.9,9.7,36.1c13.2-2.8,2.8-37.5,2.8-37.5l4.2-59.7v-33.4L190.1,334.9z"/>
<path class="st1" d="M247.1,608.6c0,0-6.3,13.2-19.5,5.6c0,0,3.5,11.8,3.5,14.6s3.5,17.4,4.9,18.8c1.4,1.4,0,32,6.9,33.3
	c6.9,1.4,13.2-16,13.2-22.2s-2.1-26.4-2.1-26.4s1.4-13.2-6.3-17.4L247.1,608.6z"/>
<path class="st1" d="M283.2,623.9l-19.4-2.8l-4.2,16.7c0,0-11.1,29.9-11.8,34.7c-0.7,4.9-13.2,25-2.1,25s22.2,0.7,24.3-5.6
	c2.1-6.2,6.3-27.8,9.7-35.4c3.5-7.7-1.4-15.3-1.4-15.3L283.2,623.9z"/>
<path class="st1" d="M284.6,277.2l6.2-2.8c0,0,6.3,0,16,11.1s35.4,33.4,35.4,33.4s-17.4,17.4-21.5,16s-36.1-32-36.1-32L284.6,277.2z
	"/>
<path class="st1" d="M211.7,275.1h-3.5c0,0-14.6,1.4-16.7,19.5c-2.1,18.1-5.6,39.6-6.9,41.7c-1.4,2.1,18.1,11.1,21.5,11.1
	c3.5,0,9-54.2,9-54.2L211.7,275.1z"/>
<polygon class="st1" points="268.3,216.8 234.9,216.8 227.4,199.5 273.9,199.5 "/>
<ellipse transform="matrix(0.9605 -0.2783 0.2783 0.9605 -53.7566 71.759)" class="st4" cx="225.9" cy="225.2" rx="1.7" ry="4.5"/>
<ellipse transform="matrix(0.2783 -0.9605 0.9605 0.2783 -19.8702 426.7404)" class="st4" cx="274" cy="226.6" rx="4.5" ry="1.7"/>
<rect x="583.8" y="26" transform="matrix(0.484 -0.875 0.875 0.484 151.487 747.9523)" class="st0" width="252.3" height="439.1"/>
<rect x="447.6" y="209.2" class="st5" width="146" height="191.7"/>
<rect x="487.8" y="239.5" class="st2" width="65.6" height="65.6"/>
<rect x="463" y="319" class="st2" width="115.2" height="8"/>
<rect x="463" y="340.8" class="st2" width="115.2" height="8"/>
<rect x="463" y="362.7" class="st2" width="115.2" height="8"/>
<rect x="757.5" y="377.1" class="st5" width="146" height="191.7"/>
<rect x="778.9" y="402.4" class="st2" width="103.3" height="11.9"/>
<rect x="778.9" y="428.3" class="st2" width="103.3" height="11.9"/>
<rect x="778.9" y="454.1" class="st2" width="103.3" height="11.9"/>
<rect x="778.9" y="479.9" class="st2" width="103.3" height="11.9"/>
<rect x="778.9" y="505.7" class="st2" width="103.3" height="11.9"/>
<rect x="778.9" y="531.6" class="st2" width="103.3" height="11.9"/>
<rect x="714.8" y="54.3" class="st5" width="146" height="191.7"/>
<rect x="733.3" y="119.4" class="st2" width="102.9" height="11.9"/>
<rect x="733.3" y="145.1" class="st2" width="102.9" height="11.9"/>
<rect x="733.3" y="170.9" class="st2" width="102.9" height="11.9"/>
<ellipse class="st6" cx="854.6" cy="55.4" rx="17.6" ry="17.6"/>
<path class="st7" d="M854.6,34.8c-11.6,0-21,9.4-21,21s9.4,21,21,21s21-9.4,21-21l0,0C875.6,44.2,866.2,34.8,854.6,34.8z M850.3,67
	l-10.8-10.8l3-3l7.8,7.8l16.4-16.3l3,3L850.3,67z"/>
<ellipse class="st6" cx="903.7" cy="372.9" rx="17.6" ry="17.7"/>
<path class="st7" d="M903.7,352.2c-11.6,0-21.1,9.4-21.1,21.1s9.4,21.1,21.1,21.1c11.6,0,21.1-9.4,21.1-21.1l0,0
	C924.8,361.7,915.4,352.2,903.7,352.2z M899.4,384.6l-10.8-10.8l3-3l7.8,7.8l16.4-16.4l3,3L899.4,384.6L899.4,384.6z"/>
<ellipse class="st6" cx="591.4" cy="207.8" rx="17.6" ry="17.6"/>
<path class="st7" d="M591.4,187.2c-11.6,0-21,9.4-21,21s9.4,21,21,21s21-9.4,21-21l0,0C612.4,196.6,603,187.2,591.4,187.2z
	 M587.1,219.4l-10.8-10.8l3-3l7.8,7.8l16.4-16.4l3,3L587.1,219.4L587.1,219.4z"/>
</svg>
