<?xml version="1.0" encoding="utf-8"?>
<!-- Generator: Adobe Illustrator 23.0.6, SVG Export Plug-In . SVG Version: 6.00 Build 0)  -->
<svg version="1.1" id="b7479f35-b76c-414d-9259-8a40bcbac55e"
	 xmlns="http://www.w3.org/2000/svg" xmlns:xlink="http://www.w3.org/1999/xlink" x="0px" y="0px" viewBox="0 0 963.2 818.1"
	 style="enable-background:new 0 0 963.2 818.1;" xml:space="preserve">
<style type="text/css">
	.st0{opacity:0.5;fill:#7E64D0;enable-background:new    ;}
	.st1{fill:#3F3D56;}
	.st2{fill:url(#SVGID_1_);}
	.st3{fill:#F5F5F5;}
	.st4{fill:url(#SVGID_2_);}
	.st5{fill:#F4F4F4;}
	.st6{fill:#FFFFFF;}
	.st7{fill:url(#SVGID_3_);}
	.st8{fill:#F7F7F7;}
	.st9{fill:url(#SVGID_4_);}
	.st10{fill:#FAFAFA;}
	.st11{fill:url(#SVGID_5_);}
	.st12{fill:url(#SVGID_6_);}
	.st13{fill:url(#SVGID_7_);}
	.st14{clip-path:url(#SVGID_9_);}
	.st15{fill:#7E64D0;}
	.st16{fill:#FFB9B9;}
	.st17{fill:#2F2E41;}
	.st18{opacity:0.1;enable-background:new    ;}
	.st19{fill:#575A89;}
	.st20{fill:url(#SVGID_10_);}
	.st21{fill:url(#SVGID_11_);}
	.st22{fill:url(#SVGID_12_);}
	.st23{fill:url(#SVGID_13_);}
	.st24{fill:url(#SVGID_14_);}
	.st25{fill:url(#SVGID_15_);}
	.st26{fill:url(#SVGID_16_);}
	.st27{clip-path:url(#SVGID_18_);}
	.st28{fill:url(#SVGID_19_);}
	.st29{fill:url(#SVGID_20_);}
	.st30{fill:url(#SVGID_21_);}
	.st31{fill:url(#SVGID_22_);}
	.st32{fill:url(#SVGID_23_);}
	.st33{fill:url(#SVGID_24_);}
	.st34{fill:url(#SVGID_25_);}
	.st35{clip-path:url(#SVGID_27_);}
	.st36{fill:url(#SVGID_28_);}
	.st37{fill:url(#SVGID_29_);}
	.st38{fill:url(#SVGID_30_);}
	.st39{fill:url(#SVGID_31_);}
	.st40{fill:url(#SVGID_32_);}
	.st41{fill:url(#SVGID_33_);}
	.st42{fill:url(#SVGID_34_);}
	.st43{clip-path:url(#SVGID_36_);}
	.st44{fill:#E6E6E6;}
</style>
<title>content</title>
<path class="st0" d="M506.9,99.7c-55.7-1.9-108.6-20-159.2-39.6S246.9,18.7,192.6,8.2c-34.9-6.7-74.9-7.7-103,11.1
	c-27.1,18-35.9,49.2-40.5,78.1c-3.5,21.8-5.6,44.6,4,64.9c6.8,14.1,18.7,26,27,39.6c28.7,47.1,8.5,105.1-22.7,151
	C42.9,374.5,25.9,395,14.6,418C3.3,441-1.9,467.2,8,490.6c9.8,23.3,33.1,40.5,58.3,52.8c51.4,24.9,111.7,31.9,170.8,36.1
	c130.6,9,261.8,5,392.6,1.2c48.4-1.4,97-2.9,144.7-10.4c26.5-4.1,53.8-10.7,73-26.8c24.4-20.3,30.4-54.5,14-79.8
	C834,421.2,758.2,410.5,739.1,365c-10.6-25.1,0.3-53.2,15.6-76.4c32.8-50,88-93.9,90.9-151.1c2-39.3-24.5-78.6-65.4-97.1
	c-43-19.4-102.6-17-134.2,15.1C613.3,88.6,556,101.4,506.9,99.7z"/>
<polygon class="st1" points="796.6,444.4 794.8,444.4 794.8,357.8 366.1,357.8 366.1,444.4 364.2,444.4 364.2,356 796.6,356 "/>
<linearGradient id="SVGID_1_" gradientUnits="userSpaceOnUse" x1="447.112" y1="487.2111" x2="447.112" y2="601.9794" gradientTransform="matrix(1 0 0 -1 0 1089.8943)">
	<stop  offset="0" style="stop-color:#808080;stop-opacity:0.25"/>
	<stop  offset="0.54" style="stop-color:#808080;stop-opacity:0.12"/>
	<stop  offset="1" style="stop-color:#808080;stop-opacity:0.1"/>
</linearGradient>
<polygon class="st2" points="449,602.7 420.8,602.7 420.8,487.9 473.5,487.9 "/>
<polygon class="st3" points="447.6,602.7 420,602.7 420,487.9 471.5,487.9 "/>
<linearGradient id="SVGID_2_" gradientUnits="userSpaceOnUse" x1="524.4253" y1="487.6954" x2="535.5852" y2="560.6031" gradientTransform="matrix(1.0077 -0.1467 -0.1494 -1.0173 -109.6793 1067.0468)">
	<stop  offset="0" style="stop-color:#808080;stop-opacity:0.25"/>
	<stop  offset="0.54" style="stop-color:#808080;stop-opacity:0.12"/>
	<stop  offset="1" style="stop-color:#808080;stop-opacity:0.1"/>
</linearGradient>
<polygon class="st4" points="283.4,450.4 396.6,418.8 408.8,462.3 295.5,493.9 "/>
<rect x="288.6" y="434.3" transform="matrix(0.9631 -0.2693 0.2693 0.9631 -110.0551 110.1111)" class="st5" width="115.5" height="43.7"/>
<rect x="318.9" y="453.1" transform="matrix(0.9631 -0.2693 0.2693 0.9631 -109.9893 106.5632)" class="st3" width="29" height="2.2"/>
<rect x="321.2" y="461.6" transform="matrix(0.9631 -0.2693 0.2693 0.9631 -112.21 107.5026)" class="st6" width="29" height="2.2"/>
<rect x="319.8" y="455" transform="matrix(0.9631 -0.2693 0.2693 0.9631 -110.1437 109.2661)" class="st6" width="46.8" height="2.2"/>
<circle class="st6" cx="308.6" cy="465.6" r="5.2"/>
<linearGradient id="SVGID_3_" gradientUnits="userSpaceOnUse" x1="613.0234" y1="474.4003" x2="613.0234" y2="558.5108" gradientTransform="matrix(1.003 4.084946e-05 4.084946e-05 -1.003 -234.7785 987.7816)">
	<stop  offset="0" style="stop-color:#808080;stop-opacity:0.25"/>
	<stop  offset="0.54" style="stop-color:#808080;stop-opacity:0.12"/>
	<stop  offset="1" style="stop-color:#808080;stop-opacity:0.1"/>
</linearGradient>
<polygon class="st7" points="316.8,469.7 427.5,428.5 443.4,471.4 332.9,512.6 "/>
<rect x="322.4" y="448.8" transform="matrix(0.9372 -0.3489 0.3489 0.9372 -140.335 162.2115)" class="st8" width="115.5" height="43.7"/>
<rect x="352.8" y="468.7" transform="matrix(0.9372 -0.3489 0.3489 0.9372 -140.8279 157.6576)" class="st3" width="29" height="2.2"/>
<rect x="355.8" y="476.9" transform="matrix(0.9372 -0.3489 0.3489 0.9372 -143.5205 159.2295)" class="st6" width="29" height="2.2"/>
<rect x="355.8" y="470.8" transform="matrix(0.9372 -0.3489 0.3489 0.9372 -140.8072 161.9902)" class="st6" width="47.1" height="2.2"/>
<circle class="st6" cx="343.4" cy="483.4" r="5.2"/>
<linearGradient id="SVGID_4_" gradientUnits="userSpaceOnUse" x1="682.0134" y1="464.2283" x2="686.203" y2="528.3668" gradientTransform="matrix(1.0203 -8.235779e-02 -6.725177e-02 -1.048 -248.0881 1067.0969)">
	<stop  offset="0" style="stop-color:#808080;stop-opacity:0.25"/>
	<stop  offset="0.54" style="stop-color:#808080;stop-opacity:0.12"/>
	<stop  offset="1" style="stop-color:#808080;stop-opacity:0.1"/>
</linearGradient>
<polygon class="st9" points="354.6,503 362.6,457.6 478.5,478.2 470.4,523.7 "/>
<rect x="394.4" y="432.6" transform="matrix(0.1754 -0.9845 0.9845 0.1754 -139.5253 814.0997)" class="st10" width="43.7" height="115.5"/>
<rect x="404.5" y="468.4" transform="matrix(0.1754 -0.9845 0.9845 0.1754 -140.9875 797.4958)" class="st3" width="2.2" height="29"/>
<rect x="402.4" y="481.8" transform="matrix(0.1807 -0.9835 0.9835 0.1807 -157.5036 803.3922)" class="st6" width="2.2" height="28.9"/>
<rect x="412.4" y="465.5" transform="matrix(0.1754 -0.9845 0.9845 0.1754 -140.332 810.2413)" class="st6" width="2.2" height="46.8"/>
<circle class="st6" cx="378.1" cy="482.6" r="5.2"/>
<linearGradient id="SVGID_5_" gradientUnits="userSpaceOnUse" x1="366.3006" y1="485.1959" x2="366.3006" y2="616.59" gradientTransform="matrix(1 0 0 -1 0 1089.8943)">
	<stop  offset="0" style="stop-color:#808080;stop-opacity:0.25"/>
	<stop  offset="0.54" style="stop-color:#808080;stop-opacity:0.12"/>
	<stop  offset="1" style="stop-color:#808080;stop-opacity:0.1"/>
</linearGradient>
<polygon class="st11" points="329.4,486.6 310.3,473.3 283.9,473.3 283.9,486.6 283.9,493.2 283.9,604.7 448.7,604.7 448.7,486.6 
	"/>
<polygon class="st6" points="330.1,487.9 311.3,475.1 285.3,475.1 285.3,487.9 285.3,494.3 285.3,602.7 447.6,602.7 447.6,487.9 "/>
<linearGradient id="SVGID_6_" gradientUnits="userSpaceOnUse" x1="601.7117" y1="409.9516" x2="601.7117" y2="471.7958" gradientTransform="matrix(1 0 0 -1 -235.26 987.4442)">
	<stop  offset="0" style="stop-color:#B3B3B3;stop-opacity:0.25"/>
	<stop  offset="0.54" style="stop-color:#B3B3B3;stop-opacity:0.1"/>
	<stop  offset="1" style="stop-color:#B3B3B3;stop-opacity:5.000000e-02"/>
</linearGradient>
<path class="st12" d="M410.8,575.6c0,1-0.8,1.9-1.9,1.9l0,0H324c-1,0-1.9-0.9-1.9-1.9v-57.9c0-1,0.8-1.9,1.9-1.9h84.8
	c1,0,1.9,0.9,1.9,1.9l0,0"/>
<path class="st6" d="M409.9,574.7c0,1-0.8,1.8-1.8,1.8h-82.9c-1,0-1.8-0.8-1.8-1.8v-56c0-1,0.8-1.8,1.8-1.8h82.9
	c1,0,1.8,0.8,1.8,1.8"/>
<linearGradient id="SVGID_7_" gradientUnits="userSpaceOnUse" x1="366.5525" y1="515.7604" x2="366.5525" y2="570.5511" gradientTransform="matrix(1 0 0 -1 0 1089.8943)">
	<stop  offset="0" style="stop-color:#B3B3B3;stop-opacity:0.25"/>
	<stop  offset="0.54" style="stop-color:#B3B3B3;stop-opacity:0.1"/>
	<stop  offset="1" style="stop-color:#B3B3B3;stop-opacity:5.000000e-02"/>
</linearGradient>
<path class="st13" d="M328.9,519.4h75.4c1.3,0,2.3,1,2.3,2.3v50.1c0,1.3-1,2.3-2.3,2.3h-75.4c-1.3,0-2.3-1-2.3-2.3v-50.1
	C326.5,520.4,327.6,519.4,328.9,519.4z"/>
<path class="st6" d="M329.8,520.7H403c1.3,0,2.3,1,2.3,2.3v47.2c0,1.3-1,2.3-2.3,2.3h-73.3c-1.3,0-2.3-1-2.3-2.3V523
	C327.5,521.7,328.6,520.7,329.8,520.7z"/>
<g>
	<g>
		<g>
			<g>
				<defs>
					<path id="SVGID_8_" d="M329.8,520.7H403c1.3,0,2.3,1,2.3,2.3v47.2c0,1.3-1,2.3-2.3,2.3h-73.3c-1.3,0-2.3-1-2.3-2.3V523
						C327.5,521.7,328.6,520.7,329.8,520.7z"/>
				</defs>
				<clipPath id="SVGID_9_">
					<use xlink:href="#SVGID_8_"  style="overflow:visible;"/>
				</clipPath>
				<g class="st14">
					<path class="st15" d="M323.1,572.1l21.9-25c1.5-1.8,4.3-1.9,6.1-0.4l0,0l6.1,5.3c1.6,1.4,4,1.4,5.6,0.1l18.6-15.6
						c1.7-1.5,4.4-1.3,6,0.4l22.9,25.2c0.6,0.7,1,1.6,1,2.5l0.9,9.9c0.2,2.3-1.5,4.5-4,4.7h-81.9c-2.3,0-4.3-1.8-4.3-4.2l0,0
						C322,574,322.4,572.9,323.1,572.1z"/>
				</g>
			</g>
		</g>
	</g>
</g>
<circle class="st15" cx="336.8" cy="528.9" r="4.8"/>
<rect x="579.6" y="289.1" class="st1" width="1.8" height="155.3"/>
<rect x="101.8" y="808.4" class="st1" width="442.6" height="1.9"/>
<path class="st16" d="M304.2,470.6c0,0,20.2,41.9,6.8,43.5c-13.4,1.6-16.7-37.7-16.7-37.7L304.2,470.6z"/>
<polygon class="st16" points="228,738.6 241.4,762.3 217,777.4 211.4,749.5 "/>
<path class="st17" d="M233.7,765.6c0,0,7.4-12,10-10c2.6,1.9,13.6,10.8,13.6,10.8l14.3,13.7c0,0,48.3,5.1,17.5,22.1
	c-30.6,16.8-47.7,2.8-47.7,2.8s-42.9,2.2-42.3-9.7c0.7-12,14.5-30.9,14.5-30.9S231.3,775.9,233.7,765.6z"/>
<path class="st18" d="M233.7,765.6c0,0,7.4-12,10-10c2.6,1.9,13.6,10.8,13.6,10.8l14.3,13.7c0,0,48.3,5.1,17.5,22.1
	c-30.6,16.8-47.7,2.8-47.7,2.8s-42.9,2.2-42.3-9.7c0.7-12,14.5-30.9,14.5-30.9S231.3,775.9,233.7,765.6z"/>
<path class="st17" d="M168.5,470.2L181,622.1c0,0,0.4,90.9,13.8,108.4c13.4,17.5,13.8,26.4,13.8,26.4l27.6-14.2c0,0-9.2-0.8-5-6.8
	c4.2-5.8,16.7,0,5-8.4c-11.8-8.4-14.2-8.7-11.4-12.3c1.8-2.3,3-5,3.8-7.9l-7.5-93.7l14.2-163.2L168.5,470.2z"/>
<path class="st18" d="M168.5,470.2L181,622.1c0,0,0.4,90.9,13.8,108.4c13.4,17.5,13.8,26.4,13.8,26.4l27.6-14.2c0,0-9.2-0.8-5-6.8
	c4.2-5.8,16.7,0,5-8.4c-11.8-8.4-14.2-8.7-11.4-12.3c1.8-2.3,3-5,3.8-7.9l-7.5-93.7l14.2-163.2L168.5,470.2z"/>
<polygon class="st16" points="202.8,738.6 191.1,769.5 157.7,757.1 178.6,735.2 "/>
<path class="st17" d="M186.2,756.1c0,0,12.5-7.9,14.1-4.7c1.5,3.1,7.9,16.4,7.9,16.4l7.1,19.5c0,0,43,27.4,6.2,28.9
	c-36.8,1.6-46.1-19.4-46.1-19.4s-41.5-18-35.2-28.9c6.3-11,28.1-22.3,28.1-22.3S179.2,764.8,186.2,756.1z"/>
<path class="st17" d="M275,470.6l6.8,139.9c0,0-32.6,92.9-61.2,108c0,0,0,18.4-6.8,21.8c-4,2-7.1,5.7-8.4,10l-36.8-9.2
	c0,0,9.2-9.2,5.8-13.4c-3.3-4.2,10.9-13.4,10.9-13.4l36.8-89.6c0,0,5.8-2.5,7.5-10.9c1.6-8.4,5-8.4-3.3-10c-8.4-1.6-8.4-10-8.4-10
	l-27.6-127.4L275,470.6z"/>
<ellipse transform="matrix(0.4641 -0.8858 0.8858 0.4641 -61.7905 333.4698)" class="st16" cx="244.7" cy="217.8" rx="33.6" ry="33.6"/>
<path class="st16" d="M215,219.8c0,0-2.5,42.7-5.8,47c-3.3,4.2,35.2,3.3,35.2,3.3s-2.5-36,0-39.4C246.8,227.4,215,219.8,215,219.8z"
	/>
<path class="st19" d="M203.7,253.7c0,0,31.8-3.3,43.5,6.8c3.8,3.1,7.8,6,12,8.6c7.2,4.3,11.7,12,12,20.4l6.2,190.4
	c0,0-94.6-8.4-112.2,0c0,0-0.8-19.2-2.5-21.8c-1.2-1.8-3.3-75-4.4-114.3c-0.7-22.3,7.2-43.9,22-60.7c5.1-5.6,10.8-10.3,16.7-12.7
	C197.1,270.6,195.3,254.5,203.7,253.7z"/>
<path class="st19" d="M254.8,270.6L254.8,270.6c9.6,2.5,16.7,10.7,18.2,20.5l12,85l16.7,67.8c0,0,8.4,7.6,5,11.8
	c-3.3,4.2,4.2,21.7,4.2,21.7l-21,6.8c0,0-2.5-17.5-6.8-18.4c-3.7-0.7-44.8-110.8-54.8-137.3l-2.1-5.7
	C226.4,322.4,228,266.3,254.8,270.6z"/>
<path class="st18" d="M226.8,322l50.7,137C277.4,459.1,228.4,366.4,226.8,322z"/>
<path class="st17" d="M227.3,227.6c2.8-0.2,5.6,0.8,8.4,1.1c10,1.3,20.6-5.9,22.8-15.8c0.2-1.3,0.6-2.5,1.1-3.8
	c1.5-2.5,5.1-2.9,8-2.4c2.8,0.6,5.6,1.9,8.6,2.1c4.6,0.2,9-2.5,11.4-6.4c2.3-4,3.2-8.7,2.7-13.3l-2.1,2.3c-0.9-1.8-1.2-4-1-6
	c-2.3-0.6-4.9,0-6.7,1.7c-1.9,0.2-0.5-3.6-1.9-4.9c-0.7-0.4-1.5-0.6-2.3-0.4c-4.1,0-7.5-3-10.8-5.6c-5.6-4.4-12.2-7.4-19.1-8.8
	c-4.6-0.9-9.6-1-14,0.7c-3.6,1.6-6.8,3.9-9.4,6.8c-6.9,6.7-13,14.4-15.8,23.5c-2.3,7.5-2.3,15.4-0.2,23c1.1,3.9,4.6,17.2,9.7,17.5
	C223.1,239.2,219.3,228.1,227.3,227.6z"/>
<path class="st1" d="M122.8,810.1l-0.9-0.3c-0.2-0.1-19.9-7.6-29-24.6c-9.2-17-4.7-37.6-4.7-37.8l0.2-0.9l0.9,0.3
	c0.2,0.1,19.9,7.6,29,24.6s4.7,37.6,4.7,37.8L122.8,810.1z M94.4,784.2c7.8,14.4,23.3,21.9,27.3,23.5c0.7-4.2,3-21.3-4.7-35.7
	s-23.3-21.8-27.3-23.5C88.9,752.8,86.5,769.7,94.4,784.2z"/>
<path class="st15" d="M99.9,779.1c16.5,9.9,22.9,29.7,22.9,29.7s-20.5,3.7-37-6.3C69.3,792.6,63,772.8,63,772.8
	S83.3,769.1,99.9,779.1z"/>
<linearGradient id="SVGID_10_" gradientUnits="userSpaceOnUse" x1="662.29" y1="803.7056" x2="662.29" y2="918.3732" gradientTransform="matrix(1 0 0 -1 0 1089.8943)">
	<stop  offset="0" style="stop-color:#808080;stop-opacity:0.25"/>
	<stop  offset="0.54" style="stop-color:#808080;stop-opacity:0.12"/>
	<stop  offset="1" style="stop-color:#808080;stop-opacity:0.1"/>
</linearGradient>
<polygon class="st20" points="664.2,286.2 636,286.2 636,171.5 688.6,171.5 "/>
<polygon class="st3" points="662.8,286.2 635.2,286.2 635.2,171.5 686.8,171.5 "/>
<linearGradient id="SVGID_11_" gradientUnits="userSpaceOnUse" x1="778.5941" y1="762.1435" x2="789.7537" y2="835.0515" gradientTransform="matrix(1.0077 -0.1467 -0.1494 -1.0173 -109.6753 1067.036)">
	<stop  offset="0" style="stop-color:#808080;stop-opacity:0.25"/>
	<stop  offset="0.54" style="stop-color:#808080;stop-opacity:0.12"/>
	<stop  offset="1" style="stop-color:#808080;stop-opacity:0.1"/>
</linearGradient>
<polygon class="st21" points="498.6,133.8 611.7,102.3 623.9,145.7 510.7,177.4 "/>
<rect x="503.7" y="117.8" transform="matrix(0.9631 -0.2693 0.2693 0.9631 -16.8759 156.3522)" class="st5" width="115.5" height="43.7"/>
<rect x="534.1" y="136.6" transform="matrix(0.9631 -0.2693 0.2693 0.9631 -16.8057 152.8333)" class="st3" width="29" height="2.2"/>
<rect x="536.6" y="145.1" transform="matrix(0.9631 -0.2693 0.2693 0.9631 -19.0231 153.8)" class="st6" width="29" height="2.2"/>
<rect x="535.1" y="138.5" transform="matrix(0.9631 -0.2693 0.2693 0.9631 -16.9601 155.5361)" class="st6" width="46.8" height="2.2"/>
<circle class="st6" cx="523.8" cy="149.2" r="5.2"/>
<linearGradient id="SVGID_12_" gradientUnits="userSpaceOnUse" x1="827.6021" y1="790.909" x2="827.6021" y2="875.0193" gradientTransform="matrix(1.003 4.084946e-05 4.084946e-05 -1.003 -234.7855 987.7789)">
	<stop  offset="0" style="stop-color:#808080;stop-opacity:0.25"/>
	<stop  offset="0.54" style="stop-color:#808080;stop-opacity:0.12"/>
	<stop  offset="1" style="stop-color:#808080;stop-opacity:0.1"/>
</linearGradient>
<polygon class="st22" points="532,153.2 642.7,112 658.7,154.8 548,196 "/>
<rect x="537.7" y="132.3" transform="matrix(0.9372 -0.3489 0.3489 0.9372 -16.3842 217.4181)" class="st8" width="115.5" height="43.7"/>
<rect x="567.9" y="152.2" transform="matrix(0.9372 -0.3489 0.3489 0.9372 -16.8857 212.8253)" class="st3" width="29" height="2.2"/>
<rect x="571" y="160.4" transform="matrix(0.9372 -0.3489 0.3489 0.9372 -19.5695 214.4364)" class="st6" width="29" height="2.2"/>
<rect x="569.4" y="153.3" transform="matrix(0.9372 -0.3489 0.3489 0.9372 -16.6135 216.5374)" class="st6" width="46.9" height="2.2"/>
<circle class="st6" cx="558.7" cy="166.8" r="5.2"/>
<linearGradient id="SVGID_13_" gradientUnits="userSpaceOnUse" x1="911.6341" y1="748.2863" x2="915.8179" y2="812.3297" gradientTransform="matrix(1.0203 -8.235779e-02 -6.725177e-02 -1.048 -248.089 1067.1057)">
	<stop  offset="0" style="stop-color:#808080;stop-opacity:0.25"/>
	<stop  offset="0.54" style="stop-color:#808080;stop-opacity:0.12"/>
	<stop  offset="1" style="stop-color:#808080;stop-opacity:0.1"/>
</linearGradient>
<polygon class="st23" points="569.7,186.4 577.8,141.1 693.7,161.7 685.7,207.1 "/>
<rect x="609.5" y="116" transform="matrix(0.1754 -0.9845 0.9845 0.1754 349.6428 764.8491)" class="st10" width="43.7" height="115.5"/>
<rect x="619.5" y="151.9" transform="matrix(0.1754 -0.9845 0.9845 0.1754 347.9769 748.2335)" class="st3" width="2.2" height="29"/>
<rect x="618.1" y="160.7" transform="matrix(0.1754 -0.9845 0.9845 0.1754 338.0792 754.0657)" class="st6" width="2.2" height="29"/>
<rect x="627.6" y="149" transform="matrix(0.1754 -0.9845 0.9845 0.1754 348.7633 761.1528)" class="st6" width="2.2" height="46.8"/>
<ellipse transform="matrix(0.1754 -0.9845 0.9845 0.1754 325.7522 721.2344)" class="st6" cx="593.4" cy="166.2" rx="5.2" ry="5.2"/>
<linearGradient id="SVGID_14_" gradientUnits="userSpaceOnUse" x1="581.4786" y1="801.6904" x2="581.4786" y2="933.0845" gradientTransform="matrix(1 0 0 -1 0 1089.8943)">
	<stop  offset="0" style="stop-color:#808080;stop-opacity:0.25"/>
	<stop  offset="0.54" style="stop-color:#808080;stop-opacity:0.12"/>
	<stop  offset="1" style="stop-color:#808080;stop-opacity:0.1"/>
</linearGradient>
<polygon class="st24" points="544.6,170.1 525.5,156.8 499.1,156.8 499.1,170.1 499.1,176.7 499.1,288.2 663.9,288.2 663.9,170.1 
	"/>
<polygon class="st6" points="545.2,171.5 526.5,158.5 500.6,158.5 500.6,171.5 500.6,177.9 500.6,286.2 662.8,286.2 662.8,171.5 "/>
<linearGradient id="SVGID_15_" gradientUnits="userSpaceOnUse" x1="816.9401" y1="726.4462" x2="816.9401" y2="788.2903" gradientTransform="matrix(1 0 0 -1 -235.26 987.4442)">
	<stop  offset="0" style="stop-color:#B3B3B3;stop-opacity:0.25"/>
	<stop  offset="0.54" style="stop-color:#B3B3B3;stop-opacity:0.1"/>
	<stop  offset="1" style="stop-color:#B3B3B3;stop-opacity:5.000000e-02"/>
</linearGradient>
<path class="st25" d="M626,259.1c0,1-0.8,1.9-1.9,1.9l0,0h-84.8c-1,0-1.9-0.9-1.9-1.9v-57.9c0-1,0.8-1.9,1.9-1.9l0,0h84.8
	c1,0,1.9,0.8,1.9,1.9l0,0"/>
<path class="st6" d="M625,258.2c0,1-0.8,1.8-1.8,1.8h-82.9c-1,0-1.8-0.8-1.8-1.8v-56c0-1,0.8-1.8,1.8-1.8l0,0h82.9
	c1,0,1.8,0.8,1.8,1.8l0,0"/>
<linearGradient id="SVGID_16_" gradientUnits="userSpaceOnUse" x1="581.7776" y1="832.3221" x2="581.7776" y2="887.1129" gradientTransform="matrix(1 0 0 -1 0 1089.8943)">
	<stop  offset="0" style="stop-color:#B3B3B3;stop-opacity:0.25"/>
	<stop  offset="0.54" style="stop-color:#B3B3B3;stop-opacity:0.1"/>
	<stop  offset="1" style="stop-color:#B3B3B3;stop-opacity:5.000000e-02"/>
</linearGradient>
<path class="st26" d="M544.1,202.9h75.4c1.3,0,2.3,1,2.3,2.3v50.1c0,1.3-1,2.3-2.3,2.3h-75.4c-1.3,0-2.3-1-2.3-2.3v-50.1
	C541.7,203.9,542.8,202.9,544.1,202.9z"/>
<path class="st6" d="M545,204.2h73.3c1.3,0,2.3,1,2.3,2.3v47.2c0,1.3-1,2.3-2.3,2.3H545c-1.3,0-2.3-1-2.3-2.3v-47.2
	C542.6,205.2,543.8,204.2,545,204.2z"/>
<g>
	<g>
		<g>
			<g>
				<defs>
					<path id="SVGID_17_" d="M545.1,204.2h73.3c1.3,0,2.3,1,2.3,2.3v47.2c0,1.3-1,2.3-2.3,2.3h-73.3c-1.3,0-2.3-1-2.3-2.3v-47.2
						C542.6,205.2,543.8,204.2,545.1,204.2z"/>
				</defs>
				<clipPath id="SVGID_18_">
					<use xlink:href="#SVGID_17_"  style="overflow:visible;"/>
				</clipPath>
				<g class="st27">
					<path class="st15" d="M538.4,255.7l21.8-25c1.5-1.8,4.2-2,6-0.5c0,0,0.1,0,0.1,0.1l0,0l6.1,5.3c1.6,1.4,4,1.4,5.6,0.1
						l18.6-15.6c1.7-1.5,4.5-1.3,6,0.4l22.9,25.2c0.6,0.7,1,1.6,1,2.5l0.9,9.9c0.2,2.3-1.5,4.5-4,4.7h-82c-2.3,0-4.2-1.8-4.3-4.2
						l0,0C537.3,257.5,537.6,256.5,538.4,255.7z"/>
				</g>
			</g>
		</g>
	</g>
</g>
<circle class="st15" cx="552.1" cy="212.4" r="4.8"/>
<linearGradient id="SVGID_19_" gradientUnits="userSpaceOnUse" x1="875.6039" y1="487.2111" x2="875.6039" y2="601.9794" gradientTransform="matrix(1 0 0 -1 0 1089.8943)">
	<stop  offset="0" style="stop-color:#808080;stop-opacity:0.25"/>
	<stop  offset="0.54" style="stop-color:#808080;stop-opacity:0.12"/>
	<stop  offset="1" style="stop-color:#808080;stop-opacity:0.1"/>
</linearGradient>
<polygon class="st28" points="877.5,602.7 849.3,602.7 849.3,487.9 901.9,487.9 "/>
<polygon class="st3" points="876.1,602.7 848.4,602.7 848.4,487.9 900.1,487.9 "/>
<linearGradient id="SVGID_20_" gradientUnits="userSpaceOnUse" x1="940.696" y1="427.6537" x2="951.8451" y2="500.5511" gradientTransform="matrix(1.0077 -0.1467 -0.1494 -1.0173 -109.6794 1067.0468)">
	<stop  offset="0" style="stop-color:#808080;stop-opacity:0.25"/>
	<stop  offset="0.54" style="stop-color:#808080;stop-opacity:0.12"/>
	<stop  offset="1" style="stop-color:#808080;stop-opacity:0.1"/>
</linearGradient>
<polygon class="st29" points="711.9,450.4 825.1,418.8 837.2,462.3 724.1,493.9 "/>
<rect x="717.1" y="434.3" transform="matrix(0.9631 -0.2693 0.2693 0.9631 -94.2241 225.5183)" class="st5" width="115.5" height="43.7"/>
<rect x="747.5" y="453" transform="matrix(0.9631 -0.2693 0.2693 0.9631 -94.1293 221.966)" class="st3" width="29" height="2.2"/>
<rect x="749.8" y="461.6" transform="matrix(0.9631 -0.2693 0.2693 0.9631 -96.379 222.9099)" class="st6" width="29" height="2.2"/>
<rect x="748.3" y="455" transform="matrix(0.9631 -0.2693 0.2693 0.9631 -94.3159 224.6459)" class="st6" width="46.8" height="2.2"/>
<circle class="st6" cx="737.2" cy="465.6" r="5.2"/>
<linearGradient id="SVGID_21_" gradientUnits="userSpaceOnUse" x1="1040.2832" y1="474.4001" x2="1040.2832" y2="558.5107" gradientTransform="matrix(1.003 4.084946e-05 4.084946e-05 -1.003 -234.7778 987.7831)">
	<stop  offset="0" style="stop-color:#808080;stop-opacity:0.25"/>
	<stop  offset="0.54" style="stop-color:#808080;stop-opacity:0.12"/>
	<stop  offset="1" style="stop-color:#808080;stop-opacity:0.1"/>
</linearGradient>
<polygon class="st30" points="745.3,469.7 856.1,428.5 872,471.4 761.3,512.6 "/>
<rect x="750.9" y="448.8" transform="matrix(0.9372 -0.3489 0.3489 0.9372 -113.4113 311.6952)" class="st8" width="115.5" height="43.7"/>
<rect x="781.2" y="468.7" transform="matrix(0.9372 -0.3489 0.3489 0.9372 -113.9042 307.1413)" class="st3" width="29" height="2.2"/>
<rect x="784.2" y="476.9" transform="matrix(0.9372 -0.3489 0.3489 0.9372 -116.5968 308.7131)" class="st6" width="29" height="2.2"/>
<rect x="782.6" y="469.8" transform="matrix(0.9372 -0.3489 0.3489 0.9372 -113.6406 310.8147)" class="st6" width="46.9" height="2.2"/>
<circle class="st6" cx="771.9" cy="483.4" r="5.2"/>
<linearGradient id="SVGID_22_" gradientUnits="userSpaceOnUse" x1="1099.7476" y1="432.6374" x2="1103.9314" y2="496.6779" gradientTransform="matrix(1.017 -7.659999e-02 -6.140000e-02 -1.0446 -245.3553 1066.8479)">
	<stop  offset="0" style="stop-color:#808080;stop-opacity:0.25"/>
	<stop  offset="0.54" style="stop-color:#808080;stop-opacity:0.12"/>
	<stop  offset="1" style="stop-color:#808080;stop-opacity:0.1"/>
</linearGradient>
<polygon class="st31" points="784.8,509.1 793.2,464 908.6,485.2 900.2,530.2 "/>
<rect x="822.9" y="432.7" transform="matrix(0.1754 -0.9845 0.9845 0.1754 213.7426 1236.0309)" class="st10" width="43.7" height="115.5"/>
<rect x="833" y="468.3" transform="matrix(0.1754 -0.9845 0.9845 0.1754 212.4062 1219.2954)" class="st3" width="2.2" height="29"/>
<rect x="831.4" y="477.2" transform="matrix(0.1754 -0.9845 0.9845 0.1754 202.4179 1225.1152)" class="st6" width="2.2" height="29"/>
<rect x="840.8" y="465.4" transform="matrix(0.1754 -0.9845 0.9845 0.1754 213.0344 1231.9594)" class="st6" width="2.2" height="46.8"/>
<ellipse class="st6" cx="806.7" cy="482.6" rx="5.2" ry="5.2"/>
<linearGradient id="SVGID_23_" gradientUnits="userSpaceOnUse" x1="794.8428" y1="485.1959" x2="794.8428" y2="616.59" gradientTransform="matrix(1 0 0 -1 0 1089.8943)">
	<stop  offset="0" style="stop-color:#808080;stop-opacity:0.25"/>
	<stop  offset="0.54" style="stop-color:#808080;stop-opacity:0.12"/>
	<stop  offset="1" style="stop-color:#808080;stop-opacity:0.1"/>
</linearGradient>
<polygon class="st32" points="757.8,486.6 738.8,473.3 712.5,473.3 712.5,486.6 712.5,493.2 712.5,604.7 877.2,604.7 877.2,486.6 
	"/>
<polygon class="st6" points="758.5,487.9 739.8,475.1 713.9,475.1 713.9,487.9 713.9,494.3 713.9,602.7 876.1,602.7 876.1,487.9 "/>
<linearGradient id="SVGID_24_" gradientUnits="userSpaceOnUse" x1="1030.254" y1="409.9516" x2="1030.254" y2="471.7958" gradientTransform="matrix(1 0 0 -1 -235.26 987.4442)">
	<stop  offset="0" style="stop-color:#B3B3B3;stop-opacity:0.25"/>
	<stop  offset="0.54" style="stop-color:#B3B3B3;stop-opacity:0.1"/>
	<stop  offset="1" style="stop-color:#B3B3B3;stop-opacity:5.000000e-02"/>
</linearGradient>
<path class="st33" d="M839.3,575.6c0,1-0.8,1.9-1.9,1.9h-84.8c-1,0-1.9-0.9-1.9-1.9l0,0v-57.9c0-1,0.8-1.9,1.9-1.9l0,0h84.7
	c1,0,1.9,0.9,1.9,1.9"/>
<path class="st6" d="M838.2,574.7c0,1-0.8,1.8-1.8,1.8h-82.9c-1,0-1.8-0.8-1.8-1.8v-56c0-1,0.8-1.8,1.8-1.8h82.9
	c1,0,1.8,0.8,1.8,1.8"/>
<linearGradient id="SVGID_25_" gradientUnits="userSpaceOnUse" x1="795.0916" y1="515.7604" x2="795.0916" y2="570.5511" gradientTransform="matrix(1 0 0 -1 0 1089.8943)">
	<stop  offset="0" style="stop-color:#B3B3B3;stop-opacity:0.25"/>
	<stop  offset="0.54" style="stop-color:#B3B3B3;stop-opacity:0.1"/>
	<stop  offset="1" style="stop-color:#B3B3B3;stop-opacity:5.000000e-02"/>
</linearGradient>
<path class="st34" d="M757.4,519.4h75.4c1.3,0,2.3,1,2.3,2.3v50.1c0,1.3-1,2.3-2.3,2.3h-75.4c-1.3,0-2.3-1-2.3-2.3v-50.1
	C755,520.4,756.1,519.4,757.4,519.4z"/>
<path class="st6" d="M758.3,520.7h73.3c1.3,0,2.3,1,2.3,2.3v47.2c0,1.3-1,2.3-2.3,2.3h-73.3c-1.3,0-2.3-1-2.3-2.3V523
	C756,521.7,757,520.7,758.3,520.7z"/>
<g>
	<g>
		<g>
			<g>
				<defs>
					<path id="SVGID_26_" d="M758.3,520.7h73.3c1.3,0,2.3,1,2.3,2.3v47.2c0,1.3-1,2.3-2.3,2.3h-73.3c-1.3,0-2.3-1-2.3-2.3V523
						C756,521.7,757,520.7,758.3,520.7z"/>
				</defs>
				<clipPath id="SVGID_27_">
					<use xlink:href="#SVGID_26_"  style="overflow:visible;"/>
				</clipPath>
				<g class="st35">
					<path class="st15" d="M751.7,572.1l21.8-25c1.5-1.8,4.3-1.9,6.1-0.4l0,0l6.1,5.3c1.6,1.4,4,1.4,5.6,0.1l18.6-15.6
						c1.7-1.5,4.5-1.3,6,0.4l22.9,25.2c0.6,0.7,1,1.6,1,2.5l0.9,9.9c0.2,2.3-1.5,4.5-4,4.7h-82c-2.3,0-4.3-1.8-4.3-4.2l0,0
						C750.6,574,751,572.9,751.7,572.1z"/>
				</g>
			</g>
		</g>
	</g>
</g>
<circle class="st15" cx="765.4" cy="528.9" r="4.8"/>
<linearGradient id="SVGID_28_" gradientUnits="userSpaceOnUse" x1="658.8641" y1="487.2111" x2="658.8641" y2="601.9794" gradientTransform="matrix(1 0 0 -1 0 1089.8943)">
	<stop  offset="0" style="stop-color:#808080;stop-opacity:0.25"/>
	<stop  offset="0.54" style="stop-color:#808080;stop-opacity:0.12"/>
	<stop  offset="1" style="stop-color:#808080;stop-opacity:0.1"/>
</linearGradient>
<polygon class="st36" points="660.7,602.7 632.5,602.7 632.5,487.9 685.3,487.9 "/>
<polygon class="st3" points="659.4,602.7 631.7,602.7 631.7,487.9 683.2,487.9 "/>
<linearGradient id="SVGID_29_" gradientUnits="userSpaceOnUse" x1="730.1144" y1="458.031" x2="741.2634" y2="530.9282" gradientTransform="matrix(1.0077 -0.1467 -0.1494 -1.0173 -109.6779 1067.0367)">
	<stop  offset="0" style="stop-color:#808080;stop-opacity:0.25"/>
	<stop  offset="0.54" style="stop-color:#808080;stop-opacity:0.12"/>
	<stop  offset="1" style="stop-color:#808080;stop-opacity:0.1"/>
</linearGradient>
<polygon class="st37" points="495.1,450.3 608.3,418.8 620.5,462.3 507.2,493.9 "/>
<rect x="500.3" y="434.3" transform="matrix(0.9631 -0.2693 0.2693 0.9631 -102.2343 167.1223)" class="st5" width="115.5" height="43.7"/>
<rect x="530.7" y="453.1" transform="matrix(0.9631 -0.2693 0.2693 0.9631 -102.1637 163.6006)" class="st3" width="29" height="2.2"/>
<rect x="533.1" y="461.6" transform="matrix(0.9631 -0.2693 0.2693 0.9631 -104.3816 164.5702)" class="st6" width="29" height="2.2"/>
<rect x="531.5" y="455" transform="matrix(0.9631 -0.2693 0.2693 0.9631 -102.323 166.2773)" class="st6" width="46.8" height="2.2"/>
<circle class="st6" cx="520.3" cy="465.6" r="5.2"/>
<linearGradient id="SVGID_30_" gradientUnits="userSpaceOnUse" x1="824.1914" y1="474.4001" x2="824.1914" y2="558.5107" gradientTransform="matrix(1.003 4.084946e-05 4.084946e-05 -1.003 -234.7776 987.7831)">
	<stop  offset="0" style="stop-color:#808080;stop-opacity:0.25"/>
	<stop  offset="0.54" style="stop-color:#808080;stop-opacity:0.12"/>
	<stop  offset="1" style="stop-color:#808080;stop-opacity:0.1"/>
</linearGradient>
<polygon class="st38" points="528.7,469.7 639.2,428.5 655.1,471.4 544.6,512.6 "/>
<rect x="534.1" y="448.8" transform="matrix(0.9372 -0.3489 0.3489 0.9372 -127.0318 236.0739)" class="st8" width="115.5" height="43.7"/>
<rect x="564.5" y="468.7" transform="matrix(0.9372 -0.3489 0.3489 0.9372 -127.5247 231.52)" class="st3" width="29" height="2.2"/>
<rect x="567.5" y="476.9" transform="matrix(0.9372 -0.3489 0.3489 0.9372 -130.2173 233.0918)" class="st6" width="29" height="2.2"/>
<rect x="568.2" y="470.6" transform="matrix(0.9372 -0.3489 0.3489 0.9372 -127.3911 236.0864)" class="st6" width="47.1" height="2.2"/>
<circle class="st6" cx="555.2" cy="483.4" r="5.2"/>
<linearGradient id="SVGID_31_" gradientUnits="userSpaceOnUse" x1="888.2363" y1="449.1744" x2="892.4178" y2="513.1803" gradientTransform="matrix(1.017 -7.659999e-02 -6.140000e-02 -1.0446 -247.0311 1067.0143)">
	<stop  offset="0" style="stop-color:#808080;stop-opacity:0.25"/>
	<stop  offset="0.54" style="stop-color:#808080;stop-opacity:0.12"/>
	<stop  offset="1" style="stop-color:#808080;stop-opacity:0.1"/>
</linearGradient>
<polygon class="st39" points="567.1,508.2 575.3,463 690.7,484.2 682.4,529.3 "/>
<rect x="606.1" y="432.7" transform="matrix(0.1754 -0.9845 0.9845 0.1754 34.9843 1022.5881)" class="st10" width="43.7" height="115.5"/>
<rect x="616.2" y="468.5" transform="matrix(0.1754 -0.9845 0.9845 0.1754 33.5219 1005.9844)" class="st3" width="2.2" height="29"/>
<rect x="614.6" y="477.1" transform="matrix(0.1754 -0.9845 0.9845 0.1754 23.7442 1011.527)" class="st6" width="2.2" height="29"/>
<rect x="624.1" y="465.4" transform="matrix(0.1754 -0.9845 0.9845 0.1754 34.3403 1018.6295)" class="st6" width="2.2" height="46.8"/>
<ellipse class="st6" cx="589.9" cy="482.6" rx="5.2" ry="5.2"/>
<linearGradient id="SVGID_32_" gradientUnits="userSpaceOnUse" x1="578.103" y1="485.1959" x2="578.103" y2="616.59" gradientTransform="matrix(1 0 0 -1 0 1089.8943)">
	<stop  offset="0" style="stop-color:#808080;stop-opacity:0.25"/>
	<stop  offset="0.54" style="stop-color:#808080;stop-opacity:0.12"/>
	<stop  offset="1" style="stop-color:#808080;stop-opacity:0.1"/>
</linearGradient>
<polygon class="st40" points="541.1,486.6 522.1,473.3 495.7,473.3 495.7,486.6 495.7,493.2 495.7,604.7 660.5,604.7 660.5,486.6 
	"/>
<polygon class="st6" points="541.8,487.9 523,475.1 497.1,475.1 497.1,487.9 497.1,494.3 497.1,602.7 659.4,602.7 659.4,487.9 "/>
<linearGradient id="SVGID_33_" gradientUnits="userSpaceOnUse" x1="813.5142" y1="409.9516" x2="813.5142" y2="471.7958" gradientTransform="matrix(1 0 0 -1 -235.26 987.4442)">
	<stop  offset="0" style="stop-color:#B3B3B3;stop-opacity:0.25"/>
	<stop  offset="0.54" style="stop-color:#B3B3B3;stop-opacity:0.1"/>
	<stop  offset="1" style="stop-color:#B3B3B3;stop-opacity:5.000000e-02"/>
</linearGradient>
<path class="st41" d="M622.6,575.6c0,1-0.8,1.9-1.9,1.9h-84.8c-1,0-1.9-0.9-1.9-1.9v-57.9c0-1,0.8-1.9,1.9-1.9h84.8
	c1,0,1.9,0.9,1.9,1.9"/>
<path class="st6" d="M621.6,574.7c0,1-0.8,1.8-1.8,1.8h-82.9c-1,0-1.8-0.8-1.8-1.8v-56c0-1,0.8-1.8,1.8-1.8h82.8
	c1,0,1.8,0.8,1.8,1.8"/>
<linearGradient id="SVGID_34_" gradientUnits="userSpaceOnUse" x1="578.2542" y1="515.7604" x2="578.2542" y2="570.5511" gradientTransform="matrix(1 0 0 -1 0 1089.8943)">
	<stop  offset="0" style="stop-color:#B3B3B3;stop-opacity:0.25"/>
	<stop  offset="0.54" style="stop-color:#B3B3B3;stop-opacity:0.1"/>
	<stop  offset="1" style="stop-color:#B3B3B3;stop-opacity:5.000000e-02"/>
</linearGradient>
<path class="st42" d="M540.6,519.4h75.4c1.3,0,2.3,1,2.3,2.3v50.1c0,1.3-1,2.3-2.3,2.3h-75.4c-1.3,0-2.3-1-2.3-2.3v-50.1
	C538.3,520.4,539.3,519.4,540.6,519.4z"/>
<path class="st6" d="M541.6,520.7h73.3c1.3,0,2.3,1,2.3,2.3v47.2c0,1.3-1,2.3-2.3,2.3h-73.3c-1.3,0-2.3-1-2.3-2.3V523
	C539.3,521.7,540.3,520.7,541.6,520.7z"/>
<g>
	<g>
		<g>
			<g>
				<defs>
					<path id="SVGID_35_" d="M541.6,520.7h73.3c1.3,0,2.3,1,2.3,2.3v47.2c0,1.3-1,2.3-2.3,2.3h-73.3c-1.3,0-2.3-1-2.3-2.3V523
						C539.3,521.7,540.3,520.7,541.6,520.7z"/>
				</defs>
				<clipPath id="SVGID_36_">
					<use xlink:href="#SVGID_35_"  style="overflow:visible;"/>
				</clipPath>
				<g class="st43">
					<path class="st15" d="M534.8,572.1l21.8-25c1.5-1.8,4.3-1.9,6.1-0.4l0,0l6.1,5.3c1.6,1.4,4,1.4,5.6,0.1l18.7-15.6
						c1.7-1.5,4.5-1.3,6,0.4l22.9,25.2c0.6,0.7,1,1.6,1,2.5l0.9,9.9c0.2,2.3-1.5,4.5-4,4.7h-82c-2.3,0-4.2-1.8-4.3-4.2l0,0
						C533.8,574.1,534.1,572.9,534.8,572.1z"/>
				</g>
			</g>
		</g>
	</g>
</g>
<circle class="st15" cx="548.6" cy="528.9" r="4.8"/>
<rect x="-426.5" y="398.5" class="st44" width="378" height="20"/>
<rect x="-348" y="233.1" class="st15" width="270" height="127"/>
</svg>
