<svg id="b7479f35-b76c-414d-9259-8a40bcbac55e" xmlns="http://www.w3.org/2000/svg" xmlns:xlink="http://www.w3.org/1999/xlink" viewBox="0 0 963.16 818.07"><defs><style>.cls-1{fill:none;}.cls-2{fill:#ed761b;}.cls-2,.cls-21{opacity:0.1;isolation:isolate;}.cls-3{fill:#3f3d56;}.cls-4{fill:url(#Dégradé_sans_nom_5);}.cls-5{fill:#f5f5f5;}.cls-6{fill:url(#Dégradé_sans_nom_5-2);}.cls-7{fill:#f4f4f4;}.cls-8{fill:#fff;}.cls-9{fill:url(#Dégradé_sans_nom_5-3);}.cls-10{fill:#f7f7f7;}.cls-11{fill:url(#Dégradé_sans_nom_5-4);}.cls-12{fill:#fafafa;}.cls-13{fill:url(#Dégradé_sans_nom_5-5);}.cls-14{fill:url(#Dégradé_sans_nom_7);}.cls-15{fill:url(#Dégradé_sans_nom_7-2);}.cls-16{clip-path:url(#clip-path);}.cls-17{fill:#f70;}.cls-18{fill:#ff5252;}.cls-19{fill:#ffb9b9;}.cls-20{fill:#2f2e41;}.cls-22{fill:#575a89;}.cls-23{fill:url(#Dégradé_sans_nom_5-6);}.cls-24{fill:url(#Dégradé_sans_nom_5-7);}.cls-25{fill:url(#Dégradé_sans_nom_5-8);}.cls-26{fill:url(#Dégradé_sans_nom_5-9);}.cls-27{fill:url(#Dégradé_sans_nom_5-10);}.cls-28{fill:url(#Dégradé_sans_nom_7-3);}.cls-29{fill:url(#Dégradé_sans_nom_7-4);}.cls-30{clip-path:url(#clip-path-2);}.cls-31{fill:url(#Dégradé_sans_nom_5-11);}.cls-32{fill:url(#Dégradé_sans_nom_5-12);}.cls-33{fill:url(#Dégradé_sans_nom_5-13);}.cls-34{fill:url(#Dégradé_sans_nom_5-14);}.cls-35{fill:url(#Dégradé_sans_nom_5-15);}.cls-36{fill:url(#Dégradé_sans_nom_7-5);}.cls-37{fill:url(#Dégradé_sans_nom_7-6);}.cls-38{clip-path:url(#clip-path-3);}.cls-39{fill:url(#Dégradé_sans_nom_5-16);}.cls-40{fill:url(#Dégradé_sans_nom_5-17);}.cls-41{fill:url(#Dégradé_sans_nom_5-18);}.cls-42{fill:url(#Dégradé_sans_nom_5-19);}.cls-43{fill:url(#Dégradé_sans_nom_5-20);}.cls-44{fill:url(#Dégradé_sans_nom_7-7);}.cls-45{fill:url(#Dégradé_sans_nom_7-8);}.cls-46{clip-path:url(#clip-path-4);}</style><linearGradient id="Dégradé_sans_nom_5" x1="460.46" y1="199.12" x2="460.46" y2="306.26" gradientTransform="matrix(1, 0, 0, -1, 0, 817.28)" gradientUnits="userSpaceOnUse"><stop offset="0" stop-color="gray" stop-opacity="0.25"/><stop offset="0.54" stop-color="gray" stop-opacity="0.12"/><stop offset="1" stop-color="gray" stop-opacity="0.1"/></linearGradient><linearGradient id="Dégradé_sans_nom_5-2" x1="523.67" y1="217.84" x2="534.1" y2="285.98" gradientTransform="matrix(1.01, 0.13, 0.13, -1.02, -200.85, 669.38)" xlink:href="#Dégradé_sans_nom_5"/><linearGradient id="Dégradé_sans_nom_5-3" x1="633.14" y1="180.84" x2="633.14" y2="259.45" gradientTransform="matrix(0.94, 0.35, 0.35, -0.94, -272.27, 480.09)" xlink:href="#Dégradé_sans_nom_5"/><linearGradient id="Dégradé_sans_nom_5-4" x1="690.27" y1="190.37" x2="694.18" y2="250.23" gradientTransform="matrix(0.26, 0.99, 1.02, -0.25, 27.21, -116.78)" xlink:href="#Dégradé_sans_nom_5"/><linearGradient id="Dégradé_sans_nom_5-5" x1="384.95" y1="197.15" x2="384.95" y2="319.98" xlink:href="#Dégradé_sans_nom_5"/><linearGradient id="Dégradé_sans_nom_7" x1="620.35" y1="120.14" x2="620.35" y2="177.94" gradientTransform="matrix(1, 0, 0, -1, -235.26, 714.83)" gradientUnits="userSpaceOnUse"><stop offset="0" stop-color="#b3b3b3" stop-opacity="0.25"/><stop offset="0.54" stop-color="#b3b3b3" stop-opacity="0.1"/><stop offset="1" stop-color="#b3b3b3" stop-opacity="0.05"/></linearGradient><linearGradient id="Dégradé_sans_nom_7-2" x1="385.15" y1="225.78" x2="385.15" y2="276.98" gradientTransform="matrix(1, 0, 0, -1, 0, 817.28)" xlink:href="#Dégradé_sans_nom_7"/><clipPath id="clip-path"><rect class="cls-1" x="348.65" y="541.55" width="72.94" height="48.51" rx="2.21"/></clipPath><linearGradient id="Dégradé_sans_nom_5-6" x1="661.57" y1="494.93" x2="661.57" y2="602.07" xlink:href="#Dégradé_sans_nom_5"/><linearGradient id="Dégradé_sans_nom_5-7" x1="761.28" y1="474.33" x2="771.71" y2="542.47" gradientTransform="matrix(1.01, 0.13, 0.13, -1.02, -273.07, 604.3)" xlink:href="#Dégradé_sans_nom_5"/><linearGradient id="Dégradé_sans_nom_5-8" x1="834.25" y1="476.65" x2="834.25" y2="555.26" gradientTransform="matrix(0.94, 0.35, 0.35, -0.94, -362.84, 391.33)" xlink:href="#Dégradé_sans_nom_5"/><linearGradient id="Dégradé_sans_nom_5-9" x1="904.88" y1="455.76" x2="908.79" y2="515.61" gradientTransform="matrix(0.26, 0.99, 1.02, -0.25, -98.18, -558.7)" xlink:href="#Dégradé_sans_nom_5"/><linearGradient id="Dégradé_sans_nom_5-10" x1="586.06" y1="492.96" x2="586.06" y2="615.79" xlink:href="#Dégradé_sans_nom_5"/><linearGradient id="Dégradé_sans_nom_7-3" x1="821.46" y1="415.95" x2="821.46" y2="473.75" xlink:href="#Dégradé_sans_nom_7"/><linearGradient id="Dégradé_sans_nom_7-4" x1="586.26" y1="521.58" x2="586.26" y2="572.79" gradientTransform="matrix(1, 0, 0, -1, 0, 817.28)" xlink:href="#Dégradé_sans_nom_7"/><clipPath id="clip-path-2"><rect class="cls-1" x="549.76" y="245.74" width="72.94" height="48.51" rx="2.21"/></clipPath><linearGradient id="Dégradé_sans_nom_5-11" x1="860.93" y1="199.12" x2="860.93" y2="306.26" xlink:href="#Dégradé_sans_nom_5"/><linearGradient id="Dégradé_sans_nom_5-12" x1="912.75" y1="161.72" x2="923.17" y2="229.85" gradientTransform="matrix(1.01, 0.13, 0.13, -1.02, -186.06, 561.55)" xlink:href="#Dégradé_sans_nom_5"/><linearGradient id="Dégradé_sans_nom_5-13" x1="1033.61" y1="180.84" x2="1033.61" y2="259.45" gradientTransform="matrix(0.94, 0.35, 0.35, -0.94, -247.11, 340.37)" xlink:href="#Dégradé_sans_nom_5"/><linearGradient id="Dégradé_sans_nom_5-14" x1="1080.76" y1="159.69" x2="1084.67" y2="219.54" gradientTransform="matrix(0.26, 0.99, 1.02, -0.25, 357.44, -511.03)" xlink:href="#Dégradé_sans_nom_5"/><linearGradient id="Dégradé_sans_nom_5-15" x1="785.42" y1="197.15" x2="785.42" y2="319.98" xlink:href="#Dégradé_sans_nom_5"/><linearGradient id="Dégradé_sans_nom_7-5" x1="1020.81" y1="120.14" x2="1020.81" y2="177.94" xlink:href="#Dégradé_sans_nom_7"/><linearGradient id="Dégradé_sans_nom_7-6" x1="785.62" y1="225.78" x2="785.62" y2="276.98" gradientTransform="matrix(1, 0, 0, -1, 0, 817.28)" xlink:href="#Dégradé_sans_nom_7"/><clipPath id="clip-path-3"><rect class="cls-1" x="749.11" y="541.55" width="72.94" height="48.51" rx="2.21"/></clipPath><linearGradient id="Dégradé_sans_nom_5-16" x1="658.36" y1="199.12" x2="658.36" y2="306.26" xlink:href="#Dégradé_sans_nom_5"/><linearGradient id="Dégradé_sans_nom_5-17" x1="715.94" y1="190.11" x2="726.36" y2="258.24" gradientTransform="matrix(1.01, 0.13, 0.13, -1.02, -193.54, 616.09)" xlink:href="#Dégradé_sans_nom_5"/><linearGradient id="Dégradé_sans_nom_5-18" x1="831.04" y1="180.84" x2="831.04" y2="259.45" gradientTransform="matrix(0.94, 0.35, 0.35, -0.94, -259.84, 411.05)" xlink:href="#Dégradé_sans_nom_5"/><linearGradient id="Dégradé_sans_nom_5-19" x1="883.24" y1="175.21" x2="887.15" y2="235.06" gradientTransform="matrix(0.26, 0.99, 1.02, -0.25, 190.4, -311.6)" xlink:href="#Dégradé_sans_nom_5"/><linearGradient id="Dégradé_sans_nom_5-20" x1="582.85" y1="197.15" x2="582.85" y2="319.98" xlink:href="#Dégradé_sans_nom_5"/><linearGradient id="Dégradé_sans_nom_7-7" x1="818.24" y1="120.14" x2="818.24" y2="177.94" xlink:href="#Dégradé_sans_nom_7"/><linearGradient id="Dégradé_sans_nom_7-8" x1="583.05" y1="225.78" x2="583.05" y2="276.98" gradientTransform="matrix(1, 0, 0, -1, 0, 817.28)" xlink:href="#Dégradé_sans_nom_7"/><clipPath id="clip-path-4"><rect class="cls-1" x="546.54" y="541.55" width="72.94" height="48.51" rx="2.21"/></clipPath></defs><title>content</title><path class="cls-2" d="M559.78,129.38c-59-2-115.18-21.09-168.8-41.9s-106.82-43.9-164.4-55c-37-7.1-79.38-8.11-109.22,11.74-28.71,19.11-38,52.09-43,82.7-3.69,23-6,47.26,4.33,68.81,7.13,15,19.81,27.55,28.57,41.89,30.5,49.87,8.94,111.38-24.11,160.08-15.5,22.85-33.49,44.64-45.46,69s-17.5,52.18-7,77c10.37,24.65,35.1,43,61.89,56,54.41,26.38,118.51,33.93,181,38.2,138.39,9.46,277.5,5.37,416.26,1.23,51.34-1.53,102.92-3.07,153.43-11,28.06-4.41,57-11.41,77.39-28.34,25.87-21.45,32.26-57.76,14.93-84.66-29.06-45.11-109.4-56.32-129.71-104.73-11.18-26.65.31-56.33,16.54-81,34.86-53,93.27-99.53,96.35-160.17,2.12-41.61-26-83.29-69.39-103-45.51-20.64-108.63-18-142.2,16.13C672.62,117.66,611.86,131.19,559.78,129.38Z"/><polygon class="cls-3" points="787.14 470.3 785.38 470.3 785.38 389.4 384.82 389.4 384.82 470.3 383.06 470.3 383.06 387.63 787.14 387.63 787.14 470.3"/><polygon class="cls-4" points="462.21 618.15 435.85 618.15 435.85 511.01 485.08 511.01 462.21 618.15"/><polygon class="cls-5" points="460.9 618.15 435.06 618.15 435.06 511.01 483.31 511.01 460.9 618.15"/><rect class="cls-6" x="311.09" y="460.31" width="109.82" height="42.22" transform="translate(-116.11 116.33) rotate(-15.62)"/><rect class="cls-7" x="312.2" y="460.86" width="107.99" height="40.87" transform="translate(-116.07 116.38) rotate(-15.62)"/><rect class="cls-5" x="340.6" y="478.36" width="27.17" height="2.07" transform="translate(-116 113.07) rotate(-15.62)"/><rect class="cls-8" x="342.84" y="486.34" width="27.17" height="2.07" transform="translate(-118.07 113.97) rotate(-15.62)"/><rect class="cls-8" x="341.41" y="480.13" width="43.66" height="2.07" transform="translate(-116.14 115.58) rotate(-15.62)"/><circle class="cls-8" cx="331.02" cy="490.18" r="4.84"/><rect class="cls-9" x="342.72" y="473.28" width="110.34" height="42.8" transform="translate(-147.59 169.91) rotate(-20.42)"/><rect class="cls-10" x="343.89" y="474.42" width="107.99" height="40.87" transform="translate(-147.65 169.92) rotate(-20.42)"/><rect class="cls-5" x="372.17" y="492.93" width="27.17" height="2.07" transform="translate(-148.1 165.63) rotate(-20.42)"/><rect class="cls-8" x="375.06" y="500.69" width="27.17" height="2.07" transform="translate(-150.63 167.13) rotate(-20.42)"/><rect class="cls-8" x="373.53" y="493.98" width="43.79" height="2.08" transform="matrix(0.94, -0.35, 0.35, 0.94, -147.88, 169.09)"/><circle class="cls-8" cx="363.57" cy="506.65" r="4.84"/><rect class="cls-11" x="410.37" y="458.42" width="43.05" height="110.06" transform="translate(-149.34 848.61) rotate(-79.9)"/><rect class="cls-12" x="411.15" y="459.21" width="40.87" height="107.99" transform="translate(-149.35 848.1) rotate(-79.9)"/><rect class="cls-5" x="420.55" y="492.69" width="2.07" height="27.17" transform="translate(-150.78 832.55) rotate(-79.9)"/><rect class="cls-8" x="419.1" y="500.85" width="2.07" height="27.17" transform="matrix(0.18, -0.98, 0.98, 0.18, -160.01, 837.85)"/><rect class="cls-8" x="427.94" y="489.97" width="2.07" height="43.66" transform="translate(-150.12 844.38) rotate(-79.9)"/><circle class="cls-8" cx="396.04" cy="505.93" r="4.84" transform="translate(-171.51 807.11) rotate(-79.9)"/><polygon class="cls-13" points="350.39 509.75 332.59 497.29 307.95 497.29 307.95 509.75 307.95 515.86 307.95 620.13 461.95 620.13 461.95 509.75 350.39 509.75"/><polygon class="cls-8" points="351.06 511.01 333.53 498.92 309.27 498.92 309.27 511.01 309.27 516.94 309.27 618.15 460.9 618.15 460.9 511.01 351.06 511.01"/><path class="cls-14" d="M426.53,592.87a1.81,1.81,0,0,1-1.8,1.82H345.44a1.82,1.82,0,0,1-1.8-1.82V538.71a1.82,1.82,0,0,1,1.8-1.83h79.29a1.81,1.81,0,0,1,1.8,1.83"/><path class="cls-8" d="M425.6,592a1.75,1.75,0,0,1-1.75,1.75H346.39a1.75,1.75,0,0,1-1.75-1.75V539.63a1.75,1.75,0,0,1,1.75-1.75h77.45a1.75,1.75,0,0,1,1.75,1.75"/><rect class="cls-15" x="347.73" y="540.3" width="74.86" height="51.2" rx="2.21"/><rect class="cls-8" x="348.65" y="541.55" width="72.94" height="48.51" rx="2.21"/><g class="cls-16"><path class="cls-17" d="M344.59,589.62,365,566.28a4.06,4.06,0,0,1,5.72-.39l0,0,5.7,5a4.05,4.05,0,0,0,5.29.06l17.43-14.65a4.05,4.05,0,0,1,5.61.38l21.39,23.54a4.06,4.06,0,0,1,1,2.37l.83,9.28a4.06,4.06,0,0,1-3.68,4.4H347.65a4.06,4.06,0,0,1-4.06-3.93h0A4.05,4.05,0,0,1,344.59,589.62Z"/></g><circle class="cls-18" cx="357.43" cy="549.33" r="4.52"/><rect class="cls-3" x="584.22" y="325.2" width="1.76" height="145.1"/><rect class="cls-3" x="126.5" y="810.39" width="419.65" height="1.83"/><polygon class="cls-8" points="417.57 538.23 389.21 538.23 389.21 509.87 378.66 509.87 378.66 538.23 350.3 538.23 350.3 548.78 378.66 548.78 378.66 577.14 389.21 577.14 389.21 548.78 417.57 548.78 417.57 538.23"/><path class="cls-19" d="M326.86,494.78s18.78,39.13,6.26,40.7-15.65-35.22-15.65-35.22Z"/><polygon class="cls-19" points="255.65 745.2 268.17 767.38 245.48 781.58 240.06 755.38 255.65 745.2"/><path class="cls-20" d="M261,770.47s6.87-11.2,9.36-9.32,12.74,10,12.74,10l13.36,12.79s45.13,4.78,16.45,20.59-44.52,2.7-44.52,2.7-40.17,2.09-39.52-9.12,13.6-28.93,13.6-28.93S258.8,780.11,261,770.47Z"/><path class="cls-21" d="M261,770.47s6.87-11.2,9.36-9.32,12.74,10,12.74,10l13.36,12.79s45.13,4.78,16.45,20.59-44.52,2.7-44.52,2.7-40.17,2.09-39.52-9.12,13.6-28.93,13.6-28.93S258.8,780.11,261,770.47Z"/><path class="cls-20" d="M200.09,494.39l11.74,142s.39,84.91,12.91,101.34,12.91,24.65,12.91,24.65l25.83-13.3s-8.61-.78-4.7-6.26,15.65,0,4.7-7.83-13.31-8.08-10.57-11.47a18.87,18.87,0,0,0,3.52-7.31l-7-87.64L262.69,476Z"/><path class="cls-21" d="M200.09,494.39l11.74,142s.39,84.91,12.91,101.34,12.91,24.65,12.91,24.65l25.83-13.3s-8.61-.78-4.7-6.26,15.65,0,4.7-7.83-13.31-8.08-10.57-11.47a18.87,18.87,0,0,0,3.52-7.31l-7-87.64L262.69,476Z"/><polygon class="cls-19" points="232.17 745.2 221.22 774.15 189.92 762.41 209.48 742.07 232.17 745.2"/><path class="cls-20" d="M216.63,761.7s11.7-7.31,13.16-4.38,7.31,15.35,7.31,15.35l6.58,18.27s40.2,25.59,5.85,27-43.13-18.28-43.13-18.28-38.75-16.81-32.9-27,26.32-20.85,26.32-20.85S210.05,769.74,216.63,761.7Z"/><path class="cls-20" d="M299.47,494.78l6.26,130.69s-30.52,86.86-57.12,100.94c0,0,0,17.22-6.26,20.35a15.74,15.74,0,0,0-7.83,9.39l-34.43-8.61s8.61-8.6,5.48-12.52,10.17-12.52,10.17-12.52l34.43-83.73s5.48-2.35,7-10.17,4.7-7.83-3.13-9.39-7.82-9.39-7.82-9.39l-25.82-119Z"/><circle class="cls-19" cx="271.3" cy="258.46" r="31.3" transform="translate(-27.28 484.85) rotate(-80.78)"/><path class="cls-19" d="M243.52,260.41s-2.35,39.91-5.48,43.83,32.87,3.13,32.87,3.13-2.35-33.65,0-36.78S243.52,260.41,243.52,260.41Z"/><path class="cls-22" d="M233,292.11s29.73-3.13,40.69,6.26a79.61,79.61,0,0,0,11.21,8,23,23,0,0,1,11.15,19l5.81,178s-88.43-7.82-104.86,0c0,0-.78-18-2.35-20.34-1.14-1.72-3.11-70-4.1-106.83a81.21,81.21,0,0,1,20.55-56.66c4.74-5.25,10-9.65,15.64-11.8C226.7,307.76,225.13,292.89,233,292.11Z"/><path class="cls-22" d="M280.69,307.76h0a23.11,23.11,0,0,1,17,19.14l11.16,79.46,15.65,63.38s7.83,7.05,4.7,11S333.12,501,333.12,501l-19.56,6.26s-2.35-16.43-6.26-17.21c-3.44-.69-41.93-103.52-51.21-128.43l-2-5.38S255.65,303.85,280.69,307.76Z"/><path class="cls-21" d="M254.48,355.88,301.82,484S256,397.36,254.48,355.88Z"/><path class="cls-20" d="M255,267.68c2.65-.16,5.23.74,7.86,1.09,9.4,1.25,19.19-5.58,21.26-14.84a11.55,11.55,0,0,1,1.09-3.54c1.45-2.36,4.75-2.81,7.46-2.27s5.3,1.81,8.07,2c4.27.22,8.37-2.41,10.65-6A20.4,20.4,0,0,0,314,231.7l-2.05,2.15a10.38,10.38,0,0,1-.92-5.65,6.55,6.55,0,0,0-6.22,1.59c-1.81.19-.44-3.35-1.78-4.58a3.18,3.18,0,0,0-2.19-.41c-3.84,0-7-2.9-10-5.26a42.36,42.36,0,0,0-17.91-8.17c-4.34-.85-8.95-1-13.07.63a27.91,27.91,0,0,0-8.82,6.26c-6.44,6.2-12.15,13.47-14.83,22a37.07,37.07,0,0,0-.18,21.48c1.08,3.64,4.34,16.12,9.1,16.42C251.09,278.52,247.5,268.13,255,267.68Z"/><path class="cls-3" d="M157.37,812l-.84-.31c-.19-.07-18.55-7.11-27.16-23.06S125,753.49,125,753.3l.2-.87.84.31c.19.07,18.55,7.11,27.16,23.07s4.39,35.17,4.35,35.36Zm-26.62-24.12c7.27,13.49,21.79,20.41,25.47,22,.7-3.94,2.89-19.88-4.38-33.36s-21.79-20.4-25.47-22c-.7,4-2.89,19.88,4.38,33.36Z"/><path class="cls-17" d="M136,783.07c15.46,9.3,21.42,27.78,21.42,27.78s-19.12,3.4-34.58-5.91-21.42-27.78-21.42-27.78S120.48,773.76,136,783.07Z"/><polygon class="cls-23" points="663.32 322.35 636.96 322.35 636.96 215.2 686.19 215.2 663.32 322.35"/><polygon class="cls-5" points="662.01 322.35 636.17 322.35 636.17 215.2 684.42 215.2 662.01 322.35"/><rect class="cls-24" x="512.2" y="164.5" width="109.82" height="42.22" transform="translate(-29.03 159.55) rotate(-15.62)"/><rect class="cls-7" x="513.31" y="165.06" width="107.99" height="40.87" transform="translate(-28.99 159.6) rotate(-15.62)"/><rect class="cls-5" x="541.71" y="182.55" width="27.17" height="2.07" transform="translate(-28.92 156.3) rotate(-15.62)"/><rect class="cls-8" x="543.95" y="190.53" width="27.17" height="2.07" transform="translate(-30.99 157.19) rotate(-15.62)"/><rect class="cls-8" x="542.52" y="184.32" width="43.66" height="2.07" transform="translate(-29.07 158.8) rotate(-15.62)"/><circle class="cls-8" cx="532.13" cy="194.37" r="4.84"/><rect class="cls-25" x="543.83" y="177.47" width="110.34" height="42.8" transform="translate(-31.75 221.49) rotate(-20.42)"/><rect class="cls-10" x="545" y="178.61" width="107.99" height="40.87" transform="translate(-31.81 221.49) rotate(-20.42)"/><rect class="cls-5" x="573.28" y="197.12" width="27.17" height="2.07" transform="translate(-32.26 217.21) rotate(-20.42)"/><rect class="cls-8" x="576.17" y="204.89" width="27.17" height="2.07" transform="translate(-34.79 218.71) rotate(-20.42)"/><rect class="cls-8" x="574.64" y="198.17" width="43.79" height="2.08" transform="translate(-32.02 220.67) rotate(-20.42)"/><circle class="cls-8" cx="564.68" cy="210.84" r="4.84"/><rect class="cls-26" x="611.48" y="162.62" width="43.05" height="110.06" transform="translate(307.72 802.67) rotate(-79.9)"/><rect class="cls-12" x="612.26" y="163.4" width="40.87" height="107.99" transform="translate(307.71 802.16) rotate(-79.9)"/><rect class="cls-5" x="621.66" y="196.88" width="2.07" height="27.17" transform="translate(306.29 786.61) rotate(-79.9)"/><rect class="cls-8" x="620.21" y="205.05" width="2.07" height="27.17" transform="translate(297.06 791.91) rotate(-79.9)"/><rect class="cls-8" x="629.05" y="194.17" width="2.07" height="43.66" transform="translate(306.94 798.44) rotate(-79.9)"/><circle class="cls-8" cx="597.15" cy="210.13" r="4.84" transform="translate(285.56 761.17) rotate(-79.9)"/><polygon class="cls-27" points="551.5 213.94 533.7 201.48 509.06 201.48 509.06 213.94 509.06 220.05 509.06 324.32 663.06 324.32 663.06 213.94 551.5 213.94"/><polygon class="cls-8" points="552.16 215.2 534.64 203.11 510.38 203.11 510.38 215.2 510.38 221.13 510.38 322.35 662.01 322.35 662.01 215.2 552.16 215.2"/><path class="cls-28" d="M627.64,297.06a1.81,1.81,0,0,1-1.8,1.82H546.55a1.82,1.82,0,0,1-1.8-1.82V242.9a1.81,1.81,0,0,1,1.8-1.82h79.29a1.8,1.8,0,0,1,1.8,1.82"/><path class="cls-8" d="M626.71,296.18a1.75,1.75,0,0,1-1.75,1.75H547.5a1.76,1.76,0,0,1-1.75-1.75V243.82a1.75,1.75,0,0,1,1.75-1.75H625a1.75,1.75,0,0,1,1.75,1.75"/><rect class="cls-29" x="548.83" y="244.49" width="74.86" height="51.2" rx="2.21"/><rect class="cls-8" x="549.75" y="245.74" width="72.94" height="48.51" rx="2.21"/><g class="cls-30"><path class="cls-17" d="M545.7,293.81l20.36-23.33a4,4,0,0,1,5.72-.39h0l5.7,5a4,4,0,0,0,5.29.06l17.43-14.64a4,4,0,0,1,5.61.37l21.38,23.54a4,4,0,0,1,1,2.37l.83,9.28a4.06,4.06,0,0,1-3.68,4.4H548.75a4.05,4.05,0,0,1-4-3.93h0A4.05,4.05,0,0,1,545.7,293.81Z"/></g><circle class="cls-18" cx="558.54" cy="253.52" r="4.52"/><polygon class="cls-31" points="862.68 618.15 836.31 618.15 836.31 511.01 885.54 511.01 862.68 618.15"/><polygon class="cls-5" points="861.36 618.15 835.52 618.15 835.52 511.01 883.78 511.01 861.36 618.15"/><rect class="cls-32" x="711.56" y="460.31" width="109.82" height="42.22" transform="translate(-101.32 224.16) rotate(-15.62)"/><rect class="cls-7" x="712.67" y="460.86" width="107.99" height="40.87" transform="translate(-101.28 224.2) rotate(-15.62)"/><rect class="cls-5" x="741.07" y="478.36" width="27.17" height="2.07" transform="translate(-101.21 220.9) rotate(-15.62)"/><rect class="cls-8" x="743.3" y="486.34" width="27.17" height="2.07" transform="translate(-103.28 221.8) rotate(-15.62)"/><rect class="cls-8" x="741.88" y="480.13" width="43.66" height="2.07" transform="translate(-101.35 223.4) rotate(-15.62)"/><circle class="cls-8" cx="731.49" cy="490.18" r="4.84"/><rect class="cls-33" x="743.19" y="473.28" width="110.34" height="42.8" transform="translate(-122.42 309.63) rotate(-20.42)"/><rect class="cls-10" x="744.35" y="474.42" width="107.99" height="40.87" transform="translate(-122.49 309.64) rotate(-20.42)"/><rect class="cls-5" x="772.63" y="492.93" width="27.17" height="2.07" transform="translate(-122.94 305.35) rotate(-20.42)"/><rect class="cls-8" x="775.53" y="500.69" width="27.17" height="2.07" transform="translate(-125.47 306.85) rotate(-20.42)"/><rect class="cls-8" x="773.99" y="493.98" width="43.79" height="2.08" transform="translate(-122.71 308.83) rotate(-20.42)"/><circle class="cls-8" cx="764.04" cy="506.65" r="4.84"/><rect class="cls-34" x="810.83" y="458.42" width="43.05" height="110.06" transform="matrix(0.18, -0.98, 0.98, 0.18, 180.89, 1242.87)"/><rect class="cls-12" x="811.61" y="459.21" width="40.87" height="107.99" transform="translate(180.88 1242.35) rotate(-79.9)"/><rect class="cls-5" x="821.02" y="492.69" width="2.07" height="27.17" transform="translate(179.46 1226.81) rotate(-79.9)"/><rect class="cls-8" x="819.56" y="500.85" width="2.07" height="27.17" transform="translate(170.23 1232.11) rotate(-79.9)"/><rect class="cls-8" x="828.41" y="489.97" width="2.07" height="43.66" transform="translate(180.11 1238.64) rotate(-79.9)"/><circle class="cls-8" cx="796.5" cy="505.93" r="4.84" transform="translate(158.73 1201.37) rotate(-79.9)"/><polygon class="cls-35" points="750.86 509.75 733.06 497.29 708.42 497.29 708.42 509.75 708.42 515.86 708.42 620.13 862.42 620.13 862.42 509.75 750.86 509.75"/><polygon class="cls-8" points="751.52 511.01 734 498.92 709.74 498.92 709.74 511.01 709.74 516.94 709.74 618.15 861.36 618.15 861.36 511.01 751.52 511.01"/><path class="cls-36" d="M827,592.87a1.82,1.82,0,0,1-1.81,1.82H745.91a1.81,1.81,0,0,1-1.8-1.82V538.71a1.81,1.81,0,0,1,1.8-1.83h79.28a1.83,1.83,0,0,1,1.81,1.83"/><path class="cls-8" d="M826.06,592a1.75,1.75,0,0,1-1.75,1.75H746.86a1.75,1.75,0,0,1-1.75-1.75V539.63a1.75,1.75,0,0,1,1.75-1.75H824.3a1.75,1.75,0,0,1,1.75,1.75"/><rect class="cls-37" x="748.19" y="540.3" width="74.86" height="51.2" rx="2.21"/><rect class="cls-8" x="749.11" y="541.55" width="72.94" height="48.51" rx="2.21"/><g class="cls-38"><path class="cls-17" d="M745.05,589.62l20.37-23.34a4.06,4.06,0,0,1,5.72-.39v0l5.7,5a4.05,4.05,0,0,0,5.29.06l17.43-14.65a4,4,0,0,1,5.61.38l21.39,23.54a4.07,4.07,0,0,1,1,2.37l.82,9.28a4.06,4.06,0,0,1-3.68,4.4H748.11a4,4,0,0,1-4.05-3.93h0A4,4,0,0,1,745.05,589.62Z"/></g><circle class="cls-18" cx="757.89" cy="549.33" r="4.52"/><polygon class="cls-39" points="660.11 618.15 633.74 618.15 633.74 511.01 682.97 511.01 660.11 618.15"/><polygon class="cls-5" points="658.79 618.15 632.95 618.15 632.95 511.01 681.21 511.01 658.79 618.15"/><rect class="cls-40" x="508.98" y="460.31" width="109.82" height="42.22" transform="translate(-108.8 169.61) rotate(-15.62)"/><rect class="cls-7" x="510.1" y="460.86" width="107.99" height="40.87" transform="translate(-108.76 169.66) rotate(-15.62)"/><rect class="cls-5" x="538.5" y="478.36" width="27.17" height="2.07" transform="translate(-108.69 166.36) rotate(-15.62)"/><rect class="cls-8" x="540.73" y="486.34" width="27.17" height="2.07" transform="translate(-110.76 167.25) rotate(-15.62)"/><rect class="cls-8" x="539.31" y="480.13" width="43.66" height="2.07" transform="translate(-108.83 168.86) rotate(-15.62)"/><circle class="cls-8" cx="528.92" cy="490.18" r="4.84"/><rect class="cls-41" x="540.61" y="473.28" width="110.34" height="42.8" transform="translate(-135.15 238.95) rotate(-20.42)"/><rect class="cls-10" x="541.78" y="474.42" width="107.99" height="40.87" transform="translate(-135.22 238.96) rotate(-20.42)"/><rect class="cls-5" x="570.06" y="492.93" width="27.17" height="2.07" transform="translate(-135.67 234.67) rotate(-20.42)"/><rect class="cls-8" x="572.96" y="500.69" width="27.17" height="2.07" transform="translate(-138.2 236.17) rotate(-20.42)"/><rect class="cls-8" x="571.42" y="493.98" width="43.79" height="2.08" transform="matrix(0.94, -0.35, 0.35, 0.94, -135.44, 238.14)"/><circle class="cls-8" cx="561.46" cy="506.65" r="4.84"/><rect class="cls-42" x="608.26" y="458.42" width="43.05" height="110.06" transform="matrix(0.18, -0.98, 0.98, 0.18, 13.84, 1043.44)"/><rect class="cls-12" x="609.04" y="459.21" width="40.87" height="107.99" transform="translate(13.84 1042.92) rotate(-79.9)"/><rect class="cls-5" x="618.44" y="492.69" width="2.07" height="27.17" transform="translate(12.41 1027.37) rotate(-79.9)"/><rect class="cls-8" x="616.99" y="500.85" width="2.07" height="27.17" transform="translate(3.18 1032.68) rotate(-79.9)"/><rect class="cls-8" x="625.84" y="489.97" width="2.07" height="43.66" transform="translate(13.07 1039.21) rotate(-79.9)"/><circle class="cls-8" cx="593.93" cy="505.93" r="4.84" transform="translate(-8.32 1001.94) rotate(-79.9)"/><polygon class="cls-43" points="548.28 509.75 530.49 497.29 505.85 497.29 505.85 509.75 505.85 515.86 505.85 620.13 659.85 620.13 659.85 509.75 548.28 509.75"/><polygon class="cls-8" points="548.95 511.01 531.42 498.92 507.17 498.92 507.17 511.01 507.17 516.94 507.17 618.15 658.79 618.15 658.79 511.01 548.95 511.01"/><path class="cls-44" d="M624.43,592.87a1.82,1.82,0,0,1-1.81,1.82H543.34a1.82,1.82,0,0,1-1.81-1.82V538.71a1.83,1.83,0,0,1,1.81-1.83h79.28a1.83,1.83,0,0,1,1.81,1.83"/><path class="cls-8" d="M623.49,592a1.75,1.75,0,0,1-1.75,1.75H544.29a1.75,1.75,0,0,1-1.75-1.75V539.63a1.75,1.75,0,0,1,1.75-1.75h77.44a1.75,1.75,0,0,1,1.75,1.75"/><rect class="cls-45" x="545.62" y="540.3" width="74.86" height="51.2" rx="2.21"/><rect class="cls-8" x="546.54" y="541.55" width="72.94" height="48.51" rx="2.21"/><g class="cls-46"><path class="cls-17" d="M542.48,589.62l20.37-23.34a4.06,4.06,0,0,1,5.72-.39v0l5.7,5a4.05,4.05,0,0,0,5.29.06L597,556.35a4,4,0,0,1,5.61.38L624,580.27a4.07,4.07,0,0,1,1,2.37l.82,9.28a4.06,4.06,0,0,1-3.68,4.4H545.54a4,4,0,0,1-4-3.93h0A4,4,0,0,1,542.48,589.62Z"/></g><circle class="cls-18" cx="555.32" cy="549.33" r="4.52"/></svg>