<svg id="b7479f35-b76c-414d-9259-8a40bcbac55e" xmlns="http://www.w3.org/2000/svg" viewBox="0 0 963.16 818.07"><defs><style>.cls-1{fill:#f0f0f0;}.cls-2{fill:#2f2e41;}.cls-3{fill:#a0616a;}.cls-4{fill:#575a89;}.cls-5{opacity:0.1;}.cls-11,.cls-12,.cls-5{isolation:isolate;}.cls-6{fill:#f2f2f2;}.cls-12,.cls-7{fill:none;stroke-miterlimit:10;stroke-width:2px;}.cls-7{stroke:#3f3d56;}.cls-8{fill:#3f3d56;}.cls-9{fill:#e6e8ec;}.cls-10{fill:#fff;}.cls-11{fill:#ccc;}.cls-11,.cls-12{opacity:0.3;}.cls-12{stroke:#f70;}.cls-13{fill:#f70;}</style></defs><title>content</title><polygon class="cls-1" points="275.5 583.03 337.67 485.26 198.44 396.72 126.53 509.8 241.7 583.03 275.5 583.03"/><path class="cls-2" d="M740.62,219.42a1.91,1.91,0,0,1-2.23-.92c-1.79-2.82,1.51-6.46.8-9.73-.58-2.62-3.55-4.17-4.16-6.78s1.23-5.39,0-7.69c-1-1.79-3.37-2.27-5.38-2s-3.93,1.2-6,1.32c-2.71.17-5.3-1-7.95-1.62s-5.89-.36-7.45,1.87c-2,2.85,0,6.83-.66,10.25-.56,2.71-2.83,5-2.88,7.73,0,1,2.57.19,2.43,1.17s1.09.12.11,0a1.94,1.94,0,0,1-1.47-1.75c-.12-.81-1.64-1.08-1.63-1.9.05-1.93-3.43-.63-4-2.47a18.56,18.56,0,0,1,.76-13,26.6,26.6,0,0,0,2.22-5.28c.51-2.55-.3-5.29.54-7.75,1.14-3.31,4.9-5,8.38-5.34s7,.27,10.5-.24c3.1-.45,6.11-1.8,9.24-1.6,3.76.23,7,2.65,9.64,5.37s4.81,5.85,7.77,8.18a15,15,0,0,1,2.49,2.14c1.51,1.84,1.66,4.46,1.24,6.79s-1.33,4.57-1.71,6.92-.25,4.45-.41,6.68a11.68,11.68,0,0,1-2,6.31,5.94,5.94,0,0,1-4.63,2.41c-.63,0-1.16-.54-1.79-.4C741.67,218.35,741.33,219.1,740.62,219.42Z"/><polygon class="cls-3" points="767.45 381.28 765.12 395.56 760.48 389.25 763.13 379.62 767.45 381.28"/><path class="cls-4" d="M764.46,273.35l3.66,9.64s3.65,49.14,3.65,52.79-2.66,50.48-3.66,52.47c0,0-4.31-6.31-10-5.31s-3.32-16.61-3.32-16.61l-5.31-43.5,1-21.92Z"/><path class="cls-5" d="M764.46,273.35l3.66,9.64s3.65,49.14,3.65,52.79-2.66,50.48-3.66,52.47c0,0-4.31-6.31-10-5.31s-3.32-16.61-3.32-16.61l-5.31-43.5,1-21.92Z"/><path class="cls-3" d="M741.88,220.21s-11,27.9-4.65,33.21-35.2-9-35.2-9l1-3.65s13.62-5.31,7-20.59S741.88,220.21,741.88,220.21Z"/><path class="cls-5" d="M741.88,220.21s-11,27.9-4.65,33.21-35.2-9-35.2-9l1-3.65s13.62-5.31,7-20.59S741.88,220.21,741.88,220.21Z"/><path class="cls-4" d="M759.15,592.82s4.65-1.33,7.3,2,12.62,11.63,12.62,11.63,19.26-2,21.92,7.64-30.22,9.63-38.19,7.3-9.63,0-9.63,0-24.58,2-24.58-2,2.33-17.6,2.33-17.6Z"/><path class="cls-4" d="M681.1,615.07l4.32,13.29s13,17.93,5.65,21.58-33.21,7.31-33.21-2.32V629.35s2.65-13,5.31-14.28S681.1,615.07,681.1,615.07Z"/><path class="cls-2" d="M754.44,376.42s14,12.16,13.67,13.82-7,108.27-7,108.27l-3.65,69.07s4.65,16.27,2.32,19.93,3.32,4.65,3.32,4.65-23.91,21.58-33.87,12.28L720,483.89l-25.57,87.68s-4.32,46.49-9.3,46.49-25.24,1-24.91-1.66-1-22.91,1.33-34.87,17.93-106.6,17.93-106.6,1.35-81.14-2.15-88.73,1.82-15.55,1.82-15.55l23.25-9L730.25,365Z"/><circle class="cls-3" cx="726.27" cy="208.25" r="23.25"/><path class="cls-4" d="M669.81,258.4a20.85,20.85,0,0,1,14.61-13.28,128.85,128.85,0,0,0,19.6-6.65s23.58,11.3,28.23,11.3,4.65-3,4.65-3,12,12.62,18.26,14,15.61,16.93,12.29,25.57a48.29,48.29,0,0,1-9.63,14.94s1.33,46.49-3,55.13c0,0,10.63,20.26.66,21.59s-48.15-3.33-54.79,1.32-18.93-1-20.59,5.32-5.32,7.64-5.32,7.64-5.64-9-2.32-14.28S669.81,258.4,669.81,258.4Z"/><path class="cls-3" d="M694.39,383.27l5.31,3.32s-5.64,19.59-8,20.26-7.8-16.76-7.8-16.76Z"/><path class="cls-2" d="M744.61,217.1a1.91,1.91,0,0,1-2.23-.93c-1.79-2.82,1.51-6.46.79-9.73-.57-2.61-3.54-4.17-4.15-6.78s1.23-5.39,0-7.68c-1-1.8-3.37-2.27-5.39-2s-3.93,1.2-6,1.33c-2.72.16-5.3-1-7.95-1.62s-5.89-.36-7.45,1.86c-2,2.86,0,6.84-.67,10.26-.55,2.71-6.86,4.62-7.44,2.78a18.7,18.7,0,0,1,.76-13,25.79,25.79,0,0,0,2.22-5.28c.51-2.55-.29-5.28.55-7.74,1.13-3.32,4.89-5,8.38-5.35s7,.27,10.49-.23c3.11-.46,6.12-1.8,9.25-1.61,3.76.24,7,2.66,9.63,5.38s4.82,5.84,7.78,8.17a15.44,15.44,0,0,1,2.49,2.15c1.51,1.83,1.66,4.45,1.24,6.79s-1.33,4.57-1.72,6.91-.25,4.46-.4,6.68a11.8,11.8,0,0,1-2,6.31,6,6,0,0,1-4.63,2.42c-.63,0-1.16-.55-1.79-.4C745.65,216,745.31,216.77,744.61,217.1Z"/><path class="cls-5" d="M682.93,264.21l-10.79-5.81s-26.24,62.43-19.93,79.7,30.55,52.81,30.55,52.81,19.27-4,17.27-8-14.94-29.56-15.94-32.88-7.64-24.91-4.65-27.23,8.8-56.29,8.8-56.29Z"/><path class="cls-4" d="M683.1,254.75l-13.29,3.65s-26.23,62.43-19.92,79.7,30.55,52.81,30.55,52.81,19.26-4,17.27-8-15-29.56-15.94-32.88-7.64-24.91-4.65-27.23,17.27-59.78,17.27-59.78Z"/><rect class="cls-1" x="568.83" y="204.84" width="52" height="52" transform="translate(62.27 582.25) rotate(-54.63)"/><ellipse class="cls-6" cx="257.23" cy="729.65" rx="182.62" ry="12.01"/><ellipse class="cls-6" cx="700.98" cy="680.07" rx="182.62" ry="12.01"/><line class="cls-7" x1="74.6" y1="656.03" x2="698.5" y2="656.1"/><circle class="cls-7" cx="627.6" cy="301.03" r="11"/><rect class="cls-7" x="184.6" y="143.03" width="24" height="24"/><rect class="cls-7" x="215.6" y="478.03" width="24" height="24"/><line class="cls-7" x1="85.58" y1="657.91" x2="85.58" y2="583.5"/><circle class="cls-8" cx="85.58" cy="583.5" r="10.52"/><path class="cls-8" d="M85.58,629.36S84.07,597,53.26,600.79"/><rect class="cls-8" x="558.41" y="207.88" width="8.52" height="70.26" rx="2.29"/><rect class="cls-8" x="275.12" y="152.84" width="4.78" height="23.13" rx="1.5"/><rect class="cls-8" x="274.95" y="195.18" width="5.39" height="40.26" rx="1.69"/><rect class="cls-8" x="275.03" y="249.53" width="5.13" height="40.61" rx="1.61"/><rect class="cls-8" x="277.83" y="76.4" width="285.18" height="579.58" rx="35.69"/><rect class="cls-9" x="392.91" y="93.71" width="39.82" height="8.09" rx="2.54"/><circle class="cls-9" cx="443.34" cy="97.75" r="4.59"/><path class="cls-10" d="M545.39,114.15V618.24a22.64,22.64,0,0,1-22.65,22.64H318.09a22.64,22.64,0,0,1-22.65-22.64V114.15A22.65,22.65,0,0,1,318.09,91.5h30.62v3.93a18.67,18.67,0,0,0,18.66,18.65H471.44a18.65,18.65,0,0,0,18.65-18.65V91.5h32.65a22.65,22.65,0,0,1,22.65,22.65Z"/><rect class="cls-11" x="295.24" y="176" width="250.38" height="171.88"/><rect class="cls-11" x="295.24" y="404.07" width="250.38" height="171.88"/><line class="cls-12" x1="295.24" y1="176" x2="545.62" y2="347.88"/><line class="cls-12" x1="545.62" y1="176" x2="295.24" y2="347.88"/><line class="cls-12" x1="295.24" y1="404.07" x2="545.62" y2="575.95"/><line class="cls-12" x1="545.62" y1="404.07" x2="295.24" y2="575.95"/><rect class="cls-13" x="585.29" y="508.19" width="250.38" height="171.88"/><polygon class="cls-8" points="835.67 680.07 782.6 576.4 764.61 625.53 700.98 532.15 658.83 590 638.35 565.33 585.29 630.92 585.29 680.07 835.67 680.07"/><circle class="cls-8" cx="805.1" cy="547.85" r="18.18"/><rect class="cls-13" x="126.67" y="556.12" width="250.38" height="171.88"/><rect class="cls-8" x="146.91" y="594.13" width="209.89" height="9.92"/><rect class="cls-8" x="146.91" y="615.61" width="209.89" height="9.92"/><rect class="cls-8" x="146.91" y="637.1" width="209.89" height="9.92"/><rect class="cls-8" x="146.91" y="658.58" width="209.89" height="9.92"/><rect class="cls-8" x="146.91" y="680.07" width="209.89" height="9.92"/></svg>