<?xml version="1.0" encoding="utf-8"?>
<!-- Generator: Adobe Illustrator 23.0.6, SVG Export Plug-In . SVG Version: 6.00 Build 0)  -->
<svg version="1.1" id="Calque_1" xmlns="http://www.w3.org/2000/svg" xmlns:xlink="http://www.w3.org/1999/xlink" x="0px" y="0px"
	 viewBox="0 0 963.2 819.9" style="enable-background:new 0 0 963.2 819.9;" xml:space="preserve">
<style type="text/css">
	.st0{opacity:0.1;fill:#7E64D0;enable-background:new    ;}
	.st1{fill:url(#SVGID_1_);}
	.st2{fill:#FFFFFF;}
	.st3{opacity:4.000000e-02;fill:#FFFFFF;enable-background:new    ;}
	.st4{fill:#5A5773;}
	.st5{opacity:0.2;fill:#7E64D0;enable-background:new    ;}
	.st6{opacity:0.1;fill:#5A5773;enable-background:new    ;}
	.st7{opacity:0.1;enable-background:new    ;}
	.st8{fill:#7E64D0;}
	.st9{fill:url(#SVGID_2_);}
	.st10{fill:#C37098;}
	.st11{fill:#3F3D56;}
	.st12{fill:none;}
	.st13{opacity:0.1;stroke:#7E64D0;stroke-miterlimit:10;enable-background:new    ;}
	.st14{opacity:0.1;}
	.st15{fill:#535461;}
	.st16{fill:#9D9CB5;}
	.st17{fill:none;stroke:#535461;stroke-width:2;stroke-miterlimit:10;}
</style>
<title>security</title>
<path class="st0" d="M946.9,499.6c-23.8,49.1-72.1,81.9-122.2,103.6C757.3,632.4,683,643.9,609.8,639c-12.8-0.9-25.6-2.2-38.4-4.1
	c-44.3-6.5-87.5-19-128.3-37.4c-11.8-5.3-23.3-11.1-34.7-17.4c-18.9-10.5-37-22.3-54.2-35.4c-4.3-3.3-8.6-6.7-12.8-10.1
	c-2.9-2.4-5.8-4.9-8.7-7.2c-6.2-5-12.5-9.8-19.6-13.4c-2.1-1.1-4.3-2-6.6-2.9c-22.5-8.5-48.4-5.3-71.8,1.3
	c-17.8,5.1-35.1,12-52.9,17c-7.9,2.3-16,4-24.1,5.1c-18.2,2.3-36.7,0.7-54.2-4.8l-1.5-0.5c-2.5-0.8-5-1.7-7.5-2.6l-1.5-0.6
	c-2.4-0.9-4.7-1.9-7-3l-1.5-0.7c-2.4-1.1-4.7-2.3-7-3.5c-0.8-0.4-1.6-0.9-2.4-1.3c-13-7.3-24.8-16.5-35.1-27.3
	c-0.3-0.3-0.6-0.6-0.9-0.9c-1.4-1.5-2.8-3.1-4.2-4.7c-0.5-0.6-1-1.2-1.5-1.8c-1.6-2-3.2-4-4.6-6c-0.2-0.3-0.4-0.6-0.7-0.9
	c-6.1-8.5-11.2-17.6-15.1-27.3c-0.1-0.3-0.2-0.6-0.3-0.9c-1.2-3.1-2.3-6.2-3.3-9.4c-0.4-1.3-0.8-2.7-1.1-4c-0.1-0.4-0.2-0.8-0.3-1.2
	c-4.9-19.5-5.5-39.7-5.5-59.8c0-2.3,0-4.7,0-7c0.1-32.5,0.6-65.6,5.4-97.7c0-0.2,0.1-0.4,0.1-0.7c1.6-10.8,3.8-21.5,6.5-32.1
	c2.9-11.1,6.6-22,11-32.5c11-26,27.1-49.6,44.9-71.5C115.5,76.7,174.5,30.4,243.4,13.1C317.7-5.6,400.3,12.3,460.2,60
	c18.3,14.5,34.7,31.8,55.2,42.9c17.9,9.7,38.9,13.7,58.1,6.1c15.9-6.3,26.2-9.5,44-8.5c36.9,2.1,73.2,9.7,107.8,22.6
	c1.4,0.5,2.8,1,4.2,1.6c90.2,34.5,167.8,103.1,208.1,191.2c1.1,2.3,2.1,4.7,3.1,7C964.8,379.1,973.5,444.9,946.9,499.6z"/>
<ellipse class="st0" cx="119.2" cy="735.6" rx="79.1" ry="12.7"/>
<ellipse class="st0" cx="754.2" cy="803.6" rx="140.2" ry="13.6"/>
<linearGradient id="SVGID_1_" gradientUnits="userSpaceOnUse" x1="466.6591" y1="235.2869" x2="466.6591" y2="717.5391" gradientTransform="matrix(1 0 0 -1 0 819.8898)">
	<stop  offset="0" style="stop-color:#808080;stop-opacity:0.25"/>
	<stop  offset="0.54" style="stop-color:#808080;stop-opacity:0.12"/>
	<stop  offset="1" style="stop-color:#808080;stop-opacity:0.1"/>
</linearGradient>
<path class="st1" d="M52.2,102.4h829c6.2,0,11.2,5,11.2,11.2v459.9c0,6.2-5,11.2-11.2,11.2h-829c-6.2,0-11.2-5-11.2-11.2V113.5
	C41,107.4,46,102.4,52.2,102.4z"/>
<path class="st2" d="M53.5,109.1h826.3c6.2,0,11.2,5,11.2,11.2v451.5c0,6.2-5,11.2-11.2,11.2H53.5c-6.2,0-11.2-5-11.2-11.2V120.3
	C42.3,114.1,47.4,109.1,53.5,109.1z"/>
<path class="st2" d="M53.5,109.1h826.3c6.2,0,11.2,5,11.2,11.2v451.5c0,6.2-5,11.2-11.2,11.2H53.5c-6.2,0-11.2-5-11.2-11.2V120.3
	C42.3,114.1,47.4,109.1,53.5,109.1z"/>
<path class="st3" d="M53.5,109.1h826.3c6.2,0,11.2,5,11.2,11.2v451.5c0,6.2-5,11.2-11.2,11.2H53.5c-6.2,0-11.2-5-11.2-11.2V120.3
	C42.3,114.1,47.4,109.1,53.5,109.1z"/>
<path class="st4" d="M886.8,103.7H46.7c-2.4,0-4.3,1.9-4.3,4.3v18.2H891V108C891,105.6,889.1,103.7,886.8,103.7z"/>
<g>
	<circle class="st2" cx="59.3" cy="115" r="5.8"/>
	<circle class="st2" cx="75" cy="115" r="5.8"/>
	<circle class="st2" cx="90.6" cy="115" r="5.8"/>
</g>
<rect x="112.2" y="168.6" class="st5" width="227.8" height="19.3"/>
<rect x="112.2" y="246.1" class="st6" width="708.9" height="297.4"/>
<path class="st7" d="M527.3,265.5h-12.1v-23.6c0-26.6-21.2-48.7-47.8-49.1c-26.9-0.3-48.9,21.3-49.1,48.1c0,0.1,0,0.2,0,0.4v24.2
	h-12.1c-11.1,0-20.2,9.1-20.2,20.2v96.9c0,11.1,9.1,20.2,20.2,20.2h121.2c11.1,0,20.2-9.1,20.2-20.2v-96.9
	C547.5,274.5,538.5,265.5,527.3,265.5z M473.8,328.5v34.7c0,3.8-2.9,7-6.7,7.3c-3.9,0.2-7.2-2.8-7.4-6.7c0-0.1,0-0.2,0-0.3v-34.9
	c-8-3.9-11.3-13.6-7.4-21.6c3.9-8,13.6-11.3,21.6-7.4c8,3.9,11.3,13.6,7.4,21.6C479.7,324.3,477,326.9,473.8,328.5L473.8,328.5z
	 M501.1,265.5h-68.7v-24.2c0-19,15.4-34.3,34.3-34.3c19,0,34.3,15.4,34.3,34.3L501.1,265.5z"/>
<path class="st8" d="M527.3,263.7h-12.1v-23.6c0-26.6-21.2-48.7-47.8-49.1c-26.9-0.3-48.9,21.3-49.1,48.1c0,0.1,0,0.2,0,0.4v24.2
	h-12.1c-11.1,0-20.2,9.1-20.2,20.2v96.9c0,11.1,9.1,20.2,20.2,20.2h121.2c11.1,0,20.2-9.1,20.2-20.2v-96.9
	C547.5,272.7,538.5,263.7,527.3,263.7z M473.8,326.7v34.7c0,3.8-2.9,7-6.7,7.3c-3.9,0.2-7.2-2.8-7.4-6.7c0-0.1,0-0.2,0-0.3v-34.9
	c-8-3.9-11.3-13.6-7.4-21.6c3.9-8,13.6-11.3,21.6-7.4c8,3.9,11.3,13.6,7.4,21.6C479.7,322.5,477,325.1,473.8,326.7L473.8,326.7z
	 M501.1,263.7h-68.7v-24.2c0-19,15.4-34.3,34.3-34.3c19,0,34.3,15.4,34.3,34.3L501.1,263.7z"/>
<rect x="749.4" y="217.5" class="st6" width="71.8" height="16.9"/>
<linearGradient id="SVGID_2_" gradientUnits="userSpaceOnUse" x1="785.7287" y1="-32.5967" x2="785.7287" y2="473.8563" gradientTransform="matrix(1 0 0 -1 -26.97 779.8497)">
	<stop  offset="0" style="stop-color:#808080;stop-opacity:0.25"/>
	<stop  offset="0.54" style="stop-color:#808080;stop-opacity:0.12"/>
	<stop  offset="1" style="stop-color:#808080;stop-opacity:0.1"/>
</linearGradient>
<path class="st9" d="M845.6,807.7c-0.5-2.4-1.3-4.7-2.4-6.8l-10.8-16.1h0.1c0,0-1.7-8.1,0-12s-6-13.7-6-13.7s-0.9-2.4,1.5-5.5
	c2.5-3-1.5-11.8-1.5-11.8s-1.9-18.4-2.1-21.2c-0.2-2.8-1.7-18.4-1.7-18.4l-3.6-33l-6.4-87.6l-0.1-1.6c0.8-0.4,1.2-0.6,1.2-0.6
	l-1.3-48.4l1.1-1c9.6-8.7,31.8-28.9,31.6-29.3c-0.2-0.4-2.7-33.7-3-42c-0.2-5.9-1.5-11.7-3.8-17.2c-0.6-1.1-2.2-8.4-2.8-11.4
	c-0.2-0.8-0.3-1.4-0.3-1.4s-6.5-12.4-5.9-18c0.6-5.6,1.7-9.9-12.2-11.8c0,0-11.6-1.7-18.6-6.5c-4.1-2.8-8.6-5.1-13.3-6.7
	c0,0-3.9-7.2-6.6-4.7c-1.1-2.6-2-5.2-2.6-8l-0.1-0.5c5.1-3.6,8.8-8.9,10.4-14.9c0.1-0.3,0.2-0.7,0.2-1c0.3,0.1,0.5,0.1,0.8,0.2
	c2.4,0,3.8-2.6,6-3.5c0.9-0.3,2-0.4,2.7-1.1c0.5-0.6,0.7-1.3,0.6-2c0-0.2,0-0.5,0-0.7c0-0.1,0-0.2,0-0.3v0.1
	c-0.6-3.3-3.1-6.2-2.8-9.5c0.3-3.1,3-5.9,2.8-8.9c0-0.2,0-0.5-0.1-0.7v0.1c-0.3-1.2-0.9-2.3-1.8-3.2c-1-1.3-2.2-2.4-3.7-3.1
	c-1.2-0.5-2.7-0.7-3.9-1.3c-3.4-1.9-3.4-6.7-5.4-10c-1.8-2.8-5-4.4-8.3-4.1c-2.5,0.3-4.8,1.6-7.4,2c-3.4,0.6-6.9-0.5-10.2-1.8
	c-3.3-1.3-6.6-2.7-10.1-2.7c-3.5,0-7.3,1.8-8.3,5.1c-0.6,1.8-0.3,3.7-0.7,5.5c-0.8,3.2-3.6,5.5-6.5,7.1c-1.8,1-3.9,2.1-4.5,4
	c0-0.1,0-0.1,0-0.1c0,0.2-0.1,0.3-0.1,0.5c0,0.2,0,0.4,0,0.6c0,1.3,0.7,2.5,1.1,3.7c0.9,2.3,0.8,4.9-0.1,7.2
	c-0.7,1.7-1.8,3.2-2.4,4.9c-0.3,0.8-0.5,1.6-0.6,2.5v-0.1c0,0.4,0,0.8,0,1.1c0,1.3,0.3,2.6,0.9,3.8c0.8,1.6,2.3,2.8,4,3.4
	c1.8,0.4,2.9-1.3,4.8-0.9c0.3,0.1,0.7,0.2,1,0.3c0.1,0.4,0.1,0.8,0.2,1.2c1.1,6,4.4,11.5,9.1,15.4c0,0.2,0.1,0.4,0.1,0.7l0,0
	c0.6,3.6,0.8,7.2,0.7,10.8c0,0-2.8-4.1-6.7,3.8c0,0-10.1,5.8-13.6,6.5s-15.9,5-15.9,5c-1.9,1.3-4.1,2.1-6.4,2.1
	c-3.9,0-7.1,8.4-6.6,13c0.5,4.6-0.3,8-3.9,8.2c-3.6,0.2-1.6,7.5-1.6,7.6l-0.3,1.6c-0.7,3.2-2.2,10.1-2.8,11.2
	c-2.3,5.5-3.6,11.3-3.8,17.2c-0.3,8.3-2.7,41.4-3,42c-0.2,0.4,15,14.3,25.7,24l1.5,1.4l-4.9,45.9c0.3,3.6,2.1,6.9,5.1,9
	c0,0.5,0,1.1-0.1,1.6c-0.2,5.4-0.6,11.9-1.5,13.6c-1.5,3-1.1,19.2-1.1,19.2s-1.5,32.9-3.4,36.4c-1.9,3.6-2.3,11.1-1.7,12.5
	s-1.9,40.9-1.9,40.9l-1.9,17.7c0,0,0.6,16.9-1.1,17.3c-1.7,0.4-2.6,12-2.6,12s-6,8.3-3.4,11.3c2.6,3-0.4,4.3-0.7,5.1
	c-0.3,0.7-5.8,3.6-1.8,14.1c0,0.1,0.1,0.2,0.1,0.3c-3.7,5.2-15.5,21.8-14.7,24.3c0.5,1.6,1.7,3,3.1,3.8c2.8,1.7,7.5,2.4,15.1,0
	c12.5-4,11.6-7,11.6-7c0.1-2.8,2.5-5.1,5.3-5.1c5.2-0.4,9.1-5.2,9.1-5.2l-0.6-2.3l-0.8-3.1c0.1-0.9,0.7-2.5,3.6-3.3
	c4.3-1.3,3.2-9.6,3.2-9.6s-0.4-8.6,1.5-9.8c1.9-1.1,1.1-15.4,1.1-15.4s2.1-10.3,5.1-17.3c3-7,6.6-48.2,6.6-48.2s2.4-20.3,4.7-26.1
	s4.3-22.2,4.3-22.2s14-27,14.1-33.1c0,0,1.8-5.6,3.6,0.6c1.8,6.2,6.8,21,6.8,21l4.9,18.2l5.8,27.2l3.8,22.9c0,0-0.6,8.6,0.9,11.6
	c1.5,3,3.6,9.9,2.5,11.3c-1.1,1.3,2.3,7.5,3.2,8.8s0,29.1,0,29.1s4.3,23.7,10.6,27.8c0.4,0.3,0.9,0.5,1.4,0.7
	c-0.1,2.6-0.2,6-0.1,7.8c0,0.4,0.1,0.8,0.2,1.2c0.6,0.8,7,5.8,8.3,5.8s6,3.3,6.2,4.9c0.2,1.6,13.8,8.3,15.7,8.5
	c1.9,0.2,11.3,1.9,12.5-0.8C845.6,809.4,845.7,808.5,845.6,807.7z M812.2,469.3l1,0.8c0,0,1,7.7,1.7,10.1c0.7,2.3-0.1,6.8-0.1,6.8
	c0.1,1.7,0.4,3.3,1,4.9c0.8,1.7-1.7,5.4-1.7,5.4h-2.3l-0.7-29L812.2,469.3z M744.8,382.7v-0.2C744.8,382.6,744.8,382.7,744.8,382.7
	L744.8,382.7z M710,494.4c-0.3-0.8-0.4-1.6-0.1-2.4c0.2-0.4,0.4-0.9,0.5-1.3c0.3-1.2,0.5-2.4,0.5-3.6c0,0,0,0,0,0
	c-0.1-0.4-0.8-4.6-0.1-6.8s1.7-10.1,1.7-10.1l0.6-0.5l1.5-1.3c0,0,0-0.5,0.1-1.3c0.3,6.8,0.6,14.3,0.2,14.7
	c-0.8,0.7-3.5,8.1-2.8,8.3c0.2,0.1-0.1,3-0.6,7C710.8,496.2,710.4,495.3,710,494.4z"/>
<path class="st10" d="M782.2,389.9V401l-22.9,11.5c0,0-22.7-13.7-17.1-19.2c3.6-3.5,2.9-13,1.9-19.5l0,0c-0.6-3.8-1.2-6.6-1.2-6.6
	s40.8-11.6,34.6-2.8c-2.1,3-2.2,6.8-1.5,10.6C777.4,382.5,782.2,389.9,782.2,389.9z"/>
<path class="st11" d="M719.6,498.9l-2.9,36.3c0,0-4.4-4-10.1-9.2c-10.6-9.7-25.6-23.5-25.5-23.9c0.3-0.6,2.7-33.5,2.9-41.8
	c0.2-5.9,1.5-11.7,3.8-17.1c0.5-1.1,2.1-7.9,2.7-11.1c0.2-1,0.3-1.6,0.3-1.6l4.9-2c0,0,20.6,23,20.6,23.4s-1.4,18.1-1.4,18.1
	l-1.5,1.3l-0.6,0.5c0,0-1,7.7-1.7,10c-0.7,2.3,0.1,6.3,0.1,6.8l0,0c-0.1,1.2-0.2,2.4-0.5,3.6c-0.1,0.5-0.3,0.9-0.5,1.3
	c-0.3,0.8-0.2,1.6,0.1,2.4c0.4,1,0.9,2,1.5,2.9L719.6,498.9z"/>
<path class="st11" d="M844.5,502.1c0.2,0.4-21.8,20.5-31.3,29.2l-4.3,3.9l-2.9-36.3h7.6c0,0,2.5-3.6,1.7-5.3c-0.6-1.6-0.9-3.2-1-4.9
	c0,0,0.8-4.5,0.1-6.8s-1.7-10-1.7-10l-1-0.8l-1.1-1c0,0-1.4-17.7-1.4-18.1c0-0.4,20.6-23.4,20.6-23.4l4.9,2c0,0,0.1,0.5,0.3,1.4
	c0.7,3.1,2.2,10.3,2.8,11.4c2.3,5.4,3.5,11.2,3.8,17.1C841.8,468.6,844.2,501.5,844.5,502.1z"/>
<path class="st11" d="M844.5,810.2c-1.3,2.6-10.6,0.9-12.5,0.8c-1.9-0.1-15.4-6.9-15.6-8.5c-0.2-1.6-4.9-4.9-6.2-4.9
	c-1.3,0-7.7-5.1-8.2-5.8c-0.1-0.4-0.2-0.8-0.2-1.2c-0.2-3.1,0.2-11,0.2-11l27.1,1.5l13.2,19.8c1.1,2.1,1.9,4.4,2.4,6.8
	C844.9,808.5,844.8,809.4,844.5,810.2z"/>
<path class="st7" d="M844.5,810.2c-1.3,2.6-10.6,0.9-12.5,0.8c-1.9-0.1-15.4-6.9-15.6-8.5c-0.2-1.6-4.9-4.9-6.2-4.9
	c-1.3,0-7.7-5.1-8.2-5.8c-0.1-0.4-0.2-0.8-0.2-1.2c-0.2-3.1,0.2-11,0.2-11l27.1,1.5l13.2,19.8c1.1,2.1,1.9,4.4,2.4,6.8
	C844.9,808.5,844.8,809.4,844.5,810.2z"/>
<path class="st7" d="M844.5,810.2c-1.3,2.6-10.6,0.9-12.5,0.8c-1.9-0.1-15.4-6.9-15.6-8.5c-0.2-1.6-4.9-4.9-6.2-4.9
	c-1.3,0-7.7-5.1-8.2-5.8c-0.1-0.4-0.2-0.8-0.2-1.2l8.8,5.6c0,0,5.6,3.6,7.1,5.7c1.5,2.1,13.3,6.5,14.3,6.6c0.7,0.1,8.5-1.4,12.7-0.8
	C844.9,808.5,844.8,809.4,844.5,810.2z"/>
<path class="st11" d="M716.4,793.8c0,0-3.8,4.8-9,5.1c-2.8,0-5.1,2.2-5.2,5c0,0,0.9,2.9-11.5,6.9c-7.5,2.4-12.2,1.6-14.9,0
	c-1.5-0.8-2.6-2.1-3.1-3.7c-0.8-3,15.7-25.7,15.7-25.7l15-0.9l10.8,4.9l1.6,6.2L716.4,793.8z"/>
<path class="st7" d="M716.4,793.8c0,0-3.8,4.8-9,5.1c-2.8,0-5.1,2.2-5.2,5c0,0,0.9,2.9-11.5,6.9c-7.5,2.4-12.2,1.6-14.9,0
	c-1.5-0.8-2.6-2.1-3.1-3.7c-0.8-3,15.7-25.7,15.7-25.7l15-0.9l10.8,4.9l1.6,6.2L716.4,793.8z"/>
<path class="st12" d="M716.4,793.8c0,0-3.8,4.8-9,5.1c-2.8,0-5.1,2.2-5.2,5c0,0,0.9,2.9-11.5,6.9c-7.5,2.4-12.2,1.6-14.9,0
	c7.1-0.7,22.6-5.2,24.2-6.7c1.9-1.9,4.2-7,5.8-7.1c1.1-0.1,6.7-3.4,10.1-5.5L716.4,793.8z"/>
<path class="st7" d="M716.4,793.8c0,0-3.8,4.8-9,5.1c-2.8,0-5.1,2.2-5.2,5c0,0,0.9,2.9-11.5,6.9c-7.5,2.4-12.2,1.6-14.9,0
	c7.1-0.7,22.6-5.2,24.2-6.7c1.9-1.9,4.2-7,5.8-7.1c1.1-0.1,6.7-3.4,10.1-5.5L716.4,793.8z"/>
<path class="st11" d="M831.8,773c-1.7,3.9,0,12,0,12s-25.1,1.3-31.2-2.8s-10.5-27.7-10.5-27.7s0.9-27.7,0-29
	c-0.9-1.3-4.3-7.5-3.2-8.8c1.1-1.3-0.9-8.2-2.4-11.2c-1.5-3-0.9-11.6-0.9-11.6l-3.7-22.8l-5.8-27.1l-4.9-18.1c0,0-5-14.8-6.8-20.9
	c-1.7-6.2-3.5-0.6-3.5-0.6c-0.2,6-14,32.9-14,32.9s-2.1,16.3-4.3,22c-2.2,5.8-4.7,26-4.7,26s-3.6,41.1-6.5,48c-3,6.9-5,17.2-5,17.2
	s0.8,14.2-1.1,15.3c-1.9,1.1-1.6,9.7-1.6,9.7s1.1,8.2-3.2,9.5s-3.6,4.1-3.6,4.1s-23.9,3.9-27.8-6.5c-3.9-10.5,1.5-13.3,1.8-14
	c0.3-0.8,3.3-2.1,0.7-5.1c-2.6-3,3.4-11.2,3.4-11.2s0.9-11.6,2.6-12c1.7-0.4,1.1-17.2,1.1-17.2l1.9-17.6c0,0,2.4-39.2,1.9-40.7
	s-0.2-9,1.7-12.5c1.9-3.6,3.4-36.3,3.4-36.3s-0.4-16.1,1.1-19.1c0.9-1.7,1.3-8.2,1.5-13.5c0.2-4.1,0.2-7.4,0.2-7.4l20.9-7.8
	l26.9-8.6l22.6,10.8l33.1,6.4l0.4,5.7l6.3,87.2l3.6,32.9c0,0,1.5,15.5,1.7,18.3c0.2,2.8,2.1,21.1,2.1,21.1s3.9,8.8,1.5,11.8
	c-2.4,3-1.5,5.4-1.5,5.4S833.5,769.1,831.8,773z"/>
<path class="st7" d="M777.6,364.4c-2.1,3-2.2,6.8-1.5,10.6c-9.7,6.8-22.7,6.3-31.9-1.2l0,0c-0.6-3.8-1.2-6.6-1.2-6.6
	S783.8,355.6,777.6,364.4z"/>
<path class="st10" d="M787.1,353c0,14.5-11.8,26.2-26.2,26.2c-14.5,0-26.2-11.8-26.2-26.2s11.8-26.2,26.2-26.2l0,0
	c14.4-0.1,26.2,11.6,26.2,26C787.1,352.8,787.1,352.9,787.1,353z"/>
<polygon class="st7" points="792.6,396.6 784,549.8 737.3,540 728,478.6 737.2,396.2 744.1,397 756.2,398.6 768.3,399.3 
	781.4,397.9 "/>
<polygon class="st8" points="792.6,397.8 784,550.9 737.3,541.1 728,479.7 737.2,397.3 744.1,398.2 756.2,399.7 768.3,400.5 
	781.4,399 "/>
<path class="st11" d="M754.2,401.9l16.8,0.6l-4.7,6.6c0,0,0.3,13.4,2.6,17.2c2.2,3.8,1.6,63.1,1.6,63.1l-4.5,8.5l-7.7-9.5l0.1-78.2
	L754.2,401.9z"/>
<path class="st7" d="M754.2,401.9l16.8,0.6l-4.7,6.6c0,0,0.3,13.4,2.6,17.2c2.2,3.8,1.6,63.1,1.6,63.1l-4.5,8.5l-7.7-9.5l0.1-78.2
	L754.2,401.9z"/>
<polygon class="st7" points="780.5,384.5 764.8,401.9 773.8,411.2 788.7,396.7 "/>
<polygon class="st8" points="780.5,383.4 764.8,400.7 773.8,410.1 788.7,395.6 "/>
<polygon class="st7" points="758.2,401 742.3,385.1 740.8,393.5 748.1,411.7 "/>
<polygon class="st8" points="758.8,399.9 742.9,384 741.4,392.3 748.7,410.6 "/>
<path class="st7" d="M812.2,582.7c-7.6,3.6-15.8,6-24.2,7c-15.4,2-25.5-17.7-25.5-17.7l-5.9,7.7c-1.9,8.1-30.4,10.2-42,7.1
	c-2.4-0.6-4.7-1.7-6.6-3.1c0.2-4.1,0.2-7.4,0.2-7.4l20.9-7.8l26.9-8.6l22.6,10.8l33.1,6.4L812.2,582.7z"/>
<path class="st7" d="M792.6,397.8L784,550.9l-46.7-9.8l-9.3-61.4l9.2-82.4l6.9,0.9c-0.2,3-0.5,6-1,9c-1.1,5.2,5.8,42.4,5.8,42.4
	s13.1,41.7,19.1,35.7c5.9-6,14.3-37.8,14.3-37.8c5.7-11.8,0.1-44.8-0.3-45.5c-0.3-1-0.5-2-0.5-3L792.6,397.8z"/>
<path class="st7" d="M812.8,516.3l0.4,15l-4.3,3.9l-2.9-36.3h6.5L812.8,516.3z"/>
<path class="st7" d="M711.3,488.6L711.3,488.6c-0.1,1.2-0.2,2.4-0.5,3.6c0-0.3,0-0.5-0.1-0.5C710.5,491.5,710.8,490.2,711.3,488.6z"
	/>
<path class="st7" d="M719.6,498.9l-2.9,36.3c0,0-4.4-4-10.1-9.2l0.7-6.4c0,0,2.4-15.8,3.3-23.6c0.4,1,0.9,2,1.5,2.9L719.6,498.9z"/>
<path class="st11" d="M744.9,384.6c0,0-2.8-4.1-6.6,3.8c0,0-10,5.8-13.4,6.4s-15.7,5-15.7,5c-1.8,1.3-4.1,2.1-6.4,2.1
	c-3.8,0-7,8.4-6.5,13c0.5,4.6-0.3,7.9-3.8,8.1s-1.6,7.6-1.6,7.6l23.6,27.1c0,0,1.5,24.9,0.8,25.7c-0.7,0.8-3.5,8.1-2.8,8.3
	s-3.6,27.8-3.6,27.8l-5.7,53.5c0,0,0,9,11.6,12c11.6,3.1,40.1,1,41.9-7.1l5.9-7.7c0,0,10.1,19.6,25.5,17.7c15.4-2,25.2-7.6,25.2-7.6
	l-1.7-64.2l-1.1-46.3l24.1-39.6c0,0-6.4-12.3-5.9-17.9c0.6-5.6,1.7-9.8-12.1-11.8c0,0-11.6-1.7-18.4-6.4c-4.1-2.8-8.5-5-13.2-6.6
	c0,0-3.9-7.2-6.5-4.7c0,0,2.7,10.1,2.5,11.6c-0.2,1.5,0.4,8.4,0.8,9.1c0.4,0.7,6,33.7,0.3,45.5c0,0-8.4,31.7-14.3,37.8
	c-6,6-19.1-35.7-19.1-35.7s-6.9-37.2-5.8-42.4C744.1,403.5,744.9,384.6,744.9,384.6z"/>
<circle class="st11" cx="764.9" cy="503" r="4.1"/>
<circle class="st11" cx="764.9" cy="522.4" r="4.1"/>
<circle class="st7" cx="764.9" cy="503" r="4.1"/>
<circle class="st7" cx="764.9" cy="522.4" r="4.1"/>
<path class="st13" d="M801.9,767.4c0,0,16.9,1.3,18.6,2.6C822.1,771.3,801.9,767.4,801.9,767.4z"/>
<path class="st13" d="M701.4,754.1c0,0,3.6,4.5,2.1,6.5C701.9,762.7,701.4,754.1,701.4,754.1z"/>
<path class="st13" d="M705.7,770.3c0,0,6.5-4.3,9.2-1.4C717.5,771.7,705.7,770.3,705.7,770.3z"/>
<path class="st7" d="M787.1,353c0,2.2-0.3,4.5-0.8,6.6c-1.1-0.5-1.8-1.7-1.7-2.9c0.1-1.1,0.8-2,0.7-3.1c-0.2-1.6-2.2-2.3-3.2-3.6
	c-1.3-1.6-1-3.8-0.9-5.8s-0.4-4.5-2.3-5.2c-0.6-0.2-1.2-0.2-1.7-0.5c-1.5-0.6-1.9-2.5-2.9-3.7c-2-2.6-5.9-2.5-9-1.3
	c-1.3,0.6-2.7,1.2-4,1.7c-1.4,0.5-2.9,0.4-4.2-0.3c-0.6-0.4-1.1-0.9-1.7-1.3c-2-1.2-4.7,0-6.4,1.6c-1.8,1.6-3.2,3.7-5.4,4.6
	c-1,0.4-2.2,0.7-2.7,1.7c-0.2,0.5-0.3,1.1-0.3,1.7c0,3.5,0.4,7-0.3,10.4c-0.5,2.2-2,4.7-4.2,4.4c-0.3,0-0.6-0.1-0.8-0.2
	c-2.7-14.2,6.7-28,21-30.6c14.2-2.7,28,6.7,30.6,21C787,349.8,787.1,351.4,787.1,353L787.1,353z"/>
<path class="st11" d="M733.9,356.4c0.7,0.2,1.3,0.5,2,0.6c2.2,0.3,3.8-2.2,4.2-4.4c0.7-3.4,0.3-7,0.3-10.4c-0.1-0.6,0-1.1,0.3-1.7
	c0.5-1,1.7-1.2,2.7-1.7c2.2-1,3.6-3,5.4-4.6s4.4-2.8,6.4-1.6c0.6,0.4,1.1,0.9,1.7,1.3c1.3,0.7,2.8,0.8,4.2,0.3
	c1.4-0.4,2.7-1.1,4-1.7c3-1.2,7-1.3,9,1.3c1,1.3,1.5,3.1,2.9,3.7c0.5,0.2,1.2,0.3,1.7,0.5c1.9,0.7,2.4,3.2,2.3,5.2
	c-0.1,2-0.3,4.3,0.9,5.8c1,1.3,3,1.9,3.2,3.6c0.1,1.1-0.6,2-0.7,3.1c-0.1,1.6,1.1,3.1,2.8,3.2c0,0,0,0,0,0c2.3,0,3.8-2.6,5.9-3.4
	c0.9-0.3,2-0.4,2.7-1.1c0.5-0.7,0.7-1.6,0.6-2.4c-0.4-3.4-3.2-6.4-2.9-9.9c0.3-3.3,3.3-6.2,2.7-9.4c-0.3-1.2-0.9-2.3-1.8-3.2
	c-1-1.3-2.2-2.4-3.7-3.1c-1.2-0.5-2.7-0.7-3.8-1.3c-3.4-1.9-3.4-6.7-5.4-10c-1.7-2.8-4.9-4.3-8.2-4.1c-2.5,0.3-4.8,1.6-7.3,2
	c-3.4,0.6-6.9-0.5-10.1-1.8c-3.2-1.3-6.5-2.7-10-2.7s-7.2,1.8-8.3,5.1c-0.6,1.8-0.3,3.7-0.7,5.5c-0.8,3.2-3.6,5.5-6.4,7.1
	c-2,1.1-4.3,2.3-4.6,4.6c-0.2,1.4,0.6,2.7,1.1,4.1c0.8,2.3,0.8,4.9-0.1,7.2c-0.7,1.7-1.7,3.2-2.4,4.9c-1,2.3-0.9,4.9,0.2,7.2
	c0.8,1.6,2.3,2.9,4.1,3.4C730.9,357.7,732,356,733.9,356.4z"/>
<g class="st14">
	<path d="M740.2,350.6c-0.5,2.2-2,4.7-4.2,4.4c-0.7-0.1-1.3-0.4-2-0.6c-1.9-0.4-3,1.3-4.7,0.9c-1.8-0.5-3.3-1.7-4.1-3.4
		c-0.5-0.9-0.8-1.9-0.8-2.9c-0.2,1.6,0.1,3.2,0.8,4.6c0.8,1.6,2.3,2.9,4.1,3.4c1.8,0.4,2.9-1.3,4.7-0.9c0.7,0.2,1.3,0.4,2,0.6
		c2.2,0.3,3.8-2.2,4.2-4.4c0.4-1.9,0.5-3.9,0.4-5.9C740.6,347.8,740.4,349.2,740.2,350.6z"/>
	<path d="M727.9,337.1c0.1-1.5-0.1-2.9-0.6-4.3c-0.4-0.9-0.7-1.9-1-2.8c0,0.2-0.1,0.3-0.1,0.5c-0.2,1.4,0.6,2.7,1.1,4.1
		C727.6,335.3,727.8,336.2,727.9,337.1z"/>
	<path d="M796.3,332.4c-0.4,2.5-2.5,4.9-2.7,7.6c0,0.5,0,0.9,0,1.4C794.1,338.2,796.8,335.5,796.3,332.4z"/>
	<path d="M796.5,351.3c-0.1,0.4-0.3,0.7-0.5,1c-0.7,0.7-1.8,0.8-2.7,1.1c-2.2,0.8-3.6,3.5-5.9,3.4c-1.2-0.1-2.3-0.9-2.7-2.1
		c-0.1,0.2-0.1,0.4-0.1,0.6c-0.1,1.6,1.1,3.1,2.8,3.2c0,0,0,0,0,0c2.3,0,3.8-2.6,5.9-3.4c0.9-0.3,2-0.4,2.7-1.1
		c0.5-0.7,0.7-1.6,0.6-2.4C796.5,351.4,796.5,351.4,796.5,351.3z"/>
	<path d="M785.2,350.5c-0.2-1.6-2.2-2.3-3.2-3.6c-0.6-0.8-1-1.9-1-2.9c-0.1,1.7,0,3.4,1,4.6c1,1.3,2.6,1.8,3.1,3.1
		C785.2,351.3,785.3,350.9,785.2,350.5z"/>
	<path d="M781.1,341.2c0.1-2-0.4-4.5-2.3-5.2c-0.6-0.2-1.2-0.2-1.7-0.5c-1.5-0.6-2-2.5-2.9-3.7c-2-2.6-5.9-2.5-9-1.3
		c-1.3,0.5-2.6,1.3-4,1.7c-1.4,0.5-2.9,0.4-4.2-0.3c-0.6-0.4-1.1-0.9-1.7-1.3c-2-1.2-4.7,0-6.4,1.6c-1.7,1.6-3.2,3.7-5.4,4.6
		c-1,0.4-2.2,0.7-2.7,1.7c-0.2,0.5-0.3,1.1-0.3,1.7c0,0.3,0,0.7,0,1c0-0.4,0.1-0.7,0.3-1c0.5-1,1.7-1.2,2.7-1.7c2.2-1,3.6-3,5.4-4.6
		c1.8-1.6,4.4-2.8,6.4-1.6c0.6,0.4,1.1,0.9,1.7,1.3c1.3,0.7,2.8,0.8,4.2,0.3c1.4-0.5,2.7-1,4-1.7c3-1.2,7-1.3,9,1.3
		c1,1.3,1.5,3.1,2.9,3.7c0.5,0.2,1.2,0.3,1.7,0.5c1.5,0.6,2.1,2.3,2.3,4L781.1,341.2z"/>
</g>
<g class="st14">
	<path d="M737,350.5c0.1-3.1,2.2-5.7,5.2-6.4c4-1,8.2-0.8,12.1,0.5c8.5,2.8-1.1,12.9-1.1,12.9s-6.4,6.3-12.3,1.9
		c-1.8-1.3-3-3.2-3.5-5.4C737.1,352.9,736.9,351.7,737,350.5z"/>
	<path d="M783.7,350.5c-0.1-3.1-2.2-5.7-5.2-6.4c-4-1-8.2-0.8-12.1,0.5c-8.5,2.8,1.1,12.9,1.1,12.9s6.4,6.3,12.3,1.9
		c1.8-1.3,3-3.2,3.5-5.4C783.6,352.9,783.7,351.7,783.7,350.5z"/>
	<polygon points="752.6,343.8 752.6,344.3 768.1,344.3 768.1,343.8 	"/>
	<path d="M757.6,348.3h0.5v-1.4c0,0,1.6-1.2,4.2,0v1.3h0.9v-0.8h-0.4c0,0,0.2-1.7-2.7-1.5c0,0-2.3-0.2-2.3,1.3h-0.5L757.6,348.3z"/>
</g>
<path class="st8" d="M737,350c0.1-3.1,2.2-5.7,5.2-6.4c4-1,8.2-0.8,12.1,0.5c8.5,2.8-1.1,12.9-1.1,12.9s-6.4,6.3-12.3,1.9
	c-1.8-1.3-3-3.2-3.5-5.4C737.1,352.4,736.9,351.2,737,350z"/>
<path class="st8" d="M783.7,350c-0.1-3.1-2.2-5.7-5.2-6.4c-4-1-8.2-0.8-12.1,0.5c-8.5,2.8,1.1,12.9,1.1,12.9s6.4,6.3,12.3,1.9
	c1.8-1.3,3-3.2,3.5-5.4C783.6,352.4,783.7,351.2,783.7,350z"/>
<polygon class="st8" points="752.6,343.3 752.6,343.7 768.1,343.7 768.1,343.2 "/>
<path class="st8" d="M757.6,347.8h0.5v-1.4c0,0,1.6-1.2,4.2,0v1.3h0.9v-0.8h-0.4c0,0,0.2-1.7-2.7-1.5c0,0-2.3-0.2-2.3,1.3h-0.5
	L757.6,347.8z"/>
<rect x="116.6" y="492.3" class="st15" width="5.1" height="114.6"/>
<path class="st11" d="M153.7,606.5l-0.3,5.2l-0.4,7.3l-0.2,3l-0.4,7.3l-0.2,3l-0.4,7.3l-5.1,82.8c-0.5,7.4-6.6,13.2-14,13.2h-26.7
	c-7.4,0-13.5-5.8-14-13.2l-5.2-82.8l-0.4-7.3l-0.2-3l-0.4-7.3l-0.2-3l-0.4-7.3l-0.3-5.2c-0.2-4,2.8-7.5,6.8-7.7c0.2,0,0.3,0,0.5,0
	h54.5c4,0,7.3,3.2,7.3,7.2C153.7,606.2,153.7,606.3,153.7,606.5z"/>
<polygon class="st16" points="153.4,611.7 152.9,619 85.4,619 85,611.7 "/>
<polygon class="st16" points="152.7,622 152.3,629.3 86,629.3 85.6,622 "/>
<polygon class="st16" points="152.1,632.3 151.6,639.6 86.7,639.6 86.2,632.3 "/>
<path class="st8" d="M77.2,535.2c29.6,21.4,42,55,42,55s-35.7-1.2-65.4-22.7s-42-55-42-55S47.5,513.8,77.2,535.2z"/>
<path class="st17" d="M11.8,512.6c0,0,37.1,20.6,49,37.6c11.9,17,58.4,40,58.4,40"/>
<path class="st8" d="M96.3,492.1c16.1,11.6,22.9,29.9,22.9,29.9s-19.4-0.7-35.6-12.3s-22.8-29.9-22.8-29.9S80.2,480.4,96.3,492.1z"
	/>
<path class="st17" d="M60.7,479.7c0,0,20.2,11.2,26.6,20.5c6.5,9.3,31.8,21.8,31.8,21.8"/>
<path class="st8" d="M142.6,521c-18.5,20.4-22.4,47-22.4,47s26.1-6.4,44.6-26.8c18.5-20.4,22.4-47,22.4-47S161.1,500.7,142.6,521z"
	/>
<path class="st17" d="M187.3,494.3c0,0-24.1,20.9-30.3,35.3c-6.1,14.4-36.8,38.5-36.8,38.5"/>
</svg>
