<?xml version="1.0" encoding="utf-8"?>
<!-- Generator: Adobe Illustrator 23.0.6, SVG Export Plug-In . SVG Version: 6.00 Build 0)  -->
<svg version="1.1" id="b7479f35-b76c-414d-9259-8a40bcbac55e"
	 xmlns="http://www.w3.org/2000/svg" xmlns:xlink="http://www.w3.org/1999/xlink" x="0px" y="0px" viewBox="0 0 963.2 818.1"
	 style="enable-background:new 0 0 963.2 818.1;" xml:space="preserve">
<style type="text/css">
	.st0{fill:#FFE4CC;}
	.st1{fill:#3F3D56;}
	.st2{fill:url(#SVGID_1_);}
	.st3{fill:#F5F5F5;}
	.st4{fill:url(#SVGID_2_);}
	.st5{fill:#F4F4F4;}
	.st6{fill:#FFFFFF;}
	.st7{fill:url(#SVGID_3_);}
	.st8{fill:#F7F7F7;}
	.st9{fill:url(#SVGID_4_);}
	.st10{fill:#FAFAFA;}
	.st11{fill:url(#SVGID_5_);}
	.st12{fill:url(#SVGID_6_);}
	.st13{fill:url(#SVGID_7_);}
	.st14{clip-path:url(#SVGID_9_);}
	.st15{fill:#FF7700;}
	.st16{fill:#FF5252;}
	.st17{fill:#FFB9B9;}
	.st18{fill:#2F2E41;}
	.st19{opacity:0.1;enable-background:new    ;}
	.st20{fill:#575A89;}
	.st21{fill:url(#SVGID_10_);}
	.st22{fill:url(#SVGID_11_);}
	.st23{fill:url(#SVGID_12_);}
	.st24{fill:url(#SVGID_13_);}
	.st25{fill:url(#SVGID_14_);}
	.st26{fill:url(#SVGID_15_);}
	.st27{fill:url(#SVGID_16_);}
	.st28{clip-path:url(#SVGID_18_);}
	.st29{fill:url(#SVGID_19_);}
	.st30{fill:url(#SVGID_20_);}
	.st31{fill:url(#SVGID_21_);}
	.st32{fill:url(#SVGID_22_);}
	.st33{fill:url(#SVGID_23_);}
	.st34{fill:url(#SVGID_24_);}
	.st35{fill:url(#SVGID_25_);}
	.st36{clip-path:url(#SVGID_27_);}
	.st37{fill:url(#SVGID_28_);}
	.st38{fill:url(#SVGID_29_);}
	.st39{fill:url(#SVGID_30_);}
	.st40{fill:url(#SVGID_31_);}
	.st41{fill:url(#SVGID_32_);}
	.st42{fill:url(#SVGID_33_);}
	.st43{fill:url(#SVGID_34_);}
	.st44{clip-path:url(#SVGID_36_);}
	.st45{fill:#E6E6E6;}
</style>
<title>content</title>
<path class="st0" d="M513.3,95.1c-55.3-1.9-107.8-19.8-158-39.3s-100-41.1-153.9-51.5c-34.6-6.6-74.3-7.6-102.2,11
	C72.3,33.2,63.6,64.1,59,92.8c-3.5,21.6-5.6,44.3,4,64.4c6.7,14,18.6,25.8,26.8,39.3c28.5,46.7,8.4,104.3-22.5,149.9
	c-14.5,21.4-31.4,41.8-42.6,64.6c-11.2,22.8-16.4,48.8-6.5,72.1c9.7,23.1,32.8,40.2,57.9,52.4c51,24.7,110.9,31.7,169.5,35.8
	c129.6,8.9,259.8,5,389.6,1.2c48-1.4,96.3-2.9,143.6-10.3c26.3-4.1,53.4-10.6,72.4-26.6c24.2-20.1,30.2-54.1,13.9-79.2
	c-27.2-42.2-102.4-52.8-121.4-98c-10.5-24.9,0.3-52.8,15.5-75.8c32.6-49.6,87.3-93.2,90.2-150c2-39-24.3-78-64.9-96.4
	c-42.7-19.3-101.8-16.9-133.2,15C618.9,84.1,562,96.8,513.3,95.1z"/>
<polygon class="st1" points="795.6,437.2 793.8,437.2 793.8,351.3 368.4,351.3 368.4,437.2 366.5,437.2 366.5,349.5 795.6,349.5 "/>
<linearGradient id="SVGID_1_" gradientUnits="userSpaceOnUse" x1="448.7456" y1="273.0093" x2="448.7456" y2="386.8341" gradientTransform="matrix(1 0 0 -1 0 867.28)">
	<stop  offset="0" style="stop-color:#808080;stop-opacity:0.25"/>
	<stop  offset="0.54" style="stop-color:#808080;stop-opacity:0.12"/>
	<stop  offset="1" style="stop-color:#808080;stop-opacity:0.1"/>
</linearGradient>
<polygon class="st2" points="450.6,594.3 422.6,594.3 422.6,480.4 474.9,480.4 "/>
<polygon class="st3" points="449.2,594.3 421.8,594.3 421.8,480.4 473,480.4 "/>
<linearGradient id="SVGID_2_" gradientUnits="userSpaceOnUse" x1="506.7173" y1="241.4205" x2="517.7928" y2="313.7768" gradientTransform="matrix(1.0077 -0.1467 -0.1494 -1.0173 -126.2607 806.3526)">
	<stop  offset="0" style="stop-color:#808080;stop-opacity:0.25"/>
	<stop  offset="0.54" style="stop-color:#808080;stop-opacity:0.12"/>
	<stop  offset="1" style="stop-color:#808080;stop-opacity:0.1"/>
</linearGradient>
<polygon class="st4" points="286.3,443.2 398.6,411.8 410.7,455 298.3,486.3 "/>
<rect x="291.4" y="427.2" transform="matrix(0.9631 -0.2693 0.2693 0.9631 -108.0011 110.4809)" class="st5" width="114.6" height="43.4"/>
<rect x="321.5" y="445.8" transform="matrix(0.9631 -0.2693 0.2693 0.9631 -107.9293 106.9639)" class="st3" width="28.8" height="2.2"/>
<rect x="323.8" y="454.3" transform="matrix(0.9631 -0.2693 0.2693 0.9631 -110.14 107.9112)" class="st6" width="28.8" height="2.2"/>
<rect x="322.4" y="447.7" transform="matrix(0.9631 -0.2693 0.2693 0.9631 -108.0845 109.6456)" class="st6" width="46.4" height="2.2"/>
<circle class="st6" cx="311.3" cy="458.3" r="5.2"/>
<linearGradient id="SVGID_3_" gradientUnits="userSpaceOnUse" x1="614.4798" y1="259.7662" x2="614.4798" y2="343.2403" gradientTransform="matrix(1.003 4.084946e-05 4.084946e-05 -1.003 -234.0385 764.8065)">
	<stop  offset="0" style="stop-color:#808080;stop-opacity:0.25"/>
	<stop  offset="0.54" style="stop-color:#808080;stop-opacity:0.12"/>
	<stop  offset="1" style="stop-color:#808080;stop-opacity:0.1"/>
</linearGradient>
<polygon class="st7" points="319.4,462.3 429.3,421.4 445.1,464 335.4,504.9 "/>
<rect x="325" y="441.6" transform="matrix(0.9372 -0.3489 0.3489 0.9372 -137.6172 162.511)" class="st8" width="114.6" height="43.4"/>
<rect x="355.1" y="461.3" transform="matrix(0.9372 -0.3489 0.3489 0.9372 -138.1074 157.9627)" class="st3" width="28.8" height="2.2"/>
<rect x="358.1" y="469.5" transform="matrix(0.9372 -0.3489 0.3489 0.9372 -140.7869 159.5386)" class="st6" width="28.8" height="2.2"/>
<rect x="358.1" y="463.4" transform="matrix(0.9372 -0.3489 0.3489 0.9372 -138.1108 162.2688)" class="st6" width="46.7" height="2.2"/>
<circle class="st6" cx="345.8" cy="475.9" r="5.2"/>
<linearGradient id="SVGID_4_" gradientUnits="userSpaceOnUse" x1="672.0323" y1="235.1598" x2="676.1862" y2="298.7522" gradientTransform="matrix(1.0203 -8.235779e-02 -6.725177e-02 -1.048 -251.4279 818.3715)">
	<stop  offset="0" style="stop-color:#808080;stop-opacity:0.25"/>
	<stop  offset="0.54" style="stop-color:#808080;stop-opacity:0.12"/>
	<stop  offset="1" style="stop-color:#808080;stop-opacity:0.1"/>
</linearGradient>
<polygon class="st9" points="356.9,495.4 364.9,450.3 479.9,470.8 471.9,515.9 "/>
<rect x="396.4" y="425.4" transform="matrix(0.1754 -0.9845 0.9845 0.1754 -130.5043 809.7053)" class="st10" width="43.4" height="114.6"/>
<rect x="406.4" y="461" transform="matrix(0.1754 -0.9845 0.9845 0.1754 -132.0329 793.2508)" class="st3" width="2.2" height="28.8"/>
<rect x="404.4" y="474.3" transform="matrix(0.1807 -0.9835 0.9835 0.1807 -148.3829 799.1813)" class="st6" width="2.2" height="28.7"/>
<rect x="414.2" y="458.2" transform="matrix(0.1754 -0.9845 0.9845 0.1754 -131.3983 805.8098)" class="st6" width="2.2" height="46.4"/>
<circle class="st6" cx="380.3" cy="475.1" r="5.2"/>
<linearGradient id="SVGID_5_" gradientUnits="userSpaceOnUse" x1="368.5508" y1="270.9803" x2="368.5508" y2="401.3412" gradientTransform="matrix(1 0 0 -1 0 867.28)">
	<stop  offset="0" style="stop-color:#808080;stop-opacity:0.25"/>
	<stop  offset="0.54" style="stop-color:#808080;stop-opacity:0.12"/>
	<stop  offset="1" style="stop-color:#808080;stop-opacity:0.1"/>
</linearGradient>
<polygon class="st11" points="331.9,479.1 313,465.9 286.8,465.9 286.8,479.1 286.8,485.6 286.8,596.3 450.3,596.3 450.3,479.1 "/>
<polygon class="st6" points="332.6,480.4 314,467.7 288.2,467.7 288.2,480.4 288.2,486.7 288.2,594.3 449.2,594.3 449.2,480.4 "/>
<linearGradient id="SVGID_6_" gradientUnits="userSpaceOnUse" x1="603.9123" y1="195.5155" x2="603.9123" y2="256.8918" gradientTransform="matrix(1 0 0 -1 -235.26 764.83)">
	<stop  offset="0" style="stop-color:#B3B3B3;stop-opacity:0.25"/>
	<stop  offset="0.54" style="stop-color:#B3B3B3;stop-opacity:0.1"/>
	<stop  offset="1" style="stop-color:#B3B3B3;stop-opacity:5.000000e-02"/>
</linearGradient>
<path class="st12" d="M412.7,567.4c0,1-0.8,1.9-1.9,1.9l0,0h-84.2c-1,0-1.9-0.9-1.9-1.9v-57.5c0-1,0.8-1.9,1.9-1.9h84.2
	c1,0,1.9,0.9,1.9,1.9l0,0"/>
<path class="st6" d="M411.8,566.5c0,1-0.8,1.8-1.8,1.8h-82.3c-1,0-1.8-0.8-1.8-1.8v-55.6c0-1,0.8-1.8,1.8-1.8h82.3
	c1,0,1.8,0.8,1.8,1.8"/>
<linearGradient id="SVGID_7_" gradientUnits="userSpaceOnUse" x1="368.8044" y1="301.3134" x2="368.8044" y2="355.6896" gradientTransform="matrix(1 0 0 -1 0 867.28)">
	<stop  offset="0" style="stop-color:#B3B3B3;stop-opacity:0.25"/>
	<stop  offset="0.54" style="stop-color:#B3B3B3;stop-opacity:0.1"/>
	<stop  offset="1" style="stop-color:#B3B3B3;stop-opacity:5.000000e-02"/>
</linearGradient>
<path class="st13" d="M331.4,511.6h74.8c1.3,0,2.3,1,2.3,2.3v49.7c0,1.3-1,2.3-2.3,2.3h-74.8c-1.3,0-2.3-1-2.3-2.3v-49.7
	C329.1,512.6,330.1,511.6,331.4,511.6z"/>
<path class="st6" d="M332.3,512.9h72.7c1.3,0,2.3,1,2.3,2.3V562c0,1.3-1,2.3-2.3,2.3h-72.7c-1.3,0-2.3-1-2.3-2.3v-46.8
	C330,513.9,331.1,512.9,332.3,512.9z"/>
<g>
	<g>
		<defs>
			<path id="SVGID_8_" d="M332.3,512.9h72.7c1.3,0,2.3,1,2.3,2.3V562c0,1.3-1,2.3-2.3,2.3h-72.7c-1.3,0-2.3-1-2.3-2.3v-46.8
				C330,513.9,331.1,512.9,332.3,512.9z"/>
		</defs>
		<clipPath id="SVGID_9_">
			<use xlink:href="#SVGID_8_"  style="overflow:visible;"/>
		</clipPath>
		<g class="st14">
			<path class="st15" d="M325.7,563.9l21.7-24.8c1.5-1.8,4.3-1.9,6.1-0.4l0,0l6.1,5.3c1.6,1.4,4,1.4,5.6,0.1l18.5-15.5
				c1.7-1.5,4.4-1.3,6,0.4l22.7,25c0.6,0.7,1,1.6,1,2.5l0.9,9.8c0.2,2.3-1.5,4.5-4,4.7H329c-2.3,0-4.3-1.8-4.3-4.2l0,0
				C324.6,565.8,325,564.7,325.7,563.9z"/>
		</g>
	</g>
</g>
<circle class="st16" cx="339.3" cy="521.1" r="4.8"/>
<rect x="580.2" y="283.1" class="st1" width="1.8" height="154.1"/>
<rect x="106.1" y="798.5" class="st1" width="439.3" height="1.9"/>
<polygon class="st6" points="403.2,509.4 373.1,509.4 373.1,479.2 361.9,479.2 361.9,509.4 331.8,509.4 331.8,520.6 361.9,520.6 
	361.9,550.6 373.1,550.6 373.1,520.6 403.2,520.6 "/>
<path class="st17" d="M306.9,463.2c0,0,20,41.6,6.7,43.2c-13.3,1.6-16.6-37.4-16.6-37.4L306.9,463.2z"/>
<polygon class="st17" points="231.3,729.2 244.6,752.7 220.4,767.7 214.8,740 "/>
<path class="st18" d="M237,756c0,0,7.3-11.9,9.9-9.9c2.6,1.9,13.5,10.7,13.5,10.7l14.2,13.6c0,0,47.9,5.1,17.4,21.9
	c-30.4,16.7-47.3,2.8-47.3,2.8s-42.6,2.2-42-9.6c0.7-11.9,14.4-30.7,14.4-30.7S234.6,766.2,237,756z"/>
<path class="st19" d="M237,756c0,0,7.3-11.9,9.9-9.9c2.6,1.9,13.5,10.7,13.5,10.7l14.2,13.6c0,0,47.9,5.1,17.4,21.9
	c-30.4,16.7-47.3,2.8-47.3,2.8s-42.6,2.2-42-9.6c0.7-11.9,14.4-30.7,14.4-30.7S234.6,766.2,237,756z"/>
<path class="st18" d="M172.2,462.8l12.5,150.8c0,0,0.4,90.2,13.7,107.6s13.7,26.2,13.7,26.2l27.4-14.1c0,0-9.1-0.8-5-6.7
	c4.2-5.8,16.6,0,5-8.3c-11.7-8.3-14.1-8.6-11.3-12.2c1.8-2.3,3-5,3.8-7.8l-7.4-93l14.1-162L172.2,462.8z"/>
<path class="st19" d="M172.2,462.8l12.5,150.8c0,0,0.4,90.2,13.7,107.6s13.7,26.2,13.7,26.2l27.4-14.1c0,0-9.1-0.8-5-6.7
	c4.2-5.8,16.6,0,5-8.3c-11.7-8.3-14.1-8.6-11.3-12.2c1.8-2.3,3-5,3.8-7.8l-7.4-93l14.1-162L172.2,462.8z"/>
<polygon class="st17" points="206.3,729.2 194.7,759.9 161.5,747.5 182.3,725.8 "/>
<path class="st18" d="M189.8,746.6c0,0,12.4-7.8,14-4.7c1.5,3.1,7.8,16.3,7.8,16.3l7,19.4c0,0,42.7,27.2,6.2,28.7
	C188.3,807.9,179,787,179,787s-41.2-17.9-34.9-28.7c6.3-10.9,27.9-22.1,27.9-22.1S182.9,755.2,189.8,746.6z"/>
<path class="st18" d="M277.9,463.2l6.7,138.8c0,0-32.4,92.2-60.7,107.2c0,0,0,18.3-6.7,21.6c-4,2-7,5.7-8.3,9.9l-36.5-9.1
	c0,0,9.1-9.1,5.8-13.3c-3.3-4.2,10.8-13.3,10.8-13.3l36.5-88.9c0,0,5.8-2.5,7.4-10.8c1.6-8.3,5-8.3-3.3-9.9
	c-8.3-1.6-8.3-9.9-8.3-9.9l-27.4-126.4L277.9,463.2z"/>
<ellipse transform="matrix(0.1602 -0.9871 0.9871 0.1602 -1.3616 423.0362)" class="st17" cx="247.9" cy="212.3" rx="33.3" ry="33.3"/>
<path class="st17" d="M218.4,214.3c0,0-2.5,42.4-5.8,46.6c-3.3,4.2,34.9,3.3,34.9,3.3s-2.5-35.7,0-39.1
	C250,221.9,218.4,214.3,218.4,214.3z"/>
<path class="st20" d="M207.2,248c0,0,31.6-3.3,43.2,6.7c3.8,3.1,7.7,6,11.9,8.5c7.1,4.3,11.6,11.9,11.9,20.2l6.2,189
	c0,0-93.9-8.3-111.4,0c0,0-0.8-19.1-2.5-21.6c-1.2-1.8-3.3-74.4-4.4-113.4c-0.7-22.1,7.1-43.6,21.8-60.2
	c5.1-5.6,10.7-10.2,16.6-12.6C200.6,264.7,198.8,248.8,207.2,248z"/>
<path class="st20" d="M257.9,264.7L257.9,264.7c9.5,2.5,16.6,10.6,18.1,20.3l11.9,84.4l16.6,67.3c0,0,8.3,7.5,5,11.7
	c-3.3,4.2,4.2,21.5,4.2,21.5l-20.8,6.7c0,0-2.5-17.4-6.7-18.3c-3.7-0.7-44.5-110-54.4-136.3l-2.1-5.7
	C229.7,316.1,231.3,260.5,257.9,264.7z"/>
<path class="st19" d="M230.1,315.7l50.3,136C280.3,451.8,231.7,359.8,230.1,315.7z"/>
<path class="st18" d="M230.6,222.1c2.8-0.2,5.6,0.8,8.3,1.1c9.9,1.3,20.4-5.9,22.6-15.7c0.2-1.3,0.6-2.5,1.1-3.8
	c1.5-2.5,5.1-2.9,7.9-2.4c2.8,0.6,5.6,1.9,8.5,2.1c4.6,0.2,8.9-2.5,11.3-6.4c2.3-4,3.2-8.6,2.7-13.2l-2.1,2.3c-0.9-1.8-1.2-4-1-6
	c-2.3-0.6-4.9,0-6.6,1.7c-1.9,0.2-0.5-3.6-1.9-4.9c-0.7-0.4-1.5-0.6-2.3-0.4c-4.1,0-7.4-3-10.7-5.6c-5.6-4.4-12.1-7.3-19-8.7
	c-4.6-0.9-9.5-1-13.9,0.7c-3.6,1.6-6.7,3.9-9.3,6.7c-6.8,6.6-12.9,14.3-15.7,23.3c-2.3,7.4-2.3,15.3-0.2,22.8
	c1.1,3.9,4.6,17.1,9.6,17.4C226.4,233.6,222.7,222.6,230.6,222.1z"/>
<path class="st1" d="M126.9,800.1l-0.9-0.3c-0.2-0.1-19.7-7.5-28.8-24.4c-9.1-16.9-4.7-37.3-4.7-37.5l0.2-0.9l0.9,0.3
	c0.2,0.1,19.7,7.5,28.8,24.4s4.7,37.3,4.7,37.5L126.9,800.1z M98.7,774.4c7.7,14.3,23.1,21.7,27.1,23.3c0.7-4.2,3-21.1-4.7-35.4
	S98,740.7,94,739C93.2,743.3,90.9,760.1,98.7,774.4z"/>
<path class="st15" d="M104.2,769.4c16.4,9.8,22.7,29.5,22.7,29.5s-20.3,3.7-36.7-6.3c-16.4-9.8-22.7-29.5-22.7-29.5
	S87.7,759.5,104.2,769.4z"/>
<linearGradient id="SVGID_10_" gradientUnits="userSpaceOnUse" x1="662.2941" y1="587.0929" x2="662.2941" y2="700.9177" gradientTransform="matrix(1 0 0 -1 0 867.28)">
	<stop  offset="0" style="stop-color:#808080;stop-opacity:0.25"/>
	<stop  offset="0.54" style="stop-color:#808080;stop-opacity:0.12"/>
	<stop  offset="1" style="stop-color:#808080;stop-opacity:0.1"/>
</linearGradient>
<polygon class="st21" points="664.2,280.2 636.2,280.2 636.2,166.4 688.4,166.4 "/>
<polygon class="st3" points="662.8,280.2 635.4,280.2 635.4,166.4 686.6,166.4 "/>
<linearGradient id="SVGID_11_" gradientUnits="userSpaceOnUse" x1="759.01" y1="513.785" x2="770.0853" y2="586.1413" gradientTransform="matrix(1.0077 -0.1467 -0.1494 -1.0173 -126.2567 806.3418)">
	<stop  offset="0" style="stop-color:#808080;stop-opacity:0.25"/>
	<stop  offset="0.54" style="stop-color:#808080;stop-opacity:0.12"/>
	<stop  offset="1" style="stop-color:#808080;stop-opacity:0.1"/>
</linearGradient>
<polygon class="st22" points="499.8,129 612.1,97.7 624.2,140.8 511.9,172.2 "/>
<rect x="504.9" y="113.1" transform="matrix(0.9631 -0.2693 0.2693 0.9631 -15.5288 156.3841)" class="st5" width="114.6" height="43.4"/>
<rect x="535.1" y="131.7" transform="matrix(0.9631 -0.2693 0.2693 0.9631 -15.4569 152.8671)" class="st3" width="28.8" height="2.2"/>
<rect x="537.5" y="140.2" transform="matrix(0.9631 -0.2693 0.2693 0.9631 -17.6564 153.8404)" class="st6" width="28.8" height="2.2"/>
<rect x="536" y="133.6" transform="matrix(0.9631 -0.2693 0.2693 0.9631 -15.6111 155.5493)" class="st6" width="46.4" height="2.2"/>
<circle class="st6" cx="524.9" cy="144.2" r="5.2"/>
<linearGradient id="SVGID_12_" gradientUnits="userSpaceOnUse" x1="827.3837" y1="573.8801" x2="827.3837" y2="657.3542" gradientTransform="matrix(1.003 4.084946e-05 4.084946e-05 -1.003 -234.0455 764.8039)">
	<stop  offset="0" style="stop-color:#808080;stop-opacity:0.25"/>
	<stop  offset="0.54" style="stop-color:#808080;stop-opacity:0.12"/>
	<stop  offset="1" style="stop-color:#808080;stop-opacity:0.1"/>
</linearGradient>
<polygon class="st23" points="533,148.2 642.9,107.3 658.7,149.8 548.9,190.7 "/>
<rect x="538.6" y="127.5" transform="matrix(0.9372 -0.3489 0.3489 0.9372 -14.6126 217.2865)" class="st8" width="114.6" height="43.4"/>
<rect x="568.6" y="147.2" transform="matrix(0.9372 -0.3489 0.3489 0.9372 -15.1032 212.7369)" class="st3" width="28.8" height="2.2"/>
<rect x="571.7" y="155.4" transform="matrix(0.9372 -0.3489 0.3489 0.9372 -17.7835 214.3118)" class="st6" width="28.8" height="2.2"/>
<rect x="570.1" y="148.3" transform="matrix(0.9372 -0.3489 0.3489 0.9372 -14.8524 216.3799)" class="st6" width="46.5" height="2.2"/>
<circle class="st6" cx="559.5" cy="161.7" r="5.2"/>
<linearGradient id="SVGID_13_" gradientUnits="userSpaceOnUse" x1="899.9133" y1="517.0553" x2="904.0614" y2="580.5506" gradientTransform="matrix(1.0203 -8.235779e-02 -6.725177e-02 -1.048 -251.4287 818.3803)">
	<stop  offset="0" style="stop-color:#808080;stop-opacity:0.25"/>
	<stop  offset="0.54" style="stop-color:#808080;stop-opacity:0.12"/>
	<stop  offset="1" style="stop-color:#808080;stop-opacity:0.1"/>
</linearGradient>
<polygon class="st24" points="570.4,181.2 578.4,136.2 693.5,156.7 685.5,201.7 "/>
<rect x="610" y="111.3" transform="matrix(0.1754 -0.9845 0.9845 0.1754 354.8661 760.9534)" class="st10" width="43.4" height="114.6"/>
<rect x="619.9" y="146.9" transform="matrix(0.1754 -0.9845 0.9845 0.1754 353.2696 744.4031)" class="st3" width="2.2" height="28.8"/>
<rect x="618.4" y="155.6" transform="matrix(0.1754 -0.9845 0.9845 0.1754 343.524 750.1031)" class="st6" width="2.2" height="28.8"/>
<rect x="627.8" y="144.1" transform="matrix(0.1754 -0.9845 0.9845 0.1754 353.9661 757.0743)" class="st6" width="2.2" height="46.4"/>
<ellipse transform="matrix(0.1754 -0.9845 0.9845 0.1754 331.2382 717.5147)" class="st6" cx="593.9" cy="161" rx="5.2" ry="5.2"/>
<linearGradient id="SVGID_14_" gradientUnits="userSpaceOnUse" x1="582.0992" y1="585.0639" x2="582.0992" y2="715.5263" gradientTransform="matrix(1 0 0 -1 0 867.28)">
	<stop  offset="0" style="stop-color:#808080;stop-opacity:0.25"/>
	<stop  offset="0.54" style="stop-color:#808080;stop-opacity:0.12"/>
	<stop  offset="1" style="stop-color:#808080;stop-opacity:0.1"/>
</linearGradient>
<polygon class="st25" points="545.5,165 526.5,151.8 500.3,151.8 500.3,165 500.3,171.5 500.3,282.2 663.9,282.2 663.9,165 "/>
<polygon class="st6" points="546.1,166.4 527.5,153.5 501.8,153.5 501.8,166.4 501.8,172.7 501.8,280.2 662.8,280.2 662.8,166.4 "/>
<linearGradient id="SVGID_15_" gradientUnits="userSpaceOnUse" x1="817.5621" y1="509.5991" x2="817.5621" y2="570.9753" gradientTransform="matrix(1 0 0 -1 -235.26 764.83)">
	<stop  offset="0" style="stop-color:#B3B3B3;stop-opacity:0.25"/>
	<stop  offset="0.54" style="stop-color:#B3B3B3;stop-opacity:0.1"/>
	<stop  offset="1" style="stop-color:#B3B3B3;stop-opacity:5.000000e-02"/>
</linearGradient>
<path class="st26" d="M626.3,253.3c0,1-0.8,1.9-1.9,1.9l0,0h-84.2c-1,0-1.9-0.9-1.9-1.9v-57.5c0-1,0.8-1.9,1.9-1.9l0,0h84.2
	c1,0,1.9,0.8,1.9,1.9l0,0"/>
<path class="st6" d="M625.3,252.4c0,1-0.8,1.8-1.8,1.8h-82.3c-1,0-1.8-0.8-1.8-1.8v-55.6c0-1,0.8-1.8,1.8-1.8l0,0h82.3
	c1,0,1.8,0.8,1.8,1.8l0,0"/>
<linearGradient id="SVGID_16_" gradientUnits="userSpaceOnUse" x1="582.3529" y1="615.4517" x2="582.3529" y2="669.8279" gradientTransform="matrix(1 0 0 -1 0 867.28)">
	<stop  offset="0" style="stop-color:#B3B3B3;stop-opacity:0.25"/>
	<stop  offset="0.54" style="stop-color:#B3B3B3;stop-opacity:0.1"/>
	<stop  offset="1" style="stop-color:#B3B3B3;stop-opacity:5.000000e-02"/>
</linearGradient>
<path class="st27" d="M545,197.5h74.8c1.3,0,2.3,1,2.3,2.3v49.7c0,1.3-1,2.3-2.3,2.3H545c-1.3,0-2.3-1-2.3-2.3v-49.7
	C542.6,198.5,543.7,197.5,545,197.5z"/>
<path class="st6" d="M545.9,198.8h72.7c1.3,0,2.3,1,2.3,2.3v46.8c0,1.3-1,2.3-2.3,2.3h-72.7c-1.3,0-2.3-1-2.3-2.3v-46.8
	C543.5,199.8,544.7,198.8,545.9,198.8z"/>
<g>
	<g>
		<defs>
			<path id="SVGID_17_" d="M546,198.8h72.7c1.3,0,2.3,1,2.3,2.3v46.8c0,1.3-1,2.3-2.3,2.3H546c-1.3,0-2.3-1-2.3-2.3v-46.8
				C543.5,199.8,544.7,198.8,546,198.8z"/>
		</defs>
		<clipPath id="SVGID_18_">
			<use xlink:href="#SVGID_17_"  style="overflow:visible;"/>
		</clipPath>
		<g class="st28">
			<path class="st15" d="M539.3,249.9l21.6-24.8c1.5-1.8,4.2-2,6-0.5c0,0,0.1,0,0.1,0.1l0,0l6.1,5.3c1.6,1.4,4,1.4,5.6,0.1
				l18.5-15.5c1.7-1.5,4.5-1.3,6,0.4l22.7,25c0.6,0.7,1,1.6,1,2.5l0.9,9.8c0.2,2.3-1.5,4.5-4,4.7h-81.4c-2.3,0-4.2-1.8-4.3-4.2l0,0
				C538.3,251.7,538.6,250.7,539.3,249.9z"/>
		</g>
	</g>
</g>
<circle class="st16" cx="552.9" cy="207" r="4.8"/>
<linearGradient id="SVGID_19_" gradientUnits="userSpaceOnUse" x1="874.0164" y1="273.0093" x2="874.0164" y2="386.8341" gradientTransform="matrix(1 0 0 -1 0 867.28)">
	<stop  offset="0" style="stop-color:#808080;stop-opacity:0.25"/>
	<stop  offset="0.54" style="stop-color:#808080;stop-opacity:0.12"/>
	<stop  offset="1" style="stop-color:#808080;stop-opacity:0.1"/>
</linearGradient>
<polygon class="st29" points="875.9,594.3 847.9,594.3 847.9,480.4 900.1,480.4 "/>
<polygon class="st3" points="874.5,594.3 847,594.3 847,480.4 898.3,480.4 "/>
<linearGradient id="SVGID_20_" gradientUnits="userSpaceOnUse" x1="919.9072" y1="181.8227" x2="930.972" y2="254.1685" gradientTransform="matrix(1.0077 -0.1467 -0.1494 -1.0173 -126.2608 806.3526)">
	<stop  offset="0" style="stop-color:#808080;stop-opacity:0.25"/>
	<stop  offset="0.54" style="stop-color:#808080;stop-opacity:0.12"/>
	<stop  offset="1" style="stop-color:#808080;stop-opacity:0.1"/>
</linearGradient>
<polygon class="st30" points="711.5,443.2 823.9,411.8 835.9,455 723.6,486.3 "/>
<rect x="716.7" y="427.2" transform="matrix(0.9631 -0.2693 0.2693 0.9631 -92.2841 225.0046)" class="st5" width="114.6" height="43.4"/>
<rect x="746.8" y="445.7" transform="matrix(0.9631 -0.2693 0.2693 0.9631 -92.2126 221.4869)" class="st3" width="28.8" height="2.2"/>
<rect x="749.1" y="454.3" transform="matrix(0.9631 -0.2693 0.2693 0.9631 -94.4226 222.4338)" class="st6" width="28.8" height="2.2"/>
<rect x="747.6" y="447.7" transform="matrix(0.9631 -0.2693 0.2693 0.9631 -92.3786 224.1441)" class="st6" width="46.4" height="2.2"/>
<circle class="st6" cx="736.6" cy="458.3" r="5.2"/>
<linearGradient id="SVGID_21_" gradientUnits="userSpaceOnUse" x1="1038.4779" y1="259.766" x2="1038.4779" y2="343.2402" gradientTransform="matrix(1.003 4.084946e-05 4.084946e-05 -1.003 -234.0378 764.8081)">
	<stop  offset="0" style="stop-color:#808080;stop-opacity:0.25"/>
	<stop  offset="0.54" style="stop-color:#808080;stop-opacity:0.12"/>
	<stop  offset="1" style="stop-color:#808080;stop-opacity:0.1"/>
</linearGradient>
<polygon class="st31" points="744.7,462.3 854.6,421.4 870.4,464 760.6,504.9 "/>
<rect x="750.2" y="441.6" transform="matrix(0.9372 -0.3489 0.3489 0.9372 -110.9081 310.8558)" class="st8" width="114.6" height="43.4"/>
<rect x="780.3" y="461.3" transform="matrix(0.9372 -0.3489 0.3489 0.9372 -111.3983 306.3075)" class="st3" width="28.8" height="2.2"/>
<rect x="783.3" y="469.5" transform="matrix(0.9372 -0.3489 0.3489 0.9372 -114.0787 307.8843)" class="st6" width="28.8" height="2.2"/>
<rect x="781.7" y="462.4" transform="matrix(0.9372 -0.3489 0.3489 0.9372 -111.1472 309.9475)" class="st6" width="46.5" height="2.2"/>
<circle class="st6" cx="771.1" cy="475.9" r="5.2"/>
<linearGradient id="SVGID_22_" gradientUnits="userSpaceOnUse" x1="1087.9938" y1="204.6064" x2="1092.146" y2="268.1623" gradientTransform="matrix(1.017 -7.659999e-02 -6.140000e-02 -1.0446 -248.7802 819.9534)">
	<stop  offset="0" style="stop-color:#808080;stop-opacity:0.25"/>
	<stop  offset="0.54" style="stop-color:#808080;stop-opacity:0.12"/>
	<stop  offset="1" style="stop-color:#808080;stop-opacity:0.1"/>
</linearGradient>
<polygon class="st32" points="783.9,501.4 792.2,456.7 906.7,477.7 898.4,522.4 "/>
<rect x="821.6" y="425.5" transform="matrix(0.1754 -0.9845 0.9845 0.1754 220.0886 1228.4086)" class="st10" width="43.4" height="114.6"/>
<rect x="831.7" y="461" transform="matrix(0.1754 -0.9845 0.9845 0.1754 218.6691 1211.9094)" class="st3" width="2.2" height="28.8"/>
<rect x="830.1" y="469.8" transform="matrix(0.1754 -0.9845 0.9845 0.1754 208.7352 1217.5387)" class="st6" width="2.2" height="28.8"/>
<rect x="839.5" y="458.1" transform="matrix(0.1754 -0.9845 0.9845 0.1754 219.3068 1224.451)" class="st6" width="2.2" height="46.4"/>
<ellipse transform="matrix(0.1754 -0.9845 0.9845 0.1754 196.5624 1184.8856)" class="st6" cx="805.6" cy="475.1" rx="5.2" ry="5.2"/>
<linearGradient id="SVGID_23_" gradientUnits="userSpaceOnUse" x1="793.8217" y1="270.9803" x2="793.8217" y2="401.3412" gradientTransform="matrix(1 0 0 -1 0 867.28)">
	<stop  offset="0" style="stop-color:#808080;stop-opacity:0.25"/>
	<stop  offset="0.54" style="stop-color:#808080;stop-opacity:0.12"/>
	<stop  offset="1" style="stop-color:#808080;stop-opacity:0.1"/>
</linearGradient>
<polygon class="st33" points="757.1,479.1 738.2,465.9 712.1,465.9 712.1,479.1 712.1,485.6 712.1,596.3 875.6,596.3 875.6,479.1 
	"/>
<polygon class="st6" points="757.8,480.4 739.2,467.7 713.5,467.7 713.5,480.4 713.5,486.7 713.5,594.3 874.5,594.3 874.5,480.4 "/>
<linearGradient id="SVGID_24_" gradientUnits="userSpaceOnUse" x1="1029.183" y1="195.5155" x2="1029.183" y2="256.8918" gradientTransform="matrix(1 0 0 -1 -235.26 764.83)">
	<stop  offset="0" style="stop-color:#B3B3B3;stop-opacity:0.25"/>
	<stop  offset="0.54" style="stop-color:#B3B3B3;stop-opacity:0.1"/>
	<stop  offset="1" style="stop-color:#B3B3B3;stop-opacity:5.000000e-02"/>
</linearGradient>
<path class="st34" d="M838,567.4c0,1-0.8,1.9-1.9,1.9h-84.2c-1,0-1.9-0.9-1.9-1.9l0,0v-57.5c0-1,0.8-1.9,1.9-1.9l0,0H836
	c1,0,1.9,0.9,1.9,1.9"/>
<path class="st6" d="M836.9,566.5c0,1-0.8,1.8-1.8,1.8h-82.3c-1,0-1.8-0.8-1.8-1.8v-55.6c0-1,0.8-1.8,1.8-1.8h82.3
	c1,0,1.8,0.8,1.8,1.8"/>
<linearGradient id="SVGID_25_" gradientUnits="userSpaceOnUse" x1="794.072" y1="301.3134" x2="794.072" y2="355.6896" gradientTransform="matrix(1 0 0 -1 0 867.28)">
	<stop  offset="0" style="stop-color:#B3B3B3;stop-opacity:0.25"/>
	<stop  offset="0.54" style="stop-color:#B3B3B3;stop-opacity:0.1"/>
	<stop  offset="1" style="stop-color:#B3B3B3;stop-opacity:5.000000e-02"/>
</linearGradient>
<path class="st35" d="M756.7,511.6h74.8c1.3,0,2.3,1,2.3,2.3v49.7c0,1.3-1,2.3-2.3,2.3h-74.8c-1.3,0-2.3-1-2.3-2.3v-49.7
	C754.3,512.6,755.4,511.6,756.7,511.6z"/>
<path class="st6" d="M757.6,512.9h72.7c1.3,0,2.3,1,2.3,2.3V562c0,1.3-1,2.3-2.3,2.3h-72.7c-1.3,0-2.3-1-2.3-2.3v-46.8
	C755.3,513.9,756.3,512.9,757.6,512.9z"/>
<g>
	<g>
		<defs>
			<path id="SVGID_26_" d="M757.6,512.9h72.7c1.3,0,2.3,1,2.3,2.3V562c0,1.3-1,2.3-2.3,2.3h-72.7c-1.3,0-2.3-1-2.3-2.3v-46.8
				C755.3,513.9,756.3,512.9,757.6,512.9z"/>
		</defs>
		<clipPath id="SVGID_27_">
			<use xlink:href="#SVGID_26_"  style="overflow:visible;"/>
		</clipPath>
		<g class="st36">
			<path class="st15" d="M751,563.9l21.6-24.8c1.5-1.8,4.3-1.9,6.1-0.4l0,0l6.1,5.3c1.6,1.4,4,1.4,5.6,0.1l18.5-15.5
				c1.7-1.5,4.5-1.3,6,0.4l22.7,25c0.6,0.7,1,1.6,1,2.5l0.9,9.8c0.2,2.3-1.5,4.5-4,4.7h-81.4c-2.3,0-4.3-1.8-4.3-4.2l0,0
				C749.9,565.8,750.3,564.7,751,563.9z"/>
		</g>
	</g>
</g>
<circle class="st16" cx="764.6" cy="521.1" r="4.8"/>
<linearGradient id="SVGID_28_" gradientUnits="userSpaceOnUse" x1="658.8955" y1="273.0093" x2="658.8955" y2="386.8341" gradientTransform="matrix(1 0 0 -1 0 867.28)">
	<stop  offset="0" style="stop-color:#808080;stop-opacity:0.25"/>
	<stop  offset="0.54" style="stop-color:#808080;stop-opacity:0.12"/>
	<stop  offset="1" style="stop-color:#808080;stop-opacity:0.1"/>
</linearGradient>
<polygon class="st37" points="660.7,594.3 632.7,594.3 632.7,480.4 685.1,480.4 "/>
<polygon class="st3" points="659.4,594.3 631.9,594.3 631.9,480.4 683.1,480.4 "/>
<linearGradient id="SVGID_29_" gradientUnits="userSpaceOnUse" x1="710.8494" y1="211.9806" x2="721.9141" y2="284.3264" gradientTransform="matrix(1.0077 -0.1467 -0.1494 -1.0173 -126.2593 806.3425)">
	<stop  offset="0" style="stop-color:#808080;stop-opacity:0.25"/>
	<stop  offset="0.54" style="stop-color:#808080;stop-opacity:0.12"/>
	<stop  offset="1" style="stop-color:#808080;stop-opacity:0.1"/>
</linearGradient>
<polygon class="st38" points="496.4,443.1 608.7,411.8 620.8,455 508.4,486.3 "/>
<rect x="501.5" y="427.2" transform="matrix(0.9631 -0.2693 0.2693 0.9631 -100.2404 167.061)" class="st5" width="114.6" height="43.4"/>
<rect x="531.7" y="445.8" transform="matrix(0.9631 -0.2693 0.2693 0.9631 -100.1833 163.5796)" class="st3" width="28.8" height="2.2"/>
<rect x="534.1" y="454.3" transform="matrix(0.9631 -0.2693 0.2693 0.9631 -102.3677 164.5163)" class="st6" width="28.8" height="2.2"/>
<rect x="532.5" y="447.7" transform="matrix(0.9631 -0.2693 0.2693 0.9631 -100.3239 166.2258)" class="st6" width="46.4" height="2.2"/>
<circle class="st6" cx="521.4" cy="458.3" r="5.2"/>
<linearGradient id="SVGID_30_" gradientUnits="userSpaceOnUse" x1="824.0002" y1="259.766" x2="824.0002" y2="343.2402" gradientTransform="matrix(1.003 4.084946e-05 4.084946e-05 -1.003 -234.0376 764.8081)">
	<stop  offset="0" style="stop-color:#808080;stop-opacity:0.25"/>
	<stop  offset="0.54" style="stop-color:#808080;stop-opacity:0.12"/>
	<stop  offset="1" style="stop-color:#808080;stop-opacity:0.1"/>
</linearGradient>
<polygon class="st39" points="529.7,462.3 639.4,421.4 655.2,464 545.5,504.9 "/>
<rect x="535.1" y="441.6" transform="matrix(0.9372 -0.3489 0.3489 0.9372 -124.4184 235.8165)" class="st8" width="114.6" height="43.4"/>
<rect x="565.2" y="461.3" transform="matrix(0.9372 -0.3489 0.3489 0.9372 -124.9085 231.2682)" class="st3" width="28.8" height="2.2"/>
<rect x="568.2" y="469.5" transform="matrix(0.9372 -0.3489 0.3489 0.9372 -127.589 232.845)" class="st6" width="28.8" height="2.2"/>
<rect x="568.9" y="463.2" transform="matrix(0.9372 -0.3489 0.3489 0.9372 -124.785 235.808)" class="st6" width="46.7" height="2.2"/>
<circle class="st6" cx="556" cy="475.9" r="5.2"/>
<linearGradient id="SVGID_31_" gradientUnits="userSpaceOnUse" x1="878.1104" y1="221.03" x2="882.2628" y2="284.5897" gradientTransform="matrix(1.017 -7.659999e-02 -6.140000e-02 -1.0446 -250.456 820.1199)">
	<stop  offset="0" style="stop-color:#808080;stop-opacity:0.25"/>
	<stop  offset="0.54" style="stop-color:#808080;stop-opacity:0.12"/>
	<stop  offset="1" style="stop-color:#808080;stop-opacity:0.1"/>
</linearGradient>
<polygon class="st40" points="567.8,500.5 576,455.7 690.5,476.7 682.3,521.5 "/>
<rect x="606.5" y="425.5" transform="matrix(0.1754 -0.9845 0.9845 0.1754 42.743 1016.6194)" class="st10" width="43.4" height="114.6"/>
<rect x="616.5" y="461.1" transform="matrix(0.1754 -0.9845 0.9845 0.1754 41.2145 1000.1649)" class="st3" width="2.2" height="28.8"/>
<rect x="615" y="469.7" transform="matrix(0.1754 -0.9845 0.9845 0.1754 31.3927 1005.7323)" class="st6" width="2.2" height="28.8"/>
<rect x="624.4" y="458.1" transform="matrix(0.1754 -0.9845 0.9845 0.1754 41.9615 1012.662)" class="st6" width="2.2" height="46.4"/>
<ellipse transform="matrix(0.1754 -0.9845 0.9845 0.1754 19.2199 973.0792)" class="st6" cx="590.5" cy="475.1" rx="5.2" ry="5.2"/>
<linearGradient id="SVGID_32_" gradientUnits="userSpaceOnUse" x1="578.7515" y1="270.9803" x2="578.7515" y2="401.3412" gradientTransform="matrix(1 0 0 -1 0 867.28)">
	<stop  offset="0" style="stop-color:#808080;stop-opacity:0.25"/>
	<stop  offset="0.54" style="stop-color:#808080;stop-opacity:0.12"/>
	<stop  offset="1" style="stop-color:#808080;stop-opacity:0.1"/>
</linearGradient>
<polygon class="st41" points="542,479.1 523.2,465.9 497,465.9 497,479.1 497,485.6 497,596.3 660.5,596.3 660.5,479.1 "/>
<polygon class="st6" points="542.7,480.4 524.1,467.7 498.4,467.7 498.4,480.4 498.4,486.7 498.4,594.3 659.4,594.3 659.4,480.4 "/>
<linearGradient id="SVGID_33_" gradientUnits="userSpaceOnUse" x1="814.1129" y1="195.5155" x2="814.1129" y2="256.8918" gradientTransform="matrix(1 0 0 -1 -235.26 764.83)">
	<stop  offset="0" style="stop-color:#B3B3B3;stop-opacity:0.25"/>
	<stop  offset="0.54" style="stop-color:#B3B3B3;stop-opacity:0.1"/>
	<stop  offset="1" style="stop-color:#B3B3B3;stop-opacity:5.000000e-02"/>
</linearGradient>
<path class="st42" d="M622.9,567.4c0,1-0.8,1.9-1.9,1.9h-84.2c-1,0-1.9-0.9-1.9-1.9v-57.5c0-1,0.8-1.9,1.9-1.9H621
	c1,0,1.9,0.9,1.9,1.9"/>
<path class="st6" d="M621.9,566.5c0,1-0.8,1.8-1.8,1.8h-82.3c-1,0-1.8-0.8-1.8-1.8v-55.6c0-1,0.8-1.8,1.8-1.8H620
	c1,0,1.8,0.8,1.8,1.8"/>
<linearGradient id="SVGID_34_" gradientUnits="userSpaceOnUse" x1="578.9036" y1="301.3134" x2="578.9036" y2="355.6896" gradientTransform="matrix(1 0 0 -1 0 867.28)">
	<stop  offset="0" style="stop-color:#B3B3B3;stop-opacity:0.25"/>
	<stop  offset="0.54" style="stop-color:#B3B3B3;stop-opacity:0.1"/>
	<stop  offset="1" style="stop-color:#B3B3B3;stop-opacity:5.000000e-02"/>
</linearGradient>
<path class="st43" d="M541.5,511.6h74.8c1.3,0,2.3,1,2.3,2.3v49.7c0,1.3-1,2.3-2.3,2.3h-74.8c-1.3,0-2.3-1-2.3-2.3v-49.7
	C539.2,512.6,540.2,511.6,541.5,511.6z"/>
<path class="st6" d="M542.5,512.9h72.7c1.3,0,2.3,1,2.3,2.3V562c0,1.3-1,2.3-2.3,2.3h-72.7c-1.3,0-2.3-1-2.3-2.3v-46.8
	C540.2,513.9,541.2,512.9,542.5,512.9z"/>
<g>
	<g>
		<defs>
			<path id="SVGID_35_" d="M542.5,512.9h72.7c1.3,0,2.3,1,2.3,2.3V562c0,1.3-1,2.3-2.3,2.3h-72.7c-1.3,0-2.3-1-2.3-2.3v-46.8
				C540.2,513.9,541.2,512.9,542.5,512.9z"/>
		</defs>
		<clipPath id="SVGID_36_">
			<use xlink:href="#SVGID_35_"  style="overflow:visible;"/>
		</clipPath>
		<g class="st44">
			<path class="st15" d="M535.8,563.9l21.6-24.8c1.5-1.8,4.3-1.9,6.1-0.4l0,0l6.1,5.3c1.6,1.4,4,1.4,5.6,0.1l18.6-15.5
				c1.7-1.5,4.5-1.3,6,0.4l22.7,25c0.6,0.7,1,1.6,1,2.5l0.9,9.8c0.2,2.3-1.5,4.5-4,4.7h-81.4c-2.3,0-4.2-1.8-4.3-4.2l0,0
				C534.8,565.9,535.1,564.7,535.8,563.9z"/>
		</g>
	</g>
</g>
<circle class="st16" cx="549.5" cy="521.1" r="4.8"/>
<rect x="-426.5" y="398.5" class="st45" width="378" height="20"/>
</svg>
