<svg id="b7479f35-b76c-414d-9259-8a40bcbac55e" xmlns="http://www.w3.org/2000/svg" viewBox="0 0 963.16 818.07"><defs><style>.cls-1{fill:#f2f2f2;}.cls-2{fill:#2f2e41;}.cls-3{fill:#3f3d56;}.cls-4{opacity:0.1;isolation:isolate;}.cls-5{fill:#a0616a;}.cls-6{fill:#f70;}.cls-7{fill:#fff;}.cls-8{fill:#57b894;}</style></defs><title>content</title><rect class="cls-1" x="168.44" y="474.15" width="154.35" height="204.81" transform="translate(-369.73 457.82) rotate(-56)"/><path class="cls-2" d="M111.44,679.91l-1.76-.91c22.83-44.15,10.62-101.49-3.64-141.81a434.07,434.07,0,0,0-36.89-77.84l1.68-1.06a436.79,436.79,0,0,1,37.07,78.24C122.3,577.22,134.6,635.13,111.44,679.91Z"/><rect class="cls-2" x="87.22" y="492.96" width="71.41" height="1.98" transform="translate(-385.07 526.08) rotate(-79.64)"/><rect class="cls-2" x="74.44" y="506.14" width="1.98" height="97.31" transform="translate(-357.73 200.03) rotate(-42.94)"/><rect class="cls-2" x="117.48" y="619.6" width="57.39" height="1.98" transform="translate(-442.4 375.48) rotate(-54.14)"/><circle class="cls-3" cx="134.3" cy="430.13" r="9.89"/><circle class="cls-3" cx="26.46" cy="506.31" r="9.89"/><circle class="cls-3" cx="69.99" cy="516.2" r="9.89"/><circle class="cls-3" cx="50.2" cy="554.79" r="9.89"/><circle class="cls-3" cx="173.88" cy="579.52" r="9.89"/><circle class="cls-3" cx="141.23" cy="590.41" r="9.89"/><circle class="cls-3" cx="163.98" cy="622.07" r="9.89"/><circle class="cls-3" cx="60.1" cy="442" r="9.89"/><path class="cls-3" d="M508.29,690.34c21,22.5-1.8,101.16-253.28,42.54C118.77,701.13,1.72,701.81,1.72,690.34s113.4,1,253.29,1S500.47,682,508.29,690.34Z"/><path class="cls-4" d="M508.29,690.34c21,22.5-1.8,101.16-253.28,42.54C118.77,701.13,1.72,701.81,1.72,690.34s113.4,1,253.29,1S500.47,682,508.29,690.34Z"/><path class="cls-3" d="M508.29,690.34c21,22.5-1.8,79.4-253.28,20.77C118.77,679.36,1.72,701.81,1.72,690.34S115.12,669.56,255,669.56,500.47,682,508.29,690.34Z"/><path class="cls-2" d="M244.89,187.72h11.38A27.32,27.32,0,0,1,283.59,215h0v38.7h-66V215a27.32,27.32,0,0,1,27.32-27.32Z"/><path class="cls-5" d="M238.51,241s2.76,22.15-3.46,23.53-9,9.69-9,9.69l20.76,13.15,21.45-4.16-2.07-15.91s-5.54-15.92-2.77-26.3S238.51,241,238.51,241Z"/><path class="cls-4" d="M238.51,241s2.76,22.15-3.46,23.53-9,9.69-9,9.69l20.76,13.15,21.45-4.16-2.07-15.91s-5.54-15.92-2.77-26.3S238.51,241,238.51,241Z"/><path class="cls-5" d="M210.82,497.72l5.54,36s-1.38,36.68,8.31,69.2l9.68,32.53L244,624.35l2.77-44.28s.69-15.92-2.08-28.38l2.08-58.13Z"/><path class="cls-5" d="M262,491.49l4.85,63s-2.08,67.13-2.77,69.2S278,628.51,278,628.51s22.14-52.6,15.22-94.12c0,0-4.15-35.29,1.39-44.29S262,491.49,262,491.49Z"/><circle class="cls-5" cx="250.27" cy="227.83" r="24.22"/><path class="cls-2" d="M230.89,270.05s2.77,10.38,15.92,9.68,19.38-12.45,19.38-12.45,15.91,8.3,23.52,7.61l-2.07,33.91s-13.15,36-10.38,44.29,58.82,95.49,51.9,129.4c0,0,6.92,9.69-19.38,11.77s-25.6-2.77-47,6.92-51.21,4.15-58.13,2.76-31.14-5.53-31.14-5.53S179,396,210.82,361.39l-.69-62.28-2.77-23.53s22.33-11.07,22.93-8.3Z"/><path class="cls-5" d="M333.31,316.41s35.29,22.14,21.45,31.14-63.25,31.67-63.25,31.67-37.78-17.83-28.09-24.75,26.29,12.46,26.29,12.46l42.91-25.61-11.07-12.45Z"/><path class="cls-5" d="M189.37,335.09v101s-3.46,38.75,9.69,36,2.77-37.37,2.77-37.37L206,375.23V342Z"/><path class="cls-2" d="M246.12,607.75s-6.23,13.14-19.38,5.53c0,0,3.46,11.77,3.46,14.53s3.46,17.3,4.85,18.69,0,31.83,6.92,33.21,13.14-15.91,13.14-22.14-2.07-26.3-2.07-26.3,1.38-13.14-6.23-17.3Z"/><path class="cls-2" d="M282.1,623l-19.37-2.77-4.16,16.61s-11.07,29.76-11.76,34.6-13.15,24.91-2.08,24.91,22.15.69,24.22-5.53,6.23-27.68,9.69-35.3-1.38-15.22-1.38-15.22Z"/><path class="cls-2" d="M283.49,277.66l6.22-2.77s6.23,0,15.92,11.07,35.29,33.22,35.29,33.22-17.3,17.3-21.45,15.91-36-31.83-36-31.83Z"/><path class="cls-2" d="M210.82,275.58h-3.46S192.83,277,190.76,295s-5.54,39.44-6.92,41.52,18,11.07,21.45,11.07,9-54,9-54Z"/><polygon class="cls-2" points="268.27 216.82 234.94 216.82 227.39 199.47 273.93 199.47 268.27 216.82"/><ellipse class="cls-5" cx="225.86" cy="225.21" rx="1.68" ry="4.48" transform="translate(-53.76 71.76) rotate(-16.16)"/><ellipse class="cls-5" cx="274.05" cy="226.59" rx="4.48" ry="1.68" transform="translate(-19.87 426.75) rotate(-73.84)"/><rect class="cls-1" x="581.51" y="27.44" width="251.31" height="437.31" transform="translate(149.53 745.78) rotate(-61.05)"/><rect class="cls-6" x="445.84" y="209.95" width="145.44" height="190.95"/><rect class="cls-3" x="485.91" y="240.12" width="65.3" height="65.3"/><rect class="cls-3" x="461.18" y="319.28" width="114.77" height="7.92"/><rect class="cls-3" x="461.18" y="341.04" width="114.77" height="7.92"/><rect class="cls-3" x="461.18" y="362.81" width="114.77" height="7.92"/><rect class="cls-6" x="754.53" y="377.15" width="145.44" height="190.95"/><rect class="cls-3" x="775.81" y="402.38" width="102.9" height="11.87"/><rect class="cls-3" x="775.81" y="428.11" width="102.9" height="11.87"/><rect class="cls-3" x="775.81" y="453.83" width="102.9" height="11.87"/><rect class="cls-3" x="775.81" y="479.56" width="102.9" height="11.87"/><rect class="cls-3" x="775.81" y="505.28" width="102.9" height="11.87"/><rect class="cls-3" x="775.81" y="531.01" width="102.9" height="11.87"/><rect class="cls-6" x="711.99" y="55.6" width="145.44" height="190.95"/><rect class="cls-3" x="733.26" y="119.42" width="102.9" height="11.87"/><rect class="cls-3" x="733.26" y="145.14" width="102.9" height="11.87"/><rect class="cls-3" x="733.26" y="170.87" width="102.9" height="11.87"/><ellipse class="cls-7" cx="854.62" cy="55.4" rx="17.56" ry="17.6"/><path class="cls-8" d="M854.62,34.81a21,21,0,1,0,21,21h0A21.05,21.05,0,0,0,854.62,34.81ZM850.31,67,839.55,56.23l3-3L850.32,61l16.36-16.35,3,3L850.31,67Z"/><ellipse class="cls-7" cx="900.13" cy="373" rx="17.56" ry="17.6"/><path class="cls-8" d="M900.13,352.4a21,21,0,1,0,21,21A21,21,0,0,0,900.13,352.4Zm-4.31,32.19-10.76-10.76,3-3,7.75,7.75,16.36-16.36,3,3-19.39,19.37Z"/><ellipse class="cls-7" cx="591.44" cy="207.77" rx="17.56" ry="17.6"/><path class="cls-8" d="M591.44,187.17a21,21,0,1,0,21,21h0A21.06,21.06,0,0,0,591.44,187.17Zm-4.31,32.19L576.37,208.6l3-3,7.75,7.75L603.5,197l3,3-19.38,19.37Z"/></svg>