<?xml version="1.0" encoding="utf-8"?>
<!-- Generator: Adobe Illustrator 23.0.6, SVG Export Plug-In . SVG Version: 6.00 Build 0)  -->
<svg version="1.1" id="b7479f35-b76c-414d-9259-8a40bcbac55e"
	 xmlns="http://www.w3.org/2000/svg" xmlns:xlink="http://www.w3.org/1999/xlink" x="0px" y="0px" viewBox="0 0 963.2 818.1"
	 style="enable-background:new 0 0 963.2 818.1;" xml:space="preserve">
<style type="text/css">
	.st0{fill:#F5F5F5;}
	.st1{fill:url(#SVGID_1_);}
	.st2{fill:#FF5252;}
	.st3{fill:#FFFF00;}
	.st4{fill:#69F0AE;}
	.st5{fill:url(#SVGID_2_);}
	.st6{fill:#FF7700;}
	.st7{fill:url(#SVGID_3_);}
	.st8{fill:#FF9800;}
	.st9{opacity:0.4;fill:#FF7700;enable-background:new    ;}
	.st10{fill:url(#SVGID_4_);}
	.st11{fill:url(#SVGID_5_);}
	.st12{fill:url(#SVGID_6_);}
	.st13{fill:url(#SVGID_7_);}
	.st14{fill:#FFFFFF;}
	.st15{fill:url(#SVGID_8_);}
	.st16{fill:url(#SVGID_9_);}
	.st17{fill:url(#SVGID_10_);}
	.st18{fill:url(#SVGID_11_);}
	.st19{fill:url(#SVGID_12_);}
	.st20{opacity:0.2;enable-background:new    ;}
</style>
<title>content</title>
<rect x="688.3" y="-13.2" transform="matrix(0.1502 -0.9887 0.9887 0.1502 357.0085 894.7306)" class="st0" width="21.4" height="505.9"/>
<linearGradient id="SVGID_1_" gradientUnits="userSpaceOnUse" x1="805.8575" y1="292.9665" x2="805.8575" y2="-111.3705" gradientTransform="matrix(0.9887 0.1502 -0.1502 0.9887 -110.9116 211.2617)">
	<stop  offset="0" style="stop-color:#808080;stop-opacity:0.25"/>
	<stop  offset="0.54" style="stop-color:#808080;stop-opacity:0.12"/>
	<stop  offset="1" style="stop-color:#808080;stop-opacity:0.1"/>
</linearGradient>
<polygon class="st1" points="381.2,582.4 441.9,182.6 963.2,261.8 902.4,661.6 "/>
<rect x="485.3" y="179.6" transform="matrix(0.1502 -0.9887 0.9887 0.1502 141.456 1029.6279)" class="st0" width="368.7" height="505.9"/>
<ellipse transform="matrix(0.1502 -0.9887 0.9887 0.1502 190.6211 628.8682)" class="st2" cx="461.1" cy="203.5" rx="5.2" ry="5.2"/>
<ellipse transform="matrix(0.1502 -0.9887 0.9887 0.1502 200.5675 644.7424)" class="st3" cx="475.3" cy="205.7" rx="5.2" ry="5.2"/>
<circle class="st4" cx="489.5" cy="207.9" r="5.2"/>
<linearGradient id="SVGID_2_" gradientUnits="userSpaceOnUse" x1="800.5183" y1="83.6788" x2="800.5183" y2="-49.9137" gradientTransform="matrix(0.9887 0.1502 -0.1502 0.9887 -110.9106 211.2577)">
	<stop  offset="0" style="stop-color:#808080;stop-opacity:0.25"/>
	<stop  offset="0.54" style="stop-color:#808080;stop-opacity:0.12"/>
	<stop  offset="1" style="stop-color:#808080;stop-opacity:0.1"/>
</linearGradient>
<polygon class="st5" points="443.4,380.1 463.5,248.1 912.6,316.3 892.5,448.4 "/>
<rect x="616.5" y="126.5" transform="matrix(0.1502 -0.9887 0.9887 0.1502 231.7238 967.0203)" class="st6" width="123.8" height="444.4"/>
<linearGradient id="SVGID_3_" gradientUnits="userSpaceOnUse" x1="666.0443" y1="161.1581" x2="666.0443" y2="135.3279" gradientTransform="matrix(0.9887 0.1502 -0.1502 0.9887 -110.906 211.2484)">
	<stop  offset="0" style="stop-color:#808080;stop-opacity:0.25"/>
	<stop  offset="0.54" style="stop-color:#808080;stop-opacity:0.12"/>
	<stop  offset="1" style="stop-color:#808080;stop-opacity:0.1"/>
</linearGradient>
<polygon class="st7" points="508.4,468.4 512.3,442.8 542.2,447.4 538.3,472.9 "/>
<rect x="515.1" y="443.3" transform="matrix(0.1502 -0.9887 0.9887 0.1502 -5.4711 908.6418)" class="st6" width="21.4" height="28.5"/>
<rect x="509.6" y="479.3" transform="matrix(0.1502 -0.9887 0.9887 0.1502 -45.8336 933.8723)" class="st2" width="21.4" height="28.5"/>
<rect x="504.2" y="515.5" transform="matrix(0.1502 -0.9887 0.9887 0.1502 -86.1798 959.1466)" class="st8" width="21.4" height="28.5"/>
<rect x="693.9" y="369.1" transform="matrix(0.1502 -0.9887 0.9887 0.1502 116.4847 1103.5129)" class="st9" width="12.5" height="229.8"/>
<rect x="688.4" y="405.2" transform="matrix(0.1502 -0.9887 0.9887 0.1502 76.1325 1128.7557)" class="st9" width="12.5" height="229.8"/>
<rect x="683" y="441.3" transform="matrix(0.1502 -0.9887 0.9887 0.1502 35.7789 1154.0183)" class="st9" width="12.5" height="229.8"/>
<rect x="7.5" y="206.8" transform="matrix(0.9759 -0.2181 0.2181 0.9759 -40.7357 65.616)" class="st0" width="538.6" height="21"/>
<linearGradient id="SVGID_4_" gradientUnits="userSpaceOnUse" x1="376.47" y1="1404.6366" x2="376.47" y2="1006.7518" gradientTransform="matrix(0.9759 -0.2181 0.2181 0.9759 -313.1089 -700.3976)">
	<stop  offset="0" style="stop-color:#808080;stop-opacity:0.25"/>
	<stop  offset="0.54" style="stop-color:#808080;stop-opacity:0.12"/>
	<stop  offset="1" style="stop-color:#808080;stop-opacity:0.1"/>
</linearGradient>
<polygon class="st10" points="0,261.2 547.8,138.8 634.6,527.1 86.8,649.5 "/>
<rect x="49.4" y="223.2" transform="matrix(0.9759 -0.2181 0.2181 0.9759 -80.5878 79.2595)" class="st0" width="538.6" height="362.8"/>
<ellipse transform="matrix(0.9759 -0.2181 0.2181 0.9759 -58.9445 12.4311)" class="st2" cx="26.8" cy="273.2" rx="5.6" ry="5.1"/>
<ellipse transform="matrix(0.9759 -0.2181 0.2181 0.9759 -57.8563 15.6088)" class="st3" cx="41.8" cy="269.8" rx="5.6" ry="5.1"/>
<ellipse transform="matrix(0.9759 -0.2181 0.2181 0.9759 -56.7712 18.7846)" class="st4" cx="56.7" cy="266.5" rx="5.6" ry="5.1"/>
<linearGradient id="SVGID_5_" gradientUnits="userSpaceOnUse" x1="370.7813" y1="1198.6832" x2="370.7813" y2="1067.2198" gradientTransform="matrix(0.9759 -0.2181 0.2181 0.9759 -313.1079 -700.3934)">
	<stop  offset="0" style="stop-color:#808080;stop-opacity:0.25"/>
	<stop  offset="0.54" style="stop-color:#808080;stop-opacity:0.12"/>
	<stop  offset="1" style="stop-color:#808080;stop-opacity:0.1"/>
</linearGradient>
<polygon class="st11" points="45.6,313 517.5,207.5 546.2,335.8 74.3,441.3 "/>
<rect x="59.9" y="263.8" transform="matrix(0.9759 -0.2181 0.2181 0.9759 -63.6956 72.4866)" class="st6" width="473.2" height="121.8"/>
<linearGradient id="SVGID_6_" gradientUnits="userSpaceOnUse" x1="226.8327" y1="1275.0463" x2="226.8327" y2="1249.6355" gradientTransform="matrix(0.98 -0.22 0.22 0.98 -313.898 -703.7856)">
	<stop  offset="0" style="stop-color:#808080;stop-opacity:0.25"/>
	<stop  offset="0.54" style="stop-color:#808080;stop-opacity:0.12"/>
	<stop  offset="1" style="stop-color:#808080;stop-opacity:0.1"/>
</linearGradient>
<polygon class="st12" points="167.5,474.5 199.1,467.4 204.7,492.3 173.1,499.4 "/>
<rect x="171.9" y="472.3" transform="matrix(0.9757 -0.219 0.219 0.9757 -101.199 52.7029)" class="st6" width="30.5" height="21.1"/>
<rect x="177.4" y="505.8" transform="matrix(0.9759 -0.2181 0.2181 0.9759 -107.9911 54.4406)" class="st2" width="30.3" height="21"/>
<rect x="187.8" y="542.7" transform="matrix(0.9757 -0.219 0.219 0.9757 -116.2308 57.8893)" class="st8" width="30.5" height="21.1"/>
<rect x="245.6" y="434.2" transform="matrix(0.9759 -0.2181 0.2181 0.9759 -87.1851 90.8671)" class="st9" width="244.6" height="12.3"/>
<rect x="253.5" y="469.2" transform="matrix(0.9759 -0.2181 0.2181 0.9759 -94.647 93.422)" class="st9" width="244.6" height="12.3"/>
<rect x="261.3" y="504.3" transform="matrix(0.9759 -0.2181 0.2181 0.9759 -102.1069 95.9755)" class="st9" width="244.6" height="12.3"/>
<rect x="182.9" y="158.6" class="st0" width="610.8" height="25.8"/>
<linearGradient id="SVGID_7_" gradientUnits="userSpaceOnUse" x1="489.3648" y1="588.9653" x2="489.3648" y2="100.75" gradientTransform="matrix(1 0 0 1 0 49.28)">
	<stop  offset="0" style="stop-color:#808080;stop-opacity:0.25"/>
	<stop  offset="0.54" style="stop-color:#808080;stop-opacity:0.12"/>
	<stop  offset="1" style="stop-color:#808080;stop-opacity:0.1"/>
</linearGradient>
<rect x="171.1" y="150" class="st13" width="636.6" height="488.2"/>
<rect x="182.9" y="184.4" class="st14" width="610.8" height="445.2"/>
<circle class="st2" cx="197.8" cy="171.5" r="6.3"/>
<circle class="st3" cx="215.1" cy="171.5" r="6.3"/>
<circle class="st4" cx="232.5" cy="171.5" r="6.3"/>
<linearGradient id="SVGID_8_" gradientUnits="userSpaceOnUse" x1="482.9126" y1="336.2547" x2="482.9126" y2="174.9501" gradientTransform="matrix(1 0 0 1 0 49.28)">
	<stop  offset="0" style="stop-color:#808080;stop-opacity:0.25"/>
	<stop  offset="0.54" style="stop-color:#808080;stop-opacity:0.12"/>
	<stop  offset="1" style="stop-color:#808080;stop-opacity:0.1"/>
</linearGradient>
<rect x="208.7" y="224.2" class="st15" width="548.4" height="161.3"/>
<rect x="215.1" y="230.7" class="st6" width="536.6" height="149.5"/>
<linearGradient id="SVGID_9_" gradientUnits="userSpaceOnUse" x1="320.5327" y1="429.8114" x2="320.5327" y2="398.6258" gradientTransform="matrix(1 0 0 1 0 49.28)">
	<stop  offset="0" style="stop-color:#808080;stop-opacity:0.25"/>
	<stop  offset="0.54" style="stop-color:#808080;stop-opacity:0.12"/>
	<stop  offset="1" style="stop-color:#808080;stop-opacity:0.1"/>
</linearGradient>
<rect x="302.3" y="447.9" class="st16" width="36.6" height="31.2"/>
<rect x="303.9" y="450.1" class="st6" width="34.4" height="25.8"/>
<rect x="303.9" y="494.1" class="st2" width="34.4" height="25.8"/>
<rect x="303.9" y="538.2" class="st8" width="34.4" height="25.8"/>
<rect x="395.3" y="455.4" class="st9" width="277.4" height="15.1"/>
<rect x="395.3" y="499.5" class="st9" width="277.4" height="15.1"/>
<rect x="395.3" y="543.6" class="st9" width="277.4" height="15.1"/>
<linearGradient id="SVGID_10_" gradientUnits="userSpaceOnUse" x1="491.5156" y1="645.9596" x2="491.5156" y2="481.4289" gradientTransform="matrix(1 0 0 1 0 49.28)">
	<stop  offset="0" style="stop-color:#808080;stop-opacity:0.25"/>
	<stop  offset="0.54" style="stop-color:#808080;stop-opacity:0.12"/>
	<stop  offset="1" style="stop-color:#808080;stop-opacity:0.1"/>
</linearGradient>
<rect x="391.5" y="530.7" class="st17" width="200" height="164.5"/>
<linearGradient id="SVGID_11_" gradientUnits="userSpaceOnUse" x1="645.829" y1="682.3671" x2="645.829" y2="574.8307" gradientTransform="matrix(1 0 0 1 -152.16 -141.98)">
	<stop  offset="0" style="stop-color:#808080;stop-opacity:0.25"/>
	<stop  offset="0.54" style="stop-color:#808080;stop-opacity:0.12"/>
	<stop  offset="1" style="stop-color:#808080;stop-opacity:0.1"/>
</linearGradient>
<path class="st18" d="M437.7,504.5c0.4-30.9,25.9-55.7,56.8-55.2c30.3,0.4,54.8,24.9,55.2,55.2v35.8h15.7v-35.8
	c0.5-39.6-31.2-72.1-70.8-72.6c-39.6-0.5-72.1,31.2-72.6,70.8c0,0.6,0,1.2,0,1.8v35.8h15.7L437.7,504.5z"/>
<path class="st14" d="M439.9,503.8c0-29.7,24.1-53.8,53.8-53.8c29.7,0,53.8,24.1,53.8,53.8v34.4h15.1v-34.4
	c0-38-30.8-68.8-68.8-68.8s-68.8,30.8-68.8,68.8v34.4h15.1L439.9,503.8z"/>
<rect x="400.1" y="536.1" class="st6" width="187.1" height="152.7"/>
<rect x="400.1" y="536.1" class="st14" width="187.1" height="152.7"/>
<rect x="400.1" y="566.2" class="st6" width="187.1" height="92.5"/>
<linearGradient id="SVGID_12_" gradientUnits="userSpaceOnUse" x1="645.8372" y1="785.6494" x2="645.8372" y2="723.1666" gradientTransform="matrix(1 0 0 1 -152.16 -141.98)">
	<stop  offset="0" style="stop-color:#808080;stop-opacity:0.25"/>
	<stop  offset="0.54" style="stop-color:#808080;stop-opacity:0.12"/>
	<stop  offset="1" style="stop-color:#808080;stop-opacity:0.1"/>
</linearGradient>
<path class="st19" d="M507.4,595c0-7.6-6.1-13.8-13.7-13.8c-7.6,0-13.8,6.1-13.8,13.7c0,3.5,1.3,7,3.8,9.5v29.3c0,5.5,4.5,10,10,10
	c5.5,0,10-4.5,10-10c0,0,0,0,0,0v-29.3C506.1,601.8,507.4,598.5,507.4,595z"/>
<path class="st20" d="M505.5,597.4c0-6.5-5.3-11.8-11.8-11.9c-6.5,0-11.8,5.3-11.9,11.8c0,3,1.1,5.9,3.2,8.1v25.2
	c0,4.8,3.9,8.6,8.6,8.6c4.8,0,8.6-3.9,8.6-8.6v-25.2C504.3,603.3,505.5,600.4,505.5,597.4z"/>
</svg>
