<?xml version="1.0"?>
<svg xmlns="http://www.w3.org/2000/svg" xmlns:xlink="http://www.w3.org/1999/xlink" version="1.1" id="Capa_1" x="0px" y="0px" viewBox="0 0 511.999 511.999" style="enable-background:new 0 0 511.999 511.999;" xml:space="preserve" width="512px" height="512px" class=""><g><g>
	<g>
		<path d="M306.568,139.198H129.58c-5.234,0-9.482,4.229-9.482,9.45c0,5.221,4.248,9.45,9.482,9.45h176.987    c5.234,0,9.482-4.229,9.482-9.45C316.049,143.426,311.801,139.198,306.568,139.198z" data-original="#000000" class="active-path" data-old_color="#ff7700" fill="#ff7700"/>
	</g>
</g><g>
	<g>
		<path d="M230.715,202.193H129.58c-5.234,0-9.482,4.229-9.482,9.45c0,5.221,4.248,9.45,9.482,9.45h101.135    c5.234,0,9.482-4.229,9.482-9.45C240.197,206.421,235.949,202.193,230.715,202.193z" data-original="#000000" class="active-path" data-old_color="#ff7700" fill="#ff7700"/>
	</g>
</g><g>
	<g>
		<path d="M325.531,272.033c-22.699,0-41.086,18.331-41.086,40.954c0,22.61,18.388,40.947,41.086,40.947    s41.086-18.331,41.086-40.947C366.617,290.364,348.229,272.033,325.531,272.033z M325.531,335.028    c-12.2,0-22.123-9.893-22.123-22.047c0-12.161,9.923-22.047,22.123-22.047s22.123,9.886,22.123,22.047    C347.654,325.135,337.731,335.028,325.531,335.028z" data-original="#000000" class="active-path" data-old_color="#ff7700" fill="#ff7700"/>
	</g>
</g><g>
	<g>
		<path d="M486.716,25.287H25.284C11.377,25.287,0,36.621,0,50.483v335.171c0,13.856,11.377,25.195,25.284,25.195H245.21    l-14.469,37.97l0.012-0.032c-0.613,1.592-1.018,3.356-1.024,5.303c-0.064,2.989,1.214,6.688,3.925,9.102    c2.674,2.465,6.042,3.331,8.817,3.306c0.961,0,1.89-0.094,2.782-0.253l23.641-4.223l0.897,0.24l0.411,0.234l14.88,18.824    c1.087,1.372,2.434,2.654,4.184,3.672c1.725,1.011,3.932,1.725,6.296,1.72c2.996,0.037,5.973-1.22,7.959-2.971    c2.029-1.745,3.25-3.817,4.033-5.86l19.715-51.744l19.715,51.744c0.784,2.035,1.998,4.103,4.026,5.86    c1.984,1.745,4.962,3.009,7.959,2.971c2.37,0.007,4.57-0.708,6.303-1.72c1.738-1.011,3.085-2.289,4.165-3.654l0.012-0.019    l14.867-18.799l0.658-0.354l0.663-0.145l23.646,4.223c0.892,0.158,1.821,0.253,2.782,0.253c2.769,0.025,6.144-0.847,8.817-3.306    c2.711-2.427,3.982-6.119,3.919-9.102c-0.007-1.941-0.404-3.686-0.998-5.259l-0.007-0.013l-14.469-37.97h77.388    c13.906,0,25.284-11.34,25.284-25.195V50.483C512,36.621,500.622,25.287,486.716,25.287z M293.534,461.467l-8.54-10.79    l-0.007-0.013c-2.168-2.693-4.709-4.381-7.383-5.613c-2.686-1.195-5.55-1.922-8.742-1.94c-1.005,0-2.048,0.082-3.135,0.278    l-13.558,2.422l21.99-57.704c12.092,8.173,26.257,13.527,41.548,15.152L293.534,461.467z M325.531,384.901    c-40.088,0-72.691-32.502-72.691-72.452c0-39.943,32.603-72.445,72.691-72.445c40.088,0,72.691,32.502,72.691,72.445    C398.222,352.398,365.618,384.901,325.531,384.901z M236.816,335.028H75.852V94.578h360.296v240.45h-21.902    c1.852-7.237,2.939-14.772,2.939-22.579c0-50.441-41.017-91.345-91.655-91.345s-91.655,40.904-91.655,91.345    C233.876,320.263,234.963,327.796,236.816,335.028z M388.803,443.389c-1.081-0.19-2.124-0.271-3.129-0.271    c-3.192,0.019-6.049,0.739-8.742,1.94c-2.674,1.227-5.209,2.92-7.383,5.619l-0.007,0.007l-8.533,10.783l-22.37-58.703    c15.189-2.174,29.146-8.028,40.966-16.668l22.761,59.721L388.803,443.389z M493.037,385.653c0,3.413-2.895,6.296-6.321,6.296    h-84.581l-7.484-19.627c4.874-5.581,9.065-11.744,12.471-18.394h41.668c3.477,0,6.321-2.832,6.321-6.296V81.981    c0-3.464-2.844-6.303-6.321-6.303H63.21c-3.477,0-6.321,2.838-6.321,6.303v265.646c0,3.464,2.844,6.296,6.321,6.296h180.73    c3.97,7.743,9.007,14.822,14.923,21.093l-6.454,16.934H25.284c-3.426,0-6.321-2.883-6.321-6.296V50.483    c0-3.413,2.895-6.303,6.321-6.303h461.432c3.426,0,6.321,2.888,6.321,6.303V385.653z" data-original="#000000" class="active-path" data-old_color="#ff7700" fill="#ff7700"/>
	</g>
</g></g> </svg>
