<?xml version="1.0" encoding="utf-8"?>
<!-- Generator: Adobe Illustrator 23.0.6, SVG Export Plug-In . SVG Version: 6.00 Build 0)  -->
<svg version="1.1" id="Calque_1" xmlns="http://www.w3.org/2000/svg" xmlns:xlink="http://www.w3.org/1999/xlink" x="0px" y="0px"
	 viewBox="0 0 196.9 188.8" style="enable-background:new 0 0 196.9 188.8;" xml:space="preserve">
<style type="text/css">
	.st0{fill:#5FA8DD;}
	.st1{fill:#4598D3;}
	.st2{fill:#E7E8E9;}
	.st3{fill:#1C70B1;}
	.st4{fill:#E6AF78;}
	.st5{fill:#707588;}
	.st6{fill:#D29B6E;}
	.st7{fill:#F0C087;}
	.st8{fill:#5C5E6F;}
	.st9{fill:#525363;}
	.st10{fill:#795651;}
	.st11{fill:#6A4C4C;}
	.st12{fill:#5B4247;}
	.st13{fill:#EFF2FB;}
	.st14{fill:#E4EBF7;}
</style>
<g>
	<g>
		<path class="st0" d="M50.3,10.4h61.2v110.2H50.3V10.4z"/>
		<path class="st1" d="M111.5,26.7h44.9v93.9h-44.9V26.7z"/>
		<path class="st2" d="M82.9,96.1H68.6v24.5h24.5V96.1H82.9z"/>
		<g>
			<path class="st2" d="M138,55.3h8.2v8.2H138V55.3z"/>
			<path class="st2" d="M121.7,55.3h8.2v8.2h-8.2V55.3z"/>
			<path class="st2" d="M138,39h8.2v8.2H138V39z"/>
			<path class="st2" d="M121.7,39h8.2v8.2h-8.2V39z"/>
			<path class="st2" d="M76.8,71.6H85v8.2h-8.2V71.6z"/>
			<path class="st2" d="M60.5,71.6h8.2v8.2h-8.2V71.6z"/>
			<path class="st2" d="M93.1,55.3h8.2v8.2h-8.2V55.3z"/>
			<path class="st2" d="M76.8,55.3H85v8.2h-8.2V55.3z"/>
			<path class="st2" d="M60.5,55.3h8.2v8.2h-8.2V55.3z"/>
			<path class="st2" d="M93.1,39h8.2v8.2h-8.2V39z"/>
			<path class="st2" d="M76.8,39H85v8.2h-8.2V39z"/>
			<path class="st2" d="M60.5,39h8.2v8.2h-8.2V39z"/>
			<path class="st2" d="M93.1,22.7h8.2v8.2h-8.2V22.7z"/>
			<path class="st2" d="M76.8,22.7H85v8.2h-8.2V22.7z"/>
			<path class="st2" d="M60.5,22.7h8.2v8.2h-8.2V22.7z"/>
			<path class="st2" d="M138,71.6h8.2v8.2H138V71.6z"/>
			<path class="st2" d="M121.7,71.6h8.2v8.2h-8.2V71.6z"/>
			<path class="st2" d="M121.7,87.9h8.2v8.2h-8.2V87.9z"/>
			<path class="st2" d="M138,87.9h8.2v8.2H138V87.9z"/>
			<path class="st2" d="M93.1,71.6h8.2v8.2h-8.2V71.6z"/>
		</g>
		<path class="st3" d="M115.6,2.3v8.2H46.2V2.3H115.6z"/>
		<path class="st1" d="M50.3,10.4h61.2v4.1H50.3V10.4z"/>
	</g>
	<g>
		<polygon class="st4" points="115.5,119.2 115.5,107.5 85.5,107.5 85.5,119.2 100.5,132.5 		"/>
		<path class="st5" d="M138.7,124.6l-20.6-4.8c-0.3-0.1-0.6-0.2-0.9-0.3l-16.7,9.7l-16-10.2c-0.4,0.4-0.9,0.7-1.5,0.8l-20.6,4.8
			c-3,0.7-5.1,3.4-5.1,6.5v13c0,1.8,1.5,3.3,3.3,3.3h79.9c1.8,0,3.3-1.5,3.3-3.3v-13C143.8,128,141.7,125.3,138.7,124.6z"/>
		<path class="st6" d="M85.5,107.5v12.3c18.9,6.8,30-10.2,30-10.2v-2.1H85.5z"/>
		<path class="st7" d="M78.9,69.2l1.5,31.9c0.1,3,1.6,5.7,4,7.5l6.9,5.2c1.7,1.3,3.8,2,6,2h6.7c2.2,0,4.3-0.7,6-2l6.9-5.2
			c2.4-1.8,3.8-4.6,4-7.5l1.5-31.9H78.9z"/>
		<path class="st4" d="M95.5,75.9c6.7,0,16.6-1.7,19-6.7H78.9l1.4,31.9c0.1,3,1.6,5.7,4,7.5l6.9,5.2c1.7,1.3,3.8,2,6,2h3.3
			c-3.3,0-10-6.7-10-15c0-4.1,0-15,0-20C90.5,79.2,92.2,75.9,95.5,75.9z"/>
		<g>
			<path class="st8" d="M131.6,136.7l10.8-9.7c0.9,1.1,1.4,2.6,1.4,4.1v13c0,1.8-1.5,3.3-3.3,3.3h-11.6v-4.6
				C128.8,140.5,129.8,138.2,131.6,136.7z"/>
			<path class="st8" d="M69.5,136.7L58.7,127c-0.9,1.1-1.4,2.6-1.4,4.1v13c0,1.8,1.5,3.3,3.3,3.3h11.6v-4.6
				C72.2,140.5,71.2,138.2,69.5,136.7z"/>
			<polygon class="st8" points="104.7,147.5 96.4,147.5 97.4,132.5 103.6,132.5 			"/>
		</g>
		<path class="st9" d="M104.7,129.2h-8.3v1c0,2.2,1.8,4,4,4h0.3c2.2,0,4-1.8,4-4L104.7,129.2L104.7,129.2z"/>
		<g>
			<path class="st8" d="M85.3,115.5l15.2,13.7c0,0-4.3,2.2-9.5,6.5c-1.1,0.9-2.7,0.5-3.3-0.7l-7.1-15.7l2.3-3.4
				C83.4,114.9,84.5,114.8,85.3,115.5z"/>
			<path class="st8" d="M115.7,115.5l-15.2,13.7c0,0,4.3,2.2,9.5,6.5c1.1,0.9,2.7,0.5,3.3-0.7l7.1-15.7l-2.3-3.4
				C117.7,114.9,116.5,114.8,115.7,115.5z"/>
		</g>
		<path class="st10" d="M110.6,58.2l1.6,11c7.1,1.4,8.1,12.6,8.3,15.8c0,0.6,0.2,1.1,0.5,1.6l2.7,4.2c0,0-0.9-7,3.3-11.6
			C127,79.2,128.5,51.6,110.6,58.2z"/>
		<path class="st7" d="M125.4,90.2l-1.9,7.5c-0.2,0.9-1,1.5-1.9,1.5l0,0c-1,0-1.9-0.8-2-1.8l-1-7.7c-0.3-2.1,1.3-3.9,3.4-3.9h0
			C124.3,85.9,125.9,88,125.4,90.2z"/>
		<path class="st11" d="M80.5,55.2l2.5,1.7c-11.1,8.2-9,22.3-9,22.3c3.3,3.3,3.3,11.6,3.3,11.6l3.3-3.3c0,0-1.3-9.6,5-13.3
			c5.8-3.4,10.9-1.7,16.1-1.7c13.9,0,17.8-5.3,17.2-11.6c-0.3-3.3-5.4-10.2-18.3-10C95.3,51,85.5,52.6,80.5,55.2z"/>
		<path class="st12" d="M79.5,71.1c0,0-1.8-7,3.4-14.2c-11.1,8.2-9,22.3-9,22.3c3.3,3.3,3.3,11.6,3.3,11.6l3.3-3.3
			c0,0-1.3-9.6,5-13.3c5.8-3.4,10.9-1.7,16.1-1.7c2.3,0,4.2-0.2,6-0.4C96.9,72.5,90.6,64.4,79.5,71.1z"/>
		<path class="st4" d="M75.7,90.2l1.9,7.5c0.2,0.9,1,1.5,1.9,1.5l0,0c1,0,1.9-0.8,2-1.8l1-7.7c0.3-2.1-1.3-3.9-3.4-3.9h0
			C76.8,85.9,75.1,88,75.7,90.2z"/>
		<path class="st8" d="M120.5,144.1h-8.3c-1.8,0-3.3,1.5-3.3,3.3l0,0h15l0,0C123.8,145.6,122.3,144.1,120.5,144.1z"/>
		<polygon class="st4" points="61.4,157.6 61.4,146 31.4,146 31.4,157.6 46.4,170.9 		"/>
		<path class="st13" d="M84.6,163.1L64,158.2c-0.3-0.1-0.6-0.2-0.9-0.3l-16.7,9.7l-16-10.2c-0.4,0.4-0.9,0.7-1.5,0.8l-20.6,4.8
			c-3,0.7-5.1,3.4-5.1,6.5v13c0,1.8,1.5,3.3,3.3,3.3h79.9c1.8,0,3.3-1.5,3.3-3.3v-13C89.7,166.5,87.6,163.8,84.6,163.1z"/>
		<path class="st6" d="M31.4,146v12.3c18.9,6.8,30-10.2,30-10.2V146L31.4,146L31.4,146z"/>
		<path class="st7" d="M24.8,107.7l1.5,31.9c0.1,3,1.6,5.7,4,7.5l6.9,5.2c1.7,1.3,3.8,2,6,2h6.7c2.2,0,4.3-0.7,6-2l6.9-5.2
			c2.4-1.8,3.8-4.6,4-7.5l1.5-31.9L24.8,107.7L24.8,107.7z"/>
		<path class="st4" d="M41.4,114.4c6.7,0,16.6-1.7,19-6.7H24.8l1.4,31.9c0.1,3,1.6,5.7,4,7.5l6.9,5.2c1.7,1.3,3.8,2,6,2h3.3
			c-3.3,0-10-6.7-10-15c0-4.1,0-15,0-20C36.4,117.7,38.1,114.4,41.4,114.4z"/>
		<g>
			<path class="st14" d="M77.5,175.1l10.8-9.7c0.9,1.1,1.4,2.6,1.4,4.1v13c0,1.8-1.5,3.3-3.3,3.3H74.7v-4.6
				C74.7,179,75.7,176.7,77.5,175.1z"/>
			<path class="st14" d="M15.4,175.1l-10.8-9.7c-0.9,1.1-1.4,2.6-1.4,4.1v13c0,1.8,1.5,3.3,3.3,3.3h11.6v-4.6
				C18.1,179,17.1,176.7,15.4,175.1z"/>
		</g>
		<polygon class="st8" points="50.6,185.9 42.3,185.9 43.3,170.9 49.5,170.9 		"/>
		<path class="st9" d="M50.6,167.6h-8.3v1c0,2.2,1.8,4,4,4h0.3c2.2,0,4-1.8,4-4L50.6,167.6L50.6,167.6z"/>
		<g>
			<path class="st14" d="M31.2,153.9l15.2,13.7c0,0-4.3,2.2-9.5,6.5c-1.1,0.9-2.7,0.5-3.3-0.7l-7.1-15.7l2.3-3.4
				C29.3,153.4,30.5,153.3,31.2,153.9z"/>
			<path class="st14" d="M61.6,153.9l-15.2,13.7c0,0,4.3,2.2,9.5,6.5c1.1,0.9,2.7,0.5,3.3-0.7l7.1-15.7l-2.3-3.4
				C63.6,153.4,62.4,153.3,61.6,153.9z"/>
		</g>
		<path class="st10" d="M56.5,96.7l1.6,11c7.1,1.4,8.1,12.6,8.3,15.8c0,0.6,0.2,1.1,0.5,1.6l2.7,4.2c0,0-0.9-7,3.3-11.6
			C72.9,117.7,74.4,90,56.5,96.7z"/>
		<path class="st7" d="M71.3,128.6l-1.9,7.5c-0.2,0.9-1,1.5-1.9,1.5l0,0c-1,0-1.9-0.8-2-1.8l-1-7.7c-0.3-2.1,1.3-3.9,3.4-3.9h0
			C70.2,124.3,71.8,126.5,71.3,128.6z"/>
		<path class="st11" d="M26.4,93.7l2.5,1.7c-11.1,8.2-9,22.3-9,22.3c3.3,3.3,3.3,11.6,3.3,11.6l3.3-3.3c0,0-1.3-9.6,5-13.3
			c5.8-3.4,10.9-1.7,16.1-1.7c13.9,0,17.8-5.3,17.2-11.6c-0.3-3.3-5.4-10.2-18.3-10C41.2,89.5,31.4,91.1,26.4,93.7z"/>
		<path class="st12" d="M25.4,109.6c0,0-1.8-7,3.4-14.2c-11.1,8.2-9,22.3-9,22.3c3.3,3.3,3.3,11.6,3.3,11.6l3.3-3.3
			c0,0-1.3-9.6,5-13.3c5.8-3.4,10.9-1.7,16.1-1.7c2.3,0,4.2-0.2,6-0.4C42.8,111,36.5,102.9,25.4,109.6z"/>
		<path class="st4" d="M21.6,128.6l1.9,7.5c0.2,0.9,1,1.5,1.9,1.5l0,0c1,0,1.9-0.8,2-1.8l1-7.7c0.3-2.1-1.3-3.9-3.4-3.9h0
			C22.7,124.3,21,126.5,21.6,128.6z"/>
		<path class="st14" d="M66.4,182.6h-8.3c-1.8,0-3.3,1.5-3.3,3.3l0,0h15l0,0C69.7,184.1,68.2,182.6,66.4,182.6z"/>
		<path class="st11" d="M158.2,90.6c-33.6,0-29.9,40.8-29.7,70.4c0,1.1,0.6,2.1,1.5,2.7c3.7,2.2,13.9,7.5,28.2,7.5
			s24.4-5.2,28.2-7.5c1-0.6,1.5-1.6,1.5-2.7C188.1,131.4,191.8,90.6,158.2,90.6z"/>
		<path class="st12" d="M156,90.7c-31.2,1.8-27.7,41.4-27.5,70.3c0,1.1,0.6,2.1,1.5,2.7c3.7,2.2,13.9,7.5,28.2,7.5l8.5-59.4"/>
		<path class="st11" d="M158.2,90.6c-19.1,0-20.4,23.1-20.4,23.1c11-1.9,17.8,2.8,28.9-1.9l-8.5,59.4c14.2,0,24.4-5.2,28.2-7.5
			c1-0.6,1.5-1.6,1.5-2.7C188.1,131.4,191.8,90.6,158.2,90.6z"/>
		<path class="st10" d="M187.9,161c0.1-25.4,2.9-59.1-17.7-68.1c-0.4,1.9-1,7.1,0.7,10.4c4.2,8.5,8.5,8.5,12.7,14.8
			c4.2,23.3-8.1,48.1-12.2,51.5l0,0c7.3-1.7,12.5-4.5,14.9-5.9C187.3,163.1,187.9,162.1,187.9,161z"/>
		<path class="st4" d="M190.4,167.4l-18.9-7.9c-1.6-0.7-2.6-2.2-2.6-3.9v-5.1h-21.2v5.1c0,1.7-1,3.3-2.6,3.9l-18.9,7.9
			c-2.4,1-3.9,3.3-3.9,5.9v8.5c0,2.3,1.9,4.2,4.2,4.2H190c2.3,0,4.2-1.9,4.2-4.2v-8.5C194.3,170.7,192.7,168.4,190.4,167.4z"/>
		<path class="st13" d="M190.4,167.4l-18.3-7.6l-13.8,6l-13.8-6l-18.3,7.6c-2.4,1-3.9,3.3-3.9,5.9v8.5c0,2.3,1.9,4.2,4.2,4.2H190
			c2.3,0,4.2-1.9,4.2-4.2v-8.5C194.3,170.7,192.7,168.4,190.4,167.4z"/>
		<path class="st6" d="M168.8,150.5h-21.2v5.1c0,1.7-1,3.3-2.6,3.9l-3,1.2C164.7,166.5,168.8,150.5,168.8,150.5z"/>
		<g>
			<path class="st14" d="M132.5,175.6l-8.5-6.8c-1.1,1.2-1.8,2.7-1.8,4.4v8.5c0,2.3,1.9,4.2,4.2,4.2h8.5v-5.4
				C134.9,178.7,134,176.8,132.5,175.6z"/>
			<path class="st14" d="M194.3,181.8v-8.5c0-1.7-0.7-3.3-1.8-4.4l-8.5,6.7c-1.5,1.2-2.4,3-2.4,5v5.4h8.5
				C192.4,186,194.3,184.1,194.3,181.8z"/>
			<path class="st14" d="M158.5,181.8h-0.6c-1,0-1.8-0.8-1.8-1.8v-14.2h4.2V180C160.3,181,159.5,181.8,158.5,181.8z"/>
			<path class="st14" d="M158.2,165.8l-12.1-9.1c-0.8-0.6-1.9-0.4-2.4,0.4l-2.4,3.6l7.4,10.4c0.6,0.8,1.7,0.9,2.4,0.3L158.2,165.8z"
				/>
			<path class="st14" d="M158.2,165.8l12.1-9.1c0.8-0.6,1.9-0.4,2.4,0.4l2.4,3.6l-7.4,10.4c-0.6,0.8-1.7,0.9-2.4,0.3L158.2,165.8z"
				/>
		</g>
		<path class="st7" d="M168.8,109.7c-10.6,10.6-31.4,2.1-31.4,19.1l1.3,12.5c0.3,2.8,1.9,5.3,4.3,6.6l12.1,6.7
			c1.9,1.1,4.3,1.1,6.2,0l12.1-6.7c2.5-1.4,4.1-3.9,4.3-6.6l1.5-14.8c0.1-1.1,0.1-2.1,0.1-3.2C178.5,117.8,170.9,113.9,168.8,109.7z
			"/>
		<path class="st4" d="M137.4,128.8l1.3,12.5c0.3,2.8,1.9,5.3,4.3,6.6l12.1,6.7c1.3,0.7,2.9,0.9,4.3,0.6l0,0c0,0-6.1-1.8-9.7-11.7
			c-1.1-3-2.7-18.9-1.3-20.9c2.6-3.8,17.2-4.2,21.6-11.4c-0.2-0.3-0.4-0.5-0.6-0.8c0,0,0,0,0-0.1c-0.2-0.3-0.4-0.6-0.5-0.8
			C158.2,120.3,137.4,111.8,137.4,128.8z"/>
		<path class="st14" d="M173.7,181.8h-5.5c-2,0-3.6,1.6-3.6,3.6v0.6h12.7v-0.6C177.3,183.4,175.7,181.8,173.7,181.8z"/>
	</g>
</g>
</svg>
