<?xml version="1.0" encoding="UTF-8" standalone="no"?>
<!-- Created with Inkscape (http://www.inkscape.org/) -->

<svg
   xmlns:dc="http://purl.org/dc/elements/1.1/"
   xmlns:cc="http://creativecommons.org/ns#"
   xmlns:rdf="http://www.w3.org/1999/02/22-rdf-syntax-ns#"
   xmlns:svg="http://www.w3.org/2000/svg"
   xmlns="http://www.w3.org/2000/svg"
   xmlns:sodipodi="http://sodipodi.sourceforge.net/DTD/sodipodi-0.dtd"
   xmlns:inkscape="http://www.inkscape.org/namespaces/inkscape"
   version="1.1"
   id="svg4092"
   xml:space="preserve"
   width="377.94666"
   height="120.94467"
   viewBox="0 0 377.94666 120.94467"
   sodipodi:docname="fondation_arc.svg"
   inkscape:version="0.92.2 5c3e80d, 2017-08-06"><metadata
     id="metadata4098"><rdf:RDF><cc:Work
         rdf:about=""><dc:format>image/svg+xml</dc:format><dc:type
           rdf:resource="http://purl.org/dc/dcmitype/StillImage" /><dc:title></dc:title></cc:Work></rdf:RDF></metadata><defs
     id="defs4096"><clipPath
       clipPathUnits="userSpaceOnUse"
       id="clipPath4112"><path
         d="M 0,90.708 H 283.46 V 0 H 0 Z"
         id="path4110"
         inkscape:connector-curvature="0" /></clipPath></defs><sodipodi:namedview
     pagecolor="#ffffff"
     bordercolor="#666666"
     borderopacity="1"
     objecttolerance="10"
     gridtolerance="10"
     guidetolerance="10"
     inkscape:pageopacity="0"
     inkscape:pageshadow="2"
     inkscape:window-width="1203"
     inkscape:window-height="740"
     id="namedview4094"
     showgrid="false"
     inkscape:zoom="2.1802019"
     inkscape:cx="199.24572"
     inkscape:cy="65.278557"
     inkscape:window-x="557"
     inkscape:window-y="265"
     inkscape:window-maximized="0"
     inkscape:current-layer="g4100" /><g
     id="g4100"
     inkscape:groupmode="layer"
     inkscape:label="LogoFondationARC_Quadri bleu"
     transform="matrix(1.3333333,0,0,-1.3333333,0,120.94467)"><g
       id="g4102"
       transform="translate(26.8857,68.2686)"><path
         d="m 0,0 v -2.393 h 4.081 v -3.15 H 0 v -5.621 H -3.722 V 3.151 H 4.499 L 4.499,0 Z"
         style="fill:#009cbc;fill-opacity:1;fill-rule:nonzero;stroke:none"
         id="path4104"
         inkscape:connector-curvature="0" /></g><g
       id="g4106"><g
         id="g4108"
         clip-path="url(#clipPath4112)"><g
           id="g4114"
           transform="translate(36.6055,64.5093)"><path
             d="m 0,0 c 0,-2.468 1.822,-4.271 4.043,-4.271 2.221,0 4.044,1.803 4.044,4.271 0,1.974 -1.823,3.778 -4.044,3.778 C 1.822,3.778 0,1.974 0,0 m 11.96,0.019 c 0,-4.632 -3.322,-7.897 -7.917,-7.897 -4.594,0 -7.916,3.265 -7.916,7.897 0,4.329 3.797,7.366 7.916,7.366 4.119,0 7.917,-3.037 7.917,-7.366"
             style="fill:#009cbc;fill-opacity:1;fill-rule:nonzero;stroke:none"
             id="path4116"
             inkscape:connector-curvature="0" /></g><g
           id="g4118"
           transform="translate(50.292,71.4194)"><path
             d="m 0,0 h 3.721 l 6.815,-8.752 h 0.037 V 0 h 3.722 V -14.314 H 10.573 L 3.759,-5.543 H 3.721 v -8.771 H 0 Z"
             style="fill:#009cbc;fill-opacity:1;fill-rule:nonzero;stroke:none"
             id="path4120"
             inkscape:connector-curvature="0" /></g><g
           id="g4122"
           transform="translate(70.7373,60.2568)"><path
             d="m 0,0 h 0.835 c 2.222,0 4.12,1.215 4.12,4.006 0,2.563 -1.689,4.006 -4.082,4.006 H 0 Z m -3.722,11.163 h 5.279 c 3.987,0 7.27,-3.132 7.27,-7.157 0,-4.025 -3.303,-7.158 -7.27,-7.158 h -5.279 z"
             style="fill:#009cbc;fill-opacity:1;fill-rule:nonzero;stroke:none"
             id="path4124"
             inkscape:connector-curvature="0" /></g><g
           id="g4126"
           transform="translate(87.5381,66.9956)"><path
             d="M 0,0 H -0.038 L -1.575,-4.556 H 1.519 Z M -2.601,-7.403 -3.589,-9.891 H -7.537 L -2.032,4.424 H 2.031 L 7.423,-9.891 H 3.455 l -0.931,2.488 z"
             style="fill:#009cbc;fill-opacity:1;fill-rule:nonzero;stroke:none"
             id="path4128"
             inkscape:connector-curvature="0" /></g><g
           id="g4130"
           transform="translate(100.6777,57.105)"><path
             d="m 0,0 h -3.721 v 11.164 h -3.075 v 3.15 h 9.872 v -3.15 H 0 Z"
             style="fill:#009cbc;fill-opacity:1;fill-rule:nonzero;stroke:none"
             id="path4132"
             inkscape:connector-curvature="0" /></g><path
           d="M 108.822,57.105 H 105.1 v 14.314 h 3.722 z"
           style="fill:#009cbc;fill-opacity:1;fill-rule:nonzero;stroke:none"
           id="path4134"
           inkscape:connector-curvature="0" /><g
           id="g4136"
           transform="translate(114.4033,64.5093)"><path
             d="m 0,0 c 0,-2.468 1.822,-4.271 4.044,-4.271 2.221,0 4.043,1.803 4.043,4.271 0,1.974 -1.822,3.778 -4.043,3.778 C 1.822,3.778 0,1.974 0,0 m 11.96,0.019 c 0,-4.632 -3.322,-7.897 -7.916,-7.897 -4.595,0 -7.917,3.265 -7.917,7.897 0,4.329 3.797,7.366 7.917,7.366 4.119,0 7.916,-3.037 7.916,-7.366"
             style="fill:#009cbc;fill-opacity:1;fill-rule:nonzero;stroke:none"
             id="path4138"
             inkscape:connector-curvature="0" /></g><g
           id="g4140"
           transform="translate(128.0898,71.4194)"><path
             d="m 0,0 h 3.721 l 6.815,-8.752 h 0.038 V 0 h 3.721 V -14.314 H 10.574 L 3.759,-5.543 H 3.721 v -8.771 H 0 Z"
             style="fill:#009cbc;fill-opacity:1;fill-rule:nonzero;stroke:none"
             id="path4142"
             inkscape:connector-curvature="0" /></g><g
           id="g4144"
           transform="translate(157.5703,66.9956)"><path
             d="M 0,0 H -0.037 L -1.574,-4.556 H 1.52 Z M -2.6,-7.403 -3.588,-9.891 H -7.535 L -2.031,4.424 H 2.033 L 7.424,-9.891 H 3.455 l -0.93,2.488 z"
             style="fill:#009cbc;fill-opacity:1;fill-rule:nonzero;stroke:none"
             id="path4146"
             inkscape:connector-curvature="0" /></g><g
           id="g4148"
           transform="translate(169.873,65.0029)"><path
             d="m 0,0 h 0.359 c 1.217,0 2.582,0.228 2.582,1.785 0,1.556 -1.365,1.784 -2.582,1.784 H 0 Z M 8.182,-7.898 H 3.549 L 0.037,-2.392 H 0 V -7.898 H -3.721 V 6.417 h 5.563 c 2.828,0 4.972,-1.348 4.972,-4.404 0,-1.975 -1.101,-3.683 -3.132,-4.045 z"
             style="fill:#009cbc;fill-opacity:1;fill-rule:nonzero;stroke:none"
             id="path4150"
             inkscape:connector-curvature="0" /></g><g
           id="g4152"
           transform="translate(189.293,66.6167)"><path
             d="m 0,0 c -0.76,1.025 -1.992,1.575 -3.266,1.575 -2.277,0 -3.814,-1.746 -3.814,-3.968 0,-2.258 1.557,-3.891 3.871,-3.891 1.217,0 2.432,0.589 3.209,1.519 v -4.462 c -1.234,-0.379 -2.127,-0.664 -3.283,-0.664 -1.994,0 -3.893,0.759 -5.373,2.108 -1.576,1.423 -2.297,3.284 -2.297,5.41 0,1.956 0.74,3.835 2.105,5.24 1.407,1.443 3.438,2.316 5.45,2.316 1.197,0 2.296,-0.266 3.398,-0.722 z"
             style="fill:#009cbc;fill-opacity:1;fill-rule:nonzero;stroke:none"
             id="path4154"
             inkscape:connector-curvature="0" /></g><g
           id="g4156"
           transform="translate(29.853,45.106)"><path
             d="m 0,0 h 0.672 c 1.117,0 2.065,0.336 2.065,1.632 0,1.476 -1.188,1.585 -2.366,1.585 L 0,3.217 Z M 0,-4.899 H -1.009 V 4.153 H 0.48 c 0.78,0 1.584,-0.024 2.245,-0.48 0.671,-0.468 1.02,-1.26 1.02,-2.065 0,-0.733 -0.3,-1.476 -0.864,-1.945 -0.612,-0.504 -1.393,-0.6 -2.149,-0.6 H 0 Z"
             style="fill:#009cbc;fill-opacity:1;fill-rule:nonzero;stroke:none"
             id="path4158"
             inkscape:connector-curvature="0" /></g><g
           id="g4160"
           transform="translate(35.436,44.7329)"><path
             d="m 0,0 c 0,-2.041 1.657,-3.745 3.71,-3.745 2.053,0 3.709,1.704 3.709,3.745 0,2.054 -1.633,3.745 -3.709,3.745 C 1.633,3.745 0,2.054 0,0 m 8.428,-0.012 c 0,-2.604 -2.138,-4.668 -4.718,-4.668 -2.582,0 -4.718,2.064 -4.718,4.668 0,2.593 2.136,4.695 4.718,4.695 2.58,0 4.718,-2.102 4.718,-4.695"
             style="fill:#009cbc;fill-opacity:1;fill-rule:nonzero;stroke:none"
             id="path4162"
             inkscape:connector-curvature="0" /></g><g
           id="g4164"
           transform="translate(46.2183,43.8687)"><path
             d="m 0,0 c 0,-0.672 -0.023,-1.44 0.396,-2.016 0.397,-0.552 1.165,-0.864 1.825,-0.864 0.648,0 1.357,0.299 1.777,0.804 C 4.479,-1.5 4.442,-0.708 4.442,0 v 5.39 h 1.009 v -5.665 c 0,-0.986 -0.072,-1.766 -0.793,-2.51 -0.624,-0.672 -1.524,-1.031 -2.437,-1.031 -0.852,0 -1.729,0.324 -2.341,0.924 -0.792,0.755 -0.888,1.583 -0.888,2.617 V 5.39 L 0,5.39 Z"
             style="fill:#009cbc;fill-opacity:1;fill-rule:nonzero;stroke:none"
             id="path4166"
             inkscape:connector-curvature="0" /></g><g
           id="g4168"
           transform="translate(54.4673,45.0698)"><path
             d="M 0,0 H 0.313 C 1.452,0 2.604,0.217 2.604,1.62 2.604,3.109 1.513,3.253 0.3,3.253 H 0 Z M 0,-4.863 H -1.009 V 4.189 H 0.3 c 1.717,0 3.313,-0.457 3.313,-2.497 0,-1.392 -0.876,-2.377 -2.268,-2.497 L 4.226,-4.863 H 2.989 L 0.252,-0.889 H 0 Z"
             style="fill:#009cbc;fill-opacity:1;fill-rule:nonzero;stroke:none"
             id="path4170"
             inkscape:connector-curvature="0" /></g><g
           id="g4172"
           transform="translate(64.6733,41.144)"><path
             d="M 0,0 H 2.497 V -0.937 H -1.009 V 8.115 H 0 Z"
             style="fill:#009cbc;fill-opacity:1;fill-rule:nonzero;stroke:none"
             id="path4174"
             inkscape:connector-curvature="0" /></g><g
           id="g4176"
           transform="translate(71.481,47.3384)"><path
             d="M 0,0 -1.549,-3.625 H 1.513 Z M -1.957,-4.562 -3.05,-7.131 h -1.103 l 4.176,9.484 4.07,-9.484 H 2.978 l -1.07,2.569 z"
             style="fill:#009cbc;fill-opacity:1;fill-rule:nonzero;stroke:none"
             id="path4178"
             inkscape:connector-curvature="0" /></g><g
           id="g4180"
           transform="translate(83.1953,48.0933)"><path
             d="m 0,0 h 0.36 c 1.215,0 2.582,0.228 2.582,1.785 0,1.557 -1.367,1.784 -2.582,1.784 H 0 Z M 8.182,-7.897 H 3.55 L 0.037,-2.392 H 0 V -7.897 H -3.722 V 6.417 h 5.564 c 2.828,0 4.973,-1.348 4.973,-4.404 0,-1.975 -1.101,-3.684 -3.132,-4.044 z"
             style="fill:#009cbc;fill-opacity:1;fill-rule:nonzero;stroke:none"
             id="path4182"
             inkscape:connector-curvature="0" /></g><g
           id="g4184"
           transform="translate(96.1035,51.3579)"><path
             d="M 0,0 V -2.391 H 4.196 V -5.542 H 0 v -2.469 h 4.424 v -3.151 H -3.721 V 3.152 H 4.424 V 0 Z"
             style="fill:#009cbc;fill-opacity:1;fill-rule:nonzero;stroke:none"
             id="path4186"
             inkscape:connector-curvature="0" /></g><g
           id="g4188"
           transform="translate(113.0566,49.7065)"><path
             d="m 0,0 c -0.76,1.025 -1.994,1.576 -3.266,1.576 -2.278,0 -3.815,-1.746 -3.815,-3.968 0,-2.258 1.557,-3.892 3.872,-3.892 1.215,0 2.431,0.589 3.209,1.52 v -4.462 c -1.234,-0.379 -2.127,-0.664 -3.284,-0.664 -1.994,0 -3.892,0.759 -5.373,2.107 -1.575,1.423 -2.297,3.283 -2.297,5.41 0,1.955 0.74,3.835 2.107,5.241 1.405,1.443 3.437,2.315 5.449,2.315 1.196,0 2.296,-0.266 3.398,-0.722 z"
             style="fill:#009cbc;fill-opacity:1;fill-rule:nonzero;stroke:none"
             id="path4190"
             inkscape:connector-curvature="0" /></g><g
           id="g4192"
           transform="translate(124.4463,48.9854)"><path
             d="M 0,0 V 5.525 H 3.721 V -8.789 H 0 v 5.866 H -5.373 V -8.789 H -9.094 V 5.525 h 3.721 l 0,-5.525 z"
             style="fill:#009cbc;fill-opacity:1;fill-rule:nonzero;stroke:none"
             id="path4194"
             inkscape:connector-curvature="0" /></g><g
           id="g4196"
           transform="translate(134.3174,51.3579)"><path
             d="M 0,0 V -2.391 H 4.196 V -5.542 H 0 v -2.469 h 4.423 v -3.151 H -3.721 V 3.152 H 4.423 V 0 Z"
             style="fill:#009cbc;fill-opacity:1;fill-rule:nonzero;stroke:none"
             id="path4198"
             inkscape:connector-curvature="0" /></g><g
           id="g4200"
           transform="translate(144.7578,48.0933)"><path
             d="m 0,0 h 0.361 c 1.215,0 2.582,0.228 2.582,1.785 0,1.557 -1.367,1.784 -2.582,1.784 H 0 Z M 8.182,-7.897 H 3.551 L 0.037,-2.392 H 0 V -7.897 H -3.721 V 6.417 h 5.563 c 2.828,0 4.974,-1.348 4.974,-4.404 0,-1.975 -1.101,-3.684 -3.132,-4.044 z"
             style="fill:#009cbc;fill-opacity:1;fill-rule:nonzero;stroke:none"
             id="path4202"
             inkscape:connector-curvature="0" /></g><g
           id="g4204"
           transform="translate(164.1777,49.7065)"><path
             d="m 0,0 c -0.76,1.025 -1.992,1.576 -3.266,1.576 -2.277,0 -3.814,-1.746 -3.814,-3.968 0,-2.258 1.557,-3.892 3.873,-3.892 1.215,0 2.43,0.589 3.207,1.52 v -4.462 c -1.232,-0.379 -2.125,-0.664 -3.283,-0.664 -1.994,0 -3.893,0.759 -5.373,2.107 -1.576,1.423 -2.297,3.283 -2.297,5.41 0,1.955 0.74,3.835 2.107,5.241 1.405,1.443 3.436,2.315 5.45,2.315 1.195,0 2.296,-0.266 3.396,-0.722 z"
             style="fill:#009cbc;fill-opacity:1;fill-rule:nonzero;stroke:none"
             id="path4206"
             inkscape:connector-curvature="0" /></g><g
           id="g4208"
           transform="translate(175.5684,48.9854)"><path
             d="M 0,0 V 5.525 H 3.721 V -8.789 H 0 v 5.866 H -5.373 V -8.789 H -9.094 V 5.525 h 3.721 l 0,-5.525 z"
             style="fill:#009cbc;fill-opacity:1;fill-rule:nonzero;stroke:none"
             id="path4210"
             inkscape:connector-curvature="0" /></g><g
           id="g4212"
           transform="translate(185.4395,51.3579)"><path
             d="M 0,0 V -2.391 H 4.195 V -5.542 H 0 v -2.469 h 4.424 v -3.151 H -3.721 V 3.152 H 4.424 V 0 Z"
             style="fill:#009cbc;fill-opacity:1;fill-rule:nonzero;stroke:none"
             id="path4214"
             inkscape:connector-curvature="0" /></g><g
           id="g4216"
           transform="translate(75.749,30.833)"><path
             d="m 0,0 c -0.36,0.624 -0.792,0.983 -1.561,0.983 -0.804,0 -1.501,-0.576 -1.501,-1.404 0,-0.779 0.805,-1.141 1.417,-1.416 l 0.6,-0.265 c 1.177,-0.516 2.174,-1.104 2.174,-2.544 0,-1.585 -1.273,-2.797 -2.846,-2.797 -1.452,0 -2.532,0.935 -2.821,2.34 l 0.984,0.278 c 0.133,-0.926 0.841,-1.683 1.814,-1.683 0.971,0 1.86,0.745 1.86,1.766 0,1.056 -0.828,1.417 -1.669,1.8 l -0.552,0.241 c -1.056,0.479 -1.968,1.02 -1.968,2.317 0,1.404 1.188,2.305 2.533,2.305 1.008,0 1.86,-0.517 2.34,-1.404 z"
             style="fill:#009cbc;fill-opacity:1;fill-rule:nonzero;stroke:none"
             id="path4218"
             inkscape:connector-curvature="0" /></g><g
           id="g4220"
           transform="translate(79.3398,27.207)"><path
             d="m 0,0 c 0,-0.672 -0.024,-1.44 0.396,-2.017 0.396,-0.552 1.165,-0.865 1.825,-0.865 0.648,0 1.356,0.301 1.777,0.805 C 4.478,-1.5 4.441,-0.709 4.441,0 V 5.39 H 5.45 v -5.666 c 0,-0.985 -0.072,-1.765 -0.792,-2.508 -0.625,-0.673 -1.525,-1.033 -2.437,-1.033 -0.853,0 -1.729,0.324 -2.341,0.924 -0.793,0.756 -0.889,1.584 -0.889,2.617 V 5.39 H 0 Z"
             style="fill:#009cbc;fill-opacity:1;fill-rule:nonzero;stroke:none"
             id="path4222"
             inkscape:connector-curvature="0" /></g><g
           id="g4224"
           transform="translate(87.5879,28.4072)"><path
             d="m 0,0 h 0.313 c 1.14,0 2.292,0.218 2.292,1.621 0,1.489 -1.092,1.633 -2.304,1.633 H 0 Z m 0,-4.862 h -1.008 v 9.051 h 1.309 c 1.717,0 3.313,-0.456 3.313,-2.496 0,-1.392 -0.877,-2.377 -2.269,-2.497 L 4.226,-4.862 H 2.99 L 0.253,-0.888 H 0 Z"
             style="fill:#009cbc;fill-opacity:1;fill-rule:nonzero;stroke:none"
             id="path4226"
             inkscape:connector-curvature="0" /></g><g
           id="g4228"
           transform="translate(97.7949,24.4824)"><path
             d="M 0,0 H 2.496 V -0.938 H -1.009 V 8.114 L 0,8.114 Z"
             style="fill:#009cbc;fill-opacity:1;fill-rule:nonzero;stroke:none"
             id="path4230"
             inkscape:connector-curvature="0" /></g><g
           id="g4232"
           transform="translate(101.2891,32.5967)"><path
             d="M 0,0 H 4.693 V -0.936 H 1.008 V -3.625 H 4.586 V -4.562 H 1.008 v -3.552 h 3.685 v -0.938 l -4.693,0 z"
             style="fill:#009cbc;fill-opacity:1;fill-rule:nonzero;stroke:none"
             id="path4234"
             inkscape:connector-curvature="0" /></g><g
           id="g4236"
           transform="translate(120.8926,33.0586)"><path
             d="m 0,0 c -0.76,1.025 -1.994,1.576 -3.266,1.576 -2.278,0 -3.816,-1.747 -3.816,-3.968 0,-2.258 1.557,-3.891 3.873,-3.891 1.215,0 2.43,0.589 3.209,1.518 v -4.462 c -1.234,-0.378 -2.127,-0.664 -3.285,-0.664 -1.992,0 -3.891,0.759 -5.372,2.107 -1.576,1.424 -2.298,3.285 -2.298,5.411 0,1.956 0.741,3.835 2.107,5.24 1.406,1.444 3.437,2.316 5.45,2.316 1.195,0 2.296,-0.266 3.398,-0.722 z"
             style="fill:#009cbc;fill-opacity:1;fill-rule:nonzero;stroke:none"
             id="path4238"
             inkscape:connector-curvature="0" /></g><g
           id="g4240"
           transform="translate(129.4346,33.4385)"><path
             d="M 0,0 H -0.038 L -1.575,-4.557 H 1.519 Z M -2.601,-7.404 -3.588,-9.892 H -7.536 L -2.031,4.423 H 2.031 L 7.423,-9.892 H 3.455 l -0.93,2.488 z"
             style="fill:#009cbc;fill-opacity:1;fill-rule:nonzero;stroke:none"
             id="path4242"
             inkscape:connector-curvature="0" /></g><g
           id="g4244"
           transform="translate(138.0146,37.8613)"><path
             d="m 0,0 h 3.721 l 6.815,-8.751 h 0.037 V 0 h 3.721 V -14.314 H 10.573 L 3.759,-5.543 H 3.721 v -8.771 H 0 Z"
             style="fill:#009cbc;fill-opacity:1;fill-rule:nonzero;stroke:none"
             id="path4246"
             inkscape:connector-curvature="0" /></g><g
           id="g4248"
           transform="translate(164.9707,33.0586)"><path
             d="m 0,0 c -0.758,1.025 -1.992,1.576 -3.264,1.576 -2.279,0 -3.816,-1.747 -3.816,-3.968 0,-2.258 1.557,-3.891 3.873,-3.891 1.215,0 2.43,0.589 3.207,1.518 v -4.462 c -1.232,-0.378 -2.125,-0.664 -3.283,-0.664 -1.994,0 -3.893,0.759 -5.373,2.107 -1.576,1.424 -2.297,3.285 -2.297,5.411 0,1.956 0.74,3.835 2.107,5.24 1.405,1.444 3.436,2.316 5.448,2.316 1.197,0 2.298,-0.266 3.398,-0.722 z"
             style="fill:#009cbc;fill-opacity:1;fill-rule:nonzero;stroke:none"
             id="path4250"
             inkscape:connector-curvature="0" /></g><g
           id="g4252"
           transform="translate(170.9883,34.71)"><path
             d="M 0,0 V -2.392 H 4.197 V -5.543 H 0 v -2.469 h 4.424 v -3.151 H -3.721 V 3.151 H 4.424 V 0 Z"
             style="fill:#009cbc;fill-opacity:1;fill-rule:nonzero;stroke:none"
             id="path4254"
             inkscape:connector-curvature="0" /></g><g
           id="g4256"
           transform="translate(181.4297,31.4443)"><path
             d="m 0,0 h 0.361 c 1.215,0 2.582,0.229 2.582,1.786 0,1.557 -1.367,1.783 -2.582,1.783 H 0 Z M 8.182,-7.897 H 3.551 L 0.037,-2.392 H 0 V -7.897 H -3.721 V 6.417 h 5.563 c 2.828,0 4.974,-1.347 4.974,-4.403 0,-1.976 -1.101,-3.684 -3.132,-4.045 z"
             style="fill:#009cbc;fill-opacity:1;fill-rule:nonzero;stroke:none"
             id="path4258"
             inkscape:connector-curvature="0" /></g><g
           id="g4260"
           transform="translate(93.9746,13.3545)"><path
             d="m 0,0 h 0.196 c 0.715,0 1.437,0.135 1.437,1.016 0,0.932 -0.685,1.022 -1.445,1.022 L 0,2.038 Z m 0,-3.047 h -0.632 v 5.672 h 0.82 c 1.077,0 2.077,-0.286 2.077,-1.564 0,-0.873 -0.549,-1.49 -1.422,-1.565 L 2.648,-3.047 H 1.874 l -1.716,2.49 H 0 Z"
             style="fill:#009cbc;fill-opacity:1;fill-rule:nonzero;stroke:none"
             id="path4262"
             inkscape:connector-curvature="0" /></g><g
           id="g4264"
           transform="translate(100.2402,12.459)"><path
             d="M 0,0 C -0.083,0.512 -0.512,0.926 -1.038,0.926 -1.558,0.926 -2.039,0.512 -2.114,0 Z m -2.144,-0.512 c 0.007,-0.654 0.474,-1.18 1.159,-1.18 0.511,0 0.842,0.308 1.075,0.729 l 0.512,-0.293 c -0.338,-0.632 -0.911,-0.993 -1.632,-0.993 -1.054,0 -1.731,0.805 -1.731,1.82 0,1.046 0.61,1.911 1.715,1.911 1.136,0 1.738,-0.94 1.678,-1.994 z"
             style="fill:#009cbc;fill-opacity:1;fill-rule:nonzero;stroke:none"
             id="path4266"
             inkscape:connector-curvature="0" /></g><g
           id="g4268"
           transform="translate(104.7002,12.79)"><path
             d="m 0,0 h -0.016 c -0.278,0.354 -0.624,0.595 -1.097,0.595 -0.73,0 -1.249,-0.603 -1.249,-1.31 0,-0.699 0.481,-1.308 1.218,-1.308 0.504,0 0.858,0.225 1.152,0.609 h 0.014 v -0.805 c -0.345,-0.233 -0.699,-0.361 -1.121,-0.361 -1.068,0 -1.88,0.797 -1.88,1.865 0,1.054 0.85,1.866 1.888,1.866 0.384,0 0.775,-0.128 1.091,-0.353 z"
             style="fill:#009cbc;fill-opacity:1;fill-rule:nonzero;stroke:none"
             id="path4270"
             inkscape:connector-curvature="0" /></g><g
           id="g4272"
           transform="translate(106.3164,12.0752)"><path
             d="m 0,0 c 0,-0.722 0.512,-1.309 1.257,-1.309 0.744,0 1.256,0.587 1.256,1.309 0,0.715 -0.512,1.31 -1.256,1.31 C 0.512,1.31 0,0.715 0,0 m -0.602,-0.007 c 0,1.038 0.821,1.873 1.859,1.873 1.038,0 1.857,-0.835 1.857,-1.873 0,-1.039 -0.827,-1.858 -1.857,-1.858 -1.031,0 -1.859,0.819 -1.859,1.858"
             style="fill:#009cbc;fill-opacity:1;fill-rule:nonzero;stroke:none"
             id="path4274"
             inkscape:connector-curvature="0" /></g><g
           id="g4276"
           transform="translate(111.2354,13.4141)"><path
             d="m 0,0 h 0.015 c 0.248,0.339 0.572,0.527 1.007,0.527 0.979,0 1.205,-0.707 1.205,-1.535 V -3.106 H 1.625 v 1.993 c 0,0.572 -0.046,1.084 -0.745,1.084 -0.827,0 -0.88,-0.768 -0.88,-1.4 v -1.677 h -0.603 v 3.535 l 0.603,0 z"
             style="fill:#009cbc;fill-opacity:1;fill-rule:nonzero;stroke:none"
             id="path4278"
             inkscape:connector-curvature="0" /></g><g
           id="g4280"
           transform="translate(115.582,13.4141)"><path
             d="m 0,0 h 0.015 c 0.248,0.339 0.572,0.527 1.007,0.527 0.979,0 1.205,-0.707 1.205,-1.535 V -3.106 H 1.625 v 1.993 c 0,0.572 -0.046,1.084 -0.745,1.084 -0.827,0 -0.88,-0.768 -0.88,-1.4 v -1.677 h -0.603 v 3.535 l 0.603,0 z"
             style="fill:#009cbc;fill-opacity:1;fill-rule:nonzero;stroke:none"
             id="path4282"
             inkscape:connector-curvature="0" /></g><g
           id="g4284"
           transform="translate(119.8838,11.8721)"><path
             d="m 0,0 c 0,-0.594 0.068,-1.105 0.798,-1.105 0.729,0 0.798,0.511 0.798,1.105 v 1.971 h 0.601 v -2.038 c 0,-0.941 -0.353,-1.595 -1.399,-1.595 -1.046,0 -1.4,0.654 -1.4,1.595 V 1.971 H 0 Z"
             style="fill:#009cbc;fill-opacity:1;fill-rule:nonzero;stroke:none"
             id="path4286"
             inkscape:connector-curvature="0" /></g><g
           id="g4288"
           transform="translate(125.999,12.459)"><path
             d="M 0,0 C -0.083,0.512 -0.512,0.926 -1.038,0.926 -1.558,0.926 -2.039,0.512 -2.114,0 Z m -2.144,-0.512 c 0.007,-0.654 0.474,-1.18 1.159,-1.18 0.511,0 0.842,0.308 1.075,0.729 l 0.512,-0.293 c -0.338,-0.632 -0.911,-0.993 -1.632,-0.993 -1.054,0 -1.731,0.805 -1.731,1.82 0,1.046 0.61,1.911 1.715,1.911 1.136,0 1.738,-0.94 1.678,-1.994 z"
             style="fill:#009cbc;fill-opacity:1;fill-rule:nonzero;stroke:none"
             id="path4290"
             inkscape:connector-curvature="0" /></g><g
           id="g4292"
           transform="translate(130.8418,12.1133)"><path
             d="m 0,0 c 0,-0.692 0.406,-1.347 1.158,-1.347 0.776,0 1.182,0.624 1.182,1.339 0,0.707 -0.444,1.279 -1.189,1.279 C 0.451,1.271 0,0.662 0,0 M 2.31,-1.316 H 2.294 C 2.001,-1.7 1.558,-1.903 1.076,-1.903 c -1.039,0 -1.693,0.88 -1.693,1.858 0,1.008 0.639,1.873 1.7,1.873 0.475,0 0.926,-0.225 1.211,-0.602 H 2.31 V 4.4 H 2.911 V -1.806 H 2.31 Z"
             style="fill:#009cbc;fill-opacity:1;fill-rule:nonzero;stroke:none"
             id="path4294"
             inkscape:connector-curvature="0" /></g><g
           id="g4296"
           transform="translate(136.3848,15.874)"><path
             d="m 0,0 -0.857,-1.918 -0.407,0.158 0.707,1.963 z"
             style="fill:#009cbc;fill-opacity:1;fill-rule:nonzero;stroke:none"
             id="path4298"
             inkscape:connector-curvature="0" /></g><g
           id="g4300"
           transform="translate(138.3467,11.8721)"><path
             d="m 0,0 c 0,-0.594 0.068,-1.105 0.798,-1.105 0.729,0 0.798,0.511 0.798,1.105 v 1.971 h 0.601 v -2.038 c 0,-0.941 -0.353,-1.595 -1.399,-1.595 -1.046,0 -1.4,0.654 -1.4,1.595 V 1.971 H 0 Z"
             style="fill:#009cbc;fill-opacity:1;fill-rule:nonzero;stroke:none"
             id="path4302"
             inkscape:connector-curvature="0" /></g><g
           id="g4304"
           transform="translate(142.6484,10.3076)"><path
             d="M 0,0 H -0.602 V 2.979 H -0.97 v 0.556 h 0.368 V 4.807 H 0 V 3.535 H 0.633 V 2.979 H 0 Z"
             style="fill:#009cbc;fill-opacity:1;fill-rule:nonzero;stroke:none"
             id="path4306"
             inkscape:connector-curvature="0" /></g><path
           d="m 144.912,10.308 h -0.602 v 3.535 h 0.602 z m 0.129,4.867 c 0,-0.241 -0.195,-0.429 -0.43,-0.429 -0.232,0 -0.427,0.188 -0.427,0.429 0,0.233 0.195,0.429 0.427,0.429 0.235,0 0.43,-0.196 0.43,-0.429"
           style="fill:#009cbc;fill-opacity:1;fill-rule:nonzero;stroke:none"
           id="path4308"
           inkscape:connector-curvature="0" /><path
           d="m 147.131,10.308 h -0.602 v 6.206 h 0.602 z"
           style="fill:#009cbc;fill-opacity:1;fill-rule:nonzero;stroke:none"
           id="path4310"
           inkscape:connector-curvature="0" /><path
           d="m 149.342,10.308 h -0.602 v 3.535 h 0.602 z m 0.129,4.867 c 0,-0.241 -0.196,-0.429 -0.43,-0.429 -0.232,0 -0.428,0.188 -0.428,0.429 0,0.233 0.196,0.429 0.428,0.429 0.234,0 0.43,-0.196 0.43,-0.429"
           style="fill:#009cbc;fill-opacity:1;fill-rule:nonzero;stroke:none"
           id="path4312"
           inkscape:connector-curvature="0" /><g
           id="g4314"
           transform="translate(151.6055,10.3076)"><path
             d="m 0,0 h -0.602 v 2.979 h -0.369 v 0.556 h 0.369 V 4.807 H 0 V 3.535 H 0.633 V 2.979 H 0 Z"
             style="fill:#009cbc;fill-opacity:1;fill-rule:nonzero;stroke:none"
             id="path4316"
             inkscape:connector-curvature="0" /></g><g
           id="g4318"
           transform="translate(155.3066,15.6182)"><path
             d="m 0,0 -1.15,-1.158 -0.377,0.211 0.894,1.233 z m 0.293,-3.159 c -0.082,0.512 -0.512,0.926 -1.037,0.926 -0.52,0 -1.002,-0.414 -1.076,-0.926 z M -1.85,-3.671 c 0.006,-0.654 0.473,-1.181 1.159,-1.181 0.511,0 0.841,0.309 1.074,0.73 l 0.512,-0.293 c -0.338,-0.632 -0.911,-0.993 -1.631,-0.993 -1.055,0 -1.731,0.804 -1.731,1.82 0,1.046 0.61,1.911 1.715,1.911 1.135,0 1.738,-0.94 1.678,-1.994 z"
             style="fill:#009cbc;fill-opacity:1;fill-rule:nonzero;stroke:none"
             id="path4320"
             inkscape:connector-curvature="0" /></g><g
           id="g4322"
           transform="translate(160.668,12.1133)"><path
             d="m 0,0 c 0,-0.692 0.406,-1.347 1.158,-1.347 0.776,0 1.182,0.624 1.182,1.339 0,0.707 -0.444,1.279 -1.188,1.279 C 0.451,1.271 0,0.662 0,0 m 0.031,1.226 h 0.014 c 0.295,0.391 0.73,0.602 1.219,0.602 1.039,0 1.693,-0.895 1.693,-1.873 0,-1.009 -0.639,-1.858 -1.701,-1.858 -0.481,0 -0.924,0.211 -1.211,0.593 H 0.031 V -3.792 H -0.57 v 5.521 h 0.601 z"
             style="fill:#009cbc;fill-opacity:1;fill-rule:nonzero;stroke:none"
             id="path4324"
             inkscape:connector-curvature="0" /></g><g
           id="g4326"
           transform="translate(165.3984,11.8721)"><path
             d="m 0,0 c 0,-0.594 0.068,-1.105 0.797,-1.105 0.73,0 0.799,0.511 0.799,1.105 v 1.971 h 0.601 v -2.038 c 0,-0.941 -0.353,-1.595 -1.4,-1.595 -1.045,0 -1.399,0.654 -1.399,1.595 V 1.971 H 0 Z"
             style="fill:#009cbc;fill-opacity:1;fill-rule:nonzero;stroke:none"
             id="path4328"
             inkscape:connector-curvature="0" /></g><g
           id="g4330"
           transform="translate(169.6094,12.1133)"><path
             d="m 0,0 c 0,-0.692 0.406,-1.347 1.158,-1.347 0.776,0 1.182,0.624 1.182,1.339 0,0.707 -0.444,1.279 -1.188,1.279 C 0.451,1.271 0,0.662 0,0 M -0.57,4.4 H 0.031 V 1.226 h 0.014 c 0.287,0.377 0.73,0.602 1.211,0.602 1.055,0 1.701,-0.865 1.701,-1.866 0,-0.985 -0.654,-1.865 -1.693,-1.865 -0.489,0 -0.932,0.203 -1.219,0.587 H 0.031 v -0.49 H -0.57 Z"
             style="fill:#009cbc;fill-opacity:1;fill-rule:nonzero;stroke:none"
             id="path4332"
             inkscape:connector-curvature="0" /></g><path
           d="m 174.371,10.308 h -0.602 v 6.206 h 0.602 z"
           style="fill:#009cbc;fill-opacity:1;fill-rule:nonzero;stroke:none"
           id="path4334"
           inkscape:connector-curvature="0" /><path
           d="m 176.582,10.308 h -0.602 v 3.535 h 0.602 z m 0.127,4.867 c 0,-0.241 -0.195,-0.429 -0.428,-0.429 -0.234,0 -0.429,0.188 -0.429,0.429 0,0.233 0.195,0.429 0.429,0.429 0.233,0 0.428,-0.196 0.428,-0.429"
           style="fill:#009cbc;fill-opacity:1;fill-rule:nonzero;stroke:none"
           id="path4336"
           inkscape:connector-curvature="0" /><g
           id="g4338"
           transform="translate(178.5293,12.1133)"><path
             d="m 0,0 c 0,-0.692 0.406,-1.347 1.158,-1.347 0.776,0 1.182,0.624 1.182,1.339 0,0.707 -0.444,1.279 -1.188,1.279 C 0.451,1.271 0,0.662 0,0 M 2.912,-3.792 H 2.311 V -1.31 H 2.295 C 2.01,-1.692 1.559,-1.903 1.084,-1.903 c -1.061,0 -1.701,0.849 -1.701,1.85 0,0.986 0.648,1.881 1.693,1.881 0.483,0 0.926,-0.211 1.219,-0.602 h 0.016 v 0.503 h 0.601 z"
             style="fill:#009cbc;fill-opacity:1;fill-rule:nonzero;stroke:none"
             id="path4340"
             inkscape:connector-curvature="0" /></g><g
           id="g4342"
           transform="translate(183.4863,11.8721)"><path
             d="m 0,0 c 0,-0.594 0.068,-1.105 0.797,-1.105 0.73,0 0.799,0.511 0.799,1.105 v 1.971 h 0.601 v -2.038 c 0,-0.941 -0.353,-1.595 -1.4,-1.595 -1.045,0 -1.399,0.654 -1.399,1.595 V 1.971 H 0 Z"
             style="fill:#009cbc;fill-opacity:1;fill-rule:nonzero;stroke:none"
             id="path4344"
             inkscape:connector-curvature="0" /></g><g
           id="g4346"
           transform="translate(189.6016,12.459)"><path
             d="m 0,0 c -0.084,0.512 -0.512,0.926 -1.039,0.926 -0.52,0 -1,-0.414 -1.076,-0.926 z m -2.145,-0.512 c 0.008,-0.654 0.475,-1.18 1.159,-1.18 0.511,0 0.843,0.308 1.076,0.729 l 0.512,-0.293 c -0.338,-0.632 -0.911,-0.993 -1.633,-0.993 -1.053,0 -1.731,0.805 -1.731,1.82 0,1.046 0.61,1.911 1.715,1.911 1.137,0 1.738,-0.94 1.678,-1.994 z"
             style="fill:#009cbc;fill-opacity:1;fill-rule:nonzero;stroke:none"
             id="path4348"
             inkscape:connector-curvature="0" /></g><g
           id="g4350"
           transform="translate(225.0039,58.105)"><path
             d="m 0,0 c -2.209,-2.283 -4.346,-4.677 -6.324,-7.106 1.592,0.101 3.162,0.324 4.693,0.483 0.809,2.38 2.529,7.063 2.529,7.063 C 1.035,0.891 0.547,0.595 0,0"
             style="fill:#009cbc;fill-opacity:1;fill-rule:nonzero;stroke:none"
             id="path4352"
             inkscape:connector-curvature="0" /></g><g
           id="g4354"
           transform="translate(260.6875,48.7451)"><path
             d="m 0,0 c -1.502,-0.228 -2.725,0.001 -3.744,0.135 -0.613,0.155 -1.252,0.242 -1.918,0.264 -0.123,-1.619 0.244,-3.231 0,-4.855 -0.108,-0.796 -0.24,-1.632 -0.44,-2.4 l -0.105,-0.27 c -0.895,-2.822 -3.906,-6.048 -6.594,-8.853 -0.467,-0.955 -0.885,-2.124 -1.795,-2.692 -0.652,-0.339 -1.299,0.197 -1.832,-0.023 -0.797,-0.37 -1.457,-2.196 -2.32,-3.744 -0.213,-0.447 -0.543,-1.005 -0.707,-1.094 -0.191,-0.105 -0.438,-0.168 -0.705,-0.168 -0.617,0 -1.117,0.335 -1.117,0.747 0,0.006 0.004,0.014 0.006,0.021 h -0.004 c 0.046,0.308 0.132,0.63 0.236,0.908 0.732,1.941 2.469,3.642 3.955,4.941 -2.02,2.047 -4.16,3.945 -6.24,5.916 l -0.016,0.008 c -2.215,2.226 -4.885,4.518 -7.248,6.835 -1.629,1.426 -3.197,3.059 -4.771,4.546 -0.065,0.083 -0.231,0.089 -0.325,0 -0.107,0.017 -1.347,-4.488 -1.959,-6.753 -0.388,-1.721 -0.695,-3.439 -0.91,-5.303 -0.113,-0.876 -0.965,-1.924 -1.824,-2.2 -0.312,-0.097 -0.674,-0.025 -0.924,0.108 -0.244,0.236 -0.246,0.433 -0.299,0.685 -0.127,1.035 0.68,2.924 0.94,4.194 0.631,2.309 1.183,4.649 1.877,6.932 0.254,0.969 0.379,1.294 0.549,1.954 l -0.061,0.119 c -2.201,0.013 -4.258,-0.169 -6.24,-0.356 -1.942,-2.322 -3.572,-4.792 -5.547,-7.105 -1.58,-2.06 -3.309,-4.215 -5.268,-5.959 -0.527,-0.396 -1.105,-0.801 -1.832,-0.572 -0.252,0.035 -0.498,0.256 -0.597,0.496 -0.26,1.209 0.896,2.063 1.656,2.902 3.305,3.002 6.234,6.657 9.057,10.063 -0.334,0.103 -0.682,-0.052 -1.018,-0.088 -0.52,-0.087 -1.338,-0.377 -1.715,0.046 -0.324,0.472 -0.26,0.915 -0.164,1.104 0.543,0.864 1.856,0.927 2.854,1.191 l 1.92,0.262 c 3.693,3.856 6.888,8.333 11.298,11.194 0.618,0.394 1.608,0.584 2.243,0.064 0.281,-0.227 0.371,-0.565 0.287,-0.927 -0.168,-0.772 -0.299,-0.958 -0.551,-1.577 -0.231,-0.427 -0.363,-0.778 -0.608,-1.34 -0.416,-1.107 -0.867,-2.232 -1.287,-3.35 -0.377,-0.981 -0.752,-1.943 -1.019,-2.958 0.078,-0.074 0.201,-0.092 0.324,-0.045 4.223,3.223 8.748,5.648 13.258,8.121 0.4,0.244 0.689,0.545 1.019,0.928 0.143,0.19 0.219,0.465 0.121,0.705 -0.285,0.532 -0.841,0.568 -1.265,0.841 -5.225,1.479 -16.26,1.268 -16.885,1.279 -0.271,-0.002 -0.635,0.326 -0.678,0.436 -0.132,0.282 -0.115,0.674 0.149,0.872 1.58,1.182 3.625,1.226 5.506,1.21 5.097,0.101 11.812,-1.15 14.32,-2.297 0.945,-0.45 2.252,-0.875 2.324,-2.384 V 12.45 c -0.332,-1.856 -2.521,-2.303 -3.795,-3.267 -3.029,-1.634 -6.062,-3.243 -9.056,-4.988 -0.557,-0.31 -1.17,-0.594 -1.631,-1.058 l 2.238,0.032 c 0.881,0.04 13.439,0.21 20.035,0.053 l 0.041,0.046 C -8.813,4.106 -9.096,4.82 -9.232,5.602 -9.516,6.496 -9.516,6.521 -9.516,6.521 L -9.82,7.33 c -0.153,0.399 -0.338,0.788 -0.575,1.147 -1.166,2.025 -2.548,3.908 -4.361,5.561 -1.574,1.341 -4.473,3.894 -4.586,4.17 0,0 -0.467,0.535 -0.246,0.958 0.109,0.21 0.184,0.504 1.018,0.845 0,0 1.625,0.639 1.832,0.025 1.726,-2.865 2.621,-3.718 3.957,-4.823 1.431,-1.175 2.886,-2.64 3.929,-4.588 0.256,-0.464 0.581,-0.987 0.848,-1.488 0.012,-0.044 0.082,-0.144 0.166,-0.323 0.516,-0.871 0.992,-2.904 1.4,-4.4 L -6.191,3.091 C -4.309,3.01 -1.535,3.169 0.08,2.933 L 0.082,2.93 Z M -65.439,-28.647 H -244.883 V 26.16 h 179.444 z m -181.075,-1.631 H 8.659 V 27.79 h -255.173 z"
             style="fill:#009cbc;fill-opacity:1;fill-rule:nonzero;stroke:none"
             id="path4356"
             inkscape:connector-curvature="0" /></g><g
           id="g4358"
           transform="translate(252.416,49.3628)"><path
             d="m 0,0 -2.896,0.178 c -6.815,0.399 -14.92,0.147 -20.872,-0.055 -0.543,-0.111 0.088,-0.696 0.393,-1.004 4.686,-4.531 9.441,-8.839 14.115,-13.109 0.549,-0.47 1.053,-1.092 1.713,-1.283 1.123,-0.594 1.916,0.664 2.643,1.272 1.211,1.177 2.304,2.017 3.232,3.498 l 0.063,0.115 c 0.359,0.533 0.119,0.193 0.386,0.679 0.569,1.057 1.018,2.185 1.346,3.353 0.033,0.179 0.125,0.493 0.125,0.567 0.221,1.206 0.07,2.546 0.037,3.806 C 0.217,-1.349 0.094,-0.66 0,0"
             style="fill:#009cbc;fill-opacity:1;fill-rule:nonzero;stroke:none"
             id="path4360"
             inkscape:connector-curvature="0" /></g></g></g></g></svg>