<?xml version="1.0" encoding="utf-8"?>
<!-- Generator: Adobe Illustrator 23.0.6, SVG Export Plug-In . SVG Version: 6.00 Build 0)  -->
<svg version="1.1" id="Calque_1" xmlns="http://www.w3.org/2000/svg" xmlns:xlink="http://www.w3.org/1999/xlink" x="0px" y="0px"
	 viewBox="0 0 178.2 116.2" style="enable-background:new 0 0 178.2 116.2;" xml:space="preserve">
<style type="text/css">
	.st0{fill:#EB5E2B;}
	.st1{fill:#F6A351;}
	.st2{fill:#FFE07E;}
	.st3{fill:#F9C84D;}
	.st4{fill:#FED067;}
	.st5{fill:#FCC152;}
</style>
<g>
	<path class="st0" d="M167,113.2h-27c-1.5,0-2.7-1.2-2.7-2.7V45.6c0-1.5,1.2-2.7,2.7-2.7h27c1.5,0,2.7,1.2,2.7,2.7v64.9
		C169.7,112,168.5,113.2,167,113.2z"/>
	<path class="st1" d="M167,69.9h-27c-1.5,0-2.7-1.2-2.7-2.7V45.6c0-1.5,1.2-2.7,2.7-2.7h27c1.5,0,2.7,1.2,2.7,2.7v21.6
		C169.7,68.7,168.5,69.9,167,69.9z"/>
	<path class="st2" d="M175,9.7c-0.3-0.9-0.9-1.5-1.8-1.8l-18.6-5.8c-1.4-0.4-2.9,0.4-3.4,1.8c-0.4,1.4,0.4,2.9,1.8,3.4l10.2,3.2
		L4,59.2c-1.4,0.4-2.2,1.9-1.8,3.4c0.4,1.2,1.4,1.9,2.6,1.9c0.3,0,0.5,0,0.8-0.1l158.9-48.7l-6.7,8c-1,1.1-0.8,2.9,0.3,3.8
		c0.5,0.4,1.1,0.6,1.7,0.6c0.8,0,1.5-0.3,2.1-1l12.5-15C175.1,11.5,175.3,10.5,175,9.7z"/>
	<path class="st3" d="M167,75.3h-27c-1.5,0-2.7-1.2-2.7-2.7V78c0,1.5,1.2,2.7,2.7,2.7h27c1.5,0,2.7-1.2,2.7-2.7v-5.4
		C169.7,74.1,168.5,75.3,167,75.3z"/>
	<path class="st3" d="M167,86.1h-27c-1.5,0-2.7-1.2-2.7-2.7v5.4c0,1.5,1.2,2.7,2.7,2.7h27c1.5,0,2.7-1.2,2.7-2.7v-5.4
		C169.7,84.9,168.5,86.1,167,86.1z"/>
	<path class="st3" d="M167,96.9h-27c-1.5,0-2.7-1.2-2.7-2.7v5.4c0,1.5,1.2,2.7,2.7,2.7h27c1.5,0,2.7-1.2,2.7-2.7v-5.4
		C169.7,95.7,168.5,96.9,167,96.9z"/>
	<path class="st3" d="M167,107.8h-27c-1.5,0-2.7-1.2-2.7-2.7v5.4c0,1.5,1.2,2.7,2.7,2.7h27c1.5,0,2.7-1.2,2.7-2.7v-5.4
		C169.7,106.5,168.5,107.8,167,107.8z"/>
	<path class="st0" d="M123.8,113.2h-27c-1.5,0-2.7-1.2-2.7-2.7V56.4c0-1.5,1.2-2.7,2.7-2.7h27c1.5,0,2.7,1.2,2.7,2.7v54.1
		C126.5,112,125.3,113.2,123.8,113.2z"/>
	<path class="st1" d="M123.8,80.7h-27c-1.5,0-2.7-1.2-2.7-2.7V56.4c0-1.5,1.2-2.7,2.7-2.7h27c1.5,0,2.7,1.2,2.7,2.7V78
		C126.5,79.5,125.3,80.7,123.8,80.7z"/>
	<path class="st3" d="M123.8,86.1h-27c-1.5,0-2.7-1.2-2.7-2.7v5.4c0,1.5,1.2,2.7,2.7,2.7h27c1.5,0,2.7-1.2,2.7-2.7v-5.4
		C126.5,84.9,125.3,86.1,123.8,86.1z"/>
	<path class="st3" d="M123.8,96.9h-27c-1.5,0-2.7-1.2-2.7-2.7v5.4c0,1.5,1.2,2.7,2.7,2.7h27c1.5,0,2.7-1.2,2.7-2.7v-5.4
		C126.5,95.7,125.3,96.9,123.8,96.9z"/>
	<path class="st3" d="M123.8,107.8h-27c-1.5,0-2.7-1.2-2.7-2.7v5.4c0,1.5,1.2,2.7,2.7,2.7h27c1.5,0,2.7-1.2,2.7-2.7v-5.4
		C126.5,106.5,125.3,107.8,123.8,107.8z"/>
	<path class="st0" d="M80.5,113.2h-27c-1.5,0-2.7-1.2-2.7-2.7V67.2c0-1.5,1.2-2.7,2.7-2.7h27c1.5,0,2.7,1.2,2.7,2.7v43.3
		C83.2,112,82,113.2,80.5,113.2z"/>
	<path class="st1" d="M80.5,91.5h-27c-1.5,0-2.7-1.2-2.7-2.7V67.2c0-1.5,1.2-2.7,2.7-2.7h27c1.5,0,2.7,1.2,2.7,2.7v21.6
		C83.2,90.3,82,91.5,80.5,91.5z"/>
	<path class="st3" d="M80.5,96.9h-27c-1.5,0-2.7-1.2-2.7-2.7v5.4c0,1.5,1.2,2.7,2.7,2.7h27c1.5,0,2.7-1.2,2.7-2.7v-5.4
		C83.2,95.7,82,96.9,80.5,96.9z"/>
	<path class="st3" d="M80.5,107.8h-27c-1.5,0-2.7-1.2-2.7-2.7v5.4c0,1.5,1.2,2.7,2.7,2.7h27c1.5,0,2.7-1.2,2.7-2.7v-5.4
		C83.2,106.5,82,107.8,80.5,107.8z"/>
	<path class="st0" d="M37.3,113.2h-27c-1.5,0-2.7-1.2-2.7-2.7V78c0-1.5,1.2-2.7,2.7-2.7h27c1.5,0,2.7,1.2,2.7,2.7v32.4
		C40,112,38.7,113.2,37.3,113.2z"/>
	<path class="st1" d="M37.3,102.4h-27c-1.5,0-2.7-1.2-2.7-2.7V78c0-1.5,1.2-2.7,2.7-2.7h27c1.5,0,2.7,1.2,2.7,2.7v21.6
		C40,101.1,38.7,102.4,37.3,102.4z"/>
	<path class="st3" d="M37.3,107.8h-27c-1.5,0-2.7-1.2-2.7-2.7v5.4c0,1.5,1.2,2.7,2.7,2.7h27c1.5,0,2.7-1.2,2.7-2.7v-5.4
		C40,106.5,38.7,107.8,37.3,107.8z"/>
	<path class="st4" d="M173.2,7.8l-18.6-5.8c-1.4-0.4-2.9,0.4-3.4,1.8c-0.4,1.4,0.4,2.9,1.8,3.4l10.2,3.2l-56.5,17.3
		c-1.1,0.3-1.9,1.4-1.9,2.6l0,0c0,1.8,1.8,3.1,3.5,2.6l56.2-17.2l-6.7,8c-1,1.1-0.8,2.9,0.3,3.8c0.5,0.4,1.1,0.6,1.7,0.6
		c0.8,0,1.5-0.3,2.1-1l12.5-15c0.6-0.7,0.8-1.6,0.5-2.5C174.8,8.8,174.1,8.1,173.2,7.8z"/>
	<path class="st5" d="M175,9.7c-0.3-0.9-0.9-1.5-1.8-1.8l-18.6-5.8c-1.4-0.4-2.9,0.4-3.4,1.8c-0.4,1.4,0.4,2.9,1.8,3.4l10.2,3.2
		l-10.3,3.2c-1.4,0.4-2.2,1.9-1.8,3.3l0,0c0.4,1.5,1.9,2.3,3.4,1.8l10-3.1l-6.7,8c-1,1.1-0.8,2.9,0.3,3.8c0.5,0.4,1.1,0.6,1.7,0.6
		c0.8,0,1.5-0.3,2.1-1l12.5-15C175.1,11.5,175.3,10.5,175,9.7z"/>
</g>
</svg>
