<?xml version="1.0" encoding="utf-8"?>
<!-- Generator: Adobe Illustrator 23.0.6, SVG Export Plug-In . SVG Version: 6.00 Build 0)  -->
<svg version="1.1" id="b43bf247-fd00-4c66-86de-2f4e4870ba29"
	 xmlns="http://www.w3.org/2000/svg" xmlns:xlink="http://www.w3.org/1999/xlink" x="0px" y="0px" viewBox="0 0 1229.9 799.4"
	 style="enable-background:new 0 0 1229.9 799.4;" xml:space="preserve">
<style type="text/css">
	.st0{opacity:0.1;fill:#FF7700;enable-background:new    ;}
	.st1{opacity:0.1;}
	.st2{fill:#3F3D56;}
	.st3{fill:#FF7700;}
	.st4{opacity:0.1;enable-background:new    ;}
	.st5{fill:#A8A8A8;}
	.st6{opacity:0.2;enable-background:new    ;}
	.st7{fill:url(#SVGID_1_);}
	.st8{fill:#696791;}
	.st9{fill:#A0616A;}
	.st10{fill:#F86D70;}
	.st11{fill:#2D293D;}
	.st12{fill:none;stroke:#3F3D56;stroke-width:7;stroke-linecap:round;stroke-miterlimit:10;}
</style>
<title>high-volume</title>
<ellipse class="st0" cx="1034.4" cy="782.1" rx="65.3" ry="17.3"/>
<path class="st0" d="M1142.2,708c-24.9,20.6-60.2,29.2-94.4,34.5l-5.8,0.9c-35.7,5.3-71.8,8.2-108.1,9.9
	c-19.4,0.9-38.8,1.6-58.2,2.2l-15.2,0.4c-19.7,0.6-39.5,1.2-59.3,1.7c-19.4,0.6-38.8,1.1-58.2,1.6c-24.8,0.6-49.7,1.1-74.5,1.5
	c-19.4,0.3-38.8,0.5-58.2,0.6c-24.8,0.1-49.7,0.1-74.5-0.1c-19.4-0.2-38.8-0.5-58.2-1c-24.9-0.6-49.7-1.6-74.5-2.8
	c-16.8-0.8-33.7-1.8-50.5-3l-7.7-0.5c-72.2-5.2-145.8-14.5-209-44.1l-1.7-0.8c-0.8-0.4-1.7-0.8-2.5-1.2
	c-11.6-5.5-22.8-12.1-33.3-19.5c-18.7-13.3-34.1-29.6-42.3-48.9c-12.8-30.3-6-64.3,8.6-93.9s36.5-56.3,55.5-84.2
	c5.6-8.2,10.8-16.6,15.7-25.3c30.6-54.5,45.8-117.5,13.7-170c-4.2-6.7-8.8-13.2-13.7-19.4c-7.8-10.2-15.8-20.4-21.2-31.7
	c-12.5-26.3-9.8-55.9-5.2-84c6.1-37.3,17.4-77.6,52.4-100.9C198.3,5.8,250,7,295.2,15.7c70.3,13.5,135.1,41.6,200.6,67.1
	s134,48.6,206,51.2c15.5,0.5,30.9,0,46.3-1.7l0,0c20.5-2.1,40.7-6.4,60.3-12.7c28.3-9.3,54.1-23.4,73.2-42.9
	c41-41.7,118-44.9,173.5-19.7c53,24,87.3,74.9,84.7,125.7c-2.9,56.5-45.2,103-84,150.7c-4.7,5.8-9.3,11.6-13.9,17.4
	c-2.5,3.3-5,6.5-7.4,9.8l0,0c-4.3,5.8-8.4,11.6-12.2,17.5c-19.8,30.1-33.8,66.3-20.2,98.9c7.7,18.2,22.3,32.1,39.9,44.3
	c39.5,27.2,93.9,45.5,118.4,83.5C1181.5,637.5,1173.7,681.8,1142.2,708z"/>
<g class="st1">
	<path class="st2" d="M616.4,559.5c0,1,0.1,1.9,0.2,2.8c7.9-3.2,15.7-6.6,23.4-10.2c4.1-0.5,7.9-2.4,10.8-5.3
		c2.2-1.1,4.5-2.3,6.7-3.5c-0.5-1.1-1.1-2.1-1.7-3.1c-4.3-6.8-10.8-11-18-10.8c-7.2,0.2-13.4,4.9-17.3,11.9
		C617.6,546.9,616.1,553.2,616.4,559.5z"/>
	<path class="st2" d="M615.2,523.8c0.2,6.3,2,12.4,5.3,17.7c4.3,6.8,10.8,11,18,10.8c0.5,0,1-0.1,1.5-0.1c4.1-0.5,7.9-2.4,10.8-5.3
		c2-1.9,3.7-4.1,5-6.5c5.9-11.3,5.4-24.8-1.2-35.7c-4.3-6.8-10.8-11-18-10.8c-7.2,0.2-13.4,4.9-17.3,11.9
		C616.4,511.3,615,517.5,615.2,523.8z"/>
	
		<ellipse transform="matrix(0.9995 -3.280630e-02 3.280630e-02 0.9995 -15.645 21.1406)" class="st2" cx="636.4" cy="487.3" rx="22.3" ry="29.2"/>
	
		<ellipse transform="matrix(0.9996 -2.998651e-02 2.998651e-02 0.9996 -13.3146 19.2236)" class="st2" cx="634.3" cy="453.5" rx="22.3" ry="29.2"/>
	
		<ellipse transform="matrix(0.9995 -3.280630e-02 3.280630e-02 0.9995 -13.3043 21.025)" class="st2" cx="634.1" cy="415.9" rx="22.3" ry="29.2"/>
	<path class="st3" d="M709.6,169c2.9-4,5.6-8.2,7.9-12.5l-58.9-7.7l63.4-1.6c11.4-27.1,11.1-57.8-0.7-84.7l-83.6,46.9l76.6-60.2
		C682.3-0.6,616.1-14.9,566.4,17c-49,31.5-63.8,96.3-33.3,145.9c2.6,4.1,5.4,7.9,8.4,11.6c-4.6,6.2-8.4,12.9-11.5,19.9l77.4,37.1
		l-82-24.6c-10.4,34.6-2.7,72.1,20.5,99.8c-34.9,47.6-24.7,114.5,22.9,149.4s114.5,24.7,149.4-22.9c29.2-39.8,27.4-94.3-4.4-132.1
		C743.1,261.3,741.3,206.7,709.6,169z"/>
	<path class="st4" d="M520.9,241.3c0.7,24,9.6,47,25,65.3c-34.9,47.6-24.7,114.5,22.9,149.5s114.5,24.7,149.5-22.9
		c29.2-39.8,27.4-94.3-4.4-132.1C727.6,282.5,520.5,229.3,520.9,241.3z"/>
</g>
<g class="st1">
	<path class="st2" d="M382.3,747.5c0,0.7-0.1,1.4-0.2,2c-5.6-2.2-11.2-4.7-16.6-7.2c-2.9-0.4-5.6-1.7-7.7-3.7
		c-1.6-0.8-3.2-1.6-4.7-2.5c0.4-0.7,0.8-1.5,1.2-2.2c3.1-4.8,7.7-7.9,12.8-7.7c5.1,0.2,9.6,3.5,12.2,8.5
		C381.5,738.6,382.5,743.1,382.3,747.5z"/>
	<path class="st2" d="M383.2,722.1c-0.1,4.5-1.4,8.8-3.8,12.6c-3.1,4.8-7.7,7.8-12.8,7.7l-1-0.1c-2.9-0.4-5.6-1.7-7.7-3.7
		c-1.4-1.3-2.6-2.9-3.5-4.6c-4.2-8-3.9-17.6,0.8-25.4c3.1-4.8,7.7-7.9,12.8-7.7c5.1,0.2,9.6,3.5,12.3,8.5
		C382.4,713.2,383.4,717.6,383.2,722.1z"/>
	
		<ellipse transform="matrix(3.158516e-02 -0.9995 0.9995 3.158516e-02 -339.4242 1042.1389)" class="st2" cx="368.1" cy="696.2" rx="20.8" ry="15.9"/>
	
		<ellipse transform="matrix(2.998651e-02 -0.9996 0.9996 2.998651e-02 -311.6528 1018.0836)" class="st2" cx="368.7" cy="669.6" rx="20.8" ry="15.9"/>
	
		<ellipse transform="matrix(2.998651e-02 -0.9996 0.9996 2.998651e-02 -285.5355 994.2511)" class="st2" cx="369.5" cy="644.2" rx="20.8" ry="15.9"/>
	<path class="st3" d="M315.7,469.7c-2.1-2.8-4-5.8-5.6-8.9l41.9-5.6l-45.1-1c-8.2-19.3-8-41.1,0.4-60.3l59.5,33.3l-54.5-42.8
		c22.2-35.7,69.1-46.7,104.8-24.5c35.7,22.2,46.7,69.1,24.5,104.8c-1.9,3.1-4.1,6.1-6.4,8.8c3.2,4.4,6,9.1,8.2,14.1l-55,26.4
		l58.4-17.6c7.5,24.6,2,51.3-14.5,71c24.9,33.8,17.7,81.5-16.1,106.4c-33.8,24.9-81.5,17.7-106.4-16.1c-20.8-28.3-19.6-67.1,3-94.1
		C291.9,535.4,293.2,496.6,315.7,469.7L315.7,469.7z"/>
	<path class="st4" d="M450,521c-0.5,17.1-6.8,33.5-17.8,46.5c24.9,33.8,17.7,81.5-16.1,106.4s-81.5,17.7-106.4-16.1
		c-20.8-28.3-19.6-67.1,3-94C303,550.4,450.3,512.4,450,521z"/>
</g>
<g class="st1">
	<path class="st2" d="M914,614.8c0,0.7-0.1,1.4-0.1,2c-5.7-2.2-11.2-4.7-16.6-7.2c-2.9-0.4-5.6-1.7-7.7-3.7
		c-1.6-0.8-3.2-1.6-4.7-2.5c0.4-0.7,0.8-1.5,1.2-2.2c3.1-4.8,7.7-7.9,12.8-7.7c5.1,0.2,9.6,3.5,12.2,8.5
		C913.1,605.9,914.1,610.3,914,614.8z"/>
	<path class="st2" d="M914.8,589.3c-0.1,4.5-1.4,8.8-3.7,12.6c-3.1,4.8-7.7,7.8-12.8,7.7l-1-0.1c-2.9-0.4-5.6-1.7-7.7-3.7
		c-1.4-1.3-2.6-2.9-3.5-4.6c-4.2-8-3.9-17.6,0.8-25.4c3.1-4.8,7.7-7.9,12.8-7.7c5.1,0.2,9.6,3.5,12.3,8.5
		C914,580.5,915,584.9,914.8,589.3z"/>
	
		<ellipse transform="matrix(3.158516e-02 -0.9995 0.9995 3.158516e-02 308.0903 1444.928)" class="st2" cx="899.7" cy="563.5" rx="20.8" ry="15.9"/>
	
		<ellipse transform="matrix(3.158516e-02 -0.9995 0.9995 3.158516e-02 334.248 1421.1215)" class="st2" cx="900.5" cy="538.1" rx="20.8" ry="15.9"/>
	
		<ellipse transform="matrix(3.158516e-02 -0.9995 0.9995 3.158516e-02 360.4145 1397.3453)" class="st2" cx="901.3" cy="512.7" rx="20.8" ry="15.9"/>
	<path class="st3" d="M847.3,336.9c-2.1-2.8-4-5.8-5.6-8.9l41.9-5.5l-45.2-1.1c-8.1-19.3-8-41.1,0.4-60.3l59.5,33.3l-54.5-42.8
		c22.2-35.7,69.1-46.7,104.8-24.5c35.7,22.2,46.7,69.1,24.5,104.8c-1.9,3.1-4,6-6.3,8.7c3.2,4.4,6,9.1,8.2,14.1l-55,26.4l58.4-17.6
		c7.5,24.6,2,51.3-14.5,71c24.9,33.8,17.7,81.4-16.1,106.4c-33.8,24.9-81.4,17.7-106.4-16.1c-20.8-28.3-19.6-67.1,3-94
		C823.5,402.7,824.7,363.8,847.3,336.9L847.3,336.9z"/>
	<path class="st4" d="M981.6,388.2c-0.5,17.1-6.8,33.4-17.8,46.5c24.9,33.8,17.7,81.5-16.1,106.4c-33.8,24.9-81.5,17.7-106.4-16.1
		c-20.8-28.3-19.6-67.1,3-94C834.5,417.7,981.9,379.7,981.6,388.2z"/>
</g>
<ellipse class="st3" cx="246.9" cy="765.2" rx="58.2" ry="11.2"/>
<ellipse class="st2" cx="245.9" cy="760.4" rx="6.8" ry="8.9"/>
<ellipse class="st2" cx="245.9" cy="749.6" rx="6.8" ry="8.9"/>
<ellipse class="st2" cx="245.9" cy="738.8" rx="6.8" ry="8.9"/>
<ellipse class="st2" cx="245.9" cy="727.9" rx="6.8" ry="8.9"/>
<ellipse class="st2" cx="245.9" cy="717.1" rx="6.8" ry="8.9"/>
<ellipse class="st2" cx="245.9" cy="706.2" rx="6.8" ry="8.9"/>
<ellipse class="st2" cx="245.9" cy="695.4" rx="6.8" ry="8.9"/>
<path class="st3" d="M271.3,621.2c0.9-1.2,1.8-2.4,2.5-3.7l-17.8-2.9l19.3,0.2c3.7-8.1,4-17.4,0.6-25.7l-25.8,13.4l23.8-17.5
	c-9-15.5-28.9-20.8-44.4-11.8c-15.5,9-20.8,28.9-11.8,44.4c0.8,1.3,1.6,2.6,2.6,3.8c-1.4,1.8-2.7,3.8-3.7,5.9l23.1,12l-24.6-8.3
	c-3.5,10.4-1.6,21.9,5.2,30.5c-11.1,14.1-8.6,34.5,5.5,45.6c14.1,11.1,34.5,8.6,45.6-5.5c9.3-11.8,9.3-28.3,0-40.1
	C280.6,649.5,280.6,633,271.3,621.2L271.3,621.2z"/>
<path class="st4" d="M213.3,641.3c0,7.3,2.4,14.4,6.9,20.1c-11.1,14.1-8.6,34.5,5.5,45.6c14.1,11.1,34.5,8.6,45.6-5.5
	c9.3-11.8,9.3-28.3,0-40.1C275.7,655.8,213.3,637.6,213.3,641.3z"/>
<path class="st2" d="M403.1,563.5v193.8c-16.8-0.7-33.7-1.5-50.5-2.5l-7.7-0.4V563.5c0-4.2,4-7.6,9-7.6h40.2
	C399.1,555.9,403.1,559.3,403.1,563.5z"/>
<path class="st2" d="M477.6,760.5V483.3c0-3.6,4-6.4,9-6.4h40.2c5,0,9,2.9,9,6.4l0,0v277.9L477.6,760.5z"/>
<path class="st2" d="M610.3,761.4V397.4c0-5.9,4.1-10.6,9-10.6h40.2c5,0,9,4.8,9,10.6l0,0v363.3L610.3,761.4z"/>
<path class="st2" d="M801.2,311.9v446.1c-19.4,0.5-38.8,0.9-58.2,1.3V311.9c0-4.2,4.1-7.5,9-7.5h40.2
	C797.1,304.3,801.2,307.7,801.2,311.9z"/>
<path class="st2" d="M933.9,226.8v525.9c-19.4,1.2-38.8,2-58.2,2.7V226.8c0-6.2,4.1-11.2,9-11.2h40.2
	C929.8,215.6,933.9,220.6,933.9,226.8z"/>
<circle class="st3" cx="1027.3" cy="332.9" r="28.6"/>
<ellipse class="st0" cx="287.9" cy="736.3" rx="19.1" ry="3.2"/>
<path class="st5" d="M275.1,721.4c0,0,10.9-0.3,14.1-2.7c3.3-2.3,16.7-5.1,17.5-1.4c0.8,3.7,16.3,18.6,4.1,18.7
	c-12.2,0.1-28.5-1.9-31.8-3.9C275.8,730.1,275.1,721.4,275.1,721.4z"/>
<path class="st6" d="M311.1,734.7c-12.2,0.1-28.5-1.9-31.8-3.9c-2.5-1.5-3.5-7-3.8-9.5h-0.4c0,0,0.7,8.8,4,10.8s19.5,4,31.8,3.9
	c3.5,0,4.8-1.3,4.7-3.2C315.1,734,313.8,734.7,311.1,734.7z"/>
<ellipse class="st0" cx="1135.3" cy="763.7" rx="35" ry="5.9"/>
<path class="st5" d="M1111.8,736.2c0,0,20-0.6,26-4.9c6-4.3,30.7-9.4,32.2-2.5s30,34.2,7.5,34.4c-22.6,0.2-52.4-3.5-58.4-7.1
	C1113,752.3,1111.8,736.2,1111.8,736.2z"/>
<path class="st6" d="M1177.8,760.7c-22.6,0.2-52.4-3.5-58.4-7.1c-4.6-2.8-6.4-12.8-7-17.4h-0.7c0,0,1.3,16.1,7.3,19.8
	c6,3.7,35.9,7.4,58.4,7.1c6.5,0,8.8-2.4,8.6-5.8C1185.2,759.4,1182.7,760.7,1177.8,760.7z"/>
<linearGradient id="SVGID_1_" gradientUnits="userSpaceOnUse" x1="1710.4792" y1="678.3107" x2="1870.3407" y2="678.3107" gradientTransform="matrix(-1 0 0 1 2786.79 -116.3998)">
	<stop  offset="0" style="stop-color:#808080;stop-opacity:0.25"/>
	<stop  offset="0.54" style="stop-color:#808080;stop-opacity:0.12"/>
	<stop  offset="1" style="stop-color:#808080;stop-opacity:0.1"/>
</linearGradient>
<path class="st7" d="M916.6,350.5c0.2,1.8,0.9,3.5,2,4.9c1.5,1.7,3.7,2.4,5.7,3.4c5.2,2.6,9.1,7.2,11,12.6c3.4,9.9,3.8,20.4,8.2,30
	c4.3,9.6,9.4,18.8,13.1,28.6c2.1,5.6,3.8,11.4,6.9,16.4c1.5,2.5,3.4,4.7,5.7,6.5c-0.2,3.6-0.3,7.1-0.3,10.7c1.4,0,2.7,0.7,3.5,1.8
	c0.8,1.2,1.3,2.5,1.5,3.8c1.4,5.8-0.3,12,0.9,17.8c3.4,16.2,2.4,33-3.1,48.6c-1.4,4-3.2,17.1-1.7,21c5.6-0.6,10.5,2.8,15.7,5.1
	c0.4,3.1,0.2,6.2-0.7,9.2c-1.9,5.4-1.9,11.2-1.8,16.9l0.3,42.1c0,5.3,0.1,10.7,1.4,15.9c1.5,5.8,4.7,11.8,4.6,17.8
	c-0.3,13,5.8,25.3,5.4,38.2c-0.1,2.5-0.4,4.9-0.7,7.4c-0.6,6.5-0.4,13.1,0.5,19.6c1.9,12.9,6.8,25.6,5.5,38.6
	c-0.1,0.9-0.4,2-1.2,2.4c1,1.2,2.1,2.3,3.2,3.4c-0.2,0.4-0.5,0.7-0.9,0.9c-1.2,0.6-2.5,1-3.9,1c-1.6,0-3.1,0.5-4.5,1.4
	c-1,0.9-1.6,2.1-1.9,3.4c-0.7,2.6-0.3,5.4,1.2,7.6c0.9,1.1,2.1,2,3.5,2.6c4.7,2,10.1,0.6,15-0.9l19.3-5.8c1.2-0.2,2.3-0.8,3.1-1.6
	c0.4-0.5,0.7-1,0.8-1.7c4.3,1,8.9-0.2,13.3-1.5l19.3-5.8c1.2-0.2,2.3-0.8,3.1-1.6c0.7-0.9,1-2,0.8-3.1c0.1-0.1,0.3-0.1,0.4-0.2
	c1.5-0.7,3.1-2,2.7-3.5c-0.3-1-1.3-1.6-1.7-2.6c-0.4-1.2-0.2-2.6,0.7-3.6c0.8-1,1.8-1.9,2.5-2.9c2.2-3.4,0.7-7.9-0.1-11.9
	c-1.8-8.5-0.1-17.4-1.3-26.1c-0.4-2.9-1.1-5.8-1.7-8.7c-1.2-6.8-2-13.7-2.4-20.6c-0.7-9.9-3.5-19.6-1.9-29.4
	c0.8-5.7,1.1-11.6,1-17.4c0.1-3.7,0-7.4-0.5-11.1c-0.4-2.7-1.1-5.4-1.4-8.2c-0.2-3.1-0.3-6.2-0.2-9.3c0.1-6.9-0.5-13.8-1.9-20.5
	c-2-9.3-5.9-18.2-7.5-27.5c0.6,0.1,1.1,0.2,1.6,0.4c0.1-7.1-6.2-22.7-8.5-29.5c-0.3-0.8-0.5-1.7-0.6-2.6c0.1-1.2,0.4-2.3,0.6-3.5
	c0.3-2.5-1-4.8-1.4-7.3c-0.1-1.7,0-3.5,0.4-5.2c1.6-9.2,3.7-18.2,5.7-27.3c0.9-3.3,1.2-6.7,0.9-10.1c-0.5-3.6,0.6-7.3,3.1-10
	c0.9-0.8,1.7-1.8,2.3-2.8c0.3-0.9,0.5-1.9,0.4-2.8c0-4.2-0.7-8.4-1.8-12.4c1.8-3.3,2.5-7.3,3-11c1.1-8.3,2.3-16.7,2.2-25.1
	c0.1-4.5-0.5-9-1.8-13.3c-1-2.7-2.1-5.2-3.5-7.7c-5.4-10.3-10.5-21.2-17.3-30.7c-2-2.9-0.8-6.8-0.6-10.4c0.2-4.3-1.5-8.4-3.2-12.3
	c-0.9-2.4-2.2-4.7-3.9-6.6c-1.2-1.3-2.8-2-4.5-2c-1.9,0.2-3.7,1.3-4.8,2.9c-2.5,3.4-3.5,7.6-2.9,11.8c0.7,4.1,2.5,8,5.2,11.2
	c1.3,1.6,2.8,3,4.5,4.3c1.7,5.4,3.4,10.7,5.1,16.1c2.7,8.5,5.4,17.1,9.2,25.2c1.1,2.3,2.3,4.7,2.5,7.3c0.1,2.8-1,5.4-1.9,8.1
	c-2,5.5-3.1,11.2-3.3,17c-0.3,0.1-0.6,0.3-0.9,0.5c-3.2,2.1-4.2,6.7-7.6,8.6c-1.9,1.1-4.3,1-6.5,1.5c-0.2,0-0.4,0.1-0.6,0.2
	c-0.1-0.4-0.2-0.8-0.2-1.2c0-0.3,0-0.5,0-0.8c5.2-2.9,9.6-7,12.7-12.1c0.7-0.9,1.2-2,1.5-3.1c0.3-1.3,0.3-2.7,0.2-4
	c-0.2-4.4-0.8-8.8-1.9-13.1c-1.1-4.3-3.5-8.2-6.8-11.1c-1.7-1.3-3.6-2.4-5.3-3.7c-3.2-2.6-5.5-6.5-9.2-8.5
	c-4.9-2.4-10.8-0.9-13.9,3.6c-0.5,1-1.2,1.9-2,2.6c-0.6,0.3-1.3,0.6-1.9,1c-1.1,0.9-1.2,2.6-0.8,4c0.7,2.9,1.1,5.8,1.2,8.8
	c-6.8,8-6.8,19.7-0.1,27.7c0,1.9,0,3.8-0.1,5.7c0,0.4,0,0.7-0.1,1.1c-1.2-0.4-2.2-1.1-3.1-2c-1.1-1.4-1.3-3.5-2.7-4.7
	c-1-0.7-2.2-1.1-3.3-1.2c-3-0.7-5.8-2-8.2-3.9c-1.9-1.5-3.8-3.3-6.1-3.8c-3.8-7.1-8.2-13.9-13.3-20.3c-1.3-1.5-2.4-3.1-3.5-4.8
	c-2.2-3.8-2.8-8.3-4.2-12.5c-3.9-11.8-13.6-21.2-15.9-33.4c-0.9-4.4-3.7-8.2-5.6-12.3c-1.3-2.7-2.7-5.6-5.3-7.2
	c-3.3-2-8-1.1-10.7,1.6C917.2,342.5,916,346.5,916.6,350.5z M1037.8,763.5c-1.2,0.6-2.5,1-3.9,1c-0.7,0.1-1.4,0.2-2,0.3
	c-0.3-2.1-0.4-4.3-0.6-6.4c-0.5-6.9-1.6-13.8-2.7-20.7c-1.1-7.1-1.7-15-4.1-21.8c-3.9-11.2-7.9-22.7-7.4-34.5c0.1-2.7,0.4-5.3,0.6-8
	c0.3-6.6-0.6-13.4,1-19.8c0.7-2.9,2-5.7,2.4-8.7c0.3-2.7,0.3-5.4,0.1-8.1c-0.4-9.4,0.3-18.8,2.3-27.9c1.9,2.5,2.5,5.7,3.1,8.8
	l3.8,20.8c2.3,12.3,4.3,25.4,10.3,36.3c-0.8,4-1.7,8.2-0.3,11.9c0.6,1.6,1.6,3.1,2.2,4.7c1,2.7,0.9,5.8,1.2,8.7
	c0.7,6.1,3.2,12.1,1.3,18.1c-1.9,6.1-3.2,12.4-3.7,18.7c-0.1,1.8-0.3,3.5-0.6,5.3c-0.3,1.6-0.9,3.1-1.2,4.7
	c-0.4,2.3-0.3,4.6,0.3,6.8c0.5,1.2,0.7,2.5,0.8,3.8c0,1.3-1.6,2.2-2.9,2.4c0.4,0.5,0.8,1,1.2,1.4
	C1039,762.2,1038.5,763,1037.8,763.5z"/>
<path class="st2" d="M997.5,775.3c-1.6,0-3.1,0.5-4.5,1.4c-1,0.9-1.6,2.1-1.9,3.4c-0.7,2.6-0.3,5.4,1.2,7.6c0.9,1.1,2.1,2,3.5,2.6
	c4.7,2,10.1,0.6,15-0.9l19.3-5.8c1.2-0.2,2.3-0.8,3.1-1.6c1.1-1.5,1.1-3.5,0.1-5c-1-1.4-2.4-2.6-4.1-3.3c-6-2.9-12.7-3.6-19.3-3.7
	c-2.4,0-4.9-0.6-6.5,1.3c-0.9,1-0.7,2.1-2,3C1000.2,774.9,998.9,775.3,997.5,775.3z"/>
<path class="st2" d="M1033.9,764.7c-1.6,0-3.1,0.6-4.5,1.4c-1,0.9-1.6,2.1-1.9,3.4c-0.7,2.6-0.3,5.4,1.2,7.6c0.9,1.1,2.1,2,3.5,2.6
	c4.7,2,10.1,0.6,15-0.9l19.3-5.8c1.2-0.2,2.3-0.8,3.1-1.6c1.1-1.5,1.1-3.5,0.1-5c-1-1.4-2.5-2.6-4.1-3.3c-6-2.9-12.8-3.6-19.3-3.7
	c-2.4,0-4.9-0.6-6.5,1.3c-0.9,1-0.7,2.1-2,3C1036.6,764.3,1035.3,764.7,1033.9,764.7z"/>
<path class="st8" d="M1017.2,555.6c11.4-1.1,22.8-1.5,34.2-1c0.8,0,1.5,0.1,2.2,0.3c2.5,1,2.9,4.3,3.1,7c1,10.9,5.8,21.1,8.2,31.7
	c1.4,6.7,2,13.6,1.9,20.4c-0.1,3.1-0.1,6.1,0.2,9.2c0.3,2.7,1,5.4,1.4,8.2c0.4,3.6,0.6,7.3,0.5,11c0.1,5.8-0.2,11.5-1,17.2
	c-1.6,9.7,1.2,19.4,1.9,29.2c0.4,6.9,1.1,13.7,2.3,20.5c0.6,2.9,1.3,5.7,1.7,8.6c1.1,8.6-0.5,17.4,1.3,25.9c0.8,4,2.3,8.4,0.1,11.8
	c-0.7,1-1.7,1.9-2.5,2.9c-0.9,1-1.1,2.3-0.7,3.6c0.4,0.9,1.5,1.5,1.7,2.5c0.4,1.6-1.2,2.8-2.7,3.5c-11.1,5-25.4,1.5-32.8-8.1
	c1.3-0.2,2.9-1.1,2.9-2.4c-0.1-1.3-0.4-2.6-0.8-3.8c-0.6-2.2-0.7-4.5-0.3-6.8c0.3-1.6,0.8-3.1,1.2-4.6c0.3-1.7,0.5-3.5,0.6-5.2
	c0.6-6.3,1.8-12.6,3.7-18.6c1.9-5.9-0.7-11.8-1.3-17.9c-0.3-2.9-0.2-5.9-1.2-8.6c-0.6-1.6-1.6-3.1-2.2-4.7c-1.4-3.8-0.6-8,0.3-11.9
	c-6-10.9-8-23.9-10.3-36.1l-3.8-20.6c-0.6-3.1-1.2-6.2-3.1-8.7c-2,9.1-2.8,18.4-2.3,27.7c0.2,2.7,0.2,5.4-0.1,8.1
	c-0.5,3-1.7,5.7-2.4,8.6c-1.6,6.4-0.7,13.1-1,19.7c-0.1,2.7-0.5,5.3-0.6,8c-0.5,11.8,3.5,23.2,7.4,34.3c2.4,6.8,2.9,14.5,4.1,21.7
	c1,6.8,2.2,13.7,2.7,20.5c0.5,6.3,0.7,13.2,4.7,18.1c-3.6,2.3-7.3,4.7-11.5,5.5c-4.9,0.8-9.9-0.2-14.2-2.8c-4.2-2.5-8-5.8-11.2-9.5
	c0.8-0.3,1.1-1.5,1.2-2.4c1.2-12.9-3.7-25.5-5.5-38.4c-0.9-6.4-1.1-13-0.5-19.5c0.2-2.4,0.6-4.9,0.7-7.3c0.5-12.8-5.7-25.1-5.4-37.8
	c0.1-6-3.1-11.9-4.6-17.7c-1.3-5.1-1.4-10.5-1.4-15.8l-0.3-41.9c0-5.7,0-11.5,1.8-16.8c2.2-6.4-0.3-13.8-0.7-20.6
	C994.9,555.3,1006.1,556.5,1017.2,555.6z"/>
<path class="st9" d="M980.8,435.3c-4.3-8.8-9.5-17-15.6-24.7c-1.3-1.5-2.4-3.1-3.5-4.7c-2.2-3.8-2.8-8.3-4.2-12.4
	c-3.9-11.7-13.6-21.1-15.9-33.1c-0.9-4.4-3.7-8.2-5.6-12.2c-1.3-2.7-2.7-5.6-5.3-7.1c-3.3-2-8-1.1-10.7,1.6
	c-2.7,2.9-3.9,6.9-3.3,10.8c0.2,1.8,0.9,3.5,2,4.8c1.5,1.7,3.7,2.4,5.7,3.4c5.1,2.6,9.1,7.1,11,12.5c3.4,9.9,3.8,20.3,8.2,29.8
	c4.3,9.5,9.4,18.6,13.1,28.4c2.1,5.5,3.8,11.2,6.9,16.3c3.1,5.1,8,9.4,13.8,10.1c0-3.7,0.5-7.4,1.7-10.9
	C980.3,443.9,982.6,439.1,980.8,435.3z"/>
<path class="st9" d="M1044,443c-0.3-7.2,0.9-14.4,3.3-21.2c0.9-2.6,2-5.2,1.9-8c-0.1-2.6-1.4-4.9-2.5-7.3c-3.8-8-6.5-16.5-9.2-25
	l-5.1-16c-1.7-1.2-3.2-2.6-4.5-4.2c-2.7-3.1-4.5-7-5.2-11.1c-0.7-4.1,0.4-8.4,2.9-11.7c1.1-1.6,2.8-2.7,4.8-2.9c1.7,0,3.3,0.8,4.5,2
	c1.7,1.9,3,4.1,3.8,6.6c1.7,3.9,3.4,8,3.2,12.2c-0.1,3.5-1.5,7.5,0.6,10.3c6.8,9.4,11.9,20.2,17.3,30.5c1.4,2.4,2.5,5,3.5,7.6
	c1.3,4.3,1.9,8.7,1.8,13.2c0,8.4-1.1,16.7-2.2,25c-0.7,5.2-1.7,10.9-5.6,14.3C1053.3,452.2,1049.2,447,1044,443z"/>
<circle class="st9" cx="1018" cy="425.8" r="21.2"/>
<path class="st9" d="M1028.3,448.1c0.5,3.8,2.6,7.3,4.6,10.6c1.2,2,2.7,4.2,5.1,4.4c-6.1,3.2-12.6,5.8-19.2,7.7
	c-2.3,0.8-4.6,1.1-7,1.1c-2-0.2-4-0.7-5.8-1.5c-8.2-3.6-14.3-10.7-16.5-19.3c2.6,0.1,5.3-0.1,7.9-0.6c1.5-0.1,2.9-0.8,3.9-1.9
	c0.6-1,0.9-2.2,0.8-3.4c0.1-3.5,0.1-7.1,0-10.6c5.2-0.3,10.4,0.3,15.4,1.9c2,0.7,4.1,1.5,6.1,2c1.3,0.3,4.8,0,5.8,0.7
	C1030.7,440.3,1027.9,445.5,1028.3,448.1z"/>
<path class="st10" d="M1018.9,460.9c0.5-5.7,4.6-10.5,10.1-11.9c2.2-0.5,4.6-0.4,6.5-1.5c3.3-1.9,4.4-6.4,7.6-8.5
	c3.2-2.1,7.8-0.9,10.6,1.7c2.8,2.6,4.2,6.4,5.4,10.1c1.7,5,2.6,10.2,2.7,15.5c0,1-0.1,1.9-0.4,2.8c-0.6,1.1-1.4,2-2.3,2.8
	c-2.4,2.7-3.5,6.4-3.1,10c0.3,3.4,0,6.7-0.9,10c-2,9-4.1,18-5.7,27.1c-0.4,1.7-0.5,3.4-0.4,5.1c0.3,2.5,1.7,4.8,1.4,7.2
	c-0.3,1.1-0.5,2.3-0.6,3.5c0.1,0.9,0.3,1.8,0.6,2.6c2.3,6.7,8.6,22.1,8.5,29.3c-10.9-2.8-26.9-3.4-38.1-3.5c-3.1,0-6.2,0.1-9.2,0.4
	c-7.4,0.8-14.9,2.9-22.1,1c-6.6-1.8-12.5-7.1-19.4-6.5c-1.5-3.9,0.3-16.9,1.7-20.9c5.5-15.5,6.5-32.2,3.1-48.3
	c-1.3-5.8,0.5-11.9-0.9-17.6c-0.3-1.4-0.8-2.7-1.5-3.8c-0.8-1.2-2.1-1.9-3.5-1.8c-0.1-9.2,0.7-18.4,2.6-27.5c0.7-3.2,2-7,5.3-7.6
	c2.9-0.5,5.4,2,7.7,3.8c2.4,1.9,5.2,3.2,8.2,3.8c1.2,0.1,2.3,0.6,3.3,1.2c1.4,1.2,1.6,3.3,2.7,4.7c2,2.5,6.6,2.3,8.1,5.3
	c0.3,0.9,0.6,1.8,0.8,2.7c0.7,1.7,1.9,3.2,3.4,4.3C1013.2,458.6,1015.9,460.1,1018.9,460.9z"/>
<path class="st11" d="M1000.8,403.2c-0.4-1.4-0.3-3.1,0.8-4c0.6-0.4,1.3-0.6,1.9-1c0.8-0.7,1.5-1.6,2-2.6c3.1-4.4,9-5.9,13.9-3.5
	c3.7,1.9,5.9,5.8,9.2,8.4c1.7,1.3,3.6,2.3,5.3,3.7c3.4,2.9,5.7,6.8,6.8,11c1.1,4.3,1.7,8.6,1.9,13c0.2,1.3,0.1,2.7-0.2,4
	c-0.3,1.1-0.8,2.1-1.5,3.1c-3.4,5.1-7.8,9.7-13.4,12.4c-5.6,2.6-12.3,3.1-17.8,0.3c-0.6-0.2-1-0.6-1.4-1.1c-0.3-0.7-0.4-1.6-0.2-2.4
	c0.3-3.1-0.3-6.3-1.8-9c-1-2-2.6-3.8-3.4-5.9c-0.8-2.4-1.1-4.8-1-7.3C1002,415.8,1002.4,409.4,1000.8,403.2z"/>
<line class="st12" x1="366.7" y1="487.3" x2="898.9" y2="136.8"/>
<circle class="st3" cx="377" cy="480.9" r="28.6"/>
<circle class="st3" cx="506.7" cy="396.5" r="28.6"/>
<circle class="st3" cx="631.4" cy="310.6" r="28.6"/>
<circle class="st3" cx="775" cy="218.5" r="28.6"/>
</svg>
