<?xml version="1.0" encoding="utf-8"?>
<!-- Generator: Adobe Illustrator 23.0.6, SVG Export Plug-In . SVG Version: 6.00 Build 0)  -->
<svg version="1.1" id="Calque_1" xmlns="http://www.w3.org/2000/svg" xmlns:xlink="http://www.w3.org/1999/xlink" x="0px" y="0px"
	 viewBox="0 0 115.7 115.9" style="enable-background:new 0 0 115.7 115.9;" xml:space="preserve">
<style type="text/css">
	.st0{fill:#80746A;}
	.st1{fill:#72665B;}
	.st2{fill:#DD9A5E;}
	.st3{fill:#D48E55;}
	.st4{fill:#EBB984;}
	.st5{fill:#D8A474;}
	.st6{fill:#D93D3D;}
	.st7{fill:#A92826;}
	.st8{fill:#74BAE7;}
	.st9{fill:#4EAEE2;}
	.st10{fill:#4D4947;}
	.st11{fill:#3F3B39;}
	.st12{fill:#EEAE6B;}
	.st13{fill:#DADADA;}
	.st14{fill:#CFCDCB;}
	.st15{fill:#F8D09C;}
	.st16{fill:#B82E2C;}
	.st17{fill:#9A6223;}
	.st18{fill:#8F561C;}
	.st19{fill:#EFD0A3;}
	.st20{fill:#E3C091;}
	.st21{fill:#FABA39;}
	.st22{fill:#EBA324;}
	.st23{fill:#FDE4BC;}
</style>
<g>
	<path class="st0" d="M74.4,57h-9.7c-1.5,0-2.7-1.2-2.7-2.7l-1.3-22.7c0,0-2.2-18.8,9.1-21.3c0,0,4.6-8.9,19.2-6.1
		c0.2,0,0.4,0.1,0.6,0.2c3.4,1,6.5,2.9,9.1,5.5c8,7.9,6.4,17.3,6.6,18.5c0,6.5,0.1-0.7-1.3,25.9c0,1.5-1.2,2.7-2.7,2.7H90.9"/>
	<path class="st1" d="M76.1,57v-3.2c-6-2.7-9.8-8.4-10.1-14.6c0,0,0-0.2,0-0.2c0-0.2,0-0.4,0-0.7c0-10,0-9.4,0-9.6
		c-0.1-5.4,0.7-16.6,9.2-18.5c0,0,2.8-5.5,11.1-6.5C80,3.1,72.7,5,69.8,10.3c-7.6,1.7-9.4,10.9-9.2,18.6c0,0.1,0,0.2,0,0.3
		c0,1.4,0.1,2.3,0.1,2.3L62,54.3c0,1.5,1.2,2.7,2.7,2.7C67.1,57,73.6,57,76.1,57z"/>
	<path class="st2" d="M52.3,106.7l2.9-25.8c1-7.8,0.6-10.8,3.1-13.8c-0.8-0.9-1.9-1.8-2.6-2.3l-0.1,0c-2.7-1.6-5-1.7-10-3.1l0,0
		l-5.2-2.5l0,0v-6.2c-4.3,1.9-9.3,1.8-13.4,0l0,0l0,6.2l0,0l0,0l0,0l-5.1,2.4l0,0c-5,1.4-7.3,1.5-10,3.1l-0.1,0
		c-0.2,0.1-0.5,0.3-0.7,0.5C7,68.1,7,71.7,6.6,74.4L5.1,88.2l0,0C2.9,108,3,106.4,3,107.9c0,2.5,1.5,6.3,6.2,6.3l0,0
		c0.4,0,48.7,0,49.1,0C54.1,114.1,51.9,110.9,52.3,106.7z"/>
	<g>
		<path class="st3" d="M8.6,107.9c0-2.2,0.4-2.2,3.8-37.5c0.4-2.9,1.2-5.3,3.8-7.3c-0.4,0.1-2.3,0.4-4.5,1.7l-0.1,0
			c-0.2,0.1-0.5,0.3-0.7,0.5C7,68.1,7,71.7,6.6,74.4c0,0.2-3.7,32.4-3.7,33.5c0,2.5,1.5,6.3,6.2,6.3l0,0h5.6
			C10.7,114.2,8.5,111.2,8.6,107.9z"/>
		<path class="st3" d="M32.5,64.6V54.5c-2-0.1-3.9-0.6-5.5-1.3l0,6.2l0,0L32.5,64.6z"/>
	</g>
	<path class="st4" d="M113.5,106.7c-3.9-34.8-3.7-33.8-4.1-35.5c-0.6-2.8-2.2-4.9-4.5-6.3l-0.1,0c-1-0.6-2.1-1.1-3.3-1.4l-11.3-2.8
		c-0.4-0.2-0.6-0.7-0.6-1.3v-5.5c-4.3,1.9-9.2,1.8-13.4,0v5.5c0,0.6-0.3,1.2-0.6,1.3c-9.6,2.6-11.7,2.5-14.6,4.2l-0.1,0
		c-3.2,1.9-4.4,4.6-4.8,8l-3.8,33.8c-0.4,4.4,1.9,7.5,6.1,7.5c6.7,0,43.6,0,48.9,0c4.7,0,6.2-3.8,6.2-6.3c0,0,0,0,0,0
		C113.5,107.4,113.5,107,113.5,106.7z"/>
	<path class="st5" d="M57.8,107.9C57.8,107.9,57.8,107.9,57.8,107.9c0-0.5,0-0.9,0-1.2l3.8-35.8c0.4-3.3,1.5-5.9,4.7-8
		c-0.9,0.3-3.1,0.5-5.4,1.9l-0.1,0c-3.2,1.9-4.4,4.6-4.8,8l-3.8,33.8c-0.4,4.4,1.9,7.5,6.1,7.5c3.4,0,2.1,0,5.6,0
		C59.3,114.2,57.7,110.4,57.8,107.9z"/>
	<path class="st6" d="M111.4,88.2c-1.8-15.8-1.7-15.7-2-17c-0.6-2.8-2.3-4.9-4.5-6.3c0,0-0.1,0-0.1,0c-1-0.6-2.1-1.1-3.3-1.4
		l-11.3-2.8c-0.4-0.2-0.6-0.7-0.6-1.3v-5.5l0,0v0c-4.3,1.9-9.2,1.9-13.4,0v0l0,0v5.5c0,0.6-0.3,1.2-0.6,1.3
		c-9.6,2.6-11.7,2.5-14.6,4.2c0,0-0.1,0-0.1,0c-3.1,1.9-4.4,4.6-4.8,8l-1.7,15.4l10.8,1.1c0.6,0.1,1,0.6,1,1.1l-1.2,23.7
		c13.3,0,22.7,0,35.9,0l-1.2-23.6c0-0.6,0.4-1.2,1.1-1.2L111.4,88.2z"/>
	<path class="st7" d="M54.3,88.2l5.4,0.6l1.9-17.9c0.4-3.3,1.5-5.9,4.7-8c-1.3,0.4-3.3,0.7-5.4,1.9c0,0-0.1,0-0.1,0
		c-2.3,1.4-4,3.6-4.5,6.3C56,72.9,56,73.2,54.3,88.2z"/>
	<path class="st8" d="M55.6,64.8C55.6,64.8,55.5,64.8,55.6,64.8c-2.8-1.6-5.1-1.7-10.1-3.1l0,0l-5.2-2.5l0,0.1c0,0,0,0,0,0l-6.7,6.3
		l-6.7-6.3l-5.1,2.4l0,0c-5,1.4-7.3,1.5-10,3.1l-0.1,0c-3.2,1.9-4.4,4.6-4.8,8L5.1,88.2l10.6,1.1c0.7,0.1,1.2,0.7,1.1,1.3l-1.2,23.5
		c10.9,0,24.3,0,35.9,0l-1.2-23.6c0-0.6,0.4-1.2,1.1-1.2l2.8-0.3c2.1-17.3,1.5-18.8,4-21.9C57.7,66.4,56.2,65.2,55.6,64.8z"/>
	<path class="st9" d="M12.4,70.4c0.4-2.9,1.2-5.3,3.8-7.3c-0.5,0.1-2.4,0.5-4.5,1.7l-0.1,0c-0.8,0.5-1.9,1.4-2.6,2.3
		C6.3,70.4,7,73,5.1,88.2l5.5,0.6C10.6,89,10.8,86.6,12.4,70.4z"/>
	<path class="st4" d="M94.7,61.7l-4.5-1.1c-0.4-0.2-0.6-0.7-0.6-1.3v-6.1l0,0v0c-4.3,1.9-9.3,1.8-13.4,0v0l0,0v6.1
		c0,0.6-0.3,1.2-0.6,1.3l-4.6,1.1C76.4,71.1,89.2,71.1,94.7,61.7z"/>
	<path id="SVGCleanerId_0" class="st10" d="M12.5,30.5v-5.8c0-17.1,19.3-26.9,33.1-17.3c10.9,7.6,8.8,18.7,9,23.1"/>
	<g>
		<path id="SVGCleanerId_0_1_" class="st10" d="M12.5,30.5v-5.8c0-17.1,19.3-26.9,33.1-17.3c10.9,7.6,8.8,18.7,9,23.1"/>
	</g>
	<path class="st11" d="M35.7,3.8c-12.3-1.2-23.2,8.4-23.2,21v5.8h4.2v-5.8C16.7,13.9,25,4.8,35.7,3.8z"/>
	<g>
		<path class="st2" d="M55.7,32.4c0,2.4-2.4,4.4-5.3,4.4V28C53.4,28,55.7,30,55.7,32.4z"/>
		<path class="st2" d="M11.5,32.4c0,2.4,2.4,4.4,5.3,4.4V28C13.8,28,11.5,30,11.5,32.4z"/>
	</g>
	<g>
		<path class="st3" d="M50.5,32.9v4c2.9,0,5.3-2,5.3-4.4c0-0.7-0.2-1.4-0.6-2C54.3,31.9,52.5,32.9,50.5,32.9z"/>
		<path class="st3" d="M12,30.4c-1.7,2.9,0.8,6.4,4.7,6.4v-4C14.7,32.9,12.9,31.9,12,30.4z"/>
	</g>
	<path class="st12" d="M46.6,21.9c-0.1-1.7-1.4-2.6-2.8-2.4c-0.3,0-0.7,0.1-0.9,0.1c-6.7,0.9-13,0.9-19.5-0.1
		c-1.3-0.2-2.7,0.7-2.8,2.4c-0.1,2.5-1.1,4.4-2.7,5.5c-0.7,0.5-1.1,0.6-1.2,0.7c0,10.9-0.1,11.7,0.5,14.1c0.6,2.4,1.6,4.5,3,6.3
		c7.9,10.4,24.3,8.4,29.2-4c1.6-4.1,1.2-7.2,1.2-16.4C50.4,28,46.8,26.7,46.6,21.9z"/>
	<path class="st2" d="M22.9,45c-1.2-4.2-0.5-6.8-0.7-14.9c0-0.8,0.4-1.5,0.9-1.9c2-1.4,2.9-3.8,3-6.2c0-0.8,0.4-1.6,1-2
		c-0.8-0.1-1.6-0.2-2.3-0.3c-0.4-0.1-0.9-0.1-1.4-0.2c-1.3-0.2-2.7,0.7-2.8,2.4c-0.1,2.5-1.1,4.4-2.7,5.5c-0.7,0.5-1.1,0.6-1.2,0.7
		c0,11,0,10.4,0,11c0.3,7.7,5.8,14,12.7,15.6C29.1,54.4,24.3,49.8,22.9,45z"/>
	<path class="st9" d="M35.3,77.8V64.1l-1.7,1.6l-1.7-1.6v13.7c0,0.9,0.7,1.7,1.7,1.7C34.5,79.4,35.3,78.7,35.3,77.8z"/>
	<path class="st13" d="M40.4,59.3l-6.8,6.4l3.7,3.7c0.7,0.7,1.9,0.6,2.5-0.1l5.8-7.4L40.4,59.3z"/>
	<g>
		<polygon class="st14" points="43,60.5 40.4,59.3 33.6,65.6 36,68.1 		"/>
		<path class="st14" d="M37.7,69.7c0.3,0.1,0.6,0.2,1,0.1L37.7,69.7z"/>
	</g>
	<path class="st13" d="M26.9,59.3l6.7,6.3l-3.7,3.7c-0.7,0.7-1.9,0.6-2.5-0.1l-5.8-7.4L26.9,59.3z"/>
	<polygon class="st14" points="28.9,65.6 31.2,68.1 33.6,65.6 26.9,59.3 24.1,60.6 	"/>
	<path class="st5" d="M81.7,62.7v-8.2c-2-0.1-3.9-0.6-5.6-1.4c-0.2,4.9,0.4,7-0.6,7.5l-4.6,1.1c1.1,1.9,2.7,3.6,4.5,4.8l4.8-1.8
		C80.2,64.7,81.7,64,81.7,62.7z"/>
	<path class="st15" d="M98.1,32.8c0.9,0,1.7,0.8,1.7,1.8v1.3l0,0l0,0c0,2.3,0.2,4.5-0.7,7.3c-0.9,2.9-2.5,5.6-5,7.8
		c-10.5,9.3-27.3,2.3-28-11.8c0-0.1,0,0,0-0.2c0-0.2,0-0.4,0-0.7c0-2,0-6.6,0-8.6l0,0v-0.9c0-1,0.7-1.8,1.7-2c1.7-0.4,4.5-1.4,7-4
		c0.6-0.7,1.7-0.6,2.3,0.1C79.5,25.9,86.1,32.2,98.1,32.8z"/>
	<path class="st4" d="M73.3,45.8c-2.2-4.5-1.7-7.7-1.7-14c0-2.2,0-4.3,0-6.5c-1.5,0.9-2.9,1.3-3.9,1.5c-1,0.2-1.7,1.1-1.7,2
		c0,2.2,0,7,0,9.4c0,0.3,0,0.7,0,0.7c0,0,0,0.4,0,0.6C66.9,49.6,76,56.6,85.7,55C80.4,54.1,75.7,50.7,73.3,45.8z"/>
	<g>
		<path class="st16" d="M98,62.5l-3.3-0.8c-2.5,4.2-6.9,7-11.9,7C82.8,68.7,98.1,84,98,62.5z"/>
		<path class="st16" d="M67.7,62.5l3.3-0.8c2.5,4.2,6.9,7,11.9,7C82.9,68.7,67.7,84,67.7,62.5z"/>
	</g>
	<g>
		<path class="st7" d="M75.6,66.6c-2.7,1.4-5.8,2.1-7.8-0.5c1.6,16.1,15,2.7,15,2.7C80.2,68.7,77.8,68,75.6,66.6z"/>
		<path class="st7" d="M90.1,66.6c2.7,1.4,5.8,2.1,7.8-0.5c-1.6,16.1-15,2.7-15,2.7C85.5,68.7,88,68,90.1,66.6z"/>
	</g>
	<path class="st17" d="M69.8,63.5c-6.4-8.1-18.7-7.2-24,1.4c-3.1,5-1.9,9.6-2.2,11H73C72.9,73,73.7,68.4,69.8,63.5z"/>
	<path class="st18" d="M47.5,69.2c0.1-0.3,0.2-0.8,0.2-0.9c1.6-5.4,6.4-9.6,12.3-10.3c-5.8-0.7-11.4,2.1-14.3,6.9
		c-3.1,5-1.9,9.6-2.2,11h3.6C47.1,72.8,47,71.4,47.5,69.2z"/>
	<path class="st17" d="M77.3,88.2c-1.3-4-3-6.5-4.2-7.8c-0.7,0.7-1.8,1.2-2.9,1.4c2.1,3.1,1.7,6.1,1.6,8c0,0.8,0.7,1.5,1.5,1.3
		l2.7-0.6C77,90.3,77.7,89.2,77.3,88.2z"/>
	<path class="st19" d="M74.5,77.9c0,2.4-2.3,4.3-5.1,4.3v-8.5C72.3,73.6,74.5,75.5,74.5,77.9z"/>
	<path class="st18" d="M39.2,88.2c1.3-4,3-6.5,4.2-7.8c0.7,0.7,1.8,1.2,2.9,1.4c-2.1,3.1-1.7,6.1-1.6,8c0,0.8-0.7,1.5-1.5,1.3
		l-2.7-0.6C39.5,90.3,38.8,89.2,39.2,88.2z"/>
	<path class="st19" d="M42,77.9c0,2.4,2.3,4.3,5.1,4.3v-8.5C44.3,73.6,42,75.5,42,77.9z"/>
	<g>
		<path class="st20" d="M69.4,78.5v3.7c3.8,0,6.2-3.3,4.6-6.1C73.2,77.5,71.5,78.5,69.4,78.5z"/>
		<path class="st20" d="M42.5,76c-1.6,2.8,0.8,6.1,4.6,6.1v-3.7C45,78.5,43.3,77.5,42.5,76z"/>
	</g>
	<path class="st19" d="M77.2,114.2L76,103.8c-0.3-2.2-1-4-3.2-5.3l-0.1,0c-1.9-1.1-3.3-1.1-9.7-2.8c-0.7-0.3-0.3-1.7-0.4-5.2
		c-2.9,1.3-6.2,1.2-8.9,0c-0.1,3.4,0.3,4.9-0.4,5.2c-6.4,1.7-7.8,1.7-9.7,2.8l-0.1,0c-1.5,0.9-2.6,2.4-3,4.2
		c-0.2,1.1-0.2,1.2-1.3,11.5L77.2,114.2L77.2,114.2z"/>
	<path class="st21" d="M39.3,114.2c9.2,0,28.7,0,37.9,0L76,103.8c-0.3-2.2-1-4-3.2-5.3l-0.1,0c-1.9-1.1-3.4-1.1-8.5-2.5
		c0,0,0,1.4,0,1.3c0,1-0.2,1.9-0.6,2.7c-0.1,0.1-0.2,0.3-0.3,0.5c0,0-0.1,0.1-0.1,0.1c-0.1,0.2-0.2,0.3-0.3,0.5
		c-0.1,0.1-0.1,0.2-0.2,0.2c0,0,0,0,0,0c0,0-0.1,0.1-0.1,0.1c0,0,0,0,0,0c0,0,0,0,0,0c0,0,0,0,0,0c0,0-0.1,0.1-0.1,0.1c0,0,0,0,0,0
		c-0.1,0.1-0.1,0.1-0.2,0.2c0,0,0,0-0.1,0c0,0-0.1,0.1-0.1,0.1c0,0,0,0,0,0c0,0,0,0-0.1,0.1c0,0-0.1,0.1-0.1,0.1c0,0-0.1,0-0.1,0.1
		c0,0-0.1,0.1-0.1,0.1c0,0,0,0-0.1,0c0,0,0,0,0,0c0,0-0.1,0.1-0.1,0.1c0,0,0,0,0,0c0,0,0,0-0.1,0c0,0-0.1,0-0.1,0.1c0,0,0,0,0,0
		c0,0,0,0,0,0c0,0,0,0,0,0c-0.1,0-0.1,0.1-0.2,0.1c0,0,0,0,0,0c0,0,0,0,0,0c0,0,0,0,0,0c0,0-0.1,0-0.1,0.1c0,0-0.1,0-0.1,0
		c0,0-0.1,0-0.1,0.1c0,0-0.1,0-0.1,0c0,0-0.1,0-0.1,0.1c0,0-0.1,0-0.1,0c0,0-0.1,0-0.1,0c0,0,0,0-0.1,0c0,0,0,0,0,0c0,0,0,0,0,0
		c0,0-0.1,0-0.1,0c0,0,0,0-0.1,0c0,0,0,0,0,0c-0.1,0-0.2,0-0.2,0.1c0,0,0,0,0,0c0,0-0.1,0-0.1,0c-0.1,0-0.2,0-0.3,0
		c-0.2,0-0.4,0-0.6,0.1c0,0,0,0-0.1,0c0,0,0,0,0,0c0,0-0.1,0-0.1,0c0,0,0,0,0,0c0,0,0,0,0,0c0,0,0,0,0,0s0,0,0,0c0,0,0,0,0,0
		c0,0,0,0,0,0c0,0-0.1,0-0.1,0c0,0,0,0,0,0c0,0,0,0-0.1,0c-0.2,0-0.4,0-0.6-0.1c-0.1,0-0.2,0-0.3,0c0,0-0.1,0-0.1,0c0,0,0,0,0,0
		c-0.1,0-0.2,0-0.2-0.1c0,0,0,0,0,0c0,0,0,0-0.1,0c0,0-0.1,0-0.1,0c0,0,0,0,0,0c0,0,0,0,0,0c0,0,0,0-0.1,0c0,0-0.1,0-0.1,0
		c0,0-0.1,0-0.1,0c0,0-0.1,0-0.1-0.1c0,0-0.1,0-0.1,0c0,0-0.1,0-0.1-0.1c0,0-0.1,0-0.1,0c0,0-0.1,0-0.1-0.1c0,0,0,0,0,0c0,0,0,0,0,0
		c0,0,0,0,0,0c-0.1,0-0.1-0.1-0.2-0.1c0,0,0,0,0,0c0,0,0,0,0,0c0,0,0,0,0,0c0,0-0.1,0-0.1-0.1c0,0,0,0-0.1,0c0,0,0,0,0,0
		c-1.2-0.8-2.1-2-2.5-3.3c-0.4-1.2-0.2-2.1-0.3-3.1l-1.3,0.3c-4,1.1-5.4,1.1-7.2,2.2l-0.1,0c-1.5,0.9-2.6,2.4-3,4.2
		C40.4,103.8,40.5,104,39.3,114.2z"/>
	<g>
		<path class="st22" d="M43.5,107.6c0.5-4.2,0.1-7.7,3.7-9.9l0.1,0c0.4-0.2,0.8-0.5,1.2-0.6c0.1-0.1,0.2-0.1,0.2-0.2
			c-1.8,0.5-3.3,0.6-4.9,1.6l-0.1,0c-1.5,0.9-2.6,2.4-3,4.3c-0.2,1.1-0.2,1.2-1.3,11.4h3.5L43.5,107.6z"/>
		<path class="st22" d="M49,114.2l0.2-4.8c0-0.9-0.7-1.7-1.6-1.7c-0.9,0-1.7,0.7-1.7,1.6l-0.2,4.9L49,114.2L49,114.2z"/>
		<path class="st22" d="M70.8,114.2l-0.2-4.9c0-0.9-0.8-1.6-1.7-1.6c-0.9,0-1.6,0.8-1.6,1.7l0.2,4.8L70.8,114.2L70.8,114.2z"/>
	</g>
	<path class="st20" d="M56.9,99.2c0,0,1.3-0.4,1.4-2v-5.7c-1.6,0-3.1-0.3-4.5-0.9c-0.1,3.4,0.3,4.9-0.4,5.2L52.2,96
		c0,1-0.1,1.9,0.3,3.1c0.2,0.5,0.4,1.1,0.7,1.4L56.9,99.2L56.9,99.2z"/>
	<path class="st23" d="M57.5,69.9c-2.5,4.2-7.8,3.5-9.7,3.2c-0.4-0.1-0.7,0.2-0.7,0.6l0,0c0,6.8-0.2,8.3,0.5,10.5
		c1.4,4.6,5.6,7.9,10.6,7.9c6.2,0.1,11.3-4.9,11.3-11.2c0-2.8,0-4.8,0-7.3l0,0c0-0.4-0.3-0.6-0.7-0.6c-1.9,0.4-7.2,1-9.7-3.2
		C58.7,69.3,57.8,69.3,57.5,69.9z"/>
	<path class="st19" d="M52.8,82.8c-0.3-1.7-0.1-2.3-0.2-9.7c-2,0.4-3.9,0.1-4.9-0.1c-0.4-0.1-0.7,0.2-0.7,0.6
		c0,6.9-0.2,8.3,0.5,10.5c1.7,5.6,7.5,9.1,13.5,7.6C56.8,90.7,53.5,87.2,52.8,82.8z"/>
</g>
</svg>
