<svg xmlns="http://www.w3.org/2000/svg" viewBox="0 0 38.85 51"><defs><style>.cls-1{fill:#f70;}</style></defs><title>lock</title><g id="Calque_2" data-name="Calque 2"><g id="BODY"><g id="_1" data-name="1"><path class="cls-1" d="M35.86,21.37V16.44A16.44,16.44,0,1,0,3,16.44v4.94A4.49,4.49,0,0,0,0,25.6v6a19.42,19.42,0,0,0,38.85,0v-6A4.49,4.49,0,0,0,35.86,21.37ZM6,16.44a13.45,13.45,0,1,1,26.89,0v4.68h-3V16.44A10.46,10.46,0,1,0,9,16.44v4.68H6Zm20.92,0v4.68H12V16.44a7.47,7.47,0,1,1,14.94,0Zm9,15.14A16.44,16.44,0,1,1,3,31.58v-6a1.5,1.5,0,0,1,1.49-1.49H34.37a1.5,1.5,0,0,1,1.49,1.49Z"/><path class="cls-1" d="M19.42,27.09a4.48,4.48,0,0,0-1.49,8.71v4.74a1.49,1.49,0,0,0,3,0V35.8a4.48,4.48,0,0,0-1.49-8.71Zm0,6a1.49,1.49,0,1,1,1.49-1.49A1.5,1.5,0,0,1,19.42,33.07Z"/></g></g></g></svg>