<?xml version="1.0" encoding="utf-8"?>
<!-- Generator: Adobe Illustrator 23.0.6, SVG Export Plug-In . SVG Version: 6.00 Build 0)  -->
<svg version="1.1" id="Calque_1" xmlns="http://www.w3.org/2000/svg" xmlns:xlink="http://www.w3.org/1999/xlink" x="0px" y="0px"
	 viewBox="0 0 128.4 122" style="enable-background:new 0 0 128.4 122;" xml:space="preserve">
<style type="text/css">
	.st0{fill:#4DAF50;}
</style>
<path class="st0" d="M63.4,1.2C28.9,1.2,0.8,28.9,0.8,62.9c0,25.4,16.1,48.6,40.1,57.6c7.1,2.8,5.9-9.7,16.8-39.4
	c0.6-1.8-0.2-3.7-1.8-4.5c-5.1-2.8-8.2-8-8.2-13.6c0-8.5,7-15.4,15.6-15.4C72,47.5,79,54.4,79,62.9c0,5.6-3.1,10.8-8.2,13.6
	c-1.6,0.9-2.4,2.8-1.8,4.5c11.2,34,11.1,41.6,16.8,39.4c24-9,40.1-32.2,40.1-57.6C125.9,28.9,97.9,1.2,63.4,1.2L63.4,1.2z"/>
</svg>
