<?xml version="1.0" encoding="utf-8"?>
<!-- Generator: Adobe Illustrator 23.0.6, SVG Export Plug-In . SVG Version: 6.00 Build 0)  -->
<svg version="1.1" id="b43bf247-fd00-4c66-86de-2f4e4870ba29"
	 xmlns="http://www.w3.org/2000/svg" xmlns:xlink="http://www.w3.org/1999/xlink" x="0px" y="0px" viewBox="0 0 1229.9 798.6"
	 style="enable-background:new 0 0 1229.9 798.6;" xml:space="preserve">
<style type="text/css">
	.st0{fill:#F2F2F2;}
	.st1{fill:#3F3D56;}
	.st2{opacity:0.1;enable-background:new    ;}
	.st3{fill:#2F2E41;}
	.st4{fill:#A0616A;}
	.st5{fill:#D0CDE1;}
	.st6{fill:#FFB9B9;}
	.st7{fill:#FF7700;}
	.st8{opacity:5.000000e-02;enable-background:new    ;}
</style>
<circle class="st0" cx="397.3" cy="426.8" r="349.4"/>
<path class="st1" d="M1229.9,697.2c0,0.9-0.1,1.7-0.2,2.6c-8.5,52.4-280.5,94.4-614.8,94.4S8.7,752,0.2,699.7
	C0.1,698.9,0,698,0,697.1c0-0.2,0-0.4,0-0.8c0-0.1,0-0.2,0-0.3v-0.1c0-0.6,0.1-1,0.2-1.6c3.9-21.4,51.9-41.1,130.1-56.8
	c64-12.9,148.2-23.2,245.1-29.6c73.6-4.9,154.5-7.6,239.4-7.6c68.4,0,134,1.8,195.5,5l0,0c12.9,0.7,25.5,1.5,37.9,2.2
	c85.4,5.5,161.1,14,222.1,24.6c37.5,6.5,69.5,13.9,94.8,21.8l0,0c38.8,12.2,61.8,26,64.3,40.5c0.1,0.6,0.1,1,0.2,1.6v0.1
	c0,0.1,0,0.2,0,0.3C1229.9,696.7,1229.9,697,1229.9,697.2z"/>
<ellipse class="st2" cx="599.5" cy="761.8" rx="197.4" ry="28.8"/>
<path class="st2" d="M1165.4,653.9c-6.9,2-14.7,3.8-23.2,5.5c-35.1,6.9-83,11.2-135.8,11.2c-59,0-111.8-5.3-147.6-13.6
	c-29.8-6.9-47.7-16-47.7-26c0-8.7,13.9-16.8,37.5-23.4c85.4,5.5,161.1,14,222.1,24.6C1108.1,638.6,1140.1,646,1165.4,653.9z"/>
<path class="st2" d="M636.5,640.6c0,18.1-113.6,32.8-253.6,32.8s-253.6-14.7-253.6-32.8c0-1.1,0.4-2.2,1.1-3.1
	c64-12.9,148.2-23.2,245.1-29.6c2.5,0,4.8,0,7.3,0C523,607.8,636.5,622.6,636.5,640.6z"/>
<path class="st2" d="M901.5,688c0,58.3-81.2,40.3-180.8,40.3s-179.6,18-179.6-40.3s81.2-71,180.8-71S901.5,629.8,901.5,688z"/>
<path class="st1" d="M901.5,673.6c0,58.3-81.2,40.3-180.8,40.3s-179.6,18-179.6-40.3s81.2-71,180.8-71S901.5,615.3,901.5,673.6z"/>
<path class="st3" d="M884.9,569l4.1,16.9c0,0.2,0,0.3,0,0.6l-18.7,58.3c-0.2,0.6-0.8,0.9-1.3,0.7c-0.4-0.1-0.7-0.4-0.8-0.9
	l-2.6-22.7c0-0.1,0-0.3,0-0.4l17.1-52.5c0.2-0.6,0.8-0.9,1.3-0.7C884.6,568.3,884.8,568.7,884.9,569z"/>
<polygon class="st0" points="883.3,570.5 887.1,584.9 870.7,638 866.9,621.6 "/>
<path class="st3" d="M800.5,649.4c0.7,1.9,65.8-0.7,66.3-1.2c0.6-0.8,1-1.7,1.3-2.6c0.6-1.2,1.1-2.6,1.1-2.6l-2.6-20.5l-64.4-2.2
	c0,0-1.6,17.3-1.9,25.3C800.4,646.9,800.4,648.2,800.5,649.4z"/>
<polygon class="st2" points="858.7,625.4 859.9,643.1 831.5,643.1 831.5,625.4 "/>
<polygon class="st2" points="822,631.1 822.2,631.1 821.3,638.7 805.6,638.7 805.6,631.1 "/>
<path class="st2" d="M800.5,649.4c0.7,1.9,65.8-0.7,66.3-1.2c0.6-0.8,1-1.7,1.3-2.6h-67.8C800.4,646.9,800.4,648.2,800.5,649.4z"/>
<path class="st3" d="M700.1,583.1h17.7l43.6-17.1c0,0,31-12.6,28.4,11.4s-6.9,56.3-6.9,56.3s-13.9-6.4-21.5-4.5
	c-7.6,1.9-2.6-38.6-2.6-38.6s-62,29.8-67.7,26c-5.7-3.8-6.9-30.3-6.9-30.3L700.1,583.1z"/>
<path class="st2" d="M700.1,583.1h17.7l43.6-17.1c0,0,31-12.6,28.4,11.4s-6.9,56.3-6.9,56.3s-13.9-6.4-21.5-4.5
	c-7.6,1.9-2.6-38.6-2.6-38.6s-62,29.8-67.7,26c-5.7-3.8-6.9-30.3-6.9-30.3L700.1,583.1z"/>
<path class="st4" d="M727.9,527.6l21.4,30.8l49.9,41.7c0,0,46.1,10.7,39.8,18.3c-6.4,7.6-44.9-7.6-44.9-7.6s-57.5-41.7-59.4-44.9
	c-1.9-3.1-22.7-32.9-22.7-32.9L727.9,527.6z"/>
<path class="st2" d="M727.9,527.6l21.4,30.8l49.9,41.7c0,0,46.1,10.7,39.8,18.3c-6.4,7.6-44.9-7.6-44.9-7.6s-57.5-41.7-59.4-44.9
	c-1.9-3.1-22.7-32.9-22.7-32.9L727.9,527.6z"/>
<circle class="st4" cx="724.7" cy="465.5" r="28.4"/>
<path class="st4" d="M722.8,490.8c0,0-9.5,16.4-11.4,25.3c-1.9,8.8-28.4-17.7-28.4-17.7l-3.5-9.2c0,0,25-11.7,23-21.1
	C700.6,458.5,722.8,490.8,722.8,490.8z"/>
<path class="st5" d="M715.2,502.8L729,530c0,0-3.1,13.3-8.2,14.5c-5,1.2-26.5-16.4-26.5-16.4L715.2,502.8z"/>
<path class="st4" d="M727.8,540l26,34.1l62,46.1c0,0,44.9,9.5,34.8,16.4c-10.1,6.9-39.2-6.4-39.2-6.4s-62.7-33.3-76-47.2
	c-13.3-13.9-37.9-37.3-37.9-37.3L727.8,540z"/>
<path class="st3" d="M693,593.2l7.6,12l45.3-14.2c10-3.2,20.8-1.9,29.6,3.6c7.9,4.9,13,12.9,1.6,24.6
	c-22.7,23.4-37.9,10.7-37.9,10.7s-76.5,36-89.2,18.3c-12.6-17.7-13.3-26.5-13.3-26.5S685.5,591.3,693,593.2z"/>
<path class="st5" d="M787.9,634.9c0,0,20.3,13.3-3.8,19.6c-24.1,6.4-41.7-2.6-41.7-2.6s-20.8,0-20.8-10.7c0-10.7,6.9-12,6.9-12
	l21.5,3.1C750,632.3,775.9,625.4,787.9,634.9z"/>
<path class="st3" d="M748.1,458.3c1.9,1,3.9,1.7,5.9,2.1c2.1,0.3,4.3-0.6,5.5-2.3c0.4-1,0.7-2.2,0.7-3.4c0.1-3.5-0.2-7.3-2.3-10
	c-1.5-1.7-3.5-2.8-4.9-4.5c-1-1.2-1.8-2.6-2.5-4c-2.8-5.3-6.9-10.4-12.8-11.9c-2.5-0.6-4.9-0.7-7.5-0.6l-14.7,0.2
	c-2.3-0.1-4.7,0.2-7,0.8c-4.7,1.5-8.2,5.4-11.3,9.2c-2.5,2.8-4.6,5.7-6.5,9c-2.6,4.7-3.8,10-3.7,15.3c0,1.3,0.1,2.7,0.6,4
	c0.4,1.2,1,2.3,1.6,3.5c2.7,5.4,4.4,12.1,1.2,17.3c5.4-2.2,10.6-5,14.2-9.6c1.6-2,2.8-4.5,4.9-5.9c2.1-1.5,5.6-1.7,6.9,0.6
	c0.4,0.9,0.7,1.9,0.7,2.9c0,1.7,0.2,3.4,0.8,4.9c0.7,1.6,2.2,2.6,4,2.2c2.8-0.8,2.5-5,4.6-6.9c1.6-1.5,4.1-1.2,6.2-1.8
	c2.3-0.9,4.3-2.8,5.3-5.1c0.8-1.8,0.8-6.4,2.2-7.3C742,455.7,746.3,457.6,748.1,458.3z"/>
<path class="st5" d="M677.2,486.2c1.2-0.3,2.6-0.3,3.9,0c4,1.1,13.2,4,15.1,8.4c2.6,5.7,11.4,14.5,11.4,14.5s12,12,9.5,20.3
	c-2.6,8.2-12,17.7-12,17.7s2.6,39.2-10.1,49.3c-12.6,10.1-17.7,3.1-17.7,12.6c0,9.5-39.2,39.2-46.8,20.8c0,0,3.8-34.1,2.6-46.1
	C631.8,571.8,633.6,498,677.2,486.2z"/>
<path class="st5" d="M697.5,502.1c0,0,38.6,28.4,31.7,40.5c0,0-23.4,11.4-28.4,10.7c-5-0.7-24.6-22.7-29.8-24.6
	S663.4,492.7,697.5,502.1z"/>
<path class="st3" d="M590.9,527.6c-6,2-11.4,6.7-12.6,13c-0.6,2.9-0.2,5.8-0.7,8.7c-1.1,6.7-6.4,11.9-11.2,16.6
	c-4.8,4.8-9.8,10.3-10.2,17.1c-0.3,7.5,5,14.4,4,21.8c-1.1,8.6-10.2,14.2-12.4,22.5c-1.5,5.6,0.3,11.6,3.4,16.6
	c5.7,9.4,15.6,15.8,26.1,19.2c10.5,3.5,21.6,4.1,32.7,4.3c13.4,0.1,28-1,38-9.8c5.7-5.1,9.4-12.2,10.1-19.8
	c1-10.3-3.4-20.8-0.3-30.8c1.9-6.3,6.5-11.9,5.8-18.3c-0.7-6.3-6.2-10.7-10-15.9c-3.6-4.7-5.7-10.4-7.7-15.9l-7.2-18.9
	c-1.5-3.7-2.9-7.6-6.2-10.1c-5.9-4.6-15.3-3.7-22.3-2.7C603.7,526,597,525.6,590.9,527.6z"/>
<path class="st6" d="M593.1,582.8c0,0,3.1,10.3-20.7,22.3c-23.8,12,2.3,24.6,2.3,24.6l27.9,6.4c0,0,28.6-4,31.8-8.7
	c3.1-4.8,8.7-20.7,7.2-23c-1.2-1.7-2.6-3.2-4-4.8c0,0-19.1-3.1-18.2-12C620.2,578.8,593.1,582.8,593.1,582.8z"/>
<path class="st2" d="M593.1,582.8c0,0,3.1,10.3-20.7,22.3c-23.8,12,2.3,24.6,2.3,24.6l27.9,6.4c0,0,28.6-4,31.8-8.7
	c3.1-4.8,8.7-20.7,7.2-23c-1.2-1.7-2.6-3.2-4-4.8c0,0-19.1-3.1-18.2-12C620.2,578.8,593.1,582.8,593.1,582.8z"/>
<ellipse class="st6" cx="608.5" cy="573.6" rx="25.4" ry="25.4"/>
<path class="st7" d="M605.9,627.3c0,0-30.7-2.2-31.2-23.4c0,0-11-1.2-14.1,1.9c-3.1,3.1-13.5,5.6-13.5,13.5s17.5,31.8,17.5,31.8
	s9.5,31.8,5.6,37.4c-4,5.6-4.8,19.9-4.8,19.9s39.7-3.1,46.1,0c6.4,3.1,31.8,3.1,33.3,0c1.6-3.1-1.6-43-1.6-43s7.2-9.5,5.6-20.7
	l19.1-22.3c0,0-7.2-21.5-18.2-21.5c0,0-15.1-4-15.6-2C633.6,601.1,641.6,623.3,605.9,627.3z"/>
<path class="st6" d="M534.3,697.2c0,0,7.2,11.1,25.4,13.5c18.2,2.3,21.5-4,19.9-5.6s-20.7-8.7-20.7-8.7l-11.1-8.7L534.3,697.2z"/>
<path class="st6" d="M664.6,687.7l-20.7,12c0,0-27.1-1.6-16.7,6.4c10.3,7.9,29.4,4.8,29.4,4.8l18.2-8.7L664.6,687.7z"/>
<path class="st3" d="M561.3,708.4c0,0-19.1,46.9,4,54c23.2,7.2,86.6,5.6,100.9-4c14.3-9.5,18.2-22.3,15.9-26.2
	c-2.3-3.9-18.2-15.1-29.4-15.9S561.3,708.4,561.3,708.4z"/>
<path class="st8" d="M561.3,708.4c0,0-19.1,46.9,4,54c23.2,7.2,86.6,5.6,100.9-4c14.3-9.5,18.2-22.3,15.9-26.2
	c-2.3-3.9-18.2-15.1-29.4-15.9S561.3,708.4,561.3,708.4z"/>
<path class="st3" d="M651.4,711.3c0,0,67.4-24.4,66.6,5s-43,37.4-43,37.4l-12.8,1.6l-69.9,2.3c0,0,2.3-12.8-3.1-14.3
	c0,0,18.2-4.8,19.1-5.6c0.8-0.8,46.1-16.7,49.2-17.5c3.1-0.8,12.8-7.2,19.9-6.4c0,0,7.9-6.4,16.7-4.8l-24.6,1.6L651.4,711.3z"/>
<path class="st2" d="M651.4,711.3c0,0,67.4-24.4,66.6,5s-43,37.4-43,37.4l-12.8,1.6l-69.9,2.3c0,0,2.3-12.8-3.1-14.3
	c0,0,18.2-4.8,19.1-5.6c0.8-0.8,46.1-16.7,49.2-17.5c3.1-0.8,12.8-7.2,19.9-6.4c0,0,7.9-6.4,16.7-4.8l-24.6,1.6L651.4,711.3z"/>
<polygon class="st3" points="639.4,715.2 647.9,734.6 699.6,716.3 703.6,705.9 690.1,703.6 662.9,708.4 651.2,711.5 "/>
<polygon class="st2" points="639.4,715.2 647.9,734.6 699.6,716.3 703.6,705.9 690.1,703.6 662.9,708.4 651.2,711.5 "/>
<path class="st3" d="M529.6,738.6c0,0,15.1,19.1,32.6,23.8c17.5,4.8,27.1-1.6,27.1-1.6l-5.6-22.3l-2.3-14.3l-10.3-7.2l-20.7-9.5
	l-24.6-7.9c0,0-10.3-1.6-10.3,0s9.5,25.4,9.5,25.4L529.6,738.6z"/>
<path class="st0" d="M547.8,748.9c0,0,3.1,23,7.2,24.6s15.9-1.6,19.1-3.1c3.1-1.6,14-9,14-9S550.1,747.3,547.8,748.9z"/>
<polygon class="st6" points="620.2,751.3 635.3,753.7 633.6,772 612.6,766.8 "/>
<path class="st0" d="M629.6,756.4c0,0-7,8.4,0.1,13.2l4.8,4c0,0,15.9,3.1,17.5,4.8c1.6,1.6,7.9-2.3,7.9-2.3s0.8-23.8,0-25.4
	c-0.8-1.6-10.3-3.1-11.1-1.6s-10.3,4-15.9,2.3L629.6,756.4z"/>
<path class="st3" d="M566,713.9c0,0-55.6-32.6-64.3-20.7c-8.7,12-18.2,28.6,7.2,41.3c25.4,12.8,104.9,38.9,104.9,38.9s12-18.2,12-23
	c0,0-42.2-19.1-49.2-20.7c-7.2-1.6-35.8-19.9-39.7-21.5c-4-1.6-9.5-6.4-9.5-6.4L566,713.9z"/>
<path class="st7" d="M550.1,615.3l-3.1,2.3c0,0-7.2,18.2-7.9,28.6c-0.8,10.3-10.3,42.2-9.5,46.1c0.8,4,1.6,7.2,6.4,11.1
	c0,0,6.4-14.3,17.5-12l13.5-49.2L550.1,615.3z"/>
<path class="st7" d="M661.5,615.3l6.4,7.2c0,0,4,9.5,4,12c0,2.3,7.9,37.4,8.7,38.9c0.8,1.6,4,21.5,0,26.2c-4,4.8-11.1,7.9-11.1,7.9
	s4.8-16.7-10.3-17.5l1.6-6.4L646.5,636L661.5,615.3z"/>
<path class="st1" d="M551.8,670.1V712c0,5.5,4.4,10,10,10.1l87.6,1.3c5.5,0.1,10-4.3,10.2-9.7l1.6-41.8c0.2-5.6-4.1-10.2-9.6-10.4
	c-0.1,0-0.1,0-0.2,0l-89.2-1.3C556.5,660,551.9,664.4,551.8,670.1C551.8,670,551.8,670,551.8,670.1z"/>
<ellipse class="st3" cx="610.1" cy="558" rx="27.4" ry="14.8"/>
<circle class="st0" cx="605.4" cy="692.1" r="6.4"/>
<path class="st7" d="M390.9,269.8c-105.8,0-192,84.9-192,189.3c0,77.9,49.3,149.1,123,176.7c21.8,8.6,18.1-29.8,51.6-120.8
	c1.8-5.5-0.6-11.3-5.5-13.8c-15.7-8.6-25.2-24.5-25.2-41.7c0-26.1,21.5-47.2,47.9-47.2c26.7-0.3,48.1,20.8,48.1,47
	c0,17.2-9.5,33.1-25.2,41.7c-4.9,2.8-7.4,8.6-5.5,13.8c34.3,104.3,34,127.7,51.6,120.8c73.6-27.6,123-98.8,123-176.7
	C582.7,354.9,496.8,269.8,390.9,269.8L390.9,269.8z"/>
</svg>
