<?xml version="1.0" encoding="utf-8"?>
<!-- Generator: Adobe Illustrator 23.0.6, SVG Export Plug-In . SVG Version: 6.00 Build 0)  -->
<svg version="1.1" id="b43bf247-fd00-4c66-86de-2f4e4870ba29"
	 xmlns="http://www.w3.org/2000/svg" xmlns:xlink="http://www.w3.org/1999/xlink" x="0px" y="0px" viewBox="0 0 1113.6 784.4"
	 style="enable-background:new 0 0 1113.6 784.4;" xml:space="preserve">
<style type="text/css">
	.st0{opacity:0.1;fill:#FF7700;enable-background:new    ;}
	.st1{opacity:0.1;}
	.st2{fill:#3F3D56;}
	.st3{fill:#FF7700;}
	.st4{opacity:0.1;enable-background:new    ;}
	.st5{fill:#A8A8A8;}
	.st6{opacity:0.2;enable-background:new    ;}
	.st7{fill:url(#SVGID_1_);}
	.st8{fill:#696791;}
	.st9{fill:#A0616A;}
	.st10{fill:#F86D70;}
	.st11{fill:#2D293D;}
	.st12{fill:none;stroke:#3F3D56;stroke-width:7;stroke-linecap:round;stroke-miterlimit:10;}
	.st13{fill:#F2F2F2;}
	.st14{fill:#2F2E41;}
	.st15{fill:#FFB8B8;}
	.st16{fill:#D0CDE1;}
	.st17{fill:#FFB9B9;}
	.st18{opacity:5.000000e-02;enable-background:new    ;}
	.st19{fill:#4DAF50;}
</style>
<circle class="st13" cx="358.8" cy="442.9" r="312.3"/>
<path class="st2" d="M1103,684.6c0,0.8-0.1,1.5-0.2,2.3c-7.6,46.8-250.7,84.4-549.5,84.4S11.5,733.6,3.9,686.8
	c-0.1-0.7-0.2-1.5-0.2-2.3c0-0.2,0-0.4,0-0.7c0-0.1,0-0.2,0-0.3c0,0,0-0.1,0-0.1c0-0.5,0.1-0.9,0.2-1.4
	c3.5-19.1,46.4-36.7,116.3-50.8c57.2-11.5,132.5-20.7,219.1-26.5c65.8-4.4,138.1-6.8,214-6.8c61.1,0,119.8,1.6,174.7,4.5h0
	c11.5,0.6,22.8,1.3,33.9,2c76.3,4.9,144,12.5,198.5,22c33.5,5.8,62.1,12.4,84.7,19.5h0c34.7,10.9,55.2,23.2,57.5,36.2
	c0.1,0.5,0.1,0.9,0.2,1.4c0,0,0,0.1,0,0.1c0,0.1,0,0.2,0,0.3C1103,684.1,1103,684.4,1103,684.6z"/>
<ellipse class="st4" cx="539.5" cy="742.3" rx="176.4" ry="25.7"/>
<path class="st4" d="M1045.3,645.9c-6.2,1.8-13.1,3.4-20.7,4.9c-31.4,6.2-74.2,10-121.4,10c-52.7,0-99.9-4.7-131.9-12.2
	c-26.6-6.2-42.6-14.3-42.6-23.2c0-7.8,12.4-15,33.5-20.9c76.3,4.9,144,12.5,198.5,22C994.1,632.2,1022.7,638.8,1045.3,645.9z"/>
<path class="st4" d="M572.6,634c0,16.2-101.5,29.3-226.7,29.3S119.2,650.2,119.2,634c0-1,0.4-2,1-2.8
	c57.2-11.5,132.5-20.7,219.1-26.5c2.2,0,4.3,0,6.5,0C471.1,604.7,572.6,617.9,572.6,634z"/>
<path class="st4" d="M809.4,676.4c0,52.1-72.6,36-161.6,36s-160.5,16.1-160.5-36s72.6-63.5,161.6-63.5S809.4,624.3,809.4,676.4z"/>
<path class="st2" d="M809.4,663.5c0,52.1-72.6,36-161.6,36s-160.5,16.1-160.5-36s72.6-63.5,161.6-63.5S809.4,611.4,809.4,663.5z"/>
<path class="st14" d="M794.6,570l3.7,15.1c0,0.2,0,0.3,0,0.5l-16.7,52.1c-0.2,0.5-0.7,0.8-1.2,0.6c-0.4-0.1-0.6-0.4-0.7-0.8
	l-2.3-20.3c0-0.1,0-0.3,0-0.4l15.3-46.9c0.2-0.5,0.7-0.8,1.2-0.6C794.3,569.4,794.5,569.7,794.6,570z"/>
<polygon class="st13" points="793.2,571.3 796.6,584.2 781.9,631.7 778.5,617 "/>
<path class="st14" d="M719.2,641.9c0.6,1.7,58.8-0.6,59.3-1.1c0.5-0.7,0.9-1.5,1.2-2.3c0.5-1.1,1-2.3,1-2.3l-2.3-18.3l-57.6-2
	c0,0-1.4,15.5-1.7,22.6C719.1,639.6,719.1,640.8,719.2,641.9z"/>
<polygon class="st4" points="771.2,620.4 772.3,636.2 746.9,636.2 746.9,620.4 "/>
<polygon class="st4" points="738.4,625.5 738.6,625.5 737.8,632.3 723.7,632.3 723.7,625.5 "/>
<path class="st4" d="M719.2,641.9c0.6,1.7,58.8-0.6,59.3-1.1c0.5-0.7,0.9-1.5,1.2-2.3h-60.6C719.1,639.6,719.1,640.8,719.2,641.9z"
	/>
<path class="st14" d="M629.4,582.6h15.8l39-15.3c0,0,27.7-11.3,25.4,10.2c-2.3,21.5-6.2,50.3-6.2,50.3s-12.4-5.7-19.2-4
	c-6.8,1.7-2.3-34.5-2.3-34.5s-55.4,26.6-60.5,23.2c-5.1-3.4-6.2-27.1-6.2-27.1L629.4,582.6z"/>
<path class="st4" d="M629.4,582.6h15.8l39-15.3c0,0,27.7-11.3,25.4,10.2c-2.3,21.5-6.2,50.3-6.2,50.3s-12.4-5.7-19.2-4
	c-6.8,1.7-2.3-34.5-2.3-34.5s-55.4,26.6-60.5,23.2c-5.1-3.4-6.2-27.1-6.2-27.1L629.4,582.6z"/>
<path class="st9" d="M654.3,533l19.1,27.5l44.6,37.3c0,0,41.2,9.6,35.6,16.4c-5.7,6.8-40.1-6.8-40.1-6.8s-51.4-37.3-53.1-40.1
	c-1.7-2.8-20.3-29.4-20.3-29.4L654.3,533z"/>
<path class="st4" d="M654.3,533l19.1,27.5l44.6,37.3c0,0,41.2,9.6,35.6,16.4c-5.7,6.8-40.1-6.8-40.1-6.8s-51.4-37.3-53.1-40.1
	c-1.7-2.8-20.3-29.4-20.3-29.4L654.3,533z"/>
<circle class="st9" cx="651.4" cy="477.5" r="25.4"/>
<path class="st9" d="M649.7,500.1c0,0-8.5,14.7-10.2,22.6c-1.7,7.9-25.4-15.8-25.4-15.8l-3.1-8.2c0,0,22.3-10.5,20.6-18.9
	C629.9,471.2,649.7,500.1,649.7,500.1z"/>
<path class="st16" d="M642.9,510.8l12.4,24.3c0,0-2.8,11.9-7.3,13s-23.7-14.7-23.7-14.7L642.9,510.8z"/>
<path class="st9" d="M654.2,544.1l23.2,30.5l55.4,41.2c0,0,40.1,8.5,31.1,14.7s-35-5.7-35-5.7S672.9,595,661,582.6
	s-33.9-33.3-33.9-33.3L654.2,544.1z"/>
<path class="st14" d="M623.1,591.6l6.8,10.7l40.5-12.7c8.9-2.9,18.6-1.7,26.5,3.2c7.1,4.4,11.6,11.5,1.4,22
	c-20.3,20.9-33.9,9.6-33.9,9.6s-68.4,32.2-79.7,16.4c-11.3-15.8-11.9-23.7-11.9-23.7S616.4,589.9,623.1,591.6z"/>
<path class="st16" d="M707.9,628.9c0,0,18.1,11.9-3.4,17.5c-21.5,5.7-37.3-2.3-37.3-2.3s-18.6,0-18.6-9.6c0-9.6,6.2-10.7,6.2-10.7
	l19.2,2.8C674,626.6,697.2,620.4,707.9,628.9z"/>
<path class="st14" d="M672.3,471.1c1.7,0.9,3.5,1.5,5.3,1.9c1.9,0.3,3.8-0.5,4.9-2.1c0.4-0.9,0.6-2,0.6-3c0.1-3.1-0.2-6.5-2.1-8.9
	c-1.3-1.5-3.1-2.5-4.4-4c-0.9-1.1-1.6-2.3-2.2-3.6c-2.5-4.7-6.2-9.3-11.4-10.6c-2.2-0.5-4.4-0.6-6.7-0.5l-13.1,0.2
	c-2.1-0.1-4.2,0.2-6.3,0.7c-4.2,1.3-7.3,4.8-10.1,8.2c-2.2,2.5-4.1,5.1-5.8,8c-2.3,4.2-3.4,8.9-3.3,13.7c0,1.2,0.1,2.4,0.5,3.6
	c0.4,1.1,0.9,2.1,1.4,3.1c2.4,4.8,3.9,10.8,1.1,15.5c4.8-2,9.5-4.5,12.7-8.6c1.4-1.8,2.5-4,4.4-5.3s5-1.5,6.2,0.5
	c0.4,0.8,0.6,1.7,0.6,2.6c0,1.5,0.2,3,0.7,4.4c0.6,1.4,2,2.3,3.6,2c2.5-0.7,2.2-4.5,4.1-6.2c1.4-1.3,3.7-1.1,5.5-1.6
	c2.1-0.8,3.8-2.5,4.7-4.6c0.7-1.6,0.7-5.7,2-6.5C666.9,468.7,670.7,470.4,672.3,471.1z"/>
<path class="st16" d="M609,496c1.1-0.3,2.3-0.3,3.5,0c3.6,1,11.8,3.6,13.5,7.5c2.3,5.1,10.2,13,10.2,13s10.7,10.7,8.5,18.1
	c-2.3,7.3-10.7,15.8-10.7,15.8s2.3,35-9,44.1c-11.3,9-15.8,2.8-15.8,11.3c0,8.5-35,35-41.8,18.6c0,0,3.4-30.5,2.3-41.2
	C568.4,572.5,570,506.5,609,496z"/>
<path class="st16" d="M627.1,510.2c0,0,34.5,25.4,28.3,36.2c0,0-20.9,10.2-25.4,9.6c-4.5-0.6-22-20.3-26.6-22
	S596.6,501.8,627.1,510.2z"/>
<path class="st14" d="M531.8,533c-5.4,1.8-10.2,6-11.3,11.6c-0.5,2.6-0.2,5.2-0.6,7.8c-1,6-5.7,10.6-10,14.8
	c-4.3,4.3-8.8,9.2-9.1,15.3c-0.3,6.7,4.5,12.9,3.6,19.5c-1,7.7-9.1,12.7-11.1,20.1c-1.3,5,0.3,10.4,3,14.8
	c5.1,8.4,13.9,14.1,23.3,17.2c9.4,3.1,19.3,3.7,29.2,3.8c12,0.1,25-0.9,34-8.8c5.1-4.6,8.4-10.9,9-17.7c0.9-9.2-3-18.6-0.3-27.5
	c1.7-5.6,5.8-10.6,5.2-16.4c-0.6-5.6-5.5-9.6-8.9-14.2c-3.2-4.2-5.1-9.3-6.9-14.2l-6.4-16.9c-1.3-3.3-2.6-6.8-5.5-9
	c-5.3-4.1-13.7-3.3-19.9-2.4C543.3,531.6,537.3,531.2,531.8,533z"/>
<path class="st17" d="M533.8,582.3c0,0,2.8,9.2-18.5,19.9c-21.3,10.7,2.1,22,2.1,22l24.9,5.7c0,0,25.6-3.6,28.4-7.8
	c2.8-4.3,7.8-18.5,6.4-20.6c-1.1-1.5-2.3-2.9-3.6-4.3c0,0-17.1-2.8-16.3-10.7C558,578.8,533.8,582.3,533.8,582.3z"/>
<path class="st4" d="M533.8,582.3c0,0,2.8,9.2-18.5,19.9c-21.3,10.7,2.1,22,2.1,22l24.9,5.7c0,0,25.6-3.6,28.4-7.8
	c2.8-4.3,7.8-18.5,6.4-20.6c-1.1-1.5-2.3-2.9-3.6-4.3c0,0-17.1-2.8-16.3-10.7C558,578.8,533.8,582.3,533.8,582.3z"/>
<ellipse transform="matrix(0.1602 -0.9871 0.9871 0.1602 -106.7986 1022.7516)" class="st17" cx="547.7" cy="574.1" rx="22.7" ry="22.7"/>
<path class="st3" d="M545.2,622.1c0,0-27.4-2-27.9-20.9c0,0-9.8-1.1-12.6,1.7s-12.1,5-12.1,12.1c0,7.1,15.6,28.4,15.6,28.4
	s8.5,28.4,5,33.4c-3.6,5-4.3,17.8-4.3,17.8s35.5-2.8,41.2,0s28.4,2.8,29.8,0c1.4-2.8-1.4-38.4-1.4-38.4s6.4-8.5,5-18.5l17.1-19.9
	c0,0-6.4-19.2-16.3-19.2c0,0-13.5-3.6-13.9-1.8C570,598.7,577.1,618.5,545.2,622.1z"/>
<path class="st17" d="M481.2,684.6c0,0,6.4,9.9,22.7,12.1c16.3,2.1,19.2-3.6,17.8-5c-1.4-1.4-18.5-7.8-18.5-7.8l-9.9-7.8
	L481.2,684.6z"/>
<path class="st17" d="M597.7,676.1l-18.5,10.7c0,0-24.2-1.4-14.9,5.7c9.2,7.1,26.3,4.3,26.3,4.3l16.3-7.8L597.7,676.1z"/>
<path class="st14" d="M505.4,694.6c0,0-17.1,41.9,3.6,48.3s77.4,5,90.2-3.6c12.8-8.5,16.3-19.9,14.2-23.4s-16.3-13.5-26.3-14.2
	S505.4,694.6,505.4,694.6z"/>
<path class="st18" d="M505.4,694.6c0,0-17.1,41.9,3.6,48.3s77.4,5,90.2-3.6c12.8-8.5,16.3-19.9,14.2-23.4s-16.3-13.5-26.3-14.2
	S505.4,694.6,505.4,694.6z"/>
<path class="st14" d="M585.9,697.2c0,0,60.2-21.8,59.5,4.5S607,735.1,607,735.1l-11.4,1.4l-62.5,2.1c0,0,2.1-11.4-2.8-12.8
	c0,0,16.3-4.3,17.1-5c0.7-0.7,41.2-14.9,44-15.6s11.4-6.4,17.8-5.7c0,0,7.1-5.7,14.9-4.3l-22,1.4L585.9,697.2z"/>
<path class="st4" d="M585.9,697.2c0,0,60.2-21.8,59.5,4.5S607,735.1,607,735.1l-11.4,1.4l-62.5,2.1c0,0,2.1-11.4-2.8-12.8
	c0,0,16.3-4.3,17.1-5c0.7-0.7,41.2-14.9,44-15.6s11.4-6.4,17.8-5.7c0,0,7.1-5.7,14.9-4.3l-22,1.4L585.9,697.2z"/>
<polygon class="st14" points="575.2,700.7 582.8,718 629,701.7 632.6,692.4 620.5,690.3 596.2,694.6 585.7,697.4 "/>
<polygon class="st4" points="575.2,700.7 582.8,718 629,701.7 632.6,692.4 620.5,690.3 596.2,694.6 585.7,697.4 "/>
<path class="st14" d="M477,721.6c0,0,13.5,17.1,29.1,21.3c15.6,4.3,24.2-1.4,24.2-1.4l-5-19.9l-2.1-12.8l-9.2-6.4l-18.5-8.5l-22-7.1
	c0,0-9.2-1.4-9.2,0c0,1.4,8.5,22.7,8.5,22.7L477,721.6z"/>
<path class="st13" d="M493.3,730.8c0,0,2.8,20.6,6.4,22c3.6,1.4,14.2-1.4,17.1-2.8c2.8-1.4,12.5-8,12.5-8S495.4,729.4,493.3,730.8z"
	/>
<polygon class="st17" points="558,732.9 571.5,735.1 570,751.4 551.2,746.8 "/>
<path class="st13" d="M566.4,737.5c0,0-6.3,7.5,0.1,11.8l4.3,3.6c0,0,14.2,2.8,15.6,4.3c1.4,1.4,7.1-2.1,7.1-2.1s0.7-21.3,0-22.7
	c-0.7-1.4-9.2-2.8-9.9-1.4c-0.7,1.4-9.2,3.6-14.2,2.1L566.4,737.5z"/>
<path class="st14" d="M509.6,699.5c0,0-49.7-29.1-57.5-18.5c-7.8,10.7-16.3,25.6,6.4,36.9c22.7,11.4,93.8,34.8,93.8,34.8
	s10.7-16.3,10.7-20.6c0,0-37.7-17.1-44-18.5c-6.4-1.4-32-17.8-35.5-19.2c-3.6-1.4-8.5-5.7-8.5-5.7L509.6,699.5z"/>
<path class="st3" d="M495.4,611.4l-2.8,2.1c0,0-6.4,16.3-7.1,25.6c-0.7,9.2-9.2,37.7-8.5,41.2c0.7,3.6,1.4,6.4,5.7,9.9
	c0,0,5.7-12.8,15.6-10.7l12.1-44L495.4,611.4z"/>
<path class="st3" d="M594.9,611.4l5.7,6.4c0,0,3.6,8.5,3.6,10.7c0,2.1,7.1,33.4,7.8,34.8c0.7,1.4,3.6,19.2,0,23.4
	c-3.6,4.3-9.9,7.1-9.9,7.1s4.3-14.9-9.2-15.6l1.4-5.7l-12.8-42.6L594.9,611.4z"/>
<path class="st2" d="M496.9,660.4v37.4c0,4.9,3.9,8.9,8.9,9l78.3,1.2c4.9,0.1,8.9-3.8,9.1-8.7l1.4-37.4c0.2-5-3.7-9.1-8.6-9.3
	c-0.1,0-0.1,0-0.2,0l-79.7-1.2c-5-0.1-9.1,3.9-9.1,8.9C496.9,660.3,496.9,660.3,496.9,660.4z"/>
<ellipse class="st14" cx="549" cy="560.2" rx="24.5" ry="13.2"/>
<circle class="st13" cx="544.8" cy="680" r="5.7"/>
<path class="st19" d="M353.1,302.6c-94.6,0-171.6,75.9-171.6,169.2c0,69.6,44.1,133.3,109.9,157.9c19.5,7.7,16.2-26.6,46.1-108
	c1.6-4.9-0.5-10.1-4.9-12.3c-14-7.7-22.5-21.9-22.5-37.3c0-23.3,19.2-42.2,42.8-42.2c23.9-0.3,43,18.6,43,42
	c0,15.4-8.5,29.6-22.5,37.3c-4.4,2.5-6.6,7.7-4.9,12.3c30.7,93.2,30.4,114.1,46.1,108c65.8-24.7,109.9-88.3,109.9-157.9
	C524.5,378.6,447.7,302.6,353.1,302.6L353.1,302.6z"/>
</svg>
