<?xml version="1.0" encoding="utf-8"?>
<!-- Generator: Adobe Illustrator 23.0.6, SVG Export Plug-In . SVG Version: 6.00 Build 0)  -->
<svg version="1.1" id="Calque_1" xmlns="http://www.w3.org/2000/svg" xmlns:xlink="http://www.w3.org/1999/xlink" x="0px" y="0px"
	 viewBox="0 0 86.8 115.9" style="enable-background:new 0 0 86.8 115.9;" xml:space="preserve">
<style type="text/css">
	.st0{fill:#DC8844;}
	.st1{fill:#3B566B;}
	.st2{fill:#657A8A;}
	.st3{fill:#F6C359;}
	.st4{fill:#FDD562;}
</style>
<g>
	<path class="st0" d="M77.9,51.5h-4.4h0H62.7h0H43.4H24.1h0H13.4h0H9c-3.5,0-6.4,2.8-6.4,6.4v48c0,3.5,2.8,6.4,6.4,6.4h34.4h34.4
		c3.5,0,6.4-2.8,6.4-6.4v-48C84.2,54.3,81.4,51.5,77.9,51.5z"/>
	<path class="st1" d="M62.7,32v15.6h0h10.7V32c0-16.5-13.5-30-30-30v10.7C54,12.7,62.7,21.3,62.7,32z"/>
	<path class="st2" d="M24.1,47.6V32c0-10.6,8.7-19.3,19.3-19.3V2c-16.5,0-30,13.5-30,30v15.6h0H24.1z"/>
	<path class="st3" d="M77.9,47.6h-4.4h0H62.7h0H43.4v60.7h34.4c3.5,0,6.4-2.8,6.4-6.4V54C84.2,50.5,81.4,47.6,77.9,47.6z"/>
	<path class="st4" d="M24.1,47.6L24.1,47.6H13.4h0H9c-3.5,0-6.4,2.8-6.4,6.4v48c0,3.5,2.8,6.4,6.4,6.4h34.4V47.6H24.1z"/>
	<path class="st0" d="M50.7,68.7c0-4-3.3-7.3-7.3-7.3c-4,0-7.3,3.3-7.3,7.3c0,2.6,1.4,4.8,3.4,6.1l-2.2,10.3h12.1l-2.2-10.3
		C49.3,73.5,50.7,71.3,50.7,68.7z"/>
</g>
</svg>
