<?xml version="1.0" encoding="utf-8"?>
<!-- Generator: Adobe Illustrator 23.0.6, SVG Export Plug-In . SVG Version: 6.00 Build 0)  -->
<svg version="1.1" id="Calque_1" xmlns="http://www.w3.org/2000/svg" xmlns:xlink="http://www.w3.org/1999/xlink" x="0px" y="0px"
	 viewBox="0 0 235.9 156" style="enable-background:new 0 0 235.9 156;" xml:space="preserve">
<style type="text/css">
	.st0{fill:#565566;}
	.st1{fill:#FDD6A3;}
	.st2{fill:#FBC78F;}
	.st3{fill:#FFE1B3;}
	.st4{fill:#ED6957;}
	.st5{fill:#C65F55;}
	.st6{fill:#5C5E6F;}
	.st7{fill:#757A8E;}
	.st8{fill:#464756;}
	.st9{fill:#707588;}
	.st10{fill:#868CA1;}
	.st11{fill:#FFFFFF;}
	.st12{fill:#A3CEE2;}
	.st13{fill:#29394A;}
	.st14{fill:#B7E1F0;}
	.st15{fill:#4A6A8E;}
	.st16{fill:#416185;}
	.st17{fill:#3A5B80;}
	.st18{fill:#39454F;}
	.st19{fill:#50518B;stroke:#293339;stroke-width:4;stroke-linecap:round;stroke-miterlimit:10;}
	.st20{fill:#556B7A;}
	.st21{fill:#444D6E;stroke:#7483BF;stroke-width:2;stroke-linecap:round;stroke-miterlimit:10;}
	.st22{fill:#293339;}
	.st23{fill:#B0B7BC;}
	.st24{fill:#72C2A9;}
	.st25{fill:#D85E73;}
	.st26{fill:#7F554A;}
	.st27{fill:#BCA096;}
	.st28{fill:#E5EBF1;}
	.st29{fill:#698D97;}
	.st30{fill:#567A83;}
	.st31{fill:#405A5A;}
	.st32{fill:#394848;}
	.st33{fill:#52BAA8;}
	.st34{fill:#2EB29E;}
	.st35{fill:#EC6364;}
	.st36{fill:#E7474A;}
	.st37{fill:#A9D3D8;}
	.st38{fill:#91BAC4;}
	.st39{fill:#F9B44E;}
	.st40{fill:#79C5B7;}
</style>
<g>
	<g>
		<g>
			<g>
				<path class="st0" d="M59.4,40.1l2.7,12.2c0.2,0.7,0.8,1.2,1.5,1.2h3.3V41.6L59.4,40.1z"/>
			</g>
			<g>
				<path class="st0" d="M98.1,40.1l-2.7,12.2c-0.2,0.7-0.8,1.2-1.5,1.2h-3.3V41.6L98.1,40.1z"/>
			</g>
			<g>
				<path class="st1" d="M62.4,59c3.3-2.1,3-8.5,3-10h26.7c0,1.5-0.4,7.9,2.9,10L78.8,77.2L62.4,59z"/>
			</g>
			<g>
				<path class="st2" d="M89.1,65.3L95,59c-3.3-2.1-2.9-8.5-2.9-10H65.4C67.3,54.5,80,64,89.1,65.3z"/>
			</g>
			<g>
				<path class="st3" d="M99.5,29.7c0,11.9-6.8,26.7-20.8,26.7S58,41.6,58,29.7s9.3-16.3,20.8-16.3S99.5,17.8,99.5,29.7z"/>
			</g>
			<g>
				<path class="st4" d="M112.9,96c2.5,0,4.5-2,4.5-4.5V76.2c0-6.5-5.1-13.5-11.3-15.5l-9.3-3c-5,3.8-12.1,9-18,9
					c-5.9,0-13-5.2-18-9l-9.3,3c-6.2,2-11.3,9-11.3,15.5v15.3c0,2.5,2,4.5,4.5,4.5H112.9z"/>
			</g>
			<g>
				<path class="st5" d="M52,96h53.5V60.6l-8.7-2.8c-5,3.8-12.1,9-18,9c-5.9,0-13-5.2-18-9L52,60.6L52,96L52,96z"/>
			</g>
			<g>
				<path class="st0" d="M68.4,4.4c13-8.9,39.5-1.1,31.2,28.2l-4.5-4.5c0,0-16.6-4-31.2-11.9"/>
			</g>
			<g>
				<path class="st4" d="M78.8,66.8L72.6,73c-0.6,0.6-1.7,0.6-2.3-0.2L59.4,57.9l3.5-3.5c0.6-0.6,1.5-0.6,2-0.1L78.8,66.8z"/>
			</g>
			<g>
				<path class="st4" d="M78.8,66.8l6.2,6.2c0.6,0.6,1.7,0.6,2.3-0.2l10.9-14.9l-3.5-3.5c-0.6-0.6-1.5-0.6-2-0.1L78.8,66.8z"/>
			</g>
			<g>
				<path class="st3" d="M58.7,32.6c-2.2-0.6-3.7,0.6-3.7,3c0,3.1,3,10.7,6.1,5.9S58.7,32.6,58.7,32.6z"/>
			</g>
			<g>
				<path class="st3" d="M98.5,32.6c2.4-0.6,4,0.6,4,3c0,3.1-3.3,10.7-6.7,5.9C92.4,36.8,98.5,32.6,98.5,32.6z"/>
			</g>
			<g>
				<path class="st0" d="M58,32.6c0.5,1.5,1.5,3,1.5,3s8.7-11.1,8.9-19.3c0.2-8.2-1.5-7.4-1.5-7.4l3-1.5c0,0,5.2-2.3-1.5-3
					C59,3.5,50.5,10.2,58,32.6z"/>
			</g>
			<g>
				<g>
					<g>
						<path class="st0" d="M75.4,31.5v1.1c0,3.3-2.7,5.9-5.9,5.9H68c-1.6,0-3-1.3-3-3v-4.1H75.4 M75.4,30H65c-0.8,0-1.5,0.7-1.5,1.5
							v4.1c0,2.5,2,4.5,4.5,4.5h1.5c4.1,0,7.4-3.3,7.4-7.4v-1.1C76.9,30.7,76.2,30,75.4,30L75.4,30z"/>
					</g>
				</g>
				<g>
					<g>
						<path class="st0" d="M92.5,31.5v4.1c0,1.6-1.3,3-3,3H88c-3.3,0-5.9-2.7-5.9-5.9v-1.1H92.5 M92.5,30H82.1
							c-0.8,0-1.5,0.7-1.5,1.5v1.1c0,4.1,3.3,7.4,7.4,7.4h1.5c2.5,0,4.5-2,4.5-4.5v-4.1C93.9,30.7,93.3,30,92.5,30L92.5,30z"/>
					</g>
				</g>
				<g>
					<g>
						<polygon class="st0" points="57.9,30 65,30 65,33.6 57.9,31.9 						"/>
					</g>
				</g>
				<g>
					<g>
						<polygon class="st0" points="99.5,30 92.5,30 92.5,33.6 99.5,31.9 						"/>
					</g>
				</g>
				<g>
					<g>
						<path class="st0" d="M82.1,33.6h-1.5c0-0.6-0.9-1.2-1.9-1.2s-1.9,0.6-1.9,1.2h-1.5c0-1.5,1.5-2.7,3.4-2.7
							C80.6,30.9,82.1,32.1,82.1,33.6z"/>
					</g>
				</g>
			</g>
		</g>
		<g>
			<g>
				<path class="st6" d="M66.2,124.1L44,73h0.9c1,0,1.8-0.8,1.8-1.8v-1.8c0-1-0.8-1.8-1.8-1.8H36v-8.9h-3.6v8.9h-8.9
					c-1,0-1.8,0.8-1.8,1.8v1.8c0,1,0.8,1.8,1.8,1.8h0.9L2.2,124.1c-0.4,0.9,0,2,0.9,2.3c0.9,0.4,2,0,2.3-0.9L28.3,73h4.1v51.8
					c0,1,0.8,1.8,1.8,1.8s1.8-0.8,1.8-1.8V73h4.1l22.8,52.5c0.4,0.9,1.4,1.3,2.3,0.9l0,0C66.2,126,66.6,125,66.2,124.1z"/>
				<polygon class="st6" points="27,46.2 28.8,55.1 39.5,55.1 41.3,46.2 				"/>
			</g>
			<rect x="9.2" y="110.5" class="st7" width="50" height="3.6"/>
			<g>
				<path class="st8" d="M63.8,123.1L63.8,123.1c-0.9,0.4-2,0-2.3-0.9l-4.3-9.8c-0.4-0.9,0-2,0.9-2.3l0,0c0.9-0.4,2,0,2.3,0.9
					l4.3,9.8C65.2,121.7,64.7,122.7,63.8,123.1z"/>
				<path class="st8" d="M4.5,123.1L4.5,123.1c0.9,0.4,2,0,2.3-0.9l4.3-9.8c0.4-0.9,0-2-0.9-2.3l0,0c-0.9-0.4-2,0-2.3,0.9l-4.3,9.8
					C3.2,121.7,3.6,122.7,4.5,123.1z"/>
				<path class="st8" d="M34.2,123L34.2,123c-1,0-1.8-0.8-1.8-1.8v-10.7c0-1,0.8-1.8,1.8-1.8l0,0c1,0,1.8,0.8,1.8,1.8v10.7
					C36,122.2,35.2,123,34.2,123z"/>
				<path class="st8" d="M34.2,78.3L34.2,78.3c-1,0-1.8-0.8-1.8-1.8V65.8c0-1,0.8-1.8,1.8-1.8l0,0c1,0,1.8,0.8,1.8,1.8v10.7
					C36,77.5,35.2,78.3,34.2,78.3z"/>
				<path class="st8" d="M39.5,48H28.8c-1,0-1.8-0.8-1.8-1.8l0,0c0-1,0.8-1.8,1.8-1.8h10.7c1,0,1.8,0.8,1.8,1.8l0,0
					C41.3,47.2,40.5,48,39.5,48z"/>
				<path class="st8" d="M34.2,49.8c-3,0-5.4,2.4-5.4,5.4c0,0.1,0,0.3,0,0.4l-13,5l1.4,3.7l13.3-5.2c1,0.9,2.2,1.4,3.6,1.4
					c3,0,5.4-2.4,5.4-5.4S37.2,49.8,34.2,49.8z"/>
			</g>
			<path class="st6" d="M22,61.3l-0.7-1.8c-0.4-0.9-1.4-1.4-2.3-1l-7.2,2.8c-0.9,0.4-1.4,1.4-1,2.3l0.7,1.8c0.4,0.9,1.4,1.4,2.3,1
				l7.2-2.8C21.9,63.3,22.4,62.2,22,61.3z"/>
			<path class="st9" d="M46.7,44.4h-25c-2,0-3.6-1.6-3.6-3.6V30.1c0-2,1.6-3.6,3.6-3.6h25c2,0,3.6,1.6,3.6,3.6v10.7
				C50.3,42.8,48.7,44.4,46.7,44.4z"/>
			<path class="st10" d="M46.7,26.6h-25c-2,0-3.6,1.6-3.6,3.6h32.1C50.3,28.2,48.7,26.6,46.7,26.6z"/>
			<g>
				<path class="st6" d="M25.3,42.6L25.3,42.6c-1,0-1.8-0.8-1.8-1.8v-7.1c0-1,0.8-1.8,1.8-1.8l0,0c1,0,1.8,0.8,1.8,1.8v7.1
					C27,41.8,26.3,42.6,25.3,42.6z"/>
				<path class="st6" d="M42.8,30.5l-1.2-6c-0.2-0.8-0.9-1.4-1.8-1.4h-4.4c-0.9,0-1.6,0.6-1.8,1.5l-1,6c-1.3,1.3-2,3-2,5
					c0,3.9,3.2,7.1,7.1,7.1s7.1-3.2,7.1-7.1C44.9,33.5,44.1,31.7,42.8,30.5z"/>
			</g>
			<circle class="st8" cx="37.8" cy="35.5" r="5.4"/>
			<circle class="st6" cx="37.8" cy="35.5" r="1.8"/>
			<circle class="st11" cx="39.5" cy="33.7" r="1.8"/>
			<g>
				<path class="st8" d="M47,79.8L44,73h-3.9l3.6,8.3c0.4,0.9,1.4,1.3,2.3,0.9l0,0C47,81.8,47.4,80.7,47,79.8z"/>
				<path class="st8" d="M24.4,73l-3,6.8c-0.4,0.9,0,2,0.9,2.3c0.9,0.4,2,0,2.3-0.9l3.6-8.3L24.4,73L24.4,73z"/>
			</g>
		</g>
	</g>
	<g>
		<g>
			<g>
				<path class="st1" d="M176,61.3c3.4-2.2,3-8.7,3-10.2h27.4c0,1.5-0.4,8,3,10.2L192.7,80L176,61.3z"/>
			</g>
			<g>
				<path class="st2" d="M203.4,67.8l6-6.5c-3.4-2.2-3-8.7-3-10.2h-27.4C181,56.7,194,66.4,203.4,67.8z"/>
			</g>
			<g>
				<path class="st3" d="M214,31.3c0,12.2-7,27.4-21.3,27.4c-14.3,0-21.3-15.2-21.3-27.4s9.5-16.7,21.3-16.7
					C204.5,14.6,214,19.2,214,31.3z"/>
			</g>
			<g>
				<path class="st12" d="M227.7,98.2c2.5,0,4.6-2,4.6-4.6V79c0-6.7-5.2-13.8-11.6-15.9l-9.5-3c-5.1,3.9-12.4,9.2-18.4,9.2
					s-13.3-5.3-18.4-9.2l-9.5,3c-6.4,2-11.6,9.2-11.6,15.9v14.7c0,2.5,2,4.6,4.6,4.6H227.7z"/>
			</g>
			<g>
				<path class="st0" d="M183.6,5.5c-1.4,0-1.6,0-3,0c-5.9,0-10.6,4.8-10.6,10.7c0,5.5,1.5,15.1,1.5,15.1s1.7-7.7,9.1-10.6
					C185.1,18.9,183.6,5.5,183.6,5.5z"/>
			</g>
			<g>
				<path class="st0" d="M182.1,5.6C188.2-3.8,203.9,4,214,4c1.5,2.2,2.6,18.7,0,27.4l-4.6-7.6c0,0-13.9,5.1-28.9-3"/>
			</g>
			<g>
				<path class="st3" d="M172.2,34.4c-2.3-0.6-3.8,0.6-3.8,3c0,3.2,3.1,10.9,6.3,6.1C177.9,38.7,172.2,34.4,172.2,34.4z"/>
			</g>
			<g>
				<path class="st3" d="M212.9,34.4c2.5-0.6,4.1,0.6,4.1,3c0,3.2-3.3,10.9-6.9,6.1S212.9,34.4,212.9,34.4z"/>
			</g>
			<g>
				<path class="st13" d="M195.8,74c0,0.8-0.7,1.5-1.5,1.5h-3c-0.8,0-1.5-0.7-1.5-1.5v-3c0-0.8,0.7-1.5,1.5-1.5h3
					c0.8,0,1.5,0.7,1.5,1.5V74z"/>
			</g>
			<g>
				<polygon class="st13" points="194.8,74.6 192.7,75.5 190.6,74.6 189.7,98.1 195.8,98.1 				"/>
			</g>
			<g>
				<path class="st14" d="M192.7,69.3l-6.3,6.3c-0.7,0.7-1.8,0.6-2.3-0.2L173,60.2l3.5-3.5c0.6-0.6,1.5-0.6,2.1-0.1L192.7,69.3z"/>
			</g>
			<g>
				<path class="st14" d="M192.7,69.3l6.3,6.3c0.7,0.7,1.8,0.6,2.3-0.2l11.1-15.3l-3.5-3.5c-0.6-0.6-1.5-0.6-2.1-0.1L192.7,69.3z"/>
			</g>
			<g>
				<path class="st15" d="M220.7,63.1l-8.3-2.7h0l-19.7,24.3l-19.7-24.3h0l-8.3,2.7c-6.4,2-11.6,9.2-11.6,15.9v14.7
					c0,2.3,1.8,4.2,4,4.5h35.4h0.1h35.4c2.3-0.3,4-2.2,4-4.5V79C232.3,72.3,227.1,65.2,220.7,63.1z"/>
			</g>
			<g>
				<g>
					<polygon class="st16" points="203.9,98.2 205.4,98.2 205.4,69.2 203.9,71 					"/>
				</g>
				<g>
					<polygon class="st16" points="194.4,98.2 195.9,98.2 195.9,80.9 194.4,82.7 					"/>
				</g>
				<g>
					<polygon class="st16" points="199.1,98.2 200.6,98.2 200.6,75 199.1,76.9 					"/>
				</g>
				<g>
					<polygon class="st16" points="213.4,98.2 214.9,98.2 214.9,61.3 213.4,60.8 					"/>
				</g>
				<g>
					<polygon class="st16" points="189.6,98.2 191.1,98.2 191.1,82.7 189.6,80.9 					"/>
				</g>
				<g>
					<path class="st16" d="M222.9,64v34.1h1.5V64.9C223.9,64.6,223.4,64.3,222.9,64z"/>
				</g>
				<g>
					<polygon class="st16" points="218.1,62.3 218.1,98.2 219.6,98.2 219.6,62.8 					"/>
				</g>
				<g>
					<polygon class="st16" points="208.6,65.2 208.6,98.2 210.1,98.2 210.1,63.3 					"/>
				</g>
				<g>
					<polygon class="st16" points="165.9,98.2 167.4,98.2 167.4,62.3 165.9,62.8 					"/>
				</g>
				<g>
					<polygon class="st16" points="184.9,98.2 186.4,98.2 186.4,76.9 184.9,75 					"/>
				</g>
				<g>
					<path class="st16" d="M156.4,69.7V98c0.3,0.1,0.6,0.2,0.9,0.2h0.7V67.8C157.4,68.4,156.8,69,156.4,69.7z"/>
				</g>
				<g>
					<path class="st16" d="M227.6,98.2h0.7c0.3,0,0.6-0.1,0.9-0.2V69.7c-0.5-0.7-1-1.3-1.5-1.9L227.6,98.2L227.6,98.2z"/>
				</g>
				<g>
					<path class="st16" d="M161.1,64.9v33.2h1.5V64C162.1,64.3,161.6,64.6,161.1,64.9z"/>
				</g>
				<g>
					<polygon class="st16" points="180.1,98.2 181.6,98.2 181.6,71 180.1,69.2 					"/>
				</g>
				<g>
					<polygon class="st16" points="175.4,98.2 176.9,98.2 176.9,65.2 175.4,63.3 					"/>
				</g>
				<g>
					<polygon class="st16" points="170.6,61.3 170.6,98.2 172.1,98.2 172.1,60.8 					"/>
				</g>
			</g>
			<g>
				<path class="st17" d="M166.7,69.6l5.3,0.7v3.9c0,0.5,0.2,1,0.6,1.2l20,14.3l0-5L173,60.2l-7.6,2.8v5.1
					C165.4,68.8,165.9,69.5,166.7,69.6z"/>
			</g>
			<g>
				<path class="st17" d="M218.8,69.6l-5.3,0.7v3.9c0,0.5-0.2,1-0.6,1.2l-20,14.3l0-5l19.8-24.5l7.6,2.8v5.1
					C220.1,68.8,219.5,69.5,218.8,69.6z"/>
			</g>
			<g>
				<polygon class="st17" points="192.7,86.5 190.6,86.4 192,98.2 192.7,98.2 193.4,98.2 194.8,86.4 				"/>
			</g>
		</g>
		<g>
			<polygon class="st18" points="218.1,69.5 206.6,69.5 206.6,66.8 185.2,66.8 185.2,69.5 173.7,69.5 173.7,98 185.2,98 
				185.2,101.5 206.6,101.5 206.6,98 218.1,98 			"/>
			<circle class="st19" cx="195.9" cy="84.6" r="14.2"/>
			<g>
				<path class="st20" d="M178.1,84.6c0-5.2,2.2-9.9,5.8-13.1c0.8-0.7,0.3-2-0.8-2h-9.5c-1,0-1.7,0.8-1.7,1.7v25
					c0,1,0.8,1.7,1.7,1.7h7.8c1,0,1.5-1.2,0.9-1.9C179.7,93,178.1,89,178.1,84.6z"/>
				<path class="st20" d="M208.7,69.5c-1.1,0-1.6,1.3-0.8,2c3.6,3.2,5.8,7.9,5.8,13.1c0,4.4-1.6,8.3-4.2,11.4
					c-0.6,0.8-0.1,1.9,0.9,1.9h7.8c1,0,1.7-0.8,1.7-1.7v-25c0-1-0.8-1.7-1.7-1.7H208.7z"/>
			</g>
			<circle class="st21" cx="195.9" cy="84.6" r="7.1"/>
			<rect x="174.5" y="65.1" class="st22" width="7.1" height="4.4"/>
			<path class="st23" d="M206.6,98c-0.5,0-0.9,0.4-0.9,0.9v2.7h-19.6v-2.7c0-0.5-0.4-0.9-0.9-0.9c-0.5,0-0.9,0.4-0.9,0.9v3.6
				c0,0.5,0.4,0.9,0.9,0.9h21.3c0.5,0,0.9-0.4,0.9-0.9v-3.6C207.4,98.4,207,98,206.6,98z"/>
			<circle class="st18" cx="195.9" cy="57.1" r="6.2"/>
			<path class="st20" d="M195.9,63.3c-0.6,0-1.2-0.1-1.8-0.3v3.8h3.6V63C197.1,63.2,196.5,63.3,195.9,63.3z"/>
			<circle class="st20" cx="195.9" cy="57.1" r="2.7"/>
			<path class="st23" d="M206.6,65.1h-21.3c-0.5,0-0.9,0.4-0.9,0.9v2.7c0,0.5,0.4,0.9,0.9,0.9c0.5,0,0.9-0.4,0.9-0.9v-1.8h19.6v1.8
				c0,0.5,0.4,0.9,0.9,0.9s0.9-0.4,0.9-0.9v-2.7C207.4,65.5,207,65.1,206.6,65.1z"/>
			<rect x="211" y="66.8" class="st22" width="6.2" height="2.7"/>
			<circle class="st24" cx="195.9" cy="82.8" r="2.7"/>
			<circle class="st25" cx="195.9" cy="92.6" r="1.8"/>
		</g>
		<path class="st3" d="M167.6,97.7l-6.8,1.1c-3.6,0.6-7-1.8-7.6-5.4l0,0c-0.6-3.6,1.8-7,5.4-7.6l6.8-1.1c3.6-0.6,7,1.8,7.6,5.4v0
			C173.7,93.7,171.2,97.1,167.6,97.7z"/>
		<path class="st3" d="M224.4,98.9l-5.5-1c-3.5-0.6-5.8-3.9-5.2-7.4v0c0.6-3.5,3.9-5.8,7.4-5.2l5.5,1c3.5,0.6,5.8,3.9,5.2,7.4v0
			C231.2,97.2,227.9,99.5,224.4,98.9z"/>
	</g>
	<g>
		<g>
			<path class="st26" d="M114.5,10.1l8.9,59.4l-11.6,19.6C93.5,62.4,88.7,10.1,114.5,10.1z"/>
		</g>
		<g>
			<path class="st26" d="M117.9,10.1c6-5.1,21.2-8,34.1-1.9c17.7,8.4,17.7,46.1,1.8,77.3c0,0-12.6-9-12.6-9L117.9,10.1z"/>
		</g>
		<g>
			<path class="st0" d="M124.2,23.9c0,0-13.7,4.2-16.1,19c-0.6,3.4-5.3-11.7-5.3-11.7s2.7-12,3.3-12.3c0.6-0.3,12.7-5.2,12.7-5.2
				l3.6,3.1L124.2,23.9z"/>
		</g>
		<g>
			<g>
				<path class="st26" d="M117.3,9l9.5,64.7l-18.1-20.9C101.3,43.8,90,9,117.3,9z"/>
			</g>
			<g>
				<path class="st26" d="M112,10.9c4.3-8.2,26.4-11.2,38.9-3.2c17.5,11.2,15.8,31.2,7.6,46.5c0,0-19.2,13.5-19.2,13.5L112,10.9z"/>
			</g>
			<g>
				<path class="st1" d="M146.8,72.1h-0.1v-4.4h-26.6v4.4c0,4.3,0,9.1-3.8,11.9v42.5h17.1c0,0,8.9,0,17.1,0V84
					C146.8,81.1,146.8,76.4,146.8,72.1z"/>
			</g>
			<g>
				<path class="st27" d="M161.8,86.7h-0.6c-7.2,0-10.8-1.9-12.6-4.7l-15.2,9l-15.2-9c-1.8,2.7-5.4,4.7-12.6,4.7h-0.6
					C93.4,86.7,84,96,84,107.6v13.3c0,3.1,2.5,5.7,5.7,5.7H122h6.7h9.4h10.5H177c3.1,0,5.7-2.5,5.7-5.7v-13.3
					C182.7,96,173.4,86.7,161.8,86.7z"/>
			</g>
			<g>
				<path class="st2" d="M146.7,90.6c0.7,0.2-0.6-1.9,0-1.9l3.8-4.7c-3.7-2.9-3.7-7.5-3.7-11.8h-0.1v-4.4h-20.9l-5.7,1.9
					C123.9,73.9,133.6,87,146.7,90.6z"/>
			</g>
			<g>
				<path class="st3" d="M159.9,43c0,15.2-15.1,34.2-26.6,34.2s-26.6-19-26.6-34.2s11.9-20.9,26.6-20.9S159.9,27.8,159.9,43z"/>
			</g>
			<g>
				<path class="st26" d="M124,25.5c0,0-14.4,4.4-17,20.1c-0.6,3.6-5.6-12.4-5.6-12.4s2.8-12.6,3.5-13c0.6-0.3,13.4-5.5,13.4-5.5
					l3.8,3.3L124,25.5z"/>
			</g>
			<g>
				<path class="st28" d="M133.4,91.1L118.2,81l-4.5,4.5l10.1,14.5c1.2,1.6,3,0.9,3.8,0L133.4,91.1z"/>
			</g>
			<g>
				<path class="st28" d="M133.4,91.1L148.6,81l4.5,4.5L142.9,100c-1.2,1.6-3,0.9-3.8,0L133.4,91.1z"/>
			</g>
			<g>
				<path class="st3" d="M158.4,45.3c2.8-0.7,4.7,0.8,4.7,3.8c0,4-3.8,13.6-7.8,7.6S158.4,45.3,158.4,45.3z"/>
			</g>
			<g>
				<circle class="st28" cx="133.4" cy="111.9" r="1.9"/>
			</g>
			<g>
				<circle class="st28" cx="133.4" cy="102.8" r="1.9"/>
			</g>
			<g>
				<circle class="st28" cx="133.4" cy="121.1" r="1.9"/>
			</g>
			<g>
				<path class="st26" d="M129.7,12.7c1.1,0,4.5,1.2,7.4,2.2l0.2-0.4c0,0,0.4,0.3,1.1,0.8c1.6,0.6,2.7,1.1,2.7,1.1l-0.4,0.7
					c7.2,5.7,21.2,8.9,21.2,19.8c0,12.7-8.8,22.1-8.8,22.1c6-23.2-7.2-27.7-21.3-30.3c-5.4-1-8.9-3.4-9.6-6.6
					C121.5,19,127.8,12.7,129.7,12.7z"/>
			</g>
			<g>
				<path class="st3" d="M108.4,45.3c-2.6-1.3-4.7,0.8-4.7,3.8c0,4,3.8,13.6,7.8,7.6S111.1,46.6,108.4,45.3z"/>
			</g>
		</g>
		<g>
			<circle id="XMLID_1223_" class="st29" cx="133.8" cy="149.2" r="4.6"/>
			<path id="XMLID_866_" class="st30" d="M138.4,149.2c0,2.5-2,4.6-4.6,4.6c-0.5,0-1-0.1-1.4-0.2c1.8-0.6,3.2-2.3,3.2-4.3
				c0-2-1.3-3.7-3.2-4.3c0.4-0.1,0.9-0.2,1.4-0.2C136.3,144.6,138.4,146.7,138.4,149.2z"/>
			<circle id="XMLID_1220_" class="st31" cx="133.8" cy="142.1" r="4.6"/>
			<path id="XMLID_868_" class="st32" d="M138.4,142.1c0,2.5-2,4.6-4.6,4.6c-0.5,0-1-0.1-1.4-0.2c1.8-0.6,3.2-2.3,3.2-4.3
				c0-2-1.3-3.7-3.2-4.3c0.4-0.1,0.9-0.2,1.4-0.2C136.3,137.5,138.4,139.6,138.4,142.1z"/>
			<circle id="XMLID_1217_" class="st29" cx="133.8" cy="135" r="4.6"/>
			<path id="XMLID_870_" class="st30" d="M138.4,135c0,2.5-2,4.6-4.6,4.6c-0.5,0-1-0.1-1.4-0.2c1.8-0.6,3.2-2.3,3.2-4.3
				c0-2-1.3-3.7-3.2-4.3c0.4-0.1,0.9-0.2,1.4-0.2C136.3,130.5,138.4,132.5,138.4,135z"/>
			<circle id="XMLID_1214_" class="st31" cx="133.8" cy="127.9" r="4.6"/>
			<path id="XMLID_872_" class="st32" d="M138.4,127.9c0,2.5-2,4.6-4.6,4.6c-0.5,0-1-0.1-1.4-0.2c1.8-0.6,3.2-2.3,3.2-4.3
				c0-2-1.3-3.7-3.2-4.3c0.4-0.1,0.9-0.2,1.4-0.2C136.3,123.4,138.4,125.4,138.4,127.9z"/>
			<circle id="XMLID_1210_" class="st29" cx="145.8" cy="127.9" r="4.6"/>
			<path id="XMLID_1209_" class="st30" d="M149.9,126c-1-2.3-3.7-3.3-6-2.3c-0.5,0.2-0.9,0.5-1.2,0.8c1.9-0.2,3.8,0.8,4.6,2.7
				c0.8,1.9,0.3,4-1.1,5.3c0.5,0,0.9-0.2,1.4-0.4C149.9,131,151,128.3,149.9,126z"/>
			<circle id="XMLID_1207_" class="st31" cx="148.6" cy="134.3" r="4.6"/>
			<path id="XMLID_1206_" class="st32" d="M152.8,132.5c-1-2.3-3.7-3.3-6-2.3c-0.5,0.2-0.9,0.5-1.2,0.8c1.9-0.2,3.8,0.8,4.6,2.7
				c0.8,1.9,0.3,4-1.1,5.3c0.5,0,0.9-0.2,1.4-0.4C152.8,137.5,153.8,134.8,152.8,132.5L152.8,132.5z"/>
			<circle id="XMLID_1204_" class="st29" cx="151.5" cy="140.8" r="4.6"/>
			<path id="XMLID_1203_" class="st30" d="M155.7,138.9c-1-2.3-3.7-3.3-6-2.3c-0.5,0.2-0.9,0.5-1.2,0.8c1.9-0.2,3.8,0.8,4.6,2.7
				c0.8,1.9,0.3,4-1.1,5.3c0.5,0,0.9-0.2,1.4-0.4C155.7,144,156.7,141.2,155.7,138.9L155.7,138.9z"/>
			<circle id="XMLID_1201_" class="st31" cx="154.4" cy="147.3" r="4.6"/>
			<path id="XMLID_1200_" class="st32" d="M158.6,145.4c-1-2.3-3.7-3.3-6-2.3c-0.5,0.2-0.9,0.5-1.2,0.8c1.9-0.2,3.8,0.8,4.6,2.7
				c0.8,1.9,0.3,4-1.1,5.3c0.5,0,0.9-0.2,1.4-0.4C158.6,150.4,159.6,147.7,158.6,145.4L158.6,145.4z"/>
			<circle id="XMLID_1197_" class="st29" cx="121.7" cy="127.6" r="4.6"/>
			<path id="XMLID_1196_" class="st30" d="M125.9,129.3c0.9-2.4-0.3-5-2.6-5.9c-0.5-0.2-0.9-0.3-1.4-0.3c1.5,1.2,2.1,3.3,1.4,5.2
				c-0.7,1.9-2.6,3-4.5,2.9c0.4,0.3,0.8,0.5,1.2,0.7C122.4,132.8,125,131.6,125.9,129.3L125.9,129.3z"/>
			<circle id="XMLID_1194_" class="st31" cx="119.1" cy="134.3" r="4.6"/>
			<path id="XMLID_1193_" class="st32" d="M123.4,135.9c0.9-2.4-0.3-5-2.6-5.9c-0.5-0.2-0.9-0.3-1.4-0.3c1.5,1.2,2.1,3.3,1.4,5.2
				c-0.7,1.9-2.6,3-4.5,2.9c0.4,0.3,0.8,0.5,1.2,0.7C119.9,139.4,122.5,138.3,123.4,135.9L123.4,135.9z"/>
			<circle id="XMLID_1191_" class="st29" cx="116.6" cy="140.9" r="4.6"/>
			<path id="XMLID_1190_" class="st30" d="M120.9,142.5c0.9-2.4-0.3-5-2.6-5.9c-0.5-0.2-0.9-0.3-1.4-0.3c1.5,1.2,2.1,3.3,1.4,5.2
				c-0.7,1.9-2.6,3-4.5,2.9c0.4,0.3,0.8,0.5,1.2,0.7C117.3,146,120,144.9,120.9,142.5z"/>
			<circle id="XMLID_1188_" class="st31" cx="114.1" cy="147.5" r="4.6"/>
			<path id="XMLID_1187_" class="st32" d="M118.3,149.1c0.9-2.4-0.3-5-2.6-5.9c-0.5-0.2-0.9-0.3-1.4-0.3c1.5,1.2,2.1,3.3,1.4,5.2
				c-0.7,1.9-2.6,3-4.5,2.9c0.4,0.3,0.8,0.5,1.2,0.7C114.8,152.7,117.4,151.5,118.3,149.1z"/>
			<path id="XMLID_884_" class="st33" d="M154.4,118.9v5.6c0,0.8-0.6,1.4-1.4,1.4h-37.6c-0.8,0-1.4-0.6-1.4-1.4v-5.6H154.4z"/>
			<path id="XMLID_885_" class="st34" d="M154.4,118.9v4.6h-4.9c-0.8,0.9-1.7,1.7-2.6,2.4h-19.5c-1-0.7-1.8-1.5-2.6-2.4h-6.2
				c-2.4,0-4.3-1.8-4.5-4.2v-0.4H154.4z"/>
			<path id="XMLID_886_" class="st34" d="M154.4,118.9v5.6c0,0.8-0.6,1.4-1.4,1.4h-2.9c0.8,0,1.4-0.6,1.4-1.4v-5.6H154.4z"/>
			<path id="XMLID_1179_" class="st35" d="M120.9,94.5H115v-4.1c0-0.7,0.6-1.3,1.3-1.3h3.3c0.7,0,1.3,0.6,1.3,1.3L120.9,94.5z"/>
			<path id="XMLID_888_" class="st36" d="M120.9,90.4v4.1H119v-4.1c0-0.7-0.6-1.3-1.3-1.3h1.9C120.3,89.1,120.9,89.7,120.9,90.4z"/>
			<path id="XMLID_889_" class="st30" d="M119.3,92.4v29.1h-6.5c-1.4,0-2.6-1.1-2.6-2.6v-24c0-1.4,1.1-2.6,2.6-2.6H119.3z"/>
			<path id="XMLID_890_" class="st31" d="M119.3,92.4v29.1h-2.8c-1.4,0-2.6-1.1-2.6-2.6v-24c0-1.4,1.1-2.6,2.6-2.6H119.3z"/>
			<path id="XMLID_891_" class="st37" d="M158.2,94.9v24c0,1.4-1.1,2.6-2.6,2.6h-37c-1.4,0-2.6-1.1-2.6-2.6v-24
				c0-1.4,1.1-2.6,2.6-2.6h7.7l1.2-3.9c0.2-0.5,0.7-0.9,1.2-0.9h16.8c0.6,0,1,0.4,1.2,0.9l1.2,3.9h7.7
				C157,92.4,158.2,93.5,158.2,94.9L158.2,94.9z"/>
			<path id="XMLID_892_" class="st38" d="M158.2,94.9v24c0,1.4-1.1,2.6-2.6,2.6h-2.3c1.4,0,2.6-1.1,2.6-2.6v-24
				c0-1.4-1.1-2.6-2.6-2.6h2.3C157,92.4,158.2,93.5,158.2,94.9z"/>
			<path id="XMLID_893_" class="st38" d="M153.4,113c0,3.1-0.9,6-2.5,8.5h-27.5c-1.6-2.5-2.5-5.4-2.5-8.5c0-8.8,7.3-16,16.3-16
				C146.1,97,153.4,104.2,153.4,113z"/>
			<g>
				<path id="XMLID_895_" class="st39" d="M136.6,93.7l-0.8-2.2c-0.1-0.3-0.3-0.4-0.6-0.4h-4.5c-0.3,0-0.5,0.2-0.6,0.4l-0.8,2.2
					c-0.1,0.4,0.2,0.9,0.6,0.9h6C136.4,94.6,136.8,94.1,136.6,93.7z"/>
				<path id="XMLID_1171_" class="st39" d="M144.8,93.7l-0.8-2.2c-0.1-0.3-0.3-0.4-0.6-0.4h-3.4c-0.4,0-0.7,0.4-0.6,0.9l0.8,2.2
					c0.1,0.3,0.3,0.4,0.6,0.4h3.4C144.7,94.6,145,94.1,144.8,93.7z"/>
				<path id="XMLID_897_" class="st39" d="M154.1,97.7h-4.4c-0.6,0-1-0.4-1-1s0.4-1,1-1h4.4c0.6,0,1,0.4,1,1
					C155.1,97.2,154.6,97.7,154.1,97.7z"/>
				<path id="XMLID_898_" class="st39" d="M154.1,100.8h-4.4c-0.6,0-1-0.4-1-1s0.4-1,1-1h4.4c0.6,0,1,0.4,1,1
					C155.1,100.3,154.6,100.8,154.1,100.8z"/>
			</g>
			<ellipse id="XMLID_1166_" class="st29" cx="137.1" cy="113" rx="14.4" ry="14.1"/>
			<path id="XMLID_900_" class="st30" d="M151.5,113c0,7.8-6.4,14.1-14.4,14.1c-0.5,0-1.1,0-1.6-0.1c7.2-0.8,12.8-6.7,12.8-14
				c0-7.2-5.6-13.2-12.8-14c0.5-0.1,1-0.1,1.6-0.1C145,98.9,151.5,105.2,151.5,113z"/>
			<circle id="XMLID_1164_" class="st34" cx="137.1" cy="113" r="7.7"/>
			<circle id="XMLID_1163_" class="st40" cx="137.1" cy="113" r="3.9"/>
			<circle id="XMLID_1160_" class="st35" cx="122.7" cy="97.9" r="2.1"/>
			<path id="XMLID_903_" class="st36" d="M124.7,97.9c0,1.1-0.9,2.1-2.1,2.1c-0.3,0-0.5-0.1-0.8-0.2c0.8-0.3,1.3-1.1,1.3-1.9
				c0-0.9-0.5-1.6-1.3-1.9c0.2-0.1,0.5-0.2,0.8-0.2C123.8,95.8,124.7,96.7,124.7,97.9z"/>
			<path id="XMLID_904_" class="st38" d="M120.6,104.1c-0.6,0-1-0.4-1-1s0.4-1,1-1c0.6,0,1,0.4,1,1v0
				C121.6,103.6,121.1,104.1,120.6,104.1z"/>
			<path id="XMLID_905_" class="st38" d="M120.6,106.8c-0.6,0-1-0.4-1-1c0-0.6,0.4-1,1-1c0.6,0,1,0.4,1,1v0
				C121.6,106.4,121.1,106.8,120.6,106.8z"/>
		</g>
	</g>
</g>
</svg>
