<svg xmlns="http://www.w3.org/2000/svg" viewBox="0 0 108.62 91.77"><defs><style>.cls-1{fill:#b2b2b2;}.cls-2{fill:#aa6455;}.cls-3{fill:#b4d8f1;}.cls-4{fill:#db5f03;}.cls-5{fill:#c7cfe2;}.cls-6{fill:#f70;}.cls-7{fill:#eff2fa;}.cls-8{fill:#88888f;}.cls-9{fill:#d1e5f5;}.cls-10{fill:#5b5b5b;isolation:isolate;}</style></defs><title>shop</title><g id="Calque_2" data-name="Calque 2"><g id="BODY"><g id="_4" data-name="4"><path class="cls-1" d="M104.88,89.89H3.75v-88A1.87,1.87,0,0,1,5.62,0H103a1.87,1.87,0,0,1,1.87,1.87Z"/><path class="cls-2" d="M104.88,29.8A4.88,4.88,0,0,1,98.75,25a4.94,4.94,0,0,1-9.87,0A4.94,4.94,0,0,1,79,25a4.94,4.94,0,0,1-9.87,0,4.94,4.94,0,0,1-9.87,0,4.94,4.94,0,0,1-9.87,0,4.94,4.94,0,0,1-9.87,0,4.94,4.94,0,0,1-9.87,0,4.94,4.94,0,0,1-9.87,0,4.94,4.94,0,0,1-9.87,0A4.94,4.94,0,0,1,4.94,30a4.91,4.91,0,0,1-1.19-.16v3.79a8.59,8.59,0,0,0,1.19.12,8.63,8.63,0,0,0,4.94-1.54,8.67,8.67,0,0,0,9.88,0,8.67,8.67,0,0,0,9.87,0,8.67,8.67,0,0,0,9.87,0,8.67,8.67,0,0,0,9.87,0,8.67,8.67,0,0,0,9.87,0,8.67,8.67,0,0,0,9.87,0,8.67,8.67,0,0,0,9.87,0,8.67,8.67,0,0,0,9.87,0,8.67,8.67,0,0,0,9.87,0,8,8,0,0,0,6.13,1.42V29.8h0Z"/><rect class="cls-3" x="13.11" y="37.46" width="52.44" height="33.71"/><path class="cls-4" d="M44.44,30h0A4.94,4.94,0,0,1,39.5,25V20.6h9.87V25A4.94,4.94,0,0,1,44.44,30Z"/><path class="cls-4" d="M64.19,30h0A4.94,4.94,0,0,1,59.25,25V20.6h9.87V25A4.94,4.94,0,0,1,64.19,30Z"/><path class="cls-4" d="M24.69,30h0A4.94,4.94,0,0,1,19.75,25V20.6h9.87V25A4.94,4.94,0,0,1,24.69,30Z"/><path class="cls-4" d="M4.94,30h0A4.94,4.94,0,0,1,0,25V20.6H9.87V25A4.94,4.94,0,0,1,4.94,30Z"/><path class="cls-4" d="M83.94,30h0A4.94,4.94,0,0,1,79,25V20.6h9.87V25A4.94,4.94,0,0,1,83.94,30Z"/><path class="cls-5" d="M34.56,30h0A4.94,4.94,0,0,1,29.62,25V20.6H39.5V25A4.94,4.94,0,0,1,34.56,30Z"/><path class="cls-5" d="M74.06,30h0A4.94,4.94,0,0,1,69.12,25V20.6H79V25A4.94,4.94,0,0,1,74.06,30Z"/><path class="cls-4" d="M103.69,30h0A4.94,4.94,0,0,1,98.75,25V20.6h9.87V25A4.94,4.94,0,0,1,103.69,30Z"/><path class="cls-5" d="M93.81,30h0A4.94,4.94,0,0,1,88.87,25V20.6h9.87V25A4.94,4.94,0,0,1,93.81,30Z"/><path class="cls-5" d="M14.81,30h0A4.94,4.94,0,0,1,9.87,25V20.6h9.87V25A4.94,4.94,0,0,1,14.81,30Z"/><path class="cls-5" d="M54.31,30h0A4.94,4.94,0,0,1,49.37,25V20.6h9.87V25A4.94,4.94,0,0,1,54.31,30Z"/><polygon class="cls-6" points="49.37 20.6 39.5 20.6 40.52 5.62 49.72 5.62 49.37 20.6"/><polygon class="cls-6" points="69.12 20.6 59.25 20.6 58.91 5.62 68.1 5.62 69.12 20.6"/><polygon class="cls-6" points="29.62 20.6 19.75 20.6 22.13 5.62 31.33 5.62 29.62 20.6"/><polygon class="cls-6" points="9.88 20.6 0 20.6 3.75 5.62 12.94 5.62 9.88 20.6"/><polygon class="cls-6" points="88.87 20.6 79 20.6 77.3 5.62 86.49 5.62 88.87 20.6"/><polygon class="cls-7" points="39.5 20.6 29.62 20.6 31.33 5.62 40.52 5.62 39.5 20.6"/><polygon class="cls-7" points="79 20.6 69.12 20.6 68.1 5.62 77.3 5.62 79 20.6"/><polygon class="cls-6" points="108.62 20.6 98.75 20.6 95.68 5.62 104.88 5.62 108.62 20.6"/><polygon class="cls-7" points="98.75 20.6 88.87 20.6 86.49 5.62 95.68 5.62 98.75 20.6"/><polygon class="cls-7" points="19.75 20.6 9.88 20.6 12.94 5.62 22.13 5.62 19.75 20.6"/><polygon class="cls-7" points="59.25 20.6 49.37 20.6 49.72 5.62 58.91 5.62 59.25 20.6"/><path class="cls-8" d="M106.75,91.77H1.87A1.87,1.87,0,0,1,0,89.89H0A1.87,1.87,0,0,1,1.87,88H106.75a1.87,1.87,0,0,1,1.87,1.87h0A1.87,1.87,0,0,1,106.75,91.77Z"/><rect class="cls-1" x="3.75" y="84.28" width="101.13" height="3.75"/><rect class="cls-8" x="3.75" y="76.79" width="101.13" height="7.49"/><rect class="cls-3" x="74.06" y="43.07" width="19.58" height="44.95"/><polygon class="cls-9" points="65.55 37.46 13.11 71.17 13.11 37.46 65.55 37.46"/><polygon class="cls-9" points="93.64 43.08 74.06 81.98 74.06 43.08 93.64 43.08"/></g><g id="_1" data-name="1"><rect class="cls-10" x="12.35" y="64.49" width="53.94" height="6.68"/></g></g></g></svg>