<?xml version="1.0" encoding="utf-8"?>
<!-- Generator: Adobe Illustrator 25.1.0, SVG Export Plug-In . SVG Version: 6.00 Build 0)  -->
<svg version="1.1" id="Calque_1" xmlns="http://www.w3.org/2000/svg" xmlns:xlink="http://www.w3.org/1999/xlink" x="0px" y="0px"
	 viewBox="0 0 91.2 62.6" style="enable-background:new 0 0 91.2 62.6;" xml:space="preserve">
<style type="text/css">
	.st0{fill:url(#Tracé_3027_1_);}
	.st1{fill:url(#SVGID_1_);}
</style>
<linearGradient id="Tracé_3027_1_" gradientUnits="userSpaceOnUse" x1="45.6" y1="-4.998623e-02" x2="45.6" y2="62.65">
	<stop  offset="0" style="stop-color:#FFFFFF"/>
	<stop  offset="1" style="stop-color:#8EF7F8"/>
</linearGradient>
<path id="Tracé_3027" class="st0" d="M20,22.8c11,0,19.9,8.9,19.9,19.9s-8.9,20-19.9,20S0.1,53.8,0.1,42.8l0,0L0,39.9
	C0,17.9,17.8,0,39.9,0l0,0v11.4c-7.6,0-14.8,3-20.1,8.3c-1,1-2,2.1-2.8,3.3C17.9,22.9,19,22.8,20,22.8z M71.3,22.8
	c11,0,19.9,8.9,19.9,19.9s-8.9,19.9-19.9,19.9s-20-8.8-20-19.8L51.2,40C51.2,18,69,0.1,91.1,0.1v11.4c-7.6,0-14.8,3-20.1,8.3
	c-1,1-2,2.1-2.8,3.3C69.2,22.9,70.2,22.8,71.3,22.8z"/>
<linearGradient id="SVGID_1_" gradientUnits="userSpaceOnUse" x1="-154.8723" y1="81.9777" x2="-77.2553" y2="81.9777">
	<stop  offset="0" style="stop-color:#FFFFFF"/>
	<stop  offset="1" style="stop-color:#8EF7F8"/>
</linearGradient>
<rect x="-154.9" y="56.1" class="st1" width="77.6" height="51.7"/>
</svg>
