<svg xmlns="http://www.w3.org/2000/svg" viewBox="0 0 32.73 32.73"><defs><style>.cls-1{fill:#fff;stroke:#f70;stroke-miterlimit:10;stroke-width:0.73px;}.cls-2{fill:#f70;}</style></defs><title>refresh</title><g id="Calque_2" data-name="Calque 2"><g id="BODY"><g id="_6" data-name="6"><circle class="cls-1" cx="16.36" cy="16.36" r="16"/><path class="cls-2" d="M10.5,10.1a8.27,8.27,0,0,1,10.76-.28l-2.46.09a.57.57,0,0,0,0,1.14h0l3.78-.14a.57.57,0,0,0,.55-.57v-.06h0L23,6.54a.57.57,0,0,0-1.14,0L22,8.92a9.41,9.41,0,0,0-12.24.33,9.41,9.41,0,0,0-2.83,9.2.57.57,0,0,0,.56.44l.14,0A.57.57,0,0,0,8,18.18,8.27,8.27,0,0,1,10.5,10.1Z"/><path class="cls-2" d="M25.35,14.27a.57.57,0,1,0-1.11.27,8.27,8.27,0,0,1-13.31,8.31l2.49-.22a.57.57,0,0,0-.11-1.14l-3.77.34a.57.57,0,0,0-.52.62l.34,3.77a.57.57,0,0,0,.57.52H10a.57.57,0,0,0,.52-.62l-.2-2.29a9.35,9.35,0,0,0,5.44,2.07h.48a9.41,9.41,0,0,0,9.13-11.63Z"/></g></g></g></svg>