<?xml version="1.0" encoding="UTF-8" standalone="no"?>
<!-- Created with Inkscape (http://www.inkscape.org/) -->

<svg
   xmlns:dc="http://purl.org/dc/elements/1.1/"
   xmlns:cc="http://creativecommons.org/ns#"
   xmlns:rdf="http://www.w3.org/1999/02/22-rdf-syntax-ns#"
   xmlns:svg="http://www.w3.org/2000/svg"
   xmlns="http://www.w3.org/2000/svg"
   xmlns:sodipodi="http://sodipodi.sourceforge.net/DTD/sodipodi-0.dtd"
   xmlns:inkscape="http://www.inkscape.org/namespaces/inkscape"
   version="1.1"
   id="svg3718"
   xml:space="preserve"
   width="1494.3679"
   height="660.99237"
   viewBox="0 0 1494.3679 660.99236"
   sodipodi:docname="s3v.svg"
   inkscape:version="0.92.2 5c3e80d, 2017-08-06"><metadata
     id="metadata3724"><rdf:RDF><cc:Work
         rdf:about=""><dc:format>image/svg+xml</dc:format><dc:type
           rdf:resource="http://purl.org/dc/dcmitype/StillImage" /><dc:title></dc:title></cc:Work></rdf:RDF></metadata><defs
     id="defs3722"><clipPath
       clipPathUnits="userSpaceOnUse"
       id="clipPath3734"><path
         d="M 0,841.89 H 1190.551 V 0 H 0 Z"
         id="path3732"
         inkscape:connector-curvature="0" /></clipPath></defs><sodipodi:namedview
     pagecolor="#ffffff"
     bordercolor="#666666"
     borderopacity="1"
     objecttolerance="10"
     gridtolerance="10"
     guidetolerance="10"
     inkscape:pageopacity="0"
     inkscape:pageshadow="2"
     inkscape:window-width="1989"
     inkscape:window-height="1089"
     id="namedview3720"
     showgrid="false"
     inkscape:zoom="0.76536251"
     inkscape:cx="483.94472"
     inkscape:cy="361.51254"
     inkscape:window-x="137"
     inkscape:window-y="87"
     inkscape:window-maximized="0"
     inkscape:current-layer="g3726" /><g
     id="g3726"
     inkscape:groupmode="layer"
     inkscape:label="s3v"
     transform="matrix(1.3333333,0,0,-1.3333333,-68.02242,966.30035)"><g
       id="g3728"><g
         id="g3730"
         clip-path="url(#clipPath3734)"><g
           id="g3736"
           transform="translate(53.002,383.0303)"><path
             d="m 0,0 c 1.462,3.633 5.121,6.172 9.349,6.172 5.564,0 10.075,-4.424 10.075,-9.877 0,-4.762 -3.439,-8.734 -8.018,-9.67 0,0 -0.447,-4.236 10.437,-4.236 10.887,0 13.707,7.658 13.707,12.09 0,4.437 -7.658,12.097 -7.658,12.097 L 10.959,20.279 c 0,0 -8.063,1.621 -8.063,16.939 0,15.318 19.352,22.572 28.621,22.572 9.276,0 20.965,-4.033 20.965,-16.123 0,-12.097 -10.479,-10.884 -10.479,-10.884 0,0 -14.111,-2.021 -5.243,16.525 0,0 -2.53,1.327 -5.156,1.327 -2.625,0 -12.195,-3.091 -12.195,-10.188 0,0 -0.313,-2.626 2.778,-6.025 3.091,-3.397 25.326,-21.463 25.326,-21.463 0,0 5.557,-5.09 5.557,-13.275 0,-8.182 -5.873,-26.713 -32.12,-26.713 0,0 -30.936,2.183 -20.95,27.029"
             style="fill:#444141;fill-opacity:1;fill-rule:nonzero;stroke:none"
             id="path3738"
             inkscape:connector-curvature="0" /></g><g
           id="g3740"
           transform="translate(126.1406,383.9502)"><path
             d="m 0,0 c 0,-9.426 3.091,-17.607 10.04,-17.607 6.949,0 15.909,10.189 15.909,26.56 0,16.361 -9.578,15.748 -9.578,15.748 C 5.876,24.701 0,9.418 0,0 m 13.592,36.435 c 0,0 21.157,-0.301 21.157,-27.017 0,-26.713 -19.768,-38.293 -30.887,-38.293 -11.117,0 -22.237,8.482 -22.237,27.479 0,18.996 15.139,37.831 31.967,37.831"
             style="fill:#444141;fill-opacity:1;fill-rule:nonzero;stroke:none"
             id="path3742"
             inkscape:connector-curvature="0" /></g><g
           id="g3744"
           transform="translate(711.9219,383.9502)"><path
             d="m 0,0 c 0,-9.426 3.08,-17.607 10.023,-17.607 6.95,0 15.907,10.189 15.907,26.56 0,16.361 -9.571,15.748 -9.571,15.748 C 5.861,24.701 0,9.418 0,0 m 13.588,36.435 c 0,0 21.148,-0.301 21.148,-27.017 0,-26.713 -19.769,-38.293 -30.886,-38.293 -11.12,0 -22.231,8.482 -22.231,27.479 0,18.996 15.129,37.831 31.969,37.831"
             style="fill:#444141;fill-opacity:1;fill-rule:nonzero;stroke:none"
             id="path3746"
             inkscape:connector-curvature="0" /></g><g
           id="g3748"
           transform="translate(204.5254,388.4268)"><path
             d="m 0,0 c 0,0 10.727,0 10.727,12.91 0,12.912 -8.941,18.473 -19.668,18.473 -10.73,0 -33.573,-11.322 -33.573,-37.344 0,-26.029 21.85,-26.814 24.636,-26.814 2.778,0 17.482,-0.809 24.431,17.675 L 0,-12.711 c 0,0 -3.377,-11.326 -13.112,-11.326 -9.734,0 -10.329,8.346 -10.329,14.699 0,6.361 2.579,31.986 16.683,31.986 0,0 3.778,0.389 7.155,-3.183 0,0 -9.139,-2.58 -9.139,-11.127 C -8.742,-0.203 0,0 0,0"
             style="fill:#444141;fill-opacity:1;fill-rule:nonzero;stroke:none"
             id="path3750"
             inkscape:connector-curvature="0" /></g><g
           id="g3752"
           transform="translate(220.2207,417.4326)"><path
             d="M 0,0 H 16.485 L 9.929,-45.891 c 0,0 -1.587,-4.767 2.786,-4.767 4.366,0 4.167,3.574 4.564,8.338 h 5.171 c 0,0 0.393,-20.061 -16.489,-20.061 -16.89,0 -12.12,18.672 -12.12,18.672 z"
             style="fill:#444141;fill-opacity:1;fill-rule:nonzero;stroke:none"
             id="path3754"
             inkscape:connector-curvature="0" /></g><g
           id="g3756"
           transform="translate(232.3408,441.2681)"><path
             d="m 0,0 c 0,0 6.556,-0.993 6.556,-7.351 0,-6.358 -4.175,-9.929 -9.338,-9.929 -5.167,0 -7.75,5.361 -7.75,7.747 C -10.532,-7.148 -7.552,0 0,0"
             style="fill:#444141;fill-opacity:1;fill-rule:nonzero;stroke:none"
             id="path3758"
             inkscape:connector-curvature="0" /></g><g
           id="g3760"
           transform="translate(754.123,417.4326)"><path
             d="M 0,0 H 16.488 L 9.93,-45.891 c 0,0 -1.58,-4.767 2.781,-4.767 4.373,0 4.172,3.574 4.576,8.338 h 5.16 c 0,0 0.395,-20.061 -16.482,-20.061 -16.887,0 -12.125,18.672 -12.125,18.672 z"
             style="fill:#444141;fill-opacity:1;fill-rule:nonzero;stroke:none"
             id="path3762"
             inkscape:connector-curvature="0" /></g><g
           id="g3764"
           transform="translate(766.2422,441.2681)"><path
             d="m 0,0 c 0,0 6.561,-0.993 6.561,-7.351 0,-6.358 -4.174,-9.929 -9.334,-9.929 -5.172,0 -7.754,5.361 -7.754,7.747 C -10.527,-7.148 -7.555,0 0,0"
             style="fill:#444141;fill-opacity:1;fill-rule:nonzero;stroke:none"
             id="path3766"
             inkscape:connector-curvature="0" /></g><g
           id="g3768"
           transform="translate(262.7358,430.1479)"><path
             d="m 0,0 0.793,-3.183 23.244,5.365 c 0,0 6.953,0.992 6.953,6.755 0,5.761 -6.755,5.563 -10.136,3.576 C 17.481,10.523 0,0 0,0"
             style="fill:#444141;fill-opacity:1;fill-rule:nonzero;stroke:none"
             id="path3770"
             inkscape:connector-curvature="0" /></g><g
           id="g3772"
           transform="translate(276.042,412.2607)"><path
             d="M 0,0 C -10.922,0 -13.505,-21.053 -13.505,-21.053 -1.389,-23.834 10.929,0 0,0 m -5.159,-48.07 c 10.921,0 13.905,13.111 13.905,13.111 l 6.953,-1.789 c 0,0 -2.389,-20.264 -25.033,-20.264 -22.648,0 -24.235,23.241 -24.235,23.241 v 4.773 c 3.575,45.293 52.84,43.901 52.84,21.852 0,-22.049 -33.971,-20.661 -33.971,-20.661 0,-9.738 -1.389,-20.263 9.541,-20.263"
             style="fill:#444141;fill-opacity:1;fill-rule:nonzero;stroke:none"
             id="path3774"
             inkscape:connector-curvature="0" /></g><g
           id="g3776"
           transform="translate(354.7134,430.1479)"><path
             d="m 0,0 0.797,-3.183 23.244,5.365 c 0,0 6.953,0.992 6.953,6.755 0,5.761 -6.754,5.563 -10.136,3.576 C 17.485,10.523 0,0 0,0"
             style="fill:#444141;fill-opacity:1;fill-rule:nonzero;stroke:none"
             id="path3778"
             inkscape:connector-curvature="0" /></g><g
           id="g3780"
           transform="translate(368.0278,412.2607)"><path
             d="M 0,0 C -10.926,0 -13.505,-21.053 -13.505,-21.053 -1.393,-23.834 10.925,0 0,0 m -5.167,-48.07 c 10.925,0 13.906,13.111 13.906,13.111 l 6.956,-1.789 c 0,0 -2.384,-20.264 -25.033,-20.264 -22.648,0 -24.236,23.241 -24.236,23.241 v 4.773 c 3.575,45.293 52.841,43.901 52.841,21.852 0,-22.049 -33.971,-20.661 -33.971,-20.661 0,-9.738 -1.389,-20.263 9.537,-20.263"
             style="fill:#444141;fill-opacity:1;fill-rule:nonzero;stroke:none"
             id="path3782"
             inkscape:connector-curvature="0" /></g><g
           id="g3784"
           transform="translate(1049.7402,430.1479)"><path
             d="m 0,0 0.801,-3.183 23.248,5.365 c 0,0 6.949,0.992 6.949,6.755 0,5.761 -6.754,5.563 -10.135,3.576 C 17.488,10.523 0,0 0,0"
             style="fill:#444141;fill-opacity:1;fill-rule:nonzero;stroke:none"
             id="path3786"
             inkscape:connector-curvature="0" /></g><g
           id="g3788"
           transform="translate(1063.0625,412.2607)"><path
             d="M 0,0 C -10.934,0 -13.514,-21.053 -13.514,-21.053 -1.4,-23.834 10.922,0 0,0 m -5.176,-48.07 c 10.93,0 13.918,13.111 13.918,13.111 l 6.949,-1.789 c 0,0 -2.384,-20.264 -25.037,-20.264 -22.636,0 -24.236,23.241 -24.236,23.241 v 4.773 c 3.584,45.293 52.846,43.901 52.846,21.852 0,-22.049 -33.975,-20.661 -33.975,-20.661 0,-9.738 -1.389,-20.263 9.535,-20.263"
             style="fill:#444141;fill-opacity:1;fill-rule:nonzero;stroke:none"
             id="path3790"
             inkscape:connector-curvature="0" /></g><g
           id="g3792"
           transform="translate(1115.1094,412.2607)"><path
             d="M 0,0 C -10.926,0 -13.506,-21.053 -13.506,-21.053 -1.385,-23.834 10.92,0 0,0 m -5.164,-48.07 c 10.934,0 13.906,13.111 13.906,13.111 l 6.946,-1.789 c 0,0 -2.377,-20.264 -25.026,-20.264 -22.641,0 -24.236,23.241 -24.236,23.241 v 4.773 c 3.572,45.293 52.845,43.901 52.845,21.852 0,-22.049 -33.97,-20.661 -33.97,-20.661 0,-9.738 -1.391,-20.263 9.535,-20.263"
             style="fill:#444141;fill-opacity:1;fill-rule:nonzero;stroke:none"
             id="path3794"
             inkscape:connector-curvature="0" /></g><g
           id="g3796"
           transform="translate(513.6133,412.2607)"><path
             d="M 0,0 C -10.929,0 -13.509,-21.053 -13.509,-21.053 -1.389,-23.834 10.925,0 0,0 m -5.167,-48.07 c 10.922,0 13.906,13.111 13.906,13.111 l 6.952,-1.789 c 0,0 -2.38,-20.264 -25.032,-20.264 -22.645,0 -24.232,23.241 -24.232,23.241 v 4.773 c 3.575,45.293 52.844,43.901 52.844,21.852 0,-22.049 -33.978,-20.661 -33.978,-20.661 0,-9.738 -1.389,-20.263 9.54,-20.263"
             style="fill:#444141;fill-opacity:1;fill-rule:nonzero;stroke:none"
             id="path3798"
             inkscape:connector-curvature="0" /></g><g
           id="g3800"
           transform="translate(296.7056,417.4326)"><path
             d="m 0,0 h 12.517 l 1.988,13.707 H 30.792 L 29.403,0.199 H 45.297 L 44.106,-8.742 H 28.014 l -5.366,-37.951 c 0,0 -1.587,-4.366 2.382,-4.366 3.976,0 4.369,2.381 4.968,8.539 h 5.167 c 0,0 0.595,-19.861 -17.283,-19.861 -17.882,0 -10.727,21.652 -10.727,21.652 l 4.37,32.188 H -1.393 Z"
             style="fill:#444141;fill-opacity:1;fill-rule:nonzero;stroke:none"
             id="path3802"
             inkscape:connector-curvature="0" /></g><g
           id="g3804"
           transform="translate(457.8232,392.8408)"><path
             d="m 0,0 c 0,0 0.473,15.99 -6.96,15.99 -7.442,0 -13.769,-13.615 -13.769,-27.23 0,-13.606 4.747,-15.035 7.593,-15.035 2.847,0 10.919,3.486 13.136,26.275 m 23.426,48.117 -9.658,-67.906 c 0,0 -2.213,-6.486 2.374,-6.486 4.594,0 3.964,4.281 3.964,4.281 l 0.63,4.426 5.38,-0.787 c -0.312,-10.448 -5.697,-19.317 -16.618,-19.317 -10.918,0 -12.818,9.186 -12.818,9.186 -7.442,-9.342 -15.039,-9.186 -16.783,-9.186 -1.74,0 -19.149,-0.156 -19.149,25.805 0,25.957 18.042,39.409 27.701,39.409 9.651,0 14.401,-8.544 14.401,-8.544 l 4.114,29.119 z"
             style="fill:#444141;fill-opacity:1;fill-rule:nonzero;stroke:none"
             id="path3806"
             inkscape:connector-curvature="0" /></g><g
           id="g3808"
           transform="translate(545.5078,389.7861)"><path
             d="m 0,0 -11.44,-15.734 c 0,0 3.144,-10.006 12.585,-10.006 9.433,0 10.864,9.15 -1.145,25.74 m -4.579,8.01 c 0,0 -2.572,3.148 -2.572,8.295 0,5.148 5.43,15.44 16.302,15.44 10.868,0 11.154,-14.005 4.289,-18.302 0,0 12.586,-17.158 12.586,-28.605 0,-11.434 -9.724,-19.447 -22.595,-19.447 -12.871,0 -15.734,2.871 -22.599,12.875 l -2.858,4.863 z"
             style="fill:#444141;fill-opacity:1;fill-rule:nonzero;stroke:none"
             id="path3810"
             inkscape:connector-curvature="0" /></g><g
           id="g3812"
           transform="translate(795.6758,389.7861)"><path
             d="m 0,0 -11.441,-15.734 c 0,0 3.146,-10.006 12.578,-10.006 9.441,0 10.877,9.15 -1.137,25.74 m -4.582,8.01 c 0,0 -2.57,3.148 -2.57,8.295 0,5.148 5.435,15.44 16.295,15.44 10.877,0 11.162,-14.005 4.302,-18.302 0,0 12.584,-17.158 12.584,-28.605 0,-11.434 -9.726,-19.447 -22.597,-19.447 -12.877,0 -15.731,2.871 -22.592,12.875 l -2.869,4.863 z"
             style="fill:#444141;fill-opacity:1;fill-rule:nonzero;stroke:none"
             id="path3814"
             inkscape:connector-curvature="0" /></g><g
           id="g3816"
           transform="translate(1145.7598,389.7861)"><path
             d="m 0,0 -11.441,-15.734 c 0,0 3.152,-10.006 12.593,-10.006 9.438,0 10.875,9.15 -1.152,25.74 m -4.576,8.01 c 0,0 -2.572,3.148 -2.572,8.295 0,5.148 5.439,15.44 16.298,15.44 10.875,0 11.163,-14.005 4.297,-18.302 0,0 12.586,-17.158 12.586,-28.605 0,-11.434 -9.722,-19.447 -22.592,-19.447 -12.871,0 -15.736,2.871 -22.601,12.875 l -2.856,4.863 z"
             style="fill:#444141;fill-opacity:1;fill-rule:nonzero;stroke:none"
             id="path3818"
             inkscape:connector-curvature="0" /></g><g
           id="g3820"
           transform="translate(602.7109,423.2788)"><path
             d="m 0,0 h 8.887 l 1.431,9.464 H 24.074 L 14.905,-57.317 H 8.604 l -0.866,-8.891 h 28.944 l 0.574,9.166 H 31.527 L 40.701,9.746 H 54.744 L 53.6,0 h 8.306 L 64.49,17.771 H 2.869 Z"
             style="fill:#444141;fill-opacity:1;fill-rule:nonzero;stroke:none"
             id="path3822"
             inkscape:connector-curvature="0" /></g><g
           id="g3824"
           transform="translate(644.8389,398.3486)"><path
             d="m 0,0 h 5.167 c 0,0 -0.575,9.17 5.449,9.17 0,0 2.572,-0.58 1.706,-5.736 -0.85,-5.155 -6.296,-44.422 -6.296,-44.422 h 17.191 l 4.302,36.683 7.738,9.459 c 0,0 2.293,-4.869 8.883,-4.869 6.586,0 11.754,4.588 11.754,12.319 0,7.748 -6.311,9.75 -9.174,9.75 -2.862,0 -10.319,-3.155 -16.622,-13.475 0,0 -1.436,11.473 -12.896,11.473 C 5.728,20.352 0,8.59 0,0"
             style="fill:#444141;fill-opacity:1;fill-rule:nonzero;stroke:none"
             id="path3826"
             inkscape:connector-curvature="0" /></g><g
           id="g3828"
           transform="translate(854.9844,441.1001)"><path
             d="m 0,0 v -8.13 h 4.873 l 16.574,-75.082 h 10.074 l 37.065,74.755 h 5.846 L 76.383,0 H 53.955 l -0.324,-8.777 h 3.576 L 33.15,-57.859 23.08,-8.782 h 4.545 l 1.309,9.102 z"
             style="fill:#444141;fill-opacity:1;fill-rule:nonzero;stroke:none"
             id="path3830"
             inkscape:connector-curvature="0" /></g><g
           id="g3832"
           transform="translate(926.5898,384.083)"><path
             d="m 0,0 c 0,-10.443 2.537,-17.777 7.902,-17.777 5.362,0 12.983,11.57 12.983,27.093 0,15.524 -7.338,15.524 -7.338,15.524 C 5.93,24.84 0,10.449 0,0 m 23.709,27.945 c 0,0 1.412,8.182 9.602,8.182 8.175,0 6.759,-8.182 6.759,-8.182 l -5.634,-41.488 c 0,0 -1.42,-3.67 3.105,-3.67 4.516,0 3.098,2.26 3.656,3.949 0.576,1.696 0.576,4.518 0.576,4.518 h 8.178 c 0,0 -5.08,-20.324 -20.32,-20.324 0,0 -9.029,-0.838 -11.852,9.881 0,0 -5.927,-9.594 -17.213,-9.594 -11.291,0 -18.91,11.853 -18.91,26.806 0,14.963 18.625,55.314 42.053,29.922"
             style="fill:#444141;fill-opacity:1;fill-rule:nonzero;stroke:none"
             id="path3834"
             inkscape:connector-curvature="0" /></g><g
           id="g3836"
           transform="translate(981.9063,441.0913)"><path
             d="M 0,0 H 16.658 L 6.773,-69.139 c 0,0 -1.412,-5.361 2.817,-5.361 4.236,0 4.236,8.181 4.236,8.181 h 5.365 c 0,0 1.694,-19.473 -16.65,-19.473 -18.34,0 -12.131,20.038 -12.131,20.038 z"
             style="fill:#444141;fill-opacity:1;fill-rule:nonzero;stroke:none"
             id="path3838"
             inkscape:connector-curvature="0" /></g><g
           id="g3840"
           transform="translate(1013.5137,441.0913)"><path
             d="M 0,0 H 16.658 L 6.785,-69.139 c 0,0 -1.42,-5.361 2.82,-5.361 4.229,0 4.229,8.181 4.229,8.181 h 5.365 c 0,0 1.688,-19.473 -16.652,-19.473 -18.352,0 -12.141,20.038 -12.141,20.038 z"
             style="fill:#444141;fill-opacity:1;fill-rule:nonzero;stroke:none"
             id="path3842"
             inkscape:connector-curvature="0" /></g><g
           id="g3844"
           transform="translate(257.6108,701.1392)"><path
             d="m 0,0 c 0,0 -7.678,5.125 1.022,13.833 8.708,8.709 39.443,19.97 60.446,-8.2 21,-28.17 74.78,-102.438 74.78,-102.438 l 76.32,105.513 c 0,0 9.224,14.856 31.246,14.856 22.026,0 30.734,-13.321 30.734,-13.321 L 352.915,-97.316 426.67,5.633 c 0,0 11.266,17.931 33.811,17.931 22.533,0 32.775,-16.394 32.775,-16.394 l 76.325,-103.975 77.857,108.07 c 0,0 10.756,12.299 30.729,12.299 19.976,0 35.849,-11.783 27.146,-23.564 -8.711,-11.783 -108.076,-140.346 -108.076,-140.346 0,0 -6.141,-12.803 -27.153,-12.803 -20.994,0 -26.117,8.705 -30.73,13.834 -4.602,5.121 -78.873,101.929 -78.873,101.929 l -75.806,-98.858 c 0,0 -8.196,-16.905 -30.733,-16.905 -22.542,0 -30.228,12.295 -33.807,17.417 -3.587,5.117 -75.809,98.854 -75.809,98.854 l -77.345,-100.903 c 0,0 -8.707,-15.368 -28.169,-15.368 -19.465,0 -26.636,4.098 -36.367,18.443 C 92.714,-120.369 0,0 0,0"
             style="fill:#7b7979;fill-opacity:1;fill-rule:nonzero;stroke:none"
             id="path3846"
             inkscape:connector-curvature="0" /></g><g
           id="g3848"
           transform="translate(128.8652,468.728)"><path
             d="M 0,0 C 0,0 212.034,50.341 486.613,50.341 761.199,50.341 962.549,0 962.549,0 962.549,0 750.523,28.986 485.098,28.986 219.666,28.986 0,0 0,0"
             style="fill:#7b7979;fill-opacity:1;fill-rule:nonzero;stroke:none"
             id="path3850"
             inkscape:connector-curvature="0" /></g><g
           id="g3852"
           transform="translate(112.002,288.8916)"><path
             d="m 0,0 c -6.773,0 -12.734,-8.752 -13.986,-17.957 -1.473,-10.606 1.763,-17.596 9.643,-17.596 2.653,0 5.594,1.397 5.594,1.397 l 1.397,-3.248 c -2.576,-1.754 -7.288,-3.014 -10.597,-3.014 -11.563,0 -17.011,10.605 -15.386,22.461 1.694,11.853 10.601,22.377 21.645,22.377 6.548,0 11.184,-3.309 10.379,-9.059 -0.443,-3.015 -3.24,-5.517 -6.258,-5.517 -3.023,0 -5.083,2.502 -4.637,5.517 0.222,1.846 1.47,3.549 3.087,4.496 C 0.362,-0.064 0,0 0,0"
             style="fill:#918f90;fill-opacity:1;fill-rule:nonzero;stroke:none"
             id="path3854"
             inkscape:connector-curvature="0" /></g><g
           id="g3856"
           transform="translate(129.9673,253.4834)"><path
             d="M 0,0 C 3.751,0 7.507,5.002 8.392,11.27 9.201,17.516 6.919,22.604 3.24,22.604 -0.515,22.604 -4.273,17.516 -5.155,11.27 -5.964,5.002 -3.754,0 0,0 M 12.513,11.27 C 11.262,2.057 4.561,-5.521 -3.021,-5.521 c -7.656,0 -12.735,7.578 -11.411,16.791 1.248,9.273 8.468,16.855 16.123,16.855 7.586,0 12.15,-7.582 10.822,-16.855"
             style="fill:#918f90;fill-opacity:1;fill-rule:nonzero;stroke:none"
             id="path3858"
             inkscape:connector-curvature="0" /></g><g
           id="g3860"
           transform="translate(164.499,254.0029)"><path
             d="m 0,0 c -1.839,-2.588 -4.785,-6.041 -9.273,-6.041 -4.572,0 -7.655,3.68 -7.067,8.25 l 2.435,17.158 c 0.144,0.953 -0.524,1.754 -1.55,1.754 -0.962,0 -1.916,-0.801 -2.065,-1.754 l -0.438,-2.734 h -2.652 l 0.442,2.734 c 0.588,4.037 4.339,7.348 8.392,7.348 4.045,0 6.922,-3.311 6.331,-7.348 L -7.8,2.641 c -0.221,-1.461 0.805,-2.577 2.206,-2.577 1.397,0 2.801,1.038 5.304,4.565 L 1.698,7.357 4.35,26.209 h 8.461 L 9.281,1.324 c -0.076,-0.953 0.587,-1.763 1.618,-1.763 0.881,0 1.912,0.81 1.992,1.763 l 0.439,2.793 h 2.648 L 15.539,1.324 c -0.519,-4.053 -4.342,-7.365 -8.395,-7.365 -3.9,0 -6.847,3.168 -6.407,6.998 z"
             style="fill:#918f90;fill-opacity:1;fill-rule:nonzero;stroke:none"
             id="path3862"
             inkscape:connector-curvature="0" /></g><g
           id="g3864"
           transform="translate(209.6924,276.1611)"><path
             d="m 0,0 c -0.443,-3.021 -3.316,-5.525 -6.262,-5.525 -2.053,0 -3.682,1.107 -4.339,2.734 -0.591,-0.588 -1.179,-1.404 -1.912,-2.436 l -2.213,-2.877 -2.572,-18.996 h -8.464 l 3.381,24.309 c 0.149,0.953 -0.519,1.754 -1.55,1.754 -0.954,0 -1.915,-0.801 -2.06,-1.754 l -0.439,-2.734 h -2.648 l 0.439,2.734 c 0.587,4.037 4.343,7.348 8.391,7.348 3.755,0 6.479,-2.869 6.408,-6.471 l 0.953,1.328 c 2.58,3.533 5.16,6.033 8.102,6.033 C -1.767,5.447 0.37,2.947 0,0"
             style="fill:#918f90;fill-opacity:1;fill-rule:nonzero;stroke:none"
             id="path3866"
             inkscape:connector-curvature="0" /></g><g
           id="g3868"
           transform="translate(225.2886,277.1924)"><path
             d="m 0,0 c -5.365,0 -7.434,-6.193 -8.243,-12.439 -0.885,-6.184 -0.587,-12.372 4.785,-12.372 3.091,0 5.893,2.801 7.144,6.188 l 3.309,-0.953 c -2.061,-5.602 -6.408,-9.36 -12.879,-9.36 -8.693,0 -13.547,7.803 -12.295,16.497 1.175,8.753 8.242,16.558 16.931,16.558 7.728,0 11.04,-5.455 10.308,-10.744 -0.367,-2.736 -2.947,-5.23 -5.671,-5.23 -2.725,0 -4.637,2.216 -4.27,4.929 0.443,2.576 2.575,4.49 5.01,4.858 C 3.61,-1.105 1.84,0 0,0"
             style="fill:#918f90;fill-opacity:1;fill-rule:nonzero;stroke:none"
             id="path3870"
             inkscape:connector-curvature="0" /></g><g
           id="g3872"
           transform="translate(247.8486,275.5752)"><path
             d="m 0,0 c 1.92,2.576 4.717,6.033 9.285,6.033 4.491,0 7.727,-3.679 7.063,-8.238 l -2.572,-18.043 c -0.076,-0.953 0.588,-1.764 1.618,-1.764 0.954,0 1.912,0.811 2.061,1.764 l 0.366,2.793 h 2.653 l -0.439,-2.793 c -0.519,-4.053 -4.343,-7.365 -8.395,-7.365 -4.046,0 -6.847,3.312 -6.331,7.365 l 2.576,17.596 c 0.144,1.4 -0.813,2.568 -2.206,2.568 -1.477,0 -2.801,-1.092 -5.381,-4.557 l -2.133,-2.877 -2.652,-18.996 h -8.533 l 6.106,43.442 H 1.549 L -0.946,-1.328 Z"
             style="fill:#918f90;fill-opacity:1;fill-rule:nonzero;stroke:none"
             id="path3874"
             inkscape:connector-curvature="0" /></g><g
           id="g3876"
           transform="translate(288.7876,273.874)"><path
             d="m 0,0 c 0.297,2.434 -0.366,3.83 -1.916,3.83 -4.121,0 -6.552,-6.769 -7.139,-11.113 6.04,0 8.689,4.635 9.055,7.283 m -9.495,-10.602 c -1.251,-8.537 1.397,-10.89 5.007,-10.89 3.679,0 6.625,4.043 7.358,6.922 l 3.464,-0.735 c -1.255,-4.566 -5.227,-10.312 -13.256,-10.312 -8.686,0 -13.543,7.803 -12.296,16.496 1.176,8.83 8.327,16.855 17.6,16.855 8.17,0 10.376,-5.004 9.868,-8.765 -0.672,-5.153 -7.071,-9.571 -17.745,-9.571"
             style="fill:#918f90;fill-opacity:1;fill-rule:nonzero;stroke:none"
             id="path3878"
             inkscape:connector-curvature="0" /></g><g
           id="g3880"
           transform="translate(308.2954,247.9619)"><path
             d="m 0,0 c -5.812,0 -7.502,5.152 -7.067,7.953 l 2.43,17.455 c 0.145,0.953 -0.515,1.754 -1.545,1.754 -0.958,0 -1.916,-0.801 -2.061,-1.754 l -0.443,-2.734 h -2.655 l 0.442,2.734 c 0.591,4.037 4.346,7.348 8.396,7.348 4.052,0 6.921,-3.311 6.334,-7.348 L 1.694,10.158 c -0.221,-1.476 0.221,-3.16 2.061,-3.16 5.007,0 9.494,9.129 10.455,15.834 -0.438,0 -0.885,-0.158 -1.327,-0.158 -3.015,0 -5.08,2.504 -4.71,5.525 0.44,2.947 3.244,5.447 6.255,5.447 2.95,0 5.671,-2.355 4.865,-7.876 C 17.378,12.01 8.983,0 0,0"
             style="fill:#918f90;fill-opacity:1;fill-rule:nonzero;stroke:none"
             id="path3882"
             inkscape:connector-curvature="0" /></g><g
           id="g3884"
           transform="translate(346.0664,273.874)"><path
             d="m 0,0 c 0.29,2.434 -0.37,3.83 -1.916,3.83 -4.121,0 -6.556,-6.769 -7.144,-11.113 6.038,0 8.69,4.635 9.06,7.283 m -9.498,-10.602 c -1.256,-8.537 1.4,-10.89 5.01,-10.89 3.675,0 6.617,4.043 7.354,6.922 l 3.465,-0.735 c -1.256,-4.566 -5.232,-10.312 -13.254,-10.312 -8.684,0 -13.546,7.803 -12.294,16.496 1.175,8.83 8.322,16.855 17.595,16.855 8.178,0 10.384,-5.004 9.865,-8.765 -0.664,-5.153 -7.068,-9.571 -17.741,-9.571"
             style="fill:#918f90;fill-opacity:1;fill-rule:nonzero;stroke:none"
             id="path3886"
             inkscape:connector-curvature="0" /></g><g
           id="g3888"
           transform="translate(361.0332,247.9619)"><path
             d="m 0,0 c -4.049,0 -6.842,3.313 -6.328,7.365 l 5.225,37.176 H 7.365 L 2.137,7.365 C 1.988,6.412 2.724,5.602 3.762,5.602 c 0.878,0 1.908,0.81 1.977,1.763 l 0.447,2.793 H 8.833 L 8.395,7.365 C 7.879,3.313 4.052,0 0,0"
             style="fill:#918f90;fill-opacity:1;fill-rule:nonzero;stroke:none"
             id="path3890"
             inkscape:connector-curvature="0" /></g><path
           d="m 400.254,228.981 h -2.908 v 83.373 h 2.908 z"
           style="fill:#918f90;fill-opacity:1;fill-rule:nonzero;stroke:none"
           id="path3892"
           inkscape:connector-curvature="0" /><g
           id="g3894"
           transform="translate(472.4004,253.4189)"><path
             d="M 0,0 H 3.529 L 2.938,-4.357 H -12.075 L -11.486,0 h 2.499 V 26.721 L -21.649,-4.357 h -7.212 L -32.612,26.721 -40.786,0 h 3.167 l -0.587,-4.357 H -49.547 L -48.892,0 h 3.172 l 10.529,34.74 h -3.977 l 0.587,4.344 h 13.028 l 4.351,-28.643 12.215,28.643 H 4.564 L 3.972,34.74 H 0 Z"
             style="fill:#918f90;fill-opacity:1;fill-rule:nonzero;stroke:none"
             id="path3896"
             inkscape:connector-curvature="0" /></g><g
           id="g3898"
           transform="translate(489.1826,287.0498)"><path
             d="m 0,0 11.044,6.338 c 0.664,0.375 2.061,0.732 2.58,0.732 1.465,0 2.575,-1.25 2.358,-2.793 C 15.756,2.51 14.28,1.842 13.624,1.621 L 0.294,-1.76 Z m 8.69,-13.176 c 0.289,2.434 -0.367,3.83 -1.912,3.83 -4.126,0 -6.556,-6.769 -7.144,-11.113 6.037,0 8.689,4.635 9.056,7.283 m -9.499,-10.601 c -1.252,-8.537 1.397,-10.891 5.007,-10.891 3.687,0 6.624,4.043 7.361,6.922 l 3.462,-0.734 c -1.252,-4.567 -5.229,-10.313 -13.25,-10.313 -8.689,0 -13.547,7.803 -12.295,16.496 1.175,8.83 8.315,16.856 17.592,16.856 8.174,0 10.383,-5.004 9.868,-8.766 -0.664,-5.152 -7.067,-9.57 -17.745,-9.57"
             style="fill:#918f90;fill-opacity:1;fill-rule:nonzero;stroke:none"
             id="path3900"
             inkscape:connector-curvature="0" /></g><g
           id="g3902"
           transform="translate(535.1201,276.1611)"><path
             d="m 0,0 c -0.435,-3.021 -3.312,-5.525 -6.254,-5.525 -2.06,0 -3.683,1.107 -4.347,2.734 -0.587,-0.588 -1.175,-1.404 -1.908,-2.436 l -2.209,-2.877 -2.58,-18.996 h -8.467 l 3.388,24.309 c 0.141,0.953 -0.515,1.754 -1.545,1.754 -0.958,0 -1.92,-0.801 -2.065,-1.754 l -0.443,-2.734 h -2.648 l 0.443,2.734 c 0.588,4.037 4.343,7.348 8.395,7.348 3.755,0 6.476,-2.869 6.404,-6.471 l 0.954,1.328 c 2.575,3.533 5.155,6.033 8.101,6.033 C -1.763,5.447 0.371,2.947 0,0"
             style="fill:#918f90;fill-opacity:1;fill-rule:nonzero;stroke:none"
             id="path3904"
             inkscape:connector-curvature="0" /></g><g
           id="g3906"
           transform="translate(545.7979,288.3057)"><path
             d="m 0,0 c -0.294,-2.283 -2.503,-4.197 -4.785,-4.197 -2.351,0 -3.977,1.914 -3.679,4.197 0.366,2.35 2.576,4.273 4.854,4.273 C -1.251,4.273 0.366,2.35 0,0 m -6.701,-40.344 c -4.045,0 -6.915,3.244 -6.327,7.365 l 3.458,24.885 h 8.471 l -3.465,-24.885 c -0.145,-0.953 0.515,-1.763 1.626,-1.763 0.877,0 1.839,0.81 1.984,1.763 l 0.439,2.793 h 2.648 l -0.438,-2.793 c -0.589,-4.052 -4.343,-7.365 -8.396,-7.365"
             style="fill:#918f90;fill-opacity:1;fill-rule:nonzero;stroke:none"
             id="path3908"
             inkscape:connector-curvature="0" /></g><g
           id="g3910"
           transform="translate(566.3398,276.0869)"><path
             d="m 0,0 c -2.877,0 -6.042,-5.088 -6.918,-11.334 -0.817,-6.184 0.808,-11.27 3.678,-11.27 2.946,0 6.036,5.086 6.914,11.27 C 4.487,-5.088 2.866,0 0,0 m -13.917,11.928 c -0.878,0 -1.84,-0.817 -1.985,-1.762 l -0.373,-2.728 h -2.645 l 0.37,2.728 c 0.588,4.045 4.342,7.357 8.387,7.357 4.053,0 6.923,-3.312 6.331,-7.357 L -5.087,0.953 c 2.503,2.805 5.525,4.568 8.617,4.568 6.479,0 10.749,-7.582 9.425,-16.855 -1.248,-9.213 -7.655,-16.791 -14.134,-16.791 -3.168,0 -5.739,1.687 -7.365,4.564 l -0.069,-0.306 c -0.298,-2.342 -2.504,-4.258 -4.862,-4.258 -2.282,0 -3.9,1.916 -3.606,4.258 l 4.786,34.033 c 0.148,0.945 -0.516,1.762 -1.622,1.762"
             style="fill:#918f90;fill-opacity:1;fill-rule:nonzero;stroke:none"
             id="path3912"
             inkscape:connector-curvature="0" /></g><g
           id="g3914"
           transform="translate(600.7188,273.874)"><path
             d="m 0,0 c 0.297,2.434 -0.367,3.83 -1.916,3.83 -4.122,0 -6.556,-6.769 -7.14,-11.113 6.04,0 8.689,4.635 9.056,7.283 m -9.495,-10.602 c -1.259,-8.537 1.397,-10.89 5.003,-10.89 3.683,0 6.625,4.043 7.365,6.922 l 3.457,-0.735 c -1.248,-4.566 -5.224,-10.312 -13.246,-10.312 -8.692,0 -13.55,7.803 -12.302,16.496 1.182,8.83 8.323,16.855 17.595,16.855 8.172,0 10.385,-5.004 9.869,-8.765 -0.664,-5.153 -7.071,-9.571 -17.741,-9.571"
             style="fill:#918f90;fill-opacity:1;fill-rule:nonzero;stroke:none"
             id="path3916"
             inkscape:connector-curvature="0" /></g><g
           id="g3918"
           transform="translate(616.4629,247.9619)"><path
             d="M 0,0 C -4.045,0 -6.838,3.313 -6.326,7.365 L -1.09,44.541 H 7.369 L 2.148,7.365 C 1.992,6.412 2.732,5.602 3.76,5.602 c 0.888,0 1.914,0.81 1.995,1.763 l 0.438,2.793 H 8.846 L 8.399,7.365 C 7.881,3.313 4.057,0 0,0"
             style="fill:#918f90;fill-opacity:1;fill-rule:nonzero;stroke:none"
             id="path3920"
             inkscape:connector-curvature="0" /></g><g
           id="g3922"
           transform="translate(684.4805,290.5107)"><path
             d="m 0,0 h -3.533 v -39.463 h 3.385 l -0.221,-1.986 h -10.529 l 0.294,1.986 h 2.647 V -6.906 L -24.01,-41.449 h -2.428 l -6.408,35.488 -8.467,-33.502 h 3.469 l -0.301,-1.986 h -9.051 l 0.224,1.986 h 3.015 L -33.943,0 h -3.461 l 0.228,1.992 h 7.868 l 6.405,-35.474 16.42,35.474 h 6.696 z"
             style="fill:#918f90;fill-opacity:1;fill-rule:nonzero;stroke:none"
             id="path3924"
             inkscape:connector-curvature="0" /></g><g
           id="g3926"
           transform="translate(691.9863,264.6084)"><path
             d="m 0,0 c -1.037,-7.213 1.691,-13.121 6.473,-13.121 4.785,0 9.199,5.908 10.238,13.121 0.957,7.207 -1.768,13.096 -6.553,13.096 C 5.369,13.096 0.959,7.207 0,0 M 5.002,-16.352 C -1.693,-16.352 -6.186,-9.068 -4.941,0 -3.68,8.975 2.863,16.34 9.643,16.34 16.412,16.34 20.832,8.975 19.648,0 18.328,-9.068 11.773,-16.352 5.002,-16.352"
             style="fill:#918f90;fill-opacity:1;fill-rule:nonzero;stroke:none"
             id="path3928"
             inkscape:connector-curvature="0" /></g><g
           id="g3930"
           transform="translate(713.5508,277.4912)"><path
             d="m 0,0 0.289,2.129 h 6.488 l 1.102,7.73 h 4.5 l -1.106,-7.73 h 8.463 L 19.439,0 H 10.975 L 7.586,-23.867 c -0.148,-1.545 0.961,-2.801 2.355,-2.801 1.541,0 2.946,1.256 3.082,2.801 l 0.463,2.652 h 0.809 l -0.457,-2.652 c -0.352,-2.934 -3.168,-5.367 -6.1,-5.367 -2.957,0 -5.009,2.433 -4.65,5.367 L 6.48,0 Z"
             style="fill:#918f90;fill-opacity:1;fill-rule:nonzero;stroke:none"
             id="path3932"
             inkscape:connector-curvature="0" /></g><g
           id="g3934"
           transform="translate(737.8477,277.4912)"><path
             d="m 0,0 -3.385,-23.867 c -0.367,-2.934 1.69,-5.367 4.637,-5.367 2.945,0 5.742,2.433 6.113,5.367 l 0.438,2.652 H 6.994 l -0.433,-2.652 c -0.157,-1.545 -1.555,-2.801 -3.096,-2.801 -1.397,0 -2.508,1.256 -2.365,2.801 L 4.488,0 h 8.475 L 13.25,2.129 H 4.781 l 1.108,7.73 H 1.4 L 0.285,2.129 H -6.182 L -6.475,0 Z"
             style="fill:#918f90;fill-opacity:1;fill-rule:nonzero;stroke:none"
             id="path3936"
             inkscape:connector-curvature="0" /></g><g
           id="g3938"
           transform="translate(763.9824,277.7803)"><path
             d="m 0,0 c -3.902,0 -8.1,-5.814 -9.057,-13.111 -1.027,-7.366 1.477,-13.182 5.375,-13.182 3.237,0 8.018,5.816 9.057,13.182 C 6.324,-5.814 3.238,0 0,0 m 8.396,-29.523 c -2.953,0 -5.005,2.433 -4.64,5.367 l 0.447,2.652 c -2.142,-5.07 -7.221,-8.019 -9.949,-8.019 -5.959,0 -9.494,7.515 -8.238,16.412 1.248,8.914 6.904,16.279 12.875,16.279 3.17,0 6.986,-3.316 7.662,-8.025 l 0.806,5.88 c 0.145,1.256 1.25,2.221 2.502,2.221 1.176,0 2.133,-0.965 1.92,-2.221 L 8.232,-24.156 c -0.132,-1.545 0.973,-2.801 2.364,-2.801 1.545,0 2.949,1.256 3.097,2.801 l 0.44,2.652 h 0.805 l -0.432,-2.652 c -0.373,-2.934 -3.174,-5.367 -6.11,-5.367"
             style="fill:#918f90;fill-opacity:1;fill-rule:nonzero;stroke:none"
             id="path3940"
             inkscape:connector-curvature="0" /></g><g
           id="g3942"
           transform="translate(795.7832,278.001)"><path
             d="m 0,0 c 0.961,1.107 2.725,3.023 4.789,3.023 2.053,0 3.449,-1.627 3.236,-3.687 C 7.654,-2.648 5.811,-4.35 3.762,-4.35 c -1.766,0 -2.881,1.252 -3.033,2.205 l -6.842,-8.615 -2.565,-18.179 h -4.504 l 3.692,25.994 c 0.213,1.549 -0.967,2.793 -2.36,2.793 -1.476,0 -2.945,-1.244 -3.097,-2.793 l -0.432,-2.653 h -0.816 l 0.441,2.653 C -15.379,0 -12.582,2.436 -9.637,2.436 -6.701,2.436 -4.645,0 -5,-2.945 l -0.584,-4.35 z"
             style="fill:#918f90;fill-opacity:1;fill-rule:nonzero;stroke:none"
             id="path3944"
             inkscape:connector-curvature="0" /></g><g
           id="g3946"
           transform="translate(815.6641,278.7354)"><path
             d="m 0,0 c -4.646,0 -7.957,-6.48 -8.83,-12.883 8.25,0 12.51,3.903 13.098,7.731 C 4.781,-1.619 2.209,0 0,0 m -9.129,-14.941 c -1.17,-8.254 2.055,-12.664 6.328,-12.664 1.772,0 5.602,1.396 7.582,5.898 l 1.692,-0.529 c -2.121,-4.633 -5.229,-7.95 -11.483,-7.95 -7.445,0 -10.531,7.663 -9.349,16.12 1.171,8.539 6.918,16.279 14.502,16.279 7.214,0 9.283,-4.424 8.767,-7.889 -0.668,-4.857 -7.074,-9.265 -18.039,-9.265"
             style="fill:#918f90;fill-opacity:1;fill-rule:nonzero;stroke:none"
             id="path3948"
             inkscape:connector-curvature="0" /></g><g
           id="g3950"
           transform="translate(825.373,277.4912)"><path
             d="m 0,0 0.301,2.129 h 6.474 l 1.104,7.73 h 4.492 l -1.1,-7.73 h 8.461 L 19.449,0 h -8.47 L 7.59,-23.867 c -0.158,-1.545 0.957,-2.801 2.353,-2.801 1.551,0 2.95,1.256 3.092,2.801 l 0.442,2.652 h 0.806 l -0.443,-2.652 c -0.363,-2.934 -3.16,-5.367 -6.113,-5.367 -2.938,0 -4.995,2.433 -4.629,5.367 L 6.494,0 Z"
             style="fill:#918f90;fill-opacity:1;fill-rule:nonzero;stroke:none"
             id="path3952"
             inkscape:connector-curvature="0" /></g><path
           d="m 871.783,228.981 h -2.908 v 83.373 h 2.908 z"
           style="fill:#918f90;fill-opacity:1;fill-rule:nonzero;stroke:none"
           id="path3954"
           inkscape:connector-curvature="0" /><g
           id="g3956"
           transform="translate(915.9609,288.1592)"><path
             d="M 0,0 H -3.102 L -7.891,-34.32 H 3.381 l 0.887,5.98 H 8.613 L 7.07,-39.098 h -27.179 l 0.603,4.358 h 3.094 L -11.574,0 h -3.014 l 0.518,4.344 H 0.584 Z"
             style="fill:#918f90;fill-opacity:1;fill-rule:nonzero;stroke:none"
             id="path3958"
             inkscape:connector-curvature="0" /></g><g
           id="g3960"
           transform="translate(946.7266,264.7529)"><path
             d="m 0,0 c 0.816,6.246 -0.811,11.334 -3.68,11.334 -2.945,0 -6.041,-5.088 -6.918,-11.334 -0.816,-6.184 0.805,-11.27 3.672,-11.27 2.881,0 6.047,5.086 6.926,11.27 m 8.682,-11.189 c 0.888,0 1.922,0.81 1.984,1.763 l 0.449,2.793 h 2.649 l -0.438,-2.793 c -0.504,-4.053 -4.344,-7.365 -8.388,-7.365 -3.241,0 -5.749,2.137 -6.262,5.076 -2.576,-3.084 -5.897,-5.076 -9.201,-5.076 -6.479,0 -10.68,7.578 -9.346,16.791 1.256,9.273 7.584,16.855 14.062,16.855 3.157,0 5.809,-1.763 7.506,-4.636 l 0.076,0.365 c 0.295,2.355 2.428,4.271 4.784,4.271 2.287,0 3.97,-1.916 3.673,-4.271 L 7.063,-9.426 c -0.061,-0.953 0.587,-1.763 1.619,-1.763"
             style="fill:#918f90;fill-opacity:1;fill-rule:nonzero;stroke:none"
             id="path3962"
             inkscape:connector-curvature="0" /></g><g
           id="g3964"
           transform="translate(982.4297,253.4189)"><path
             d="M 0,0 H 3.033 L 7.947,34.74 H 0.445 l -0.736,-4.861 h -4.414 l 1.336,9.205 h 32.234 l -1.24,-9.205 h -4.352 l 0.745,4.861 H 16.432 L 11.5,0 h 3.088 L 13.992,-4.357 H -0.66 Z"
             style="fill:#918f90;fill-opacity:1;fill-rule:nonzero;stroke:none"
             id="path3966"
             inkscape:connector-curvature="0" /></g><g
           id="g3968"
           transform="translate(1025.5156,264.7529)"><path
             d="m 0,0 c 0.797,6.246 -0.828,11.334 -3.689,11.334 -2.948,0 -6.038,-5.088 -6.922,-11.334 -0.813,-6.184 0.816,-11.27 3.681,-11.27 2.869,0 6.041,5.086 6.93,11.27 m 8.67,-11.189 c 0.887,0 1.928,0.81 2,1.763 l 0.435,2.793 h 2.657 l -0.444,-2.793 c -0.515,-4.053 -4.345,-7.365 -8.39,-7.365 -3.252,0 -5.756,2.137 -6.266,5.076 -2.566,-3.084 -5.892,-5.076 -9.205,-5.076 -6.473,0 -10.674,7.578 -9.346,16.791 1.248,9.273 7.578,16.855 14.057,16.855 3.176,0 5.832,-1.763 7.508,-4.636 l 0.08,0.365 c 0.297,2.355 2.43,4.271 4.789,4.271 2.277,0 3.965,-1.916 3.676,-4.271 L 7.049,-9.426 c -0.067,-0.953 0.601,-1.763 1.621,-1.763"
             style="fill:#918f90;fill-opacity:1;fill-rule:nonzero;stroke:none"
             id="path3970"
             inkscape:connector-curvature="0" /></g><g
           id="g3972"
           transform="translate(1055.6094,275.5752)"><path
             d="m 0,0 c 1.918,2.709 4.785,6.033 9.281,6.033 4.571,0 7.735,-3.679 7.135,-8.238 l -2.564,-18.043 c -0.157,-0.953 0.507,-1.764 1.615,-1.764 0.888,0 1.83,0.811 1.984,1.764 l 0.436,2.793 h 2.658 l -0.441,-2.793 c -0.594,-4.053 -4.34,-7.365 -8.393,-7.365 -4.053,0 -6.926,3.312 -6.338,7.365 l 2.504,17.596 c 0.217,1.4 -0.799,2.568 -2.207,2.568 -1.4,0 -2.717,-1.092 -5.299,-4.557 L -1.84,-7.518 -4.42,-26.514 h -8.451 l 3.381,24.309 c 0.152,0.953 -0.516,1.754 -1.549,1.754 -0.959,0 -1.908,-0.801 -2.061,-1.754 l -0.443,-2.734 h -2.648 l 0.449,2.734 c 0.584,4.037 4.34,7.348 8.392,7.348 3.748,0 6.477,-2.87 6.397,-6.471 z"
             style="fill:#918f90;fill-opacity:1;fill-rule:nonzero;stroke:none"
             id="path3974"
             inkscape:connector-curvature="0" /></g><g
           id="g3976"
           transform="translate(1090.5762,288.3057)"><path
             d="m 0,0 c -0.299,-2.283 -2.5,-4.197 -4.777,-4.197 -2.348,0 -3.973,1.914 -3.688,4.197 0.371,2.35 2.584,4.273 4.869,4.273 C -1.244,4.273 0.377,2.35 0,0 m -6.693,-40.344 c -4.053,0 -6.914,3.244 -6.33,7.365 l 3.462,24.885 h 8.465 l -3.461,-24.885 c -0.152,-0.953 0.52,-1.763 1.621,-1.763 0.887,0 1.84,0.81 1.985,1.763 l 0.443,2.793 h 2.645 l -0.436,-2.793 c -0.592,-4.052 -4.346,-7.365 -8.394,-7.365"
             style="fill:#918f90;fill-opacity:1;fill-rule:nonzero;stroke:none"
             id="path3978"
             inkscape:connector-curvature="0" /></g><g
           id="g3980"
           transform="translate(1113.7734,264.7529)"><path
             d="m 0,0 c 0.805,6.246 -0.811,11.334 -3.676,11.334 -2.945,0 -6.043,-5.088 -6.929,-11.334 -0.813,-6.184 0.812,-11.27 3.687,-11.27 2.869,0 6.039,5.086 6.918,11.27 m 8.693,-11.189 c 0.889,0 1.909,0.81 1.985,1.763 l 0.437,2.793 h 2.655 l -0.448,-2.793 c -0.511,-4.053 -4.343,-7.365 -8.384,-7.365 -3.258,0 -5.749,2.137 -6.251,5.076 -2.587,-3.084 -5.908,-5.076 -9.212,-5.076 -6.475,0 -10.678,7.578 -9.354,16.791 1.256,9.273 7.576,16.855 14.065,16.855 3.166,0 5.814,-1.763 7.494,-4.636 l 0.09,0.365 c 0.287,2.355 2.423,4.271 4.793,4.271 2.275,0 3.964,-1.916 3.667,-4.271 L 7.059,-9.426 c -0.069,-0.953 0.597,-1.763 1.634,-1.763"
             style="fill:#918f90;fill-opacity:1;fill-rule:nonzero;stroke:none"
             id="path3982"
             inkscape:connector-curvature="0" /></g></g></g></g></svg>