<?xml version="1.0" encoding="utf-8"?>
<!-- Generator: Adobe Illustrator 23.0.6, SVG Export Plug-In . SVG Version: 6.00 Build 0)  -->
<svg version="1.1" id="a36694c7-9e7e-4fa0-bd34-1ff06c34a584"
	 xmlns="http://www.w3.org/2000/svg" xmlns:xlink="http://www.w3.org/1999/xlink" x="0px" y="0px" viewBox="0 0 1229.9 798.6"
	 style="enable-background:new 0 0 1229.9 798.6;" xml:space="preserve">
<style type="text/css">
	.st0{fill:#FF7700;}
	.st1{clip-path:url(#SVGID_2_);fill:#F2F2F2;}
	.st2{fill:#3F3D56;}
	.st3{fill:#F2F2F2;}
	.st4{fill:#2F2E41;}
	.st5{fill:#FFB8B8;}
	.st6{fill:#D0CDE1;}
	.st7{opacity:0.5;fill:#FF7700;}
	.st8{fill:#FFFFFF;}
</style>
<path class="st0" d="M1080.6,433.4c0,120.1-85.8,226.3-217.4,291c-84.4,41.5-187.6,65.8-299,65.8c-148.4,0-261.6-46-346.8-116.5
	C138.9,608.8,84.3,523.1,47.8,433.4C-114.8,33.1,156.9-76.1,564.2,76.6C823.6,173.9,1080.6,236.4,1080.6,433.4z"/>
<g>
	<defs>
		<rect id="SVGID_1_" x="217.4" y="57.3" width="645.8" height="739.7"/>
	</defs>
	<clipPath id="SVGID_2_">
		<use xlink:href="#SVGID_1_"  style="overflow:visible;"/>
	</clipPath>
	<path class="st1" d="M863.2,232.7v493.8c-84.4,40.8-187.6,64.8-299,64.8c-148.4,0-261.6-45.3-346.8-114.7v-444L863.2,232.7z"/>
</g>
<path class="st2" d="M279.5,397.6c33.8-10.8,68.9-17,104.3-18.6c17.8-0.8,35.6-0.1,53.2,2.1c17.5,2.3,34.7,6,51.6,11.1
	c16.7,4.8,33.1,10.4,49.8,15.4c16.9,5.2,34.1,9.4,51.4,12.6c17.3,3.1,34.7,5.2,52.3,6.2c17.4,1,34.9,1.2,52.2-0.6
	c16.2-1.6,32-5.6,47-11.9c14-6.1,26.8-14.4,38.2-24.5c2.8-2.5,5.6-5.2,8.2-7.9c1.5-1.6-0.9-4.1-2.5-2.5
	c-22.1,23.1-51.2,37.5-82.8,42.3c-17.2,2.6-34.7,2.8-52,2.1c-17.7-0.7-35.4-2.5-52.9-5.3c-17.3-2.9-34.4-6.8-51.2-11.7
	c-16.5-4.8-32.8-10.3-49.3-15.3c-16.6-5.2-33.6-9.3-50.8-12.1c-17.2-2.6-34.7-3.8-52.1-3.6c-34.8,0.6-69.5,5.7-103,15.2
	c-4.2,1.2-8.4,2.4-12.6,3.7C276.5,394.9,277.4,398.2,279.5,397.6L279.5,397.6z"/>
<path class="st2" d="M279.5,485.5c33.8-10.8,68.9-17,104.3-18.6c17.8-0.8,35.6-0.1,53.2,2.1c17.5,2.3,34.7,6,51.6,11.1
	c16.7,4.8,33.1,10.4,49.8,15.4c16.9,5.2,34.1,9.4,51.4,12.6c17.3,3.1,34.7,5.2,52.3,6.2c17.4,1,34.9,1.2,52.2-0.6
	c16.2-1.6,32-5.6,47-11.9c14-6.1,26.8-14.4,38.2-24.5c2.8-2.5,5.6-5.2,8.2-7.9c1.5-1.6-0.9-4.1-2.5-2.5
	c-22.1,23.1-51.2,37.5-82.8,42.3c-17.2,2.6-34.7,2.8-52,2.1c-17.7-0.7-35.4-2.5-52.9-5.3c-17.3-2.9-34.4-6.8-51.2-11.7
	c-16.5-4.8-32.8-10.3-49.3-15.3c-16.6-5.2-33.6-9.3-50.8-12.1c-17.2-2.6-34.7-3.8-52.1-3.6c-34.8,0.6-69.5,5.7-103,15.2
	c-4.2,1.2-8.4,2.4-12.6,3.7C276.5,482.8,277.4,486.2,279.5,485.5L279.5,485.5z"/>
<path class="st2" d="M279.5,317.7c33.8-10.8,68.9-17,104.3-18.6c17.8-0.8,35.6-0.1,53.2,2.1c17.5,2.3,34.7,6,51.6,11.1
	c16.7,4.8,33.1,10.4,49.8,15.4c16.9,5.2,34.1,9.4,51.4,12.6c17.3,3.1,34.7,5.2,52.3,6.2c17.4,1,34.9,1.2,52.2-0.6
	c16.2-1.6,32-5.6,47-11.9c14-6.1,26.8-14.4,38.2-24.5c2.8-2.5,5.6-5.2,8.2-7.9c1.5-1.6-0.9-4.1-2.5-2.5
	c-22.1,23.1-51.2,37.5-82.8,42.3c-17.2,2.6-34.7,2.8-52,2.1c-17.7-0.7-35.4-2.5-52.9-5.3c-17.3-2.9-34.4-6.8-51.2-11.7
	c-16.5-4.8-32.8-10.3-49.3-15.3c-16.6-5.2-33.6-9.3-50.8-12.1c-17.2-2.6-34.7-3.8-52.1-3.6c-34.8,0.6-69.5,5.7-103,15.2
	c-4.2,1.2-8.4,2.4-12.6,3.7C276.5,315,277.4,318.4,279.5,317.7L279.5,317.7z"/>
<circle class="st3" cx="287.1" cy="95.6" r="28.9"/>
<circle class="st3" cx="514.5" cy="152.6" r="19.7"/>
<circle class="st3" cx="180.4" cy="232.7" r="19.7"/>
<path class="st4" d="M929.7,609.3l-16.2,149.3h112l4.9-11.4l6.5,11.4h105.5c0,0-8.1-154.2-22.7-159.1
	C1105,594.7,929.7,609.3,929.7,609.3z"/>
<circle class="st5" cx="1025.5" cy="224.7" r="56.8"/>
<path class="st5" d="M993,260.4c0,0,4.9,51.9,0,55.2c-4.9,3.2,77.9,1.6,77.9,1.6s-11.4-47.1,0-69.8L993,260.4z"/>
<path class="st6" d="M1022.2,304.2c0,0,41.8,6.5,45.2-6.5l21.3,29.2l1.6,292.2c0,0-173.7,21.1-180.2-13
	c-6.5-34.1,66.6-303.5,66.6-303.5l18.4-1.2C995.2,301.4,1019,304.2,1022.2,304.2z"/>
<path class="st2" d="M994.9,288l-27.9,9.7l-79.5,19.5l3.2,194.8c0,0-68.2,194.8-37.3,209.4c30.8,14.6,74.7-19.5,87.7-43.8
	s58.4-362,58.4-368.5S994.9,288,994.9,288z"/>
<path class="st2" d="M1066.4,288l11,9.7l77.9,35.7l-39,196.4c0,0,51.9,178.5,32.5,188.3c-19.5,9.7-48.7,37.3-55.2,21.1
	C1087.2,723,1048.9,306,1066.4,288z"/>
<path class="st5" d="M1111.5,547.7c0,0-73-30.8-74.7-3.2s82.8,47.1,82.8,39C1119.6,575.3,1111.5,547.7,1111.5,547.7z"/>
<path class="st5" d="M933,536.3c0,0,84.4,63.3,51.9,79.5S910.2,559,910.2,559L933,536.3z"/>
<path class="st4" d="M1050.7,141.4c0.5-1.2,1.7-1.9,3-1.8c-26-1.6-53.4,1.5-75.2,15.8c-6.1,4-11.8,8.9-18.7,11.2l5.6,4.4l-6.7,2.1
	l9.9,6.4c-2,2.3-5.2,3.4-8.2,2.7c4.3,1.3,7.5,5.1,9.1,9.3c1.6,4.2,1.9,8.7,2.2,13.2c1.7-6.5,8.7-10.3,15.4-10.6
	c6.7-0.4,13.1,1.8,19.6,3.4c14.1,3.4,28.8,4,43.1,1.7c-4.9,9.8-0.8,21.4,3.4,31.5l8.2,20.2c4.6,0.5,7.8-4.1,11.3-7.1
	c3.1-2.8-9.4,21.6-7.4,20.7c2.5-1.2,29.1-30.5,30.3-33c5.7-11.3,9.1-23.9,8.6-36.6c-0.5-12.6-5.1-25.3-13.9-34.5
	c-5.9-6.2-14.1-7.3-20.1-12.5c-2.4-2-2.4-3.6-5.6-4.8C1063.4,142.7,1050.9,141,1050.7,141.4z"/>
<path class="st2" d="M898.9,322l-11.4-4.9l-90.9,149.3c0,0-16.2,39,13,56.8c29.2,17.9,97.4,71.4,97.4,71.4l39-60.1
	c0,0-79.5-37.3-74.7-51.9c4.9-14.6,30.8-53.6,30.8-53.6L898.9,322z"/>
<path class="st2" d="M1134.2,330.2l21.1,3.2c0,0,87.7,172.1,66.6,204.5c-21.1,32.5-107.1,77.9-107.1,77.9s-1.6-53.6-16.2-73
	l50.3-19.5l-27.6-107.1L1134.2,330.2z"/>
<g>
	<circle class="st7" cx="559" cy="620" r="87.7"/>
	<g>
		<path class="st2" d="M488,671.3l-30.2,52.3l35.2-1.9l16,31.4l27.9-48.4C517,699.6,499.8,687.5,488,671.3z"/>
		<path class="st2" d="M630.3,671c-11.7,16.3-28.9,28.4-48.8,33.6l28,48.5l16-31.4l35.2,1.9L630.3,671z"/>
	</g>
	<circle class="st0" cx="559" cy="620" r="63.6"/>
	<path class="st8" d="M602.6,613.1c2-1.9,0.9-5.3-1.8-5.7l-25.1-3.7c-1.1-0.2-2-0.8-2.5-1.8L562,579.3c-1.2-2.5-4.7-2.5-6,0
		L544.9,602c-0.5,1-1.4,1.7-2.5,1.8l-25.1,3.7c-2.7,0.4-3.8,3.7-1.8,5.7l18.1,17.7c0.8,0.8,1.1,1.9,1,2.9l-4.3,25
		c-0.5,2.7,2.4,4.8,4.8,3.5l22.4-11.8c1-0.5,2.1-0.5,3.1,0l22.4,11.8c2.4,1.3,5.3-0.8,4.8-3.5l-4.3-25c-0.2-1.1,0.2-2.2,1-2.9
		L602.6,613.1z"/>
</g>
</svg>
