<?xml version="1.0" encoding="utf-8"?>
<!-- Generator: Adobe Illustrator 23.0.6, SVG Export Plug-In . SVG Version: 6.00 Build 0)  -->
<svg version="1.1" id="b43bf247-fd00-4c66-86de-2f4e4870ba29"
	 xmlns="http://www.w3.org/2000/svg" xmlns:xlink="http://www.w3.org/1999/xlink" x="0px" y="0px" viewBox="0 0 1113.6 784.4"
	 style="enable-background:new 0 0 1113.6 784.4;" xml:space="preserve">
<style type="text/css">
	.st0{opacity:0.1;fill:#FF7700;enable-background:new    ;}
	.st1{opacity:0.1;}
	.st2{fill:#3F3D56;}
	.st3{fill:#FF7700;}
	.st4{opacity:0.1;enable-background:new    ;}
	.st5{fill:#A8A8A8;}
	.st6{opacity:0.2;enable-background:new    ;}
	.st7{fill:url(#SVGID_1_);}
	.st8{fill:#696791;}
	.st9{fill:#A0616A;}
	.st10{fill:#F86D70;}
	.st11{fill:#2D293D;}
	.st12{fill:none;stroke:#3F3D56;stroke-width:7;stroke-linecap:round;stroke-miterlimit:10;}
	.st13{fill:#F2F2F2;}
	.st14{fill:#2F2E41;}
	.st15{fill:#FFB8B8;}
	.st16{fill:#D0CDE1;}
</style>
<path class="st3" d="M907.7,426.6c0,117.4-68.9,221.3-174.4,284.6c-67.7,40.6-150.4,64.4-239.8,64.4c-119.1,0-209.9-45-278.2-113.9
	c-63-63.5-106.8-147.4-136-235.1C-51.2,35,166.7-71.8,493.5,77.6C701.5,172.7,907.7,233.8,907.7,426.6z"/>
<path class="st13" d="M733.3,221.6v490.5c-67.7,40.6-150.4,64.4-239.8,64.4c-119.1,0-209.9-45-278.2-113.9v-441L733.3,221.6z"/>
<path class="st2" d="M265.1,460.6c27.1-8.6,55.3-13.6,83.7-14.9c14.2-0.6,28.5,0,42.7,1.7c14,1.9,27.9,4.8,41.4,8.9
	c13.4,3.9,26.6,8.4,39.9,12.4c13.6,4.1,27.3,7.5,41.3,10.1c13.9,2.5,27.9,4.2,41.9,5c13.9,0.8,28,1,41.9-0.5
	c13-1.2,25.7-4.5,37.7-9.6c11.2-4.9,21.5-11.5,30.6-19.7c2.3-2,4.5-4.1,6.6-6.4c1.2-1.3-0.7-3.3-2-2c-17.8,18.6-41.1,30.1-66.4,33.9
	c-13.8,2.1-27.8,2.2-41.7,1.7c-14.2-0.5-28.4-2-42.4-4.3c-13.9-2.3-27.6-5.4-41.1-9.4c-13.3-3.8-26.3-8.3-39.6-12.3
	c-13.3-4.2-26.9-7.4-40.7-9.7c-13.8-2.1-27.8-3.1-41.8-2.9c-27.9,0.4-55.7,4.6-82.6,12.2c-3.4,0.9-6.7,1.9-10.1,3
	C262.6,458.4,263.4,461.1,265.1,460.6L265.1,460.6z"/>
<path class="st2" d="M265.1,531.1c27.1-8.6,55.3-13.6,83.7-14.9c14.2-0.6,28.5,0,42.7,1.7c14,1.9,27.9,4.8,41.4,8.9
	c13.4,3.9,26.6,8.4,39.9,12.4c13.6,4.1,27.3,7.5,41.3,10.1c13.9,2.5,27.9,4.2,41.9,5c13.9,0.8,28,1,41.9-0.5
	c13-1.2,25.7-4.5,37.7-9.6c11.2-4.9,21.5-11.5,30.6-19.7c2.3-2,4.5-4.1,6.6-6.4c1.2-1.3-0.7-3.3-2-2c-17.8,18.6-41.1,30.1-66.4,33.9
	c-13.8,2.1-27.8,2.2-41.7,1.7c-14.2-0.5-28.4-2-42.4-4.3c-13.9-2.3-27.6-5.4-41.1-9.4c-13.3-3.8-26.3-8.3-39.6-12.3
	c-13.3-4.2-26.9-7.4-40.7-9.7C385,514,371,513,357,513.2c-27.9,0.4-55.7,4.6-82.6,12.2c-3.4,0.9-6.7,1.9-10.1,3
	C262.6,529,263.4,531.7,265.1,531.1L265.1,531.1z"/>
<path class="st2" d="M265.1,396.5c27.1-8.6,55.3-13.6,83.7-14.9c14.2-0.6,28.5,0,42.7,1.7c14,1.9,27.9,4.8,41.4,8.9
	c13.4,3.9,26.6,8.4,39.9,12.4c13.6,4.1,27.3,7.5,41.3,10.1c13.9,2.5,27.9,4.2,41.9,5c13.9,0.8,28,1,41.9-0.5
	c13-1.2,25.7-4.5,37.7-9.6c11.2-4.9,21.5-11.5,30.6-19.7c2.3-2,4.5-4.1,6.6-6.4c1.2-1.3-0.7-3.3-2-2c-17.8,18.6-41.1,30.1-66.4,33.9
	c-13.8,2.1-27.8,2.2-41.7,1.7c-14.2-0.5-28.4-2-42.4-4.3c-13.9-2.3-27.6-5.4-41.1-9.4c-13.3-3.8-26.3-8.3-39.6-12.3
	c-13.3-4.2-26.9-7.4-40.7-9.7c-13.8-2.1-27.8-3.1-41.8-2.9c-27.9,0.4-55.7,4.6-82.6,12.2c-3.4,0.9-6.7,1.9-10.1,3
	C262.6,394.4,263.4,397.1,265.1,396.5L265.1,396.5z"/>
<path class="st2" d="M261.8,275.4c6.7-3,14.5-2.5,21.4-0.7c7.5,1.9,14.6,5.1,22.1,7.4c13.3,4,27.4,4.2,40.8,0.8
	c7.6-1.9,14.8-5,21.4-9.2c1.5-1,0.1-3.4-1.4-2.4c-11.8,7.4-25.4,11.2-39.3,11.2c-7,0-13.9-1-20.6-3c-7.4-2.2-14.4-5.4-21.9-7.3
	c-7.9-2-16.4-2.5-24,0.9C258.7,273.7,260.1,276.1,261.8,275.4L261.8,275.4z"/>
<circle class="st2" cx="468.7" cy="659.7" r="42.7"/>
<circle class="st13" cx="238.5" cy="111.1" r="23.2"/>
<circle class="st13" cx="441.8" cy="177" r="15.8"/>
<circle class="st13" cx="185.6" cy="328.3" r="15.8"/>
<rect x="120.3" y="211.1" class="st2" width="1.7" height="311.2"/>
<ellipse class="st2" cx="121.5" cy="418.2" rx="33.9" ry="77.4"/>
<ellipse class="st2" cx="121.5" cy="241.5" rx="33.9" ry="77.4"/>
<path class="st2" d="M122.3,178.3l-1.7-0.5c0.1-0.4,10.3-35.4-6.5-58c-9.5-12.7-25.8-19.2-48.4-19.2v-1.7c23.2,0,40,6.7,49.8,19.9
	C132.9,142,122.4,177.9,122.3,178.3z"/>
<circle class="st2" cx="65.8" cy="99.7" r="21.8"/>
<path class="st14" d="M756.4,592.8l-16.3,149.7h112.3l4.9-11.4l6.5,11.4h105.8c0,0-8.1-154.6-22.8-159.5
	C932.1,578.2,756.4,592.8,756.4,592.8z"/>
<circle class="st15" cx="852.4" cy="207.1" r="57"/>
<path class="st15" d="M819.8,242.9c0,0,4.9,52.1,0,55.3c-4.9,3.3,78.1,1.6,78.1,1.6s-11.4-47.2,0-70L819.8,242.9z"/>
<path class="st16" d="M849.1,286.8c0,0,41.9,6.5,45.4-6.5l21.4,29.3l1.6,293c0,0-174.2,21.2-180.7-13s66.7-304.4,66.7-304.4L822,284
	C822,284,845.9,286.8,849.1,286.8z"/>
<path class="st2" d="M821.7,270.7l-27.9,9.7L714,299.9l3.3,195.3c0,0-68.4,195.3-37.4,210c30.9,14.6,74.9-19.5,87.9-43.9
	c13-24.4,58.6-363,58.6-369.5S821.7,270.7,821.7,270.7z"/>
<path class="st2" d="M893.4,270.7l11,9.7l78.1,35.8l-39.1,196.9c0,0,52.1,179,32.6,188.8c-19.5,9.8-48.8,37.4-55.3,21.2
	C914.2,706.8,875.9,288.6,893.4,270.7z"/>
<path class="st15" d="M938.6,531c0,0-73.2-30.9-74.9-3.3c-1.6,27.7,83,47.2,83,39.1S938.6,531,938.6,531z"/>
<path class="st15" d="M759.6,519.6c0,0,84.6,63.5,52.1,79.8c-32.6,16.3-74.9-57-74.9-57L759.6,519.6z"/>
<path class="st14" d="M877.7,123.6c0.5-1.2,1.7-1.9,3-1.8c-26.1-1.6-53.6,1.5-75.4,15.9c-6.1,4-11.8,8.9-18.8,11.2l5.6,4.4l-6.7,2.1
	l9.9,6.4c-2,2.3-5.2,3.4-8.2,2.7c4.3,1.3,7.5,5.1,9.1,9.3s1.9,8.8,2.2,13.3c1.7-6.5,8.7-10.3,15.4-10.7c6.7-0.4,13.2,1.8,19.7,3.4
	c14.1,3.4,28.8,4,43.2,1.7c-4.9,9.8-0.8,21.5,3.4,31.6l8.3,20.2c4.6,0.5,7.8-4.1,11.3-7.2c3.2-2.8-9.4,21.7-7.5,20.8
	c2.5-1.2,29.2-30.6,30.4-33.1c5.7-11.3,9.1-24,8.6-36.7c-0.5-12.7-5.2-25.4-13.9-34.6c-5.9-6.2-14.1-7.3-20.2-12.5
	c-2.4-2-2.4-3.6-5.7-4.8C890.4,124.9,877.9,123.2,877.7,123.6z"/>
<path class="st2" d="M725.4,304.7l-11.4-4.9l-91.1,149.7c0,0-16.3,39.1,13,57s97.7,71.6,97.7,71.6l39.1-60.2
	c0,0-79.8-37.4-74.9-52.1c4.9-14.6,30.9-53.7,30.9-53.7L725.4,304.7z"/>
<path class="st2" d="M961.4,312.9l21.2,3.3c0,0,87.9,172.5,66.7,205.1c-21.2,32.6-107.4,78.1-107.4,78.1s-1.6-53.7-16.3-73.2
	l50.5-19.5l-27.7-107.4L961.4,312.9z"/>
</svg>
