<?xml version="1.0" encoding="utf-8"?>
<!-- Generator: Adobe Illustrator 23.0.6, SVG Export Plug-In . SVG Version: 6.00 Build 0)  -->
<svg version="1.1" id="Calque_1" xmlns="http://www.w3.org/2000/svg" xmlns:xlink="http://www.w3.org/1999/xlink" x="0px" y="0px"
	 viewBox="0 0 142.7 124.1" style="enable-background:new 0 0 142.7 124.1;" xml:space="preserve">
<style type="text/css">
	.st0{fill:#F6A351;}
	.st1{fill:#F9C84D;}
	.st2{fill:#FFF5D7;}
	.st3{fill:#E94862;}
	.st4{fill:#DB1136;}
	.st5{fill:#5FB3DE;}
	.st6{fill:#3E4D57;}
</style>
<g>
	<path class="st0" d="M124.8,4.2H17c-8,0-14.5,6.5-14.5,14.5v80.8c0,8,6.5,14.5,14.5,14.5h107.7c8,0,14.5-6.5,14.5-14.5V18.7
		C139.3,10.7,132.8,4.2,124.8,4.2z"/>
	<path class="st1" d="M17,110.4c-6,0-10.9-4.9-10.9-10.9V18.7c0-6,4.9-10.9,10.9-10.9h107.7c6,0,10.9,4.9,10.9,10.9v80.8
		c0,6-4.9,10.9-10.9,10.9H17z"/>
	<path class="st2" d="M17,102.8c-1.8,0-3.3-1.5-3.3-3.3V18.7c0-1.8,1.5-3.3,3.3-3.3h107.7c1.8,0,3.3,1.5,3.3,3.3v80.8
		c0,1.8-1.5,3.3-3.3,3.3H17z"/>
	<path class="st3" d="M110,93v27.9l-11.2-6.6l-11.2,6.6V93H110z"/>
	<path class="st4" d="M110,93v4.6c-0.8,1.5-1.6,3-3,3.6c-2.4,1-5.5-1.2-8.2-1.2c-2.7,0-5.8,2.1-8.2,1.2c-1.4-0.6-2.2-2.1-3-3.6V93
		H110z"/>
	<path class="st1" d="M117.4,76.9c0-2.7,2.1-5.8,1.2-8.2c-1-2.4-4.8-3.1-6.6-5c-1.8-1.8-2.5-5.6-5-6.6c-2.4-1-5.5,1.2-8.2,1.2
		c-2.7,0-5.8-2.1-8.2-1.2c-2.4,1-3.1,4.8-5,6.6c-1.8,1.8-5.6,2.5-6.6,5c-1,2.4,1.2,5.5,1.2,8.2c0,2.7-2.1,5.8-1.2,8.2
		c1,2.4,4.8,3.1,6.6,5c1.8,1.8,2.5,5.6,5,6.6c2.4,1,5.5-1.2,8.2-1.2c2.7,0,5.8,2.1,8.2,1.2c2.4-1,3.1-4.8,5-6.6
		c1.8-1.8,5.6-2.5,6.6-5C119.5,82.7,117.4,79.6,117.4,76.9z"/>
	<path class="st0" d="M110.5,76.9c0,6.5-5.3,11.8-11.8,11.8c-6.5,0-11.8-5.3-11.8-11.8c0-6.5,5.3-11.8,11.8-11.8
		C105.3,65.1,110.5,70.4,110.5,76.9z"/>
	<g>
		<path class="st5" d="M80.7,35.2c0,5.4-4.4,9.8-9.8,9.8c-5.4,0-9.8-4.4-9.8-9.8s4.4-9.8,9.8-9.8C76.3,25.4,80.7,29.8,80.7,35.2z"/>
		<path class="st5" d="M53.5,32.9H25.1c-1.2,0-2.1-0.9-2.1-2.1c0-1.2,0.9-2.1,2.1-2.1h28.4c1.2,0,2.1,0.9,2.1,2.1
			C55.6,32,54.7,32.9,53.5,32.9z"/>
		<path class="st5" d="M53.5,41.7H35.8c-1.2,0-2.1-0.9-2.1-2.1s0.9-2.1,2.1-2.1h17.7c1.2,0,2.1,0.9,2.1,2.1S54.7,41.7,53.5,41.7z"/>
		<path class="st5" d="M116.7,32.9H88.3c-1.2,0-2.1-0.9-2.1-2.1c0-1.2,0.9-2.1,2.1-2.1h28.4c1.2,0,2.1,0.9,2.1,2.1
			C118.8,32,117.8,32.9,116.7,32.9z"/>
		<path class="st5" d="M106,41.7H88.3c-1.2,0-2.1-0.9-2.1-2.1s0.9-2.1,2.1-2.1H106c1.2,0,2.1,0.9,2.1,2.1S107.2,41.7,106,41.7z"/>
	</g>
	<path class="st6" d="M76.5,57.5H30.2c-1.2,0-2.1-0.9-2.1-2.1c0-1.2,0.9-2.1,2.1-2.1h46.4c1.2,0,2.1,0.9,2.1,2.1
		C78.6,56.5,77.7,57.5,76.5,57.5z"/>
	<path class="st6" d="M71.4,66.7H30.2c-1.2,0-2.1-0.9-2.1-2.1c0-1.2,0.9-2.1,2.1-2.1h41.2c1.2,0,2.1,0.9,2.1,2.1
		C73.5,65.8,72.5,66.7,71.4,66.7z"/>
	<path class="st6" d="M54.2,94.6h-24c-1.2,0-2.1-0.9-2.1-2.1c0-1.2,0.9-2.1,2.1-2.1h24c1.2,0,2.1,0.9,2.1,2.1
		C56.3,93.7,55.3,94.6,54.2,94.6z"/>
	<path class="st5" d="M52.3,88.3c-0.1,0-0.1,0-0.2,0c-4-0.4-7-1.3-9.1-2.6c-1.6,0.6-3.3,1-4.9,1c-2.7,0-4.1-1.3-4.8-2.3
		c-2-3.2,0.2-8.2,0.7-9.2c0.5-1,1.8-1.5,2.8-1c1,0.5,1.5,1.8,1,2.8c-0.8,1.8-1.4,4.3-0.9,5.1c0.2,0.3,0.8,0.3,1.2,0.3
		c0.7,0,1.3-0.1,2-0.2c0-0.1-0.1-0.2-0.1-0.3c-0.7-2.4,0.5-5.2,2.9-7c2.1-1.6,4.5-1.9,6.2-0.9c1.6,1,2.3,2.7,1.8,4.6
		c-0.4,1.6-1.7,3.1-3.3,4.5c1.3,0.4,2.9,0.8,5,1c1.1,0.1,2,1.2,1.9,2.3C54.2,87.5,53.3,88.3,52.3,88.3z M46.7,77.6
		c-0.4,0-1.2,0.4-2,1.2c-0.3,0.3-0.8,0.9-0.8,1.6C45.5,79.4,46.5,78.3,46.7,77.6z"/>
</g>
</svg>
