<?xml version="1.0" encoding="utf-8"?>
<!-- Generator: Adobe Illustrator 23.0.6, SVG Export Plug-In . SVG Version: 6.00 Build 0)  -->
<svg version="1.1" id="Calque_1" xmlns="http://www.w3.org/2000/svg" xmlns:xlink="http://www.w3.org/1999/xlink" x="0px" y="0px"
	 viewBox="0 0 120.5 113.1" style="enable-background:new 0 0 120.5 113.1;" xml:space="preserve">
<style type="text/css">
	.st0{fill:#E2ECF1;}
	.st1{fill:#B5D2D8;}
	.st2{fill:#FFF9D2;}
	.st3{fill:#FEF6B3;}
	.st4{fill:#EB8088;}
	.st5{fill:#E4656E;}
	.st6{fill:#D29380;}
	.st7{fill:#C97E67;}
	.st8{fill:#9BB9C3;}
</style>
<g>
	<path class="st0" d="M84.5,74.3l-43-43l9.1-9.1c0.2-0.2,0.4-0.2,0.6,0l42.4,42.4c0.2,0.2,0.2,0.4,0,0.6L84.5,74.3z"/>
	<path class="st1" d="M93.6,64.7L51.2,22.2c-0.2-0.2-0.4-0.2-0.6,0l-4.2,4.2l35,35c1.9,1.9,1.9,5,0,6.9L80,69.8l4.5,4.5l9.1-9.1
		C93.8,65.1,93.8,64.8,93.6,64.7z"/>
	<path class="st2" d="M93.4,64.5l-42-42L71.7,2.1c0.9-0.9,2.4-0.7,2.9,0.4C76,5.1,75,7.2,77.8,10c3.5,3.5,5.9,1.1,9.4,4.6
		c3.5,3.5,1.1,5.9,4.6,9.4c3.5,3.5,5.9,1.1,9.4,4.6c3.5,3.5,1.1,5.9,4.6,9.4c2.8,2.8,4.9,1.8,7.5,3.1c1.1,0.6,1.3,2.1,0.4,2.9
		L93.4,64.5z"/>
	<g>
		<path class="st3" d="M89.1,50.2c0.7-0.7,0.7-1.7,0-2.4c-0.7-0.7-1.7-0.7-2.4,0l-5,5l2.4,2.4L89.1,50.2z"/>
		<path class="st3" d="M63.1,34.1l5-5c0.7-0.7,0.7-1.7,0-2.4c-0.7-0.7-1.7-0.7-2.4,0l-5,5L63.1,34.1z"/>
		<path class="st3" d="M73.6,44.7l5-5c0.7-0.7,0.7-1.7,0-2.4c-0.7-0.7-1.7-0.7-2.4,0l-5,5L73.6,44.7z"/>
		<path class="st3" d="M113.3,41.2c-2.5-1.3-4.7-0.3-7.5-3.1c-3.5-3.5-1.1-5.9-4.6-9.4c-3.5-3.5-5.9-1.1-9.4-4.6
			c-3.5-3.5-1.1-5.9-4.6-9.4c-3.5-3.5-5.9-1.1-9.4-4.6C75,7.2,76,5.1,74.7,2.5c-0.6-1.1-2.1-1.3-2.9-0.4L66.8,7c0.3,1,0.8,1.9,1.9,3
			c3.5,3.5,5.9,1.1,9.4,4.6s1.1,5.9,4.6,9.4c3.5,3.5,5.9,1.1,9.4,4.6c3.5,3.5,1.1,5.9,4.6,9.4c2.8,2.8,4.9,1.8,7.5,3.1
			c1.1,0.6,1.3,2.1,0.4,2.9L88.9,59.9l4.5,4.5l20.4-20.4C114.6,43.2,114.4,41.7,113.3,41.2z"/>
	</g>
	<path class="st4" d="M79.8,26.4c4.8,4.8,1.8,7.8,6.6,12.6s7.8,1.8,12.6,6.6c3.5,3.5,2.9,6.1,4.1,9.1l10.5-10.5
		c0.9-0.9,0.7-2.4-0.4-2.9c-2.5-1.3-4.7-0.3-7.5-3.1c-3.5-3.5-1.1-5.9-4.6-9.4c-3.5-3.5-5.9-1.1-9.4-4.6c-3.5-3.5-1.1-5.9-4.6-9.4
		c-3.5-3.5-5.9-1.1-9.4-4.6C75,7.2,76,5.1,74.7,2.5c-0.6-1.1-2.1-1.3-2.9-0.4l-8.6,8.6c1.3,3,0.6,5.5,4.1,9
		C72,24.6,75,21.6,79.8,26.4z"/>
	<path class="st5" d="M113.9,41.7c-0.3-0.3-0.5-0.5-0.9-0.6c-2.4-1.1-4.5-0.3-7.2-3c-3.5-3.5-1.1-5.9-4.6-9.4
		c-2.8-2.8-4.9-1.8-7.5-3.1c-1.1-0.6-2.1-1.5-2.7-2.4c-2.3-3-0.6-5.3-3.8-8.5c-3.6-3.6-6.1-1-9.7-4.9C75,7.1,76,5,74.7,2.5
		c-0.6-1.1-2.1-1.3-2.9-0.4C70,3.8,68.6,5.3,66.8,7c0.3,1,0.8,1.9,1.9,3c3.5,3.5,5.9,1.1,9.4,4.6c3.5,3.5,1.1,5.9,4.6,9.4
		c3.5,3.5,5.9,1.1,9.4,4.6c3.5,3.5,1.1,5.9,4.6,9.4c2.8,2.8,4.9,1.8,7.5,3.1c1.1,0.6,1.3,2.1,0.4,2.9l-3.8,3.8
		c1.5,2.4,1.3,4.5,2.3,6.8l10.5-10.5C114.4,43.4,114.5,42.4,113.9,41.7z"/>
	<path class="st6" d="M41.5,31.3L28.2,44.6c-2.9,2.9-2.9,7.5,0,10.4l7.6,7.6c1.6,1.6,1.4,4.1-0.3,5.6L8.5,90.4
		c-5.5,4.5-5.9,12.8-0.9,17.8c5,5,13.3,4.6,17.8-0.9l22.3-27.1c1.4-1.7,4-1.8,5.5-0.3l7.6,7.6c2.9,2.9,7.5,2.9,10.4,0l13.3-13.3
		L41.5,31.3z M18.8,103.2c-1.7,1.7-4.5,1.7-6.2,0c-1.7-1.7-1.7-4.5,0-6.2c1.7-1.7,4.5-1.7,6.2,0C20.5,98.7,20.5,101.5,18.8,103.2z"
		/>
	<path class="st7" d="M41.5,31.3l-2.3,2.3l25,25c6.2,6.2,6.2,16.3,0,22.4l-2,2c-1.1,1.1-2.4,1.8-3.8,2l2.5,2.5
		c2.9,2.9,7.5,2.9,10.4,0l13.3-13.3L41.5,31.3z"/>
	<path class="st7" d="M44.2,75.4c-1.6-1.6-4.1-1.4-5.5,0.3L19.9,98.6c0.6,1.6,0.2,3.4-1,4.6c-1.1,1.1-2.6,1.5-4,1.2
		c-2.3,2-5.2,2.9-8.1,2.8c0.3,0.3,0.6,0.7,0.9,1c5,5,13.3,4.6,17.8-0.9l22.3-27.1c0.2-0.2,0.4-0.5,0.7-0.6L44.2,75.4z"/>
	<path class="st4" d="M116.4,66.6c0,3.2-2.6,5.7-5.7,5.7c-3.2,0-5.7-2.6-5.7-5.7c0-3.2,4-10,5.7-10
		C112.4,56.6,116.4,63.4,116.4,66.6z"/>
	<path class="st5" d="M110.7,56.6c-0.4,0-0.9,0.3-1.4,0.9c1.4,2.2,2.6,5.1,2.6,6.8c0,3.2-2.6,5.7-5.7,5.7c0,0,0,0,0,0
		c1,1.4,2.7,2.3,4.6,2.3c3.2,0,5.7-2.6,5.7-5.7C116.4,63.4,112.4,56.6,110.7,56.6z"/>
	<path class="st1" d="M83.5,65.7c-0.4,0-0.9-0.2-1.2-0.5L50.6,33.5c-0.7-0.7-0.7-1.7,0-2.4c0.7-0.7,1.7-0.7,2.4,0l31.7,31.7
		c0.7,0.7,0.7,1.7,0,2.4C84.4,65.5,84,65.7,83.5,65.7z"/>
	<path class="st8" d="M53,31.1c-0.6-0.6-1.6-0.7-2.2-0.2l30.6,30.6c1.1,1.1,1.6,2.6,1.4,4c0.2,0.1,0.5,0.2,0.8,0.2
		c0.4,0,0.9-0.2,1.2-0.5c0.7-0.7,0.7-1.7,0-2.4L53,31.1z"/>
</g>
</svg>
