<?xml version="1.0"?>
<svg xmlns="http://www.w3.org/2000/svg" xmlns:xlink="http://www.w3.org/1999/xlink" version="1.1" id="Layer_1" x="0px" y="0px" viewBox="0 0 512 512" style="enable-background:new 0 0 512 512;" xml:space="preserve" width="512px" height="512px" class=""><g><g>
	<path style="fill:#FF7700" d="M464.629,375.089h-26.777v-85.827c0-19.966-16.244-36.211-36.211-36.211H110.359   c-19.966,0-36.211,16.244-36.211,36.211v85.827H47.371v-85.827c0-34.731,28.255-62.988,62.988-62.988h291.282   c34.731,0,62.988,28.255,62.988,62.988V375.089z" data-original="#FFC61B" class="active-path" data-old_color="#ff7700"/>
	<rect x="242.61" y="160.699" style="fill:#FF7700" width="26.777" height="206.97" data-original="#FFC61B" class="active-path" data-old_color="#ff7700"/>
	<path style="fill:#FF7700" d="M281.839,174.089h-51.678c-19.255,0-34.921-15.666-34.921-34.921v-51.68   c0-19.255,15.666-34.921,34.921-34.921h51.678c19.255,0,34.921,15.666,34.921,34.921v51.68   C316.76,158.423,301.095,174.089,281.839,174.089z M230.161,79.343c-4.491,0-8.144,3.654-8.144,8.144v51.68   c0,4.491,3.654,8.144,8.144,8.144h51.678c4.491,0,8.144-3.654,8.144-8.144v-51.68c0-4.491-3.654-8.144-8.144-8.144H230.161z" data-original="#FFC61B" class="active-path" data-old_color="#ff7700"/>
</g><path style="fill:#FFFFFF" d="M86.6,446.044H34.921c-11.893,0-21.533-9.641-21.533-21.533v-51.678  c0-11.892,9.641-21.533,21.533-21.533H86.6c11.892,0,21.533,9.641,21.533,21.533v51.678  C108.132,436.403,98.491,446.044,86.6,446.044z" data-original="#FFEEC0" class="" data-old_color="#FFffff"/><path style="fill:#FF7700" d="M86.6,459.433H34.921C15.666,459.433,0,443.767,0,424.51v-51.68  c0-19.255,15.666-34.921,34.921-34.921H86.6c19.255,0,34.921,15.666,34.921,34.921v51.68  C121.521,443.767,105.855,459.433,86.6,459.433z M34.921,364.687c-4.491,0-8.144,3.654-8.144,8.144v51.68  c0,4.491,3.654,8.144,8.144,8.144H86.6c4.491,0,8.144-3.654,8.144-8.144v-51.68c0-4.491-3.654-8.144-8.144-8.144H34.921z" data-original="#FFC61B" class="active-path" data-old_color="#ff7700"/><path style="fill:#FFFFFF" d="M281.839,446.044h-51.678c-11.892,0-21.533-9.641-21.533-21.533v-51.678  c0-11.892,9.641-21.533,21.533-21.533h51.678c11.892,0,21.533,9.641,21.533,21.533v51.678  C303.372,436.403,293.731,446.044,281.839,446.044z" data-original="#FFEEC0" class="" data-old_color="#FFffff"/><path style="fill:#FF7700" d="M281.839,459.433h-51.678c-19.255,0-34.921-15.666-34.921-34.921v-51.68  c0-19.255,15.666-34.921,34.921-34.921h51.678c19.255,0,34.921,15.666,34.921,34.921v51.68  C316.76,443.767,301.095,459.433,281.839,459.433z M230.161,364.687c-4.491,0-8.144,3.654-8.144,8.144v51.68  c0,4.491,3.654,8.144,8.144,8.144h51.678c4.491,0,8.144-3.654,8.144-8.144v-51.68c0-4.491-3.654-8.144-8.144-8.144H230.161z" data-original="#FFC61B" class="active-path" data-old_color="#ff7700"/><path style="fill:#FFFFFF" d="M477.079,446.044H425.4c-11.892,0-21.533-9.641-21.533-21.533v-51.678  c0-11.892,9.641-21.533,21.533-21.533h51.678c11.892,0,21.533,9.641,21.533,21.533v51.678  C498.611,436.403,488.972,446.044,477.079,446.044z" data-original="#FFEEC0" class="" data-old_color="#FFffff"/><path style="fill:#FF7700" d="M477.079,459.433h-51.68c-19.255,0-34.921-15.666-34.921-34.921v-51.68  c0-19.255,15.666-34.921,34.921-34.921h51.68c19.255,0,34.921,15.666,34.921,34.921v51.68  C512,443.767,496.334,459.433,477.079,459.433z M425.4,364.687c-4.491,0-8.144,3.654-8.144,8.144v51.68  c0,4.491,3.654,8.144,8.144,8.144h51.68c4.491,0,8.144-3.654,8.144-8.144v-51.68c0-4.491-3.654-8.144-8.144-8.144H425.4z" data-original="#FFC61B" class="active-path" data-old_color="#ff7700"/></g> </svg>
