<?xml version="1.0"?>
<svg xmlns="http://www.w3.org/2000/svg" xmlns:xlink="http://www.w3.org/1999/xlink" version="1.1" id="Capa_1" x="0px" y="0px" width="512px" height="512px" viewBox="0 0 60.585 60.585" style="enable-background:new 0 0 60.585 60.585;" xml:space="preserve" class=""><g><g>
	<g>
		<path d="M35.041,53.578c0-6.957,5.566-12.625,12.476-12.826c-1.885-0.789-3.777-1.546-5.685-2.281    c-0.342-0.13-0.743-0.383-0.881-0.684c-0.369-0.817-0.632-1.684-0.89-2.542c-0.168-0.547-0.316-1.062-0.921-1.325    c-0.162-0.068-0.311-0.388-0.306-0.588c0.031-1.991-0.429-4.084,1.04-5.814c0.05-0.054,0.063-0.131,0.096-0.196    c0.798-1.743,0.939-3.735,2.053-5.356c0.03-0.038,0.039-0.091,0.041-0.14c0.128-1.235,0.261-2.472,0.365-3.709    c0.014-0.154-0.128-0.426-0.253-0.473c-0.614-0.219-0.58-0.709-0.577-1.203c0.002-2.417,0-4.834-0.003-7.25    c-0.002-1.403-0.412-2.655-1.478-3.611c-1.212-1.086-2.45-2.137-3.691-3.188c-0.6-0.508-0.649-0.898-0.091-1.456    c0.244-0.245,0.565-0.423,0.855-0.633c-0.06-0.094-0.128-0.189-0.188-0.283c-0.376,0-0.759-0.049-1.122,0.007    c-1.368,0.222-2.753,0.416-4.098,0.733c-2.579,0.608-5.083,1.414-7.174,3.138c-1.434,1.179-2.574,2.553-2.717,4.499    c-0.074,1.016-0.063,2.042-0.072,3.06c-0.011,1.658,0.012,3.321-0.021,4.979c-0.007,0.271-0.163,0.715-0.343,0.775    c-0.674,0.218-0.691,0.647-0.6,1.208c0.061,0.383,0.009,0.785,0.098,1.161c0.234,1.039,0.477,2.073,0.776,3.098    c0.225,0.763,0.657,1.48,0.775,2.253c0.243,1.547,0.813,2.892,1.854,4.057c0.173,0.191,0.303,0.517,0.285,0.771    c-0.08,1.192-0.203,2.382-0.362,3.561c-0.031,0.23-0.276,0.575-0.474,0.613c-0.79,0.165-0.914,0.776-1.103,1.395    c-0.248,0.813-0.517,1.619-0.829,2.411c-0.098,0.244-0.341,0.499-0.584,0.606c-1.409,0.613-2.835,1.175-4.251,1.771    c-1.509,0.631-3.03,1.236-4.504,1.94c-1.516,0.724-2.985,1.538-4.468,2.336c-0.874,0.466-1.69,0.985-2.38,1.629v9.25    c9.827,0,19.649,0,29.473,0C35.093,54.716,35.041,54.155,35.041,53.578z" data-original="#000000" class="active-path" data-old_color="#ff7700" fill="#ff7700"/>
		<polygon points="54.895,52.411 49.056,52.411 49.056,46.571 46.72,46.571 46.72,52.411 40.88,52.411 40.88,54.746 46.72,54.746     46.72,60.585 49.056,60.585 49.056,54.746 54.895,54.746   " data-original="#000000" class="active-path" data-old_color="#ff7700" fill="#ff7700"/>
	</g>
</g></g> </svg>
