<svg xmlns="http://www.w3.org/2000/svg" viewBox="0 0 137.46 137.46"><defs><style>.cls-1{fill:#ccccce;opacity:0.15;}.cls-2{fill:#e7eced;}</style></defs><title>avatar1</title><g id="Calque_2" data-name="Calque 2"><g id="BODY"><g id="_1" data-name="1"><rect class="cls-1" width="137.46" height="137.46"/><path class="cls-2" d="M112.92,137.46H27.18A15.49,15.49,0,0,1,29.4,136l20.5-11.19a8.37,8.37,0,0,0,4.37-7.35v-8.4A45.55,45.55,0,0,1,46,91.86a6.89,6.89,0,0,1-3.18-5.79v-9.2a6.83,6.83,0,0,1,2.3-5.09V58.49S42.34,37.81,70.36,37.81,95.64,58.49,95.64,58.49v13.3a6.86,6.86,0,0,1,2.3,5.09v9.2A6.9,6.9,0,0,1,93,92.63a50.44,50.44,0,0,1-6.83,13.75,29.13,29.13,0,0,1-2.08,2.67v8.62a8.38,8.38,0,0,0,4.63,7.48l22,11A16,16,0,0,1,112.92,137.46Z"/></g></g></g></svg>