<svg xmlns="http://www.w3.org/2000/svg" viewBox="0 0 137.46 137.46"><defs><style>.cls-1{fill:#ccccce;opacity:0.15;}.cls-2{fill:#e7eced;}</style></defs><title>avatar2</title><g id="Calque_2" data-name="Calque 2"><g id="BODY"><g id="_1" data-name="1"><rect class="cls-1" width="137.46" height="137.46"/><path class="cls-2" d="M113,137.46H26.73l-.19-.16a16.91,16.91,0,0,1,6-5.13l23.43-10c1.28-.63,2.31-2.69,3-4.15a2,2,0,0,0-1.79-2.88H40.66a42.09,42.09,0,0,1-10.61-2.57c-2.71-1.17-3.64-2.7-1.94-5.11,4.94-7.05,15.18-23.64,15.52-40.78,0,0,.56-26.38,26.59-26.59,15.18.13,22.35,9.06,25.7,16.48a38.42,38.42,0,0,1,3,13.2c1.07,16.33,9.4,31.28,13.27,37.65a4.62,4.62,0,0,1-1.49,6.35,12.87,12.87,0,0,1-7.93,1.37H86A1.87,1.87,0,0,0,85,118.39a24.61,24.61,0,0,0,2.58,1.86L107,132A16.84,16.84,0,0,1,113,137.46Z"/></g></g></g></svg>