<svg xmlns="http://www.w3.org/2000/svg" viewBox="0 0 138.42 177.41"><defs><style>.cls-1{opacity:0.44;}.cls-2{fill:#fff;}</style></defs><title>banner_illu</title><g id="Calque_2" data-name="Calque 2"><g id="BODY"><g id="_1" data-name="1"><g class="cls-1"><path class="cls-2" d="M101.5,62.54c-6.09-3.55-10.22-.33-13.21,4.78L73.09,92.74c-3.14-.35-8.34-1.93-12.85-.22-8,3-8.8,9.12-8.8,14,0,11.14,4.72,26.55,3.25,33.33-1.81,8.34-7.44,16.39-7.44,16.39l35.37,21.12c8.6-14.4,18.91-20.17,26.3-25.7,16.74-12.54,23.56-24.23,27-30.44,7.06-12.88-2.59-20.08-4.44-21.64.65-4-.05-7.38-2.09-9.94a11,11,0,0,0-3-2.56,15.65,15.65,0,0,0-5.56-1.93c.13-3.81-.91-6.84-3.11-9a11.05,11.05,0,0,0-2.07-1.6c-5.2-3.18-8-1.31-8-1.31S107.59,66.09,101.5,62.54Z"/><path class="cls-2" d="M12.35,11.64A41,41,0,0,0,64.07,74.86l7.23,7.41L78.88,69.6l-4.59-4.71A41,41,0,0,0,12.35,11.64Zm51.59,6.94A32.08,32.08,0,1,1,18.58,18,32.11,32.11,0,0,1,63.94,18.58Z"/><path class="cls-2" d="M18.86,28.27a24.59,24.59,0,0,0-.77,23.95,3.37,3.37,0,1,0,6-3.07,17.89,17.89,0,0,1,.56-17.42,3.37,3.37,0,0,0-5.79-3.46Z"/></g></g></g></g></svg>