<svg xmlns="http://www.w3.org/2000/svg" viewBox="0 0 155.63 96.23"><defs><style>.cls-1{fill:#f70;opacity:0.25;}</style></defs><title>buoy</title><g id="Calque_2" data-name="Calque 2"><g id="BODY"><g id="_1" data-name="1"><path class="cls-1" d="M106.43,0A107.11,107.11,0,0,0,0,96.23H6a100,100,0,0,1,9.29-32.76q1.29-2.71,2.75-5.34A101.69,101.69,0,0,1,58.13,18.32q2.63-1.44,5.35-2.72a100.87,100.87,0,0,1,87.72.88q2.25,1.11,4.43,2.34V12A106.28,106.28,0,0,0,106.43,0Z"/><path class="cls-1" d="M143,47.48q-2.55-1.59-5.25-2.94a69.78,69.78,0,0,0-60.91-.89q-2.73,1.28-5.33,2.78a70.33,70.33,0,0,0-25,24.49c-1,1.71-2,3.47-2.89,5.28a69.08,69.08,0,0,0-6.31,20h6.08a63.84,63.84,0,0,1,112.16-30V57.4A70.29,70.29,0,0,0,143,47.48Z"/><polygon class="cls-1" points="71.56 46.43 58.13 18.32 63.48 15.6 76.89 43.65 71.56 46.43"/><polygon class="cls-1" points="155.63 18.82 155.63 21.14 143.05 47.48 143.05 47.48 137.8 44.54 137.8 44.54 151.2 16.48 151.2 16.48 155.63 18.82"/><polygon class="cls-1" points="43.7 76.2 15.33 63.47 18.08 58.13 46.59 70.92 43.7 76.2"/></g></g></g></svg>