<svg xmlns="http://www.w3.org/2000/svg" viewBox="0 0 124.61 124.61"><defs><style>.cls-1{fill:#fff;}.cls-2{fill:#663e1b;}.cls-3{fill:#7c5437;}.cls-4{fill:#ff4b4e;}.cls-5{fill:#57bae5;}.cls-6{fill:#ff9100;}.cls-7{fill:#5a73e0;}.cls-8{fill:#ffc373;}.cls-9{fill:#bad8e8;}.cls-10{fill:#00cdb3;}.cls-11{fill:#ffca54;}</style></defs><title>cake</title><g id="Calque_2" data-name="Calque 2"><g id="BODY"><g id="_1" data-name="1"><rect class="cls-1" x="1.18" y="1.18" width="122.26" height="122.26"/><path class="cls-2" d="M122.26,2.35V122.26H2.35V2.35H122.26M124.61,0H0V124.61H124.61V0Z"/><path class="cls-3" d="M89.77,60.35V53a3.46,3.46,0,0,0-3.46-3.46H38.9A3.46,3.46,0,0,0,35.44,53V73.5H89.77V65.22"/><path class="cls-4" d="M78.1,49.51v-4a2,2,0,0,0-2-2h-27a2,2,0,0,0-2,2v4Z"/><path class="cls-5" d="M79.89,39.56c-.86-.94-1.89,0-1.89,3.27v6.68h2.54V42.83A5.73,5.73,0,0,0,79.89,39.56Z"/><path class="cls-6" d="M79.22,25.63a11.87,11.87,0,0,0-.88,5.17c0,3.45.78,5.21.94,5.21s.94-1.72.94-5.21S79.38,25.37,79.22,25.63Z"/><path class="cls-5" d="M70.73,39.56c-.86-.94-1.89,0-1.89,3.27v6.68h2.54V42.83A5.73,5.73,0,0,0,70.73,39.56Z"/><path class="cls-6" d="M70.06,25.63a11.87,11.87,0,0,0-.88,5.17c0,3.45.78,5.21.94,5.21s.94-1.72.94-5.21S70.22,25.37,70.06,25.63Z"/><path class="cls-5" d="M57.44,39.56c-.86-.94-1.89,0-1.89,3.27v6.68H58.1V42.83A5.73,5.73,0,0,0,57.44,39.56Z"/><path class="cls-6" d="M56.77,25.63a11.87,11.87,0,0,0-.88,5.17c0,3.45.78,5.21.94,5.21s.94-1.72.94-5.21S56.93,25.37,56.77,25.63Z"/><path class="cls-5" d="M48.28,39.56c-.86-.94-1.89,0-1.89,3.27v6.68h2.54V42.83A5.73,5.73,0,0,0,48.28,39.56Z"/><path class="cls-6" d="M47.61,25.63a11.87,11.87,0,0,0-.88,5.17c0,3.45.78,5.21.94,5.21s.94-1.72.94-5.21S47.77,25.37,47.61,25.63Z"/><path class="cls-7" d="M52.86,33.79c-.86-.94-1.89,0-1.89,3.27v6.68h2.54V37.06A5.73,5.73,0,0,0,52.86,33.79Z"/><path class="cls-6" d="M52.19,19.86A11.87,11.87,0,0,0,51.31,25c0,3.45.78,5.21.94,5.21s.94-1.72.94-5.21S52.35,19.6,52.19,19.86Z"/><path class="cls-7" d="M74.85,33.79c-.86-.94-1.89,0-1.89,3.27v6.68H75.5V37.06A5.73,5.73,0,0,0,74.85,33.79Z"/><path class="cls-6" d="M74.18,19.86A11.87,11.87,0,0,0,73.29,25c0,3.45.78,5.21.94,5.21s.94-1.72.94-5.21S74.34,19.6,74.18,19.86Z"/><path class="cls-7" d="M63.21,33.63c-.83-.94-1.82,0-1.82,3.27v6.68h2.45V36.9A5.92,5.92,0,0,0,63.21,33.63Z"/><path class="cls-6" d="M62.57,19.7a12.29,12.29,0,0,0-.85,5.17c0,3.45.75,5.21.9,5.21s.9-1.72.9-5.21S62.72,19.44,62.57,19.7Z"/><path class="cls-8" d="M86.31,49.51H38.9A3.46,3.46,0,0,0,35.59,52c-.18.62-.14.77-.14,3.64l6.44,4.18a4.6,4.6,0,0,0,5,.18l4.4-2.86h0A4.07,4.07,0,0,1,55.64,57c7.74,5,6.16,5.05,13.94,0a4.07,4.07,0,0,1,4.39.14h0L78.37,60a4.6,4.6,0,0,0,5-.18l6.44-4.18V53A3.46,3.46,0,0,0,86.31,49.51Z"/><path class="cls-3" d="M98.24,86.21V78A4.54,4.54,0,0,0,93.7,73.5H31.52A4.54,4.54,0,0,0,27,78V98.93H98.24V91"/><path class="cls-9" d="M105.59,98.93h-86a3,3,0,0,0,0,6h86a3,3,0,1,0,0-6Z"/><path class="cls-8" d="M27,78v2.77L32.8,84.6a4.6,4.6,0,0,0,5,.18l4.4-2.86h0a4.07,4.07,0,0,1,4.39-.14c7.7,5,6.28,5,13.77.14a4.25,4.25,0,0,1,2.29-.72,4.17,4.17,0,0,1,2.27.72h0c4.39,2.85,5.12,3.54,6.63,3.58a4.24,4.24,0,0,0,2.3-.58l4.84-3.15a4.07,4.07,0,0,1,4.39.14h0l4.4,2.86a4.6,4.6,0,0,0,5-.18l5.82-3.78V78A4.54,4.54,0,0,0,93.7,73.5H31.52A4.54,4.54,0,0,0,27,78Z"/><circle class="cls-10" cx="47.86" cy="67.73" r="1.95"/><circle class="cls-5" cx="67.46" cy="64.53" r="1.95"/><circle class="cls-10" cx="80.64" cy="66.52" r="1.95"/><path class="cls-4" d="M70.26,70.35a1.5,1.5,0,0,1,.72-2l2.7-1.27A1.5,1.5,0,0,1,75,69.79l-2.71,1.27A1.5,1.5,0,0,1,70.26,70.35Z"/><path class="cls-11" d="M56.24,68.42l-2.55-1.56a1.5,1.5,0,0,1,1.56-2.56l2.55,1.56a1.5,1.5,0,0,1-1.56,2.56Z"/><circle class="cls-5" cx="74.5" cy="93.1" r="1.95"/><circle class="cls-10" cx="54.9" cy="89.9" r="1.95"/><circle class="cls-4" cx="41.72" cy="91.89" r="1.95"/><path class="cls-11" d="M50.11,96.44l-2.7-1.27a1.5,1.5,0,0,1,1.27-2.71l2.71,1.27a1.5,1.5,0,1,1-1.27,2.71Z"/><path class="cls-5" d="M84.73,95.17,82,93.9a1.5,1.5,0,0,1,1.27-2.71L86,92.45a1.5,1.5,0,0,1-1.27,2.71Z"/><path class="cls-11" d="M64.06,93.29a1.5,1.5,0,0,1,.5-2.06l2.55-1.56a1.5,1.5,0,1,1,1.56,2.56l-2.55,1.56A1.5,1.5,0,0,1,64.06,93.29Z"/><path class="cls-7" d="M92.94,64c-.86-.94-1.89,0-1.89,3.27v6.68h2.54V67.25A5.73,5.73,0,0,0,92.94,64Z"/><path class="cls-6" d="M92.27,50.06a11.87,11.87,0,0,0-.88,5.17c0,3.45.78,5.21.94,5.21s.94-1.72.94-5.21S92.42,49.79,92.27,50.06Z"/><path class="cls-7" d="M84.63,64c-.86-.94-1.89,0-1.89,3.27v6.68h2.54V67.25A5.73,5.73,0,0,0,84.63,64Z"/><path class="cls-6" d="M84,50.06a11.87,11.87,0,0,0-.88,5.17c0,3.45.78,5.21.94,5.21s.94-1.72.94-5.21S84.12,49.79,84,50.06Z"/><path class="cls-7" d="M41.64,64c-.86-.94-1.89,0-1.89,3.27v6.68h2.54V67.25A5.73,5.73,0,0,0,41.64,64Z"/><path class="cls-6" d="M41,50.06a11.87,11.87,0,0,0-.88,5.17c0,3.45.78,5.21.94,5.21s.94-1.72.94-5.21S41.13,49.79,41,50.06Z"/><path class="cls-7" d="M33.41,64c-.86-.94-1.89,0-1.89,3.27v6.68h2.54V67.25A5.73,5.73,0,0,0,33.41,64Z"/><path class="cls-6" d="M32.74,50.06a11.87,11.87,0,0,0-.88,5.17c0,3.45.78,5.21.94,5.21s.94-1.72.94-5.21S32.9,49.79,32.74,50.06Z"/><path class="cls-7" d="M57.94,64c-.86-.94-1.89,0-1.89,3.27v6.68h2.54V67.25A5.73,5.73,0,0,0,57.94,64Z"/><path class="cls-6" d="M57.27,50.06a11.87,11.87,0,0,0-.88,5.17c0,3.45.78,5.21.94,5.21s.94-1.72.94-5.21S57.43,49.79,57.27,50.06Z"/><path class="cls-7" d="M49.71,64c-.86-.94-1.89,0-1.89,3.27v6.68h2.54V67.25A5.73,5.73,0,0,0,49.71,64Z"/><path class="cls-6" d="M49,50.06a11.87,11.87,0,0,0-.88,5.17c0,3.45.78,5.21.94,5.21s.94-1.72.94-5.21S49.2,49.79,49,50.06Z"/><path class="cls-7" d="M74.85,64C74,63,73,63.94,73,67.25v6.68H75.5V67.25A5.73,5.73,0,0,0,74.85,64Z"/><path class="cls-6" d="M74.18,50.06a11.87,11.87,0,0,0-.88,5.17c0,3.45.78,5.21.94,5.21s.94-1.72.94-5.21S74.34,49.79,74.18,50.06Z"/><path class="cls-7" d="M66.62,64c-.86-.94-1.89,0-1.89,3.27v6.68h2.54V67.25A5.73,5.73,0,0,0,66.62,64Z"/><path class="cls-6" d="M66,50.06a11.87,11.87,0,0,0-.88,5.17c0,3.45.78,5.21.94,5.21s.94-1.72.94-5.21S66.11,49.79,66,50.06Z"/></g></g></g></svg>