<svg xmlns="http://www.w3.org/2000/svg" viewBox="0 0 184.94 92.35"><defs><style>.cls-1{opacity:0.15;}.cls-2{fill:#f70;}</style></defs><title>camera_cut</title><g id="Calque_2" data-name="Calque 2"><g id="BODY"><g id="_1" data-name="1"><g class="cls-1"><path class="cls-2" d="M184.94,18.62V92.35h-5V18.62a1.71,1.71,0,0,0-1.71-1.71H160.74a6.72,6.72,0,0,1-5.89-3.5l-4.1-7.52a1.71,1.71,0,0,0-1.5-.89H92.47a1.71,1.71,0,0,0-1.56,1l-3.52,7.82a6.71,6.71,0,0,1-6.12,4H7.08a1.73,1.73,0,0,0-1.71,1.71L5,92.35H0l.37-72.9a6.73,6.73,0,0,1,6.71-6.68H81.27a1.7,1.7,0,0,0,1.56-1l3.52-7.82A6.72,6.72,0,0,1,92.47,0h56.78a6.72,6.72,0,0,1,5.89,3.49l4.1,7.53a1.71,1.71,0,0,0,1.5.89h17.49A6.72,6.72,0,0,1,184.94,18.62Z"/><path class="cls-2" d="M139.61,7.41H104.75A6.6,6.6,0,0,0,98.16,14v5.14a6.59,6.59,0,0,0,6.59,6.58h34.86a6.59,6.59,0,0,0,6.58-6.58V14A6.59,6.59,0,0,0,139.61,7.41Zm1.58,11.73a1.6,1.6,0,0,1-1.58,1.58H104.75a1.61,1.61,0,0,1-1.59-1.58V14a1.61,1.61,0,0,1,1.59-1.59h34.86A1.61,1.61,0,0,1,141.19,14Z"/><path class="cls-2" d="M52.5,24.41A40.49,40.49,0,0,0,22.73,92.35H30a35.5,35.5,0,1,1,45,0h7.26A40.48,40.48,0,0,0,52.5,24.41Z"/></g></g></g></g></svg>