<svg xmlns="http://www.w3.org/2000/svg" viewBox="0 0 187.44 160.06"><defs><style>.cls-1,.cls-3{opacity:0.44;}.cls-2,.cls-3{fill:#fff;}</style></defs><title>crowd</title><g id="Calque_2" data-name="Calque 2"><g id="BODY"><g id="_1" data-name="1"><g class="cls-1"><path class="cls-2" d="M67.84,3.46a94.08,94.08,0,0,0-49.11,33.9,139.67,139.67,0,0,0,23.65,6.56,113,113,0,0,1,9.09-20.45A72.47,72.47,0,0,1,67.84,3.46Z"/><path class="cls-2" d="M15,42.69A93.19,93.19,0,0,0,0,90.44H34.71A159.54,159.54,0,0,1,40.51,50,141.41,141.41,0,0,1,15,42.69Z"/></g><g class="cls-1"><path class="cls-2" d="M172.44,42.68A141.19,141.19,0,0,1,146.94,50a159.55,159.55,0,0,1,5.79,40.45h34.71A93.19,93.19,0,0,0,172.44,42.68Z"/><path class="cls-2" d="M130.5,26.64c-9.2-16-21-25.29-33.61-26.64V48.49a280.16,280.16,0,0,0,41.9-3.44A106,106,0,0,0,130.5,26.64Z"/></g><path class="cls-3" d="M73.45,90.44H41a153,153,0,0,1,5.72-39.32,284.34,284.34,0,0,0,43.81,3.7V83.46a3,3,0,0,0,.13.88,22.52,22.52,0,0,0-14.34,8A3.16,3.16,0,0,0,73.45,90.44Z"/><path class="cls-3" d="M96.8,84.14a3,3,0,0,0,.08-.68V54.82a284.91,284.91,0,0,0,43.82-3.69,152.52,152.52,0,0,1,5.71,39.31H114.06a3.17,3.17,0,0,0-2,.76A22.58,22.58,0,0,0,96.8,84.14Z"/><path class="cls-3" d="M19.68,123v7.11a5.62,5.62,0,0,0,2.22,9.42,2.3,2.3,0,0,0,.67.1,2.18,2.18,0,0,0,1.14-.32,13.28,13.28,0,0,0,7.79,11.41v3.19l-5.9,2.36A94,94,0,0,1,3.45,119.09,94.11,94.11,0,0,1,0,96.76H34.71c.05,2.73.16,5.45.34,8.14,0,.12,0,.24,0,.36A17.94,17.94,0,0,0,19.68,123Z"/><path class="cls-3" d="M86.07,141.75v4l-16.84,6.76h0l0,0h0a15.89,15.89,0,0,0-4.59,2.64l0,0c-.14.1-.26.21-.39.32l-.24.2-.2.18-.4.38,0,0a18.33,18.33,0,0,0-2.95,3.73,11,11,0,0,0-1.72-.79h-.05l-13.34-5.34v-3.18A13.29,13.29,0,0,0,53,139.32a2.2,2.2,0,0,0,1.14.32,2.26,2.26,0,0,0,.67-.1,5.23,5.23,0,0,0,1.26-.57,2.45,2.45,0,0,0,.62-.56,2.39,2.39,0,0,0,.66-.51A5.62,5.62,0,0,0,57,130v-7a17.94,17.94,0,0,0-15.65-17.77,2.7,2.7,0,0,0,0-.74c-.16-2.55-.27-5.13-.32-7.72H73.47a22.48,22.48,0,0,0-2.32,10v9A7.1,7.1,0,0,0,74,127.61a2.85,2.85,0,0,0,.84.13,2.89,2.89,0,0,0,1.45-.39A16.75,16.75,0,0,0,86.07,141.75Z"/><path class="cls-3" d="M115.88,96.76h30.53c-.05,2.68-.16,5.36-.34,8a2.05,2.05,0,0,0,0,.32A17.92,17.92,0,0,0,128.37,123v7.11a5.62,5.62,0,0,0,2.22,9.42,2.3,2.3,0,0,0,.67.1,2.18,2.18,0,0,0,1.14-.32,13.28,13.28,0,0,0,7.79,11.41v3.19l-12,4.79a18.8,18.8,0,0,0-2.05-2.37l0,0-.41-.38-.2-.18-.23-.2-.39-.32,0,0a15.86,15.86,0,0,0-4.58-2.64h0l0,0h0l-16.84-6.76v-4a16.75,16.75,0,0,0,9.82-14.4,2.91,2.91,0,0,0,1.45.39,2.85,2.85,0,0,0,.84-.13,7.08,7.08,0,0,0,1.6-.72,2.93,2.93,0,0,0,.78-.71,2.79,2.79,0,0,0,.83-.65,7.07,7.07,0,0,0-.49-9.9v-8.89A22.41,22.41,0,0,0,115.88,96.76Z"/><path class="cls-3" d="M187.28,96.76a91.11,91.11,0,0,1-26.59,59.87l-6.79-2.72v-3.18a13.29,13.29,0,0,0,7.79-11.42,2.2,2.2,0,0,0,1.14.32,2.26,2.26,0,0,0,.67-.1,5.23,5.23,0,0,0,1.26-.57,2.45,2.45,0,0,0,.62-.56,2.39,2.39,0,0,0,.66-.51,5.62,5.62,0,0,0-.38-7.85v-7a17.93,17.93,0,0,0-13.35-17.32,2.23,2.23,0,0,0,.08-.49c.19-2.79.31-5.61.36-8.43Z"/><path class="cls-3" d="M119.6,3.46a72.46,72.46,0,0,1,16.37,20,113,113,0,0,1,9.09,20.45,139.56,139.56,0,0,0,23.65-6.57A94.09,94.09,0,0,0,119.6,3.46Z"/><path class="cls-3" d="M90.56,0C78,1.34,66.15,10.68,56.95,26.64A106,106,0,0,0,48.66,45a280.37,280.37,0,0,0,41.9,3.45V0Z"/></g></g></g></svg>