<svg xmlns="http://www.w3.org/2000/svg" viewBox="0 0 43.5 43.92"><defs><style>.cls-1{fill:#f70;}</style></defs><title>dot_pen</title><g id="Calque_2" data-name="Calque 2"><g id="BODY"><g id="_1" data-name="1"><path class="cls-1" d="M30,7.63,5.5,31.88c-1.57,1.57-3.37,5.39-2.69,7.63L.34,42a1.09,1.09,0,0,0,0,1.57,1.06,1.06,0,0,0,1.57,0l2.47-2.47c2.25.45,6.06-1.35,7.63-2.69L36.26,13.92Z"/><path class="cls-1" d="M43,4,39.63.67a2.17,2.17,0,0,0-3.14,0L32.89,4.27l6.51,6.51L43,7.19A2.7,2.7,0,0,0,43,4Z"/></g></g></g></svg>