<svg xmlns="http://www.w3.org/2000/svg" viewBox="0 0 43.5 43.5"><defs><style>.cls-1{fill:#f70;}</style></defs><title>dot_birth</title><g id="Calque_2" data-name="Calque 2"><g id="BODY"><g id="_1" data-name="1"><path class="cls-1" d="M33.53,0a10,10,0,0,0-10,10,5,5,0,0,1-1.66,3.5.91.91,0,0,0,0,1.28l6.84,6.84a.91.91,0,0,0,1.28,0,5,5,0,0,1,3.5-1.66A10,10,0,1,0,33.53,0Zm0,5.44A4.54,4.54,0,0,0,29,10a.91.91,0,1,1-1.81,0,6.35,6.35,0,0,1,6.34-6.34.91.91,0,0,1,0,1.81Z"/><path class="cls-1" d="M13.17,8.58A4.53,4.53,0,0,0,6.76,15l7.51,7.52L12.76,24A9.88,9.88,0,0,0,0,33.53a10,10,0,1,0,19.94,0,9.61,9.61,0,0,0-.46-2.79L21,29.22l7.51,7.51a4.49,4.49,0,0,0,3.2,1.33,4.53,4.53,0,0,0,3.2-7.74ZM10,38.06a4.53,4.53,0,0,1-1-8.94,4.73,4.73,0,0,0,4.67,5.53,4.93,4.93,0,0,0,.78-.07A4.54,4.54,0,0,1,10,38.06Z"/></g></g></g></svg>