<svg xmlns="http://www.w3.org/2000/svg" viewBox="0 0 26.45 55.69"><defs><style>.cls-1{fill:#f70;}</style></defs><title>dot_phone</title><g id="Calque_2" data-name="Calque 2"><g id="BODY"><g id="_1" data-name="1"><path class="cls-1" d="M0,27.79C0,20.23.11,12.67,0,5.11A4.84,4.84,0,0,1,5.12,0C10.57.1,16,0,21.49,0a4.59,4.59,0,0,1,5,5q0,22.85,0,45.7c0,3.11-1.84,5-4.93,5H4.88A4.49,4.49,0,0,1,0,50.81Q0,39.3,0,27.79ZM1.85,47.42H24.6c0-.32.05-.6.05-.89q0-18.91,0-37.82c0-.77-.21-1-1-1-7,0-13.95,0-20.92,0-.31,0-.61,0-.91.06Zm13.46,4.16a2,2,0,0,0-2.12-2.08,2.1,2.1,0,0,0-2.08,2,2.14,2.14,0,0,0,2.1,2.14A2.08,2.08,0,0,0,15.31,51.59Zm-1.08-47c.78,0,1.57,0,2.35,0,.23,0,.45-.32.67-.49-.22-.17-.44-.49-.67-.49-1.54,0-3.08,0-4.61,0-.24,0-.48.35-.72.54.24.16.47.43.72.45C12.72,4.66,13.47,4.62,14.23,4.62ZM9.69,3.43c-.24.31-.5.51-.48.68a.67.67,0,0,0,.48.45.66.66,0,0,0,.47-.45C10.18,3.94,9.92,3.74,9.69,3.43Z"/></g></g></g></svg>