<svg xmlns="http://www.w3.org/2000/svg" viewBox="0 0 52.82 62.06"><defs><style>.cls-1{fill:#f70;}</style></defs><title>dot_github_1</title><g id="Calque_2" data-name="Calque 2"><g id="BODY"><g id="_1" data-name="1"><path class="cls-1" d="M39.66,59.13a30.4,30.4,0,0,1-24.42.69s3.28.32,3.45-2.36l-.05-7.18s-10.47,2.5-13-4.57c0,0-2.17-4.43-4.27-5.62C.18,39.42,0,38.83,0,38.41a.64.64,0,0,1,.5-.55c1-.23,4.13-.57,6.45,3,2.81,4.31,5,5,6.15,5.05s4,0,5.63-1c0,0,.09-4.76,2.13-5.17,0,0-11.17-1-14.47-7.52A25.21,25.21,0,0,1,3.65,19.73s.26-6,3.94-9.36c0,0-2.22-2.76.35-10.24,0,0,1.8-1.25,10.64,4,0,0,9.63-3,19.28,0,0,0,6.62-4.65,10.59-4,0,0,2.66,8.13.4,10.24,0,0,7.12,6.48,2.26,19.75,0,0-2.15,8.46-15.92,9.62,0,0,3.25,1.74,2.61,10.83v6S37.61,59.19,39.66,59.13Z"/></g></g></g></svg>