<svg xmlns="http://www.w3.org/2000/svg" viewBox="0 0 43.97 43.97"><defs><style>.cls-1{fill:#f70;}</style></defs><title>dot_plugin</title><g id="Calque_2" data-name="Calque 2"><g id="BODY"><g id="_1" data-name="1"><g id="extension"><path class="cls-1" d="M38.73,20.94H35.59V12.56a4.2,4.2,0,0,0-4.19-4.19H23V5.23a5.23,5.23,0,0,0-10.47,0V8.38H4.19A4.2,4.2,0,0,0,0,12.56v8H3.14a5.65,5.65,0,0,1,0,11.31H0v8A4.2,4.2,0,0,0,4.19,44h8V40.83a5.65,5.65,0,1,1,11.31,0V44h8a4.2,4.2,0,0,0,4.19-4.19V31.41h3.14a5.23,5.23,0,0,0,0-10.47Z"/></g></g></g></g></svg>