<svg xmlns="http://www.w3.org/2000/svg" viewBox="0 0 205.85 102.92"><defs><style>.cls-1{fill:#ccccce;}.cls-1,.cls-2{opacity:0.16;}.cls-2{fill:#4e4e4e;}</style></defs><title>earth</title><g id="Calque_2" data-name="Calque 2"><g id="BODY"><g id="_1" data-name="1"><path class="cls-1" d="M205.85,102.92H0A102.44,102.44,0,0,1,25.55,35.07c.14-.16.27-.32.41-.47.3-.35.61-.7.93-1,.48-.53,1-1.05,1.47-1.57,0,0,0,0,0,0l.08-.09.31-.32L29.3,31c.55-.57,1.1-1.12,1.66-1.66.19-.19.38-.38.58-.56s.58-.57.88-.84.65-.62,1-.92c.82-.76,1.66-1.51,2.51-2.22C37,23.9,38,23,39.13,22.15l.79-.61c.72-.56,1.46-1.12,2.2-1.67.29-.21.58-.43.88-.63l1-.7c1.13-.8,2.28-1.57,3.46-2.32l1.7-1.07.23-.14.24-.15.17-.1,1.37-.81c1.08-.63,2.17-1.24,3.28-1.84.33-.18.67-.36,1-.53,2-1,4-2,6-2.89l1.22-.52c.78-.34,1.57-.67,2.37-1,.24-.1.47-.19.71-.27,1.35-.53,2.71-1,4.09-1.49.86-.3,1.73-.58,2.61-.85Q76,3.48,79.69,2.64c.54-.13,1.09-.25,1.64-.36s.95-.21,1.43-.3l1.32-.25c2-.37,4-.69,6-.93.69-.09,1.38-.17,2.08-.24L93.28.45c.47-.05,1-.09,1.43-.12h.06c.8-.06,1.61-.12,2.42-.16S99.09.07,100,0s1.92,0,2.88,0A102.83,102.83,0,0,1,189.3,46.93c.42.65.84,1.31,1.25,2a102.72,102.72,0,0,1,7.23,14l.48,1.17q1.65,4,2.94,8.18a.73.73,0,0,1,0,.14s0,0,0,.05c.11.31.2.62.29.93.42,1.37.8,2.75,1.15,4.14.09.35.18.71.26,1.06.48,2,.89,3.92,1.25,5.92a4.89,4.89,0,0,1,.09.53c.14.74.26,1.48.37,2.23s.23,1.56.33,2.34q.07.48.12,1c.06.45.11.92.16,1.38l.09.93c.07.68.13,1.37.18,2.06s.11,1.49.15,2.23q0,.66.06,1.32c0,.35,0,.7,0,1.05C205.83,100.65,205.85,101.78,205.85,102.92Z"/><path class="cls-2" d="M205.85,102.92H179.69c-3.48-5.35-3.73-14.89.43-22.42C186,69.84,190.78,75,191.44,71s-5.81-4.47-6.91-10,4.77-14.09,4.77-14.09c.42.65.84,1.31,1.25,2a102.72,102.72,0,0,1,7.23,14l.48,1.17q1.65,4,2.94,8.18a.73.73,0,0,1,0,.14s0,0,0,.05c.11.31.2.62.29.93.42,1.37.8,2.75,1.15,4.14.09.35.18.71.26,1.06.48,2,.89,3.92,1.25,5.92a4.89,4.89,0,0,1,.09.53c.14.74.26,1.48.37,2.23s.23,1.56.33,2.34q.07.48.12,1c.06.45.11.92.16,1.38l.09.93c.07.68.13,1.37.18,2.06s.11,1.49.15,2.23q0,.66.06,1.32c0,.35,0,.7,0,1.05C205.83,100.65,205.85,101.78,205.85,102.92Z"/><path class="cls-2" d="M120.2,48.89c-10.29,9.19-22,19.48-22.42,25.36s3.68,10.66,1.47,11-4.23-2.39-5.7-4.41S85.28,78.11,82,79.4s-9.56,6.25-6.07,11S84.18,93,89,95.2c2.81,1.3,5.5,4.73,7.06,7.72h-5.8c-.43-.67-.85-1.41-1.26-2.2-3.33-6.48-9.58-2.21-14-3.31s-7.71-1.84-12.12-9.56S49.32,78,45.59,73.52C34.9,60.75,35.66,51.09,33.46,46.68s-7.62-11.24-7.91-11.61a0,0,0,0,1,0,0c.14-.16.27-.31.42-.46.3-.35.61-.7.93-1,.48-.53,1-1.05,1.47-1.57,0,0,0,0,0,0l.08-.09.31-.32L29.3,31c.55-.57,1.1-1.12,1.66-1.66.19-.19.38-.38.58-.56s.58-.57.88-.84.65-.62,1-.92c.82-.76,1.66-1.51,2.51-2.22,1-.92,2.12-1.8,3.21-2.66l.79-.61c.72-.56,1.46-1.12,2.2-1.67.29-.21.58-.43.88-.63l1-.7c1.13-.8,2.28-1.57,3.46-2.32l1.7-1.07.23-.14.24-.15.17-.1,1.37-.81c1.08-.63,2.17-1.24,3.28-1.84.33-.18.67-.36,1-.53,2-1,4-2,6-2.89l1.22-.52c.78-.34,1.57-.67,2.37-1,.24-.1.47-.19.71-.27,1.35-.53,2.71-1,4.09-1.49.86-.3,1.73-.58,2.61-.85Q76,3.48,79.69,2.64c.54-.13,1.09-.25,1.64-.36s.95-.21,1.43-.3l1.32-.25c2-.37,4-.69,6-.93.69-.09,1.38-.17,2.08-.24L93.28.45c.47-.05,1-.09,1.43-.12h.06c.8-.06,1.61-.12,2.42-.16S99.09.07,100,0s1.92,0,2.88,0c0,0-7,4.23,6.25,11.39s7.16,10.48,4.41,12.69-7.54-4.41-10.66-8.82S86.39,4,76.1,7.72,57,14.11,58.45,17.53s19.11-3.19,25.73-2.82,4.41,4.4-1.84,9.18-7,10.66-.36,14.34,14.7,4,16.54,1.84-3.31-16.54,9.19-10.29S130.5,39.7,120.2,48.89Z"/><path class="cls-2" d="M128.11,3.35a102.48,102.48,0,0,1,33.23,15s-12-1.72-16.41,2.41-10.83,13.83-16.45.34S128.11,3.35,128.11,3.35Z"/></g></g></g></svg>