<svg xmlns="http://www.w3.org/2000/svg" viewBox="0 0 54.8 32.67"><defs><style>.cls-1{opacity:0.16;}.cls-2{fill:#4e4e4e;}</style></defs><title>icon_number</title><g id="Calque_2" data-name="Calque 2"><g id="BODY"><g id="_1" data-name="1"><g class="cls-1"><path class="cls-2" d="M27.4,0c-10.47,0-20,5.73-27,15a2.17,2.17,0,0,0,0,2.59c7,9.32,16.5,15,27,15s20-5.73,27-15a2.17,2.17,0,0,0,0-2.59C47.37,5.73,37.87,0,27.4,0Zm.75,27.83A11.53,11.53,0,1,1,38.9,17.08,11.53,11.53,0,0,1,28.15,27.83Zm-.35-5.31a6.21,6.21,0,1,1,5.8-5.8A6.2,6.2,0,0,1,27.8,22.52Z"/></g></g></g></g></svg>