<svg xmlns="http://www.w3.org/2000/svg" viewBox="0 0 171.36 106.96"><defs><style>.cls-1{opacity:0.25;}.cls-2{fill:#f70;}</style></defs><title>pig_cut</title><g id="Calque_2" data-name="Calque 2"><g id="BODY"><g id="_1" data-name="1"><g class="cls-1"><path class="cls-2" d="M153.73,82.56v0a40.33,40.33,0,0,0-.51-5.38,14.2,14.2,0,0,0-.4-1.59h0c-4.53-19.66-14.34-34.06-29.08-42.79a69.63,69.63,0,0,0-26-8.73,56.18,56.18,0,0,0-6-.68,11.4,11.4,0,0,1-7.94,5.33,80.51,80.51,0,0,1,10.43.63c9.07,1,18.37,3.4,26.59,8.33,13.72,8.1,22.73,21.82,26.81,40.64,0,.18,2.36,12.63-4.22,28.68h6.13A62.72,62.72,0,0,0,153.73,82.56Zm-81.52-59c-2.09.17-4.08.4-6,.68a137.26,137.26,0,0,0-20,4.19,3.28,3.28,0,0,1-3.12-.67L21.88,10.37A2.73,2.73,0,0,0,19,9.92a2.83,2.83,0,0,0-1.76,2.27L13.66,41.55A91.32,91.32,0,0,0,0,52.83v9c4-6.43,13.85-13.64,17.85-16.25a2.72,2.72,0,0,0,1.25-2L22.27,18,39.5,32.2a9.09,9.09,0,0,0,5.79,2.09,10.23,10.23,0,0,0,2.55-.39,142.18,142.18,0,0,1,22-4.42c3.35-.34,6.92-.63,10.6-.74A11.62,11.62,0,0,1,72.21,23.58Z"/><path class="cls-2" d="M167,93.27a2.83,2.83,0,0,1-2.35-4.42,6.2,6.2,0,0,0-10.27-6.95,2.83,2.83,0,1,1-4.69-3.18A11.87,11.87,0,0,1,169.32,92,2.83,2.83,0,0,1,167,93.27Z"/><path class="cls-2" d="M82,0A17.31,17.31,0,0,0,64.68,17.23a16.3,16.3,0,0,0,1.52,7,16.28,16.28,0,0,0,3.63,5.22,17.12,17.12,0,0,0,24.43-.17A16.78,16.78,0,0,0,97.78,24a16.89,16.89,0,0,0,1.42-6.8A17.3,17.3,0,0,0,82,0Zm1.87,28.68a9.81,9.81,0,0,1-1.87.17,5.7,5.7,0,0,1-1.36-.11h-.17a11.58,11.58,0,1,1,13.1-11.51,11.22,11.22,0,0,1-1.76,6.12A11.4,11.4,0,0,1,83.83,28.68Z"/><path class="cls-2" d="M67.53,46A2.83,2.83,0,0,1,67,40.43c.73-.14,17.89-3.32,29.85-1.14a2.84,2.84,0,0,1,2.28,3.3,2.9,2.9,0,0,1-3.3,2.28c-11-2-27.6,1.1-27.78,1.13A2.88,2.88,0,0,1,67.53,46Z"/><path class="cls-2" d="M132.11,107H125.7a45.88,45.88,0,0,0,4.79-31.23A2.83,2.83,0,0,1,136,74.3,50.94,50.94,0,0,1,132.11,107Z"/><path class="cls-2" d="M131.1,70.77a2.83,2.83,0,0,1-2.66-1.85,39.91,39.91,0,0,0-3.85-6.42,2.84,2.84,0,0,1,4.62-3.29c.35.5,3.53,5,4.54,7.76a2.83,2.83,0,0,1-1.68,3.64A2.76,2.76,0,0,1,131.1,70.77Z"/><circle class="cls-2" cx="18.56" cy="72.21" r="4.71"/></g></g></g></g></svg>